<svg width="52" height="36" viewBox="0 0 52 36" fill="none" xmlns="http://www.w3.org/2000/svg">
<rect x="0.5" y="0.5" width="51" height="35" rx="3.5" fill="white"/>
<rect x="0.5" y="0.5" width="51" height="35" rx="3.5" stroke="#EAEAEA"/>
<path d="M32.9498 15.6602H24.5898C24.4198 15.6602 24.3398 15.7802 24.3398 15.9102V16.5702C24.3398 16.7402 24.4598 16.8202 24.5898 16.8202H30.8398V20.3002C30.6698 20.0502 30.4698 19.8002 30.2598 19.5502C29.5098 18.8002 28.7298 18.4302 27.8998 18.4302C27.2398 18.4302 26.6998 18.7602 26.2398 19.3402C25.8698 19.8402 25.6598 20.4202 25.6598 20.9502C25.6598 21.4802 25.7398 22.1902 26.1598 22.8502C26.6598 23.6402 27.4798 23.8802 28.2298 23.8802C29.1798 23.8802 29.9698 23.2202 29.9698 22.3502C29.9698 21.8502 29.7198 21.4402 29.2698 21.1502L28.8098 20.9002V21.6502C28.7698 21.8602 28.4398 22.1502 28.0598 22.1502C27.7298 22.1502 27.4398 22.0302 27.2298 21.8202C27.1098 21.7002 27.0198 21.4502 27.0598 21.2802C27.0598 21.0302 27.1398 20.8202 27.3098 20.6202C27.5198 20.3702 27.7198 20.2502 28.0598 20.2502C28.8898 20.2502 29.5898 20.6202 30.1698 21.4502C30.6298 22.1502 30.8698 22.8202 30.8698 23.5602V25.3002L32.1098 26.0502C32.1098 26.0502 32.1898 26.0902 32.2298 26.0902C32.3998 26.0902 32.4798 25.9702 32.4798 25.8402V16.8602H32.9798C33.1498 16.8602 33.2298 16.7402 33.2298 16.6102V15.9502C33.2298 15.7802 33.1098 15.6602 32.9398 15.6602H32.9498Z" fill="#EB1C24"/>
<path d="M49.6699 15.6609H39.0699C38.8999 15.6609 38.8199 15.7809 38.8199 15.9109V17.0709C37.7899 15.9909 36.8699 15.4609 36.0499 15.4609C35.2299 15.4609 34.5999 15.6309 34.0199 16.0809C33.4799 16.4909 33.1499 17.0309 33.1499 17.6509C33.1499 19.5109 35.2199 19.4709 35.7599 19.2209C35.8399 19.1809 35.9699 19.1009 36.0899 19.1009C36.4999 19.1009 36.6699 19.4309 36.6699 19.7209C36.6699 20.1309 36.0499 20.5109 35.2999 20.5109C34.8899 20.5109 34.6399 20.3909 34.4699 20.1409L34.1399 19.6409L33.9299 20.2209C33.8899 20.3409 33.8099 20.5109 33.8099 20.7209C33.8099 21.1309 34.0199 21.5509 34.4299 21.9209C34.7999 22.2509 35.2599 22.4209 35.7499 22.4209C36.5399 22.4209 37.1999 22.1309 37.6099 21.5509C37.9799 21.0909 38.1499 20.5609 38.1499 19.9409C38.1499 19.6109 38.0299 19.2409 37.7399 18.8209C37.4099 18.3209 36.9899 18.0709 36.5399 18.0709C36.3699 18.0709 36.1699 18.1109 35.9599 18.1909C35.8799 18.2309 35.7099 18.2709 35.6699 18.2709C35.5899 18.2709 35.4599 18.2309 35.3799 18.1009C35.2999 18.0209 35.2099 17.8909 35.2099 17.6909C35.2099 17.2309 35.6199 16.7809 36.3699 16.7809H36.4099C36.9099 16.7809 37.3999 17.0309 37.8599 17.4809C38.2299 17.8509 38.5199 18.2309 38.7699 18.6409V25.2209L40.0099 25.9709C40.0099 25.9709 40.0899 26.0109 40.1299 26.0109C40.2999 26.0109 40.3799 25.8909 40.3799 25.7609V16.8609H42.2799V22.6109L43.7699 23.2309H43.8499C43.9699 23.2309 44.0999 23.1509 44.0999 22.9809V22.9409C44.3499 21.2409 45.0899 20.0809 46.3399 19.3809V19.7109C46.3399 19.9609 46.3399 20.5809 46.3799 20.9109C46.3799 21.1209 46.3799 21.2409 46.4199 21.3709C46.4199 22.0309 46.4999 23.0309 46.7099 23.7709C47.1199 25.1809 47.8299 25.5109 48.3199 25.5109H48.3599C48.6499 25.5109 48.8999 25.4309 49.0599 25.2609C49.1399 25.1809 49.2699 25.0109 49.2699 24.7209C49.2699 24.4709 49.2299 24.2609 49.1499 24.1009L49.0299 23.8909L48.7799 23.9309C48.5299 24.0109 48.4099 24.0109 48.4099 23.9709H48.3699C48.3166 23.9709 48.2766 23.9576 48.2499 23.9309C48.1699 23.8909 47.9999 23.7609 47.8799 23.3109C47.7999 22.9809 47.7599 22.5209 47.7599 22.2809C47.7599 20.4209 48.1299 19.0109 48.7499 18.7209H48.7899C48.8699 18.6809 48.9599 18.6009 48.9599 18.4709C48.9599 18.4309 48.9599 18.3909 48.9199 18.3509V18.3109C48.6299 17.7309 48.0099 17.3209 47.1799 17.1109H47.0099C46.3499 17.2309 45.5599 17.6909 44.5699 18.5209C44.3199 18.7309 44.0699 18.9309 43.8699 19.1409V16.8609H49.6699C49.8399 16.8609 49.9199 16.7409 49.9199 16.6109V15.9509C49.9599 15.7809 49.8399 15.6609 49.6699 15.6609Z" fill="#EB1C24"/>
<path d="M21.6098 18.7202C21.6098 19.0102 21.6098 19.2602 21.5698 19.5102C21.4898 20.6702 21.1998 21.7502 20.7398 22.7402C20.5698 23.1502 20.3698 23.5302 20.1198 23.9002C18.3798 26.6302 15.3198 28.4502 11.8398 28.4502C10.3498 28.4502 8.93982 28.1202 7.69982 27.5402C4.38982 26.0102 2.06982 22.6102 2.06982 18.7202C2.06982 14.8302 4.30982 11.5602 7.48982 9.99023C7.23982 10.3202 6.98982 10.6502 6.78982 11.0202C6.78982 11.0602 6.74982 11.0602 6.74982 11.1002C6.62982 11.2202 6.49982 11.3102 6.37982 11.4302C6.20982 11.5502 6.08982 11.7202 5.91982 11.8402L5.83982 11.9202L5.75982 12.0002C5.75982 12.0002 5.67982 12.1202 5.58982 12.1702C5.50982 12.2902 5.37982 12.4202 5.29982 12.5402C4.88982 13.0802 4.54982 13.6602 4.30982 14.2802C4.26982 14.3202 4.26982 14.4002 4.22982 14.4502C4.18982 14.5302 4.18982 14.6202 4.14982 14.6602C4.14982 14.7002 4.10982 14.7402 4.10982 14.7802C4.06982 14.9002 4.02982 14.9902 3.98982 15.1102C3.94982 15.1902 3.94982 15.2802 3.90982 15.3202C3.90982 15.3602 3.86982 15.4002 3.86982 15.4402C3.86982 15.5202 3.82982 15.6102 3.82982 15.6902L3.70982 16.4402C3.70982 16.5202 3.70982 16.5602 3.66982 16.6502V17.6402C3.66982 20.2902 4.86982 22.6902 6.81982 24.2202C8.30982 25.4202 10.1698 26.1702 12.1998 26.1702C14.0598 26.1702 15.7598 25.5902 17.1698 24.5602C18.1998 23.8102 19.0298 22.8602 19.6498 21.7502C19.7298 21.5802 19.8198 21.4602 19.8998 21.2902C20.3998 20.2602 20.6898 19.1402 20.6898 17.9402V17.6502C20.6898 17.3602 20.6898 17.1102 20.6498 16.8202L20.6898 16.8602C20.8098 16.9802 20.9398 17.0702 21.0598 17.1902C21.1798 16.9802 21.3098 16.8202 21.4298 16.6102C21.5098 16.9802 21.5498 17.3602 21.5998 17.7702C21.6398 18.1402 21.6398 18.4302 21.6398 18.7202H21.6098Z" fill="#EB1C24"/>
<path d="M12.9998 10.9008L11.1798 7.55078C8.15984 8.92078 6.08984 11.9408 6.08984 15.4608C6.08984 17.2408 6.62984 18.9008 7.53984 20.2608C7.45984 19.8008 7.45984 19.3508 7.45984 18.8508C7.49984 15.2508 9.77984 12.1908 13.0098 10.9008H12.9998Z" fill="#F5921D"/>
<path d="M14.4499 12.5598C15.1999 12.3498 16.0199 12.2698 16.8099 12.2698C17.3099 12.2698 17.8399 12.3098 18.2999 12.3898L18.2599 10.8998L18.1799 7.91984C17.8499 7.87984 17.4799 7.83984 17.0999 7.83984C15.4399 7.83984 13.9099 8.37984 12.6699 9.24984L13.6599 11.0698C11.8799 11.6898 10.4299 12.9298 9.51986 14.5498C9.05986 15.3398 8.72986 16.2498 8.60986 17.1998C8.85986 16.6998 9.14986 16.2498 9.47986 15.8298C10.6799 14.2598 12.4199 13.0598 14.4499 12.5598Z" fill="#EB1C24"/>
<path d="M18.7897 10.8613L18.8697 12.9713C18.1697 12.7613 17.4597 12.6413 16.6797 12.6413C15.2297 12.6413 13.8697 13.0513 12.6597 13.7613C11.1697 14.6713 10.0097 16.1213 9.42969 17.8213C10.0097 17.0313 10.7097 16.3313 11.5397 15.7913C12.7397 15.0013 14.1897 14.5513 15.7197 14.5513C16.8797 14.5513 17.9597 14.8013 18.9497 15.2513C19.6997 15.5813 20.3597 16.0413 20.9397 16.6213L22.0997 14.8813L23.5897 12.6013C22.2697 11.5213 20.6097 10.8613 18.7897 10.8613Z" fill="#F5921D"/>
<path d="M20.6596 17.7316V18.0216C20.6596 19.7616 19.9597 21.2116 19.8696 21.3716C19.7896 21.5416 19.6996 21.6616 19.6196 21.8316C18.9996 22.9516 18.1696 23.9016 17.1396 24.6416C15.7296 25.6316 14.0396 26.2516 12.1696 26.2516C10.1396 26.2516 8.23965 25.5516 6.78965 24.3016C4.88965 22.7316 3.63965 20.3716 3.63965 17.7216V16.7316C3.63965 16.6516 3.63965 16.6116 3.67965 16.5216L3.79965 15.7716C3.79965 15.6916 3.83965 15.6016 3.83965 15.5216C3.83965 15.4816 3.87965 15.4416 3.87965 15.4016C3.91965 15.3216 3.91965 15.2316 3.95965 15.1916C3.99965 15.0716 4.03965 14.9416 4.07965 14.8616C4.07965 14.8216 4.11965 14.7816 4.11965 14.7416C4.15965 14.6616 4.15965 14.5716 4.19965 14.5316C4.23965 14.4916 4.23965 14.4116 4.27965 14.3616C4.52965 13.7416 4.89965 13.1616 5.26965 12.6216C5.34965 12.5016 5.47965 12.3716 5.55965 12.2516C5.59965 12.2116 5.63965 12.1316 5.72965 12.0816C5.76965 12.0416 5.76965 12.0016 5.80965 12.0016C5.84965 11.9616 5.84965 11.9216 5.88965 11.9216C6.00965 11.7516 6.17965 11.6316 6.34965 11.5116C6.46965 11.3916 6.59965 11.3016 6.71965 11.1816C6.71965 11.2216 6.67965 11.2216 6.67965 11.2616C6.67965 11.3016 6.63965 11.3416 6.63965 11.3416C6.13965 12.3316 5.80965 13.5316 5.68965 14.7816C5.64965 15.1116 5.64965 15.4416 5.64965 15.8116C5.64965 20.2816 8.25965 23.8816 11.4896 23.8816H11.8196C12.2796 23.8816 12.7296 23.8016 13.1896 23.7116C15.3796 23.1316 16.9996 21.1016 16.9996 18.7416V18.6216C16.9596 17.2116 16.3796 15.9316 15.4296 15.0616C16.0896 15.0616 16.7496 15.1816 17.3796 15.3516C18.5796 15.6416 19.6596 16.2216 20.6096 16.9616L20.6496 17.0016C20.6096 17.1716 20.6496 17.4616 20.6496 17.7016L20.6596 17.7316Z" fill="#F5921D"/>
<path d="M20.6597 17.7315V18.0215C20.6597 19.8415 19.8297 21.4115 19.8297 21.4115C19.7497 21.5815 19.6597 21.7015 19.5797 21.8715C18.9597 22.9915 18.0897 23.9415 17.0497 24.6815C15.5997 25.7615 13.8597 26.2915 12.0397 26.2915C10.0497 26.2915 8.14973 25.5915 6.61973 24.3415C4.62973 22.7315 3.46973 20.2815 3.46973 17.7215C3.46973 15.1615 4.62973 12.7115 6.61973 11.1015L6.69973 11.0215C6.69973 11.0215 6.65973 11.0615 6.65973 11.1015C6.65973 11.1415 6.61973 11.1415 6.61973 11.1815C4.66973 12.7915 3.55973 15.1515 3.55973 17.7215C3.55973 20.2915 4.67973 22.6515 6.65973 24.3015C8.14973 25.5415 10.0997 26.2015 12.0397 26.2015C13.8197 26.2015 15.5597 25.6615 17.0097 24.5915C18.0397 23.8415 18.8697 22.8915 19.4897 21.7815C19.5697 21.6115 19.6597 21.4915 19.6997 21.3215C19.6997 21.3215 20.5297 19.7915 20.5297 17.9715V17.6815C20.5297 17.3915 20.5297 17.1415 20.4897 16.8515V16.8115L20.5297 16.8515L20.5697 16.8915C20.6497 17.2215 20.6497 17.4715 20.6497 17.7215L20.6597 17.7315Z" fill="#F5921D"/>
</svg>
