<svg width="52" height="36" viewBox="0 0 52 36" fill="none" xmlns="http://www.w3.org/2000/svg">
<rect x="0.5" y="0.5" width="51" height="35" rx="3.5" fill="white"/>
<rect x="0.5" y="0.5" width="51" height="35" rx="3.5" stroke="#EAEAEA"/>
<path d="M32.2102 21.5002C32.1702 21.5902 32.2102 21.6702 32.2102 21.7402V24.4302C32.2102 24.5402 32.2202 24.6502 32.1902 24.7502C32.1502 24.9202 32.0502 25.0302 31.8702 25.0802C31.8002 25.1002 31.7202 25.1102 31.6502 25.1102H29.9302C29.6302 25.1102 29.4702 24.9002 29.4502 24.6402V14.8702C29.4502 14.7502 29.4602 14.6302 29.5302 14.5302C29.6102 14.4102 29.7202 14.3502 29.8602 14.3402C30.4302 14.3202 31.0102 14.3602 31.5802 14.3402C31.6602 14.3402 31.7302 14.3402 31.8102 14.3602C32.0202 14.4202 32.1102 14.5502 32.1202 14.7702V14.9702C32.1202 14.9702 32.1002 15.0302 32.1402 15.0402C32.1702 15.0402 32.1902 15.0102 32.2002 14.9902C32.2502 14.9102 32.3202 14.8502 32.3802 14.7902C32.5702 14.5802 32.8102 14.4502 33.0702 14.3502C33.2202 14.3002 33.3802 14.2602 33.5402 14.2402C33.7402 14.2102 33.9402 14.2002 34.1402 14.1802C34.3302 14.1602 34.5202 14.1802 34.7002 14.2002C34.9302 14.2302 35.1702 14.2802 35.3902 14.3602C35.5702 14.4202 35.7502 14.4902 35.9202 14.5802C36.3202 14.7802 36.6402 15.0802 36.9202 15.4302C37.0102 15.5402 37.0702 15.6802 37.1502 15.8002C37.2502 15.9602 37.3402 16.1402 37.3902 16.3302C37.4502 16.5502 37.5102 16.7702 37.5502 16.9902C37.5802 17.1602 37.6102 17.3402 37.6202 17.5002C37.6202 17.7002 37.6202 17.9002 37.6202 18.0902C37.6202 18.5202 37.6002 18.9602 37.5602 19.3902C37.5202 19.7902 37.3802 20.2102 37.2102 20.6202C37.1002 20.8802 36.9402 21.1002 36.7702 21.3202C36.4102 21.7702 35.9202 22.0302 35.3902 22.2102C35.1202 22.3002 34.8402 22.3602 34.5602 22.3802C34.4002 22.3902 34.2402 22.3802 34.0702 22.3802C33.6402 22.3902 33.2502 22.2502 32.8702 22.0502C32.6502 21.9402 32.4502 21.7802 32.2902 21.5902C32.2702 21.5602 32.2402 21.5302 32.2002 21.4902L32.2102 21.5002ZM33.5602 20.0002C33.8102 20.0002 34.0502 19.9602 34.2702 19.8302C34.5802 19.6502 34.7402 19.3502 34.8302 19.0202C34.9802 18.4502 34.9602 17.8702 34.7402 17.3202C34.6602 17.1202 34.5602 16.9402 34.3902 16.8002C34.1802 16.6402 33.9402 16.5802 33.6902 16.5602C33.3602 16.5402 33.0402 16.5902 32.7602 16.7902C32.4302 17.0302 32.2902 17.3702 32.2102 17.7502C32.1302 18.1402 32.1502 18.5302 32.2302 18.9102C32.3702 19.5502 32.8402 20.0202 33.5702 20.0002H33.5602Z" fill="#6B2FB5"/>
<path d="M15.29 16.8407V11.9107C15.29 11.6107 15.43 11.4707 15.73 11.4707C16.34 11.4707 16.96 11.4907 17.57 11.4707C17.84 11.4707 18.01 11.6407 18.01 11.9107V14.7207C18.01 14.8007 18 14.8907 17.99 14.9707C17.99 14.9907 17.98 15.0207 18 15.0407C18.03 15.0607 18.05 15.0407 18.07 15.0107C18.2 14.8907 18.33 14.7907 18.46 14.6807C18.61 14.5607 18.79 14.4807 18.96 14.4007C19.17 14.3007 19.39 14.2607 19.61 14.2107C19.78 14.1807 19.96 14.1707 20.14 14.1807C20.45 14.2007 20.76 14.2307 21.06 14.3007C21.33 14.3607 21.59 14.4507 21.83 14.5807C22.13 14.7507 22.4 14.9707 22.63 15.2407C22.89 15.5407 23.02 15.8807 23.15 16.2507C23.21 16.4307 23.24 16.6307 23.31 16.8107C23.33 16.8707 23.31 16.9607 23.31 17.0307C23.31 17.1907 23.37 17.3507 23.36 17.5107C23.35 17.6707 23.36 17.8407 23.36 18.0007V21.7407C23.36 22.0607 23.21 22.2207 22.89 22.2207H21.03C20.87 22.2207 20.78 22.1107 20.69 22.0107C20.66 21.9707 20.64 21.9307 20.64 21.8707V18.0707C20.64 17.8807 20.59 17.7007 20.56 17.5107C20.52 17.2607 20.41 17.0607 20.25 16.8907C20.03 16.6507 19.74 16.5807 19.43 16.5607C19.2 16.5507 18.96 16.5607 18.74 16.6607C18.51 16.7607 18.35 16.9207 18.23 17.1307C18.06 17.4407 18.02 17.7707 18.02 18.1107V21.4507C18.02 21.6007 18.04 21.7407 18.01 21.8907C17.96 22.1207 17.75 22.2207 17.55 22.2207H15.71C15.48 22.2207 15.3 21.9907 15.3 21.8007V16.8307H15.29V16.8407Z" fill="#6B2FB5"/>
<path d="M44.3599 21.5302C44.2999 21.6002 44.2399 21.6702 44.1799 21.7402C43.9699 21.9702 43.6899 22.1002 43.3999 22.2102C43.1899 22.2902 42.9599 22.3502 42.7399 22.3802C42.5399 22.4002 42.3299 22.3802 42.1199 22.3902C41.8199 22.3902 41.5199 22.3602 41.2299 22.2802C40.8299 22.1702 40.4699 21.9902 40.1499 21.7402C39.8899 21.5402 39.6899 21.2902 39.5099 21.0302C39.3199 20.7602 39.2799 20.4602 39.1799 20.1702C39.0999 19.9302 39.0899 19.6702 39.0699 19.4102C39.0199 18.8302 39.0499 18.2602 39.0499 17.6802V14.8402C39.0499 14.5402 39.2599 14.3302 39.5499 14.3402C40.0299 14.3402 40.5199 14.3402 40.9999 14.3502C41.1299 14.3502 41.2599 14.3302 41.3899 14.3502C41.6499 14.3902 41.7899 14.5402 41.7999 14.8002V18.6802C41.7999 19.0402 41.8899 19.3702 42.1199 19.6602C42.3099 19.8902 42.5699 19.9902 42.8499 20.0102C43.1799 20.0402 43.5099 20.0102 43.7899 19.7902C44.0499 19.5802 44.1599 19.2902 44.2199 18.9702C44.2499 18.8202 44.2499 18.6702 44.2499 18.5202V15.2802C44.2499 15.0802 44.2499 14.8802 44.2499 14.6802C44.2699 14.5102 44.4299 14.3602 44.5999 14.3602H46.0799C46.2199 14.3602 46.3599 14.3502 46.4999 14.3602C46.6999 14.3602 46.8799 14.4302 46.9499 14.6602C46.9699 14.7402 46.9899 14.8202 46.9899 14.9002V21.0502C46.9899 21.3202 46.9899 21.5902 46.9699 21.8602C46.9399 22.0902 46.7899 22.2502 46.5399 22.2602C46.2999 22.2702 46.0499 22.2602 45.7999 22.2602H44.8699C44.5499 22.2602 44.3799 22.0802 44.3699 21.7602V21.5602C44.3699 21.5602 44.3499 21.5602 44.3399 21.5502V21.5302H44.3599Z" fill="#6B2FB5"/>
<path d="M12.56 11.4805H13.75C13.9 11.4805 14.04 11.5005 14.12 11.6505C14.2 11.8105 14.14 11.9405 14.05 12.0605C13.8 12.3905 13.55 12.7205 13.3 13.0605C12.91 13.5805 12.51 14.1005 12.12 14.6205C11.64 15.2605 11.16 15.8905 10.68 16.5305C10.64 16.5905 10.62 16.6305 10.67 16.7005C11.25 17.4705 11.82 18.2505 12.4 19.0205C12.8 19.5605 13.19 20.1005 13.59 20.6305C13.84 20.9705 14.09 21.3005 14.34 21.6405C14.41 21.7405 14.48 21.8305 14.45 21.9705C14.42 22.1205 14.33 22.2005 14.19 22.2405C14.12 22.2605 14.05 22.2605 13.98 22.2605H11.73C11.41 22.2605 11.17 22.1405 10.98 21.8905C10.04 20.6505 9.09003 19.4005 8.15003 18.1605C7.85003 17.7605 7.58003 17.3505 7.28003 16.9505C7.11003 16.7205 7.13003 16.4905 7.33003 16.2605C7.55003 16.0005 7.77003 15.7305 7.99003 15.4605C8.25003 15.1205 8.51003 14.7805 8.77003 14.4405C8.96003 14.2005 9.15003 13.9605 9.33003 13.7205C9.54003 13.4405 9.75003 13.1705 9.95003 12.8905C10.05 12.7505 10.17 12.6305 10.28 12.4905C10.48 12.2305 10.67 11.9505 10.9 11.7005C11.02 11.5705 11.18 11.4905 11.36 11.4905H12.6H12.56V11.4805Z" fill="#5AAEDD"/>
<path d="M5 16.8512V11.9012C5 11.6012 5.21 11.4612 5.44 11.4712C5.99 11.4812 6.53 11.4712 7.08 11.4812H7.47C7.74 11.4812 7.85 11.5612 7.92 11.8012C7.94 11.8712 7.94 11.9412 7.94 12.0112V14.4512C7.94 14.6012 7.84 14.6812 7.76 14.7812C7.59 15.0212 7.4 15.2512 7.22 15.4812C7.11 15.6212 6.99 15.7612 6.88 15.9012C6.74 16.0812 6.6 16.2512 6.56 16.4812C6.52 16.6812 6.56 16.8512 6.65 17.0212C6.71 17.1512 6.79 17.2612 6.88 17.3812C7.01 17.5512 7.12 17.7212 7.25 17.8912C7.47 18.1912 7.69 18.5012 7.91 18.8012C7.94 18.8412 7.95 18.8812 7.95 18.9312V21.7112C7.95 22.0912 7.76 22.2312 7.43 22.2312H5.52C5.41 22.2312 5.31 22.2312 5.22 22.1712C5.06 22.0712 5.01 21.9212 5.01 21.7412V16.8412L5 16.8512Z" fill="#6B2FB5"/>
<path d="M27.7798 18.2809V21.7609C27.7798 22.0409 27.5998 22.2309 27.3098 22.2309H25.7598C25.6398 22.2309 25.5198 22.2509 25.3998 22.2309C25.1298 22.1609 25.0298 21.9809 25.0298 21.7709V14.8909C25.0298 14.7209 25.0498 14.5709 25.1798 14.4409C25.2898 14.3309 25.4198 14.3409 25.5398 14.3409H26.9098C27.0698 14.3409 27.2298 14.3209 27.3898 14.3409C27.6298 14.3809 27.7598 14.4709 27.7698 14.7209C27.7798 14.9509 27.7798 15.1809 27.7798 15.4109V18.2709V18.2809Z" fill="#6B2FB5"/>
<path d="M26.3599 13.5509C25.6399 13.5409 25.0199 12.9709 25.0299 12.1809C25.0399 11.4609 25.6399 10.8809 26.4199 10.9009C27.0999 10.9209 27.6899 11.5009 27.6799 12.2509C27.6699 12.9409 27.1199 13.5309 26.3699 13.5509H26.3599Z" fill="#5AAEDD"/>
</svg>
