<svg width="52" height="36" viewBox="0 0 52 36" fill="none" xmlns="http://www.w3.org/2000/svg">
<rect x="0.5" y="0.5" width="51" height="35" rx="3.5" fill="white"/>
<rect x="0.5" y="0.5" width="51" height="35" rx="3.5" stroke="#EAEAEA"/>
<path fill-rule="evenodd" clip-rule="evenodd" d="M11.3001 12.6596C11.4101 12.6196 11.5201 12.5996 11.6301 12.5996C11.7101 12.5996 11.7901 12.6096 11.8601 12.6296C12.0501 12.6896 12.2101 12.7896 12.3301 12.9496C12.4501 13.1096 12.5101 13.2796 12.5101 13.4796V22.4896C12.5101 22.7296 12.4201 22.9396 12.2501 23.1096C12.0801 23.2796 11.8701 23.3696 11.6301 23.3696C11.3901 23.3696 11.1801 23.2796 11.0001 23.1096C10.8301 22.9396 10.7401 22.7296 10.7401 22.4896V16.6596C10.7401 16.6596 7.91012 21.3296 7.90012 21.3496C7.82012 21.4796 7.69012 21.5796 7.55012 21.6396C7.44012 21.6896 7.32012 21.7196 7.19012 21.7196C7.06012 21.7196 6.94012 21.6896 6.83012 21.6396C6.69012 21.5796 6.56012 21.4796 6.48012 21.3496C6.47012 21.3296 3.64012 16.6596 3.64012 16.6596V22.4896C3.64012 22.7296 3.55012 22.9396 3.38012 23.1096C3.21012 23.2796 3.00012 23.3696 2.75012 23.3696C2.50012 23.3696 2.30012 23.2796 2.13012 23.1096C1.96012 22.9396 1.87012 22.7296 1.87012 22.4896V13.4796C1.87012 13.2796 1.93012 13.0996 2.05012 12.9496C2.17012 12.7896 2.33012 12.6796 2.52012 12.6296C2.60012 12.6096 2.68012 12.5996 2.76012 12.5996C2.87012 12.5996 2.98012 12.6196 3.09012 12.6596C3.27012 12.7296 3.42012 12.8596 3.52012 13.0296L7.19012 19.1096L10.8601 13.0296C10.9601 12.8596 11.1101 12.7396 11.2901 12.6596H11.3001ZM19.8701 13.1096C19.9701 12.8896 20.1601 12.5996 20.6701 12.5996C21.1301 12.5996 21.3701 12.8896 21.4701 13.1096L25.7101 22.1196C25.8201 22.3396 25.8301 22.5696 25.7401 22.7996C25.6601 23.0296 25.5101 23.1996 25.2901 23.3096C25.0701 23.4196 24.8501 23.4296 24.6101 23.3396C24.3801 23.2596 24.2101 23.1096 24.1101 22.8896L20.6601 15.5796L17.2101 22.8896C17.1101 23.1096 16.9401 23.2596 16.7101 23.3396C16.4801 23.4196 16.2501 23.4096 16.0301 23.3096C15.8101 23.1996 15.6601 23.0396 15.5801 22.7996C15.5001 22.5696 15.5101 22.3396 15.6101 22.1196L19.8501 13.1096H19.8701ZM29.9501 14.1796C31.0001 13.1296 32.2701 12.5996 33.7501 12.5996C35.1401 12.5996 36.3501 13.0696 37.3701 14.0096C37.5501 14.1796 37.6501 14.3796 37.6601 14.6296C37.6601 14.8796 37.5901 15.0896 37.4301 15.2696C37.2701 15.4596 37.0601 15.5496 36.8101 15.5596C36.5601 15.5596 36.3501 15.4896 36.1701 15.3296C35.4901 14.6996 34.6801 14.3896 33.7501 14.3896C32.7601 14.3896 31.9201 14.7396 31.2201 15.4496C30.5201 16.1596 30.1701 16.9996 30.1701 17.9996C30.1701 18.9996 30.5201 19.8496 31.2201 20.5596C31.9201 21.2696 32.7701 21.6196 33.7501 21.6196C34.6801 21.6196 35.4901 21.3096 36.1701 20.6796C36.3501 20.5096 36.5601 20.4396 36.8101 20.4496C37.0601 20.4496 37.2601 20.5596 37.4301 20.7396C37.6001 20.9196 37.6701 21.1396 37.6601 21.3796C37.6601 21.6296 37.5501 21.8296 37.3701 21.9996C36.3401 22.9396 35.1301 23.4096 33.7501 23.4096C32.2701 23.4096 31.0101 22.8796 29.9501 21.8296C28.9001 20.7696 28.3801 19.4996 28.3801 18.0096C28.3801 16.5196 28.9001 15.2396 29.9501 14.1896V14.1796ZM48.6301 12.8596C48.8001 12.6896 49.0101 12.5996 49.2501 12.5996C49.4901 12.5996 49.7001 12.6896 49.8701 12.8596C50.0401 13.0296 50.1301 13.2396 50.1301 13.4796V22.5196C50.1301 22.7596 50.0401 22.9696 49.8701 23.1396C49.7001 23.3096 49.4901 23.3996 49.2501 23.3996C49.0101 23.3996 48.8001 23.3096 48.6301 23.1396C48.4601 22.9696 48.3701 22.7596 48.3701 22.5196V18.9696H42.9601V22.5196C42.9601 22.7596 42.8801 22.9696 42.7101 23.1396C42.5401 23.3096 42.3301 23.3996 42.0901 23.3996C41.8501 23.3996 41.6401 23.3096 41.4701 23.1396C41.3001 22.9696 41.2101 22.7596 41.2101 22.5196V13.4796C41.2101 13.2396 41.3001 13.0296 41.4701 12.8596C41.6401 12.6896 41.8501 12.5996 42.0901 12.5996C42.3301 12.5996 42.5401 12.6896 42.7101 12.8596C42.8801 13.0296 42.9601 13.2396 42.9601 13.4796V17.2096H48.3701V13.4796C48.3701 13.2396 48.4601 13.0296 48.6301 12.8596Z" fill="#6200EA"/>
</svg>
