<svg width="52" height="36" viewBox="0 0 52 36" fill="none" xmlns="http://www.w3.org/2000/svg">
<g clip-path="url(#clip0_2280_4410)">
<rect width="52" height="36" rx="4" fill="white"/>
<path d="M48 0H4C1.79086 0 0 1.79086 0 4V32C0 34.2091 1.79086 36 4 36H48C50.2091 36 52 34.2091 52 32V4C52 1.79086 50.2091 0 48 0Z" fill="white"/>
<path d="M48 0H4C1.79086 0 0 1.79086 0 4V32C0 34.2091 1.79086 36 4 36H48C50.2091 36 52 34.2091 52 32V4C52 1.79086 50.2091 0 48 0Z" fill="#D3D3D3"/>
<path d="M47.3198 0.550781H4.6798C2.53694 0.550781 0.799805 2.28792 0.799805 4.43078V31.5608C0.799805 33.7036 2.53694 35.4408 4.6798 35.4408H47.3198C49.4627 35.4408 51.1998 33.7036 51.1998 31.5608V4.43078C51.1998 2.28792 49.4627 0.550781 47.3198 0.550781Z" fill="white"/>
<path d="M10.2798 8.67969H12.4698L14.2598 14.0097L16.1898 8.67969H17.5198L19.4198 13.9497L21.2098 8.67969H23.4098L20.1598 18.0497H18.7498L16.8498 12.7097L14.8898 18.0497H13.4898L10.2798 8.67969Z" fill="#030202"/>
<path d="M31.6596 14.0495H24.1096C24.2196 14.7195 24.5096 15.2495 24.9796 15.6395C25.4496 16.0295 26.0596 16.2295 26.7896 16.2295C27.6696 16.2295 28.4196 15.9195 29.0496 15.3095C29.0496 15.3095 30.5296 15.3095 31.3296 15.3095C31.3296 15.7995 31.0296 16.2395 31.0296 16.2395C30.5396 16.9395 29.9396 17.4595 29.2596 17.7895C28.5696 18.1295 27.7496 18.2895 26.8096 18.2895C25.3396 18.2895 24.1396 17.8295 23.2196 16.8995C22.2996 15.9695 21.8296 14.8095 21.8296 13.4195C21.8296 12.0295 22.2896 10.7995 23.2096 9.85945C24.1296 8.91945 25.2896 8.43945 26.6796 8.43945C28.1596 8.43945 29.3596 8.90945 30.2796 9.85945C31.1996 10.7995 31.6696 12.0495 31.6696 13.5995V14.0495H31.6596ZM29.3096 12.1995C29.1496 11.6795 28.8496 11.2495 28.3896 10.9295C27.9296 10.5995 27.3996 10.4395 26.7996 10.4395C26.1396 10.4395 25.5696 10.6195 25.0696 10.9895C24.7596 11.2195 24.4696 11.6195 24.2096 12.1995H29.3096Z" fill="#030202"/>
<path d="M33.7897 5.58984V9.71984C34.2097 9.29984 34.6697 8.97984 35.1697 8.75984C35.6597 8.54984 36.1897 8.43984 36.7497 8.43984C37.9697 8.43984 39.0097 8.89984 39.8697 9.82984C40.7297 10.7498 41.1497 11.9398 41.1497 13.3898C41.1497 14.8398 40.7097 15.9498 39.8197 16.8898C38.9397 17.8298 37.8897 18.2998 36.6797 18.2998C36.1397 18.2998 35.6397 18.1998 35.1697 18.0098C34.7097 17.8198 34.2397 17.4998 33.7797 17.0698V18.0598H31.4497V5.58984H33.7797H33.7897ZM36.2597 10.6098C35.5197 10.6098 34.9097 10.8598 34.4197 11.3698C33.9297 11.8798 33.6897 12.5398 33.6897 13.3498C33.6897 14.1598 33.9297 14.8598 34.4197 15.3698C34.9097 15.8798 35.5197 16.1398 36.2597 16.1398C36.9997 16.1398 37.5797 15.8798 38.0697 15.3598C38.5597 14.8398 38.8097 14.1698 38.8097 13.3598C38.8097 12.5498 38.5697 11.8998 38.0897 11.3798C37.6097 10.8698 36.9997 10.6098 36.2597 10.6098Z" fill="#030202"/>
<path d="M15.8196 17.9292V18.9392C16.2296 18.5292 16.6796 18.2092 17.1596 18.0092C17.6396 17.7992 18.1595 17.6992 18.7095 17.6992C19.8995 17.6992 20.9196 18.1492 21.7496 19.0492C22.5796 19.9492 22.9996 21.1092 22.9996 22.5192C22.9996 23.9292 22.5695 25.0192 21.7095 25.9392C20.8495 26.8592 19.8296 27.3092 18.6396 27.3092C18.1096 27.3092 17.6196 27.2192 17.1696 27.0292C16.7196 26.8392 16.2696 26.5392 15.8196 26.1092V30.1092H13.5396V17.9292H15.8196ZM18.2296 19.8092C17.5096 19.8092 16.9096 20.0592 16.4296 20.5492C15.9496 21.0392 15.7196 21.6892 15.7196 22.4792C15.7196 23.2692 15.9596 23.9492 16.4296 24.4492C16.9096 24.9492 17.5096 25.1992 18.2296 25.1992C18.9496 25.1992 19.5196 24.9492 19.9996 24.4392C20.4796 23.9292 20.7196 23.2792 20.7196 22.4892C20.7196 21.6992 20.4796 21.0592 20.0096 20.5592C19.5396 20.0592 18.9496 19.8092 18.2296 19.8092Z" fill="#FBA91A"/>
<path d="M30.0297 17.9295H32.0297V27.0695H30.0297V26.0995C29.5597 26.5295 29.0797 26.8295 28.5997 27.0195C28.1197 27.2095 27.6097 27.2995 27.0497 27.2995C25.7997 27.2995 24.7197 26.8395 23.7997 25.9295C22.8897 25.0095 22.4297 23.8795 22.4297 22.5095C22.4297 21.1395 22.8697 19.9395 23.7597 19.0395C24.6397 18.1395 25.7197 17.6895 26.9797 17.6895C27.5597 17.6895 28.1097 17.7895 28.6197 17.9995C29.1297 18.2095 29.5997 18.5195 30.0297 18.9295V17.9195V17.9295ZM27.4697 19.8095C26.7197 19.8095 26.0897 20.0595 25.5997 20.5595C25.0997 21.0595 24.8497 21.6995 24.8497 22.4895C24.8497 23.2795 25.0997 23.9295 25.6097 24.4395C26.1197 24.9495 26.7397 25.1995 27.4797 25.1995C28.2197 25.1995 28.8797 24.9495 29.3797 24.4495C29.8797 23.9495 30.1297 23.2895 30.1297 22.4795C30.1297 21.6695 29.8797 21.0395 29.3797 20.5495C28.8797 20.0595 28.2397 19.8095 27.4697 19.8095Z" fill="#FBA91A"/>
<path d="M32.0298 17.9297H34.3698L36.7498 23.6597L39.3698 17.9297H41.7198L35.9998 30.4097H33.6298L35.5098 26.3897L32.0298 17.9297Z" fill="#FBA91A"/>
</g>
<rect x="0.5" y="0.5" width="51" height="35" rx="3.5" stroke="#EAEAEA"/>
<defs>
<clipPath id="clip0_2280_4410">
<rect width="52" height="36" rx="4" fill="white"/>
</clipPath>
</defs>
</svg>
