<svg width="52" height="36" viewBox="0 0 52 36" fill="none" xmlns="http://www.w3.org/2000/svg">
<rect x="0.5" y="0.5" width="51" height="35" rx="3.5" fill="white"/>
<rect x="0.5" y="0.5" width="51" height="35" rx="3.5" stroke="#EAEAEA"/>
<path d="M21.15 9.16992H3.5V18.1699H21.15V9.16992Z" fill="#DF233D"/>
<path d="M21.15 18H3.5V26.83H21.15V18Z" fill="black"/>
<path d="M18.0698 17.459H6.58984V18.529H18.0698V17.459Z" fill="white"/>
<path d="M26.4902 23.2998V12.7598H28.4402V17.6798L33.7302 12.7598H36.1302L30.6902 17.8298L36.3602 23.2998H33.7302L28.4402 18.1898V23.2998H26.4902Z" fill="black"/>
<mask id="mask0_2280_3609" style="mask-type:luminance" maskUnits="userSpaceOnUse" x="3" y="9" width="46" height="18">
<path d="M48.5 9.16992H3.5V26.8199H48.5V9.16992Z" fill="white"/>
</mask>
<g mask="url(#mask0_2280_3609)">
<path d="M47.0398 17.8298C47.9698 18.3098 48.4998 19.1898 48.4998 20.1998C48.4998 21.9398 47.2398 23.2898 44.8198 23.2898H37.8398V12.7598H44.7798C46.7198 12.7598 48.1198 13.9398 48.1198 15.7198C48.1198 16.6298 47.7298 17.2898 47.0398 17.8298ZM44.8898 17.0998C45.7698 17.0998 46.1798 16.4798 46.1798 15.8198C46.1798 15.0898 45.7198 14.4998 44.7798 14.4998H39.7798V17.0998H44.8898ZM46.4798 20.1998C46.4798 19.3198 46.0198 18.8398 45.0198 18.8398H39.7798V21.5498H44.7798C45.9498 21.5498 46.4798 21.0398 46.4798 20.1998Z" fill="black"/>
</g>
</svg>
