<svg width="52" height="36" viewBox="0 0 52 36" fill="none" xmlns="http://www.w3.org/2000/svg">
<rect x="0.5" y="0.5" width="51" height="35" rx="3.5" fill="white"/>
<rect x="0.5" y="0.5" width="51" height="35" rx="3.5" stroke="#EAEAEA"/>
<path d="M43.4199 10.6797H43.5799C43.7699 10.7997 43.8399 11.0297 43.9499 11.2197C45.3899 13.9197 46.8299 16.6197 48.2799 19.3197C48.9799 20.6397 49.6899 21.9397 50.3799 23.2597V23.2897C50.3399 23.3597 50.3099 23.4797 50.1999 23.4697C49.4999 23.4697 48.7999 23.4697 48.0999 23.4697C47.9299 23.4697 47.8899 23.2897 47.8199 23.1697C47.6899 22.9297 47.5599 22.6897 47.4399 22.4397C47.2399 22.1097 47.0899 21.7497 46.8899 21.4197C46.7399 21.0897 46.5399 20.7797 46.3899 20.4497C46.2999 20.2497 46.1699 20.0697 46.0799 19.8697C45.9399 19.5697 45.7599 19.2997 45.6299 18.9997C45.4299 18.6497 45.2599 18.2797 45.0599 17.9297C44.9199 17.6197 44.7299 17.3297 44.5899 17.0097C44.4899 16.7897 44.3599 16.5997 44.2599 16.3797C44.1299 16.0997 43.9599 15.8397 43.8299 15.5597C43.7699 15.4497 43.7299 15.2997 43.5999 15.2497C43.5199 15.2497 43.3999 15.2197 43.3499 15.3097C43.1299 15.6597 42.9699 16.0397 42.7599 16.3997C42.6099 16.7297 42.4099 17.0397 42.2599 17.3697C42.1699 17.5597 42.0499 17.7397 41.9599 17.9297C41.8899 18.0697 41.8199 18.2197 41.7399 18.3497C41.5999 18.5897 41.4899 18.8597 41.3499 19.0997C41.2199 19.3097 41.1299 19.5397 41.0099 19.7597C40.8799 19.9797 40.7799 20.2197 40.6499 20.4397C40.4999 20.6897 40.3899 20.9597 40.2399 21.2097C40.1099 21.4197 40.0199 21.6497 39.8999 21.8697C39.7699 22.0897 39.6699 22.3297 39.5399 22.5497C39.3999 22.7897 39.2999 23.0397 39.1599 23.2797C39.1099 23.3497 39.0699 23.4397 38.9799 23.4597C38.8399 23.4797 38.6999 23.4697 38.5599 23.4697C38.0199 23.4697 37.4899 23.4697 36.9499 23.4697C36.8499 23.4697 36.7399 23.4697 36.6699 23.3897C36.6499 23.2997 36.6599 23.1997 36.7099 23.1197C38.8999 19.0197 41.0899 14.9297 43.2799 10.8297C43.3099 10.7697 43.3699 10.7297 43.4299 10.6897L43.4199 10.6797ZM1.62988 12.6497C1.77988 12.4897 2.00988 12.5397 2.19988 12.5397C4.14988 12.5397 6.09988 12.5397 8.05988 12.5397C8.62988 12.5197 9.21988 12.6097 9.74988 12.8097C10.6599 13.1397 11.4399 13.8697 11.7299 14.7997C11.8599 15.1497 11.8899 15.5297 11.9099 15.8997C11.8899 16.2997 11.8399 16.6997 11.6899 17.0697C11.5099 17.5097 11.2499 17.9297 10.8599 18.2097C10.7699 18.2997 10.6199 18.3397 10.5499 18.4497C11.0699 18.6397 11.5099 18.9897 11.8499 19.4197C12.3999 20.1397 12.5499 21.0897 12.4599 21.9797C12.4099 22.5597 12.2399 23.1397 11.9399 23.6397C11.7399 23.9497 11.4899 24.2397 11.1799 24.4597C10.5199 24.9497 9.68988 25.1797 8.87988 25.2697C8.70988 25.2897 8.53988 25.2797 8.37988 25.3297H1.77988C1.72988 25.2897 1.66988 25.2397 1.62988 25.1797V12.6497ZM3.81988 14.4797C3.75988 14.5597 3.76988 14.6597 3.76988 14.7497C3.76988 15.6997 3.76988 16.6497 3.76988 17.5997C3.82988 17.6697 3.91988 17.7197 4.00988 17.7197C5.26988 17.7197 6.52988 17.7197 7.79988 17.7197C7.97988 17.7197 8.14988 17.6897 8.31988 17.6697C8.70988 17.6097 9.10988 17.4597 9.37988 17.1597C9.56988 16.9697 9.64988 16.7097 9.71988 16.4597C9.73988 16.2597 9.79988 16.0497 9.73988 15.8497C9.70988 15.5097 9.56988 15.1797 9.33988 14.9197C9.01988 14.6297 8.57988 14.4797 8.14988 14.4297C8.00988 14.4197 7.86988 14.4297 7.73988 14.4097C7.56988 14.3697 7.39988 14.3897 7.22988 14.3897C6.18988 14.3897 5.15988 14.3897 4.11988 14.3897C4.00988 14.3897 3.89988 14.4197 3.80988 14.4797M3.87988 19.6197C3.87988 19.6197 3.79988 19.6597 3.77988 19.6997C3.69988 19.8497 3.71988 20.0197 3.71988 20.1797C3.71988 21.1597 3.71988 22.1297 3.71988 23.1097C3.71988 23.2497 3.79988 23.4497 3.96988 23.4297C5.29988 23.4297 6.63988 23.4297 7.96988 23.4297C8.09988 23.4297 8.23988 23.4297 8.36988 23.4097C8.83988 23.3697 9.31988 23.2797 9.71988 23.0097C10.0399 22.7797 10.2099 22.4097 10.2799 22.0397C10.3699 21.6097 10.3399 21.1497 10.2099 20.7297C10.0999 20.3997 9.87988 20.1097 9.55988 19.9497C9.14988 19.7197 8.67988 19.6597 8.21988 19.6197C6.80988 19.6197 5.40988 19.6197 3.99988 19.6197C3.95988 19.6197 3.90988 19.6197 3.86988 19.6297L3.87988 19.6197ZM14.6299 12.5497C14.7799 12.5297 14.9299 12.5497 15.0799 12.5397C17.1499 12.5397 19.2199 12.5397 21.2899 12.5397C22.2299 12.5897 23.1799 12.9197 23.8499 13.5797C24.3599 14.0897 24.6699 14.7897 24.7499 15.4997C24.7499 15.7797 24.7599 16.0697 24.7499 16.3497C24.6599 16.9597 24.4199 17.5697 23.9699 17.9897C23.8399 18.1297 23.6999 18.2497 23.5399 18.3397C23.5099 18.3697 23.4299 18.3797 23.4599 18.4397C23.9899 18.6497 24.4599 19.0097 24.7899 19.4797C24.9299 19.6697 25.0299 19.8897 25.1299 20.1097C25.3199 20.5497 25.3599 21.0297 25.3899 21.4997C25.3699 21.8597 25.3399 22.2297 25.2599 22.5897C25.1299 23.2097 24.8099 23.7797 24.3599 24.2297C24.1799 24.3797 23.9899 24.5297 23.7799 24.6497C23.1999 25.0097 22.5199 25.1697 21.8499 25.2597C21.6599 25.2897 21.4699 25.2697 21.2899 25.3197H14.6899C14.5899 25.2597 14.4899 25.1697 14.4999 25.0297C14.4999 20.9597 14.4999 16.8797 14.4999 12.8097C14.4999 12.6997 14.5599 12.5897 14.6599 12.5297M16.8699 14.3897C16.7999 14.4097 16.7299 14.4297 16.6899 14.4997C16.6299 14.5897 16.6399 14.7097 16.6399 14.8097C16.6399 15.6797 16.6399 16.5497 16.6399 17.4197C16.6399 17.5297 16.7099 17.6297 16.7999 17.6997C17.0599 17.7197 17.3199 17.6997 17.5699 17.6997C18.6699 17.6997 19.7599 17.6997 20.8599 17.6997C21.2299 17.6597 21.6099 17.6097 21.9299 17.4097C22.2599 17.2597 22.4699 16.9397 22.5799 16.5997C22.6599 16.3297 22.6399 16.0397 22.6399 15.7597C22.6199 15.5597 22.5499 15.3697 22.4599 15.1897C22.1999 14.7497 21.7099 14.4997 21.2099 14.4297C21.0199 14.3797 20.8199 14.4297 20.6199 14.3797C20.4699 14.3497 20.3199 14.3697 20.1699 14.3597C19.1099 14.3597 18.0499 14.3597 16.9899 14.3597C16.9499 14.3597 16.8999 14.3597 16.8599 14.3697M16.7899 19.5797C16.6799 19.5997 16.6299 19.7197 16.6399 19.8197C16.6399 20.8397 16.6399 21.8697 16.6399 22.8897C16.6399 23.0197 16.6299 23.1597 16.6799 23.2797C16.7099 23.3697 16.8099 23.3897 16.8899 23.3897C18.2499 23.3897 19.5999 23.3897 20.9599 23.3897C21.1399 23.3897 21.3099 23.3497 21.4899 23.3397C21.9499 23.2797 22.4199 23.1497 22.7699 22.8397C23.0499 22.5597 23.1799 22.1697 23.2099 21.7797C23.2499 21.5897 23.2499 21.3897 23.2099 21.1997C23.1799 20.7597 23.0199 20.2997 22.6599 20.0297C22.2199 19.6897 21.6599 19.6197 21.1299 19.5697C19.7699 19.5697 18.4199 19.5697 17.0599 19.5697C16.9699 19.5697 16.8799 19.5697 16.7899 19.5797ZM25.4699 12.7697C25.4099 12.6397 25.5299 12.4797 25.6699 12.4997C26.3399 12.4997 26.9999 12.4997 27.6699 12.4997C27.7499 12.4997 27.8299 12.4997 27.8699 12.5797C28.0299 12.8197 28.1599 13.0797 28.2799 13.3497C28.3599 13.5197 28.4599 13.6697 28.5399 13.8397C28.6899 14.1597 28.8799 14.4597 29.0299 14.7797C29.2299 15.1097 29.3799 15.4697 29.5799 15.7997C29.7499 16.1597 29.9599 16.4997 30.1299 16.8597C30.2699 17.1097 30.4099 17.3697 30.5399 17.6297C30.7099 17.8997 30.8199 18.1997 30.9899 18.4697C31.0999 18.6697 31.1899 18.8797 31.3099 19.0797C31.4599 19.3297 31.5699 19.5997 31.7199 19.8497C31.8699 20.0997 31.9699 20.3797 32.1299 20.6197C32.1999 20.7597 32.4399 20.7597 32.5099 20.6197C32.6699 20.3797 32.7699 20.0997 32.9199 19.8497C33.0499 19.6297 33.1499 19.3897 33.2799 19.1697C33.4299 18.9197 33.5399 18.6497 33.6899 18.3997C33.8399 18.1397 33.9499 17.8597 34.1099 17.6097C34.2899 17.2297 34.5099 16.8597 34.6899 16.4797C34.8399 16.2297 34.9599 15.9697 35.0999 15.7097C35.2599 15.4597 35.3699 15.1697 35.5199 14.9197C35.6499 14.6897 35.7499 14.4397 35.8899 14.2097C36.0299 13.9797 36.1199 13.7397 36.2599 13.5097C36.4399 13.1997 36.5599 12.8497 36.7799 12.5597C36.8299 12.4797 36.9299 12.4997 36.9999 12.4997C37.6599 12.4997 38.3099 12.4997 38.9699 12.4997C39.0599 12.4897 39.1299 12.5497 39.1799 12.6197C39.2199 12.7397 39.1299 12.8597 39.0799 12.9597C36.9999 16.8497 34.9199 20.7497 32.8399 24.6497C32.7199 24.8697 32.6199 25.1097 32.4399 25.2897H32.2799C32.0399 25.1397 31.9599 24.8497 31.8299 24.6197C29.7199 20.6697 27.6099 16.7197 25.4999 12.7697H25.4699Z" fill="#004580"/>
</svg>
