<svg width="24" height="24" viewBox="0 0 24 24" fill="none" xmlns="http://www.w3.org/2000/svg">
<g clip-path="url(#clip0_358_5667)">
<path d="M-6 0H30V24H-6V0Z" fill="white"/>
<path d="M-6 0H30L27.6522 12H-3.65217L-6 0Z" fill="black"/>
<path d="M12.0019 11.9992L4.17578 9.39054L8.16395 8.62724L4.77161 6.3955L8.7483 7.21645L6.46804 3.85671L9.82778 6.13697L9.00682 2.16028L11.2386 5.55263L12.0019 1.56445L12.7652 5.55263L14.9969 2.16028L14.176 6.13697L17.5357 3.85671L15.2554 7.21645L19.2321 6.3955L15.8398 8.62724L19.828 9.39054L12.0019 11.9992Z" fill="#FCD116"/>
<path d="M-3.65234 9.39062H27.652V14.608H-3.65234V9.39062Z" fill="#0072C6"/>
<path d="M-6 0L12 24L30 0V24H-6V0Z" fill="#CE1126"/>
</g>
<defs>
<clipPath id="clip0_358_5667">
<rect width="24" height="24" rx="12" fill="white"/>
</clipPath>
</defs>
</svg>
