<svg width="24" height="24" viewBox="0 0 24 24" fill="none" xmlns="http://www.w3.org/2000/svg">
<g clip-path="url(#clip0_358_292)">
<path d="M29.9882 0H-6V24H29.9882V0Z" fill="#FF0000"/>
<path fill-rule="evenodd" clip-rule="evenodd" d="M12.9242 18.3091C12.7133 18.1262 12.4577 17.756 12.4613 17.3992C12.4802 17.1331 12.6627 16.9785 12.7806 17.3033C12.9473 17.6618 13.3048 18.2547 13.7975 17.9069C14.0127 17.7489 14.0094 17.5163 13.7143 17.543C13.3498 17.5181 13.1259 17.3175 12.9628 16.8012C12.9332 16.5173 13.0513 16.5243 13.2161 16.707C13.428 16.9501 13.8496 17.3175 14.3148 17.1206C14.5733 17.0123 14.6463 16.7887 14.2557 16.7337C13.886 16.7391 13.5842 16.4994 13.2837 16.1338C13.119 15.9315 13.362 15.7273 13.5079 15.8995C13.638 16.0112 13.8202 16.2171 13.9764 16.2455C14.1569 16.281 14.3808 16.2634 14.6288 16.132C14.8962 15.9083 14.8094 15.7468 14.4848 15.7097C14.2332 15.7221 14.0962 15.8178 13.7717 15.6013C13.1883 15.207 12.7246 14.6802 12.6521 14.0466C12.6046 13.6298 12.8287 13.5036 13.015 13.5515C13.5217 13.6819 13.8532 14.6289 14.2038 15.1491C14.3186 15.299 14.4241 15.3014 14.4987 15.2552C14.6393 15.1346 14.7516 15.0355 14.8923 14.9007C14.8923 14.9007 15.9238 15.0861 16.4855 15.2691L15.86 15.4914C15.6232 15.3607 15.3374 15.5016 15.3374 15.7285C15.1133 15.8835 15.1313 16.0652 15.228 16.2405C15.2575 16.1184 15.2827 15.9598 15.4597 15.9387C15.7124 16.0433 16.0067 15.8941 16.0067 15.6968L16.7445 15.4068L17.4899 15.8288C17.4899 16.114 17.7602 16.2044 18.0414 16.1274C18.1739 16.2097 18.2591 16.3525 18.304 16.5051C18.387 16.285 18.3696 16.1295 18.2397 16.0215C18.3143 15.7368 17.9153 15.4631 17.6065 15.6454L17.0703 15.3375L17.9881 15.3118C18.0947 15.5003 18.4797 15.5107 18.592 15.3118C18.688 15.2855 18.7691 15.2687 18.9563 15.4079C18.8973 15.1827 18.7825 15.0865 18.6104 15.0865C18.4795 14.8547 18.006 14.8558 17.9377 15.1167L16.9818 15.1433L17.5489 14.7395C17.7607 14.8645 18.0577 14.7255 18.1172 14.4985C18.2016 14.3981 18.3057 14.351 18.5106 14.4191C18.405 14.232 18.2562 14.1762 17.9875 14.3032C17.7423 14.1174 17.4192 14.3427 17.4683 14.5297L16.7136 15.0432C16.1659 14.8797 15.1739 14.6252 15.1739 14.6252C15.292 14.501 15.4118 14.3855 15.5297 14.2596C15.5723 14.1858 15.5072 14.0999 15.4168 14.082C14.5317 13.8993 14.0249 13.5425 13.7179 12.6356C13.5894 12.2558 13.8671 12.1423 13.9625 12.3746C14.0945 12.6977 14.2402 13.0509 14.6376 13.3243C14.7747 13.4202 15.1827 13.3419 14.9414 13.113C14.6914 12.9071 14.5838 12.8185 14.4607 12.3179C14.4607 12.0643 14.7192 11.9505 14.8634 12.1936C15.0177 12.6923 15.0335 12.9071 15.3128 13.2284C15.5244 13.4715 15.8004 13.6349 15.9375 13.6312C16.1841 13.6278 16.4323 13.3614 16.1025 13.168C15.6182 12.9746 15.4412 12.7102 15.3699 12.458C15.292 12.018 15.3771 11.805 15.6426 12.0215C16.019 12.4492 16.7377 13.246 17.1141 13.6171C17.536 13.9402 18.0201 13.9507 18.4053 13.6224C18.6259 13.3686 18.5476 13.0954 18.2023 13.1539C17.4231 13.2196 16.8331 12.8327 16.1857 11.7872C16.059 11.5511 16.0243 11.2122 16.3039 11.4643C16.6265 11.9009 17.0969 12.2719 17.5344 12.4316C17.9734 12.5894 18.336 12.5022 18.4766 12.3641C18.646 12.1947 18.6015 11.7678 18.3082 11.8707C18.0669 11.9559 17.7268 11.9772 17.3729 11.8405C17.0187 11.702 16.6509 11.4039 16.2603 10.8981C16.1266 10.6125 16.1702 10.3711 16.4409 10.5182C17.0813 11.0615 17.9074 11.5015 18.329 11.2371C18.6397 11.0436 18.645 10.5467 18.2511 10.5787C17.4578 10.6868 17.1577 10.5112 16.3957 9.83863C16.2223 9.709 16.2343 9.38054 16.5102 9.59013C17.1507 10.0037 18.0253 10.1651 18.369 9.94869C18.678 9.75522 18.6328 9.16406 18.1121 9.37344C17.6955 9.6273 17.2356 9.6202 16.3141 8.96181C16.0817 8.76837 16.2551 8.5162 16.4459 8.62454C17.1871 9.04694 18.2666 9.2279 18.5476 8.36897C18.6569 8.04072 18.4592 7.849 18.1693 8.07617C17.5324 8.66537 16.8104 8.37604 16.4062 8.0796C16.2905 8.01137 16.0781 7.66605 16.4511 7.73013C17.4162 7.95024 18.3707 7.75852 18.5443 7.07517C18.645 6.85334 18.4469 6.46104 18.0947 6.7895C17.6314 7.24735 17.1402 7.26323 16.5225 7.2598C16.2082 7.19404 16.2049 6.84796 16.4686 6.7966C16.9563 6.80709 17.437 6.59407 17.8223 6.37763C18.199 6.16118 18.5113 5.85765 18.6103 5.437C18.671 5.06081 18.3083 4.66145 18.0897 5.06081C17.7668 5.64463 17.0517 6.19492 16.2567 6.29424C16.2154 6.22499 16.1111 6.04745 15.9827 6.09734C15.7492 6.18785 15.4711 6.30895 15.1848 6.44496C14.5675 6.73807 14.3102 6.87933 14.3844 7.38576C14.4617 7.91421 14.0543 8.24815 13.7179 8.15592C13.4244 8.07693 13.2625 7.81183 13.3151 7.35203C13.3572 6.98565 13.725 6.54247 14.1395 6.31008C14.4078 6.15991 14.8129 6.07776 15.3006 5.96942C15.5974 5.91096 15.7485 5.79552 15.7658 5.6747C15.7658 5.6747 15.5629 5.82316 15.2382 5.80087C15.0847 5.7899 14.9818 5.72236 14.9431 5.65344C15.056 5.63047 15.2607 5.65711 15.4446 5.65711C15.6892 5.65516 16.2572 5.60037 16.4079 5.25597C16.4548 5.02879 16.3055 4.98796 16.1666 5.13347C16.0174 5.29073 15.9559 5.43209 15.6564 5.48489C15.4742 5.51695 15.292 5.55415 15.0576 5.49741C15.1896 5.34062 15.3994 5.1802 15.5783 5.20975C15.6371 5.21956 15.7153 5.27387 15.7779 5.37144C15.8162 5.12294 15.7483 4.84241 15.0837 4.95957C15.0942 4.77151 14.6984 4.68981 14.4607 4.69348C14.3253 4.69691 14.0493 4.77689 13.8499 4.87252C13.5339 4.97033 13.2216 5.04127 12.8535 5.06795C13.0671 5.25062 13.1071 5.26139 13.3203 5.41571C12.9977 5.53629 12.7478 5.78479 12.6349 5.94816C12.6349 5.94816 13.0116 5.93764 13.1071 5.98019C12.7129 6.09539 12.5359 6.16461 12.3276 6.37763C12.4006 6.39011 12.5098 6.41136 12.5567 6.42923C12.6055 6.44685 12.5928 6.47887 12.5534 6.50897C12.4685 6.57377 12.1177 6.98123 12.0153 7.0788C11.9129 6.98123 11.5621 6.57377 11.4772 6.50897C11.4377 6.47887 11.4251 6.44685 11.4739 6.42923C11.5207 6.4114 11.63 6.39011 11.7029 6.37763C11.4947 6.16461 11.3177 6.09539 10.9235 5.98019C11.019 5.93764 11.3956 5.94816 11.3956 5.94816C11.2827 5.78479 11.0328 5.53629 10.7102 5.41571C10.9235 5.26139 10.9635 5.25062 11.177 5.06791C10.809 5.04127 10.4966 4.97033 10.1807 4.87248C9.98126 4.77689 9.70526 4.69691 9.5699 4.69348C9.3322 4.68981 8.93637 4.77151 8.94693 4.95953C8.2823 4.84241 8.21438 5.12294 8.25264 5.37144C8.31528 5.27387 8.39349 5.21956 8.45232 5.20979C8.63122 5.1802 8.84095 5.34062 8.97298 5.49741C8.73861 5.55415 8.55634 5.51695 8.37411 5.48493C8.0747 5.43213 8.01322 5.29073 7.86394 5.1335C7.72505 4.98796 7.57581 5.02879 7.62268 5.256C7.77336 5.60037 8.3413 5.65516 8.586 5.65711C8.76991 5.65711 8.97463 5.63044 9.08753 5.65344C9.04879 5.72243 8.94593 5.7899 8.7924 5.80087C8.46765 5.82316 8.26481 5.6747 8.26481 5.6747C8.28206 5.79552 8.43316 5.91093 8.73 5.96942C9.21765 6.07776 9.62277 6.15995 9.89109 6.31012C10.3056 6.54247 10.6734 6.98565 10.7155 7.35203C10.7681 7.8118 10.6062 8.07693 10.3127 8.15592C9.97625 8.24815 9.56883 7.91421 9.64622 7.38576C9.72034 6.87933 9.4631 6.73807 8.84582 6.44496C8.55946 6.30895 8.28134 6.18782 8.04792 6.09731C7.91949 6.04745 7.81522 6.22502 7.77384 6.29424C6.97886 6.19492 6.2638 5.64463 5.94093 5.06081C5.72232 4.66145 5.35954 5.06081 5.42026 5.437C5.51928 5.85768 5.83162 6.16118 6.20829 6.37763C6.59359 6.59407 7.07431 6.80709 7.56196 6.7966C7.82572 6.84796 7.82239 7.19404 7.50813 7.2598C6.89037 7.26323 6.39916 7.24735 5.93589 6.7895C5.58364 6.46104 5.3856 6.85334 5.4863 7.07517C5.65992 7.75848 6.6144 7.95024 7.57941 7.73013C7.95244 7.66601 7.7401 8.01141 7.62432 8.07964C7.2202 8.37604 6.49817 8.66537 5.86128 8.07621C5.57143 7.849 5.3736 8.04072 5.48294 8.36897C5.76394 9.2279 6.8435 9.04694 7.58465 8.62454C7.77552 8.5162 7.9489 8.76837 7.71645 8.96181C6.79495 9.6202 6.33508 9.6273 5.91844 9.37344C5.39781 9.16406 5.35258 9.75522 5.6616 9.94869C6.00525 10.1651 6.87988 10.0037 7.52033 9.59013C7.79633 9.38054 7.80826 9.709 7.63485 9.83863C6.87292 10.5112 6.57278 10.6868 5.77951 10.5787C5.38557 10.5467 5.39085 11.0436 5.70154 11.2371C6.12316 11.5015 6.9492 11.0615 7.58966 10.5183C7.86041 10.3711 7.90392 10.6125 7.77024 10.8981C7.37973 11.4039 7.01184 11.702 6.65767 11.8405C6.30374 11.9772 5.96366 11.9559 5.72236 11.8708C5.42911 11.7678 5.38454 12.1947 5.55398 12.3641C5.69465 12.5022 6.05716 12.5894 6.49625 12.4316C6.93367 12.2719 7.4041 11.9008 7.72673 11.4643C8.0063 11.2122 7.9716 11.5511 7.84485 11.7872C7.19746 12.8327 6.60748 13.2196 5.82826 13.1539C5.48294 13.0954 5.40473 13.3686 5.62522 13.6224C6.01053 13.9507 6.49457 13.9402 6.91642 13.6171C7.29288 13.246 8.01151 12.4492 8.38797 12.0215C8.65344 11.805 8.73861 12.018 8.66064 12.458C8.58933 12.7102 8.41241 12.9746 7.92809 13.168C7.59826 13.3615 7.84649 13.6278 8.09311 13.6312C8.23015 13.6349 8.50615 13.4715 8.7178 13.2284C8.99712 12.9071 9.01293 12.6923 9.16718 12.1936C9.31138 11.9505 9.5699 12.0643 9.5699 12.3179C9.44674 12.8185 9.33912 12.9071 9.08921 13.113C8.84784 13.3419 9.25591 13.4202 9.39295 13.3243C9.79042 13.0509 9.93604 12.6977 10.068 12.3746C10.1635 12.1423 10.4412 12.2558 10.3127 12.6356C10.0057 13.5424 9.49889 13.8993 8.61377 14.082C8.52336 14.0998 8.45829 14.1858 8.50084 14.2596C8.61878 14.3855 8.73861 14.5009 8.85672 14.6252C8.85672 14.6252 7.86466 14.8797 7.31692 15.0432L6.56229 14.5297C6.61132 14.3427 6.28824 14.1174 6.04306 14.3031C5.7743 14.1762 5.62553 14.232 5.51993 14.4191C5.72482 14.351 5.82892 14.3981 5.91333 14.4984C5.97281 14.7255 6.2699 14.8645 6.48161 14.7395L7.0488 15.1434L6.09292 15.1167C6.02451 14.8558 5.55103 14.8547 5.42016 15.0865C5.24805 15.0865 5.13319 15.1827 5.07422 15.4079C5.26142 15.2687 5.34257 15.2855 5.43854 15.3118C5.55086 15.5107 5.93589 15.5003 6.04238 15.3118L6.96024 15.3375L6.42401 15.6454C6.1152 15.4631 5.71629 15.7368 5.79086 16.0215C5.66092 16.1295 5.64357 16.285 5.72657 16.5051C5.77142 16.3525 5.85665 16.2097 5.9892 16.1274C6.27034 16.2044 6.54065 16.1141 6.54065 15.8288L7.28602 15.4068L8.02385 15.6968C8.02385 15.8941 8.3182 16.0433 8.57085 15.9387C8.74786 15.9598 8.77303 16.1184 8.80251 16.2405C8.8992 16.0652 8.91724 15.8835 8.69314 15.7285C8.69314 15.5016 8.40734 15.3606 8.17053 15.4914L7.54509 15.2691C8.10679 15.0861 9.13831 14.9007 9.13831 14.9007C9.27891 15.0355 9.39124 15.1346 9.53191 15.2553C9.60652 15.3014 9.71198 15.299 9.82677 15.1491C10.1774 14.6289 10.5088 13.6819 11.0156 13.5515C11.2019 13.5035 11.426 13.6298 11.3784 14.0466C11.306 14.6802 10.8422 15.2071 10.2589 15.6013C9.93439 15.8178 9.79735 15.7221 9.54576 15.7097C9.22121 15.7468 9.1344 15.9083 9.40176 16.132C9.64978 16.2634 9.87364 16.281 10.0542 16.2455C10.2104 16.2171 10.3926 16.0112 10.5227 15.8995C10.6686 15.7273 10.9116 15.9315 10.7468 16.1338C10.4464 16.4994 10.1446 16.7391 9.77482 16.7337C9.38431 16.7887 9.45727 17.0123 9.71578 17.1206C10.181 17.3175 10.6026 16.9501 10.8145 16.707C10.9793 16.5243 11.0974 16.5173 11.0678 16.8012C10.9046 17.3175 10.6808 17.5181 10.3163 17.543C10.0212 17.5163 10.0178 17.7489 10.2331 17.9069C10.7258 18.2547 11.0833 17.6618 11.25 17.3033C11.3679 16.9785 11.5503 17.1331 11.5693 17.3992C11.5729 17.756 11.3173 18.1262 11.1064 18.3091C10.8956 18.4919 12.0153 19.6543 12.0153 19.6543C12.0153 19.6543 13.1349 18.4919 12.9241 18.309L12.9242 18.3091ZM14.4246 5.1454C14.2503 5.1454 14.1427 5.20643 14.1427 5.28048C14.1427 5.35571 14.2503 5.41701 14.4246 5.41701C14.5979 5.41701 14.7079 5.35015 14.7079 5.27483C14.7079 5.20077 14.5978 5.14536 14.4246 5.14536V5.1454ZM9.60597 5.1454C9.78024 5.1454 9.8879 5.20643 9.8879 5.28048C9.8879 5.35571 9.78024 5.41701 9.60597 5.41701C9.43272 5.41701 9.3227 5.35015 9.3227 5.27483C9.3227 5.20077 9.43276 5.14536 9.60597 5.14536V5.1454Z" fill="black"/>
</g>
<defs>
<clipPath id="clip0_358_292">
<rect width="24" height="24" rx="12" fill="white"/>
</clipPath>
</defs>
</svg>
