<svg width="24" height="24" viewBox="0 0 24 24" fill="none" xmlns="http://www.w3.org/2000/svg">
<g clip-path="url(#clip0_358_14227)">
<path d="M-6 0H30V24H-6V0Z" fill="black"/>
<path d="M-6 0H30V12H-6V0Z" fill="#CC092F"/>
<path fill-rule="evenodd" clip-rule="evenodd" d="M9.63281 8.23109H11.0986L11.5431 6.84961L11.9995 8.23109H13.4651L12.2877 9.10813L12.7441 10.5135L11.5431 9.66057L10.3538 10.5135L10.8102 9.10813L9.63281 8.23109Z" fill="#FFCB00"/>
<path fill-rule="evenodd" clip-rule="evenodd" d="M14.993 15.7886L13.8399 14.8874C15.005 13.9385 15.762 12.4849 15.762 10.8632C15.762 8.38858 13.9962 6.31026 11.6655 5.81774L11.8457 4.97674C12.1701 5.04886 12.5507 5.18542 12.863 5.29338L13.1634 4.78906C13.4874 4.94506 13.8481 5.10118 14.1482 5.29338L13.9201 5.8341C14.2205 6.02642 14.5831 6.32414 14.7847 6.55858L15.2358 6.20622C15.4761 6.47038 15.7645 6.7465 15.9687 7.03506L15.5603 7.45554C15.8241 7.84274 15.926 8.02094 16.1205 8.46702L16.6935 8.33262C16.8018 8.66894 16.9661 9.0807 17.0263 9.42894L16.4837 9.64222C16.5485 9.91286 16.6324 10.3856 16.627 10.7832C16.6266 10.8071 16.6248 10.8343 16.6248 10.8583L17.1915 10.9392C17.1675 11.2877 17.1556 11.6842 17.0833 12.0325H16.4947C16.4107 12.3927 16.3023 12.8333 16.1703 13.1695L16.6627 13.458C16.5066 13.7702 16.3507 14.1427 16.1463 14.4431L15.6058 14.2149C15.4014 14.5151 15.1734 14.8033 14.9211 15.0678L15.2693 15.5242C15.1734 15.6082 15.0892 15.6924 14.993 15.7886M12.4585 15.6804L13.3294 16.2052C13.2482 16.2795 13.0049 16.4055 12.9404 16.431L13.0828 16.9776C12.7465 17.0859 12.386 17.2419 12.0139 17.3141L11.7977 16.7736C11.4493 16.8456 11.101 16.8936 10.7406 16.8936L10.6683 17.4581C10.3321 17.4342 9.92362 17.4581 9.55118 17.3741V16.8097C9.21474 16.7494 8.89042 16.6654 8.57822 16.5572L8.30182 17.0501C8.01354 16.9297 7.62918 16.7855 7.3167 16.5934L7.52102 16.0529C7.26862 15.9206 7.04042 15.7525 6.82422 15.5841L7.36482 14.8993C8.25386 15.6082 9.37094 16.0285 10.5963 16.0285C11.2451 16.0285 11.8816 15.9206 12.4585 15.6805" fill="#FFCB00"/>
<path fill-rule="evenodd" clip-rule="evenodd" d="M16.0877 17.0724L10.3385 12.6971L10.2861 12.7718L16.0205 17.1547L15.6801 17.5806L10.09 13.995C8.57643 13.0459 8.63651 12.3012 8.94887 11.4963L9.21319 10.8477C9.35739 11.6886 10.2221 12.3254 11.1231 13.034L16.1997 16.9339L16.0877 17.0724ZM17.531 18.3764C17.5193 18.3764 17.5077 18.3741 17.4968 18.3696C17.486 18.3651 17.4761 18.3585 17.4678 18.3501C17.4596 18.3418 17.453 18.3319 17.4485 18.3211C17.4441 18.3102 17.4418 18.2986 17.4418 18.2869C17.4418 18.2751 17.4441 18.2635 17.4486 18.2527C17.4531 18.2419 17.4596 18.232 17.4679 18.2237C17.4762 18.2154 17.486 18.2089 17.4969 18.2044C17.5077 18.1999 17.5193 18.1976 17.531 18.1976C17.5805 18.1976 17.6206 18.2376 17.6206 18.2869C17.6206 18.2986 17.6183 18.3103 17.6138 18.3211C17.6093 18.332 17.6027 18.3419 17.5944 18.3502C17.5861 18.3585 17.5762 18.3651 17.5653 18.3696C17.5544 18.3741 17.5428 18.3764 17.531 18.3764ZM17.1874 18.1241C17.1637 18.1241 17.141 18.1146 17.1242 18.0979C17.1074 18.0811 17.098 18.0584 17.0979 18.0347C17.0979 18.017 17.1032 17.9997 17.113 17.985C17.1228 17.9703 17.1368 17.9588 17.1531 17.952C17.1695 17.9453 17.1874 17.9435 17.2048 17.9469C17.2221 17.9504 17.2381 17.9589 17.2506 17.9714C17.2631 17.9839 17.2716 17.9998 17.2751 18.0172C17.2786 18.0345 17.2768 18.0525 17.27 18.0688C17.2633 18.0852 17.2518 18.0992 17.2371 18.109C17.2224 18.1188 17.2051 18.1241 17.1874 18.1241ZM16.8358 17.8439C16.7865 17.8439 16.7464 17.8039 16.7464 17.7546C16.7471 17.7314 16.7568 17.7093 16.7735 17.6931C16.7902 17.6769 16.8125 17.6679 16.8358 17.6679C16.859 17.6679 16.8814 17.6769 16.8981 17.6931C16.9148 17.7093 16.9245 17.7314 16.9252 17.7546C16.9252 17.8039 16.8852 17.8439 16.8358 17.8439ZM18.018 18.3399L16.2954 17.0053L15.7948 17.6503L17.2912 18.6997C17.4114 18.7837 17.4232 19.1685 17.8675 19.2286C18.048 19.2525 18.1678 19.1202 18.1678 19.1202C18.3614 18.8845 18.3087 18.5601 18.018 18.3399Z" fill="#FFCB00"/>
</g>
<defs>
<clipPath id="clip0_358_14227">
<rect width="24" height="24" rx="12" fill="white"/>
</clipPath>
</defs>
</svg>
