<svg width="24" height="24" viewBox="0 0 24 24" fill="none" xmlns="http://www.w3.org/2000/svg">
<g clip-path="url(#clip0_358_5673)">
<path d="M30.1304 0H-6V24H30.1304V0Z" fill="#74ACDF"/>
<path d="M30.3718 8H-6V16.0002H30.3718V8Z" fill="white"/>
<path d="M11.7734 12.0631L13.1392 15.0387C13.1392 15.0387 13.1627 15.0956 13.2007 15.0799C13.2386 15.0643 13.215 15.0074 13.215 15.0074L12.0767 11.9375M12.0441 13.0953C12.0274 13.5478 12.3058 13.7967 12.2694 14.2008C12.233 14.605 12.455 14.8334 12.5065 14.9906C12.558 15.1478 12.4508 15.2417 12.497 15.2641C12.5432 15.2865 12.6443 15.1623 12.6114 14.9389C12.5784 14.7154 12.4088 14.6491 12.4487 14.1555C12.4885 13.6619 12.2468 13.547 12.3056 13.0967" fill="#F6B40E"/>
<path d="M11.7734 12.0631L13.1392 15.0387C13.1392 15.0387 13.1627 15.0956 13.2007 15.0799C13.2386 15.0643 13.215 15.0074 13.215 15.0074L12.0767 11.9375M12.0441 13.0953C12.0274 13.5478 12.3058 13.7967 12.2694 14.2008C12.233 14.605 12.455 14.8334 12.5065 14.9906C12.558 15.1478 12.4508 15.2417 12.497 15.2641C12.5432 15.2865 12.6443 15.1623 12.6114 14.9389C12.5784 14.7154 12.4088 14.6491 12.4487 14.1555C12.4885 13.6619 12.2468 13.547 12.3056 13.0967" stroke="#85340A" stroke-width="0.088928"/>
<path d="M11.7644 12.0008L11.8875 15.2726C11.8875 15.2726 11.8875 15.3341 11.9285 15.3342C11.9696 15.3342 11.9695 15.2726 11.9695 15.2726L12.0927 12.0008M11.6195 13.058C11.4309 13.4697 11.5928 13.8061 11.4046 14.1656C11.2163 14.5251 11.334 14.8211 11.3214 14.986C11.3088 15.1509 11.1738 15.1967 11.2079 15.235C11.2421 15.2734 11.383 15.1974 11.4381 14.9783C11.4931 14.7593 11.3618 14.6331 11.5875 14.1923C11.8132 13.7516 11.6339 13.5529 11.8606 13.1594" fill="#F6B40E"/>
<path d="M11.7644 12.0008L11.8875 15.2726C11.8875 15.2726 11.8875 15.3341 11.9285 15.3342C11.9696 15.3342 11.9695 15.2726 11.9695 15.2726L12.0927 12.0008M11.6195 13.058C11.4309 13.4697 11.5928 13.8061 11.4046 14.1656C11.2163 14.5251 11.334 14.8211 11.3214 14.986C11.3088 15.1509 11.1738 15.1967 11.2079 15.235C11.2421 15.2734 11.383 15.1974 11.4381 14.9783C11.4931 14.7593 11.3618 14.6331 11.5875 14.1923C11.8132 13.7516 11.6339 13.5529 11.8606 13.1594" stroke="#85340A" stroke-width="0.088928"/>
<path d="M11.7745 11.9365L10.6361 15.0063C10.6361 15.0063 10.6125 15.0632 10.6504 15.0789C10.6884 15.0946 10.7119 15.0377 10.7119 15.0377L12.0777 12.0621M11.236 12.8577C10.9042 13.1659 10.9251 13.5387 10.6136 13.7987C10.3021 14.0588 10.2975 14.3773 10.2228 14.5249C10.1481 14.6724 10.0058 14.6631 10.0226 14.7115C10.0395 14.7601 10.1988 14.7438 10.3335 14.5625C10.4682 14.3812 10.3952 14.2143 10.7724 13.8935C11.1496 13.5726 11.0599 13.3204 11.4199 13.0437" fill="#F6B40E"/>
<path d="M11.7745 11.9365L10.6361 15.0063C10.6361 15.0063 10.6125 15.0632 10.6504 15.0789C10.6884 15.0946 10.7119 15.0377 10.7119 15.0377L12.0777 12.0621M11.236 12.8577C10.9042 13.1659 10.9251 13.5387 10.6136 13.7987C10.3021 14.0588 10.2975 14.3773 10.2228 14.5249C10.1481 14.6724 10.0058 14.6631 10.0226 14.7115C10.0395 14.7601 10.1988 14.7438 10.3335 14.5625C10.4682 14.3812 10.3952 14.2143 10.7724 13.8935C11.1496 13.5726 11.0599 13.3204 11.4199 13.0437" stroke="#85340A" stroke-width="0.088928"/>
<path d="M11.8097 11.884L9.58328 14.2846C9.58328 14.2846 9.53972 14.328 9.56872 14.3571C9.59772 14.3861 9.64124 14.3426 9.64124 14.3426L12.0418 12.1161M10.9597 12.529C10.5353 12.6868 10.4118 13.0392 10.0246 13.1603C9.63726 13.2814 9.51111 13.5739 9.38562 13.6815C9.26013 13.7893 9.13228 13.7262 9.12929 13.7774C9.12631 13.8287 9.27973 13.8746 9.47354 13.7587C9.66735 13.6427 9.66372 13.4606 10.135 13.3086C10.6063 13.1565 10.62 12.8892 11.0585 12.7712" fill="#F6B40E"/>
<path d="M11.8097 11.884L9.58328 14.2846C9.58328 14.2846 9.53972 14.328 9.56872 14.3571C9.59772 14.3861 9.64124 14.3426 9.64124 14.3426L12.0418 12.1161M10.9597 12.529C10.5353 12.6868 10.4118 13.0392 10.0246 13.1603C9.63726 13.2814 9.51111 13.5739 9.38562 13.6815C9.26013 13.7893 9.13228 13.7262 9.12929 13.7774C9.12631 13.8287 9.27973 13.8746 9.47354 13.7587C9.66735 13.6427 9.66372 13.4606 10.135 13.3086C10.6063 13.1565 10.62 12.8892 11.0585 12.7712" stroke="#85340A" stroke-width="0.088928"/>
<path d="M12.1343 13.1714C12.156 13.6059 12.4024 13.7984 12.3541 14.1944C12.4603 13.8812 12.2041 13.6384 12.2187 13.1759M11.8516 12.0355L12.7869 14.0792L12.0031 11.9727" fill="#85340A"/>
<path d="M11.6697 13.161C11.5235 13.5708 11.6775 13.8429 11.4812 14.1903C11.6992 13.9416 11.5555 13.6192 11.7459 13.1974M11.8431 12.0034L11.9252 14.2495L12.0072 12.0033" fill="#85340A"/>
<path d="M11.2429 12.9753C10.951 13.2979 10.9892 13.6083 10.6749 13.8541C10.9715 13.7077 10.962 13.3549 11.2994 13.0381M11.8462 11.9722L11.0625 14.0787L11.9978 12.0349" fill="#85340A"/>
<path d="M10.9226 12.6398C10.5294 12.8263 10.4459 13.1275 10.0615 13.2344C10.3915 13.2127 10.5178 12.8831 10.9507 12.7196M11.8638 11.944L10.3336 13.5902L11.9799 12.06" fill="#85340A"/>
<path d="M11.8666 11.8477L8.89095 13.2134C8.89095 13.2134 8.83407 13.2369 8.84974 13.2749C8.86542 13.3128 8.9223 13.2892 8.9223 13.2892L11.9922 12.1509M10.8344 12.1183C10.3819 12.1016 10.133 12.38 9.72889 12.3436C9.32473 12.3073 9.09625 12.5292 8.9391 12.5807C8.78193 12.6322 8.68795 12.525 8.66559 12.5712C8.64321 12.6174 8.76738 12.7186 8.99081 12.6856C9.21425 12.6526 9.28058 12.483 9.77417 12.5229C10.2678 12.5627 10.3827 12.321 10.833 12.3798" fill="#F6B40E"/>
<path d="M11.8666 11.8477L8.89096 13.2134C8.89096 13.2134 8.83407 13.2369 8.84974 13.2749C8.86542 13.3128 8.9223 13.2892 8.9223 13.2892L11.9922 12.1509M10.8344 12.1183C10.3819 12.1016 10.133 12.38 9.72889 12.3436C9.32473 12.3073 9.09625 12.5292 8.9391 12.5807C8.78193 12.6322 8.68795 12.525 8.66559 12.5712C8.64321 12.6174 8.76738 12.7186 8.99081 12.6856C9.21425 12.6526 9.28058 12.483 9.77417 12.5229C10.2678 12.5627 10.3827 12.321 10.833 12.3798" stroke="#85340A" stroke-width="0.088928"/>
<path d="M11.9308 11.8347L8.65904 11.9578C8.65904 11.9578 8.5975 11.9578 8.59746 11.9988C8.59743 12.0399 8.659 12.0399 8.659 12.0399L11.9308 12.163M10.8737 11.6898C10.462 11.5012 10.1255 11.6632 9.76607 11.4749C9.40658 11.2866 9.11055 11.4043 8.94567 11.3917C8.78074 11.3791 8.73494 11.2441 8.69661 11.2782C8.65824 11.3124 8.73426 11.4533 8.9533 11.5084C9.17235 11.5634 9.29854 11.4321 9.7393 11.6578C10.1801 11.8835 10.3788 11.7042 10.7722 11.9309" fill="#F6B40E"/>
<path d="M11.9308 11.8347L8.65904 11.9578C8.65904 11.9578 8.5975 11.9578 8.59746 11.9988C8.59743 12.0399 8.659 12.0399 8.659 12.0399L11.9308 12.163M10.8737 11.6898C10.462 11.5012 10.1255 11.6632 9.76607 11.4749C9.40658 11.2866 9.11055 11.4043 8.94567 11.3917C8.78074 11.3791 8.73494 11.2441 8.69661 11.2782C8.65824 11.3124 8.73426 11.4533 8.9533 11.5084C9.17235 11.5634 9.29854 11.4321 9.7393 11.6578C10.1801 11.8835 10.3788 11.7042 10.7722 11.9309" stroke="#85340A" stroke-width="0.088928"/>
<path d="M11.9932 11.8487L8.92337 10.7104C8.92337 10.7104 8.86653 10.6868 8.85078 10.7247C8.83505 10.7626 8.89195 10.7861 8.89195 10.7861L11.8676 12.1519M11.072 11.3102C10.7638 10.9784 10.391 10.9993 10.131 10.6878C9.87086 10.3763 9.55235 10.3717 9.40483 10.297C9.25727 10.2223 9.26661 10.08 9.21815 10.0969C9.16963 10.1137 9.18593 10.273 9.36723 10.4077C9.54853 10.5424 9.71537 10.4694 10.0362 10.8466C10.357 11.2238 10.6093 11.1341 10.886 11.4941" fill="#F6B40E"/>
<path d="M11.9932 11.8487L8.92337 10.7104C8.92337 10.7104 8.86653 10.6868 8.85078 10.7247C8.83505 10.7626 8.89195 10.7861 8.89195 10.7861L11.8676 12.1519M11.072 11.3102C10.7638 10.9784 10.391 10.9993 10.131 10.6878C9.87086 10.3763 9.55235 10.3717 9.40483 10.297C9.25727 10.2223 9.26661 10.08 9.21815 10.0969C9.16963 10.1137 9.18593 10.273 9.36723 10.4077C9.54853 10.5424 9.71537 10.4694 10.0362 10.8466C10.357 11.2238 10.6093 11.1341 10.886 11.4941" stroke="#85340A" stroke-width="0.088928"/>
<path d="M12.0457 11.8839L9.64513 9.6575C9.64513 9.6575 9.60165 9.61394 9.5726 9.64294C9.54356 9.67194 9.58711 9.71546 9.58711 9.71546L11.8136 12.1161M11.4007 11.0339C11.2429 10.6095 10.8905 10.4861 10.7694 10.0988C10.6483 9.71148 10.3558 9.58533 10.2481 9.45984C10.1404 9.33434 10.2035 9.2065 10.1523 9.20351C10.101 9.20053 10.0551 9.35394 10.171 9.54776C10.287 9.74157 10.4691 9.73794 10.6211 10.2092C10.7732 10.6805 11.0405 10.6942 11.1585 11.1327" fill="#F6B40E"/>
<path d="M12.0457 11.8839L9.64513 9.6575C9.64513 9.6575 9.60165 9.61394 9.5726 9.64294C9.54356 9.67194 9.58711 9.71546 9.58711 9.71546L11.8136 12.1161M11.4007 11.0339C11.2429 10.6095 10.8905 10.4861 10.7694 10.0988C10.6483 9.71148 10.3558 9.58533 10.2481 9.45984C10.1404 9.33434 10.2035 9.2065 10.1523 9.20351C10.101 9.20053 10.0551 9.35394 10.171 9.54776C10.287 9.74157 10.4691 9.73794 10.6211 10.2092C10.7732 10.6805 11.0405 10.6942 11.1585 11.1327" stroke="#85340A" stroke-width="0.088928"/>
<path d="M10.7583 12.2065C10.3237 12.2283 10.1313 12.4747 9.73526 12.4263C10.0485 12.5326 10.2912 12.2764 10.7538 12.291M11.8942 11.9238L9.85045 12.8592L11.957 12.0754" fill="#85340A"/>
<path d="M10.7687 11.7419C10.3589 11.5957 10.0868 11.7497 9.73942 11.5535C9.98812 11.7715 10.3105 11.6277 10.7323 11.8182M11.9263 11.9154L9.6802 11.9975L11.9264 12.0795" fill="#85340A"/>
<path d="M10.9564 11.3171C10.6337 11.0252 10.3234 11.0634 10.0776 10.7491C10.2239 11.0457 10.5767 11.0363 10.8935 11.3736M11.9594 11.9204L9.85292 11.1367L11.8967 12.072" fill="#85340A"/>
<path d="M11.2918 10.9968C11.1054 10.6037 10.8041 10.5202 10.6972 10.1357C10.7189 10.4657 11.0485 10.592 11.2121 11.025M11.9877 11.938L10.3414 10.4078L11.8717 12.0541" fill="#85340A"/>
<path d="M12.082 11.9369L10.7162 8.96127C10.7162 8.96127 10.6927 8.90439 10.6548 8.92005C10.6169 8.93574 10.6405 8.99261 10.6405 8.99261L11.7788 12.0625M11.8114 10.9047C11.828 10.4522 11.5497 10.2033 11.5861 9.7992C11.6224 9.39504 11.4005 9.16656 11.349 9.00941C11.2975 8.85224 11.4047 8.75826 11.3585 8.7359C11.3123 8.71352 11.2111 8.83769 11.2441 9.06113C11.2771 9.28456 11.4467 9.35089 11.4068 9.84449C11.367 10.3381 11.6087 10.453 11.5498 10.9033" fill="#F6B40E"/>
<path d="M12.082 11.9369L10.7162 8.96127C10.7162 8.96127 10.6927 8.90439 10.6548 8.92005C10.6169 8.93574 10.6405 8.99261 10.6405 8.99261L11.7788 12.0625M11.8114 10.9047C11.828 10.4522 11.5497 10.2033 11.5861 9.7992C11.6224 9.39504 11.4005 9.16656 11.349 9.00941C11.2975 8.85224 11.4047 8.75826 11.3585 8.7359C11.3123 8.71352 11.2111 8.83769 11.2441 9.06113C11.2771 9.28456 11.4467 9.35089 11.4068 9.84449C11.367 10.3381 11.6087 10.453 11.5498 10.9033" stroke="#85340A" stroke-width="0.088928"/>
<path d="M12.091 11.9992L11.9679 8.7274C11.9679 8.7274 11.968 8.66586 11.9269 8.66581C11.8859 8.66579 11.8859 8.72736 11.8859 8.72736L11.7628 11.9992M12.236 10.942C12.4246 10.5303 12.2626 10.1939 12.4509 9.83443C12.6391 9.47494 12.5215 9.17891 12.5341 9.01403C12.5466 8.8491 12.6816 8.8033 12.6475 8.76497C12.6134 8.7266 12.4724 8.80262 12.4174 9.02166C12.3623 9.24071 12.4937 9.3669 12.2679 9.80766C12.0422 10.2484 12.2216 10.4471 11.9949 10.8406" fill="#F6B40E"/>
<path d="M12.091 11.9992L11.9679 8.7274C11.9679 8.7274 11.968 8.66586 11.9269 8.66581C11.8859 8.66579 11.8859 8.72736 11.8859 8.72736L11.7628 11.9992M12.236 10.942C12.4246 10.5303 12.2626 10.1939 12.4509 9.83443C12.6391 9.47494 12.5215 9.17891 12.5341 9.01403C12.5466 8.8491 12.6816 8.8033 12.6475 8.76497C12.6134 8.7266 12.4724 8.80262 12.4174 9.02166C12.3623 9.24071 12.4937 9.3669 12.2679 9.80766C12.0422 10.2484 12.2216 10.4471 11.9949 10.8406" stroke="#85340A" stroke-width="0.088928"/>
<path d="M12.081 12.0635L13.2193 8.99368C13.2193 8.99368 13.2429 8.93684 13.205 8.92109C13.1671 8.90536 13.1436 8.96226 13.1436 8.96226L11.7778 11.9379M12.6195 11.1423C12.9512 10.8341 12.9304 10.4613 13.2419 10.2013C13.5534 9.94117 13.558 9.62266 13.6327 9.47515C13.7074 9.32758 13.8497 9.33693 13.8328 9.28846C13.816 9.23994 13.6567 9.25624 13.522 9.43754C13.3873 9.61884 13.4603 9.78568 13.0831 10.1065C12.7059 10.4274 12.7956 10.6796 12.4356 10.9563" fill="#F6B40E"/>
<path d="M12.081 12.0635L13.2193 8.99368C13.2193 8.99368 13.2429 8.93684 13.205 8.92109C13.1671 8.90536 13.1436 8.96226 13.1436 8.96226L11.7778 11.9379M12.6195 11.1423C12.9512 10.8341 12.9304 10.4613 13.2419 10.2013C13.5534 9.94117 13.558 9.62266 13.6327 9.47515C13.7074 9.32758 13.8497 9.33693 13.8328 9.28846C13.816 9.23994 13.6567 9.25624 13.522 9.43754C13.3873 9.61884 13.4603 9.78568 13.0831 10.1065C12.7059 10.4274 12.7956 10.6796 12.4356 10.9563" stroke="#85340A" stroke-width="0.088928"/>
<path d="M12.0457 12.116L14.2722 9.71544C14.2722 9.71544 14.3157 9.67197 14.2868 9.64291C14.2577 9.61387 14.2142 9.65743 14.2142 9.65743L11.8136 11.8839M12.8958 11.471C13.3202 11.3132 13.4436 10.9608 13.8309 10.8397C14.2182 10.7186 14.3444 10.4261 14.4699 10.3185C14.5953 10.2107 14.7232 10.2738 14.7262 10.2226C14.7292 10.1713 14.5757 10.1254 14.3819 10.2413C14.1881 10.3573 14.1917 10.5394 13.7205 10.6914C13.2492 10.8435 13.2355 11.1108 12.797 11.2288" fill="#F6B40E"/>
<path d="M12.0457 12.116L14.2722 9.71544C14.2722 9.71544 14.3157 9.67197 14.2868 9.64291C14.2577 9.61387 14.2142 9.65743 14.2142 9.65743L11.8136 11.8839M12.8958 11.471C13.3202 11.3132 13.4436 10.9608 13.8309 10.8397C14.2182 10.7186 14.3444 10.4261 14.4699 10.3185C14.5953 10.2107 14.7232 10.2738 14.7262 10.2226C14.7292 10.1713 14.5757 10.1254 14.3819 10.2413C14.1881 10.3573 14.1917 10.5394 13.7205 10.6914C13.2492 10.8435 13.2355 11.1108 12.797 11.2288" stroke="#85340A" stroke-width="0.088928"/>
<path d="M11.7212 10.8286C11.6994 10.3941 11.453 10.2016 11.5014 9.80557C11.3952 10.1188 11.6513 10.3616 11.6368 10.8241M12.0039 11.9645L11.0685 9.92077L11.8523 12.0273" fill="#85340A"/>
<path d="M12.1858 10.839C12.332 10.4292 12.178 10.1571 12.3743 9.80974C12.1563 10.0584 12.3 10.3808 12.1095 10.8026M12.0123 11.9966L11.9303 9.75051L11.8482 11.9967" fill="#85340A"/>
<path d="M12.6125 11.0247C12.9045 10.7021 12.8663 10.3917 13.1806 10.1459C12.884 10.2923 12.8934 10.6451 12.556 10.9619M12.0093 12.0278L12.793 9.92128L11.8577 11.9651" fill="#85340A"/>
<path d="M12.9329 11.3602C13.326 11.1737 13.4095 10.8725 13.7939 10.7656C13.4639 10.7873 13.3377 11.1169 12.9047 11.2804M11.9917 12.056L13.5219 10.4098L11.8756 11.94" fill="#85340A"/>
<path d="M11.9889 12.1523L14.9645 10.7866C14.9645 10.7866 15.0214 10.7631 15.0057 10.7251C14.99 10.6872 14.9332 10.7108 14.9332 10.7108L11.8633 11.8491M13.021 11.8817C13.4736 11.8984 13.7225 11.62 14.1266 11.6564C14.5307 11.6927 14.7592 11.4708 14.9164 11.4193C15.0735 11.3678 15.1675 11.475 15.1899 11.4288C15.2123 11.3826 15.0881 11.2814 14.8647 11.3144C14.6412 11.3474 14.5749 11.517 14.0813 11.4771C13.5877 11.4373 13.4728 11.679 13.0225 11.6202" fill="#F6B40E"/>
<path d="M11.9889 12.1523L14.9645 10.7866C14.9645 10.7866 15.0214 10.7631 15.0057 10.7251C14.99 10.6872 14.9332 10.7108 14.9332 10.7108L11.8633 11.8491M13.021 11.8817C13.4736 11.8984 13.7225 11.62 14.1266 11.6564C14.5307 11.6927 14.7592 11.4708 14.9164 11.4193C15.0735 11.3678 15.1675 11.475 15.1899 11.4288C15.2123 11.3826 15.0881 11.2814 14.8647 11.3144C14.6412 11.3474 14.5749 11.517 14.0813 11.4771C13.5877 11.4373 13.4728 11.679 13.0225 11.6202" stroke="#85340A" stroke-width="0.088928"/>
<path d="M11.9246 12.1653L15.1964 12.0422C15.1964 12.0422 15.258 12.0422 15.258 12.0012C15.258 11.9601 15.1965 11.9601 15.1965 11.9601L11.9246 11.837M12.9818 12.3102C13.3935 12.4988 13.73 12.3368 14.0894 12.5251C14.4489 12.7134 14.7449 12.5957 14.9098 12.6083C15.0747 12.6209 15.1205 12.7559 15.1589 12.7218C15.1972 12.6876 15.1212 12.5467 14.9022 12.4916C14.6831 12.4366 14.5569 12.5679 14.1162 12.3422C13.6754 12.1165 13.4767 12.2958 13.0832 12.0691" fill="#F6B40E"/>
<path d="M11.9246 12.1653L15.1964 12.0422C15.1964 12.0422 15.258 12.0422 15.258 12.0012C15.258 11.9601 15.1965 11.9601 15.1965 11.9601L11.9246 11.837M12.9818 12.3102C13.3935 12.4988 13.73 12.3368 14.0894 12.5251C14.4489 12.7134 14.7449 12.5957 14.9098 12.6083C15.0747 12.6209 15.1205 12.7559 15.1589 12.7218C15.1972 12.6876 15.1212 12.5467 14.9022 12.4916C14.6831 12.4366 14.5569 12.5679 14.1162 12.3422C13.6754 12.1165 13.4767 12.2958 13.0832 12.0691" stroke="#85340A" stroke-width="0.088928"/>
<path d="M11.8623 12.1513L14.9321 13.2896C14.9321 13.2896 14.9889 13.3132 15.0047 13.2753C15.0204 13.2374 14.9635 13.2139 14.9635 13.2139L11.9879 11.8481M12.7835 12.6898C13.0917 13.0216 13.4645 13.0007 13.7245 13.3122C13.9846 13.6237 14.3031 13.6283 14.4506 13.703C14.5982 13.7777 14.5889 13.92 14.6373 13.9031C14.6858 13.8863 14.6695 13.727 14.4882 13.5923C14.3069 13.4576 14.1401 13.5306 13.8193 13.1534C13.4984 12.7762 13.2462 12.8659 12.9694 12.5059" fill="#F6B40E"/>
<path d="M11.8623 12.1513L14.9321 13.2896C14.9321 13.2896 14.9889 13.3132 15.0047 13.2753C15.0204 13.2374 14.9635 13.2139 14.9635 13.2139L11.9879 11.8481M12.7835 12.6898C13.0917 13.0216 13.4645 13.0007 13.7245 13.3122C13.9846 13.6237 14.3031 13.6283 14.4506 13.703C14.5982 13.7777 14.5889 13.92 14.6373 13.9031C14.6858 13.8863 14.6695 13.727 14.4882 13.5923C14.3069 13.4576 14.1401 13.5306 13.8193 13.1534C13.4984 12.7762 13.2462 12.8659 12.9694 12.5059" stroke="#85340A" stroke-width="0.088928"/>
<path d="M11.8098 12.1161L14.2103 14.3425C14.2103 14.3425 14.2538 14.3861 14.2829 14.3571C14.3119 14.3281 14.2684 14.2845 14.2684 14.2845L12.0419 11.8839M12.4548 12.9661C12.6126 13.3905 12.965 13.5139 13.086 13.9012C13.2071 14.2885 13.4996 14.4147 13.6073 14.5402C13.7151 14.6657 13.652 14.7935 13.7032 14.7965C13.7545 14.7995 13.8004 14.6461 13.6844 14.4522C13.5685 14.2584 13.3864 14.2621 13.2343 13.7908C13.0823 13.3195 12.8149 13.3058 12.697 12.8673" fill="#F6B40E"/>
<path d="M11.8098 12.1161L14.2103 14.3425C14.2103 14.3425 14.2538 14.3861 14.2829 14.3571C14.3119 14.3281 14.2684 14.2845 14.2684 14.2845L12.0419 11.8839M12.4548 12.9661C12.6126 13.3905 12.965 13.5139 13.086 13.9012C13.2071 14.2885 13.4996 14.4147 13.6073 14.5402C13.7151 14.6657 13.652 14.7935 13.7032 14.7965C13.7545 14.7995 13.8004 14.6461 13.6844 14.4522C13.5685 14.2584 13.3864 14.2621 13.2343 13.7908C13.0823 13.3195 12.8149 13.3058 12.697 12.8673" stroke="#85340A" stroke-width="0.088928"/>
<path d="M13.0971 11.7935C13.5317 11.7717 13.7242 11.5253 14.1202 11.5737C13.807 11.4674 13.5642 11.7236 13.1017 11.709M11.9613 12.0762L14.005 11.1408L11.8984 11.9246" fill="#85340A"/>
<path d="M13.0867 12.2581C13.4966 12.4043 13.7687 12.2503 14.116 12.4465C13.8673 12.2285 13.545 12.3723 13.1232 12.1818M11.9292 12.0846L14.1753 12.0025L11.9291 11.9205" fill="#85340A"/>
<path d="M12.8991 12.6829C13.2218 12.9748 13.5321 12.9366 13.7779 13.2509C13.6316 12.9543 13.2788 12.9637 12.962 12.6264M11.896 12.0796L14.0025 12.8633L11.9587 11.928" fill="#85340A"/>
<path d="M12.5637 13.0032C12.7501 13.3963 13.0514 13.4798 13.1582 13.8643C13.1365 13.5343 12.807 13.408 12.6434 12.975M11.8678 12.062L13.5141 13.5922L11.9838 11.9459" fill="#85340A"/>
<path d="M11.9271 13.3327C12.6635 13.3327 13.2604 12.7357 13.2604 11.9994C13.2604 11.263 12.6635 10.666 11.9271 10.666C11.1907 10.666 10.5938 11.263 10.5938 11.9994C10.5938 12.7357 11.1907 13.3327 11.9271 13.3327Z" fill="#F6B40E" stroke="#85340A" stroke-width="0.12"/>
<path d="M12.3818 11.7148C12.2908 11.7148 12.2036 11.7543 12.1523 11.8363C12.2549 11.9286 12.4815 11.9387 12.6353 11.8258C12.5687 11.7541 12.4729 11.7148 12.3818 11.7148ZM12.3803 11.7358C12.469 11.7342 12.5518 11.7749 12.5633 11.8153C12.4608 11.9282 12.2969 11.9184 12.1943 11.8363C12.2392 11.7646 12.3114 11.7371 12.3803 11.7358Z" fill="#843511"/>
<path d="M12.4011 11.6524C12.2678 11.6524 12.237 11.6832 12.1755 11.7344C12.1139 11.7857 12.0832 11.7754 12.0729 11.7857C12.0627 11.796 12.0729 11.8267 12.0934 11.8164C12.1139 11.8062 12.155 11.7857 12.2164 11.7344C12.278 11.6831 12.3395 11.6832 12.4011 11.6832C12.5857 11.6832 12.6883 11.837 12.7087 11.8267C12.7292 11.8164 12.6062 11.6523 12.4011 11.6523L12.4011 11.6524Z" fill="#85340A"/>
<path d="M12.7695 11.7138C12.5336 11.5087 12.2363 11.4779 12.0721 11.6317C12.0319 11.6855 12.0062 11.7431 11.9956 11.8031C11.975 11.9199 12.0115 12.0461 12.103 12.1754C12.0926 12.1753 12.0721 12.1856 12.0618 12.1959C11.9804 12.0401 11.9516 11.8802 11.9783 11.7281C11.9853 11.6883 11.9963 11.6492 12.0105 11.6112C12.2361 11.4266 12.5437 11.4061 12.7694 11.7138L12.7695 11.7138Z" fill="#85340A"/>
<path d="M12.3814 11.9073C12.4323 11.9073 12.4737 11.8659 12.4737 11.815C12.4737 11.764 12.4323 11.7227 12.3814 11.7227C12.3304 11.7227 12.2891 11.764 12.2891 11.815C12.2891 11.8659 12.3304 11.9073 12.3814 11.9073Z" fill="#85340A"/>
<path d="M12.6445 11.8779C12.4702 12.0113 12.2958 12.001 12.1932 11.9394C12.0907 11.8779 12.0907 11.8574 12.1112 11.8574C12.1316 11.8574 12.1521 11.8779 12.2342 11.9189C12.3163 11.96 12.4393 11.96 12.6444 11.8779L12.6445 11.8779Z" fill="#85340A"/>
<path d="M11.7234 12.1836C11.6796 12.1916 11.6484 12.2305 11.6484 12.2751C11.6484 12.326 11.6906 12.3666 11.7414 12.3666C11.7715 12.3666 11.7992 12.3523 11.8164 12.3276C11.8519 12.3543 11.9011 12.3571 11.9274 12.3576C11.9315 12.3577 11.9367 12.3576 11.9394 12.3576C11.9657 12.3571 12.0149 12.3543 12.0504 12.3276C12.0677 12.3523 12.0954 12.3666 12.1254 12.3666C12.1763 12.3666 12.2184 12.326 12.2184 12.2751C12.2184 12.2305 12.1873 12.1916 12.1434 12.1836C12.1681 12.1923 12.1839 12.2161 12.1839 12.2421C12.1839 12.2761 12.1565 12.3036 12.1224 12.3036C12.0898 12.3036 12.0629 12.2777 12.0609 12.2451C12.0509 12.2651 12.0113 12.3245 11.9334 12.3276C11.8556 12.3245 11.816 12.2651 11.8059 12.2451C11.804 12.2777 11.7771 12.3036 11.7445 12.3036C11.7104 12.3036 11.683 12.276 11.683 12.2421C11.683 12.2161 11.6988 12.1923 11.7234 12.1836Z" fill="#85340A"/>
<path d="M11.8253 12.457C11.7227 12.457 11.6822 12.55 11.5898 12.6115C11.6411 12.5911 11.6815 12.5506 11.7533 12.5095C11.8252 12.4685 11.8864 12.5185 11.9273 12.5185H11.9288C11.9698 12.5185 12.031 12.4685 12.1028 12.5095C12.1747 12.5506 12.2165 12.5911 12.2678 12.6115C12.1755 12.55 12.1335 12.457 12.0308 12.457C12.0104 12.457 11.9698 12.4681 11.9288 12.4885H11.9273C11.8864 12.4681 11.8458 12.457 11.8253 12.457Z" fill="#85340A"/>
<path d="M11.7882 12.5792C11.7477 12.581 11.6941 12.5891 11.6172 12.6122C11.8019 12.5712 11.8426 12.6332 11.9247 12.6332H11.9262C12.0083 12.6332 12.049 12.5712 12.2337 12.6122C12.0285 12.5507 11.9877 12.5912 11.9262 12.5912H11.9247C11.8862 12.5912 11.8557 12.5762 11.7882 12.5792Z" fill="#85340A"/>
<path d="M11.6288 12.61C11.6169 12.6102 11.6039 12.6103 11.5898 12.6115C11.8053 12.632 11.7017 12.7555 11.9273 12.7555H11.9288C12.1545 12.7555 12.0524 12.632 12.2678 12.6115C12.0422 12.591 12.1135 12.724 11.9288 12.724H11.9273C11.7542 12.724 11.8075 12.6078 11.6288 12.61Z" fill="#85340A"/>
<path d="M12.1114 12.9444C12.1114 12.8425 12.0287 12.7598 11.9268 12.7598C11.8249 12.7598 11.7422 12.8425 11.7422 12.9444C11.7625 12.8589 11.839 12.7985 11.9268 12.7985C12.0148 12.7985 12.0912 12.8589 12.1114 12.9444Z" fill="#85340A"/>
<path d="M11.0977 11.7138C11.3336 11.5087 11.6309 11.4779 11.7951 11.6317C11.8353 11.6855 11.861 11.7431 11.8716 11.8031C11.8922 11.9199 11.8557 12.0461 11.7642 12.1754C11.7745 12.1753 11.7951 12.1856 11.8053 12.1959C11.8868 12.0401 11.9156 11.8802 11.8889 11.7281C11.8819 11.6883 11.8709 11.6492 11.8567 11.6112C11.6311 11.4266 11.3234 11.4061 11.0978 11.7138L11.0977 11.7138Z" fill="#85340A"/>
<path d="M11.47 11.6524C11.6032 11.6524 11.6341 11.6832 11.6956 11.7344C11.7572 11.7857 11.7879 11.7754 11.7982 11.7857C11.8084 11.796 11.7982 11.8267 11.7777 11.8164C11.7572 11.8062 11.7161 11.7857 11.6546 11.7344C11.593 11.6831 11.5316 11.6832 11.47 11.6832C11.2854 11.6832 11.1828 11.837 11.1624 11.8267C11.1419 11.8164 11.2649 11.6523 11.47 11.6523L11.47 11.6524Z" fill="#85340A"/>
<path d="M11.4639 11.7148C11.3728 11.7148 11.2856 11.7543 11.2344 11.8363C11.3369 11.9286 11.5635 11.9387 11.7174 11.8258C11.6507 11.7541 11.5549 11.7148 11.4639 11.7148ZM11.4624 11.7358C11.551 11.7342 11.6338 11.7749 11.6454 11.8153C11.5428 11.9282 11.3789 11.9184 11.2764 11.8363C11.3212 11.7646 11.3935 11.7371 11.4624 11.7358Z" fill="#843511"/>
<path d="M11.4751 11.9073C11.5261 11.9073 11.5674 11.8659 11.5674 11.815C11.5674 11.764 11.5261 11.7227 11.4751 11.7227C11.4241 11.7227 11.3828 11.764 11.3828 11.815C11.3828 11.8659 11.4241 11.9073 11.4751 11.9073Z" fill="#85340A"/>
<path d="M11.2227 11.8779C11.397 12.0113 11.5714 12.001 11.6739 11.9394C11.7765 11.8779 11.7765 11.8574 11.756 11.8574C11.7355 11.8574 11.7151 11.8779 11.633 11.9189C11.5509 11.96 11.4279 11.96 11.2228 11.8779L11.2227 11.8779Z" fill="#85340A"/>
</g>
<defs>
<clipPath id="clip0_358_5673">
<rect width="24" height="24" rx="12" fill="white"/>
</clipPath>
</defs>
</svg>
