<svg width="24" height="24" viewBox="0 0 24 24" fill="none" xmlns="http://www.w3.org/2000/svg">
<rect width="24" height="24" rx="12" fill="#012169"/>
<path d="M24 4.19922H0V20.1992H24V4.19922Z" fill="#012169"/>
<mask id="mask0_358_13503" style="mask-type:luminance" maskUnits="userSpaceOnUse" x="0" y="4" width="12" height="9">
<path d="M0 4.19922H12V12.1992H0V4.19922Z" fill="white"/>
</mask>
<g mask="url(#mask0_358_13503)">
<path d="M0 4.19922L12 12.1992L0 4.19922ZM12 4.19922L0 12.1992L12 4.19922Z" fill="black"/>
<path d="M0 4.19922L12 12.1992M12 4.19922L0 12.1992" stroke="white" stroke-width="2.3094"/>
</g>
<mask id="mask1_358_13503" style="mask-type:luminance" maskUnits="userSpaceOnUse" x="0" y="4" width="12" height="9">
<path d="M0 4.19922V8.19922H12V12.1992L0 4.19922ZM12 4.19922H6V12.1992H0L12 4.19922Z" fill="white"/>
</mask>
<g mask="url(#mask1_358_13503)">
<path d="M0 4.19922L12 12.1992L0 4.19922ZM12 4.19922L0 12.1992L12 4.19922Z" fill="black"/>
<path d="M0 4.19922L12 12.1992M12 4.19922L0 12.1992" stroke="#E4002B" stroke-width="1.5396"/>
</g>
<path d="M6 4.19922V12.1992V4.19922ZM0 8.19922H12H0Z" fill="black"/>
<path d="M6 4.19922V12.1992M0 8.19922H12" stroke="white" stroke-width="3.849"/>
<path d="M6 4.19922V12.1992V4.19922ZM0 8.19922H12H0Z" fill="black"/>
<path d="M6 4.19922V12.1992M0 8.19922H12" stroke="#E4002B" stroke-width="2.3094"/>
<path d="M6.02342 13.8594L6.48623 15.2983L7.89982 14.763L7.06334 16.022L8.36325 16.7934L6.85737 16.9244L7.06474 18.4217L6.02342 17.326L4.9821 18.4217L5.18947 16.9244L3.68359 16.7934L4.9835 16.022L4.14703 14.763L5.56061 15.2983L6.02342 13.8594Z" fill="white"/>
<path d="M18.2861 16.4492L18.5065 17.1344L19.1796 16.8795L18.7813 17.479L19.4003 17.8464L18.6832 17.9088L18.7819 18.6218L18.2861 18.1L17.7902 18.6218L17.889 17.9088L17.1719 17.8464L17.7909 17.479L17.3926 16.8795L18.0657 17.1344L18.2861 16.4492Z" fill="white"/>
<path d="M14.2861 10.1172L14.5065 10.8024L15.1796 10.5475L14.7813 11.147L15.4003 11.5144L14.6832 11.5767L14.7819 12.2897L14.2861 11.768L13.7902 12.2897L13.889 11.5767L13.1719 11.5144L13.7909 11.147L13.3926 10.5475L14.0657 10.8024L14.2861 10.1172Z" fill="white"/>
<path d="M18.2861 5.7832L18.5065 6.46843L19.1796 6.2135L18.7813 6.81303L19.4003 7.18037L18.6832 7.24275L18.7819 7.95574L18.2861 7.434L17.7902 7.95574L17.889 7.24275L17.1719 7.18037L17.7909 6.81303L17.3926 6.2135L18.0657 6.46843L18.2861 5.7832Z" fill="white"/>
<path d="M21.8408 9.05078L22.0612 9.736L22.7343 9.48108L22.336 10.0806L22.955 10.4479L22.2379 10.5103L22.3366 11.2233L21.8408 10.7016L21.3449 11.2233L21.4436 10.5103L20.7266 10.4479L21.3456 10.0806L20.9472 9.48108L21.6204 9.736L21.8408 9.05078Z" fill="white"/>
<path d="M19.884 12.2598L20.0582 12.6867L20.5181 12.7204L20.1658 13.018L20.2759 13.4658L19.884 13.2227L19.4922 13.4658L19.6022 13.018L19.25 12.7204L19.7099 12.6867L19.884 12.2598Z" fill="white"/>
</svg>
