<svg width="24" height="24" viewBox="0 0 24 24" fill="none" xmlns="http://www.w3.org/2000/svg">
<g clip-path="url(#clip0_358_3373)">
<path d="M30.1263 0H-6V24H30.1263V0Z" fill="#509E2F"/>
<path d="M30.1263 0H-6V16H30.1263V0Z" fill="#EF3340"/>
<path d="M30.1263 0H-6V8H30.1263V0Z" fill="#00B5E2"/>
<path d="M11.1664 15.6316C13.1546 15.6316 14.7664 14.0199 14.7664 12.0316C14.7664 10.0434 13.1546 8.43164 11.1664 8.43164C9.17818 8.43164 7.56641 10.0434 7.56641 12.0316C7.56641 14.0199 9.17818 15.6316 11.1664 15.6316Z" fill="white"/>
<path d="M11.9688 15.0312C13.6256 15.0312 14.9688 13.6881 14.9688 12.0312C14.9688 10.3744 13.6256 9.03125 11.9688 9.03125C10.3119 9.03125 8.96875 10.3744 8.96875 12.0312C8.96875 13.6881 10.3119 15.0312 11.9688 15.0312Z" fill="#EF3340"/>
<path d="M15.168 10.0312L15.5506 11.1074L16.5822 10.6171L16.0918 11.6486L17.168 12.0313L16.0918 12.4139L16.5822 13.4454L15.5506 12.9551L15.168 14.0312L14.7853 12.9551L13.7538 13.4454L14.2441 12.4139L13.168 12.0313L14.2441 11.6486L13.7538 10.6171L14.7853 11.1074L15.168 10.0312Z" fill="white"/>
</g>
<defs>
<clipPath id="clip0_358_3373">
<rect width="24" height="24" rx="12" fill="white"/>
</clipPath>
</defs>
</svg>
