<svg width="24" height="24" viewBox="0 0 24 24" fill="none" xmlns="http://www.w3.org/2000/svg">
<g clip-path="url(#clip0_358_460)">
<path d="M27.2168 0.400391H-4.80078L-4.20078 28.2005L27.2168 21.6005V0.400391Z" fill="#002395"/>
<path d="M1.27734 0.399903L29.7 -6L22.4774 21.6L1.27734 0.399903Z" fill="#FECB00"/>
<path d="M-1.07306 4.44221L0.110749 0.798828L1.29455 4.44221L-1.80469 2.19047H2.02619L-1.07306 4.44221Z" fill="white"/>
<path d="M1.57929 7.0926L2.76309 3.44922L3.9469 7.0926L0.847656 4.84086H4.67853L1.57929 7.0926Z" fill="white"/>
<path d="M4.22772 9.74103L5.41153 6.09766L6.59534 9.74103L3.49609 7.4893H7.32697L4.22772 9.74103Z" fill="white"/>
<path d="M6.87616 12.3914L8.05997 8.74805L9.24377 12.3914L6.14453 10.1397H9.9754L6.87616 12.3914Z" fill="white"/>
<path d="M9.52851 15.0418L10.7123 11.3984L11.8961 15.0418L8.79688 12.7901H12.6277L9.52851 15.0418Z" fill="white"/>
<path d="M12.1769 17.6903L13.3607 14.0469L14.5446 17.6903L11.4453 15.4385H15.2762L12.1769 17.6903Z" fill="white"/>
<path d="M14.8254 20.3406L16.0092 16.6973L17.193 20.3406L14.0938 18.0889H17.9246L14.8254 20.3406Z" fill="white"/>
<path d="M17.4777 22.991L18.6615 19.3477L19.8453 22.991L16.7461 20.7393H20.577L17.4777 22.991Z" fill="white"/>
</g>
<defs>
<clipPath id="clip0_358_460">
<rect width="24" height="24" rx="12" fill="white"/>
</clipPath>
</defs>
</svg>
