<svg width="24" height="24" viewBox="0 0 24 24" fill="none" xmlns="http://www.w3.org/2000/svg">
<g clip-path="url(#clip0_358_5732)">
<path d="M24 -2.40039H0V28.7996H24V-2.40039Z" fill="#00267F"/>
<path d="M16.2008 -4.19922H7.80078V30.0008H16.2008V-4.19922Z" fill="#FFC726"/>
<path d="M12.0009 8.32422C11.7409 9.03322 11.4759 9.77122 10.9089 10.3362C11.0849 10.2782 11.3929 10.2262 11.5909 10.2312V13.2132L10.7489 13.3382C10.7189 13.3352 10.7089 13.2882 10.7089 13.2242C10.6279 12.2982 10.4089 11.5202 10.1569 10.7152C10.1389 10.6052 9.81989 10.1852 10.0659 10.2592C10.0959 10.2632 10.4249 10.3972 10.3729 10.3332C9.92489 9.86922 9.26989 9.53522 8.63389 9.43622C8.57789 9.42222 8.54489 9.45022 8.59489 9.51522C9.43889 10.8142 10.1449 12.3472 10.1389 14.1662C10.4669 14.1662 11.2619 13.9722 11.5909 13.9722V16.0762H12.0059L12.1009 10.2002L12.0009 8.32422Z" fill="black"/>
<path d="M11.9991 8.32422C12.2591 9.03322 12.5241 9.77122 13.0911 10.3362C12.9151 10.2782 12.6071 10.2262 12.4091 10.2312V13.2132L13.2511 13.3382C13.2811 13.3352 13.2911 13.2882 13.2911 13.2242C13.3721 12.2982 13.5911 11.5202 13.8431 10.7152C13.8611 10.6052 14.1801 10.1852 13.9341 10.2592C13.9041 10.2632 13.5751 10.3972 13.6271 10.3332C14.0751 9.86922 14.7301 9.53522 15.3661 9.43622C15.4221 9.42222 15.4551 9.45022 15.4051 9.51522C14.5611 10.8142 13.8551 12.3472 13.8611 14.1662C13.5331 14.1662 12.7381 13.9722 12.4091 13.9722V16.0762H11.9941L11.8991 10.2002L11.9991 8.32422Z" fill="black"/>
</g>
<defs>
<clipPath id="clip0_358_5732">
<rect width="24" height="24" rx="12" fill="white"/>
</clipPath>
</defs>
</svg>
