<svg width="24" height="24" viewBox="0 0 24 24" fill="none" xmlns="http://www.w3.org/2000/svg">
<g clip-path="url(#clip0_358_14241)">
<path d="M30 0H-6V24H30V0Z" fill="#009E49"/>
<path d="M30 0H-6V12H30V0Z" fill="#EF2B2D"/>
<path d="M11.9883 8L10.7522 11.8042L12.6543 12.4223" fill="#FCD116"/>
<path d="M11.9883 8L13.2243 11.8042L11.3222 12.4223" fill="#FCD116"/>
<path d="M15.8047 10.7637H11.8047V12.7637" fill="#FCD116"/>
<path d="M15.8047 10.7637L12.5686 13.1148L11.393 11.4968" fill="#FCD116"/>
<path d="M14.3516 15.2363L13.1155 11.4321L11.2134 12.0501" fill="#FCD116"/>
<path d="M14.3516 15.2363L11.1155 12.8852L12.2911 11.2672" fill="#FCD116"/>
<path d="M9.64844 15.2363L12.8845 12.8852L11.7089 11.2672" fill="#FCD116"/>
<path d="M9.64844 15.2363L10.8845 11.4321L12.7866 12.0501" fill="#FCD116"/>
<path d="M8.19531 10.7637L11.4314 13.1148L12.607 11.4968" fill="#FCD116"/>
<path d="M8.19531 10.7637H12.1953V12.7637" fill="#FCD116"/>
</g>
<defs>
<clipPath id="clip0_358_14241">
<rect width="24" height="24" rx="12" fill="white"/>
</clipPath>
</defs>
</svg>
