<svg width="24" height="24" viewBox="0 0 24 24" fill="none" xmlns="http://www.w3.org/2000/svg">
<g clip-path="url(#clip0_358_14260)">
<path d="M-6 0H30.0096V24H-6V0Z" fill="#C8102E"/>
<mask id="mask0_358_14260" style="mask-type:luminance" maskUnits="userSpaceOnUse" x="-6" y="0" width="37" height="24">
<path d="M-6 0H30.0096V24H-6V0Z" fill="white"/>
</mask>
<g mask="url(#mask0_358_14260)">
<path d="M-7.80078 -1.19922V25.2008L31.8098 -1.19922V25.2008L-7.80078 -1.19922Z" fill="#43B02A" stroke="white" stroke-width="5.06032"/>
</g>
<path d="M11.9562 18.8266C15.7118 18.8266 18.7562 15.7821 18.7562 12.0266C18.7562 8.27103 15.7118 5.22656 11.9562 5.22656C8.20071 5.22656 5.15625 8.27103 5.15625 12.0266C5.15625 15.7821 8.20071 18.8266 11.9562 18.8266Z" fill="white"/>
<path d="M11.9952 7.24414L12.4156 7.97214H13.256L12.836 8.70014L13.256 9.42814H12.4156L11.9952 10.1561L11.5748 9.42814H10.7344L11.1544 8.70014L10.7344 7.97214H11.5748L11.9952 7.24414Z" fill="#C8102E" stroke="#43B02A" stroke-width="0.24"/>
<path d="M16.3032 14.7071L15.4625 14.7072L15.0423 15.435L14.6219 14.7073L13.7814 14.707L14.2016 13.9792L13.7813 13.2511L14.622 13.251L15.0422 12.5232L15.4627 13.251L16.3031 13.2512L15.8829 13.979L16.3032 14.7071Z" fill="#C8102E" stroke="#43B02A" stroke-width="0.24"/>
<path d="M7.6821 14.7069L8.10237 13.9789L7.68217 13.2511L8.52263 13.2508L8.9431 12.5231L9.3633 13.2509L10.204 13.2509L9.7837 13.979L10.2039 14.7068L9.36343 14.7071L8.94297 15.4348L8.52277 14.707L7.6821 14.7069Z" fill="#C8102E" stroke="#43B02A" stroke-width="0.24"/>
</g>
<defs>
<clipPath id="clip0_358_14260">
<rect width="24" height="24" rx="12" fill="white"/>
</clipPath>
</defs>
</svg>
