<svg width="24" height="24" viewBox="0 0 24 24" fill="none" xmlns="http://www.w3.org/2000/svg">
<g clip-path="url(#clip0_358_3455)">
<path d="M1.20078 -5.69922L25.8008 3.00078V21.0008H-1.19922L1.20078 -5.69922Z" fill="#FFD520"/>
<path d="M-1.19922 21L22.8008 28.5L25.8008 3L-1.19922 21Z" fill="#FF4E12"/>
<path d="M13.2533 8.62768C13.1037 8.57458 13.007 8.65183 13.0119 8.845C13.0167 9.0382 13.1182 9.14926 13.2678 9.07681L13.2533 8.62771V8.62768Z" fill="white" stroke="black" stroke-width="0.02605"/>
<path d="M13.3821 8.26643C13.2575 8.16803 13.1412 8.21021 13.0837 8.39471C13.0262 8.57918 13.0866 8.71697 13.2516 8.69645L13.3821 8.26646V8.26643Z" fill="white" stroke="black" stroke-width="0.02605"/>
<path d="M13.5906 7.91649C13.4832 7.79934 13.3617 7.82235 13.2753 7.99524C13.1891 8.16813 13.2266 8.31378 13.3929 8.31999L13.5906 7.91649ZM13.4544 9.61839C13.2709 9.68601 13.2515 9.93714 13.3675 10.0917C13.4834 10.2462 13.6959 10.2752 13.8117 10.0917L13.4544 9.61827L13.4544 9.61839Z" fill="white" stroke="black" stroke-width="0.02605"/>
<path d="M13.2434 9.0871C13.0695 9.02914 12.9129 9.26269 12.886 9.47344C12.8522 9.73906 12.4755 9.82597 12.6833 10.2268C12.7266 9.97087 12.8957 9.83083 13.0309 9.82117C13.1661 9.81151 13.369 9.78253 13.4559 9.61834L13.2434 9.0871ZM13.7939 10.1206C13.591 10.1689 13.562 10.4394 13.7069 10.6325C13.8309 10.7979 14.2188 10.7581 14.2091 10.5939L13.7939 10.1206ZM14.3687 11.7481C14.3783 11.5743 14.0983 11.5066 13.9631 11.5404C13.8278 11.5743 13.5694 11.5356 13.5091 11.3907C13.4608 11.5066 13.5308 11.6322 13.7264 11.695C13.8744 11.7425 13.8713 11.8495 13.8278 11.8978C13.9389 11.9172 14.2673 11.9172 14.3687 11.7481V11.7481Z" fill="white" stroke="black" stroke-width="0.02605"/>
<path d="M14.2071 10.6373C14.0091 10.5504 13.8917 10.6828 13.816 10.8111C13.7049 10.9995 13.362 10.758 13.2461 11.0091C13.4031 10.9415 13.5628 11.0857 13.6372 11.1347C13.8497 11.2747 14.2602 11.2313 14.3182 10.9029L14.2071 10.6373Z" fill="white" stroke="black" stroke-width="0.02605"/>
<path d="M14.3244 10.8691C14.1264 11.0188 14.0492 11.1975 14.0541 11.3183C14.0589 11.439 14.2279 11.7046 14.4115 11.7191C14.5177 11.5018 14.5708 11.043 14.3245 10.8691H14.3244ZM13.5036 11.8012C13.5036 11.7288 13.6099 11.6998 13.6822 11.724C13.7548 11.7481 13.8658 11.8206 13.8271 11.8978L13.5036 11.8012ZM12.4119 11.4052C12.3927 11.3183 12.5327 11.1686 12.721 11.2507C12.9093 11.3328 12.9335 11.4922 12.8562 11.555L12.4119 11.4053V11.4052Z" fill="white" stroke="black" stroke-width="0.02605"/>
<path d="M12.8705 11.5649C12.856 11.5166 12.9916 11.4202 13.2232 11.478C13.4549 11.536 13.5118 11.6852 13.5033 11.8016L12.8705 11.5649ZM12.3878 11.4056C12.5086 11.3139 12.4628 11.14 12.3539 11.0869C12.1559 10.9903 12.2284 10.7392 12.1028 10.6909C11.9773 10.6426 11.8566 10.5557 11.8517 10.4688C11.789 10.5895 11.8276 10.7006 11.9146 10.7778C12.0015 10.8551 11.847 11.169 11.958 11.2511L12.3878 11.4056ZM9.79914 11.3381C9.69774 11.1788 9.45624 11.2078 9.35484 11.3188C9.25344 11.4299 9.26793 11.5941 9.3645 11.6665L9.79914 11.3381ZM10.3787 11.1015C10.3401 10.889 10.0841 10.8648 9.9441 10.9179C9.80406 10.971 9.70746 11.1836 9.7992 11.3381L10.3788 11.1015H10.3787Z" fill="white" stroke="black" stroke-width="0.02605"/>
<path d="M10.7645 11.0716C10.8562 10.8929 10.6776 10.6273 10.4747 10.5886C10.3054 10.5564 10.1053 10.5572 10.0401 10.3906C9.99903 10.5355 10.1077 10.6273 10.2333 10.7094C10.3588 10.7915 10.2091 11.004 10.4119 11.1247L10.7645 11.0716L10.7645 11.0716Z" fill="white" stroke="black" stroke-width="0.02605"/>
<path d="M10.745 11.078C10.7028 10.95 10.7885 10.7797 10.962 10.7916C11.1355 10.8036 11.2344 10.9296 11.1579 11.0873L10.745 11.078H10.745Z" fill="white" stroke="black" stroke-width="0.02605"/>
<path d="M11.1322 11.0884C11.1083 10.9557 11.2171 10.7992 11.3872 10.8354C11.5573 10.8715 11.6375 11.0103 11.5397 11.1556L11.1322 11.0884Z" fill="white" stroke="black" stroke-width="0.02605"/>
<path d="M11.5159 11.1484C11.4987 11.0147 11.6152 10.8638 11.7833 10.9084C11.9515 10.953 12.0246 11.0956 11.9196 11.2358L11.5159 11.1484ZM8.60175 13.3609C8.27817 13.3609 8.19915 13.4379 8.15262 13.7714C8.09466 14.1867 8.65971 14.235 8.60175 13.3609Z" fill="white" stroke="black" stroke-width="0.02605"/>
<path d="M8.74607 12.9258C8.24864 12.7374 7.97822 13.5246 7.48562 13.3846C7.66187 13.6647 8.08916 13.3851 8.24864 13.4135C8.51909 13.4618 9.10343 13.3604 8.74607 12.9258ZM8.42237 14.0028C8.17607 13.8917 7.91045 14.2684 7.95875 14.4326C8.02007 14.6411 8.58173 14.4712 8.42237 14.0028ZM7.27307 15.6255C7.40831 15.664 7.57247 15.7413 7.54352 16.0021C7.51454 16.2628 7.02197 16.7941 6.57767 16.8231C6.13337 16.8521 5.97398 17.3881 5.59247 17.2384C5.94983 17.1709 5.94983 16.7651 6.22994 16.6396C6.02708 16.5671 5.92085 17.026 5.66009 17.026C5.3993 17.026 5.27375 17.4412 4.955 17.4122C4.63625 17.3833 4.60271 17.9179 3.965 17.9242C3.4772 17.929 2.87357 18.4989 2.65625 18.2526C3.12953 18.185 3.32051 17.9227 3.60281 17.6344C4.05677 17.1709 4.56869 17.3785 4.74251 16.968C4.53485 17.108 4.29341 17.1756 4.05677 17.1709C3.75971 17.1647 3.43379 17.6441 3.10055 17.4316C3.29372 17.4075 3.4193 17.3254 3.62213 17.1129C3.82982 16.8952 4.13462 17.0359 4.37552 16.8135C4.7522 16.4657 5.07578 16.7555 5.43797 16.3209C5.33654 16.2726 5.11922 16.3064 4.91639 16.4126C4.71353 16.5189 4.45277 16.3401 4.22096 16.4657C4.24991 16.1809 4.79081 16.3439 5.12888 16.147C5.51042 15.9249 5.82674 15.99 6.12857 16.0166C5.70842 16.0142 5.54423 15.6157 4.96472 15.7316C4.71197 15.7822 4.51076 15.384 4.25963 15.5867C4.26683 15.4371 4.53008 15.3163 4.80053 15.4612C5.07095 15.6061 5.17997 15.3345 5.71811 15.6737C5.94026 15.8137 6.32177 15.5867 6.56321 15.7365C6.53183 15.6448 6.39419 15.5867 6.23243 15.5989C6.33383 15.3913 6.98822 15.4177 7.27313 15.6255L7.27307 15.6255Z" fill="white" stroke="black" stroke-width="0.02605"/>
<path d="M7.70211 15.3114C7.48962 15.1472 7.19502 15.3452 6.99219 15.2679C6.99219 15.4031 7.05981 15.606 7.28196 15.6833C7.34958 15.635 7.65381 15.3694 7.70211 15.3114Z" fill="white" stroke="black" stroke-width="0.02605"/>
<path d="M8.03477 14.8432C7.70153 14.6742 7.6436 15.0943 7.38281 15.0074C7.39247 15.1282 7.48907 15.2779 7.70156 15.3117L8.03477 14.8432Z" fill="white" stroke="black" stroke-width="0.02605"/>
<path d="M8.23575 14.4629C7.74315 14.2697 7.68037 14.743 7.39062 14.6513C7.45825 14.8155 7.87357 14.9024 8.08606 14.8445L8.23575 14.4629ZM8.91165 12.3911C8.78124 12.2076 8.506 12.3573 8.46253 12.5746C8.41906 12.792 8.52529 13.0962 8.70883 13.0286L8.91165 12.3911Z" fill="white" stroke="black" stroke-width="0.02605"/>
<path d="M9.2431 11.8109C9.01612 11.7578 8.75533 11.7819 8.78431 12.0041C8.69737 12.0427 8.67322 12.3276 8.90986 12.3904L9.2431 11.8109V11.8109Z" fill="white" stroke="black" stroke-width="0.02605"/>
<path d="M9.39385 11.6618C9.1717 11.401 8.92396 11.4071 8.78536 11.5169C8.5294 11.7197 8.28067 11.6038 8.27344 11.8067C8.428 11.6883 8.56321 11.8308 8.68876 11.7873C8.81431 11.7439 8.90608 11.9853 9.25381 11.8839L9.39385 11.6618ZM8.85775 15.5594C8.89156 15.6221 9.09922 15.6511 9.20065 15.5449C9.33505 15.404 9.18616 15.0136 8.97367 14.9846C8.76118 14.9556 8.74186 15.4241 8.85775 15.5594Z" fill="white" stroke="black" stroke-width="0.02605"/>
<path d="M8.61719 15.569C8.92142 15.68 9.05183 15.4289 8.88764 15.2695C8.84414 15.3226 8.68478 15.5158 8.61719 15.569Z" fill="white" stroke="black" stroke-width="0.02605"/>
<path d="M7.47822 15.9838C7.42026 16.1577 7.12083 16.1867 6.78279 16.7276C6.44472 17.2684 6.12117 17.0414 6.03906 17.4133C6.44472 17.0849 6.76332 17.303 7.00491 16.9787C7.37196 16.486 7.67418 16.5568 7.81626 16.2253C8.01906 15.752 8.90769 15.7616 8.95599 15.0179C8.65659 14.96 7.71 15.7616 7.47822 15.9838V15.9838ZM15.0991 8.6818C15.4855 8.80735 15.4951 9.30961 15.9394 9.4738C16.3838 9.63799 16.4273 10.034 16.7894 9.93742C16.4513 9.84565 16.4755 9.45448 16.123 9.35788C15.7095 9.2446 15.5531 8.61415 15.2246 8.51758M16.8715 11.3041C16.9391 11.4586 16.9295 11.7339 16.688 11.8064C16.8184 11.8885 17.0115 11.8112 17.1178 11.6325C16.9584 11.985 17.0647 12.3038 17.3158 12.3666C17.195 12.1203 17.4655 12.0044 17.3786 11.845C17.538 11.9126 17.678 12.1299 17.6732 12.2651C17.8809 12.0333 17.5187 11.7242 17.5863 11.507L16.8715 11.3041V11.3041ZM14.3698 13.7863C14.1332 13.5786 14.0322 13.8406 13.9158 13.7501C13.8072 13.6655 13.6623 13.6535 13.6068 13.738C13.8097 13.7453 13.7106 13.9022 14.1042 13.9408C13.7106 13.9674 13.7831 14.4069 13.5198 14.3851C13.8 14.6507 13.9448 14.1485 14.1718 14.2306C14.1042 14.2499 14.2781 14.4093 14.1573 14.6218C14.3529 14.617 14.4326 14.3465 14.4568 14.2064L14.3698 13.7863ZM9.15882 16.0417C9.07188 15.9693 8.82075 15.9354 8.72418 15.9935C8.62758 16.0513 8.66142 16.0658 8.77728 16.0756C8.89323 16.0852 9.04287 16.2727 8.7918 16.2832C8.67588 16.2879 8.71452 16.5681 8.47305 16.5875C8.57205 16.7082 8.85459 16.6285 8.95599 16.4957C8.93667 16.6043 9.08154 16.7033 9.02361 16.8337C9.20229 16.8531 9.09846 16.4716 9.381 16.4908C9.26508 16.5053 9.31338 16.7661 9.51621 16.6985C9.39546 16.7565 9.45825 16.8965 9.59346 16.8627C9.50655 16.8917 9.47757 17.0027 9.59829 17.0656C9.71421 16.9062 9.5838 16.3364 9.15882 16.0417V16.0417ZM19.6774 10.7131C20.0471 10.7131 20.3467 10.4134 20.3467 10.0437C20.3467 9.67414 20.047 9.37444 19.6774 9.37444C19.3077 9.37444 19.008 9.67414 19.008 10.0437C19.008 10.4134 19.3077 10.7131 19.6774 10.7131Z" fill="white"/>
<path d="M15.0991 8.6818C15.4855 8.80735 15.4951 9.30961 15.9394 9.4738C16.3838 9.63799 16.4273 10.034 16.7894 9.93742C16.4513 9.84565 16.4755 9.45448 16.123 9.35788C15.7095 9.2446 15.5531 8.61415 15.2246 8.51758M7.47822 15.9838C7.42026 16.1577 7.12083 16.1867 6.78279 16.7276C6.44472 17.2684 6.12117 17.0414 6.03906 17.4133C6.44472 17.0849 6.76332 17.303 7.00491 16.9787C7.37196 16.486 7.67418 16.5568 7.81626 16.2253C8.01906 15.752 8.90769 15.7616 8.95599 15.0179C8.65659 14.96 7.71 15.7616 7.47822 15.9838V15.9838ZM16.8715 11.3041C16.9391 11.4586 16.9295 11.7339 16.688 11.8064C16.8184 11.8885 17.0115 11.8112 17.1178 11.6325C16.9584 11.985 17.0647 12.3038 17.3158 12.3666C17.195 12.1203 17.4655 12.0044 17.3786 11.845C17.538 11.9126 17.678 12.1299 17.6732 12.2651C17.8809 12.0333 17.5187 11.7242 17.5863 11.507L16.8715 11.3041V11.3041ZM14.3698 13.7863C14.1332 13.5786 14.0322 13.8406 13.9158 13.7501C13.8072 13.6655 13.6623 13.6535 13.6068 13.738C13.8097 13.7453 13.7106 13.9022 14.1042 13.9408C13.7106 13.9674 13.7831 14.4069 13.5198 14.3851C13.8 14.6507 13.9448 14.1485 14.1718 14.2306C14.1042 14.2499 14.2781 14.4093 14.1573 14.6218C14.3529 14.617 14.4326 14.3465 14.4568 14.2064L14.3698 13.7863ZM9.15882 16.0417C9.07188 15.9693 8.82075 15.9354 8.72418 15.9935C8.62758 16.0513 8.66142 16.0658 8.77728 16.0756C8.89323 16.0852 9.04287 16.2727 8.7918 16.2832C8.67588 16.2879 8.71452 16.5681 8.47305 16.5875C8.57205 16.7082 8.85459 16.6285 8.95599 16.4957C8.93667 16.6043 9.08154 16.7033 9.02361 16.8337C9.20229 16.8531 9.09846 16.4716 9.381 16.4908C9.26508 16.5053 9.31338 16.7661 9.51621 16.6985C9.39546 16.7565 9.45825 16.8965 9.59346 16.8627C9.50655 16.8917 9.47757 17.0027 9.59829 17.0656C9.71421 16.9062 9.5838 16.3364 9.15882 16.0417V16.0417ZM19.6774 10.7131C20.0471 10.7131 20.3467 10.4134 20.3467 10.0437C20.3467 9.67414 20.047 9.37444 19.6774 9.37444C19.3077 9.37444 19.008 9.67414 19.008 10.0437C19.008 10.4134 19.3077 10.7131 19.6774 10.7131Z" stroke="black" stroke-width="0.02605"/>
<path d="M16.1768 11.5208C16.3797 11.3276 16.6888 11.2311 16.9012 11.3759C17.1137 11.5208 17.8188 11.6947 18.1666 11.4532C18.5142 11.2117 18.6784 11.0862 18.8329 11.1151C18.949 11.289 19.0889 11.3711 19.2628 11.3856C19.3159 11.4435 19.5043 11.4918 19.6106 11.4773C19.7651 11.516 19.9534 11.4677 20.1031 11.3035C20.335 11.3373 20.5522 11.1634 20.6343 10.9027C20.8806 10.8737 20.8951 10.5984 20.7406 10.4149C20.5957 10.3859 20.7068 9.89812 20.1803 9.99472C20.4026 10.13 20.2334 10.4004 20.4171 10.526C20.2915 10.526 20.1297 10.5791 20.0911 10.7675C20.1393 10.6371 20.0838 10.5501 20.05 10.5212C20.0548 10.4101 19.8086 10.1372 19.5767 10.2362C19.7433 10.2724 19.6492 10.5405 19.7699 10.6419C19.6829 10.6467 19.5912 10.6902 19.5381 10.7674C19.4753 10.6564 19.2532 10.5405 19.1179 10.5308C19.1179 10.4922 19.1107 10.4149 19.0938 10.3763C19.0334 10.2604 18.9827 10.1227 19.0068 9.94645C18.8909 10.072 18.7943 10.2459 18.7364 10.3714C18.553 10.2459 18.0989 10.4294 17.8864 10.4777C17.674 10.526 16.9592 10.4101 16.795 10.2362C16.6309 10.0623 16.3121 9.95611 16.0127 9.86917C15.601 9.74968 15.5973 9.29932 15.1433 8.99023C15.1337 9.55045 15.9837 11.3277 16.1768 11.5208H16.1768ZM11.444 15.7898C11.8014 15.7898 12.0911 15.5001 12.0911 15.1427C12.0911 14.7853 11.8014 14.4956 11.444 14.4956C11.0866 14.4956 10.7969 14.7853 10.7969 15.1427C10.7969 15.5001 11.0866 15.7898 11.444 15.7898Z" fill="white" stroke="black" stroke-width="0.02605"/>
<path d="M9.90049 15.2938C10.0309 15.4629 10.253 15.4533 10.3448 15.4387C10.4221 15.6415 10.6683 15.6367 10.7746 15.7477C10.8809 15.8589 11.243 15.8493 11.3492 15.7864C11.2527 15.7768 11.1272 15.7189 11.0064 15.6174C10.8607 15.495 10.9291 15.2504 10.8132 15.1635C10.9001 15.0669 10.9146 14.9075 10.8953 14.8447C10.9871 14.7916 11.0547 14.7046 11.0644 14.6612C11.2238 14.6515 11.3638 14.5694 11.4218 14.5067C11.5039 14.5839 11.7115 14.4825 11.8226 14.6129C11.8468 14.2941 11.5425 14.1251 11.3396 14.2314C11.2575 14.1879 11.0402 14.2169 11.0016 14.2749C10.934 14.2459 10.7456 14.3425 10.6587 14.4052C10.7553 14.3521 10.7698 14.1928 10.7311 14.1348C10.8132 14.101 10.905 13.9899 10.9146 13.9078C11.0306 13.9271 11.2044 13.8499 11.2816 13.8692C11.1561 13.705 10.9485 13.647 10.736 13.6615C10.5162 13.6736 10.4221 13.8281 10.3931 13.9948C10.2627 14.072 10.2192 14.3328 10.2675 14.4246C10.1927 14.4222 10.1226 14.4946 10.0937 14.5357C9.99229 14.4922 9.84739 14.4608 9.74356 14.4608M9.78949 14.1976C9.74602 14.0721 9.80359 13.9591 9.83296 13.8596C9.90781 13.6061 9.86194 13.5409 9.63496 13.5747C9.61564 13.6954 9.73156 14.0914 9.78949 14.1976Z" fill="white"/>
<path d="M9.90049 15.2938C10.0309 15.4629 10.253 15.4533 10.3448 15.4387C10.4221 15.6415 10.6683 15.6367 10.7746 15.7477C10.8809 15.8589 11.243 15.8493 11.3492 15.7864C11.2527 15.7768 11.1272 15.7189 11.0064 15.6174C10.8607 15.495 10.9291 15.2504 10.8132 15.1635C10.9001 15.0669 10.9146 14.9075 10.8953 14.8447C10.9871 14.7916 11.0547 14.7046 11.0644 14.6612C11.2238 14.6515 11.3638 14.5694 11.4218 14.5067C11.5039 14.5839 11.7115 14.4825 11.8226 14.6129C11.8468 14.2941 11.5425 14.1251 11.3396 14.2314C11.2575 14.1879 11.0402 14.2169 11.0016 14.2749C10.934 14.2459 10.7456 14.3425 10.6587 14.4052C10.7553 14.3521 10.7698 14.1928 10.7311 14.1348C10.8132 14.101 10.905 13.9899 10.9146 13.9078C11.0306 13.9271 11.2044 13.8499 11.2816 13.8692C11.1561 13.705 10.9485 13.647 10.736 13.6615C10.5162 13.6736 10.4221 13.8281 10.3931 13.9948C10.2627 14.072 10.2192 14.3328 10.2675 14.4246C10.1927 14.4222 10.1226 14.4946 10.0937 14.5357C9.99229 14.4922 9.84739 14.4608 9.74356 14.4608M9.78949 14.1976C9.74602 14.0721 9.80359 13.9591 9.83296 13.8596C9.90781 13.6061 9.86194 13.5409 9.63496 13.5747C9.61564 13.6954 9.73156 14.0914 9.78949 14.1976Z" stroke="black" stroke-width="0.02605"/>
<path d="M9.625 13.5886C9.68296 13.6466 9.88822 13.6731 9.90994 13.4896C9.9349 13.2789 9.84958 13.1974 9.66604 13.2795C9.65158 13.3278 9.63466 13.5258 9.625 13.5886Z" fill="white" stroke="black" stroke-width="0.02605"/>
<path d="M9.66797 13.2727C9.74525 13.3041 9.91187 13.3669 10.0036 13.1882C10.0806 13.0383 9.97946 12.9226 9.8201 12.9322C9.78146 12.9757 9.70421 13.1302 9.66797 13.2727Z" fill="white" stroke="black" stroke-width="0.02605"/>
<path d="M9.80859 12.9174C9.82791 12.9754 10.0259 13.1685 10.1708 13.0285C10.3157 12.8884 10.3157 12.6808 10.0983 12.6035C10.0404 12.6131 9.86652 12.816 9.80859 12.9174Z" fill="white" stroke="black" stroke-width="0.02605"/>
<path d="M10.0977 12.6028C10.1411 12.7235 10.2763 12.9312 10.5275 12.8346C10.7786 12.738 10.6724 12.4241 10.5564 12.3613C10.4888 12.3661 10.2135 12.4917 10.0977 12.6028Z" fill="white" stroke="black" stroke-width="0.02605"/>
<path d="M10.5559 12.3615C10.5366 12.4678 10.5559 12.7575 10.8988 12.7527C11.2416 12.7479 11.1451 12.347 11.0582 12.2891C10.9181 12.2891 10.6815 12.2939 10.5559 12.3615Z" fill="white" stroke="black" stroke-width="0.02605"/>
<path d="M11.073 12.3035C11.0344 12.3856 10.9473 12.926 11.6188 12.7768C11.7056 12.7574 11.9327 12.26 11.073 12.3035Z" fill="white" stroke="black" stroke-width="0.02605"/>
<path d="M11.4398 12.3516C11.3723 12.4192 11.5461 12.9649 12.0001 12.8732C12.4541 12.7814 12.0726 12.2647 11.4398 12.3516Z" fill="white" stroke="black" stroke-width="0.02605"/>
<path d="M11.8246 12.4336C11.7522 12.5833 11.861 13.0276 12.4211 13.0276C12.9287 13.0276 12.3945 12.4433 11.8246 12.4336Z" fill="white" stroke="black" stroke-width="0.02605"/>
<path d="M12.2677 12.5635C12.2314 12.6465 12.1869 13.1176 12.8472 13.1575C13.3254 13.1865 13.2095 12.5104 12.2677 12.5635Z" fill="white" stroke="black" stroke-width="0.02605"/>
<path d="M12.9754 12.7617C12.8934 12.9066 12.8064 13.2688 13.5308 13.2978C13.9949 13.3164 13.7095 12.7714 12.9754 12.7617Z" fill="white" stroke="black" stroke-width="0.02605"/>
<path d="M13.5809 12.8728C13.4746 13.0177 13.5529 13.3019 13.8223 13.3558C14.1604 13.4234 14.2086 13.1047 13.9769 12.9501C13.745 12.7956 13.5809 12.8728 13.5809 12.8728Z" fill="white" stroke="black" stroke-width="0.02605"/>
<path d="M13.9075 12.9414C13.8302 13.0766 13.8781 13.405 14.3904 13.405C14.4966 13.405 14.9024 12.9897 13.9075 12.9414ZM9.9427 19.2393C10.3576 19.2393 10.694 18.9029 10.694 18.488C10.694 18.0731 10.3576 17.7367 9.9427 17.7367C9.52777 17.7367 9.19141 18.0731 9.19141 18.488C9.19141 18.9029 9.52777 19.2393 9.9427 19.2393Z" fill="white" stroke="black" stroke-width="0.02605"/>
<path d="M15.455 8.31429C15.397 8.37225 15.2764 8.5461 15.2521 8.61369C15.001 9.36708 15.6713 9.92982 16.0635 10.7386C16.3726 11.3761 16.334 12.3806 15.851 13.018C15.6857 13.2361 15.7351 13.2982 15.5226 13.5203C15.4411 13.6055 15.3487 13.7135 15.3777 14.0226C15.513 13.9743 15.7061 14.0998 15.7447 14.2061C15.8413 14.1578 15.9766 14.1771 16.0248 14.2351C16.189 14.1578 16.3242 14.1964 16.4691 14.351C16.5947 14.3317 16.7299 14.351 16.8555 14.4862C16.9231 14.351 17.0583 14.3027 17.1548 14.3317C17.1452 14.1578 17.3191 14.0323 17.4736 14.0998C17.4253 13.868 17.6378 13.6942 17.8407 13.7618C18.0145 13.6266 18.3622 13.6169 18.5361 13.8197C18.227 13.7328 18.2367 14.0612 17.9758 14.0322C18.0435 14.2254 17.8696 14.3365 17.6958 14.3992C17.8068 14.3461 17.9276 14.2834 17.9662 14.3509C18.0628 14.2665 18.256 14.2978 18.3043 14.3413C18.4322 14.3003 18.5555 14.3317 18.6133 14.4862C18.7872 14.5924 18.9031 14.8629 18.7776 15.0657C18.739 14.8532 18.5941 14.8629 18.5361 14.776C18.4008 14.8243 18.2656 14.8243 18.227 14.7373C18.1497 14.8146 17.889 14.8822 17.7731 14.7663C17.7296 14.9401 17.5799 15.085 17.406 15.085C17.4543 15.2203 17.3191 15.4521 17.2128 15.568C17.3771 15.6549 17.3287 15.8481 17.2901 15.964C17.5412 16.0026 17.3287 16.2247 17.7633 16.3696C17.551 16.4372 17.1356 16.3696 17.0776 16.1089C16.8651 16.0993 16.7202 15.8867 16.7299 15.6645C16.5657 15.51 16.5416 15.2878 16.7686 15.1333C16.5753 15.1913 16.4691 14.8822 16.189 15.0078C16.0497 15.0702 15.682 14.9643 15.6868 14.8339C15.6288 14.9305 15.2763 14.8919 15.2279 14.7277C15.112 14.7904 14.8415 14.6842 14.8464 14.5248C14.6967 14.5924 14.4939 14.4717 14.5035 14.3172C14.3635 14.2978 14.349 14.1723 14.3587 14.0661C14.233 14.0081 14.2669 13.8874 14.3152 13.7425C14.2283 13.6459 14.2669 13.5107 14.3345 13.3851C14.2379 13.2885 14.2573 13.1726 14.2862 13.0374C13.8226 12.9988 13.2418 12.8869 11.9102 12.4772C9.90116 11.8591 9.36026 13.3078 9.80456 14.2158C10.3172 15.2634 9.7466 15.4908 9.92048 16.2732C10.104 16.3118 10.2006 16.4663 10.1909 16.6305C10.2995 16.6353 10.3768 16.7367 10.3382 16.9299C10.4299 16.913 10.5483 16.9395 10.6255 17.0168C10.6932 16.8913 10.9153 16.8623 11.0312 17.0072C11.2823 16.9878 11.4079 17.1907 11.3983 17.4418C11.5334 17.6833 11.4852 17.9779 11.3403 18.1662C11.3548 18.0648 11.3403 17.9199 11.3356 17.833C11.3266 17.6732 11.1037 17.6398 11.1278 17.5094C11.0119 17.519 10.9008 17.4563 10.8622 17.3694C10.7946 17.4273 10.698 17.4467 10.6159 17.4177C10.7463 17.4757 10.8477 17.7074 10.8091 17.8619C10.8767 17.9779 10.8622 18.1904 10.7801 18.2821C10.7415 18.4704 10.5966 18.538 10.4083 18.4559C10.5145 18.3884 10.5532 18.2677 10.5483 18.1661C10.4807 18.1083 10.4469 17.9971 10.4421 17.9295C10.2537 17.9585 9.99293 17.7991 9.94484 17.7361C9.52991 17.7361 9.19355 18.0725 9.19355 18.4875C9.17423 18.3329 8.97875 18.1807 9.0029 18.0503C8.88701 17.6929 9.0512 17.3596 9.52448 17.2921C9.46655 17.1569 9.66938 17.0167 9.5921 16.8623C9.4934 16.6649 9.31202 16.4083 9.0416 16.1089C9.20579 15.8287 9.15749 15.4521 9.06089 15.2203C8.9222 14.8874 8.79044 14.9692 8.29784 15.51C7.49504 16.3915 6.42404 16.1475 5.47748 16.727C5.22596 16.881 4.97525 16.9395 5.24567 16.6691C5.51612 16.3987 6.23087 16.1283 6.69446 15.8964C7.56266 15.4623 8.29781 14.7374 8.58758 13.3272C9.26849 10.0134 11.7748 11.1057 13.3588 11.7239C14.8459 12.3043 14.5758 10.9898 13.8224 10.1978C12.9169 9.24585 13.098 8.49789 13.523 7.89903C14.286 7.79277 15.7494 8.05839 15.4548 8.31438L15.455 8.31429Z" fill="white" stroke="black" stroke-width="0.02605"/>
<path d="M18.143 16.4559C18.5995 16.4559 18.9696 16.0859 18.9696 15.6294C18.9696 15.1728 18.5995 14.8027 18.143 14.8027C17.6865 14.8027 17.3164 15.1728 17.3164 15.6294C17.3164 16.0859 17.6865 16.4559 18.143 16.4559Z" fill="white" stroke="black" stroke-width="0.02605"/>
<path d="M14.99 8.35352C14.8065 9.16487 14.961 9.53189 15.2315 9.88925C15.7904 10.6279 16.236 12.3136 15.5985 13.4145" stroke="black" stroke-width="0.02605"/>
<path d="M15.9545 12.4622C16.0317 12.4333 16.1766 12.3415 16.2105 12.1821M16.0124 12.1097C16.0365 11.9697 16.2538 11.9093 16.2586 11.7596M16.0172 11.5637C16.0027 11.4188 16.2346 11.2885 16.2007 11.1436M15.8918 11.0423C15.8724 10.9602 16.0849 10.8057 16.027 10.6753M15.7325 10.5353C15.689 10.4436 15.8339 10.3373 15.7711 10.2407M15.5006 10.1294C15.4861 10.0667 15.5755 9.92904 15.5272 9.84696M15.2687 9.65154C15.2879 9.62739 15.3653 9.56943 15.3338 9.49701M15.1094 9.30144C15.1408 9.28452 15.2349 9.25554 15.2229 9.18555" stroke="black" stroke-width="0.02605" stroke-linecap="round"/>
<path d="M10.2759 18.4074C10.0827 18.3398 9.84127 18.4364 9.79297 18.6006M9.93781 18.7503C9.96196 18.5862 10.2131 18.5136 10.2903 18.5909C10.131 18.504 10.0537 18.813 10.1937 18.8228M11.493 14.9304C11.3771 14.9883 11.3434 15.2008 11.493 15.3603M11.6667 14.9787C11.5847 15.0463 11.5895 15.2491 11.7102 15.2974C11.6088 15.225 11.7102 15.0994 11.7827 15.0946C11.8551 15.0898 11.9033 15.1767 11.8165 15.2636M18.4521 15.4566C18.1817 15.3842 17.9644 15.6981 18.2106 15.9782C18.2059 15.7077 18.399 15.5291 18.6356 15.5773M18.5268 15.7644C18.4603 15.7644 18.4229 15.8164 18.4229 15.867C18.4229 15.9201 18.4688 15.9709 18.5437 15.9709C18.5921 15.9709 18.6307 15.9154 18.6307 15.8719M19.4805 9.83519C19.524 9.99938 19.751 10.067 19.9296 10.0284M19.9296 9.92219C19.7896 9.92702 19.6737 9.79664 19.6834 9.68555C19.6834 9.76766 19.8717 9.8063 19.9296 9.75317" stroke="black" stroke-width="0.02605" stroke-linecap="round" stroke-linejoin="round"/>
<path d="M10.3425 15.4378C10.3039 15.3412 10.4584 15.2446 10.4633 15.1528C10.4681 15.0611 10.6371 14.9886 10.811 15.1625M10.7289 14.134C10.6951 14.1485 10.6661 14.1678 10.6371 14.1775M11.0622 14.6602C11.0211 14.6626 10.9367 14.6578 10.8908 14.6264M10.8933 14.8438C10.8595 14.8607 10.7846 14.8897 10.7411 14.8994M9.2367 17.7607C9.23187 17.8477 9.31881 17.9732 9.36708 18.0118M9.6135 17.5531C9.5652 17.6255 9.53625 17.7511 9.5652 17.838M10.3329 17.8429C10.246 17.7849 10.3039 17.6352 10.2943 17.5386C10.2846 17.442 10.3957 17.2875 10.613 17.4179M9.5217 17.2924C9.60864 17.2779 9.70038 17.2827 9.75834 17.3068M10.6227 17.017C10.5841 17.0701 10.5744 17.1281 10.5696 17.1668M11.0283 17.0074C10.9607 17.0074 10.9028 17.0556 10.8738 17.104M10.0914 14.5348C10.1687 14.5614 10.3691 14.6845 10.3763 14.8125M10.9125 13.9069C10.6759 13.9021 10.5841 13.6606 10.7628 13.6606M11.3376 14.2303C11.2459 14.2689 11.2894 14.4283 11.4197 14.5056M10.7724 15.7468C10.7265 15.6889 10.7869 15.5199 10.9366 15.5706M11.1249 17.5096C11.1345 17.3624 11.3205 17.2754 11.3954 17.442M10.4391 17.9296C10.427 17.7678 10.5091 17.7147 10.5815 17.7051C10.654 17.6955 10.7579 17.7557 10.8062 17.862M9 18.0505C9.00966 17.9539 9.09177 17.8525 9.17868 17.867M17.8377 13.762C17.7748 13.8079 17.7338 14.0131 17.9728 14.0325M17.4708 14.1001C17.4708 14.1243 17.5022 14.1581 17.5216 14.1726M18.6105 14.4865C18.5477 14.4382 18.3859 14.6338 18.5333 14.7763M17.0748 16.1092C17.0386 15.9716 17.1665 15.9353 17.2873 15.9643M16.7658 15.1336C16.8382 15.0853 16.9107 15.0322 17.0024 15.0081M16.7271 15.6646C16.7271 15.5487 16.785 15.4522 16.8381 15.4232M17.1519 14.332C17.1423 14.472 17.2003 14.6073 17.2438 14.6797M18.3015 14.3416C18.2314 14.3634 18.1686 14.3899 18.1421 14.4479M18.2241 14.7376C18.258 14.7086 18.2966 14.6748 18.3135 14.6507M20.0496 10.5214C20.0496 10.6566 19.8806 10.7291 19.7696 10.6421M20.4168 10.5262C20.4916 10.5842 20.7499 10.5286 20.6896 10.3789M20.1027 11.3038C20.0496 11.2941 19.9578 11.2362 19.9192 11.1879M20.634 10.903C20.5471 10.9223 20.4891 10.903 20.4456 10.8837M19.2624 11.386C19.3106 11.386 19.4265 11.3667 19.5063 11.3256M19.1175 10.5313C19.0547 10.5241 19.0088 10.5361 18.9726 10.5603M20.0907 10.7677C20.0738 10.8281 20.0303 10.9222 19.9772 10.9633" stroke="black" stroke-width="0.02605" stroke-linecap="round"/>
<path d="M18.9531 10.9803C19.0739 10.9272 19.2236 11.3376 19.5134 11.1928M19.5375 10.7676C19.4989 10.8207 19.4748 10.9028 19.4699 10.9752" stroke="black" stroke-width="0.02605" stroke-linecap="round" stroke-linejoin="round"/>
<path d="M13.7625 10.14C13.8011 10.1352 13.8687 10.1207 13.8832 10.0724M8.79297 14.6361C8.93787 14.7183 9.03927 14.8583 8.97648 15.066M15.4332 9.69574C15.4767 9.72472 15.6409 9.72472 15.7327 9.69094M15.8487 9.79234C15.8438 9.85996 15.8632 10.1159 15.7328 10.169M15.7812 10.1352C15.9019 10.1739 16.1434 10.1594 16.2207 9.93724M16.0515 10.1253C16.1142 10.2219 16.1335 10.4103 15.9452 10.5117M16.0998 10.2849C16.2398 10.3332 16.5634 10.338 16.5295 10.0628M16.4187 10.2849C16.5153 10.4202 16.9403 10.5795 16.8727 10.2994M16.0275 10.6758C16.1916 10.7145 16.4235 10.6034 16.3269 10.3137M16.7904 10.4586C16.8145 10.5697 17.3554 10.6856 17.283 10.4345M17.1816 10.5795C17.2831 10.8114 17.8191 10.792 17.6501 10.4829M17.5632 10.7241C17.6694 10.8546 18.1428 10.7772 17.9544 10.4634M17.9493 10.7193C18.2439 10.9415 18.5868 10.6227 18.2149 10.3909M18.384 10.647C18.6448 10.8547 18.9636 10.478 18.7366 10.3718M16.3218 10.56C16.4039 10.5842 16.5778 10.5745 16.6164 10.4248M16.5513 10.5261C16.5417 10.7459 16.9112 10.8304 17.0053 10.5768M16.8822 10.7145C16.9498 10.8594 17.2733 10.9173 17.3264 10.7097M17.2734 10.8063C17.3265 10.9512 17.6066 10.9368 17.6839 10.787M17.5824 10.8837C17.6693 11.0721 18.0266 11.0721 18.1087 10.7968M18.0462 10.9173C18.1862 11.0043 18.4857 10.9704 18.4614 10.7M18.4035 10.8933C18.6111 11.0624 18.9057 10.8982 18.7609 10.6132M18.7464 11.1153C18.8575 11.096 18.9154 10.8739 18.7995 10.8159M16.1724 11.154C16.4041 11.0285 16.4476 10.816 16.2882 10.6083M16.3704 10.9416C16.5153 11.0286 16.7905 10.9368 16.8388 10.7243M16.5684 10.9656C16.6504 11.0719 16.6649 11.2023 16.5586 11.323M16.6359 11.1009C16.8918 10.9416 17.2105 11.2362 16.9739 11.4149M16.9305 11.0865C16.9885 11.0721 17.0899 10.9658 17.0995 10.8451M17.0463 11.1975C17.1525 11.0865 17.877 11.3135 17.4182 11.5452M17.3844 10.8933C17.5244 10.9464 17.5969 11.1445 17.3844 11.2121M17.568 11.3763C17.7225 11.217 18.2055 11.3184 18.0316 11.5212M17.9157 11.3133C18.0026 11.0187 18.5193 11.2023 18.3503 11.323M17.8095 11.0187C17.824 11.0767 17.8287 11.2216 17.7322 11.2989M18.2442 10.9608C18.2634 11.0091 18.2587 11.1009 18.2152 11.1588M18.5724 10.9656C18.6014 11.0187 18.6496 11.1202 18.5434 11.2023M14.4387 8.74414C14.4434 9.01939 14.5401 9.20293 14.9119 9.02908M14.5545 9.07264C14.371 9.31894 14.5786 9.58456 14.9408 9.31894M13.9893 9.19324C14.2404 9.46369 14.6895 9.26569 14.3998 8.85517M14.7042 9.42514C14.6558 9.69076 14.8732 9.74389 15.0518 9.62314M13.7673 9.23674C13.813 9.50377 14.086 9.71485 14.3516 9.55066M14.0958 9.60394C14.0958 9.98548 14.6222 10.0289 14.7429 9.63292M14.5545 9.87424C14.7235 10.2219 15.0905 10.0819 15.2112 9.86944M14.1825 9.31894C14.2501 9.48796 14.3854 9.67633 14.6992 9.53626M13.2168 9.23674C13.2603 9.37678 13.5114 9.54583 13.8011 9.35263M13.3953 9.41554C13.2406 9.64252 13.5498 9.85501 13.9216 9.51694M13.5789 9.69574C13.6416 10.0145 13.7671 10.2705 14.2211 9.85993M13.9941 10.0239C14.1583 10.2267 14.4094 10.3523 14.6461 10.0095" stroke="black" stroke-width="0.02605"/>
<path d="M14.8207 10.082C14.8062 10.3235 14.8544 10.4442 15.0428 10.4346C15.1913 10.427 15.3326 10.309 15.4147 10.1835M15.0091 10.4348C15.0042 10.7101 15.2215 10.9274 15.6272 10.6473M15.178 10.7582C15.1007 10.9659 15.3325 11.3039 15.7865 11.1301M14.2171 10.2077C14.1882 10.4734 14.4345 10.652 14.8305 10.3091M14.4103 10.5023C14.4248 10.7197 14.6711 10.9804 15.0333 10.6037M14.584 10.7777C14.555 11.1496 14.8979 11.2558 15.1876 10.9709M14.0674 10.5023C14.1446 10.5072 14.2074 10.4396 14.246 10.3912M14.2315 10.7726C14.2991 10.7871 14.4151 10.7243 14.4537 10.6471M14.4007 11.2121C14.4779 11.2942 14.7387 11.2363 14.7725 11.1252M14.6905 11.2073C14.8354 11.5454 15.2216 11.5309 15.381 11.1494M15.3085 11.2847C15.3809 11.4827 15.5645 11.6083 15.8639 11.5407M15.4534 11.4875C15.2844 11.7628 15.5065 12.0864 15.8831 11.7676M15.5452 11.8979C15.5259 12.0718 15.6853 12.2698 15.9026 12.2939M14.8303 11.3909C14.7723 11.7821 15.0524 11.9705 15.405 11.7628M14.4199 11.5793C14.5116 11.6518 14.6759 11.6614 14.8304 11.6035M15.0187 11.8304C14.9317 12.1588 15.2698 12.3955 15.5596 12.0284M14.5504 11.6324C14.5553 11.8015 14.7195 11.985 15.0044 11.9318M15.8011 12.2699C15.6078 12.4003 15.5692 12.6321 15.8397 12.7818M15.3277 12.2021C15.3374 12.4001 15.4292 12.5112 15.6464 12.5305M15.043 12.1007C14.7533 12.3664 15.0381 12.6754 15.381 12.4147M15.2458 12.4967C15.1492 12.801 15.5114 12.9845 15.7046 12.6754M14.647 11.8496C14.5407 12.149 14.676 12.3471 14.9222 12.3277M14.2654 11.7917C14.2799 11.9704 14.4344 12.0332 14.6083 11.9946M14.3764 11.9801C14.246 12.2312 14.444 12.3665 14.7049 12.2699M15.4969 12.83C15.4534 12.9894 15.4775 13.1053 15.7142 13.1584M15.5113 13.0571C15.2263 13.1875 15.2022 13.4628 15.4243 13.6415M15.2818 12.7505C15.1322 12.8858 15.161 13.12 15.3253 13.2117M14.0143 11.8691C13.85 12.0309 14.007 12.4776 14.3692 12.2338M14.956 12.434C14.7338 12.6175 14.8352 12.9508 15.2022 12.859M14.5888 12.2939C14.4729 12.6223 14.5841 12.7382 14.8448 12.7431" stroke="black" stroke-width="0.02605"/>
<path d="M13.7752 11.8548C13.5772 12.0045 13.6303 12.217 13.7173 12.3136C13.8042 12.4102 13.9684 12.3667 14.0215 12.2411M13.3597 11.7246C13.1376 12.0095 13.3597 12.3476 13.6737 12.2462M14.548 12.5697C14.321 12.6518 14.1479 12.8579 14.2871 13.0382C14.3693 13.1444 14.7266 13.1589 14.828 12.7484M14.1373 12.3039C14.0069 12.4922 14.0503 12.671 14.2918 12.7627M14.1229 12.6567C13.9828 12.734 13.891 12.8258 13.9249 12.9948M13.8091 12.3621C13.756 12.5891 13.8187 12.7292 13.9587 12.7967M13.8043 12.6324C13.5869 12.6179 13.4759 12.7097 13.5483 12.9222M13.5676 12.6855C13.3551 12.6082 13.3212 12.4247 13.413 12.2315M13.384 12.5166C13.1521 12.5263 13.0508 12.6422 13.0508 12.8015" stroke="black" stroke-width="0.02605"/>
<path d="M13.0693 11.6125C12.9004 11.6849 12.8472 11.9119 12.91 12.0374C12.9728 12.163 13.1708 12.1727 13.2916 12.0905M12.5962 11.434C12.4417 11.6078 12.6204 11.9459 12.8957 11.8638M12.2002 11.2987C12.0553 11.5015 12.2147 11.8396 12.5866 11.743M12.6058 12.6847C12.5672 12.4432 12.8183 12.2838 13.1275 12.5977M12.9778 12.1102C12.8861 12.1923 12.8427 12.3227 12.8571 12.4289M11.8042 11.1829C11.6449 11.4533 11.8381 11.6996 12.181 11.603M12.6976 11.854C12.4706 12.0809 12.5479 12.3079 12.7169 12.4383M12.5527 12.1198C12.2099 12.1246 12.1906 12.5206 12.4708 12.6462M12.292 11.7238C12.152 11.8204 12.1085 12.086 12.35 12.1922M12.2824 12.3178C12.1375 12.2501 11.9637 12.3323 11.9782 12.5013M12.0649 12.3226C11.9346 12.0135 11.5531 12.0666 11.587 12.3854M12.1711 11.941C12.0892 11.9555 11.9249 12.0037 11.8621 12.1293M11.8864 11.5933C11.7319 11.7671 11.8525 11.9748 11.9782 12.0182M11.4277 11.1055C11.3987 11.3131 11.4808 11.4146 11.7416 11.3952M11.5192 11.3713C11.4178 11.6224 11.553 11.7335 11.8138 11.719M11.5771 11.6803C11.4226 11.8638 11.5289 12.0618 11.6785 12.1439M11.5048 11.9122C11.2296 11.8784 11.1861 12.1971 11.2778 12.3468" stroke="black" stroke-width="0.02605"/>
<path d="M11.2795 11.082C11.1106 11.1545 11.014 11.367 11.1057 11.4974C11.1975 11.6277 11.381 11.5843 11.4824 11.5167M11.1637 11.5551C11.0237 11.7676 11.1492 11.927 11.299 11.9898" stroke="black" stroke-width="0.02605"/>
<path d="M10.6237 11.0566C10.5126 11.1725 10.5802 11.4092 10.8506 11.414C11.0684 11.4179 11.179 11.2112 11.1114 11.0663M10.8121 11.4139C10.7251 11.6071 10.7782 11.8148 11.1067 11.781M11.2468 12.0853C11.044 11.9936 10.7735 12.0853 10.8894 12.3268M10.8604 11.7424C10.7782 11.8583 10.8073 12.0226 10.899 12.124M10.846 12.0514C10.7107 12.0756 10.5803 12.148 10.6624 12.3605M10.6429 12.1867C10.469 12.1336 10.2469 12.2592 10.3821 12.4378M10.3534 12.2689C10.2037 12.2448 10.025 12.4042 10.1698 12.5635M10.1119 12.433C9.97662 12.4669 9.81726 12.6214 9.9573 12.7421M10.7929 11.6749C10.5997 11.7619 10.5804 11.9792 10.6721 12.1386M10.5898 11.2741C10.3 11.3852 10.3048 11.7716 10.6236 11.8923M10.4884 11.8051C10.3145 11.9065 10.2807 12.0997 10.3966 12.2253M10.1842 11.1292C10.0682 11.1679 10.0779 11.5252 10.387 11.5156M9.86556 11.2498C9.63375 11.4044 9.91386 11.7955 10.2905 11.5155M10.0828 11.6119C10.0489 11.7713 10.0924 11.9452 10.3484 11.9645M10.0972 11.8246C9.91365 11.8922 9.87984 12.2689 10.213 12.2979M9.51306 11.4817C9.27642 11.6991 9.70626 11.8874 9.86562 11.5735M9.18456 11.8438C9.06864 11.9839 9.4743 12.3509 9.65301 11.7376M9.69636 11.728C9.70602 11.8729 9.79296 11.9599 9.97161 11.9695M9.96696 12.1096C9.68202 12.1531 9.59028 12.5105 9.909 12.5878M9.44046 12.0613C9.4308 12.1966 9.57084 12.3076 9.73023 12.2835M9.87516 12.5779C9.61437 12.6359 9.58056 12.9739 9.8124 12.9546M9.69156 13.2685C9.47421 13.2034 9.46941 12.945 9.66258 12.8484" stroke="black" stroke-width="0.02605"/>
<path d="M9.51219 13.0431C9.32868 13.1542 9.40113 13.4198 9.4977 13.4584C9.5943 13.497 9.67155 13.4487 9.68124 13.3667M9.66669 13.7385C9.68601 13.864 9.21996 13.8158 9.45903 13.4246M9.45639 13.7604C9.29946 14.0067 9.55539 14.2071 9.71718 13.997M9.47829 14.0574C9.4155 14.2554 9.65454 14.3979 9.80907 14.2433M8.95659 12.2028C8.86965 12.3815 9.30429 12.4491 9.33327 12.082M8.83599 12.4686C8.74908 12.8163 9.40584 12.7439 9.23682 12.2947M9.25119 12.5265C9.34293 12.5796 9.61824 12.5844 9.68583 12.2898M9.48789 12.5361C9.50721 12.6278 9.58929 12.7389 9.66657 12.7727M9.17409 12.6279C9.14511 12.8162 9.33345 12.9708 9.55077 12.9563M9.20769 12.8115C9.10146 12.9564 9.06765 13.2365 9.40089 13.2558M8.70069 12.8598C8.64759 13.0095 8.96148 13.164 9.14499 12.9177M8.60409 13.2411C8.57751 13.3546 8.86005 13.5067 9.01941 13.0238M8.89389 13.2702C8.96151 13.3909 9.18849 13.4875 9.32853 13.2509M9.10149 13.3959C9.04353 13.5649 9.20289 13.7243 9.39609 13.676M8.73939 13.3572C8.70075 13.5987 8.98086 13.7387 9.15471 13.6131M8.55579 13.4634C8.47371 13.7725 8.86971 13.8884 9.01941 13.6566M8.91819 13.7484C8.93268 13.9222 9.20313 14.0719 9.41562 13.9271M8.43519 13.8933C8.41587 13.9705 8.73945 14.0478 8.78772 13.7774M8.62359 13.9608C8.70084 14.1588 8.96163 14.2071 9.11136 13.9656M9.02439 14.0622C9.0582 14.2457 9.29484 14.3471 9.5025 14.2215M9.58929 14.2941C9.53619 14.5404 9.79212 14.7384 9.95148 14.6032M9.17889 14.2506C9.10164 14.521 9.43968 14.6756 9.62802 14.5259M8.77329 14.1153C8.75397 14.3664 8.95197 14.5161 9.17895 14.405M8.34339 14.1396C8.27577 14.3038 8.63316 14.439 8.80218 14.299M8.12109 14.5887C8.21286 14.6949 8.53158 14.5887 8.56056 14.352M8.47389 14.5257C8.58978 14.6609 8.86506 14.7333 8.97615 14.4436M8.87949 14.5935C8.87466 14.8011 9.24654 14.9509 9.36726 14.5693M9.80409 14.6442C9.77028 14.7456 9.84999 14.9074 10.0166 14.9267M9.49749 14.5815C9.47334 14.6974 9.64239 14.8591 9.82107 14.794M9.85509 14.8422C9.80679 14.9677 9.84783 15.1488 10.0169 15.1464M9.87189 15.0765C9.74634 15.1827 9.79944 15.3711 9.98058 15.3783M9.80679 15.255C9.62811 15.3756 9.6909 15.6413 9.92751 15.6269M9.26589 14.7432C9.26589 15.004 9.58944 15.0426 9.65223 14.8011M9.52659 14.9556C9.47829 15.1101 9.60384 15.2598 9.80184 15.2164M9.56529 16.8198C9.60879 16.8827 9.78744 16.7764 9.73914 16.6702C9.69084 16.5639 9.50157 16.6217 9.52182 16.7329M9.69549 16.6266C9.71964 16.4141 9.46851 16.3803 9.40572 16.5638M9.49749 16.4577C9.56028 16.3514 9.34779 16.2066 9.26085 16.3611M9.33819 16.2981C9.39615 16.1435 9.15468 16.076 9.13536 16.216M9.08229 16.0131C9.11127 15.9358 9.38169 15.9841 9.2658 16.1435M9.47349 16.3368C9.57975 16.2402 9.40107 16.0422 9.28998 16.1147M10.1881 16.6314C10.1036 16.641 10.0166 16.6965 10.0794 16.8753C10.1229 16.9993 10.3088 17.0056 10.3354 16.9308" stroke="black" stroke-width="0.02605"/>
<path d="M10.0647 16.7204C9.98256 16.6673 9.80388 16.7566 9.88599 16.9305C9.94779 17.0614 10.1033 17.0078 10.1275 16.9401M9.60327 16.9691C9.64428 17.0415 9.84954 17.0102 9.88578 16.9304M9.74337 16.73C9.78684 16.701 9.86649 16.7371 9.88341 16.7734M9.72897 15.5396C9.58893 15.6313 9.67587 15.9115 9.89316 15.839M9.68547 15.7667C9.57438 15.8536 9.67581 16.1241 9.88347 16.0227M9.71937 16.0226C9.64212 16.0998 9.71697 16.3147 9.91737 16.2737M9.69027 16.1288C9.64677 16.1094 9.53331 16.1239 9.48498 16.1963M9.56487 15.1508C9.45864 15.2522 9.50931 15.4599 9.70731 15.4768M9.52617 15.3632C9.37401 15.4381 9.37401 15.7398 9.67827 15.7519M9.51417 15.7037C9.42966 15.7713 9.4707 16.0321 9.68802 15.9982M9.58407 15.9887C9.55266 16.0201 9.54783 16.0998 9.57441 16.1336M9.48747 15.8897C9.41022 15.8921 9.30879 15.9477 9.28218 16.0273M9.14217 15.7472C9.17115 15.6699 9.41022 15.6748 9.42711 15.9018M9.45117 15.6314C9.41736 15.6386 9.35217 15.67 9.33528 15.7352M9.34737 14.924C9.24351 15.0182 9.19284 15.3152 9.50913 15.3731M9.13737 15.5372C9.13737 15.4574 9.35229 15.3898 9.42714 15.5082M8.99967 15.1049C9.03105 15.1653 9.18075 15.2474 9.27252 15.1798M8.22207 14.6318C8.21727 14.7718 8.33316 14.8974 8.49252 14.8781C8.65188 14.8588 8.68572 14.7187 8.63742 14.627M8.51667 14.8829C8.41041 15.0133 8.54082 15.1968 8.66157 15.1437M8.63757 14.7911C8.70036 14.7669 8.90802 14.738 8.97081 14.8346M7.96617 14.8298C7.91787 14.9022 8.2173 14.9747 8.3187 14.8346M8.21727 14.9069C8.20758 15.0035 8.25591 15.1677 8.50221 15.1001" stroke="black" stroke-width="0.02605"/>
<path d="M8.54076 15.2492C8.5794 15.1671 8.39586 15.0319 8.25582 15.1816C8.11578 15.3313 8.27514 15.5003 8.36208 15.4423M7.89846 14.9258C7.82601 15.0513 8.10612 15.2808 8.26551 15.0683" stroke="black" stroke-width="0.02605"/>
<path d="M7.71241 15.1428C7.61101 15.2467 7.73656 15.4374 7.88869 15.3795C8.04079 15.3215 8.02633 15.1621 7.99012 15.1211" stroke="black" stroke-width="0.02605"/>
<path d="M7.51836 15.3364C7.43625 15.4113 7.51593 15.5875 7.62945 15.5875C7.74291 15.5875 7.81296 15.4983 7.79121 15.3847M7.97946 15.322C7.96497 15.4331 8.12916 15.5103 8.23542 15.4066M8.24046 15.2035C8.25495 15.1794 8.24289 15.1383 8.21877 15.119M7.34226 15.4861C7.24812 15.561 7.45095 15.7686 7.5789 15.5779M8.06886 15.445C8.00847 15.5029 8.10507 15.655 8.20164 15.6091M7.73826 15.5512C7.75275 15.655 7.95558 15.7322 8.08356 15.573M7.84926 15.655C7.81788 15.7203 7.88067 15.8242 7.95795 15.8097M9.77136 16.2517C9.69654 16.399 9.93555 16.5705 10.1094 16.3917M9.94506 16.4713C9.90885 16.551 9.95232 16.6621 10.0175 16.7031M9.71826 16.6378C9.73518 16.5653 9.83898 16.4977 9.93318 16.5316M9.59256 16.447C9.60705 16.3819 9.69396 16.3167 9.75918 16.3336M15.2791 13.4335C14.9362 13.4384 15.0811 13.9889 15.3757 13.8778M15.1681 13.8394C15.1004 13.9505 15.2308 14.1268 15.3757 14.0229M15.3373 14.0446C15.2358 14.2137 15.598 14.472 15.7429 14.2064M15.6271 14.3077C15.6318 14.4671 16.0954 14.5685 16.0279 14.2498M15.9844 14.4235C16.0954 14.6119 16.5107 14.6312 16.4672 14.3511M16.3756 14.5444C16.4626 14.67 16.8682 14.7472 16.8537 14.4865M14.7286 12.9556C14.7865 13.1053 14.9845 13.1585 15.2018 13.0715M14.6032 13.0618C14.7384 13.1487 14.5404 13.5448 14.3328 13.3854M14.6032 13.3081C14.7529 13.3806 14.9364 13.3275 14.9895 13.1149M14.8978 13.279C14.9122 13.3901 15.0716 13.477 15.2793 13.4336M14.5258 13.3951C14.719 13.5593 14.4389 13.8974 14.3133 13.7428M14.5984 13.5205C14.6901 13.5882 14.9267 13.5495 14.9509 13.3708M14.8447 13.5205C14.864 13.6364 14.9558 13.6799 15.0862 13.6847M14.5453 13.6798C14.6418 13.8151 14.8833 13.8537 14.9895 13.675M15.1681 13.9841C15.0183 14.0131 14.8735 13.9068 14.8831 13.7764C14.9024 13.9599 14.6755 14.0565 14.5306 13.9744M14.3569 14.0662C14.4823 14.129 14.6176 13.8924 14.5114 13.7282M14.5018 14.3173C14.6515 14.327 14.6707 14.1 14.5308 13.9744M14.8447 14.5249C14.9703 14.496 14.9315 14.2207 14.6273 14.1965M15.226 14.728C15.3467 14.6942 15.2501 14.39 14.917 14.4093M15.685 14.8342C15.7669 14.7087 15.4966 14.4962 15.2745 14.6073M15.9118 15.0079C16.0615 15.0514 16.1629 14.6554 15.6896 14.7182M16.1872 15.0079C16.3177 14.9741 16.4094 14.7375 16.0279 14.8147M16.477 15.0274C16.5928 15.0854 16.6459 14.7473 16.2934 14.8391M14.8252 13.936C14.8735 14.0229 14.8542 14.192 14.7624 14.2354M14.8396 14.1388C14.9362 14.1775 15.0666 14.1437 15.1438 13.9891M15.0088 14.1388C15.0376 14.2065 15.0474 14.3417 14.9845 14.4093M15.0331 14.2546C15.1393 14.3126 15.2648 14.2353 15.3179 14.1242M15.2503 14.2207C15.3275 14.269 15.3952 14.496 15.2647 14.5878M15.3373 14.4817C15.429 14.4865 15.5643 14.4865 15.6511 14.3706M15.5884 14.4334C15.6705 14.4576 15.767 14.5928 15.7333 14.7135M15.7381 14.6698C15.8299 14.6602 15.9892 14.5974 16.0327 14.4863M15.9892 14.5588C16.0666 14.6023 16.1197 14.694 16.1099 14.8003M16.1098 14.7229C16.2015 14.7181 16.2836 14.6698 16.3078 14.5684M16.2838 14.6362C16.3514 14.6604 16.4335 14.7376 16.4384 14.8294M16.4287 14.7712C16.4963 14.7616 16.5445 14.7181 16.588 14.6505M16.7716 14.641C16.8586 14.728 16.7427 15.0177 16.564 14.9646M14.917 8.78774C14.7382 8.89397 14.2311 8.86019 14.4822 8.44004M14.9653 8.50274C14.6128 8.64278 14.178 8.37236 14.632 8.07776M14.5114 7.98134C14.2168 7.98134 14.0187 8.45462 14.4148 8.61881M13.3669 8.17934C13.2896 8.32904 13.5649 8.49323 13.7532 8.34353C13.8991 8.22755 13.8883 7.91372 13.8015 7.79297M13.2172 8.53664C13.1206 8.85536 13.8305 8.87468 13.7194 8.36759M13.1785 9.01004C13.2026 9.25151 13.8595 9.17423 13.6468 8.68646M13.7242 8.55104C13.7773 8.62349 13.9222 8.74904 14.1684 8.72489M13.84 8.20814C13.8617 8.29505 14.0089 8.36267 14.1973 8.29751M7.25046 15.556C7.08387 15.6744 7.33983 15.8603 7.43397 15.655M7.11996 15.6478C6.95337 15.7661 7.20933 15.952 7.30347 15.7467M6.98226 15.7372C6.81561 15.8556 7.0716 16.0415 7.16577 15.8362M6.83736 15.8194C6.67797 15.9039 6.86391 16.1116 7.0257 15.928M6.68046 15.8992C6.52107 15.9836 6.70704 16.1914 6.8688 16.0078M7.48956 15.6502C7.48713 15.7734 7.72137 15.8241 7.80585 15.6405M7.63686 15.7639C7.56441 15.8557 7.69725 15.9692 7.7697 15.928M7.32516 15.7468C7.3179 15.8507 7.52073 15.9111 7.61976 15.7976M7.43646 15.8557C7.37124 15.9402 7.49922 16.0537 7.58136 16.0198M7.19016 15.841C7.19736 15.9231 7.31328 16.0173 7.43886 15.9642M7.26486 15.952C7.21656 15.9955 7.24071 16.097 7.30833 16.1284M7.01376 15.9448C6.99444 16.0197 7.12245 16.1526 7.25283 16.0656M7.04016 16.0318C6.96291 16.0922 6.97254 16.1839 7.07154 16.1959M6.85446 16.0222C6.8448 16.0729 6.91002 16.155 6.99213 16.1454M6.44136 16.0174C6.36411 16.0584 6.56211 16.2685 6.68523 16.0729M6.25056 16.1041C6.15396 16.1501 6.39306 16.3819 6.49929 16.1452M6.87606 16.0945C6.80118 16.1114 6.75291 16.2202 6.81567 16.2635M6.63216 16.1332C6.6225 16.1767 6.71427 16.2491 6.78915 16.2226M6.56946 16.1527C6.49701 16.1986 6.53565 16.3265 6.62016 16.3072M6.31116 16.237C6.24354 16.2877 6.28941 16.3891 6.38361 16.365M6.43416 16.2298C6.43659 16.2563 6.49695 16.2975 6.54768 16.2806M6.07686 16.1863C5.99238 16.2226 5.99721 16.4351 6.28215 16.3192M5.88606 16.2709C5.76771 16.3289 5.80635 16.4883 6.06474 16.3362M6.08646 16.3483C6.05508 16.3725 6.0213 16.4787 6.13956 16.4376M5.86926 16.3987C5.82096 16.4422 5.85237 16.5316 5.95866 16.4977M5.62056 16.4134C5.53365 16.4642 5.72436 16.5318 5.85237 16.3965M5.67846 16.4761C5.63982 16.5148 5.63982 16.6282 5.74122 16.5873M5.43216 16.522C5.3742 16.5655 5.4732 16.6235 5.65431 16.5438M5.50446 16.5847C5.43684 16.6402 5.44407 16.7102 5.5431 16.6885M5.30406 16.6162C5.22921 16.6839 5.33787 16.7297 5.46825 16.6741M5.30646 16.6912C5.17845 16.7491 5.23401 16.8553 5.31366 16.8144M9.58056 17.0605C9.55086 17.1244 9.64818 17.1764 9.73995 17.1619C9.82806 17.148 9.91239 17.0754 9.84615 16.9737M9.85086 17.0992C9.93777 17.1669 10.0923 17.0896 10.0923 16.9881" stroke="black" stroke-width="0.02605"/>
<path d="M15.1767 6.86604C14.7904 6.67284 13.9887 6.31548 13.7617 6.60525C13.9693 6.51834 14.5778 6.61008 15.0801 7.0737L15.1767 6.86604Z" fill="white" stroke="black" stroke-width="0.02605"/>
<path d="M15.4144 6.84483C14.9677 6.32442 14.7045 6.44091 14.3833 6.26166C14.0816 6.09324 13.6009 6.05883 13.5078 6.32667C13.9487 6.11196 14.3535 6.44214 14.6021 6.48207C14.9436 6.53691 15.1363 6.80094 15.2362 6.92235L15.4144 6.84483ZM17.0974 6.77823C16.8655 6.24699 16.3698 6.38574 16.1508 6.16008C15.8322 5.8317 15.0257 5.52744 14.6924 5.75442C15.4264 5.71578 15.7391 6.26037 16.1316 6.44985C16.4117 6.58509 16.7111 6.8748 17.0974 6.77823Z" fill="white" stroke="black" stroke-width="0.02605"/>
<path d="M16.2254 6.72023C15.8294 6.22763 15.2207 5.79299 14.9407 5.95718C15.3077 5.9765 15.4236 6.23246 15.6845 6.39665C15.9453 6.56084 15.8294 6.79748 16.2254 6.72023ZM14.3417 7.58963C13.9263 7.4351 13.115 7.35782 12.7383 7.83113C13.3662 7.93733 14.3127 7.8794 14.3417 7.58963Z" fill="white" stroke="black" stroke-width="0.02605"/>
<path d="M14.2656 7.77324C13.8502 7.58004 13.5259 7.84989 13.1355 7.81188C12.3918 7.73943 11.8606 7.7829 11.793 8.14026C12.218 7.75875 12.9327 8.07267 13.2225 7.99539C13.5122 7.91811 14.5843 7.98573 14.9224 8.1306C14.7485 7.91811 14.4781 7.86018 14.2656 7.77324ZM15.5694 6.66714C15.4729 6.34839 15.4777 6.01035 15.9558 6.0345C15.835 5.8848 15.3908 5.80752 15.3183 6.36774C14.7919 5.9814 14.2171 5.91378 14.111 6.24702C14.3814 6.01521 14.8015 6.18423 15.3037 6.75411C15.3472 6.72996 15.4631 6.68166 15.5694 6.66717L15.5694 6.66714Z" fill="white" stroke="black" stroke-width="0.02605"/>
<path d="M14.8442 7.10623C14.5448 6.91306 14.1391 6.59914 14.8491 6.47359C14.5449 6.3094 14.1005 6.38182 14.1489 6.94204C13.3375 6.61363 12.7548 6.72448 12.6324 7.04827C12.4971 7.40566 12.9995 7.60366 13.0863 7.37668C12.9946 7.41532 12.6807 7.30909 12.8448 7.10623C13.0091 6.90343 13.8506 7.05568 14.6511 7.47328C14.8732 7.5892 15.6363 7.56988 14.8442 7.10623Z" fill="white" stroke="black" stroke-width="0.02605"/>
<path d="M14.6306 7.63743C14.3996 7.16577 13.6502 7.59396 13.4992 7.13709C13.2928 7.80645 14.5648 7.43607 14.6306 7.63743ZM19.3973 8.14923C19.5544 8.22732 19.6903 8.10456 19.4499 8.00829C19.6072 8.08632 19.7443 7.96653 19.5039 7.8702C19.6612 7.94823 19.7983 7.82844 19.5579 7.73214C19.4938 7.79667 19.402 8.03334 19.3973 8.14923ZM19.4792 7.24143C19.8269 6.87441 19.4503 6.74883 19.8752 6.37215C20.2229 6.06396 19.9415 5.85855 20.2713 5.61876C20.3776 5.54151 20.6093 5.38695 20.6287 5.23242C20.7687 5.58012 20.1939 5.62842 20.2326 6.18864C20.2572 6.54534 20.0161 6.51417 19.9236 7.11588C19.9042 7.24143 19.8173 7.52154 19.4792 7.24143Z" fill="white" stroke="black" stroke-width="0.02605"/>
<path d="M19.6367 7.40528C19.8299 6.98996 20.0516 6.99794 20.1582 6.83543C20.3611 6.52634 20.7908 6.88853 21.1531 6.61328C21.0903 7.00445 20.6026 6.86438 20.3901 7.11554C20.1776 7.36664 20.0037 7.48256 19.6367 7.40528Z" fill="white" stroke="black" stroke-width="0.02605"/>
<path d="M19.6851 7.54065C20.0232 7.2702 20.2723 7.45065 20.5061 7.30884C21.0952 6.95145 21.3319 7.38126 21.8583 7.21224C21.7182 7.55028 20.9407 7.26054 20.6027 7.51167C20.2646 7.76277 19.0766 8.00427 19.6851 7.54065ZM18.6999 9.46755C18.695 9.31302 18.5501 9.11499 18.3472 9.09087C18.1445 9.06672 18.0575 8.85423 17.903 8.84457C17.7485 8.83491 17.647 8.52582 17.4345 8.53065C17.222 8.53548 17.1351 8.81076 17.6325 9.06189C18.13 9.31302 18.6805 9.60276 18.6999 9.46755ZM18.072 9.59805C17.8595 9.60771 17.8305 9.9168 17.6277 9.92646C17.9077 10.0762 18.1106 9.85884 18.2555 9.66567L18.072 9.59805Z" fill="white" stroke="black" stroke-width="0.02605"/>
<path d="M18.2439 9.63675C18.0604 9.79128 18.0073 10.1149 18.2729 10.2066C18.1135 9.98685 18.553 9.88785 18.4178 9.68502L18.2439 9.63675Z" fill="white" stroke="black" stroke-width="0.02605"/>
<path d="M18.4285 9.64617C18.2836 9.92628 18.6555 9.96006 18.5589 10.1726C18.7713 10.1243 18.8052 9.72345 18.612 9.61719L18.4285 9.64617Z" fill="white" stroke="black" stroke-width="0.02605"/>
<path d="M17.0078 9.04686C17.3556 9.02754 17.6736 9.21567 17.8868 9.52014C18.0221 9.71331 18.476 9.79059 18.6306 9.63603C18.7851 9.48153 18.6982 9.15309 18.3118 9.25935C18.2152 9.09516 17.9351 9.15312 17.7999 9.01788C17.6647 8.88267 17.1431 8.49633 17.0078 9.04686Z" fill="white" stroke="black" stroke-width="0.02605"/>
<path d="M18.3119 9.2605C18.2202 9.27982 18.1911 9.43918 18.249 9.52129L18.3119 9.2605ZM18.5099 9.3571C18.5389 9.4054 18.5195 9.47299 18.505 9.5068L18.5099 9.3571ZM17.5586 9.0625C17.7372 9.07216 17.7711 9.20257 17.9642 9.25084L17.5586 9.0625Z" fill="white"/>
<path d="M18.3119 9.2605C18.2202 9.27982 18.1911 9.43918 18.249 9.52129M18.5099 9.3571C18.5389 9.4054 18.5195 9.47299 18.505 9.5068M17.5586 9.0625C17.7372 9.07216 17.7711 9.20257 17.9642 9.25084" stroke="black" stroke-width="0.02605" stroke-linecap="round"/>
<path d="M17.4431 8.623C18.0602 8.77753 18.5498 8.91277 18.8535 9.08662C19.1571 9.26047 19.6272 9.30877 20.0386 9.19288C20.45 9.07696 21.2432 8.97073 21.2041 9.48265C21.4197 9.22666 21.1454 8.95138 20.5968 8.90308C20.6067 8.65198 20.3379 8.42497 20.1447 8.57467C20.3234 8.55055 20.4777 8.88376 20.1252 9.01897C20.1937 8.76787 19.9439 8.54086 19.6844 8.65195C19.8509 8.70025 20.0193 8.97946 19.6468 9.08659C19.4117 9.15421 19.0689 9.0673 18.8143 8.91274C18.5597 8.75821 17.1297 8.19799 17.4431 8.623Z" fill="white" stroke="black" stroke-width="0.02605"/>
<path d="M18.999 8.37168C18.8059 8.45859 18.9314 8.66145 18.632 8.77734C18.3325 8.89323 18.1249 9.15885 18.1925 9.38583C18.3954 8.94153 18.7528 8.96085 18.8782 8.787C19.0039 8.61315 19.1874 8.35719 18.999 8.37168Z" fill="white" stroke="black" stroke-width="0.02605"/>
<path d="M19.0516 8.40087C19.042 8.7534 18.7645 8.62497 18.8729 9.12045C18.9067 9.27498 18.9695 9.52611 18.8632 9.77724C19.1747 9.55026 18.9744 9.07344 19.1143 8.89347C19.182 8.80656 19.2688 8.67132 19.3027 8.55543C19.2302 8.75823 19.2351 9.13497 19.4331 9.23154C19.2737 8.85483 19.863 8.54577 19.4572 8.11113C19.3993 8.21739 19.2157 8.4057 19.0516 8.40087ZM18.0664 8.04837C18.1148 8.12082 18.163 8.30433 18.1195 8.40576C18.2162 8.3478 18.3563 8.1981 18.3996 8.09667C18.5976 8.12565 18.6749 8.37195 18.4866 8.47818C18.6025 8.47818 18.8005 8.47818 18.9115 8.3478C18.7764 8.1981 18.3563 7.96626 18.0664 8.04837H18.0664Z" fill="white" stroke="black" stroke-width="0.02605"/>
<path d="M15.061 7.35563C15.0297 7.32713 14.977 7.30007 14.8823 7.28063C14.59 7.22069 14.7409 6.95711 14.9898 6.95945C15.5209 6.37994 15.8192 6.82667 16.4663 6.64316C16.6928 6.57896 16.8483 6.59795 16.9717 6.65132C17.2615 6.45812 17.6014 6.51212 17.8477 6.7391C17.8751 6.69557 17.9119 6.66233 17.9635 6.64799C18.1903 6.58499 18.3739 6.77843 18.4366 7.02959C18.6135 6.9968 18.8155 7.08434 18.9483 7.20509C19.1323 7.11059 19.2591 7.10639 19.3057 7.20353C19.47 7.12628 19.6827 7.07783 19.789 7.33859C19.8952 7.59938 19.5379 7.52213 19.4798 8.07269C19.4441 8.41229 19.0646 8.54594 18.7651 8.34311C18.2861 8.0186 17.8186 7.9664 17.5867 8.45903C17.355 8.95163 17.1733 9.23783 16.6112 9.07718C16.4085 9.01922 16.1476 9.0965 15.9835 9.31865C15.8192 9.5408 15.5681 9.33311 15.2687 9.35726C15.6453 9.29933 15.5011 9.20456 15.829 9.18341C16.1284 9.16409 16.0511 8.88401 16.2442 8.84537C15.4908 9.03857 15.5198 8.75843 14.9017 8.9516C15.1721 8.6039 15.5971 8.79707 15.8096 8.59424C15.2494 8.58458 14.9989 8.21858 14.7471 8.37209C14.3511 8.61359 14.5249 9.30104 13.4915 9.24137C12.9892 9.21239 12.6705 9.28001 12.3711 9.57947C12.8927 8.49767 13.6022 9.09197 13.9455 8.7488C14.1484 8.54597 14.3029 8.39141 14.4091 8.19824C14.4465 8.13026 14.4971 8.09138 14.5603 8.07635C13.7007 7.8059 14.2206 7.38461 15.061 7.35566L15.061 7.35563Z" fill="white" stroke="black" stroke-width="0.02605"/>
<path d="M19.3087 7.20312C19.3219 7.23028 19.3286 7.26553 19.3286 7.30912C19.3286 7.52158 19.0099 7.53126 18.9906 7.84518C18.9805 8.00937 18.9616 8.10112 18.8505 8.0818C18.7395 8.06248 18.6428 7.88863 18.7491 7.6858" fill="white"/>
<path d="M19.3087 7.20312C19.3219 7.23028 19.3286 7.26553 19.3286 7.30912C19.3286 7.52158 19.0099 7.53126 18.9906 7.84518C18.9805 8.00937 18.9616 8.10112 18.8505 8.0818C18.7395 8.06248 18.6428 7.88863 18.7491 7.6858" stroke="black" stroke-width="0.02605" stroke-linecap="round"/>
<path d="M15.2239 7.03784C15.1439 6.98162 15.0639 6.95879 14.9922 6.95813L15.2239 7.03784ZM16.9735 6.64844C17.2293 6.75914 17.354 7.02482 17.7255 7.03784C18.0832 7.05038 18.3052 7.56908 18.9039 7.23101C18.9202 7.22186 18.936 7.21331 18.9514 7.20539M17.8513 6.73784C17.7979 6.82274 17.7858 6.94118 17.8005 7.04516L17.8513 6.73784ZM16.6825 7.82984C16.2287 7.82984 16.1127 8.06165 16.1127 8.2838C16.1127 8.50595 16.3251 8.79572 16.7019 8.79572C17.0785 8.79572 17.2814 8.56391 17.2814 8.31278C17.2814 8.06165 17.0495 7.82984 16.6825 7.82984Z" fill="white"/>
<path d="M15.2239 7.03784C15.1439 6.98162 15.0639 6.95879 14.9922 6.95813M16.9735 6.64844C17.2293 6.75914 17.354 7.02482 17.7255 7.03784C18.0832 7.05038 18.3052 7.56908 18.9039 7.23101C18.9202 7.22186 18.936 7.21331 18.9514 7.20539M17.8513 6.73784C17.7979 6.82274 17.7858 6.94118 17.8005 7.04516M16.6825 7.82984C16.2287 7.82984 16.1127 8.06165 16.1127 8.2838C16.1127 8.50595 16.3251 8.79572 16.7019 8.79572C17.0785 8.79572 17.2814 8.56391 17.2814 8.31278C17.2814 8.06165 17.0495 7.82984 16.6825 7.82984Z" stroke="black" stroke-width="0.02605"/>
<path d="M16.7625 8.78718C16.7529 8.66163 16.5258 8.68092 16.5355 8.58435C16.5451 8.48775 16.6611 8.44911 16.6611 8.3139C16.6611 8.17869 16.8638 8.169 16.9315 8.27526C16.9991 8.38149 17.202 8.58915 17.2455 8.48292M16.9317 8.27538C16.8254 8.38161 16.7772 8.59893 16.9172 8.76798L16.9317 8.27538ZM17.0766 8.43948C17.0428 8.51193 17.0332 8.62299 17.0718 8.69058L17.0766 8.43948Z" fill="white"/>
<path d="M16.7625 8.78718C16.7529 8.66163 16.5258 8.68092 16.5355 8.58435C16.5451 8.48775 16.6611 8.44911 16.6611 8.3139C16.6611 8.17869 16.8638 8.169 16.9315 8.27526C16.9991 8.38149 17.202 8.58915 17.2455 8.48292M16.9317 8.27538C16.8254 8.38161 16.7772 8.59893 16.9172 8.76798M17.0766 8.43948C17.0428 8.51193 17.0332 8.62299 17.0718 8.69058" stroke="black" stroke-width="0.02605"/>
<path d="M18.8785 8.08453C19.2335 8.11351 19.2939 7.72231 19.0283 7.69819M18.4417 7.02943C18.3186 6.8725 18.0361 6.81937 18.0312 7.15258" stroke="black" stroke-width="0.02605"/>
<path d="M17.9965 7.53076C17.8757 7.23136 17.5666 7.18786 17.4023 7.33756C17.2657 7.46218 17.2623 7.78672 17.557 7.85434C17.6584 7.73362 17.8564 7.5742 17.9965 7.53076ZM17.8636 7.34236C17.6897 7.1878 17.4337 7.48 17.6656 7.74802L17.8636 7.34236ZM14.5561 8.07406C14.6725 8.04646 14.8426 8.1034 15.1034 8.22607C15.2677 8.30335 15.7603 8.46757 16.0693 8.30335C15.7506 8.41927 15.5092 7.9363 15.2677 7.99426C15.0262 8.05222 14.5843 8.14156 14.3984 7.96528C14.8523 7.99426 15.0964 7.63465 15.6153 7.94596C15.7603 8.0329 15.9438 8.09086 16.108 8.0812C15.6831 7.56928 15.1228 7.89766 15.0648 7.48237C15.3208 7.75765 15.9462 7.41958 16.2649 7.93633M15.1567 7.55956C15.0969 7.48516 15.1239 7.41106 15.0598 7.35241L15.1567 7.55956Z" fill="white"/>
<path d="M17.8636 7.34236C17.6897 7.1878 17.4337 7.48 17.6656 7.74802M14.5561 8.07406C14.6725 8.04646 14.8426 8.1034 15.1034 8.22607C15.2677 8.30335 15.7603 8.46757 16.0693 8.30335C15.7506 8.41927 15.5092 7.9363 15.2677 7.99426C15.0262 8.05222 14.5843 8.14156 14.3984 7.96528C14.8523 7.99426 15.0964 7.63465 15.6153 7.94596C15.7603 8.0329 15.9438 8.09086 16.108 8.0812C15.6831 7.56928 15.1228 7.89766 15.0648 7.48237C15.3208 7.75765 15.9462 7.41958 16.2649 7.93633M15.1567 7.55956C15.0969 7.48516 15.1239 7.41106 15.0598 7.35241M17.9965 7.53076C17.8757 7.23136 17.5666 7.18786 17.4023 7.33756C17.2657 7.46218 17.2623 7.78672 17.557 7.85434C17.6584 7.73362 17.8564 7.5742 17.9965 7.53076Z" stroke="black" stroke-width="0.02605"/>
<path d="M18.4424 7.02957C18.3362 6.91608 18.1044 7.00542 18.1695 7.23483C18.2203 7.1286 18.3289 7.03923 18.4424 7.02957ZM17.7857 7.64817C17.8589 7.59507 17.9343 7.55148 17.998 7.53171C17.9632 7.44579 17.9131 7.38093 17.8552 7.33569C17.8 7.29753 17.6412 7.51101 17.7857 7.64817Z" fill="black"/>
<path d="M17.5019 7.2555C17.328 7.13961 17.1687 7.14927 17.1156 7.24584C16.9901 7.24104 16.8862 7.33278 16.8813 7.51629M17.1494 7.5936C16.9418 7.45116 16.6568 7.50426 16.6762 7.82301M16.5506 8.004C16.652 7.92189 16.7969 7.86396 16.908 8.00883M18.101 7.6902C18.0624 7.7433 18.0334 7.82541 18.0961 7.95099C18.0189 7.84959 17.8258 7.84959 17.618 8.12001M18.5597 7.6758C18.3086 7.70478 18.3135 7.86897 18.5162 7.94142M16.7729 7.0623C16.5604 7.01883 16.4059 7.14441 16.7005 7.25064M17.1785 6.9174C16.879 6.84495 16.7583 6.9222 16.8935 6.98985M16.3139 8.1201C16.3043 8.22636 16.3622 8.3664 16.536 8.20704M16.3721 8.4387C16.3721 8.46768 16.3672 8.50146 16.3479 8.52561M15.6764 7.0236C15.4929 6.9705 15.4592 6.80145 15.6717 6.81594M15.6137 7.4148C15.4108 7.34718 15.4108 7.14918 15.5798 7.1685M15.9905 7.3134C15.7539 7.25544 15.7443 7.09125 15.923 7.1154M16.0193 6.8112C15.8938 6.80154 15.7006 6.94161 16.0242 7.02369M16.3721 7.0914C16.0775 7.04793 16.0824 7.16868 16.2561 7.24596M16.5941 6.8112C16.3671 6.76773 16.2899 6.90297 16.4444 6.9609M15.8795 7.6467C15.8239 7.60083 15.7781 7.38108 16.0436 7.4463M16.43 7.5792C16.2514 7.5309 16.0824 7.70475 16.2465 7.80618M16.6664 7.3716C16.4782 7.33779 16.3188 7.39092 16.4202 7.45851" stroke="black" stroke-width="0.02605" stroke-linecap="round"/>
<path d="M18.4347 7.0293C18.3286 7.04895 18.2335 7.11132 18.1719 7.2345L18.4347 7.0293Z" fill="white"/>
<path d="M18.4347 7.0293C18.3286 7.04895 18.2335 7.11132 18.1719 7.2345" stroke="black" stroke-width="0.02605"/>
</g>
<defs>
<clipPath id="clip0_358_3455">
<rect width="24" height="24" rx="12" fill="white"/>
</clipPath>
</defs>
</svg>
