<svg width="24" height="24" viewBox="0 0 24 24" fill="none" xmlns="http://www.w3.org/2000/svg">
<g clip-path="url(#clip0_358_446)">
<path d="M36 0H0V24H36V0Z" fill="#CE1720"/>
<path d="M0.265625 0H5.59896V24H0.265625V0Z" fill="white"/>
<path d="M3.05202 0V0.869333H2.81735V0H3.05202ZM0.0546875 1.52H0.476021V1.17333H0.689354V0.752H0.988021V0.384H1.23335V0H1.97469V0.384H2.21469V0.752H2.51335V1.17333H2.72669V1.52H3.05202V2.05867H2.72669V2.40533H2.51335V2.82667H2.21469V3.19467H1.97469V3.58933H1.80402V3.92H1.40402V3.58933H1.23335V3.19467H0.988021V2.82667H0.689354V2.40533H0.476021V2.05867H0.0546875M0.0546875 0.181333H0.476021V0.661333H0.0546875M1.70802 0.805333H1.48935V1.13067H1.28135V1.54133H1.07869V2.048H1.28135V2.45867H1.48935V2.77867H1.70802V2.45867H1.91602V2.048H2.12402V1.54133H1.91602V1.13067H1.70802V0.805333ZM1.72935 1.54667V2.02667H1.46802V1.54667H1.72935ZM0.0546875 2.80533H0.476021V3.32267H0.0546875M3.05202 2.85333V3.584H2.81735V2.85333H3.05202ZM2.47602 3.664V4.02667H2.73202V4.4H3.05202V4.89067H2.73202V5.26933H2.47602V5.632H2.17735V5.26933H1.92135V4.89067H1.70802V4.4H1.92135V4.02667H2.17735V3.664H2.47602ZM0.0546875 4.4H0.476021V4.02667H0.732021V3.664H1.02535V4.02667H1.28135V4.4H1.49469V4.89067H1.28135V5.26933H1.02535V5.632H0.732021V5.26933H0.476021V4.89067H0.0546875M2.43869 4.41067H2.22002V4.87467H2.43869V4.41067ZM0.993354 4.41067H0.774688V4.87467H0.993354V4.41067ZM1.07869 12.096V11.8453H0.897354V11.4667H0.657354V11.2373H0.476021V10.8693H0.0546875V10.016H0.476021V10.2613H0.657354V10.6187H0.897354V11.0453H1.23869V10.6613H1.48935V10.3787H1.67069V10.0427H1.91069V9.68533H2.08669V9.32267H2.25735V8.94933H2.48669V8.448H2.18269V7.99467H1.85202V7.72267H1.29735V8.11733H1.61735V8.47467H1.40402V8.912H1.15335V9.296H0.838688V8.912H0.577354V8.47467H0.417354V8.11733H0.0546875V7.44H0.476021V7.00267H0.636021V6.66667H0.785354V6.28267H0.998688V5.904H1.20669V5.65333H1.45735V5.27467H1.76135V5.65333H2.01202V5.904H2.22535V6.28267H2.43335V6.66667H2.60402V6.99733H2.77469V7.28533H3.05202V9.40267H2.73735V9.76H2.64669V10.1333H2.41202V10.496H2.26802V10.7627H2.11869V11.0453H1.86269V11.3227H1.49469V12.096M3.05202 5.62667V6.35733H2.81735V5.62667H3.05202ZM0.0546875 5.76533H0.476021V6.28267H0.0546875M0.0546875 8.87467H0.476021V9.392H0.0546875V8.87467ZM3.04135 10.1867V10.656H2.81735V10.1867H3.04135ZM2.73202 12.096V11.8027H2.59335V11.5733H2.39069V10.8853H2.59335V11.1627H2.80669V11.568H3.04135V12.0907M1.90002 12.0907V11.7493H2.12402V12.0907" fill="#CE1720"/>
<path d="M2.81517 0V0.869333H3.04983V0H2.81517ZM5.8125 1.52H5.39117V1.17333H5.17783V0.752H4.87917V0.384H4.63383V0H3.8925V0.384H3.6525V0.752H3.35383V1.17333H3.1405V1.52H2.81517V2.05867H3.1405V2.40533H3.35383V2.82667H3.6525V3.19467H3.8925V3.58933H4.06317V3.92H4.46317V3.58933H4.63383V3.19467H4.87917V2.82667H5.17783V2.40533H5.39117V2.05867H5.8125M5.8125 0.181333H5.39117V0.661333H5.8125M4.15917 0.805333H4.37783V1.13067H4.58583V1.54133H4.7885V2.048H4.58583V2.45867H4.37783V2.77867H4.15917V2.45867H3.95117V2.048H3.74317V1.54133H3.95117V1.13067H4.15917V0.805333ZM4.13783 1.54667V2.02667H4.39917V1.54667H4.13783ZM5.8125 2.80533H5.39117V3.32267H5.8125M2.81517 2.85333V3.584H3.04983V2.85333H2.81517ZM3.39117 3.664V4.02667H3.13517V4.4H2.81517V4.89067H3.13517V5.26933H3.39117V5.632H3.68983V5.26933H3.94583V4.89067H4.15917V4.4H3.94583V4.02667H3.68983V3.664H3.39117ZM5.8125 4.4H5.39117V4.02667H5.13517V3.664H4.84183V4.02667H4.58583V4.4H4.3725V4.89067H4.58583V5.26933H4.84183V5.632H5.13517V5.26933H5.39117V4.89067H5.8125M3.4285 4.41067H3.64717V4.87467H3.4285V4.41067ZM4.87383 4.41067H5.0925V4.87467H4.87383V4.41067ZM4.7885 12.096V11.8453H4.96983V11.4667H5.20983V11.2373H5.39117V10.8693H5.8125V10.016H5.39117V10.2613H5.20983V10.6187H4.96983V11.0453H4.6285V10.6613H4.37783V10.3787H4.1965V10.0427H3.9565V9.68533H3.7805V9.32267H3.60983V8.94933H3.3805V8.448H3.6845V7.99467H4.01517V7.72267H4.56983V8.11733H4.24983V8.47467H4.46317V8.912H4.71383V9.296H5.0285V8.912H5.28983V8.47467H5.44983V8.11733H5.8125V7.44H5.39117V7.00267H5.23117V6.66667H5.08183V6.28267H4.8685V5.904H4.6605V5.65333H4.40983V5.27467H4.10583V5.65333H3.85517V5.904H3.64183V6.28267H3.43383V6.66667H3.26317V6.99733H3.0925V7.28533H2.81517V9.40267H3.12983V9.76H3.2205V10.1333H3.45517V10.496H3.59917V10.7627H3.7485V11.0453H4.0045V11.3227H4.3725V12.096M2.81517 5.62667V6.35733H3.04983V5.62667H2.81517ZM5.8125 5.76533H5.39117V6.28267H5.8125M5.8125 8.87467H5.39117V9.392H5.8125V8.87467ZM2.82583 10.1867V10.656H3.04983V10.1867H2.82583ZM3.13517 12.096V11.8027H3.27383V11.5733H3.4765V10.8853H3.27383V11.1627H3.0605V11.568H2.82583V12.0907M3.96717 12.0907V11.7493H3.74317V12.0907" fill="#CE1720"/>
<path d="M3.05202 24V23.1307H2.81735V24H3.05202ZM0.0546875 22.48H0.476021V22.8267H0.689354V23.248H0.988021V23.616H1.23335V24H1.97469V23.616H2.21469V23.248H2.51335V22.8267H2.72669V22.48H3.05202V21.9413H2.72669V21.5947H2.51335V21.1733H2.21469V20.8053H1.97469V20.4107H1.80402V20.08H1.40402V20.4107H1.23335V20.8053H0.988021V21.1733H0.689354V21.5947H0.476021V21.9413H0.0546875M0.0546875 23.8187H0.476021V23.3387H0.0546875M1.70802 23.1947H1.48935V22.8693H1.28135V22.4587H1.07869V21.952H1.28135V21.5413H1.48935V21.2213H1.70802V21.5413H1.91602V21.952H2.12402V22.4587H1.91602V22.8693H1.70802V23.1947ZM1.72935 22.4533V21.9733H1.46802V22.4533H1.72935ZM0.0546875 21.1947H0.476021V20.6773H0.0546875M3.05202 21.1467V20.416H2.81735V21.1467H3.05202ZM2.47602 20.336V19.9733H2.73202V19.6H3.05202V19.1093H2.73202V18.7307H2.47602V18.368H2.17735V18.7307H1.92135V19.1093H1.70802V19.6H1.92135V19.9733H2.17735V20.336H2.47602ZM0.0546875 19.6H0.476021V19.9733H0.732021V20.336H1.02535V19.9733H1.28135V19.6H1.49469V19.1093H1.28135V18.7307H1.02535V18.368H0.732021V18.7307H0.476021V19.1093H0.0546875M2.43869 19.5893H2.22002V19.1253H2.43869V19.5893ZM0.993354 19.5893H0.774688V19.1253H0.993354V19.5893ZM1.07869 11.904V12.1547H0.897354V12.5333H0.657354V12.7627H0.476021V13.1307H0.0546875V13.984H0.476021V13.7387H0.657354V13.3813H0.897354V12.9547H1.23869V13.3387H1.48935V13.6213H1.67069V13.9573H1.91069V14.3147H2.08669V14.6773H2.25735V15.0507H2.48669V15.552H2.18269V16.0053H1.85202V16.2773H1.29735V15.8827H1.61735V15.5253H1.40402V15.088H1.15335V14.704H0.838688V15.088H0.577354V15.5253H0.417354V15.8827H0.0546875V16.56H0.476021V16.9973H0.636021V17.3333H0.785354V17.7173H0.998688V18.096H1.20669V18.3467H1.45735V18.7253H1.76135V18.3467H2.01202V18.096H2.22535V17.7173H2.43335V17.3333H2.60402V17.0027H2.77469V16.7147H3.05202V14.5973H2.73735V14.24H2.64669V13.8667H2.41202V13.504H2.26802V13.2373H2.11869V12.9547H1.86269V12.6773H1.49469V11.904M3.05202 18.3733V17.6427H2.81735V18.3733H3.05202ZM0.0546875 18.2347H0.476021V17.7173H0.0546875M0.0546875 15.1253H0.476021V14.608H0.0546875V15.1253ZM3.04135 13.8133V13.344H2.81735V13.8133H3.04135ZM2.73202 11.904V12.1973H2.59335V12.4267H2.39069V13.1147H2.59335V12.8373H2.80669V12.432H3.04135V11.9093M1.90002 11.9093V12.2507H2.12402V11.9093" fill="#CE1720"/>
<path d="M2.81517 24V23.1307H3.04983V24H2.81517ZM5.8125 22.48H5.39117V22.8267H5.17783V23.248H4.87917V23.616H4.63383V24H3.8925V23.616H3.6525V23.248H3.35383V22.8267H3.1405V22.48H2.81517V21.9413H3.1405V21.5947H3.35383V21.1733H3.6525V20.8053H3.8925V20.4107H4.06317V20.08H4.46317V20.4107H4.63383V20.8053H4.87917V21.1733H5.17783V21.5947H5.39117V21.9413H5.8125M5.8125 23.8187H5.39117V23.3387H5.8125M4.15917 23.1947H4.37783V22.8693H4.58583V22.4587H4.7885V21.952H4.58583V21.5413H4.37783V21.2213H4.15917V21.5413H3.95117V21.952H3.74317V22.4587H3.95117V22.8693H4.15917V23.1947ZM4.13783 22.4533V21.9733H4.39917V22.4533H4.13783ZM5.8125 21.1947H5.39117V20.6773H5.8125M2.81517 21.1467V20.416H3.04983V21.1467H2.81517ZM3.39117 20.336V19.9733H3.13517V19.6H2.81517V19.1093H3.13517V18.7307H3.39117V18.368H3.68983V18.7307H3.94583V19.1093H4.15917V19.6H3.94583V19.9733H3.68983V20.336H3.39117ZM5.8125 19.6H5.39117V19.9733H5.13517V20.336H4.84183V19.9733H4.58583V19.6H4.3725V19.1093H4.58583V18.7307H4.84183V18.368H5.13517V18.7307H5.39117V19.1093H5.8125M3.4285 19.5893H3.64717V19.1253H3.4285V19.5893ZM4.87383 19.5893H5.0925V19.1253H4.87383V19.5893ZM4.7885 11.904V12.1547H4.96983V12.5333H5.20983V12.7627H5.39117V13.1307H5.8125V13.984H5.39117V13.7387H5.20983V13.3813H4.96983V12.9547H4.6285V13.3387H4.37783V13.6213H4.1965V13.9573H3.9565V14.3147H3.7805V14.6773H3.60983V15.0507H3.3805V15.552H3.6845V16.0053H4.01517V16.2773H4.56983V15.8827H4.24983V15.5253H4.46317V15.088H4.71383V14.704H5.0285V15.088H5.28983V15.5253H5.44983V15.8827H5.8125V16.56H5.39117V16.9973H5.23117V17.3333H5.08183V17.7173H4.8685V18.096H4.6605V18.3467H4.40983V18.7253H4.10583V18.3467H3.85517V18.096H3.64183V17.7173H3.43383V17.3333H3.26317V17.0027H3.0925V16.7147H2.81517V14.5973H3.12983V14.24H3.2205V13.8667H3.45517V13.504H3.59917V13.2373H3.7485V12.9547H4.0045V12.6773H4.3725V11.904M2.81517 18.3733V17.6427H3.04983V18.3733H2.81517ZM5.8125 18.2347H5.39117V17.7173H5.8125M5.8125 15.1253H5.39117V14.608H5.8125V15.1253ZM2.82583 13.8133V13.344H3.04983V13.8133H2.82583ZM3.13517 11.904V12.1973H3.27383V12.4267H3.4765V13.1147H3.27383V12.8373H3.0605V12.432H2.82583V11.9093M3.96717 11.9093V12.2507H3.74317V11.9093" fill="#CE1720"/>
<path d="M5.59766 16H35.9977V24H5.59766V16Z" fill="#007C30"/>
</g>
<defs>
<clipPath id="clip0_358_446">
<rect width="24" height="24" rx="12" fill="white"/>
</clipPath>
</defs>
</svg>
