<svg width="24" height="24" viewBox="0 0 24 24" fill="none" xmlns="http://www.w3.org/2000/svg">
<g clip-path="url(#clip0_358_10583)">
<rect width="24" height="24" rx="12" fill="#EE1C25"/>
<path d="M2.39844 0H22.1984V24H2.39844V0Z" fill="white"/>
<path d="M-1.19922 0H5.24989V24H-1.19922V0ZM18.1517 0H24.6008V24H18.1517V0Z" fill="#D52B1E"/>
<path d="M7.19922 12.0704L7.69261 11.8962V11.8998C7.99922 11.5842 7.51288 10.6265 7.35781 10.0497C7.81243 10.1512 8.49261 10.4124 8.69349 10.329C8.89437 10.2347 9.0001 9.82111 9.15164 9.56716L10.3252 10.9385C10.438 11.0001 10.5367 10.9639 10.5754 10.855L10.0644 7.98181L10.9173 8.47519C10.9737 8.51872 11.0406 8.51147 11.1076 8.44617L11.9957 6.59961L12.8591 8.37724C12.9085 8.46431 12.9825 8.49696 13.0565 8.46431L13.9516 7.94553L13.3878 10.8369C13.4195 10.953 13.4759 11.011 13.6098 10.9748L14.8292 9.59618L15.1781 10.2673C15.2662 10.5176 16.6089 10.0424 16.6089 10.0424C16.5384 10.6736 16.0662 11.6713 16.3975 11.9361L16.7992 12.0849L14.4944 14.062C14.3534 14.5989 14.4908 14.7767 14.6459 15.1141L12.1367 14.8094L12.253 17.3815L11.7314 17.3996L11.7948 14.8057L9.29261 15.1322C9.44415 14.8493 9.68028 14.6933 9.50406 14.1563L7.19922 12.0704Z" fill="#D52B1E"/>
</g>
<defs>
<clipPath id="clip0_358_10583">
<rect width="24" height="24" rx="12" fill="white"/>
</clipPath>
</defs>
</svg>
