<svg width="24" height="24" viewBox="0 0 24 24" fill="none" xmlns="http://www.w3.org/2000/svg">
<g clip-path="url(#clip0_358_5487)">
<rect width="24" height="24" rx="12" fill="#EE1C25"/>
<path d="M37.7984 2.40039H2.39844V26.4004H37.7984V2.40039Z" fill="#EE1C25"/>
<path d="M8.76518 4.80078L10.8459 11.3132L5.39844 7.28832H12.1319L6.68442 11.3132L8.76518 4.80078Z" fill="#FFFF00"/>
<path d="M15.1265 3.69659L14.9295 5.97032L13.7747 4.01306L15.8402 4.90625L13.6529 5.4183L15.1265 3.69659Z" fill="#FFFF00"/>
<path d="M17.8713 6.36603L16.822 8.38382L16.5046 6.12422L18.0674 7.76254L15.8562 7.37129L17.8713 6.36603Z" fill="#FFFF00"/>
<path d="M18.1309 10.3885L16.3636 11.7955L16.9802 9.60074L17.7498 11.7449L15.8879 10.4703L18.1309 10.3885Z" fill="#FFFF00"/>
<path d="M15.0813 12.0784L14.9772 14.3585L13.7436 12.4516L15.8437 13.257L13.6792 13.8608L15.0813 12.0784Z" fill="#FFFF00"/>
</g>
<defs>
<clipPath id="clip0_358_5487">
<rect width="24" height="24" rx="12" fill="white"/>
</clipPath>
</defs>
</svg>
