<svg width="24" height="24" viewBox="0 0 24 24" fill="none" xmlns="http://www.w3.org/2000/svg">
<g clip-path="url(#clip0_358_4100)">
<rect width="24" height="24" rx="12" fill="white"/>
<path d="M25.2008 3H-1.19922V20.6H25.2008V3Z" fill="white"/>
<path d="M12.384 17.865C12.3801 17.8633 12.3767 17.8609 12.3738 17.8578L12.3701 17.8543C12.3538 17.8391 12.3383 17.823 12.3237 17.8062C12.2847 17.7618 12.2322 17.6968 12.1862 17.6394C12.0948 17.5255 12.0193 17.4274 12.0051 17.4089L11.9818 17.3786L11.754 17.3084L11.5876 17.2308L11.6765 17.1309L11.9818 17.2616L12.2096 17.3084L12.6309 17.6182L12.6306 17.6185C12.6298 17.6192 12.5693 17.6695 12.5093 17.7241C12.4825 17.7485 12.4488 17.7798 12.4249 17.8057C12.4151 17.8163 12.406 17.8275 12.3976 17.8392C12.3926 17.8475 12.3881 17.8561 12.384 17.865M10.8193 17.3951C10.6138 17.3932 10.4124 17.3368 10.2358 17.2318H10.2356V17.2315C10.2571 17.1957 10.2858 17.1647 10.32 17.1406C10.3769 17.0988 10.4796 17.0489 10.6456 17.0482H10.649C10.8455 17.0482 11.0861 17.115 11.3639 17.2468C11.1992 17.3447 11.011 17.396 10.8193 17.3951ZM9.95783 17.2041C9.92269 17.2048 9.88892 17.1906 9.86484 17.165C9.84404 17.1408 9.82973 17.1118 9.82319 17.0806C9.8138 17.0401 9.81031 16.9984 9.81289 16.9569C9.82738 16.9506 9.84293 16.9471 9.85871 16.9465H9.862C9.93565 16.9465 9.9937 17.0104 10.0186 17.0737C10.0321 17.1017 10.035 17.1337 10.0266 17.1637C10.0141 17.1898 9.98693 17.2058 9.95797 17.2039L9.95783 17.2041ZM11.4738 17.0284C10.9646 16.9557 10.7487 16.7716 10.6573 16.63C10.5995 16.544 10.5722 16.4411 10.5801 16.3378V16.3374H10.5805C10.606 16.3315 10.6322 16.3286 10.6584 16.3288C10.7939 16.3288 11.1404 16.397 11.4739 17.0282L11.4741 17.0286L11.4735 17.0283L11.4738 17.0284ZM10.4301 16.9275C10.2126 16.9275 10.0469 16.89 9.93782 16.816C9.89142 16.7863 9.85405 16.7445 9.8297 16.695C9.82081 16.6763 9.81495 16.6563 9.81228 16.6357C9.88476 16.6063 9.96188 16.5899 10.04 16.5873C10.0513 16.5868 10.0626 16.5864 10.0745 16.5864C10.2426 16.5864 10.4983 16.6413 10.7681 16.9026L10.7684 16.9029H10.768C10.656 16.9184 10.543 16.9266 10.4298 16.9275L10.4301 16.9275ZM9.37673 16.887C9.14735 16.887 8.83222 16.817 8.63569 16.6205L8.63548 16.6202H8.63607C8.78546 16.5849 8.938 16.5647 9.09141 16.5598C9.10572 16.5594 9.12016 16.5592 9.13468 16.5592C9.34975 16.5592 9.51437 16.6009 9.62401 16.6831C9.65464 16.7015 9.6774 16.7306 9.6879 16.7648C9.69034 16.79 9.67834 16.8144 9.65693 16.8278C9.60756 16.8651 9.51929 16.885 9.39454 16.887L9.37694 16.8876L9.37673 16.887ZM8.63343 16.5057C8.6053 16.5057 8.5786 16.4932 8.56071 16.4715C8.54417 16.4497 8.53302 16.4244 8.52821 16.3975C8.52073 16.3621 8.51785 16.3258 8.51967 16.2897V16.2892C8.53088 16.284 8.54305 16.2813 8.55537 16.2811C8.58415 16.2822 8.61137 16.2943 8.63132 16.3151C8.65352 16.3368 8.67045 16.3634 8.68083 16.3927C8.69121 16.4171 8.69309 16.4443 8.68611 16.47C8.67755 16.4916 8.65657 16.5057 8.63331 16.5055L8.63343 16.5057ZM10.3503 16.467C10.3152 16.4676 10.2814 16.4534 10.2573 16.4279C10.2365 16.4037 10.2222 16.3747 10.2156 16.3434C10.2062 16.3029 10.2027 16.2613 10.2053 16.2197C10.2198 16.2135 10.2354 16.21 10.2511 16.2094H10.2544C10.3281 16.2094 10.3861 16.2733 10.411 16.3366C10.4246 16.3646 10.4274 16.3966 10.419 16.4265C10.4066 16.4527 10.3793 16.4687 10.3504 16.4667L10.3503 16.467ZM9.51401 16.4324C9.0524 16.4161 8.81295 16.2849 8.69315 16.1777C8.64193 16.1328 8.59972 16.0785 8.56878 16.0179C8.55725 15.9951 8.54833 15.9711 8.54214 15.9464L8.54276 15.9461C8.57972 15.9349 8.61812 15.9292 8.65672 15.9291H8.66751C8.82319 15.9291 9.1401 15.9945 9.51384 16.4323V16.4326L9.51401 16.4324ZM10.0153 16.3857C9.64393 16.3292 9.43352 16.1697 9.32241 16.0459C9.25383 15.9723 9.2017 15.8849 9.1695 15.7896C9.20704 15.781 9.24538 15.7763 9.28389 15.7758C9.28885 15.7758 9.29401 15.7756 9.29927 15.7756C9.30452 15.7756 9.30997 15.7756 9.31549 15.7758C9.50228 15.7799 9.84155 15.8645 10.0152 16.3855H10.0155L10.0153 16.3857ZM8.10865 16.2074C7.99044 16.2078 7.87261 16.1936 7.75783 16.1654C7.56338 16.1167 7.47995 16.0425 7.44423 15.9887C7.42883 15.9665 7.41853 15.9411 7.41398 15.9144C7.41237 15.904 7.41205 15.8934 7.41307 15.8829L7.41398 15.8826C7.51442 15.8577 7.61744 15.8446 7.72093 15.8437C7.72794 15.8437 7.73501 15.8435 7.74219 15.8435C7.82653 15.8433 7.91068 15.8515 7.9934 15.8678C8.18105 15.9071 8.34825 16.0127 8.46429 16.1653V16.1655H8.46391C8.34757 16.194 8.22816 16.208 8.10839 16.2072L8.10865 16.2074ZM8.97076 15.8941C8.93577 15.895 8.90197 15.8812 8.87772 15.856C8.85686 15.8315 8.84252 15.8022 8.83606 15.7707C8.82665 15.7305 8.82319 15.6891 8.82577 15.6479C8.84026 15.6416 8.8558 15.6381 8.87159 15.6375H8.87487C8.94838 15.6375 9.00652 15.7014 9.03148 15.7648C9.04477 15.7925 9.04729 15.8242 9.03861 15.8538C9.0267 15.8801 8.99968 15.8962 8.97085 15.8942L8.97076 15.8941ZM8.32249 15.8052C8.19906 15.7703 8.08099 15.7187 7.97146 15.6519C7.80884 15.5518 7.6099 15.3747 7.58564 15.0996H7.58605C7.5984 15.097 7.61093 15.0955 7.62354 15.0951C7.62647 15.0951 7.62991 15.0949 7.63334 15.0949C7.68191 15.0949 7.78135 15.1086 7.90165 15.2C8.05477 15.3168 8.19616 15.5204 8.32258 15.8058L8.32249 15.8052ZM8.74577 15.7897C8.64504 15.7439 8.5515 15.6838 8.46802 15.6112C8.25227 15.4255 8.08413 15.1909 7.97768 14.9269C8.00426 14.9144 8.033 14.9073 8.06234 14.9058C8.06527 14.9056 8.0682 14.9055 8.07131 14.9055C8.07571 14.9055 8.08026 14.9055 8.08489 14.9058C8.15562 14.9078 8.26333 14.9372 8.38275 15.066C8.51991 15.2141 8.64235 15.4573 8.74648 15.7891L8.74677 15.7901L8.74589 15.7898L8.74577 15.7897ZM7.649 15.7577C7.50759 15.7577 7.45919 15.681 7.44493 15.648C7.43073 15.6136 7.42516 15.5763 7.42868 15.5392V15.5387C7.45171 15.5329 7.47535 15.5298 7.49908 15.5294H7.50392C7.59638 15.5272 7.68441 15.569 7.74105 15.6421C7.74853 15.6532 7.77147 15.6918 7.75249 15.7219C7.73724 15.7457 7.70262 15.7577 7.64894 15.7577L7.649 15.7577ZM7.33572 15.3625C7.22619 15.3628 7.11684 15.3534 7.00892 15.3346C6.88296 15.3117 6.81156 15.2046 6.77387 15.1188C6.74853 15.0602 6.73078 14.9985 6.72107 14.9354H6.72142C7.11103 14.9468 7.29504 15.0607 7.38078 15.1541C7.4339 15.2094 7.46702 15.2809 7.47482 15.3572H7.47456C7.47397 15.3572 7.41912 15.3625 7.33552 15.3625L7.33572 15.3625ZM7.7414 14.9572C7.74087 14.9565 7.69637 14.9014 7.65243 14.8331C7.60629 14.7614 7.56361 14.6865 7.56361 14.6253C7.56361 14.5662 7.54971 14.4415 7.54141 14.3725C7.53091 14.285 7.52029 14.21 7.51941 14.2036H7.51979C7.52967 14.2072 7.76349 14.295 7.76349 14.5143C7.76349 14.7336 7.74184 14.9547 7.74164 14.9569V14.9572H7.74134L7.7414 14.9572ZM7.43839 14.9363C7.43592 14.9363 7.43349 14.9361 7.43105 14.9357C7.36195 14.9242 7.24039 14.8714 7.10625 14.7944C6.95717 14.7089 6.83612 14.6173 6.76539 14.5365C6.70086 14.4628 6.66273 14.3471 6.65158 14.1926C6.64665 14.1226 6.64753 14.0523 6.65413 13.9824C6.6666 13.9784 6.67962 13.9764 6.69271 13.9766C6.74445 13.9774 6.79968 14.0007 6.87425 14.0521C6.94221 14.1004 7.0059 14.1546 7.06462 14.2138C7.13919 14.2879 7.20968 14.3659 7.27582 14.4476L7.27676 14.4488C7.28453 14.4627 7.35118 14.5829 7.4031 14.6998C7.42906 14.7537 7.44898 14.8102 7.46247 14.8684C7.46758 14.8854 7.46758 14.9036 7.46247 14.9206C7.4603 14.9261 7.45631 14.9308 7.45118 14.9338C7.4471 14.9355 7.4427 14.9364 7.43827 14.9364L7.43839 14.9363Z" fill="#4E5B31"/>
<path d="M11.616 17.865C11.6199 17.8633 11.6233 17.8609 11.6262 17.8578L11.6299 17.8543C11.6462 17.8391 11.6617 17.823 11.6763 17.8062C11.7153 17.7618 11.7678 17.6968 11.8138 17.6394C11.9052 17.5255 11.9807 17.4274 11.9949 17.4089L12.0182 17.3786L12.246 17.3084L12.4124 17.2308L12.3235 17.1309L12.0182 17.2616L11.7904 17.3084L11.3691 17.6182L11.3694 17.6185C11.3702 17.6192 11.4307 17.6695 11.4907 17.7241C11.5175 17.7485 11.5512 17.7798 11.5751 17.8057C11.5849 17.8163 11.594 17.8275 11.6024 17.8392C11.6074 17.8475 11.6119 17.8561 11.616 17.865M13.1807 17.3951C13.3862 17.3932 13.5876 17.3368 13.7642 17.2318H13.7644V17.2315C13.7429 17.1957 13.7142 17.1647 13.68 17.1406C13.6231 17.0988 13.5204 17.0489 13.3544 17.0482H13.351C13.1545 17.0482 12.9139 17.115 12.6361 17.2468C12.8008 17.3447 12.989 17.396 13.1807 17.3951ZM14.0422 17.2041C14.0773 17.2048 14.1111 17.1906 14.1352 17.165C14.156 17.1408 14.1703 17.1118 14.1768 17.0806C14.1862 17.0401 14.1897 16.9984 14.1871 16.9569C14.1726 16.9506 14.1571 16.9471 14.1413 16.9465H14.138C14.0643 16.9465 14.0063 17.0104 13.9814 17.0737C13.9679 17.1017 13.965 17.1337 13.9734 17.1637C13.9859 17.1898 14.0131 17.2058 14.042 17.2039L14.0422 17.2041ZM12.5262 17.0284C13.0354 16.9557 13.2513 16.7716 13.3427 16.63C13.4005 16.544 13.4278 16.4411 13.4199 16.3378V16.3374H13.4195C13.394 16.3315 13.3678 16.3286 13.3416 16.3288C13.2061 16.3288 12.8596 16.397 12.5261 17.0282L12.5259 17.0286L12.5265 17.0283L12.5262 17.0284ZM13.5699 16.9275C13.7874 16.9275 13.9531 16.89 14.0622 16.816C14.1086 16.7863 14.146 16.7445 14.1703 16.695C14.1792 16.6763 14.1851 16.6563 14.1877 16.6357C14.1152 16.6063 14.0381 16.5899 13.96 16.5873C13.9487 16.5868 13.9374 16.5864 13.9255 16.5864C13.7574 16.5864 13.5017 16.6413 13.2319 16.9026L13.2316 16.9029H13.232C13.344 16.9184 13.457 16.9266 13.5702 16.9275L13.5699 16.9275ZM14.6233 16.887C14.8527 16.887 15.1678 16.817 15.3643 16.6205L15.3645 16.6202H15.3639C15.2145 16.5849 15.062 16.5647 14.9086 16.5598C14.8943 16.5594 14.8798 16.5592 14.8653 16.5592C14.6503 16.5592 14.4856 16.6009 14.376 16.6831C14.3454 16.7015 14.3226 16.7306 14.3121 16.7648C14.3097 16.79 14.3217 16.8144 14.3431 16.8278C14.3924 16.8651 14.4807 16.885 14.6055 16.887L14.6231 16.8876L14.6233 16.887ZM15.3666 16.5057C15.3947 16.5057 15.4214 16.4932 15.4393 16.4715C15.4558 16.4497 15.467 16.4244 15.4718 16.3975C15.4793 16.3621 15.4821 16.3258 15.4803 16.2897V16.2892C15.4691 16.284 15.4569 16.2813 15.4446 16.2811C15.4159 16.2822 15.3886 16.2943 15.3687 16.3151C15.3465 16.3368 15.3296 16.3634 15.3192 16.3927C15.3088 16.4171 15.3069 16.4443 15.3139 16.47C15.3225 16.4916 15.3434 16.5057 15.3667 16.5055L15.3666 16.5057ZM13.6497 16.467C13.6848 16.4676 13.7186 16.4534 13.7427 16.4279C13.7635 16.4037 13.7778 16.3747 13.7844 16.3434C13.7938 16.3029 13.7973 16.2613 13.7947 16.2197C13.7802 16.2135 13.7646 16.21 13.7489 16.2094H13.7456C13.6719 16.2094 13.6139 16.2733 13.589 16.3366C13.5754 16.3646 13.5726 16.3966 13.581 16.4265C13.5934 16.4527 13.6207 16.4687 13.6496 16.4667L13.6497 16.467ZM14.486 16.4324C14.9476 16.4161 15.1871 16.2849 15.3068 16.1777C15.3581 16.1328 15.4003 16.0785 15.4312 16.0179C15.4428 15.9951 15.4517 15.9711 15.4579 15.9464L15.4572 15.9461C15.4203 15.9349 15.3819 15.9292 15.3433 15.9291H15.3325C15.1768 15.9291 14.8599 15.9945 14.4862 16.4323V16.4326L14.486 16.4324ZM13.9847 16.3857C14.3561 16.3292 14.5665 16.1697 14.6776 16.0459C14.7462 15.9723 14.7983 15.8849 14.8305 15.7896C14.793 15.781 14.7546 15.7763 14.7161 15.7758C14.7111 15.7758 14.706 15.7756 14.7007 15.7756C14.6955 15.7756 14.69 15.7756 14.6845 15.7758C14.4977 15.7799 14.1584 15.8645 13.9848 16.3855H13.9845L13.9847 16.3857ZM15.8913 16.2074C16.0096 16.2078 16.1274 16.1936 16.2422 16.1654C16.4366 16.1167 16.52 16.0425 16.5558 15.9887C16.5712 15.9665 16.5815 15.9411 16.586 15.9144C16.5876 15.904 16.588 15.8934 16.5869 15.8829L16.586 15.8826C16.4856 15.8577 16.3826 15.8446 16.2791 15.8437C16.2721 15.8437 16.265 15.8435 16.2578 15.8435C16.1735 15.8433 16.0893 15.8515 16.0066 15.8678C15.819 15.9071 15.6518 16.0127 15.5357 16.1653V16.1655H15.5361C15.6524 16.194 15.7718 16.208 15.8916 16.2072L15.8913 16.2074ZM15.0292 15.8941C15.0642 15.895 15.098 15.8812 15.1223 15.856C15.1431 15.8315 15.1575 15.8022 15.1639 15.7707C15.1734 15.7305 15.1768 15.6891 15.1742 15.6479C15.1597 15.6416 15.1442 15.6381 15.1284 15.6375H15.1251C15.0516 15.6375 14.9935 15.7014 14.9685 15.7648C14.9552 15.7925 14.9527 15.8242 14.9614 15.8538C14.9733 15.8801 15.0003 15.8962 15.0292 15.8942L15.0292 15.8941ZM15.6775 15.8052C15.8009 15.7703 15.919 15.7187 16.0285 15.6519C16.1912 15.5518 16.3901 15.3747 16.4144 15.0996H16.4139C16.4016 15.097 16.3891 15.0955 16.3765 15.0951C16.3735 15.0951 16.3701 15.0949 16.3667 15.0949C16.3181 15.0949 16.2186 15.1086 16.0984 15.2C15.9452 15.3168 15.8038 15.5204 15.6774 15.8058L15.6775 15.8052ZM15.2542 15.7897C15.355 15.7439 15.4485 15.6838 15.532 15.6112C15.7477 15.4255 15.9159 15.1909 16.0223 14.9269C15.9957 14.9144 15.967 14.9073 15.9377 14.9058C15.9347 14.9056 15.9318 14.9055 15.9287 14.9055C15.9243 14.9055 15.9197 14.9055 15.9151 14.9058C15.8444 14.9078 15.7367 14.9372 15.6173 15.066C15.4801 15.2141 15.3577 15.4573 15.2535 15.7891L15.2532 15.7901L15.2541 15.7898L15.2542 15.7897ZM16.351 15.7577C16.4924 15.7577 16.5408 15.681 16.5551 15.648C16.5693 15.6136 16.5748 15.5763 16.5713 15.5392V15.5387C16.5483 15.5329 16.5247 15.5298 16.5009 15.5294H16.4961C16.4036 15.5272 16.3156 15.569 16.259 15.6421C16.2515 15.6532 16.2285 15.6918 16.2475 15.7219C16.2628 15.7457 16.2974 15.7577 16.3511 15.7577L16.351 15.7577ZM16.6643 15.3625C16.7738 15.3628 16.8832 15.3534 16.9911 15.3346C17.117 15.3117 17.1884 15.2046 17.2261 15.1188C17.2515 15.0602 17.2692 14.9985 17.2789 14.9354H17.2786C16.889 14.9468 16.705 15.0607 16.6192 15.1541C16.5661 15.2094 16.533 15.2809 16.5252 15.3572H16.5254C16.526 15.3572 16.5809 15.3625 16.6645 15.3625L16.6643 15.3625ZM16.2586 14.9572C16.2591 14.9565 16.3036 14.9014 16.3476 14.8331C16.3937 14.7614 16.4364 14.6865 16.4364 14.6253C16.4364 14.5662 16.4503 14.4415 16.4586 14.3725C16.4691 14.285 16.4797 14.21 16.4806 14.2036H16.4802C16.4703 14.2072 16.2365 14.295 16.2365 14.5143C16.2365 14.7336 16.2582 14.9547 16.2584 14.9569V14.9572H16.2587L16.2586 14.9572ZM16.5616 14.9363C16.5641 14.9363 16.5665 14.9361 16.5689 14.9357C16.6381 14.9242 16.7596 14.8714 16.8938 14.7944C17.0428 14.7089 17.1639 14.6173 17.2346 14.5365C17.2991 14.4628 17.3373 14.3471 17.3484 14.1926C17.3533 14.1226 17.3525 14.0523 17.3459 13.9824C17.3334 13.9784 17.3204 13.9764 17.3073 13.9766C17.2556 13.9774 17.2003 14.0007 17.1258 14.0521C17.0578 14.1004 16.9941 14.1546 16.9354 14.2138C16.8608 14.2879 16.7903 14.3659 16.7242 14.4476L16.7232 14.4488C16.7155 14.4627 16.6488 14.5829 16.5969 14.6998C16.5709 14.7537 16.551 14.8102 16.5375 14.8684C16.5324 14.8854 16.5324 14.9036 16.5375 14.9206C16.5397 14.9261 16.5437 14.9308 16.5488 14.9338C16.5529 14.9355 16.5573 14.9364 16.5617 14.9364L16.5616 14.9363Z" fill="#4E5B31"/>
<path d="M20.1306 6.04974L20.0615 6.07725L20.0344 6.08805L19.9507 6.08344L19.8723 6.12108L19.7333 6.21609L19.7271 6.22049L19.6753 6.23401L19.6272 6.21324L19.5998 6.22568L19.5904 6.282L19.5644 6.32245L19.5324 6.34495L19.4214 6.3563L19.3278 6.40455L19.2061 6.37196L19.1495 6.39411L19.0293 6.50241L18.9678 6.53151L18.9463 6.53028L18.8649 6.52608L18.8304 6.53735L18.7791 6.58701L18.6818 6.59457L18.6515 6.61555L18.6041 6.71117L18.5526 6.76421L18.5233 6.77043L18.4914 6.75869L18.4674 6.76292L18.4566 6.82411L18.4333 6.84975L18.3682 6.87216L18.3162 6.91548L18.2706 6.93895L18.2095 6.93742H18.1954L18.1345 6.97104L18.0201 6.98107L17.9725 7.02651L17.962 7.03622L17.9397 7.04965L17.9034 7.07136L17.8946 7.07676L17.8506 7.06892L17.7992 7.08925L17.7785 7.05731L17.7429 7.07863L17.696 7.08066L17.6373 7.05458L17.5927 7.03469L17.5601 7.03941L17.5487 7.09632L17.5476 7.10236L17.5132 7.14804L17.4492 7.18684L17.4404 7.1982L17.3675 7.2923L17.229 7.43797L17.1118 7.49745L16.9904 7.53439L16.9054 7.6042L16.6824 7.7147L16.3306 7.88991L16.2586 7.91296L16.1554 7.92945L15.9712 7.99727L15.8087 8.04628L15.7997 8.04904L15.7674 8.05878L15.5383 8.12809L15.4317 8.11683L15.3686 8.13977L15.2041 8.12152L15.0897 8.12378L15.0174 8.13883L14.8814 8.20407L14.6518 8.31442L14.5759 8.38382L14.4578 8.44542L14.3195 8.48921L14.3198 8.43111L14.319 8.42864L14.271 8.44381L14.2364 8.45475L14.1241 8.47205H14.0617L14.023 8.46079L14.0171 8.46281L13.7878 8.53817L13.532 8.56287L13.404 8.60394L13.3084 8.60241L13.2486 8.62019L13.1313 8.63453L13.0894 8.62336L13.08 8.62077L12.7353 8.63574L12.5777 8.61793L12.5025 8.63503L12.3764 8.59261L12.1925 8.57129L12.1495 8.55841L12.0527 8.52972L12.009 8.55492L11.9762 8.55841L11.898 8.53005L11.8699 8.52934L11.8053 8.55281L11.7682 8.54328L11.7336 8.51576L11.6526 8.50371L11.6033 8.46223L11.3276 8.49878L11.2527 8.47678L11.0018 8.40368L10.9619 8.4057L10.912 8.44299L10.8373 8.47024L10.7724 8.4871L10.6841 8.49004L10.5814 8.46311L10.4756 8.41183L10.4365 8.40253L10.3493 8.41133L10.3226 8.41374L10.1622 8.32773L9.95568 8.19867L9.81552 8.1312L9.7629 8.12267L9.75583 8.14769L9.78194 8.22982L9.79073 8.31119L9.78807 8.38637L9.78663 8.43292L9.79971 8.47472L9.85031 8.53081L9.8714 8.58713L9.88683 8.74213L9.88666 8.89941L9.86204 9.15024L9.85374 9.18837L9.82441 9.31832L9.7976 9.43768L9.69358 9.75545L9.66501 9.79484L9.59488 9.84268L9.43592 9.95087L9.31888 10.0183L9.28183 10.0337L9.18682 10.0409L9.12763 10.0379L9.05391 9.998L8.98155 9.97938L8.88674 9.91121L8.78114 9.88938L8.66554 9.82256L8.63544 9.78639L8.57249 9.78053L8.4852 9.75433V9.75419L8.45313 9.74459L8.43099 9.73814L8.31952 9.73521L8.21568 9.68728L8.161 9.67408L8.08629 9.67029L8.00809 9.70664L7.96846 9.72509L7.91839 9.7052L7.88216 9.70746L7.84109 9.7695L7.83605 9.77897L7.80777 9.79393L7.77257 9.79343L7.74503 9.7927L7.71523 9.80572L7.6751 9.82312L7.63966 9.83858L7.62236 9.84606L7.62206 9.84576L7.61142 9.84791L7.59249 9.85119L7.56903 9.85568L7.52767 9.83151L7.50567 9.81854L7.4688 9.81103L7.44894 9.82538L7.44504 9.89284L7.42691 9.93327L7.36939 9.98413L7.31092 10.0356L7.27018 10.0957L7.16235 10.3418L7.09488 10.4411L7.07391 10.4642L7.00298 10.5422L6.94033 10.5908L6.79595 10.7027L6.65928 10.7538L6.54157 10.7779L6.48434 10.7781L6.37581 10.7637L6.27833 10.7337L6.17127 10.6668L6.05393 10.5724L5.88397 10.4045L5.85992 10.3901L5.85491 10.3867L5.80137 10.3525L5.76165 10.3535L5.74611 10.3792L5.7376 10.4162L5.73041 10.4491L5.71094 10.6358L5.71238 10.6467L5.72261 10.7236L5.85168 10.904L5.89151 10.9998L5.89806 11.0107L5.92469 11.0555L5.94496 11.0896L5.94698 11.093L5.99098 11.2247L5.95998 11.299L5.97564 11.3489L5.93645 11.3793L5.92927 11.4223L6.04516 11.5676L6.07045 11.6317L6.0422 11.7205L5.99714 11.7695L5.98456 11.7829L5.9909 11.8205L6.04422 11.8684L6.13483 11.9491L6.18315 12.069L6.2199 12.1012L6.26261 12.0921L6.28637 12.1103L6.32239 12.1097L6.35783 12.1451L6.38076 12.1562L6.41702 12.1743L6.44568 12.2116L6.45201 12.3263L6.50546 12.4689L6.50628 12.5462L6.50658 12.5571L6.53984 12.6143L6.55028 12.6594L6.53268 12.7787L6.57507 12.8171L6.62103 12.8077L6.65072 12.8124L6.69842 12.8521L6.75617 12.9401L6.81267 12.9318L6.84851 12.9491L7.02158 13.1055L7.06086 13.1254L7.06303 13.1266L7.09128 13.1408L7.12648 13.1762L7.18092 13.1401L7.18696 13.1395L7.24616 13.1342L7.27215 13.1518L7.32201 13.1855L7.38754 13.1847L7.52963 13.2282L7.59179 13.2442L7.71678 13.3219L7.7699 13.3547L7.80135 13.3803L7.84312 13.4143L7.92657 13.4502L7.99815 13.4673L8.03692 13.4766L8.06626 13.4878L8.06699 13.486H8.0674L8.0667 13.4878L8.2217 13.5472L8.30565 13.5668L8.38332 13.5954L8.43985 13.6159L8.48132 13.6166L8.53999 13.5673L8.59681 13.564L8.64401 13.5757L8.69006 13.568L8.76295 13.5231L8.77718 13.502L8.82887 13.4774L9.00322 13.4557L9.05418 13.4723L9.185 13.4154L9.27265 13.4397L9.35024 13.4122L9.51975 13.4499L9.56481 13.4816L9.61518 13.5392L9.62134 13.5395L9.67742 13.5406L9.65395 13.5796L9.72796 13.6573L9.79481 13.7583L9.79933 13.7717L9.84794 13.9144L9.88407 13.9649L9.90936 14.0354L9.91059 14.0814L9.87128 14.1114L9.86483 14.1285L9.8626 14.1349L9.87058 14.1541L9.88542 14.146L9.91367 14.1303L9.94805 14.125L10.0087 14.1315L10.0487 14.1356L10.1118 14.1043L10.1537 14.0835L10.221 14.1124L10.2949 14.1116L10.3259 14.1254L10.4139 14.1652L10.4588 14.1695L10.4753 14.1586L10.4859 14.1335L10.4805 14.1041L10.4467 14.0655L10.3725 13.9793L10.3421 13.935L10.3189 13.8709L10.3118 13.7888L10.3067 13.7335L10.3159 13.6609L10.3358 13.635L10.3505 13.5772H10.3508L10.3546 13.5621L10.3958 13.5074L10.505 13.4372L10.6224 13.3321L10.7151 13.271L10.8107 13.2295L10.8133 13.2178L10.8239 13.2221L11.0672 13.1394L11.0712 13.1389L11.1795 13.1201L11.9105 13.1715L11.9376 13.1634V13.1632L11.9619 13.0948L11.975 13.0822L11.9838 13.0739L12.0642 13.0385L12.1018 13.0332L12.2061 13.0589L12.2488 13.0694L12.3172 13.0311L12.3657 13.0319L12.466 12.9772L12.5279 12.9787L12.5514 12.9693L12.672 12.8826L12.7882 12.8494L12.8184 12.8333L12.829 12.8274L12.9481 12.7645L13.0238 12.7064L13.0891 12.6717L13.1606 12.6533L13.3477 12.6401L13.3854 12.5774L13.4658 12.5666L13.5145 12.5118L13.5702 12.4892L13.6101 12.4317L13.6435 12.3836L13.6901 12.3566L13.8397 12.3472L14.0171 12.3692L14.0405 12.3549L14.0806 12.2119L14.1225 12.1851L14.2355 12.0205L14.2359 11.9605V11.9104L14.2544 11.8391L14.2418 11.7102L14.2568 11.5798L14.327 11.4141L14.3889 11.3472L14.4886 11.2798L14.5393 11.2577L14.6112 11.2456V11.2456L14.6217 11.2438L14.64 11.2407L14.8874 11.2373C14.8908 11.2348 14.9774 11.2361 14.9774 11.2361L15.0599 11.235L15.2686 11.272L15.2834 11.2746L15.3538 11.2975L15.4352 11.3607L15.5214 11.4449L15.5375 11.4606L15.5933 11.4841L15.6101 11.4914L15.6562 11.4841L15.7218 11.4499L15.7714 11.408L15.8388 11.3712L15.8405 11.3688L15.8785 11.3117L15.8796 11.3105L15.8804 11.3107V11.3104H15.8798L15.8948 11.2876L16.0252 11.2368L16.1786 11.228L16.1959 11.2187L16.2055 11.2135L16.246 11.1659L16.284 11.1656L16.376 11.1989L16.4405 11.1861L16.4918 11.2066L16.5317 11.2019L16.607 11.1931L16.6877 11.2499L16.7348 11.2558L16.9008 11.3529L16.9094 11.3543L16.9139 11.3551L16.9234 11.3567L16.9431 11.3508L16.9724 11.3423L16.9763 11.3412L16.98 11.3463L16.9988 11.3729L17.0247 11.3766L17.0553 11.3358L17.0431 11.3172L17.0385 11.3105L16.9793 11.2984L16.926 11.2075L16.9767 11.1529L16.8972 11.0553L16.884 11.0392L16.8795 11.0323L16.852 10.9906L16.7128 10.7783L16.5314 10.6336L16.4679 10.5828L16.4675 10.5825L16.4453 10.5649L16.3485 10.4664L16.2793 10.3746L16.2703 10.3548L16.256 10.3236L16.2145 10.2333L16.1423 10.1776L16.0835 10.1133L16.0805 10.1096L15.9591 9.94453L15.9391 9.91687L15.9105 9.90029L15.8499 9.89988L15.844 9.89402L15.8406 9.89047L15.8426 9.8883L15.8717 9.8594L15.9041 9.85125L15.9181 9.81931L15.8563 9.64037L15.8558 9.63412L15.8512 9.57692L15.9016 9.31718L15.9081 9.28553L15.994 9.11076L16.0472 9.06717L16.1053 8.953L16.1551 8.88002L16.2028 8.83362L16.2111 8.82869L16.2972 8.77659L16.3695 8.76641L16.4384 8.75671L16.5586 8.79378L16.673 8.79155L16.6954 8.78918L16.7473 8.78331L16.8327 8.75641L16.873 8.73154L16.8939 8.69948L16.9375 8.55319L16.9515 8.50664L16.9784 8.45607L17.1341 8.2769L17.2517 8.16807L17.5163 7.97409L17.6458 7.89668L17.7119 7.85717L18.3023 7.59475L18.4557 7.43929L18.5356 7.35839L18.677 7.26349L18.8425 7.1957L18.9849 7.083L19.016 7.04387L19.0552 6.91774L19.0878 6.90985L19.1172 6.84608L19.1255 6.82795L19.2417 6.74605L19.2549 6.73951L19.7063 6.51335L19.7718 6.52236L19.807 6.46976L19.9384 6.44773L19.9625 6.44363L19.9948 6.42746L20.0223 6.38053V6.37126L20.0261 6.24592L20.0542 6.21204L20.0695 6.12944L20.0839 6.11037L20.0989 6.09054L20.1361 6.0644L20.1297 6.04883L20.1306 6.04974Z" fill="#D57800"/>
</g>
<defs>
<clipPath id="clip0_358_4100">
<rect width="24" height="24" rx="12" fill="white"/>
</clipPath>
</defs>
</svg>
