<svg width="24" height="24" viewBox="0 0 24 24" fill="none" xmlns="http://www.w3.org/2000/svg">
<g clip-path="url(#clip0_358_8969)">
<path d="M-6 0H30.0871V24H-6V0Z" fill="#006B3F"/>
<path d="M-6 9H30.0871V12H-6V9ZM9.78809 0H12.0435V24H9.78809V0Z" fill="#FCD116"/>
<path d="M-6 12H30.1002V15H-6V12ZM12.0501 0H14.3064V24H12.0501V0Z" fill="white"/>
<path d="M11.043 24.0072V-0.0078125H13.043V24.0072H11.043Z" fill="black"/>
<path d="M13.043 24.0072V-0.0078125H15.043V24.0072H13.043Z" fill="white"/>
<path d="M-6 11H30.0898V13H-6V11ZM11.293 0H12.7968V24H11.293V0Z" fill="black"/>
<path d="M9.04297 24.0072V-0.0078125H11.043V24.0072H9.04297Z" fill="#FFD42A"/>
<path d="M12.0195 17.9844C15.3332 17.9844 18.0195 15.2981 18.0195 11.9844C18.0195 8.67067 15.3332 5.98438 12.0195 5.98438C8.70582 5.98438 6.01953 8.67067 6.01953 11.9844C6.01953 15.2981 8.70582 17.9844 12.0195 17.9844Z" fill="#D41C30"/>
<path d="M12.0092 6.69141L12.1968 7.26874H12.8035L12.3125 7.62541L12.5002 8.20241L12.0092 7.84574L11.5182 8.20241L11.7058 7.62541L11.2148 7.26874H11.8215L12.0092 6.69141Z" fill="#006B3F" stroke="black" stroke-width="0.0666667"/>
<path d="M15.1465 7.71104L14.959 8.28842L15.4498 8.64501L14.8429 8.64495L14.6556 9.22206L14.468 8.64491L13.8612 8.64486L14.3521 8.28836L14.1646 7.71121L14.6554 8.0678L15.1465 7.71104Z" fill="#006B3F" stroke="black" stroke-width="0.0666667"/>
<path d="M17.0814 10.3785L16.5903 10.7354L16.7778 11.3124L16.2868 10.9556L15.7961 11.3124L15.9836 10.7352L15.4926 10.3785L16.0994 10.3786L16.2869 9.80145L16.4743 10.3784L17.0814 10.3785Z" fill="#006B3F" stroke="black" stroke-width="0.0666667"/>
<path d="M17.0827 13.6754L16.4756 13.6755L16.2881 14.2524L16.1006 13.6752L15.4939 13.6754L15.9848 13.3187L15.7973 12.7415L16.2881 13.0983L16.779 12.7415L16.5916 13.3185L17.0827 13.6754Z" fill="#006B3F" stroke="black" stroke-width="0.0666667"/>
<path d="M15.1425 16.3419L14.6514 15.9851L14.1606 16.3417L14.3481 15.7646L13.8572 15.4081L14.464 15.408L14.6516 14.8309L14.8389 15.408L15.4458 15.4079L14.955 15.7645L15.1425 16.3419Z" fill="#006B3F" stroke="black" stroke-width="0.0666667"/>
<path d="M12.0104 17.3633L11.8227 16.7859H11.216L11.707 16.4293L11.5194 15.8523L12.0104 16.2089L12.5014 15.8523L12.3137 16.4293L12.8047 16.7859H12.198L12.0104 17.3633Z" fill="#006B3F" stroke="black" stroke-width="0.0666667"/>
<path d="M8.873 16.3436L9.06052 15.7663L8.56971 15.4097L9.17659 15.4097L9.36391 14.8326L9.5515 15.4098L10.1584 15.4098L9.66739 15.7663L9.85497 16.3435L9.36417 15.9869L8.873 16.3436Z" fill="#006B3F" stroke="black" stroke-width="0.0666667"/>
<path d="M6.93813 13.6762L7.42922 13.3193L7.24175 12.7423L7.73268 13.0991L8.22345 12.7423L8.03597 13.3195L8.5269 13.6762L7.92015 13.6761L7.73267 14.2532L7.5452 13.6763L6.93813 13.6762Z" fill="#006B3F" stroke="black" stroke-width="0.0666667"/>
<path d="M6.93687 10.3793L7.54394 10.3792L7.73141 9.80226L7.91889 10.3794L8.52564 10.3793L8.0347 10.736L8.22219 11.3132L7.73142 10.9564L7.24048 11.3132L7.42795 10.7362L6.93687 10.3793Z" fill="#006B3F" stroke="black" stroke-width="0.0666667"/>
<path d="M8.8731 7.71084L9.36427 8.0676L9.85507 7.71101L9.66749 8.28816L10.1585 8.64466L9.5516 8.64471L9.36401 9.22186L9.17669 8.64475L8.56982 8.64481L9.06062 8.28822L8.8731 7.71084Z" fill="#006B3F" stroke="black" stroke-width="0.0666667"/>
<path d="M12.4753 13.6388C12.5434 14.6121 12.7593 15.3899 12.9577 15.376C13.156 15.3621 13.2616 14.5619 13.1935 13.5885C13.1255 12.6152 12.9095 11.8374 12.7112 11.8513C12.5129 11.8652 12.4072 12.6654 12.4753 13.6388Z" fill="#006B3F" stroke="black" stroke-width="0.0388889"/>
<path d="M12.8065 13.6357C12.8746 14.609 13.0994 15.3862 13.3088 15.3715C13.5182 15.3569 13.6327 14.556 13.5646 13.5827C13.4966 12.6093 13.2717 11.8322 13.0623 11.8468C12.853 11.8615 12.7384 12.6624 12.8065 13.6357Z" fill="#006B3F" stroke="black" stroke-width="0.0388889"/>
<path d="M12.7186 13.7253C12.7938 14.8014 12.9903 15.6644 13.1574 15.6527C13.3245 15.641 13.399 14.7591 13.3238 13.683C13.2485 12.6068 13.052 11.7438 12.8849 11.7555C12.7178 11.7672 12.6433 12.6491 12.7186 13.7253Z" fill="#006B3F" stroke="black" stroke-width="0.0388889"/>
<path d="M13.4716 14.9218C12.9349 14.9785 10.5883 15.0051 10.4883 14.9318C10.3883 14.8585 10.2383 14.5485 10.2383 14.5318C10.5449 14.5185 10.4116 14.3551 10.5683 14.2685C10.7216 14.1785 10.9416 14.2385 11.0083 14.3451C11.0749 14.4551 11.0216 14.5618 11.1049 14.5651C11.1916 14.5651 12.8583 14.4851 13.4716 14.5285C13.5716 14.5351 13.6483 14.6251 13.6483 14.7251C13.6483 14.8251 13.5716 14.9118 13.4716 14.9218Z" fill="#9C4A00" stroke="black" stroke-width="0.0388889"/>
<path d="M11.8734 14.7536C11.8701 14.987 12.2101 14.9203 12.2167 15.1136C12.2067 15.317 11.6434 15.127 11.6367 14.7503C11.6601 14.377 12.2101 14.1936 12.2167 14.407C12.2234 14.5836 11.8801 14.5236 11.8734 14.7536Z" fill="#FCD116" stroke="black" stroke-width="0.0388889"/>
<path d="M12.0726 14.7536C12.0693 14.987 12.4093 14.9203 12.4159 15.1136C12.4059 15.317 11.8426 15.127 11.8359 14.7503C11.8593 14.377 12.4093 14.1936 12.4159 14.407C12.4226 14.5836 12.0793 14.5236 12.0726 14.7536Z" fill="#FCD116" stroke="black" stroke-width="0.0388889"/>
<path d="M12.2914 14.7536C12.288 14.987 12.628 14.9203 12.6347 15.1136C12.6247 15.317 12.0614 15.127 12.0547 14.7503C12.078 14.377 12.628 14.1936 12.6347 14.407C12.6414 14.5836 12.298 14.5236 12.2914 14.7536Z" fill="#FCD116" stroke="black" stroke-width="0.0388889"/>
<path d="M12.4945 14.7536C12.4911 14.987 12.8311 14.9203 12.8378 15.1136C12.8278 15.317 12.2645 15.127 12.2578 14.7503C12.2811 14.377 12.8311 14.1936 12.8378 14.407C12.8445 14.5836 12.5011 14.5236 12.4945 14.7536Z" fill="#FCD116" stroke="black" stroke-width="0.0388889"/>
<path d="M12.1653 14.2939C12.2364 14.4616 12.3487 14.4935 12.4163 14.3652C12.4838 14.2368 12.481 13.9968 12.4099 13.8291C12.3389 13.6614 12.2265 13.6294 12.1589 13.7578C12.0914 13.8862 12.0942 14.1262 12.1653 14.2939Z" fill="#006B3F" stroke="black" stroke-width="0.0546742"/>
<path d="M11.8684 14.2743C11.9395 14.4421 12.0518 14.474 12.1194 14.3456C12.187 14.2173 12.1841 13.9773 12.113 13.8095C12.042 13.6418 11.9296 13.6099 11.8621 13.7383C11.7945 13.8666 11.7974 14.1066 11.8684 14.2743Z" fill="#006B3F" stroke="black" stroke-width="0.0546742"/>
<path d="M11.6614 13.8915C11.7324 14.0593 11.8448 14.0912 11.9124 13.9628C11.9799 13.8345 11.9771 13.5944 11.906 13.4267C11.835 13.259 11.7226 13.2271 11.655 13.3555C11.5875 13.4838 11.5903 13.7238 11.6614 13.8915Z" fill="#006B3F" stroke="black" stroke-width="0.0546742"/>
<path d="M11.9339 13.797C11.9854 14.0129 12.0917 14.1189 12.1713 14.0338C12.2509 13.9486 12.2737 13.7045 12.2222 13.4886C12.1707 13.2727 12.0644 13.1667 11.9848 13.2519C11.9051 13.337 11.8824 13.5811 11.9339 13.797Z" fill="#006B3F" stroke="black" stroke-width="0.0526804"/>
<path d="M11.8471 13.4947C11.9048 13.688 12.0127 13.7629 12.088 13.6619C12.1634 13.561 12.1778 13.3225 12.1201 13.1292C12.0624 12.936 11.9545 12.8611 11.8791 12.962C11.8037 13.063 11.7894 13.3015 11.8471 13.4947Z" fill="#006B3F" stroke="black" stroke-width="0.0536929"/>
<path d="M11.5814 13.3795C11.6391 13.5728 11.747 13.6476 11.8224 13.5467C11.8978 13.4458 11.9122 13.2073 11.8545 13.014C11.7968 12.8207 11.6889 12.7459 11.6135 12.8468C11.5381 12.9477 11.5238 13.1862 11.5814 13.3795Z" fill="#006B3F" stroke="black" stroke-width="0.0536929"/>
<path d="M11.4198 9.91992C11.4198 9.91992 10.8331 10.4266 10.8998 11.8033C10.9731 13.1899 12.1965 13.8399 12.1965 13.8399H12.3898V9.91992H11.4198Z" fill="#9461C9" stroke="black" stroke-width="0.0388889"/>
<path d="M12.6123 14.4163C12.6812 14.5414 12.7932 14.5041 12.8624 14.333C12.9317 14.1619 12.932 13.9219 12.8631 13.7968C12.7941 13.6717 12.6821 13.709 12.6129 13.8801C12.5437 14.0512 12.5434 14.2913 12.6123 14.4163Z" fill="#006B3F" stroke="black" stroke-width="0.054609"/>
<path d="M12.331 14.3441C12.4 14.4692 12.5119 14.4319 12.5812 14.2608C12.6504 14.0897 12.6507 13.8496 12.5818 13.7245C12.5129 13.5994 12.4009 13.6367 12.3316 13.8078C12.2624 13.9789 12.2621 14.219 12.331 14.3441Z" fill="#006B3F" stroke="black" stroke-width="0.054609"/>
<path d="M12.1904 13.9359C12.2593 14.061 12.3713 14.0237 12.4406 13.8526C12.5098 13.6815 12.5101 13.4414 12.4412 13.3163C12.3723 13.1912 12.2603 13.2285 12.191 13.3996C12.1218 13.5707 12.1215 13.8108 12.1904 13.9359Z" fill="#006B3F" stroke="black" stroke-width="0.054609"/>
<path d="M12.5241 14.057C12.6069 14.1355 12.7119 14.0201 12.7585 13.7993C12.8052 13.5784 12.7758 13.3358 12.693 13.2573C12.6101 13.1789 12.5052 13.2942 12.4585 13.5151C12.4119 13.7359 12.4412 13.9785 12.5241 14.057Z" fill="#006B3F" stroke="black" stroke-width="0.0521"/>
<path d="M12.9295 14.0973C13.0068 14.1914 13.1131 14.1071 13.1669 13.9088C13.2208 13.7106 13.2017 13.4736 13.1244 13.3795C13.0471 13.2853 12.9407 13.3697 12.8869 13.5679C12.8331 13.7661 12.8521 14.0031 12.9295 14.0973Z" fill="#006B3F" stroke="black" stroke-width="0.0532841"/>
<path d="M12.7342 13.9195C12.8115 14.0137 12.9178 13.9293 12.9716 13.7311C13.0254 13.5329 13.0064 13.2959 12.9291 13.2017C12.8517 13.1076 12.7454 13.1919 12.6916 13.3901C12.6378 13.5884 12.6568 13.8254 12.7342 13.9195Z" fill="#006B3F" stroke="black" stroke-width="0.0532841"/>
<path d="M12.4842 13.6734C12.5615 13.7676 12.6678 13.6832 12.7216 13.485C12.7754 13.2868 12.7564 13.0498 12.6791 12.9556C12.6017 12.8615 12.4954 12.9458 12.4416 13.1441C12.3878 13.3423 12.4068 13.5793 12.4842 13.6734Z" fill="#006B3F" stroke="black" stroke-width="0.0532841"/>
<path d="M12.2459 13.5133C12.3232 13.6074 12.4295 13.5231 12.4833 13.3249C12.5372 13.1266 12.5181 12.8896 12.4408 12.7955C12.3635 12.7013 12.2571 12.7857 12.2033 12.9839C12.1495 13.1821 12.1686 13.4191 12.2459 13.5133Z" fill="#006B3F" stroke="black" stroke-width="0.0532841"/>
<path d="M12.2091 12.4807C12.5438 13.2506 13.0177 13.7866 13.2676 13.6779C13.5175 13.5693 13.4487 12.8571 13.1139 12.0873C12.7792 11.3174 12.3053 10.7814 12.0554 10.8901C11.8055 10.9987 11.8743 11.7109 12.2091 12.4807Z" fill="#D41C30" stroke="black" stroke-width="0.0222222"/>
<path d="M12.2471 10.566C12.3599 10.566 12.4513 10.4861 12.4513 10.3875C12.4513 10.2889 12.3599 10.209 12.2471 10.209C12.1344 10.209 12.043 10.2889 12.043 10.3875C12.043 10.4861 12.1344 10.566 12.2471 10.566Z" fill="#006B3F" stroke="black" stroke-width="0.0400857"/>
<path d="M12.2198 10.3414C12.3325 10.3414 12.424 10.2615 12.424 10.1629C12.424 10.0643 12.3325 9.98438 12.2198 9.98438C12.107 9.98438 12.0156 10.0643 12.0156 10.1629C12.0156 10.2615 12.107 10.3414 12.2198 10.3414Z" fill="#006B3F" stroke="black" stroke-width="0.0400857"/>
<path d="M11.9378 10.6219C12.0436 10.6219 12.1294 10.5369 12.1294 10.432C12.1294 10.3272 12.0436 10.2422 11.9378 10.2422C11.8319 10.2422 11.7461 10.3272 11.7461 10.432C11.7461 10.5369 11.8319 10.6219 11.9378 10.6219Z" fill="#006B3F" stroke="black" stroke-width="0.0400857"/>
<path d="M11.9964 10.376C12.1022 10.376 12.188 10.2922 12.188 10.189C12.188 10.0857 12.1022 10.002 11.9964 10.002C11.8905 10.002 11.8047 10.0857 11.8047 10.189C11.8047 10.2922 11.8905 10.376 11.9964 10.376Z" fill="#006B3F" stroke="black" stroke-width="0.0400857"/>
<path d="M11.6776 10.3836C11.7973 10.3836 11.8943 10.2986 11.8943 10.1937C11.8943 10.0889 11.7973 10.0039 11.6776 10.0039C11.5579 10.0039 11.4609 10.0889 11.4609 10.1937C11.4609 10.2986 11.5579 10.3836 11.6776 10.3836Z" fill="#006B3F" stroke="black" stroke-width="0.0400857"/>
<path d="M12.0753 10.0582C12.188 10.0582 12.2794 9.97825 12.2794 9.87967C12.2794 9.78109 12.188 9.70117 12.0753 9.70117C11.9625 9.70117 11.8711 9.78109 11.8711 9.87967C11.8711 9.97825 11.9625 10.0582 12.0753 10.0582Z" fill="#006B3F" stroke="black" stroke-width="0.0400857"/>
<path d="M11.801 10.1006C11.9069 10.1006 11.9927 10.0168 11.9927 9.91356C11.9927 9.81029 11.9069 9.72656 11.801 9.72656C11.6952 9.72656 11.6094 9.81029 11.6094 9.91356C11.6094 10.0168 11.6952 10.1006 11.801 10.1006Z" fill="#006B3F" stroke="black" stroke-width="0.0400857"/>
<path d="M11.3948 10.3953C11.5006 10.3953 11.5865 10.3103 11.5865 10.2055C11.5865 10.1006 11.5006 10.0156 11.3948 10.0156C11.2889 10.0156 11.2031 10.1006 11.2031 10.2055C11.2031 10.3103 11.2889 10.3953 11.3948 10.3953Z" fill="#006B3F" stroke="black" stroke-width="0.0400857"/>
<path d="M11.4612 10.251C11.5671 10.251 11.6529 10.1672 11.6529 10.064C11.6529 9.96068 11.5671 9.87695 11.4612 9.87695C11.3553 9.87695 11.2695 9.96068 11.2695 10.064C11.2695 10.1672 11.3553 10.251 11.4612 10.251Z" fill="#006B3F" stroke="black" stroke-width="0.0400857"/>
<path d="M11.5432 10.0927C11.6491 10.0927 11.7349 10.009 11.7349 9.90575C11.7349 9.80247 11.6491 9.71875 11.5432 9.71875C11.4374 9.71875 11.3516 9.80247 11.3516 9.90575C11.3516 10.009 11.4374 10.0927 11.5432 10.0927Z" fill="#006B3F" stroke="black" stroke-width="0.0400857"/>
<path d="M12.2321 12.3044C12.6355 13.2191 13.2192 13.8473 13.5359 13.7076C13.8526 13.568 13.7823 12.7133 13.3789 11.7987C12.9755 10.884 12.3917 10.2558 12.0751 10.3955C11.7584 10.5351 11.8287 11.3898 12.2321 12.3044Z" fill="#006B3F" stroke="black" stroke-width="0.0388889"/>
<path d="M13.215 12.3898C13.2997 12.5819 13.4175 12.7159 13.4781 12.6891C13.5388 12.6624 13.5193 12.485 13.4346 12.293C13.3499 12.101 13.2321 11.967 13.1715 11.9937C13.1108 12.0205 13.1303 12.1978 13.215 12.3898Z" fill="#006B3F" stroke="black" stroke-width="0.0388889"/>
<path d="M13.2714 12.3401C13.7814 12.9634 13.7181 13.3601 13.6647 13.6934L12.9414 12.9167V12.1367L13.2714 12.3401Z" fill="#006B3F" stroke="black" stroke-width="0.0388889"/>
<path d="M13.3132 12.8437C13.8266 13.4671 13.7632 13.8637 13.7099 14.1971L12.7266 12.6737V11.6504C12.8032 11.8504 12.8032 12.2204 13.3132 12.8437Z" fill="#006B3F" stroke="black" stroke-width="0.0388889"/>
<path d="M13.3303 13.2503C13.8536 13.8603 13.797 14.2603 13.7503 14.597C13.5836 14.2136 13.4903 13.9703 12.9636 13.357C12.4403 12.7436 12.687 12.3003 12.717 12.0703C12.8003 12.267 12.807 12.637 13.3303 13.2503Z" fill="#006B3F" stroke="black" stroke-width="0.0388889"/>
<path d="M12.7647 11.8431C12.9219 12.1801 13.1385 12.4117 13.2486 12.3603C13.3588 12.309 13.3206 11.9942 13.1635 11.6571C13.0063 11.3201 12.7896 11.0885 12.6795 11.1399C12.5694 11.1912 12.6075 11.506 12.7647 11.8431Z" fill="#006B3F" stroke="black" stroke-width="0.0388889"/>
<path d="M12.5862 12.1771C12.712 12.4556 12.8928 12.6458 12.9901 12.6019C13.0875 12.5579 13.0644 12.2965 12.9386 12.018C12.8129 11.7395 12.632 11.5493 12.5347 11.5932C12.4374 11.6372 12.4605 11.8986 12.5862 12.1771Z" fill="#006B3F" stroke="black" stroke-width="0.0388889"/>
<path d="M12.3391 12.4109C12.4595 12.6918 12.6367 12.8854 12.7348 12.8433C12.833 12.8013 12.8149 12.5395 12.6945 12.2586C12.5742 11.9777 12.397 11.7841 12.2989 11.8262C12.2007 11.8682 12.2188 12.13 12.3391 12.4109Z" fill="#006B3F" stroke="black" stroke-width="0.0388889"/>
<path d="M12.5842 11.5529C12.694 11.7593 12.8436 11.8945 12.9184 11.8547C12.9931 11.8149 12.9648 11.6154 12.855 11.4089C12.7452 11.2025 12.5956 11.0674 12.5209 11.1071C12.4461 11.1469 12.4745 11.3465 12.5842 11.5529Z" fill="#006B3F" stroke="black" stroke-width="0.0388889"/>
<path d="M12.3722 11.7017C12.4688 11.9146 12.6096 12.0588 12.6867 12.0238C12.7638 11.9889 12.748 11.7879 12.6514 11.575C12.5549 11.3621 12.414 11.2178 12.3369 11.2528C12.2598 11.2878 12.2756 11.4887 12.3722 11.7017Z" fill="#006B3F" stroke="black" stroke-width="0.0388889"/>
<path d="M13.474 14.5273C13.4219 14.5273 13.3718 14.5481 13.3349 14.5849C13.2981 14.6218 13.2773 14.6719 13.2773 14.724C13.2773 14.7762 13.2981 14.8262 13.3349 14.8631C13.3718 14.9 13.4219 14.9207 13.474 14.9207" stroke="black" stroke-width="0.0388889" stroke-linecap="round"/>
<path d="M12.0781 11.5398C12.1142 11.6279 12.1534 11.7132 12.1935 11.7909C12.2337 11.8687 12.274 11.9373 12.3122 11.9929C12.3503 12.0485 12.3856 12.09 12.416 12.115C12.4463 12.14 12.4712 12.148 12.4892 12.1386C12.5071 12.1292 12.5178 12.1025 12.5206 12.0601C12.5234 12.0178 12.5182 11.9605 12.5054 11.8916C12.4926 11.8226 12.4725 11.7435 12.4461 11.6585C12.4196 11.5736 12.3875 11.4845 12.3515 11.3965" fill="#006B3F"/>
<path d="M12.0781 11.5398C12.1142 11.6279 12.1534 11.7132 12.1935 11.7909C12.2337 11.8687 12.274 11.9373 12.3122 11.9929C12.3503 12.0485 12.3856 12.09 12.416 12.115C12.4463 12.14 12.4712 12.148 12.4892 12.1386C12.5071 12.1292 12.5178 12.1025 12.5206 12.0601C12.5234 12.0178 12.5182 11.9605 12.5054 11.8916C12.4926 11.8226 12.4725 11.7435 12.4461 11.6585C12.4196 11.5736 12.3875 11.4845 12.3515 11.3965" stroke="black" stroke-width="0.0388889" stroke-linecap="round"/>
<path d="M12.3487 11.2661C12.4453 11.479 12.5861 11.6233 12.6632 11.5883C12.7404 11.5533 12.7246 11.3523 12.628 11.1394C12.5314 10.9265 12.3906 10.7823 12.3135 10.8172C12.2364 10.8522 12.2521 11.0532 12.3487 11.2661Z" fill="#006B3F" stroke="black" stroke-width="0.0388889" stroke-linecap="round"/>
<path d="M12.0919 11.3849C12.184 11.5998 12.3218 11.747 12.3996 11.7136C12.4775 11.6802 12.4659 11.479 12.3738 11.2641C12.2817 11.0492 12.1439 10.902 12.0661 10.9354C11.9883 10.9688 11.9998 11.17 12.0919 11.3849Z" fill="#006B3F" stroke="black" stroke-width="0.0388889" stroke-linecap="round"/>
<path d="M11.9102 11.0312C11.9454 11.0908 11.9826 11.148 12.0197 11.1995C12.0568 11.2511 12.093 11.2961 12.1263 11.3319C12.1595 11.3676 12.1892 11.3935 12.2136 11.408C12.238 11.4225 12.2567 11.4253 12.2685 11.4164C12.2803 11.4074 12.2851 11.3868 12.2825 11.3557C12.28 11.3246 12.2701 11.2837 12.2536 11.2352C12.237 11.1868 12.214 11.1317 12.186 11.0733C12.158 11.0148 12.1254 10.9541 12.0902 10.8945" fill="#006B3F"/>
<path d="M11.9102 11.0312C11.9454 11.0908 11.9826 11.148 12.0197 11.1995C12.0568 11.2511 12.093 11.2961 12.1263 11.3319C12.1595 11.3676 12.1892 11.3935 12.2136 11.408C12.238 11.4225 12.2567 11.4253 12.2685 11.4164C12.2803 11.4074 12.2851 11.3868 12.2825 11.3557C12.28 11.3246 12.2701 11.2837 12.2536 11.2352C12.237 11.1868 12.214 11.1317 12.186 11.0733C12.158 11.0148 12.1254 10.9541 12.0902 10.8945" stroke="black" stroke-width="0.0388889" stroke-linecap="round"/>
<path d="M12.0117 10.863C12.0432 10.9186 12.0772 10.9727 12.1118 11.0223C12.1464 11.0719 12.1808 11.116 12.2132 11.1521C12.2455 11.1882 12.2751 11.2155 12.3003 11.2325C12.3255 11.2496 12.3458 11.256 12.3601 11.2514C12.3743 11.2468 12.3822 11.2313 12.3832 11.2057C12.3843 11.1802 12.3786 11.1452 12.3664 11.1026C12.3541 11.06 12.3357 11.0108 12.312 10.9577C12.2883 10.9045 12.2599 10.8486 12.2284 10.793" fill="#006B3F"/>
<path d="M12.0117 10.863C12.0432 10.9186 12.0772 10.9727 12.1118 11.0223C12.1464 11.0719 12.1808 11.116 12.2132 11.1521C12.2455 11.1882 12.2751 11.2155 12.3003 11.2325C12.3255 11.2496 12.3458 11.256 12.3601 11.2514C12.3743 11.2468 12.3822 11.2313 12.3832 11.2057C12.3843 11.1802 12.3786 11.1452 12.3664 11.1026C12.3541 11.06 12.3357 11.0108 12.312 10.9577C12.2883 10.9045 12.2599 10.8486 12.2284 10.793" stroke="black" stroke-width="0.0388889" stroke-linecap="round"/>
<path d="M12.3984 10.9503C12.4472 11.0316 12.4988 11.1097 12.5501 11.18C12.6015 11.2504 12.6516 11.3118 12.6978 11.3606C12.7439 11.4094 12.785 11.4447 12.8188 11.4644C12.8527 11.4842 12.8786 11.4881 12.895 11.4758C12.9114 11.4636 12.918 11.4354 12.9145 11.393C12.911 11.3506 12.8974 11.2947 12.8745 11.2286C12.8516 11.1624 12.8199 11.0873 12.7811 11.0076C12.7423 10.9278 12.6972 10.8449 12.6484 10.7637" fill="#006B3F"/>
<path d="M12.3984 10.9503C12.4472 11.0316 12.4988 11.1097 12.5501 11.18C12.6015 11.2504 12.6516 11.3118 12.6978 11.3606C12.7439 11.4094 12.785 11.4447 12.8188 11.4644C12.8527 11.4842 12.8786 11.4881 12.895 11.4758C12.9114 11.4636 12.918 11.4354 12.9145 11.393C12.911 11.3506 12.8974 11.2947 12.8745 11.2286C12.8516 11.1624 12.8199 11.0873 12.7811 11.0076C12.7423 10.9278 12.6972 10.8449 12.6484 10.7637" stroke="black" stroke-width="0.0388889" stroke-linecap="round"/>
<path d="M12.1719 10.734C12.2056 10.7987 12.2418 10.8614 12.2782 10.9183C12.3147 10.9751 12.3507 11.0249 12.384 11.0646C12.4173 11.1043 12.4472 11.133 12.4718 11.1491C12.4965 11.1651 12.5154 11.1681 12.5275 11.1579C12.5395 11.1477 12.5444 11.1244 12.5418 11.0896C12.5392 11.0548 12.5293 11.0092 12.5125 10.9554C12.4958 10.9017 12.4726 10.8411 12.4444 10.7772C12.4162 10.7133 12.3836 10.6476 12.3485 10.584" fill="#006B3F"/>
<path d="M12.1719 10.734C12.2056 10.7987 12.2418 10.8614 12.2782 10.9183C12.3147 10.9751 12.3507 11.0249 12.384 11.0646C12.4173 11.1043 12.4472 11.133 12.4718 11.1491C12.4965 11.1651 12.5154 11.1681 12.5275 11.1579C12.5395 11.1477 12.5444 11.1244 12.5418 11.0896C12.5392 11.0548 12.5293 11.0092 12.5125 10.9554C12.4958 10.9017 12.4726 10.8411 12.4444 10.7772C12.4162 10.7133 12.3836 10.6476 12.3485 10.584" stroke="black" stroke-width="0.0388889" stroke-linecap="round"/>
<path d="M12.3326 10.1828C12.2359 10.2828 12.3359 10.4628 12.4226 10.5362C12.5259 10.6228 13.0926 11.2262 13.4926 10.7228C13.1726 10.7162 12.5726 9.96282 12.3326 10.1828Z" fill="#9461C9" stroke="black" stroke-width="0.0388889"/>
<path d="M12.2623 9.8879C12.1656 9.9879 12.2656 10.1679 12.3523 10.2412C12.4556 10.3279 13.0223 10.9312 13.4223 10.4279C13.1023 10.4212 12.5023 9.6679 12.2623 9.8879Z" fill="#9461C9" stroke="black" stroke-width="0.0388889"/>
<path d="M12.1724 9.60275C12.0757 9.70275 12.1757 9.88275 12.2624 9.95608C12.3657 10.0427 12.9324 10.6461 13.3324 10.1427C13.0124 10.1361 12.4124 9.38275 12.1724 9.60275Z" fill="#9461C9" stroke="black" stroke-width="0.0388889"/>
<path d="M11.9771 9.28048C11.8804 9.38048 11.9804 9.56048 12.0671 9.63381C12.1704 9.72048 12.7371 10.3238 13.1371 9.82048C12.8171 9.81381 12.2171 9.06048 11.9771 9.28048Z" fill="#9461C9" stroke="black" stroke-width="0.0388889"/>
<path d="M11.2787 8.97026C11.482 8.81693 11.8553 8.7736 12.1453 8.92026C12.3887 9.04026 12.792 9.5236 13.0953 9.64026C12.882 9.67693 12.752 9.6436 12.6153 9.58026C12.3453 9.7736 12.2487 9.8036 11.9753 9.8436C11.592 9.89693 11.2753 9.79693 11.162 9.60026C11.0487 9.41026 11.0987 9.11026 11.2787 8.97026Z" fill="#9461C9" stroke="black" stroke-width="0.0388889"/>
<path d="M11.7086 9.37526C11.8065 9.37526 11.8859 9.32929 11.8859 9.27259C11.8859 9.21589 11.8065 9.16992 11.7086 9.16992C11.6106 9.16992 11.5312 9.21589 11.5312 9.27259C11.5312 9.32929 11.6106 9.37526 11.7086 9.37526Z" fill="#D41C30" stroke="black" stroke-width="0.038498"/>
<path d="M11.7013 9.31827C11.7348 9.31827 11.762 9.29424 11.762 9.2646C11.762 9.23496 11.7348 9.21094 11.7013 9.21094C11.6678 9.21094 11.6406 9.23496 11.6406 9.2646C11.6406 9.29424 11.6678 9.31827 11.7013 9.31827Z" fill="black"/>
<path d="M10.9477 9.76531C10.9766 9.84296 11.1021 9.86793 11.2281 9.82108C11.354 9.77424 11.4327 9.67332 11.4038 9.59567C11.375 9.51802 11.2495 9.49305 11.1235 9.5399C10.9975 9.58674 10.9188 9.68766 10.9477 9.76531Z" fill="#FCD116" stroke="black" stroke-width="0.0388889"/>
<path d="M11.3245 9.40776C11.3412 9.48442 11.2845 9.59109 11.1579 9.62776C11.0312 9.68109 10.9345 9.80109 10.8779 9.99776C10.6845 9.55109 10.8079 9.36109 11.0145 9.31442C11.1912 9.25776 11.2979 9.26442 11.3245 9.40776Z" fill="#FCD116" stroke="black" stroke-width="0.0388889"/>
<path d="M11.1371 9.55151C11.161 9.55151 11.1804 9.53211 11.1804 9.50818C11.1804 9.48424 11.161 9.46484 11.1371 9.46484C11.1132 9.46484 11.0938 9.48424 11.0938 9.50818C11.0938 9.53211 11.1132 9.55151 11.1371 9.55151Z" fill="black"/>
</g>
<defs>
<clipPath id="clip0_358_8969">
<rect width="24" height="24" rx="12" fill="white"/>
</clipPath>
</defs>
</svg>
