<svg width="24" height="24" viewBox="0 0 24 24" fill="none" xmlns="http://www.w3.org/2000/svg">
<g clip-path="url(#clip0_358_14448)">
<path d="M-6 0H30V24H-6V0Z" fill="black"/>
<path d="M-6 0H30V16H-6V0Z" fill="white"/>
<path d="M-6 0H30V8H-6V0Z" fill="#CE1126"/>
<path d="M12.0344 12.0974L14.7739 14.6406L14.5789 10.0218C14.5502 9.32176 13.9419 9.48237 13.5 9.73488C13.0524 10.0218 12.5417 10.0218 12.0022 9.83235C11.4628 10.0218 10.9521 10.0218 10.5044 9.73487C10.0626 9.48238 9.45434 9.32175 9.42562 10.0218L9.23047 14.6406L12.0344 12.0974Z" fill="white" stroke="#C09300" stroke-width="0.0846906" stroke-linejoin="round"/>
<path d="M9.74123 9.85938L9.55187 14.3522L9.23047 14.6389L9.42563 10.0201C9.51739 9.95697 9.67815 9.85938 9.74123 9.85938ZM10.126 10.181L9.96535 13.9392L9.64407 14.268L9.83915 9.92837C9.90231 9.99145 10.0917 10.1464 10.126 10.1808V10.181ZM10.476 10.4678L10.3498 13.6022L10.0916 13.8546L10.2523 10.2784C10.3153 10.3415 10.4415 10.4334 10.476 10.4678ZM10.8548 10.6286L10.7286 13.3L10.4761 13.5048L10.6023 10.5311C10.6655 10.5597 10.7917 10.6286 10.8548 10.6286ZM11.2048 10.6286L11.1129 12.8549L10.8547 13.1074L10.9523 10.6573C11.0153 10.6573 11.1761 10.6573 11.2048 10.6286Z" fill="#C09300"/>
<path d="M14.2627 9.85938L14.452 14.3522L14.7734 14.6389L14.5783 10.0201C14.4865 9.95697 14.3258 9.85938 14.2627 9.85938ZM13.8779 10.181L14.0386 13.9392L14.3598 14.268L14.1648 9.92837C14.1016 9.99145 13.9122 10.1464 13.8779 10.1808V10.181ZM13.5279 10.4678L13.6541 13.6022L13.9123 13.8546L13.7516 10.2784C13.6886 10.3415 13.5624 10.4334 13.5279 10.4678ZM13.1491 10.6286L13.2753 13.3L13.5278 13.5048L13.4016 10.5311C13.3384 10.5597 13.2122 10.6286 13.1491 10.6286ZM12.7991 10.6286L12.891 12.8549L13.1492 13.1074L13.0516 10.6573C12.9886 10.6573 12.8278 10.6573 12.7991 10.6286Z" fill="#C09300"/>
<path d="M12.1292 12.6035L12.5137 14.3537L12.3874 14.4799L12.2554 14.3824L12.0373 12.8217L12.1292 14.3824L12.0029 14.543L11.8766 14.3824L11.9685 12.8217L11.7505 14.3824L11.6184 14.4799L11.4922 14.3537L11.8766 12.6035L12.1292 12.6035Z" fill="#C09300" stroke="#C09300" stroke-width="0.0715907"/>
<path d="M11.1421 11.834L10.3789 14.5422L11.4291 14.7029L11.8766 12.6659L11.1421 11.834L11.1421 11.834Z" fill="white" stroke="#C09300" stroke-width="0.0792673" stroke-linejoin="round"/>
<path d="M10.8906 12.758L10.9824 12.9817L11.4786 12.5078" stroke="#C09300" stroke-width="0.0846595" stroke-linejoin="round"/>
<path d="M11.2351 12.1973L11.3389 13.1711L11.6545 12.758M11.5283 12.9185L11.7007 13.5135M11.7683 13.2949L11.4196 13.8245M11.5283 14.3531L11.4167 13.8252L11.3193 13.2883L11.0857 13.6047L10.9832 13.2399L10.6562 13.5753L10.8225 14.1853L11.0521 13.8079L11.1783 14.1924L11.4139 13.8259" stroke="#C09300" stroke-width="0.0846595" stroke-linejoin="round"/>
<path d="M10.6016 14.4794L10.8135 14.1816L10.9517 14.6399L11.141 14.3186L11.2673 14.7032" stroke="#C09300" stroke-width="0.0846595" stroke-linejoin="round"/>
<path d="M12.8657 11.834L13.6289 14.5422L12.5787 14.7029L12.1312 12.6659L12.8657 11.834L12.8657 11.834Z" fill="white" stroke="#C09300" stroke-width="0.0792673" stroke-linejoin="round"/>
<path d="M13.1172 12.758L13.0254 12.9817L12.5292 12.5078" stroke="#C09300" stroke-width="0.0846595" stroke-linejoin="round"/>
<path d="M12.7727 12.1973L12.6689 13.1711L12.3533 12.758M12.4795 12.9185L12.3071 13.5135M12.2395 13.2949L12.5882 13.8245M12.4795 14.3531L12.5911 13.8252L12.6885 13.2883L12.9221 13.6047L13.0246 13.2399L13.3516 13.5753L13.1853 14.1853L12.9558 13.8079L12.8295 14.1924L12.5939 13.8259" stroke="#C09300" stroke-width="0.0846595" stroke-linejoin="round"/>
<path d="M13.4062 14.4794L13.1943 14.1816L13.0562 14.6399L12.8668 14.3186L12.7405 14.7032" stroke="#C09300" stroke-width="0.0846595" stroke-linejoin="round"/>
<path d="M12.0036 15.7537C12.8014 15.7537 13.5646 15.6906 14.0122 15.5643C14.2016 15.5299 14.2016 15.4324 14.2016 15.3061C14.391 15.243 14.2934 15.0193 14.4253 15.0193C14.2934 15.0538 14.2647 14.7955 14.104 14.83C14.104 14.6061 13.8802 14.5775 13.6908 14.6405C13.312 14.7668 12.6406 14.7955 12.0036 14.7955C11.3667 14.7668 10.701 14.7668 10.3165 14.6405C10.1271 14.5775 9.90339 14.6061 9.90339 14.83C9.74266 14.7955 9.71398 15.0538 9.58203 15.0193C9.71398 15.0193 9.61641 15.243 9.8058 15.3061C9.8058 15.4324 9.8058 15.5299 10.0009 15.5643C10.4427 15.6906 11.206 15.7537 12.0036 15.7537Z" fill="white" stroke="#C09300" stroke-width="0.158535" stroke-linecap="round" stroke-linejoin="round"/>
<path d="M10.918 14.5424C11.1762 14.5769 11.4631 14.6056 11.687 14.5769C11.8131 14.5769 11.905 14.7949 11.6525 14.8294C11.4288 14.858 11.0787 14.8294 10.8893 14.7949C10.7286 14.7662 10.3786 14.7031 10.1547 14.6399C9.93092 14.5425 10.0917 14.3532 10.2178 14.3818C10.413 14.4449 10.6655 14.5081 10.918 14.5425L10.918 14.5424ZM13.0872 14.5424C12.8289 14.5769 12.5421 14.6056 12.3239 14.5769C12.1919 14.5769 12.1001 14.7949 12.3526 14.8294C12.5764 14.858 12.9265 14.8294 13.1157 14.7949C13.2765 14.7662 13.6265 14.7031 13.8503 14.6399C14.0742 14.5425 13.9135 14.3532 13.7872 14.3818C13.5921 14.4449 13.3396 14.5081 13.0872 14.5424Z" fill="white" stroke="#C09300" stroke-width="0.0846595" stroke-linecap="round" stroke-linejoin="round"/>
<path d="M10.1263 14.4157C9.93122 14.3812 9.83941 14.6049 9.90259 14.7311C9.93125 14.668 10.0632 14.668 10.092 14.6049C10.1263 14.5075 10.0632 14.5075 10.1263 14.4157ZM10.8895 15.0025C10.8895 14.8764 11.0157 14.8919 11.0157 14.7656C11.0157 14.7025 10.9813 14.6049 10.9182 14.6049C10.8551 14.6049 10.7919 14.668 10.7919 14.7311C10.7632 14.8574 10.8895 14.8764 10.8895 15.0025ZM11.7979 14.6393C11.9871 14.6393 11.9684 14.8918 11.8765 15.0181C11.8765 14.9263 11.7159 14.8918 11.7159 14.8288C11.7159 14.7311 11.8609 14.7311 11.7979 14.6393ZM13.8791 14.4157C14.0742 14.3812 14.1661 14.6049 14.1029 14.7311C14.0742 14.668 13.9422 14.668 13.9135 14.6049C13.8791 14.5075 13.9423 14.5075 13.8791 14.4157ZM13.1159 15.0025C13.1159 14.8764 12.9898 14.8919 12.9898 14.7656C12.9898 14.7025 13.0242 14.6049 13.0873 14.6049C13.1504 14.6049 13.2135 14.668 13.2135 14.7311C13.2423 14.8574 13.1159 14.8764 13.1159 15.0025ZM12.2075 14.6393C12.0182 14.6393 12.037 14.8918 12.1288 15.0181C12.1288 14.9263 12.2894 14.8918 12.2894 14.8288C12.2895 14.7311 12.1444 14.7311 12.2075 14.6393Z" fill="white" stroke="#C09300" stroke-width="0.0846595" stroke-linecap="round" stroke-linejoin="round"/>
<path d="M10.1916 14.4786C10.2548 14.4786 10.3523 14.5073 10.381 14.5417L10.1914 14.4785L10.1916 14.4786ZM10.5068 14.5762C10.5413 14.5762 10.6675 14.6049 10.7306 14.6392L10.5066 14.576L10.5068 14.5762ZM11.6548 14.7022C11.5917 14.7022 11.4654 14.7022 11.4311 14.7308L11.6547 14.702L11.6548 14.7022ZM11.3048 14.7022C11.2704 14.6677 11.1441 14.6677 11.081 14.7022H11.3047H11.3048ZM13.8184 14.4786C13.7553 14.4786 13.6634 14.5073 13.629 14.5417L13.8184 14.4786ZM13.5028 14.5762C13.4684 14.5762 13.3421 14.6049 13.279 14.6392L13.503 14.576L13.5028 14.5762ZM12.3548 14.7022C12.418 14.7022 12.5442 14.7022 12.5786 14.7308L12.3546 14.702L12.3548 14.7022ZM12.7048 14.7022C12.7392 14.6677 12.8655 14.6677 12.9286 14.7022H12.7046H12.7048Z" fill="white" stroke="#C09300" stroke-width="0.0593922" stroke-linecap="round" stroke-linejoin="round"/>
<path d="M10.1379 14.9845C10.1166 14.9804 10.1053 14.9635 10.1107 14.9435C10.1173 14.9192 10.1368 14.9052 10.1552 14.9118C10.1669 14.9159 10.1884 14.9375 10.1885 14.9453C10.1886 14.9542 10.1773 14.9754 10.1724 14.9755C10.1703 14.9755 10.167 14.9773 10.1651 14.9795C10.1611 14.9843 10.1486 14.9866 10.1379 14.9845V14.9845ZM12.3351 15.1413C12.3272 15.1384 12.3145 15.1206 12.3145 15.1124C12.3146 15.0969 12.3375 15.0717 12.3517 15.0715C12.3587 15.0715 12.3779 15.0814 12.385 15.0889C12.398 15.1024 12.3952 15.1246 12.3789 15.1372C12.3708 15.1434 12.3469 15.1457 12.3351 15.1413L12.3351 15.1413ZM12.3495 15.2405C12.3327 15.2348 12.3266 15.2266 12.3252 15.208C12.3238 15.1886 12.3257 15.1855 12.3462 15.1743L12.3608 15.1664L12.3747 15.1726C12.3939 15.1811 12.4024 15.1903 12.4031 15.2032C12.4038 15.2172 12.3935 15.2314 12.3775 15.2386C12.3634 15.2449 12.3626 15.2449 12.3495 15.2405V15.2405Z" fill="#C09300"/>
<path d="M10.312 14.8047C10.2982 14.8043 10.2792 14.817 10.2683 14.8234C10.2423 14.8295 10.2121 14.8455 10.187 14.8284C10.1623 14.8208 10.1295 14.8268 10.1258 14.8572C10.1321 14.8833 10.1687 14.8982 10.1908 14.8809C10.2072 14.8594 10.252 14.8468 10.257 14.8834C10.2388 14.9111 10.2408 14.9478 10.2258 14.9772C10.2233 14.9955 10.2157 15.0129 10.2058 15.0284C10.1873 15.0303 10.1676 15.0281 10.152 15.0397C10.127 15.0411 10.1014 15.0535 10.087 15.0747C10.0709 15.0978 10.0555 15.1213 10.0508 15.1497C10.0551 15.1787 10.0883 15.187 10.1133 15.1884C10.14 15.1958 10.1667 15.2054 10.1933 15.2135C10.2367 15.2232 10.2774 15.2389 10.3208 15.2484C10.3842 15.2676 10.4507 15.2763 10.5145 15.2934C10.5212 15.2957 10.5275 15.2976 10.5345 15.2984C10.561 15.3039 10.5748 15.2751 10.577 15.2534C10.5902 15.2071 10.6002 15.1599 10.6133 15.1134C10.6223 15.0948 10.6331 15.0528 10.597 15.0622C10.5764 15.0745 10.559 15.0931 10.5333 15.0947C10.4983 15.0967 10.5183 15.1325 10.532 15.1472C10.5351 15.1707 10.5276 15.1988 10.512 15.2172C10.4912 15.2304 10.4652 15.215 10.4433 15.2097C10.4203 15.2101 10.3744 15.1984 10.3958 15.1672C10.4034 15.1441 10.4041 15.1189 10.4133 15.096C10.425 15.0714 10.4267 15.0445 10.432 15.0185C10.4176 14.9874 10.3929 15.0287 10.3733 15.0322C10.3598 15.0416 10.3091 15.0456 10.3358 15.0697C10.3588 15.0872 10.3412 15.1176 10.337 15.1397C10.3356 15.1705 10.3035 15.1779 10.2783 15.171C10.2532 15.1697 10.2182 15.151 10.2395 15.1234C10.2444 15.1004 10.2524 15.0778 10.257 15.0547C10.2665 15.0268 10.2745 15.0002 10.2845 14.9722C10.2889 14.9474 10.2978 14.9239 10.3095 14.9022C10.3102 14.8748 10.3286 14.8512 10.3283 14.8234C10.3264 14.8099 10.3203 14.805 10.312 14.8047ZM10.1683 15.0947C10.1716 15.0941 10.1739 15.0946 10.177 15.0959C10.187 15.1002 10.1873 15.1083 10.177 15.1172C10.1725 15.1211 10.1674 15.1248 10.1658 15.1247C10.1471 15.1231 10.1416 15.1203 10.1408 15.1134C10.1401 15.1074 10.142 15.1057 10.1545 15.0997C10.1608 15.0967 10.165 15.0953 10.1683 15.0947ZM10.1268 15.2955C10.107 15.2769 10.1102 15.2632 10.1395 15.2414C10.1521 15.232 10.1597 15.2331 10.1741 15.2462C10.1961 15.2663 10.197 15.2791 10.1775 15.2964C10.1679 15.3049 10.1637 15.3067 10.1524 15.3068C10.1407 15.3069 10.1374 15.3054 10.1268 15.2955ZM10.2488 15.3323C10.2443 15.3312 10.24 15.3292 10.2362 15.3264C10.2325 15.3236 10.2293 15.32 10.227 15.3159C10.2246 15.3119 10.2232 15.3073 10.2227 15.3027C10.2221 15.298 10.2226 15.2933 10.2239 15.2888C10.2291 15.2714 10.2321 15.2697 10.2575 15.2694C10.2861 15.2692 10.2917 15.2739 10.292 15.2991C10.2921 15.3133 10.291 15.3166 10.284 15.3231C10.2757 15.3308 10.2598 15.335 10.2488 15.3323V15.3323ZM13.8132 15.3355C13.8042 15.3279 13.8023 15.3245 13.8022 15.3149C13.8021 15.2985 13.8116 15.2864 13.8321 15.2772C13.8593 15.2648 13.8705 15.2665 13.8807 15.2846C13.8944 15.3086 13.8937 15.3185 13.8774 15.3347C13.8683 15.3436 13.8666 15.3441 13.846 15.3443C13.8257 15.3445 13.8234 15.3439 13.8132 15.3355ZM10.4108 15.3815C10.3963 15.3776 10.3887 15.3667 10.3886 15.3492C10.3884 15.3359 10.3894 15.3337 10.3987 15.3264C10.4047 15.3217 10.4143 15.3176 10.4218 15.3166C10.4325 15.3152 10.4364 15.3161 10.445 15.3221C10.467 15.3376 10.4717 15.3529 10.4589 15.3678C10.4454 15.3836 10.4325 15.3873 10.4108 15.3815ZM11.2876 15.4207C11.2844 15.4167 11.2773 15.4143 11.2765 15.4092C11.2778 15.387 11.2789 15.3646 11.286 15.3433C11.2898 15.3224 11.2864 15.3005 11.2937 15.2801C11.3012 15.2431 11.3012 15.2048 11.3098 15.168C11.3102 15.149 11.312 15.13 11.3175 15.1118C11.3238 15.0829 11.318 15.0527 11.3265 15.0242C11.3256 15.0135 11.338 14.9849 11.3488 15.0018C11.3645 15.0249 11.3853 15.0436 11.4056 15.0624C11.4232 15.0725 11.4071 15.0874 11.395 15.0924C11.3784 15.099 11.3743 15.1173 11.3755 15.1333C11.3732 15.1499 11.3665 15.1656 11.3658 15.1825C11.3623 15.2074 11.363 15.2327 11.3598 15.2576C11.3525 15.2819 11.3553 15.308 11.3529 15.3331C11.3532 15.349 11.3456 15.3635 11.3466 15.3795C11.3447 15.3957 11.344 15.4153 11.3304 15.4264C11.3172 15.433 11.2982 15.4319 11.2876 15.4207H11.2876ZM12.4756 15.0287C12.4563 15.0433 12.4391 15.0605 12.4219 15.0775C12.3982 15.0954 12.4413 15.1058 12.4469 15.1212C12.4532 15.1447 12.4528 15.1696 12.4544 15.1937C12.4616 15.2158 12.4647 15.2392 12.4631 15.2625C12.4611 15.2874 12.4286 15.2821 12.4144 15.2962C12.3947 15.3045 12.3869 15.3238 12.3719 15.3374C12.362 15.3568 12.3594 15.3805 12.3581 15.4025C12.3595 15.4204 12.346 15.4404 12.3581 15.4562C12.3597 15.4584 12.3615 15.4615 12.3631 15.4637C12.3672 15.4695 12.3768 15.4649 12.3831 15.4662C12.4033 15.4651 12.4243 15.4681 12.4431 15.46C12.4915 15.4516 12.5404 15.4509 12.5894 15.4487C12.6193 15.4497 12.6482 15.4392 12.6781 15.44C12.7016 15.4451 12.7122 15.4197 12.7119 15.4012C12.6986 15.3751 12.7101 15.3441 12.6994 15.3174C12.69 15.2905 12.6937 15.2603 12.6894 15.2325C12.6888 15.2105 12.661 15.2024 12.6469 15.2187C12.6332 15.2325 12.6112 15.2353 12.6006 15.2525C12.5888 15.2765 12.6257 15.2766 12.6319 15.2949C12.6389 15.3135 12.6366 15.3342 12.6381 15.3537C12.6427 15.3774 12.617 15.3788 12.6006 15.3812C12.5792 15.3893 12.549 15.3946 12.5369 15.3687C12.5292 15.3495 12.5303 15.329 12.5281 15.3087C12.5276 15.273 12.519 15.238 12.5169 15.2025C12.5148 15.1586 12.5072 15.115 12.5044 15.0712C12.504 15.053 12.5016 15.0233 12.4756 15.0287V15.0287ZM12.4506 15.3587L12.4631 15.3599L12.4644 15.3749L12.4656 15.3899L12.4494 15.3949C12.4408 15.3975 12.4332 15.3987 12.4331 15.3987C12.4306 15.3971 12.4281 15.3955 12.4256 15.3937C12.4168 15.3873 12.4191 15.3783 12.4306 15.3662C12.4371 15.3594 12.4402 15.3581 12.4506 15.3587ZM11.252 14.9875C11.2368 14.9929 11.2175 15.0152 11.202 15.015C11.1668 15.0175 11.1717 15.0518 11.197 15.0637C11.2004 15.0741 11.1972 15.0873 11.1983 15.0988C11.2032 15.1303 11.1833 15.1557 11.187 15.1875C11.1853 15.2223 11.1748 15.2562 11.1733 15.2912C11.1634 15.3274 11.1633 15.3645 11.157 15.4012C11.1529 15.4342 11.1291 15.4226 11.1083 15.4138C11.1081 15.3995 11.1072 15.3855 11.107 15.3713C11.1157 15.3386 11.0894 15.329 11.0633 15.325C11.0358 15.3276 11.0224 15.3041 11.0283 15.28C11.0401 15.266 11.0697 15.2699 11.0883 15.2675C11.1275 15.2756 11.1259 15.223 11.1058 15.205C11.092 15.1796 11.0579 15.1686 11.0483 15.1425C11.0521 15.1079 11.0291 15.0732 11.0008 15.0563C10.9572 15.0532 10.9244 15.0908 10.9083 15.1275C10.8902 15.1327 10.8721 15.1382 10.8545 15.145C10.8262 15.1521 10.7857 15.2013 10.8245 15.22C10.8463 15.226 10.9125 15.2411 10.8833 15.2712C10.8668 15.2995 10.8352 15.3 10.807 15.2925C10.7781 15.2925 10.7459 15.2784 10.747 15.245C10.7411 15.215 10.7421 15.1827 10.7283 15.155C10.7223 15.1214 10.6843 15.1293 10.682 15.16C10.6527 15.1814 10.6566 15.2159 10.677 15.2413C10.6898 15.2704 10.6772 15.3044 10.6645 15.3312C10.6569 15.3662 10.6183 15.3674 10.5908 15.3788C10.5773 15.384 10.5256 15.3756 10.5445 15.405C10.5747 15.4156 10.6106 15.4252 10.642 15.4175C10.6749 15.4134 10.7035 15.3909 10.7195 15.3625C10.7416 15.3401 10.7796 15.3518 10.8083 15.3512C10.8392 15.3512 10.8708 15.373 10.9008 15.3588C10.9095 15.3362 10.9497 15.2989 10.962 15.3375C10.9599 15.372 10.9904 15.3905 11.022 15.3863C11.0566 15.3843 11.0438 15.4107 11.0433 15.4313C11.0456 15.4686 11.0697 15.4882 11.1008 15.5038C11.1114 15.5066 11.1226 15.5056 11.1333 15.5038C11.1632 15.4943 11.1954 15.481 11.2045 15.4475C11.2167 15.4203 11.217 15.3895 11.2258 15.3613C11.2329 15.3161 11.242 15.2709 11.2433 15.225C11.2543 15.1835 11.2512 15.1396 11.2595 15.0975C11.2648 15.0662 11.2688 15.035 11.272 15.0038C11.2684 14.9871 11.2612 14.9843 11.252 14.9875ZM10.9808 15.1537C10.9868 15.1545 10.9902 15.1619 10.9908 15.175C10.9914 15.1896 10.999 15.2014 11.0083 15.2037C11.0156 15.2056 11.015 15.2133 11.007 15.2187C11.0024 15.2219 10.9942 15.2238 10.9795 15.2237C10.9564 15.2236 10.9421 15.2176 10.9295 15.205L10.922 15.1975L10.9333 15.19C10.9412 15.1838 10.9487 15.1771 10.9558 15.17C10.9672 15.1584 10.9747 15.153 10.9808 15.1537ZM13.622 14.8387C13.5993 14.8397 13.5765 14.8434 13.5558 14.8487C13.5142 14.8461 13.4933 14.8898 13.5333 14.9112C13.5573 14.9726 13.5949 14.8985 13.6333 14.9037C13.6908 14.9149 13.6956 14.977 13.7045 15.0237C13.7078 15.07 13.7211 15.115 13.7345 15.1587C13.773 15.2015 13.7057 15.2283 13.677 15.1949C13.6526 15.1684 13.6002 15.1358 13.5708 15.1724C13.5346 15.1878 13.5332 15.2361 13.5033 15.2499C13.4549 15.2647 13.4488 15.2052 13.4233 15.18C13.3998 15.147 13.3549 15.1441 13.3183 15.1324C13.3011 15.0977 13.3101 15.0386 13.2745 15.0149C13.2447 15.0271 13.19 15.083 13.2358 15.1087C13.2805 15.1471 13.2163 15.1647 13.1958 15.1912C13.1665 15.2238 13.1619 15.2686 13.157 15.31C13.1067 15.3378 13.0969 15.2784 13.0908 15.2412C13.0869 15.1967 13.0493 15.2098 13.0233 15.2262C12.9852 15.2416 12.9662 15.2778 12.9395 15.3062C12.9363 15.3321 12.941 15.3605 12.9408 15.3875C12.9494 15.4199 12.9889 15.4047 13.0133 15.4024C13.0524 15.3861 13.0685 15.4275 13.037 15.4512C13.0158 15.4782 12.9482 15.4641 12.9545 15.5074C12.9763 15.51 12.999 15.5092 13.0208 15.5074C13.0644 15.4955 13.1112 15.4648 13.1158 15.4162C13.1215 15.3739 13.1825 15.3816 13.2158 15.3724C13.2574 15.3604 13.3076 15.3574 13.317 15.4099C13.3454 15.4397 13.407 15.4733 13.4383 15.4324C13.4701 15.413 13.4853 15.3789 13.4833 15.3424C13.4768 15.3111 13.534 15.3099 13.5483 15.3274C13.5691 15.3618 13.6343 15.3516 13.6658 15.3324C13.6992 15.3078 13.7065 15.2642 13.7545 15.2637C13.8258 15.2423 13.8999 15.23 13.9695 15.2037C14.0259 15.1914 13.9611 15.1558 13.947 15.1349C13.9041 15.1137 13.8667 15.2006 13.8183 15.1574C13.7809 15.1288 13.7834 15.0744 13.7695 15.0324C13.76 14.9781 13.7624 14.9155 13.7233 14.8724C13.6964 14.8438 13.6598 14.837 13.622 14.8387ZM13.3495 15.2175C13.3546 15.2173 13.3602 15.2198 13.3695 15.2249C13.3871 15.2346 13.3996 15.2507 13.3995 15.2637C13.3995 15.2722 13.3974 15.2728 13.3845 15.2787C13.3767 15.2823 13.3677 15.2862 13.3645 15.2862C13.3573 15.2861 13.3396 15.2719 13.3395 15.2662C13.3395 15.2638 13.3372 15.2547 13.3345 15.2475C13.3298 15.2346 13.3306 15.2348 13.337 15.2262C13.3412 15.2207 13.3445 15.2176 13.3495 15.2175ZM13.6108 15.2312C13.6257 15.2302 13.6345 15.2349 13.6408 15.2462C13.6481 15.2594 13.6431 15.2694 13.6245 15.2774C13.6164 15.281 13.6083 15.2838 13.607 15.2837C13.6058 15.2836 13.5991 15.2796 13.592 15.275C13.5812 15.2678 13.5797 15.2644 13.5795 15.2562C13.5794 15.2436 13.5935 15.2323 13.6108 15.2312ZM13.2533 15.2349C13.2576 15.2343 13.2616 15.2365 13.267 15.2412C13.2742 15.2474 13.2765 15.2523 13.2783 15.2649C13.2795 15.2737 13.2793 15.285 13.2783 15.2899C13.2763 15.299 13.2761 15.2986 13.2558 15.2987C13.2302 15.2989 13.2278 15.2961 13.2283 15.2724C13.2286 15.2574 13.2287 15.2533 13.237 15.2449C13.2435 15.2385 13.2489 15.2356 13.2533 15.2349ZM13.0333 15.2925C13.0413 15.2943 13.0488 15.3003 13.0508 15.3099C13.0534 15.3227 13.0511 15.3284 13.0408 15.3337C13.0319 15.3382 13.0114 15.3397 13.0058 15.3362C13.004 15.3351 13.0002 15.3321 12.9983 15.3287C12.9956 15.3238 12.9961 15.3215 12.9995 15.3187C13.002 15.3167 13.0045 15.3139 13.0045 15.3125C13.0045 15.311 13.0072 15.3059 13.0108 15.3012C13.0166 15.2934 13.0253 15.2906 13.0333 15.2925ZM13.4033 15.3399C13.4104 15.3399 13.4164 15.3424 13.4208 15.3462C13.4282 15.3527 13.4279 15.3622 13.4195 15.3687C13.4141 15.3729 13.3847 15.3725 13.3745 15.3687C13.37 15.367 13.3683 15.3647 13.3683 15.3599C13.3682 15.3543 13.3698 15.3508 13.3795 15.3462C13.3877 15.3423 13.3962 15.34 13.4033 15.3399ZM12.7164 15.5327C12.7126 15.5302 12.7069 15.528 12.7126 15.5238C12.7196 15.5117 12.7334 15.5075 12.7456 15.503C12.7675 15.4936 12.7864 15.4774 12.8006 15.4583C12.8026 15.445 12.8175 15.4378 12.8174 15.4238C12.8176 15.4048 12.8187 15.3854 12.8141 15.3668C12.8089 15.3498 12.796 15.3367 12.781 15.3278C12.7707 15.3198 12.754 15.3176 12.7503 15.3033C12.7482 15.2896 12.7604 15.2791 12.7647 15.2669C12.7736 15.25 12.7811 15.2324 12.7907 15.2159C12.8011 15.2044 12.8171 15.2153 12.8224 15.2264C12.83 15.2375 12.8367 15.2494 12.8405 15.2623C12.8526 15.2756 12.8633 15.2911 12.8676 15.3088C12.8736 15.3212 12.8829 15.3329 12.8824 15.3474C12.8824 15.3641 12.8918 15.3789 12.8912 15.3957C12.8917 15.4181 12.8917 15.4415 12.8835 15.4626C12.8779 15.4744 12.8667 15.4814 12.8593 15.4919C12.8465 15.5038 12.8325 15.5151 12.8161 15.5214C12.8045 15.5251 12.7978 15.5384 12.7833 15.5352C12.7627 15.5355 12.7419 15.5383 12.7214 15.535C12.7227 15.5372 12.7152 15.5313 12.7164 15.5327V15.5327ZM12.4424 15.5507C12.4327 15.5407 12.4306 15.5365 12.4305 15.5267C12.4304 15.5168 12.4323 15.5129 12.4418 15.5033C12.4593 15.4855 12.4679 15.4851 12.4982 15.5004C12.5271 15.5151 12.5369 15.5164 12.5395 15.506C12.542 15.496 12.5586 15.4869 12.5744 15.4868C12.5844 15.4867 12.5901 15.4887 12.5981 15.495C12.6082 15.5028 12.6086 15.504 12.6089 15.5221C12.6091 15.5406 12.6088 15.5413 12.5973 15.5516C12.5862 15.5613 12.5844 15.5619 12.5707 15.5606C12.5532 15.5588 12.5427 15.5508 12.5398 15.537C12.5378 15.527 12.5343 15.5246 12.5316 15.5314C12.5308 15.5336 12.5265 15.5363 12.5221 15.5374C12.5139 15.5395 12.5001 15.5482 12.4903 15.5574C12.4866 15.5609 12.4801 15.5626 12.4696 15.5627C12.4553 15.5628 12.4534 15.5619 12.4424 15.5507ZM11.6496 15.1947C11.6231 15.195 11.5944 15.2173 11.5909 15.2434C11.597 15.2735 11.622 15.303 11.6059 15.3347C11.617 15.3752 11.5754 15.3906 11.5471 15.3672C11.53 15.3283 11.5214 15.2858 11.4959 15.251C11.4637 15.2418 11.4497 15.2932 11.4271 15.3109C11.4383 15.3412 11.471 15.3682 11.4746 15.4059C11.4824 15.4425 11.4602 15.4832 11.4284 15.5022C11.401 15.5284 11.3634 15.519 11.3296 15.5247C11.2887 15.5486 11.3597 15.5574 11.3784 15.5584C11.4203 15.5627 11.4638 15.5572 11.4946 15.5259C11.5254 15.5113 11.523 15.4581 11.5596 15.4522C11.6232 15.4494 11.6861 15.4619 11.7496 15.4634C11.7836 15.4716 11.8362 15.4594 11.8596 15.4847C11.8597 15.529 11.8973 15.5563 11.9334 15.5734C11.9533 15.579 11.9744 15.5543 11.9946 15.5497C12.0332 15.5374 12.0215 15.4896 12.0446 15.4709C12.1106 15.4674 12.1773 15.4681 12.2434 15.4672C12.256 15.4675 12.2597 15.4496 12.2684 15.4422C12.2669 15.4167 12.266 15.3913 12.2621 15.366C12.2494 15.3337 12.2642 15.2922 12.2409 15.2647C12.2077 15.2557 12.1794 15.286 12.1459 15.2885C12.1088 15.305 12.0776 15.3392 12.0759 15.3809C12.0539 15.4168 12.0188 15.3746 12.0309 15.3447C12.0295 15.3317 12.0337 15.3165 12.0296 15.3047C12.0094 15.2804 11.9738 15.2883 11.9459 15.2847C11.9051 15.2863 11.8654 15.2775 11.8246 15.2785C11.7889 15.2758 11.7518 15.2816 11.7171 15.2722C11.6759 15.271 11.6815 15.2307 11.6746 15.2022C11.6673 15.1968 11.6585 15.1946 11.6496 15.1947ZM11.7296 15.3422C11.7434 15.3425 11.7563 15.3443 11.7696 15.3459C11.7869 15.3488 11.8052 15.34 11.8221 15.3459C11.8612 15.3526 11.9003 15.351 11.9396 15.3547C11.95 15.3545 11.9575 15.3621 11.9646 15.3684C11.9647 15.3958 11.9647 15.4236 11.9646 15.4509C11.9634 15.4612 11.9677 15.4749 11.9584 15.4822C11.9554 15.4842 11.952 15.4865 11.9484 15.4872C11.9376 15.4844 11.9261 15.4773 11.9209 15.4672C11.9192 15.4529 11.9216 15.439 11.9221 15.4247C11.9218 15.421 11.9238 15.4152 11.9221 15.4122C11.9136 15.4062 11.904 15.4022 11.8934 15.4022C11.8594 15.401 11.8261 15.3985 11.7921 15.3972C11.7639 15.3954 11.7348 15.3996 11.7071 15.3922C11.6964 15.3883 11.6824 15.3896 11.6759 15.3784C11.6665 15.3676 11.68 15.3546 11.6896 15.3497C11.7024 15.3439 11.7159 15.3419 11.7296 15.3422L11.7296 15.3422ZM12.1809 15.3522C12.1872 15.3521 12.1892 15.3542 12.1921 15.366C12.194 15.3735 12.1961 15.3826 12.1971 15.3859C12.1986 15.3907 12.1963 15.3922 12.1896 15.3947C12.1699 15.4022 12.1502 15.4014 12.1434 15.3922C12.1403 15.388 12.1439 15.3748 12.1496 15.3697C12.1612 15.3593 12.174 15.3522 12.1809 15.3522Z" fill="#C09300"/>
<path d="M12.497 10.1241C12.5237 10.1257 12.4609 9.98137 12.4609 9.98137C12.5315 10.0535 12.7981 10.0708 12.7981 10.0708C12.6381 10.0001 12.4782 9.46693 12.497 9.04193C12.5143 8.61537 12.4359 8.44753 12.3731 8.38481C12.2931 8.30481 12.0359 8.23425 11.8665 8.22481C11.7709 8.22013 11.7865 8.29697 11.7865 8.29697C11.6093 8.25149 11.4321 8.23425 11.3521 8.28757C11.2768 8.33777 11.2611 8.58869 11.3161 8.54477C11.4493 8.43813 11.5654 8.53537 11.6454 8.65141C11.7159 8.75337 11.7113 9.04193 11.6093 9.37909C11.5027 9.73353 11.2109 10.088 11.2109 10.088C11.3693 10.088 11.5921 9.94685 11.5921 9.94685L11.5387 10.168C11.7065 10.088 11.8399 9.96409 11.8399 9.96409L11.9998 10.1319C12.0531 10.0613 12.1598 9.96409 12.1598 9.96409C12.1598 9.96409 12.2931 10.1053 12.497 10.1241Z" fill="white" stroke="#C09300" stroke-width="0.0811999"/>
<path d="M11.847 9.10314C11.847 9.10314 11.7576 9.76026 11.5898 9.9469M11.9882 9.08594C11.9882 9.08594 11.9537 9.75086 11.8377 9.96418M12.1134 9.11274C12.1134 9.11274 12.1134 9.84042 12.1574 9.9643M12.2718 9.14874C12.2718 9.14874 12.3079 9.76038 12.4585 9.9815" stroke="#C09300" stroke-width="0.0846665"/>
<path d="M11.6881 8.78449C11.6802 8.72649 11.6661 8.68096 11.6457 8.65116C11.5657 8.53513 11.4497 8.43789 11.3164 8.54453C11.3164 8.54453 11.3619 8.40337 11.4591 8.39869C11.5344 8.39397 11.7053 8.45513 11.8559 8.71233C11.8559 8.71233 11.7446 8.68725 11.7179 8.71077C11.6677 8.75468 11.6881 8.78449 11.6881 8.78449Z" fill="#C09300" stroke="#C09300" stroke-width="0.0236"/>
<path d="M11.3039 8.37066C11.3149 8.33458 11.3322 8.30166 11.3541 8.28754C11.4341 8.23422 11.6113 8.25146 11.7885 8.29694C11.7885 8.29694 11.7729 8.2201 11.8685 8.22482C12.0379 8.23422 12.2951 8.30482 12.3751 8.38478C12.3939 8.40518 12.4159 8.43498 12.4347 8.48042H12.4315C12.3923 8.42554 12.281 8.4287 12.2543 8.43182C12.2119 8.43654 12.1853 8.43494 12.1288 8.44906C12.1022 8.45534 12.0614 8.46318 12.0394 8.48042C12.0222 8.49454 12.0081 8.5463 11.9814 8.5463C11.9391 8.5463 11.9422 8.53534 11.9312 8.52278C11.9171 8.50554 11.9093 8.48042 11.8951 8.48198C11.8513 8.48986 11.7807 8.45534 11.6913 8.38478C11.6019 8.31418 11.5674 8.29694 11.4513 8.30478C11.3369 8.31418 11.3008 8.3785 11.3008 8.3785L11.3039 8.37066Z" fill="#C09300" stroke="#C09300" stroke-width="0.0236"/>
<path d="M11.9572 8.47494C11.9832 8.47494 12.0042 8.45388 12.0042 8.4279C12.0042 8.40192 11.9832 8.38086 11.9572 8.38086C11.9312 8.38086 11.9102 8.40192 11.9102 8.4279C11.9102 8.45388 11.9312 8.47494 11.9572 8.47494Z" fill="white"/>
<path d="M11.9992 13.0902C13.3049 12.086 13.1929 10.6149 13.1929 10.6149C13.1585 10.6218 13.1258 10.6252 13.0913 10.6252C12.8174 10.6252 12.1642 10.4686 12.0118 10.2695C11.8485 10.4497 11.181 10.6252 10.9088 10.6252C10.8744 10.6252 10.8399 10.6218 10.8072 10.6149C10.8072 10.6149 10.6935 12.0859 11.9992 13.0902Z" fill="white" stroke="#C09300" stroke-width="0.0766669"/>
<path d="M13.0921 10.7215C13.0808 10.7222 13.0695 10.7226 13.0582 10.7226C12.8099 10.7226 12.2334 10.5952 12.0112 10.4043C11.7784 10.5807 11.1923 10.7226 10.9481 10.7226C10.9367 10.7226 10.9254 10.7212 10.9141 10.7191C10.9136 10.7748 10.9165 10.8324 10.9199 10.8849C10.9328 11.0809 10.9672 11.2776 11.0194 11.467C11.1837 12.0628 11.5201 12.5691 12.0023 12.9532C12.4849 12.5688 12.8217 12.062 12.9863 11.4657C13.0386 11.2764 13.0731 11.0797 13.0862 10.8837C13.0892 10.8288 13.0923 10.7616 13.0921 10.7215Z" stroke="#C09300" stroke-width="0.0610669"/>
<mask id="mask0_358_14448" style="mask-type:luminance" maskUnits="userSpaceOnUse" x="10" y="10" width="4" height="3">
<path d="M13.0806 10.7299C13.0695 10.7306 13.0583 10.7309 13.0471 10.7309C12.8015 10.7309 12.2311 10.6049 12.0112 10.416C11.7809 10.5905 11.2011 10.7309 10.9595 10.7309C10.9481 10.7309 10.937 10.7296 10.9259 10.7275C10.9253 10.7825 10.9282 10.8396 10.9316 10.8915C10.9444 11.0854 10.9784 11.28 11.03 11.4674C11.1926 12.0568 11.5253 12.5577 12.0024 12.9377C12.4799 12.5574 12.8131 12.056 12.976 11.4661C13.0277 11.2789 13.0619 11.0842 13.0748 10.8903C13.0778 10.836 13.0808 10.7695 13.0806 10.7299Z" fill="white"/>
</mask>
<g mask="url(#mask0_358_14448)">
<path fill-rule="evenodd" clip-rule="evenodd" d="M10.9062 10.3906H11.6366V12.963H10.9062V10.3906Z" fill="#C09300"/>
<path fill-rule="evenodd" clip-rule="evenodd" d="M11.6367 10.3906H12.3671V12.963H11.6367V10.3906Z" fill="white"/>
<path fill-rule="evenodd" clip-rule="evenodd" d="M12.3672 10.3906H13.0975V12.963H12.3672V10.3906Z" fill="#C09300"/>
</g>
</g>
<defs>
<clipPath id="clip0_358_14448">
<rect width="24" height="24" rx="12" fill="white"/>
</clipPath>
</defs>
</svg>
