<svg width="24" height="24" viewBox="0 0 24 24" fill="none" xmlns="http://www.w3.org/2000/svg">
<g clip-path="url(#clip0_358_699)">
<path d="M-6.07422 0V24H30.2063V0H-6.07422Z" fill="#012169"/>
<path d="M-6.07422 0L30.2063 24L-6.07422 0ZM30.2063 0L-6.07422 24L30.2063 0Z" fill="black"/>
<path d="M-6.07422 0L30.2063 24M30.2063 0L-6.07422 24" stroke="white" stroke-width="7.61898"/>
<mask id="mask0_358_699" style="mask-type:luminance" maskUnits="userSpaceOnUse" x="-7" y="0" width="38" height="24">
<path d="M12.066 12H30.2063V24L12.066 12ZM12.066 12V24H-6.07422L12.066 12ZM12.066 12H-6.07422V0L12.066 12ZM12.066 12V0H30.2063L12.066 12Z" fill="white"/>
</mask>
<g mask="url(#mask0_358_699)">
<path d="M-6.07422 0L30.2063 24L-6.07422 0ZM30.2063 0L-6.07422 24L30.2063 0Z" fill="black"/>
<path d="M-6.07422 0L30.2063 24M30.2063 0L-6.07422 24" stroke="#C8102E" stroke-width="5.07932"/>
</g>
<path d="M-6.80078 8.79922H9.16265V-0.800781H14.9675V8.79922H30.931V15.1992H14.9675V24.7992H9.16265V15.1992H-6.80078V8.79922Z" fill="#C8102E" stroke="white" stroke-width="2.53966"/>
</g>
<defs>
<clipPath id="clip0_358_699">
<rect width="24" height="24" rx="12" fill="white"/>
</clipPath>
</defs>
</svg>
