<svg width="24" height="24" viewBox="0 0 24 24" fill="none" xmlns="http://www.w3.org/2000/svg">
<g clip-path="url(#clip0_358_14383)">
<path fill-rule="evenodd" clip-rule="evenodd" d="M0 0V24H36V0H0Z" fill="#3C8BDC"/>
<path d="M0 0H36V12H0V0Z" fill="#0BAC24"/>
<path d="M0 -1V26L24 12.5L0 -1Z" fill="#EB0433"/>
<path d="M5.13374 8.40044C5.07927 8.4012 5.01088 8.40958 4.93217 8.42761C4.67131 8.48733 4.42562 8.71803 4.26446 8.99197C4.21497 9.04962 4.07922 9.10128 4.01616 9.10821C4.01015 9.07213 4.03165 8.97031 4.07258 8.89326C4.10725 8.82798 4.25278 8.69392 4.41789 8.57976L4.58112 8.46689L4.36882 8.4891C3.95599 8.53219 3.6044 8.75411 3.43577 9.08021C3.392 9.16484 3.34598 9.32753 3.32602 9.46582C3.3076 9.59338 3.28734 9.67845 3.26583 9.72426C3.25431 9.74878 3.24702 9.75318 3.24702 9.75318C3.24498 9.75313 3.22499 9.73415 3.20206 9.6685C3.1666 9.56697 3.17996 9.45428 3.26181 9.23343C3.29189 9.15229 3.32212 9.05546 3.26813 9.05546C3.24459 9.05546 3.16583 9.10009 3.08688 9.14995C2.79917 9.33163 2.62483 9.67965 2.6012 10.1079C2.58983 10.3139 2.59697 10.4018 2.63627 10.4906C2.68057 10.5907 2.68909 10.6909 2.67432 10.7173C2.57914 10.6788 2.46898 10.2364 2.51848 9.99982L2.5633 9.78548L2.41965 9.91551C2.28899 10.0338 2.16668 10.2296 2.09334 10.4355C2.03875 10.5889 2.02972 10.6678 2.04079 10.8912C2.0526 11.1294 2.06784 11.189 2.16724 11.3843C2.22878 11.5051 2.33195 11.6587 2.39718 11.7255C2.49984 11.8308 2.52205 11.9105 2.49228 11.9344C2.4257 11.9101 2.2052 11.6925 2.13864 11.571C2.10239 11.5048 2.05087 11.377 2.02434 11.287L1.95416 11.0489L1.87487 11.2575C1.84109 11.3464 1.81555 11.5181 1.80616 11.713C1.79346 11.9767 1.80096 12.0593 1.85366 12.2232C1.96207 12.5604 2.24341 12.8978 2.57848 13.0933C2.71284 13.1716 2.76515 13.2252 2.76884 13.2671C2.75416 13.2661 2.73058 13.2602 2.68661 13.2455C2.43604 13.162 2.18413 12.9809 1.9711 12.7296L1.82957 12.5627L1.84876 12.7883C1.91291 13.5415 2.50502 14.2066 3.26279 14.3754C3.36779 14.3988 3.48637 14.4185 3.53004 14.4187C3.58617 14.4191 3.68771 14.4926 3.70586 14.5312C3.70134 14.5319 3.69888 14.5327 3.69195 14.5332C3.58319 14.5406 3.27874 14.5066 3.043 14.4543C2.90982 14.4248 2.70297 14.3578 2.58318 14.3055C2.48485 14.2625 2.40231 14.2334 2.37543 14.2349C2.3709 14.2352 2.35968 14.2375 2.35305 14.2449C2.34132 14.2581 2.34694 14.2699 2.35104 14.2765C2.65507 14.7686 3.20625 15.1775 3.83324 15.3773C4.22606 15.5024 4.50324 15.5385 5.15167 15.5499C5.49934 15.556 5.79649 15.5609 5.82129 15.5606C5.80511 15.5755 5.77835 15.5936 5.73573 15.6166C5.67374 15.65 5.54068 15.7361 5.43939 15.8081L5.23576 15.9527L5.31382 16.0524C5.34735 16.0953 5.37155 16.1411 5.43537 16.1137C5.48357 16.093 5.56043 16.0281 5.72584 15.8954C5.82084 15.8192 5.90065 15.7677 5.91326 15.7621C5.91815 15.798 5.89653 15.893 5.85072 15.9798C5.82876 16.0214 5.8106 16.0622 5.81081 16.0779C5.81086 16.0815 5.81112 16.091 5.82124 16.0984C5.83329 16.1073 5.91702 16.117 6.00945 16.1268L6.20887 16.1481L6.1908 15.986C6.18287 15.9149 6.18778 15.8221 6.20059 15.7803L6.21431 15.7356L6.45506 15.9511L6.46231 15.9577H6.46295C6.59283 16.0736 6.71011 16.1723 6.74665 16.1936C6.75083 16.1961 6.75867 16.2004 6.76742 16.2004C6.79319 16.2004 6.83877 16.1637 6.87531 16.1269L6.95842 16.0432L6.78637 15.8971C6.70127 15.8248 6.5442 15.7162 6.43738 15.6558C6.368 15.6165 6.3259 15.5918 6.30408 15.5754C6.30581 15.5749 6.30741 15.5744 6.30936 15.574C6.34166 15.5664 6.67324 15.5537 7.03766 15.5485C7.62922 15.5401 7.73872 15.531 8.02248 15.4663C8.41353 15.3773 8.7363 15.2543 9.00729 15.0903C9.25049 14.9432 9.51891 14.6944 9.61775 14.523L9.72569 14.3359L9.5105 14.4372C9.33097 14.5218 9.16663 14.559 8.87629 14.5793C8.74655 14.5883 8.57723 14.602 8.49992 14.6098C8.39102 14.6206 8.38811 14.6133 8.38811 14.6055C8.38811 14.5693 8.50113 14.5132 8.68485 14.4911C8.89534 14.4657 9.18894 14.3629 9.37656 14.2492C9.80538 13.9892 10.124 13.4419 10.1255 12.9627L10.1262 12.7472L10.0292 12.8794C9.89781 13.0586 9.4451 13.3693 9.32802 13.3693C9.29766 13.3693 9.29676 13.3624 9.31201 13.3381C9.32657 13.315 9.35595 13.2857 9.40143 13.2536C9.7401 13.0153 10.0217 12.6693 10.1423 12.3419C10.2215 12.1269 10.2198 11.6392 10.14 11.3831L10.0596 11.125L9.98525 11.3615C9.91588 11.5824 9.66854 11.9748 9.56427 12.0501C9.55342 12.0579 9.54843 12.0595 9.54703 12.0595C9.51905 12.0608 9.5394 11.952 9.64944 11.815C9.88441 11.5225 9.96891 11.2621 9.93839 10.9209C9.9165 10.6762 9.79372 10.3786 9.62397 10.1571L9.46985 9.956L9.44727 10.3088C9.42986 10.5809 9.38528 10.78 9.34002 10.8409C9.33054 10.8536 9.32494 10.8548 9.32494 10.8548C9.32494 10.8548 9.32274 10.8544 9.31872 10.8506C9.29276 10.8261 9.29099 10.7356 9.33341 10.4817C9.41458 9.99591 9.22341 9.52933 8.81904 9.22672C8.75973 9.18234 8.70268 9.1455 8.68073 9.14231C8.67614 9.14164 8.66419 9.14109 8.65522 9.15004C8.64854 9.15671 8.64741 9.16719 8.64733 9.1704C8.64677 9.19542 8.66736 9.28806 8.69552 9.39154C8.74787 9.58386 8.7548 9.75511 8.72623 9.80963C8.72082 9.81996 8.71614 9.82074 8.71614 9.82074C8.71614 9.82074 8.71876 9.82209 8.71521 9.8187C8.69518 9.79958 8.66707 9.72878 8.62951 9.58844C8.59243 9.4499 8.5295 9.27251 8.48905 9.19372C8.3474 8.91779 8.03407 8.67015 7.72153 8.58707C7.59496 8.55342 7.52724 8.53534 7.5032 8.53765C7.4946 8.53847 7.47716 8.54409 7.4747 8.56171C7.47132 8.58599 7.50849 8.61054 7.55154 8.64306C7.77908 8.81494 7.96148 9.05297 7.93824 9.1102C7.93273 9.12377 7.91949 9.13156 7.85665 9.12033C7.81939 9.11367 7.79261 9.10494 7.76884 9.09386C7.76589 9.08373 7.7616 9.0736 7.75596 9.06355C7.59616 8.77907 7.3255 8.56006 7.05783 8.49877C6.74299 8.42669 6.59255 8.50886 6.84269 8.61636C6.97143 8.67164 7.05406 8.75445 7.05406 8.82811C7.05406 8.86873 7.02557 8.85675 6.94167 8.78072C6.69345 8.55611 6.13826 8.49039 6.28904 8.70349C6.37069 8.81896 6.50728 8.87852 6.78138 8.91811C7.04328 8.95597 7.10465 8.98154 6.97056 8.99692C6.77979 9.01876 6.69605 9.01274 6.61315 8.9711C6.45118 8.8897 6.44283 8.93948 6.59361 9.08697C6.79098 9.27996 6.97757 9.35308 7.22787 9.33541C7.436 9.3207 7.57362 9.29023 7.65865 9.25147C7.70643 9.25312 7.74818 9.26813 7.83388 9.3052C7.93562 9.34921 7.98388 9.38941 7.98388 9.40052C7.98388 9.41243 7.97428 9.42103 7.7231 9.41107C7.56541 9.40482 7.41511 9.38905 7.39076 9.37873C7.36998 9.36992 7.34746 9.35971 7.33032 9.36855C7.29801 9.38522 7.32275 9.42409 7.34844 9.47104C7.42112 9.60384 7.60871 9.76128 7.79185 9.84651C7.93944 9.9152 7.99739 9.92458 8.28062 9.92569C8.57048 9.92683 8.59252 9.93242 8.6536 9.98663C8.6927 10.0213 8.72021 10.0674 8.72021 10.0864C8.72021 10.107 8.72725 10.1116 8.57887 10.097C8.43129 10.0826 8.19795 10.0296 8.08139 9.98437C8.06897 9.97954 8.04908 9.97599 8.0357 9.99145C8.02649 10.0021 8.02737 10.0174 8.02943 10.0267C8.04511 10.0973 8.21592 10.327 8.34213 10.4368C8.5103 10.5833 8.87125 10.7647 9.05279 10.7925C9.12855 10.8042 9.14653 10.8179 9.19398 10.9193C9.22603 10.9877 9.2504 11.0566 9.2504 11.0729C9.2504 11.089 9.20931 11.0937 9.19638 11.0739C9.18033 11.0494 9.10032 11.0294 9.02291 11.0184C8.86853 10.9965 8.71983 10.9311 8.58827 10.8265L8.49502 10.7524L8.45506 10.7795L8.51393 10.9205C8.6373 11.2163 8.66907 11.2751 8.79729 11.4449C8.93346 11.6252 9.17316 11.8464 9.32567 11.9315C9.38796 11.9663 9.3976 11.9824 9.39722 12.0702C9.397 12.1246 9.39084 12.1654 9.38062 12.1929C9.36786 12.2271 9.35652 12.2303 9.33934 12.2187C9.3165 12.2033 9.22002 12.1389 9.12478 12.0756C8.93184 11.9472 8.85271 11.8707 8.78759 11.754L8.74097 11.6705L8.69312 11.6815L8.69219 11.8624C8.69024 12.2318 8.81329 12.6859 8.98751 12.9497C9.16823 13.2233 9.16768 13.2302 9.08942 13.3974C9.0605 13.4592 9.03579 13.4972 9.01439 13.5168C9.00448 13.5259 8.99838 13.5271 8.99838 13.5271C8.99722 13.5269 8.98785 13.5195 8.98055 13.484C8.97314 13.4478 8.92707 13.3688 8.87869 13.3024C8.74728 13.1219 8.67855 12.9527 8.65546 12.7546L8.62373 12.4823L8.52274 12.694C8.39408 12.9637 8.3543 13.2294 8.3504 13.8234L8.34678 14.3702L8.24178 14.4842C8.16208 14.5708 8.09607 14.627 8.04907 14.6539C8.02295 14.6688 8.01111 14.6688 8.01008 14.6688C8.00965 14.6668 8.00925 14.6639 8.00964 14.6589C8.01081 14.6443 8.0171 14.6224 8.031 14.5913C8.05585 14.5356 8.08265 14.3507 8.09476 14.174C8.10792 13.9819 8.14044 13.7863 8.1764 13.6801C8.20659 13.5909 8.22874 13.509 8.22763 13.485C8.22745 13.4812 8.22753 13.4728 8.2191 13.4648C8.20374 13.4503 8.18324 13.4582 8.17292 13.4634C8.09334 13.5031 7.80771 13.7885 7.64601 13.9911C7.54128 14.1223 7.37614 14.3765 7.27895 14.556C7.08675 14.9109 7.0057 15.0144 6.86488 15.0966C6.79057 15.14 6.3383 15.323 6.28076 15.3372C6.27488 15.2756 6.26546 15.1118 6.25711 14.916C6.24007 14.5164 6.22011 14.3448 6.1642 14.1212C6.15647 14.0903 6.15876 14.0838 6.20681 14.0724C6.25657 14.0606 6.38445 13.962 6.49502 13.856L6.68445 13.6746L6.81282 13.7122C7.12159 13.8028 7.53652 13.7095 7.73607 13.5025C7.81553 13.42 7.91497 13.2893 7.93153 13.2486C7.93354 13.2437 7.93641 13.2328 7.93422 13.225C7.92752 13.2012 7.90326 13.2043 7.89279 13.209C7.87771 13.2158 7.79191 13.255 7.70179 13.2961C7.54335 13.3685 7.43126 13.3956 7.38948 13.3896C7.38849 13.3895 7.3886 13.3893 7.38782 13.3892C7.39507 13.3721 7.42913 13.3387 7.51025 13.288C7.66195 13.1933 7.82747 12.9987 7.88011 12.8512C7.89798 12.8012 7.92558 12.7291 7.87878 12.7291C7.86554 12.7291 7.81187 12.7498 7.75366 12.7728C7.69832 12.7946 7.59611 12.8126 7.52607 12.8127C7.34971 12.8127 7.23061 12.8541 7.14569 12.9515C7.11007 12.9924 7.07484 13.0036 7.0571 13.0004C7.04567 12.9984 7.03202 12.9867 7.04334 12.9468C7.05372 12.9102 7.06195 12.8375 7.06219 12.7848C7.06247 12.7203 7.08206 12.6847 7.16401 12.6138L7.27376 12.5189L7.24824 12.4786L7.15118 12.5105C6.94899 12.5771 6.77207 12.7166 6.68259 12.8813C6.60641 13.0216 6.59787 13.0659 6.60928 13.2554C6.61761 13.3937 6.60916 13.4805 6.58587 13.5236C6.53738 13.6134 6.34618 13.775 6.20334 13.8439C6.09318 13.897 6.10735 13.89 6.08957 13.8586C5.98362 13.6715 5.82388 12.9548 5.82849 12.6839C5.83292 12.4234 5.84772 12.405 5.99564 12.3693C6.07694 12.3497 6.20202 12.294 6.27317 12.2457C6.40829 12.1541 6.58032 12.1384 6.70067 12.2034C6.89818 12.31 7.28822 12.2155 7.48097 12.0217C7.52955 11.9728 7.56816 11.936 7.55017 11.9102C7.5305 11.8819 7.48065 11.9082 7.41911 11.9385C7.32624 11.9843 7.17405 11.9894 7.05 11.9485C6.99725 11.9312 6.97802 11.914 6.97668 11.9093C6.97668 11.9093 7.00181 11.8873 7.09216 11.8759C7.26393 11.8542 7.45659 11.7407 7.58543 11.5875C7.63509 11.5284 7.68117 11.4737 7.68117 11.4584C7.68117 11.4287 7.66202 11.4342 7.6559 11.4339C7.63973 11.4329 7.59317 11.4466 7.53954 11.464C7.45525 11.4914 7.41756 11.4909 7.29105 11.4569C7.13871 11.416 7.1165 11.4169 6.99652 11.476C6.93932 11.5041 6.9058 11.5203 6.88638 11.5265C6.88628 11.5265 6.88618 11.5265 6.88608 11.5266C6.88593 11.5231 6.88583 11.5195 6.88583 11.5147C6.88583 11.4857 6.91592 11.4455 7.06351 11.3017L7.16959 11.1985H7.02379C6.8848 11.1985 6.67656 11.3065 6.60472 11.4163C6.57056 11.4685 6.50881 11.5975 6.46657 11.7037C6.36484 11.9597 6.27706 12.0597 6.09412 12.1361C6.00704 12.1725 5.92432 12.2004 5.91708 12.2004C5.90897 12.2004 5.91464 12.142 6.05695 11.8925C6.22299 11.6015 6.3545 11.3104 6.41289 11.1034C6.45772 10.9445 6.49285 10.9009 6.68053 10.781C6.81218 10.6968 6.82414 10.694 6.99157 10.7087C7.27689 10.7339 7.43233 10.7028 7.58004 10.5833C7.63102 10.5421 7.66873 10.505 7.68959 10.477C7.7341 10.4172 7.70274 10.3764 7.62387 10.4075C7.53239 10.4436 7.33208 10.4715 7.29672 10.4587C7.26884 10.4486 7.2686 10.4378 7.27047 10.433C7.27451 10.4229 7.29407 10.406 7.33571 10.3973C7.47623 10.3682 7.74004 10.1176 7.74004 10.004C7.74004 9.97483 7.72293 9.95032 7.68616 9.96229C7.67335 9.96647 7.65547 9.97678 7.63464 9.99057C7.59896 10.0142 7.51862 10.0295 7.4148 10.0295C7.25159 10.0295 7.22625 10.0384 7.14383 10.136C7.11347 10.1719 7.08783 10.1955 7.06924 10.2105C7.06586 10.1954 7.06258 10.1772 7.06258 10.1521C7.06258 10.0867 7.08457 10.0436 7.16885 9.95989L7.32292 9.80691H7.18428C7.06435 9.80691 6.90081 9.91986 6.8349 10.0427C6.8042 10.0999 6.76701 10.2391 6.75066 10.3533C6.72601 10.5255 6.70883 10.5642 6.6321 10.639C6.55738 10.7118 6.51602 10.7277 6.51206 10.7254C6.51206 10.7254 6.50493 10.7098 6.5152 10.6638C6.60683 10.2525 6.60008 10.0729 6.47979 9.75549C6.41122 9.57455 6.41208 9.56907 6.45315 9.4877C6.48062 9.43326 6.50284 9.33333 6.50266 9.26628C6.50233 9.13621 6.39383 8.8819 6.30696 8.814C6.27907 8.79219 6.23916 8.77697 6.22503 8.82728C6.21729 8.8548 6.2165 8.90917 6.2165 9.00645C6.2165 9.1984 6.21153 9.19456 6.18301 9.19456C6.15816 9.19456 6.14846 9.18392 6.14843 9.18308C6.14749 9.15269 6.06816 9.06011 5.97937 8.9711L5.79053 8.78174L5.74513 8.89442C5.70042 9.00553 5.73206 9.10951 5.84097 9.23884C5.87764 9.28238 5.901 9.31533 5.91238 9.33852C5.92484 9.36393 5.92183 9.3615 5.91066 9.36147C5.87285 9.36135 5.69582 9.26076 5.64885 9.20682C5.635 9.19093 5.62082 9.17433 5.60394 9.17346C5.55991 9.17118 5.57395 9.22043 5.58371 9.26318C5.63131 9.47166 5.86742 9.63944 6.13281 9.65994C6.36124 9.67758 6.37934 9.70105 6.37601 10.1925C6.37375 10.5263 6.36271 10.6051 6.27018 10.9462C6.21293 11.1572 6.15751 11.3332 6.15548 11.3351C6.13229 11.357 6.00832 11.3008 5.83397 11.1467L5.65115 10.9851L5.65374 10.824C5.65537 10.7226 5.63645 10.602 5.60785 10.5379C5.56638 10.4449 5.32869 10.1796 5.2452 10.126C5.23554 10.1198 5.22109 10.113 5.21043 10.113C5.15469 10.113 5.18997 10.1934 5.22032 10.2519C5.24916 10.3075 5.28121 10.4045 5.29168 10.4677C5.30712 10.5609 5.30112 10.5583 5.2904 10.5583C5.27849 10.5583 5.25793 10.5433 5.24981 10.5191C5.21837 10.4255 5.06556 10.3635 4.90469 10.3635C4.79939 10.3635 4.77174 10.3523 4.69929 10.2805L4.54517 10.1277L4.58444 10.2953C4.62784 10.4803 4.73311 10.6343 4.88054 10.725C4.98186 10.7874 5.00584 10.822 5.00405 10.825C4.99769 10.8357 4.93551 10.8472 4.79915 10.8417L4.51833 10.8305L4.63312 10.9483C4.77553 11.0943 4.92322 11.1338 5.29604 11.1345L5.62196 11.1351L5.80512 11.287C6.05144 11.4913 6.05942 11.5212 5.97702 11.6446C5.66663 12.1091 5.52142 12.6523 5.60658 13.0437C5.63564 13.1772 5.6352 13.2357 5.62828 13.2399C5.62437 13.2423 5.57636 13.2168 5.47788 13.1256C5.26619 12.9296 5.24672 12.8892 5.22914 12.6108C5.20697 12.2597 5.08288 12.0731 4.78436 11.9492C4.72269 11.9236 4.67892 11.9071 4.65428 11.9004C4.61493 11.8897 4.57331 11.9076 4.61295 11.9465C4.62113 11.9545 4.63674 11.966 4.65742 11.9797C4.68765 11.9997 4.72496 12.0524 4.73994 12.0991C4.79388 12.2673 4.7923 12.3518 4.78034 12.358C4.77842 12.3589 4.74824 12.3484 4.69302 12.2833C4.60877 12.1841 4.58074 12.1725 4.43478 12.1725C4.24356 12.1725 4.11124 12.135 4.03074 12.0635L3.91904 11.9644V12.0814C3.91904 12.2594 4.20651 12.5701 4.45697 12.6753C4.52434 12.7036 4.56711 12.741 4.56711 12.7434C4.56711 12.7434 4.56691 12.7433 4.56108 12.746C4.51936 12.7655 4.39129 12.7593 4.29795 12.7201C4.1707 12.6666 4.02938 12.6243 3.98593 12.6282C3.97973 12.6288 3.96897 12.6311 3.96179 12.6379C3.95075 12.6483 3.95159 12.6621 3.95341 12.6704C3.96545 12.7246 4.10331 12.8781 4.18751 12.9342C4.48204 13.1302 4.79185 13.179 5.04108 13.0618L5.15235 13.0095L5.28384 13.1397C5.34712 13.2024 5.40036 13.261 5.41818 13.2862C5.41859 13.2868 5.41895 13.2874 5.4193 13.2879C5.41963 13.2884 5.41991 13.2888 5.42018 13.2892C5.42044 13.2896 5.42066 13.29 5.42087 13.2903C5.42105 13.2906 5.42125 13.2909 5.42141 13.2912C5.42154 13.2914 5.42164 13.2916 5.42175 13.2918C5.42185 13.2919 5.42198 13.2921 5.42205 13.2922L5.42126 13.2867C5.42126 13.3131 5.49403 13.3715 5.57117 13.4271C5.72641 13.539 5.77237 13.607 5.77373 13.7061C5.77439 13.7542 5.81272 13.8746 5.85762 13.9791C5.93858 14.1675 5.9367 14.1584 5.92927 14.7823C5.92569 15.0829 5.91824 15.3286 5.91233 15.3889C5.82361 15.3633 5.49607 15.1985 5.36553 15.108C5.20849 14.999 5.03575 14.7938 4.85131 14.4944C4.5271 13.9681 4.30502 13.7111 3.99573 13.5085C3.95031 13.4788 3.91118 13.4585 3.88637 13.4507C3.85502 13.4409 3.81512 13.4506 3.82936 13.4902C3.83362 13.502 3.84615 13.5188 3.86276 13.536C3.89893 13.5736 3.95319 13.8161 3.97952 14.097C3.99353 14.2466 4.02525 14.4085 4.05435 14.4616C4.0962 14.5381 4.08665 14.566 4.05876 14.566C4.05626 14.566 3.97722 14.5104 3.89264 14.4348L3.7463 14.3041L3.74204 13.9163C3.73659 13.4203 3.62019 12.8104 3.4839 12.578C3.47498 12.5627 3.46683 12.5494 3.45976 12.5414C3.43582 12.5142 3.40735 12.5252 3.39678 12.5567C3.39016 12.5764 3.38473 12.6129 3.37675 12.6699C3.35457 12.8283 3.27125 13.0286 3.19834 13.1047C3.16773 13.1367 3.12938 13.2227 3.10945 13.2969C3.08932 13.3718 3.06076 13.4083 3.05837 13.4099C3.05769 13.4094 3.05696 13.4089 3.05612 13.4083C3.03271 13.3908 2.9915 13.3364 2.95494 13.2693L2.87741 13.1269L2.97991 12.9754C3.20915 12.6368 3.32304 12.243 3.32023 11.801L3.31852 11.5423L3.26969 11.5334L3.21983 11.6479C3.15449 11.7978 3.11655 11.8362 2.95929 11.9115C2.8816 11.9487 2.7817 12.0191 2.73783 12.0683C2.69155 12.1203 2.66018 12.1396 2.64748 12.1394C2.63446 12.1392 2.61491 12.0991 2.61491 11.9756C2.61491 11.8916 2.62242 11.878 2.75096 11.793C2.80488 11.7573 2.84553 11.7191 2.86825 11.6977C3.21428 11.3707 3.29466 11.2264 3.42269 10.942C3.46978 10.8345 3.50126 10.7536 3.51544 10.7065C3.52392 10.6783 3.53296 10.6471 3.51113 10.6338C3.47865 10.6141 3.44867 10.6638 3.41289 10.7236C3.33919 10.8466 3.25473 10.8916 3.0423 10.9124C2.95291 10.9211 2.8572 10.9454 2.83172 10.9744C2.79867 11.012 2.73274 11.0086 2.73274 10.9841C2.73274 10.9645 2.75825 10.8895 2.79156 10.8163C2.84774 10.6929 2.84312 10.6959 2.98956 10.6816C3.21877 10.6593 3.40227 10.5735 3.59723 10.3995C3.74617 10.2666 3.93924 10.0104 3.9401 9.9306C3.94022 9.91989 3.93329 9.90658 3.91909 9.90232C3.89475 9.89505 3.86147 9.9184 3.83157 9.94425C3.74615 10.0181 3.68993 10.0308 3.47602 10.0082C3.31565 9.99121 3.30275 9.98126 3.29819 9.95114C3.29509 9.93067 3.31839 9.87748 3.35584 9.8393L3.41642 9.77762L3.53959 9.82907C3.65334 9.87662 3.72572 9.88653 3.86654 9.87447C4.11359 9.8533 4.40764 9.71483 4.52646 9.55985C4.57421 9.49757 4.61785 9.43298 4.61785 9.41186C4.61785 9.37017 4.538 9.37356 4.47308 9.38179C4.41201 9.38953 4.27527 9.38749 4.16993 9.37683C4.05088 9.36479 4.00301 9.34515 4.00077 9.3369C3.99949 9.33215 4.02972 9.30158 4.13286 9.25643C4.22865 9.21449 4.26609 9.18473 4.39541 9.18554C4.48033 9.2124 4.60585 9.25079 4.76207 9.26425C5.01238 9.28191 5.19897 9.20879 5.39634 9.0158C5.54712 8.86832 5.53877 8.81858 5.3768 8.89998C5.29389 8.94162 5.21016 8.9476 5.01938 8.92575C4.8853 8.91037 4.94666 8.8848 5.20857 8.84695C5.48267 8.80736 5.61925 8.74784 5.70091 8.63237C5.85169 8.41927 5.29649 8.48494 5.04828 8.70956C4.96437 8.78559 4.93588 8.79761 4.93588 8.75699C4.93588 8.68333 5.01856 8.60048 5.1473 8.54519C5.33491 8.46457 5.29716 8.39818 5.13374 8.40044Z" fill="#FBC724"/>
</g>
<defs>
<clipPath id="clip0_358_14383">
<rect width="24" height="24" rx="12" fill="white"/>
</clipPath>
</defs>
</svg>
