<svg width="24" height="24" viewBox="0 0 24 24" fill="none" xmlns="http://www.w3.org/2000/svg">
<g clip-path="url(#clip0_358_14427)">
<path d="M-6 0H30V24H-6V0Z" fill="#DA121A"/>
<path d="M-6 0H30V16H-6V0Z" fill="#FCDD09"/>
<path d="M-6 0H30V8H-6V0Z" fill="#078930"/>
<path d="M12.0898 19.9688C16.5081 19.9688 20.0898 16.387 20.0898 11.9688C20.0898 7.55047 16.5081 3.96875 12.0898 3.96875C7.67157 3.96875 4.08984 7.55047 4.08984 11.9688C4.08984 16.387 7.67157 19.9688 12.0898 19.9688Z" fill="#0F47AF"/>
<path d="M12.0891 5.56836L11.8087 6.43131L12.9652 9.99065H11.4233L11.25 10.524H16.1942L16.9282 9.99065H13.526L12.0891 5.56836Z" fill="#FCDD09"/>
<path d="M13.8125 9.5957L15.8502 6.79111L13.8125 9.5957Z" fill="black"/>
<path d="M13.8125 9.5957L15.8502 6.79111" stroke="#FCDD09" stroke-width="0.444444"/>
<path d="M18.1773 9.9914L17.2699 9.9914L14.2422 12.1912L13.7657 10.7247L13.2049 10.7247L14.7327 15.4269L15.4668 15.9603L14.4154 12.7245L18.1773 9.9914Z" fill="#FCDD09"/>
<path d="M14.8789 12.875L18.1759 13.9463L14.8789 12.875Z" fill="black"/>
<path d="M14.8789 12.875L18.1759 13.9463" stroke="#FCDD09" stroke-width="0.444444"/>
<path d="M15.8524 17.1456L15.572 16.2826L12.5443 14.0828L13.7917 13.1765L13.6184 12.6432L9.61848 15.5493L9.33809 16.4122L12.0906 14.4124L15.8524 17.1456Z" fill="#FCDD09"/>
<path d="M12.0898 14.9004V18.3671V14.9004Z" fill="black"/>
<path d="M12.0898 14.9004V18.3671" stroke="#FCDD09" stroke-width="0.444444"/>
<path d="M8.32896 17.1455L9.06303 16.6121L10.2195 13.0528L11.467 13.9591L11.9207 13.6295L7.92073 10.7234L7.01337 10.7234L9.76585 12.7232L8.32896 17.1455Z" fill="#FCDD09"/>
<path d="M9.30078 12.875L6.00378 13.9463L9.30078 12.875Z" fill="black"/>
<path d="M9.30078 12.875L6.00378 13.9463" stroke="#FCDD09" stroke-width="0.444445"/>
<path d="M6.00539 9.99102L6.73946 10.5244L10.482 10.5244L10.0055 11.9908L10.4592 12.3204L11.987 7.61824L11.7066 6.75529L10.6553 9.99102L6.00539 9.99102Z" fill="#FCDD09"/>
<path d="M10.3672 9.5957L8.32953 6.79111L10.3672 9.5957Z" fill="black"/>
<path d="M10.3672 9.5957L8.32953 6.79111" stroke="#FCDD09" stroke-width="0.444444"/>
</g>
<defs>
<clipPath id="clip0_358_14427">
<rect width="24" height="24" rx="12" fill="white"/>
</clipPath>
</defs>
</svg>
