<svg width="24" height="24" viewBox="0 0 24 24" fill="none" xmlns="http://www.w3.org/2000/svg">
<g clip-path="url(#clip0_358_14016)">
<rect width="24" height="24" rx="12" fill="#69B3E7"/>
<path d="M23.927 4.16797H-0.0585938V20.2341H23.927V4.16797Z" fill="#012169"/>
<path d="M-0.0585938 4.16797L11.9342 12.201L-0.0585938 4.16797ZM-0.0585938 12.201L11.9342 4.16797L-0.0585938 12.201Z" fill="black"/>
<path d="M-0.0585938 4.16797L11.9342 12.201M-0.0585938 12.201L11.9342 4.16797" stroke="white" stroke-width="2.31347"/>
<mask id="mask0_358_14016" style="mask-type:luminance" maskUnits="userSpaceOnUse" x="-1" y="4" width="15" height="11">
<path d="M-0.0625 4.16797V8.1845H13.9291V12.201H11.9303L-0.0625 4.16797ZM-0.0625 12.201V14.8787H5.9339V4.16797H11.9303L-0.0625 12.201Z" fill="white"/>
</mask>
<g mask="url(#mask0_358_14016)">
<path d="M-0.0625 4.16797L11.9303 12.201L-0.0625 4.16797ZM-0.0625 12.201L11.9303 4.16797L-0.0625 12.201Z" fill="black"/>
<path d="M-0.0625 4.16797L11.9303 12.201M-0.0625 12.201L11.9303 4.16797" stroke="#C8102E" stroke-width="1.54232"/>
</g>
<path d="M5.93781 4.16797V14.8787V4.16797ZM-0.0585938 8.1845H13.933H-0.0585938Z" fill="black"/>
<path d="M5.93781 4.16797V14.8787M-0.0585938 8.1845H13.933" stroke="white" stroke-width="3.85579"/>
<path d="M5.93781 4.16797V14.8787V4.16797ZM-0.0585938 8.1845H13.933H-0.0585938Z" fill="black"/>
<path d="M5.93781 4.16797V14.8787M-0.0585938 8.1845H13.933" stroke="#C8102E" stroke-width="2.31347"/>
<path d="M-0.0585938 12.201H11.9698V4.16797H23.9981V20.2341H-0.0585938V12.201Z" fill="#69B3E7"/>
<path d="M14.7539 8.0918V13.5609C14.7539 15.3497 17.9859 16.4118 17.9859 16.4118C17.9859 16.4118 21.2179 15.3496 21.2179 13.5609V8.0918H14.7539Z" fill="white"/>
<path d="M17.5379 10.0137V12.4762H14.7539V13.3722H17.5379V16.2415L17.9859 16.4121L18.4339 16.2415V13.3722H21.2179V12.4762H18.4339V10.0137H17.5379Z" fill="#C8102E"/>
<path d="M14.7539 8.0918H21.2179V10.2038H14.7539V8.0918Z" fill="#C8102E"/>
<path d="M15.2695 9.67253C15.4702 9.67253 15.6328 9.54165 15.6328 9.38021C15.6328 9.21877 15.4702 9.08789 15.2695 9.08789C15.0689 9.08789 14.9062 9.21877 14.9062 9.38021C14.9062 9.54165 15.0689 9.67253 15.2695 9.67253Z" fill="white" stroke="black" stroke-width="0.0356889" stroke-miterlimit="3"/>
<path d="M15.2684 9.39101C15.4468 9.39101 15.5914 9.31791 15.5914 9.22773C15.5914 9.13756 15.4468 9.06445 15.2684 9.06445C15.0899 9.06445 14.9453 9.13756 14.9453 9.22773C14.9453 9.31791 15.0899 9.39101 15.2684 9.39101Z" fill="white" stroke="black" stroke-width="0.0357778" stroke-miterlimit="3"/>
<path d="M15.2684 9.71719C15.4468 9.71719 15.5914 9.64408 15.5914 9.55391C15.5914 9.46373 15.4468 9.39062 15.2684 9.39062C15.0899 9.39062 14.9453 9.46373 14.9453 9.55391C14.9453 9.64408 15.0899 9.71719 15.2684 9.71719Z" fill="white" stroke="black" stroke-width="0.0357778" stroke-miterlimit="3"/>
<path d="M15.2684 9.54336C15.4468 9.54336 15.5914 9.47025 15.5914 9.38008C15.5914 9.2899 15.4468 9.2168 15.2684 9.2168C15.0899 9.2168 14.9453 9.2899 14.9453 9.38008C14.9453 9.47025 15.0899 9.54336 15.2684 9.54336Z" fill="white" stroke="black" stroke-width="0.0357778" stroke-miterlimit="3"/>
<path d="M21.0571 9.78439L21.0041 9.63837C21.0041 9.63837 20.8592 9.57927 20.8482 9.50231C20.8224 9.29712 20.7491 9.22023 20.6394 9.19089C20.5294 9.16158 20.4563 9.20926 20.4563 9.20926C20.4232 9.25691 20.2582 9.25691 20.1667 9.26049C20.0751 9.26424 20.0735 9.22072 20.0735 9.22072C20.0024 9.22123 19.9725 9.16894 19.9725 9.16894C19.9259 9.07595 19.8913 9.04116 19.8682 9.02939C19.9871 9.03115 20.0766 8.9763 20.2108 8.83553C20.3572 8.68161 20.4618 8.74113 20.4618 8.74113C20.3907 8.88484 20.4855 8.87214 20.4855 8.87214C20.6796 8.77332 20.5111 8.52411 20.4525 8.53513C20.3939 8.54607 20.3772 8.50662 20.3772 8.50662C20.3789 8.55135 20.3121 8.56914 20.3121 8.56914C20.3622 8.2845 20.1924 8.20904 20.1924 8.20904C20.1667 8.23467 20.152 8.28593 20.152 8.28593C20.1044 8.45816 19.9469 8.43252 19.7709 8.3482C19.5951 8.26398 19.1261 8.4362 18.9797 8.4948C18.833 8.55342 18.5656 8.64504 18.3238 8.50945C18.082 8.3738 18.0232 8.39947 17.928 8.42516C17.8327 8.45076 17.6644 8.49118 17.6021 8.45812C17.5398 8.42516 17.4687 8.42312 17.4687 8.42312C17.4857 8.41364 17.4592 8.37387 17.4592 8.37387C17.3859 8.27499 17.4687 8.21438 17.4687 8.21438C17.4687 8.21438 17.3323 8.25278 17.3866 8.48555L17.4115 8.52047C17.4115 8.52047 17.4298 8.59368 17.4702 8.6157L17.4687 8.63173C17.4687 8.63173 17.5032 8.6157 17.5141 8.66328C17.5252 8.7109 17.5765 8.66696 17.5984 8.62671C17.5984 8.62671 17.5617 8.83922 17.8256 8.89048C17.8256 8.89048 17.7961 8.85749 17.8072 8.83551C17.8181 8.81352 17.7743 8.79506 17.778 8.76219C17.7816 8.72933 17.7121 8.71464 17.7669 8.68888C17.8218 8.66325 17.8476 8.61192 17.9648 8.68155C18.082 8.75119 18.1737 8.73659 18.1737 8.73659C18.1737 8.73659 18.1022 8.58987 18.1416 8.58997C18.181 8.59002 18.3582 8.80943 18.4454 8.79858C18.5327 8.78783 18.7012 8.68888 18.7855 8.72552C18.7855 8.72552 18.7928 8.68155 19.1151 8.62658C19.4376 8.5716 19.8353 8.41093 19.9844 8.55173C19.9844 8.55173 20.0019 8.66325 20.0641 8.69259C20.0641 8.69259 20.053 8.92338 19.6538 8.79506L19.509 8.75698C19.509 8.75698 19.4868 8.68687 18.7276 8.88213C18.7276 8.88213 18.6829 8.89771 18.6536 8.91976C18.6242 8.94165 18.5839 8.90872 18.4337 8.96363C18.2836 9.01871 17.7229 9.20191 17.3786 9.13589L17.3782 9.13682C17.3023 9.11416 17.2313 9.12587 17.2284 9.11391C17.2247 9.09925 17.2688 9.11762 17.2688 9.11762C17.2432 9.08824 17.2321 9.08587 17.2321 9.08587C16.9427 9.05413 16.9938 8.92338 16.9938 8.92338L17.0086 8.9637C17.0562 8.90146 16.9901 8.7549 16.9901 8.7549L16.9873 8.75538C16.9866 8.75087 16.9858 8.74639 16.9846 8.74203L17.0086 8.72552C17.1478 8.60824 17.3091 8.58626 17.3091 8.58626C17.2138 8.46907 17.0122 8.53138 17.0122 8.53138C17.0159 8.3885 16.9573 8.22359 16.9573 8.22359C16.7593 8.24558 16.6459 8.41041 16.6459 8.41041C16.6386 8.26391 16.4516 8.17969 16.4516 8.17969C16.5212 8.26391 16.4773 8.46539 16.4773 8.46539L16.4847 8.46907C16.4731 8.46879 16.4663 8.46907 16.4663 8.46907L16.4621 8.51227L16.4553 8.50939C16.4553 8.50939 16.3857 8.53499 16.3052 8.71819C16.3052 8.71819 16.297 8.76149 16.2658 8.80053C16.2656 8.79547 16.2661 8.7909 16.2655 8.78562C16.2655 8.78562 16.1755 8.90357 15.9675 8.78562C15.9675 8.78562 15.6849 8.61794 15.5855 8.62415C15.4862 8.63032 15.4209 8.67691 15.4272 8.70485C15.4272 8.70485 15.2004 8.68619 15.1229 8.81656C15.1229 8.81656 14.9521 8.87867 15.0981 9.01842C15.0981 9.01842 15.1176 9.07915 15.1601 9.1117C15.1601 9.1117 15.1541 8.98411 15.185 9.02162C15.185 9.02162 15.193 9.03419 15.2083 9.04299C15.2123 9.06088 15.226 9.11058 15.2564 9.13589L15.2782 9.12895C15.2816 9.09714 15.2884 9.05695 15.2955 9.04005C15.2988 9.0405 15.3015 9.04088 15.3027 9.04098C15.3017 9.04191 15.3009 9.04245 15.2999 9.04328L15.3403 9.10539L15.3868 9.08056C15.4086 9.07739 15.4365 9.09922 15.4365 9.09922L15.4893 9.05573C15.489 9.05525 15.4887 9.05515 15.4883 9.05464C15.5403 9.06335 15.5546 8.96255 15.5546 8.96255C15.6013 8.97483 15.645 8.96107 15.6821 8.93855C15.7048 9.02213 15.8899 9.11176 15.8899 9.11176C15.8899 9.11176 15.8931 9.11147 15.8979 9.11109C15.8822 9.12111 15.8729 9.12863 15.8729 9.12863C15.9571 9.18735 16.1147 9.17266 16.1147 9.17266C16.0488 9.19835 16.058 9.32031 16.058 9.32031C16.0195 9.33611 16.0157 9.37413 16.0157 9.37413C16.144 9.4253 16.2316 9.38293 16.2316 9.38293C16.2386 9.42466 16.2283 9.42911 16.2283 9.42911C16.177 9.53899 16.155 9.64523 16.155 9.64523C16.1562 9.64571 16.1575 9.64597 16.1586 9.64635C16.157 9.64923 16.155 9.65202 16.1538 9.65499C16.1538 9.65499 15.9303 9.73259 15.8309 9.8413C15.8309 9.8413 15.8216 9.81019 15.7936 9.81019C15.7657 9.81019 15.6787 9.73887 15.6383 9.72639C15.598 9.71403 15.539 9.73887 15.5235 9.72027C15.5094 9.70331 15.5157 9.57611 15.4888 9.5556C15.4889 9.5556 15.4893 9.55571 15.4893 9.55571L15.4614 9.47811C15.4427 9.51843 15.3651 9.50908 15.3651 9.50908C15.3621 9.51094 15.3501 9.51964 15.3332 9.53225C15.3178 9.53308 15.2999 9.52774 15.2999 9.52774C15.292 9.52937 15.2841 9.55174 15.2783 9.57347C15.2752 9.57577 15.272 9.57817 15.2689 9.58057V9.55878C15.2534 9.5712 15.2224 9.55257 15.2099 9.55257C15.2038 9.55257 15.1963 9.57036 15.1902 9.58864C15.1586 9.59449 15.1167 9.59606 15.1167 9.59606C15.1043 9.60227 15.1136 9.69852 15.1136 9.69852C15.0236 9.74825 15.067 9.82272 15.067 9.82272C15.1167 10.0649 15.5297 9.95622 15.5607 9.98736C15.5917 10.0184 15.6632 10.0245 15.7005 10.0245C15.7377 10.0245 15.7842 10.1146 15.8371 10.1239C15.8899 10.1333 15.8371 10.0525 16.0819 9.99404C16.3267 9.93555 16.4083 9.83516 16.4083 9.83516C16.485 9.82038 16.5063 9.7272 16.512 9.68956C16.5128 9.70691 16.5148 9.72611 16.5176 9.74796C16.5286 9.83225 16.4704 9.86294 16.4704 9.86294L16.6825 9.79926C16.7667 9.77728 16.7558 9.70393 16.7558 9.70393C16.8364 9.93478 16.983 9.94944 16.983 9.94944C17.0123 9.86147 17.0086 9.8358 17.0086 9.8358L17.0746 9.83222C17.0773 9.78252 17.0334 9.7462 17.008 9.72931L17.1112 9.7919L17.1514 9.78457C17.1514 9.82121 17.2064 9.85411 17.2064 9.85411L17.2138 9.80659C17.2614 9.86886 17.3494 9.84684 17.3494 9.84684C17.3476 9.83577 17.3449 9.82432 17.3416 9.81264C17.5293 9.92851 17.8292 9.78092 17.8292 9.78092C17.9098 9.79923 17.9208 9.75158 17.9208 9.75158C18.0124 9.76252 18.0336 9.69993 18.0336 9.69993C18.2492 9.68128 18.4009 9.52803 18.4009 9.52803C18.507 9.5207 18.5105 9.4448 18.5105 9.4448C18.5105 9.4448 18.6169 9.46579 18.7195 9.33753C18.9576 8.99687 19.3137 9.17424 19.3137 9.17424L19.1078 9.18726C18.5693 9.18364 18.7926 9.54987 18.7926 9.54987L18.8257 9.54635C18.877 9.55733 19.0528 9.69656 18.988 9.80027C18.987 9.8021 18.9856 9.80376 18.9844 9.80543C18.8746 9.95573 18.6713 9.81237 18.6133 9.68555C18.5546 9.55736 18.4374 9.58671 18.4374 9.58671C18.4374 9.58671 18.1333 9.638 18.2579 9.8798L18.2624 9.87993C18.2647 9.93894 18.3017 10.0062 18.4102 10.073C18.4711 10.1592 18.6714 10.1682 18.8185 10.1363C18.8869 10.1213 19.2481 9.96604 19.2481 9.96604C19.2746 9.88739 19.3644 9.9055 19.4449 9.79193C19.5255 9.67836 19.3313 9.63801 19.2874 9.5758C19.2434 9.51344 19.2984 9.52448 19.2984 9.52448C19.4742 9.61974 19.4889 9.31561 19.4889 9.31561C19.5072 9.49142 19.6611 9.53907 19.6611 9.53907C19.7564 9.44393 19.6869 9.24968 19.6869 9.24968C19.914 9.65635 20.0516 9.5916 20.0516 9.5916C19.9293 9.51589 19.9909 9.41455 19.9909 9.41455C20.1007 9.84684 20.5515 9.46952 20.5515 9.46952C20.5295 9.53173 20.5516 9.56834 20.5918 9.60866C20.6321 9.64898 20.6797 9.66731 20.6578 9.74059C20.6358 9.81384 20.4271 9.79925 20.4271 9.79925C20.4271 9.79925 20.2218 9.78831 20.2402 9.9605C20.251 10.0007 20.3866 10.0154 20.4379 10.0044C20.4379 10.0044 20.4168 10.009 20.4926 10.0192C20.518 10.0225 20.5487 10.023 20.5799 10.022C20.6674 10.0193 20.7605 10.0044 20.7605 10.0044C20.8776 9.97887 20.8593 9.93842 20.8593 9.93842C21.0387 9.90536 21.0571 9.7844 21.0571 9.7844L21.0571 9.78439Z" fill="#FEDD00" stroke="black" stroke-width="0.0533333" stroke-miterlimit="3"/>
<path d="M15.1041 9.03265C15.1042 9.03247 15.1137 9.01003 15.1318 9.00734C15.1457 9.00526 15.1626 9.0156 15.1805 9.03732L15.1903 9.02996C15.1899 9.02923 15.142 8.9594 15.1611 8.91009C15.1696 8.88811 15.1908 8.87304 15.2239 8.86558L15.2212 8.85352C15.1838 8.86209 15.1598 8.87966 15.1496 8.90571C15.1458 8.91544 15.1442 8.92574 15.1442 8.93601C15.1442 8.96011 15.1527 8.98452 15.1614 9.00328C15.1506 8.99646 15.14 8.99364 15.1299 8.99518C15.1115 8.99796 15.1025 9.01121 15.0977 9.01985L15.1041 9.03265Z" fill="black"/>
<path d="M20.7605 9.99221C20.6381 10.0116 20.4584 10.0224 20.4441 9.98536C20.4416 9.97877 20.4412 9.95234 20.5414 9.88709L20.5297 9.86914C20.4461 9.9236 20.4124 9.96296 20.4241 9.99304C20.4498 10.0597 20.7121 10.0216 20.7645 10.0133L20.7605 9.99221Z" fill="black"/>
<path d="M18.4189 10.0634C18.391 10.0207 18.4035 9.96226 18.4562 9.88946L18.4388 9.87695C18.3803 9.95743 18.3676 10.0242 18.4009 10.0752L18.4189 10.0634Z" fill="black"/>
<path d="M18.254 9.87876C18.2567 9.95258 18.3088 10.0211 18.4087 10.0823L18.4199 10.064C18.3264 10.0068 18.278 9.94423 18.2754 9.87802C18.2717 9.77636 18.3792 9.69796 18.3802 9.69713L18.3677 9.67969C18.3629 9.68311 18.2499 9.76545 18.254 9.87876Z" fill="black"/>
<path d="M20.3405 9.90567C20.3069 9.95524 20.3181 10.0153 20.3186 10.0178L20.3396 10.0137C20.3394 10.0131 20.3297 9.95966 20.3583 9.91758C20.3756 9.89226 20.4033 9.87585 20.4409 9.86871L20.4371 9.84766C20.3935 9.85591 20.3611 9.8754 20.3405 9.90567Z" fill="black"/>
<path d="M15.5586 8.9688L15.552 8.96714L15.5511 8.97395C15.5509 8.97463 15.5416 9.03965 15.5121 9.05735C15.5038 9.06227 15.4949 9.06282 15.4847 9.05907L15.4346 9.02861C15.4246 9.01981 15.416 9.01335 15.4016 9.01757C15.3987 9.01386 15.3872 8.99827 15.3872 8.97325C15.3872 8.97047 15.3874 8.96749 15.3878 8.96448C15.3914 8.93514 15.4119 8.90685 15.4489 8.88045L15.4418 8.87043C15.4017 8.89911 15.3795 8.93024 15.3756 8.96323C15.3711 9.00144 15.3932 9.02739 15.3942 9.02851L15.3972 9.03194L15.4012 9.03008C15.4124 9.02515 15.4156 9.02807 15.4264 9.03767L15.4805 9.07053C15.4942 9.07559 15.5069 9.07466 15.5184 9.06781C15.5489 9.04954 15.5596 8.99632 15.5621 8.98154C15.6922 9.00951 15.7968 8.85143 15.8014 8.84461L15.791 8.83789C15.7901 8.83955 15.6832 9.00147 15.5586 8.9688Z" fill="black"/>
<path d="M15.2451 8.94451C15.2386 8.97085 15.243 8.99671 15.2581 9.02138C15.2724 9.04477 15.2866 9.05722 15.3013 9.05917C15.3193 9.06167 15.3337 9.04832 15.3464 9.03664C15.3556 9.028 15.3644 9.01997 15.3716 9.02051L15.3827 9.02823L15.3924 9.02058L15.3724 9.00829C15.3598 9.00736 15.3493 9.01715 15.338 9.02765C15.3268 9.03795 15.3153 9.0488 15.303 9.04711C15.2923 9.04563 15.2808 9.03479 15.2686 9.01495C15.2553 8.99322 15.2513 8.97043 15.257 8.94746C15.271 8.88944 15.3404 8.84682 15.3411 8.8464L15.3348 8.83594C15.3317 8.83773 15.2604 8.88151 15.2451 8.94451Z" fill="black"/>
<path d="M15.0666 9.77215C15.0728 9.74972 15.09 9.73061 15.1177 9.71522C15.1123 9.71573 15.1449 9.74229 15.1729 9.73932C15.1729 9.73932 15.1843 9.73321 15.1911 9.72949C15.1985 9.73589 15.247 9.78002 15.247 9.83593C15.247 9.8477 15.2448 9.85977 15.2396 9.87202L15.2509 9.87679C15.2864 9.79279 15.1972 9.71829 15.1964 9.71749L15.1931 9.71493L15.1876 9.71849L15.1717 9.72713C15.1488 9.72953 15.1189 9.7053 15.1187 9.70508C15.0811 9.72149 15.0618 9.74322 15.0547 9.76905L15.0666 9.77215Z" fill="black"/>
<path d="M15.4811 9.55867C15.4543 9.56094 15.3797 9.57518 15.3554 9.6139C15.3466 9.62795 15.3453 9.6434 15.3517 9.66011L15.3614 9.68616C15.3847 9.74865 15.4088 9.81323 15.4351 9.82782L15.4411 9.81713C15.4187 9.80475 15.3944 9.73947 15.3729 9.6819L15.3632 9.65585C15.3582 9.64267 15.359 9.63108 15.3657 9.62043C15.3857 9.58868 15.4528 9.57336 15.4821 9.57092C15.4992 9.56955 15.5048 9.63262 15.5082 9.67032L15.5204 9.6692C15.5155 9.61364 15.5103 9.55624 15.4811 9.55867Z" fill="black"/>
<path d="M15.2744 9.61869C15.2587 9.63271 15.2619 9.65383 15.2621 9.65475C15.2622 9.66055 15.2692 9.81655 15.3433 9.8488L15.3482 9.83757C15.2811 9.80835 15.2744 9.65504 15.2743 9.65354C15.2742 9.65261 15.2721 9.63712 15.2827 9.62778C15.2939 9.61779 15.3163 9.61702 15.3473 9.62554L15.3505 9.61376C15.3148 9.60391 15.2892 9.60554 15.2744 9.61869Z" fill="black"/>
<path d="M15.2189 9.63278C15.1861 9.65559 15.1875 9.72071 15.1875 9.72343L15.1998 9.72322C15.1998 9.72255 15.1986 9.66181 15.2259 9.64284C15.2361 9.6358 15.2496 9.63551 15.2659 9.6421L15.2705 9.63077C15.2501 9.62245 15.2327 9.62311 15.2189 9.63278Z" fill="black"/>
<path d="M16.9808 8.77257C16.9814 8.77359 17.0157 8.8511 17.0157 8.91404C17.0157 8.92521 17.0105 8.93314 17.008 8.94287C17.0066 8.93926 16.9946 8.90642 16.9946 8.90642L16.9842 8.93276C16.9838 8.93423 16.9702 8.96966 16.9944 9.00962C17.0264 9.06236 17.1061 9.09612 17.2313 9.10985H17.2313C17.2313 9.10995 17.2328 9.11132 17.233 9.11158C17.2278 9.11228 17.2239 9.11372 17.2228 9.11484L17.2177 9.1191L17.2184 9.12978C17.2216 9.14278 17.2365 9.14342 17.266 9.14454C17.2709 9.14482 17.279 9.14601 17.2848 9.1463C17.2921 9.14834 17.2996 9.15039 17.2996 9.15039C17.2996 9.15039 17.2976 9.14802 17.2971 9.14751C17.3257 9.14946 17.3578 9.1565 17.3926 9.16953C17.3849 9.17154 17.3661 9.17625 17.3661 9.17625L17.3971 9.18847C17.3994 9.1894 17.6277 9.28111 17.7222 9.35654C17.6953 9.3798 17.5808 9.46534 17.3825 9.41647L17.3493 9.40831L17.3718 9.43404C17.3732 9.43558 17.5024 9.58374 17.5292 9.67359C17.4842 9.67404 17.3109 9.67247 17.2504 9.62102L17.2347 9.63529C17.2355 9.6366 17.3177 9.7573 17.3361 9.85142C17.3126 9.85452 17.2561 9.85682 17.2227 9.81321L17.2073 9.79318C17.2073 9.79318 17.2011 9.83362 17.199 9.84751C17.1829 9.83535 17.1625 9.81718 17.1625 9.79772V9.78492C17.1625 9.78492 17.1201 9.79263 17.1137 9.79378C17.108 9.79039 17.0377 9.7477 17.0133 9.73292C17.0046 9.72732 16.999 9.72412 16.9971 9.72319C16.997 9.72309 16.9962 9.72258 16.9962 9.72258L16.9955 9.72217L16.9851 9.74098C16.9851 9.74098 16.997 9.74812 17.0005 9.75026C17.022 9.76428 17.0588 9.79481 17.0625 9.83529C17.0466 9.83622 16.9972 9.8389 16.9972 9.8389L16.9984 9.85026V9.85206C16.9984 9.85878 16.9963 9.88684 16.9758 9.95017C16.9449 9.94281 16.8326 9.90367 16.7663 9.71353L16.7456 9.71865C16.7457 9.71916 16.7459 9.72169 16.7459 9.72572C16.7459 9.74303 16.7398 9.78649 16.6802 9.80198C16.6799 9.80208 16.5695 9.83526 16.5081 9.85362C16.5196 9.83721 16.5301 9.81468 16.5301 9.78204C16.5301 9.7751 16.5297 9.76764 16.5288 9.7597C16.525 9.73209 16.5228 9.70908 16.5228 9.68988C16.5228 9.64985 16.5326 9.62601 16.5603 9.60905L16.5506 9.58994C16.5481 9.59097 16.2942 9.6918 16.1683 9.64994C16.174 9.62537 16.1953 9.53897 16.2383 9.44687L16.2328 9.45215C16.241 9.44863 16.2495 9.43574 16.2425 9.39439L16.2402 9.38031L16.2273 9.38652C16.2265 9.3869 16.1459 9.42287 16.0295 9.38022C16.0319 9.37068 16.0381 9.35353 16.0624 9.34342L16.0696 9.34054L16.0689 9.33276C16.0689 9.33247 16.0686 9.32706 16.0686 9.31858C16.0686 9.28716 16.0736 9.21353 16.1188 9.19586L16.114 9.17516C16.1125 9.17535 15.9763 9.18623 15.8938 9.14031C15.9154 9.12537 15.9609 9.09785 16.0139 9.09023L16.0224 9.08902L16.023 9.08054C16.0231 9.08012 16.0233 9.07762 16.0233 9.07362C16.0233 9.06287 16.0191 9.04111 16.0096 9.01919C16.0411 9.02796 16.0787 9.03586 16.0921 9.02585L16.0966 9.02242L16.0927 8.9398L16.0713 8.94082C16.0713 8.94082 16.0739 8.99561 16.0746 9.00914C16.0611 9.00988 16.0269 9.00303 15.9936 8.99247L15.9608 8.98201L15.9819 9.0093C15.9991 9.03142 16.0013 9.05887 16.0016 9.07148C15.9272 9.0853 15.8689 9.13151 15.8664 9.13359L15.8555 9.14258L15.8671 9.15068C15.9311 9.19526 16.0312 9.19913 16.0825 9.19801C16.0522 9.23212 16.0471 9.28924 16.0471 9.31778C16.0471 9.32364 16.0473 9.32521 16.0474 9.32809C16.0111 9.3477 16.0056 9.38457 16.0054 9.38626L16.0046 9.3943L16.0121 9.39737C16.1221 9.44121 16.1972 9.42006 16.2227 9.41062C16.2229 9.41404 16.2236 9.41868 16.2236 9.42111C16.2236 9.43119 16.2217 9.43426 16.2217 9.43426C16.1677 9.54754 16.1451 9.65522 16.1448 9.65625L16.143 9.66514L16.1514 9.66847C16.2535 9.70927 16.4368 9.65356 16.5181 9.62489C16.5074 9.64326 16.5012 9.66393 16.5012 9.68966C16.5012 9.71122 16.5038 9.73548 16.5074 9.76249C16.5083 9.76934 16.5087 9.77567 16.5087 9.78178C16.5087 9.84258 16.4676 9.86559 16.4657 9.86662L16.4738 9.88636L16.686 9.82265C16.735 9.80991 16.7535 9.78092 16.7613 9.75628C16.845 9.95478 16.9764 9.97266 16.9822 9.97334L16.9907 9.97407L16.9934 9.96601C17.0138 9.90502 17.0185 9.87404 17.0195 9.8591C17.0337 9.85846 17.0851 9.85558 17.0851 9.85558L17.0857 9.84594C17.0858 9.84428 17.0858 9.84268 17.0858 9.84111C17.0858 9.82354 17.0803 9.80802 17.0727 9.79407C17.086 9.80207 17.1094 9.81631 17.1094 9.81631C17.1094 9.81631 17.1337 9.8119 17.1446 9.80991C17.1538 9.84537 17.1959 9.87321 17.2013 9.87654L17.2149 9.88473C17.2149 9.88473 17.22 9.85241 17.2221 9.83833C17.2745 9.88521 17.3488 9.87126 17.3524 9.87039L17.3617 9.86799L17.3604 9.85846C17.3497 9.78678 17.3016 9.7015 17.2733 9.6559C17.3664 9.69823 17.5359 9.69513 17.5443 9.69487L17.5569 9.69442L17.5544 9.68204C17.5394 9.60671 17.4453 9.48812 17.4059 9.44095C17.6246 9.48207 17.7421 9.3686 17.7471 9.36345L17.7548 9.35529L17.7463 9.34786C17.6728 9.28383 17.5033 9.20946 17.4353 9.18102C17.439 9.18009 17.4591 9.175 17.4591 9.175L17.4356 9.16182C17.3786 9.12982 17.3183 9.12585 17.2775 9.12409L17.2773 9.12377C17.2514 9.09414 17.2383 9.0894 17.2349 9.08866C17.087 9.07234 17.0328 9.0309 17.0131 8.9989C17.0115 8.99628 17.0123 8.99449 17.0111 8.99193C17.0143 8.98767 17.0176 8.98345 17.0176 8.98345C17.0319 8.96486 17.037 8.93999 17.037 8.91366C17.037 8.84575 17.0025 8.76815 17.0005 8.76367L16.9808 8.77257H16.9808Z" fill="black"/>
<path d="M16.3022 8.72958C16.3018 8.73169 16.286 8.81275 16.217 8.85073C16.1651 8.87927 16.0965 8.87691 16.0133 8.84363L16.0039 8.83991L16.0049 8.84993C16.0051 8.85201 16.0106 8.89963 16.0555 8.93451C16.0929 8.96363 16.1464 8.97383 16.2134 8.96651C16.191 8.99313 16.1189 9.08523 16.1189 9.17457C16.1189 9.17927 16.1192 9.18401 16.1197 9.18865C16.1288 9.19524 16.2418 9.22583 16.2941 9.15889C16.296 9.18759 16.3043 9.27947 16.3401 9.3154C16.3598 9.33495 16.3644 9.36353 16.3644 9.38635C16.3644 9.40692 16.3605 9.42279 16.3605 9.42311L16.3565 9.43947L16.3701 9.42955C16.3744 9.42638 16.4783 9.35031 16.5115 9.2507C16.5114 9.25096 16.5281 9.22571 16.5601 9.21537C16.5595 9.21972 16.5589 9.22417 16.5589 9.23038C16.5589 9.26887 16.5758 9.33876 16.6879 9.38161L16.6971 9.38513L16.6962 9.37534C16.6961 9.37512 16.6955 9.36743 16.6955 9.35598C16.6955 9.32785 16.6994 9.27617 16.7262 9.24939C16.7438 9.23179 16.7491 9.21195 16.7491 9.19476C16.7491 9.18123 16.7461 9.17028 16.7431 9.16222C16.7657 9.16795 16.8192 9.18519 16.841 9.22596C16.8726 9.28523 16.9833 9.23806 16.9881 9.23607L16.9843 9.22443C16.9838 9.22453 16.9377 9.23486 16.9086 9.21489C16.8958 9.20609 16.8881 9.19255 16.8854 9.1746L16.8803 9.113C16.8792 9.0851 16.8753 9.06737 16.8613 9.05246C16.876 9.05111 16.9053 9.05163 16.9178 9.07915C16.9373 9.12225 17.0045 9.12644 17.0073 9.12667L17.0302 9.12788L17.0109 9.1154C17.0103 9.11502 16.9524 9.07655 16.9624 9.02644L16.9707 8.98974C16.9866 8.92359 17.013 8.81287 16.9915 8.74491L16.9798 8.74865C16.9851 8.76561 16.9873 8.78571 16.9873 8.80721C16.9873 8.86747 16.9703 8.93905 16.9588 8.98689L16.9503 9.02407C16.9493 9.02891 16.9489 9.0338 16.9489 9.03844C16.9489 9.07089 16.97 9.09566 16.9864 9.11057C16.9667 9.10631 16.9393 9.09691 16.929 9.07403C16.9129 9.03867 16.8696 9.03703 16.8489 9.04123L16.8345 9.04414L16.8468 9.05233C16.8662 9.06532 16.8668 9.08043 16.8682 9.11348L16.8734 9.17636C16.8765 9.1978 16.886 9.21419 16.9017 9.225C16.9154 9.23435 16.9314 9.23566 16.9461 9.23671C16.9132 9.24529 16.8681 9.25063 16.8519 9.2202C16.8214 9.16334 16.7375 9.14814 16.734 9.14747L16.7212 9.14526L16.7276 9.15649C16.7282 9.15771 16.7371 9.17387 16.7371 9.19441C16.7371 9.20897 16.7326 9.22564 16.7175 9.24068C16.6878 9.2707 16.6832 9.32513 16.6832 9.35524C16.6832 9.36113 16.6835 9.36196 16.6836 9.36555C16.5877 9.32526 16.5708 9.26558 16.5708 9.23179C16.5708 9.21742 16.5736 9.20785 16.574 9.2066L16.5767 9.19716L16.567 9.19879C16.5205 9.20647 16.5011 9.24439 16.5003 9.24599C16.4736 9.32577 16.4013 9.38891 16.3752 9.40996C16.376 9.40331 16.3769 9.39553 16.3769 9.38609C16.3769 9.36116 16.3716 9.32939 16.3489 9.30673C16.3108 9.26862 16.3056 9.14743 16.3056 9.14622L16.3048 9.12433L16.2941 9.14334C16.252 9.21889 16.1288 9.1826 16.1276 9.18228C16.1224 9.08683 16.2307 8.96468 16.2318 8.96343L16.2432 8.95086L16.2265 8.95332C16.1557 8.96356 16.1008 8.95409 16.0632 8.92503C16.0337 8.90219 16.0231 8.8731 16.0194 8.85841C16.1014 8.88897 16.1702 8.89067 16.2231 8.86142C16.2971 8.82052 16.3133 8.73675 16.314 8.73323C16.3917 8.55707 16.4596 8.52926 16.4603 8.52907L16.456 8.51758C16.453 8.51863 16.383 8.54619 16.3022 8.72958Z" fill="black"/>
<path d="M16.4784 8.4688L16.4732 8.46899L16.4102 8.55539L16.4289 8.55724C16.771 8.59052 16.9519 8.79692 16.9536 8.79907L16.9616 8.80825L17.0236 8.74086L17.019 8.73391C16.8456 8.46074 16.4821 8.46867 16.4784 8.4688ZM16.4842 8.49024C16.5265 8.49035 16.8381 8.49997 16.9959 8.73907C16.9882 8.74742 16.971 8.76624 16.9618 8.77632C16.9248 8.73798 16.7495 8.57414 16.4488 8.53882C16.4605 8.52278 16.4799 8.49619 16.4842 8.49024Z" fill="black"/>
<path d="M16.4287 8.65015C16.3995 8.69002 16.3723 8.749 16.3723 8.77661C16.3723 8.78189 16.3733 8.78605 16.3756 8.78868C16.3758 8.78894 16.3768 8.78903 16.3771 8.78944C16.3415 8.82138 16.3203 8.87469 16.3203 8.93495C16.3203 8.9681 16.3262 9.00263 16.3385 9.03556L16.3453 9.05408C16.3789 9.14541 16.4078 9.22432 16.553 9.17786C16.6929 9.13319 16.6983 9.12423 16.7336 9.06615L16.7427 9.05111C16.7619 9.01991 16.7829 9.01367 16.8052 9.00704C16.8319 8.99904 16.8595 8.99085 16.8837 8.94304L16.9072 8.90775C16.9326 8.87274 16.9643 8.82935 16.9682 8.7738L16.9559 8.77296C16.9524 8.82496 16.9218 8.86679 16.8973 8.90045L16.8727 8.93744C16.8508 8.98055 16.827 8.98768 16.8017 8.99524C16.7781 9.00224 16.7539 9.00948 16.7322 9.04464L16.723 9.05975C16.6891 9.11565 16.6848 9.12285 16.5493 9.16624C16.4153 9.20909 16.3907 9.14224 16.3568 9.04989L16.35 9.03117C16.3118 8.92935 16.3416 8.82666 16.3913 8.78986L16.4084 8.77719C16.4084 8.77719 16.3872 8.77956 16.3847 8.77988C16.3845 8.77885 16.3842 8.77796 16.3842 8.77636C16.3842 8.75972 16.4024 8.70672 16.4385 8.65732C16.4694 8.61524 16.5423 8.57354 16.543 8.57312L16.5369 8.5625C16.5338 8.56432 16.461 8.60596 16.4287 8.65015Z" fill="black"/>
<path d="M16.3625 9.01793C16.3865 9.03457 16.4203 9.03342 16.461 9.01793C16.4612 9.03243 16.4644 9.06324 16.4897 9.08561C16.5195 9.11195 16.5688 9.11703 16.6364 9.10091L16.6335 9.08903C16.5702 9.10414 16.5245 9.09988 16.4979 9.07652C16.4693 9.05131 16.4733 9.01118 16.4734 9.01083L16.4745 9.00033L16.4648 9.00446C16.4238 9.02212 16.3917 9.02318 16.3694 9.00779C16.3296 8.98007 16.3325 8.90766 16.3326 8.90683L16.3204 8.90625C16.3203 8.90955 16.317 8.98631 16.3625 9.01793Z" fill="black"/>
<path d="M16.44 8.91948C16.4225 8.92364 16.418 8.9383 16.418 8.94962C16.418 8.95234 16.4183 8.95487 16.4186 8.95705C16.4217 8.98857 16.4559 9.00956 16.487 9.01855C16.5172 9.02729 16.5544 9.02786 16.569 9.00905C16.5749 9.00153 16.5791 8.98799 16.5663 8.9661C16.5197 8.88674 16.4442 8.91782 16.44 8.91948ZM16.4904 9.00671C16.4632 8.99893 16.4332 8.9813 16.4308 8.95516C16.4303 8.95266 16.4273 8.9351 16.4428 8.93142L16.444 8.93103C16.4468 8.92978 16.5136 8.90073 16.5558 8.97237C16.5632 8.98514 16.5645 8.9949 16.5593 9.00149C16.5503 9.01324 16.5205 9.01554 16.4904 9.00671ZM16.4388 8.91993C16.4389 8.91982 16.44 8.91945 16.44 8.91945L16.4388 8.91993Z" fill="black"/>
<path d="M16.4807 9.07879C16.4729 9.14583 16.4777 9.14743 16.4825 9.14894L16.4868 9.15028L16.4916 9.14462L16.5304 9.09342L16.4816 9.07031L16.4807 9.07879ZM16.492 9.08881C16.4989 9.09207 16.5053 9.09511 16.5116 9.09809C16.5063 9.10484 16.4965 9.11793 16.4891 9.12772C16.4893 9.11761 16.4905 9.10337 16.492 9.08881Z" fill="black"/>
<path d="M16.3815 9.02609L16.3789 9.08945L16.4321 9.0251L16.3818 9.01953L16.3815 9.02609ZM16.3935 9.03319C16.3982 9.03374 16.4015 9.03403 16.4082 9.03476C16.403 9.041 16.3995 9.04523 16.3926 9.05361C16.3931 9.04376 16.3933 9.03828 16.3935 9.03319Z" fill="black"/>
<path d="M16.3477 9.0055C16.3481 9.00634 16.3872 9.08285 16.3942 9.11075C16.3986 9.12848 16.4213 9.14867 16.4482 9.15869C16.4751 9.1688 16.5003 9.16717 16.5191 9.15405L16.5545 9.12467C16.5662 9.11334 16.5702 9.11018 16.5797 9.11181L16.5817 9.09971C16.5657 9.09702 16.5579 9.10448 16.546 9.11581L16.5122 9.144C16.4913 9.15856 16.4658 9.15235 16.4525 9.14723C16.4272 9.13789 16.409 9.11981 16.406 9.10774C16.3987 9.07856 16.3601 9.00323 16.3585 9L16.3477 9.0055Z" fill="black"/>
<path d="M16.3981 8.77507C16.3549 8.79501 16.3367 8.84742 16.3359 8.84963L16.3475 8.85366C16.3477 8.85315 16.365 8.80381 16.4033 8.78618C16.4221 8.7776 16.443 8.77789 16.4658 8.78685L16.4704 8.77552C16.4444 8.76506 16.4201 8.76496 16.3981 8.77507Z" fill="black"/>
<path d="M16.6875 8.91422C16.6909 8.91678 16.7725 8.9786 16.7256 9.05403L16.736 9.06052C16.7889 8.9755 16.6957 8.90503 16.6948 8.9043L16.6875 8.91422Z" fill="black"/>
<path d="M16.44 8.92619C16.44 8.92619 16.4273 8.9723 16.4922 8.98859C16.4922 8.98859 16.4311 8.98807 16.4273 8.9723C16.4232 8.95655 16.4276 8.92164 16.44 8.92619Z" fill="black"/>
<path d="M16.6396 8.97998C16.6396 8.98403 16.6363 8.98737 16.6323 8.98737C16.6284 8.98737 16.625 8.98403 16.625 8.97998C16.625 8.97599 16.6284 8.97266 16.6323 8.97266C16.6364 8.97266 16.6396 8.97599 16.6396 8.97998Z" fill="black"/>
<path d="M16.6474 9.00924C16.6474 9.01329 16.6441 9.01666 16.64 9.01666C16.636 9.01666 16.6328 9.01329 16.6328 9.00924C16.6328 9.00529 16.636 9.00195 16.64 9.00195C16.6441 9.00195 16.6474 9.00532 16.6474 9.00924Z" fill="black"/>
<path d="M16.5971 9.00286C16.6012 9.00286 16.6044 8.9996 16.6044 8.99557C16.6044 8.99155 16.6012 8.98828 16.5971 8.98828C16.5931 8.98828 16.5898 8.99155 16.5898 8.99557C16.5898 8.9996 16.5931 9.00286 16.5971 9.00286Z" fill="black"/>
<path d="M16.62 9.03867C16.62 9.04262 16.6167 9.04589 16.6127 9.04589C16.6087 9.04589 16.6055 9.04262 16.6055 9.03867C16.6055 9.03459 16.6088 9.03125 16.6127 9.03125C16.6167 9.03125 16.62 9.03455 16.62 9.03867Z" fill="black"/>
<path d="M16.4288 8.84326C16.4288 8.84731 16.4255 8.85061 16.4214 8.85061C16.4174 8.85061 16.4141 8.84728 16.4141 8.84326C16.4141 8.83931 16.4174 8.83594 16.4214 8.83594C16.4255 8.83594 16.4288 8.83931 16.4288 8.84326Z" fill="black"/>
<path d="M16.4292 8.87981C16.4332 8.87981 16.4365 8.87655 16.4365 8.87252C16.4365 8.8685 16.4332 8.86523 16.4292 8.86523C16.4251 8.86523 16.4219 8.8685 16.4219 8.87252C16.4219 8.87655 16.4251 8.87981 16.4292 8.87981Z" fill="black"/>
<path d="M16.3862 8.86614C16.3902 8.86614 16.3935 8.86288 16.3935 8.85885C16.3935 8.85483 16.3902 8.85156 16.3862 8.85156C16.3822 8.85156 16.3789 8.85483 16.3789 8.85885C16.3789 8.86288 16.3822 8.86614 16.3862 8.86614Z" fill="black"/>
<path d="M16.4053 8.90195C16.4053 8.9059 16.4019 8.90927 16.3978 8.90927C16.3939 8.90927 16.3906 8.9059 16.3906 8.90195C16.3906 8.89787 16.3939 8.89453 16.3978 8.89453C16.4019 8.89456 16.4053 8.89787 16.4053 8.90195Z" fill="black"/>
<path d="M16.5352 8.64589C16.5352 8.64589 16.629 8.70362 16.5387 8.81197C16.5387 8.81197 16.5831 8.77898 16.5876 8.72231C16.5924 8.6657 16.5554 8.62055 16.5352 8.64589Z" fill="black"/>
<path d="M16.8951 8.80175C16.8649 8.81727 16.8214 8.78854 16.7996 8.76137C16.7779 8.7342 16.733 8.72726 16.705 8.77686C16.677 8.82655 16.6367 8.84518 16.6367 8.84518C16.6367 8.84518 16.6761 8.82191 16.7167 8.77842C16.757 8.73503 16.7803 8.76988 16.8199 8.79084C16.8594 8.8118 16.8656 8.81641 16.8936 8.80556L16.8951 8.80175Z" fill="black"/>
<path d="M16.8853 8.8088C16.873 8.81808 16.8503 8.82586 16.8263 8.8064C16.8023 8.78701 16.7821 8.76067 16.7519 8.77616C16.7215 8.79174 16.6641 8.83514 16.6641 8.83514C16.6641 8.83514 16.7572 8.77069 16.7751 8.7847C16.7929 8.79872 16.8349 8.83283 16.8605 8.82282C16.8861 8.81261 16.8853 8.8088 16.8853 8.8088Z" fill="black"/>
<path d="M16.8125 8.84943C16.783 8.82694 16.7535 8.8758 16.7287 8.86969C16.7038 8.86339 16.6836 8.82227 16.6836 8.82227C16.6836 8.82227 16.707 8.86575 16.7395 8.85564C16.7721 8.84559 16.7947 8.82537 16.8148 8.84086C16.835 8.85644 16.8125 8.84943 16.8125 8.84943Z" fill="black"/>
<path d="M16.771 8.85554C16.7128 8.86155 16.707 8.80718 16.707 8.80664C16.707 8.80664 16.7254 8.8541 16.7769 8.84549L16.771 8.85554Z" fill="black"/>
<path d="M16.766 8.81753C16.7698 8.83243 16.769 8.8392 16.7532 8.8392C16.7374 8.8392 16.7266 8.83392 16.7266 8.81853C16.7266 8.80311 16.7637 8.80793 16.766 8.81753Z" fill="black"/>
<path d="M16.5587 8.73712C16.5587 8.74736 16.5502 8.75562 16.5398 8.75562C16.5294 8.75562 16.5273 8.74859 16.5273 8.73845C16.5273 8.72831 16.5294 8.71875 16.5398 8.71875C16.5502 8.71875 16.5587 8.72701 16.5587 8.73712Z" fill="black"/>
<path d="M16.4943 8.67185C16.4943 8.67185 16.594 8.67291 16.5446 8.79771C16.5446 8.79771 16.5826 8.7356 16.5588 8.69089C16.5349 8.64625 16.4973 8.65752 16.4973 8.65752C16.4973 8.65752 16.4882 8.66597 16.4943 8.67185Z" fill="black"/>
<path d="M16.4922 8.72289C16.4919 8.74791 16.5086 8.77374 16.5417 8.79959L16.5493 8.78999C16.5194 8.76663 16.5043 8.7441 16.5044 8.72314C16.5046 8.70218 16.5208 8.68974 16.521 8.68958L16.5136 8.67969C16.5128 8.68039 16.4925 8.69578 16.4922 8.72289Z" fill="black"/>
<path d="M16.5136 8.74417C16.5179 8.75854 16.529 8.76939 16.5468 8.77649L16.5513 8.76516C16.5373 8.75956 16.5285 8.75134 16.5254 8.74081C16.5191 8.7196 16.5361 8.69483 16.5363 8.69464L16.5264 8.6875C16.5254 8.68878 16.5056 8.71739 16.5136 8.74417Z" fill="black"/>
<path d="M16.6483 8.8125C16.6483 8.8125 16.6668 8.85282 16.6397 8.89631C16.6125 8.9398 16.6133 8.93749 16.6133 8.93749C16.6133 8.93749 16.6459 8.87772 16.6335 8.85282C16.6212 8.82799 16.6483 8.8125 16.6483 8.8125Z" fill="black"/>
<path d="M17.0352 9.23395C17.1376 9.25324 17.3688 9.43449 17.3712 9.43635L17.3844 9.41939C17.3747 9.41187 17.1467 9.23311 17.0392 9.21289L17.0352 9.23395Z" fill="black"/>
<path d="M17.1289 9.48991C17.1358 9.58083 17.2347 9.63734 17.239 9.63961L17.2494 9.62095C17.2484 9.62047 17.1563 9.56774 17.1502 9.48828L17.1289 9.48991Z" fill="black"/>
<path d="M16.8828 9.50781C16.8828 9.6098 16.9784 9.73316 16.9825 9.7384L16.9994 9.72516C16.9984 9.724 16.9042 9.60244 16.9042 9.50781H16.8828Z" fill="black"/>
<path d="M16.5598 9.52116C16.5766 9.55482 16.5749 9.57188 16.5705 9.58023C16.5654 9.58964 16.555 9.59108 16.5547 9.59117L16.5572 9.61252C16.5651 9.61159 16.5808 9.60612 16.5892 9.59076C16.5994 9.57207 16.5959 9.54545 16.579 9.51172L16.5598 9.52116Z" fill="black"/>
<path d="M15.1016 9.01554C15.1016 9.01554 15.1078 9.0838 15.1605 9.12431C15.1605 9.12431 15.1543 9.04965 15.1699 9.01871C15.1699 9.01871 15.142 8.98764 15.1016 9.01554Z" fill="white" stroke="black" stroke-width="0.016" stroke-miterlimit="3"/>
<path d="M15.207 9.05937C15.207 9.05937 15.2195 9.12138 15.2568 9.14938L15.2786 9.14318C15.2786 9.14318 15.2879 9.06548 15.3003 9.0562C15.3127 9.04695 15.2475 9.08414 15.207 9.05937Z" fill="white" stroke="black" stroke-width="0.016" stroke-miterlimit="3"/>
<path d="M15.3008 9.05508L15.3411 9.11719L15.3877 9.09236L15.3784 9.0179C15.3784 9.0179 15.3505 9.01159 15.3008 9.05508Z" fill="white" stroke="black" stroke-width="0.016" stroke-miterlimit="3"/>
<path d="M15.4892 9.0684L15.4364 9.11189C15.4364 9.11189 15.4085 9.0901 15.3867 9.09323L15.3961 9.02491C15.3961 9.02491 15.4333 8.99698 15.4892 9.0684Z" fill="white" stroke="black" stroke-width="0.016" stroke-miterlimit="3"/>
<path d="M15.1127 9.7111C15.1127 9.7111 15.1034 9.61484 15.1159 9.60864C15.1159 9.60864 15.1531 9.62105 15.1686 9.60547C15.1686 9.60547 15.1904 9.68316 15.1841 9.7142C15.1779 9.74521 15.1407 9.73289 15.1127 9.7111Z" fill="white" stroke="black" stroke-width="0.016" stroke-miterlimit="3"/>
<path d="M15.3518 9.61132C15.3518 9.61132 15.3487 9.53059 15.3642 9.52121C15.3642 9.52121 15.4418 9.53055 15.4605 9.49023L15.4884 9.56783C15.4884 9.56783 15.4015 9.55849 15.3518 9.61132Z" fill="white" stroke="black" stroke-width="0.016" stroke-miterlimit="3"/>
<path d="M15.2695 9.62722C15.2695 9.62722 15.285 9.54341 15.3006 9.54031C15.3006 9.54031 15.341 9.55269 15.3534 9.53711L15.3503 9.63967C15.3503 9.63967 15.3534 9.59615 15.2695 9.62722Z" fill="white" stroke="black" stroke-width="0.0155556" stroke-miterlimit="3"/>
<path d="M15.1797 9.63898C15.1797 9.63898 15.1983 9.56445 15.2108 9.56445C15.2232 9.56445 15.2543 9.58308 15.2698 9.57066V9.62657C15.2698 9.62657 15.2014 9.61108 15.1921 9.70417L15.1797 9.63898Z" fill="white" stroke="black" stroke-width="0.0155556" stroke-miterlimit="3"/>
<path d="M16.3879 11.1872C16.3879 11.1872 16.5989 11.3832 16.5437 11.554C16.5437 11.554 16.6794 11.2625 16.5337 11.177C16.3879 11.0916 16.3829 11.1571 16.3879 11.1872Z" fill="#00AD50" stroke="black" stroke-width="0.0346667" stroke-miterlimit="4.8"/>
<path d="M16.1226 11.3768C16.1226 11.3768 16.0674 11.4523 16.1276 11.5076C16.1276 11.5076 16.0623 11.6029 16.1127 11.6835C16.1127 11.6835 16.0724 11.7689 16.0824 11.8594C16.0824 11.8594 16.0472 12 16.1226 12.0655C16.1226 12.0655 16.2031 12.1057 16.2383 12.0705C16.2383 12.0705 16.3086 11.965 16.2633 11.8543C16.2633 11.8543 16.3136 11.7639 16.2583 11.6483C16.2583 11.6483 16.2734 11.5829 16.2282 11.5076C16.2282 11.5076 16.2583 11.4573 16.2331 11.4171C16.2331 11.4171 16.1327 11.3115 16.1226 11.3768Z" fill="#862633" stroke="black" stroke-width="0.0346667" stroke-miterlimit="4.8"/>
<path d="M16.1834 11.1311C16.1834 11.1311 15.9322 10.6487 15.7562 10.6284C15.5803 10.6083 15.5703 10.4375 15.5703 10.4375C15.5703 10.4375 15.5904 10.5179 15.7311 10.5179C15.8719 10.5179 16.1433 10.7139 16.1734 10.8647C16.2035 11.0154 16.2338 10.9954 16.2338 10.9954L16.1834 11.1311Z" fill="#00AD50" stroke="black" stroke-width="0.0346667" stroke-miterlimit="4.8"/>
<path d="M16.1842 11.0968C16.1842 11.0968 16.2747 10.4887 16.6718 10.4786C17.0687 10.4685 16.9382 10.5087 17.0336 10.4434C17.0336 10.4434 16.7673 10.5842 16.6014 10.6042C16.4356 10.6243 16.2998 10.9459 16.3049 11.0063C16.3099 11.0666 16.2144 11.1822 16.1692 11.1421C16.1239 11.1018 16.1842 11.0968 16.1842 11.0968Z" fill="#00AD50" stroke="black" stroke-width="0.0346667" stroke-miterlimit="4.8"/>
<path d="M16.2741 11.322C16.2741 11.322 16.3645 11.0807 16.5204 11.1612C16.5204 11.1612 16.3997 10.9299 16.1836 11.131C16.1836 11.131 16.2791 11.2616 16.2741 11.322Z" fill="#00AD50" stroke="black" stroke-width="0.0346667" stroke-miterlimit="4.8"/>
<path d="M15.9692 11.0804C15.9692 11.0804 16.0999 11.6183 15.8989 11.7841C15.8989 11.7841 15.9039 11.5078 15.7832 11.3419C15.6627 11.1759 15.9039 10.9952 15.9692 11.0804Z" fill="#00AD50" stroke="black" stroke-width="0.0346667" stroke-miterlimit="4.8"/>
<path d="M15.9888 11.1769C15.9888 11.1769 16.2251 11.4032 16.2402 11.4785C16.2553 11.5539 16.3105 11.2524 16.1999 11.167C16.0894 11.0814 15.9688 11.0664 15.9688 11.0664L15.9888 11.1769Z" fill="#00AD50" stroke="black" stroke-width="0.0346667" stroke-miterlimit="4.8"/>
<path d="M15.5508 11.7689C15.5508 11.7689 15.5722 11.8638 15.6305 11.8822C15.6305 11.8822 15.6335 11.9527 15.6856 11.9741C15.6856 11.9741 15.6579 12.0324 15.704 12.0691C15.704 12.0691 15.6947 12.1855 15.7377 12.2101C15.7377 12.2101 15.842 12.204 15.8786 12.1733C15.8786 12.1733 15.9001 12.0968 15.842 12.0201C15.842 12.0201 15.8511 11.9465 15.7928 11.9067C15.7928 11.9067 15.8112 11.8086 15.7377 11.7719C15.7377 11.7719 15.7255 11.6921 15.6794 11.6523C15.6794 11.6523 15.5906 11.7779 15.5508 11.7689Z" fill="#862633" stroke="black" stroke-width="0.0346667" stroke-miterlimit="4.8"/>
<path d="M15.6686 11.6537C15.6686 11.6537 15.3591 11.5403 15.1875 11.7028C15.1875 11.7028 15.451 11.7396 15.4848 11.7917C15.5185 11.8437 15.6808 11.7059 15.6686 11.6537Z" fill="#00AD50" stroke="black" stroke-width="0.0346667" stroke-miterlimit="4.8"/>
<path d="M15.5752 11.8452C15.5752 11.8452 15.5507 11.8238 15.52 11.8023C15.4894 11.7808 15.229 11.7104 15.1921 11.9616C15.1921 11.9616 15.097 11.7134 15.235 11.6797C15.373 11.6459 15.4833 11.7256 15.5752 11.8452Z" fill="#00AD50" stroke="black" stroke-width="0.0346667" stroke-miterlimit="4.8"/>
<path d="M15.3672 11.332C15.3672 11.332 15.4626 11.538 15.4978 11.5483C15.533 11.5582 15.5581 11.5231 15.5581 11.5231C15.5581 11.5231 15.4325 11.3372 15.3672 11.332Z" fill="#00AD50" stroke="black" stroke-width="0.0346667" stroke-miterlimit="4.8"/>
<path d="M15.2987 11.0157C15.2987 11.0157 15.2182 10.7493 15.1228 10.8197C15.0273 10.89 15.0524 11.0809 15.0524 11.0809C15.0524 11.0809 14.8614 10.885 14.9719 10.7292C15.0826 10.5734 15.2987 10.7443 15.2987 11.0157Z" fill="#00AD50" stroke="black" stroke-width="0.0346667" stroke-miterlimit="4.8"/>
<path d="M15.5156 11.5625C15.5156 11.5625 15.5156 11.6127 15.5508 11.6278C15.586 11.6429 15.6513 11.6679 15.6513 11.6379C15.6513 11.6077 15.6011 11.4921 15.5809 11.5072C15.5608 11.5223 15.5257 11.5222 15.5156 11.5625Z" fill="#862633" stroke="black" stroke-width="0.0346667" stroke-miterlimit="4.8"/>
<path d="M15.4533 11.2513C15.4533 11.2513 15.4432 11.0201 15.5939 10.9346C15.5939 10.9346 15.6241 10.9397 15.6392 10.8945C15.6392 10.8945 15.5185 11.1859 15.5537 11.3317L15.5487 11.3518" fill="#00AD50"/>
<path d="M15.4533 11.2513C15.4533 11.2513 15.4432 11.0201 15.5939 10.9346C15.5939 10.9346 15.6241 10.9397 15.6392 10.8945C15.6392 10.8945 15.5185 11.1859 15.5537 11.3317L15.5487 11.3518" stroke="black" stroke-width="0.0346667" stroke-miterlimit="4.8"/>
<path d="M15.4844 10.9709C15.4844 10.9709 15.7558 10.4079 16.0875 10.6039C16.0875 10.6039 15.7407 10.6743 15.6151 10.9206L15.4894 11.1064L15.4844 10.9709L15.4844 10.9709Z" fill="#00AD50" stroke="black" stroke-width="0.0346667" stroke-miterlimit="4.8"/>
<path d="M15.3396 11.177C15.3396 11.177 15.2592 10.8001 15.2089 10.7499C15.1586 10.6996 15.0732 10.6443 14.9727 10.7297C14.9727 10.7297 15.1486 10.5738 15.3346 10.7046C15.5205 10.8353 15.4803 11.0413 15.4803 11.0413L15.4602 11.3027L15.3346 11.1871" fill="#00AD50"/>
<path d="M15.3396 11.177C15.3396 11.177 15.2592 10.8001 15.2089 10.7499C15.1586 10.6996 15.0732 10.6443 14.9727 10.7297C14.9727 10.7297 15.1486 10.5738 15.3346 10.7046C15.5205 10.8353 15.4803 11.0413 15.4803 11.0413L15.4602 11.3027L15.3346 11.1871" stroke="black" stroke-width="0.0346667" stroke-miterlimit="4.8"/>
<path d="M15.6305 11.6241C15.6305 11.6241 15.2988 10.996 15.0827 11.4433C15.0827 11.4433 15.0424 11.5588 15.0876 11.6039C15.0876 11.6039 14.967 11.5135 15.0223 11.2924C15.0775 11.0714 15.4444 11.1718 15.5501 11.3528C15.6556 11.5337 15.6858 11.6242 15.6707 11.6342C15.6556 11.6443 15.6305 11.6241 15.6305 11.6241Z" fill="#00AD50" stroke="black" stroke-width="0.0346667" stroke-miterlimit="4.8"/>
<path d="M16.5664 11.805C16.5664 11.805 16.8078 11.3074 16.9484 11.5335C16.9484 11.5335 16.9886 11.6441 16.9282 11.6894C16.9282 11.6894 16.8328 11.5738 16.7474 11.7145C16.6619 11.8552 16.6971 11.8452 16.6971 11.8452C16.6971 11.8452 16.6066 11.8704 16.5664 11.805Z" fill="#00AD50" stroke="black" stroke-width="0.0346667" stroke-miterlimit="4.8"/>
<path d="M16.9258 11.6891C16.9258 11.6891 17.0564 11.7593 17.0113 11.9001C17.0113 11.9001 17.1871 11.5634 16.946 11.5332C16.946 11.5332 16.9913 11.6388 16.9258 11.6891Z" fill="#00AD50" stroke="black" stroke-width="0.0346667" stroke-miterlimit="4.8"/>
<path d="M16.9422 11.348C16.9422 11.348 17.2589 11.4384 17.2689 11.5743C17.2689 11.5743 17.3242 11.3128 17.1432 11.2324C17.1433 11.2324 16.9271 11.2677 16.9422 11.348Z" fill="#00AD50" stroke="black" stroke-width="0.0346667" stroke-miterlimit="4.8"/>
<path d="M17.0834 10.9296C17.2191 10.6633 17.39 11.0151 17.39 11.0151C17.39 11.0151 17.4502 10.7387 17.2795 10.6884C17.1085 10.6381 16.998 11.2764 16.998 11.2764L16.7969 11.3216C16.7969 11.3216 16.8522 10.7638 17.1537 10.7135L17.1889 10.7186" fill="#00AD50"/>
<path d="M17.0834 10.9296C17.2191 10.6633 17.39 11.0151 17.39 11.0151C17.39 11.0151 17.4502 10.7387 17.2795 10.6884C17.1085 10.6381 16.998 11.2764 16.998 11.2764L16.7969 11.3216C16.7969 11.3216 16.8522 10.7638 17.1537 10.7135L17.1889 10.7186" stroke="black" stroke-width="0.0346667" stroke-miterlimit="4.8"/>
<path d="M16.8412 11.0909C16.8412 11.0909 16.6503 10.6989 16.5196 10.6588C16.3889 10.6186 16.5901 10.5582 16.6705 10.6336C16.7507 10.7089 16.9015 10.8045 16.8865 11.0055L16.8412 11.0909Z" fill="#00AD50" stroke="black" stroke-width="0.0346667" stroke-miterlimit="4.8"/>
<path d="M16.6445 11.6291C16.6445 11.6291 16.6998 11.3628 16.8505 11.2824C17.0013 11.2019 17.1421 11.2321 17.1421 11.2321C17.1421 11.2321 16.9611 11.2723 16.931 11.3628C16.9008 11.4532 16.8505 11.4582 16.8505 11.4582L16.6445 11.6291Z" fill="#00AD50" stroke="black" stroke-width="0.0346667" stroke-miterlimit="4.8"/>
<path d="M16.5663 11.8047C16.5663 11.8047 16.4808 11.9656 16.5009 11.9906C16.5009 11.9906 16.4105 12.1213 16.4456 12.1866C16.4456 12.1866 16.5361 12.257 16.5763 12.2268C16.5763 12.2268 16.6817 12.0811 16.6516 12.0006C16.6516 12.0006 16.722 11.9052 16.697 11.8449C16.697 11.8449 16.5915 11.8499 16.5663 11.8047Z" fill="#862633" stroke="black" stroke-width="0.0346667" stroke-miterlimit="4.8"/>
<path d="M16.125 11.5171C16.1307 11.52 16.1814 11.5446 16.2156 11.5332L16.24 11.5124L16.2208 11.5028C16.2083 11.5277 16.153 11.5072 16.1345 11.498L16.125 11.5171Z" fill="black"/>
<path d="M16.1174 11.6738L16.1133 11.6948C16.1176 11.6957 16.2196 11.7154 16.2682 11.6722L16.254 11.6562C16.2133 11.6923 16.1185 11.6741 16.1174 11.6738Z" fill="black"/>
<path d="M16.0907 11.8508L16.0781 11.8681C16.0793 11.8691 16.1978 11.9534 16.2737 11.8613L16.2571 11.8477C16.1941 11.9241 16.0949 11.8539 16.0907 11.8508Z" fill="black"/>
<path d="M15.6289 11.8766L15.6334 11.8881C15.6376 11.8864 15.738 11.846 15.7444 11.7726L15.7322 11.7715C15.7265 11.8374 15.6299 11.8763 15.6289 11.8766Z" fill="black"/>
<path d="M15.6836 11.9672L15.6845 11.9794C15.6884 11.9791 15.7811 11.9722 15.7973 11.9074L15.7853 11.9043C15.7713 11.9605 15.6845 11.9671 15.6836 11.9672Z" fill="black"/>
<path d="M15.7077 12.0637L15.707 12.076C15.7115 12.0762 15.8153 12.0816 15.8506 12.0241L15.8401 12.0176C15.8086 12.069 15.7087 12.0638 15.7077 12.0637Z" fill="black"/>
<path d="M16.4922 11.9976C16.494 11.9996 16.5388 12.0438 16.5911 12.0418C16.6167 12.0409 16.6394 12.0291 16.6586 12.0071L16.6424 11.993C16.6273 12.0104 16.6097 12.0197 16.5904 12.0204C16.5476 12.022 16.5076 11.9829 16.5073 11.9824L16.4922 11.9976Z" fill="black"/>
<path d="M19.6102 12.3652C19.6045 12.3674 19.5989 12.3708 19.5938 12.3761L19.6102 12.3652Z" fill="#862633" stroke="black" stroke-width="0.0186667" stroke-miterlimit="4.8"/>
<path d="M19.9796 12.2732C19.9761 12.264 19.9737 12.2679 19.969 12.2638C19.9622 12.2582 19.9583 12.2404 19.9524 12.2338C19.9489 12.2297 19.9448 12.2337 19.941 12.2327C19.9323 12.2137 19.9222 12.1936 19.9131 12.1753C19.9145 12.1732 19.9154 12.1706 19.9156 12.1667C19.9156 12.166 19.9113 12.1514 19.911 12.1507C19.9084 12.1466 19.9043 12.149 19.9018 12.1427C19.8991 12.1364 19.9012 12.124 19.9002 12.1166C19.8994 12.1104 19.897 12.107 19.8974 12.0982C19.8978 12.0906 19.9018 12.0818 19.9014 12.0752C19.9012 12.071 19.8963 12.0616 19.8948 12.0581C19.8889 12.0437 19.8839 12.0302 19.8831 12.0125C19.8824 11.9964 19.8856 11.9866 19.8868 11.9727C19.8883 11.956 19.8795 11.9479 19.8795 11.9325C19.8796 11.9208 19.8846 11.9075 19.886 11.897C19.8879 11.8825 19.8881 11.8615 19.8869 11.8467C19.8858 11.8325 19.8818 11.824 19.884 11.8081C19.8846 11.8042 19.8864 11.801 19.8869 11.7955C19.8868 11.7916 19.8868 11.7879 19.8868 11.7841V11.7612C19.8868 11.7538 19.8875 11.7454 19.8869 11.7382C19.8862 11.7322 19.8827 11.7259 19.8827 11.7212C19.8827 11.713 19.8879 11.7092 19.8868 11.6981C19.8861 11.6901 19.8849 11.6883 19.8831 11.6813C19.8796 11.6682 19.882 11.6549 19.8798 11.6408C19.8788 11.6341 19.8767 11.6319 19.876 11.6242C19.8751 11.6151 19.8779 11.612 19.8788 11.6056C19.8797 11.5992 19.8807 11.5907 19.8798 11.584C19.8788 11.5758 19.8749 11.57 19.876 11.5611L19.873 11.662C19.8705 11.574 19.867 11.4925 19.867 11.4925L19.7332 11.4297C19.7332 11.4297 19.7219 11.6754 19.7248 11.7096C19.7274 11.7439 19.7389 11.9783 19.7332 12.0068C19.7274 12.0354 19.7134 12.1783 19.7134 12.1783C19.7134 12.1783 19.6479 12.224 19.6223 12.2753C19.5966 12.3268 19.6024 12.344 19.5938 12.344L19.6573 12.334L19.61 12.3657C19.6197 12.362 19.63 12.3628 19.6395 12.3702C19.6406 12.3711 19.6476 12.3772 19.6485 12.3772C19.651 12.3772 19.6545 12.3708 19.6575 12.3697C19.6674 12.3664 19.6757 12.3848 19.685 12.3834C19.6901 12.3827 19.6969 12.3774 19.701 12.372C19.7044 12.3675 19.7057 12.3595 19.7093 12.3565C19.7125 12.3537 19.7205 12.3569 19.7239 12.3569C19.7333 12.3569 19.7427 12.3572 19.7521 12.3569C19.7645 12.3566 19.7746 12.339 19.7861 12.3291C19.7968 12.3201 19.8047 12.3169 19.8161 12.3176C19.8286 12.3185 19.8399 12.3302 19.8526 12.331C19.8623 12.3314 19.8689 12.3326 19.8767 12.3225C19.8821 12.3155 19.8859 12.305 19.891 12.2977L19.9226 12.2928C19.9289 12.2954 19.9353 12.2983 19.9407 12.2981C19.9487 12.2977 19.9571 12.2967 19.9651 12.298C19.9681 12.2983 19.9741 12.3055 19.9766 12.3037C19.9783 12.3024 19.9812 12.2928 19.9829 12.2899C19.9822 12.286 19.981 12.2764 19.9796 12.2732Z" fill="#862633" stroke="black" stroke-width="0.0186667" stroke-miterlimit="4.8"/>
<path d="M19.7099 12.3614C19.7179 12.3614 19.7253 12.3595 19.7321 12.3654C19.7332 12.3676 19.7342 12.3696 19.7353 12.3717C19.7375 12.3732 19.7398 12.3734 19.742 12.3726C19.7465 12.3757 19.7475 12.3774 19.7524 12.3785C19.7571 12.3795 19.7622 12.3783 19.7668 12.3784C19.7727 12.3786 19.7755 12.3806 19.781 12.3829C19.7905 12.3868 19.7968 12.3831 19.8051 12.3771C19.8147 12.3701 19.8181 12.3755 19.8273 12.3843C19.8342 12.3908 19.8328 12.3902 19.839 12.3858C19.8399 12.3836 19.841 12.3816 19.8421 12.3798C19.8451 12.3785 19.8483 12.3777 19.8514 12.3771C19.8565 12.3747 19.8616 12.375 19.8665 12.3731C19.8715 12.3712 19.8753 12.3655 19.8806 12.3666C19.8853 12.3675 19.8906 12.3713 19.895 12.3727C19.8993 12.3741 19.9011 12.375 19.9047 12.3776C19.911 12.3644 19.9251 12.3605 19.9341 12.3541C19.9435 12.3476 19.9522 12.3555 19.9625 12.3556C19.968 12.3556 19.9702 12.3524 19.9741 12.3512C19.9785 12.3496 19.9834 12.3519 19.9876 12.3501C19.9921 12.3485 19.9929 12.3442 19.9978 12.3436C20.0069 12.3425 20.017 12.3573 20.0261 12.3601C20.0312 12.3618 20.0548 12.3671 20.0513 12.3498C20.048 12.3332 20.0332 12.3447 20.03 12.3331C20.0283 12.3265 20.0318 12.3171 20.0297 12.3097C20.028 12.303 20.0205 12.2952 20.0161 12.2937C20.0105 12.2919 20.0073 12.2978 20.0026 12.2932C19.9987 12.2896 19.9972 12.2761 19.9938 12.2707C19.9892 12.274 19.9863 12.2771 19.9803 12.2759C19.9734 12.2742 19.9741 12.2719 19.969 12.2654C19.9579 12.2515 19.9515 12.2737 19.9412 12.2702C19.9334 12.2677 19.9261 12.2481 19.92 12.2401C19.9168 12.2358 19.9076 12.222 19.9029 12.2251C19.8949 12.2302 19.9021 12.2453 19.898 12.2519C19.895 12.2566 19.8844 12.2518 19.8806 12.2526C19.8746 12.2539 19.8735 12.2555 19.8691 12.2627C19.8603 12.2772 19.8552 12.2888 19.8415 12.2872C19.835 12.2864 19.8301 12.2798 19.8238 12.2822C19.8171 12.2848 19.8132 12.2921 19.8058 12.2929C19.8004 12.2933 19.7942 12.2935 19.789 12.2915C19.7838 12.2892 19.7779 12.2795 19.7732 12.2768C19.7712 12.2751 19.7691 12.2747 19.7668 12.2755C19.7662 12.2753 19.7591 12.2711 19.759 12.2711C19.7507 12.2687 19.7514 12.269 19.7481 12.2799C19.7461 12.2867 19.7454 12.2936 19.7429 12.3C19.7405 12.3054 19.7352 12.3121 19.7321 12.3157C19.7264 12.3219 19.7236 12.3202 19.7161 12.3225C19.7101 12.3244 19.7021 12.3338 19.6988 12.3217C19.694 12.3035 19.7122 12.2764 19.692 12.2811C19.6867 12.2823 19.6835 12.2833 19.6803 12.2911C19.6767 12.3001 19.6796 12.3059 19.678 12.3158C19.6759 12.3282 19.6522 12.3491 19.6569 12.3603C19.66 12.3682 19.6706 12.3561 19.6735 12.358C19.6783 12.3613 19.6769 12.3692 19.6803 12.3745C19.6875 12.3855 19.7087 12.3576 19.7099 12.3727" fill="#862633"/>
<path d="M19.7099 12.3614C19.7179 12.3614 19.7253 12.3595 19.7321 12.3654C19.7332 12.3676 19.7342 12.3696 19.7353 12.3717C19.7375 12.3732 19.7398 12.3734 19.742 12.3726C19.7465 12.3757 19.7475 12.3774 19.7524 12.3785C19.7571 12.3795 19.7622 12.3783 19.7668 12.3784C19.7727 12.3786 19.7755 12.3806 19.781 12.3829C19.7905 12.3868 19.7968 12.3831 19.8051 12.3771C19.8147 12.3701 19.8181 12.3755 19.8273 12.3843C19.8342 12.3908 19.8328 12.3902 19.839 12.3858C19.8399 12.3836 19.841 12.3816 19.8421 12.3798C19.8451 12.3785 19.8483 12.3777 19.8514 12.3771C19.8565 12.3747 19.8616 12.375 19.8665 12.3731C19.8715 12.3712 19.8753 12.3655 19.8806 12.3666C19.8853 12.3675 19.8906 12.3713 19.895 12.3727C19.8993 12.3741 19.9011 12.375 19.9047 12.3776C19.911 12.3644 19.9251 12.3605 19.9341 12.3541C19.9435 12.3476 19.9522 12.3555 19.9625 12.3556C19.968 12.3556 19.9702 12.3524 19.9741 12.3512C19.9785 12.3496 19.9834 12.3519 19.9876 12.3501C19.9921 12.3485 19.9929 12.3442 19.9978 12.3436C20.0069 12.3425 20.017 12.3573 20.0261 12.3601C20.0312 12.3618 20.0548 12.3671 20.0513 12.3498C20.048 12.3332 20.0332 12.3447 20.03 12.3331C20.0283 12.3265 20.0318 12.3171 20.0297 12.3097C20.028 12.303 20.0205 12.2952 20.0161 12.2937C20.0105 12.2919 20.0073 12.2978 20.0026 12.2932C19.9987 12.2896 19.9972 12.2761 19.9938 12.2707C19.9892 12.274 19.9863 12.2771 19.9803 12.2759C19.9734 12.2742 19.9741 12.2719 19.969 12.2654C19.9579 12.2515 19.9515 12.2737 19.9412 12.2702C19.9334 12.2677 19.9261 12.2481 19.92 12.2401C19.9168 12.2358 19.9076 12.222 19.9029 12.2251C19.8949 12.2302 19.9021 12.2453 19.898 12.2519C19.895 12.2566 19.8844 12.2518 19.8806 12.2526C19.8746 12.2539 19.8735 12.2555 19.8691 12.2627C19.8603 12.2772 19.8552 12.2888 19.8415 12.2872C19.835 12.2864 19.8301 12.2798 19.8238 12.2822C19.8171 12.2848 19.8132 12.2921 19.8058 12.2929C19.8004 12.2933 19.7942 12.2935 19.789 12.2915C19.7838 12.2892 19.7779 12.2795 19.7732 12.2768C19.7712 12.2751 19.7691 12.2747 19.7668 12.2755C19.7662 12.2753 19.7591 12.2711 19.759 12.2711C19.7507 12.2687 19.7514 12.269 19.7481 12.2799C19.7461 12.2867 19.7454 12.2936 19.7429 12.3C19.7405 12.3054 19.7352 12.3121 19.7321 12.3157C19.7264 12.3219 19.7236 12.3202 19.7161 12.3225C19.7101 12.3244 19.7021 12.3338 19.6988 12.3217C19.694 12.3035 19.7122 12.2764 19.692 12.2811C19.6867 12.2823 19.6835 12.2833 19.6803 12.2911C19.6767 12.3001 19.6796 12.3059 19.678 12.3158C19.6759 12.3282 19.6522 12.3491 19.6569 12.3603C19.66 12.3682 19.6706 12.3561 19.6735 12.358C19.6783 12.3613 19.6769 12.3692 19.6803 12.3745C19.6875 12.3855 19.7087 12.3576 19.7099 12.3727" stroke="black" stroke-width="0.0186667" stroke-miterlimit="4.8"/>
<path d="M19.6241 12.2638C19.6241 12.2622 19.6238 12.2607 19.6237 12.2591C19.618 12.2581 19.6116 12.2521 19.6064 12.252C19.6015 12.2517 19.592 12.2636 19.5886 12.2694C19.5782 12.2865 19.5811 12.3099 19.5637 12.3095C19.5594 12.3094 19.5494 12.3066 19.5457 12.3091C19.5391 12.3138 19.5433 12.3275 19.5433 12.3369C19.5433 12.3457 19.5473 12.3369 19.5426 12.3483C19.5412 12.3514 19.5369 12.3524 19.5358 12.3566C19.5323 12.3715 19.5447 12.3668 19.5501 12.3666C19.5642 12.3665 19.5782 12.3665 19.5922 12.3666C19.6006 12.3668 19.6057 12.3639 19.6136 12.3608C19.6187 12.359 19.6298 12.3591 19.6342 12.3545C19.6357 12.3527 19.6409 12.341 19.6416 12.3382C19.6427 12.3324 19.6405 12.3255 19.6419 12.3207C19.6441 12.3122 19.6516 12.3154 19.653 12.3041C19.6566 12.2761 19.6268 12.297 19.6315 12.2696" fill="#862633"/>
<path d="M19.6241 12.2638C19.6241 12.2622 19.6238 12.2607 19.6237 12.2591C19.618 12.2581 19.6116 12.2521 19.6064 12.252C19.6015 12.2517 19.592 12.2636 19.5886 12.2694C19.5782 12.2865 19.5811 12.3099 19.5637 12.3095C19.5594 12.3094 19.5494 12.3066 19.5457 12.3091C19.5391 12.3138 19.5433 12.3275 19.5433 12.3369C19.5433 12.3457 19.5473 12.3369 19.5426 12.3483C19.5412 12.3514 19.5369 12.3524 19.5358 12.3566C19.5323 12.3715 19.5447 12.3668 19.5501 12.3666C19.5642 12.3665 19.5782 12.3665 19.5922 12.3666C19.6006 12.3668 19.6057 12.3639 19.6136 12.3608C19.6187 12.359 19.6298 12.3591 19.6342 12.3545C19.6357 12.3527 19.6409 12.341 19.6416 12.3382C19.6427 12.3324 19.6405 12.3255 19.6419 12.3207C19.6441 12.3122 19.6516 12.3154 19.653 12.3041C19.6566 12.2761 19.6268 12.297 19.6315 12.2696" stroke="black" stroke-width="0.0186667" stroke-miterlimit="4.8"/>
<path d="M19.9623 11.4873C19.9623 11.5234 19.9375 11.5525 19.9068 11.5525C19.8765 11.5525 19.8516 11.5234 19.8516 11.4873C19.8516 11.4512 19.8765 11.4219 19.9068 11.4219C19.9375 11.4219 19.9623 11.4512 19.9623 11.4873Z" fill="black" stroke="black" stroke-width="0.0346667" stroke-miterlimit="4.8"/>
<path d="M19.7826 11.4071C19.7826 11.4432 19.7578 11.4724 19.7273 11.4724C19.6967 11.4724 19.6719 11.4432 19.6719 11.4071C19.6719 11.3711 19.6967 11.3418 19.7273 11.3418C19.7578 11.3418 19.7826 11.3711 19.7826 11.4071Z" fill="black" stroke="black" stroke-width="0.0346667" stroke-miterlimit="4.8"/>
<path d="M19.8762 11.4325C19.8762 11.4687 19.8514 11.4978 19.8209 11.4978C19.7904 11.4978 19.7656 11.4687 19.7656 11.4325C19.7656 11.3964 19.7904 11.3672 19.8209 11.3672C19.8514 11.3672 19.8762 11.3964 19.8762 11.4325Z" fill="black" stroke="black" stroke-width="0.0346667" stroke-miterlimit="4.8"/>
<path d="M19.7864 11.4911C19.7864 11.5272 19.7615 11.5565 19.731 11.5565C19.7005 11.5565 19.6758 11.5272 19.6758 11.4911C19.6758 11.455 19.7005 11.4258 19.731 11.4258C19.7616 11.4258 19.7864 11.455 19.7864 11.4911Z" fill="black" stroke="black" stroke-width="0.0346667" stroke-miterlimit="4.8"/>
<path d="M19.8724 11.5418C19.8724 11.5779 19.8475 11.6073 19.8171 11.6073C19.7866 11.6073 19.7617 11.5779 19.7617 11.5418C19.7617 11.5058 19.7866 11.4766 19.8171 11.4766C19.8474 11.4766 19.8724 11.5058 19.8724 11.5418Z" fill="black" stroke="black" stroke-width="0.0346667" stroke-miterlimit="4.8"/>
<path d="M19.8989 10.8296C19.8989 10.8296 20.4567 10.0507 21.0548 10.8598C21.0548 10.8598 21.0598 10.9403 21.0046 11.0257L20.9895 10.9604L20.9543 10.9704L20.9443 10.9302L20.8788 10.9252L20.899 10.8397L20.8286 10.895L20.8387 10.8347L20.7583 10.9152L20.7684 10.7442L20.6829 10.89L20.6929 10.7895L20.6628 10.8347L20.6446 10.7761L20.6176 10.8347L20.5773 10.8046V10.8448L20.507 10.7845L20.4819 10.8649L20.4468 10.7795L20.4367 10.8397L20.4014 10.7694L20.3965 10.8448L20.2808 10.7945L20.3059 10.8649L20.2508 10.8247L20.2608 10.8649L20.1855 10.8499L20.1904 10.895L20.11 10.8799L20.1251 10.9201L20.0145 10.9051L20.0546 10.9503L20.0434 10.9687C20.0434 10.9687 20.6477 10.7695 20.6879 11.5233L20.5773 11.5786L20.6075 11.5184L20.5773 11.4982L20.4869 11.4279L20.512 11.3324L20.4819 11.3425L20.4768 11.2872L20.4618 11.2972L20.4265 11.242L20.4165 11.2621L20.3914 11.1966L20.3663 11.242L20.3511 11.1314L20.311 11.2018L20.3059 11.1616L20.2908 11.1867L20.2405 11.1264L20.2256 11.1666L20.2054 11.1364L20.1904 11.1716L20.1351 11.1212V11.1616L20.0999 11.1314L20.0847 11.1515L19.9994 11.1062L19.9942 11.1464L19.9491 11.1062L19.934 11.1464C19.934 11.1464 20.4819 11.4581 20.3109 11.9657L20.2807 12.031L20.2708 11.8602L20.2205 11.9506L20.2555 11.7546L20.2205 11.7897L20.2154 11.7144L20.1703 11.7897L20.155 11.7044L20.135 11.7295L20.1047 11.5988L20.0796 11.6541L20.0395 11.5084L20.0093 11.5686L19.9892 11.4431L19.9691 11.5184L19.9087 11.4078L19.8988 11.453L19.8636 11.3626L19.8434 11.3928C19.8434 11.3928 19.7429 11.3877 19.7128 11.3626C19.6827 11.3375 19.5972 11.5134 19.5972 11.5134L19.6073 11.4078L19.5721 11.4781V11.4078L19.5067 11.6189L19.4916 11.4681L19.4565 11.5988L19.4413 11.5586L19.4313 11.614L19.4112 11.5938L19.3937 11.6531L19.3609 11.629V11.7094L19.3307 11.6692L19.3056 11.7898L19.2906 11.7397V11.7948L19.2655 11.7648L19.2403 11.8854L19.2051 11.8352L19.2002 11.9205L19.2151 11.986L19.175 11.9658L19.1901 12.0712C19.1901 12.0712 19.0343 11.7799 19.2203 11.4983C19.4061 11.217 19.6575 11.1416 19.6575 11.1416L19.6322 11.1165L19.6273 11.0913L19.4765 11.1667L19.4816 11.1213L19.4413 11.1566L19.4313 11.1063L19.4061 11.1516L19.4012 11.1314L19.3659 11.1868L19.3458 11.1063L19.3207 11.2019L19.297 11.1351L19.2453 11.2772V11.1717L19.2051 11.2823L19.1901 11.1617L19.16 11.3023V11.1767L19.1146 11.3023L19.0845 11.1817L19.0644 11.2973L19.0343 11.2069L19.004 11.3425L18.9589 11.2219L18.9338 11.4029L18.9036 11.3324L18.8985 11.4631L18.8635 11.3827L18.8985 11.5535L18.8533 11.4882L18.8684 11.5937L18.8032 11.4781L18.8081 11.614L18.7729 11.5686L18.7578 11.6189C18.7578 11.6189 18.7428 11.0962 19.0995 10.9956C19.4565 10.8952 19.6877 11.0259 19.6877 11.0259L19.552 10.9153L19.5671 10.8801H19.5168L19.5369 10.8399L19.4314 10.845L19.4615 10.8047L19.3811 10.8148V10.7897L19.3308 10.8298L19.3509 10.7846L19.2806 10.8298L19.2763 10.7629L19.2403 10.8198L19.2204 10.7595L19.0595 10.9202L19.1047 10.7544L19.0746 10.7897L19.0696 10.7544L19.0243 10.8249L19.0142 10.7746L18.9941 10.8348L18.979 10.7645L18.9439 10.8348L18.9087 10.7696L18.8937 10.8551L18.8684 10.8097L18.8383 10.8751L18.7982 10.8348L18.7931 10.8751L18.7127 10.8399L18.7328 10.9002L18.6724 10.85L18.6573 10.9304L18.6222 10.8901L18.5971 10.9908L18.572 10.8952L18.5469 10.9706C18.5469 10.9706 18.8612 10.163 19.6563 10.6899C19.6563 10.6899 19.7429 10.7746 19.7631 10.8349C19.7832 10.8952 19.7681 10.845 19.7681 10.845L19.753 10.2871L19.7832 10.5284L19.8033 10.4429L19.7983 10.5685L19.8786 10.3926C19.8786 10.3926 19.7832 10.6842 19.8183 10.7897C19.8183 10.7897 19.8536 10.453 19.9743 10.4127L19.8636 10.6539L19.8988 10.6489L19.8737 10.6992H19.9038L19.8674 10.779L19.8485 10.8199L19.8685 10.86L19.8989 10.8296Z" fill="#00AD50" stroke="black" stroke-width="0.0346667" stroke-miterlimit="4.8"/>
<path d="M19.8164 11.1592L19.8322 11.1734C19.8344 11.1712 19.8841 11.1183 19.9675 11.1887L19.9814 11.1723C19.8816 11.0879 19.8169 11.1584 19.8164 11.1592Z" fill="black"/>
<path d="M19.7902 10.885L19.7869 10.9043C19.7869 10.9043 19.8156 10.8921 19.8257 10.8878C19.8195 10.8988 19.799 10.9344 19.799 10.9344C19.799 10.9344 19.8412 10.9204 19.8568 10.9151C19.8316 10.9482 19.7852 11.0089 19.7852 11.0089L19.8022 11.0221L19.9163 10.8727C19.9163 10.8727 19.8637 10.8903 19.8454 10.8964C19.8528 10.8835 19.8758 10.8429 19.8758 10.8429C19.8758 10.8429 19.8293 10.8629 19.8145 10.8693C19.8186 10.8445 19.8272 10.7926 19.8272 10.7926L19.806 10.7891L19.7902 10.885Z" fill="black"/>
<path d="M19.6866 10.8917C19.6866 10.8917 19.7007 10.9229 19.7113 10.9461C19.7067 10.9442 19.672 10.9303 19.672 10.9303L19.7879 11.1355C19.7879 11.1355 19.802 11.1176 19.8028 11.1165C19.7911 11.1464 19.7794 11.1766 19.7794 11.1766L19.7995 11.1844L19.8494 11.0558L19.831 11.0454C19.831 11.0454 19.8036 11.0805 19.7908 11.0969C19.7799 11.0776 19.7398 11.0066 19.7207 10.973C19.7231 10.9739 19.7529 10.9859 19.7529 10.9859C19.7529 10.9859 19.731 10.9376 19.7208 10.9152C19.7344 10.9236 19.7643 10.9424 19.7643 10.9424V10.8659H19.7429V10.9037C19.7262 10.8933 19.6719 10.8594 19.6719 10.8594L19.6866 10.8917Z" fill="black"/>
<path d="M19.6133 11.1485L19.6218 11.1682C19.6532 11.1547 19.6791 11.1525 19.6988 11.1619C19.7218 11.1729 19.7287 11.1966 19.7288 11.1968L19.7494 11.1912C19.7492 11.1899 19.7401 11.158 19.7083 11.1427C19.6829 11.1304 19.6509 11.1324 19.6133 11.1485Z" fill="black"/>
<path d="M19.6855 11.2529L19.7031 11.3652L19.7244 11.3619L19.7067 11.2495L19.6855 11.2529Z" fill="black"/>
<path d="M19.8268 11.2618L19.8555 11.3477L19.8759 11.3409L19.8472 11.255L19.8268 11.2618Z" fill="black"/>
<path d="M19.8926 11.3244L19.9141 11.4102L19.9349 11.4049L19.9134 11.3192L19.8926 11.3244Z" fill="black"/>
<path d="M15.6215 13.9878C15.6215 13.9878 15.5273 13.945 15.4844 13.9763C15.4415 14.0078 15.4473 14.0535 15.4102 14.0506C15.4102 14.0506 15.5529 14.082 15.5843 14.0448C15.6157 14.0078 15.6215 13.9963 15.6215 13.9963" fill="#00AD50"/>
<path d="M15.6215 13.9878C15.6215 13.9878 15.5273 13.945 15.4844 13.9763C15.4415 14.0078 15.4473 14.0535 15.4102 14.0506C15.4102 14.0506 15.5529 14.082 15.5843 14.0448C15.6157 14.0078 15.6215 13.9963 15.6215 13.9963" stroke="black" stroke-width="0.0346667" stroke-miterlimit="4.8"/>
<path d="M15.6388 14.0273C15.6388 14.0273 15.5768 14.1103 15.5983 14.1588C15.6196 14.2074 15.6655 14.2116 15.6547 14.2472C15.6547 14.2472 15.716 14.1146 15.6866 14.0759C15.6571 14.0374 15.6472 14.0293 15.6472 14.0293" fill="#00AD50"/>
<path d="M15.6388 14.0273C15.6388 14.0273 15.5768 14.1103 15.5983 14.1588C15.6196 14.2074 15.6655 14.2116 15.6547 14.2472C15.6547 14.2472 15.716 14.1146 15.6866 14.0759C15.6571 14.0374 15.6472 14.0293 15.6472 14.0293" stroke="black" stroke-width="0.0346667" stroke-miterlimit="4.8"/>
<path d="M15.5342 13.7969C15.5342 13.7969 15.4352 13.8276 15.4242 13.8794C15.4128 13.9313 15.4476 13.9617 15.418 13.9842C15.418 13.9842 15.5455 13.9128 15.5443 13.8641C15.5431 13.8155 15.54 13.8032 15.54 13.8032" fill="#00AD50"/>
<path d="M15.5342 13.7969C15.5342 13.7969 15.4352 13.8276 15.4242 13.8794C15.4128 13.9313 15.4476 13.9617 15.418 13.9842C15.418 13.9842 15.5455 13.9128 15.5443 13.8641C15.5431 13.8155 15.54 13.8032 15.54 13.8032" stroke="black" stroke-width="0.0346667" stroke-miterlimit="4.8"/>
<path d="M15.5944 13.8311C15.5944 13.8311 15.6413 13.7387 15.6118 13.6946C15.5823 13.6503 15.5362 13.6541 15.5408 13.6172C15.5408 13.6172 15.5031 13.7584 15.5388 13.7915C15.5746 13.8243 15.5858 13.8306 15.5858 13.8306" fill="#00AD50"/>
<path d="M15.5944 13.8311C15.5944 13.8311 15.6413 13.7387 15.6118 13.6946C15.5823 13.6503 15.5362 13.6541 15.5408 13.6172C15.5408 13.6172 15.5031 13.7584 15.5388 13.7915C15.5746 13.8243 15.5858 13.8306 15.5858 13.8306" stroke="black" stroke-width="0.0346667" stroke-miterlimit="4.8"/>
<path d="M15.4965 13.7984C15.4965 13.7984 15.4988 13.695 15.453 13.668C15.4073 13.641 15.3674 13.6643 15.3555 13.6289C15.3555 13.6289 15.3828 13.7726 15.4294 13.787C15.476 13.801 15.4888 13.8018 15.4888 13.8018" fill="#00AD50"/>
<path d="M15.4965 13.7984C15.4965 13.7984 15.4988 13.695 15.453 13.668C15.4073 13.641 15.3674 13.6643 15.3555 13.6289C15.3555 13.6289 15.3828 13.7726 15.4294 13.787C15.476 13.801 15.4888 13.8018 15.4888 13.8018" stroke="black" stroke-width="0.0346667" stroke-miterlimit="4.8"/>
<path d="M15.6648 13.9705C15.6648 13.9705 15.7733 13.9332 15.7819 14.0504C15.7905 14.1675 15.7762 14.1276 15.7762 14.1276C15.7762 14.1276 15.719 14.0019 15.6562 13.9819L15.6648 13.9705Z" fill="#00AD50" stroke="black" stroke-width="0.0346667" stroke-miterlimit="4.8"/>
<path d="M15.6406 14.027C15.6406 14.0295 15.652 14.1181 15.652 14.1181L15.6672 14.1161L15.6558 14.0275C15.6561 14.0277 15.6928 13.8329 15.6928 13.8329L15.6777 13.8301L15.6406 14.027Z" fill="black"/>
<path d="M15.5402 13.9996L15.5352 14.0141C15.587 14.0323 15.6594 13.9753 15.6625 13.9729L15.6529 13.9609C15.6522 13.9614 15.5841 14.0152 15.5402 13.9996Z" fill="black"/>
<path d="M15.433 13.762L15.6758 13.8848L15.6855 13.8656L15.4427 13.7428L15.433 13.762Z" fill="black"/>
<path d="M15.4849 13.8423L15.5 13.8574L15.5486 13.8089L15.5335 13.7938L15.4849 13.8423Z" fill="black"/>
<path d="M15.5345 13.7225L15.5859 13.834L15.6054 13.825L15.554 13.7135L15.5345 13.7225Z" fill="black"/>
<path d="M15.6562 13.9691L15.6576 13.9906C15.7236 13.9861 15.7398 14.0288 15.7399 14.0293L15.7609 14.0249C15.7584 14.0127 15.732 13.964 15.6562 13.9691Z" fill="black"/>
<path d="M16.7709 14.0197C16.8519 13.9744 16.8681 13.8155 16.8681 13.8155C16.8487 13.874 16.6998 13.9322 16.6998 13.9322C16.8098 13.8641 16.9425 13.5566 16.9425 13.5566C16.9069 13.6668 16.6188 13.7573 16.4342 13.8609C16.2496 13.9645 16.3468 14.2625 16.3468 14.2625C16.2951 14.2268 16.1946 14.0683 16.1753 13.9289C16.1557 13.7897 16.1007 13.7348 15.9744 13.7185C15.8481 13.7023 15.7737 13.8447 15.7737 13.8447L15.5859 13.942L15.7768 13.9484C15.7768 13.9484 15.913 13.9938 15.913 14.1006C15.913 14.2075 15.7932 14.6349 15.9906 14.8745C16.128 15.0411 16.635 15.1367 16.635 15.1367" fill="white"/>
<path d="M16.7709 14.0197C16.8519 13.9744 16.8681 13.8155 16.8681 13.8155C16.8487 13.874 16.6998 13.9322 16.6998 13.9322C16.8098 13.8641 16.9425 13.5566 16.9425 13.5566C16.9069 13.6668 16.6188 13.7573 16.4342 13.8609C16.2496 13.9645 16.3468 14.2625 16.3468 14.2625C16.2951 14.2268 16.1946 14.0683 16.1753 13.9289C16.1557 13.7897 16.1007 13.7348 15.9744 13.7185C15.8481 13.7023 15.7737 13.8447 15.7737 13.8447L15.5859 13.942L15.7768 13.9484C15.7768 13.9484 15.913 13.9938 15.913 14.1006C15.913 14.2075 15.7932 14.6349 15.9906 14.8745C16.128 15.0411 16.635 15.1367 16.635 15.1367" stroke="black" stroke-width="0.0444444" stroke-miterlimit="4.8"/>
<path d="M16.3984 14.35C16.3984 14.35 16.4373 14.1589 16.5636 14.1654C16.6898 14.1719 16.7254 14.023 16.7999 14.0003C16.8744 13.9777 17.2597 13.8741 17.3018 13.6895C17.3018 13.6895 17.2662 13.9939 16.9133 14.146C16.9133 14.146 17.1982 14.0521 17.2306 13.9906C17.2306 13.9906 17.1042 14.2626 16.7967 14.3046C16.7967 14.3046 17.0848 14.282 17.1269 14.2043C17.1269 14.2043 16.9974 14.3759 16.7838 14.3986C16.7838 14.3986 16.9812 14.4795 17.0331 14.4115C17.0331 14.4115 16.9262 14.5378 16.7934 14.5474L16.8291 14.5572C16.8291 14.5572 16.7028 14.7062 16.5636 14.6058C16.4244 14.5053 16.4211 14.6317 16.4211 14.6317" fill="white"/>
<path d="M16.3984 14.35C16.3984 14.35 16.4373 14.1589 16.5636 14.1654C16.6898 14.1719 16.7254 14.023 16.7999 14.0003C16.8744 13.9777 17.2597 13.8741 17.3018 13.6895C17.3018 13.6895 17.2662 13.9939 16.9133 14.146C16.9133 14.146 17.1982 14.0521 17.2306 13.9906C17.2306 13.9906 17.1042 14.2626 16.7967 14.3046C16.7967 14.3046 17.0848 14.282 17.1269 14.2043C17.1269 14.2043 16.9974 14.3759 16.7838 14.3986C16.7838 14.3986 16.9812 14.4795 17.0331 14.4115C17.0331 14.4115 16.9262 14.5378 16.7934 14.5474L16.8291 14.5572C16.8291 14.5572 16.7028 14.7062 16.5636 14.6058C16.4244 14.5053 16.4211 14.6317 16.4211 14.6317" stroke="black" stroke-width="0.0444444" stroke-miterlimit="4.8"/>
<path d="M16.6874 14.6387C16.6874 14.6387 16.85 14.9107 16.8662 15.0564C16.8662 15.0564 17.1771 15.3997 17.2936 15.4189C17.2936 15.4189 17.2386 15.4416 17.1381 15.3575C17.1381 15.3575 17.2223 15.4449 17.2386 15.4482C17.2547 15.4515 17.1705 15.4417 17.1575 15.4189C17.1575 15.4189 17.1932 15.4709 17.2158 15.4773C17.2386 15.4838 17.1932 15.4709 17.1932 15.4709C17.1932 15.4709 17.151 15.4644 17.1316 15.4482C17.1122 15.432 17.1252 15.4902 17.1252 15.4902C17.1252 15.4902 17.0766 15.4772 17.0604 15.4611C17.0442 15.4449 17.0669 15.4968 17.0669 15.4968L17.0249 15.487L16.9957 15.5064C16.9957 15.5064 16.9925 15.5258 16.9729 15.5096C16.9536 15.4936 16.918 15.5096 16.918 15.5096C16.918 15.5096 16.892 15.5323 16.8791 15.5161C16.8662 15.5 16.8172 15.5784 16.8172 15.5784L16.6133 15.0863" fill="white"/>
<path d="M16.6874 14.6387C16.6874 14.6387 16.85 14.9107 16.8662 15.0564C16.8662 15.0564 17.1771 15.3997 17.2936 15.4189C17.2936 15.4189 17.2386 15.4416 17.1381 15.3575C17.1381 15.3575 17.2223 15.4449 17.2386 15.4482C17.2547 15.4515 17.1705 15.4417 17.1575 15.4189C17.1575 15.4189 17.1932 15.4709 17.2158 15.4773C17.2386 15.4838 17.1932 15.4709 17.1932 15.4709C17.1932 15.4709 17.151 15.4644 17.1316 15.4482C17.1122 15.432 17.1252 15.4902 17.1252 15.4902C17.1252 15.4902 17.0766 15.4772 17.0604 15.4611C17.0442 15.4449 17.0669 15.4968 17.0669 15.4968L17.0249 15.487L16.9957 15.5064C16.9957 15.5064 16.9925 15.5258 16.9729 15.5096C16.9536 15.4936 16.918 15.5096 16.918 15.5096C16.918 15.5096 16.892 15.5323 16.8791 15.5161C16.8662 15.5 16.8172 15.5784 16.8172 15.5784L16.6133 15.0863" stroke="black" stroke-width="0.0444444" stroke-miterlimit="4.8"/>
<path d="M16.6212 15.0408L16.8789 15.5312L16.906 15.517L16.6483 15.0266L16.6212 15.0408Z" fill="black"/>
<path d="M16.6607 15.0045L17.1016 15.498L17.1244 15.4776L16.6836 14.984L16.6607 15.0045Z" fill="black"/>
<path d="M16.7001 14.9863L17.2031 15.4551L17.224 15.4327L16.721 14.9639L16.7001 14.9863Z" fill="black"/>
<path d="M15.9472 13.8756C15.9472 13.8756 15.9144 13.8169 15.8858 13.8389C15.8573 13.861 15.8409 13.865 15.8359 13.8635C15.8359 13.8635 15.8646 13.865 15.8809 13.8495C15.8973 13.8339 15.9251 13.8438 15.9472 13.8756Z" fill="black"/>
<path d="M15.7677 13.8484C15.7677 13.8484 15.7857 13.8856 15.786 13.8863C15.7842 13.8864 15.7656 13.9465 15.7656 13.9465L15.7804 13.951L15.8004 13.8856C15.8 13.8799 15.7816 13.8418 15.7816 13.8418L15.7677 13.8484Z" fill="black"/>
<path d="M15.9391 13.8672C15.9391 13.8672 15.9146 13.8959 15.8811 13.8876C15.8477 13.8794 15.8477 13.8794 15.8477 13.8794C15.8477 13.8794 15.8761 13.881 15.895 13.8819C15.9137 13.8827 15.9382 13.8729 15.9391 13.8672Z" fill="black"/>
<path d="M15.9296 13.8726C15.9296 13.8726 15.8994 13.8408 15.8789 13.8497C15.8789 13.8497 15.9149 13.8383 15.9353 13.8692L15.9296 13.8726Z" fill="black"/>
<path d="M15.9258 13.8671C15.9258 13.8671 15.8915 13.8907 15.8539 13.8647L15.8516 13.8629L15.8565 13.8613C15.8565 13.8614 15.9038 13.8809 15.9258 13.8671Z" fill="black"/>
<path d="M15.8971 13.8722C15.9028 13.8722 15.9074 13.8676 15.9074 13.8619C15.9074 13.8562 15.9028 13.8516 15.8971 13.8516C15.8913 13.8516 15.8867 13.8562 15.8867 13.8619C15.8867 13.8676 15.8913 13.8722 15.8971 13.8722Z" fill="black"/>
<path d="M15.9229 14.7656C15.9229 14.7656 15.8964 14.8145 15.9103 14.844C15.9243 14.8734 15.9874 14.8887 15.9957 14.9279C16.0042 14.9672 16.0252 14.9671 16.0546 14.9617C16.0841 14.956 16.0897 14.9546 16.0897 14.9546C16.0897 14.9546 15.9663 14.8887 15.9341 14.7823L15.9229 14.7656Z" fill="black"/>
<path d="M19.9063 13.7684C19.9063 13.7684 20.1308 13.4724 20.3298 13.5501C20.5289 13.6279 20.6583 13.6654 20.6583 13.6654C20.6583 13.6654 20.662 13.8647 20.5562 13.8647C20.4506 13.8647 20.3493 13.6656 20.2531 13.7248C20.1567 13.7838 20.0775 13.8648 20.0713 13.8927C20.0651 13.9206 19.8163 13.9269 19.9063 13.7684Z" fill="#862633" stroke="black" stroke-width="0.0213333" stroke-miterlimit="4.8"/>
<path d="M19.0531 15.196C19.0531 15.196 18.991 15.2611 19.019 15.2768C19.0471 15.2923 19.1029 15.2735 19.1029 15.2519C19.1029 15.23 19.0657 15.1897 19.0531 15.196Z" fill="#862633" stroke="black" stroke-width="0.0346667" stroke-miterlimit="4.8"/>
<path d="M19.0045 15.2578C19.0045 15.2578 18.8895 15.1924 18.7993 15.3478C18.709 15.5033 18.6345 15.7552 18.5816 15.7895C18.5288 15.8236 19.0947 15.5407 19.1009 15.4226C19.1009 15.4226 19.1382 15.2701 19.0791 15.2732C19.0201 15.2764 19.0169 15.2827 19.0045 15.2578Z" fill="#862633" stroke="black" stroke-width="0.0346667" stroke-miterlimit="4.8"/>
<path d="M19.0178 15.2773C19.0178 15.2773 18.8997 15.3052 18.8748 15.473C18.8499 15.6411 18.6851 15.7281 18.6758 15.7342" fill="#862633"/>
<path d="M19.0178 15.2773C19.0178 15.2773 18.8997 15.3052 18.8748 15.473C18.8499 15.6411 18.6851 15.7281 18.6758 15.7342" stroke="black" stroke-width="0.0213333" stroke-miterlimit="4.8"/>
<path d="M20.6561 13.666C20.6561 13.666 20.4765 13.7285 20.5075 13.853L20.6561 13.666Z" fill="#862633"/>
<path d="M20.6561 13.666C20.6561 13.666 20.4765 13.7285 20.5075 13.853" stroke="black" stroke-width="0.0213333" stroke-miterlimit="4.8"/>
<path d="M19.2773 14.0291C19.2773 14.0291 19.2835 13.603 19.6316 13.6217C19.6975 13.6278 19.6661 13.7056 19.6661 13.7056C19.6661 13.7056 19.7414 13.6529 19.7758 13.7367C19.7758 13.7367 19.8856 13.687 19.898 13.7958C19.898 13.7958 20.0172 13.7803 20.0015 13.8767C20.0015 13.8767 20.083 13.858 20.08 13.9265C20.08 13.9265 20.174 13.8891 20.1645 13.9855C20.1645 13.9855 20.268 13.9171 20.2524 14.0414C20.2524 14.0414 20.359 13.9669 20.3965 14.0913C20.4341 14.2156 20.29 14.4799 20.1489 14.5483" fill="#FEDD00"/>
<path d="M19.2773 14.0291C19.2773 14.0291 19.2835 13.603 19.6316 13.6217C19.6975 13.6278 19.6661 13.7056 19.6661 13.7056C19.6661 13.7056 19.7414 13.6529 19.7758 13.7367C19.7758 13.7367 19.8856 13.687 19.898 13.7958C19.898 13.7958 20.0172 13.7803 20.0015 13.8767C20.0015 13.8767 20.083 13.858 20.08 13.9265C20.08 13.9265 20.174 13.8891 20.1645 13.9855C20.1645 13.9855 20.268 13.9171 20.2524 14.0414C20.2524 14.0414 20.359 13.9669 20.3965 14.0913C20.4341 14.2156 20.29 14.4799 20.1489 14.5483" stroke="black" stroke-width="0.0213333" stroke-miterlimit="4.8"/>
<path d="M20.2496 14.0565C20.25 14.0598 20.2965 14.3898 20.1094 14.5105L20.116 14.5209C20.3098 14.3958 20.2621 14.0581 20.2617 14.0547L20.2496 14.0565Z" fill="black"/>
<path d="M20.0234 14.4177L20.0321 14.4265C20.1506 14.3112 20.1761 14.0005 20.177 13.9874L20.1648 13.9863C20.1646 13.9896 20.1388 14.3056 20.0234 14.4177Z" fill="black"/>
<path d="M19.9141 14.3433L19.9263 14.3443C19.9415 14.1524 20.0915 13.9329 20.0931 13.9307L20.083 13.9238C20.0814 13.926 19.9296 14.1482 19.9141 14.3433Z" fill="black"/>
<path d="M19.8242 14.2889L19.8364 14.2901C19.8578 14.0586 20.0107 13.8848 20.0122 13.8832L20.0031 13.875C20.0015 13.8767 19.846 14.0533 19.8242 14.2889Z" fill="black"/>
<path d="M19.7031 14.2112L19.7153 14.2117C19.7275 13.9384 19.9068 13.8042 19.9086 13.8029L19.9013 13.793C19.8996 13.7943 19.7155 13.9317 19.7031 14.2112Z" fill="black"/>
<path d="M19.5941 14.1417L19.6064 14.1413C19.5974 13.8926 19.7886 13.7437 19.7906 13.7422L19.7832 13.7324C19.7813 13.734 19.585 13.8866 19.5941 14.1417Z" fill="black"/>
<path d="M19.3906 14.0514L19.4028 14.0529C19.4361 13.7837 19.6757 13.7136 19.6781 13.7129L19.6748 13.7012C19.6724 13.7018 19.4248 13.7739 19.3906 14.0514Z" fill="black"/>
<path d="M19.0729 14.5452C19.0729 14.5452 19.014 14.1502 19.2502 14.026C19.2502 14.026 19.2939 14.0166 19.3186 14.0726C19.3186 14.0726 19.4431 14.0198 19.4462 14.1253C19.4462 14.1253 19.5083 14.0756 19.5239 14.144C19.5239 14.144 19.6576 14.1161 19.6328 14.2155C19.6328 14.2155 19.7447 14.1845 19.7353 14.2808C19.7353 14.2808 19.8473 14.2404 19.8286 14.3243C19.8286 14.3243 19.9467 14.2964 19.9188 14.3928C19.9188 14.3928 20.065 14.3773 20.0214 14.4799C20.0214 14.4799 20.1303 14.4519 20.1053 14.5359C20.1053 14.5359 20.2484 14.5608 20.183 14.6509C20.1177 14.741 19.9529 14.8779 19.7914 14.9369" fill="#00AD50"/>
<path d="M19.0729 14.5452C19.0729 14.5452 19.014 14.1502 19.2502 14.026C19.2502 14.026 19.2939 14.0166 19.3186 14.0726C19.3186 14.0726 19.4431 14.0198 19.4462 14.1253C19.4462 14.1253 19.5083 14.0756 19.5239 14.144C19.5239 14.144 19.6576 14.1161 19.6328 14.2155C19.6328 14.2155 19.7447 14.1845 19.7353 14.2808C19.7353 14.2808 19.8473 14.2404 19.8286 14.3243C19.8286 14.3243 19.9467 14.2964 19.9188 14.3928C19.9188 14.3928 20.065 14.3773 20.0214 14.4799C20.0214 14.4799 20.1303 14.4519 20.1053 14.5359C20.1053 14.5359 20.2484 14.5608 20.183 14.6509C20.1177 14.741 19.9529 14.8779 19.7914 14.9369" stroke="black" stroke-width="0.0213333" stroke-miterlimit="4.8"/>
<path d="M18.9472 14.944C18.9472 14.944 18.8508 14.6146 19.0343 14.5305C19.0343 14.5305 19.0684 14.5211 19.0746 14.5554C19.0746 14.5554 19.1151 14.5025 19.1463 14.5492C19.1463 14.5492 19.2394 14.5056 19.2613 14.574C19.2613 14.574 19.3234 14.5211 19.3546 14.5988C19.3546 14.5988 19.4137 14.574 19.4137 14.6361C19.4137 14.6361 19.4945 14.6019 19.4945 14.6766C19.4945 14.6766 19.5721 14.6455 19.5566 14.7294C19.5566 14.7294 19.6748 14.748 19.6406 14.804C19.6406 14.804 19.7465 14.8319 19.7059 14.8756C19.7059 14.8756 19.8209 14.8631 19.7587 14.9408C19.7587 14.9408 19.8458 14.9129 19.7961 15.0094C19.7463 15.1057 19.5909 15.2114 19.4821 15.2238" fill="#00AD50"/>
<path d="M18.9472 14.944C18.9472 14.944 18.8508 14.6146 19.0343 14.5305C19.0343 14.5305 19.0684 14.5211 19.0746 14.5554C19.0746 14.5554 19.1151 14.5025 19.1463 14.5492C19.1463 14.5492 19.2394 14.5056 19.2613 14.574C19.2613 14.574 19.3234 14.5211 19.3546 14.5988C19.3546 14.5988 19.4137 14.574 19.4137 14.6361C19.4137 14.6361 19.4945 14.6019 19.4945 14.6766C19.4945 14.6766 19.5721 14.6455 19.5566 14.7294C19.5566 14.7294 19.6748 14.748 19.6406 14.804C19.6406 14.804 19.7465 14.8319 19.7059 14.8756C19.7059 14.8756 19.8209 14.8631 19.7587 14.9408C19.7587 14.9408 19.8458 14.9129 19.7961 15.0094C19.7463 15.1057 19.5909 15.2114 19.4821 15.2238" stroke="black" stroke-width="0.0213333" stroke-miterlimit="4.8"/>
<path d="M19.0603 15.2053C19.0603 15.2053 18.8551 15.0063 18.9516 14.9473C18.9516 14.9473 18.995 14.9596 19.0106 15.0032C19.0106 15.0032 19.0603 14.9317 19.0884 15.0062C19.0884 15.0062 19.163 14.9814 19.163 15.0313L19.222 15.0748C19.222 15.0748 19.2905 15.0685 19.2781 15.1121C19.2781 15.1121 19.3527 15.1027 19.3495 15.1432C19.3495 15.1432 19.4149 15.1462 19.4087 15.1897C19.4087 15.1897 19.5205 15.2084 19.4708 15.2644C19.4708 15.2644 19.2749 15.3048 19.1382 15.2489C19.1382 15.2488 19.0665 15.2239 19.0603 15.2053Z" fill="#00AD50" stroke="black" stroke-width="0.0213333" stroke-miterlimit="4.8"/>
<path d="M19.7656 14.8764L19.77 14.8878C19.8916 14.841 20.1028 14.5528 20.1118 14.5405L20.1018 14.5332C20.0996 14.5363 19.8839 14.8309 19.7656 14.8764Z" fill="black"/>
<path d="M19.6953 14.8232L19.7013 14.8338C19.8071 14.7748 20.0177 14.4958 20.0266 14.484L20.0169 14.4766C20.0147 14.4795 19.7989 14.7655 19.6953 14.8232L19.6953 14.8232Z" fill="black"/>
<path d="M19.6328 14.7991L19.6407 14.8084C19.7524 14.7157 19.9151 14.4093 19.9221 14.3964L19.9113 14.3906C19.9096 14.3938 19.7427 14.7078 19.6328 14.7991Z" fill="black"/>
<path d="M19.582 14.7297L19.5942 14.7314C19.6154 14.5766 19.8329 14.3329 19.8351 14.3305L19.826 14.3223C19.817 14.3324 19.6037 14.5712 19.582 14.7297Z" fill="black"/>
<path d="M19.1458 14.5408L19.1581 14.5398C19.1398 14.321 19.3229 14.0801 19.3248 14.0777L19.3151 14.0703C19.3131 14.0727 19.1272 14.3173 19.1458 14.5408Z" fill="black"/>
<path d="M19.261 14.5603L19.2732 14.5582C19.2429 14.3828 19.45 14.1334 19.4522 14.131L19.4428 14.123C19.4341 14.1334 19.2299 14.3792 19.261 14.5603Z" fill="black"/>
<path d="M19.4376 14.6247L19.4499 14.6243C19.4439 14.4241 19.636 14.2235 19.6379 14.2214L19.6291 14.2129C19.6272 14.2149 19.4314 14.4193 19.4376 14.6247Z" fill="black"/>
<path d="M19.0146 14.9868L19.026 14.9825C18.9563 14.7976 19.0774 14.5607 19.0786 14.5584L19.0676 14.5527C19.0664 14.5552 18.9428 14.7967 19.0146 14.9868Z" fill="black"/>
<path d="M19.0939 14.9988L19.1056 14.995C19.0447 14.8066 19.1478 14.5541 19.1489 14.5516L19.1375 14.5469C19.1365 14.5493 19.0318 14.8061 19.0939 14.9988Z" fill="black"/>
<path d="M19.4297 15.1871L19.4339 15.1987C19.6323 15.1273 19.762 14.9464 19.7633 14.9447L19.7533 14.9375C19.7521 14.9393 19.6246 15.1172 19.4297 15.1871Z" fill="black"/>
<path d="M19.3867 15.1435L19.3917 15.1548C19.55 15.0834 19.6975 14.8842 19.6989 14.8822L19.6891 14.875C19.6876 14.877 19.542 15.0735 19.3867 15.1435Z" fill="black"/>
<path d="M19.3516 15.1293L19.3587 15.1393C19.4825 15.0496 19.6415 14.8197 19.6432 14.8174L19.6331 14.8105C19.6315 14.8129 19.4737 15.0409 19.3516 15.1293Z" fill="black"/>
<path d="M19.1485 15.0126L19.1606 15.0108C19.1333 14.8131 19.2612 14.5786 19.2626 14.5763L19.2518 14.5703C19.2505 14.5727 19.1206 14.8108 19.1485 15.0126Z" fill="black"/>
<path d="M19.2383 15.0664L19.2465 15.0755C19.3742 14.9603 19.4177 14.6496 19.4195 14.6365L19.4073 14.6348C19.4069 14.6379 19.3627 14.9543 19.2383 15.0664Z" fill="black"/>
<path d="M19.3242 15.104L19.3314 15.1139C19.5116 14.9836 19.5605 14.7332 19.5609 14.7308L19.5489 14.7285C19.5484 14.7309 19.5005 14.9764 19.3242 15.104Z" fill="black"/>
<path d="M19.3459 14.5658C19.3459 14.5775 19.3465 14.5891 19.3476 14.6009C19.3474 14.5999 19.2109 15.0431 19.2109 15.0431L19.2226 15.0468L19.3596 14.6021C19.3385 14.3872 19.5275 14.1526 19.5294 14.1503L19.52 14.1426C19.5181 14.1447 19.3459 14.3584 19.3459 14.5658Z" fill="black"/>
<path d="M19.4884 14.6732C19.4866 14.6794 19.445 14.983 19.2812 15.095L19.2882 15.1051C19.4566 14.9899 19.4975 14.6906 19.4991 14.678C19.5718 14.5915 19.7393 14.2883 19.741 14.2852L19.7302 14.2793C19.7285 14.2823 19.5617 14.5847 19.4884 14.6732Z" fill="black"/>
<path d="M19.0039 15.0041C19.0051 15.0105 19.0325 15.1613 19.0638 15.2145L19.0744 15.2084C19.0441 15.157 19.0164 15.0036 19.0161 15.002L19.0039 15.0041Z" fill="black"/>
<path d="M19.0806 15.006C19.0819 15.0811 19.0823 15.2043 19.0781 15.2152L19.0895 15.2197C19.0958 15.2039 19.0934 15.0388 19.0929 15.0059L19.0806 15.006Z" fill="black"/>
<path d="M19.0898 15.2208L19.101 15.2257C19.1536 15.1113 19.1697 15.0324 19.1699 15.0317L19.1579 15.0293C19.1577 15.0299 19.1418 15.1077 19.0898 15.2208Z" fill="black"/>
<path d="M19.1016 15.2257L19.1078 15.2363C19.2053 15.1796 19.2279 15.081 19.2287 15.0769L19.2168 15.0742C19.2165 15.0752 19.1944 15.1719 19.1016 15.2257Z" fill="black"/>
<path d="M19.1211 15.2337L19.1223 15.2459C19.2179 15.2363 19.283 15.1202 19.2858 15.1153L19.275 15.1094C19.2744 15.1106 19.2102 15.2248 19.1211 15.2337Z" fill="black"/>
<path d="M19.1289 15.2407L19.1296 15.2529C19.2831 15.2435 19.3521 15.1518 19.3549 15.1479L19.345 15.1406C19.3444 15.1415 19.2763 15.2317 19.1289 15.2407Z" fill="black"/>
<path d="M19.1392 15.2428L19.1367 15.2547C19.145 15.2566 19.3405 15.2981 19.4074 15.1961L19.3972 15.1895C19.3349 15.2843 19.1411 15.2431 19.1392 15.2428Z" fill="black"/>
<path d="M14.7539 8.0918V13.5609C14.7539 15.3497 17.9859 16.4118 17.9859 16.4118C17.9859 16.4118 21.2179 15.3496 21.2179 13.5609V8.0918H14.7539Z" stroke="black" stroke-width="0.186667" stroke-miterlimit="4.8"/>
</g>
<defs>
<clipPath id="clip0_358_14016">
<rect width="24" height="24" rx="12" fill="white"/>
</clipPath>
</defs>
</svg>
