<svg width="24" height="24" viewBox="0 0 24 24" fill="none" xmlns="http://www.w3.org/2000/svg">
<g clip-path="url(#clip0_358_13950)">
<path d="M30 0H-6V24H30V0Z" fill="#75B2DD"/>
<path d="M11.6094 2.46094L10.8677 4.74347L12.009 5.11429" fill="white"/>
<path d="M11.6094 2.46094L12.351 4.74347L11.2097 5.11429" fill="white"/>
<path d="M13.8906 4.11914H11.4906V5.31914" fill="white"/>
<path d="M13.8906 4.11914L11.949 5.52983L11.2436 4.559" fill="white"/>
<path d="M13.0244 6.80273L12.2828 4.5202L11.1415 4.89102" fill="white"/>
<path d="M13.0244 6.80273L11.0828 5.39205L11.7881 4.42123" fill="white"/>
<path d="M10.2041 6.80273L12.1457 5.39205L11.4404 4.42123" fill="white"/>
<path d="M10.2041 6.80273L10.9457 4.5202L12.087 4.89102" fill="white"/>
<path d="M9.32422 4.11914L11.2659 5.52983L11.9712 4.559" fill="white"/>
<path d="M9.32422 4.11914H11.7242V5.31914" fill="white"/>
<path d="M21.207 12.0586L18.9245 11.317L18.5537 12.4582" fill="white"/>
<path d="M21.207 12.0586L18.9245 12.8002L18.5537 11.659" fill="white"/>
<path d="M19.5508 14.3438V11.9438H18.3508" fill="white"/>
<path d="M19.5508 14.3438L18.1401 12.4021L19.1109 11.6968" fill="white"/>
<path d="M16.8672 13.4697L19.1497 12.7281L18.7789 11.5868" fill="white"/>
<path d="M16.8672 13.4697L18.2779 11.5281L19.2487 12.2334" fill="white"/>
<path d="M16.8672 10.6494L18.2779 12.5911L19.2487 11.8857" fill="white"/>
<path d="M16.8672 10.6494L19.1497 11.3911L18.7789 12.5323" fill="white"/>
<path d="M19.5508 9.7793L18.1401 11.7209L19.1109 12.4263" fill="white"/>
<path d="M19.5508 9.7793V12.1793H18.3508" fill="white"/>
<path d="M11.6055 21.6602L12.3471 19.3776L11.2058 19.0068" fill="white"/>
<path d="M11.6055 21.6602L10.8638 19.3776L12.0051 19.0068" fill="white"/>
<path d="M9.32422 20.002H11.7242V18.802" fill="white"/>
<path d="M9.32422 20.002L11.2659 18.5913L11.9712 19.5621" fill="white"/>
<path d="M10.1904 17.3203L10.9321 19.6028L12.0733 19.232" fill="white"/>
<path d="M10.1904 17.3203L12.1321 18.731L11.4267 19.7018" fill="white"/>
<path d="M13.0107 17.3184L11.0691 18.729L11.7744 19.6999" fill="white"/>
<path d="M13.0107 17.3184L12.2691 19.6009L11.1278 19.2301" fill="white"/>
<path d="M13.8906 20.002L11.949 18.5913L11.2436 19.5621" fill="white"/>
<path d="M13.8906 20.002H11.4906V18.802" fill="white"/>
<path d="M2.00781 12.0625L4.29035 12.8041L4.66117 11.6629" fill="white"/>
<path d="M2.00781 12.0625L4.29035 11.3209L4.66117 12.4621" fill="white"/>
<path d="M3.66797 9.77734V12.1773H4.86797" fill="white"/>
<path d="M3.66797 9.77734L5.07865 11.719L4.10783 12.4243" fill="white"/>
<path d="M6.34766 10.6514L4.06512 11.393L4.43594 12.5343" fill="white"/>
<path d="M6.34766 10.6514L4.93697 12.593L3.96615 11.8877" fill="white"/>
<path d="M6.34766 13.4717L4.93697 11.53L3.96615 12.2354" fill="white"/>
<path d="M6.34766 13.4717L4.06512 12.73L4.43594 11.5888" fill="white"/>
<path d="M3.66797 14.3418L5.07865 12.4002L4.10783 11.6948" fill="white"/>
<path d="M3.66797 14.3418V11.9418H4.86797" fill="white"/>
</g>
<defs>
<clipPath id="clip0_358_13950">
<rect width="24" height="24" rx="12" fill="white"/>
</clipPath>
</defs>
</svg>
