<svg width="24" height="24" viewBox="0 0 24 24" fill="none" xmlns="http://www.w3.org/2000/svg">
<rect width="24" height="24" rx="12" fill="#CE1126"/>
<path d="M1.19922 4.80078H22.7456V19.2008H1.19922V4.80078Z" fill="#CE1126"/>
<path d="M3.00781 6.81641H20.9344V17.1844H3.00781V6.81641Z" fill="#007A5E"/>
<path d="M3.00781 6.81641H20.9344L3.00781 17.1844H20.9344L3.00781 6.81641Z" fill="#FCD116"/>
<path d="M12.0288 13.6982C12.9831 13.6982 13.7568 12.9245 13.7568 11.9702C13.7568 11.0158 12.9831 10.2422 12.0288 10.2422C11.0744 10.2422 10.3008 11.0158 10.3008 11.9702C10.3008 12.9245 11.0744 13.6982 12.0288 13.6982Z" fill="#CE1126"/>
<path d="M4.45312 12.0197C4.66932 12.4225 5.08985 12.8607 5.45709 13.0148C5.463 12.6058 5.31789 12.0817 5.11946 11.6641L4.45312 12.0197Z" fill="#CE1126"/>
<path d="M4.08582 10.6387C4.39921 11.292 3.27303 12.8505 5.14931 13.2158C4.91785 12.9 4.76862 12.3787 4.82507 11.9601C5.21871 12.1099 5.63291 12.5481 5.80028 12.8832C6.29132 11.1 4.54076 11.2084 4.08582 10.6387Z" fill="#FCD116"/>
<path d="M7.22222 17.2559L6.67205 18.9491L8.1124 17.9026H6.33203L7.77238 18.9491L7.22222 17.2559Z" fill="#FCD116"/>
<path d="M12.023 17.2559L11.4728 18.9491L12.9132 17.9026H11.1328L12.5732 18.9491L12.023 17.2559Z" fill="#FCD116"/>
<path d="M16.8238 17.2559L16.2736 18.9491L17.714 17.9026H15.9336L17.3739 18.9491L16.8238 17.2559Z" fill="#FCD116"/>
<path d="M16.8238 4.87109L16.2736 6.56432L17.714 5.51785H15.9336L17.3739 6.56432L16.8238 4.87109Z" fill="#FCD116"/>
<path d="M12.023 4.87109L11.4728 6.56432L12.9132 5.51785H11.1328L12.5732 6.56432L12.023 4.87109Z" fill="#FCD116"/>
<path d="M7.22221 4.87109L6.67205 6.56432L8.1124 5.51785H6.33203L7.77238 6.56432L7.22221 4.87109Z" fill="#FCD116"/>
<path d="M12.0221 10.416L11.091 13.2815L13.5286 11.5105H10.5156L12.9531 13.2815L12.0221 10.416Z" fill="#FCD116"/>
</svg>
