<svg width="24" height="24" viewBox="0 0 24 24" fill="none" xmlns="http://www.w3.org/2000/svg">
<g clip-path="url(#clip0_358_3546)">
<rect width="24" height="24" rx="12" fill="white"/>
<path d="M0 4H24V20H0V4Z" fill="white"/>
<path d="M10.4 -5H13.6V29H10.4V-5ZM0 10.4H24V13.6H0V10.4Z" fill="#FF0000"/>
<path d="M5.875 4.96289C6.24844 5.01194 6.62668 5.01194 7.00012 4.96289C6.78333 6.04332 6.78333 7.15606 7.00012 8.23649C6.62668 8.18744 6.24844 8.18744 5.875 8.23649C6.09179 7.15606 6.09179 6.04332 5.875 4.96289Z" fill="#FF0000"/>
<path d="M8.07422 6.03711C8.02517 6.41055 8.02517 6.78879 8.07422 7.16223C6.99379 6.94544 5.88105 6.94544 4.80062 7.16223C4.84967 6.78879 4.84967 6.41055 4.80062 6.03711C5.88105 6.2539 6.99379 6.2539 8.07422 6.03711Z" fill="#FF0000"/>
<path d="M16.9492 4.96289C17.3227 5.01194 17.7009 5.01194 18.0743 4.96289C17.8575 6.04332 17.8575 7.15606 18.0743 8.23649C17.7009 8.18744 17.3227 8.18744 16.9492 8.23649C17.166 7.15606 17.166 6.04332 16.9492 4.96289Z" fill="#FF0000"/>
<path d="M19.1484 6.03711C19.0994 6.41055 19.0994 6.78879 19.1484 7.16223C18.068 6.94544 16.9553 6.94544 15.8748 7.16223C15.9239 6.78879 15.9239 6.41055 15.8748 6.03711C16.9553 6.2539 18.068 6.2539 19.1484 6.03711Z" fill="#FF0000"/>
<path d="M5.875 15.7637C6.24844 15.8127 6.62668 15.8127 7.00012 15.7637C6.78333 16.8441 6.78333 17.9568 7.00012 19.0373C6.62668 18.9882 6.24844 18.9882 5.875 19.0373C6.09179 17.9568 6.09179 16.8441 5.875 15.7637Z" fill="#FF0000"/>
<path d="M8.07422 16.8379C8.02517 17.2113 8.02517 17.5896 8.07422 17.963C6.99379 17.7462 5.88105 17.7462 4.80062 17.963C4.84967 17.5896 4.84967 17.2113 4.80062 16.8379C5.88105 17.0547 6.99379 17.0547 8.07422 16.8379Z" fill="#FF0000"/>
<path d="M16.9492 15.7637C17.3227 15.8127 17.7009 15.8127 18.0743 15.7637C17.8575 16.8441 17.8575 17.9568 18.0743 19.0373C17.7009 18.9882 17.3227 18.9882 16.9492 19.0373C17.166 17.9568 17.166 16.8441 16.9492 15.7637Z" fill="#FF0000"/>
<path d="M19.1484 16.8379C19.0994 17.2113 19.0994 17.5896 19.1484 17.963C18.068 17.7462 16.9553 17.7462 15.8748 17.963C15.9239 17.5896 15.9239 17.2113 15.8748 16.8379C16.9553 17.0547 18.068 17.0547 19.1484 16.8379Z" fill="#FF0000"/>
</g>
<defs>
<clipPath id="clip0_358_3546">
<rect width="24" height="24" rx="12" fill="white"/>
</clipPath>
</defs>
</svg>
