<svg width="24" height="24" viewBox="0 0 24 24" fill="none" xmlns="http://www.w3.org/2000/svg">
<g clip-path="url(#clip0_358_14318)">
<path d="M-6 0H30V24H-6V0Z" fill="#E32118"/>
<path d="M-6 0H30V16H-6V0Z" fill="white"/>
<path d="M-6 0H30V8H-6V0Z" fill="#3E9A00"/>
<path d="M-3 0V24L6 12L-3 0Z" fill="#0073CE"/>
<path d="M10.082 9.58789H13.912V13.5999C13.912 14.9499 12.245 13.8959 11.997 14.6299C11.7697 13.8969 10.092 14.9599 10.092 13.5199C10.092 12.1199 10.082 9.58789 10.082 9.58789Z" fill="white" stroke="black" stroke-width="0.08"/>
<path d="M12.2713 13.9906C12.2713 13.9906 12.2213 14.0406 12.1313 14.0006C12.0413 13.9606 12.0312 11.4306 12.0312 11.4306C12.2313 11.2106 12.3913 11.1406 12.3913 11.1406L12.5113 11.2406C12.0613 11.4706 12.1013 11.8006 12.1413 12.3706C12.1513 12.5806 12.1513 12.8506 12.2013 13.1106C12.2713 13.4406 12.4113 13.7206 12.4213 13.9306C12.4313 14.0606 12.2713 13.9906 12.2713 13.9906Z" fill="#73452B" stroke="black" stroke-width="0.0166667"/>
<path d="M11.9619 11.0801H12.1419C11.9919 12.5301 12.1219 13.3901 12.1219 13.8101C12.1219 13.9501 12.2019 14.0001 12.1919 14.0001C12.0119 14.2001 11.9219 13.9901 11.9219 13.9901L11.9619 11.0801Z" fill="#73452B" stroke="black" stroke-width="0.0166667"/>
<path d="M11.6862 13.9883C11.5162 14.0683 11.4919 13.9104 11.5019 13.8904C11.8719 13.1404 12.0319 11.4904 11.6919 11.3104L11.7119 11.1504C11.8419 11.1904 11.9619 11.3604 11.9619 11.3604C12.0119 13.2104 11.9611 13.9675 11.9311 13.9975C11.7511 14.1875 11.6833 13.9726 11.6733 13.9526" fill="#A36629"/>
<path d="M11.6862 13.9883C11.5162 14.0683 11.4919 13.9104 11.5019 13.8904C11.8719 13.1404 12.0319 11.4904 11.6919 11.3104L11.7119 11.1504C11.8419 11.1904 11.9619 11.3604 11.9619 11.3604C12.0119 13.2104 11.9611 13.9675 11.9311 13.9975C11.7511 14.1875 11.6833 13.9726 11.6733 13.9526" stroke="black" stroke-width="0.0166667"/>
<path d="M11.6741 13.9561C11.6441 13.7961 11.9319 13.3909 11.9119 12.9609" stroke="black" stroke-width="0.0166667"/>
<path d="M12.1641 13.3105C12.2541 13.5605 12.2941 13.7805 12.2741 13.9905" stroke="black" stroke-width="0.0166667"/>
<path d="M12.5514 10.4005C12.6114 10.3305 12.6114 10.3305 12.7214 10.3305C12.7414 10.1805 12.9914 10.1805 13.0114 10.3705C13.2114 10.3305 13.2514 10.4505 13.1714 10.5705C13.3614 10.5205 13.5314 10.5705 13.4814 10.7905C13.8214 10.8805 13.6914 11.1205 13.5414 11.1705C13.5214 11.3205 13.3814 11.3705 13.1914 11.3105C12.9514 11.4805 12.8114 11.4205 12.7014 11.2505C12.4314 11.2905 12.4114 11.2305 12.2914 11.0805C12.0814 11.1705 12.0414 11.1705 11.8614 11.0605C11.8514 11.2005 11.8014 11.1605 11.7114 11.1505C11.7214 11.3305 11.6514 11.4105 11.4914 11.3505C11.6114 11.6005 11.3014 11.7105 11.1514 11.5005C11.0114 11.5105 11.0014 11.4705 10.9314 11.4205C10.8714 11.6205 10.6514 11.5905 10.6114 11.4805C10.3314 11.4405 10.3614 11.2905 10.5914 11.2805C10.6114 11.1205 10.7514 11.1505 10.8414 11.1705C10.8514 11.0705 10.9114 11.0905 10.9614 11.1105C10.9314 11.0405 10.9514 11.0005 11.0414 10.9805C10.9114 10.8105 10.9914 10.7505 11.1214 10.6905C11.0514 10.5305 11.1714 10.5405 11.2614 10.5305C11.2514 10.3605 11.3014 10.3305 11.4814 10.3105C11.4614 10.2505 11.4914 10.2005 11.5914 10.2005C11.5314 10.0305 11.6114 9.99151 11.7914 10.0205C11.8214 9.77351 12.3514 9.89051 12.3114 10.2305C12.4614 10.2505 12.5114 10.2805 12.5514 10.4005Z" fill="#009A3B" stroke="black" stroke-width="0.0166667"/>
<path d="M11.4805 10.3105C11.5205 10.3305 11.5705 10.3105 11.5805 10.4205C11.6605 10.2805 11.7605 10.3605 11.7605 10.5205" stroke="black" stroke-width="0.0166667"/>
<path d="M12.3131 10.2305C12.2731 10.2905 12.1231 10.2905 12.1431 10.4505C12.0931 10.3805 11.9931 10.3605 11.9531 10.4305" stroke="black" stroke-width="0.0166667"/>
<path d="M12.5539 10.4004C12.5539 10.4404 12.5439 10.5604 12.5039 10.6204" stroke="black" stroke-width="0.0166667"/>
<path d="M13.1709 10.5703C13.1809 10.5803 13.0309 10.5703 12.9609 10.6203" stroke="black" stroke-width="0.0166667"/>
<path d="M13.5439 11.1712C13.5039 11.1512 13.4239 11.1012 13.3639 11.1812C13.3639 11.1412 13.3639 11.0312 13.2539 11.0312" stroke="black" stroke-width="0.0166667"/>
<path d="M13.1923 11.3104C13.1923 11.2104 13.1723 11.1804 13.1523 11.1504" stroke="black" stroke-width="0.0166667"/>
<path d="M12.8631 11.1703C12.7831 11.1103 12.7031 11.2003 12.7031 11.2503" stroke="black" stroke-width="0.0166667"/>
<path d="M12.2798 11.0797C12.2798 11.0397 12.2498 10.9597 12.3198 10.9297" stroke="black" stroke-width="0.0166667"/>
<path d="M11.1417 11.5007C11.1617 11.4007 11.2317 11.4007 11.2217 11.3507C11.2117 11.2707 11.1217 11.2007 11.0117 11.3107" stroke="black" stroke-width="0.0166667"/>
<path d="M11.2227 11.3502C11.2827 11.3302 11.3427 11.3402 11.3627 11.3702" stroke="black" stroke-width="0.0166667"/>
<path d="M11.0508 10.9795C11.0908 10.9395 11.1908 10.9495 11.2508 10.9795" stroke="black" stroke-width="0.0166667"/>
<path d="M11.25 10.7414C11.3 10.7414 11.39 10.7214 11.42 10.8114C11.53 10.6414 11.61 10.6614 11.63 10.7014" stroke="black" stroke-width="0.0166667"/>
<path d="M11.832 10.6801C11.912 10.6501 12.052 10.7301 12.132 10.8701C12.172 10.7601 12.232 10.7801 12.292 10.7701" stroke="black" stroke-width="0.0166667"/>
<path d="M12.6719 10.8699C12.8019 10.8099 12.8819 10.9299 12.9219 10.9799C12.9819 10.8999 13.0319 10.8999 13.0919 10.8999" stroke="black" stroke-width="0.0166667"/>
<path d="M11.4609 11.1099C11.4909 11.0599 11.5609 11.0499 11.6109 11.0799C11.6009 10.9899 11.6609 10.9499 11.7009 10.9699" stroke="black" stroke-width="0.0166667"/>
<path d="M11.858 9.02594L11.638 9.03594L11.528 9.23294L11.408 9.04494L11.188 9.05394L11.288 8.85594L11.168 8.66794L11.398 8.65794L11.498 8.46094L11.618 8.64894L11.838 8.63994L11.738 8.83794L11.858 9.02594Z" fill="#FFD700" stroke="black" stroke-width="0.0583333"/>
<path d="M10.9197 9.09823L10.6997 9.15223L10.6397 9.36523L10.4797 9.20523L10.2697 9.25723L10.3297 9.04423L10.1797 8.88223L10.3897 8.82923L10.4497 8.61523L10.6097 8.77523L10.8297 8.72323L10.7597 8.93723L10.9197 9.09823Z" fill="#FFD700" stroke="black" stroke-width="0.0583333"/>
<path d="M10.0083 9.28602L9.80828 9.38502L9.79828 9.60702L9.60828 9.48502L9.40828 9.58302L9.42828 9.36102L9.23828 9.23802L9.43828 9.13802L9.45828 8.91602L9.63828 9.03802L9.83828 8.94002L9.82828 9.16202L10.0083 9.28602Z" fill="#FFD700" stroke="black" stroke-width="0.0583333"/>
<path d="M12.1484 9.02594L12.3684 9.03594L12.4684 9.23294L12.5884 9.04494L12.8084 9.05394L12.7084 8.85594L12.8284 8.66794L12.6084 8.65794L12.4984 8.46094L12.3784 8.64894L12.1584 8.63994L12.2584 8.83794L12.1484 9.02594Z" fill="#FFD700" stroke="black" stroke-width="0.0583333"/>
<path d="M13.0859 9.09823L13.2959 9.15223L13.3559 9.36523L13.5159 9.20523L13.7259 9.25723L13.6659 9.04423L13.8259 8.88223L13.6059 8.82923L13.5459 8.61523L13.3859 8.77523L13.1759 8.72323L13.2359 8.93723L13.0859 9.09823Z" fill="#FFD700" stroke="black" stroke-width="0.0583333"/>
<path d="M13.9883 9.28602L14.1883 9.38502L14.1983 9.60702L14.3883 9.48502L14.5883 9.58302L14.5783 9.36102L14.7583 9.23802L14.5583 9.13802L14.5483 8.91602L14.3583 9.03802L14.1583 8.94002L14.1783 9.16202L13.9883 9.28602Z" fill="#FFD700" stroke="black" stroke-width="0.0583333"/>
<path d="M12.6758 14.5703L12.6958 14.9303C12.6958 14.9303 12.7958 14.9303 12.8858 14.9003C12.9658 14.8703 13.0358 14.8103 13.0358 14.8103L13.0258 14.6203L12.6758 14.5703Z" fill="white" stroke="black" stroke-width="0.0583333"/>
<path d="M11.3367 14.5703L11.3167 14.9203C11.3167 14.9203 11.2267 14.9203 11.1367 14.9003C11.0567 14.8803 10.9867 14.8303 10.9867 14.8303L10.8867 14.5903L11.3367 14.5703Z" fill="white" stroke="black" stroke-width="0.0583333"/>
<path d="M9.72017 13.5192L9.4675 13.8792L9.1875 13.4192L9.3975 13.1992L9.72017 13.5192Z" fill="white" stroke="black" stroke-width="0.05835" stroke-linejoin="round"/>
<path d="M10.9766 15.2905C10.9766 15.6305 13.0366 15.6305 13.0366 15.2905V14.8105C13.0366 15.0605 10.9766 15.0105 10.9766 14.8105V15.2905Z" fill="white" stroke="black" stroke-width="0.0583333"/>
<path d="M9.13672 14.1808C9.31672 15.1008 10.9767 15.1208 10.9767 15.1208V14.8108C10.9367 14.6908 11.0067 14.6508 11.2767 14.6108C11.3867 14.6008 11.3367 14.4408 11.3367 14.4408C11.3367 14.4408 10.6167 14.5708 10.1067 14.3708C9.41672 14.0908 9.31672 13.5508 9.31672 13.5508C9.31672 13.5508 9.26672 13.9708 9.13672 14.1808Z" fill="white" stroke="black" stroke-width="0.0583333"/>
<path d="M14.8665 14.1808C14.6965 15.1008 13.0365 15.1208 13.0365 15.1208V14.8108C13.0665 14.6908 12.9965 14.6508 12.7265 14.6108C12.6165 14.6008 12.6765 14.4408 12.6765 14.4408C12.6765 14.4408 13.3965 14.5708 13.9065 14.3708C14.5865 14.0908 14.6665 13.5508 14.6665 13.5508C14.6665 13.5508 14.7365 13.9708 14.8665 14.1808Z" fill="white" stroke="black" stroke-width="0.0583333"/>
<path d="M9.26201 13.8301C8.80201 13.5801 9.16501 13.3201 9.20501 12.5801C9.4365 13.0507 9.66537 13.0661 9.73073 13.3643C9.73878 13.401 9.74493 13.4676 9.72488 13.5101C9.51488 13.5201 9.41501 13.2001 9.31501 13.5501L9.26201 13.8301Z" fill="white" stroke="black" stroke-width="0.0583333"/>
<path d="M14.2734 13.5192L14.5261 13.8792L14.8061 13.4192L14.5961 13.1992L14.2734 13.5192Z" fill="white" stroke="black" stroke-width="0.05835" stroke-linejoin="round"/>
<path d="M14.7342 13.8301C15.1942 13.5801 14.8311 13.3201 14.7911 12.5801C14.5597 13.0507 14.3308 13.0661 14.2654 13.3643C14.2574 13.401 14.2512 13.4676 14.2713 13.5101C14.4813 13.5201 14.5811 13.2001 14.6811 13.5501L14.7342 13.8301Z" fill="white" stroke="black" stroke-width="0.0583333"/>
<path d="M9.54671 14.1699L9.59671 14.2099L9.48671 14.3299C9.44268 14.378 9.43204 14.4097 9.46262 14.439C9.50058 14.4753 9.52727 14.4627 9.56671 14.4199L9.68671 14.2899L9.72671 14.3299L9.60682 14.4698C9.54174 14.5458 9.48132 14.5284 9.43064 14.481C9.38648 14.4398 9.36117 14.38 9.4261 14.3065L9.5471 14.1705L9.54671 14.1699Z" fill="black"/>
<path d="M9.74813 14.3398L9.79812 14.3698L9.78812 14.6098L9.89812 14.4398L9.94813 14.4698L9.78812 14.7298L9.72812 14.6998L9.73812 14.4598L9.62812 14.6298L9.57812 14.5998L9.74813 14.3398Z" fill="black"/>
<path d="M9.83594 14.7605L9.97594 14.4805L10.0259 14.5105L9.89594 14.7805L9.83594 14.7605Z" fill="black"/>
<path d="M10.0557 14.5195L9.94531 14.8093L10.0557 14.8495C10.1586 14.887 10.2069 14.8417 10.2396 14.7547C10.2726 14.6662 10.2582 14.6011 10.1553 14.5597L10.0557 14.5195ZM10.0953 14.5897C10.1988 14.6257 10.2051 14.665 10.1769 14.7361C10.1496 14.8036 10.1241 14.83 10.0257 14.7793L10.0953 14.5897Z" fill="black"/>
<path d="M10.387 14.6309L10.207 14.9009L10.2766 14.9213L10.3168 14.8511L10.4368 14.8811L10.447 14.9513L10.5166 14.9609L10.447 14.6411L10.387 14.6309ZM10.4068 14.7011L10.4266 14.8211L10.3468 14.8109L10.4068 14.7011Z" fill="black"/>
<path d="M10.5577 14.6563L10.5469 14.9662L10.6646 14.9685C10.774 14.9705 10.8051 14.9123 10.8078 14.8194C10.8105 14.7249 10.7757 14.6678 10.6648 14.6622L10.5577 14.6563ZM10.6177 14.71C10.7274 14.7105 10.7461 14.7455 10.7423 14.822C10.7386 14.8947 10.7227 14.9279 10.6134 14.9117L10.6177 14.71Z" fill="black"/>
<path d="M11.6057 15.0898V15.4096H11.6759V15.2896C11.6759 15.2896 11.7359 15.2932 11.7857 15.28C11.825 15.2698 11.8523 15.2446 11.8532 15.1825C11.8541 15.1216 11.8187 15.0898 11.7575 15.0898H11.6055H11.6057ZM11.6759 15.1396L11.7464 15.1405C11.8052 15.1405 11.7941 15.2296 11.7482 15.2296H11.6759V15.1396Z" fill="black"/>
<path d="M11.9661 15.09L11.8359 15.4098H11.9061L11.9361 15.33H12.0663L12.0963 15.4098H12.1659L12.0359 15.0898H11.9659L11.9661 15.09ZM11.9961 15.1602L12.0459 15.2802H11.9559L11.9961 15.1602Z" fill="black"/>
<path d="M12.168 15.3498L12.338 15.1398H12.188V15.0898H12.428V15.1398L12.248 15.3498H12.428V15.4098H12.168V15.3498Z" fill="black"/>
<path d="M13.1781 14.7307L13.2381 14.7207L13.2681 14.9007C13.2788 14.9647 13.2495 15.0083 13.204 15.0252C13.1521 15.0443 13.0859 15.0268 13.0781 14.9407L13.1281 14.9307C13.1398 14.9822 13.1605 14.9867 13.1845 14.9786C13.2035 14.9722 13.2134 14.9422 13.2081 14.9107L13.1781 14.7307Z" fill="black"/>
<path d="M13.2773 14.7133L13.3366 14.7021L13.3639 14.8518C13.3757 14.9159 13.3958 14.9432 13.4375 14.9359C13.4892 14.9269 13.4949 14.8979 13.4839 14.8408L13.447 14.681L13.5076 14.6719L13.5478 14.8381C13.5713 14.9353 13.5205 14.9739 13.4524 14.9866C13.393 14.9977 13.3298 14.9826 13.3091 14.8867L13.2773 14.7133Z" fill="black"/>
<path d="M13.5885 14.8495L13.6385 14.8295C13.6631 14.8735 13.7013 14.8713 13.7311 14.8581C13.7724 14.8399 13.7771 14.8037 13.7567 14.7915C13.7276 14.7741 13.658 14.7988 13.6205 14.7852C13.5757 14.7688 13.5565 14.7436 13.5588 14.7048C13.5615 14.6582 13.6026 14.6325 13.6472 14.6187C13.6972 14.6032 13.7465 14.6087 13.7785 14.6695L13.7185 14.6895C13.699 14.6566 13.6739 14.6582 13.6516 14.6687C13.6329 14.6775 13.6037 14.6941 13.6193 14.7208C13.6321 14.7426 13.7056 14.7284 13.7443 14.73C13.7844 14.7316 13.8167 14.7584 13.8221 14.7969C13.8297 14.8506 13.8098 14.8796 13.7477 14.9038C13.6711 14.9337 13.6019 14.9002 13.5885 14.8495Z" fill="black"/>
<path d="M13.8578 14.6L13.7778 14.64L13.7578 14.59L13.9778 14.5L13.9978 14.54L13.9178 14.58L14.0078 14.8L13.9578 14.83L13.8578 14.6Z" fill="black"/>
<path d="M13.9844 14.4909L14.0344 14.4609L14.1744 14.7209L14.1244 14.7509L13.9844 14.4909Z" fill="black"/>
<path d="M14.3281 14.5105L14.3881 14.4905C14.4163 14.5498 14.3739 14.6577 14.2703 14.6554C14.1187 14.6522 14.1023 14.4852 14.1261 14.4301C14.1661 14.3376 14.2783 14.3393 14.3281 14.3905L14.2781 14.4305C14.2464 14.3898 14.1759 14.4155 14.1712 14.4529C14.1634 14.5139 14.1903 14.5708 14.2449 14.5977C14.2912 14.6206 14.3625 14.5631 14.3281 14.5105Z" fill="black"/>
<path d="M14.2969 14.2998L14.3469 14.2598L14.5269 14.4998L14.4769 14.5398L14.2969 14.2998Z" fill="black"/>
<path d="M14.4873 14.1504L14.4375 14.1906L14.5473 14.4906L14.5971 14.4408L14.5671 14.3808L14.6571 14.3004L14.7171 14.3304L14.7675 14.2908L14.4873 14.1504ZM14.5071 14.2206L14.6073 14.2704L14.5473 14.3304L14.5071 14.2206Z" fill="black"/>
</g>
<defs>
<clipPath id="clip0_358_14318">
<rect width="24" height="24" rx="12" fill="white"/>
</clipPath>
</defs>
</svg>
