<svg width="24" height="24" viewBox="0 0 24 24" fill="none" xmlns="http://www.w3.org/2000/svg">
<g clip-path="url(#clip0_358_8944)">
<path d="M-6 0H30V24H-6V0Z" fill="white"/>
<path d="M-6 0H30V8H-6V0ZM-6 16H30V24H-6V16Z" fill="#00BCE4"/>
<path d="M5.23682 8.69922L6.02055 11.1112L3.96875 9.62055H6.50488L4.45308 11.1112L5.23682 8.69922Z" fill="#00BCE4"/>
<path d="M5.23682 12.6992L6.02055 15.1112L3.96875 13.6206H6.50488L4.45308 15.1112L5.23682 12.6992Z" fill="#00BCE4"/>
<path d="M11.9048 10.6992L12.6885 13.1112L10.6367 11.6206H13.1729L11.1211 13.1112L11.9048 10.6992Z" fill="#00BCE4"/>
<path d="M18.5728 8.69922L19.3565 11.1112L17.3047 9.62055H19.8408L17.789 11.1112L18.5728 8.69922Z" fill="#00BCE4"/>
<path d="M18.5728 12.6992L19.3565 15.1112L17.3047 13.6206H19.8408L17.789 15.1112L18.5728 12.6992Z" fill="#00BCE4"/>
</g>
<defs>
<clipPath id="clip0_358_8944">
<rect width="24" height="24" rx="12" fill="white"/>
</clipPath>
</defs>
</svg>
