<svg width="24" height="24" viewBox="0 0 24 24" fill="none" xmlns="http://www.w3.org/2000/svg">
<g clip-path="url(#clip0_358_3577)">
<path d="M-6 0H30V24H-6V0Z" fill="#FF9933"/>
<path d="M-6 8H30V24H-6V8Z" fill="white"/>
<path d="M-6 16H30V24H-6V16Z" fill="#128807"/>
<path d="M12.0008 15.2008C13.7681 15.2008 15.2008 13.7681 15.2008 12.0008C15.2008 10.2335 13.7681 8.80078 12.0008 8.80078C10.2335 8.80078 8.80078 10.2335 8.80078 12.0008C8.80078 13.7681 10.2335 15.2008 12.0008 15.2008Z" fill="#000088"/>
<path d="M11.9992 14.7992C13.5456 14.7992 14.7992 13.5456 14.7992 11.9992C14.7992 10.4528 13.5456 9.19922 11.9992 9.19922C10.4528 9.19922 9.19922 10.4528 9.19922 11.9992C9.19922 13.5456 10.4528 14.7992 11.9992 14.7992Z" fill="white"/>
<path d="M12.0014 12.5595C12.3107 12.5595 12.5614 12.3087 12.5614 11.9995C12.5614 11.6902 12.3107 11.4395 12.0014 11.4395C11.6921 11.4395 11.4414 11.6902 11.4414 11.9995C11.4414 12.3087 11.6921 12.5595 12.0014 12.5595Z" fill="#000088"/>
<path d="M14.7566 12.5068C14.8332 12.5169 14.9035 12.4629 14.9136 12.3863C14.9237 12.3096 14.8698 12.2393 14.7931 12.2292C14.7164 12.2191 14.6461 12.2731 14.636 12.3497C14.6259 12.4264 14.6799 12.4967 14.7566 12.5068Z" fill="#000088"/>
<path d="M11.9964 14.8023L12.0924 13.1223L11.9964 12.3223L11.9004 13.1223L11.9964 14.8023Z" fill="#000088"/>
<path d="M14.5281 13.2048C14.5995 13.2344 14.6814 13.2005 14.711 13.1291C14.7406 13.0576 14.7066 12.9757 14.6352 12.9462C14.5638 12.9166 14.4819 12.9505 14.4523 13.0219C14.4227 13.0934 14.4566 13.1753 14.5281 13.2048Z" fill="#000088"/>
<path d="M11.2692 14.7075L11.7968 13.1095L11.9111 12.312L11.6113 13.0598L11.2692 14.7075Z" fill="#000088"/>
<path d="M14.1398 13.8152C14.2012 13.8622 14.2891 13.8507 14.3361 13.7893C14.3832 13.728 14.3716 13.6401 14.3103 13.593C14.2489 13.546 14.1611 13.5575 14.114 13.6189C14.0669 13.6802 14.0785 13.7681 14.1398 13.8152Z" fill="#000088"/>
<path d="M10.6049 14.4243L11.528 13.0173L11.8449 12.2765L11.3617 12.9213L10.6049 14.4243Z" fill="#000088"/>
<path d="M13.5994 14.3069C13.6465 14.3683 13.7344 14.3798 13.7957 14.3328C13.8571 14.2857 13.8686 14.1978 13.8216 14.1365C13.7745 14.0751 13.6866 14.0635 13.6253 14.1106C13.5639 14.1577 13.5523 14.2456 13.5994 14.3069Z" fill="#000088"/>
<path d="M10.0271 13.9797L11.283 12.8597L11.7808 12.2261L11.1472 12.7239L10.0271 13.9797Z" fill="#000088"/>
<path d="M12.9414 14.6427C12.971 14.7142 13.0529 14.7481 13.1243 14.7185C13.1957 14.6889 13.2296 14.607 13.2001 14.5356C13.1705 14.4642 13.0886 14.4302 13.0171 14.4598C12.9457 14.4894 12.9118 14.5713 12.9414 14.6427Z" fill="#000088"/>
<path d="M9.57409 13.4032L11.077 12.6464L11.7218 12.1632L10.981 12.4801L9.57409 13.4032Z" fill="#000088"/>
<path d="M12.227 14.7964C12.2371 14.8731 12.3074 14.9271 12.3841 14.917C12.4607 14.9069 12.5147 14.8366 12.5046 14.7599C12.4945 14.6832 12.4242 14.6293 12.3475 14.6394C12.2709 14.6495 12.2169 14.7198 12.227 14.7964Z" fill="#000088"/>
<path d="M9.29537 12.7268L10.943 12.3847L11.6909 12.0849L10.8933 12.1992L9.29537 12.7268Z" fill="#000088"/>
<path d="M11.4834 14.7585C11.4733 14.8352 11.5273 14.9055 11.6039 14.9156C11.6806 14.9257 11.7509 14.8717 11.761 14.7951C11.7711 14.7184 11.7172 14.6481 11.6405 14.638C11.5638 14.6279 11.4935 14.6818 11.4834 14.7585Z" fill="#000088"/>
<path d="M9.18602 12.0003L10.866 12.0963L11.666 12.0003L10.866 11.9043L9.18602 12.0003Z" fill="#000088"/>
<path d="M10.7873 14.5359C10.7578 14.6073 10.7917 14.6892 10.8631 14.7188C10.9345 14.7484 11.0164 14.7144 11.046 14.643C11.0756 14.5716 11.0417 14.4897 10.9703 14.4601C10.8988 14.4305 10.8169 14.4644 10.7873 14.5359Z" fill="#000088"/>
<path d="M9.28083 11.277L10.8787 11.8046L11.6763 11.9189L10.9284 11.6191L9.28083 11.277Z" fill="#000088"/>
<path d="M10.1751 14.1408C10.128 14.2022 10.1396 14.29 10.2009 14.3371C10.2622 14.3842 10.3501 14.3726 10.3972 14.3113C10.4443 14.2499 10.4327 14.162 10.3714 14.115C10.31 14.0679 10.2221 14.0795 10.1751 14.1408Z" fill="#000088"/>
<path d="M9.56402 10.6039L10.9709 11.527L11.7118 11.8439L11.0669 11.3607L9.56402 10.6039Z" fill="#000088"/>
<path d="M9.68918 13.5965C9.62784 13.6436 9.61627 13.7314 9.66334 13.7928C9.71041 13.8541 9.79829 13.8657 9.85963 13.8186C9.92098 13.7716 9.93255 13.6837 9.88548 13.6223C9.83841 13.561 9.75052 13.5494 9.68918 13.5965Z" fill="#000088"/>
<path d="M10.0164 10.0223L11.1364 11.2781L11.77 11.7759L11.2722 11.1423L10.0164 10.0223Z" fill="#000088"/>
<path d="M9.36897 12.9463C9.29754 12.9758 9.26362 13.0577 9.29321 13.1292C9.3228 13.2006 9.40469 13.2345 9.47613 13.2049C9.54756 13.1754 9.58148 13.0935 9.55189 13.022C9.5223 12.9506 9.44041 12.9167 9.36897 12.9463Z" fill="#000088"/>
<path d="M10.6105 9.57897L11.3673 11.0819L11.8505 11.7267L11.5336 10.9859L10.6105 9.57897Z" fill="#000088"/>
<path d="M9.19965 12.2309C9.12299 12.241 9.06903 12.3113 9.07912 12.388C9.08921 12.4646 9.15954 12.5186 9.2362 12.5085C9.31286 12.4984 9.36682 12.4281 9.35673 12.3514C9.34663 12.2748 9.27631 12.2208 9.19965 12.2309Z" fill="#000088"/>
<path d="M11.2732 9.29927L11.6153 10.9469L11.9151 11.6948L11.8008 10.8972L11.2732 9.29927Z" fill="#000088"/>
<path d="M9.25321 11.4971C9.17656 11.487 9.10623 11.541 9.09614 11.6176C9.08605 11.6943 9.14001 11.7646 9.21667 11.7747C9.29332 11.7848 9.36365 11.7308 9.37374 11.6542C9.38383 11.5775 9.32987 11.5072 9.25321 11.4971Z" fill="#000088"/>
<path d="M12.0134 9.20164L11.9174 10.8816L12.0134 11.6816L12.1094 10.8816L12.0134 9.20164Z" fill="#000088"/>
<path d="M9.48171 10.7991C9.41028 10.7695 9.32838 10.8034 9.2988 10.8748C9.26921 10.9463 9.30313 11.0282 9.37456 11.0578C9.446 11.0873 9.52789 11.0534 9.55748 10.982C9.58707 10.9106 9.55315 10.8287 9.48171 10.7991Z" fill="#000088"/>
<path d="M12.7405 9.29645L12.213 10.8944L12.0987 11.692L12.3985 10.9441L12.7405 9.29645Z" fill="#000088"/>
<path d="M9.86993 10.1868C9.80859 10.1397 9.7207 10.1513 9.67363 10.2126C9.62657 10.274 9.63814 10.3618 9.69948 10.4089C9.76082 10.456 9.8487 10.4444 9.89577 10.3831C9.94284 10.3217 9.93127 10.2338 9.86993 10.1868Z" fill="#000088"/>
<path d="M13.4049 9.57769L12.4818 10.9846L12.1649 11.7254L12.648 11.0806L13.4049 9.57769Z" fill="#000088"/>
<path d="M10.4103 9.69504C10.3633 9.6337 10.2754 9.62213 10.2141 9.6692C10.1527 9.71627 10.1411 9.80415 10.1882 9.86549C10.2353 9.92684 10.3232 9.93841 10.3845 9.89134C10.4458 9.84427 10.4574 9.75638 10.4103 9.69504Z" fill="#000088"/>
<path d="M13.9826 10.0222L12.7268 11.1423L12.229 11.7759L12.8626 11.2781L13.9826 10.0222Z" fill="#000088"/>
<path d="M11.0508 9.35726C11.0212 9.28582 10.9393 9.2519 10.8679 9.28149C10.7965 9.31108 10.7625 9.39297 10.7921 9.46441C10.8217 9.53584 10.9036 9.56976 10.975 9.54017C11.0465 9.51059 11.0804 9.42869 11.0508 9.35726Z" fill="#000088"/>
<path d="M14.4181 10.5968L12.9152 11.3536L12.2704 11.8368L13.0112 11.5199L14.4181 10.5968Z" fill="#000088"/>
<path d="M11.7652 9.20356C11.7551 9.1269 11.6848 9.07294 11.6081 9.08303C11.5315 9.09312 11.4775 9.16345 11.4876 9.2401C11.4977 9.31676 11.568 9.37072 11.6447 9.36063C11.7213 9.35054 11.7753 9.28022 11.7652 9.20356Z" fill="#000088"/>
<path d="M14.6968 11.2732L13.0492 11.6153L12.3013 11.9151L13.0989 11.8008L14.6968 11.2732Z" fill="#000088"/>
<path d="M12.5088 9.23954C12.5189 9.16288 12.4649 9.09256 12.3882 9.08247C12.3116 9.07237 12.2413 9.12634 12.2312 9.20299C12.2211 9.27965 12.275 9.34998 12.3517 9.36007C12.4284 9.37016 12.4987 9.3162 12.5088 9.23954Z" fill="#000088"/>
<path d="M14.8062 11.9977L13.1262 11.9017L12.3262 11.9977L13.1262 12.0938L14.8062 11.9977Z" fill="#000088"/>
<path d="M13.2048 9.46414C13.2344 9.3927 13.2005 9.31081 13.1291 9.28122C13.0576 9.25163 12.9757 9.28555 12.9462 9.35698C12.9166 9.42842 12.9505 9.51031 13.0219 9.5399C13.0934 9.56949 13.1753 9.53557 13.2048 9.46414Z" fill="#000088"/>
<path d="M14.7114 12.723L13.1134 12.1954L12.3159 12.0811L13.0638 12.3809L14.7114 12.723Z" fill="#000088"/>
<path d="M13.8191 9.86114C13.8662 9.7998 13.8546 9.71191 13.7932 9.66485C13.7319 9.61778 13.644 9.62935 13.5969 9.69069C13.5499 9.75203 13.5614 9.83992 13.6228 9.88698C13.6841 9.93405 13.772 9.92248 13.8191 9.86114Z" fill="#000088"/>
<path d="M14.4301 13.3981L13.0232 12.4749L12.2824 12.1581L12.9272 12.6412L14.4301 13.3981Z" fill="#000088"/>
<path d="M14.305 10.4055C14.3663 10.3584 14.3779 10.2705 14.3308 10.2092C14.2837 10.1478 14.1958 10.1363 14.1345 10.1833C14.0732 10.2304 14.0616 10.3183 14.1087 10.3796C14.1557 10.441 14.2436 10.4525 14.305 10.4055Z" fill="#000088"/>
<path d="M13.9778 13.9797L12.8577 12.7239L12.2241 12.2261L12.7219 12.8596L13.9778 13.9797Z" fill="#000088"/>
<path d="M14.6252 11.0557C14.6966 11.0261 14.7305 10.9442 14.7009 10.8728C14.6713 10.8013 14.5894 10.7674 14.518 10.797C14.4466 10.8266 14.4127 10.9085 14.4422 10.9799C14.4718 11.0514 14.5537 11.0853 14.6252 11.0557Z" fill="#000088"/>
<path d="M13.3837 14.423L12.6268 12.9201L12.1437 12.2752L12.4605 13.0161L13.3837 14.423Z" fill="#000088"/>
<path d="M14.7945 11.771C14.8711 11.761 14.9251 11.6906 14.915 11.614C14.9049 11.5373 14.8346 11.4834 14.7579 11.4934C14.6813 11.5035 14.6273 11.5739 14.6374 11.6505C14.6475 11.7272 14.7178 11.7811 14.7945 11.771Z" fill="#000088"/>
<path d="M12.7209 14.7027L12.3788 13.0551L12.0791 12.3072L12.1934 13.1048L12.7209 14.7027Z" fill="#000088"/>
</g>
<defs>
<clipPath id="clip0_358_3577">
<rect width="24" height="24" rx="12" fill="white"/>
</clipPath>
</defs>
</svg>
