<svg width="24" height="24" viewBox="0 0 24 24" fill="none" xmlns="http://www.w3.org/2000/svg">
<g clip-path="url(#clip0_358_3681)">
<path d="M-6 0H30V24H-6V0Z" fill="white"/>
<path d="M-6 0H30V8H-6V0Z" fill="#CD1125"/>
<path d="M-6 16H30V24H-6V16Z" fill="black"/>
<path d="M11.7705 13.6826H5.90684C5.89465 13.7922 5.85465 13.8981 5.78968 13.9929C5.7247 14.0877 5.63634 14.1691 5.53083 14.2312C5.42532 14.2934 5.30525 14.3348 5.1791 14.3526C5.05294 14.3704 4.9238 14.3641 4.80078 14.3342C5.62199 13.9311 5.57048 13.522 5.0523 12.6129C5.34018 12.5099 5.38563 12.4826 5.67654 12.2857C5.47048 12.9099 6.20987 12.8342 6.75533 12.8342C6.75533 12.616 6.77654 12.3675 6.6129 12.3342C6.82502 12.2584 6.84321 12.2342 7.17957 11.9493V12.7887H11.225V12.2129C11.225 12.1808 11.2123 12.15 11.1895 12.1272C11.1668 12.1045 11.136 12.0917 11.1038 12.0917C11.0717 12.0917 11.0408 12.1045 11.0181 12.1272C10.9954 12.15 10.9826 12.1808 10.9826 12.2129V12.5463C10.9826 12.5704 10.973 12.5935 10.956 12.6106C10.9389 12.6276 10.9158 12.6372 10.8917 12.6372H7.80078V12.0917L10.122 9.84931C10.1068 9.96446 10.3462 10.2736 10.4462 10.3251C10.3705 10.3372 10.2856 10.322 10.2311 10.3766L8.33108 12.2129H10.4371C10.4371 11.7251 10.8917 11.7251 11.1038 11.5523C11.3159 11.7251 11.7705 11.7251 11.7705 12.2129V13.6826ZM12.2099 13.6826V9.84931C12.425 9.96749 12.5917 10.1039 12.8584 10.1705C12.8462 10.322 12.7099 10.3705 12.7099 10.4766V12.8342C13.0068 12.9008 13.0735 12.7281 13.2159 12.6402C13.2523 13.016 13.4917 13.3857 13.4826 13.6826H12.2099ZM16.2159 11.122L16.6856 10.7281V12.7887H17.019V10.4463C17.1826 10.3099 17.3947 10.1614 17.4887 9.98871V13.6826H14.5341C14.4917 12.919 14.4917 12.1342 15.3826 12.3039V11.9917C15.3826 11.919 15.2735 11.9766 15.2735 11.9099L15.8826 11.4008V12.7887H16.2159V11.122ZM16.0614 10.0675C16.0038 10.0705 15.9159 9.75537 15.9371 9.69477C15.9584 9.62507 16.0371 9.62507 16.0705 9.6584C16.125 9.70992 16.119 10.0645 16.0614 10.0675ZM15.5129 10.4948C15.3462 10.3978 15.3735 10.3584 15.519 10.4008C15.7705 10.4766 15.8978 10.4129 16.0796 10.2281L16.2159 10.2978C16.3947 10.3887 16.5038 10.3493 16.5674 10.1311C16.5856 10.0645 16.6402 10.0826 16.6553 10.1584C16.7129 10.4614 16.4826 10.5554 16.2493 10.4705C16.122 10.4281 16.1008 10.4281 16.0371 10.4766C15.8978 10.5857 15.6978 10.6039 15.5129 10.4948ZM17.9281 13.6826V9.84931C18.1432 9.96749 18.3099 10.1039 18.5765 10.1705C18.5644 10.322 18.4281 10.3705 18.4281 10.4766V12.8342C18.725 12.9008 18.7917 12.7281 18.9341 12.6402C18.9705 13.016 19.2099 13.3857 19.2008 13.6826H17.9281ZM6.44018 14.1069C6.44018 14.0595 6.45901 14.014 6.49254 13.9805C6.52607 13.9469 6.57155 13.9281 6.61896 13.9281C6.66638 13.9281 6.71186 13.9469 6.74539 13.9805C6.77891 14.014 6.79775 14.0595 6.79775 14.1069C6.79775 14.1543 6.77891 14.1998 6.74539 14.2333C6.71186 14.2668 6.66638 14.2857 6.61896 14.2857C6.57155 14.2857 6.52607 14.2668 6.49254 14.2333C6.45901 14.1998 6.44018 14.1543 6.44018 14.1069ZM15.1099 12.7129C15.1099 12.7403 15.1242 12.7665 15.1498 12.7858C15.1754 12.8051 15.2101 12.816 15.2462 12.816C15.2824 12.816 15.3171 12.8051 15.3427 12.7858C15.3682 12.7665 15.3826 12.7403 15.3826 12.7129C15.3826 12.6856 15.3682 12.6594 15.3427 12.6401C15.3171 12.6208 15.2824 12.6099 15.2462 12.6099C15.2101 12.6099 15.1754 12.6208 15.1498 12.6401C15.1242 12.6594 15.1099 12.6856 15.1099 12.7129Z" fill="#017B3D"/>
</g>
<defs>
<clipPath id="clip0_358_3681">
<rect width="24" height="24" rx="12" fill="white"/>
</clipPath>
</defs>
</svg>
