<svg width="24" height="24" viewBox="0 0 24 24" fill="none" xmlns="http://www.w3.org/2000/svg">
<g clip-path="url(#clip0_358_3686)">
<path d="M30 0H-6V24H30V0Z" fill="#DA0000"/>
<path d="M30 0H-6V16H30V0Z" fill="white"/>
<path d="M30 0H-6V8H30V0Z" fill="#239F40"/>
<path d="M-2.25391 6.78669H-0.180829M-2.17417 7.62669V7.16003H-1.5363V7.53336H-0.898433V7.16003H-1.2971M-1.93497 7.53336H-1.7755M-0.180829 7.53336H-0.579498V7.16003H0.0583719M0.0583719 6.69336V7.53336H0.696242V6.69336M0.377307 6.69336V7.53336" stroke="white" stroke-width="0.287553"/>
<path d="M-2.25391 8H-0.818699M-0.659232 8H0.775975" stroke="white" stroke-width="0.575106"/>
<path d="M-2.25391 16H-0.818699M-0.659232 16H0.775975" stroke="white" stroke-width="0.575106"/>
<path d="M-2.25391 16.4664H-0.180829M-2.17417 17.3064V16.8397H-1.5363V17.213H-0.898433V16.8397H-1.2971M-1.93497 17.213H-1.7755M-0.180829 17.213H-0.579498V16.8397H0.0583719M0.0583719 16.373V17.213H0.696242V16.373M0.377307 16.373V17.213" stroke="white" stroke-width="0.287553"/>
<path d="M0.9375 6.78669H3.01058M1.01723 7.62669V7.16003H1.6551V7.53336H2.29297V7.16003H1.8943M1.25643 7.53336H1.4159M3.01058 7.53336H2.61191V7.16003H3.24978M3.24978 6.69336V7.53336H3.88765V6.69336M3.56871 6.69336V7.53336" stroke="white" stroke-width="0.287553"/>
<path d="M0.9375 8H2.37271M2.53217 8H3.96738" stroke="white" stroke-width="0.575106"/>
<path d="M0.9375 16H2.37271M2.53217 16H3.96738" stroke="white" stroke-width="0.575106"/>
<path d="M0.9375 16.4664H3.01058M1.01723 17.3064V16.8397H1.6551V17.213H2.29297V16.8397H1.8943M1.25643 17.213H1.4159M3.01058 17.213H2.61191V16.8397H3.24978M3.24978 16.373V17.213H3.88765V16.373M3.56871 16.373V17.213" stroke="white" stroke-width="0.287553"/>
<path d="M4.125 6.78669H6.19808M4.20473 7.62669V7.16003H4.8426V7.53336H5.48047V7.16003H5.0818M4.44393 7.53336H4.6034M6.19808 7.53336H5.79941V7.16003H6.43728M6.43728 6.69336V7.53336H7.07515V6.69336M6.75621 6.69336V7.53336" stroke="white" stroke-width="0.287553"/>
<path d="M4.125 8H5.56021M5.71967 8H7.15488" stroke="white" stroke-width="0.575106"/>
<path d="M4.125 16H5.56021M5.71967 16H7.15488" stroke="white" stroke-width="0.575106"/>
<path d="M4.125 16.4664H6.19808M4.20473 17.3064V16.8397H4.8426V17.213H5.48047V16.8397H5.0818M4.44393 17.213H4.6034M6.19808 17.213H5.79941V16.8397H6.43728M6.43728 16.373V17.213H7.07515V16.373M6.75621 16.373V17.213" stroke="white" stroke-width="0.287553"/>
<path d="M7.32031 6.78669H9.39339M7.40005 7.62669V7.16003H8.03792V7.53336H8.67579V7.16003H8.27712M7.63925 7.53336H7.79871M9.39339 7.53336H8.99472V7.16003H9.63259M9.63259 6.69336V7.53336H10.2705V6.69336M9.95153 6.69336V7.53336" stroke="white" stroke-width="0.287553"/>
<path d="M7.32031 8H8.75552M8.91499 8H10.3502" stroke="white" stroke-width="0.575106"/>
<path d="M7.32031 16H8.75552M8.91499 16H10.3502" stroke="white" stroke-width="0.575106"/>
<path d="M7.32031 16.4664H9.39339M7.40005 17.3064V16.8397H8.03792V17.213H8.67579V16.8397H8.27712M7.63925 17.213H7.79871M9.39339 17.213H8.99472V16.8397H9.63259M9.63259 16.373V17.213H10.2705V16.373M9.95153 16.373V17.213" stroke="white" stroke-width="0.287553"/>
<path d="M10.5078 6.78669H12.5809M10.5875 7.62669V7.16003H11.2254V7.53336H11.8633V7.16003H11.4646M10.8267 7.53336H10.9862M12.5809 7.53336H12.1822V7.16003H12.8201M12.8201 6.69336V7.53336H13.458V6.69336M13.139 6.69336V7.53336" stroke="white" stroke-width="0.287553"/>
<path d="M10.5078 8H11.943M12.1025 8H13.5377" stroke="white" stroke-width="0.575106"/>
<path d="M10.5078 16H11.943M12.1025 16H13.5377" stroke="white" stroke-width="0.575106"/>
<path d="M10.5078 16.4664H12.5809M10.5875 17.3064V16.8397H11.2254V17.213H11.8633V16.8397H11.4646M10.8267 17.213H10.9862M12.5809 17.213H12.1822V16.8397H12.8201M12.8201 16.373V17.213H13.458V16.373M13.139 16.373V17.213" stroke="white" stroke-width="0.287553"/>
<path d="M13.6992 6.78669H15.7723M13.779 7.62669V7.16003H14.4168V7.53336H15.0547V7.16003H14.656M14.0182 7.53336H14.1776M15.7723 7.53336H15.3736V7.16003H16.0115M16.0115 6.69336V7.53336H16.6494V6.69336M16.3304 6.69336V7.53336" stroke="white" stroke-width="0.287553"/>
<path d="M13.6992 8H15.1344M15.2939 8H16.7291" stroke="white" stroke-width="0.575106"/>
<path d="M13.6992 16H15.1344M15.2939 16H16.7291" stroke="white" stroke-width="0.575106"/>
<path d="M13.6992 16.4664H15.7723M13.779 17.3064V16.8397H14.4168V17.213H15.0547V16.8397H14.656M14.0182 17.213H14.1776M15.7723 17.213H15.3736V16.8397H16.0115M16.0115 16.373V17.213H16.6494V16.373M16.3304 16.373V17.213" stroke="white" stroke-width="0.287553"/>
<path d="M16.8828 6.78669H18.9559M16.9625 7.62669V7.16003H17.6004V7.53336H18.2383V7.16003H17.8396M17.2017 7.53336H17.3612M18.9559 7.53336H18.5572V7.16003H19.1951M19.1951 6.69336V7.53336H19.833V6.69336M19.514 6.69336V7.53336" stroke="white" stroke-width="0.287553"/>
<path d="M16.8828 8H18.318M18.4775 8H19.9127" stroke="white" stroke-width="0.575106"/>
<path d="M16.8828 16H18.318M18.4775 16H19.9127" stroke="white" stroke-width="0.575106"/>
<path d="M16.8828 16.4664H18.9559M16.9625 17.3064V16.8397H17.6004V17.213H18.2383V16.8397H17.8396M17.2017 17.213H17.3612M18.9559 17.213H18.5572V16.8397H19.1951M19.1951 16.373V17.213H19.833V16.373M19.514 16.373V17.213" stroke="white" stroke-width="0.287553"/>
<path d="M20.0703 6.78669H22.1434M20.15 7.62669V7.16003H20.7879V7.53336H21.4258V7.16003H21.0271M20.3892 7.53336H20.5487M22.1434 7.53336H21.7447V7.16003H22.3826M22.3826 6.69336V7.53336H23.0205V6.69336M22.7015 6.69336V7.53336" stroke="white" stroke-width="0.287553"/>
<path d="M20.0703 8H21.5055M21.665 8H23.1002" stroke="white" stroke-width="0.575106"/>
<path d="M20.0703 16H21.5055M21.665 16H23.1002" stroke="white" stroke-width="0.575106"/>
<path d="M20.0703 16.4664H22.1434M20.15 17.3064V16.8397H20.7879V17.213H21.4258V16.8397H21.0271M20.3892 17.213H20.5487M22.1434 17.213H21.7447V16.8397H22.3826M22.3826 16.373V17.213H23.0205V16.373M22.7015 16.373V17.213" stroke="white" stroke-width="0.287553"/>
<path d="M23.2617 6.78669H25.3348M23.3415 7.62669V7.16003H23.9793V7.53336H24.6172V7.16003H24.2185M23.5807 7.53336H23.7401M25.3348 7.53336H24.9361V7.16003H25.574M25.574 6.69336V7.53336H26.2119V6.69336M25.8929 6.69336V7.53336" stroke="white" stroke-width="0.287553"/>
<path d="M23.2617 8H24.6969M24.8564 8H26.2916" stroke="white" stroke-width="0.575106"/>
<path d="M23.2617 16H24.6969M24.8564 16H26.2916" stroke="white" stroke-width="0.575106"/>
<path d="M23.2617 16.4664H25.3348M23.3415 17.3064V16.8397H23.9793V17.213H24.6172V16.8397H24.2185M23.5807 17.213H23.7401M25.3348 17.213H24.9361V16.8397H25.574M25.574 16.373V17.213H26.2119V16.373M25.8929 16.373V17.213" stroke="white" stroke-width="0.287553"/>
<path fill-rule="evenodd" clip-rule="evenodd" d="M13.1406 9.19922C13.5443 9.68557 14.7699 12.3848 12.4013 14.1551C11.2876 14.9917 11.9782 15.0306 12.0123 15.1765C13.802 14.2232 14.3856 12.9393 14.3711 11.7817C14.3565 10.6291 13.7485 9.61262 13.1455 9.19922H13.1406Z" fill="#DA0000"/>
<path fill-rule="evenodd" clip-rule="evenodd" d="M13.3851 9.07422C13.8208 9.3411 14.1919 9.70137 14.4716 10.129C14.7512 10.5567 14.9325 11.0411 15.0023 11.5473C15.0721 12.0535 15.0287 12.5689 14.8752 13.0563C14.7216 13.5436 14.4619 13.9909 14.1146 14.3657C15.3986 14.0836 17.0327 10.295 13.3753 9.07422H13.3851ZM10.6664 9.07422C10.2306 9.3411 9.85953 9.70137 9.57987 10.129C9.30021 10.5567 9.11895 11.0411 9.04916 11.5473C8.97937 12.0535 9.0228 12.5689 9.1763 13.0563C9.32981 13.5436 9.58957 13.9909 9.93685 14.3657C8.64802 14.0836 7.01388 10.295 10.6664 9.07422Z" fill="#DA0000"/>
<path fill-rule="evenodd" clip-rule="evenodd" d="M10.9026 9.19922C10.5038 9.68557 9.27333 12.3848 11.6419 14.1551C12.7556 14.9917 12.065 15.0306 12.0309 15.1765C10.246 14.2232 9.65755 12.9393 9.67214 11.7817C9.68673 10.6291 10.2995 9.61262 10.9026 9.19922Z" fill="#DA0000"/>
<path fill-rule="evenodd" clip-rule="evenodd" d="M14.2947 14.9291C13.5251 14.9589 12.7592 14.809 12.0575 14.4914C12.1645 14.7005 12.2521 14.8319 12.3639 15.0459C12.9865 15.0994 13.8473 15.1723 14.2947 14.9291ZM9.82031 14.9291C10.5207 14.9389 11.4058 14.8319 12.0575 14.4914C11.9505 14.7005 11.863 14.8319 11.7511 15.0459C11.1286 15.0994 10.2678 15.1723 9.82031 14.9291ZM11.1043 8.39258C11.2502 8.76707 11.6198 8.82543 12.0186 8.60171C12.3104 8.7768 12.7579 8.78652 12.9135 8.40717C13.0302 9.34096 12.0478 9.1221 12.0138 8.94215C11.649 9.29233 10.9681 9.08806 11.1043 8.39258Z" fill="#DA0000"/>
<path fill-rule="evenodd" clip-rule="evenodd" d="M12.0431 15.5182L12.4127 15.0951L12.4614 9.434L12.0237 9.04492L11.5859 9.41455L11.6735 15.1146L12.0431 15.5182Z" fill="#DA0000"/>
</g>
<defs>
<clipPath id="clip0_358_3686">
<rect width="24" height="24" rx="12" fill="white"/>
</clipPath>
</defs>
</svg>
