<svg width="24" height="24" viewBox="0 0 24 24" fill="none" xmlns="http://www.w3.org/2000/svg">
<g clip-path="url(#clip0_358_14745)">
<path d="M30 0H-6V24H30V0Z" fill="white"/>
<path d="M30 0H-6V7.2H30V0Z" fill="black"/>
<path d="M30 8.40039H-6V15.6004H30V8.40039Z" fill="#BB0000"/>
<path d="M30 16.8008H-6V24.0008H30V16.8008Z" fill="#006600"/>
<path d="M7.71408 19.125L7.97389 19.275L14.9808 7.13866C15.3906 7.02885 15.6156 6.63914 15.8406 6.24942C15.9906 5.98962 16.5906 4.95039 16.8506 3.6C15.8112 4.50039 15.2112 5.53962 15.0612 5.79942C14.8362 6.18914 14.6112 6.57885 14.721 6.98866L7.71408 19.125Z" fill="black"/>
<path d="M7.71408 19.125L7.97389 19.275L14.9808 7.13866C15.3906 7.02885 15.6156 6.63914 15.8406 6.24942C15.9906 5.98962 16.5906 4.95039 16.8506 3.6C15.8112 4.50039 15.2112 5.53962 15.0612 5.79942C14.8362 6.18914 14.6112 6.57885 14.721 6.98866L7.71408 19.125Z" fill="white"/>
<path d="M16.282 19.125L16.0222 19.275L9.01528 7.13866C8.60548 7.02885 8.38048 6.63914 8.15548 6.24942C8.00548 5.98962 7.40548 4.95039 7.14544 3.6C8.1849 4.50039 8.7849 5.53962 8.9349 5.79942C9.1599 6.18914 9.3849 6.57885 9.27509 6.98866L16.282 19.125Z" fill="black"/>
<path d="M16.282 19.125L16.0222 19.275L9.01528 7.13866C8.60548 7.02885 8.38048 6.63914 8.15548 6.24942C8.00548 5.98962 7.40548 4.95039 7.14544 3.6C8.1849 4.50039 8.7849 5.53962 8.9349 5.79942C9.1599 6.18914 9.3849 6.57885 9.27509 6.98866L16.282 19.125Z" fill="white"/>
<path d="M9.15234 15.6008C9.60234 16.8008 11.1023 19.2008 12.0023 19.2008C12.9023 19.2008 14.4023 16.8008 14.8523 15.6008V8.40078C14.4023 7.20078 12.9023 4.80078 12.0023 4.80078C11.1023 4.80078 9.60234 7.20078 9.15234 8.40078V15.6008Z" fill="#BB0000"/>
<path d="M14.8516 15.6004C15.3016 14.4004 15.6016 13.2004 15.6016 12.0004C15.6016 10.8004 15.3016 9.60039 14.8516 8.40039C14.4016 9.60039 14.1016 10.8004 14.1016 12.0004C14.1016 13.2004 14.4016 14.4004 14.8516 15.6004Z" fill="black"/>
<path d="M9.15234 15.6004C8.70234 14.4004 8.40234 13.2004 8.40234 12.0004C8.40234 10.8004 8.70234 9.60039 9.15234 8.40039C9.60234 9.60039 9.90234 10.8004 9.90234 12.0004C9.90234 13.2004 9.60234 14.4004 9.15234 15.6004Z" fill="black"/>
<path d="M11.9984 12.8996C12.3298 12.8996 12.5984 12.4967 12.5984 11.9996C12.5984 11.5026 12.3298 11.0996 11.9984 11.0996C11.6671 11.0996 11.3984 11.5026 11.3984 11.9996C11.3984 12.4967 11.6671 12.8996 11.9984 12.8996Z" fill="white"/>
<path d="M12.1484 12.877C12.1484 12.877 12.7484 14.077 12.7484 16.027C12.7484 17.977 12.1484 19.177 12.1484 19.177V12.877Z" fill="white"/>
<path d="M11.8516 11.123C11.8516 11.123 11.2516 9.92305 11.2516 7.97305C11.2516 6.02305 11.8516 4.82305 11.8516 4.82305V11.123Z" fill="white"/>
<path d="M11.8516 12.877C11.8516 12.877 11.2516 14.077 11.2516 16.027C11.2516 17.977 11.8516 19.177 11.8516 19.177V12.877Z" fill="white"/>
<path d="M12.1484 11.123C12.1484 11.123 12.7484 9.92305 12.7484 7.97305C12.7484 6.02305 12.1484 4.82305 12.1484 4.82305V11.123Z" fill="white"/>
</g>
<defs>
<clipPath id="clip0_358_14745">
<rect width="24" height="24" rx="12" fill="white"/>
</clipPath>
</defs>
</svg>
