<svg width="24" height="24" viewBox="0 0 24 24" fill="none" xmlns="http://www.w3.org/2000/svg">
<g clip-path="url(#clip0_358_4097)">
<path d="M-6 0H30V24H-6V0Z" fill="#FF0000"/>
<path d="M10.2866 10.3718C9.83949 10.0941 9.36532 9.86377 8.8776 9.6741C8.45761 10.2973 8.21375 11.0424 8.21375 11.8485C8.21375 12.2482 8.27472 12.6343 8.38987 13.0001C8.59309 12.5327 8.8505 12.0788 9.1621 11.6453C9.49402 11.1711 9.87336 10.7444 10.2866 10.3718ZM9.09436 9.38959C9.62273 9.57249 10.1308 9.80958 10.6185 10.0873C10.7269 9.99247 10.842 9.91118 10.9504 9.8299C10.4356 9.54539 9.88691 9.31508 9.32468 9.13896C9.24339 9.22025 9.1621 9.30153 9.09436 9.38959ZM9.56854 8.90865C10.1782 9.07122 10.7607 9.29476 11.3094 9.58604C11.4381 9.50475 11.5668 9.43024 11.6888 9.35572C11.1062 9.05767 10.4898 8.84091 9.85304 8.68511C9.75143 8.75285 9.6566 8.82736 9.56854 8.90865ZM10.1443 8.50221C10.8149 8.63769 11.4652 8.85445 12.0749 9.15251C12.6913 8.85445 13.3416 8.63769 14.0055 8.50221C13.4432 8.17029 12.7794 7.98062 12.0749 7.98062C11.3704 7.98062 10.7133 8.17029 10.1443 8.50221ZM14.2967 8.69188C13.66 8.84091 13.0436 9.06445 12.461 9.35572C12.5897 9.43024 12.7116 9.50475 12.8403 9.58604C13.3958 9.29476 13.9784 9.07122 14.5812 8.90865C14.4932 8.82736 14.3983 8.75285 14.2967 8.69188ZM14.8251 9.14573C14.2629 9.31508 13.721 9.54539 13.1994 9.8299C13.3145 9.91118 13.4297 9.99925 13.5381 10.0873C14.019 9.80958 14.527 9.57249 15.0554 9.38959C14.9877 9.30153 14.9132 9.22025 14.8251 9.14573ZM15.2722 9.68087C14.7845 9.86377 14.3171 10.0941 13.87 10.3718C14.2832 10.7444 14.6558 11.1711 14.9944 11.6453C15.2993 12.0788 15.5567 12.5327 15.7667 13.0001C15.8751 12.6275 15.936 12.2482 15.936 11.8485C15.936 11.0424 15.6922 10.2973 15.2722 9.68087ZM14.9403 12.3362C14.5338 11.6792 14.0461 11.0966 13.5042 10.6021C13.3823 10.6902 13.2535 10.7782 13.1384 10.8663C14.0529 11.7198 14.7912 12.7901 15.2586 14.0365C15.367 13.8739 15.4686 13.7046 15.5499 13.5352C15.3806 13.1288 15.1773 12.7291 14.9403 12.3362ZM12.7929 10.575C12.9149 10.487 13.0368 10.3989 13.1655 10.3176C13.0571 10.2228 12.9419 10.1347 12.8268 10.0467C12.6981 10.128 12.5694 10.2092 12.4407 10.2973H12.4475C12.5626 10.3854 12.6778 10.4802 12.7929 10.575ZM12.0749 10.0331C12.2036 9.95183 12.3391 9.87054 12.461 9.79603C12.3323 9.71474 12.2036 9.63345 12.0749 9.55894C11.9462 9.63345 11.8243 9.71474 11.6955 9.79603C11.8243 9.87054 11.9462 9.95183 12.0749 10.0331ZM11.7091 10.2973C11.5804 10.2092 11.4585 10.128 11.3298 10.0467C11.2146 10.1347 11.0994 10.2228 10.9843 10.3108C11.113 10.3989 11.2349 10.4802 11.3569 10.5683C11.472 10.4734 11.5872 10.3854 11.7091 10.2973ZM12.0749 10.5683C11.9597 10.6563 11.8446 10.7512 11.7226 10.8528C11.8446 10.9476 11.9597 11.0492 12.0749 11.1508C12.19 11.0492 12.3052 10.9476 12.4271 10.8528C12.312 10.7579 12.1968 10.6563 12.0749 10.5683ZM12.0749 11.835C11.5601 12.3904 11.1062 13.0272 10.7404 13.7385C10.4898 14.2126 10.2933 14.7071 10.1443 15.2016C10.7133 15.52 11.3704 15.7097 12.0749 15.7097C12.7794 15.7097 13.4364 15.52 14.0055 15.2016C13.8564 14.7071 13.66 14.2126 13.4093 13.7385C13.0436 13.0272 12.5965 12.3904 12.0749 11.835ZM9.83949 14.4023C10.2798 13.2778 10.9301 12.2956 11.7294 11.4827C11.6143 11.3744 11.4991 11.2727 11.3772 11.1644C10.4491 12.0653 9.70401 13.183 9.25016 14.4768C9.37887 14.6191 9.51434 14.7478 9.66337 14.8697C9.71756 14.7139 9.77853 14.5581 9.83949 14.4023ZM12.4204 11.4827C13.2197 12.2956 13.87 13.2778 14.3171 14.4023C14.378 14.5581 14.4322 14.7139 14.4864 14.8697C14.6354 14.7478 14.7777 14.6191 14.9064 14.4768C14.4458 13.183 13.7006 12.0653 12.7726 11.1644C12.6507 11.2727 12.5355 11.3744 12.4204 11.4827ZM8.89114 14.0365C9.35854 12.7901 10.0969 11.7266 11.0182 10.8731C10.8962 10.7782 10.7743 10.6902 10.6456 10.6021C10.1037 11.1034 9.61595 11.686 9.20952 12.343C8.97243 12.7291 8.76921 13.1288 8.59987 13.5352C8.68115 13.7114 8.78276 13.8739 8.89114 14.0365ZM12.0952 7.66902C14.4796 7.66902 16.4237 9.61313 16.4237 11.9976C16.4237 14.382 14.4796 16.3261 12.0952 16.3261C9.71079 16.3261 7.76667 14.382 7.76667 11.9976C7.76667 9.61313 9.71079 7.66902 12.0952 7.66902ZM14.0055 6.72067C13.8835 6.86292 13.748 7.04582 13.6126 7.3371C13.5787 7.26258 13.5787 7.17452 13.599 7.07969C13.6329 6.76809 13.7209 6.57842 13.8835 6.31423C13.9377 6.2194 13.9919 6.13811 14.019 6.0365C14.1206 5.73168 14.1003 5.32524 13.8767 5.00687C13.9106 5.36588 13.8022 5.66394 13.6803 5.84683C13.66 5.8807 13.6397 5.90102 13.6126 5.92812C13.4839 6.05682 13.3416 6.18553 13.1587 6.48358C13.0571 6.64616 12.9555 6.8426 12.8607 7.1542C12.82 7.08646 12.8065 7.00517 12.8132 6.91034C12.7997 6.59196 12.8539 6.39552 12.969 6.10424C13.0097 6.00263 13.0503 5.91457 13.0639 5.80619C13.1113 5.49459 13.03 5.09493 12.7591 4.8172C12.8471 5.16267 12.7929 5.47427 12.6981 5.67749C12.6778 5.71135 12.6642 5.73845 12.6439 5.76555C12.5355 5.91457 12.4204 6.0636 12.2781 6.38197C12.2104 6.56487 12.1359 6.77486 12.0952 7.09323C12.041 7.03227 12.0139 6.95098 12.0071 6.85615C11.9462 6.54455 11.9665 6.34133 12.0342 6.0365C12.0613 5.93489 12.0884 5.84006 12.0817 5.73168C12.0817 5.4133 11.9394 5.03396 11.6278 4.79688C11.7701 5.1288 11.7633 5.44717 11.7023 5.66394C11.6888 5.69103 11.6752 5.7249 11.6617 5.752C11.5804 5.92135 11.4856 6.08392 11.3975 6.42262C11.3569 6.61229 11.3162 6.83583 11.323 7.1542C11.2688 7.10001 11.2281 7.02549 11.2011 6.93743C11.0927 6.63261 11.0791 6.43616 11.1062 6.11779C11.113 6.00941 11.1198 5.91457 11.1062 5.81296C11.052 5.49459 10.8488 5.14235 10.5101 4.95945C10.6998 5.26428 10.7404 5.58265 10.7133 5.79942C10.7066 5.83329 10.6998 5.86715 10.693 5.90102C10.6388 6.07715 10.5711 6.25327 10.5372 6.60551C10.5237 6.79518 10.5169 7.01872 10.5779 7.3371C10.5101 7.28968 10.4627 7.22194 10.422 7.14065C10.2662 6.85615 10.2256 6.6597 10.1985 6.3481C10.1917 6.23972 10.185 6.14489 10.1443 6.04328C10.0495 5.73845 9.79208 5.42008 9.42628 5.29815C9.66337 5.56233 9.75821 5.86715 9.75821 6.09069C9.75821 6.12456 9.75821 6.15843 9.75143 6.1923C9.72434 6.3752 9.69047 6.56487 9.71079 6.91034C9.73111 7.10001 9.75821 7.32355 9.86659 7.62837C9.79208 7.59451 9.73111 7.53354 9.67692 7.45903C9.48047 7.20839 9.41274 7.01872 9.33822 6.71389C9.31113 6.60551 9.29081 6.51745 9.23661 6.41584C9.09436 6.13811 8.78954 5.86038 8.4102 5.79264C8.68115 6.02296 8.8234 6.31423 8.86405 6.531C8.87082 6.56487 8.87082 6.59874 8.87082 6.63261C8.8776 6.8155 8.87082 7.00517 8.94534 7.35064C8.99275 7.53354 9.05372 7.7503 9.20952 8.02804C9.135 8.00771 9.06727 7.9603 8.99953 7.89256C8.76244 7.67579 8.66083 7.49967 8.54567 7.20839C8.50503 7.10678 8.46439 7.01872 8.40342 6.93066C8.21375 6.68003 7.87506 6.45649 7.48217 6.44971C7.79377 6.63261 7.97666 6.89002 8.05118 7.10001C8.05795 7.13388 8.06473 7.16775 8.0715 7.20162C8.10537 7.38451 8.12569 7.57418 8.2544 7.89933C8.32891 8.07545 8.43052 8.27867 8.62696 8.52931C8.54567 8.52253 8.47116 8.48189 8.39665 8.4277C8.13247 8.25157 8.00376 8.089 7.83441 7.82482C7.78022 7.72998 7.7328 7.6487 7.65152 7.57418C7.42798 7.35064 7.05541 7.1813 6.6693 7.23549C7.00122 7.37096 7.22476 7.60128 7.33314 7.79772C7.34669 7.82482 7.36024 7.85869 7.37379 7.89256C7.43475 8.06191 7.48217 8.2448 7.65829 8.54963C7.7599 8.7122 7.8886 8.8951 8.12569 9.11864C8.0444 9.11864 7.96312 9.09154 7.88183 9.0509C7.59055 8.91542 7.44153 8.77994 7.23831 8.54285C7.16379 8.46157 7.10283 8.38705 7.01477 8.31931C6.75736 8.13642 6.36447 8.02804 5.99191 8.14319C6.34415 8.22448 6.60156 8.41415 6.73026 8.59027C6.75736 8.61737 6.77091 8.64446 6.78446 8.67833C6.87252 8.84091 6.9538 9.01703 7.17734 9.28121C7.29927 9.43024 7.45507 9.59281 7.71926 9.77571C7.64474 9.78926 7.56346 9.77571 7.46862 9.74184C7.16379 9.66055 6.99445 9.54539 6.75736 9.34218C6.67607 9.27444 6.60156 9.21347 6.50672 9.15928C6.22222 9.01703 5.81578 8.97638 5.46354 9.14573C5.82256 9.16605 6.10706 9.32185 6.26964 9.47088C6.28996 9.49798 6.31028 9.5183 6.3306 9.55217C6.44576 9.69442 6.54737 9.85699 6.81155 10.0873C6.9538 10.2092 7.1367 10.3447 7.42798 10.487C7.35346 10.5141 7.2654 10.5141 7.17734 10.4937C6.85897 10.4599 6.67607 10.3718 6.40511 10.2092C6.31028 10.155 6.22899 10.1009 6.12739 10.0738C5.82256 9.97215 5.4229 9.99247 5.10452 10.216C5.45677 10.1821 5.76159 10.2905 5.94449 10.4125C5.97158 10.4328 5.99868 10.4531 6.019 10.4802C6.15448 10.6089 6.28318 10.7512 6.57446 10.934C6.73704 11.0357 6.94025 11.144 7.24508 11.2321C7.17734 11.2727 7.09606 11.2863 7.00122 11.2863C6.68285 11.2931 6.4864 11.2389 6.19512 11.1237C6.09351 11.0831 6.00545 11.0424 5.89707 11.0289C5.58547 10.9815 5.18581 11.0628 4.90808 11.3337C5.25355 11.2456 5.57192 11.2998 5.76837 11.3947C5.80224 11.415 5.82933 11.4285 5.85643 11.4489C6.00545 11.5572 6.15448 11.6724 6.47963 11.8147C6.65575 11.8824 6.86574 11.9569 7.18412 11.9976C7.12315 12.0517 7.04186 12.0788 6.9538 12.0856C6.63543 12.1534 6.43899 12.1263 6.12739 12.0585C6.02578 12.0314 5.93094 12.0111 5.82256 12.0111C5.50418 12.0111 5.12484 12.1534 4.89453 12.465C5.21968 12.3227 5.53805 12.3295 5.75482 12.3904C5.78869 12.404 5.81578 12.4175 5.84965 12.4311C6.01223 12.5124 6.18158 12.6072 6.52027 12.6953C6.70317 12.7359 6.92671 12.7766 7.24508 12.7698C7.19089 12.824 7.11638 12.8646 7.02832 12.8917C6.73026 13.0001 6.52705 13.0136 6.21545 12.9865C6.10706 12.9798 6.01223 12.973 5.90385 12.9865C5.59224 13.0407 5.24 13.244 5.05711 13.5894C5.35516 13.393 5.67353 13.3523 5.89707 13.3794C5.93094 13.3862 5.95804 13.393 5.99191 13.3998C6.16803 13.4607 6.34415 13.5217 6.69639 13.5556C6.88606 13.5691 7.1096 13.5759 7.42798 13.5149C7.38056 13.5827 7.31282 13.6301 7.23153 13.6707C6.9538 13.8265 6.75058 13.8672 6.43898 13.8942C6.3306 13.9078 6.23577 13.9146 6.13416 13.9484C5.82933 14.0433 5.51773 14.3007 5.38903 14.6665C5.65998 14.4294 5.96481 14.3413 6.18835 14.3346C6.22222 14.3346 6.25609 14.3346 6.28996 14.3413C6.46608 14.3684 6.65575 14.4023 7.00799 14.382C7.19766 14.3684 7.4212 14.3346 7.71926 14.2262C7.69216 14.3007 7.6312 14.3617 7.54991 14.4158C7.29927 14.6123 7.1096 14.68 6.80478 14.7545C6.70317 14.7816 6.60833 14.802 6.5135 14.8561C6.22899 14.9984 5.95804 15.3032 5.8903 15.6826C6.11384 15.4116 6.40512 15.2694 6.62188 15.2287C6.65575 15.2219 6.68962 15.2219 6.72349 15.2219C6.90639 15.2152 7.10283 15.2219 7.44152 15.1474C7.62442 15.1 7.84119 15.039 8.12569 14.8832C8.10537 14.9578 8.05118 15.0323 7.98344 15.0932C7.76667 15.3303 7.59055 15.4319 7.29927 15.5471C7.20444 15.5945 7.11638 15.6284 7.02832 15.6893C6.77091 15.879 6.54737 16.2177 6.54059 16.6106C6.72349 16.299 6.98767 16.1161 7.19766 16.0416C7.23153 16.0348 7.25863 16.028 7.2925 16.0213C7.47539 15.9874 7.66506 15.9671 7.99021 15.8384C8.16633 15.7639 8.36955 15.6622 8.62696 15.4726C8.61341 15.5471 8.57954 15.6216 8.51858 15.6961C8.34246 15.9603 8.18666 16.089 7.9157 16.2583C7.82764 16.3125 7.74635 16.36 7.66506 16.4412C7.44152 16.6648 7.27895 17.0373 7.33314 17.4235C7.46185 17.0915 7.69216 16.868 7.8886 16.7596C7.92247 16.7461 7.94957 16.7325 7.98344 16.719C8.15956 16.6648 8.34246 16.6106 8.64051 16.4345C8.80308 16.3329 8.98598 16.2042 9.20952 15.9671C9.21629 16.0484 9.1892 16.1296 9.14178 16.2109C9.0063 16.5022 8.87082 16.6512 8.63374 16.8545C8.55245 16.929 8.47793 16.9899 8.41697 17.078C8.23407 17.3354 8.12569 17.7283 8.24085 18.1009C8.31536 17.7486 8.50503 17.4912 8.68793 17.3625C8.71502 17.3422 8.74212 17.3219 8.76921 17.3083C8.93179 17.2202 9.10791 17.139 9.37887 16.9154C9.52112 16.7935 9.68369 16.6377 9.86659 16.3735C9.88014 16.448 9.86659 16.5361 9.83949 16.6241C9.75143 16.929 9.64305 17.0983 9.43306 17.3354C9.36532 17.4167 9.30435 17.4912 9.25694 17.5928C9.11468 17.8773 9.06727 18.277 9.23661 18.6292C9.26371 18.2702 9.41274 17.9857 9.56854 17.8299C9.58886 17.8028 9.61595 17.7825 9.64305 17.7622C9.79208 17.647 9.94788 17.5454 10.1782 17.2812C10.3001 17.139 10.4356 16.9561 10.5779 16.6648C10.6049 16.7393 10.6049 16.8274 10.5914 16.9154C10.5508 17.2338 10.4695 17.4167 10.3069 17.6876C10.2459 17.7825 10.1985 17.8638 10.1646 17.9654C10.0698 18.2702 10.0901 18.6766 10.3137 18.995C10.2798 18.636 10.3814 18.3312 10.5101 18.1483C10.5304 18.1212 10.5508 18.0941 10.5711 18.0738C10.6998 17.9383 10.842 17.8096 11.0317 17.5183C11.1265 17.3557 11.2349 17.1525 11.323 16.8477C11.3636 16.9154 11.3772 16.9967 11.3772 17.0915C11.3907 17.4099 11.3365 17.6064 11.2146 17.8976C11.174 17.9992 11.1401 18.0873 11.1198 18.1957C11.0723 18.5073 11.1536 18.907 11.4246 19.1847C11.3365 18.8392 11.3907 18.5208 11.4923 18.3244C11.5059 18.2905 11.5194 18.2634 11.5397 18.2363C11.6481 18.0873 11.7701 17.9383 11.9055 17.6131C11.9801 17.437 12.0546 17.227 12.0952 16.9086C12.1426 16.9696 12.1697 17.0509 12.1833 17.139C12.2442 17.4573 12.2239 17.6538 12.1494 17.9654C12.1223 18.067 12.102 18.1618 12.102 18.2702C12.102 18.5886 12.251 18.9679 12.5626 19.1982C12.4204 18.8731 12.4204 18.5547 12.4881 18.3379C12.4949 18.3041 12.5084 18.277 12.522 18.2431C12.6033 18.0805 12.6981 17.9112 12.7861 17.5725C12.8268 17.3896 12.8674 17.1661 12.8607 16.8477C12.9216 16.9019 12.9555 16.9764 12.9826 17.0644C13.0977 17.3625 13.1045 17.5657 13.0842 17.8841C13.0707 17.9857 13.0639 18.0805 13.0842 18.1889C13.1316 18.5073 13.3348 18.8595 13.6803 19.0424C13.4906 18.7376 13.4432 18.4192 13.4771 18.2025C13.4771 18.1686 13.4839 18.1347 13.4974 18.1009C13.5516 17.9247 13.6193 17.7486 13.6532 17.3964C13.66 17.2067 13.6668 16.9832 13.6126 16.6648C13.6735 16.7122 13.7277 16.7799 13.7684 16.8612C13.9242 17.139 13.9648 17.3422 13.9919 17.6538C13.9987 17.7622 14.0055 17.857 14.0393 17.9586C14.1409 18.2634 14.3916 18.575 14.7641 18.7037C14.527 18.4328 14.4322 18.128 14.4254 17.9044C14.4254 17.8705 14.4254 17.8367 14.4322 17.8028C14.4593 17.6267 14.4999 17.437 14.4729 17.0848C14.4593 16.8951 14.4254 16.6716 14.3238 16.3735C14.3916 16.4074 14.4525 16.4616 14.5067 16.5429C14.7032 16.7935 14.7777 16.9832 14.8522 17.288C14.8725 17.3896 14.8996 17.4844 14.947 17.5793C15.0961 17.8638 15.3941 18.1347 15.7802 18.2025C15.5025 17.9789 15.3602 17.6876 15.3196 17.4709C15.3128 17.437 15.3128 17.4031 15.3128 17.3693C15.3128 17.1864 15.3196 16.9967 15.2451 16.6512C15.1977 16.4683 15.1299 16.2516 14.9741 15.9671C15.0554 15.9874 15.1232 16.0416 15.1841 16.1093C15.4212 16.3261 15.5228 16.5022 15.6447 16.7935C15.6854 16.8883 15.7193 16.9764 15.787 17.0644C15.9767 17.3219 16.3154 17.5454 16.7015 17.5522C16.3966 17.3693 16.2138 17.1051 16.1392 16.8951C16.1257 16.8612 16.1189 16.8341 16.1121 16.8003C16.085 16.6174 16.058 16.4277 15.9292 16.1025C15.8547 15.9264 15.7599 15.7232 15.5635 15.4726C15.6447 15.4793 15.7193 15.5132 15.7938 15.5742C16.058 15.7503 16.1867 15.9061 16.3492 16.1771C16.4034 16.2651 16.4576 16.3532 16.5321 16.4277C16.7557 16.6512 17.1282 16.8138 17.5143 16.7596C17.1824 16.6309 16.9589 16.4006 16.8573 16.2042C16.837 16.1703 16.8234 16.1432 16.8166 16.1093C16.7557 15.9332 16.7015 15.7503 16.5254 15.4523C16.4237 15.2897 16.295 15.1068 16.0647 14.8832C16.1392 14.8832 16.2205 14.9036 16.3086 14.951C16.5931 15.0865 16.7489 15.2219 16.9521 15.459C17.0198 15.5403 17.0808 15.6148 17.1689 15.6758C17.4263 15.8655 17.8192 15.9671 18.1917 15.8587C17.8463 15.7774 17.5889 15.5877 17.4534 15.4048C17.4331 15.3777 17.4127 15.3506 17.3992 15.3235C17.3111 15.161 17.2366 14.9849 17.0131 14.7139C16.8844 14.5716 16.7286 14.4091 16.4644 14.2262C16.5457 14.2126 16.627 14.2262 16.715 14.2533C17.0198 14.3413 17.1892 14.4565 17.4331 14.6597C17.5143 14.7274 17.5889 14.7884 17.6837 14.8358C17.9682 14.9781 18.3679 15.0255 18.7201 14.8561C18.3611 14.8291 18.0834 14.68 17.9208 14.5242C17.8937 14.5039 17.8734 14.4768 17.853 14.4497C17.7447 14.3007 17.6363 14.1449 17.3789 13.9146C17.2298 13.7926 17.0469 13.6572 16.7624 13.5149C16.837 13.4878 16.9182 13.4878 17.0131 13.5014C17.3247 13.542 17.5143 13.6233 17.7785 13.7926C17.8734 13.8468 17.9546 13.8942 18.0563 13.9281C18.3611 14.023 18.7675 14.0026 19.0859 13.7791C18.7269 13.813 18.4288 13.7114 18.2459 13.5827C18.2188 13.5623 18.1917 13.542 18.1646 13.5217C18.0359 13.393 17.9072 13.2507 17.6092 13.0611C17.4466 12.9662 17.2502 12.8578 16.9386 12.7698C17.0063 12.7291 17.0944 12.7156 17.1824 12.7156C17.5076 12.702 17.704 12.7562 17.9885 12.8782C18.0901 12.9188 18.1782 12.9527 18.2866 12.973C18.5982 13.0204 18.9978 12.9391 19.2756 12.6682C18.9301 12.7562 18.6185 12.702 18.4153 12.6004C18.3882 12.5869 18.3543 12.5733 18.3272 12.553C18.1782 12.4446 18.0292 12.3295 17.7108 12.1872C17.5347 12.1195 17.3179 12.045 16.9995 11.9976C17.0605 11.9501 17.1418 11.923 17.2366 11.9095C17.5482 11.8485 17.7514 11.8688 18.0563 11.9434C18.1579 11.9705 18.2527 11.9908 18.3611 11.9908C18.6795 11.9908 19.0588 11.8418 19.2959 11.5369C18.964 11.6724 18.6456 11.6724 18.4356 11.6047C18.4017 11.5979 18.3679 11.5843 18.3408 11.5708C18.1714 11.4895 18.0088 11.3947 17.6701 11.3066C17.4805 11.266 17.2637 11.2253 16.9386 11.2321C16.9928 11.1711 17.0673 11.1373 17.1553 11.1102C17.4602 10.995 17.6634 10.9882 17.975 11.0086C18.0834 11.0221 18.1782 11.0289 18.2866 11.0086C18.5982 10.9611 18.9504 10.7579 19.1333 10.4125C18.8285 10.6021 18.5169 10.6495 18.2933 10.6224C18.2595 10.6157 18.2256 10.6089 18.1917 10.5954C18.0156 10.5412 17.8395 10.4734 17.494 10.4396C17.3044 10.4328 17.074 10.426 16.7624 10.487C16.8031 10.4192 16.8708 10.365 16.9589 10.3244C17.2366 10.1686 17.4331 10.128 17.7447 10.1009C17.853 10.0941 17.9479 10.0873 18.0495 10.0534C18.3543 9.95183 18.6727 9.70119 18.7946 9.32863C18.5304 9.56572 18.2256 9.66055 18.0021 9.66732C17.9682 9.66732 17.9343 9.66732 17.9005 9.66055C17.7176 9.63345 17.5279 9.59281 17.1824 9.61991C16.9928 9.63345 16.7692 9.66732 16.4644 9.77571C16.4983 9.70119 16.5592 9.64023 16.6337 9.58604C16.8844 9.38959 17.074 9.31508 17.3789 9.24057C17.4872 9.22025 17.5753 9.19315 17.6769 9.14573C17.9546 8.99671 18.2324 8.69865 18.3001 8.31254C18.0698 8.59027 17.7853 8.73252 17.5618 8.77317C17.5279 8.77994 17.494 8.77994 17.4602 8.77994C17.2773 8.77994 17.0876 8.77317 16.7489 8.84768C16.5592 8.8951 16.3425 8.96284 16.0647 9.11864C16.085 9.03735 16.1325 8.96961 16.2002 8.90865C16.417 8.67156 16.5931 8.56995 16.8844 8.44802C16.986 8.40737 17.074 8.37351 17.1621 8.30577C17.4127 8.1161 17.6363 7.7774 17.643 7.39129C17.4602 7.69611 17.2027 7.87901 16.9928 7.95352C16.9589 7.96707 16.925 7.97384 16.8911 7.98062C16.7082 8.01449 16.5186 8.03481 16.1934 8.16351C16.0241 8.23803 15.8209 8.33286 15.5635 8.52931C15.5702 8.45479 15.6109 8.37351 15.6651 8.29899C15.8412 8.03481 16.0038 7.9061 16.2679 7.74353C16.3628 7.68934 16.4441 7.63515 16.5186 7.56064C16.7421 7.3371 16.9115 6.96453 16.8573 6.57842C16.7218 6.91034 16.4915 7.13388 16.295 7.24226C16.2679 7.25581 16.2341 7.26936 16.207 7.27613C16.0309 7.3371 15.848 7.39129 15.5431 7.56741C15.3806 7.66902 15.1977 7.79772 14.9741 8.02804C14.9741 7.95352 15.0012 7.87224 15.0419 7.79095C15.1773 7.49967 15.3128 7.35064 15.5499 7.14065C15.6312 7.07291 15.7057 7.01195 15.7734 6.92389C15.9563 6.66648 16.0647 6.27359 15.9496 5.90102C15.8683 6.24649 15.6786 6.5039 15.5025 6.63938C15.4754 6.6597 15.4483 6.68003 15.4144 6.69357C15.2519 6.78163 15.0757 6.85615 14.8116 7.07969C14.6625 7.20839 14.4999 7.36419 14.3238 7.62837C14.3035 7.55386 14.3171 7.4658 14.3509 7.37774C14.439 7.07291 14.5474 6.90356 14.7506 6.6597C14.8183 6.57842 14.8861 6.51068 14.9335 6.40907C15.0757 6.12456 15.1164 5.7249 14.947 5.37266C14.9267 5.73168 14.7777 6.00941 14.6219 6.17198C14.5948 6.19908 14.5745 6.2194 14.5474 6.23972C14.3983 6.3481 14.2358 6.45649 14.0055 6.72067Z" fill="#FFFF00"/>
</g>
<defs>
<clipPath id="clip0_358_4097">
<rect width="24" height="24" rx="12" fill="white"/>
</clipPath>
</defs>
</svg>
