<svg width="24" height="24" viewBox="0 0 24 24" fill="none" xmlns="http://www.w3.org/2000/svg">
<g clip-path="url(#clip0_358_4014)">
<path d="M-6 0H30V24H-6V0Z" fill="#032EA1"/>
<path d="M-6 6H29.987V18H-6V6Z" fill="#E00025"/>
<path d="M8.63281 11.2891H15.4608V13.9163H8.63281V11.2891Z" fill="white" stroke="black" stroke-width="0.096" stroke-linejoin="bevel"/>
<path d="M15.1086 12.7389H15.3238V13.7286H15.1086V12.7389ZM8.63281 12.2499H15.4608V12.5553H8.63281V12.2499ZM8.63281 11.8359H15.4608V12.1053H8.63281V11.8359Z" fill="white" stroke="black" stroke-width="0.096" stroke-linejoin="bevel"/>
<path d="M8.63281 11.4238H15.4608V11.6851H8.63281V11.4238Z" fill="white" stroke="black" stroke-width="0.0945" stroke-linejoin="bevel"/>
<path d="M10.4311 12.7402H10.6463V13.7299H10.4311V12.7402ZM13.3705 12.7402H13.5857V13.7299H13.3705V12.7402ZM8.6875 12.7402H8.90266V13.7299H8.6875V12.7402ZM9.1093 12.7402H9.32446V13.7299H9.1093V12.7402ZM9.5593 12.7402H9.77446V13.7299H9.5593V12.7402ZM10.0093 12.7402H10.2245V13.7299H10.0093V12.7402ZM13.7785 12.7402H13.9937V13.7299H13.7785V12.7402ZM14.2285 12.7402H14.4437V13.7299H14.2285V12.7402ZM14.6785 12.7402H14.8937V13.7299H14.6785V12.7402Z" fill="white" stroke="black" stroke-width="0.096" stroke-linejoin="bevel"/>
<path d="M5.96094 14.0536C6.06654 13.9998 6.18696 13.8745 6.22638 13.7344H17.8106C17.85 13.8745 17.9705 13.9998 18.0761 14.0536H5.96094Z" fill="white" stroke="black" stroke-width="0.096"/>
<path d="M11.8721 7.29043C11.8721 7.29043 11.8634 7.04372 12.0071 7.04102C12.1508 7.04366 12.1421 7.29043 12.1421 7.29043H11.8721ZM11.1227 10.5628V10.2307C11.1179 10.0646 10.9571 10.0526 10.9524 9.93151C10.9524 9.93151 10.9316 9.74989 10.9795 9.66703C11.0445 9.90985 11.1629 9.86527 11.1629 9.76543C11.1629 9.67825 11.0958 9.59719 10.9584 9.38563C10.9145 9.31795 10.9416 9.10603 11.0032 9.03026C11.027 9.21446 11.0543 9.30265 11.1334 9.30265C11.1817 9.30265 11.2211 9.27122 11.2211 9.17894C11.2211 9.06152 11.1416 9.00223 11.1025 8.89543C11.0569 8.77075 11.0883 8.64367 11.1641 8.57263C11.1966 8.75443 11.1869 8.82685 11.2677 8.82685C11.4305 8.77537 11.2677 8.5397 11.2329 8.48024C11.1929 8.41094 11.2867 8.27263 11.2867 8.27263C11.3385 8.43403 11.3551 8.44724 11.4109 8.43224C11.4813 8.41334 11.4723 8.30888 11.3863 8.22446C11.3321 8.17106 11.3378 8.09174 11.3961 8.02802C11.4546 8.14232 11.5295 8.13541 11.5367 8.06749L11.4896 7.80398H12.5249L12.4736 8.05898C12.4589 8.13188 12.5573 8.14777 12.6185 8.02807C12.6768 8.09179 12.6825 8.17117 12.6283 8.22451C12.5424 8.30893 12.5333 8.41339 12.6037 8.43229C12.6595 8.44729 12.6762 8.4341 12.7279 8.2727C12.7279 8.2727 12.8121 8.36689 12.7817 8.48029C12.7469 8.53969 12.5841 8.7755 12.7469 8.82692C12.8277 8.82692 12.818 8.75444 12.8505 8.5727C12.9263 8.64374 12.9576 8.77082 12.912 8.8955C12.873 9.0023 12.7935 9.06158 12.7935 9.179C12.7935 9.27128 12.8329 9.30272 12.8811 9.30272C12.9603 9.30272 12.9876 9.21451 13.0115 9.03031C13.073 9.10609 13.1001 9.31801 13.0562 9.38563C12.9188 9.59719 12.8517 9.67825 12.8517 9.76543C12.8517 9.86527 12.9699 9.90985 13.0351 9.66703C13.0829 9.74983 13.0621 9.93151 13.0621 9.93151C13.0574 10.0526 12.8966 10.0646 12.8919 10.2307V10.5628H11.1227ZM11.5559 7.80164L11.532 7.61414H12.4823L12.4586 7.80164H11.5559ZM11.6195 7.61024L11.5991 7.45604H12.4152L12.3948 7.61024H11.6195ZM11.7491 7.45063L11.7354 7.29644H12.2789L12.2654 7.45063H11.7491ZM13.7303 14.0554C13.6086 14.0086 13.4316 13.8802 13.4316 13.7512V12.2934L13.5899 12.0919H10.4234L10.5752 12.2935V13.7513C10.5752 13.8803 10.4536 14.0087 10.332 14.0555L13.7303 14.0554Z" fill="white" stroke="black" stroke-width="0.096"/>
<path d="M10.9844 12.7402H11.1995V13.7299H10.9844V12.7402ZM12.8036 12.7402H13.0187V13.7299H12.8036V12.7402Z" fill="white" stroke="black" stroke-width="0.096" stroke-linejoin="bevel"/>
<path d="M10.3672 10.4337V12.093H13.6086V11.7356L13.6132 10.4336C13.4808 10.4857 13.4575 10.6058 13.4575 10.6058V11.3125H10.5325V10.6059C10.5325 10.6059 10.4998 10.4857 10.3672 10.4337Z" fill="white" stroke="black" stroke-width="0.096"/>
<path d="M13.1667 14.055C13.0607 14.0082 12.83 13.8798 12.83 13.7508V12.1194C12.8527 12.0284 12.9761 11.9746 13.0556 11.918H10.9063C11.0086 11.9721 11.1226 12.0171 11.1634 12.1196V13.751C11.1634 13.88 10.981 14.0084 10.875 14.0552L13.1667 14.055Z" fill="white" stroke="black" stroke-width="0.096"/>
<path d="M13.4587 11.9363V10.7611H13.1641V10.6465H10.8337V10.7611H10.5391V11.9363H13.4587ZM12.7057 14.0561C12.6019 14.0093 12.4507 13.8809 12.4507 13.7519V12.3591L12.536 12.2325H11.4746L11.5598 12.3591V13.752C11.5598 13.8811 11.4086 14.0094 11.3048 14.0562L12.7057 14.0561Z" fill="white" stroke="black" stroke-width="0.096"/>
<path d="M11.7344 12.2324H12.2723V14.055H11.7344V12.2324Z" fill="white" stroke="black" stroke-width="0.0981"/>
<path d="M12.5569 11.8312C12.5581 11.7112 12.9072 11.7058 13.0868 11.6035H10.9297C11.1093 11.7058 11.4502 11.7142 11.4502 11.8312L11.5232 12.0641L12.4162 12.1L12.5569 11.8312Z" fill="white" stroke="black" stroke-width="0.096" stroke-linejoin="bevel"/>
<path d="M12.9787 10.562C12.9787 10.268 12.991 10.1548 13.0813 10.1548V11.0896C12.8599 11.17 12.7018 11.4526 12.7018 11.4526H11.3092C11.3092 11.4526 11.1511 11.17 10.9297 11.0896V10.1548C11.041 10.1548 11.0417 10.2732 11.0417 10.562H12.9787ZM13.0813 10.4414C13.0813 10.1043 13.3723 10.0664 13.3723 10.0664V10.3664C13.2616 10.3616 13.2082 10.4611 13.2082 10.609C13.2082 10.757 13.2974 10.7594 13.2974 10.7594V11.6108H13.0814L13.0813 10.4414Z" fill="white" stroke="black" stroke-width="0.096"/>
<path d="M10.9277 10.4414C10.9277 10.1043 10.6367 10.0664 10.6367 10.0664V10.3664C10.7474 10.3616 10.8009 10.4611 10.8009 10.609C10.8009 10.757 10.7117 10.7594 10.7117 10.7594V11.6108H10.9277L10.9277 10.4414Z" fill="white" stroke="black" stroke-width="0.096"/>
<path d="M11.5054 8.11914H12.533M11.3836 8.44014H12.6388M11.2618 8.82954H12.756M11.1346 9.30534H12.9067M11.0938 9.84774H12.9193" stroke="black" stroke-width="0.08"/>
<path d="M10.5391 11.6172H13.4587M11.4655 11.6178H12.5476V12.0156H11.4655V11.6178Z" stroke="black" stroke-width="0.096"/>
<path d="M11.3281 10.7371C11.5075 10.9525 11.4909 11.3179 11.4889 11.5333H12.5294C12.5273 11.3179 12.5107 10.9525 12.6901 10.7371H11.3281ZM11.9131 8.26934L11.7706 8.1959V7.98608C11.8288 8.00348 11.8943 8.01068 11.9006 8.10356C11.9209 7.97096 11.9575 7.97744 12.0151 7.92578C12.0725 7.97738 12.1091 7.97096 12.1294 8.10356C12.1358 8.01068 12.2012 8.00354 12.2596 7.98596V8.19584L12.1169 8.26928L11.9131 8.26934Z" fill="white" stroke="black" stroke-width="0.096"/>
<path d="M11.9008 8.61374L11.6641 8.45096V8.25758C11.747 8.27678 11.8402 8.28458 11.8493 8.38658C11.8783 8.24114 11.9303 8.16602 12.0122 8.10938C12.0941 8.16602 12.1462 8.24114 12.1751 8.38658C12.1843 8.28458 12.2774 8.27678 12.3605 8.25758V8.45096L12.1237 8.61374H11.9008Z" fill="white" stroke="black" stroke-width="0.096"/>
<path d="M11.8876 9.15128L11.6153 8.91218V8.62802C11.7107 8.65622 11.8179 8.66774 11.8284 8.81738C11.8616 8.60378 11.9215 8.49338 12.0156 8.41016C12.1098 8.49338 12.1698 8.60372 12.203 8.81732C12.2135 8.66768 12.3206 8.65616 12.416 8.6279V8.912L12.1438 9.1511L11.8876 9.15128ZM12.3898 9.46868L12.1435 9.80924H11.8648L11.6185 9.46868H12.3898ZM11.4766 10.0405C11.5997 10.1078 11.6452 10.2419 11.6584 10.4937H12.3514C12.3646 10.2419 12.41 10.1079 12.5332 10.0405H11.4766Z" fill="white" stroke="black" stroke-width="0.096"/>
<path d="M12.5427 9.46885V9.12673C12.4257 9.15895 12.3499 9.22813 12.3161 9.32221C12.3161 9.20863 12.1667 8.94679 12.0037 8.81641C11.8403 8.96233 11.6883 9.19921 11.6913 9.32221C11.6636 9.23269 11.5818 9.15901 11.4648 9.12673V9.46885H12.5427Z" fill="white" stroke="black" stroke-width="0.096" stroke-linejoin="bevel"/>
<path d="M12.5957 10.0392V9.69704C12.4674 9.72926 12.3844 9.79844 12.3473 9.89252C12.3473 9.77894 12.1835 9.51704 12.0049 9.38672C11.8257 9.53264 11.6591 9.76952 11.6625 9.89252C11.632 9.803 11.5423 9.72932 11.4141 9.69704V10.0392H12.5957Z" fill="white" stroke="black" stroke-width="0.096" stroke-linejoin="bevel"/>
<path d="M12.7395 10.7424V10.3478C12.5799 10.389 12.4808 10.5069 12.4305 10.5758C12.4305 10.3622 12.1893 10.0364 12.0045 9.92969C11.8149 10.0392 11.5785 10.3758 11.5785 10.5758C11.5269 10.5074 11.4291 10.389 11.2695 10.3478V10.7424H12.7395Z" fill="white" stroke="black" stroke-width="0.096" stroke-linejoin="bevel"/>
<path d="M12.6527 11.618V11.2123C12.5119 11.2675 12.4698 11.4031 12.4255 11.4953C12.4429 11.0837 12.1938 10.6415 12.0041 10.5293C11.8143 10.6415 11.5605 11.0933 11.5826 11.4953C11.5371 11.4037 11.4962 11.2675 11.3555 11.2123V11.618H12.6527Z" fill="white" stroke="black" stroke-width="0.096" stroke-linejoin="bevel"/>
<path d="M12.5529 12.2309V11.8252C12.4054 11.8603 12.3963 11.9146 12.3493 12.0056C12.3667 11.7598 12.1927 11.4794 12.003 11.3672C11.8132 11.4794 11.6391 11.7598 11.6565 12.0056C11.6097 11.9147 11.6039 11.8604 11.4531 11.8252V12.2309H12.5529Z" fill="white" stroke="black" stroke-width="0.096"/>
<path d="M6.22943 13.7374V12.511C6.18923 12.3548 6.05663 12.2167 5.95703 12.189V11.1094L6.18143 11.2308L6.43775 12.3594V13.7374H6.22943Z" fill="white" stroke="black" stroke-width="0.096"/>
<path d="M6.22943 13.7409V12.5097C6.18923 12.3536 6.05663 12.2154 5.95703 12.1878V11.0332C6.10763 11.0332 6.18143 11.2296 6.18143 11.2296L6.43775 12.3582V13.7314L6.22943 13.7409Z" fill="white" stroke="black" stroke-width="0.096"/>
<path d="M6.07031 14.0553C6.17411 14.0085 6.32531 13.8801 6.32531 13.7511V12.2183L6.25409 12.0918H8.86547L8.76359 12.2183V13.7511C8.76359 13.8801 8.86739 14.0085 8.97119 14.0553H6.07031Z" fill="white" stroke="black" stroke-width="0.096"/>
<path d="M8.44463 14.0554C8.34083 14.0086 8.18963 13.8802 8.18963 13.7512V12.2934L8.40683 12.0918L6.63155 12.0919L6.84875 12.2934V13.7512C6.84875 13.8802 6.69755 14.0086 6.59375 14.0554H8.44463Z" fill="white" stroke="black" stroke-width="0.096"/>
<path d="M8.19332 14.0561C8.08952 14.0093 7.93832 13.8809 7.93832 13.7519V12.434L8.08052 12.2324H6.95264L7.09484 12.434V13.7519C7.09484 13.8809 6.94364 14.0093 6.83984 14.0561H8.19332Z" fill="white" stroke="black" stroke-width="0.096"/>
<path d="M7.25 12.2324H7.78892V14.056H7.25V12.2324Z" fill="white" stroke="black" stroke-width="0.096"/>
<path d="M6.51563 12.7409H6.73079V13.7306H6.51563V12.7409ZM8.36063 12.7409H8.57579V13.7306H8.36063V12.7409ZM6.33203 11.0717H6.59123V12.0863H6.33203V11.0717ZM6.33203 10.8809H6.58973V11.0693H6.33203V10.8809Z" fill="white" stroke="black" stroke-width="0.096" stroke-linejoin="bevel"/>
<path d="M8.46094 11.291H8.83054V12.0743H8.46094V11.291Z" fill="white" stroke="black" stroke-width="0.1034" stroke-linejoin="bevel"/>
<path d="M6.58565 12.0792V10.3428C6.65957 10.3428 6.67097 10.5972 6.84065 10.5972C6.92885 10.5972 6.91949 10.4918 6.86993 10.406C6.82601 10.3299 6.77171 10.2249 6.84551 10.0292C6.89615 10.1789 7.03229 10.2264 7.00715 10.1325C6.96395 9.97125 6.83945 9.94473 6.93275 9.69441C6.96527 9.90321 7.09919 9.89403 7.06667 9.77265C7.03007 9.63585 6.95429 9.57981 7.04771 9.38697C7.10009 9.60597 7.17083 9.59307 7.17083 9.45717C7.17083 9.25641 7.16315 9.03981 7.42301 8.95947C7.42301 8.95947 7.43801 8.77539 7.53173 8.77539C7.62545 8.77539 7.64051 8.95947 7.64051 8.95947C7.90031 9.03987 7.89263 9.25647 7.89263 9.45723C7.89263 9.59313 7.96343 9.60603 8.01575 9.38703C8.10923 9.57987 8.03345 9.63591 7.99685 9.77271C7.96421 9.89409 8.09825 9.90333 8.13065 9.69447C8.22401 9.94479 8.09957 9.97131 8.05625 10.1326C8.03117 10.2265 8.16725 10.179 8.21789 10.0293C8.29169 10.2249 8.23739 10.3299 8.19347 10.4061C8.14391 10.4919 8.13449 10.5973 8.22287 10.5973C8.39243 10.5973 8.40383 10.3429 8.47775 10.3429V12.0793L6.58565 12.0792ZM6.17969 10.7676V12.0924H6.33029V10.7642C6.27605 10.7368 6.22505 10.7326 6.17969 10.7676Z" fill="white" stroke="black" stroke-width="0.096"/>
<path d="M6.1875 11.6259C6.37422 11.7213 6.5592 11.8318 6.606 12.0934H6.1875V11.6259ZM8.77752 11.2292V12.0937H8.89962V11.2271C8.86152 11.2092 8.80944 11.2064 8.77752 11.2292Z" fill="white" stroke="black" stroke-width="0.096"/>
<path d="M8.89897 11.6191C8.71225 11.7145 8.52727 11.8251 8.48047 12.0867H8.89897V11.6191Z" fill="white" stroke="black" stroke-width="0.096"/>
<path d="M7.66183 9.59999L7.77067 9.50849V9.3913C7.73083 9.3952 7.70911 9.40889 7.67971 9.44747C7.65469 9.36977 7.59967 9.30916 7.52599 9.27148C7.45219 9.30916 7.39723 9.36707 7.37221 9.44471C7.34281 9.40613 7.32109 9.3952 7.28125 9.3913V9.50849L7.39015 9.59999H7.66183Z" fill="white" stroke="black" stroke-width="0.096"/>
<path d="M7.72009 9.8931L7.77067 9.78361V9.6312C7.73083 9.63522 7.70911 9.64909 7.67971 9.68821C7.65469 9.60943 7.59967 9.54793 7.52599 9.50977C7.45219 9.54799 7.39723 9.60672 7.37221 9.68544C7.34281 9.64644 7.32109 9.63529 7.28125 9.63133V9.78372L7.33189 9.89317L7.72009 9.8931Z" fill="white" stroke="black" stroke-width="0.096"/>
<path d="M7.7292 10.2902L7.8909 10.093V9.89838C7.83174 9.90498 7.79946 9.92856 7.75578 9.99474C7.71858 9.86142 7.63698 9.83226 7.52742 9.76758C7.41792 9.83226 7.3362 9.85668 7.29906 9.99C7.25538 9.92382 7.2231 9.90504 7.16406 9.89838V10.093L7.32564 10.2902H7.7292Z" fill="white" stroke="black" stroke-width="0.096"/>
<path d="M7.77599 10.6808C7.77599 10.6808 7.96438 10.5164 7.9756 10.4262V10.2181C7.90258 10.2267 7.83353 10.2456 7.77959 10.3311C7.73369 10.1589 7.66199 10.1109 7.52687 10.0273C7.39169 10.1109 7.32005 10.1589 7.27415 10.3311C7.22015 10.2456 7.15114 10.2267 7.07812 10.2181V10.426C7.10188 10.5163 7.27769 10.6807 7.27769 10.6807L7.77599 10.6808Z" fill="white" stroke="black" stroke-width="0.096"/>
<path d="M7.85651 11.4028C7.85651 11.4028 8.11451 11.1172 8.12051 11.0058V10.6814C8.02391 10.6948 7.93259 10.7612 7.86131 10.8944C7.80059 10.626 7.70591 10.4388 7.52711 10.3086C7.34831 10.4388 7.25351 10.626 7.19291 10.8945C7.12151 10.7612 7.03013 10.6947 6.93359 10.6814V11.0057C6.95207 11.117 7.19759 11.4027 7.19759 11.4027L7.85651 11.4028Z" fill="white" stroke="black" stroke-width="0.096"/>
<path d="M7.85651 11.8294C7.85651 11.8294 8.07707 11.6049 8.12051 11.5075V11.1831C8.02391 11.1965 7.93259 11.2629 7.86131 11.3961C7.80059 11.1277 7.70591 10.9739 7.52711 10.8438C7.34831 10.9739 7.25351 11.1277 7.19291 11.3962C7.12151 11.2628 7.03013 11.1964 6.93359 11.183V11.5074C6.98957 11.6048 7.19759 11.8294 7.19759 11.8294L7.85651 11.8294Z" fill="white" stroke="black" stroke-width="0.096"/>
<path d="M7.9455 12.0773C7.88112 11.7972 7.82574 11.5895 7.51572 11.3789C7.2057 11.5895 7.15032 11.7972 7.08594 12.0773H7.9455Z" fill="white" stroke="black" stroke-width="0.096"/>
<path d="M8.10521 12.2326V11.8269C7.96445 11.8821 7.83719 11.9636 7.79021 12.0545C7.73789 11.8293 7.63685 11.7301 7.51109 11.5938C7.38527 11.7301 7.30109 11.8293 7.24859 12.0545C7.20167 11.9636 7.07447 11.8821 6.93359 11.8269V12.2326H8.10521Z" fill="white" stroke="black" stroke-width="0.096"/>
<path d="M17.8018 13.7374V12.511C17.842 12.3548 17.9746 12.2167 18.0742 12.189V11.1094L17.8498 11.2308L17.5935 12.3594V13.7374H17.8018Z" fill="white" stroke="black" stroke-width="0.096"/>
<path d="M17.8018 13.7409V12.5097C17.842 12.3536 17.9746 12.2154 18.0742 12.1878V11.0332C17.9236 11.0332 17.8498 11.2296 17.8498 11.2296L17.5935 12.3582V13.7314L17.8018 13.7409Z" fill="white" stroke="black" stroke-width="0.096"/>
<path d="M17.9609 14.0553C17.8571 14.0085 17.7059 13.8801 17.7059 13.7511V12.2183L17.7772 12.0918H15.1658L15.2677 12.2183V13.7511C15.2677 13.8801 15.1639 14.0085 15.0601 14.0553H17.9609Z" fill="white" stroke="black" stroke-width="0.096"/>
<path d="M15.5866 14.0554C15.6904 14.0086 15.8416 13.8802 15.8416 13.7512V12.2934L15.6244 12.0918L17.3997 12.0919L17.1825 12.2934V13.7512C17.1825 13.8802 17.3337 14.0086 17.4375 14.0554H15.5866Z" fill="white" stroke="black" stroke-width="0.096"/>
<path d="M15.8379 14.0561C15.9417 14.0093 16.0929 13.8809 16.0929 13.7519V12.434L15.9507 12.2324H17.0786L16.9364 12.434V13.7519C16.9364 13.8809 17.0876 14.0093 17.1914 14.0561H15.8379Z" fill="white" stroke="black" stroke-width="0.096"/>
<path d="M16.7812 12.2324H16.2423V14.056H16.7812V12.2324Z" fill="white" stroke="black" stroke-width="0.096"/>
<path d="M17.5156 12.7409H17.3005V13.7306H17.5156V12.7409ZM15.6706 12.7409H15.4555V13.7306H15.6706V12.7409ZM17.6992 11.0717H17.44V12.0863H17.6992V11.0717ZM17.6992 10.8809H17.4415V11.0693H17.6992V10.8809Z" fill="white" stroke="black" stroke-width="0.096" stroke-linejoin="bevel"/>
<path d="M15.5703 11.291H15.2007V12.0743H15.5703V11.291Z" fill="white" stroke="black" stroke-width="0.1034" stroke-linejoin="bevel"/>
<path d="M17.4456 12.0792V10.3428C17.3717 10.3428 17.3603 10.5972 17.1906 10.5972C17.1024 10.5972 17.1118 10.4918 17.1613 10.406C17.2052 10.3299 17.2595 10.2249 17.1857 10.0292C17.1351 10.1789 16.999 10.2264 17.0241 10.1325C17.0673 9.97125 17.1918 9.94473 17.0985 9.69441C17.066 9.90321 16.9321 9.89403 16.9646 9.77265C17.0012 9.63585 17.077 9.57981 16.9835 9.38697C16.9312 9.60597 16.8604 9.59307 16.8604 9.45717C16.8604 9.25641 16.8681 9.03981 16.6082 8.95947C16.6082 8.95947 16.5932 8.77539 16.4995 8.77539C16.4058 8.77539 16.3907 8.95947 16.3907 8.95947C16.1309 9.03987 16.1386 9.25647 16.1386 9.45723C16.1386 9.59313 16.0678 9.60603 16.0155 9.38703C15.922 9.57987 15.9978 9.63591 16.0344 9.77271C16.067 9.89409 15.933 9.90333 15.9006 9.69447C15.8072 9.94479 15.9317 9.97131 15.975 10.1326C16.0001 10.2265 15.864 10.179 15.8134 10.0293C15.7396 10.2249 15.7939 10.3299 15.8378 10.4061C15.8873 10.4919 15.8968 10.5973 15.8084 10.5973C15.6388 10.5973 15.6274 10.3429 15.5535 10.3429V12.0793L17.4456 12.0792ZM17.8516 10.7676V12.0924H17.701V10.7642C17.7552 10.7368 17.8062 10.7326 17.8516 10.7676Z" fill="white" stroke="black" stroke-width="0.096"/>
<path d="M17.8477 11.6259C17.6609 11.7213 17.476 11.8318 17.4292 12.0934H17.8477V11.6259ZM15.2576 11.2292V12.0937H15.1355V11.2271C15.1736 11.2092 15.2257 11.2064 15.2576 11.2292Z" fill="white" stroke="black" stroke-width="0.096"/>
<path d="M15.1323 11.6191C15.319 11.7145 15.504 11.8251 15.5508 12.0867H15.1323V11.6191Z" fill="white" stroke="black" stroke-width="0.096"/>
<path d="M16.3694 9.59999L16.2606 9.50849V9.3913C16.3004 9.3952 16.3221 9.40889 16.3515 9.44747C16.3766 9.36977 16.4316 9.30916 16.5053 9.27148C16.5791 9.30916 16.634 9.36707 16.659 9.44471C16.6884 9.40613 16.7102 9.3952 16.75 9.3913V9.50849L16.6411 9.59999H16.3694Z" fill="white" stroke="black" stroke-width="0.096"/>
<path d="M16.3112 9.8931L16.2606 9.78361V9.6312C16.3004 9.63522 16.3221 9.64909 16.3515 9.68821C16.3766 9.60943 16.4316 9.54793 16.5053 9.50977C16.5791 9.54799 16.634 9.60672 16.659 9.68544C16.6884 9.64644 16.7102 9.63529 16.75 9.63133V9.78372L16.6994 9.89317L16.3112 9.8931Z" fill="white" stroke="black" stroke-width="0.096"/>
<path d="M16.302 10.2902L16.1403 10.093V9.89838C16.1995 9.90498 16.2318 9.92856 16.2755 9.99474C16.3127 9.86142 16.3943 9.83226 16.5038 9.76758C16.6133 9.83226 16.695 9.85668 16.7322 9.99C16.7759 9.92382 16.8081 9.90504 16.8672 9.89838V10.093L16.7056 10.2902H16.302Z" fill="white" stroke="black" stroke-width="0.096"/>
<path d="M16.2553 10.6808C16.2553 10.6808 16.0669 10.5164 16.0556 10.4262V10.2181C16.1287 10.2267 16.1977 10.2456 16.2517 10.3311C16.2976 10.1589 16.3693 10.1109 16.5044 10.0273C16.6396 10.1109 16.7112 10.1589 16.7571 10.3311C16.8111 10.2456 16.8801 10.2267 16.9531 10.2181V10.426C16.9294 10.5163 16.7536 10.6807 16.7536 10.6807L16.2553 10.6808Z" fill="white" stroke="black" stroke-width="0.096"/>
<path d="M16.1747 11.4028C16.1747 11.4028 15.9167 11.1172 15.9107 11.0058V10.6814C16.0073 10.6948 16.0987 10.7612 16.1699 10.8944C16.2307 10.626 16.3253 10.4388 16.5041 10.3086C16.6829 10.4388 16.7777 10.626 16.8383 10.8945C16.9097 10.7612 17.0011 10.6947 17.0977 10.6814V11.0057C17.0792 11.117 16.8337 11.4027 16.8337 11.4027L16.1747 11.4028Z" fill="white" stroke="black" stroke-width="0.096"/>
<path d="M16.1747 11.8294C16.1747 11.8294 15.9542 11.6049 15.9107 11.5075V11.1831C16.0073 11.1965 16.0987 11.2629 16.1699 11.3961C16.2307 11.1277 16.3253 10.9739 16.5041 10.8438C16.6829 10.9739 16.7777 11.1277 16.8383 11.3962C16.9097 11.2628 17.0011 11.1964 17.0977 11.183V11.5074C17.0417 11.6048 16.8337 11.8294 16.8337 11.8294L16.1747 11.8294Z" fill="white" stroke="black" stroke-width="0.096"/>
<path d="M16.0858 12.0773C16.1501 11.7972 16.2055 11.5895 16.5155 11.3789C16.8256 11.5895 16.8809 11.7972 16.9453 12.0773H16.0858Z" fill="white" stroke="black" stroke-width="0.096"/>
<path d="M15.926 12.2326V11.8269C16.0668 11.8821 16.1941 11.9636 16.241 12.0545C16.2934 11.8293 16.3944 11.7301 16.5202 11.5938C16.646 11.7301 16.7302 11.8293 16.7827 12.0545C16.8296 11.9636 16.9568 11.8821 17.0977 11.8269V12.2326H15.926Z" fill="white" stroke="black" stroke-width="0.096"/>
<path d="M5.65667 14.0391V14.4095H18.3701V14.0391L5.65667 14.0391ZM5.4265 14.4129V14.8959H18.6001V14.4129H5.4265ZM18.6001 14.8959L5.4265 14.8995L5.04142 14.8959V15.5332H18.9853V14.896L18.6001 14.8959ZM4.65353 15.5373L4.65365 16.2879H19.3734L19.3733 15.5373H4.65353ZM19.3734 16.2879V16.2891H4.65365V16.2879H4.26562V17.0385H19.7612V16.2879H19.3734Z" fill="white"/>
<path d="M18.6001 14.8959H5.4265V14.4129H18.6001V14.8959ZM18.6001 14.8959L5.4265 14.8995L5.04142 14.8959V15.5332H18.9853V14.896L18.6001 14.8959ZM4.65365 16.2879L4.65353 15.5373H19.3733L19.3734 16.2879M4.65365 16.2879H19.3734M4.65365 16.2879V16.2891H19.3734V16.2879M4.65365 16.2879H4.26562V17.0385H19.7612V16.2879H19.3734M5.65667 14.0391V14.4095H18.3701V14.0391L5.65667 14.0391Z" stroke="black" stroke-width="0.096"/>
<path d="M7.03516 14.041H7.99546V17.0371H7.03516V14.041Z" fill="white" stroke="black" stroke-width="0.1045"/>
<path d="M7.25 14.041H7.78502V17.0372H7.25V14.041Z" fill="white" stroke="black" stroke-width="0.1043"/>
<path d="M11.5156 14.041H12.476V17.0371H11.5156V14.041Z" fill="white" stroke="black" stroke-width="0.1045"/>
<path d="M11.7344 14.041H12.2694V17.0372H11.7344V14.041Z" fill="white" stroke="black" stroke-width="0.1043"/>
<path d="M16.0234 14.041H16.9837V17.0371H16.0234V14.041Z" fill="white" stroke="black" stroke-width="0.1045"/>
<path d="M16.2344 14.041H16.7694V17.0372H16.2344V14.041Z" fill="white" stroke="black" stroke-width="0.1043"/>
<path d="M6.22656 13.7363H17.8108M7.23786 16.6607H7.7925M7.23786 16.2857H7.7925M7.23786 15.9107H7.7925M7.23786 15.5357H7.7925M7.23786 15.1607H7.7925M7.23786 14.7857H7.7925M7.23786 14.4107H7.7925M11.7367 16.6613H12.2531M11.7367 16.2861H12.2531M11.7367 15.9109H12.2531M11.7367 15.5357H12.2531M11.7367 15.1605H12.2531M11.7367 14.7854H12.2531M11.7367 14.4101H12.2531M16.2247 16.6607H16.7793M16.2247 16.2857H16.7793M16.2247 15.9107H16.7793M16.2247 15.5357H16.7793M16.2247 15.1607H16.7793M16.2247 14.7857H16.7793M16.2247 14.4107H16.7793" stroke="black" stroke-width="0.096"/>
</g>
<defs>
<clipPath id="clip0_358_4014">
<rect width="24" height="24" rx="12" fill="white"/>
</clipPath>
</defs>
</svg>
