<svg width="24" height="24" viewBox="0 0 24 24" fill="none" xmlns="http://www.w3.org/2000/svg">
<g clip-path="url(#clip0_358_13551)">
<path d="M30.3346 0H-6.33203V13.2H30.3346V0Z" fill="#C81010"/>
<path d="M12.0939 2.82283C10.9263 2.34 10.2115 2.25126 9.41289 2.24331C8.25629 2.25126 7.70431 2.74817 6.60156 2.79407C7.0385 3.26466 8.62224 3.37971 9.28988 2.76164C10.2825 2.86506 10.5077 3.13309 10.7739 3.46661C10.3596 3.40113 9.88226 3.2818 9.48632 3.71996C9.1522 3.78727 8.99737 3.71996 8.4258 3.71996C8.15899 3.71996 8.06658 3.85092 8.07026 4.08713C8.24283 3.84847 9.43553 3.98922 9.72804 4.08713C9.95263 4.1624 10.1913 4.47389 10.4759 4.52468C11.2218 4.65747 12.2921 4.26766 13.2792 4.00207L15.4137 3.71996H13.9493L15.7809 3.35278C14.9284 3.35278 14.3667 3.35278 13.7896 3.35278C13.7474 3.30444 13.6464 3.24202 13.5656 3.18878C14.0778 2.85894 14.5307 2.25922 14.6463 1.96976C15.5698 1.96058 16.1658 1.87491 16.8824 1.70724C12.1593 1.18462 13.2346 1.74824 12.0939 2.82283Z" fill="#F8D000" stroke="black" stroke-width="0.0469166" stroke-miterlimit="22.9256"/>
<path d="M9.9082 3.5918C9.95899 3.5918 9.99999 3.6328 9.99999 3.68359C9.99999 3.73438 9.95899 3.77538 9.9082 3.77538C9.85802 3.77538 9.81641 3.73438 9.81641 3.68359C9.81641 3.6328 9.85802 3.5918 9.9082 3.5918Z" fill="black"/>
<path d="M9.9082 3.5918C9.95899 3.5918 9.99999 3.6328 9.99999 3.68359C9.99999 3.73438 9.95899 3.77538 9.9082 3.77538C9.85802 3.77538 9.81641 3.73438 9.81641 3.68359C9.81641 3.6328 9.85802 3.5918 9.9082 3.5918Z" stroke="black" stroke-width="0.0152989" stroke-miterlimit="22.9256"/>
<path d="M11.1383 3.49219C11.1383 3.49219 10.7546 3.71922 10.5 3.71922" stroke="black" stroke-width="0.0469166" stroke-miterlimit="22.9256"/>
<path d="M13.2773 4.00281C13.2773 4.00281 13.628 3.7207 13.9474 3.7207" stroke="black" stroke-width="0.0469166" stroke-miterlimit="22.9256"/>
<path d="M7.69141 2.65589C7.69141 2.65589 7.97658 2.50657 8.11121 2.4668" stroke="black" stroke-width="0.0469166" stroke-miterlimit="22.9256"/>
<path d="M8.875 2.44164C8.875 2.44164 9.32724 2.24642 9.83087 2.25622" stroke="black" stroke-width="0.0469166" stroke-miterlimit="22.9256"/>
<path d="M10.0977 2.48963C10.0977 2.48963 10.6906 2.38988 11.2383 2.51166" stroke="black" stroke-width="0.0469166" stroke-miterlimit="22.9256"/>
<path d="M10.7773 2.63271C10.7773 2.63271 11.2694 2.5501 11.7412 2.6835" stroke="black" stroke-width="0.0469166" stroke-miterlimit="22.9256"/>
<path d="M11.2852 2.7832C11.2852 2.7832 11.7863 2.78993 12.0354 2.88662" stroke="black" stroke-width="0.0469166" stroke-miterlimit="22.9256"/>
<path d="M6.60156 2.79355C6.60156 2.79355 7.3047 2.98571 7.87627 2.71094" stroke="black" stroke-width="0.0469166" stroke-miterlimit="22.9256"/>
<path d="M6.69141 2.87636C6.69141 2.87636 7.60444 3.10156 8.0218 2.68359" stroke="black" stroke-width="0.0469166" stroke-miterlimit="22.9256"/>
<path d="M6.99609 3.03559C6.99609 3.03559 7.68393 3.25711 8.2249 2.68555" stroke="black" stroke-width="0.0469166" stroke-miterlimit="22.9256"/>
<path d="M7.63672 3.17401C7.63672 3.17401 8.19237 3.0149 8.40289 2.6875" stroke="black" stroke-width="0.0469166" stroke-miterlimit="22.9256"/>
<path d="M8.07031 3.18365C8.07031 3.18365 8.44299 2.92541 8.57701 2.69531" stroke="black" stroke-width="0.0469166" stroke-miterlimit="22.9256"/>
<path d="M12.8711 2.89258C12.8711 2.89258 13.0167 3.07555 13.5651 3.18938" stroke="black" stroke-width="0.0469166" stroke-miterlimit="22.9256"/>
<path d="M12.9688 2.80469C12.9688 2.80469 13.2044 3.04029 13.6951 3.09781" stroke="black" stroke-width="0.0469166" stroke-miterlimit="22.9256"/>
<path d="M13.0859 2.69531C13.0859 2.69531 13.3252 2.90093 13.846 2.97742" stroke="black" stroke-width="0.0469166" stroke-miterlimit="22.9256"/>
<path d="M13.2031 2.57617C13.2031 2.57617 13.5691 2.82034 13.9858 2.84849" stroke="black" stroke-width="0.0469166" stroke-miterlimit="22.9256"/>
<path d="M13.3477 2.42188C13.3477 2.42188 13.6041 2.66115 14.1126 2.72051" stroke="black" stroke-width="0.0469166" stroke-miterlimit="22.9256"/>
<path d="M13.457 2.29883C13.457 2.29883 13.7575 2.55707 14.2299 2.59257" stroke="black" stroke-width="0.0469166" stroke-miterlimit="22.9256"/>
<path d="M13.5625 2.17188C13.5625 2.17188 13.7467 2.38484 14.3544 2.44052" stroke="black" stroke-width="0.0469166" stroke-miterlimit="22.9256"/>
<path d="M13.6719 2.03125C13.6719 2.03125 13.8769 2.25645 14.454 2.30541" stroke="black" stroke-width="0.0469166" stroke-miterlimit="22.9256"/>
<path d="M13.7539 1.91797C13.7539 1.91797 14.115 2.19029 14.5329 2.18478" stroke="black" stroke-width="0.0469166" stroke-miterlimit="22.9256"/>
<path d="M13.8281 1.81445C13.8281 1.81445 14.3055 2.10085 14.59 2.09167" stroke="black" stroke-width="0.0469166" stroke-miterlimit="22.9256"/>
<path d="M13.9141 1.68164C13.9141 1.68164 14.2935 1.91786 14.6472 1.96987" stroke="black" stroke-width="0.0469166" stroke-miterlimit="22.9256"/>
<path d="M12.2812 3.00781C12.2812 3.00781 12.4342 3.12347 12.5774 3.11858" stroke="black" stroke-width="0.0469166" stroke-miterlimit="22.9256"/>
<path d="M12.3711 2.92383C12.3711 2.92383 12.5039 3.03704 12.6863 3.03643" stroke="black" stroke-width="0.0469166" stroke-miterlimit="22.9256"/>
<path d="M12.4805 2.81836C12.4805 2.81836 12.631 2.95911 12.8115 2.93341" stroke="black" stroke-width="0.0469166" stroke-miterlimit="22.9256"/>
<path d="M12.5781 2.7168C12.5781 2.7168 12.758 2.83919 12.919 2.83552" stroke="black" stroke-width="0.0469166" stroke-miterlimit="22.9256"/>
<path d="M12.6914 2.60156C12.6914 2.60156 12.8248 2.71722 13.0359 2.72824" stroke="black" stroke-width="0.0469166" stroke-miterlimit="22.9256"/>
<path d="M12.793 2.47266C12.793 2.47266 12.9496 2.61157 13.1491 2.61647" stroke="black" stroke-width="0.0469166" stroke-miterlimit="22.9256"/>
<path d="M12.8984 2.38086C12.8984 2.38086 13.0502 2.47816 13.265 2.49652" stroke="black" stroke-width="0.0469166" stroke-miterlimit="22.9256"/>
<path d="M12.9961 2.27344C12.9961 2.27344 13.2011 2.34565 13.389 2.3634" stroke="black" stroke-width="0.0469166" stroke-miterlimit="22.9256"/>
<path d="M13.1055 2.14258C13.1055 2.14258 13.2468 2.24172 13.4977 2.2356" stroke="black" stroke-width="0.0469166" stroke-miterlimit="22.9256"/>
<path d="M13.2031 2.01367C13.2031 2.01367 13.3708 2.12505 13.5862 2.1275" stroke="black" stroke-width="0.0469166" stroke-miterlimit="22.9256"/>
<path d="M13.2773 1.88867C13.2773 1.88867 13.5025 2.01473 13.6965 1.98658" stroke="black" stroke-width="0.0469166" stroke-miterlimit="22.9256"/>
<path d="M13.3594 1.74023C13.3594 1.74023 13.502 1.89628 13.7675 1.89078" stroke="black" stroke-width="0.0469166" stroke-miterlimit="22.9256"/>
<path d="M13.418 1.67188C13.418 1.67188 13.6738 1.81568 13.8469 1.77897" stroke="black" stroke-width="0.0469166" stroke-miterlimit="22.9256"/>
<path d="M13.5273 1.5918C13.5273 1.5918 13.7213 1.7099 13.8988 1.70501" stroke="black" stroke-width="0.0469166" stroke-miterlimit="22.9256"/>
<path d="M13.7227 1.53227C13.7227 1.53227 14.0684 1.70851 14.5359 1.51758" stroke="black" stroke-width="0.0469166" stroke-miterlimit="22.9256"/>
<path d="M14.0195 1.65705C14.0195 1.65705 14.7184 1.81739 15.0213 1.53711" stroke="black" stroke-width="0.0469166" stroke-miterlimit="22.9256"/>
<path d="M14.5664 1.69807C14.5664 1.69807 15.0468 1.74825 15.5841 1.57812" stroke="black" stroke-width="0.0469166" stroke-miterlimit="22.9256"/>
<path d="M14.8867 1.70117C14.8867 1.70117 15.6162 1.84804 16.8835 1.70668" stroke="black" stroke-width="0.0469166" stroke-miterlimit="22.9256"/>
<path d="M8.26953 3.1671C8.26953 3.1671 8.5957 2.95231 8.73095 2.70508" stroke="black" stroke-width="0.0469166" stroke-miterlimit="22.9256"/>
<path d="M8.51172 3.1273C8.51172 3.1273 8.77425 2.87273 8.85074 2.71484" stroke="black" stroke-width="0.0469166" stroke-miterlimit="22.9256"/>
<path d="M8.75391 3.06227C8.75391 3.06227 8.96993 2.86828 9.01766 2.73242" stroke="black" stroke-width="0.0469166" stroke-miterlimit="22.9256"/>
<path d="M7.69922 2.72076C7.69922 2.72076 8.16798 2.61856 9.28908 2.76237" stroke="black" stroke-width="0.0469166" stroke-miterlimit="22.9256"/>
<path d="M8.13281 2.53166C8.13281 2.53166 8.52569 2.34134 8.87573 2.2832" stroke="black" stroke-width="0.0469166" stroke-miterlimit="22.9256"/>
<path d="M8.52344 2.45451C8.52344 2.45451 8.81044 2.31927 9.23392 2.25195" stroke="black" stroke-width="0.0469166" stroke-miterlimit="22.9256"/>
<path d="M9.17578 2.42809C9.17578 2.42809 9.57294 2.25858 10.0588 2.27449" stroke="black" stroke-width="0.0469166" stroke-miterlimit="22.9256"/>
<path d="M9.67969 2.43159C9.67969 2.43159 10.2243 2.30981 10.7261 2.37835" stroke="black" stroke-width="0.0469166" stroke-miterlimit="22.9256"/>
<path d="M11.1367 2.69643C11.1367 2.69643 11.5522 2.67745 12.0302 2.79617" stroke="black" stroke-width="0.0469166" stroke-miterlimit="22.9256"/>
<path d="M10.4258 2.53012C10.4258 2.53012 11.0212 2.4983 11.4294 2.57357" stroke="black" stroke-width="0.0469166" stroke-miterlimit="22.9256"/>
<path d="M14.1094 1.67383C14.1094 1.67383 14.315 1.85191 14.8878 1.96512" stroke="black" stroke-width="0.0469166" stroke-miterlimit="22.9256"/>
<path d="M14.4297 1.70312C14.4297 1.70312 14.7516 1.8861 15.2595 1.94974" stroke="black" stroke-width="0.0469166" stroke-miterlimit="22.9256"/>
<path d="M14.7695 1.70508C14.7695 1.70508 15.2212 1.90152 15.6985 1.91376" stroke="black" stroke-width="0.0469166" stroke-miterlimit="22.9256"/>
<path d="M15.2695 1.74805C15.2695 1.74805 15.7297 1.85881 16.3001 1.82883" stroke="black" stroke-width="0.0469166" stroke-miterlimit="22.9256"/>
<path d="M9.44141 2.42144C9.44141 2.42144 9.7535 2.29293 10.3067 2.30333" stroke="black" stroke-width="0.0469166" stroke-miterlimit="22.9256"/>
<path d="M11.5 2.88863C11.5 2.88863 11.6873 2.86598 11.9198 2.97675" stroke="black" stroke-width="0.0469166" stroke-miterlimit="22.9256"/>
<path d="M10.7734 3.46604C10.9026 3.48624 11.0256 3.50154 11.1376 3.49236C11.5757 3.25308 11.875 3.02849 12.0934 2.82227" stroke="black" stroke-width="0.0469166" stroke-miterlimit="22.9256"/>
<path d="M8.33396 11.7994C7.83034 11.7309 7.34692 11.5566 6.91552 11.2878C6.48411 11.0191 6.1145 10.6621 5.831 10.2402C6.27272 10.4917 6.76267 10.6467 7.26862 10.6951C7.77456 10.7435 8.28502 10.6843 8.76642 10.5213" fill="#F8D000"/>
<path d="M8.33396 11.7994C7.83034 11.7309 7.34692 11.5566 6.91552 11.2878C6.48411 11.0191 6.1145 10.6621 5.831 10.2402C6.27272 10.4917 6.76267 10.6467 7.26862 10.6951C7.77456 10.7435 8.28502 10.6843 8.76642 10.5213" stroke="black" stroke-width="0.0552" stroke-miterlimit="22.9256"/>
<path d="M8.31175 12.6559L5.30053 11.6993L8.43625 11.3124" fill="#F8D000"/>
<path d="M8.31175 12.6559L5.30053 11.6993L8.43625 11.3124" stroke="black" stroke-width="0.0552" stroke-miterlimit="22.9256"/>
<path d="M8.76466 10.5225C8.31979 10.2767 7.93202 9.93946 7.62684 9.53301C7.32167 9.12657 7.10602 8.66012 6.99408 8.16434C7.31513 8.55836 7.71598 8.87993 8.17025 9.10789C8.62451 9.33585 9.1219 9.46504 9.62968 9.48696" fill="#F8D000"/>
<path d="M8.76466 10.5225C8.31979 10.2767 7.93202 9.93946 7.62684 9.53301C7.32167 9.12657 7.10602 8.66012 6.99408 8.16434C7.31513 8.55836 7.71598 8.87993 8.17025 9.10789C8.62451 9.33585 9.1219 9.46504 9.62968 9.48696" stroke="black" stroke-width="0.0552" stroke-miterlimit="22.9256"/>
<path d="M8.43484 11.3135L5.97262 9.33361L9.03634 10.1057" fill="#F8D000"/>
<path d="M8.43484 11.3135L5.97262 9.33361L9.03634 10.1057" stroke="black" stroke-width="0.0552" stroke-miterlimit="22.9256"/>
<path d="M9.62684 9.4859C9.30077 9.09603 9.06094 8.64153 8.92315 8.15231C8.78535 7.66309 8.75271 7.15024 8.82736 6.6475C8.98446 7.13087 9.24212 7.57549 9.58341 7.95212C9.92469 8.32875 10.3419 8.62885 10.8075 8.83266" fill="#F8D000"/>
<path d="M9.62684 9.4859C9.30077 9.09603 9.06094 8.64153 8.92315 8.15231C8.78535 7.66309 8.75271 7.15024 8.82736 6.6475C8.98446 7.13087 9.24212 7.57549 9.58341 7.95212C9.92469 8.32875 10.3419 8.62885 10.8075 8.83266" stroke="black" stroke-width="0.0552" stroke-miterlimit="22.9256"/>
<path d="M9.03661 10.1052L7.45557 7.36969L10.0337 9.19611" fill="#F8D000"/>
<path d="M9.03661 10.1052L7.45557 7.36969L10.0337 9.19611" stroke="black" stroke-width="0.0552" stroke-miterlimit="22.9256"/>
<path d="M10.8088 8.83147C10.6456 8.35012 10.5862 7.83968 10.6345 7.33372C10.6828 6.82776 10.8376 6.33775 11.0889 5.89594C11.0607 6.40342 11.1403 6.91111 11.3225 7.3856C11.5046 7.86009 11.7852 8.29064 12.1457 8.64891" fill="#F8D000"/>
<path d="M10.8088 8.83147C10.6456 8.35012 10.5862 7.83968 10.6345 7.33372C10.6828 6.82776 10.8376 6.33775 11.0889 5.89594C11.0607 6.40342 11.1403 6.91111 11.3225 7.3856C11.5046 7.86009 11.7852 8.29064 12.1457 8.64891" stroke="black" stroke-width="0.0552" stroke-miterlimit="22.9256"/>
<path d="M10.033 9.19462L9.54705 6.0727L11.2911 8.70722" fill="#F8D000"/>
<path d="M10.033 9.19462L9.54705 6.0727L11.2911 8.70722" stroke="black" stroke-width="0.0552" stroke-miterlimit="22.9256"/>
<path d="M12.1483 8.64944C12.1701 8.14165 12.2991 7.64422 12.5269 7.18987C12.7547 6.73553 13.0761 6.33458 13.47 6.01339C13.2604 6.47641 13.1512 6.97857 13.1497 7.48682C13.1481 7.99508 13.2541 8.4979 13.4608 8.96222" fill="#F8D000"/>
<path d="M12.1483 8.64944C12.1701 8.14165 12.2991 7.64422 12.5269 7.18987C12.7547 6.73553 13.0761 6.33458 13.47 6.01339C13.2604 6.47641 13.1512 6.97857 13.1497 7.48682C13.1481 7.99508 13.2541 8.4979 13.4608 8.96222" stroke="black" stroke-width="0.0552" stroke-miterlimit="22.9256"/>
<path d="M11.2928 8.70773L11.9676 5.62114L12.642 8.70783" fill="#F8D000"/>
<path d="M11.2928 8.70773L11.9676 5.62114L12.642 8.70783" stroke="black" stroke-width="0.0552" stroke-miterlimit="22.9256"/>
<path d="M13.4601 8.96338C13.6638 8.49771 13.9638 8.08044 14.3403 7.73903C14.7168 7.39762 15.1613 7.1398 15.6446 6.98255C15.282 7.33862 14.9988 7.76746 14.8138 8.24084C14.6287 8.71422 14.546 9.22142 14.5711 9.72905" fill="#F8D000"/>
<path d="M13.4601 8.96338C13.6638 8.49771 13.9638 8.08044 14.3403 7.73903C14.7168 7.39762 15.1613 7.1398 15.6446 6.98255C15.282 7.33862 14.9988 7.76746 14.8138 8.24084C14.6287 8.71422 14.546 9.22142 14.5711 9.72905" stroke="black" stroke-width="0.0552" stroke-miterlimit="22.9256"/>
<path d="M12.6429 8.70833L14.3869 6.07376L13.9011 9.19569" fill="#F8D000"/>
<path d="M12.6429 8.70833L14.3869 6.07376L13.9011 9.19569" stroke="black" stroke-width="0.0552" stroke-miterlimit="22.9256"/>
<path d="M14.5741 9.72824C14.9322 9.36761 15.3627 9.0869 15.8371 8.90459C16.3116 8.72227 16.8192 8.64248 17.3267 8.67047C16.8599 8.87146 16.4409 9.16902 16.0973 9.54358C15.7538 9.91813 15.4934 10.3612 15.3334 10.8436" fill="#F8D000"/>
<path d="M14.5741 9.72824C14.9322 9.36761 15.3627 9.0869 15.8371 8.90459C16.3116 8.72227 16.8192 8.64248 17.3267 8.67047C16.8599 8.87146 16.4409 9.16902 16.0973 9.54357C15.7538 9.91813 15.4934 10.3612 15.3334 10.8436" stroke="black" stroke-width="0.0552" stroke-miterlimit="22.9256"/>
<path d="M13.901 9.19508L16.479 7.36857L14.8981 10.1041" fill="#F8D000"/>
<path d="M13.901 9.19508L16.479 7.36857L14.8981 10.1041" stroke="black" stroke-width="0.0552" stroke-miterlimit="22.9256"/>
<path d="M15.3279 10.8437C15.7921 10.6368 16.2949 10.5306 16.8032 10.532C17.3114 10.5334 17.8136 10.6425 18.2767 10.8519C17.7688 10.8707 17.2706 10.9967 16.8149 11.2219C16.3593 11.447 15.9564 11.766 15.6329 12.1581" fill="#F8D000"/>
<path d="M15.3279 10.8437C15.7921 10.6368 16.2949 10.5306 16.8032 10.532C17.3114 10.5334 17.8136 10.6425 18.2767 10.8519C17.7688 10.8707 17.2706 10.9967 16.8149 11.2219C16.3593 11.447 15.9564 11.766 15.6329 12.1581" stroke="black" stroke-width="0.0552" stroke-miterlimit="22.9256"/>
<path d="M14.897 10.1041L17.9608 9.33245L15.4983 11.312" fill="#F8D000"/>
<path d="M14.897 10.1041L17.9608 9.33245L15.4983 11.312" stroke="black" stroke-width="0.0552" stroke-miterlimit="22.9256"/>
<path d="M15.6371 12.1583C16.1447 12.133 16.6519 12.2156 17.1254 12.4004C17.5988 12.5853 18.0277 12.8683 18.3839 13.2309C17.9035 13.0649 17.3934 13.0026 16.8872 13.048C16.381 13.0933 15.8901 13.2454 15.4469 13.4941" fill="#F8D000"/>
<path d="M15.6371 12.1583C16.1447 12.133 16.6519 12.2156 17.1254 12.4004C17.5988 12.5853 18.0277 12.8683 18.3839 13.2309C17.9035 13.0649 17.3934 13.0026 16.8872 13.048C16.381 13.0933 15.8901 13.2454 15.4469 13.4941" stroke="black" stroke-width="0.0552" stroke-miterlimit="22.9256"/>
<path d="M15.5008 11.3122L18.6365 11.6991L15.6253 12.6558" fill="#F8D000"/>
<path d="M15.5008 11.3122L18.6365 11.6991L15.6253 12.6558" stroke="black" stroke-width="0.0552" stroke-miterlimit="22.9256"/>
<path d="M11.9689 15.9885C13.9969 15.9885 15.6409 14.3445 15.6409 12.3165C15.6409 10.2885 13.9969 8.64453 11.9689 8.64453C9.94089 8.64453 8.29688 10.2885 8.29688 12.3165C8.29688 14.3445 9.94089 15.9885 11.9689 15.9885Z" fill="#F8D000" stroke="black" stroke-width="0.0552" stroke-miterlimit="22.9256"/>
<path d="M30.588 13.1992H-6.58594V24.5992H30.588V13.1992Z" fill="#183070"/>
<path d="M-4.50391 13.2359C-3.51869 12.6505 -2.53348 12.6505 -1.54826 13.2359C-0.563051 13.8213 0.422163 13.8213 1.40738 13.2359C2.39259 12.6505 3.3778 12.6505 4.36302 13.2359C5.34823 13.8213 6.33345 13.8213 7.31866 13.2359C8.30387 12.6505 9.33835 12.6505 10.4221 13.2359C11.5058 13.8213 12.5896 13.8213 13.6733 13.2359C14.757 12.6505 15.7915 12.6505 16.7767 13.2359C17.7619 13.8213 18.7471 13.8213 19.7324 13.2359C20.7176 12.6505 21.7028 12.6505 22.688 13.2359C23.6732 13.8213 24.6584 13.8213 25.6436 13.2359C26.6289 12.6505 27.6141 12.6505 28.5993 13.2359" stroke="white" stroke-width="2.40151"/>
<path d="M-4.53906 16.6929C-3.55224 16.1076 -2.56541 16.1076 -1.57858 16.6929C-0.591756 17.2781 0.395071 17.2781 1.3819 16.6929C2.36872 16.1076 3.35555 16.1076 4.34238 16.6929C5.3292 17.2781 6.31603 17.2781 7.30286 16.6929C8.28968 16.1076 9.32585 16.1076 10.4114 16.6929C11.4969 17.2781 12.5824 17.2781 13.6679 16.6929C14.7534 16.1076 15.7896 16.1076 16.7764 16.6929C17.7632 17.2781 18.75 17.2781 19.7369 16.6929C20.7237 16.1076 21.7105 16.1076 22.6974 16.6929C23.6842 17.2781 24.671 17.2781 25.6578 16.6929C26.6447 16.1076 27.6315 16.1076 28.6183 16.6929" stroke="white" stroke-width="2.40324"/>
<path d="M-4.53906 20.148C-3.55344 19.5626 -2.56782 19.5626 -1.5822 20.148C-0.596583 20.7334 0.389037 20.7334 1.37466 20.148C2.36028 19.5626 3.3459 19.5626 4.33152 20.148C5.31714 20.7334 6.30276 20.7334 7.28838 20.148C8.274 19.5626 9.3089 19.5626 10.3931 20.148C11.4773 20.7334 12.5614 20.7334 13.6456 20.148C14.7298 19.5626 15.7647 19.5626 16.7503 20.148C17.7359 20.7334 18.7216 20.7334 19.7072 20.148C20.6928 19.5626 21.6784 19.5626 22.664 20.148C23.6497 20.7334 24.6353 20.7334 25.6209 20.148C26.6065 19.5626 27.5921 19.5626 28.5778 20.148" stroke="white" stroke-width="2.40206"/>
</g>
<defs>
<clipPath id="clip0_358_13551">
<rect width="24" height="24" rx="12" fill="white"/>
</clipPath>
</defs>
</svg>
