<svg width="24" height="24" viewBox="0 0 24 24" fill="none" xmlns="http://www.w3.org/2000/svg">
<g clip-path="url(#clip0_358_14766)">
<path d="M0 0H36.0129V24H0V0Z" fill="white"/>
<path d="M0 0H36.0129V6H0V0Z" fill="#FFD100"/>
<path d="M0 12H36.0129V24H0V12Z" fill="#EF3340"/>
<path d="M0 18H36.0129V24H0V18Z" fill="#003DA5"/>
<path d="M20 12L0 24V0L20 12Z" fill="#009639"/>
<path d="M8.34474 6.53998C7.00937 6.70055 5.77913 7.34486 4.88665 8.35108C3.99417 9.3573 3.50134 10.6557 3.50134 12.0007C3.50134 13.3456 3.99417 14.644 4.88665 15.6502C5.77913 16.6564 7.00937 17.3007 8.34474 17.4613C7.50315 17.6947 6.61901 17.7303 5.76136 17.5655C4.90371 17.4007 4.09576 17.0399 3.40059 16.5112C2.70542 15.9826 2.14186 15.3004 1.75389 14.518C1.36593 13.7355 1.16406 12.874 1.16406 12.0007C1.16406 11.1273 1.36593 10.2658 1.75389 9.48335C2.14186 8.70091 2.70542 8.01873 3.40059 7.49008C4.09576 6.96143 4.90371 6.60061 5.76136 6.4358C6.61901 6.27099 7.50315 6.30665 8.34474 6.53998Z" fill="white"/>
<path d="M8.34762 7.16602L9.03362 9.27668L7.23828 7.97202H9.45761L7.66228 9.27668L8.34762 7.16602Z" fill="white"/>
<path d="M8.34762 9.66602L9.03362 11.7767L7.23828 10.472H9.45761L7.66228 11.7767L8.34762 9.66602Z" fill="white"/>
<path d="M8.34762 12.166L9.03362 14.2767L7.23828 12.972H9.45761L7.66228 14.2767L8.34762 12.166Z" fill="white"/>
<path d="M8.34762 14.666L9.03362 16.7767L7.23828 15.472H9.45761L7.66228 16.7767L8.34762 14.666Z" fill="white"/>
</g>
<defs>
<clipPath id="clip0_358_14766">
<rect width="24" height="24" rx="12" fill="white"/>
</clipPath>
</defs>
</svg>
