<svg width="24" height="24" viewBox="0 0 24 24" fill="none" xmlns="http://www.w3.org/2000/svg">
<g clip-path="url(#clip0_358_4105)">
<path d="M37.8 0H0V25.1978H37.8V0Z" fill="#024FA2"/>
<path d="M37.8 4.19922H0V20.9977H37.8V4.19922Z" fill="white"/>
<path d="M37.8 4.90039H0V20.299H37.8V4.90039Z" fill="#ED1C27"/>
<path d="M11.9589 18.1658C15.0514 18.1658 17.5584 15.6588 17.5584 12.5663C17.5584 9.47378 15.0514 6.9668 11.9589 6.9668C8.86636 6.9668 6.35938 9.47378 6.35938 12.5663C6.35938 15.6588 8.86636 18.1658 11.9589 18.1658Z" fill="white"/>
<path d="M11.9531 7.14258L10.2769 12.3016L12.8564 13.1397L11.9531 7.14258Z" fill="#ED1C27"/>
<path d="M11.9531 7.14258L13.6294 12.3016L11.0499 13.1397L11.9531 7.14258Z" fill="#ED1C27"/>
<path d="M17.1172 10.8906H11.6927V13.6029L17.1172 10.8906Z" fill="#ED1C27"/>
<path d="M17.1172 10.8906L12.7287 14.0791L11.1344 11.8848L17.1172 10.8906Z" fill="#ED1C27"/>
<path d="M6.79688 10.8906L11.1854 14.0791L12.7796 11.8848L6.79688 10.8906Z" fill="#ED1C27"/>
<path d="M6.79688 10.8906H12.2214V13.6029L6.79688 10.8906Z" fill="#ED1C27"/>
<path d="M15.1445 16.9551L13.4683 11.7961L10.8888 12.6342L15.1445 16.9551Z" fill="#ED1C27"/>
<path d="M15.1445 16.9551L10.756 13.7666L12.3502 11.5724L15.1445 16.9551Z" fill="#ED1C27"/>
<path d="M8.76953 16.957L13.1581 13.7686L11.5638 11.5743L8.76953 16.957Z" fill="#ED1C27"/>
<path d="M8.76953 16.957L10.4458 11.798L13.0253 12.6361L8.76953 16.957Z" fill="#ED1C27"/>
</g>
<defs>
<clipPath id="clip0_358_4105">
<rect width="24" height="24" rx="12" fill="white"/>
</clipPath>
</defs>
</svg>
