<svg width="24" height="24" viewBox="0 0 24 24" fill="none" xmlns="http://www.w3.org/2000/svg">
<g clip-path="url(#clip0_358_4675)">
<rect width="24" height="24" rx="12" fill="white"/>
<path d="M-1.19922 3H25.2008V20.6H-1.19922V3Z" fill="white"/>
<path d="M2.84473 8.3418L5.28541 4.68078L5.89558 5.08756L3.4549 8.74858L2.84473 8.3418ZM3.75998 8.95197L6.20066 5.29095L6.81083 5.69773L4.37015 9.35875L3.75998 8.95197ZM4.67524 9.56214L7.11592 5.90112L7.72609 6.3079L5.28541 9.96892L4.67524 9.56214Z" fill="black"/>
<path d="M16.2666 17.291L18.7073 13.63L19.3175 14.0368L16.8768 17.6978L16.2666 17.291ZM17.1819 17.9012L19.6225 14.2402L20.2327 14.6469L17.792 18.308L17.1819 17.9012ZM18.0971 18.5114L20.5378 14.8503L21.148 15.2571L18.7073 18.9181L18.0971 18.5114Z" fill="black"/>
<path d="M17.1836 15.2578L20.2344 17.2917L17.1836 15.2578Z" fill="black"/>
<path d="M17.1836 15.2578L20.2344 17.2917" stroke="white" stroke-width="0.611111"/>
<path d="M8.33594 9.35938C8.98325 8.38841 9.98976 7.71436 11.134 7.4855C12.2783 7.25664 13.4667 7.49173 14.4376 8.13903C15.4086 8.78634 16.0827 9.79285 16.3115 10.9371C16.5404 12.0814 16.3053 13.2698 15.658 14.2407L8.33594 9.35938Z" fill="#CD2E3A"/>
<path d="M8.33912 9.35851C7.69181 10.3295 7.45673 11.5178 7.68559 12.6621C7.91444 13.8064 8.5885 14.8129 9.55946 15.4602C10.5304 16.1075 11.7188 16.3426 12.8631 16.1137C14.0073 15.8849 15.0139 15.2108 15.6612 14.2399C15.9848 13.7544 16.1024 13.1602 15.9879 12.5881C15.8735 12.0159 15.5365 11.5127 15.051 11.189C14.5655 10.8654 13.9713 10.7478 13.3992 10.8623C12.827 10.9767 12.3238 11.3137 12.0001 11.7992L8.33912 9.35851Z" fill="#0047A0"/>
<path d="M11.9985 11.7996C12.6725 10.7887 12.3993 9.42275 11.3884 8.74877C10.3774 8.0748 9.0115 8.34798 8.33753 9.35894C7.66355 10.3699 7.93674 11.7358 8.9477 12.4098C9.95866 13.0838 11.3246 12.8106 11.9985 11.7996Z" fill="#CD2E3A"/>
<path d="M5.28906 18.918L2.84838 15.2569L3.45855 14.8502L5.89923 18.5112L5.28906 18.918ZM6.20432 18.3078L3.76364 14.6468L4.37381 14.24L6.81449 17.901L6.20432 18.3078ZM7.11957 17.6976L4.67889 14.0366L5.28906 13.6298L7.72974 17.2908L7.11957 17.6976Z" fill="black"/>
<path d="M18.7109 9.96875L16.2703 6.30773L16.8804 5.90095L19.3211 9.56197L18.7109 9.96875ZM19.6262 9.35858L17.1855 5.69756L17.7957 5.29078L20.2364 8.9518L19.6262 9.35858ZM20.5414 8.74841L18.1008 5.08739L18.7109 4.68061L21.1516 8.34163L20.5414 8.74841Z" fill="black"/>
<path d="M4.83203 16.5781L5.74729 15.968L4.83203 16.5781ZM17.188 8.34083L18.2558 7.62896L17.188 8.34083ZM19.171 7.01879L20.0863 6.40862L19.171 7.01879Z" fill="black"/>
<path d="M4.83203 16.5781L5.74729 15.968M17.188 8.34083L18.2558 7.62896M19.171 7.01879L20.0863 6.40862" stroke="white" stroke-width="0.611111"/>
</g>
<defs>
<clipPath id="clip0_358_4675">
<rect width="24" height="24" rx="12" fill="white"/>
</clipPath>
</defs>
</svg>
