<svg width="24" height="24" viewBox="0 0 24 24" fill="none" xmlns="http://www.w3.org/2000/svg">
<g clip-path="url(#clip0_358_3943)">
<path d="M0 0H36V24H0V0Z" fill="#00AFCA"/>
<path d="M13.5612 13.3393C15.3447 13.3393 16.7904 11.8935 16.7904 10.1101C16.7904 8.32662 15.3447 6.88086 13.5612 6.88086C11.7778 6.88086 10.332 8.32662 10.332 10.1101C10.332 11.8935 11.7778 13.3393 13.5612 13.3393Z" fill="#FEC50C"/>
<path d="M13.5687 6.43921C13.7607 6.43681 13.8327 6.31681 13.8327 6.17281C13.8327 5.98081 13.5687 5.06641 13.5687 5.06641C13.5687 5.06641 13.3047 5.98081 13.3047 6.17281C13.3047 6.31681 13.3767 6.43921 13.5687 6.43921Z" fill="#FEC50C"/>
<path d="M17.2405 10.1097C17.2429 10.3017 17.3629 10.3737 17.5069 10.3737C17.6989 10.3737 18.6133 10.1097 18.6133 10.1097C18.6133 10.1097 17.6989 9.8457 17.5069 9.8457C17.3629 9.8457 17.2405 9.9177 17.2405 10.1097Z" fill="#FEC50C"/>
<path d="M13.568 13.7776C13.376 13.78 13.304 13.9 13.304 14.044C13.304 14.236 13.568 15.1504 13.568 15.1504C13.568 15.1504 13.832 14.236 13.832 14.044C13.832 13.9 13.76 13.7776 13.568 13.7776Z" fill="#FEC50C"/>
<path d="M9.90014 10.109C9.89774 9.91705 9.77774 9.84505 9.63374 9.84505C9.44174 9.84505 8.52734 10.109 8.52734 10.109C8.52734 10.109 9.44174 10.373 9.63374 10.373C9.77774 10.373 9.90014 10.301 9.90014 10.109Z" fill="#FEC50C"/>
<path d="M14.9646 6.71699C15.143 6.78824 15.2554 6.70493 15.3105 6.57189C15.384 6.39451 15.49 5.44868 15.49 5.44868C15.49 5.44868 14.8962 6.19245 14.8227 6.36984C14.7676 6.50288 14.7873 6.64351 14.9646 6.71699Z" fill="#FEC50C"/>
<path d="M16.951 11.5115C16.8797 11.6898 16.963 11.8023 17.0961 11.8574C17.2735 11.9309 18.2193 12.0369 18.2193 12.0369C18.2193 12.0369 17.4755 11.443 17.2981 11.3696C17.1651 11.3145 17.0245 11.3341 16.951 11.5115Z" fill="#FEC50C"/>
<path d="M12.1564 13.4979C11.9781 13.4266 11.8657 13.5099 11.8106 13.643C11.7371 13.8203 11.6311 14.7662 11.6311 14.7662C11.6311 14.7662 12.2249 14.0224 12.2984 13.845C12.3535 13.712 12.3338 13.5713 12.1564 13.4979Z" fill="#FEC50C"/>
<path d="M10.1701 8.70332C10.2414 8.52502 10.1581 8.41257 10.025 8.35747C9.84763 8.28399 8.90181 8.17797 8.90181 8.17797C8.90181 8.17797 9.64558 8.7718 9.82296 8.84528C9.956 8.90038 10.0966 8.8807 10.1701 8.70332Z" fill="#FEC50C"/>
<path d="M16.1691 7.51481C16.3065 7.64888 16.4423 7.61494 16.5441 7.51312C16.6799 7.37735 17.1398 6.5441 17.1398 6.5441C17.1398 6.5441 16.3065 7.004 16.1708 7.13976C16.069 7.24159 16.0333 7.37905 16.1691 7.51481Z" fill="#FEC50C"/>
<path d="M16.1707 12.7023C16.0367 12.8397 16.0706 12.9755 16.1724 13.0773C16.3082 13.2131 17.1414 13.673 17.1414 13.673C17.1414 13.673 16.6815 12.8397 16.5458 12.704C16.444 12.6022 16.3065 12.5665 16.1707 12.7023Z" fill="#FEC50C"/>
<path d="M10.9794 12.7039C10.8419 12.5699 10.7061 12.6038 10.6043 12.7056C10.4685 12.8414 10.0086 13.6747 10.0086 13.6747C10.0086 13.6747 10.8419 13.2147 10.9777 13.079C11.0795 12.9772 11.1151 12.8397 10.9794 12.7039Z" fill="#FEC50C"/>
<path d="M10.9777 7.51256C11.1118 7.37509 11.0778 7.23933 10.976 7.13751C10.8402 7.00174 10.007 6.54184 10.007 6.54184C10.007 6.54184 10.4669 7.37509 10.6027 7.51086C10.7045 7.61268 10.8419 7.64832 10.9777 7.51256Z" fill="#FEC50C"/>
<path d="M16.9499 8.7048C17.0256 8.88127 17.164 8.90186 17.2971 8.84676C17.4744 8.77328 18.2182 8.17945 18.2182 8.17945C18.2182 8.17945 17.2724 8.28547 17.095 8.35895C16.962 8.41405 16.8764 8.52741 16.9499 8.7048Z" fill="#FEC50C"/>
<path d="M14.9651 13.5007C14.7887 13.5764 14.7681 13.7148 14.8232 13.8478C14.8966 14.0252 15.4905 14.769 15.4905 14.769C15.4905 14.769 15.3844 13.8232 15.311 13.6458C15.2559 13.5127 15.1425 13.4272 14.9651 13.5007Z" fill="#FEC50C"/>
<path d="M10.1712 11.514C10.0955 11.3375 9.95707 11.3169 9.82403 11.372C9.64664 11.4455 8.90288 12.0393 8.90288 12.0393C8.90288 12.0393 9.8487 11.9333 10.0261 11.8598C10.1591 11.8047 10.2447 11.6913 10.1712 11.514Z" fill="#FEC50C"/>
<path d="M12.156 6.72001C12.3324 6.64432 12.353 6.5059 12.2979 6.37286C12.2245 6.19547 11.6306 5.45171 11.6306 5.45171C11.6306 5.45171 11.7366 6.39753 11.8101 6.57491C11.8652 6.70795 11.9786 6.79348 12.156 6.72001Z" fill="#FEC50C"/>
<path d="M14.2743 6.51023C14.4631 6.54533 14.5571 6.44169 14.5852 6.30045C14.6227 6.11214 14.5421 5.16381 14.5421 5.16381C14.5421 5.16381 14.1048 6.00913 14.0674 6.19745C14.0393 6.33868 14.086 6.47277 14.2743 6.51023Z" fill="#FEC50C"/>
<path d="M17.1548 10.8261C17.1197 11.0148 17.2234 11.1089 17.3646 11.137C17.5529 11.1744 18.5012 11.0939 18.5012 11.0939C18.5012 11.0939 17.6559 10.6566 17.4676 10.6191C17.3264 10.591 17.1923 10.6378 17.1548 10.8261Z" fill="#FEC50C"/>
<path d="M12.8429 13.7085C12.6541 13.6734 12.5601 13.7771 12.532 13.9183C12.4945 14.1066 12.5751 15.0549 12.5751 15.0549C12.5751 15.0549 13.0124 14.2096 13.0498 14.0213C13.0779 13.8801 13.0312 13.746 12.8429 13.7085Z" fill="#FEC50C"/>
<path d="M9.95847 9.39463C9.99358 9.20586 9.88993 9.11183 9.7487 9.08374C9.56038 9.04628 8.61205 9.12681 8.61205 9.12681C8.61205 9.12681 9.45738 9.56413 9.64569 9.60159C9.78692 9.62968 9.92102 9.58295 9.95847 9.39463Z" fill="#FEC50C"/>
<path d="M15.5799 7.05862C15.7408 7.16329 15.8674 7.10352 15.9474 6.98379C16.054 6.82414 16.3426 5.91718 16.3426 5.91718C16.3426 5.91718 15.615 6.5308 15.5084 6.69045C15.4284 6.81018 15.4202 6.95195 15.5799 7.05862Z" fill="#FEC50C"/>
<path d="M16.5927 12.1492C16.4881 12.3102 16.5478 12.4367 16.6676 12.5167C16.8272 12.6234 17.7342 12.9119 17.7342 12.9119C17.7342 12.9119 17.1206 12.1844 16.9609 12.0777C16.8412 11.9977 16.6994 11.9896 16.5927 12.1492Z" fill="#FEC50C"/>
<path d="M11.5022 13.1621C11.3412 13.0574 11.2147 13.1172 11.1347 13.2369C11.028 13.3966 10.7395 14.3035 10.7395 14.3035C10.7395 14.3035 11.467 13.6899 11.5737 13.5303C11.6537 13.4105 11.6618 13.2688 11.5022 13.1621Z" fill="#FEC50C"/>
<path d="M10.4893 8.0715C10.594 7.91052 10.5342 7.78399 10.4145 7.70399C10.2548 7.59732 9.34784 7.30881 9.34784 7.30881C9.34784 7.30881 9.96147 8.03633 10.1211 8.143C10.2408 8.22301 10.3826 8.23114 10.4893 8.0715Z" fill="#FEC50C"/>
<path d="M16.6127 8.07009C16.7213 8.22839 16.8611 8.22159 16.9808 8.14159C17.1405 8.03492 17.7541 7.3074 17.7541 7.3074C17.7541 7.3074 16.8471 7.5959 16.6875 7.70257C16.5678 7.78258 16.506 7.91044 16.6127 8.07009Z" fill="#FEC50C"/>
<path d="M15.5979 13.1595C15.4396 13.2682 15.4464 13.408 15.5264 13.5277C15.633 13.6873 16.3606 14.301 16.3606 14.301C16.3606 14.301 16.0721 13.394 15.9654 13.2344C15.8854 13.1146 15.7575 13.0529 15.5979 13.1595Z" fill="#FEC50C"/>
<path d="M10.5084 12.1467C10.3998 11.9884 10.26 11.9952 10.1403 12.0752C9.98063 12.1819 9.367 12.9094 9.367 12.9094C9.367 12.9094 10.274 12.6209 10.4336 12.5142C10.5533 12.4342 10.6151 12.3064 10.5084 12.1467Z" fill="#FEC50C"/>
<path d="M11.5193 7.05727C11.6776 6.94861 11.6708 6.80883 11.5908 6.6891C11.4841 6.52945 10.7566 5.91583 10.7566 5.91583C10.7566 5.91583 11.0451 6.8228 11.1518 6.98244C11.2318 7.10217 11.3597 7.16394 11.5193 7.05727Z" fill="#FEC50C"/>
<path d="M17.1602 9.39393C17.2 9.58178 17.3317 9.62898 17.4729 9.60089C17.6613 9.56343 18.5066 9.12611 18.5066 9.12611C18.5066 9.12611 17.5582 9.04558 17.3699 9.08304C17.2287 9.11113 17.1227 9.20562 17.1602 9.39393Z" fill="#FEC50C"/>
<path d="M14.276 13.709C14.0881 13.7488 14.0409 13.8805 14.069 14.0218C14.1065 14.2101 14.5438 15.0554 14.5438 15.0554C14.5438 15.0554 14.6243 14.1071 14.5869 13.9188C14.5588 13.7775 14.4643 13.6715 14.276 13.709Z" fill="#FEC50C"/>
<path d="M9.96093 10.8248C9.92112 10.637 9.78938 10.5898 9.64815 10.6179C9.45984 10.6553 8.61451 11.0926 8.61451 11.0926C8.61451 11.0926 9.56285 11.1732 9.75116 11.1357C9.89239 11.1076 9.99839 11.0131 9.96093 10.8248Z" fill="#FEC50C"/>
<path d="M12.8412 6.50976C13.029 6.46995 13.0762 6.33821 13.0482 6.19698C13.0107 6.00867 12.5734 5.16334 12.5734 5.16334C12.5734 5.16334 12.4928 6.11167 12.5303 6.29998C12.5584 6.44122 12.6529 6.54722 12.8412 6.50976Z" fill="#FEC50C"/>
<path d="M12.985 17.1074C12.8986 17.1122 12.8146 17.1234 12.7322 17.1498C12.6194 17.165 12.5114 17.2042 12.3994 17.2226L12.3546 17.2298L12.2794 17.237C12.2842 17.2578 12.2874 17.2786 12.2874 17.2994C12.2874 17.321 12.285 17.3418 12.2794 17.3594C12.2746 17.3762 12.2594 17.397 12.2474 17.4098C12.2314 17.4274 12.2146 17.4426 12.1946 17.4522C12.1754 17.4618 12.1538 17.4658 12.1322 17.4674C12.1106 17.4682 12.0882 17.4674 12.0674 17.4594C12.0458 17.4522 12.0258 17.4386 12.0074 17.4226C11.985 17.4282 11.9618 17.4322 11.9402 17.4346C11.9178 17.437 11.897 17.437 11.877 17.4346C11.8546 17.4282 11.8314 17.421 11.8098 17.4122C11.7881 17.4032 11.7672 17.3922 11.7474 17.3794C11.6658 17.4274 11.5746 17.473 11.525 17.557C11.497 17.5954 11.4914 17.6394 11.485 17.685C11.481 17.741 11.4954 17.8002 11.5194 17.8522C11.5282 17.8674 11.5354 17.797 11.5626 17.7874C11.6082 17.7498 11.665 17.7226 11.7226 17.7074C11.7714 17.6826 11.765 17.709 11.745 17.7474C11.7402 17.7674 11.713 17.8434 11.7498 17.805C11.9122 17.733 12.0922 17.7186 12.2674 17.705C12.5218 17.6786 12.777 17.673 13.0322 17.6698C13.2722 17.673 13.5122 17.6762 13.7522 17.685C13.8666 17.6882 13.9818 17.7138 14.0946 17.6946C14.1218 17.6874 14.1642 17.6858 14.1802 17.6698C14.129 17.6402 14.069 17.6394 14.0122 17.6322H13.5546C13.4274 17.6194 13.2946 17.6178 13.1746 17.5698C13.1426 17.557 13.113 17.5266 13.0826 17.5594C13.037 17.5754 12.9882 17.5866 12.9402 17.5898C12.8562 17.5962 12.7722 17.5786 12.6946 17.5474C12.7506 17.4698 12.8178 17.4018 12.8794 17.3298C12.8298 17.3218 12.7818 17.3114 12.7322 17.2994C12.8194 17.2394 12.9002 17.1714 12.985 17.1074Z" fill="#FEC50C"/>
<path d="M16.7199 17.9365C16.546 18.0409 16.4133 17.8558 16.2679 17.8003C16.1641 17.8567 16.1544 18.0453 16.0575 18.1346C15.9414 18.2666 15.7992 18.0977 15.8098 17.9674C15.671 18.0844 15.6009 18.3496 15.3764 18.3141C15.2701 18.2274 15.1911 18.0453 15.1099 18.2526C15.0436 18.3539 14.8672 18.4981 14.7759 18.3451C14.7476 18.21 14.6799 18.0511 14.6064 18.2657C14.5559 18.4175 14.394 18.5292 14.2373 18.4627C14.1515 18.3926 14.3061 18.1333 14.1969 18.1517C14.0337 18.2596 13.9388 18.5275 13.7111 18.5061C13.6226 18.4068 13.7647 18.2386 13.6677 18.1284C13.5532 18.2754 13.4262 18.4906 13.2282 18.5061C13.1325 18.4285 13.2319 18.206 13.1708 18.1731C12.9676 18.295 12.7532 18.5122 12.4976 18.4442C12.5972 18.0632 13.0134 17.9296 13.3634 17.8999C13.9655 17.8258 14.599 17.9619 15.1783 17.7446C15.2719 17.6876 15.4987 17.6068 15.418 17.4747C15.3465 17.3704 15.604 17.4112 15.6288 17.2894C15.6135 17.135 15.7471 17.1563 15.8776 17.1428C16.4626 17.1175 17.0405 17.2407 17.6237 17.2617C17.6678 17.5459 17.3525 17.7454 17.0987 17.6577C16.9775 17.6773 16.7957 17.3789 16.8313 17.596C16.8069 17.7099 16.824 17.8604 16.7199 17.9365M11.7423 17.3546C11.8777 17.4785 11.9727 17.3312 12.0993 17.2774C12.5239 17.1314 12.8944 16.8761 13.2596 16.6211C13.4809 16.438 13.6727 16.2005 13.9699 16.1411C14.5496 15.9659 15.1659 15.9871 15.7478 15.8254C16.191 15.2186 16.9437 15.0022 17.5742 14.6534C17.7157 14.6095 17.7704 14.4929 17.8156 14.3643C18.0563 13.9844 18.3842 13.6477 18.7719 13.4178C18.9554 13.3175 19.1743 13.2598 19.382 13.3056C19.3671 13.553 19.2252 13.7722 19.0538 13.9433C19.194 13.9402 19.3145 13.8517 19.4562 13.8566C19.5048 14.1105 19.2306 14.2434 19.0848 14.4014C19.166 14.4203 19.4772 14.4439 19.3076 14.5253C19.0915 14.6753 18.8447 14.7782 18.6452 14.9524C18.8293 14.9855 18.8502 15.0246 18.6631 15.0912C18.5617 15.1599 18.3669 15.1839 18.348 15.3177C18.4871 15.4032 18.284 15.488 18.2056 15.5158C18.0558 15.5507 17.8985 15.6158 18.0975 15.7296C18.0222 15.8433 17.8607 15.8676 17.7289 15.8563C17.7689 15.9852 17.8268 16.1294 17.6595 16.1863C17.2846 16.4697 16.8445 16.6759 16.3731 16.7231C16.962 16.7683 17.5685 16.659 18.0717 16.3388C18.1381 16.2602 18.4864 16.1758 18.2916 16.1098C18.1999 16.0716 18.0032 16.0292 17.9899 15.9593C18.2624 15.7911 18.6058 15.851 18.899 15.7511C18.9066 15.6561 18.676 15.6825 18.5901 15.6609C18.385 15.6441 18.397 15.5918 18.5947 15.5724C18.8449 15.5062 19.1282 15.4932 19.3386 15.3301C19.1673 15.2507 18.9518 15.3206 18.769 15.2558C19.0789 15.1202 19.4444 15.1066 19.7224 14.9029C19.8491 14.762 19.5602 14.806 19.476 14.8094C19.3044 14.8393 19.2251 14.7572 19.42 14.6859C19.7529 14.4404 20.1744 14.281 20.4083 13.9251C20.4637 13.8455 20.5387 13.6055 20.362 13.6918C20.1297 13.7691 19.9252 14.0302 19.6605 13.9495C20.1821 13.5452 20.6784 13.085 21.0349 12.5255C21.0534 12.3642 20.8001 12.3467 20.7342 12.4734C20.3991 12.7963 20.0958 13.1774 19.6667 13.3799C20.0776 12.9833 20.4173 12.5137 20.7137 12.027C20.7773 11.8822 20.9481 11.7081 20.8554 11.5474C20.706 11.4237 20.5191 11.5369 20.4414 11.6849C20.1809 12.025 19.9831 12.4219 19.6481 12.6989C19.9414 12.1392 20.245 11.5434 20.2525 10.8978C20.2516 10.7649 20.2249 10.5691 20.0444 10.5939C19.9013 10.6196 19.9353 10.8338 19.8763 10.9421C19.7464 11.3831 19.6855 11.8608 19.4191 12.2469C19.479 11.8886 19.5839 11.5149 19.5034 11.153C19.4658 10.9913 19.2046 11.0609 19.2382 11.2209C18.9262 12.8016 17.8656 14.184 16.4785 14.9837C15.8433 15.343 15.1339 15.5747 14.4122 15.6797C14.218 15.7222 14.008 15.6973 13.8224 15.7635C13.3728 16.1083 13.1005 16.6852 12.5312 16.8659C12.276 16.9927 11.9433 17.0185 11.7608 17.2555C11.745 17.2858 11.7417 17.321 11.7423 17.3546Z" fill="#FEC50C"/>
<path d="M13.4473 15.7503C13.3633 15.9028 13.3138 16.0781 13.2058 16.2146C12.8808 15.9189 12.4097 15.9287 11.9975 15.909C11.6573 15.8908 11.2872 15.8595 11.024 15.6168C10.7471 15.3899 10.521 15.0954 10.2115 14.9114C9.92909 14.8346 9.64435 14.7385 9.41726 14.5449C8.93198 14.1493 8.65406 13.5624 8.17987 13.1545C8.08946 13.0655 7.98285 12.9965 7.88157 12.921C7.78533 12.9445 7.82889 13.1522 7.71113 13.0463C7.64705 13.0007 7.48677 12.9963 7.47232 13.0599C7.61731 13.251 7.76244 13.4691 7.78252 13.7135C7.68364 13.7236 7.50784 13.6926 7.45884 13.7294C7.59014 13.9262 7.75845 14.1008 7.94969 14.2397C7.85796 14.2545 7.67721 14.2464 7.64205 14.2834C7.83187 14.4381 8.03541 14.5962 8.28398 14.636C8.33486 14.703 8.20958 14.8325 8.31494 14.8898C8.37602 14.9147 8.5776 14.9565 8.43876 15.026C8.34348 15.0902 8.37883 15.2398 8.50068 15.2365C8.57772 15.2758 8.75068 15.2854 8.76422 15.3536C8.69594 15.4231 8.48347 15.5055 8.66431 15.5705C8.83325 15.6642 9.02592 15.7251 9.21883 15.7317C9.12201 15.8132 9.00273 15.8594 8.90308 15.9361C9.34828 16.1971 9.8418 16.3688 10.3295 16.5341C10.5236 16.599 10.7201 16.6595 10.9213 16.6976C10.3365 16.6638 9.77121 16.4907 9.23856 16.2537C8.96249 16.1326 8.68454 16.0156 8.40161 15.9113C8.52566 15.8468 8.66916 15.831 8.79782 15.7751C8.53075 15.7216 8.23898 15.7041 8.00421 15.5573C8.04021 15.493 8.1766 15.49 8.25204 15.4573C8.3939 15.4233 8.48191 15.3821 8.28187 15.3698C8.08015 15.315 7.84879 15.3396 7.67102 15.2179C7.68247 15.1449 7.86852 15.1704 7.94428 15.1389C8.03971 15.1225 8.14579 15.1088 8.22204 15.0446C7.91018 14.9153 7.50228 15.0069 7.25801 14.7315C7.20168 14.6265 7.43294 14.7111 7.4988 14.6936C7.66615 14.6936 7.84601 14.7468 8.00537 14.6793C7.55095 14.4798 7.0642 14.293 6.71764 13.924C6.67917 13.8647 6.56388 13.7026 6.6569 13.6826C6.92664 13.7182 7.12188 14.0126 7.4104 13.9668C7.44873 13.9151 7.24279 13.8305 7.19138 13.7566C6.77071 13.3956 6.36242 13.0039 6.06758 12.531C6.0473 12.3731 6.29551 12.3495 6.36086 12.4714C6.68258 12.7813 6.9732 13.1429 7.3739 13.3544C7.51608 13.4234 7.29225 13.2728 7.26244 13.2182C6.8922 12.7883 6.53973 12.3342 6.28096 11.8278C6.23464 11.7366 6.15789 11.5714 6.29647 11.5228C6.43502 11.4534 6.57249 11.5479 6.64274 11.667C6.91495 12.0103 7.11525 12.4183 7.45435 12.7044C7.16546 12.1437 6.85701 11.5536 6.84955 10.9085C6.85634 10.7835 6.86438 10.5943 7.03396 10.5994C7.17636 10.5778 7.15387 10.7601 7.20052 10.8471C7.34083 11.321 7.402 11.834 7.68345 12.2524C7.62129 11.9008 7.52978 11.5388 7.59057 11.1813C7.60459 11.064 7.73671 11.0285 7.82294 11.0994C7.89266 11.2701 7.90718 11.4808 7.97071 11.6632C8.33215 12.8997 9.14371 13.9872 10.2013 14.717C11.0723 15.3143 12.106 15.671 13.161 15.7331C13.2563 15.7414 13.3519 15.7443 13.4473 15.7502" fill="#FEC50C"/>
<path d="M12.1076 17.391C12.139 17.391 12.1644 17.3655 12.1644 17.3342C12.1644 17.3028 12.139 17.2773 12.1076 17.2773C12.0762 17.2773 12.0508 17.3028 12.0508 17.3342C12.0508 17.3655 12.0762 17.391 12.1076 17.391Z" fill="#FEC50C"/>
<path d="M12.1052 17.3471C12.118 17.3471 12.1284 17.3367 12.1284 17.3239C12.1284 17.3112 12.118 17.3008 12.1052 17.3008C12.0924 17.3008 12.082 17.3112 12.082 17.3239C12.082 17.3367 12.0924 17.3471 12.1052 17.3471Z" fill="#FEC50C" stroke="#00AFCA" stroke-width="0.1905"/>
<path d="M2.87936 1.75046C2.87936 1.75046 2.64872 1.55664 2.57039 1.65386C2.44439 1.81022 2.95775 2.5891 2.95775 2.86337C2.95775 3.31358 2.65734 3.43601 2.28639 3.5003C2.03749 3.54346 1.63218 3.48226 1.63218 3.48226C1.7085 3.3797 1.75813 3.34949 1.88672 3.3413C1.74356 3.26698 1.59779 3.10562 1.59779 2.85449C1.59779 2.46718 1.75722 2.30753 1.75722 1.8709C1.75722 1.62866 1.55859 1.32031 1.55859 1.32031C1.90969 1.35545 2.08369 1.68053 1.98469 1.94033C2.04056 1.94837 2.0913 1.93577 2.13488 1.89449C2.16056 1.96649 2.12 2.05008 2.06569 2.1221C2.10944 2.14548 2.14158 2.13146 2.21127 2.11706C2.20465 2.19127 2.1602 2.27009 2.05143 2.3443C2.36706 2.26234 2.56127 2.48232 2.56127 2.71262C2.56127 2.88658 2.43937 3.01126 2.32021 3.01126C2.28171 3.01126 2.22515 2.99539 2.19325 2.97156C2.17074 3.01944 2.18233 3.08352 2.20549 3.1314C2.11818 3.10831 2.06274 3.05645 2.10219 2.9485C2.03511 2.94233 1.98176 2.91967 1.94547 2.8765C1.98224 2.82938 2.03804 2.80226 2.10219 2.80447C2.05335 2.70367 2.10779 2.64727 2.18711 2.60153C2.18711 2.60153 2.13666 2.80447 2.26547 2.80447C2.32338 2.80447 2.37615 2.78561 2.37615 2.70024C2.37615 2.62591 2.31119 2.52295 2.16097 2.5295C2.01078 2.53606 1.889 2.63306 1.889 2.87285C1.889 3.09403 2.06742 3.20405 2.30252 3.21115C2.51451 3.2177 2.67452 3.10286 2.67452 2.88415C2.67452 2.59308 2.25433 1.9296 2.25433 1.67023C2.25433 1.47559 2.42934 1.36697 2.60058 1.36697C2.82263 1.36697 3.00997 1.58683 3.00997 1.58683L2.87953 1.75039L2.87936 1.75046Z" fill="#FEC50C"/>
<path d="M2.92603 7.01138C2.92603 7.49786 2.48928 7.74789 2.14608 7.74789C1.68369 7.74789 1.4375 7.47143 1.4375 7.10954C1.4375 6.90439 1.47508 6.77567 1.56967 6.57933C1.56967 6.57933 2.33239 4.99314 2.62934 4.37966C2.66637 4.30314 2.67832 4.21602 2.67832 4.08834C2.67832 3.89114 2.48704 3.72995 2.28648 3.72501C2.10364 3.72045 1.90444 3.89546 1.90444 4.0949C1.90444 4.33713 2.03011 4.44513 2.15913 4.44513C2.31792 4.44513 2.38118 4.37985 2.38118 4.26837C2.38118 4.19068 2.34367 4.15708 2.28974 4.15708C2.15356 4.15708 2.1918 4.34039 2.1918 4.34039C2.12416 4.32558 2.06858 4.25646 2.10036 4.17016C2.049 4.15882 2.00264 4.13128 1.96812 4.09161C2.00462 4.05621 2.0465 4.0289 2.10036 4.01961C2.06846 3.9143 2.11108 3.86286 2.20322 3.84122C2.18462 3.8817 2.184 3.91898 2.19016 3.95414C2.3352 3.91288 2.55751 3.97852 2.55751 4.22908C2.55751 4.47784 2.38485 4.68731 2.06116 4.63497C2.13816 4.67178 2.17732 4.74712 2.18524 4.83136C2.12644 4.80846 2.06116 4.8052 2.06116 4.8052C2.09901 4.87192 2.15157 4.92945 2.14932 5.06049C2.08932 5.0332 2.03356 4.98268 1.95667 5.01465C2.07739 5.2522 1.92907 5.57894 1.55176 5.65624C1.68986 5.49436 1.75747 5.31959 1.75747 5.14559C1.75747 4.58169 1.60075 4.48691 1.60075 4.09487C1.60075 3.93083 1.68506 3.75371 1.85217 3.63333V3.63988C1.74172 3.61029 1.67097 3.5559 1.63029 3.48201C1.88265 3.41044 2.24949 3.41176 2.44644 3.48926C2.67285 3.51549 2.83092 3.68918 2.87748 3.77735C2.92404 3.86543 3.01449 4.18422 2.87748 4.47124C2.72748 4.78535 2.02039 6.28468 1.79992 6.75599C1.75317 6.85595 1.7248 6.96198 1.7248 7.07678C1.7248 7.3655 1.98928 7.4663 2.13952 7.4663C2.31912 7.4663 2.50197 7.3295 2.50197 7.15862C2.50197 7.05035 2.44317 6.98514 2.35828 6.98514C2.15529 6.98514 2.16763 7.15782 2.20809 7.26664C2.08176 7.20983 2.00832 7.10843 2.0285 7.00151C1.95698 6.9917 1.88889 6.95778 1.82606 6.88694C1.8755 6.82454 1.93579 6.77733 2.0285 6.77565C1.98801 6.60976 2.09906 6.53961 2.20809 6.5007C2.1736 6.62246 2.15097 6.76257 2.35828 6.76257C2.50948 6.76257 2.62848 6.78875 2.69788 6.88696C2.70196 6.75602 2.7142 6.23884 2.7142 6.23884C2.72294 6.04449 2.45409 6.05003 2.28321 6.1079C2.3477 5.88405 2.47996 5.76302 2.78606 5.79366C2.71176 5.76258 2.63258 5.69267 2.63258 5.55798C2.63263 5.37575 2.78047 5.17386 2.87752 5.11418L2.92605 7.0114L2.92603 7.01138Z" fill="#FEC50C"/>
<path d="M2.92603 8.47104C2.92603 7.98456 2.48928 7.73453 2.14608 7.73453C1.68369 7.73453 1.4375 8.01099 1.4375 8.37288C1.4375 8.57804 1.47508 8.70675 1.56967 8.90309C1.56967 8.90309 2.33239 10.4893 2.62934 11.1028C2.66637 11.1793 2.67832 11.2664 2.67832 11.3941C2.67832 11.5913 2.48704 11.7525 2.28648 11.7574C2.10364 11.762 1.90444 11.587 1.90444 11.3875C1.90444 11.1453 2.03011 11.0373 2.15913 11.0373C2.31792 11.0373 2.38118 11.1026 2.38118 11.2141C2.38118 11.2917 2.34367 11.3253 2.28974 11.3253C2.15356 11.3253 2.1918 11.142 2.1918 11.142C2.12416 11.1568 2.06858 11.226 2.10036 11.3123C2.049 11.3236 2.00264 11.3511 1.96812 11.3908C2.00462 11.4262 2.0465 11.4535 2.10036 11.4628C2.06846 11.5681 2.11108 11.6196 2.20322 11.6412C2.18462 11.6007 2.184 11.5634 2.19016 11.5283C2.3352 11.5695 2.55751 11.5039 2.55751 11.2533C2.55751 11.0046 2.38485 10.7951 2.06116 10.8475C2.13816 10.8106 2.17732 10.7353 2.18524 10.6511C2.12644 10.674 2.06116 10.6772 2.06116 10.6772C2.09901 10.6105 2.15157 10.553 2.14932 10.4219C2.08932 10.4492 2.03356 10.4997 1.95667 10.4678C2.07739 10.2302 1.92907 9.90349 1.55176 9.82618C1.68986 9.98806 1.75747 10.1628 1.75747 10.3368C1.75747 10.9007 1.60075 10.9955 1.60075 11.3875C1.60075 11.5516 1.68506 11.7287 1.85217 11.8491V11.8425C1.74172 11.8721 1.67097 11.9265 1.63029 12.0004C1.88265 12.072 2.24949 12.0707 2.44644 11.9932C2.67285 11.9669 2.83092 11.7932 2.87748 11.7051C2.92404 11.617 3.01449 11.2982 2.87748 11.0112C2.72748 10.6971 2.02039 9.19774 1.79992 8.72643C1.75317 8.62647 1.7248 8.52044 1.7248 8.40565C1.7248 8.11693 1.98928 8.01612 2.13952 8.01612C2.31912 8.01612 2.50197 8.15293 2.50197 8.32381C2.50197 8.43207 2.44317 8.49728 2.35828 8.49728C2.15529 8.49728 2.16763 8.3246 2.20809 8.21578C2.08176 8.27259 2.00832 8.37399 2.0285 8.48091C1.95698 8.49072 1.88889 8.52464 1.82606 8.59549C1.8755 8.65789 1.93579 8.70509 2.0285 8.70677C1.98801 8.87266 2.09906 8.94281 2.20809 8.98172C2.1736 8.85997 2.15097 8.71985 2.35828 8.71985C2.50948 8.71985 2.62848 8.69367 2.69788 8.59546C2.70196 8.72641 2.7142 9.24358 2.7142 9.24358C2.72294 9.43793 2.45409 9.43239 2.28321 9.37453C2.3477 9.59837 2.47996 9.71941 2.78606 9.68876C2.71176 9.71984 2.63258 9.78975 2.63258 9.92444C2.63263 10.1067 2.78047 10.3086 2.87752 10.3682L2.92605 8.47102L2.92603 8.47104Z" fill="#FEC50C"/>
<path d="M2.87454 1.75046C2.87454 1.75046 3.10518 1.55664 3.18352 1.65386C3.30952 1.81022 2.79616 2.5891 2.79616 2.86337C2.79616 3.31358 3.09657 3.43601 3.46751 3.5003C3.71642 3.54346 4.12173 3.48226 4.12173 3.48226C4.04541 3.3797 3.99578 3.34949 3.86718 3.3413C4.01034 3.26698 4.15612 3.10562 4.15612 2.85449C4.15612 2.46718 3.99669 2.30753 3.99669 1.8709C3.99669 1.62866 4.19531 1.32031 4.19531 1.32031C3.84422 1.35545 3.67022 1.68053 3.76922 1.94033C3.71334 1.94837 3.66261 1.93577 3.61902 1.89449C3.59334 1.96649 3.6339 2.05008 3.68822 2.1221C3.64446 2.14548 3.61233 2.13146 3.54263 2.11706C3.54926 2.19127 3.5937 2.27009 3.70247 2.3443C3.38685 2.26234 3.19264 2.48232 3.19264 2.71262C3.19264 2.88658 3.31454 3.01126 3.4337 3.01126C3.47219 3.01126 3.52876 2.99539 3.56066 2.97156C3.58317 3.01944 3.57158 3.08352 3.54842 3.1314C3.63573 3.10831 3.69117 3.05645 3.65171 2.9485C3.71879 2.94233 3.77214 2.91967 3.80843 2.8765C3.77166 2.82938 3.71586 2.80226 3.65171 2.80447C3.70055 2.70367 3.64612 2.64727 3.5668 2.60153C3.5668 2.60153 3.61725 2.80447 3.48844 2.80447C3.43053 2.80447 3.37775 2.78561 3.37775 2.70024C3.37775 2.62591 3.44272 2.52295 3.59294 2.5295C3.74313 2.53606 3.8649 2.63306 3.8649 2.87285C3.8649 3.09403 3.68649 3.20405 3.45138 3.21115C3.23939 3.2177 3.07938 3.10286 3.07938 2.88415C3.07938 2.59308 3.49958 1.9296 3.49958 1.67023C3.49958 1.47559 3.32457 1.36697 3.15333 1.36697C2.93128 1.36697 2.74394 1.58683 2.74394 1.58683L2.87438 1.75039L2.87454 1.75046Z" fill="#FEC50C"/>
<path d="M2.82788 7.01138C2.82788 7.49786 3.26463 7.74789 3.60783 7.74789C4.07021 7.74789 4.31641 7.47143 4.31641 7.10954C4.31641 6.90439 4.27882 6.77567 4.18424 6.57933C4.18424 6.57933 3.42152 4.99314 3.12457 4.37966C3.08753 4.30314 3.07558 4.21602 3.07558 4.08834C3.07558 3.89114 3.26686 3.72995 3.46743 3.72501C3.65026 3.72045 3.84946 3.89546 3.84946 4.0949C3.84946 4.33713 3.7238 4.44513 3.59477 4.44513C3.43599 4.44513 3.37273 4.37985 3.37273 4.26837C3.37273 4.19068 3.41024 4.15708 3.46417 4.15708C3.60034 4.15708 3.56211 4.34039 3.56211 4.34039C3.62974 4.32558 3.68533 4.25646 3.65355 4.17016C3.70491 4.15882 3.75126 4.13128 3.78579 4.09161C3.74929 4.05621 3.70741 4.0289 3.65355 4.01961C3.68545 3.9143 3.64282 3.86286 3.55069 3.84122C3.56929 3.8817 3.56991 3.91898 3.56374 3.95414C3.41871 3.91288 3.1964 3.97852 3.1964 4.22908C3.1964 4.47784 3.36905 4.68731 3.69274 4.63497C3.61575 4.67178 3.57658 4.74712 3.56866 4.83136C3.62746 4.80846 3.69274 4.8052 3.69274 4.8052C3.65489 4.87192 3.60233 4.92945 3.60459 5.06049C3.66459 5.0332 3.72034 4.98268 3.79724 5.01465C3.67652 5.2522 3.82484 5.57894 4.20214 5.65624C4.06405 5.49436 3.99644 5.31959 3.99644 5.14559C3.99644 4.58169 4.15316 4.48691 4.15316 4.09487C4.15316 3.93083 4.06885 3.75371 3.90173 3.63333V3.63988C4.01218 3.61029 4.08293 3.5559 4.12361 3.48201C3.87125 3.41044 3.50441 3.41176 3.30747 3.48926C3.08105 3.51549 2.92299 3.68918 2.87643 3.77735C2.82987 3.86543 2.73941 4.18422 2.87643 4.47124C3.02643 4.78535 3.73352 6.28468 3.95398 6.75599C4.00073 6.85595 4.0291 6.96198 4.0291 7.07678C4.0291 7.3655 3.76462 7.4663 3.61438 7.4663C3.43479 7.4663 3.25193 7.3295 3.25193 7.15862C3.25193 7.05035 3.31073 6.98514 3.39562 6.98514C3.59861 6.98514 3.58628 7.15782 3.54581 7.26664C3.67215 7.20983 3.74559 7.10843 3.72541 7.00151C3.79693 6.9917 3.86501 6.95778 3.92785 6.88694C3.87841 6.82454 3.81812 6.77733 3.72541 6.77565C3.76589 6.60976 3.65485 6.53961 3.54581 6.5007C3.5803 6.62246 3.60293 6.76257 3.39562 6.76257C3.24442 6.76257 3.12543 6.78875 3.05602 6.88696C3.05194 6.75602 3.0397 6.23884 3.0397 6.23884C3.03097 6.04449 3.29981 6.05003 3.47069 6.1079C3.40621 5.88405 3.27394 5.76302 2.96785 5.79366C3.04215 5.76258 3.12133 5.69267 3.12133 5.55798C3.12128 5.37575 2.97344 5.17386 2.87638 5.11418L2.82785 7.0114L2.82788 7.01138Z" fill="#FEC50C"/>
<path d="M2.82788 8.47104C2.82788 7.98456 3.26463 7.73453 3.60783 7.73453C4.07021 7.73453 4.31641 8.01099 4.31641 8.37288C4.31641 8.57804 4.27882 8.70675 4.18424 8.90309C4.18424 8.90309 3.42152 10.4893 3.12457 11.1028C3.08753 11.1793 3.07558 11.2664 3.07558 11.3941C3.07558 11.5913 3.26686 11.7525 3.46743 11.7574C3.65026 11.762 3.84946 11.587 3.84946 11.3875C3.84946 11.1453 3.7238 11.0373 3.59477 11.0373C3.43599 11.0373 3.37273 11.1026 3.37273 11.2141C3.37273 11.2917 3.41024 11.3253 3.46417 11.3253C3.60034 11.3253 3.56211 11.142 3.56211 11.142C3.62974 11.1568 3.68533 11.226 3.65355 11.3123C3.70491 11.3236 3.75126 11.3511 3.78579 11.3908C3.74929 11.4262 3.70741 11.4535 3.65355 11.4628C3.68545 11.5681 3.64282 11.6196 3.55069 11.6412C3.56929 11.6007 3.56991 11.5634 3.56374 11.5283C3.41871 11.5695 3.1964 11.5039 3.1964 11.2533C3.1964 11.0046 3.36905 10.7951 3.69274 10.8475C3.61575 10.8106 3.57658 10.7353 3.56866 10.6511C3.62746 10.674 3.69274 10.6772 3.69274 10.6772C3.65489 10.6105 3.60233 10.553 3.60459 10.4219C3.66459 10.4492 3.72034 10.4997 3.79724 10.4678C3.67652 10.2302 3.82484 9.90349 4.20214 9.82618C4.06405 9.98806 3.99644 10.1628 3.99644 10.3368C3.99644 10.9007 4.15316 10.9955 4.15316 11.3875C4.15316 11.5516 4.06885 11.7287 3.90173 11.8491V11.8425C4.01218 11.8721 4.08293 11.9265 4.12361 12.0004C3.87125 12.072 3.50441 12.0707 3.30747 11.9932C3.08105 11.9669 2.92299 11.7932 2.87643 11.7051C2.82987 11.617 2.73941 11.2982 2.87643 11.0112C3.02643 10.6971 3.73352 9.19774 3.95398 8.72643C4.00073 8.62647 4.0291 8.52044 4.0291 8.40565C4.0291 8.11693 3.76462 8.01612 3.61438 8.01612C3.43479 8.01612 3.25193 8.15293 3.25193 8.32381C3.25193 8.43207 3.31073 8.49728 3.39562 8.49728C3.59861 8.49728 3.58628 8.3246 3.54581 8.21578C3.67215 8.27259 3.74559 8.37399 3.72541 8.48091C3.79693 8.49072 3.86501 8.52464 3.92785 8.59549C3.87841 8.65789 3.81812 8.70509 3.72541 8.70677C3.76589 8.87266 3.65485 8.94281 3.54581 8.98172C3.5803 8.85997 3.60293 8.71985 3.39562 8.71985C3.24442 8.71985 3.12543 8.69367 3.05602 8.59546C3.05194 8.72641 3.0397 9.24358 3.0397 9.24358C3.03097 9.43793 3.29981 9.43239 3.47069 9.37453C3.40621 9.59837 3.27394 9.71941 2.96785 9.68876C3.04215 9.71984 3.12133 9.78975 3.12133 9.92444C3.12128 10.1067 2.97344 10.3086 2.87638 10.3682L2.82785 8.47102L2.82788 8.47104Z" fill="#FEC50C"/>
<path d="M2.87936 22.2495C2.87936 22.2495 2.64872 22.4434 2.57039 22.3461C2.44439 22.1898 2.95775 21.4109 2.95775 21.1366C2.95775 20.6864 2.65734 20.564 2.28639 20.4997C2.03749 20.4565 1.63218 20.5177 1.63218 20.5177C1.7085 20.6203 1.75813 20.6505 1.88672 20.6587C1.74356 20.733 1.59779 20.8944 1.59779 21.1455C1.59779 21.5328 1.75722 21.6925 1.75722 22.1291C1.75722 22.3713 1.55859 22.6797 1.55859 22.6797C1.90969 22.6446 2.08369 22.3195 1.98469 22.0597C2.04056 22.0516 2.0913 22.0642 2.13488 22.1055C2.16056 22.0335 2.12 21.9499 2.06569 21.8779C2.10944 21.8545 2.14158 21.8685 2.21127 21.8829C2.20465 21.8087 2.1602 21.7299 2.05143 21.6557C2.36706 21.7377 2.56127 21.5177 2.56127 21.2874C2.56127 21.1134 2.43937 20.9887 2.32021 20.9887C2.28171 20.9887 2.22515 21.0046 2.19325 21.0284C2.17074 20.9806 2.18233 20.9165 2.20549 20.8686C2.11818 20.8917 2.06274 20.9436 2.10219 21.0515C2.03511 21.0577 1.98176 21.0803 1.94547 21.1235C1.98224 21.1706 2.03804 21.1977 2.10219 21.1955C2.05335 21.2963 2.10779 21.3527 2.18711 21.3985C2.18711 21.3985 2.13666 21.1955 2.26547 21.1955C2.32338 21.1955 2.37615 21.2144 2.37615 21.2998C2.37615 21.3741 2.31119 21.477 2.16097 21.4705C2.01078 21.4639 1.889 21.3669 1.889 21.1272C1.889 20.906 2.06742 20.796 2.30252 20.7888C2.51451 20.7823 2.67452 20.8971 2.67452 21.1158C2.67452 21.4069 2.25433 22.0704 2.25433 22.3298C2.25433 22.5244 2.42934 22.633 2.60058 22.633C2.82263 22.633 3.00997 22.4132 3.00997 22.4132L2.87953 22.2496L2.87936 22.2495Z" fill="#FEC50C"/>
<path d="M2.92603 16.9886C2.92603 16.5021 2.48928 16.2521 2.14608 16.2521C1.68369 16.2521 1.4375 16.5286 1.4375 16.8905C1.4375 17.0956 1.47508 17.2243 1.56967 17.4207C1.56967 17.4207 2.33239 19.0069 2.62934 19.6203C2.66637 19.6969 2.67832 19.784 2.67832 19.9117C2.67832 20.1089 2.48704 20.27 2.28648 20.275C2.10364 20.2796 1.90444 20.1045 1.90444 19.9051C1.90444 19.6629 2.03011 19.5549 2.15913 19.5549C2.31792 19.5549 2.38118 19.6202 2.38118 19.7316C2.38118 19.8093 2.34367 19.8429 2.28974 19.8429C2.15356 19.8429 2.1918 19.6596 2.1918 19.6596C2.12416 19.6744 2.06858 19.7435 2.10036 19.8298C2.049 19.8412 2.00264 19.8687 1.96812 19.9084C2.00462 19.9438 2.0465 19.9711 2.10036 19.9804C2.06846 20.0857 2.11108 20.1371 2.20322 20.1588C2.18462 20.1183 2.184 20.081 2.19016 20.0459C2.3352 20.0871 2.55751 20.0215 2.55751 19.7709C2.55751 19.5222 2.38485 19.3127 2.06116 19.365C2.13816 19.3282 2.17732 19.2529 2.18524 19.1686C2.12644 19.1915 2.06116 19.1948 2.06116 19.1948C2.09901 19.1281 2.15157 19.0706 2.14932 18.9395C2.08932 18.9668 2.03356 19.0173 1.95667 18.9854C2.07739 18.7478 1.92907 18.4211 1.55176 18.3438C1.68986 18.5056 1.75747 18.6804 1.75747 18.8544C1.75747 19.4183 1.60075 19.5131 1.60075 19.9051C1.60075 20.0692 1.68506 20.2463 1.85217 20.3667V20.3601C1.74172 20.3897 1.67097 20.4441 1.63029 20.518C1.88265 20.5896 2.24949 20.5882 2.44644 20.5107C2.67285 20.4845 2.83092 20.3108 2.87748 20.2226C2.92404 20.1346 3.01449 19.8158 2.87748 19.5288C2.72748 19.2146 2.02039 17.7153 1.79992 17.244C1.75317 17.144 1.7248 17.038 1.7248 16.9232C1.7248 16.6345 1.98928 16.5337 2.13952 16.5337C2.31912 16.5337 2.50197 16.6705 2.50197 16.8414C2.50197 16.9496 2.44317 17.0149 2.35828 17.0149C2.15529 17.0149 2.16763 16.8422 2.20809 16.7334C2.08176 16.7902 2.00832 16.8916 2.0285 16.9985C1.95698 17.0083 1.88889 17.0422 1.82606 17.1131C1.8755 17.1755 1.93579 17.2227 2.0285 17.2244C1.98801 17.3902 2.09906 17.4604 2.20809 17.4993C2.1736 17.3775 2.15097 17.2374 2.35828 17.2374C2.50948 17.2374 2.62848 17.2112 2.69788 17.113C2.70196 17.244 2.7142 17.7612 2.7142 17.7612C2.72294 17.9555 2.45409 17.95 2.28321 17.8921C2.3477 18.116 2.47996 18.237 2.78606 18.2063C2.71176 18.2374 2.63258 18.3073 2.63258 18.442C2.63263 18.6242 2.78047 18.8261 2.87752 18.8858L2.92605 16.9886L2.92603 16.9886Z" fill="#FEC50C"/>
<path d="M2.92603 15.529C2.92603 16.0154 2.48928 16.2655 2.14608 16.2655C1.68369 16.2655 1.4375 15.989 1.4375 15.6271C1.4375 15.422 1.47508 15.2933 1.56967 15.0969C1.56967 15.0969 2.33239 13.5107 2.62934 12.8972C2.66637 12.8207 2.67832 12.7336 2.67832 12.6059C2.67832 12.4087 2.48704 12.2475 2.28648 12.2426C2.10364 12.238 1.90444 12.413 1.90444 12.6125C1.90444 12.8547 2.03011 12.9627 2.15913 12.9627C2.31792 12.9627 2.38118 12.8974 2.38118 12.7859C2.38118 12.7083 2.34367 12.6747 2.28974 12.6747C2.15356 12.6747 2.1918 12.858 2.1918 12.858C2.12416 12.8432 2.06858 12.774 2.10036 12.6877C2.049 12.6764 2.00264 12.6489 1.96812 12.6092C2.00462 12.5738 2.0465 12.5465 2.10036 12.5372C2.06846 12.4319 2.11108 12.3804 2.20322 12.3588C2.18462 12.3993 2.184 12.4366 2.19016 12.4717C2.3352 12.4305 2.55751 12.4961 2.55751 12.7467C2.55751 12.9954 2.38485 13.2049 2.06116 13.1525C2.13816 13.1894 2.17732 13.2647 2.18524 13.3489C2.12644 13.326 2.06116 13.3228 2.06116 13.3228C2.09901 13.3895 2.15157 13.447 2.14932 13.5781C2.08932 13.5508 2.03356 13.5003 1.95667 13.5322C2.07739 13.7698 1.92907 14.0965 1.55176 14.1738C1.68986 14.0119 1.75747 13.8372 1.75747 13.6632C1.75747 13.0993 1.60075 13.0045 1.60075 12.6125C1.60075 12.4484 1.68506 12.2713 1.85217 12.1509V12.1575C1.74172 12.1279 1.67097 12.0735 1.63029 11.9996C1.88265 11.928 2.24949 11.9293 2.44644 12.0068C2.67285 12.0331 2.83092 12.2068 2.87748 12.2949C2.92404 12.383 3.01449 12.7018 2.87748 12.9888C2.72748 13.3029 2.02039 14.8023 1.79992 15.2736C1.75317 15.3735 1.7248 15.4796 1.7248 15.5944C1.7248 15.8831 1.98928 15.9839 2.13952 15.9839C2.31912 15.9839 2.50197 15.8471 2.50197 15.6762C2.50197 15.5679 2.44317 15.5027 2.35828 15.5027C2.15529 15.5027 2.16763 15.6754 2.20809 15.7842C2.08176 15.7274 2.00832 15.626 2.0285 15.5191C1.95698 15.5093 1.88889 15.4754 1.82606 15.4045C1.8755 15.3421 1.93579 15.2949 2.0285 15.2932C1.98801 15.1273 2.09906 15.0572 2.20809 15.0183C2.1736 15.14 2.15097 15.2801 2.35828 15.2801C2.50948 15.2801 2.62848 15.3063 2.69788 15.4045C2.70196 15.2736 2.7142 14.7564 2.7142 14.7564C2.72294 14.5621 2.45409 14.5676 2.28321 14.6255C2.3477 14.4016 2.47996 14.2806 2.78606 14.3112C2.71176 14.2802 2.63258 14.2103 2.63258 14.0756C2.63263 13.8933 2.78047 13.6914 2.87752 13.6318L2.92605 15.529L2.92603 15.529Z" fill="#FEC50C"/>
<path d="M2.87454 22.2495C2.87454 22.2495 3.10518 22.4434 3.18352 22.3461C3.30952 22.1898 2.79616 21.4109 2.79616 21.1366C2.79616 20.6864 3.09657 20.564 3.46751 20.4997C3.71642 20.4565 4.12173 20.5177 4.12173 20.5177C4.04541 20.6203 3.99578 20.6505 3.86718 20.6587C4.01034 20.733 4.15612 20.8944 4.15612 21.1455C4.15612 21.5328 3.99669 21.6925 3.99669 22.1291C3.99669 22.3713 4.19531 22.6797 4.19531 22.6797C3.84422 22.6446 3.67022 22.3195 3.76922 22.0597C3.71334 22.0516 3.66261 22.0642 3.61902 22.1055C3.59334 22.0335 3.6339 21.9499 3.68822 21.8779C3.64446 21.8545 3.61233 21.8685 3.54263 21.8829C3.54926 21.8087 3.5937 21.7299 3.70247 21.6557C3.38685 21.7377 3.19264 21.5177 3.19264 21.2874C3.19264 21.1134 3.31454 20.9887 3.4337 20.9887C3.47219 20.9887 3.52876 21.0046 3.56066 21.0284C3.58317 20.9806 3.57158 20.9165 3.54842 20.8686C3.63573 20.8917 3.69117 20.9436 3.65171 21.0515C3.71879 21.0577 3.77214 21.0803 3.80843 21.1235C3.77166 21.1706 3.71586 21.1977 3.65171 21.1955C3.70055 21.2963 3.64612 21.3527 3.5668 21.3985C3.5668 21.3985 3.61725 21.1955 3.48844 21.1955C3.43053 21.1955 3.37775 21.2144 3.37775 21.2998C3.37775 21.3741 3.44272 21.477 3.59294 21.4705C3.74313 21.4639 3.8649 21.3669 3.8649 21.1272C3.8649 20.906 3.68649 20.796 3.45138 20.7888C3.23939 20.7823 3.07938 20.8971 3.07938 21.1158C3.07938 21.4069 3.49958 22.0704 3.49958 22.3298C3.49958 22.5244 3.32457 22.633 3.15333 22.633C2.93128 22.633 2.74394 22.4132 2.74394 22.4132L2.87438 22.2496L2.87454 22.2495Z" fill="#FEC50C"/>
<path d="M2.82788 16.9886C2.82788 16.5021 3.26463 16.2521 3.60783 16.2521C4.07021 16.2521 4.31641 16.5286 4.31641 16.8905C4.31641 17.0956 4.27882 17.2243 4.18424 17.4207C4.18424 17.4207 3.42152 19.0069 3.12457 19.6203C3.08753 19.6969 3.07558 19.784 3.07558 19.9117C3.07558 20.1089 3.26686 20.27 3.46743 20.275C3.65026 20.2796 3.84946 20.1045 3.84946 19.9051C3.84946 19.6629 3.7238 19.5549 3.59477 19.5549C3.43599 19.5549 3.37273 19.6202 3.37273 19.7316C3.37273 19.8093 3.41024 19.8429 3.46417 19.8429C3.60034 19.8429 3.56211 19.6596 3.56211 19.6596C3.62974 19.6744 3.68533 19.7435 3.65355 19.8298C3.70491 19.8412 3.75126 19.8687 3.78579 19.9084C3.74929 19.9438 3.70741 19.9711 3.65355 19.9804C3.68545 20.0857 3.64282 20.1371 3.55069 20.1588C3.56929 20.1183 3.56991 20.081 3.56374 20.0459C3.41871 20.0871 3.1964 20.0215 3.1964 19.7709C3.1964 19.5222 3.36905 19.3127 3.69274 19.365C3.61575 19.3282 3.57658 19.2529 3.56866 19.1686C3.62746 19.1915 3.69274 19.1948 3.69274 19.1948C3.65489 19.1281 3.60233 19.0706 3.60459 18.9395C3.66459 18.9668 3.72034 19.0173 3.79724 18.9854C3.67652 18.7478 3.82484 18.4211 4.20214 18.3438C4.06405 18.5056 3.99644 18.6804 3.99644 18.8544C3.99644 19.4183 4.15316 19.5131 4.15316 19.9051C4.15316 20.0692 4.06885 20.2463 3.90173 20.3667V20.3601C4.01218 20.3897 4.08293 20.4441 4.12361 20.518C3.87125 20.5896 3.50441 20.5882 3.30747 20.5107C3.08105 20.4845 2.92299 20.3108 2.87643 20.2226C2.82987 20.1346 2.73941 19.8158 2.87643 19.5288C3.02643 19.2146 3.73352 17.7153 3.95398 17.244C4.00073 17.144 4.0291 17.038 4.0291 16.9232C4.0291 16.6345 3.76462 16.5337 3.61438 16.5337C3.43479 16.5337 3.25193 16.6705 3.25193 16.8414C3.25193 16.9496 3.31073 17.0149 3.39562 17.0149C3.59861 17.0149 3.58628 16.8422 3.54581 16.7334C3.67215 16.7902 3.74559 16.8916 3.72541 16.9985C3.79693 17.0083 3.86501 17.0422 3.92785 17.1131C3.87841 17.1755 3.81812 17.2227 3.72541 17.2244C3.76589 17.3902 3.65485 17.4604 3.54581 17.4993C3.5803 17.3775 3.60293 17.2374 3.39562 17.2374C3.24442 17.2374 3.12543 17.2112 3.05602 17.113C3.05194 17.244 3.0397 17.7612 3.0397 17.7612C3.03097 17.9555 3.29981 17.95 3.47069 17.8921C3.40621 18.116 3.27394 18.237 2.96785 18.2063C3.04215 18.2374 3.12133 18.3073 3.12133 18.442C3.12128 18.6242 2.97344 18.8261 2.87638 18.8858L2.82785 16.9886L2.82788 16.9886Z" fill="#FEC50C"/>
<path d="M2.82788 15.529C2.82788 16.0154 3.26463 16.2655 3.60783 16.2655C4.07021 16.2655 4.31641 15.989 4.31641 15.6271C4.31641 15.422 4.27882 15.2933 4.18424 15.0969C4.18424 15.0969 3.42152 13.5107 3.12457 12.8972C3.08753 12.8207 3.07558 12.7336 3.07558 12.6059C3.07558 12.4087 3.26686 12.2475 3.46743 12.2426C3.65026 12.238 3.84946 12.413 3.84946 12.6125C3.84946 12.8547 3.7238 12.9627 3.59477 12.9627C3.43599 12.9627 3.37273 12.8974 3.37273 12.7859C3.37273 12.7083 3.41024 12.6747 3.46417 12.6747C3.60034 12.6747 3.56211 12.858 3.56211 12.858C3.62974 12.8432 3.68533 12.774 3.65355 12.6877C3.70491 12.6764 3.75126 12.6489 3.78579 12.6092C3.74929 12.5738 3.70741 12.5465 3.65355 12.5372C3.68545 12.4319 3.64282 12.3804 3.55069 12.3588C3.56929 12.3993 3.56991 12.4366 3.56374 12.4717C3.41871 12.4305 3.1964 12.4961 3.1964 12.7467C3.1964 12.9954 3.36905 13.2049 3.69274 13.1525C3.61575 13.1894 3.57658 13.2647 3.56866 13.3489C3.62746 13.326 3.69274 13.3228 3.69274 13.3228C3.65489 13.3895 3.60233 13.447 3.60459 13.5781C3.66459 13.5508 3.72034 13.5003 3.79724 13.5322C3.67652 13.7698 3.82484 14.0965 4.20214 14.1738C4.06405 14.0119 3.99644 13.8372 3.99644 13.6632C3.99644 13.0993 4.15316 13.0045 4.15316 12.6125C4.15316 12.4484 4.06885 12.2713 3.90173 12.1509V12.1575C4.01218 12.1279 4.08293 12.0735 4.12361 11.9996C3.87125 11.928 3.50441 11.9293 3.30747 12.0068C3.08105 12.0331 2.92299 12.2068 2.87643 12.2949C2.82987 12.383 2.73941 12.7018 2.87643 12.9888C3.02643 13.3029 3.73352 14.8023 3.95398 15.2736C4.00073 15.3735 4.0291 15.4796 4.0291 15.5944C4.0291 15.8831 3.76462 15.9839 3.61438 15.9839C3.43479 15.9839 3.25193 15.8471 3.25193 15.6762C3.25193 15.5679 3.31073 15.5027 3.39562 15.5027C3.59861 15.5027 3.58628 15.6754 3.54581 15.7842C3.67215 15.7274 3.74559 15.626 3.72541 15.5191C3.79693 15.5093 3.86501 15.4754 3.92785 15.4045C3.87841 15.3421 3.81812 15.2949 3.72541 15.2932C3.76589 15.1273 3.65485 15.0572 3.54581 15.0183C3.5803 15.14 3.60293 15.2801 3.39562 15.2801C3.24442 15.2801 3.12543 15.3063 3.05602 15.4045C3.05194 15.2736 3.0397 14.7564 3.0397 14.7564C3.03097 14.5621 3.29981 14.5676 3.47069 14.6255C3.40621 14.4016 3.27394 14.2806 2.96785 14.3112C3.04215 14.2802 3.12133 14.2103 3.12133 14.0756C3.12128 13.8933 2.97344 13.6914 2.87638 13.6318L2.82785 15.529L2.82788 15.529Z" fill="#FEC50C"/>
</g>
<defs>
<clipPath id="clip0_358_3943">
<rect width="24" height="24" rx="12" fill="white"/>
</clipPath>
</defs>
</svg>
