<svg width="24" height="24" viewBox="0 0 24 24" fill="none" xmlns="http://www.w3.org/2000/svg">
<g clip-path="url(#clip0_358_4136)">
<path d="M-6 0H30V24H-6V0Z" fill="#ED1C24"/>
<path d="M-6 6H30V18H-6V6Z" fill="white"/>
<path d="M11.8368 6C11.5792 6.5424 11.0941 6.92148 10.6305 7.28024C10.5542 7.34684 10.3646 7.47584 10.5021 7.57404C10.62 7.44232 10.9435 7.61676 10.7555 7.75844C10.5871 7.91604 10.3552 7.97376 10.1682 8.10384C10.0026 8.19384 9.83461 8.28776 9.70329 8.42548C9.69437 8.64068 9.97025 8.52156 10.0822 8.6112C10.228 8.76704 10.0204 9.02984 9.82904 8.96972C9.5844 8.97724 9.41545 9.19252 9.32289 9.39788C9.13153 9.6938 8.76889 9.78148 8.48013 9.94988C8.31492 10.0462 8.15465 10.1527 8.00089 10.2651C7.80261 10.4007 7.97509 10.6691 8.18609 10.6032C8.41381 10.5805 8.61869 10.4016 8.85449 10.4531C9.06829 10.5282 9.12828 10.8077 9.05544 11.0028C9.00144 11.159 8.87065 11.269 8.76589 11.391C8.59577 11.5634 8.37328 11.6753 8.13868 11.7286C7.912 11.8048 7.70821 11.9436 7.55949 12.1312C7.38693 12.3049 7.21501 12.4815 7.01661 12.6264C6.95393 12.7863 7.1308 12.9225 7.2782 12.9182C7.58892 12.8986 7.80421 12.6444 8.06881 12.5137C8.28841 12.415 8.54681 12.6517 8.49309 12.8804C8.47609 13.103 8.26772 13.2159 8.08248 13.2844C7.53788 13.5582 7.06501 13.9552 6.64517 14.3932C6.55833 14.5704 6.31957 14.5182 6.19105 14.6417C6.10733 14.7979 6.31744 14.8803 6.44284 14.8643C6.98164 14.7995 7.48445 14.5717 7.96073 14.3212C8.13785 14.2365 8.30417 14.125 8.48833 14.0576C8.66129 14.0148 8.90249 14.09 8.93341 14.2868C8.93317 14.4947 8.72728 14.6098 8.56424 14.691C8.06144 14.9551 7.50965 15.1012 6.97225 15.2758C6.77105 15.2196 6.61945 15.5775 6.84017 15.6419C7.07353 15.7219 7.32165 15.6577 7.56037 15.6472C8.29857 15.5342 8.94417 15.1347 9.63417 14.8765C9.92105 14.783 10.2596 14.9135 10.4012 15.1823C10.5434 15.4219 10.5304 15.737 10.3804 15.9698C10.1433 16.477 9.7828 16.9433 9.29888 17.235C8.99512 17.3854 8.64057 17.4429 8.38021 17.6731C8.13941 17.7525 8.50092 18.0778 8.55316 17.8196C8.69784 17.6223 8.95305 17.5633 9.18449 17.5551C9.53237 17.5173 9.90181 17.4531 10.1721 17.2123C10.4144 17.0241 10.6532 16.7645 10.9822 16.7605C11.1641 16.782 11.344 16.9282 11.5286 16.839C11.6902 16.765 11.9437 16.8084 11.9859 17.007C12.0631 17.2395 12.3026 17.3452 12.4926 17.4696C12.5614 17.5662 12.7899 17.8152 12.8426 17.5956C12.8 17.439 12.8608 17.1994 13.0662 17.2517C13.2457 17.2597 13.4167 17.3259 13.5958 17.3368C13.8343 17.3862 14.0332 17.5494 14.1687 17.7466C14.2618 17.8753 14.4659 18.0963 14.6176 17.9257C14.7116 17.7493 14.532 17.6021 14.3858 17.5391C14.1726 17.407 13.9903 17.231 13.8039 17.0644C13.5291 16.8078 13.2918 16.4814 13.2482 16.098C13.189 15.7158 13.2202 15.326 13.27 14.9448C13.3328 14.6994 13.6467 14.5654 13.8661 14.6958C14.1749 14.8366 14.4815 15.0382 14.8355 15.0164C15.347 15.0274 15.8727 14.9295 16.3726 15.0777C16.859 15.2309 17.2068 15.6414 17.6807 15.8191C17.7868 15.8836 17.9225 15.8222 17.9614 15.7089C18.0083 15.6071 17.9752 15.4768 17.8771 15.4188C17.3279 14.8644 16.5774 14.5952 15.9419 14.162C15.7419 14.1112 15.7054 13.7893 15.8904 13.6964C16.1335 13.5197 16.4776 13.602 16.6932 13.7842C16.8754 13.8908 17.0806 13.9708 17.2944 13.971C17.5133 13.9024 17.4072 13.5857 17.2112 13.5618C16.856 13.3613 16.6016 13.0322 16.2939 12.7714C16.1167 12.6214 15.9228 12.4696 15.6847 12.4405C15.5546 12.4168 15.4215 12.4116 15.2896 12.4204C15.166 12.286 15.3308 12.0802 15.4907 12.0971C15.6548 12.1081 15.8179 12.1203 15.9818 12.0975C16.1649 12.0841 16.3479 12.0651 16.5316 12.0639C16.68 12.1649 16.9764 11.9904 16.8426 11.8162C16.6963 11.688 16.4848 11.6992 16.31 11.6334C16.0032 11.5331 15.6907 11.4509 15.3741 11.3874C15.1528 11.3742 15.1801 11.0829 15.3746 11.0508C15.502 11.0033 15.6126 11.1011 15.7348 11.1162C15.9436 11.1611 16.159 11.1605 16.3676 11.206C16.5446 11.1187 16.4078 10.8603 16.2478 10.8452C15.8703 10.7102 15.544 10.4666 15.225 10.2295C14.8728 9.96468 14.5534 9.6584 14.1969 9.39964C14.0675 9.31952 13.8555 9.29644 13.8215 9.1188C13.8095 8.95536 14.0018 8.88096 14.1382 8.91916C14.3317 8.97628 14.5119 9.07576 14.7091 9.1246C14.8638 9.15092 15.0233 9.19668 15.1724 9.1772C15.3617 9.05824 15.0912 8.98224 14.9933 8.941C14.741 8.80488 14.5168 8.62356 14.2896 8.4506C14.0977 8.2868 14.4524 8.21444 14.5744 8.27752C14.7784 8.36284 14.8017 8.0656 14.6492 7.9908C14.4695 7.9144 14.315 7.7876 14.1521 7.67696C13.8577 7.46744 13.5244 7.30156 13.1625 7.25548C12.7568 7.21472 12.3781 6.98144 12.1629 6.63448C12.0294 6.43676 11.9314 6.21808 11.8368 6ZM10.5045 8.27604C10.7136 8.28224 10.6814 8.65912 10.4756 8.63396C10.2756 8.62108 10.2879 8.23556 10.5045 8.27604ZM12.4768 8.479C12.6803 8.4426 12.7234 8.81388 12.5201 8.83132C12.3082 8.86924 12.2298 8.45548 12.4768 8.479ZM11.8991 8.5274C12.1054 8.56796 12.0687 8.92732 11.8605 8.93044C11.7082 8.96436 11.544 9.06832 11.39 8.99044C11.2646 8.85788 11.4458 8.66192 11.5856 8.61884C11.6929 8.5972 11.7916 8.54848 11.8991 8.5274ZM13.2286 8.52896C13.4274 8.60144 13.3573 8.95236 13.1476 8.94788C12.9494 8.97448 12.857 8.64368 13.0419 8.56524C13.1018 8.54404 13.1645 8.52616 13.2286 8.52896ZM10.9858 8.927C11.132 9.06612 11.0457 9.3346 10.8654 9.39876C10.7356 9.471 10.5584 9.64196 10.417 9.50128C10.3402 9.32948 10.5329 9.20012 10.6462 9.10476C10.7474 9.02612 10.859 8.95472 10.9858 8.927ZM12.6552 9.70288C12.8645 9.80168 12.7582 10.1788 12.5286 10.1554C12.3399 10.1076 12.3646 9.78404 12.5546 9.75824C12.5905 9.74448 12.6234 9.72424 12.6552 9.70288ZM11.9912 9.74032C12.1869 9.83196 12.0374 10.1586 11.8403 10.1115C11.6359 10.0875 11.6396 9.72816 11.8651 9.7606C11.9076 9.75852 11.9514 9.7574 11.9912 9.74032ZM13.4226 9.92768C13.6371 9.86112 13.8954 10.0821 13.8258 10.3062C13.7302 10.48 13.4938 10.502 13.3244 10.437C13.13 10.4274 12.9992 10.1351 13.1724 10.0113C13.2441 9.95716 13.3344 9.93488 13.4226 9.92768ZM10.2538 9.98388C10.4312 9.88736 10.6196 10.1774 10.4687 10.3053C10.3688 10.4522 10.1122 10.5122 9.99908 10.3489C9.90509 10.1893 10.057 9.92128 10.2538 9.98388ZM9.43544 10.1212C9.63664 10.1488 9.76776 10.3315 9.84216 10.5056C9.86028 10.7176 9.54737 10.834 9.41089 10.6797C9.25737 10.5834 9.12301 10.3854 9.20349 10.2016C9.25309 10.1286 9.35185 10.0984 9.43549 10.1212H9.43544ZM14.3316 10.8877C14.55 10.8302 14.7085 11.1792 14.521 11.3054C14.3496 11.4611 14.0162 11.2548 14.1056 11.0326C14.15 10.9502 14.2389 10.8955 14.3316 10.8877ZM11.5522 11.2858C11.7353 11.3091 11.676 11.6265 11.5067 11.6158C11.325 11.5821 11.3666 11.2679 11.5522 11.2858ZM10.6234 11.4544C10.7727 11.3487 10.9654 11.6066 10.8411 11.7268C10.6922 11.8317 10.4991 11.5779 10.6234 11.4544ZM12.1002 11.4856C12.2733 11.5908 12.376 11.7869 12.3976 11.9848C12.3146 12.1697 11.9942 12.1252 11.9581 11.9282C11.8948 11.7725 11.9531 11.5722 12.1002 11.4856L12.1002 11.4856ZM12.6156 11.7916C12.8386 11.7356 12.7586 12.2018 12.5723 12.0401C12.5104 11.9666 12.5436 11.8456 12.6155 11.7916H12.6156ZM9.37885 12.1163C9.52657 12.073 9.74188 12.1185 9.78264 12.288C9.79984 12.4474 9.62465 12.5302 9.49625 12.5697C9.29053 12.6332 9.08928 12.7375 8.868 12.7235C8.70212 12.6287 8.64261 12.4347 8.58349 12.2655C8.74353 12.1154 8.97924 12.1594 9.17764 12.1219C9.24464 12.1184 9.31177 12.1168 9.37885 12.1163ZM14.3996 12.8469C14.588 12.7545 14.7906 13.0536 14.6329 13.1933C14.4356 13.4204 14.0557 13.4626 13.8197 13.2718C13.7914 13.0708 13.9921 12.9248 14.1705 12.896C14.2455 12.8748 14.3201 12.8432 14.3996 12.8469ZM15.4586 13.0764C15.6728 13.0395 15.8414 13.3449 15.6885 13.503C15.5438 13.7212 15.1987 13.7784 15.0014 13.5996C14.9245 13.4187 15.0806 13.2302 15.2466 13.1722C15.318 13.1418 15.3856 13.1028 15.4586 13.0764ZM10.1335 13.4011C10.3318 13.3815 10.5134 13.5782 10.4874 13.7737C10.6309 13.9149 10.3768 14.1781 10.2338 14.0318C10.1078 13.8791 10.1084 13.672 10.0596 13.4892C10.0574 13.4486 10.0875 13.3961 10.1335 13.4011ZM11.6556 13.515C11.8606 13.4264 12.1258 13.6716 12.0142 13.8792C11.9344 14.0483 11.6236 13.9916 11.634 13.7958C11.6334 13.7021 11.6259 13.606 11.6556 13.515V13.515ZM10.9151 13.6477C11.1206 13.6006 11.3092 13.867 11.195 14.0448C10.99 14.063 10.8837 13.8198 10.9151 13.6477Z" fill="#00A651"/>
</g>
<defs>
<clipPath id="clip0_358_4136">
<rect width="24" height="24" rx="12" fill="white"/>
</clipPath>
</defs>
</svg>
