<svg width="24" height="24" viewBox="0 0 24 24" fill="none" xmlns="http://www.w3.org/2000/svg">
<g clip-path="url(#clip0_358_1321)">
<path d="M36 0H0V24H36V0Z" fill="#002B7F"/>
<path d="M36 12H0V24H36V12Z" fill="#CE1126"/>
<path d="M11.6567 4.89304L11.5832 7.39304H9.04642C8.73431 6.78631 8.47656 6.27099 8.47656 5.57319C8.47656 4.9892 8.93589 4.52539 9.59789 4.52539C10.2987 4.52539 11.0686 4.76153 11.6567 4.89304Z" fill="#FFD83D"/>
<path d="M8.78125 5.00586V6.44887V5.00586Z" fill="#FFD83D"/>
<path d="M8.78125 5.00586V6.44887" stroke="black" stroke-width="0.1" stroke-linecap="round" stroke-linejoin="round"/>
<path d="M8.98438 4.85938V6.78074V4.85938Z" fill="#FFD83D"/>
<path d="M8.98438 4.85938V6.78074" stroke="black" stroke-width="0.1" stroke-linecap="round" stroke-linejoin="round"/>
<path d="M9.19141 4.75781V7.04682V4.75781Z" fill="#FFD83D"/>
<path d="M9.19141 4.75781V7.04682" stroke="black" stroke-width="0.1" stroke-linecap="round" stroke-linejoin="round"/>
<path d="M9.39453 4.71094V6.50619V4.71094Z" fill="#FFD83D"/>
<path d="M9.39453 4.71094V6.50619" stroke="black" stroke-width="0.1" stroke-linecap="round" stroke-linejoin="round"/>
<path d="M9.59766 4.70117V6.51423V4.70117Z" fill="#FFD83D"/>
<path d="M9.59766 4.70117V6.51423" stroke="black" stroke-width="0.1" stroke-linecap="round" stroke-linejoin="round"/>
<path d="M9.80078 4.63867V6.51408V4.63867Z" fill="#FFD83D"/>
<path d="M9.80078 4.63867V6.51408" stroke="black" stroke-width="0.1" stroke-linecap="round" stroke-linejoin="round"/>
<path d="M10.0039 4.63867V6.51408V4.63867Z" fill="#FFD83D"/>
<path d="M10.0039 4.63867V6.51408" stroke="black" stroke-width="0.1" stroke-linecap="round" stroke-linejoin="round"/>
<path d="M10.207 4.65625V6.53165V4.65625Z" fill="#FFD83D"/>
<path d="M10.207 4.65625V6.53165" stroke="black" stroke-width="0.1" stroke-linecap="round" stroke-linejoin="round"/>
<path d="M10.4141 4.67578V6.55119V4.67578Z" fill="#FFD83D"/>
<path d="M10.4141 4.67578V6.55118" stroke="black" stroke-width="0.1" stroke-linecap="round" stroke-linejoin="round"/>
<path d="M10.6172 4.79492V6.67033V4.79492Z" fill="#FFD83D"/>
<path d="M10.6172 4.79492V6.67033" stroke="black" stroke-width="0.1" stroke-linecap="round" stroke-linejoin="round"/>
<path d="M10.8203 4.8125V6.92687V4.8125Z" fill="#FFD83D"/>
<path d="M10.8203 4.8125V6.92687" stroke="black" stroke-width="0.1" stroke-linecap="round" stroke-linejoin="round"/>
<path d="M11.0234 4.8125V6.6879V4.8125Z" fill="#FFD83D"/>
<path d="M11.0234 4.8125V6.6879" stroke="black" stroke-width="0.1" stroke-linecap="round" stroke-linejoin="round"/>
<path d="M11.2266 4.8125V6.6879V4.8125Z" fill="#FFD83D"/>
<path d="M11.2266 4.8125V6.6879" stroke="black" stroke-width="0.1" stroke-linecap="round" stroke-linejoin="round"/>
<path d="M10.0602 4.7168C10.4907 4.78781 11.4364 5.23028 11.3286 5.82893C11.1757 6.6773 10.6803 6.33683 10.0234 6.21496L9.52711 6.3804C9.34952 6.56167 9.088 6.72774 8.9113 6.50908H8.61719V7.65797H11.8709V4.88224L10.0602 4.7168Z" fill="black" stroke="black" stroke-width="0.1" stroke-linecap="round" stroke-linejoin="round"/>
<path d="M11.514 4.71749C11.6232 4.71749 11.7116 4.62901 11.7116 4.51988C11.7116 4.41074 11.6232 4.32227 11.514 4.32227C11.4049 4.32227 11.3164 4.41074 11.3164 4.51988C11.3164 4.62901 11.4049 4.71749 11.514 4.71749Z" fill="#FFD83D" stroke="black" stroke-width="0.133333" stroke-linecap="round" stroke-linejoin="round"/>
<path d="M11.0726 4.61006C11.1817 4.61006 11.2702 4.52159 11.2702 4.41245C11.2702 4.30332 11.1817 4.21484 11.0726 4.21484C10.9635 4.21484 10.875 4.30332 10.875 4.41245C10.875 4.52159 10.9635 4.61006 11.0726 4.61006Z" fill="#FFD83D" stroke="black" stroke-width="0.133333" stroke-linecap="round" stroke-linejoin="round"/>
<path d="M10.6195 4.49678C10.7286 4.49678 10.8171 4.40831 10.8171 4.29917C10.8171 4.19004 10.7286 4.10156 10.6195 4.10156C10.5103 4.10156 10.4219 4.19004 10.4219 4.29917C10.4219 4.40831 10.5103 4.49678 10.6195 4.49678Z" fill="#FFD83D" stroke="black" stroke-width="0.133333" stroke-linecap="round" stroke-linejoin="round"/>
<path d="M10.1703 4.42256C10.2794 4.42256 10.3679 4.33409 10.3679 4.22495C10.3679 4.11582 10.2794 4.02734 10.1703 4.02734C10.0611 4.02734 9.97266 4.11582 9.97266 4.22495C9.97266 4.33409 10.0611 4.42256 10.1703 4.42256Z" fill="#FFD83D" stroke="black" stroke-width="0.133333" stroke-linecap="round" stroke-linejoin="round"/>
<path d="M9.71714 4.37764C9.82628 4.37764 9.91475 4.28917 9.91475 4.18003C9.91475 4.0709 9.82628 3.98242 9.71714 3.98242C9.608 3.98242 9.51953 4.0709 9.51953 4.18003C9.51953 4.28917 9.608 4.37764 9.71714 4.37764Z" fill="#FFD83D" stroke="black" stroke-width="0.133333" stroke-linecap="round" stroke-linejoin="round"/>
<path d="M9.27183 4.40303C9.38097 4.40303 9.46944 4.31456 9.46944 4.20542C9.46944 4.09629 9.38097 4.00781 9.27183 4.00781C9.16269 4.00781 9.07422 4.09629 9.07422 4.20542C9.07422 4.31456 9.16269 4.40303 9.27183 4.40303Z" fill="#FFD83D" stroke="black" stroke-width="0.133333" stroke-linecap="round" stroke-linejoin="round"/>
<path d="M8.84995 4.54756C8.95909 4.54756 9.04756 4.45909 9.04756 4.34995C9.04756 4.24082 8.95909 4.15234 8.84995 4.15234C8.74082 4.15234 8.65234 4.24082 8.65234 4.34995C8.65234 4.45909 8.74082 4.54756 8.84995 4.54756Z" fill="#FFD83D" stroke="black" stroke-width="0.133333" stroke-linecap="round" stroke-linejoin="round"/>
<path d="M8.49449 4.80928C8.60362 4.80928 8.6921 4.72081 8.6921 4.61167C8.6921 4.50254 8.60362 4.41406 8.49449 4.41406C8.38535 4.41406 8.29688 4.50254 8.29688 4.61167C8.29688 4.72081 8.38535 4.80928 8.49449 4.80928Z" fill="#FFD83D" stroke="black" stroke-width="0.133333" stroke-linecap="round" stroke-linejoin="round"/>
<path d="M8.24058 5.17452C8.34972 5.17452 8.43819 5.08604 8.43819 4.97691C8.43819 4.86777 8.34972 4.7793 8.24058 4.7793C8.13144 4.7793 8.04297 4.86777 8.04297 4.97691C8.04297 5.08604 8.13144 5.17452 8.24058 5.17452Z" fill="#FFD83D" stroke="black" stroke-width="0.133333" stroke-linecap="round" stroke-linejoin="round"/>
<path d="M8.11949 5.60421C8.22862 5.60421 8.3171 5.51573 8.3171 5.40659C8.3171 5.29746 8.22862 5.20898 8.11949 5.20898C8.01035 5.20898 7.92188 5.29746 7.92188 5.40659C7.92188 5.51573 8.01035 5.60421 8.11949 5.60421Z" fill="#FFD83D" stroke="black" stroke-width="0.133333" stroke-linecap="round" stroke-linejoin="round"/>
<path d="M8.12339 6.05147C8.23253 6.05147 8.321 5.963 8.321 5.85386C8.321 5.74472 8.23253 5.65625 8.12339 5.65625C8.01425 5.65625 7.92578 5.74472 7.92578 5.85386C7.92578 5.963 8.01425 6.05147 8.12339 6.05147Z" fill="#FFD83D" stroke="black" stroke-width="0.133333" stroke-linecap="round" stroke-linejoin="round"/>
<path d="M8.20933 6.48702C8.31847 6.48702 8.40694 6.39854 8.40694 6.28941C8.40694 6.18027 8.31847 6.0918 8.20933 6.0918C8.10019 6.0918 8.01172 6.18027 8.01172 6.28941C8.01172 6.39854 8.10019 6.48702 8.20933 6.48702Z" fill="#FFD83D" stroke="black" stroke-width="0.133333" stroke-linecap="round" stroke-linejoin="round"/>
<path d="M11.6052 4.78171L11.5869 5.03906C11.0952 4.96374 10.3983 4.6898 9.74862 4.6898C9.14837 4.6898 8.68245 4.92991 8.68245 5.53539C8.68245 6.13212 8.93516 6.67479 9.27068 7.22656L8.92142 7.392C8.60931 6.78527 8.35156 6.26995 8.35156 5.57215C8.35156 4.98817 8.81089 4.41406 9.60156 4.41406C10.3024 4.41406 11.0172 4.65021 11.6052 4.78171Z" fill="#FFD83D" stroke="black" stroke-width="0.133333" stroke-linecap="round" stroke-linejoin="round"/>
<path d="M12.1089 4.89304L12.1824 7.39304H14.7192C15.0313 6.78631 15.2891 6.27099 15.2891 5.57319C15.2891 4.9892 14.8297 4.52539 14.1677 4.52539C13.467 4.52539 12.697 4.76153 12.1089 4.89304Z" fill="#FFD83D"/>
<path d="M14.9844 5.00586V6.44887V5.00586Z" fill="#FFD83D"/>
<path d="M14.9844 5.00586V6.44887" stroke="black" stroke-width="0.1" stroke-linecap="round" stroke-linejoin="round"/>
<path d="M14.7812 4.85938V6.78074V4.85938Z" fill="#FFD83D"/>
<path d="M14.7812 4.85938V6.78074" stroke="black" stroke-width="0.1" stroke-linecap="round" stroke-linejoin="round"/>
<path d="M14.5742 4.75781V7.04682V4.75781Z" fill="#FFD83D"/>
<path d="M14.5742 4.75781V7.04682" stroke="black" stroke-width="0.1" stroke-linecap="round" stroke-linejoin="round"/>
<path d="M14.3711 4.71094V6.50619V4.71094Z" fill="#FFD83D"/>
<path d="M14.3711 4.71094V6.50619" stroke="black" stroke-width="0.1" stroke-linecap="round" stroke-linejoin="round"/>
<path d="M14.168 4.70117V6.51423V4.70117Z" fill="#FFD83D"/>
<path d="M14.168 4.70117V6.51423" stroke="black" stroke-width="0.1" stroke-linecap="round" stroke-linejoin="round"/>
<path d="M13.9648 4.63867V6.51408V4.63867Z" fill="#FFD83D"/>
<path d="M13.9648 4.63867V6.51408" stroke="black" stroke-width="0.1" stroke-linecap="round" stroke-linejoin="round"/>
<path d="M13.7617 4.63867V6.51408V4.63867Z" fill="#FFD83D"/>
<path d="M13.7617 4.63867V6.51408" stroke="black" stroke-width="0.1" stroke-linecap="round" stroke-linejoin="round"/>
<path d="M13.5586 4.65625V6.53165V4.65625Z" fill="#FFD83D"/>
<path d="M13.5586 4.65625V6.53165" stroke="black" stroke-width="0.1" stroke-linecap="round" stroke-linejoin="round"/>
<path d="M13.3516 4.67578V6.55119V4.67578Z" fill="#FFD83D"/>
<path d="M13.3516 4.67578V6.55118" stroke="black" stroke-width="0.1" stroke-linecap="round" stroke-linejoin="round"/>
<path d="M13.1484 4.79492V6.67033V4.79492Z" fill="#FFD83D"/>
<path d="M13.1484 4.79492V6.67033" stroke="black" stroke-width="0.1" stroke-linecap="round" stroke-linejoin="round"/>
<path d="M12.9453 4.8125V6.92687V4.8125Z" fill="#FFD83D"/>
<path d="M12.9453 4.8125V6.92687" stroke="black" stroke-width="0.1" stroke-linecap="round" stroke-linejoin="round"/>
<path d="M12.7422 4.8125V6.6879V4.8125Z" fill="#FFD83D"/>
<path d="M12.7422 4.8125V6.6879" stroke="black" stroke-width="0.1" stroke-linecap="round" stroke-linejoin="round"/>
<path d="M12.5391 4.8125V6.6879V4.8125Z" fill="#FFD83D"/>
<path d="M12.5391 4.8125V6.6879" stroke="black" stroke-width="0.1" stroke-linecap="round" stroke-linejoin="round"/>
<path d="M13.7054 4.7168C13.2749 4.78781 12.3292 5.23028 12.437 5.82893C12.5899 6.6773 13.0854 6.33683 13.7422 6.21496L14.2385 6.3804C14.4161 6.56167 14.6776 6.72774 14.8543 6.50908H15.1484V7.65797H11.8948V4.88224L13.7054 4.7168Z" fill="black" stroke="black" stroke-width="0.1" stroke-linecap="round" stroke-linejoin="round"/>
<path d="M12.2516 4.71749C12.1425 4.71749 12.054 4.62901 12.054 4.51988C12.054 4.41074 12.1425 4.32227 12.2516 4.32227C12.3607 4.32227 12.4492 4.41074 12.4492 4.51988C12.4492 4.62901 12.3607 4.71749 12.2516 4.71749Z" fill="#FFD83D" stroke="black" stroke-width="0.133333" stroke-linecap="round" stroke-linejoin="round"/>
<path d="M12.693 4.61006C12.5839 4.61006 12.4954 4.52159 12.4954 4.41245C12.4954 4.30332 12.5839 4.21484 12.693 4.21484C12.8022 4.21484 12.8906 4.30332 12.8906 4.41245C12.8906 4.52159 12.8022 4.61006 12.693 4.61006Z" fill="#FFD83D" stroke="black" stroke-width="0.133333" stroke-linecap="round" stroke-linejoin="round"/>
<path d="M13.1461 4.49678C13.037 4.49678 12.9485 4.40831 12.9485 4.29917C12.9485 4.19004 13.037 4.10156 13.1461 4.10156C13.2553 4.10156 13.3438 4.19004 13.3438 4.29917C13.3438 4.40831 13.2553 4.49678 13.1461 4.49678Z" fill="#FFD83D" stroke="black" stroke-width="0.133333" stroke-linecap="round" stroke-linejoin="round"/>
<path d="M13.5954 4.42256C13.4862 4.42256 13.3977 4.33409 13.3977 4.22495C13.3977 4.11582 13.4862 4.02734 13.5954 4.02734C13.7045 4.02734 13.793 4.11582 13.793 4.22495C13.793 4.33409 13.7045 4.42256 13.5954 4.42256Z" fill="#FFD83D" stroke="black" stroke-width="0.133333" stroke-linecap="round" stroke-linejoin="round"/>
<path d="M14.0485 4.37764C13.9393 4.37764 13.8509 4.28917 13.8509 4.18003C13.8509 4.0709 13.9393 3.98242 14.0485 3.98242C14.1576 3.98242 14.2461 4.0709 14.2461 4.18003C14.2461 4.28917 14.1576 4.37764 14.0485 4.37764Z" fill="#FFD83D" stroke="black" stroke-width="0.133333" stroke-linecap="round" stroke-linejoin="round"/>
<path d="M14.4938 4.40303C14.3847 4.40303 14.2962 4.31456 14.2962 4.20542C14.2962 4.09629 14.3847 4.00781 14.4938 4.00781C14.6029 4.00781 14.6914 4.09629 14.6914 4.20542C14.6914 4.31456 14.6029 4.40303 14.4938 4.40303Z" fill="#FFD83D" stroke="black" stroke-width="0.133333" stroke-linecap="round" stroke-linejoin="round"/>
<path d="M14.9157 4.54756C14.8065 4.54756 14.7181 4.45909 14.7181 4.34995C14.7181 4.24082 14.8065 4.15234 14.9157 4.15234C15.0248 4.15234 15.1133 4.24082 15.1133 4.34995C15.1133 4.45909 15.0248 4.54756 14.9157 4.54756Z" fill="#FFD83D" stroke="black" stroke-width="0.133333" stroke-linecap="round" stroke-linejoin="round"/>
<path d="M15.2711 4.80928C15.162 4.80928 15.0735 4.72081 15.0735 4.61167C15.0735 4.50254 15.162 4.41406 15.2711 4.41406C15.3803 4.41406 15.4688 4.50254 15.4688 4.61167C15.4688 4.72081 15.3803 4.80928 15.2711 4.80928Z" fill="#FFD83D" stroke="black" stroke-width="0.133333" stroke-linecap="round" stroke-linejoin="round"/>
<path d="M15.525 5.17452C15.4159 5.17452 15.3274 5.08604 15.3274 4.97691C15.3274 4.86777 15.4159 4.7793 15.525 4.7793C15.6342 4.7793 15.7227 4.86777 15.7227 4.97691C15.7227 5.08604 15.6342 5.17452 15.525 5.17452Z" fill="#FFD83D" stroke="black" stroke-width="0.133333" stroke-linecap="round" stroke-linejoin="round"/>
<path d="M15.6461 5.60421C15.537 5.60421 15.4485 5.51573 15.4485 5.40659C15.4485 5.29746 15.537 5.20898 15.6461 5.20898C15.7553 5.20898 15.8438 5.29746 15.8438 5.40659C15.8438 5.51573 15.7553 5.60421 15.6461 5.60421Z" fill="#FFD83D" stroke="black" stroke-width="0.133333" stroke-linecap="round" stroke-linejoin="round"/>
<path d="M15.6422 6.05147C15.5331 6.05147 15.4446 5.963 15.4446 5.85386C15.4446 5.74472 15.5331 5.65625 15.6422 5.65625C15.7514 5.65625 15.8398 5.74472 15.8398 5.85386C15.8398 5.963 15.7514 6.05147 15.6422 6.05147Z" fill="#FFD83D" stroke="black" stroke-width="0.133333" stroke-linecap="round" stroke-linejoin="round"/>
<path d="M15.5563 6.48702C15.4472 6.48702 15.3587 6.39854 15.3587 6.28941C15.3587 6.18027 15.4472 6.0918 15.5563 6.0918C15.6654 6.0918 15.7539 6.18027 15.7539 6.28941C15.7539 6.39854 15.6654 6.48702 15.5563 6.48702Z" fill="#FFD83D" stroke="black" stroke-width="0.133333" stroke-linecap="round" stroke-linejoin="round"/>
<path d="M12.1643 4.78171L12.1827 5.03906C12.6743 4.96374 13.3713 4.6898 14.0209 4.6898C14.6212 4.6898 15.0871 4.92991 15.0871 5.53539C15.0871 6.13212 14.8344 6.67479 14.4989 7.22656L14.8481 7.392C15.1602 6.78527 15.418 6.26995 15.418 5.57215C15.418 4.98817 14.9586 4.41406 14.168 4.41406C13.4672 4.41406 12.7524 4.65021 12.1643 4.78171Z" fill="#FFD83D" stroke="black" stroke-width="0.133333" stroke-linecap="round" stroke-linejoin="round"/>
<path d="M11.882 2.125L11.6758 2.51125L11.882 2.89625L12.0883 2.51125L11.882 2.125ZM11.882 3.1L11.6758 3.485L11.882 3.87125L12.0883 3.485L11.882 3.1Z" fill="#FFD83D" stroke="black" stroke-width="0.133333" stroke-linecap="round" stroke-linejoin="round"/>
<path d="M11.1484 2.99727L11.4737 3.20352L11.7979 2.99727L11.4737 2.79102L11.1484 2.99727ZM11.9695 2.99727L12.2937 3.20352L12.619 2.99727L12.2937 2.79102L11.9695 2.99727Z" fill="#FFD83D" stroke="black" stroke-width="0.133333" stroke-linecap="round" stroke-linejoin="round"/>
<path d="M11.8828 3.1582C11.9691 3.1582 12.0391 3.08825 12.0391 3.00195C12.0391 2.91566 11.9691 2.8457 11.8828 2.8457C11.7965 2.8457 11.7266 2.91566 11.7266 3.00195C11.7266 3.08825 11.7965 3.1582 11.8828 3.1582Z" fill="#FFD83D" stroke="black" stroke-width="0.133333" stroke-linecap="round" stroke-linejoin="round"/>
<path d="M11.883 4.41843C12.114 4.41843 12.3012 4.23119 12.3012 4.00023C12.3012 3.76927 12.114 3.58203 11.883 3.58203C11.6521 3.58203 11.4648 3.76927 11.4648 4.00023C11.4648 4.23119 11.6521 4.41843 11.883 4.41843Z" fill="#FFD83D" stroke="black" stroke-width="0.133333" stroke-linecap="round" stroke-linejoin="round"/>
<path d="M11.7766 3.5957C11.7766 3.72028 11.7757 3.79267 11.7753 3.8607C11.6745 3.86518 11.5751 3.87577 11.4778 3.89195M12.2853 3.89195C12.188 3.87577 12.0886 3.86518 11.9878 3.8607C11.9878 3.79277 11.9878 3.72059 11.9878 3.5957M11.4766 4.1032C11.6084 4.08119 11.7435 4.06945 11.8816 4.06945C12.0196 4.06945 12.1548 4.08119 12.2866 4.1032" stroke="black" stroke-width="0.1" stroke-linecap="round" stroke-linejoin="round"/>
<path d="M11.4722 4.70703C11.4325 5.39032 11.3518 6.0862 11.0859 6.59203L11.5184 6.41703C11.6695 5.84388 11.7012 5.10333 11.7472 4.75328L11.4722 4.70703ZM12.2897 4.70703L12.0147 4.75328C12.0606 5.10333 12.0924 5.84388 12.2434 6.41703L12.6759 6.59203C12.41 6.0862 12.3294 5.39032 12.2897 4.70703Z" fill="#FFD83D" stroke="black" stroke-width="0.133333" stroke-linecap="round" stroke-linejoin="round"/>
<path d="M11.8808 6.1875C11.3642 6.1875 10.9848 6.43096 10.962 7.05125C10.8358 6.82905 10.3016 6.13022 9.80328 6.22375C9.50689 6.27938 9.245 6.69038 9.28953 7.16125C9.04414 6.45605 8.32526 6.34049 7.80078 6.7575C8.26647 7.1404 8.47362 8.27089 8.86578 8.76125H11.8808H14.8958C15.2879 8.27089 15.4963 7.1404 15.962 6.7575C15.4376 6.34049 14.7187 6.45605 14.4733 7.16125C14.5178 6.69038 14.2547 6.27938 13.9583 6.22375C13.4599 6.13022 12.927 6.82905 12.8008 7.05125C12.778 6.43096 12.3973 6.1875 11.8808 6.1875Z" fill="#FFD83D" stroke="black" stroke-width="0.133333" stroke-linecap="round" stroke-linejoin="round"/>
<path d="M14.886 8.76C14.886 8.98323 13.5396 9.22875 11.8805 9.22875C10.2215 9.22875 8.875 8.98323 8.875 8.76C8.875 8.53676 10.2215 8.41992 11.8805 8.41992C13.5396 8.41992 14.886 8.53676 14.886 8.76Z" fill="black" stroke="black" stroke-width="0.1" stroke-linecap="round" stroke-linejoin="round"/>
<path d="M11.8824 4.71783C11.9598 4.71783 12.0225 4.65508 12.0225 4.57767C12.0225 4.50025 11.9598 4.4375 11.8824 4.4375C11.8049 4.4375 11.7422 4.50025 11.7422 4.57767C11.7422 4.65508 11.8049 4.71783 11.8824 4.71783Z" fill="#FFD83D" stroke="black" stroke-width="0.1" stroke-linecap="round" stroke-linejoin="round"/>
<path d="M11.8798 5.03114C11.9623 5.03114 12.0292 4.96427 12.0292 4.88178C12.0292 4.79929 11.9623 4.73242 11.8798 4.73242C11.7973 4.73242 11.7305 4.79929 11.7305 4.88178C11.7305 4.96427 11.7973 5.03114 11.8798 5.03114Z" fill="#FFD83D" stroke="black" stroke-width="0.1" stroke-linecap="round" stroke-linejoin="round"/>
<path d="M11.8819 5.37121C11.972 5.37121 12.045 5.29817 12.045 5.20807C12.045 5.11796 11.972 5.04492 11.8819 5.04492C11.7918 5.04492 11.7188 5.11796 11.7188 5.20807C11.7188 5.29817 11.7918 5.37121 11.8819 5.37121Z" fill="#FFD83D" stroke="black" stroke-width="0.1" stroke-linecap="round" stroke-linejoin="round"/>
<path d="M11.8814 5.75701C11.9842 5.75701 12.0676 5.67368 12.0676 5.57089C12.0676 5.46809 11.9842 5.38477 11.8814 5.38477C11.7786 5.38477 11.6953 5.46809 11.6953 5.57089C11.6953 5.67368 11.7786 5.75701 11.8814 5.75701Z" fill="#FFD83D" stroke="black" stroke-width="0.1" stroke-linecap="round" stroke-linejoin="round"/>
<path d="M11.8803 6.17854C11.9932 6.17854 12.0848 6.08698 12.0848 5.97404C12.0848 5.86109 11.9932 5.76953 11.8803 5.76953C11.7673 5.76953 11.6758 5.86109 11.6758 5.97404C11.6758 6.08698 11.7673 6.17854 11.8803 6.17854Z" fill="#FFD83D" stroke="black" stroke-width="0.1" stroke-linecap="round" stroke-linejoin="round"/>
<path d="M11.7986 6.36719C11.7764 6.36691 11.7555 6.38555 11.7611 6.42094C11.7676 6.46268 11.7757 6.54075 11.7836 6.59344C11.7924 6.65317 11.8272 6.63865 11.8361 6.59219C11.8449 6.54575 11.8413 6.51596 11.8436 6.42969C11.8447 6.38657 11.8207 6.36747 11.7986 6.36719ZM11.9611 6.36719C11.9389 6.36747 11.915 6.38657 11.9161 6.42969C11.9183 6.51596 11.9147 6.54575 11.9236 6.59219C11.9324 6.63865 11.9672 6.65317 11.9761 6.59344C11.9839 6.54075 11.992 6.46268 11.9986 6.42094C12.0041 6.38555 11.9832 6.36692 11.9611 6.36719ZM11.6536 6.38969C11.6333 6.39251 11.6123 6.41291 11.6136 6.43469C11.6158 6.4745 11.6268 6.52225 11.6311 6.58219C11.6355 6.64412 11.6791 6.62007 11.6836 6.58469C11.688 6.5493 11.693 6.497 11.6886 6.42844C11.6869 6.40273 11.6757 6.39142 11.6623 6.38969C11.6595 6.38933 11.6565 6.38929 11.6536 6.38969ZM12.0973 6.38969C12.0839 6.39142 12.0727 6.40273 12.0711 6.42844C12.0666 6.497 12.0716 6.5493 12.0761 6.58469C12.0805 6.62007 12.1241 6.64412 12.1286 6.58219C12.1328 6.52225 12.1439 6.4745 12.1461 6.43469C12.1473 6.41291 12.1263 6.39251 12.1061 6.38969C12.1032 6.38929 12.1001 6.38933 12.0973 6.38969ZM11.4798 6.45969C11.4613 6.46448 11.4443 6.48676 11.4498 6.51219C11.4609 6.56307 11.4711 6.61932 11.4711 6.67094C11.4711 6.71518 11.5088 6.6994 11.5111 6.66844C11.5133 6.63747 11.5173 6.5719 11.5173 6.51219C11.5173 6.46761 11.4983 6.45491 11.4798 6.45969ZM12.2673 6.45969C12.2542 6.46334 12.2423 6.47876 12.2423 6.51219C12.2423 6.5719 12.2464 6.63747 12.2486 6.66844C12.2508 6.6994 12.2886 6.71518 12.2886 6.67094C12.2886 6.61932 12.2988 6.56307 12.3098 6.51219C12.3153 6.48676 12.2983 6.46448 12.2798 6.45969C12.2752 6.4585 12.2717 6.45848 12.2673 6.45969ZM9.90356 6.46653C9.8814 6.4658 9.86585 6.49586 9.88106 6.52903C9.90538 6.58212 9.93122 6.61562 9.95606 6.67278C9.97818 6.72366 10.0121 6.69194 10.0011 6.65653C9.98999 6.62114 9.97798 6.58173 9.94481 6.50653C9.93236 6.47833 9.91686 6.46697 9.90356 6.46653ZM13.8561 6.46653C13.8428 6.46698 13.8273 6.47833 13.8148 6.50653C13.7816 6.58173 13.7696 6.62114 13.7586 6.65653C13.7475 6.69194 13.7814 6.72366 13.8036 6.67278C13.8284 6.61562 13.8542 6.58212 13.8786 6.52903C13.8938 6.49586 13.8782 6.4658 13.8561 6.46653ZM10.0636 6.46903C10.0472 6.47401 10.0374 6.4947 10.0473 6.51903C10.0672 6.56769 10.096 6.61757 10.1161 6.67028C10.1337 6.71672 10.1731 6.70356 10.1598 6.66153C10.1465 6.61951 10.1426 6.59491 10.1161 6.51528C10.1028 6.47547 10.0799 6.46405 10.0636 6.46903ZM13.6836 6.46903C13.6696 6.47201 13.6535 6.48543 13.6436 6.51528C13.617 6.59491 13.6131 6.61951 13.5998 6.66153C13.5865 6.70356 13.6259 6.71672 13.6436 6.67028C13.6636 6.61757 13.6924 6.56769 13.7123 6.51903C13.7223 6.4947 13.7124 6.47401 13.6961 6.46903C13.692 6.46779 13.6882 6.46804 13.6836 6.46903ZM10.2636 6.50778C10.243 6.51169 10.2271 6.54307 10.2411 6.58153C10.2588 6.63019 10.2839 6.67624 10.3061 6.73153C10.3282 6.78682 10.3649 6.77567 10.3561 6.74028C10.3472 6.70489 10.3364 6.64625 10.3098 6.55778C10.2982 6.51907 10.2796 6.50474 10.2636 6.50778ZM13.4961 6.50778C13.4801 6.50474 13.4614 6.51907 13.4498 6.55778C13.4233 6.64625 13.4124 6.70489 13.4036 6.74028C13.3947 6.77567 13.4314 6.78682 13.4536 6.73153C13.4757 6.67624 13.5009 6.63019 13.5186 6.58153C13.5325 6.54307 13.5166 6.51169 13.4961 6.50778ZM9.76856 6.53528C9.74628 6.53756 9.72599 6.57389 9.73981 6.60153C9.76195 6.64577 9.77596 6.66082 9.79731 6.70778C9.81943 6.75644 9.84366 6.71875 9.83481 6.68778C9.82596 6.65681 9.81461 6.62075 9.80356 6.57653C9.79546 6.54413 9.78192 6.53392 9.76856 6.53528ZM13.9911 6.53528C13.9777 6.53392 13.9642 6.54413 13.9561 6.57653C13.945 6.62075 13.9337 6.65681 13.9248 6.68778C13.916 6.71875 13.9402 6.75644 13.9623 6.70778C13.9837 6.66082 13.9977 6.64577 14.0198 6.60153C14.0336 6.57389 14.0133 6.53756 13.9911 6.53528ZM11.3098 6.64719C11.2865 6.64717 11.2615 6.67817 11.2698 6.70719C11.2831 6.75365 11.3036 6.79483 11.3186 6.85469C11.3318 6.90777 11.3695 6.88133 11.3673 6.84594C11.3651 6.81055 11.359 6.76241 11.3436 6.68719C11.3378 6.65899 11.3238 6.64721 11.3098 6.64719ZM12.4498 6.64719C12.4358 6.64721 12.4219 6.65899 12.4161 6.68719C12.4006 6.76241 12.3945 6.81055 12.3923 6.84594C12.3901 6.88133 12.4278 6.90777 12.4411 6.85469C12.456 6.79483 12.4765 6.75365 12.4898 6.70719C12.4981 6.67817 12.4732 6.64717 12.4498 6.64719ZM11.8798 6.69469C11.851 6.69469 11.8471 6.73332 11.8461 6.76469C11.8428 6.86754 11.8001 6.96743 11.7636 7.01719C11.7271 7.06697 11.6733 7.05373 11.6236 7.02719C11.5738 7.00066 11.5441 6.98077 11.4911 6.94094C11.438 6.90114 11.3977 6.92441 11.4611 7.01469C11.6458 7.27791 11.8461 7.50289 11.8461 7.93219C11.8461 7.9877 11.8558 8.00469 11.8798 8.00469C11.9039 8.00469 11.9148 7.9877 11.9148 7.93219C11.9148 7.50289 12.1139 7.27791 12.2986 7.01469C12.3619 6.92441 12.3217 6.90114 12.2686 6.94094C12.2155 6.98077 12.1858 7.00066 12.1361 7.02719C12.0863 7.05373 12.0325 7.06697 11.9961 7.01719C11.9596 6.96743 11.9169 6.86754 11.9136 6.76469C11.9126 6.73332 11.9086 6.69469 11.8798 6.69469ZM10.4686 6.63028C10.466 6.6302 10.4633 6.63082 10.4611 6.63153C10.4503 6.63491 10.4432 6.64788 10.4473 6.67028C10.4547 6.71037 10.4825 6.78894 10.4936 6.82653C10.5046 6.86414 10.5509 6.85614 10.5398 6.80528C10.5287 6.7544 10.5293 6.73904 10.5161 6.68153C10.5088 6.65008 10.4862 6.63076 10.4686 6.63028ZM13.2911 6.63028C13.2734 6.63077 13.2508 6.65008 13.2436 6.68153C13.2303 6.73904 13.2309 6.75441 13.2198 6.80528C13.2088 6.85614 13.255 6.86414 13.2661 6.82653C13.2771 6.78894 13.3049 6.71037 13.3123 6.67028C13.3165 6.64788 13.3093 6.63492 13.2986 6.63153C13.2963 6.63083 13.2936 6.63021 13.2911 6.63028ZM9.62981 6.64653C9.60666 6.64834 9.59006 6.67743 9.61356 6.72028C9.63891 6.76656 9.68241 6.82461 9.70231 6.85778C9.72221 6.89095 9.75665 6.86857 9.73231 6.82653C9.70799 6.78451 9.69981 6.73624 9.67106 6.67653C9.66028 6.65413 9.6437 6.64544 9.62981 6.64653ZM14.1298 6.64653C14.1159 6.64544 14.0993 6.65413 14.0886 6.67653C14.0598 6.73624 14.0516 6.78451 14.0273 6.82653C14.003 6.86857 14.0374 6.89095 14.0573 6.85778C14.0772 6.82461 14.1207 6.76656 14.1461 6.72028C14.1696 6.67743 14.153 6.64834 14.1298 6.64653ZM8.36231 6.77969C8.3356 6.77827 8.32722 6.8265 8.35231 6.85844C8.38882 6.90488 8.41422 6.92952 8.45606 6.96719C8.48925 6.99705 8.4989 6.9583 8.48231 6.92844C8.46572 6.89859 8.44173 6.86822 8.40856 6.81844C8.39037 6.79116 8.37445 6.78034 8.36231 6.77969ZM15.3973 6.77969C15.3852 6.78034 15.3692 6.79116 15.3511 6.81844C15.3179 6.86822 15.2939 6.89859 15.2773 6.92844C15.2607 6.9583 15.2704 6.99705 15.3036 6.96719C15.3454 6.92952 15.3708 6.90488 15.4073 6.85844C15.4324 6.8265 15.424 6.77827 15.3973 6.77969ZM8.56356 6.81969C8.54227 6.81997 8.52822 6.83569 8.54481 6.87219C8.56856 6.92444 8.59989 6.98362 8.61981 7.02344C8.63971 7.06325 8.70038 7.07662 8.67606 7.01469C8.65172 6.95277 8.64693 6.92095 8.62481 6.86344C8.61375 6.83469 8.58485 6.81942 8.56356 6.81969ZM15.1961 6.81969C15.1748 6.81941 15.1459 6.83469 15.1348 6.86344C15.1127 6.92095 15.1079 6.95277 15.0836 7.01469C15.0592 7.07662 15.1199 7.06325 15.1398 7.02344C15.1597 6.98362 15.1911 6.92444 15.2148 6.87219C15.2314 6.83569 15.2173 6.81997 15.1961 6.81969ZM8.17356 6.83344C8.14261 6.83376 8.13994 6.86479 8.16731 6.88469C8.20382 6.91123 8.24732 6.94069 8.28981 6.97469C8.33957 7.0145 8.35885 6.97788 8.33231 6.94469C8.30577 6.91152 8.27992 6.87788 8.21356 6.84469C8.19697 6.8364 8.18388 6.83334 8.17356 6.83344ZM15.5861 6.83344C15.5757 6.83332 15.5626 6.8364 15.5461 6.84469C15.4797 6.87788 15.4538 6.91152 15.4273 6.94469C15.4008 6.97788 15.4201 7.0145 15.4698 6.97469C15.5123 6.94069 15.5558 6.91123 15.5923 6.88469C15.6197 6.86479 15.617 6.83376 15.5861 6.83344ZM11.1998 6.86219C11.1825 6.86462 11.1676 6.88429 11.1748 6.90969C11.1881 6.95613 11.2031 7.00535 11.2123 7.05344C11.2212 7.0999 11.2749 7.10047 11.2661 7.05844C11.2572 7.01642 11.2528 6.96384 11.2373 6.89969C11.2315 6.87564 11.2194 6.86408 11.2073 6.86219C11.2048 6.86179 11.2023 6.86183 11.1998 6.86219ZM12.5523 6.86219C12.5402 6.86408 12.5281 6.87564 12.5223 6.89969C12.5068 6.96384 12.5024 7.01642 12.4936 7.05844C12.4847 7.10047 12.5385 7.0999 12.5473 7.05344C12.5565 7.00535 12.5715 6.95613 12.5848 6.90969C12.5921 6.88429 12.5771 6.86462 12.5598 6.86219C12.5573 6.86183 12.5548 6.86179 12.5523 6.86219ZM9.99606 6.78278C9.98246 6.78654 9.97464 6.81254 9.98481 6.84903C10.0412 7.05142 10.0585 7.15801 10.0486 7.20778C10.0386 7.25754 10.0113 7.26437 9.97481 7.24778C9.93832 7.2312 9.89548 7.20725 9.86231 7.18403C9.82914 7.16079 9.79463 7.18859 9.84231 7.22778C10.0845 7.42685 10.2524 7.65435 10.3173 7.93028C10.3306 7.98668 10.366 7.99331 10.3561 7.93028C10.3012 7.58269 10.2906 7.29695 10.3736 7.11778C10.4047 7.05045 10.3733 6.9858 10.3236 7.09528C10.2904 7.16828 10.2367 7.19708 10.1936 7.13403C10.1504 7.071 10.0613 6.90284 10.0348 6.82653C10.0249 6.79791 10.0126 6.78467 10.0023 6.78278C10.0002 6.78238 9.998 6.78225 9.99606 6.78278ZM13.7573 6.78278C13.747 6.78467 13.7348 6.79791 13.7248 6.82653C13.6983 6.90284 13.6092 7.071 13.5661 7.13403C13.5229 7.19708 13.4692 7.16828 13.4361 7.09528C13.3863 6.9858 13.3549 7.05045 13.3861 7.11778C13.469 7.29695 13.4585 7.58269 13.4036 7.93028C13.3936 7.99331 13.429 7.98668 13.4423 7.93028C13.5072 7.65435 13.6751 7.42685 13.9173 7.22778C13.965 7.18859 13.9305 7.16079 13.8973 7.18403C13.8641 7.20725 13.8213 7.2312 13.7848 7.24778C13.7483 7.26437 13.721 7.25754 13.7111 7.20778C13.7011 7.15801 13.7184 7.05142 13.7748 6.84903C13.785 6.81254 13.7772 6.78654 13.7636 6.78278C13.7616 6.78225 13.7594 6.78238 13.7573 6.78278ZM8.77856 6.87969C8.75672 6.87997 8.73861 6.89527 8.74856 6.92844C8.76451 6.98159 8.79751 7.03902 8.80856 7.07219C8.81963 7.10537 8.85519 7.08988 8.84856 7.04344C8.84193 6.997 8.83866 6.96932 8.82981 6.91844C8.82538 6.89301 8.8004 6.87942 8.77856 6.87969ZM14.9811 6.87969C14.9592 6.87941 14.9342 6.89301 14.9298 6.91844C14.921 6.96932 14.9177 6.997 14.9111 7.04344C14.9044 7.08988 14.94 7.10537 14.9511 7.07219C14.9621 7.03902 14.9951 6.98159 15.0111 6.92844C15.021 6.89527 15.0029 6.87997 14.9811 6.87969ZM9.52981 6.81028C9.50441 6.80572 9.50076 6.87125 9.52231 6.89778C9.55107 6.93319 9.591 6.97597 9.63106 7.02403C9.66423 7.06386 9.68473 7.02845 9.66481 6.99528C9.64491 6.96209 9.61538 6.92683 9.56231 6.84278C9.54904 6.82177 9.53828 6.8118 9.52981 6.81028ZM14.2298 6.81028C14.2213 6.8118 14.2106 6.82177 14.1973 6.84278C14.1442 6.92683 14.1147 6.96209 14.0948 6.99528C14.0749 7.02845 14.0954 7.06386 14.1286 7.02403C14.1686 6.97597 14.2086 6.93319 14.2373 6.89778C14.2589 6.87125 14.2552 6.80572 14.2298 6.81028ZM8.94981 6.96844C8.93405 6.96734 8.92068 6.98012 8.92731 7.01219C8.93656 7.05685 8.94999 7.09392 8.96106 7.13594C8.97211 7.17797 9.00106 7.17077 9.00106 7.13094C9.00106 7.09114 8.99394 7.04672 8.98731 7.00469C8.98399 6.98368 8.96557 6.96955 8.94981 6.96844ZM14.8098 6.96844C14.794 6.96955 14.7756 6.98368 14.7723 7.00469C14.7657 7.04672 14.7586 7.09114 14.7586 7.13094C14.7586 7.17077 14.7875 7.17797 14.7986 7.13594C14.8096 7.09392 14.8231 7.05685 14.8323 7.01219C14.8389 6.98012 14.8256 6.96734 14.8098 6.96844ZM9.47356 7.02528C9.44881 7.02902 9.42702 7.05295 9.45606 7.09028C9.5025 7.14999 9.55336 7.19191 9.57106 7.21403C9.58875 7.23615 9.63356 7.22799 9.60481 7.18153C9.57542 7.13407 9.53096 7.07692 9.51106 7.04153C9.5036 7.02826 9.48841 7.02304 9.47356 7.02528ZM14.2761 7.02528C14.2652 7.02643 14.2542 7.03158 14.2486 7.04153C14.2287 7.07692 14.1842 7.13407 14.1548 7.18153C14.1261 7.22799 14.1709 7.23615 14.1886 7.21403C14.2063 7.19191 14.2571 7.14999 14.3036 7.09028C14.3326 7.05295 14.3108 7.02902 14.2861 7.02528C14.2823 7.02472 14.2797 7.02488 14.2761 7.02528ZM8.64731 7.19219C8.62778 7.19042 8.62103 7.20618 8.64731 7.24219C8.70702 7.32402 8.77289 7.44787 8.77731 7.50094C8.78174 7.55404 8.7555 7.55344 8.73106 7.55344C8.65806 7.55344 8.6224 7.50016 8.55606 7.48469C8.4897 7.46921 8.48007 7.5041 8.52731 7.53844C8.7706 7.71539 9.01446 7.91281 9.11231 8.09219C9.15212 8.16519 9.20593 8.19187 9.17606 8.12219C9.08458 7.90871 9.06241 7.72793 9.08231 7.61844C9.10223 7.50896 9.12938 7.43524 9.12606 7.37219C9.12274 7.30917 9.087 7.31347 9.07231 7.37219C9.06236 7.41202 9.04308 7.46477 9.02981 7.48469C9.01654 7.5046 8.96318 7.51576 8.91231 7.44719C8.86143 7.37863 8.73308 7.24662 8.69106 7.21344C8.6753 7.201 8.65903 7.19326 8.64731 7.19219ZM15.1123 7.19219C15.1006 7.19326 15.0843 7.201 15.0686 7.21344C15.0265 7.24662 14.8982 7.37863 14.8473 7.44719C14.7964 7.51576 14.7431 7.5046 14.7298 7.48469C14.7165 7.46477 14.6973 7.41202 14.6873 7.37219C14.6726 7.31347 14.6369 7.30917 14.6336 7.37219C14.6302 7.43524 14.6574 7.50896 14.6773 7.61844C14.6972 7.72793 14.675 7.90871 14.5836 8.12219C14.5537 8.19187 14.6075 8.16519 14.6473 8.09219C14.7452 7.91281 14.989 7.71539 15.2323 7.53844C15.2796 7.5041 15.2699 7.46921 15.2036 7.48469C15.1372 7.50016 15.1016 7.55344 15.0286 7.55344C15.0041 7.55344 14.9779 7.55403 14.9823 7.50094C14.9867 7.44787 15.0526 7.32402 15.1123 7.24219C15.1386 7.20618 15.1318 7.19042 15.1123 7.19219Z" fill="black"/>
<path d="M9.00781 8.50535L9.0858 8.75232L9.00781 8.50535ZM9.16823 8.45854L9.23734 8.70814L9.16823 8.45854ZM9.34152 8.43005L9.38901 8.68465L9.34152 8.43005ZM9.50233 8.39787L9.55315 8.65183L9.50233 8.39787ZM9.70856 8.37752L9.74988 8.63319L9.70856 8.37752ZM9.92794 8.37779L9.97244 8.63292L9.92794 8.37779ZM10.1421 8.30537L10.1742 8.56236L10.1421 8.30537ZM10.3436 8.31837L10.3757 8.57536L10.3436 8.31837ZM10.5385 8.29237L10.5707 8.54936L10.5385 8.29237ZM10.7342 8.27218L10.7519 8.53056L10.7342 8.27218ZM10.9434 8.2721L10.9587 8.53064L10.9434 8.2721ZM11.133 8.25904L11.1461 8.5177L11.133 8.25904ZM11.3421 8.24599L11.3529 8.50475L11.3421 8.24599ZM11.5825 8.23949L11.5934 8.49825L11.5825 8.23949ZM14.7552 8.50535L14.6772 8.75232L14.7552 8.50535ZM14.5947 8.45854L14.5256 8.70814L14.5947 8.45854ZM14.4215 8.43005L14.374 8.68465L14.4215 8.43005ZM14.2606 8.39787L14.2098 8.65183L14.2606 8.39787ZM14.0544 8.37752L14.0131 8.63319L14.0544 8.37752ZM13.835 8.37779L13.7905 8.63292L13.835 8.37779ZM13.6209 8.30537L13.5887 8.56236L13.6209 8.30537ZM13.4194 8.31837L13.3873 8.57536L13.4194 8.31837ZM13.2244 8.29237L13.1923 8.54936L13.2244 8.29237ZM13.0287 8.27218L13.0111 8.53056L13.0287 8.27218ZM12.8196 8.2721L12.8042 8.53064L12.8196 8.2721ZM12.63 8.25904L12.6169 8.5177L12.63 8.25904ZM12.4209 8.24599L12.41 8.50475L12.4209 8.24599ZM12.1804 8.23949L12.1696 8.49825L12.1804 8.23949ZM11.8815 8.22266V8.50758V8.22266Z" fill="#FFD83D"/>
<path d="M9.00781 8.50535L9.0858 8.75232M9.16823 8.45854L9.23734 8.70814M9.34152 8.43005L9.38901 8.68465M9.50233 8.39787L9.55315 8.65183M9.70856 8.37752L9.74988 8.63319M9.92794 8.37779L9.97244 8.63292M10.1421 8.30537L10.1742 8.56236M10.3436 8.31837L10.3757 8.57536M10.5385 8.29237L10.5707 8.54936M10.7342 8.27218L10.7519 8.53056M10.9434 8.2721L10.9587 8.53064M11.133 8.25904L11.1461 8.5177M11.3421 8.24599L11.3529 8.50475M11.5825 8.23949L11.5934 8.49825M14.7552 8.50535L14.6772 8.75232M14.5947 8.45854L14.5256 8.70814M14.4215 8.43005L14.374 8.68465M14.2606 8.39787L14.2098 8.65183M14.0544 8.37752L14.0131 8.63319M13.835 8.37779L13.7905 8.63292M13.6209 8.30537L13.5887 8.56236M13.4194 8.31837L13.3873 8.57536M13.2244 8.29237L13.1923 8.54936M13.0287 8.27218L13.0111 8.53056M12.8196 8.2721L12.8042 8.53064M12.63 8.25904L12.6169 8.5177M12.4209 8.24599L12.41 8.50475M12.1804 8.23949L12.1696 8.49825M11.8815 8.22266V8.50758" stroke="black" stroke-width="0.1" stroke-linecap="round" stroke-linejoin="round"/>
</g>
<defs>
<clipPath id="clip0_358_1321">
<rect width="24" height="24" rx="12" fill="white"/>
</clipPath>
</defs>
</svg>
