<svg width="24" height="24" viewBox="0 0 24 24" fill="none" xmlns="http://www.w3.org/2000/svg">
<rect width="24" height="24" rx="12" fill="#F7B718"/>
<path d="M3.59375 4.80078H5.87171V18.717H3.59375V4.80078Z" fill="#005F56"/>
<path d="M9.17578 5.85352H20.9963V18.485H9.17578V5.85352Z" fill="#941E32"/>
<path d="M18.8398 15.9863C18.8398 15.9863 19.0029 16.3185 19.1831 16.4539C19.4501 16.6545 19.9975 16.64 20.2299 16.874C20.5083 17.1499 20.2139 17.5145 20.2108 17.5461C20.2045 17.6102 20.221 17.6744 20.2261 17.7386C20.2261 17.7386 20.0383 17.7408 19.9593 17.7532C19.8404 17.7717 19.7941 17.8685 19.5728 17.8541C19.0164 17.818 19.0389 17.3165 19.0074 16.888C18.9795 16.7248 18.9148 16.512 18.8781 16.3489C18.8466 16.209 18.8398 15.9863 18.8398 15.9863Z" fill="#F7B718" stroke="black" stroke-width="0.0850487" stroke-linejoin="round"/>
<path d="M18.8398 8.01373C18.8398 8.01373 19.0029 7.68152 19.1831 7.54617C19.4501 7.3456 19.9975 7.36008 20.2299 7.1261C20.5083 6.85019 20.2139 6.48559 20.2108 6.45401C20.2045 6.38982 20.221 6.32566 20.2261 6.26151C20.2261 6.26151 20.0383 6.25923 19.9593 6.24689C19.8404 6.22836 19.7941 6.1316 19.5728 6.14598C19.0164 6.18211 19.0389 6.68357 19.0074 7.11208C18.9795 7.2753 18.9148 7.48803 18.8781 7.65118C18.8466 7.79106 18.8398 8.01373 18.8398 8.01373Z" fill="#F7B718" stroke="black" stroke-width="0.0850487" stroke-linejoin="round"/>
<path d="M11 15.959C11 15.959 10.8369 16.2912 10.6567 16.4266C10.3897 16.6271 9.84231 16.6126 9.60997 16.8466C9.33154 17.1225 9.62593 17.4871 9.62905 17.5187C9.63539 17.5829 9.61887 17.6471 9.61378 17.7112C9.61378 17.7112 9.80151 17.7135 9.88055 17.7258C9.99941 17.7444 10.0458 17.8411 10.267 17.8267C10.8234 17.7906 10.8009 17.2892 10.8324 16.8606C10.8604 16.6974 10.925 16.4847 10.9618 16.3215C10.9933 16.1817 11 15.959 11 15.959Z" fill="#F7B718" stroke="black" stroke-width="0.0850487" stroke-linejoin="round"/>
<path d="M11 7.98633C11 7.98633 10.8369 7.65411 10.6567 7.51876C10.3897 7.3182 9.84231 7.33267 9.60997 7.09869C9.33154 6.82278 9.62593 6.45819 9.62905 6.4266C9.63539 6.36242 9.61887 6.29826 9.61378 6.2341C9.61378 6.2341 9.80151 6.23182 9.88055 6.21948C9.99941 6.20095 10.0458 6.1042 10.267 6.11858C10.8234 6.1547 10.8009 6.65616 10.8324 7.08468C10.8604 7.24789 10.925 7.46063 10.9618 7.62377C10.9933 7.76366 11 7.98633 11 7.98633Z" fill="#F7B718" stroke="black" stroke-width="0.0850487" stroke-linejoin="round"/>
<path d="M2.39844 4.80078H3.59072V19.2008H2.39844V4.80078Z" fill="#F7B718"/>
<path d="M5.87109 4.80078H8.14905V18.717H5.87109V4.80078Z" fill="#DF7500"/>
<path d="M2.39844 18.002H21.443V19.1998H2.39844V18.002Z" fill="#F7B718"/>
<path d="M2.39844 4.80078H21.2004V5.99865H2.39844V4.80078Z" fill="#F7B718"/>
<path d="M8.14844 4.80078H9.34072V19.1879H8.14844V4.80078Z" fill="#F7B718"/>
<path d="M20.4609 4.80859H21.6532V19.1957H20.4609V4.80859Z" fill="#F7B718"/>
<path d="M13.1902 14.7521L13.2549 14.7127L13.2831 14.7521C13.3197 14.8028 13.4238 14.8 13.4914 14.7521L13.5449 14.7099L13.5899 14.7493C13.6462 14.8028 13.7532 14.8028 13.8236 14.7493C13.8714 14.7155 13.8799 14.7127 13.908 14.7409C13.9277 14.7578 13.984 14.7747 14.0319 14.7831C14.122 14.7944 14.122 14.7944 14.1726 14.7155C14.2177 14.6508 14.2233 14.6255 14.2149 14.5607C14.207 14.5113 14.2014 14.4615 14.198 14.4115C14.1923 14.3383 14.1952 14.3383 14.2993 14.2989C14.351 14.283 14.4018 14.2643 14.4513 14.2426C14.4936 14.2173 14.6118 14.0793 14.6118 14.0512C14.6118 14.0456 14.5667 14.0343 14.5104 14.0287C14.2852 14.0005 14.2486 13.8823 14.395 13.6627C14.6287 13.2968 14.7722 12.9449 14.7722 12.7225C14.7722 12.6211 14.7807 12.5874 14.7919 12.6099C14.8454 12.6972 14.7497 13.0716 14.609 13.3418L14.5527 13.4488L14.6062 13.4375C14.6343 13.4291 14.8145 13.3531 15.0003 13.2686C15.5126 13.0378 15.6871 12.9927 16.0193 13.0068C16.298 13.0181 16.4134 13.0716 16.6105 13.277C16.7146 13.3897 16.816 13.4657 16.9989 13.5811C17.3874 13.8232 17.4043 13.8457 17.424 14.1328C17.4437 14.4228 17.4325 14.4397 17.2129 14.4875C17.0243 14.5297 16.906 14.617 16.8751 14.7409C16.8582 14.8028 16.8948 14.8056 16.9877 14.7437L17.0581 14.6986L17.089 14.7437C17.1312 14.8028 17.2157 14.8028 17.2861 14.7437L17.3424 14.7015L17.3987 14.7437C17.4831 14.8141 17.5957 14.7972 17.6295 14.7099C17.6351 14.6958 17.652 14.6986 17.6858 14.7296C17.7506 14.7859 17.911 14.8084 17.9279 14.7634C17.9335 14.7465 17.9223 14.7071 17.8998 14.6733C17.8069 14.5326 17.7759 14.4678 17.7759 14.3918C17.7759 14.2848 17.804 14.2313 17.9279 14.1469C18.0743 14.0399 18.1193 13.9048 18.0067 13.9048C17.9392 13.9048 17.8688 13.8429 17.8237 13.7443C17.7337 13.5417 17.7534 13.3165 17.8885 12.9392C17.9921 12.7173 18.0441 12.4748 18.0405 12.2299C18.0405 12.0215 18.0349 11.9878 17.9898 11.8723C17.9546 11.7921 17.9112 11.7157 17.8603 11.6443L17.7815 11.5402L17.88 11.4557C18.1841 11.2052 18.1221 10.7942 17.7562 10.6365C17.6436 10.5859 17.6154 10.5831 17.4184 10.5831C17.3058 10.5831 17.1228 10.5999 17.0243 10.6197C16.892 10.6406 16.7584 10.6519 16.6245 10.6534C16.4331 10.6534 16.3993 10.6478 16.3261 10.6084C16.2501 10.569 16.2361 10.5493 16.222 10.4536C16.2206 10.4445 16.2171 10.436 16.2117 10.4286C16.2063 10.4213 16.1992 10.4153 16.191 10.4113C16.1629 10.4029 16.0446 10.507 16.0278 10.5521C16.0165 10.5774 16.0109 10.5746 15.9855 10.5436C15.9616 10.513 15.9427 10.4788 15.9292 10.4423C15.9011 10.3494 15.9377 10.2818 16.0475 10.2284L16.1319 10.189L16.0812 10.158C15.9799 10.0932 15.8054 10.1383 15.7434 10.2424C15.7237 10.2706 15.704 10.2987 15.6984 10.2987C15.6928 10.2987 15.659 10.2706 15.6252 10.234C15.4929 10.1045 15.5379 9.91308 15.7153 9.85678C15.8082 9.82581 15.8926 9.84833 15.9095 9.91308C15.9377 10.006 16.0165 9.88211 16.0024 9.76669C15.994 9.69069 15.994 9.68787 16.0475 9.68787C16.1206 9.68787 16.2727 9.78358 16.3233 9.85678C16.3796 9.94404 16.374 10.082 16.3121 10.1833L16.2642 10.2621L16.329 10.2509C16.419 10.2312 16.5091 10.1749 16.5542 10.1045C16.5779 10.0597 16.5912 10.0101 16.5932 9.9594C16.5951 9.90872 16.5856 9.85825 16.5654 9.81173C16.5232 9.73573 16.5288 9.72447 16.5908 9.7498C16.6921 9.79203 16.7484 9.83989 16.7878 9.92152C16.8272 9.99471 16.83 10.0116 16.8103 10.0904C16.7969 10.1384 16.776 10.184 16.7484 10.2255C16.7146 10.2706 16.7118 10.279 16.74 10.279C16.7906 10.279 16.892 10.2312 16.9286 10.1946C16.9483 10.1721 16.9764 10.1242 16.9905 10.082L17.0186 10.0116L17.0468 10.0679C17.089 10.1439 17.1735 10.2143 17.2748 10.2593C17.3846 10.3044 17.4296 10.3072 17.3733 10.265C17.3339 10.2368 17.2607 10.0257 17.2861 10.006C17.4076 10.074 17.5185 10.1594 17.6154 10.2593C17.7759 10.4029 17.8772 10.4507 18.0236 10.4507C18.2122 10.4507 18.322 10.2875 18.2376 10.1326C18.1897 10.0426 18.0799 10.0285 18.0124 10.1045C17.9842 10.1411 17.9758 10.1692 17.9842 10.2087C17.9955 10.2537 17.9926 10.2593 17.9504 10.2593C17.8941 10.2593 17.7872 10.189 17.5957 10.0285C17.3293 9.79919 17.023 9.62076 16.6921 9.50208C16.4679 9.45027 16.2365 9.43788 16.008 9.46548C15.8279 9.49927 15.6139 9.60342 15.4957 9.71321C15.2902 9.91026 15.2874 10.1721 15.4873 10.4113L15.5436 10.4789L15.507 10.5408C15.4794 10.5852 15.4658 10.6368 15.4678 10.6889C15.4698 10.7411 15.4874 10.7915 15.5182 10.8336C15.5464 10.873 15.5745 10.904 15.583 10.904C15.5886 10.904 15.5942 10.8786 15.597 10.8477C15.6027 10.7717 15.6365 10.721 15.6928 10.7013C15.7434 10.6816 15.7772 10.6928 16.008 10.7857C16.253 10.8814 16.6555 10.8871 17.0834 10.8026C17.2688 10.7598 17.4618 10.7617 17.6464 10.8083C17.8491 10.8927 17.8941 11.1095 17.7477 11.2727C17.683 11.3459 17.6239 11.3741 17.4184 11.4304C17.2395 11.4776 17.0535 11.4919 16.8694 11.4726C16.5654 11.4698 16.4556 11.4754 16.3346 11.5008C16.1967 11.5289 16.115 11.5317 15.7209 11.5233L15.2621 11.512L15.3127 11.5514C15.3399 11.5755 15.3691 11.5972 15.4 11.6162C15.4366 11.6359 15.4338 11.6387 15.3831 11.6584C15.355 11.6697 15.2874 11.6781 15.2339 11.6781H15.141L15.1298 11.7569C15.1222 11.7941 15.1222 11.8324 15.1298 11.8695C15.141 11.8977 15.1354 11.9033 15.1072 11.8921C15.0875 11.8836 15.034 11.8695 14.9862 11.8611C14.9379 11.8507 14.8908 11.8356 14.8454 11.816C14.7919 11.7879 14.7863 11.7879 14.7666 11.8245C14.7497 11.8526 14.5921 11.9709 14.5696 11.9709C14.5594 11.8978 14.5385 11.8267 14.5076 11.7597C14.4795 11.7006 14.4541 11.6331 14.4457 11.6134C14.4373 11.5824 14.4316 11.5796 14.4175 11.6049C14.4091 11.619 14.3978 11.6612 14.3894 11.695C14.3795 11.7406 14.3624 11.7843 14.3387 11.8245L14.2965 11.8864L14.2684 11.8329C14.2402 11.7766 14.1952 11.7147 14.1783 11.7147C14.1726 11.7147 14.1642 11.7316 14.1586 11.7569C14.1445 11.802 14.0347 11.9343 14.0066 11.9343C13.9981 11.9343 13.9897 11.8977 13.9897 11.8498C13.9897 11.8076 13.9812 11.7682 13.97 11.7682C13.9587 11.7682 13.9503 11.7823 13.9503 11.7963C13.9503 11.8301 13.8574 11.9371 13.8236 11.9371C13.8123 11.9371 13.7898 11.9484 13.7757 11.9652C13.7419 12.0018 13.7138 11.9962 13.7279 11.954C13.7318 11.9179 13.728 11.8814 13.7166 11.847L13.6885 11.7569C13.6828 11.7429 13.649 11.7485 13.5759 11.771C13.4632 11.8076 13.4238 11.7992 13.483 11.7541C13.5055 11.7372 13.5393 11.6781 13.5561 11.6246C13.5759 11.5683 13.604 11.5205 13.6181 11.5148C13.6378 11.5092 13.6378 11.5148 13.6124 11.5486C13.5962 11.57 13.5855 11.5952 13.5815 11.6218C13.5815 11.6359 13.5674 11.6725 13.5533 11.7034C13.5364 11.7316 13.5252 11.7597 13.528 11.7626C13.5308 11.7654 13.5759 11.7485 13.6265 11.726L13.7166 11.6809V11.7203C13.7166 11.7429 13.7279 11.7992 13.7419 11.847L13.7673 11.9315L13.8292 11.9033C13.8911 11.8752 13.9503 11.7738 13.9503 11.6922C13.9503 11.6528 13.9728 11.6584 13.984 11.7006C13.984 11.7119 14.0009 11.7597 14.0122 11.8048L14.0403 11.8836L14.0826 11.8329C14.1079 11.8048 14.136 11.7485 14.1473 11.7119C14.1698 11.6443 14.2036 11.6134 14.2036 11.664C14.2036 11.6978 14.2993 11.8273 14.3162 11.816C14.3275 11.8104 14.3444 11.7626 14.3584 11.7091C14.3866 11.5965 14.4288 11.5233 14.457 11.5402C14.4682 11.5458 14.471 11.5571 14.4654 11.5683C14.4598 11.574 14.4823 11.6471 14.5161 11.726C14.5406 11.785 14.5649 11.8442 14.5893 11.9033C14.6005 11.9315 14.6118 11.9315 14.6822 11.8667C14.7244 11.8273 14.7666 11.7851 14.7694 11.771C14.7779 11.7485 14.7863 11.7513 14.8257 11.7766C14.9087 11.8205 14.9997 11.8473 15.0932 11.8555C15.0988 11.8498 15.1044 11.7992 15.1044 11.7429L15.1072 11.6387L15.1635 11.65C15.1917 11.6584 15.2564 11.6584 15.3043 11.65L15.3887 11.6387L15.3127 11.5824C15.2705 11.5542 15.2283 11.5176 15.217 11.5008C15.2086 11.4839 15.1692 11.467 15.1269 11.4642C15.0115 11.4529 14.806 11.3403 14.806 11.284C14.806 11.2727 14.8342 11.2924 14.868 11.3234C14.9468 11.3938 15.0537 11.436 15.1495 11.436H15.217L15.1748 11.3797C15.1447 11.3361 15.1254 11.2859 15.1185 11.2333C15.1129 11.1489 15.1044 11.1376 15.0172 11.0785C14.9665 11.0426 14.9194 11.0021 14.8764 10.9575L14.8285 10.904L14.8032 10.9687C14.7891 11.0053 14.7751 11.0335 14.7666 11.0335C14.761 11.0335 14.7328 11.0109 14.7103 10.9856C14.6945 10.9673 14.6754 10.952 14.654 10.9406C14.6456 10.9406 14.6259 10.9743 14.6033 11.0166L14.5639 11.0926L14.5358 11.0504C14.5107 11.0158 14.4825 10.9838 14.4513 10.9546C14.4175 10.9265 14.4035 10.904 14.4147 10.904C14.426 10.904 14.4626 10.9321 14.4992 10.9687L14.5611 11.0335L14.5893 10.9856C14.6055 10.9524 14.6105 10.9149 14.6033 10.8786C14.5921 10.828 14.5949 10.8251 14.6118 10.8589C14.6361 10.8907 14.6645 10.9191 14.6962 10.9434L14.7582 10.9941L14.8004 10.918C14.8426 10.8392 14.8426 10.8392 14.8595 10.8871C14.8877 10.9462 15.0706 11.0982 15.2255 11.1855C15.2536 11.1995 15.2424 11.1545 15.1973 11.0447C15.1838 11.0086 15.1762 10.9706 15.1748 10.9321C15.1748 10.8815 15.1607 10.8589 15.096 10.8083C15.0557 10.7825 15.022 10.7477 14.9976 10.7067C14.9732 10.6656 14.9587 10.6194 14.9552 10.5718C14.9468 10.5239 14.9299 10.4733 14.9158 10.4564C14.8989 10.4282 14.8933 10.4451 14.8989 10.5296C14.9046 10.5887 14.8961 10.6619 14.882 10.6928L14.8595 10.7491L14.8426 10.7013C14.8314 10.676 14.7863 10.6309 14.7441 10.6028C14.7019 10.5746 14.6709 10.5465 14.6765 10.5408C14.6822 10.5352 14.7272 10.5605 14.7751 10.5971C14.8511 10.6562 14.8651 10.6619 14.8764 10.6365C14.8877 10.6084 14.8764 10.4789 14.8539 10.3888C14.8426 10.3438 14.8426 10.3438 14.8989 10.4001C14.9383 10.4395 14.9609 10.4902 14.9806 10.5746C15.0031 10.6816 15.0143 10.7013 15.1129 10.7886C15.172 10.842 15.2255 10.8815 15.2283 10.8786C15.2339 10.873 15.2395 10.7379 15.2452 10.5746C15.2564 10.2621 15.2452 10.1861 15.1692 10.0904L15.1298 10.0398L15.1917 9.97501C15.2611 9.90864 15.3074 9.82185 15.324 9.72728L15.3353 9.65128L15.2677 9.71602C15.2114 9.76951 15.1832 9.78077 15.1185 9.78077C15.0537 9.78077 15.0284 9.76951 14.9862 9.72447C14.9204 9.66115 14.8402 9.61478 14.7525 9.58935C14.7188 9.57809 14.7075 9.58372 14.7075 9.60624C14.7075 9.62313 14.6906 9.66817 14.6681 9.71039L14.6287 9.78358L14.5442 9.69913C14.4907 9.65128 14.4316 9.60905 14.3838 9.59779C14.2684 9.56964 14.2627 9.56964 14.2627 9.65691C14.2627 9.78921 14.2064 9.81455 14.1051 9.72728C14.0263 9.65972 13.9643 9.64283 13.8151 9.66254L13.7025 9.6738L13.7222 9.72447C13.7391 9.76669 13.7363 9.7864 13.6997 9.83426C13.6406 9.91308 13.5646 9.94686 13.4464 9.94686C13.3901 9.94686 13.3225 9.95812 13.2943 9.97219C13.2662 9.98627 13.193 10.0003 13.1339 10.006C13.0776 10.0116 13.0128 10.0229 12.9931 10.0285C12.965 10.0398 12.965 10.0285 12.9734 9.96656C12.9875 9.87085 12.9171 9.79766 12.813 9.79766C12.675 9.79766 12.6131 9.92152 12.6666 10.0848C12.6775 10.12 12.6869 10.1557 12.6947 10.1918C12.7317 10.2622 12.7813 10.3251 12.8411 10.3776C12.9143 10.4507 12.9819 10.5268 12.9931 10.5465C13.0158 10.5758 13.0446 10.5998 13.0776 10.6168L13.1395 10.6506L13.1311 10.5831C13.1226 10.5099 13.1367 10.4986 13.1761 10.5521C13.1902 10.569 13.2268 10.5999 13.2549 10.6168C13.3028 10.645 13.3112 10.645 13.3112 10.6225C13.3112 10.6056 13.3197 10.569 13.3309 10.5408L13.3506 10.4902L13.3872 10.5605C13.4069 10.5999 13.4717 10.6872 13.5308 10.7576C13.6462 10.8899 13.7194 11.0391 13.6828 11.0729C13.6659 11.0869 13.6265 11.0869 13.5421 11.0701C13.4801 11.0588 13.4013 11.0504 13.3675 11.056C13.3028 11.0644 13.2972 11.056 13.3394 11.0053C13.3816 10.949 13.3732 10.9406 13.2887 10.9406C13.1902 10.9406 12.9453 10.8927 12.8496 10.8561C12.7595 10.8195 12.737 10.828 12.7088 10.9152L12.661 11.0729L12.6328 11.1573L12.7342 11.1489C12.7864 11.1434 12.8382 11.134 12.889 11.1207C12.9089 11.1141 12.9299 11.1112 12.9509 11.1123C12.9565 11.1151 12.9425 11.1489 12.9228 11.1883L12.8834 11.2559L12.9453 11.2446C12.9791 11.2361 13.0297 11.2193 13.0579 11.2052C13.1086 11.1827 13.1142 11.1827 13.1536 11.2474C13.2015 11.3234 13.238 11.3206 13.2465 11.239C13.2549 11.1545 13.2831 11.1658 13.3366 11.2784C13.3872 11.3853 13.4379 11.4248 13.4492 11.3628C13.452 11.3403 13.4773 11.3065 13.5083 11.284C13.5702 11.2418 13.6153 11.2559 13.6406 11.3206C13.6687 11.391 13.6068 11.4613 13.4323 11.5683C13.2707 11.6576 13.1316 11.7826 13.0257 11.9338C12.9198 12.0851 12.8499 12.2586 12.8214 12.441C12.7679 12.7732 12.934 13.1166 13.2606 13.3671C13.4182 13.4854 13.6687 13.6092 13.6519 13.5642C13.5843 13.3587 13.5871 12.973 13.6547 12.9083C13.6659 12.897 13.6631 12.9364 13.6462 12.9955C13.5899 13.2179 13.6181 13.3925 13.7588 13.8035C13.8827 14.175 13.8658 14.3355 13.6856 14.4397C13.6293 14.4734 13.5927 14.4791 13.4379 14.4763C13.269 14.4763 13.2493 14.4763 13.1958 14.5213C13.1311 14.5873 13.0888 14.672 13.0748 14.7634C13.0748 14.8 13.1142 14.7944 13.1874 14.7521H13.1902Z" fill="#FFB700" stroke="black" stroke-width="0.262737"/>
<path d="M15.9206 14.7433L15.9909 14.6983L16.0388 14.7433C16.1007 14.8024 16.1767 14.7996 16.2359 14.7405C16.264 14.7124 16.2865 14.6955 16.2893 14.6983L16.3147 14.7433C16.3288 14.7687 16.3597 14.7799 16.416 14.7856C16.4808 14.7884 16.5005 14.7856 16.5286 14.7461L16.5568 14.6983L16.6271 14.7433C16.8186 14.8672 16.9199 14.7377 16.8326 14.4815C16.7904 14.352 16.8158 14.2789 16.9537 14.1156C17.0128 14.0452 17.0607 13.9692 17.0607 13.9467C17.0607 13.9157 17.0494 13.9101 16.9706 13.9129C16.8974 13.9129 16.8749 13.9045 16.8355 13.8622C16.7707 13.7918 16.7763 13.7102 16.8467 13.6201L16.903 13.5498L16.8017 13.4822C16.7208 13.4224 16.6454 13.3556 16.5765 13.2823C16.515 13.2098 16.4399 13.1501 16.3554 13.1066C16.2708 13.0632 16.1786 13.0368 16.0838 13.029L15.9515 13.0149V13.1162C15.9515 13.2429 16.0135 13.3668 16.1767 13.5751C16.3625 13.8116 16.3738 13.8482 16.3822 14.1578L16.3907 14.4196L16.3344 14.4703C16.2865 14.5153 16.2668 14.5238 16.1092 14.5322C15.96 14.5406 15.9262 14.5491 15.884 14.5885C15.8346 14.6245 15.8004 14.6778 15.7883 14.7377C15.7798 14.7799 15.7826 14.7884 15.8136 14.7884C15.8333 14.7884 15.8812 14.7687 15.9206 14.7433ZM11.9176 14.0677C11.9346 14.0427 11.9444 14.0135 11.9457 13.9833C11.9457 13.9551 11.9626 13.9439 12.0358 13.9326L12.1231 13.9213L12.0668 13.8735C11.9964 13.8172 11.988 13.775 12.0499 13.775C12.1118 13.775 12.2132 13.713 12.2301 13.6652C12.2385 13.6427 12.2301 13.6145 12.2188 13.6004C12.185 13.561 12.1203 13.5666 12.109 13.6117C12.0949 13.6567 12.0752 13.6567 12.0246 13.6117C11.9542 13.5413 11.9514 13.3977 12.0246 13.3133C12.0555 13.2739 12.0555 13.2739 12.0133 13.2317C11.9683 13.1866 11.9345 13.1022 11.957 13.0796C11.9626 13.074 11.9992 13.0796 12.0358 13.0937C12.0921 13.1106 12.1118 13.1106 12.1343 13.0937C12.1991 13.0402 12.1287 12.9727 12.0217 12.9896C11.9767 12.9952 11.9598 12.9896 11.9542 12.967C11.9485 12.9502 11.912 12.9276 11.8697 12.9164C11.7937 12.8967 11.7937 12.8967 11.7937 12.9502C11.7937 13.0065 11.7599 13.0177 11.698 12.9811C11.6473 12.953 11.5995 12.9755 11.5995 13.029C11.5995 13.0796 11.6473 13.1022 11.7402 13.0965C11.8078 13.0937 11.8106 13.1444 11.7459 13.2176L11.698 13.2739L11.7346 13.3274C11.7909 13.4062 11.7853 13.5385 11.7262 13.6061L11.6783 13.6567L11.6473 13.6145C11.6023 13.5582 11.5432 13.561 11.5263 13.6229C11.5178 13.6624 11.5263 13.6792 11.577 13.7243C11.6107 13.7524 11.6614 13.775 11.6867 13.775C11.7515 13.775 11.7487 13.8284 11.6811 13.8791L11.6248 13.9213L11.7093 13.9326C11.7543 13.941 11.7937 13.9523 11.7937 13.9608C11.7937 13.9973 11.85 14.1071 11.8669 14.1071C11.8782 14.1071 11.9007 14.0874 11.9176 14.0649V14.0677Z" fill="#FFB700" stroke="black" stroke-width="0.262737"/>
<path d="M12.9927 13.6019C13.0687 13.5737 13.232 13.4329 13.232 13.402C13.232 13.3907 13.1869 13.3401 13.1306 13.2894C13.018 13.188 12.8914 13.0107 12.8576 12.9094C12.8407 12.8531 12.7591 12.763 12.5282 12.5378L12.2214 12.2422L12.1341 12.2647C12.0834 12.276 12.0243 12.2872 12.0018 12.2872C11.9596 12.2872 11.9596 12.2872 12.0159 12.3323L12.0722 12.3773L12.1566 12.3323C12.2326 12.2872 12.2355 12.2872 12.2439 12.3238C12.2495 12.3435 12.2383 12.3801 12.2157 12.4055C12.196 12.4308 12.1848 12.4618 12.1876 12.4702C12.196 12.4787 12.1763 12.4984 12.1454 12.5152C12.0891 12.5434 12.0468 12.6363 12.0919 12.6363C12.1341 12.6363 12.2242 12.5237 12.2129 12.4871C12.2073 12.4674 12.2129 12.4477 12.2186 12.4421C12.2552 12.4224 12.2523 12.5096 12.2186 12.5547C12.196 12.5772 12.1848 12.6053 12.1904 12.6166C12.196 12.625 12.1763 12.6447 12.1454 12.6616C12.0891 12.6898 12.0468 12.7827 12.0919 12.7827C12.1369 12.7827 12.2242 12.6757 12.2157 12.6363C12.2101 12.6166 12.2101 12.5941 12.2186 12.5884C12.2439 12.5772 12.2552 12.6447 12.2355 12.6785C12.2303 12.688 12.2276 12.6987 12.2276 12.7095C12.2276 12.7203 12.2303 12.7309 12.2355 12.7404C12.2552 12.777 12.2355 12.8446 12.1989 12.8671C12.1848 12.8756 12.1932 12.8953 12.2326 12.9234C12.2889 12.9628 12.2889 12.9685 12.2889 13.1486C12.2889 13.3006 12.2946 13.3401 12.3227 13.3654C12.3509 13.3935 12.3565 13.3935 12.3565 13.3654C12.3565 13.3372 12.4128 13.2978 12.455 13.2978C12.4691 13.2978 12.5507 13.3682 12.638 13.4527C12.7253 13.5371 12.8182 13.6131 12.8435 13.6159L12.9054 13.6272C12.9139 13.6272 12.9533 13.6187 12.9927 13.599V13.6019ZM12.0553 12.8671C12.0553 12.8193 11.9539 12.7658 11.8329 12.7545C11.7344 12.7404 11.7344 12.7433 11.7344 12.7911C11.7344 12.8305 11.7485 12.8474 11.8188 12.8756C11.9258 12.9234 12.0553 12.9178 12.0553 12.8671Z" fill="#FFB700" stroke="black" stroke-width="0.262737"/>
<path d="M12.1664 12.8614C12.217 12.8163 12.2396 12.7657 12.2086 12.7657C12.1748 12.7657 12.0847 12.8445 12.0847 12.8783C12.0847 12.9233 12.1016 12.9205 12.1692 12.8614H12.1664ZM12.0622 12.7178C12.065 12.6897 12.0481 12.6728 11.9975 12.6474C11.8849 12.5996 11.7554 12.5742 11.7244 12.5996C11.6653 12.6474 11.7047 12.7094 11.7976 12.7206C11.837 12.7234 11.8877 12.7347 11.913 12.746C11.9862 12.7741 12.0538 12.76 12.0622 12.7178ZM12.0622 12.5686C12.0678 12.532 12.0425 12.5179 11.837 12.4448C11.6822 12.3885 11.6146 12.4166 11.6653 12.5095C11.6822 12.5405 11.7103 12.5545 11.7751 12.5658C11.8229 12.5714 11.8877 12.5855 11.9186 12.5968C12.0031 12.6249 12.0538 12.6137 12.0594 12.5686H12.0622ZM12.1636 12.4307C12.1945 12.3997 12.2199 12.3631 12.2199 12.3462C12.2199 12.304 12.0988 12.3828 12.0819 12.4391C12.065 12.5039 12.096 12.5011 12.1664 12.4307H12.1636ZM12.0622 12.4222C12.0678 12.3772 11.9946 12.3378 11.8483 12.3068C11.7385 12.2815 11.6906 12.2956 11.6991 12.3462C11.7047 12.3744 11.7413 12.3941 11.8398 12.425C12.0059 12.4757 12.0538 12.4757 12.0622 12.4222ZM12.203 12.2139C12.3944 12.1295 12.4085 11.9183 12.2311 11.862C12.1579 11.8395 12.1129 11.8536 12.0847 11.9015C12.0622 11.9409 12.0763 12.0084 12.1044 12.0084C12.1157 12.0084 12.1241 12.0225 12.1241 12.0366C12.1241 12.1126 11.837 12.1435 11.7188 12.0844C11.6765 12.0647 11.6625 12.0084 11.6934 12.0084C11.7216 12.0084 11.7385 11.9521 11.7244 11.9155C11.7075 11.8592 11.6512 11.8423 11.5752 11.8649C11.3979 11.9099 11.4035 12.1182 11.5837 12.2027C11.783 12.2758 12.0011 12.2798 12.203 12.2139Z" fill="#FFB700" stroke="black" stroke-width="0.262737"/>
<path d="M12.0905 12.0501C12.1018 12.0388 12.0961 12.0219 12.0792 12.0107C12.0398 11.9797 12.0427 11.9319 12.0849 11.8784C12.1187 11.839 12.1215 11.777 12.1327 11.1718C12.1524 10.1274 12.2313 9.34202 12.3326 9.1506C12.3748 9.07741 12.3692 9.07741 12.2622 9.1506C12.1219 9.24837 12.0086 9.38008 11.9329 9.53344C11.7583 9.85717 11.6992 10.2935 11.6992 11.2281C11.6992 11.7573 11.702 11.8277 11.733 11.8756C11.7611 11.9262 11.7611 11.9431 11.7443 11.9938C11.7302 12.0248 11.7246 12.0585 11.7302 12.0642C11.7696 12.1008 12.0511 12.0923 12.0905 12.0501ZM13.6697 11.0536C13.6782 11.0451 13.6641 10.9973 13.6416 10.9522C13.6078 10.879 13.5937 10.8678 13.5459 10.8678C13.3208 10.8482 13.1013 10.7871 12.8984 10.6876C12.7549 10.6229 12.7014 10.6088 12.6873 10.6257C12.6423 10.6679 12.7154 10.7664 12.8281 10.8199C12.9938 10.8796 13.1673 10.9147 13.3432 10.9241C13.4192 10.9241 13.422 10.9241 13.377 10.9888L13.3488 11.0339H13.4333L13.574 11.0507C13.6585 11.0705 13.6585 11.0705 13.6697 11.0536Z" fill="#FFB700" stroke="black" stroke-width="0.262737"/>
<path d="M14.5583 11.5232C14.5583 11.4951 14.4767 11.4247 14.3979 11.3768C14.3331 11.3402 14.3218 11.3374 14.3218 11.3684C14.3218 11.4134 14.2824 11.5288 14.2655 11.5288C14.2571 11.5288 14.243 11.5063 14.2374 11.481C14.2289 11.4528 14.198 11.3965 14.167 11.3599L14.1107 11.2896L14.0713 11.3543C14.0319 11.4162 13.9615 11.4754 13.9306 11.4754C13.9249 11.4754 13.9221 11.4416 13.9306 11.405C13.9334 11.3599 13.9306 11.3262 13.9165 11.3205C13.9052 11.3121 13.894 11.3149 13.894 11.3262C13.894 11.3487 13.7982 11.4556 13.7814 11.4556C13.7701 11.4556 13.7588 11.4275 13.7532 11.3881L13.7307 11.253C13.7251 11.2192 13.7391 11.2417 13.7588 11.3093L13.8039 11.4247L13.8489 11.3543C13.8693 11.3252 13.8845 11.2928 13.894 11.2586C13.894 11.2445 13.9024 11.2389 13.9137 11.2445C13.9249 11.2501 13.939 11.298 13.9446 11.3487L13.9587 11.4444L14.0094 11.3881C14.0359 11.3598 14.0604 11.3297 14.0826 11.298C14.1023 11.2642 14.1051 11.2642 14.1473 11.298C14.1698 11.3205 14.2064 11.3684 14.2289 11.4078C14.2515 11.4472 14.2712 11.4754 14.274 11.4725L14.2909 11.3825L14.3021 11.298C14.305 11.2839 14.4542 11.3825 14.5105 11.4303C14.5442 11.4613 14.578 11.4838 14.5836 11.4782C14.5893 11.4725 14.5949 11.4275 14.5949 11.374C14.5949 11.2952 14.5865 11.2727 14.5386 11.2304C14.4823 11.1798 14.4823 11.1798 14.4598 11.2164C14.4316 11.2642 14.4007 11.2642 14.4007 11.2164C14.4007 11.1826 14.2937 11.0503 14.2684 11.0503C14.2599 11.0503 14.2374 11.0784 14.2177 11.115C14.198 11.1516 14.1755 11.1798 14.1698 11.1798C14.1417 11.1798 13.9925 11.0109 13.9925 10.9827C13.9925 10.9602 14.0037 10.9658 14.0291 11.0052C14.0542 11.0422 14.0835 11.0762 14.1163 11.1066C14.1726 11.1573 14.1952 11.146 14.2177 11.0475C14.2261 11.0193 14.2374 10.9968 14.2458 10.9968C14.2684 10.9968 14.3979 11.1347 14.4147 11.1798L14.4344 11.2248L14.4485 11.1741C14.4654 11.1122 14.4851 11.1122 14.5133 11.1685C14.5245 11.191 14.5808 11.2417 14.6371 11.2755L14.7413 11.343L14.761 11.2755C14.7723 11.2389 14.7891 11.2192 14.7948 11.2304C14.806 11.2445 14.7779 11.3571 14.7582 11.3796C14.7582 11.3825 14.7216 11.3627 14.685 11.3374L14.6146 11.2867V11.3768C14.6146 11.4247 14.609 11.4838 14.6034 11.5063C14.5893 11.5514 14.5555 11.5626 14.5555 11.5232H14.5583ZM14.0375 10.8082C13.9137 10.7068 13.8968 10.6843 13.8968 10.6337L13.8996 10.583L13.908 10.6308C13.9137 10.659 13.9474 10.704 13.9869 10.7378L14.06 10.7941L14.1023 10.7434C14.1276 10.7153 14.1473 10.6815 14.1473 10.6702C14.1473 10.6365 14.1529 10.6393 14.2374 10.7125C14.3106 10.7772 14.3134 10.7772 14.3218 10.735C14.3303 10.7125 14.3275 10.6674 14.3218 10.6365C14.2937 10.552 14.2993 10.5408 14.3359 10.5914L14.4035 10.6702C14.4316 10.7012 14.4344 10.7012 14.4457 10.6618C14.4542 10.6365 14.4598 10.5942 14.4598 10.5661V10.5126L14.5245 10.5886C14.5893 10.6618 14.5949 10.6646 14.6118 10.628C14.6259 10.6083 14.6343 10.5605 14.6343 10.5239C14.6343 10.4732 14.6399 10.4619 14.6512 10.4788C14.6737 10.5126 14.6597 10.5971 14.6202 10.6702L14.5921 10.7266L14.5555 10.6674C14.5076 10.5942 14.4907 10.5942 14.4626 10.6731C14.4344 10.7491 14.4147 10.7547 14.3866 10.6956C14.3697 10.659 14.3641 10.6646 14.3528 10.7434L14.3387 10.8279L14.2543 10.7631L14.1698 10.6984L14.1276 10.7406C14.1079 10.766 14.091 10.7969 14.091 10.8082C14.091 10.8363 14.0685 10.8363 14.0375 10.8082ZM15.1354 10.4253C15.0932 10.3859 15.0622 10.3465 15.0678 10.3409C15.0763 10.3324 15.0819 10.3296 15.0847 10.3353C15.112 10.3643 15.1401 10.3925 15.1692 10.4197C15.2649 10.5211 15.2452 10.5239 15.1382 10.4253H15.1354ZM13.6716 10.2733C13.6322 10.217 13.635 10.1832 13.6856 10.1213C13.7194 10.0791 13.7363 10.0735 13.7982 10.0819C13.8405 10.0847 13.9277 10.1213 13.9925 10.1607C14.0861 10.2166 14.1931 10.2458 14.3021 10.2452L14.2543 10.1664C14.1924 10.0735 14.1924 10.0622 14.2655 10.1185C14.3387 10.1776 14.426 10.1945 14.6231 10.1889L14.7188 10.1861L14.6625 10.1298C14.5865 10.0538 14.609 10.0453 14.6962 10.1213C14.7751 10.1917 14.7723 10.1973 14.6005 10.2142C14.5289 10.2214 14.4566 10.2167 14.3866 10.2001C14.2909 10.172 14.2853 10.1748 14.305 10.2058C14.3162 10.2255 14.3331 10.2395 14.3416 10.2395C14.3528 10.2395 14.3613 10.2508 14.3613 10.2621C14.3613 10.2987 14.1529 10.2649 14.0516 10.217C13.8264 10.1016 13.7982 10.0904 13.7419 10.1072C13.727 10.113 13.7133 10.1217 13.7017 10.1328C13.6901 10.1439 13.6808 10.1573 13.6744 10.172C13.6378 10.2649 13.7701 10.3381 13.8236 10.2564C13.8405 10.2311 13.8377 10.217 13.8095 10.1861C13.7701 10.1467 13.7757 10.141 13.8264 10.1579C13.863 10.172 13.8658 10.2593 13.832 10.293C13.7954 10.3296 13.7054 10.3212 13.6716 10.2733Z" fill="black" stroke="black" stroke-width="0.262737"/>
<path d="M14.5694 10.0458C14.5412 10.0176 14.5637 10.012 14.6904 10.0092C14.8481 10.0064 14.9438 9.98105 15.0564 9.90786C15.1465 9.85155 15.1718 9.86281 15.0845 9.92193C15.0085 9.97823 14.8875 10.0176 14.7664 10.0289L14.6229 10.0486C14.6003 10.0542 14.575 10.0514 14.5666 10.0458H14.5694Z" fill="black" stroke="black" stroke-width="0.262737"/>
<path d="M13.1902 14.7521L13.2549 14.7127L13.2831 14.7521C13.3197 14.8028 13.4238 14.8 13.4914 14.7521L13.5449 14.7099L13.5899 14.7493C13.6462 14.8028 13.7532 14.8028 13.8236 14.7493C13.8714 14.7155 13.8799 14.7127 13.908 14.7409C13.9277 14.7578 13.984 14.7747 14.0319 14.7831C14.122 14.7944 14.122 14.7944 14.1726 14.7155C14.2177 14.6508 14.2233 14.6255 14.2149 14.5607C14.207 14.5113 14.2014 14.4615 14.198 14.4115C14.1923 14.3383 14.1952 14.3383 14.2993 14.2989C14.351 14.283 14.4018 14.2643 14.4513 14.2426C14.4936 14.2173 14.6118 14.0793 14.6118 14.0512C14.6118 14.0456 14.5667 14.0343 14.5104 14.0287C14.2852 14.0005 14.2486 13.8823 14.395 13.6627C14.6287 13.2968 14.7722 12.9449 14.7722 12.7225C14.7722 12.6211 14.7807 12.5874 14.7919 12.6099C14.8454 12.6972 14.7497 13.0716 14.609 13.3418L14.5527 13.4488L14.6062 13.4375C14.6343 13.4291 14.8145 13.3531 15.0003 13.2686C15.5126 13.0378 15.6871 12.9927 16.0193 13.0068C16.298 13.0181 16.4134 13.0716 16.6105 13.277C16.7146 13.3897 16.816 13.4657 16.9989 13.5811C17.3874 13.8232 17.4043 13.8457 17.424 14.1328C17.4437 14.4228 17.4325 14.4397 17.2129 14.4875C17.0243 14.5297 16.906 14.617 16.8751 14.7409C16.8582 14.8028 16.8948 14.8056 16.9877 14.7437L17.0581 14.6986L17.089 14.7437C17.1312 14.8028 17.2157 14.8028 17.2861 14.7437L17.3424 14.7015L17.3987 14.7437C17.4831 14.8141 17.5957 14.7972 17.6295 14.7099C17.6351 14.6958 17.652 14.6986 17.6858 14.7296C17.7506 14.7859 17.911 14.8084 17.9279 14.7634C17.9335 14.7465 17.9223 14.7071 17.8998 14.6733C17.8069 14.5326 17.7759 14.4678 17.7759 14.3918C17.7759 14.2848 17.804 14.2313 17.9279 14.1469C18.0743 14.0399 18.1193 13.9048 18.0067 13.9048C17.9392 13.9048 17.8688 13.8429 17.8237 13.7443C17.7337 13.5417 17.7534 13.3165 17.8885 12.9392C17.9921 12.7173 18.0441 12.4748 18.0405 12.2299C18.0405 12.0215 18.0349 11.9878 17.9898 11.8723C17.9546 11.7921 17.9112 11.7157 17.8603 11.6443L17.7815 11.5402L17.88 11.4557C18.1841 11.2052 18.1221 10.7942 17.7562 10.6365C17.6436 10.5859 17.6154 10.5831 17.4184 10.5831C17.3058 10.5831 17.1228 10.5999 17.0243 10.6197C16.892 10.6406 16.7584 10.6519 16.6245 10.6534C16.4331 10.6534 16.3993 10.6478 16.3261 10.6084C16.2501 10.569 16.2361 10.5493 16.222 10.4536C16.2206 10.4445 16.2171 10.436 16.2117 10.4286C16.2063 10.4213 16.1992 10.4153 16.191 10.4113C16.1629 10.4029 16.0446 10.507 16.0278 10.5521C16.0165 10.5774 16.0109 10.5746 15.9855 10.5436C15.9616 10.513 15.9427 10.4788 15.9292 10.4423C15.9011 10.3494 15.9377 10.2818 16.0475 10.2284L16.1319 10.189L16.0812 10.158C15.9799 10.0932 15.8054 10.1383 15.7434 10.2424C15.7237 10.2706 15.704 10.2987 15.6984 10.2987C15.6928 10.2987 15.659 10.2706 15.6252 10.234C15.4929 10.1045 15.5379 9.91308 15.7153 9.85678C15.8082 9.82581 15.8926 9.84833 15.9095 9.91308C15.9377 10.006 16.0165 9.88211 16.0024 9.76669C15.994 9.69069 15.994 9.68787 16.0475 9.68787C16.1206 9.68787 16.2727 9.78358 16.3233 9.85678C16.3796 9.94404 16.374 10.082 16.3121 10.1833L16.2642 10.2621L16.329 10.2509C16.419 10.2312 16.5091 10.1749 16.5542 10.1045C16.5779 10.0597 16.5912 10.0101 16.5932 9.9594C16.5951 9.90872 16.5856 9.85825 16.5654 9.81173C16.5232 9.73573 16.5288 9.72447 16.5908 9.7498C16.6921 9.79203 16.7484 9.83989 16.7878 9.92152C16.8272 9.99471 16.83 10.0116 16.8103 10.0904C16.7969 10.1384 16.776 10.184 16.7484 10.2255C16.7146 10.2706 16.7118 10.279 16.74 10.279C16.7906 10.279 16.892 10.2312 16.9286 10.1946C16.9483 10.1721 16.9764 10.1242 16.9905 10.082L17.0186 10.0116L17.0468 10.0679C17.089 10.1439 17.1735 10.2143 17.2748 10.2593C17.3846 10.3044 17.4296 10.3072 17.3733 10.265C17.3339 10.2368 17.2607 10.0257 17.2861 10.006C17.4076 10.074 17.5185 10.1594 17.6154 10.2593C17.7759 10.4029 17.8772 10.4507 18.0236 10.4507C18.2122 10.4507 18.322 10.2875 18.2376 10.1326C18.1897 10.0426 18.0799 10.0285 18.0124 10.1045C17.9842 10.1411 17.9758 10.1692 17.9842 10.2087C17.9955 10.2537 17.9926 10.2593 17.9504 10.2593C17.8941 10.2593 17.7872 10.189 17.5957 10.0285C17.3293 9.79919 17.023 9.62076 16.6921 9.50208C16.4679 9.45027 16.2365 9.43788 16.008 9.46548C15.8279 9.49927 15.6139 9.60342 15.4957 9.71321C15.2902 9.91026 15.2874 10.1721 15.4873 10.4113L15.5436 10.4789L15.507 10.5408C15.4794 10.5852 15.4658 10.6368 15.4678 10.6889C15.4698 10.7411 15.4874 10.7915 15.5182 10.8336C15.5464 10.873 15.5745 10.904 15.583 10.904C15.5886 10.904 15.5942 10.8786 15.597 10.8477C15.6027 10.7717 15.6365 10.721 15.6928 10.7013C15.7434 10.6816 15.7772 10.6928 16.008 10.7857C16.253 10.8814 16.6555 10.8871 17.0834 10.8026C17.2688 10.7598 17.4618 10.7617 17.6464 10.8083C17.8491 10.8927 17.8941 11.1095 17.7477 11.2727C17.683 11.3459 17.6239 11.3741 17.4184 11.4304C17.2395 11.4776 17.0535 11.4919 16.8694 11.4726C16.5654 11.4698 16.4556 11.4754 16.3346 11.5008C16.1967 11.5289 16.115 11.5317 15.7209 11.5233L15.2621 11.512L15.3127 11.5514C15.3399 11.5755 15.3691 11.5972 15.4 11.6162C15.4366 11.6359 15.4338 11.6387 15.3831 11.6584C15.355 11.6697 15.2874 11.6781 15.2339 11.6781H15.141L15.1298 11.7569C15.1222 11.7941 15.1222 11.8324 15.1298 11.8695C15.141 11.8977 15.1354 11.9033 15.1072 11.8921C15.0875 11.8836 15.034 11.8695 14.9862 11.8611C14.9379 11.8507 14.8908 11.8356 14.8454 11.816C14.7919 11.7879 14.7863 11.7879 14.7666 11.8245C14.7497 11.8526 14.5921 11.9709 14.5696 11.9709C14.5594 11.8978 14.5385 11.8267 14.5076 11.7597C14.4795 11.7006 14.4541 11.6331 14.4457 11.6134C14.4373 11.5824 14.4316 11.5796 14.4175 11.6049C14.4091 11.619 14.3978 11.6612 14.3894 11.695C14.3795 11.7406 14.3624 11.7843 14.3387 11.8245L14.2965 11.8864L14.2684 11.8329C14.2402 11.7766 14.1952 11.7147 14.1783 11.7147C14.1726 11.7147 14.1642 11.7316 14.1586 11.7569C14.1445 11.802 14.0347 11.9343 14.0066 11.9343C13.9981 11.9343 13.9897 11.8977 13.9897 11.8498C13.9897 11.8076 13.9812 11.7682 13.97 11.7682C13.9587 11.7682 13.9503 11.7823 13.9503 11.7963C13.9503 11.8301 13.8574 11.9371 13.8236 11.9371C13.8123 11.9371 13.7898 11.9484 13.7757 11.9652C13.7419 12.0018 13.7138 11.9962 13.7279 11.954C13.7318 11.9179 13.728 11.8814 13.7166 11.847L13.6885 11.7569C13.6828 11.7429 13.649 11.7485 13.5759 11.771C13.4632 11.8076 13.4238 11.7992 13.483 11.7541C13.5055 11.7372 13.5393 11.6781 13.5561 11.6246C13.5759 11.5683 13.604 11.5205 13.6181 11.5148C13.6378 11.5092 13.6378 11.5148 13.6124 11.5486C13.5962 11.57 13.5855 11.5952 13.5815 11.6218C13.5815 11.6359 13.5674 11.6725 13.5533 11.7034C13.5364 11.7316 13.5252 11.7597 13.528 11.7626C13.5308 11.7654 13.5759 11.7485 13.6265 11.726L13.7166 11.6809V11.7203C13.7166 11.7429 13.7279 11.7992 13.7419 11.847L13.7673 11.9315L13.8292 11.9033C13.8911 11.8752 13.9503 11.7738 13.9503 11.6922C13.9503 11.6528 13.9728 11.6584 13.984 11.7006C13.984 11.7119 14.0009 11.7597 14.0122 11.8048L14.0403 11.8836L14.0826 11.8329C14.1079 11.8048 14.136 11.7485 14.1473 11.7119C14.1698 11.6443 14.2036 11.6134 14.2036 11.664C14.2036 11.6978 14.2993 11.8273 14.3162 11.816C14.3275 11.8104 14.3444 11.7626 14.3584 11.7091C14.3866 11.5965 14.4288 11.5233 14.457 11.5402C14.4682 11.5458 14.471 11.5571 14.4654 11.5683C14.4598 11.574 14.4823 11.6471 14.5161 11.726C14.5406 11.785 14.5649 11.8442 14.5893 11.9033C14.6005 11.9315 14.6118 11.9315 14.6822 11.8667C14.7244 11.8273 14.7666 11.7851 14.7694 11.771C14.7779 11.7485 14.7863 11.7513 14.8257 11.7766C14.9087 11.8205 14.9997 11.8473 15.0932 11.8555C15.0988 11.8498 15.1044 11.7992 15.1044 11.7429L15.1072 11.6387L15.1635 11.65C15.1917 11.6584 15.2564 11.6584 15.3043 11.65L15.3887 11.6387L15.3127 11.5824C15.2705 11.5542 15.2283 11.5176 15.217 11.5008C15.2086 11.4839 15.1692 11.467 15.1269 11.4642C15.0115 11.4529 14.806 11.3403 14.806 11.284C14.806 11.2727 14.8342 11.2924 14.868 11.3234C14.9468 11.3938 15.0537 11.436 15.1495 11.436H15.217L15.1748 11.3797C15.1447 11.3361 15.1254 11.2859 15.1185 11.2333C15.1129 11.1489 15.1044 11.1376 15.0172 11.0785C14.9665 11.0426 14.9194 11.0021 14.8764 10.9575L14.8285 10.904L14.8032 10.9687C14.7891 11.0053 14.7751 11.0335 14.7666 11.0335C14.761 11.0335 14.7328 11.0109 14.7103 10.9856C14.6945 10.9673 14.6754 10.952 14.654 10.9406C14.6456 10.9406 14.6259 10.9743 14.6033 11.0166L14.5639 11.0926L14.5358 11.0504C14.5107 11.0158 14.4825 10.9838 14.4513 10.9546C14.4175 10.9265 14.4035 10.904 14.4147 10.904C14.426 10.904 14.4626 10.9321 14.4992 10.9687L14.5611 11.0335L14.5893 10.9856C14.6055 10.9524 14.6105 10.9149 14.6033 10.8786C14.5921 10.828 14.5949 10.8251 14.6118 10.8589C14.6361 10.8907 14.6645 10.9191 14.6962 10.9434L14.7582 10.9941L14.8004 10.918C14.8426 10.8392 14.8426 10.8392 14.8595 10.8871C14.8877 10.9462 15.0706 11.0982 15.2255 11.1855C15.2536 11.1995 15.2424 11.1545 15.1973 11.0447C15.1838 11.0086 15.1762 10.9706 15.1748 10.9321C15.1748 10.8815 15.1607 10.8589 15.096 10.8083C15.0557 10.7825 15.022 10.7477 14.9976 10.7067C14.9732 10.6656 14.9587 10.6194 14.9552 10.5718C14.9468 10.5239 14.9299 10.4733 14.9158 10.4564C14.8989 10.4282 14.8933 10.4451 14.8989 10.5296C14.9046 10.5887 14.8961 10.6619 14.882 10.6928L14.8595 10.7491L14.8426 10.7013C14.8314 10.676 14.7863 10.6309 14.7441 10.6028C14.7019 10.5746 14.6709 10.5465 14.6765 10.5408C14.6822 10.5352 14.7272 10.5605 14.7751 10.5971C14.8511 10.6562 14.8651 10.6619 14.8764 10.6365C14.8877 10.6084 14.8764 10.4789 14.8539 10.3888C14.8426 10.3438 14.8426 10.3438 14.8989 10.4001C14.9383 10.4395 14.9609 10.4902 14.9806 10.5746C15.0031 10.6816 15.0143 10.7013 15.1129 10.7886C15.172 10.842 15.2255 10.8815 15.2283 10.8786C15.2339 10.873 15.2395 10.7379 15.2452 10.5746C15.2564 10.2621 15.2452 10.1861 15.1692 10.0904L15.1298 10.0398L15.1917 9.97501C15.2611 9.90864 15.3074 9.82185 15.324 9.72728L15.3353 9.65128L15.2677 9.71602C15.2114 9.76951 15.1832 9.78077 15.1185 9.78077C15.0537 9.78077 15.0284 9.76951 14.9862 9.72447C14.9204 9.66115 14.8402 9.61478 14.7525 9.58935C14.7188 9.57809 14.7075 9.58372 14.7075 9.60624C14.7075 9.62313 14.6906 9.66817 14.6681 9.71039L14.6287 9.78358L14.5442 9.69913C14.4907 9.65128 14.4316 9.60905 14.3838 9.59779C14.2684 9.56964 14.2627 9.56964 14.2627 9.65691C14.2627 9.78921 14.2064 9.81455 14.1051 9.72728C14.0263 9.65972 13.9643 9.64283 13.8151 9.66254L13.7025 9.6738L13.7222 9.72447C13.7391 9.76669 13.7363 9.7864 13.6997 9.83426C13.6406 9.91308 13.5646 9.94686 13.4464 9.94686C13.3901 9.94686 13.3225 9.95812 13.2943 9.97219C13.2662 9.98627 13.193 10.0003 13.1339 10.006C13.0776 10.0116 13.0128 10.0229 12.9931 10.0285C12.965 10.0398 12.965 10.0285 12.9734 9.96656C12.9875 9.87085 12.9171 9.79766 12.813 9.79766C12.675 9.79766 12.6131 9.92152 12.6666 10.0848C12.6775 10.12 12.6869 10.1557 12.6947 10.1918C12.7317 10.2622 12.7813 10.3251 12.8411 10.3776C12.9143 10.4507 12.9819 10.5268 12.9931 10.5465C13.0158 10.5758 13.0446 10.5998 13.0776 10.6168L13.1395 10.6506L13.1311 10.5831C13.1226 10.5099 13.1367 10.4986 13.1761 10.5521C13.1902 10.569 13.2268 10.5999 13.2549 10.6168C13.3028 10.645 13.3112 10.645 13.3112 10.6225C13.3112 10.6056 13.3197 10.569 13.3309 10.5408L13.3506 10.4902L13.3872 10.5605C13.4069 10.5999 13.4717 10.6872 13.5308 10.7576C13.6462 10.8899 13.7194 11.0391 13.6828 11.0729C13.6659 11.0869 13.6265 11.0869 13.5421 11.0701C13.4801 11.0588 13.4013 11.0504 13.3675 11.056C13.3028 11.0644 13.2972 11.056 13.3394 11.0053C13.3816 10.949 13.3732 10.9406 13.2887 10.9406C13.1902 10.9406 12.9453 10.8927 12.8496 10.8561C12.7595 10.8195 12.737 10.828 12.7088 10.9152L12.661 11.0729L12.6328 11.1573L12.7342 11.1489C12.7864 11.1434 12.8382 11.134 12.889 11.1207C12.9089 11.1141 12.9299 11.1112 12.9509 11.1123C12.9565 11.1151 12.9425 11.1489 12.9228 11.1883L12.8834 11.2559L12.9453 11.2446C12.9791 11.2361 13.0297 11.2193 13.0579 11.2052C13.1086 11.1827 13.1142 11.1827 13.1536 11.2474C13.2015 11.3234 13.238 11.3206 13.2465 11.239C13.2549 11.1545 13.2831 11.1658 13.3366 11.2784C13.3872 11.3853 13.4379 11.4248 13.4492 11.3628C13.452 11.3403 13.4773 11.3065 13.5083 11.284C13.5702 11.2418 13.6153 11.2559 13.6406 11.3206C13.6687 11.391 13.6068 11.4613 13.4323 11.5683C13.2707 11.6576 13.1316 11.7826 13.0257 11.9338C12.9198 12.0851 12.8499 12.2586 12.8214 12.441C12.7679 12.7732 12.934 13.1166 13.2606 13.3671C13.4182 13.4854 13.6687 13.6092 13.6519 13.5642C13.5843 13.3587 13.5871 12.973 13.6547 12.9083C13.6659 12.897 13.6631 12.9364 13.6462 12.9955C13.5899 13.2179 13.6181 13.3925 13.7588 13.8035C13.8827 14.175 13.8658 14.3355 13.6856 14.4397C13.6293 14.4734 13.5927 14.4791 13.4379 14.4763C13.269 14.4763 13.2493 14.4763 13.1958 14.5213C13.1311 14.5873 13.0888 14.672 13.0748 14.7634C13.0748 14.8 13.1142 14.7944 13.1874 14.7521H13.1902Z" fill="#FFB700"/>
<path d="M15.9206 14.7433L15.9909 14.6983L16.0388 14.7433C16.1007 14.8024 16.1767 14.7996 16.2359 14.7405C16.264 14.7124 16.2865 14.6955 16.2893 14.6983L16.3147 14.7433C16.3288 14.7687 16.3597 14.7799 16.416 14.7856C16.4808 14.7884 16.5005 14.7856 16.5286 14.7461L16.5568 14.6983L16.6271 14.7433C16.8186 14.8672 16.9199 14.7377 16.8326 14.4815C16.7904 14.352 16.8158 14.2789 16.9537 14.1156C17.0128 14.0452 17.0607 13.9692 17.0607 13.9467C17.0607 13.9157 17.0494 13.9101 16.9706 13.9129C16.8974 13.9129 16.8749 13.9045 16.8355 13.8622C16.7707 13.7918 16.7763 13.7102 16.8467 13.6201L16.903 13.5498L16.8017 13.4822C16.7208 13.4224 16.6454 13.3556 16.5765 13.2823C16.515 13.2098 16.4399 13.1501 16.3554 13.1066C16.2708 13.0632 16.1786 13.0368 16.0838 13.029L15.9515 13.0149V13.1162C15.9515 13.2429 16.0135 13.3668 16.1767 13.5751C16.3625 13.8116 16.3738 13.8482 16.3822 14.1578L16.3907 14.4196L16.3344 14.4703C16.2865 14.5153 16.2668 14.5238 16.1092 14.5322C15.96 14.5406 15.9262 14.5491 15.884 14.5885C15.8346 14.6245 15.8004 14.6778 15.7883 14.7377C15.7798 14.7799 15.7826 14.7884 15.8136 14.7884C15.8333 14.7884 15.8812 14.7687 15.9206 14.7433ZM11.9176 14.0677C11.9346 14.0427 11.9444 14.0135 11.9457 13.9833C11.9457 13.9551 11.9626 13.9439 12.0358 13.9326L12.1231 13.9213L12.0668 13.8735C11.9964 13.8172 11.988 13.775 12.0499 13.775C12.1118 13.775 12.2132 13.713 12.2301 13.6652C12.2385 13.6427 12.2301 13.6145 12.2188 13.6004C12.185 13.561 12.1203 13.5666 12.109 13.6117C12.0949 13.6567 12.0752 13.6567 12.0246 13.6117C11.9542 13.5413 11.9514 13.3977 12.0246 13.3133C12.0555 13.2739 12.0555 13.2739 12.0133 13.2317C11.9683 13.1866 11.9345 13.1022 11.957 13.0796C11.9626 13.074 11.9992 13.0796 12.0358 13.0937C12.0921 13.1106 12.1118 13.1106 12.1343 13.0937C12.1991 13.0402 12.1287 12.9727 12.0217 12.9896C11.9767 12.9952 11.9598 12.9896 11.9542 12.967C11.9485 12.9502 11.912 12.9276 11.8697 12.9164C11.7937 12.8967 11.7937 12.8967 11.7937 12.9502C11.7937 13.0065 11.7599 13.0177 11.698 12.9811C11.6473 12.953 11.5995 12.9755 11.5995 13.029C11.5995 13.0796 11.6473 13.1022 11.7402 13.0965C11.8078 13.0937 11.8106 13.1444 11.7459 13.2176L11.698 13.2739L11.7346 13.3274C11.7909 13.4062 11.7853 13.5385 11.7262 13.6061L11.6783 13.6567L11.6473 13.6145C11.6023 13.5582 11.5432 13.561 11.5263 13.6229C11.5178 13.6624 11.5263 13.6792 11.577 13.7243C11.6107 13.7524 11.6614 13.775 11.6867 13.775C11.7515 13.775 11.7487 13.8284 11.6811 13.8791L11.6248 13.9213L11.7093 13.9326C11.7543 13.941 11.7937 13.9523 11.7937 13.9608C11.7937 13.9973 11.85 14.1071 11.8669 14.1071C11.8782 14.1071 11.9007 14.0874 11.9176 14.0649V14.0677Z" fill="#FFB700"/>
<path d="M12.9927 13.6019C13.0687 13.5737 13.232 13.4329 13.232 13.402C13.232 13.3907 13.1869 13.3401 13.1306 13.2894C13.018 13.188 12.8914 13.0107 12.8576 12.9094C12.8407 12.8531 12.7591 12.763 12.5282 12.5378L12.2214 12.2422L12.1341 12.2647C12.0834 12.276 12.0243 12.2872 12.0018 12.2872C11.9596 12.2872 11.9596 12.2872 12.0159 12.3323L12.0722 12.3773L12.1566 12.3323C12.2326 12.2872 12.2355 12.2872 12.2439 12.3238C12.2495 12.3435 12.2383 12.3801 12.2157 12.4055C12.196 12.4308 12.1848 12.4618 12.1876 12.4702C12.196 12.4787 12.1763 12.4984 12.1454 12.5152C12.0891 12.5434 12.0468 12.6363 12.0919 12.6363C12.1341 12.6363 12.2242 12.5237 12.2129 12.4871C12.2073 12.4674 12.2129 12.4477 12.2186 12.4421C12.2552 12.4224 12.2523 12.5096 12.2186 12.5547C12.196 12.5772 12.1848 12.6053 12.1904 12.6166C12.196 12.625 12.1763 12.6447 12.1454 12.6616C12.0891 12.6898 12.0468 12.7827 12.0919 12.7827C12.1369 12.7827 12.2242 12.6757 12.2157 12.6363C12.2101 12.6166 12.2101 12.5941 12.2186 12.5884C12.2439 12.5772 12.2552 12.6447 12.2355 12.6785C12.2303 12.688 12.2276 12.6987 12.2276 12.7095C12.2276 12.7203 12.2303 12.7309 12.2355 12.7404C12.2552 12.777 12.2355 12.8446 12.1989 12.8671C12.1848 12.8756 12.1932 12.8953 12.2326 12.9234C12.2889 12.9628 12.2889 12.9685 12.2889 13.1486C12.2889 13.3006 12.2946 13.3401 12.3227 13.3654C12.3509 13.3935 12.3565 13.3935 12.3565 13.3654C12.3565 13.3372 12.4128 13.2978 12.455 13.2978C12.4691 13.2978 12.5507 13.3682 12.638 13.4527C12.7253 13.5371 12.8182 13.6131 12.8435 13.6159L12.9054 13.6272C12.9139 13.6272 12.9533 13.6187 12.9927 13.599V13.6019ZM12.0553 12.8671C12.0553 12.8193 11.9539 12.7658 11.8329 12.7545C11.7344 12.7404 11.7344 12.7433 11.7344 12.7911C11.7344 12.8305 11.7485 12.8474 11.8188 12.8756C11.9258 12.9234 12.0553 12.9178 12.0553 12.8671Z" fill="#FFB700"/>
<path d="M12.1664 12.8614C12.217 12.8163 12.2396 12.7657 12.2086 12.7657C12.1748 12.7657 12.0847 12.8445 12.0847 12.8783C12.0847 12.9233 12.1016 12.9205 12.1692 12.8614H12.1664ZM12.0622 12.7178C12.065 12.6897 12.0481 12.6728 11.9975 12.6474C11.8849 12.5996 11.7554 12.5742 11.7244 12.5996C11.6653 12.6474 11.7047 12.7094 11.7976 12.7206C11.837 12.7234 11.8877 12.7347 11.913 12.746C11.9862 12.7741 12.0538 12.76 12.0622 12.7178ZM12.0622 12.5686C12.0678 12.532 12.0425 12.5179 11.837 12.4448C11.6822 12.3885 11.6146 12.4166 11.6653 12.5095C11.6822 12.5405 11.7103 12.5545 11.7751 12.5658C11.8229 12.5714 11.8877 12.5855 11.9186 12.5968C12.0031 12.6249 12.0538 12.6137 12.0594 12.5686H12.0622ZM12.1636 12.4307C12.1945 12.3997 12.2199 12.3631 12.2199 12.3462C12.2199 12.304 12.0988 12.3828 12.0819 12.4391C12.065 12.5039 12.096 12.5011 12.1664 12.4307H12.1636ZM12.0622 12.4222C12.0678 12.3772 11.9946 12.3378 11.8483 12.3068C11.7385 12.2815 11.6906 12.2956 11.6991 12.3462C11.7047 12.3744 11.7413 12.3941 11.8398 12.425C12.0059 12.4757 12.0538 12.4757 12.0622 12.4222ZM12.203 12.2139C12.3944 12.1295 12.4085 11.9183 12.2311 11.862C12.1579 11.8395 12.1129 11.8536 12.0847 11.9015C12.0622 11.9409 12.0763 12.0084 12.1044 12.0084C12.1157 12.0084 12.1241 12.0225 12.1241 12.0366C12.1241 12.1126 11.837 12.1435 11.7188 12.0844C11.6765 12.0647 11.6625 12.0084 11.6934 12.0084C11.7216 12.0084 11.7385 11.9521 11.7244 11.9155C11.7075 11.8592 11.6512 11.8423 11.5752 11.8649C11.3979 11.9099 11.4035 12.1182 11.5837 12.2027C11.783 12.2758 12.0011 12.2798 12.203 12.2139Z" fill="#FFB700"/>
<path d="M12.0905 12.0501C12.1018 12.0388 12.0961 12.0219 12.0792 12.0107C12.0398 11.9797 12.0427 11.9319 12.0849 11.8784C12.1187 11.839 12.1215 11.777 12.1327 11.1718C12.1524 10.1274 12.2313 9.34202 12.3326 9.1506C12.3748 9.07741 12.3692 9.07741 12.2622 9.1506C12.1219 9.24837 12.0086 9.38008 11.9329 9.53344C11.7583 9.85717 11.6992 10.2935 11.6992 11.2281C11.6992 11.7573 11.702 11.8277 11.733 11.8756C11.7611 11.9262 11.7611 11.9431 11.7443 11.9938C11.7302 12.0248 11.7246 12.0585 11.7302 12.0642C11.7696 12.1008 12.0511 12.0923 12.0905 12.0501ZM13.6697 11.0536C13.6782 11.0451 13.6641 10.9973 13.6416 10.9522C13.6078 10.879 13.5937 10.8678 13.5459 10.8678C13.3208 10.8482 13.1013 10.7871 12.8984 10.6876C12.7549 10.6229 12.7014 10.6088 12.6873 10.6257C12.6423 10.6679 12.7154 10.7664 12.8281 10.8199C12.9938 10.8796 13.1673 10.9147 13.3432 10.9241C13.4192 10.9241 13.422 10.9241 13.377 10.9888L13.3488 11.0339H13.4333L13.574 11.0507C13.6585 11.0705 13.6585 11.0705 13.6697 11.0536Z" fill="#FFB700"/>
<path d="M14.5583 11.5232C14.5583 11.4951 14.4767 11.4247 14.3979 11.3768C14.3331 11.3402 14.3218 11.3374 14.3218 11.3684C14.3218 11.4134 14.2824 11.5288 14.2655 11.5288C14.2571 11.5288 14.243 11.5063 14.2374 11.481C14.2289 11.4528 14.198 11.3965 14.167 11.3599L14.1107 11.2896L14.0713 11.3543C14.0319 11.4162 13.9615 11.4754 13.9306 11.4754C13.9249 11.4754 13.9221 11.4416 13.9306 11.405C13.9334 11.3599 13.9306 11.3262 13.9165 11.3205C13.9052 11.3121 13.894 11.3149 13.894 11.3262C13.894 11.3487 13.7982 11.4556 13.7814 11.4556C13.7701 11.4556 13.7588 11.4275 13.7532 11.3881L13.7307 11.253C13.7251 11.2192 13.7391 11.2417 13.7588 11.3093L13.8039 11.4247L13.8489 11.3543C13.8693 11.3252 13.8845 11.2928 13.894 11.2586C13.894 11.2445 13.9024 11.2389 13.9137 11.2445C13.9249 11.2501 13.939 11.298 13.9446 11.3487L13.9587 11.4444L14.0094 11.3881C14.0359 11.3598 14.0604 11.3297 14.0826 11.298C14.1023 11.2642 14.1051 11.2642 14.1473 11.298C14.1698 11.3205 14.2064 11.3684 14.2289 11.4078C14.2515 11.4472 14.2712 11.4754 14.274 11.4725L14.2909 11.3825L14.3021 11.298C14.305 11.2839 14.4542 11.3825 14.5105 11.4303C14.5442 11.4613 14.578 11.4838 14.5836 11.4782C14.5893 11.4725 14.5949 11.4275 14.5949 11.374C14.5949 11.2952 14.5865 11.2727 14.5386 11.2304C14.4823 11.1798 14.4823 11.1798 14.4598 11.2164C14.4316 11.2642 14.4007 11.2642 14.4007 11.2164C14.4007 11.1826 14.2937 11.0503 14.2684 11.0503C14.2599 11.0503 14.2374 11.0784 14.2177 11.115C14.198 11.1516 14.1755 11.1798 14.1698 11.1798C14.1417 11.1798 13.9925 11.0109 13.9925 10.9827C13.9925 10.9602 14.0037 10.9658 14.0291 11.0052C14.0542 11.0422 14.0835 11.0762 14.1163 11.1066C14.1726 11.1573 14.1952 11.146 14.2177 11.0475C14.2261 11.0193 14.2374 10.9968 14.2458 10.9968C14.2684 10.9968 14.3979 11.1347 14.4147 11.1798L14.4344 11.2248L14.4485 11.1741C14.4654 11.1122 14.4851 11.1122 14.5133 11.1685C14.5245 11.191 14.5808 11.2417 14.6371 11.2755L14.7413 11.343L14.761 11.2755C14.7723 11.2389 14.7891 11.2192 14.7948 11.2304C14.806 11.2445 14.7779 11.3571 14.7582 11.3796C14.7582 11.3825 14.7216 11.3627 14.685 11.3374L14.6146 11.2867V11.3768C14.6146 11.4247 14.609 11.4838 14.6034 11.5063C14.5893 11.5514 14.5555 11.5626 14.5555 11.5232H14.5583ZM14.0375 10.8082C13.9137 10.7068 13.8968 10.6843 13.8968 10.6337L13.8996 10.583L13.908 10.6308C13.9137 10.659 13.9474 10.704 13.9869 10.7378L14.06 10.7941L14.1023 10.7434C14.1276 10.7153 14.1473 10.6815 14.1473 10.6702C14.1473 10.6365 14.1529 10.6393 14.2374 10.7125C14.3106 10.7772 14.3134 10.7772 14.3218 10.735C14.3303 10.7125 14.3275 10.6674 14.3218 10.6365C14.2937 10.552 14.2993 10.5408 14.3359 10.5914L14.4035 10.6702C14.4316 10.7012 14.4344 10.7012 14.4457 10.6618C14.4542 10.6365 14.4598 10.5942 14.4598 10.5661V10.5126L14.5245 10.5886C14.5893 10.6618 14.5949 10.6646 14.6118 10.628C14.6259 10.6083 14.6343 10.5605 14.6343 10.5239C14.6343 10.4732 14.6399 10.4619 14.6512 10.4788C14.6737 10.5126 14.6597 10.5971 14.6202 10.6702L14.5921 10.7266L14.5555 10.6674C14.5076 10.5942 14.4907 10.5942 14.4626 10.6731C14.4344 10.7491 14.4147 10.7547 14.3866 10.6956C14.3697 10.659 14.3641 10.6646 14.3528 10.7434L14.3387 10.8279L14.2543 10.7631L14.1698 10.6984L14.1276 10.7406C14.1079 10.766 14.091 10.7969 14.091 10.8082C14.091 10.8363 14.0685 10.8363 14.0375 10.8082ZM15.1354 10.4253C15.0932 10.3859 15.0622 10.3465 15.0678 10.3409C15.0763 10.3324 15.0819 10.3296 15.0847 10.3353C15.112 10.3643 15.1401 10.3925 15.1692 10.4197C15.2649 10.5211 15.2452 10.5239 15.1382 10.4253H15.1354ZM13.6716 10.2733C13.6322 10.217 13.635 10.1832 13.6856 10.1213C13.7194 10.0791 13.7363 10.0735 13.7982 10.0819C13.8405 10.0847 13.9277 10.1213 13.9925 10.1607C14.0861 10.2166 14.1931 10.2458 14.3021 10.2452L14.2543 10.1664C14.1924 10.0735 14.1924 10.0622 14.2655 10.1185C14.3387 10.1776 14.426 10.1945 14.6231 10.1889L14.7188 10.1861L14.6625 10.1298C14.5865 10.0538 14.609 10.0453 14.6962 10.1213C14.7751 10.1917 14.7723 10.1973 14.6005 10.2142C14.5289 10.2214 14.4566 10.2167 14.3866 10.2001C14.2909 10.172 14.2853 10.1748 14.305 10.2058C14.3162 10.2255 14.3331 10.2395 14.3416 10.2395C14.3528 10.2395 14.3613 10.2508 14.3613 10.2621C14.3613 10.2987 14.1529 10.2649 14.0516 10.217C13.8264 10.1016 13.7982 10.0904 13.7419 10.1072C13.727 10.113 13.7133 10.1217 13.7017 10.1328C13.6901 10.1439 13.6808 10.1573 13.6744 10.172C13.6378 10.2649 13.7701 10.3381 13.8236 10.2564C13.8405 10.2311 13.8377 10.217 13.8095 10.1861C13.7701 10.1467 13.7757 10.141 13.8264 10.1579C13.863 10.172 13.8658 10.2593 13.832 10.293C13.7954 10.3296 13.7054 10.3212 13.6716 10.2733Z" fill="black"/>
<path d="M14.5694 10.0458C14.5412 10.0176 14.5637 10.012 14.6904 10.0092C14.8481 10.0064 14.9438 9.98105 15.0564 9.90786C15.1465 9.85155 15.1718 9.86281 15.0845 9.92193C15.0085 9.97823 14.8875 10.0176 14.7664 10.0289L14.6229 10.0486C14.6003 10.0542 14.575 10.0514 14.5666 10.0458H14.5694Z" fill="black"/>
</svg>
