<svg width="24" height="24" viewBox="0 0 24 24" fill="none" xmlns="http://www.w3.org/2000/svg">
<g clip-path="url(#clip0_358_14783)">
<path d="M-6 0H30V24H-6V0Z" fill="white"/>
<path d="M-6 0H30V7.2H-6V0Z" fill="#00209F"/>
<path d="M-6 16.8008H30V24.0008H-6V16.8008Z" fill="#009543"/>
<path d="M12.0002 7.58398C12.062 7.5839 12.1226 7.60086 12.1754 7.633C12.2281 7.66513 12.271 7.7112 12.2993 7.76613C13.0107 7.85098 13.3849 8.36613 13.5152 8.96527C13.6673 9.66556 13.5062 10.6178 13.012 11.6177L14.9102 14.1364C15.0109 14.0893 15.1105 14.0397 15.2089 13.9877L15.9066 15.4646C14.6993 16.0897 13.3597 16.4159 12.0002 16.4159C10.6407 16.4159 9.30102 16.0897 8.09375 15.4646L8.79146 13.9877C8.88982 14.0397 8.98942 14.0893 9.09018 14.1364L10.9883 11.6177C10.4942 10.6178 10.333 9.66556 10.4852 8.96527C10.6155 8.36613 10.9896 7.85098 11.701 7.76613C11.7293 7.7112 11.7722 7.66513 11.825 7.633C11.8778 7.60086 11.9384 7.5839 12.0002 7.58398ZM12.7519 11.2723C13.1367 10.413 13.2619 9.59827 13.1402 9.05956C13.0326 8.58298 12.7913 8.22898 12.3122 8.15356V9.38398L12.9122 9.98398H12.4322V10.848L12.7519 11.2723ZM11.6882 8.15356C11.209 8.22898 10.9677 8.58298 10.8602 9.05956C10.7385 9.59827 10.8636 10.413 11.2485 11.2723L11.5682 10.848V9.98398H11.0882L11.6882 9.38398V8.15356ZM9.02418 14.6194L8.81889 15.0531L9.15104 14.964L9.02418 14.6194ZM8.85704 15.2417C9.00939 15.3072 9.16375 15.368 9.31989 15.4238L9.21746 15.1453L8.85704 15.2417ZM9.61261 15.1766L10.0433 15.0403L9.91946 14.7626C9.74173 14.7086 9.56617 14.6477 9.39318 14.58L9.61261 15.1766ZM10.1217 15.2168L9.67904 15.357L9.75575 15.5653C9.94951 15.6221 10.1454 15.6716 10.3429 15.7136L10.1217 15.2168ZM10.6 15.4054L11.0745 15.2108L10.9609 14.9961C10.7615 14.9668 10.5635 14.929 10.3673 14.883L10.6 15.4054ZM11.1649 15.3814L10.678 15.5807L10.7723 15.7928C10.9878 15.8264 11.2045 15.8512 11.422 15.867L11.1649 15.3814ZM11.6432 15.516L12.235 15.2066L12.1493 15.0703C11.8975 15.0756 11.6456 15.0676 11.3946 15.0463L11.6432 15.516ZM12.3383 15.3694L11.7332 15.6857L11.8395 15.8863C12.1097 15.8917 12.3801 15.8834 12.6495 15.8614L12.3383 15.3694ZM12.835 15.4817L13.3005 15.162L13.1655 14.9764C12.9655 15.0094 12.7641 15.0338 12.562 15.0497L12.835 15.4817ZM13.4136 15.3171L12.9379 15.6441L13.048 15.8186C13.2658 15.7898 13.4823 15.7521 13.6969 15.7054L13.4136 15.3171ZM13.8465 15.2996L14.2339 14.9558L14.0757 14.7643C13.9041 14.8164 13.7305 14.862 13.5555 14.901L13.8465 15.2996ZM14.3565 15.1037L13.96 15.4556L14.0749 15.6133C14.2635 15.5623 14.4502 15.5044 14.6346 15.4397L14.3565 15.1037ZM14.7516 15.0167L15.0143 14.7L14.8999 14.4578C14.7493 14.5245 14.5965 14.586 14.4417 14.6421L14.7516 15.0167ZM15.1052 14.8916L14.8763 15.1671L14.9907 15.3056C15.0774 15.2705 15.1634 15.2339 15.2487 15.1958L15.1052 14.8916Z" fill="black"/>
</g>
<defs>
<clipPath id="clip0_358_14783">
<rect width="24" height="24" rx="12" fill="white"/>
</clipPath>
</defs>
</svg>
