<svg width="24" height="24" viewBox="0 0 24 24" fill="none" xmlns="http://www.w3.org/2000/svg">
<g clip-path="url(#clip0_358_14811)">
<path d="M30 0H-6V24H30V0Z" fill="#239E46"/>
<path d="M30.0238 0H-6V18H30.0238V0Z" fill="black"/>
<path d="M30.0238 0H-6V6H30.0238V0Z" fill="#E70013"/>
<path d="M11.6445 15C13.3014 15 14.6445 13.6569 14.6445 12C14.6445 10.3431 13.3014 9 11.6445 9C9.98768 9 8.64453 10.3431 8.64453 12C8.64453 13.6569 9.98768 15 11.6445 15Z" fill="white"/>
<path d="M12.255 14.6058C13.6946 14.6058 14.8616 13.4388 14.8616 11.9992C14.8616 10.5596 13.6946 9.39258 12.255 9.39258C10.8155 9.39258 9.64844 10.5596 9.64844 11.9992C9.64844 13.4388 10.8155 14.6058 12.255 14.6058Z" fill="black"/>
<path d="M13.1055 12.0002L17.1405 10.6892L14.6467 14.1215V9.87891L17.1405 13.3113L13.1055 12.0002Z" fill="white"/>
</g>
<defs>
<clipPath id="clip0_358_14811">
<rect width="24" height="24" rx="12" fill="white"/>
</clipPath>
</defs>
</svg>
