<svg width="24" height="24" viewBox="0 0 24 24" fill="none" xmlns="http://www.w3.org/2000/svg">
<g clip-path="url(#clip0_358_1671)">
<path d="M24 -2.40039H0V26.9996H24V-2.40039Z" fill="#CC092F"/>
<path d="M16.2 -2.40039H0V26.9996H16.2V-2.40039Z" fill="#FFD200"/>
<path d="M7.8 -0.599609H0V25.2004H7.8V-0.599609Z" fill="#0046AE"/>
<path d="M11.0919 7.62721C11.0436 7.62502 10.9958 7.63808 10.9553 7.66455C11.0032 7.67869 11.036 7.72292 11.0355 7.77287V7.90487H10.9035C10.8538 7.90538 10.8097 7.87315 10.7951 7.82567C10.7454 7.9099 10.7454 8.01453 10.7951 8.09876C10.8093 8.05084 10.8535 8.01813 10.9035 8.01863H11.0355V8.6531C11.0358 8.70089 11.0059 8.74366 10.9608 8.7596C11.0238 8.76817 11.078 8.85267 11.0928 8.89888C11.1077 8.85277 11.1619 8.76817 11.2248 8.7596C11.1793 8.74407 11.1489 8.70117 11.1492 8.6531V8.0186H11.2812C11.3309 8.01808 11.375 8.05033 11.3896 8.09783C11.4393 8.01359 11.4393 7.90897 11.3896 7.82473C11.3754 7.87263 11.3312 7.90533 11.2812 7.90481H11.1492V7.77284C11.1487 7.72316 11.1809 7.67906 11.2284 7.66449C11.188 7.63806 11.1402 7.62501 11.0919 7.62719V7.62721Z" fill="black"/>
<path d="M11.0958 7.65431C11.0692 7.65442 11.0428 7.65872 11.0176 7.66705C11.0486 7.6934 11.0665 7.73197 11.0667 7.77265V7.90465C11.0666 7.9065 11.0663 7.90833 11.0658 7.91012V7.93105H11.0449C11.0431 7.93154 11.0412 7.93185 11.0394 7.93198H10.9074C10.8672 7.93171 10.829 7.91413 10.8027 7.88373C10.7939 7.90891 10.7893 7.93536 10.7891 7.96203C10.7892 7.98862 10.7935 8.01504 10.8018 8.0403C10.8281 8.00932 10.8667 7.99138 10.9074 7.99117H11.0667C11.0665 7.99391 11.0658 7.99656 11.0658 7.99933V8.01299C11.0663 8.01477 11.0666 8.0166 11.0667 8.01845V8.65292C11.0654 8.69153 11.0475 8.7277 11.0175 8.75214C11.0372 8.7644 11.0547 8.77978 11.0694 8.79768C11.0801 8.81246 11.0893 8.82832 11.0967 8.84499C11.1042 8.82833 11.1133 8.81247 11.124 8.79768C11.1386 8.78019 11.1558 8.76513 11.175 8.75306C11.1449 8.72837 11.127 8.69185 11.1258 8.65293V7.99202H11.1477C11.1495 7.99155 11.1513 7.99125 11.1532 7.99114H11.2852C11.3254 7.99141 11.3635 8.00898 11.3898 8.03936C11.3986 8.01419 11.4032 7.98775 11.4035 7.96108C11.4034 7.93449 11.3991 7.90807 11.3907 7.88281C11.3644 7.91379 11.3258 7.93174 11.2852 7.93194H11.1532C11.1513 7.93182 11.1495 7.93151 11.1477 7.93102H11.1268V7.91009C11.1263 7.9083 11.126 7.90646 11.1258 7.90461V7.77263C11.1261 7.73243 11.1437 7.69429 11.1741 7.66795C11.1489 7.65917 11.1225 7.65456 11.0958 7.6543" fill="#FFD200"/>
<path d="M12.7478 9.95153C12.6706 9.89922 12.6047 9.83206 12.5539 9.75398C12.4406 9.5722 12.3927 9.34904 12.3927 9.12225C12.3927 9.02639 12.5001 8.91847 12.5001 8.84094C12.5009 8.77827 12.4972 8.71562 12.4892 8.65345C12.5273 8.65864 12.5939 8.72627 12.5939 8.72627C12.5939 8.72627 12.5916 8.53177 12.5302 8.49779C12.5302 8.49779 12.555 8.47222 12.6449 8.46957C12.6196 8.40563 12.4947 8.32757 12.4947 8.32757C12.5027 8.31504 12.5141 8.30497 12.5274 8.29844C12.562 8.2815 12.5988 8.26955 12.6367 8.26293C12.5951 8.25393 12.5541 8.24268 12.5138 8.22923C12.3975 8.19037 12.2838 8.14416 12.1733 8.09089C12.0321 8.02006 11.8762 7.98357 11.7182 7.98439C11.6546 7.9844 11.561 7.98614 11.5061 8.02265C11.4559 8.05599 11.46 8.09936 11.4424 8.11458C11.401 8.15043 11.33 8.14916 11.2958 8.14916C11.0746 8.14916 11.0664 8.38586 11.0664 8.38586C11.0664 8.38586 11.123 8.30027 11.223 8.30027C11.3893 8.30027 11.5152 8.39085 11.5152 8.42497C11.5152 8.43879 11.498 8.44135 11.497 8.44135C11.3884 8.44135 11.2245 8.37883 11.1374 8.37581V8.41859C11.3318 8.48621 11.5288 8.58195 11.5288 9.00391C11.5288 9.26962 11.497 9.54074 11.3641 9.754C11.3128 9.83207 11.2466 9.89922 11.1693 9.95155L11.9585 10.0938L12.7478 9.95153Z" fill="black"/>
<path d="M11.9566 9.77486L11.1674 9.95269C11.1315 9.94184 10.9627 9.88939 10.8443 9.82343C10.6358 9.70728 10.5276 9.59172 10.2799 9.58037V9.39192C10.2799 9.29124 10.3163 9.20054 10.3163 9.10427C10.2119 9.07626 9.92194 8.72179 9.6545 8.56445C9.261 8.81934 8.95631 9.23776 8.95631 9.43017C8.95631 9.43017 8.96813 13.5646 8.95631 15.0049C8.95631 15.0879 8.90625 15.2052 8.90625 15.2052C9.04991 15.1444 9.31324 14.7841 9.36868 14.6472V14.7127C9.58563 14.6138 9.7445 14.3538 9.81564 14.2193C9.8169 14.2388 9.82021 14.2876 9.82021 14.2876C10.014 14.1177 10.2608 13.1133 10.2608 13.1133L10.672 13.5174C10.672 13.5174 10.5232 13.8193 10.4653 13.8733C10.4928 13.8765 10.5205 13.878 10.5481 13.8779C10.5211 13.9168 10.3144 14.2144 10.2496 14.3266C10.1889 14.4317 10.1462 14.3849 10.0529 14.3849C9.97564 14.3849 9.80044 14.5081 9.77167 14.5579C9.74055 14.6088 9.72242 14.6667 9.71889 14.7263C9.71889 14.7839 9.77988 14.8628 9.77988 14.8628C9.78213 14.8489 9.78846 14.8359 9.79808 14.8255C9.79808 14.8255 9.95834 15.0252 9.98196 15.0513C10.0003 15.0716 10.0823 15.0848 10.1112 15.0586C10.1835 14.9928 10.2535 14.9469 10.3179 14.8519C10.351 14.803 10.3535 14.7469 10.3916 14.6944C10.5189 14.5187 10.7724 14.1823 10.8304 14.1055C10.8342 14.1269 10.8376 14.1447 10.8412 14.1665C10.9069 14.0339 11.2227 13.7805 11.2227 13.7805L11.553 13.9325C11.553 13.9325 10.9362 15.3503 10.3887 15.5683C10.3887 15.5683 10.6269 15.6695 10.9194 15.8214C10.9621 15.8436 11.0061 15.8674 11.0505 15.8915C11.0874 15.8472 11.1261 15.7979 11.1643 15.7468C11.3392 15.5128 11.5103 15.2416 11.5103 15.2416C11.5222 15.312 11.4298 15.5295 11.2736 15.7978C11.2429 15.8505 11.2108 15.9056 11.1753 15.9616C11.2149 15.9842 11.2542 16.0071 11.2936 16.0308C11.5834 16.2052 11.8555 16.4056 11.9563 16.5897L12.0274 16.4118L11.9563 16.2338V10.0109L11.9918 9.92204L11.9566 9.77486Z" fill="black"/>
<path d="M11.9561 16.2345C11.8538 16.1237 11.6401 15.9882 11.3999 15.8631C11.6903 15.3419 11.8343 14.5179 11.7667 14.3538C11.7667 14.3538 11.6475 14.7812 11.5018 15.0247C11.3669 15.2503 11.2009 15.5039 11.0403 15.692C10.9197 15.6399 10.7963 15.5943 10.6707 15.5554C11.1519 15.1848 11.6438 13.9597 11.6438 13.9597L11.1351 13.7239C11.1351 13.7239 10.9447 13.9458 10.8829 13.987C10.8829 13.987 10.8565 13.8766 10.8411 13.8377C10.8411 13.8377 10.7681 13.8928 10.7282 13.8942C10.7282 13.8942 10.7163 13.8193 10.7073 13.7703C10.657 13.8038 10.5735 13.7967 10.5735 13.7967C10.6468 13.762 10.7337 13.5491 10.7337 13.5491L10.2478 12.9029C10.2478 12.9029 10.0772 13.7229 9.88281 13.8915V10.3604L10.0367 10.5033L10.2697 10.2857V10.1201L10.063 10.313V9.81326C10.0942 9.76616 10.1148 9.73101 10.1304 9.70312C10.1639 9.76143 10.2719 9.94014 10.3989 10.05C10.4198 9.965 10.5573 9.88427 10.5573 9.88427C10.5573 9.88427 10.6066 10.0178 10.682 10.0508C10.7085 10.0041 10.8668 9.90066 10.8668 9.90066C10.8668 9.90066 10.7314 9.92124 10.6766 9.97259C10.6295 9.96204 10.6174 9.77596 10.6174 9.77596C10.6174 9.77596 10.4181 9.87303 10.3835 9.94254C10.3455 9.93226 10.2863 9.78272 10.2633 9.72133C10.3125 9.71584 10.3621 9.71311 10.4117 9.71315C10.4685 9.71315 10.5412 9.74008 10.6174 9.77596C10.7011 9.81536 10.7886 9.86526 10.8668 9.90068C10.967 9.94602 11.1185 9.95523 11.1627 9.95712C11.1096 9.99394 11.054 10.0268 10.9961 10.0554C10.9961 10.0554 11.2346 10.0532 11.4021 9.96985C11.463 9.93311 11.5214 9.89236 11.5769 9.84787C11.5513 9.92226 11.5125 9.99136 11.4621 10.0518C11.7082 10.031 11.8307 9.89046 11.8654 9.84332C11.8875 9.90352 11.9182 9.96023 11.9564 10.0117H12.0453V16.0575L11.9561 16.2345Z" fill="#B07E5B"/>
<path d="M10.1459 9.12258L10.1504 9.23546V9.56774C10.0612 9.53704 9.94904 9.39041 9.89466 9.31286V9.26734C9.89586 9.23223 9.9117 9.19922 9.93835 9.17632L9.88465 9.15722C9.85825 9.18509 9.84303 9.2217 9.84187 9.26007V9.28647L9.68167 9.45853L9.5242 9.22002V9.16177C9.5242 9.12251 9.55439 9.07873 9.57973 9.04889L9.52692 9.02978C9.50026 9.06431 9.47229 9.11084 9.47229 9.15448V9.2018C9.43525 9.24013 9.29115 9.38843 9.29115 9.38843C9.29115 9.38843 9.21885 9.23308 9.19922 9.1909C9.30955 9.03806 9.48846 8.86693 9.65708 8.74414C9.65708 8.74414 10.0227 9.07987 10.1459 9.12258Z" fill="#B07E5B"/>
<path d="M9.21729 9.44498V9.71902L9.08984 9.83734V9.43044C9.09348 9.38184 9.10844 9.33476 9.13352 9.29297L9.21729 9.44498Z" fill="#B07E5B"/>
<path d="M9.61529 9.55113V9.72044L9.46875 9.85791V9.32812L9.61529 9.55113Z" fill="#B07E5B"/>
<path d="M9.41611 9.85601L9.26953 9.71946V9.52103L9.41611 9.36719V9.85601Z" fill="#B07E5B"/>
<path d="M10.0866 9.64995C10.0525 9.69804 9.96339 9.81569 9.86719 9.86752V9.40234C9.88926 9.43905 9.99049 9.60282 10.0866 9.64995Z" fill="#B07E5B"/>
<path d="M9.81454 9.42578V9.85544L9.66797 9.71889V9.56688L9.81454 9.42578Z" fill="#B07E5B"/>
<path d="M9.21729 9.88477V10.3135L9.08984 10.1943V10.004L9.21729 9.88477Z" fill="#B07E5B"/>
<path d="M9.41612 10.0213V10.1751L9.26953 10.3117V9.88477L9.41612 10.0213Z" fill="#B07E5B"/>
<path d="M9.61529 9.88477V10.3117L9.46875 10.1742V10.0222L9.61529 9.88477Z" fill="#B07E5B"/>
<path d="M9.81454 10.0222V10.1742L9.66797 10.3117V9.88477L9.81454 10.0222Z" fill="#B07E5B"/>
<path d="M10.0099 10.3126L9.86328 10.1751V10.0322C9.91383 10.0014 9.96467 9.94468 10.0099 9.88477L10.0099 10.3126Z" fill="#B07E5B"/>
<path d="M9.63911 10.5022L9.79387 10.3584V13.8903C9.79387 13.8903 9.80466 14.0656 9.81207 14.1798C9.74326 14.2494 9.48438 14.5112 9.48438 14.5112V10.3574L9.63911 10.5022Z" fill="#B07E5B"/>
<path d="M9.39752 14.3801C9.39752 14.4937 9.1902 14.7584 9.08984 14.8189V10.3603L9.24277 10.5032L9.39752 10.3594V14.3801Z" fill="#B07E5B"/>
<path d="M10.6811 13.9958L10.7939 13.9184C10.7939 13.9184 10.8015 13.9557 10.8112 14.0067C10.7629 14.0728 10.4853 14.4517 10.3479 14.6366C10.3137 14.6826 10.285 14.7995 10.285 14.7995C10.285 14.7995 10.235 14.7759 10.235 14.7331C10.235 14.6911 10.2405 14.6412 10.2405 14.6412C10.2136 14.6685 10.1769 14.684 10.1385 14.6839C10.1385 14.6323 10.2383 14.5763 10.2423 14.5028C10.1661 14.5593 10.1 14.5303 10.012 14.5575C9.91609 14.587 9.88938 14.6273 9.85997 14.6257C9.84265 14.6248 9.82696 14.5949 9.83358 14.5766C9.84503 14.5448 9.96363 14.4568 10.0465 14.4409C10.0664 14.4371 10.2226 14.4749 10.2541 14.4264C10.3838 14.2263 10.5943 13.9015 10.6146 13.8702C10.627 13.8679 10.639 13.8636 10.6501 13.8574C10.6501 13.8574 10.6489 13.9597 10.6811 13.9958Z" fill="#CC092F"/>
<path d="M9.95499 14.6198C9.96123 14.6266 9.96081 14.6371 9.95405 14.6434L9.90309 14.688C9.89578 14.6937 9.88525 14.6925 9.87944 14.6853C9.87318 14.6785 9.87359 14.6679 9.88036 14.6616L9.93132 14.617C9.93457 14.6142 9.93888 14.6129 9.94316 14.6134C9.94775 14.614 9.95196 14.6163 9.95499 14.6198Z" fill="#CC092F"/>
<path d="M10.0331 14.6737C10.0482 14.6896 10.0475 14.7148 10.0316 14.7299L10.0313 14.7302L9.90749 14.8385C9.8887 14.8525 9.86216 14.8485 9.8482 14.8297C9.83577 14.813 9.83736 14.7897 9.85196 14.7748L9.97576 14.6674C9.98193 14.6622 9.98956 14.659 9.99761 14.6583C10.0112 14.6575 10.0244 14.6632 10.0331 14.6737Z" fill="#CC092F"/>
<path d="M10.104 14.7558C10.1191 14.7717 10.1185 14.7968 10.1026 14.8118L10.1022 14.8122L9.97752 14.9205C9.96025 14.9344 9.93503 14.9316 9.92119 14.9143L9.92106 14.9142C9.90583 14.8978 9.90665 14.8722 9.92291 14.8568L10.0467 14.7494C10.0525 14.7442 10.0599 14.741 10.0676 14.7403C10.0815 14.7395 10.095 14.7452 10.104 14.7558Z" fill="#CC092F"/>
<path d="M10.1452 14.8224C10.1587 14.8213 10.1719 14.8267 10.1808 14.837C10.196 14.8534 10.1952 14.8789 10.1789 14.8943L10.0551 15.0018C10.0363 15.0154 10.01 15.0112 9.9963 14.9924C9.98447 14.9761 9.98586 14.9537 9.9996 14.9389L10.1243 14.8306C10.1302 14.8257 10.1376 14.8228 10.1452 14.8224Z" fill="#CC092F"/>
<path d="M11.9575 9.77486L12.7467 9.95269C12.7826 9.94184 12.9514 9.88939 13.0699 9.82343C13.2784 9.70728 13.3865 9.59172 13.6343 9.58037V9.39192C13.6343 9.29124 13.5978 9.20054 13.5978 9.10427C13.7023 9.07626 13.9922 8.72179 14.2596 8.56445C14.6531 8.81934 14.9578 9.23776 14.9578 9.43017C14.9578 9.43017 14.946 13.5646 14.9578 15.0049C14.9578 15.0879 15.0079 15.2052 15.0079 15.2052C14.8642 15.1444 14.6009 14.7841 14.5454 14.6472V14.7127C14.3285 14.6138 14.1696 14.3538 14.0985 14.2193C14.0972 14.2388 14.0939 14.2876 14.0939 14.2876C13.9001 14.1177 13.6533 13.1133 13.6533 13.1133L13.2422 13.5174C13.2422 13.5174 13.3909 13.8193 13.4488 13.8733C13.4213 13.8765 13.3937 13.878 13.366 13.8779C13.393 13.9168 13.5998 14.2144 13.6646 14.3266C13.7252 14.4317 13.768 14.3849 13.8612 14.3849C13.9385 14.3849 14.1137 14.5081 14.1425 14.5579C14.1736 14.6088 14.1917 14.6667 14.1952 14.7263C14.1952 14.7839 14.1342 14.8628 14.1342 14.8628C14.132 14.8489 14.1257 14.8359 14.116 14.8255C14.116 14.8255 13.9558 15.0252 13.9322 15.0513C13.9138 15.0716 13.8318 15.0848 13.8029 15.0586C13.7306 14.9928 13.6606 14.9469 13.5963 14.8519C13.5631 14.803 13.5606 14.7469 13.5225 14.6944C13.3952 14.5187 13.1417 14.1823 13.0838 14.1055C13.0799 14.1269 13.0766 14.1447 13.0729 14.1665C13.0072 14.0339 12.6914 13.7805 12.6914 13.7805L12.3611 13.9325C12.3611 13.9325 12.9779 15.3503 13.5254 15.5683C13.5254 15.5683 13.2872 15.6695 12.9947 15.8214C12.952 15.8436 12.9081 15.8674 12.8636 15.8915C12.8268 15.8472 12.788 15.7979 12.7498 15.7468C12.5749 15.5128 12.4039 15.2416 12.4039 15.2416C12.392 15.312 12.4843 15.5295 12.6405 15.7978C12.6713 15.8505 12.7033 15.9056 12.7389 15.9616C12.6992 15.9842 12.6599 16.0071 12.6205 16.0308C12.3308 16.2052 12.0586 16.4056 11.9578 16.5897L11.8867 16.4118L11.9578 16.2338V10.0109L11.9223 9.92204L11.9575 9.77486Z" fill="black"/>
<path d="M11.9565 16.2345C12.0587 16.1237 12.2724 15.9882 12.5126 15.8631C12.2222 15.3419 12.0783 14.5179 12.1458 14.3538C12.1458 14.3538 12.265 14.7812 12.4107 15.0247C12.5456 15.2503 12.7117 15.5039 12.8722 15.692C12.9929 15.6399 13.1162 15.5943 13.2418 15.5554C12.7607 15.1848 12.2687 13.9597 12.2687 13.9597L12.7775 13.7239C12.7775 13.7239 12.9678 13.9458 13.0296 13.987C13.0296 13.987 13.056 13.8766 13.0715 13.8377C13.0715 13.8377 13.1444 13.8928 13.1843 13.8942C13.1843 13.8942 13.1962 13.8193 13.2053 13.7703C13.2555 13.8038 13.3391 13.7967 13.3391 13.7967C13.2657 13.762 13.1789 13.5491 13.1789 13.5491L13.6647 12.9029C13.6647 12.9029 13.8353 13.7229 14.0297 13.8915V10.3604L13.8759 10.5033L13.6428 10.2857V10.1201L13.8495 10.313V9.81326C13.8183 9.76616 13.7977 9.73101 13.7821 9.70312C13.7487 9.76143 13.6406 9.94014 13.5136 10.05C13.4927 9.965 13.3552 9.88427 13.3552 9.88427C13.3552 9.88427 13.3059 10.0178 13.2305 10.0508C13.204 10.0041 13.0457 9.90066 13.0457 9.90066C13.0457 9.90066 13.1811 9.92124 13.236 9.97259C13.2831 9.96204 13.2951 9.77596 13.2951 9.77596C13.2951 9.77596 13.4944 9.87303 13.5291 9.94254C13.5671 9.93226 13.6262 9.78272 13.6493 9.72133C13.6 9.71584 13.5504 9.71311 13.5009 9.71315C13.444 9.71315 13.3713 9.74008 13.2951 9.77596C13.2114 9.81536 13.1239 9.86526 13.0457 9.90068C12.9456 9.94602 12.794 9.95523 12.7499 9.95712C12.8029 9.99394 12.8586 10.0268 12.9164 10.0554C12.9164 10.0554 12.678 10.0532 12.5104 9.96985C12.4495 9.93311 12.3912 9.89236 12.3357 9.84787C12.3612 9.92226 12.4001 9.99136 12.4504 10.0518C12.2044 10.031 12.0818 9.89046 12.0471 9.84332C12.025 9.90352 11.9943 9.96023 11.9561 10.0117H11.8672V16.0575L11.9565 16.2345Z" fill="#B07E5B"/>
<path d="M13.7702 9.12258L13.7656 9.23546V9.56774C13.8549 9.53704 13.967 9.39041 14.0214 9.31286V9.26734C14.0202 9.23223 14.0044 9.19922 13.9777 9.17632L14.0314 9.15722C14.0578 9.18509 14.073 9.2217 14.0742 9.26007V9.28647L14.2344 9.45853L14.3919 9.22002V9.16177C14.3919 9.12251 14.3617 9.07873 14.3363 9.04889L14.3891 9.02978C14.4158 9.06431 14.4438 9.11084 14.4438 9.15448V9.2018C14.4808 9.24013 14.6249 9.38843 14.6249 9.38843C14.6249 9.38843 14.6972 9.23308 14.7168 9.1909C14.6065 9.03806 14.4276 8.86693 14.259 8.74414C14.259 8.74414 13.8933 9.07987 13.7702 9.12258Z" fill="#B07E5B"/>
<path d="M14.6953 9.44498V9.71902L14.8228 9.83734V9.43044C14.8191 9.38184 14.8042 9.33476 14.7791 9.29297L14.6953 9.44498Z" fill="#B07E5B"/>
<path d="M14.3008 9.55113V9.72044L14.4473 9.85791V9.32812L14.3008 9.55113Z" fill="#B07E5B"/>
<path d="M14.4961 9.85601L14.6427 9.71946V9.52103L14.4961 9.36719V9.85601Z" fill="#B07E5B"/>
<path d="M13.8281 9.64995C13.8622 9.69804 13.9513 9.81569 14.0475 9.86752V9.40234C14.0254 9.43905 13.9242 9.60282 13.8281 9.64995Z" fill="#B07E5B"/>
<path d="M14.1016 9.42578V9.85544L14.2481 9.71889V9.56688L14.1016 9.42578Z" fill="#B07E5B"/>
<path d="M14.6953 9.88477V10.3135L14.8228 10.1943V10.004L14.6953 9.88477Z" fill="#B07E5B"/>
<path d="M14.4961 10.0213V10.1751L14.6427 10.3117V9.88477L14.4961 10.0213Z" fill="#B07E5B"/>
<path d="M14.3008 9.88477V10.3117L14.4473 10.1742V10.0222L14.3008 9.88477Z" fill="#B07E5B"/>
<path d="M14.1016 10.0222V10.1742L14.2481 10.3117V9.88477L14.1016 10.0222Z" fill="#B07E5B"/>
<path d="M13.9023 10.3126L14.0489 10.1751V10.0322C13.9984 10.0014 13.9475 9.94468 13.9024 9.88477L13.9023 10.3126Z" fill="#B07E5B"/>
<path d="M14.2745 10.5022L14.1198 10.3584V13.8903C14.1198 13.8903 14.109 14.0656 14.1016 14.1798C14.1704 14.2494 14.4293 14.5112 14.4293 14.5112V10.3574L14.2745 10.5022Z" fill="#B07E5B"/>
<path d="M14.5156 14.3801C14.5156 14.4937 14.7229 14.7584 14.8233 14.8189V10.3603L14.6704 10.5032L14.5156 10.3594V14.3801Z" fill="#B07E5B"/>
<path d="M13.2317 13.9958L13.1188 13.9184C13.1188 13.9184 13.1113 13.9557 13.1016 14.0067C13.1499 14.0728 13.4275 14.4517 13.5649 14.6366C13.5991 14.6826 13.6277 14.7995 13.6277 14.7995C13.6277 14.7995 13.6778 14.7759 13.6778 14.7331C13.6778 14.6911 13.6723 14.6412 13.6723 14.6412C13.6992 14.6685 13.7359 14.684 13.7743 14.6839C13.7743 14.6323 13.6745 14.5763 13.6705 14.5028C13.7466 14.5593 13.8127 14.5303 13.9008 14.5575C13.9967 14.587 14.0234 14.6273 14.0528 14.6257C14.0701 14.6248 14.0858 14.5949 14.0792 14.5766C14.0677 14.5448 13.9491 14.4568 13.8662 14.4409C13.8464 14.4371 13.6901 14.4749 13.6587 14.4264C13.529 14.2263 13.3185 13.9015 13.2982 13.8702C13.2858 13.8679 13.2738 13.8636 13.2627 13.8574C13.2627 13.8574 13.2639 13.9597 13.2317 13.9958Z" fill="#CC092F"/>
<path d="M13.9575 14.6198C13.9513 14.6266 13.9517 14.6371 13.9585 14.6434L14.0094 14.688C14.0168 14.6937 14.0273 14.6925 14.0331 14.6853C14.0394 14.6785 14.0389 14.6679 14.0322 14.6616L13.9812 14.617C13.978 14.6142 13.9737 14.6129 13.9694 14.6134C13.9648 14.614 13.9606 14.6163 13.9575 14.6198Z" fill="#CC092F"/>
<path d="M13.8781 14.6737C13.863 14.6896 13.8637 14.7148 13.8796 14.7299L13.8799 14.7302L14.0037 14.8385C14.0225 14.8525 14.049 14.8485 14.063 14.8297C14.0754 14.813 14.0738 14.7897 14.0592 14.7748L13.9354 14.6674C13.9293 14.6622 13.9216 14.659 13.9136 14.6583C13.9 14.6575 13.8868 14.6632 13.8781 14.6737Z" fill="#CC092F"/>
<path d="M13.8078 14.7558C13.7927 14.7717 13.7933 14.7968 13.8092 14.8118L13.8096 14.8122L13.9343 14.9205C13.9516 14.9344 13.9768 14.9316 13.9906 14.9143L13.9908 14.9142C14.006 14.8978 14.0052 14.8722 13.989 14.8568L13.8652 14.7494C13.8593 14.7442 13.852 14.741 13.8442 14.7403C13.8304 14.7395 13.8169 14.7452 13.8078 14.7558H13.8078Z" fill="#CC092F"/>
<path d="M13.7652 14.8224C13.7517 14.8213 13.7385 14.8267 13.7297 14.837C13.7144 14.8534 13.7152 14.8789 13.7315 14.8943L13.8553 15.0018C13.8741 15.0154 13.9005 15.0112 13.9141 14.9924C13.9259 14.9761 13.9246 14.9537 13.9108 14.9389L13.7861 14.8306C13.7802 14.8257 13.7729 14.8228 13.7652 14.8224Z" fill="#CC092F"/>
<path d="M11.773 8.04397C11.9768 8.04397 12.1201 8.13686 12.3129 8.22237C12.3634 8.24478 12.4098 8.26293 12.4512 8.27698C12.4287 8.29418 12.4109 8.31672 12.3993 8.34254C12.3993 8.34254 12.4857 8.35855 12.5249 8.43086C12.5249 8.43086 12.4428 8.44018 12.4294 8.48819C12.4754 8.49166 12.5211 8.54966 12.5213 8.60564L12.4048 8.56921C12.4227 8.65915 12.4322 8.75058 12.433 8.8423C12.433 8.91495 12.3283 9.00045 12.3283 9.12359C12.3283 9.51005 12.4257 9.6586 12.4949 9.77808C12.522 9.82482 12.544 9.87861 12.5896 9.91917C12.3901 9.81296 12.2419 9.68021 12.2419 9.55689V9.08991H12.19V9.55689C12.19 9.64631 12.2118 9.68798 12.2118 9.68798C12.2431 9.78691 12.3064 9.93962 12.3456 10.0011C12.1621 9.90193 12.0689 9.77772 12.0689 9.73167V9.08989H12.017V9.74075L12.027 9.78535C12.0048 9.81878 11.9758 9.85836 11.956 9.87182C11.9362 9.85838 11.9082 9.81873 11.8859 9.78535L11.8959 9.74075V9.08989H11.844V9.73167C11.844 9.7777 11.7508 9.90193 11.5673 10.0011C11.6065 9.93961 11.6698 9.78691 11.7011 9.68798C11.7011 9.68798 11.7229 9.64633 11.7229 9.55689V9.08991H11.6711V9.55689C11.6711 9.68006 11.5233 9.81304 11.3242 9.91917C11.3693 9.87858 11.391 9.82456 11.418 9.77808C11.4937 9.64742 11.5873 9.48142 11.5873 9.00888C11.5873 8.83152 11.5611 8.71094 11.5154 8.62655C11.5015 8.59871 11.4828 8.52459 11.5891 8.52459C11.6442 8.52459 11.7703 8.622 11.7703 8.622C11.7652 8.57347 11.7401 8.52925 11.7011 8.50002C11.6849 8.48732 11.6747 8.46855 11.6729 8.44811C11.6802 8.42075 11.6978 8.39727 11.722 8.38257C11.7368 8.37585 11.5054 8.33552 11.5054 8.23055C11.5054 8.2087 11.5191 8.19414 11.5672 8.19414C11.6303 8.19414 11.7328 8.26969 11.824 8.26969C11.8913 8.26969 11.9179 8.2533 11.9869 8.2533C12.0712 8.2533 12.2471 8.41296 12.3073 8.40713C12.24 8.36489 12.1314 8.20504 11.9669 8.20504C11.9098 8.20504 11.8581 8.21779 11.8048 8.21779C11.7365 8.21779 11.6693 8.15496 11.5954 8.15496C11.546 8.15496 11.4907 8.15772 11.4825 8.14493C11.4682 8.12262 11.4811 8.10967 11.4944 8.09123C11.5194 8.05643 11.5898 8.04633 11.6592 8.04392C11.68 8.04319 11.7007 8.04283 11.7202 8.04302C11.7396 8.04322 11.7575 8.04397 11.773 8.04397Z" fill="#B07E5B"/>
<path d="M11.1133 8.29359C11.1457 8.24128 11.2036 8.21023 11.2651 8.21213C11.3105 8.21213 11.4605 8.20898 11.4605 8.20898C11.4805 8.26092 11.5716 8.34772 11.5716 8.43798C11.5716 8.43798 11.4791 8.27124 11.2209 8.27124C11.1838 8.27066 11.1471 8.27829 11.1133 8.29357L11.1133 8.29359Z" fill="#CC092F"/>
<path d="M11.5327 8.46904C11.5327 8.46904 11.4777 8.52697 11.4658 8.5579C11.4113 8.53727 11.3164 8.43945 11.3164 8.43945C11.3164 8.43945 11.3969 8.48643 11.5327 8.46904Z" fill="#CC092F"/>
<path d="M11.4463 8.31672C11.4463 8.31672 11.3828 8.29638 11.3828 8.27508C11.3828 8.24794 11.4136 8.24794 11.432 8.26908C11.4408 8.28348 11.4457 8.29989 11.4462 8.31674L11.4463 8.31672Z" fill="black"/>
<path d="M11.7405 8.45098C11.8129 8.45098 11.8716 8.40642 11.8716 8.35146C11.8716 8.29651 11.8129 8.25195 11.7405 8.25195C11.6681 8.25195 11.6094 8.29651 11.6094 8.35146C11.6094 8.40642 11.6681 8.45098 11.7405 8.45098Z" fill="black"/>
<path d="M11.7395 8.44187C11.7898 8.44187 11.8305 8.40111 11.8305 8.35082C11.8305 8.30053 11.7898 8.25977 11.7395 8.25977C11.6892 8.25977 11.6484 8.30053 11.6484 8.35082C11.6484 8.40111 11.6892 8.44187 11.7395 8.44187Z" fill="#FFD200"/>
<path d="M11.7409 8.39203C11.764 8.39203 11.7827 8.37336 11.7827 8.35031C11.7827 8.32727 11.764 8.30859 11.7409 8.30859C11.7179 8.30859 11.6992 8.32727 11.6992 8.35031C11.6992 8.37336 11.7179 8.39203 11.7409 8.39203Z" fill="black"/>
<path d="M10.2691 14.8945L10.5572 15.0517L10.4873 15.3723L10.1992 15.2151L10.2691 14.8945Z" fill="black"/>
<path d="M8.92799 11.8145L8.82422 11.8618L9.99667 14.4298H10.1214L8.92799 11.8145ZM10.3107 14.843L10.2261 14.9304L10.2789 15.047L10.3817 14.9996L10.3107 14.843Z" fill="black"/>
<path d="M9.29299 13.8379C9.29299 13.8379 9.39175 14.0419 9.4668 14.0699C9.42799 14.0593 9.30195 14.1055 9.30195 14.1055C9.30195 14.1055 9.5242 14.3041 9.71271 14.3171C9.87256 14.3281 9.95018 14.2483 9.95018 14.2483L9.91816 14.079C9.84882 14.0014 9.76148 13.9422 9.66384 13.9064C9.50569 13.8513 9.29297 13.8379 9.29297 13.8379L9.29299 13.8379Z" fill="black"/>
<path d="M10.0373 13.4727C10.0373 13.4727 9.9009 13.5894 9.86357 13.7246C9.82623 13.8598 9.8879 14.0135 9.8879 14.0135L10.0025 14.2273C10.0025 14.2273 10.1613 14.1427 10.2288 14.0164C10.2964 13.89 10.2716 13.7194 10.2716 13.7194C10.2716 13.7194 10.1458 13.7663 10.1298 13.787C10.1564 13.6468 10.0372 13.4727 10.0372 13.4727H10.0373Z" fill="black"/>
<path d="M9.59971 13.4181C9.59971 13.4181 9.44462 13.4705 9.29401 13.4614C9.15055 13.4528 9.03125 13.3323 9.03125 13.3323C9.03125 13.3323 9.15017 13.2518 9.20887 13.2626C9.14431 13.239 9.05069 13.0772 9.05069 13.0772C9.05069 13.0772 9.18373 13.037 9.30169 13.0815C9.41966 13.126 9.52252 13.2552 9.52252 13.2552L9.59973 13.4181L9.59971 13.4181Z" fill="black"/>
<path d="M9.6529 12.6621C9.6529 12.6621 9.73046 12.8227 9.71207 12.8785C9.73613 12.8414 9.82719 12.7835 9.82719 12.7835C9.82719 12.7835 9.88225 13.0435 9.82959 13.2041C9.77696 13.3647 9.61668 13.4259 9.61668 13.4259L9.43987 13.082C9.43987 13.082 9.41356 12.9547 9.46868 12.8538C9.52382 12.7529 9.6529 12.6621 9.6529 12.6621V12.6621Z" fill="black"/>
<path d="M8.64228 12.2366C8.64228 12.2366 8.8099 12.219 8.96325 12.2825C9.09146 12.3358 9.13076 12.4325 9.13076 12.4325L9.1939 12.6018C9.1939 12.6018 9.01144 12.6702 8.86729 12.6179C8.72311 12.5655 8.61719 12.3924 8.61719 12.3924C8.61719 12.3924 8.71794 12.3542 8.75629 12.3685C8.70042 12.3438 8.64231 12.2366 8.64231 12.2366V12.2366L8.64228 12.2366Z" fill="black"/>
<path d="M9.16963 11.9219C9.16963 11.9219 9.24319 12.0164 9.2454 12.125C9.26501 12.0673 9.35685 12.0034 9.35685 12.0034C9.35685 12.0034 9.45131 12.232 9.43058 12.3943C9.40984 12.5566 9.27394 12.6526 9.27394 12.6526L9.10446 12.3309C9.10446 12.3309 9.04923 12.1991 9.0655 12.0968C9.08179 11.9945 9.16963 11.9219 9.16963 11.9219V11.9219Z" fill="black"/>
<path d="M8.58919 11.3066C8.58919 11.3066 8.5588 11.4819 8.61051 11.5828C8.65671 11.6729 8.68612 11.6926 8.68612 11.6926C8.59803 11.6345 8.46484 11.6295 8.46484 11.6295C8.46484 11.6295 8.51225 11.8201 8.62554 11.9071C8.73882 11.994 8.91351 11.9737 8.91351 11.9737C8.91351 11.9737 9.02838 11.8208 9.02038 11.6561C9.0124 11.4913 8.88154 11.3147 8.88154 11.3147C8.88154 11.3147 8.82994 11.4217 8.82539 11.5017C8.79199 11.4193 8.58916 11.3067 8.58916 11.3067L8.58919 11.3066Z" fill="black"/>
<path d="M9.95707 14.2416L9.96178 14.3045C10.0662 14.3055 10.0818 14.295 10.1086 14.328C10.1344 14.357 10.1762 14.3658 10.2115 14.3496C10.2543 14.3298 10.2732 14.2792 10.2538 14.2362C10.2343 14.1936 10.1947 14.1843 10.1565 14.1918C10.133 14.1965 10.1176 14.2152 10.0977 14.2255C10.0598 14.245 9.95703 14.2416 9.95703 14.2416L9.95707 14.2416Z" fill="black"/>
<path d="M9.94916 14.1934L10 14.2306C9.94546 14.3198 9.92844 14.3275 9.94219 14.3676C9.95311 14.4049 9.93843 14.445 9.906 14.4664C9.86654 14.4922 9.81366 14.4814 9.78742 14.4422C9.76156 14.4031 9.7747 14.3646 9.80134 14.3362C9.8177 14.3187 9.84171 14.3155 9.86096 14.3041C9.89763 14.2824 9.94914 14.1934 9.94914 14.1934L9.94916 14.1934Z" fill="black"/>
<path d="M9.59379 13.4467L9.59848 13.5096C9.70296 13.5105 9.71851 13.5001 9.74529 13.533C9.77113 13.5621 9.81286 13.5708 9.84819 13.5546C9.891 13.5349 9.90987 13.4843 9.89049 13.4413C9.87102 13.3986 9.83137 13.3894 9.79315 13.3969C9.76968 13.4015 9.75426 13.4203 9.73439 13.4305C9.69653 13.4501 9.59375 13.4467 9.59375 13.4467L9.59379 13.4467Z" fill="black"/>
<path d="M9.61652 13.4688L9.66097 13.5135C9.59324 13.5931 9.57519 13.598 9.58254 13.6398C9.58755 13.6784 9.56681 13.7157 9.53143 13.7318C9.48843 13.7511 9.43787 13.7322 9.41806 13.6895C9.39858 13.6468 9.41756 13.6108 9.4483 13.5868C9.46717 13.5722 9.49142 13.5727 9.51219 13.5645C9.55179 13.5487 9.61652 13.4688 9.61652 13.4688V13.4688Z" fill="black"/>
<path d="M9.2422 12.7025L9.24692 12.7654C9.3514 12.7664 9.36694 12.756 9.39374 12.789C9.4196 12.8179 9.46134 12.8267 9.49666 12.8105C9.53945 12.7907 9.55831 12.7401 9.53897 12.6971C9.51946 12.6545 9.47982 12.6452 9.44159 12.6528C9.41812 12.6574 9.4027 12.6761 9.38281 12.6864C9.34497 12.706 9.24219 12.7025 9.24219 12.7025L9.2422 12.7025Z" fill="black"/>
<path d="M9.27276 12.6895L9.31719 12.7342C9.24946 12.8138 9.23145 12.8187 9.23876 12.8605C9.24376 12.8991 9.22304 12.9364 9.18767 12.9524C9.14467 12.9718 9.09412 12.9529 9.07429 12.9101C9.05484 12.8675 9.07381 12.8314 9.10454 12.8075C9.12341 12.7928 9.14764 12.7934 9.16845 12.7851C9.20805 12.7693 9.27276 12.6895 9.27276 12.6895Z" fill="black"/>
<path d="M8.86722 11.9174L8.87192 11.9803C8.9764 11.9812 8.99196 11.9708 9.01872 12.0038C9.04457 12.0328 9.0863 12.0415 9.12164 12.0254C9.16444 12.0056 9.18331 11.955 9.16396 11.912C9.14449 11.8693 9.10482 11.8601 9.06659 11.8676C9.04316 11.8723 9.02772 11.891 9.00782 11.9012C8.96998 11.9208 8.86719 11.9174 8.86719 11.9174H8.86722Z" fill="black"/>
<path d="M8.89776 11.9043L8.94218 11.9491C8.87446 12.0286 8.85641 12.0336 8.86376 12.0754C8.86876 12.1139 8.84803 12.1512 8.81267 12.1673C8.76968 12.1867 8.71911 12.1678 8.69931 12.125C8.67983 12.0823 8.69882 12.0463 8.72952 12.0224C8.74841 12.0077 8.77265 12.0083 8.79343 12C8.83301 11.9842 8.89774 11.9043 8.89774 11.9043L8.89776 11.9043Z" fill="black"/>
<path d="M10.309 14.9844L10.4877 15.0819L10.4443 15.2807L10.2656 15.1832L10.309 14.9844Z" fill="#FFD200"/>
<path d="M9.52976 13.2594C9.49231 13.275 9.43676 13.1119 9.39597 13.0226C9.35413 12.9309 9.26917 12.7897 9.2933 12.7786C9.31978 12.7665 9.35466 12.8407 9.39748 12.9345C9.4403 13.0283 9.56484 13.2448 9.52976 13.2594L9.52976 13.2594Z" fill="#FFD200"/>
<path d="M9.1458 12.4019C9.10837 12.4175 9.06739 12.3107 9.02661 12.2214C8.98477 12.1297 8.94402 12.065 8.96815 12.0539C8.99464 12.0419 9.03376 12.1222 9.06801 12.1972C9.10119 12.2699 9.18089 12.3873 9.14579 12.4019L9.1458 12.4019Z" fill="#FFD200"/>
<path d="M10.0321 14.348C10.0027 14.3559 9.87439 14.0873 9.77065 13.8601C9.66693 13.6328 9.58969 13.449 9.61382 13.438C9.64031 13.4259 9.7243 13.6405 9.82807 13.8678C9.93183 14.0951 10.0541 14.3421 10.0321 14.348Z" fill="#FFD200"/>
<path d="M10.1752 14.3173C10.2008 14.3173 10.2216 14.2965 10.2216 14.2709C10.2216 14.2454 10.2008 14.2246 10.1752 14.2246C10.1497 14.2246 10.1289 14.2454 10.1289 14.2709C10.1289 14.2965 10.1497 14.3173 10.1752 14.3173Z" fill="#FFD200"/>
<path d="M9.85883 14.4423C9.88442 14.4423 9.90517 14.4215 9.90517 14.3959C9.90517 14.3704 9.88442 14.3496 9.85883 14.3496C9.83324 14.3496 9.8125 14.3704 9.8125 14.3959C9.8125 14.4215 9.83324 14.4423 9.85883 14.4423Z" fill="#FFD200"/>
<path d="M9.81587 13.5224C9.84146 13.5224 9.86221 13.5016 9.86221 13.476C9.86221 13.4504 9.84146 13.4297 9.81587 13.4297C9.79028 13.4297 9.76953 13.4504 9.76953 13.476C9.76953 13.5016 9.79028 13.5224 9.81587 13.5224Z" fill="#FFD200"/>
<path d="M9.49555 13.7001C9.52114 13.7001 9.54189 13.6793 9.54189 13.6538C9.54189 13.6282 9.52114 13.6074 9.49555 13.6074C9.46996 13.6074 9.44922 13.6282 9.44922 13.6538C9.44922 13.6793 9.46996 13.7001 9.49555 13.7001Z" fill="#FFD200"/>
<path d="M9.46431 12.7782C9.4899 12.7782 9.51064 12.7575 9.51064 12.7319C9.51064 12.7063 9.4899 12.6855 9.46431 12.6855C9.43871 12.6855 9.41797 12.7063 9.41797 12.7319C9.41797 12.7575 9.43871 12.7782 9.46431 12.7782Z" fill="#FFD200"/>
<path d="M9.15181 12.9208C9.1774 12.9208 9.19814 12.9001 9.19814 12.8745C9.19814 12.8489 9.1774 12.8281 9.15181 12.8281C9.12621 12.8281 9.10547 12.8489 9.10547 12.8745C9.10547 12.9001 9.12621 12.9208 9.15181 12.9208Z" fill="#FFD200"/>
<path d="M9.08931 11.9931C9.11491 11.9931 9.13566 11.9723 9.13566 11.9467C9.13566 11.9211 9.11491 11.9004 9.08931 11.9004C9.06372 11.9004 9.04297 11.9211 9.04297 11.9467C9.04297 11.9723 9.06372 11.9931 9.08931 11.9931Z" fill="#FFD200"/>
<path d="M8.77681 12.1357C8.80241 12.1357 8.82316 12.1149 8.82316 12.0893C8.82316 12.0637 8.80241 12.043 8.77681 12.043C8.75122 12.043 8.73047 12.0637 8.73047 12.0893C8.73047 12.1149 8.75122 12.1357 8.77681 12.1357Z" fill="#FFD200"/>
<path d="M8.64077 11.4121C8.64077 11.4121 8.63623 11.5402 8.67859 11.6128C8.72096 11.6854 8.81558 11.7144 8.81558 11.7144C8.81558 11.7144 8.82009 11.5864 8.77774 11.5138C8.73536 11.4411 8.64077 11.4121 8.64077 11.4121Z" fill="#007A50"/>
<path d="M8.55078 11.7012C8.55078 11.7012 8.66201 11.7077 8.72625 11.7569C8.79044 11.8062 8.81532 11.9087 8.81532 11.9087C8.76589 11.9113 8.7171 11.8965 8.6774 11.867C8.6132 11.8177 8.55078 11.7012 8.55078 11.7012Z" fill="#007A50"/>
<path d="M8.89998 11.4434C8.87728 11.4993 8.86615 11.5593 8.86726 11.6196C8.87151 11.7111 8.92488 11.8141 8.92488 11.8141C8.92488 11.8141 8.97312 11.7043 8.96887 11.6128C8.96464 11.5214 8.91291 11.4692 8.89998 11.4434Z" fill="#007A50"/>
<path d="M8.71094 12.2677C8.74806 12.3166 8.79538 12.3568 8.84962 12.3855C8.93369 12.4271 9.05896 12.4286 9.05896 12.4286C9.01869 12.3784 8.96886 12.3367 8.91235 12.3059C8.82828 12.2644 8.71094 12.2676 8.71094 12.2676V12.2677Z" fill="#007A50"/>
<path d="M8.7383 12.4453C8.7383 12.4453 8.77843 12.5239 8.85182 12.5576C8.92524 12.5913 9.0754 12.5886 9.0754 12.5886C9.03951 12.5443 8.99492 12.5078 8.94439 12.4814C8.87099 12.4477 8.73828 12.4453 8.73828 12.4453H8.7383Z" fill="#007A50"/>
<path d="M9.16113 12.0254C9.1344 12.0723 9.12058 12.1255 9.12111 12.1795C9.12546 12.2603 9.17849 12.3486 9.17849 12.3486C9.17849 12.3486 9.21578 12.2474 9.21142 12.1666C9.2077 12.1158 9.19034 12.0671 9.16113 12.0254Z" fill="#007A50"/>
<path d="M9.32654 12.1289C9.32654 12.1289 9.25063 12.2308 9.23973 12.3355C9.22883 12.4403 9.28291 12.5479 9.28291 12.5479C9.28291 12.5479 9.37461 12.4558 9.38551 12.3511C9.39641 12.2463 9.32654 12.1289 9.32654 12.1289V12.1289Z" fill="#007A50"/>
<path d="M9.11719 13.0967C9.12555 13.125 9.13943 13.1514 9.15803 13.1743C9.18394 13.2045 9.21274 13.2321 9.24402 13.2567C9.28245 13.2464 9.32278 13.2455 9.36165 13.2539C9.42682 13.2681 9.51351 13.3261 9.51351 13.3261C9.51351 13.3261 9.4202 13.1869 9.32333 13.1327C9.25988 13.1001 9.18799 13.0875 9.11722 13.0967L9.11719 13.0967Z" fill="#007A50"/>
<path d="M9.10549 13.3354C9.10549 13.3354 9.22628 13.2838 9.32575 13.2971C9.42524 13.3104 9.51493 13.3891 9.51493 13.3891C9.51493 13.3891 9.38048 13.4356 9.28101 13.4223C9.21546 13.4105 9.15459 13.3804 9.10547 13.3354H9.10549Z" fill="#007A50"/>
<path d="M9.61637 12.7734C9.61637 12.7734 9.50955 12.8866 9.50059 12.9848C9.49165 13.083 9.58721 13.1745 9.58721 13.1745C9.58467 13.1393 9.58866 13.1039 9.59896 13.0701C9.61257 13.0395 9.62985 13.0107 9.6504 12.9843C9.65886 12.9548 9.66196 12.9239 9.65954 12.8932C9.65137 12.8513 9.63681 12.8109 9.61637 12.7734Z" fill="#007A50"/>
<path d="M9.77211 12.9043C9.77211 12.9043 9.67143 13.0062 9.64483 13.1153C9.61821 13.2244 9.66563 13.3407 9.66563 13.3407C9.66563 13.3407 9.75719 13.2684 9.78381 13.1594C9.81043 13.0503 9.77209 12.9043 9.77209 12.9043H9.77211Z" fill="#007A50"/>
<path d="M10.0215 13.5625C10.0478 13.6182 10.067 13.6769 10.0787 13.7374C10.0903 13.817 10.0795 13.8445 10.0795 13.8445C10.0795 13.8445 10.0324 13.8909 10.0112 13.9182C9.98404 13.9532 9.98006 14.0173 9.98006 14.0173C9.98006 14.0173 9.88537 13.8765 9.89997 13.7736C9.91455 13.6708 10.0215 13.5625 10.0215 13.5625L10.0215 13.5625Z" fill="#007A50"/>
<path d="M10.2224 13.7832C10.2224 13.7832 10.1012 13.8633 10.0531 13.9454C10.0245 13.9959 10.0162 14.0553 10.0299 14.1117C10.086 14.1037 10.1355 14.0707 10.1644 14.022C10.2126 13.9398 10.2224 13.7832 10.2224 13.7832L10.2224 13.7832Z" fill="#007A50"/>
<path d="M9.4258 14.1214C9.4258 14.1214 9.60052 14.1167 9.70732 14.1429C9.81411 14.1692 9.85299 14.2264 9.85299 14.2264C9.85299 14.2264 9.73291 14.2826 9.62611 14.2564C9.51931 14.2302 9.42578 14.1214 9.42578 14.1214L9.4258 14.1214Z" fill="#007A50"/>
<path d="M9.39453 13.9143C9.39453 13.9143 9.47336 14.0365 9.57527 14.0808C9.71571 14.1419 9.87832 14.1123 9.87832 14.1123C9.87832 14.1123 9.78998 14.004 9.66842 13.9562C9.54683 13.9085 9.39453 13.9143 9.39453 13.9143L9.39453 13.9143Z" fill="#007A50"/>
<path d="M15.3788 11.5147L15.4016 11.5629C15.3789 11.5714 15.36 11.5875 15.3478 11.6084C15.3311 11.6412 15.3588 11.6876 15.3588 11.6876C15.3588 11.6876 15.1667 11.6708 15.1367 11.6904C15.1095 11.708 15.1482 11.841 15.1303 11.9534C15.1054 12.1101 15.0436 12.0969 15.0411 12.1273C15.0386 12.1568 15.0647 12.2028 15.0647 12.2028C15.0647 12.2028 15.0287 12.2142 15.021 12.2292C15.0087 12.2535 15.0296 12.2981 15.0147 12.3275C14.9311 12.4915 14.8077 12.7336 14.7261 12.8938C14.7147 12.9161 14.6841 12.9247 14.6687 12.9548C14.6607 12.9767 14.6597 13.0005 14.666 13.023C14.666 13.023 14.612 13.0263 14.5932 13.0631C14.5814 13.0922 14.5785 13.1242 14.585 13.155C14.5631 13.1589 14.5443 13.1727 14.534 13.1923C14.5161 13.2276 14.5464 13.246 14.5386 13.2615C14.4289 13.4767 14.2997 13.7304 14.2209 13.8851C14.1919 13.942 14.0904 13.9534 14.0315 14.069C13.9978 14.1326 14.0077 14.2105 14.0561 14.2638C14.0561 14.2638 13.9712 14.2715 13.9487 14.3157C13.9257 14.3608 13.9439 14.4292 14.0051 14.4604C14.0664 14.4916 14.1333 14.4663 14.1563 14.4213C14.1788 14.377 14.1335 14.3038 14.1335 14.3038C14.2052 14.3111 14.2738 14.2729 14.3055 14.2082C14.3645 14.0926 14.3148 14.0048 14.3438 13.9479C14.4226 13.7932 14.5518 13.5395 14.6615 13.3243C14.6694 13.3088 14.7018 13.3222 14.7197 13.287C14.7296 13.2672 14.7296 13.244 14.7197 13.2242C14.7486 13.2113 14.773 13.19 14.7898 13.1632C14.8086 13.1264 14.7798 13.0804 14.7798 13.0804C14.8018 13.0725 14.8206 13.0579 14.8335 13.0385C14.8489 13.0084 14.8376 12.979 14.849 12.9566C14.9306 12.7964 15.054 12.5543 15.1376 12.3904C15.1526 12.361 15.2008 12.3509 15.2131 12.3266C15.2208 12.3116 15.2086 12.2757 15.2086 12.2757C15.2086 12.2757 15.2617 12.2704 15.2841 12.2511C15.3072 12.2312 15.2603 12.1886 15.3724 12.0763C15.4529 11.9958 15.5826 11.9484 15.5809 11.9161C15.579 11.8803 15.4525 11.7349 15.4525 11.7349C15.4525 11.7349 15.5059 11.7304 15.5226 11.6976C15.5325 11.6753 15.5344 11.6502 15.5281 11.6266L15.5809 11.6175L15.5809 11.3672L15.3788 11.5147ZM13.6338 15.0012C13.6251 15.0187 13.6251 15.0392 13.6338 15.0567C13.6338 15.0567 13.5701 15.0368 13.5482 15.0476C13.5276 15.0578 13.5482 15.358 13.5482 15.358C13.5482 15.358 13.8024 15.1977 13.7985 15.175C13.7944 15.151 13.7412 15.1104 13.7412 15.1104C13.7603 15.1075 13.7768 15.0957 13.7858 15.0786C13.7942 15.0621 13.7953 15.0151 13.7375 14.9857C13.7203 14.9761 13.7007 14.9717 13.6811 14.973C13.6617 14.9742 13.6441 14.9847 13.6338 15.0012Z" fill="black"/>
<path d="M15.4258 11.5251L15.5459 11.5862L15.5441 11.4414L15.4258 11.5251Z" fill="#FFD200"/>
<path d="M15.3787 11.6121C15.3576 11.6441 15.3663 11.6872 15.3983 11.7083C15.4303 11.7295 15.4734 11.7208 15.4946 11.6888C15.5157 11.6568 15.507 11.6137 15.475 11.5925C15.4727 11.591 15.4704 11.5897 15.468 11.5884C15.4559 11.5822 15.4424 11.5794 15.4288 11.5802C15.4076 11.5812 15.3886 11.5933 15.3787 11.6121Z" fill="#FFD200"/>
<path d="M15.1726 11.7217C15.16 11.7299 15.1772 11.8381 15.1735 11.9302C15.1701 12.017 15.1423 12.0414 15.1271 12.0713C15.1131 12.0988 15.0625 12.1313 15.0625 12.1313L15.1044 12.1732C15.1044 12.1732 15.1316 12.1308 15.1745 12.0466C15.225 11.9474 15.2234 11.7677 15.2382 11.7581C15.277 11.7445 15.3165 11.7329 15.3565 11.7235C15.3565 11.7235 15.2598 11.7183 15.2063 11.719C15.195 11.7183 15.1837 11.7192 15.1726 11.7217Z" fill="#FFD200"/>
<path d="M15.1851 12.2221C15.2036 12.176 15.2246 12.1311 15.2479 12.0873C15.3068 11.9718 15.4325 11.8879 15.4354 11.867C15.4385 11.8455 15.3917 11.7441 15.3917 11.7441C15.3917 11.7441 15.2808 11.7654 15.2652 11.7806C15.25 11.7952 15.2567 11.9453 15.1978 12.0609C15.1759 12.1059 15.1516 12.1497 15.125 12.192L15.1851 12.2221Z" fill="#FFD200"/>
<path d="M15.4677 11.8763C15.4686 11.8939 15.3225 11.9983 15.2719 12.0975C15.2291 12.1816 15.2109 12.2286 15.2109 12.2286L15.2692 12.2377C15.2692 12.2377 15.2652 12.1778 15.2792 12.1503C15.2944 12.1205 15.2984 12.0839 15.3666 12.0301C15.439 11.9731 15.5367 11.9232 15.5359 11.9081C15.5352 11.8942 15.4267 11.7598 15.4267 11.7598C15.4424 11.7979 15.456 11.8368 15.4677 11.8763Z" fill="#FFD200"/>
<path d="M15.0374 12.5251C15.1252 12.3528 15.152 12.3411 15.163 12.3194C15.1749 12.2961 15.1721 12.2647 15.133 12.2447C15.1214 12.2383 15.108 12.2354 15.0948 12.2366C15.0777 12.2386 15.0629 12.2493 15.0556 12.2648C15.0446 12.2865 15.0506 12.3155 14.9628 12.4878L14.7634 12.8783C14.7519 12.8982 14.7587 12.9235 14.7785 12.935C14.7795 12.9356 14.7806 12.9361 14.7816 12.9366C14.8008 12.9473 14.825 12.9405 14.8358 12.9213C14.8366 12.9198 14.8374 12.9182 14.838 12.9165L15.0374 12.5251Z" fill="#FFD200"/>
<path d="M14.6867 12.9734C14.6758 12.9948 14.6944 13.0261 14.7286 13.0435C14.7627 13.0609 14.7996 13.0576 14.8105 13.0362C14.8214 13.0149 14.8018 12.9835 14.7677 12.9661C14.7526 12.958 14.7356 12.9542 14.7185 12.9552C14.7055 12.9553 14.6934 12.9622 14.6867 12.9734Z" fill="#FFD200"/>
<path d="M14.6136 13.0838C14.5996 13.1114 14.6215 13.151 14.6628 13.1721C14.7041 13.1931 14.7489 13.1879 14.7629 13.1602C14.777 13.1326 14.755 13.093 14.7138 13.0719C14.6997 13.0645 14.6842 13.0602 14.6683 13.0592C14.6468 13.056 14.6255 13.0656 14.6136 13.0838Z" fill="#FFD200"/>
<path d="M14.5656 13.2078C14.5547 13.2291 14.5734 13.2605 14.6075 13.2779C14.6416 13.2953 14.6785 13.292 14.6894 13.2706C14.7003 13.2493 14.6816 13.2179 14.6475 13.2005C14.6322 13.1924 14.6148 13.1886 14.5975 13.1896C14.5844 13.1897 14.5723 13.1966 14.5656 13.2078Z" fill="#FFD200"/>
<path d="M14.537 13.3257C14.537 13.3257 14.3157 13.7614 14.2376 13.9147C14.2126 13.9637 14.1076 13.9942 14.0665 14.0749C14.025 14.1561 14.0543 14.2322 14.1083 14.2597C14.1623 14.2872 14.2417 14.2672 14.2831 14.186C14.3242 14.1052 14.2873 14.0019 14.3122 13.9529C14.3903 13.7996 14.6117 13.364 14.6117 13.364C14.6235 13.3447 14.6174 13.3195 14.5982 13.3078C14.597 13.307 14.5957 13.3063 14.5944 13.3057C14.5866 13.3016 14.5777 13.3 14.5689 13.3012C14.5551 13.304 14.5433 13.3131 14.537 13.3257Z" fill="#FFD200"/>
<path d="M13.9747 14.3375C13.9582 14.37 13.9771 14.4134 14.0175 14.4339C14.0579 14.4545 14.1047 14.4446 14.1213 14.4121C14.1379 14.3796 14.118 14.3362 14.0776 14.3156C14.0636 14.3082 14.0479 14.3044 14.0321 14.3047C14.0084 14.3043 13.9864 14.3168 13.9747 14.3375Z" fill="#FFD200"/>
<path d="M13.6818 15.0021C13.671 15.0011 13.6606 15.006 13.6545 15.0148C13.646 15.0314 13.6635 15.0577 13.6936 15.0731C13.7237 15.0884 13.7552 15.087 13.7637 15.0703C13.7722 15.0537 13.7546 15.0274 13.7246 15.0121C13.7114 15.0052 13.6967 15.0018 13.6818 15.0021L13.6818 15.0021Z" fill="#FFD200"/>
<path d="M13.5781 15.0843V15.2991L13.7529 15.1735C13.7149 15.1145 13.6482 15.0804 13.5781 15.0843V15.0843Z" fill="#FFD200"/>
<path d="M13.6857 10.3023C13.6857 10.1845 13.8405 10.0684 13.8405 10.0684H10.0664C10.0664 10.0684 10.2212 10.1845 10.2212 10.3023V13.1116C10.2198 13.1733 10.2408 13.2334 10.2803 13.2809C10.3166 13.3316 10.394 13.4017 10.4742 13.4538C10.7221 13.6148 11.1365 13.7846 11.4501 13.9272C11.7114 14.0461 11.8176 14.094 11.9535 14.2622C12.0893 14.094 12.1965 14.0461 12.4578 13.9272C12.7713 13.7846 13.1857 13.6148 13.4336 13.4538C13.5139 13.4017 13.5912 13.3316 13.6275 13.2809C13.6667 13.2333 13.6874 13.1732 13.6857 13.1116L13.6857 10.3023Z" fill="#FFD200"/>
<path d="M10.3112 11.8904V10.301C10.312 10.2491 10.296 10.1983 10.2656 10.1562H13.6429C13.6125 10.1983 13.5965 10.2491 13.5973 10.301L13.5983 11.8904L11.9547 12.3883L10.3112 11.8904Z" fill="#CC092F"/>
<path d="M13.5996 11.8902L12.5819 11.8711H11.3302L10.3125 11.8902V13.1101C10.3125 13.1714 10.3761 13.315 10.7431 13.4978C11.3496 13.8001 11.8159 13.9412 11.9556 14.1132C12.0953 13.9412 12.5615 13.8001 13.1681 13.4978C13.5351 13.315 13.5987 13.1714 13.5987 13.1101L13.5996 11.8902Z" fill="#0046AE"/>
<path d="M12.5592 11.827C12.5592 11.827 13.1463 11.6789 13.1463 11.0514C13.1463 10.5613 12.5577 10.3181 12.5409 10.2012C12.4834 10.4035 12.7376 10.6831 12.7376 11.0141C12.7376 11.4424 12.4217 11.4629 12.4217 11.4629C12.3478 11.4629 12.3178 11.5156 12.2888 11.5156C12.2266 11.5091 12.1973 11.43 12.1358 11.43C12.0781 11.43 12.0338 11.5193 11.9574 11.5193C11.8811 11.5193 11.8377 11.43 11.7799 11.43C11.7185 11.43 11.6892 11.5091 11.627 11.5156C11.5979 11.5156 11.568 11.4629 11.4941 11.4629C11.4941 11.4629 11.1782 11.4424 11.1782 11.0141C11.1782 10.6831 11.4324 10.4035 11.3748 10.2012C11.3582 10.3181 10.7695 10.5613 10.7695 11.0514C10.7695 11.6789 11.3567 11.827 11.3567 11.827L11.1892 12.1319C11.1892 12.1319 11.4318 12.1441 11.5606 12.2539C11.7159 12.3863 11.7007 12.667 11.7007 12.8711C11.7007 13.0319 11.6804 13.2017 11.5979 13.2716C11.4871 13.3656 11.4122 13.3725 11.4122 13.4828C11.4122 13.5748 11.4829 13.5933 11.5979 13.654C11.7452 13.7317 11.7384 13.836 11.9574 13.836C12.1765 13.836 12.1706 13.7317 12.3179 13.654C12.4329 13.5933 12.5036 13.5748 12.5036 13.4828C12.5036 13.3725 12.4287 13.3656 12.3179 13.2716C12.2354 13.2016 12.2151 13.0319 12.2151 12.8711C12.2151 12.667 12.2 12.3863 12.3553 12.2539C12.484 12.1441 12.7267 12.1319 12.7267 12.1319L12.5592 11.827Z" fill="black"/>
<path d="M11.9551 10.2441L11.8531 10.5336L11.5754 10.4016L11.7074 10.6793L11.418 10.7821L11.7074 10.885L11.5754 11.1617L11.8531 11.0298L11.9551 11.3192L12.0579 11.0298L12.3356 11.1617L12.2036 10.885L12.4931 10.7821L12.2036 10.6793L12.3356 10.4016L12.0579 10.5336L11.9551 10.2441Z" fill="black"/>
<path d="M11.3302 11.8711C11.3302 11.8711 10.9677 11.7825 10.8323 11.6035C10.6816 11.7352 10.5043 11.833 10.3125 11.8903C10.3125 11.8903 10.6078 12.0236 10.8323 12.1934C10.9357 12.0452 11.3302 11.8711 11.3302 11.8711Z" fill="black"/>
<path d="M12.582 11.8711C12.582 11.8711 12.9765 12.0452 13.08 12.1934C13.3044 12.0236 13.5997 11.8903 13.5997 11.8903C13.4079 11.833 13.2307 11.7352 13.08 11.6035C12.9446 11.7825 12.582 11.8711 12.582 11.8711Z" fill="black"/>
<path d="M11.477 12.2578L11.3359 12.3989L11.477 12.54L11.6181 12.3989L11.477 12.2578Z" fill="black"/>
<path d="M12.434 12.2578L12.293 12.3989L12.434 12.54L12.5751 12.3989L12.434 12.2578Z" fill="black"/>
<path d="M11.4423 13.0807C11.444 13.1717 11.4382 13.2628 11.425 13.3529C11.425 13.3529 11.6239 13.2943 11.6635 13.0925C11.6821 12.9979 11.7028 12.6495 11.6071 12.59L11.3477 12.5391C11.4104 12.7127 11.4424 12.896 11.4423 13.0807Z" fill="black"/>
<path d="M12.3066 12.5901C12.2109 12.6494 12.2315 12.9979 12.2501 13.0925C12.2897 13.2943 12.4886 13.3529 12.4886 13.3529C12.4755 13.2628 12.4697 13.1717 12.4713 13.0807C12.4712 12.896 12.5032 12.7127 12.566 12.5391L12.3066 12.5901Z" fill="black"/>
<path d="M10.8316 12.6003C10.7429 12.6217 10.6882 12.7109 10.7096 12.7996C10.7131 12.8143 10.7186 12.8284 10.726 12.8416C10.7127 12.8371 10.699 12.8343 10.685 12.8334C10.6793 12.8331 10.6735 12.8331 10.6677 12.8334C10.5756 12.8372 10.5041 12.915 10.508 13.0071C10.5118 13.0992 10.5896 13.1707 10.6817 13.1669C10.6886 13.1666 10.6955 13.1659 10.7023 13.1647C10.6942 13.1757 10.6875 13.1876 10.6823 13.2002C10.6474 13.2858 10.6885 13.3834 10.774 13.4183C10.8596 13.4531 10.9572 13.4121 10.9921 13.3265L10.9927 13.325C10.9977 13.3124 11.001 13.2992 11.0027 13.2858C11.0108 13.2969 11.0203 13.307 11.0309 13.3158C11.1008 13.376 11.2063 13.3682 11.2665 13.2983C11.3267 13.2284 11.3189 13.123 11.249 13.0628C11.2376 13.0529 11.2248 13.0446 11.2112 13.0382C11.2243 13.034 11.2368 13.0282 11.2485 13.0209C11.3267 12.9715 11.3503 12.8682 11.3013 12.7897C11.2688 12.7378 11.2103 12.7081 11.1493 12.7123C11.1214 12.7142 11.0945 12.723 11.071 12.7378C11.0593 12.745 11.0486 12.7535 11.0391 12.7633C11.0387 12.6703 10.963 12.5953 10.87 12.5957C10.857 12.5958 10.8442 12.5973 10.8316 12.6003Z" fill="black"/>
<path d="M12.6074 13.0875C12.6255 13.258 12.7641 13.4008 12.9351 13.4417C12.9055 13.3939 12.8868 13.3401 12.8805 13.2842C12.8591 13.082 13.0154 12.9182 13.2292 12.9182C13.2623 12.9182 13.2953 12.9222 13.3275 12.9301C13.2478 12.8012 13.1076 12.7221 12.9561 12.7207C12.7424 12.7207 12.586 12.8854 12.6074 13.0875Z" fill="black"/>
<path d="M11.0894 11.0143C11.0894 11.3367 11.2613 11.5268 11.4909 11.5268C11.5347 11.5268 11.5825 11.586 11.6238 11.586C11.6911 11.586 11.7358 11.5113 11.7767 11.5113C11.8288 11.5113 11.8639 11.5933 11.9542 11.5933C12.0446 11.5933 12.0806 11.5113 12.1327 11.5113C12.1736 11.5113 12.2183 11.586 12.2856 11.586C12.3269 11.586 12.3747 11.5268 12.4185 11.5268C12.648 11.5268 12.82 11.3367 12.82 11.0143C12.82 10.7514 12.5992 10.4309 12.6233 10.3789C12.6233 10.3789 13.0539 10.6878 13.0539 11.0516C13.0539 11.6378 12.4595 11.7826 12.4595 11.7826L12.5933 12.0839C12.5933 12.0839 12.409 12.1115 12.2965 12.2023C12.1465 12.3233 12.1445 12.6502 12.1445 12.8713C12.1445 13.1318 12.1542 13.2422 12.2483 13.3128C12.3475 13.3874 12.4221 13.4034 12.4221 13.4794C12.4221 13.5456 12.3449 13.5727 12.2446 13.6169C12.1306 13.6671 12.1192 13.7543 11.9542 13.7543C11.7892 13.7543 11.7788 13.6671 11.6647 13.6169C11.5645 13.5727 11.4872 13.5456 11.4872 13.4794C11.4872 13.4034 11.5619 13.3874 11.6611 13.3128C11.7552 13.2422 11.7649 13.1318 11.7649 12.8713C11.7649 12.6502 11.7629 12.3233 11.6128 12.2023C11.5003 12.1115 11.3161 12.0839 11.3161 12.0839L11.4499 11.7826C11.4499 11.7826 10.8555 11.6378 10.8555 11.0516C10.8555 10.6878 11.2861 10.3789 11.2861 10.3789C11.3102 10.4309 11.0894 10.7514 11.0894 11.0143ZM11.7294 13.4349C11.6126 13.4349 11.5382 13.4595 11.5382 13.495C11.5382 13.5304 11.6126 13.5541 11.7294 13.5541C11.7605 13.5541 11.7958 13.536 11.7958 13.495C11.795 13.4609 11.7668 13.4339 11.7327 13.4347C11.7316 13.4347 11.7305 13.4348 11.7294 13.4349ZM12.18 13.4349C12.146 13.4322 12.1163 13.4577 12.1137 13.4916C12.1136 13.4927 12.1135 13.4938 12.1135 13.495C12.1135 13.536 12.1488 13.5541 12.18 13.5541C12.2968 13.5541 12.3711 13.5304 12.3711 13.495C12.3711 13.4595 12.2967 13.4349 12.18 13.4349Z" fill="#FFD200"/>
<path d="M11.9565 10.4395L12.022 10.6243L12.1986 10.5396L12.1148 10.7171L12.2987 10.7827L12.1148 10.8482L12.1986 11.0248L12.022 10.9411L11.9555 11.1249L11.89 10.9411L11.7134 11.0248L11.7972 10.8482L11.6133 10.7827L11.7972 10.7171L11.7134 10.5396L11.89 10.6243L11.9565 10.4395Z" fill="#FFD200"/>
<path d="M10.4844 11.8963C10.4844 11.8963 10.7086 12.008 10.8212 12.1075L10.8276 12.113L10.8312 12.1085C10.9376 11.9863 11.1352 11.8827 11.1352 11.8827C11.1352 11.8827 10.9454 11.8303 10.8257 11.6934C10.6993 11.8222 10.4844 11.8963 10.4844 11.8963Z" fill="#FFD200"/>
<path d="M13.4243 11.8963C13.4243 11.8963 13.2001 12.008 13.0874 12.1075L13.0811 12.113L13.0775 12.1085C12.971 11.9863 12.7734 11.8827 12.7734 11.8827C12.7734 11.8827 12.9633 11.8303 13.0829 11.6934C13.2094 11.8222 13.4243 11.8963 13.4243 11.8963Z" fill="#FFD200"/>
<path d="M11.477 12.3242L11.5507 12.3979L11.477 12.4726L11.4023 12.3979L11.477 12.3242Z" fill="#FFD200"/>
<path d="M12.4331 12.3242L12.5078 12.3979L12.4331 12.4726L12.3594 12.3979L12.4331 12.3242Z" fill="#FFD200"/>
<path d="M11.5768 12.6483C11.6283 12.7194 11.6195 12.8343 11.6195 12.9942C11.6227 13.085 11.5763 13.1704 11.4985 13.2172C11.4985 12.8297 11.4585 12.7365 11.4375 12.6191L11.5768 12.6483Z" fill="#FFD200"/>
<path d="M12.4717 12.6172C12.4506 12.7346 12.4107 12.8277 12.4107 13.2153C12.3328 13.1684 12.2865 13.0831 12.2896 12.9923C12.2896 12.8323 12.2809 12.7174 12.3324 12.6463L12.4717 12.6172Z" fill="#FFD200"/>
<path d="M11.006 12.7645C11.0093 12.7785 11.0103 12.7929 11.0087 12.8073C11.0075 12.8185 11.0048 12.8295 11.0005 12.84C10.9276 12.8142 10.8463 12.835 10.7948 12.8928C10.7857 12.8849 10.7777 12.8757 10.7712 12.8655C10.7633 12.8538 10.7575 12.8409 10.7539 12.8273C10.7366 12.7576 10.779 12.6872 10.8487 12.6699C10.9182 12.6526 10.9886 12.6949 11.006 12.7645Z" fill="#FFD200"/>
<path d="M11.1991 13.0077C11.1868 13.0152 11.1733 13.0206 11.1592 13.0235C11.1481 13.0259 11.1368 13.0267 11.1255 13.0259C11.1276 12.9485 11.0826 12.8776 11.0117 12.8465C11.0165 12.8354 11.0228 12.825 11.0304 12.8156C11.0391 12.8045 11.0496 12.795 11.0614 12.7873C11.1223 12.7493 11.2024 12.7678 11.2404 12.8287C11.2784 12.8895 11.2599 12.9697 11.1991 13.0077Z" fill="#FFD200"/>
<path d="M11.0283 13.267C11.0173 13.2577 11.0081 13.2465 11.0009 13.234C10.9953 13.2242 10.991 13.2137 10.9883 13.2027C11.0625 13.1808 11.116 13.1161 11.1237 13.0391C11.1357 13.0401 11.1476 13.0429 11.1589 13.0473C11.1721 13.0521 11.1844 13.0591 11.1953 13.068C11.2502 13.1143 11.2571 13.1963 11.2108 13.2511C11.1647 13.3057 11.0832 13.3129 11.0283 13.267Z" fill="#FFD200"/>
<path d="M10.7282 13.1849C10.7338 13.1716 10.7415 13.1593 10.7512 13.1486C10.7588 13.1403 10.7675 13.133 10.777 13.127C10.8209 13.1907 10.8989 13.2217 10.9745 13.2052C10.9772 13.217 10.9783 13.2291 10.9776 13.2412C10.9771 13.2552 10.9742 13.2691 10.9691 13.2823C10.9422 13.3488 10.8665 13.3808 10.7999 13.3539C10.7335 13.327 10.7014 13.2514 10.7282 13.1849Z" fill="#FFD200"/>
<path d="M10.7131 12.8734C10.7275 12.8745 10.7415 12.8781 10.7547 12.884C10.765 12.8886 10.7746 12.8946 10.7833 12.9019C10.7362 12.9633 10.7309 13.0471 10.7699 13.1139C10.7596 13.1201 10.7484 13.1248 10.7367 13.1279C10.7231 13.1318 10.709 13.1333 10.695 13.1326C10.6234 13.1275 10.5695 13.0654 10.5745 12.9938C10.5796 12.9223 10.6416 12.8684 10.7131 12.8734Z" fill="#FFD200"/>
<path d="M10.9342 13.1458C11.0036 13.1458 11.0598 13.0895 11.0598 13.0202C11.0598 12.9508 11.0036 12.8945 10.9342 12.8945C10.8648 12.8945 10.8086 12.9508 10.8086 13.0202C10.8086 13.0895 10.8648 13.1458 10.9342 13.1458Z" fill="#FFD200"/>
<path d="M13.1419 12.8495C12.9334 12.8899 12.7833 13.0741 12.8051 13.2892C12.7386 13.2342 12.69 13.16 12.6813 13.078C12.6644 12.9184 12.7804 12.7949 12.9553 12.7949C13.0214 12.7955 13.086 12.8144 13.1419 12.8495Z" fill="#FFD200"/>
<path d="M13.768 10.0955H10.1415C10.1896 10.1439 10.2506 10.2212 10.2506 10.3012V12.7409H10.2505V13.1105H10.2506C10.2501 13.1395 10.2548 13.1683 10.2644 13.1956C10.2737 13.2198 10.2867 13.2424 10.3029 13.2626L10.3036 13.2635C10.339 13.3086 10.38 13.3488 10.4258 13.3833C10.4361 13.3914 10.4467 13.3993 10.4574 13.407C10.4677 13.4144 10.4785 13.4218 10.4897 13.4291L10.4899 13.4292C10.6829 13.5545 10.9803 13.6863 11.2504 13.8059C11.3257 13.8393 11.3992 13.8718 11.4619 13.9004L11.462 13.9005L11.468 13.9032H11.4681C11.7154 14.0157 11.8256 14.0659 11.9547 14.2171C12.0842 14.0653 12.1941 14.0153 12.4436 13.9018L12.4436 13.9018L12.4465 13.9005C12.5094 13.8718 12.5827 13.8394 12.658 13.806C12.9281 13.6864 13.2255 13.5546 13.4185 13.4293L13.4187 13.4292C13.4728 13.394 13.523 13.3529 13.5682 13.3068C13.5756 13.2991 13.5825 13.2915 13.5888 13.2841C13.5946 13.2772 13.6001 13.2703 13.6049 13.2635L13.6053 13.2631L13.6054 13.263L13.6056 13.2626C13.622 13.2423 13.6352 13.2196 13.6448 13.1953C13.6546 13.1682 13.6594 13.1394 13.6589 13.1105H13.659V12.7409H13.6589V10.3012C13.6589 10.2212 13.7199 10.1439 13.768 10.0955L13.768 10.0955ZM13.7153 10.3012V12.7409H13.7152V13.1105H13.7153C13.7159 13.1462 13.7098 13.1817 13.6975 13.2152C13.686 13.2444 13.6703 13.2718 13.6507 13.2964L13.6508 13.2964C13.6455 13.3038 13.6391 13.312 13.6318 13.3205C13.6249 13.3286 13.6172 13.3371 13.6088 13.3459C13.5606 13.3951 13.5071 13.4388 13.4494 13.4764L13.4492 13.4765C13.252 13.6046 12.9527 13.7372 12.6807 13.8576C12.6096 13.8891 12.5403 13.9198 12.4699 13.9519L12.467 13.9532H12.4669C12.212 14.0691 12.1078 14.1165 11.9767 14.2788L11.9548 14.306L11.9328 14.2788C11.8023 14.1173 11.6975 14.0696 11.4448 13.9546L11.4448 13.9546L11.4388 13.9519L11.4386 13.9518L11.4385 13.9517L11.4385 13.9518C11.3679 13.9197 11.2988 13.889 11.2276 13.8575C10.9557 13.7371 10.6564 13.6045 10.4592 13.4764L10.4586 13.476L10.4584 13.4758L10.4584 13.4758C10.4473 13.4686 10.4359 13.4608 10.4245 13.4526C10.4131 13.4445 10.402 13.4361 10.3911 13.4276C10.3411 13.3898 10.2963 13.3456 10.2577 13.2962C10.2382 13.2716 10.2226 13.2442 10.2114 13.215C10.1995 13.1815 10.1936 13.1461 10.1942 13.1105H10.1943V12.7409H10.1942V10.3012C10.1942 10.1974 10.0512 10.0901 10.0508 10.0898V10.0391H13.8587V10.0898C13.8583 10.0901 13.7153 10.1974 13.7153 10.3012ZM13.6299 10.1284L13.63 10.1283H13.6434L13.7019 10.1282L13.6654 10.174C13.6388 10.2111 13.6251 10.2557 13.6261 10.3012V12.7409H13.626V13.1105H13.6261C13.6261 13.1605 13.5911 13.257 13.4264 13.3773L13.4264 13.3774C13.3956 13.3999 13.3601 13.4234 13.3191 13.4478C13.278 13.4724 13.2319 13.4977 13.1805 13.5233L13.1804 13.5232L13.1799 13.5235V13.5236C12.9598 13.6333 12.7565 13.7224 12.581 13.7994C12.2796 13.9316 12.0613 14.0273 11.9767 14.1313L11.9763 14.1319L11.9762 14.132L11.9542 14.1576L11.9329 14.1315C11.8484 14.0273 11.63 13.9315 11.3284 13.7993C11.153 13.7224 10.95 13.6333 10.73 13.5238V13.5237L10.7297 13.5235L10.7296 13.5236C10.5736 13.4458 10.471 13.3745 10.4043 13.3133C10.3911 13.3012 10.3793 13.2894 10.3688 13.2781C10.301 13.2054 10.2835 13.1466 10.2835 13.1106H10.2834V13.1105H10.2835V12.7409H10.2834V10.3012C10.2845 10.2557 10.2707 10.2111 10.2442 10.174L10.2076 10.1284H10.3289V10.1283H13.5806V10.1284L13.6299 10.1284ZM13.5806 10.1846V10.1847H10.3289V10.1846H10.3149C10.3314 10.2213 10.3399 10.261 10.3398 10.3012V12.7409H10.3397V13.1105H10.3398V13.1106H10.3397C10.3398 13.136 10.3542 13.1797 10.41 13.2397C10.4196 13.25 10.4304 13.2608 10.4424 13.2718C10.5055 13.3298 10.6038 13.3978 10.7548 13.473V13.4732L10.7552 13.4733L10.7552 13.4733C10.9764 13.5835 11.1774 13.6716 11.3509 13.7477C11.6378 13.8735 11.8512 13.9671 11.9548 14.0717C12.0583 13.9671 12.2717 13.8735 12.5585 13.7478C12.7322 13.6716 12.9334 13.5834 13.1547 13.473L13.1548 13.4731L13.1553 13.4729V13.4728C13.2065 13.4472 13.2513 13.4228 13.2903 13.3995C13.3295 13.3761 13.3636 13.3535 13.3932 13.3319H13.3933C13.5388 13.2257 13.5697 13.1488 13.5697 13.1105H13.5698V12.7409H13.5697V10.3012C13.5696 10.261 13.5781 10.2213 13.5947 10.1846L13.5806 10.1846Z" fill="black"/>
</g>
<defs>
<clipPath id="clip0_358_1671">
<rect width="24" height="24" rx="12" fill="white"/>
</clipPath>
</defs>
</svg>
