<svg width="24" height="24" viewBox="0 0 24 24" fill="none" xmlns="http://www.w3.org/2000/svg">
<g clip-path="url(#clip0_358_1846)">
<path d="M-6 0H30V24H-6V0Z" fill="#D82126"/>
<path d="M-6 14.4V9.6L30 14.4V9.6L-6 14.4ZM10.2 0H13.8L12 9.42857L10.2 0ZM13.8 24H10.2L12 14.5714L13.8 24ZM-6 0H-0.6L13.6534 13.3234L-6 0ZM-6 24H-0.6L13.6534 10.6766L-6 24ZM30 0H24.6L10.3466 13.3234L30 0ZM30 24H24.6L10.3466 10.6766L30 24Z" fill="#F8E92E"/>
<path d="M12.0006 16.2453C14.3675 16.2453 16.2863 14.3265 16.2863 11.9595C16.2863 9.59261 14.3675 7.67383 12.0006 7.67383C9.63362 7.67383 7.71484 9.59261 7.71484 11.9595C7.71484 14.3265 9.63362 16.2453 12.0006 16.2453Z" fill="#D82126"/>
<path d="M11.9989 15.3884C13.8924 15.3884 15.4275 13.8534 15.4275 11.9598C15.4275 10.0663 13.8924 8.53125 11.9989 8.53125C10.1053 8.53125 8.57031 10.0663 8.57031 11.9598C8.57031 13.8534 10.1053 15.3884 11.9989 15.3884Z" fill="#F8E92E"/>
</g>
<defs>
<clipPath id="clip0_358_1846">
<rect width="24" height="24" rx="12" fill="white"/>
</clipPath>
</defs>
</svg>
