<svg width="24" height="24" viewBox="0 0 24 24" fill="none" xmlns="http://www.w3.org/2000/svg">
<g clip-path="url(#clip0_358_4554)">
<path d="M30 0H-6V24H30V0Z" fill="#FECB00"/>
<path d="M30 8H-6V24H30V8Z" fill="#34B233"/>
<path d="M30 16H-6V24H30V16Z" fill="#EA2839"/>
<path d="M9.125 12.844L11.9986 4L14.8722 12.844H9.125Z" fill="white"/>
<path d="M14.3234 14.5326L6.80022 19.9984L9.67381 11.1544L14.3234 14.5326Z" fill="white"/>
<path d="M11.1104 15.5767L3.58721 10.1108L12.8863 10.1108L11.1104 15.5767Z" fill="white"/>
<path d="M11.1123 10.1119L20.4114 10.1119L12.8883 15.5777L11.1123 10.1119Z" fill="white"/>
<path d="M14.3251 11.1556L17.1987 19.9996L9.6755 14.5337L14.3251 11.1556Z" fill="white"/>
</g>
<defs>
<clipPath id="clip0_358_4554">
<rect width="24" height="24" rx="12" fill="white"/>
</clipPath>
</defs>
</svg>
