<svg width="24" height="24" viewBox="0 0 24 24" fill="none" xmlns="http://www.w3.org/2000/svg">
<g clip-path="url(#clip0_358_4541)">
<path d="M-6 -0.199219H30V23.7997H-6V-0.199219Z" fill="#DA2032"/>
<path d="M6 -0.599609H18V24.0004H6V-0.599609Z" fill="#0066B3"/>
<path d="M4.57851 11.7664C5.18063 11.7664 5.66874 11.2783 5.66874 10.6762C5.66874 10.0741 5.18063 9.58594 4.57851 9.58594C3.97639 9.58594 3.48828 10.0741 3.48828 10.6762C3.48828 11.2783 3.97639 11.7664 4.57851 11.7664Z" fill="#FFD900"/>
<path d="M4.57997 11.3689C5.23682 11.3689 5.76931 10.8364 5.76931 10.1796C5.76931 9.52272 5.23682 8.99023 4.57997 8.99023C3.92311 8.99023 3.39062 9.52272 3.39062 10.1796C3.39062 10.8364 3.92311 11.3689 4.57997 11.3689Z" fill="#DA2032"/>
<path d="M4.58196 11.1717C5.01986 11.1717 5.37485 10.8167 5.37485 10.3788C5.37485 9.94093 5.01986 9.58594 4.58196 9.58594C4.14405 9.58594 3.78906 9.94093 3.78906 10.3788C3.78906 10.8167 4.14405 11.1717 4.58196 11.1717Z" fill="#FFD900"/>
<path d="M4.66222 7.80103C4.5637 7.84573 4.52689 7.92633 4.51896 8.00661C4.51401 8.0742 4.54384 8.15034 4.54681 8.21645C4.54681 8.33021 4.42911 8.36767 4.42911 8.53004C4.42911 8.58584 4.48065 8.64733 4.48065 8.79215C4.47173 8.86817 4.42931 8.88531 4.38154 8.89126C4.35525 8.89126 4.33004 8.88082 4.31145 8.86223C4.29287 8.84364 4.28242 8.81843 4.28242 8.79215C4.2825 8.76674 4.29232 8.74233 4.30988 8.72396C4.31301 8.72042 4.31639 8.71711 4.31999 8.71405C4.34259 8.69125 4.37361 8.68243 4.37341 8.62227C4.37341 8.59135 4.35339 8.5632 4.33426 8.50845C4.31622 8.45533 4.3293 8.36652 4.37222 8.31409C4.30284 8.34085 4.26008 8.40736 4.23828 8.46702C4.21529 8.54036 4.23531 8.58261 4.20379 8.64356C4.18456 8.68301 4.16167 8.69936 4.13996 8.73226C4.11429 8.76814 4.08416 8.85205 4.08416 8.891C4.08416 9.02243 4.13637 9.14848 4.22931 9.24141C4.32224 9.33435 4.44829 9.38656 4.57972 9.38656C4.71115 9.38656 4.8372 9.33435 4.93013 9.24141C5.02307 9.14848 5.07528 9.02243 5.07528 8.891C5.07528 8.85205 5.04555 8.76814 5.01988 8.73226C4.99817 8.69936 4.97488 8.68301 4.95565 8.64356C4.92453 8.58261 4.94455 8.54036 4.92156 8.46702C4.89975 8.40736 4.85694 8.34087 4.7876 8.31409C4.83051 8.36652 4.8436 8.45533 4.82556 8.50845C4.80633 8.56316 4.78611 8.59131 4.78611 8.62227C4.78611 8.68243 4.81693 8.69125 4.83953 8.71405C4.84313 8.71711 4.84651 8.72042 4.84964 8.72396C4.86719 8.74233 4.87702 8.76674 4.87709 8.79215C4.87709 8.81843 4.86665 8.84364 4.84807 8.86223C4.82948 8.88082 4.80427 8.89126 4.77798 8.89126C4.72317 8.88432 4.68383 8.85875 4.67887 8.79215C4.67887 8.60134 4.76054 8.58917 4.76054 8.44797C4.76054 8.24636 4.57974 8.15091 4.57974 8.00351C4.57974 7.95356 4.59143 7.86843 4.6622 7.80078L4.66222 7.80103ZM2.39844 11.9637H3.38956V16.7211H2.39844V11.9637ZM5.76824 11.9637H6.75936V16.7211H5.76824V11.9637ZM3.58778 11.9637H5.57002L4.5789 12.5584L3.58778 11.9637ZM3.58778 12.7566H5.57002V13.1531H3.58778V12.7566ZM3.58778 15.5318H5.57002V15.9282H3.58778V15.5318ZM3.58778 16.1264H5.57002L4.5789 16.7211L3.58778 16.1264Z" fill="#FFD900"/>
<path d="M4.57706 15.3338C5.12444 15.3338 5.56817 14.8901 5.56817 14.3427C5.56817 13.7953 5.12444 13.3516 4.57706 13.3516C4.02968 13.3516 3.58594 13.7953 3.58594 14.3427C3.58594 14.8901 4.02968 15.3338 4.57706 15.3338Z" fill="#FFD900"/>
<path d="M4.58104 14.0156C4.69051 14.0156 4.77926 13.9268 4.77926 13.8174C4.77926 13.7079 4.69051 13.6191 4.58104 13.6191C4.47156 13.6191 4.38281 13.7079 4.38281 13.8174C4.38281 13.9268 4.47156 14.0156 4.58104 14.0156Z" fill="#DA2032"/>
<path d="M4.58104 15.0664C4.69051 15.0664 4.77926 14.9776 4.77926 14.8681C4.77926 14.7587 4.69051 14.6699 4.58104 14.6699C4.47156 14.6699 4.38281 14.7587 4.38281 14.8681C4.38281 14.9776 4.47156 15.0664 4.58104 15.0664Z" fill="#DA2032"/>
<path d="M4.58085 13.2324C4.73594 13.2324 4.88468 13.294 4.99434 13.4037C5.104 13.5134 5.16561 13.6621 5.16561 13.8172C5.16561 13.9723 5.104 14.121 4.99434 14.2307C4.88468 14.3403 4.73594 14.4019 4.58085 14.4019C4.45731 14.4019 4.33882 14.451 4.25147 14.5384C4.16411 14.6257 4.11503 14.7442 4.11503 14.8678C4.11503 14.9913 4.16411 15.1098 4.25147 15.1972C4.33882 15.2845 4.45731 15.3336 4.58085 15.3336V15.4525C4.42577 15.4525 4.27703 15.3909 4.16737 15.2813C4.0577 15.1716 3.99609 15.0229 3.99609 14.8678C3.99609 14.7127 4.0577 14.5639 4.16737 14.4543C4.27703 14.3446 4.42577 14.283 4.58085 14.283C4.7044 14.283 4.82288 14.2339 4.91024 14.1466C4.9976 14.0592 5.04668 13.9407 5.04668 13.8172C5.04668 13.6936 4.9976 13.5752 4.91024 13.4878C4.82288 13.4004 4.7044 13.3514 4.58085 13.3514V13.2324Z" fill="#DA2032"/>
</g>
<defs>
<clipPath id="clip0_358_4541">
<rect width="24" height="24" rx="12" fill="white"/>
</clipPath>
</defs>
</svg>
