<svg width="24" height="24" viewBox="0 0 24 24" fill="none" xmlns="http://www.w3.org/2000/svg">
<g clip-path="url(#clip0_358_14823)">
<path d="M-6 0H29.9904V24H-6V0Z" fill="#CD2A3E"/>
<path d="M-6 3.59961H29.9904V20.3996H-6V3.59961Z" fill="#006233"/>
<path d="M19.5 7.73047C19.5 9.71959 18.7098 11.6272 17.3033 13.0338C15.8968 14.4403 13.9891 15.2305 12 15.2305C10.0109 15.2305 8.10323 14.4403 6.6967 13.0338C5.29018 11.6272 4.5 9.71959 4.5 7.73047C4.33333 8.37045 4.24932 9.02914 4.25 9.69047C4.25 11.7459 5.06652 13.7171 6.51993 15.1705C7.97333 16.624 9.94458 17.4405 12 17.4405C14.0554 17.4405 16.0267 16.624 17.4801 15.1705C18.9335 13.7171 19.75 11.7459 19.75 9.69047C19.751 9.02912 19.6669 8.3704 19.5 7.73047Z" fill="#FFC400"/>
<path d="M11.9984 4.68945L11.3234 6.76445H9.14844L10.9134 8.04445L10.2384 10.1145L12.0034 8.83445L13.7684 10.1145L13.0934 8.04445L14.8584 6.76445H12.6784L11.9984 4.68945Z" fill="#FFC400"/>
</g>
<defs>
<clipPath id="clip0_358_14823">
<rect width="24" height="24" rx="12" fill="white"/>
</clipPath>
</defs>
</svg>
