<svg width="24" height="24" viewBox="0 0 24 24" fill="none" xmlns="http://www.w3.org/2000/svg">
<g clip-path="url(#clip0_358_4147)">
<rect width="24" height="24" rx="12" fill="#D21034"/>
<path d="M25.2008 3H-1.19922V20.6H25.2008V3Z" fill="#D21034"/>
<path d="M-2 12C-2 19.732 4.26801 26 12 26C19.732 26 26 19.732 26 12C26 4.26801 19.732 -2 12 -2C4.26801 -2 -2 4.26801 -2 12Z" fill="#007E3A"/>
<path d="M13.1013 14.7339C14.7213 14.7339 16.0346 13.4206 16.0346 11.8005C16.0346 10.1805 14.7213 8.86719 13.1013 8.86719C11.4813 8.86719 10.168 10.1805 10.168 11.8005C10.168 13.4206 11.4813 14.7339 13.1013 14.7339Z" fill="white"/>
<path d="M14.199 14.7339C15.819 14.7339 17.1323 13.4206 17.1323 11.8005C17.1323 10.1805 15.819 8.86719 14.199 8.86719C12.5789 8.86719 11.2656 10.1805 11.2656 11.8005C11.2656 13.4206 12.5789 14.7339 14.199 14.7339Z" fill="#007E3A"/>
</g>
<defs>
<clipPath id="clip0_358_4147">
<rect width="24" height="24" rx="12" fill="white"/>
</clipPath>
</defs>
</svg>
