<svg width="24" height="24" viewBox="0 0 24 24" fill="none" xmlns="http://www.w3.org/2000/svg">
<g clip-path="url(#clip0_358_14832)">
<path d="M-6 0H30V24H-6V0Z" fill="black"/>
<path d="M11.9355 13.1503C14.2406 13.1503 16.1093 11.2816 16.1093 8.9765C16.1093 6.67139 14.2406 4.80273 11.9355 4.80273C9.63038 4.80273 7.76172 6.67139 7.76172 8.9765C7.76172 11.2816 9.63038 13.1503 11.9355 13.1503Z" fill="#CE1126"/>
<path d="M11.9324 2.37695C11.7922 2.37695 11.7383 2.58726 11.7383 2.79757C11.7383 3.30446 11.8004 3.56945 11.9324 4.31824C12.0644 3.56945 12.1265 3.30446 12.1265 2.79757C12.1265 2.58726 12.0726 2.37695 11.9324 2.37695Z" fill="#CE1126"/>
<path d="M12.5098 2.40169C12.3701 2.38947 12.2981 2.59427 12.2797 2.80378C12.2356 3.30874 12.2743 3.57814 12.3406 4.33558C12.5374 3.60116 12.6223 3.34258 12.6665 2.83762C12.6849 2.62811 12.6495 2.4139 12.5098 2.40169Z" fill="#CE1126"/>
<path d="M13.0779 2.47707C12.9398 2.45272 12.8502 2.65047 12.8137 2.85758C12.7257 3.35677 12.7408 3.62853 12.7408 4.38886C13.0008 3.67438 13.108 3.42419 13.196 2.925C13.2326 2.71789 13.216 2.50142 13.0779 2.47707Z" fill="#CE1126"/>
<path d="M13.6406 2.60103C13.5052 2.56474 13.3987 2.75392 13.3443 2.95706C13.2131 3.44668 13.2045 3.71872 13.1382 4.47616C13.4595 3.78706 13.5881 3.54717 13.7193 3.05755C13.7737 2.85441 13.7761 2.63731 13.6406 2.60103Z" fill="#CE1126"/>
<path d="M14.1902 2.77538C14.0585 2.72743 13.9359 2.90661 13.864 3.10423C13.6906 3.58055 13.6583 3.85081 13.5263 4.59959C13.9064 3.94112 14.0554 3.71334 14.2288 3.23702C14.3007 3.0394 14.322 2.82333 14.1902 2.77538Z" fill="#CE1126"/>
<path d="M14.7228 2.9961C14.5957 2.93685 14.458 3.10466 14.3691 3.29527C14.1549 3.75467 14.0992 4.02108 13.9024 4.75551C14.3385 4.13268 14.5068 3.91875 14.721 3.45935C14.8099 3.26875 14.8499 3.05536 14.7228 2.9961Z" fill="#CE1126"/>
<path d="M15.2345 3.26113C15.1131 3.19103 14.9613 3.34619 14.8561 3.52832C14.6027 3.9673 14.5239 4.22785 14.2639 4.94233C14.7526 4.35988 14.9389 4.16143 15.1923 3.72245C15.2975 3.54032 15.3559 3.33123 15.2345 3.26113Z" fill="#CE1126"/>
<path d="M15.7215 3.57033C15.6067 3.48991 15.4419 3.63126 15.3212 3.80353C15.0305 4.21875 14.9294 4.47144 14.608 5.16054C15.1457 4.6229 15.3485 4.44145 15.6393 4.02623C15.7599 3.85395 15.8364 3.65075 15.7215 3.57033Z" fill="#CE1126"/>
<path d="M16.1761 3.91971C16.0687 3.82958 15.8922 3.95603 15.757 4.11713C15.4312 4.50543 15.3084 4.74835 14.9282 5.40682C15.5107 4.91808 15.7286 4.755 16.0544 4.3667C16.1896 4.20559 16.2835 4.00983 16.1761 3.91971Z" fill="#CE1126"/>
<path d="M16.6021 4.30914C16.503 4.21001 16.3161 4.32058 16.1674 4.46929C15.809 4.82772 15.6655 5.05901 15.2294 5.68184C15.8522 5.24573 16.0835 5.10226 16.442 4.74383C16.5907 4.59512 16.7013 4.40828 16.6021 4.30914Z" fill="#CE1126"/>
<path d="M16.9881 4.7327C16.8979 4.62529 16.7022 4.71917 16.5411 4.85435C16.1528 5.18017 15.9897 5.39808 15.501 5.98053C16.1594 5.60036 16.4023 5.47759 16.7906 5.15177C16.9517 5.01659 17.0782 4.8401 16.9881 4.7327Z" fill="#CE1126"/>
<path d="M17.3379 5.19027C17.2575 5.07542 17.0543 5.15188 16.882 5.2725C16.4668 5.56324 16.2853 5.76611 15.7477 6.30375C16.4368 5.98241 16.6895 5.88129 17.1047 5.59055C17.277 5.46992 17.4183 5.30512 17.3379 5.19027Z" fill="#CE1126"/>
<path d="M17.6478 5.67593C17.5777 5.55451 17.3687 5.61297 17.1865 5.71812C16.7475 5.97156 16.5491 6.15784 15.9666 6.64658C16.6811 6.38653 16.9417 6.30781 17.3806 6.05436C17.5628 5.94921 17.7179 5.79735 17.6478 5.67593Z" fill="#CE1126"/>
<path d="M17.9141 6.18766C17.8548 6.06059 17.6414 6.1006 17.4508 6.18948C16.9914 6.4037 16.7775 6.57197 16.1547 7.00808C16.8891 6.81129 17.1555 6.75558 17.6149 6.54136C17.8055 6.45248 17.9733 6.31473 17.9141 6.18766Z" fill="#CE1126"/>
<path d="M18.1367 6.71758C18.0888 6.58583 17.8727 6.60709 17.6751 6.67901C17.1987 6.85238 16.971 7.00137 16.3125 7.38154C17.0613 7.24951 17.3315 7.21722 17.8079 7.04386C18.0055 6.97193 18.1847 6.84933 18.1367 6.71758Z" fill="#CE1126"/>
<path d="M18.312 7.26759C18.2757 7.13217 18.0586 7.13451 17.8554 7.18894C17.3658 7.32013 17.1259 7.4487 16.4368 7.77003C17.1943 7.70377 17.4663 7.69516 17.9559 7.56397C18.1591 7.50954 18.3483 7.40302 18.312 7.26759Z" fill="#CE1126"/>
<path d="M5.43215 7.8303C5.4078 7.96838 5.60555 8.058 5.81266 8.09452C6.31185 8.18254 6.5836 8.16741 7.34394 8.16741C6.62946 7.90736 6.37927 7.80018 5.88008 7.71216C5.67297 7.67564 5.45649 7.69223 5.43215 7.8303Z" fill="#CE1126"/>
<path d="M5.55806 7.26756C5.52177 7.40299 5.71095 7.50951 5.91409 7.56394C6.40371 7.69513 6.67575 7.70374 7.4332 7.77001C6.7441 7.44867 6.5042 7.32011 6.01458 7.18891C5.81144 7.13448 5.59434 7.13214 5.55806 7.26756Z" fill="#CE1126"/>
<path d="M5.73046 6.71992C5.68251 6.85167 5.86169 6.97427 6.05931 7.0462C6.53563 7.21957 6.80589 7.25185 7.55467 7.38388C6.8962 7.00371 6.66842 6.85473 6.1921 6.68136C5.99448 6.60943 5.77841 6.58817 5.73046 6.71992Z" fill="#CE1126"/>
<path d="M5.94923 6.18734C5.88998 6.31441 6.05779 6.45216 6.24839 6.54104C6.70779 6.75526 6.9742 6.81097 7.70863 7.00776C7.0858 6.57165 6.87188 6.40338 6.41248 6.18916C6.22187 6.10028 6.00848 6.06027 5.94923 6.18734Z" fill="#CE1126"/>
<path d="M6.21425 5.67563C6.14415 5.79705 6.29932 5.9489 6.48145 6.05406C6.92043 6.3075 7.18097 6.38622 7.89546 6.64627C7.313 6.15754 7.11456 5.97126 6.67558 5.71782C6.49345 5.61266 6.28435 5.55421 6.21425 5.67563Z" fill="#CE1126"/>
<path d="M6.52541 5.19059C6.44499 5.30544 6.58634 5.47024 6.75861 5.59086C7.17383 5.8816 7.42652 5.98273 8.11562 6.30406C7.57798 5.76643 7.39652 5.56356 6.9813 5.27282C6.80903 5.15219 6.60583 5.07574 6.52541 5.19059Z" fill="#CE1126"/>
<path d="M6.87478 4.7341C6.78466 4.8415 6.9111 5.01799 7.07221 5.15318C7.46051 5.479 7.70342 5.60177 8.3619 5.98194C7.87316 5.39948 7.71008 5.18158 7.32177 4.85575C7.16067 4.72057 6.96491 4.6267 6.87478 4.7341Z" fill="#CE1126"/>
<path d="M7.26227 4.31C7.16313 4.40913 7.27371 4.59597 7.42242 4.74468C7.78084 5.10311 8.01213 5.24658 8.63497 5.68269C8.19886 5.05986 8.05538 4.82857 7.69696 4.47014C7.54825 4.32144 7.36141 4.21086 7.26227 4.31Z" fill="#CE1126"/>
<path d="M7.68777 3.92014C7.58037 4.01026 7.67424 4.20603 7.80943 4.36713C8.13525 4.75543 8.35316 4.91852 8.93561 5.40725C8.55544 4.74878 8.43267 4.50586 8.10685 4.11756C7.97167 3.95646 7.79518 3.83002 7.68777 3.92014Z" fill="#CE1126"/>
<path d="M8.1434 3.57029C8.02855 3.65071 8.105 3.85391 8.22563 4.02619C8.51637 4.44141 8.71923 4.62286 9.25687 5.1605C8.93554 4.4714 8.83441 4.21871 8.54367 3.80349C8.42304 3.63122 8.25824 3.48988 8.1434 3.57029Z" fill="#CE1126"/>
<path d="M8.62906 3.26036C8.50764 3.33046 8.56609 3.53955 8.67124 3.72168C8.92469 4.16066 9.11097 4.35911 9.5997 4.94156C9.33965 4.22708 9.26093 3.96653 9.00748 3.52755C8.90233 3.34542 8.75048 3.19026 8.62906 3.26036Z" fill="#CE1126"/>
<path d="M9.14078 2.99413C9.01372 3.05338 9.05372 3.26677 9.1426 3.45738C9.35682 3.91678 9.5251 4.1307 9.96121 4.75353C9.76442 4.0191 9.7087 3.75269 9.49448 3.29329C9.4056 3.10269 9.26785 2.93488 9.14078 2.99413Z" fill="#CE1126"/>
<path d="M9.6707 2.77345C9.53895 2.8214 9.56021 3.03747 9.63214 3.23509C9.80551 3.71141 9.95449 3.93919 10.3347 4.59766C10.2026 3.84887 10.1703 3.57862 9.99698 3.1023C9.92505 2.90468 9.80245 2.7255 9.6707 2.77345Z" fill="#CE1126"/>
<path d="M10.2188 2.60015C10.0833 2.63643 10.0857 2.85353 10.1401 3.05667C10.2713 3.54629 10.3999 3.78619 10.7212 4.47529C10.6549 3.71784 10.6463 3.4458 10.5151 2.95618C10.4607 2.75304 10.3542 2.56386 10.2188 2.60015Z" fill="#CE1126"/>
<path d="M10.7849 2.47606C10.6469 2.5004 10.6303 2.71688 10.6668 2.92399C10.7548 3.42318 10.862 3.67337 11.122 4.38785C11.122 3.62751 11.1372 3.35576 11.0491 2.85657C11.0126 2.64946 10.923 2.45171 10.7849 2.47606Z" fill="#CE1126"/>
<path d="M11.3575 2.40105C11.2178 2.41327 11.1824 2.62747 11.2007 2.83698C11.2449 3.34194 11.3299 3.60052 11.5266 4.33495C11.5929 3.57751 11.6317 3.3081 11.5875 2.80314C11.5692 2.59364 11.4971 2.38883 11.3575 2.40105Z" fill="#CE1126"/>
<path d="M-6 7.40039H30V24.0004H-6V7.40039Z" fill="black"/>
<path d="M-6 8H30V24H-6V8Z" fill="#CE1126"/>
<path d="M-6 16H30V24H-6V16Z" fill="#339E35"/>
</g>
<defs>
<clipPath id="clip0_358_14832">
<rect width="24" height="24" rx="12" fill="white"/>
</clipPath>
</defs>
</svg>
