<svg width="24" height="24" viewBox="0 0 24 24" fill="none" xmlns="http://www.w3.org/2000/svg">
<g clip-path="url(#clip0_358_4140)">
<path d="M0 0H36.2967V24H0V0Z" fill="white"/>
<path d="M1.29688 0.857422H36.2973M36.2973 4.28599H1.29688M1.29688 7.71456H36.2973M36.2973 11.1431H1.29688" stroke="#CC0000" stroke-width="2.48453"/>
<path d="M0 0H12V12H0V0Z" fill="#000066"/>
<path d="M0 14.5723H36.2967M36.2967 18.0008H0M0 21.4294H36.2967" stroke="#CC0000" stroke-width="2.48453"/>
<path d="M9.06722 4.54922L9.22576 5.61672L9.83917 4.72276L9.51024 5.75234L10.457 5.20839L9.7073 5.99589L10.8008 5.90984L9.77842 6.29922L10.8008 6.68859L9.7073 6.60255L10.457 7.39005L9.51024 6.84609L9.83917 7.87568L9.22576 6.98172L9.06722 8.04922L8.90868 6.98172L8.29526 7.87568L8.6242 6.84609L7.6774 7.39005L8.42713 6.60255L7.33366 6.68859L8.35601 6.29922L7.33366 5.90984L8.42713 5.99589L7.6774 5.20839L8.6242 5.75234L8.29526 4.72276L8.90868 5.61672L9.06722 4.54922ZM8.17821 4.59297C7.88947 4.46687 7.5733 4.41376 7.25842 4.43845C6.94353 4.46314 6.63989 4.56485 6.37508 4.73435C6.11026 4.90385 5.89266 5.13577 5.74202 5.40904C5.59138 5.68232 5.51248 5.98831 5.51248 6.29922C5.51248 6.61013 5.59138 6.91611 5.74202 7.18939C5.89266 7.46267 6.11026 7.69459 6.37508 7.86409C6.63989 8.03359 6.94353 8.1353 7.25842 8.15999C7.5733 8.18468 7.88947 8.13156 8.17821 8.00547C7.85938 8.23062 7.48364 8.36487 7.0923 8.39346C6.70097 8.42204 6.30921 8.34385 5.9601 8.16749C5.611 7.99112 5.31807 7.72341 5.11353 7.3938C4.909 7.06419 4.80078 6.68544 4.80078 6.29922C4.80078 5.91299 4.909 5.53425 5.11353 5.20464C5.31807 4.87503 5.611 4.60732 5.9601 4.43095C6.30921 4.25458 6.70097 4.17639 7.0923 4.20498C7.48364 4.23356 7.85938 4.36781 8.17821 4.59297Z" fill="#FFCC00"/>
</g>
<defs>
<clipPath id="clip0_358_4140">
<rect width="24" height="24" rx="12" fill="white"/>
</clipPath>
</defs>
</svg>
