<svg width="24" height="24" viewBox="0 0 24 24" fill="none" xmlns="http://www.w3.org/2000/svg">
<g clip-path="url(#clip0_358_14907)">
<path d="M37.8008 0H1.80078V24H37.8008V0Z" fill="black"/>
<path d="M37.8008 0H1.80078V8.25H37.8008V0Z" fill="white"/>
<path d="M37.8008 0H1.80078V7.5H37.8008V0Z" fill="#009639"/>
<path d="M37.8008 15.7402H1.80078V24.0002H37.8008V15.7402Z" fill="white"/>
<path d="M37.8008 16.5H1.80078V24H37.8008V16.5Z" fill="#FFD100"/>
<path d="M0 -1.37109V25.3718L17.55 12.0003L0 -1.37109Z" fill="#E4002B"/>
<path d="M9.97324 16.4987L7.04708 14.3563L4.12488 16.4993L5.25818 13.0543L2.31705 10.9373L5.94363 10.9506L7.04812 7.49928L8.15617 10.9525L11.7799 10.9364L8.83813 13.0573L9.97324 16.4987Z" fill="#FFD100"/>
<path fill-rule="evenodd" clip-rule="evenodd" d="M4.50781 14.0965H6.61577C6.78537 14.2868 7.16379 14.3644 7.52422 14.0943C8.18492 13.7325 9.46313 14.0965 9.46313 14.0965L9.71483 13.8291L9.10129 11.8155L8.88104 11.5796C8.88104 11.5796 8.40915 11.2964 7.51243 11.3908C6.61577 11.4852 6.30114 11.3594 6.30114 11.3594C6.30114 11.3594 5.51461 11.4538 5.29437 11.5639C5.27015 11.5835 5.04267 11.8155 5.04267 11.8155L4.50781 14.0965Z" fill="white" stroke="black" stroke-width="0.104977" stroke-linecap="round" stroke-linejoin="round"/>
<path d="M4.93359 13.5775C4.93359 13.5775 6.94715 13.3258 7.52924 14.0966C7.20051 14.3216 6.91108 14.3401 6.60108 14.1124C6.65047 14.0301 7.32472 13.3258 9.0394 13.5618" stroke="black" stroke-width="0.104977" stroke-linecap="round" stroke-linejoin="round"/>
<path d="M7.08758 11.5645L7.07186 13.7826L7.08758 11.5645ZM8.88092 11.5959L9.25848 13.3578L8.88092 11.5959ZM5.315 11.5682L5.10547 12.4768L5.315 11.5682Z" fill="black"/>
<path d="M7.08758 11.5645L7.07186 13.7826M8.88092 11.5959L9.25848 13.3578M5.315 11.5682L5.10547 12.4768" stroke="black" stroke-width="0.104977" stroke-linecap="round" stroke-linejoin="round"/>
<path fill-rule="evenodd" clip-rule="evenodd" d="M3.14062 14.338L3.63636 14.9193C3.69457 14.954 3.74628 14.9518 3.79799 14.9193L4.53269 14.0376L4.84126 13.6556C4.88903 13.599 4.90429 13.5359 4.90003 13.4793L5.48995 12.9551C5.53821 12.9584 5.56695 12.9639 5.61521 12.9671C5.55819 12.9524 5.51636 12.9246 5.56125 12.8621L5.69349 12.7593L5.79633 12.8915C5.79633 12.8915 5.64942 13.0825 5.63472 13.0825H5.47309L5.16452 13.3617L5.29941 13.481L5.50248 14.0376L5.75229 13.8613L5.59064 13.2883L5.94331 12.9062L5.81104 12.7005L5.89922 12.5829C5.89922 12.5829 7.11974 13.3514 7.58997 13.1457C7.60267 13.1503 7.61839 12.5976 7.61839 12.5976C7.61839 12.5976 6.35474 12.4654 6.32531 12.2156C6.29593 11.9658 6.60451 11.9364 6.60451 11.9364L6.47224 11.7454L6.50167 11.6425L6.72207 11.9217L7.22168 11.4956L10.1604 14.8458C10.3208 14.7807 10.3551 14.7415 10.3661 14.5813C10.362 14.5773 7.48617 11.2752 7.48617 11.2752L7.70657 11.0401C7.75 10.9911 7.76527 10.9703 7.76532 10.8931L8.10328 10.5993C8.20491 10.6342 8.26971 10.6951 8.32368 10.7756L9.2528 9.98816C9.27729 10.0127 9.35166 10.0371 9.40215 10.0096L10.9383 8.53516L9.26408 9.71765L9.20533 9.67357C9.20533 9.62459 9.26605 9.61247 9.20533 9.52663C9.14028 9.44857 9.04368 9.6001 9.02902 9.6001C9.01431 9.6001 8.7867 9.51966 8.73682 9.41776L8.72044 9.68826L8.2943 10.085L7.97106 10.0703L7.50083 10.5258L7.44208 10.7021L7.51554 10.8491C7.51554 10.8491 7.26572 11.0695 7.26572 11.0548C7.26572 11.0401 7.21523 10.9898 7.21306 10.9833L7.42736 10.7903L7.45674 10.6581L7.38524 10.5464C7.36357 10.5622 7.08941 10.8491 7.07469 10.8197C7.0502 10.7923 6.28127 9.92337 6.28127 9.92337L6.32531 9.76173L5.82576 9.21806C5.64363 9.15518 5.35554 9.14459 5.29676 9.54132C5.251 9.63451 4.87064 9.55602 4.87064 9.55602L4.66493 9.6001L3.50411 11.2458L4.15064 12.0246L5.47309 10.3495L5.51235 9.87494L5.78983 10.1852C5.88234 10.1971 5.97047 10.1981 6.05432 10.1558L6.83782 11.0303L6.70736 11.1576C6.75145 11.2066 6.78178 11.2379 6.82587 11.2869C6.86996 11.2575 6.91204 11.2222 6.95613 11.1928C6.97084 11.2125 6.99533 11.2497 7.01004 11.2693C6.94439 11.305 6.89833 11.3526 6.83267 11.3883C6.72761 11.3198 6.62618 11.2346 6.63389 11.0989L6.19309 11.4662L6.17838 11.5397L4.87064 12.627L4.75309 12.6417L4.7237 12.9797L5.57594 12.2744V12.1715L5.66411 12.245L6.32531 11.716C6.32531 11.716 6.3694 11.7748 6.35474 11.7748C6.34002 11.7748 5.76695 12.3038 5.76695 12.3038L5.75229 12.3625L5.64942 12.4507L5.59064 12.4066L4.79717 13.1119H4.67962L4.23881 13.5528C4.12511 13.5626 4.02659 13.5747 3.93024 13.6409L3.14062 14.338Z" fill="black" stroke="black" stroke-width="0.104977" stroke-linecap="round" stroke-linejoin="round"/>
</g>
<defs>
<clipPath id="clip0_358_14907">
<rect width="24" height="24" rx="12" fill="white"/>
</clipPath>
</defs>
</svg>
