<svg width="24" height="24" viewBox="0 0 24 24" fill="none" xmlns="http://www.w3.org/2000/svg">
<g clip-path="url(#clip0_358_14921)">
<path d="M0 24V0H36L0 24Z" fill="#003580"/>
<path d="M36 0V24H0L36 0Z" fill="#009543"/>
<mask id="mask0_358_14921" style="mask-type:luminance" maskUnits="userSpaceOnUse" x="0" y="0" width="36" height="24">
<path d="M0 0H36V24H0V0Z" fill="white"/>
</mask>
<g mask="url(#mask0_358_14921)">
<path d="M0 24L36 0" stroke="white" stroke-width="13.3333"/>
<path d="M0 24L36 0" stroke="#D21034" stroke-width="10"/>
</g>
<path d="M7.80078 3.13672L8.42198 4.81872L9.80078 3.67272L9.49798 5.43992L11.2648 5.13672L10.1192 6.51592L11.8008 7.13672L10.1192 7.75792L11.2648 9.13672L9.49798 8.83392L9.80078 10.6011L8.42198 9.45512L7.80078 11.1367L7.17958 9.45512L5.80078 10.6011L6.10358 8.83392L4.33678 9.13672L5.48238 7.75792L3.80078 7.13672L5.48238 6.51592L4.33678 5.13672L6.10358 5.43992L5.80078 3.67272L7.17958 4.81872L7.80078 3.13672Z" fill="#FFCE00"/>
<path d="M7.79766 9.3375C9.01268 9.3375 9.99766 8.35253 9.99766 7.1375C9.99766 5.92247 9.01268 4.9375 7.79766 4.9375C6.58263 4.9375 5.59766 5.92247 5.59766 7.1375C5.59766 8.35253 6.58263 9.3375 7.79766 9.3375Z" stroke="#003580" stroke-width="0.666667"/>
</g>
<defs>
<clipPath id="clip0_358_14921">
<rect width="24" height="24" rx="12" fill="white"/>
</clipPath>
</defs>
</svg>
