<svg width="24" height="24" viewBox="0 0 24 24" fill="none" xmlns="http://www.w3.org/2000/svg">
<g clip-path="url(#clip0_358_10896)">
<path d="M-6 0H30V24H-6V0Z" fill="#0067C6"/>
<path d="M-6 8H30.0241V16H-6V8Z" fill="white"/>
<path d="M8.375 11.9736L8.77416 12.0002C8.77548 11.9808 8.77672 11.9614 8.77808 11.9419L8.62108 11.9314C8.62504 11.8673 8.6304 11.8032 8.63324 11.739C8.68876 11.6989 8.74436 11.6588 8.79968 11.6184L8.80464 11.5444L8.62912 11.6719C8.6232 11.6304 8.60024 11.5876 8.55852 11.5732C8.522 11.56 8.47724 11.5576 8.4456 11.5838C8.40548 11.6133 8.39824 11.6661 8.39304 11.712C8.38604 11.7991 8.38116 11.8864 8.375 11.9736ZM8.4358 11.9191C8.4406 11.8536 8.44356 11.7879 8.4498 11.7225C8.45476 11.6902 8.46068 11.6528 8.489 11.6322C8.5146 11.6153 8.55236 11.6279 8.56284 11.6568C8.58372 11.7067 8.57444 11.7617 8.57176 11.814L8.56416 11.9276C8.52136 11.9248 8.47856 11.922 8.4358 11.9191ZM8.42696 11.3606L8.81648 11.4516L8.905 11.0725L8.84968 11.0595L8.77436 11.382L8.6558 11.3544L8.72364 11.0637L8.66856 11.0509L8.60072 11.3415L8.4958 11.317L8.56828 11.0066L8.51268 10.9936L8.42696 11.3606ZM8.56728 10.8375L8.94508 10.969L8.96428 10.9138L8.81568 10.8621C8.83508 10.8049 8.85632 10.7484 8.87416 10.6907C8.88696 10.6436 8.89684 10.5886 8.86912 10.5448C8.84664 10.5125 8.80664 10.4918 8.76712 10.493C8.7236 10.4948 8.68812 10.5269 8.6688 10.564C8.64024 10.6177 8.62428 10.6767 8.60344 10.7336L8.56728 10.8375ZM8.64028 10.8011C8.66052 10.7444 8.67876 10.687 8.70068 10.6309C8.71428 10.601 8.73088 10.5654 8.76536 10.5559C8.79368 10.5494 8.8234 10.5712 8.82588 10.6002C8.8328 10.6537 8.80944 10.7041 8.79304 10.7537L8.76184 10.8434L8.64028 10.8011ZM8.77596 10.3537C8.84716 10.395 8.91784 10.4374 8.98948 10.478C9.02988 10.4997 9.08108 10.5122 9.12336 10.4878C9.18096 10.4559 9.21708 10.397 9.24536 10.3395C9.26772 10.2911 9.28388 10.231 9.25544 10.1815C9.22484 10.1321 9.1692 10.1094 9.12172 10.0799L8.98344 9.99903L8.95408 10.0492C9.02184 10.0891 9.09008 10.1282 9.15752 10.1686C9.1898 10.1883 9.21652 10.2238 9.21096 10.2634C9.20456 10.3105 9.17764 10.3518 9.15084 10.39C9.12868 10.4208 9.09152 10.4457 9.05204 10.4374C9.01088 10.4295 8.97744 10.4025 8.94128 10.3831L8.80528 10.3035L8.77596 10.3537ZM9.06408 9.88287L9.38176 10.126C9.43104 10.0616 9.48016 9.99703 9.5298 9.93299C9.55828 9.89211 9.58452 9.83899 9.56524 9.78883C9.54768 9.74891 9.5066 9.71803 9.46252 9.71603C9.44264 9.71323 9.41672 9.72831 9.40596 9.73495C9.41728 9.69231 9.38236 9.65223 9.34308 9.64095C9.2958 9.62415 9.24788 9.65447 9.21656 9.68807C9.17976 9.72811 9.14904 9.77323 9.11536 9.81587L9.06408 9.88287ZM9.14464 9.87095C9.18184 9.82335 9.21704 9.77411 9.25596 9.72791C9.27408 9.70775 9.30316 9.68491 9.33124 9.69971C9.35684 9.71079 9.36316 9.74311 9.35092 9.76635C9.33152 9.80795 9.29948 9.84167 9.27276 9.87855L9.22916 9.93559L9.14464 9.87095ZM9.27408 9.96999C9.31268 9.92067 9.349 9.86947 9.38968 9.82187C9.41048 9.80011 9.4366 9.77271 9.46956 9.77899C9.49776 9.78547 9.51824 9.81603 9.50852 9.84443C9.49264 9.89679 9.45348 9.93687 9.42192 9.98027L9.37232 10.0452L9.27408 9.96999ZM9.42424 9.45859L9.69892 9.74935L9.93424 9.52703L9.8952 9.48571L9.707 9.66355L9.7022 9.66811L9.69868 9.66443L9.46648 9.41867L9.42424 9.45859ZM9.7764 9.15047L10.0202 9.46759L10.0678 9.43099L9.82396 9.11391L9.7764 9.15047ZM10.1346 8.90719C10.0951 8.93179 10.0633 8.96059 10.0387 8.99423C10.0143 9.02771 10.0011 9.06263 9.99916 9.09911C9.99728 9.13559 10.007 9.17087 10.0285 9.20539C10.0478 9.23658 10.0751 9.26205 10.1075 9.27915C10.1403 9.29671 10.1758 9.30319 10.2146 9.29887C10.2532 9.29455 10.2968 9.27747 10.3454 9.24719C10.392 9.21815 10.425 9.18471 10.4454 9.14623C10.4649 9.10927 10.4704 9.07007 10.462 9.02831L10.4067 9.05003C10.4212 9.12995 10.3696 9.16835 10.3119 9.20499C10.2215 9.25995 10.1335 9.25599 10.0796 9.17339C10.0236 9.08031 10.0848 9.00339 10.1616 8.95339C10.2162 8.91939 10.2699 8.89611 10.3211 8.92867L10.3644 8.89011C10.3346 8.86955 10.3007 8.86003 10.2622 8.86211C10.2217 8.86435 10.1794 8.87927 10.1346 8.90719ZM10.6073 8.67131L10.5654 9.11955L10.6277 9.09443L10.6403 8.95547L10.6406 8.95535L10.8429 8.87375L10.9484 8.96511L11.0106 8.94003L10.6696 8.64619L10.6073 8.67131H10.6073ZM10.662 8.71727L10.795 8.83235L10.6461 8.89243L10.662 8.71727ZM11.484 8.42403L11.509 8.82323C11.5812 8.81839 11.6535 8.81499 11.7256 8.80903C11.7823 8.80251 11.8431 8.78779 11.8819 8.74263C11.9319 8.68715 11.939 8.60419 11.9171 8.53511C11.8987 8.47431 11.844 8.42827 11.7821 8.41659C11.7211 8.40487 11.659 8.41415 11.5976 8.41691L11.484 8.42403ZM11.5456 8.47711C11.6031 8.47411 11.6604 8.46847 11.718 8.46815C11.7508 8.46703 11.783 8.4769 11.8095 8.49619C11.8495 8.52355 11.873 8.57283 11.8678 8.62119C11.8649 8.67679 11.824 8.72795 11.77 8.74199C11.7391 8.74999 11.707 8.75227 11.6753 8.75575L11.5635 8.76275L11.5456 8.47715L11.5456 8.47711ZM12.0416 8.40039L12.0188 8.79975L12.4074 8.82195L12.4106 8.76523C12.3004 8.75891 12.1902 8.75259 12.08 8.74635C12.0823 8.70583 12.0847 8.66531 12.087 8.62475L12.3849 8.64179L12.3881 8.58535C12.2888 8.57967 12.1895 8.57395 12.0902 8.56831L12.0963 8.46075C12.2024 8.46675 12.3085 8.47287 12.4146 8.47891L12.4178 8.42191L12.0416 8.40039ZM13.086 8.56703L12.9413 8.93995L12.9928 8.95995L13.1074 8.66423L13.1134 8.64887L13.1198 8.66595L13.2577 9.06267L13.3251 9.08879L13.4697 8.71587L13.4181 8.69587L13.3035 8.99143L13.2977 9.00651L13.2914 8.98963L13.1532 8.59311L13.086 8.56703ZM13.6233 8.79787L13.4415 9.15415L13.388 9.12687L13.5699 8.77059L13.6233 8.79787ZM13.925 8.97463C13.8862 8.94903 13.8467 8.93203 13.8059 8.92379C13.7653 8.91551 13.728 8.91811 13.6941 8.93159C13.6602 8.94507 13.6321 8.96863 13.6097 9.00259C13.5894 9.03315 13.5777 9.06857 13.5757 9.10519C13.5734 9.14231 13.5823 9.17719 13.6024 9.21067C13.6224 9.24395 13.6562 9.27647 13.7039 9.30795C13.7498 9.33823 13.794 9.35427 13.8374 9.35675C13.8792 9.35907 13.9171 9.34771 13.9515 9.32267L13.9087 9.28147C13.8421 9.32799 13.7857 9.29715 13.7283 9.25995C13.6407 9.20075 13.6076 9.11911 13.6601 9.03563C13.7214 8.94595 13.8168 8.96943 13.8943 9.01843C13.948 9.05383 13.9916 9.09295 13.9833 9.15307L14.0364 9.17631C14.0427 9.14063 14.0372 9.10591 14.0192 9.07175C14.0003 9.03591 13.9691 9.00371 13.925 8.97463ZM14.3059 9.26191L13.8877 9.42871L13.9385 9.47271L14.0679 9.42067L14.0681 9.42087L14.2329 9.56387L14.1996 9.69935L14.2503 9.74339L14.3566 9.30595L14.3059 9.26195V9.26191ZM14.2899 9.33155L14.248 9.50235L14.1267 9.39711L14.2899 9.33155ZM14.608 9.53983L14.2994 9.79435L14.3365 9.83943L14.4579 9.73931C14.499 9.78867 14.5391 9.83899 14.5811 9.88759C14.5682 9.95491 14.5554 10.0222 14.5428 10.0896L14.59 10.1468L14.6302 9.93359C14.6648 9.96191 14.7153 9.97615 14.7566 9.95371C14.7921 9.93691 14.8234 9.90459 14.8252 9.86343C14.8296 9.80827 14.7902 9.76359 14.7588 9.72267C14.7085 9.66171 14.6582 9.60079 14.608 9.53983ZM14.6012 9.62119C14.6444 9.67455 14.6898 9.72623 14.731 9.78111C14.75 9.80943 14.7738 9.84919 14.752 9.88223C14.734 9.91051 14.6946 9.90803 14.6704 9.88971C14.6214 9.85675 14.589 9.80623 14.5508 9.76235L14.5019 9.70303L14.6012 9.62119ZM15.0759 10.1764L14.6262 10.197L14.6597 10.2553L14.7991 10.2485L14.7992 10.2487L14.908 10.4378L14.8322 10.5549L14.8656 10.6131L15.1094 10.2346L15.0759 10.1764ZM15.038 10.237L14.9424 10.3846L14.8623 10.2454L15.038 10.237V10.237ZM15.3326 10.7059C15.3076 10.638 15.2681 10.5686 15.2014 10.5346C15.1271 10.4973 15.0282 10.5154 14.9756 10.5808C14.9297 10.6352 14.9274 10.7121 14.9396 10.7789C14.9541 10.8556 14.9893 10.9287 15.0421 10.9864L15.0122 10.9971L15.0314 11.0503L15.2188 10.983L15.1459 10.7806L15.1026 10.7962L15.1562 10.9454L15.0927 10.9682C15.0367 10.92 15.0055 10.849 14.9893 10.7782C14.9772 10.7252 14.9768 10.6616 15.017 10.6198C15.0632 10.5718 15.1451 10.5568 15.2005 10.5978C15.2552 10.6378 15.286 10.7027 15.3016 10.7672C15.3123 10.8096 15.3106 10.86 15.2784 10.893C15.2694 10.8998 15.2836 10.9092 15.2861 10.9172L15.3014 10.9425C15.3183 10.9292 15.3319 10.9122 15.3412 10.8928C15.3505 10.8734 15.3553 10.8521 15.3551 10.8306C15.3562 10.7881 15.3469 10.7458 15.3326 10.7059ZM15.4474 11.0183L15.2237 11.0618C15.1822 11.0699 15.1511 11.083 15.1304 11.1005C15.1096 11.118 15.0964 11.1426 15.09 11.1754C15.0837 11.2078 15.0846 11.2475 15.0939 11.2958C15.094 11.2961 15.094 11.2965 15.0941 11.2969C15.1036 11.3452 15.1176 11.3823 15.1356 11.41C15.1538 11.438 15.1754 11.4558 15.2011 11.4642C15.2269 11.4727 15.2607 11.4732 15.3022 11.4652L15.5259 11.4216L15.5148 11.3646L15.2965 11.407C15.1985 11.4261 15.1655 11.3745 15.1486 11.2863L15.1484 11.2852C15.131 11.1971 15.1422 11.1369 15.2402 11.1178L15.4586 11.0754L15.4474 11.0183ZM15.5702 11.6991L15.1562 11.5221L15.1611 11.5891L15.2896 11.6436V11.6438L15.3053 11.8614L15.1861 11.9339L15.1909 12.0009L15.575 11.7661L15.5702 11.6991ZM15.5097 11.7371L15.3594 11.8285L15.3478 11.6684L15.5097 11.7372V11.7371ZM8.68508 12.7338L8.62704 12.7491L8.6912 12.9928L8.7492 12.9775L8.68508 12.7338ZM15.2663 12.7338L15.3243 12.7491L15.2602 12.9928L15.2022 12.9775L15.2663 12.7338ZM9.30368 13.76L8.85648 13.8114L8.89388 13.8672L9.03244 13.8508L9.0326 13.8511L9.15416 14.0323L9.08648 14.1543L9.12392 14.2101L9.34112 13.8158L9.30368 13.76ZM9.27 13.823L9.1848 13.9768L9.09532 13.8435L9.27 13.823ZM9.47488 14.0043L9.1898 14.2709L9.22788 14.3116L9.46812 14.087L9.34208 14.4338L9.38572 14.4804L9.7302 14.3759L9.49428 14.5965L9.53232 14.6372L9.8174 14.3706L9.7596 14.3088L9.40956 14.4134L9.5406 14.0746L9.47488 14.0043ZM9.89012 14.428L9.64948 14.7475L9.96052 14.9817L9.99468 14.9363L9.73012 14.7371L9.80336 14.6398L10.0418 14.8193L10.0758 14.7742L9.8374 14.5946L9.9022 14.5086L10.1568 14.7003L10.1912 14.6547L9.89012 14.428ZM10.2815 14.7144L10.0931 15.0673C10.1103 15.0765 10.1275 15.0856 10.1446 15.0948L10.2187 14.956C10.2755 14.986 10.3317 15.0172 10.3891 15.0462C10.4029 15.1133 10.4166 15.1805 10.4307 15.2476L10.496 15.2824L10.452 15.07C10.4948 15.083 10.5469 15.0769 10.5766 15.0404C10.6018 15.0122 10.6189 14.9727 10.6068 14.9348C10.5928 14.8827 10.5414 14.8554 10.4981 14.8302C10.426 14.7914 10.3536 14.753 10.2815 14.7144ZM10.3062 14.7922C10.3664 14.8251 10.4281 14.8556 10.4872 14.8906C10.5145 14.9091 10.5493 14.9344 10.5458 14.9717C10.5428 15.0044 10.5075 15.0218 10.4777 15.0149C10.4193 15.0052 10.3701 14.9704 10.3181 14.9445L10.2456 14.9057L10.3062 14.7922ZM10.7333 14.9506L10.5821 15.321L10.6377 15.3436L10.7888 14.9733L10.7333 14.9506ZM11.094 15.0752C11.0498 15.0606 11.0073 15.0544 10.9658 15.057C10.9244 15.0596 10.8891 15.0718 10.8598 15.0936C10.8305 15.1155 10.8096 15.1455 10.7968 15.1841C10.7851 15.2189 10.7829 15.2561 10.7905 15.292C10.798 15.3284 10.8156 15.3599 10.8437 15.387C10.8717 15.4139 10.9127 15.4366 10.967 15.4546C11.0192 15.4718 11.066 15.4759 11.1086 15.467C11.1495 15.4584 11.1832 15.4376 11.21 15.4045L11.1579 15.3758C11.1057 15.438 11.0432 15.4229 10.9781 15.4018C10.8781 15.3674 10.8249 15.2972 10.854 15.2029C10.8899 15.1004 10.9881 15.0983 11.0757 15.1255C11.1367 15.1458 11.189 15.1722 11.1966 15.2324L11.2539 15.2411C11.2507 15.205 11.2364 15.1729 11.2102 15.1446C11.1826 15.1149 11.1441 15.0919 11.094 15.0752ZM11.4962 15.1653L11.2346 15.5317L11.301 15.5413L11.3818 15.4275H11.3821L11.598 15.4588L11.6432 15.5908L11.7097 15.6004L11.5626 15.1749L11.4962 15.1653ZM11.5204 15.2325L11.5774 15.3989L11.4185 15.3759L11.5204 15.2325V15.2325ZM12.4338 15.1681C12.3881 15.1769 12.348 15.1924 12.3131 15.215C12.2783 15.2375 12.2534 15.2654 12.2386 15.2988C12.2238 15.3321 12.2202 15.3686 12.2279 15.4085C12.2347 15.4446 12.2511 15.4781 12.2752 15.5057C12.2996 15.5338 12.3303 15.5526 12.3681 15.5624C12.4057 15.5722 12.4525 15.5719 12.5087 15.561C12.5626 15.5506 12.6054 15.5312 12.6382 15.5026C12.6697 15.4751 12.6889 15.4404 12.696 15.3985L12.6366 15.3989C12.6215 15.4788 12.5596 15.4961 12.4926 15.5097C12.3886 15.5286 12.3078 15.4934 12.287 15.3969C12.2681 15.29 12.3528 15.24 12.4424 15.2209C12.5056 15.2087 12.5641 15.2062 12.6002 15.255L12.6544 15.2345C12.634 15.2046 12.6058 15.1836 12.569 15.1718C12.5304 15.1594 12.4856 15.1581 12.4338 15.1681ZM12.7009 15.1208L12.8147 15.5043L13.1879 15.3935L13.1718 15.339L12.8543 15.4332L12.8196 15.3165L13.1058 15.2316L13.0897 15.1774L12.8036 15.2623L12.7729 15.159L13.0785 15.0684L13.0622 15.0136L12.7009 15.1208ZM13.1336 14.9848L13.3016 15.3478L13.3516 15.3246L13.2116 15.0219C13.3411 15.0806 13.4698 15.1411 13.599 15.2004C13.6076 15.2079 13.6162 15.2029 13.6248 15.1983L13.6752 15.175L13.5072 14.812L13.457 14.8352L13.5969 15.1376C13.464 15.0773 13.3317 15.0154 13.1991 14.9545L13.1336 14.9848ZM13.5729 14.7785L13.6042 14.8261L13.7471 14.7321L13.7525 14.7285L13.7552 14.7326L13.9411 15.015L13.9896 14.983L13.8038 14.7006L13.8011 14.6965L13.8066 14.6929L13.9502 14.5984L13.9188 14.5508L13.5729 14.7785ZM13.9754 14.5029L14.2464 14.7971L14.2894 14.7575L14.1828 14.6418C14.2298 14.598 14.2778 14.5553 14.3241 14.5106C14.392 14.5198 14.4599 14.5289 14.5279 14.5378L14.5824 14.4875L14.3673 14.4591C14.3937 14.423 14.4051 14.3718 14.3804 14.3318C14.3617 14.2972 14.3277 14.2678 14.2865 14.2682C14.2312 14.2669 14.1888 14.3086 14.1496 14.3423C14.0916 14.3958 14.0334 14.4494 13.9754 14.5029ZM14.057 14.5052C14.1079 14.4592 14.157 14.411 14.2095 14.3668C14.2367 14.3462 14.2751 14.3204 14.3094 14.3403C14.3386 14.3567 14.3383 14.3962 14.3213 14.4214C14.291 14.4721 14.2423 14.5072 14.2006 14.5479L14.1442 14.5999L14.057 14.5052ZM14.4407 14.0371L14.6196 14.4502L14.6622 14.3982L14.6064 14.2703L14.6065 14.2701L14.7446 14.1013L14.881 14.1306L14.9236 14.0786L14.4832 13.9851L14.4407 14.0372V14.0371ZM14.5108 14.0511L14.6828 14.088L14.5811 14.2123L14.5108 14.0511ZM14.6149 13.8105L14.9505 14.0281L15.1266 13.7565L15.079 13.7256L14.9381 13.9429L14.9345 13.9485L14.9302 13.9457L14.6466 13.7618L14.6149 13.8105Z" fill="#C8A400"/>
<mask id="mask0_358_10896" style="mask-type:luminance" maskUnits="userSpaceOnUse" x="9" y="9" width="6" height="5">
<path d="M11.9778 9.05469L9.42969 13.468H14.5258L11.9778 9.05469Z" fill="white"/>
</mask>
<g mask="url(#mask0_358_10896)">
<path d="M11.9775 9.05469L10.7184 11.2361L10.1016 12.3042H13.8535L13.2649 11.2848L11.9776 9.05469H11.9775Z" fill="white"/>
<path opacity="0.62" d="M11.9771 9.05469L11.8828 9.21797L11.9771 11.417L12.0714 9.21797L11.9771 9.05469Z" fill="#17C0EB" stroke="#17C0EB" stroke-width="0.0086"/>
<path d="M11.978 11.0977L11.9727 11.0978L11.978 11.2222L11.9834 11.0978L11.978 11.0977Z" fill="white"/>
<path opacity="0.62" d="M14.2244 10.6873L14.04 10.6481L11.9777 11.4173L14.0983 10.8274L14.2244 10.6873Z" fill="#17C0EB" stroke="#17C0EB" stroke-width="0.0086"/>
<path d="M12.2829 11.3196L12.2811 11.3145L12.1644 11.358L12.2844 11.3247L12.2829 11.3196Z" fill="white"/>
<path opacity="0.62" d="M13.3651 13.3289L13.3454 13.1413L11.9766 11.4177L13.1929 13.2522L13.3651 13.3289Z" fill="#17C0EB" stroke="#17C0EB" stroke-width="0.0086"/>
<path d="M12.1636 11.677L12.1679 11.6737L12.0904 11.5762L12.1592 11.68L12.1636 11.677Z" fill="white"/>
<path opacity="0.62" d="M10.5878 13.3293L10.76 13.2527L11.9763 11.4182L10.6075 13.1418L10.5878 13.3293Z" fill="#17C0EB" stroke="#17C0EB" stroke-width="0.0086"/>
<path d="M11.7886 11.6765L11.793 11.6796L11.8618 11.5758L11.7844 11.6733L11.7886 11.6765Z" fill="white"/>
<path opacity="0.62" d="M9.72835 10.6877L9.85451 10.8278L11.9751 11.4177L9.91278 10.6485L9.72835 10.6877Z" fill="#17C0EB" stroke="#17C0EB" stroke-width="0.0086"/>
<path d="M11.6696 11.3191L11.6681 11.3243L11.7881 11.3576L11.6714 11.3141L11.6696 11.3191Z" fill="white"/>
<path opacity="0.62" d="M12.3023 9.07757L12.1863 9.22614L11.9736 11.4169L12.373 9.25239L12.3023 9.07757Z" fill="#17C0EB" stroke="#17C0EB" stroke-width="0.0086"/>
<path d="M12.019 11.1004L12.0137 11.0997L12.0016 11.2237L12.0243 11.1012L12.019 11.1004Z" fill="white"/>
<path opacity="0.62" d="M14.2996 11.005L14.1224 10.9405L11.9731 11.4152L14.1551 11.1262L14.2996 11.005Z" fill="#17C0EB" stroke="#17C0EB" stroke-width="0.0086"/>
<path d="M12.288 11.3607L12.287 11.3555L12.1654 11.3824L12.2889 11.366L12.288 11.3607Z" fill="white"/>
<path opacity="0.62" d="M13.0828 13.5013L13.0894 13.3129L11.9737 11.4155L12.9229 13.4014L13.0828 13.5013Z" fill="#17C0EB" stroke="#17C0EB" stroke-width="0.0086"/>
<path d="M12.1261 11.6978L12.1308 11.6952L12.0676 11.5878L12.1213 11.7002L12.1261 11.6978Z" fill="white"/>
<path opacity="0.62" d="M10.3326 13.1161L10.5138 13.0642L11.9736 11.4168L10.3782 12.9332L10.3326 13.1161Z" fill="#17C0EB" stroke="#17C0EB" stroke-width="0.0086"/>
<path d="M11.752 11.6467L11.7559 11.6503L11.8385 11.5571L11.7482 11.6429L11.752 11.6467Z" fill="white"/>
<path opacity="0.62" d="M9.85188 10.3801L9.9573 10.5364L11.9752 11.4157L10.04 10.3669L9.85188 10.3801Z" fill="#17C0EB" stroke="#17C0EB" stroke-width="0.0086"/>
<path d="M11.6879 11.2764L11.6857 11.2813L11.7998 11.331L11.6904 11.2717L11.6879 11.2764Z" fill="white"/>
<path opacity="0.62" d="M12.6297 9.14708L12.4941 9.27805L11.9785 11.4179L12.6753 9.33002L12.6297 9.14708Z" fill="#17C0EB" stroke="#17C0EB" stroke-width="0.0086"/>
<path d="M12.0677 11.1109L12.0625 11.1095L12.0333 11.2306L12.0728 11.1124L12.0677 11.1109Z" fill="white"/>
<path opacity="0.62" d="M14.3392 11.3345L14.1728 11.2459L11.9783 11.4169L14.1793 11.4344L14.3392 11.3345Z" fill="#17C0EB" stroke="#17C0EB" stroke-width="0.0086"/>
<path d="M12.2971 11.4057L12.2968 11.4004L12.1726 11.4101L12.2971 11.4111L12.2971 11.4057Z" fill="white"/>
<path opacity="0.62" d="M12.7864 13.6377L12.8192 13.452L11.9784 11.4178L12.642 13.5165L12.7864 13.6377Z" fill="#17C0EB" stroke="#17C0EB" stroke-width="0.0086"/>
<path d="M12.0887 11.7186L12.0937 11.7167L12.0461 11.6016L12.0836 11.7204L12.0887 11.7186Z" fill="white"/>
<path opacity="0.62" d="M10.1177 12.873L10.3044 12.8467L11.9793 11.4186L10.1884 12.6982L10.1177 12.873Z" fill="#17C0EB" stroke="#17C0EB" stroke-width="0.0086"/>
<path d="M11.7272 11.6149L11.7306 11.6191L11.8253 11.5382L11.724 11.6106L11.7272 11.6149Z" fill="white"/>
<path opacity="0.62" d="M10.0215 10.0957L10.1041 10.2651L11.98 11.4167L10.2096 10.1088L10.0215 10.0957Z" fill="#17C0EB" stroke="#17C0EB" stroke-width="0.0086"/>
<path d="M11.7139 11.2377L11.711 11.2423L11.8172 11.3074L11.717 11.2334L11.7139 11.2377Z" fill="white"/>
<path opacity="0.62" d="M12.9377 9.25905L12.7852 9.36987L11.9768 11.4172L12.9574 9.44656L12.9377 9.25905Z" fill="#17C0EB" stroke="#17C0EB" stroke-width="0.0086"/>
<path d="M12.1065 11.1252L12.1015 11.1232L12.0558 11.239L12.1113 11.1275L12.1065 11.1252Z" fill="white"/>
<path opacity="0.62" d="M14.3261 11.6641L14.1736 11.5532L11.9767 11.4171L14.1538 11.7408L14.3261 11.6641Z" fill="#17C0EB" stroke="#17C0EB" stroke-width="0.0086"/>
<path d="M12.2963 11.4506L12.2968 11.4453L12.1724 11.4376L12.2956 11.456L12.2963 11.4506Z" fill="white"/>
<path opacity="0.62" d="M12.4703 13.7286L12.5286 13.5493L11.9791 11.4178L12.3441 13.5885L12.4703 13.7286Z" fill="#17C0EB" stroke="#17C0EB" stroke-width="0.0086"/>
<path d="M12.0455 11.7296L12.0508 11.7284L12.0196 11.6078L12.0403 11.7306L12.0455 11.7296Z" fill="white"/>
<path opacity="0.62" d="M9.93333 12.6L10.1219 12.6L11.9792 11.4188L10.0276 12.4367L9.93333 12.6Z" fill="#17C0EB" stroke="#17C0EB" stroke-width="0.0086"/>
<path d="M11.7044 11.5793L11.7071 11.5839L11.8122 11.5171L11.7018 11.5746L11.7044 11.5793Z" fill="white"/>
<path opacity="0.62" d="M10.2232 9.83814L10.2815 10.0175L11.9788 11.4189L10.4077 9.87733L10.2232 9.83814Z" fill="#17C0EB" stroke="#17C0EB" stroke-width="0.0086"/>
<path d="M11.7419 11.205L11.7384 11.2091L11.8344 11.2883L11.7455 11.2011L11.7419 11.205Z" fill="white"/>
<path opacity="0.62" d="M13.2284 9.4152L13.0619 9.5037L11.9765 11.4186L13.2218 9.60363L13.2284 9.4152Z" fill="#17C0EB" stroke="#17C0EB" stroke-width="0.0086"/>
<path d="M12.1452 11.1474L12.1406 11.1446L12.0792 11.253L12.1497 11.1503L12.1452 11.1474Z" fill="white"/>
<path opacity="0.62" d="M14.2702 11.9899L14.1345 11.8589L11.978 11.4184L14.0889 12.0419L14.2702 11.9899Z" fill="#17C0EB" stroke="#17C0EB" stroke-width="0.0086"/>
<path d="M12.2878 11.4954L12.2889 11.4902L12.1669 11.4653L12.2864 11.5006L12.2878 11.4954Z" fill="white"/>
<path opacity="0.62" d="M12.1442 13.7742L12.2269 13.6047L11.9794 11.4175L12.0388 13.6178L12.1442 13.7742Z" fill="#17C0EB" stroke="#17C0EB" stroke-width="0.0086"/>
<path d="M12.0025 11.7367L12.0078 11.7362L11.9938 11.6124L11.9971 11.737L12.0025 11.7367Z" fill="white"/>
<path opacity="0.62" d="M9.7889 12.3032L9.97561 12.3295L11.9792 11.4183L9.90497 12.1546L9.7889 12.3032Z" fill="#17C0EB" stroke="#17C0EB" stroke-width="0.0086"/>
<path d="M11.6816 11.538L11.6837 11.5429L11.7971 11.4913L11.6797 11.533L11.6816 11.538Z" fill="white"/>
<path opacity="0.62" d="M10.4628 9.60737L10.4956 9.79305L11.9813 11.417L10.64 9.67184L10.4628 9.60737Z" fill="#17C0EB" stroke="#17C0EB" stroke-width="0.0086"/>
<path d="M11.7775 11.1723L11.7735 11.1759L11.8576 11.2678L11.7817 11.169L11.7775 11.1723Z" fill="white"/>
<path opacity="0.62" d="M13.5019 9.60748L13.3247 9.67195L11.9834 11.4171L13.4692 9.79316L13.5019 9.60748Z" fill="#17C0EB" stroke="#17C0EB" stroke-width="0.0086"/>
<path d="M12.1877 11.1714L12.1835 11.1681L12.1076 11.2668L12.1917 11.175L12.1877 11.1714Z" fill="white"/>
<path opacity="0.62" d="M14.1756 12.3023L14.0595 12.1537L11.9853 11.4173L13.9889 12.3285L14.1756 12.3023Z" fill="#17C0EB" stroke="#17C0EB" stroke-width="0.0086"/>
<path d="M12.2831 11.5382L12.285 11.5332L12.1677 11.4915L12.281 11.5431L12.2831 11.5382Z" fill="white"/>
<path opacity="0.62" d="M11.82 13.7747L11.9255 13.6184L11.9848 11.4181L11.7374 13.6052L11.82 13.7747Z" fill="#17C0EB" stroke="#17C0EB" stroke-width="0.0086"/>
<path d="M11.9634 11.736L11.9688 11.7362L11.9721 11.6117L11.9581 11.7355L11.9634 11.736Z" fill="white"/>
<path opacity="0.62" d="M9.68813 11.9886L9.86937 12.0406L11.9803 11.4171L9.82375 11.8576L9.68813 11.9886Z" fill="#17C0EB" stroke="#17C0EB" stroke-width="0.0086"/>
<path d="M11.6706 11.4948L11.672 11.5L11.7914 11.4647L11.6694 11.4896L11.6706 11.4948Z" fill="white"/>
<path opacity="0.62" d="M10.7284 9.41488L10.735 9.60331L11.9803 11.4183L10.8949 9.50339L10.7284 9.41488Z" fill="#17C0EB" stroke="#17C0EB" stroke-width="0.0086"/>
<path d="M11.8092 11.1476L11.8048 11.1505L11.8752 11.2532L11.8138 11.1448L11.8092 11.1476Z" fill="white"/>
<path opacity="0.62" d="M13.735 9.83764L13.5505 9.87683L11.9794 11.4184L13.6767 10.017L13.735 9.83764Z" fill="#17C0EB" stroke="#17C0EB" stroke-width="0.0086"/>
<path d="M12.2184 11.2052L12.2148 11.2013L12.1259 11.2885L12.2219 11.2092L12.2184 11.2052Z" fill="white"/>
<path opacity="0.62" d="M14.0232 12.5992L13.9289 12.4359L11.9773 11.418L13.8346 12.5992L14.0232 12.5992Z" fill="#17C0EB" stroke="#17C0EB" stroke-width="0.0086"/>
<path d="M12.2551 11.5789L12.2577 11.5742L12.1473 11.5166L12.2523 11.5834L12.2551 11.5789Z" fill="white"/>
<path opacity="0.62" d="M11.4859 13.7304L11.6121 13.5903L11.9771 11.4197L11.4276 13.5511L11.4859 13.7304Z" fill="#17C0EB" stroke="#17C0EB" stroke-width="0.0086"/>
<path d="M11.9088 11.7333L11.9141 11.7343L11.9347 11.6114L11.9036 11.732L11.9088 11.7333Z" fill="white"/>
<path opacity="0.62" d="M9.62686 11.666L9.7991 11.7427L11.9763 11.4191L9.77939 11.5552L9.62686 11.666Z" fill="#17C0EB" stroke="#17C0EB" stroke-width="0.0086"/>
<path d="M11.6596 11.4517L11.6603 11.457L11.7835 11.4387L11.6592 11.4464L11.6596 11.4517Z" fill="white"/>
<path opacity="0.62" d="M11.0158 9.26048L10.9961 9.44799L11.9767 11.4186L11.1684 9.3713L11.0158 9.26048Z" fill="#17C0EB" stroke="#17C0EB" stroke-width="0.0086"/>
<path d="M11.8447 11.1267L11.8399 11.129L11.8954 11.2405L11.8497 11.1247L11.8447 11.1267Z" fill="white"/>
<path opacity="0.62" d="M13.9355 10.0938L13.7474 10.1069L11.977 11.4148L13.8529 10.2633L13.9355 10.0938Z" fill="#17C0EB" stroke="#17C0EB" stroke-width="0.0086"/>
<path d="M12.2413 11.2369L12.2382 11.2325L12.138 11.3065L12.2442 11.2414L12.2413 11.2369Z" fill="white"/>
<path opacity="0.62" d="M13.8404 12.8692L13.7698 12.6944L11.9788 11.4148L13.6537 12.843L13.8404 12.8692Z" fill="#17C0EB" stroke="#17C0EB" stroke-width="0.0086"/>
<path d="M12.2311 11.6116L12.2343 11.6073L12.1329 11.535L12.2277 11.6158L12.2311 11.6116Z" fill="white"/>
<path opacity="0.62" d="M11.1692 13.6357L11.3137 13.5145L11.9772 11.4158L11.1365 13.45L11.1692 13.6357Z" fill="#17C0EB" stroke="#17C0EB" stroke-width="0.0086"/>
<path d="M11.8661 11.7169L11.8711 11.7186L11.9087 11.5999L11.8611 11.715L11.8661 11.7169Z" fill="white"/>
<path opacity="0.62" d="M9.61657 11.3335L9.77646 11.4334L11.9775 11.416L9.78304 11.245L9.61657 11.3335Z" fill="#17C0EB" stroke="#17C0EB" stroke-width="0.0086"/>
<path d="M11.6603 11.4048L11.6603 11.4102L11.7848 11.4091L11.6606 11.3994L11.6603 11.4048Z" fill="white"/>
<path opacity="0.62" d="M11.325 9.14393L11.2794 9.32688L11.9762 11.4148L11.4606 9.2749L11.325 9.14393Z" fill="#17C0EB" stroke="#17C0EB" stroke-width="0.0086"/>
<path d="M11.888 11.1079L11.8828 11.1095L11.9223 11.2276L11.8932 11.1065L11.888 11.1079Z" fill="white"/>
<path opacity="0.62" d="M14.1019 10.3816L13.9138 10.3685L11.9786 11.4172L13.9965 10.5379L14.1019 10.3816Z" fill="#17C0EB" stroke="#17C0EB" stroke-width="0.0086"/>
<path d="M12.266 11.2763L12.2636 11.2715L12.1541 11.3309L12.2683 11.2812L12.266 11.2763Z" fill="white"/>
<path opacity="0.62" d="M13.6177 13.1163L13.5721 12.9333L11.9767 11.4169L13.4365 13.0643L13.6177 13.1163Z" fill="#17C0EB" stroke="#17C0EB" stroke-width="0.0086"/>
<path d="M12.2012 11.6463L12.205 11.6425L12.1147 11.5567L12.1973 11.6499L12.2012 11.6463Z" fill="white"/>
<path opacity="0.62" d="M10.8679 13.5026L11.0278 13.4027L11.977 11.4168L10.8613 13.3142L10.8679 13.5026Z" fill="#17C0EB" stroke="#17C0EB" stroke-width="0.0086"/>
<path d="M11.8253 11.6987L11.8301 11.7011L11.8838 11.5887L11.8207 11.696L11.8253 11.6987Z" fill="white"/>
<path opacity="0.62" d="M9.65114 11.0068L9.79557 11.128L11.9776 11.417L9.82831 10.9423L9.65114 11.0068Z" fill="#17C0EB" stroke="#17C0EB" stroke-width="0.0086"/>
<path d="M11.663 11.3619L11.6622 11.3672L11.7857 11.3835L11.6641 11.3567L11.663 11.3619Z" fill="white"/>
<path opacity="0.62" d="M11.65 9.07672L11.5794 9.25153L11.9788 11.4161L11.7661 9.22529L11.65 9.07672Z" fill="#17C0EB" stroke="#17C0EB" stroke-width="0.0086"/>
<path d="M11.933 11.0989L11.9278 11.0997L11.9504 11.2222L11.9384 11.0982L11.933 11.0989Z" fill="white"/>
<path d="M11.9781 10.6328C11.5527 10.6322 11.1414 10.7849 10.8194 11.0628L10.2331 12.0791C10.2129 12.1879 10.2029 12.2984 10.2031 12.4091H10.4044C10.4044 11.54 11.1091 10.8353 11.9781 10.8353C12.8472 10.8353 13.5519 11.54 13.5519 12.4091H13.7531C13.7531 12.2965 13.7431 12.1858 13.7231 12.0791L13.1369 11.0628C12.8149 10.7849 12.4035 10.6322 11.9781 10.6328Z" fill="#FF0000"/>
<path d="M11.9781 10.666C11.5075 10.666 11.0805 10.853 10.7669 11.156L10.2856 11.9898C10.2516 12.1272 10.2343 12.2682 10.2344 12.4098H10.4044C10.4044 11.5407 11.1091 10.836 11.9781 10.836C12.8472 10.836 13.5519 11.5407 13.5519 12.4098H13.7219C13.7219 12.2648 13.704 12.1232 13.6706 11.9885L13.1894 11.156C12.8757 10.8531 12.4487 10.666 11.9781 10.666Z" fill="#FF6600"/>
<path d="M11.9769 10.6973C11.4688 10.6973 11.0129 10.9182 10.6993 11.2698L10.3506 11.8735C10.294 12.0462 10.2653 12.2268 10.2656 12.4085H10.4031C10.4031 11.5395 11.1078 10.8348 11.9769 10.8348C12.8459 10.8348 13.5506 11.5395 13.5506 12.4085H13.6881C13.6881 12.2216 13.6585 12.0419 13.6031 11.8735L13.2543 11.2697C12.9409 10.9182 12.4849 10.6973 11.9768 10.6973L11.9769 10.6973Z" fill="#FFFF00"/>
<path d="M11.9769 10.7285C11.3949 10.7285 10.882 11.0251 10.5807 11.4748L10.4682 11.6698C10.3553 11.8997 10.2967 12.1524 10.2969 12.4086H10.4032C10.4032 11.5395 11.1078 10.8348 11.9769 10.8348C12.846 10.8348 13.5506 11.5395 13.5506 12.4085H13.6569C13.657 12.1528 13.5984 11.9005 13.4857 11.671L13.3719 11.4736C13.0705 11.0245 12.5584 10.7286 11.9769 10.7286V10.7285Z" fill="#00FF00"/>
<path d="M11.9796 10.7617C11.0697 10.7617 10.332 11.4993 10.332 12.4092H10.4058C10.4058 11.5402 11.1105 10.8355 11.9796 10.8355C12.8486 10.8355 13.5533 11.5402 13.5533 12.4092H13.6271C13.6271 11.4993 12.8895 10.7617 11.9796 10.7617Z" fill="#00CCFF"/>
<path d="M11.9783 10.793C11.086 10.793 10.3633 11.517 10.3633 12.4092H10.417C10.417 11.5468 11.1159 10.848 11.9783 10.848C12.8406 10.848 13.5395 11.5468 13.5395 12.4092H13.5945C13.5945 11.517 12.8705 10.793 11.9783 10.793Z" fill="#0000FF"/>
<path d="M11.9781 10.8262C11.1035 10.8262 10.3945 11.5352 10.3945 12.4097C10.3945 12.4195 10.3947 12.4293 10.3948 12.4391H10.4269C10.4267 12.4293 10.4266 12.4195 10.4266 12.4097C10.4266 11.5529 11.1212 10.8582 11.9781 10.8582C12.835 10.8582 13.5296 11.5529 13.5296 12.4097C13.5296 12.4195 13.5295 12.4293 13.5293 12.4391H13.5612C13.5614 12.4293 13.5615 12.4195 13.5615 12.4097C13.5615 11.5352 12.8527 10.8262 11.9781 10.8262Z" fill="#800080"/>
<path d="M11.9923 11.5244C11.9666 11.5194 11.9433 11.505 11.9213 11.5C11.8911 11.529 11.8879 11.5583 11.8921 11.5832C11.9026 11.5888 11.9045 11.5973 11.9272 11.6176C11.9499 11.6379 11.9471 11.6485 11.9457 11.6962C11.9451 11.7163 11.9485 11.7594 11.9689 11.7635C11.9908 11.7679 12.0061 11.7496 12.0125 11.7171C12.0185 11.6855 12.0291 11.6684 12.0404 11.649C12.0526 11.5749 12.0327 11.5487 11.9923 11.5244Z" fill="#510000"/>
<path d="M11.8631 11.3404C11.8393 11.341 11.8019 11.3809 11.7853 11.3594C11.7758 11.3471 11.7742 11.3233 11.7839 11.3034C11.8062 11.2573 11.8288 11.2347 11.8705 11.2102C11.9657 11.1541 12.0261 11.1722 12.0735 11.2527C12.1174 11.3236 12.1596 11.4019 12.1633 11.4675C12.1645 11.4876 12.1747 11.5239 12.1571 11.5419C12.1032 11.5975 11.9733 11.4845 11.8972 11.5024C11.8716 11.5084 11.8421 11.5271 11.818 11.5111C11.7992 11.4987 11.8149 11.4713 11.8289 11.4594C11.8534 11.4386 11.8889 11.3648 11.8841 11.3328C11.8814 11.3149 11.8809 11.3399 11.8631 11.3404Z" fill="#FF0000"/>
<path d="M11.8565 11.3018C11.8132 11.3196 11.8179 11.3449 11.7961 11.3654C11.8023 11.3677 11.8267 11.3778 11.8507 11.3534C11.861 11.3448 11.8726 11.3417 11.8777 11.3389C11.8655 11.3477 11.8568 11.3611 11.8504 11.3663C11.8342 11.3794 11.809 11.4096 11.7968 11.4401C11.7845 11.4707 11.7796 11.507 11.7817 11.5114C11.784 11.5158 11.7988 11.5426 11.8444 11.5607C11.9256 11.5929 11.9411 11.6582 12.0235 11.6582C12.088 11.6582 12.0777 11.616 12.1293 11.6249C12.1741 11.6327 12.1979 11.5971 12.1547 11.5757C12.0999 11.5569 11.9911 11.568 11.9399 11.577C11.9233 11.4137 11.9376 11.471 11.9338 11.4008C11.9299 11.3306 11.9089 11.3264 11.9367 11.2695C11.9135 11.3044 11.8856 11.2989 11.8565 11.3018Z" fill="url(#paint0_linear_358_10896)"/>
<path d="M12.0142 11.1914C12.0126 11.2003 12.0111 11.212 12.012 11.2154C12.0154 11.229 12.019 11.2431 12.0231 11.2552C12.0277 11.2686 12.0296 11.2784 12.0327 11.2923C12.036 11.3067 12.0487 11.3123 12.0604 11.3212C12.0752 11.3324 12.0638 11.3626 12.073 11.3639C12.0804 11.3649 12.0926 11.321 12.0926 11.314C12.0929 11.3054 12.0924 11.2967 12.0912 11.2882C12.0859 11.2764 12.0802 11.2647 12.0741 11.2533C12.074 11.2531 12.0738 11.253 12.0738 11.2529C12.0714 11.2484 12.0688 11.244 12.066 11.2398C12.0572 11.2269 12.0466 11.2153 12.0346 11.2053L12.0323 11.2034C12.029 11.2008 12.0255 11.1982 12.022 11.1959C12.0195 11.1943 12.0168 11.1929 12.0142 11.1914Z" fill="#FF2A2A"/>
<path d="M12.0296 11.4943C12.0009 11.4868 11.9725 11.4726 11.9481 11.4653C11.9001 11.4509 11.8489 11.4199 11.8135 11.4327C11.8008 11.4383 11.8019 11.451 11.7979 11.4691C11.7962 11.4904 11.774 11.5219 11.7924 11.5116C11.8198 11.4963 11.892 11.5409 11.9162 11.5558C11.9277 11.5629 11.9519 11.5768 11.9595 11.5967C11.9671 11.6166 11.9632 11.667 11.9611 11.6886C11.959 11.7112 11.9659 11.762 11.9886 11.768C12.013 11.7746 12.0317 11.7551 12.0412 11.7188C12.0504 11.6836 12.0574 11.6634 12.0715 11.6422C12.0856 11.6211 12.1017 11.612 12.1243 11.6077C12.1469 11.6035 12.1796 11.6262 12.1796 11.5996C12.1796 11.5821 12.1642 11.5654 12.1708 11.5414C12.1759 11.5226 12.1547 11.5263 12.1371 11.5186C12.0957 11.5058 12.0583 11.5018 12.0296 11.4943Z" fill="url(#paint1_linear_358_10896)"/>
<path d="M11.9119 11.5546C11.8988 11.5475 11.8193 11.4955 11.7901 11.5118C11.7809 11.5169 11.7775 11.5111 11.7773 11.5015C11.7772 11.4919 11.7817 11.4777 11.7847 11.4669C11.7877 11.4559 11.7925 11.4352 11.8053 11.4244C11.8328 11.4012 11.8961 11.4474 11.9297 11.4598C11.9268 11.4773 11.9109 11.5541 11.9119 11.5546Z" fill="#910000"/>
<path d="M12.0496 11.6539C12.0863 11.5898 12.1099 11.598 12.1541 11.5989C12.1689 11.5993 12.1732 11.5858 12.1699 11.5723C12.1587 11.5972 12.1034 11.5695 12.0733 11.5828C12.0103 11.6105 12.0221 11.7336 11.9922 11.7456C12.0232 11.7716 12.0371 11.6757 12.0496 11.6539Z" fill="#FF3A3A"/>
<path d="M10.1013 12.3047L9.70312 12.9942H14.2514L13.8532 12.3047H10.1013Z" fill="url(#paint2_linear_358_10896)"/>
<path d="M9.96565 12.8537C9.89933 12.8537 9.83777 12.8604 9.77725 12.8678L9.75781 12.9017C9.85513 12.893 9.94569 12.8757 10.0434 12.8733C10.1751 12.8765 10.2947 12.9065 10.4349 12.9065C10.4956 12.9071 10.5559 12.9053 10.6159 12.9065C10.7559 12.9065 10.8755 12.8765 11.0072 12.8733C11.139 12.8765 11.2594 12.9065 11.3993 12.9065C11.4601 12.9067 11.5265 12.9056 11.5805 12.9065C11.7205 12.9065 11.8395 12.8765 11.9711 12.8733C12.1029 12.8765 12.2219 12.9065 12.3619 12.9065C12.4231 12.9071 12.4832 12.9053 12.5436 12.9065C12.6836 12.9065 12.8032 12.8765 12.9351 12.8733C13.0669 12.8765 13.1863 12.9065 13.3264 12.9065C13.387 12.9071 13.4476 12.9053 13.5076 12.9065C13.6475 12.9065 13.7666 12.8765 13.8982 12.8733C14.0002 12.8758 14.095 12.894 14.1976 12.9023L14.177 12.8666C14.1209 12.8598 14.0636 12.8537 14.0023 12.8537C13.9411 12.8529 13.8809 12.8549 13.8204 12.8537C13.6804 12.8537 13.5615 12.8836 13.4298 12.8869C13.298 12.8837 13.1785 12.8537 13.0384 12.8537C12.9779 12.8529 12.9172 12.855 12.8573 12.8537C12.7173 12.8537 12.5976 12.8837 12.4659 12.8869C12.3341 12.8837 12.2145 12.8537 12.0746 12.8537C12.0137 12.8529 11.9529 12.8549 11.8927 12.8537C11.7527 12.8537 11.6337 12.8837 11.5021 12.8869C11.3703 12.8837 11.2513 12.8537 11.1113 12.8537C11.0505 12.8529 10.9903 12.855 10.9303 12.8537C10.7902 12.8537 10.6707 12.8837 10.5389 12.8869C10.4071 12.8837 10.2875 12.8537 10.1475 12.8537C10.0867 12.8529 10.0258 12.855 9.96565 12.8537Z" fill="url(#paint3_linear_358_10896)"/>
<path d="M9.96565 12.8088C9.89933 12.8088 9.83777 12.8155 9.77725 12.8229L9.75781 12.8568C9.85513 12.8481 9.94569 12.8308 10.0434 12.8284C10.1751 12.8316 10.2947 12.8616 10.4349 12.8616C10.4956 12.8622 10.5559 12.8604 10.6159 12.8616C10.7559 12.8616 10.8755 12.8316 11.0072 12.8284C11.139 12.8316 11.2594 12.8616 11.3993 12.8616C11.4601 12.8618 11.5265 12.8606 11.5805 12.8616C11.7205 12.8616 11.8395 12.8316 11.9711 12.8284C12.1029 12.8316 12.2219 12.8616 12.3619 12.8616C12.4231 12.8622 12.4832 12.8604 12.5436 12.8616C12.6836 12.8616 12.8032 12.8316 12.9351 12.8284C13.0669 12.8316 13.1863 12.8616 13.3264 12.8616C13.387 12.8622 13.4476 12.8604 13.5076 12.8616C13.6475 12.8616 13.7666 12.8316 13.8982 12.8284C14.0002 12.8309 14.095 12.8491 14.1976 12.8574L14.177 12.8216C14.1209 12.8149 14.0636 12.8088 14.0023 12.8088C13.9411 12.808 13.8809 12.81 13.8204 12.8088C13.6804 12.8088 13.5615 12.8387 13.4298 12.842C13.298 12.8388 13.1785 12.8088 13.0384 12.8088C12.9779 12.808 12.9172 12.81 12.8573 12.8088C12.7173 12.8088 12.5976 12.8388 12.4659 12.842C12.3341 12.8388 12.2145 12.8088 12.0746 12.8088C12.0137 12.808 11.9529 12.81 11.8927 12.8088C11.7527 12.8088 11.6337 12.8388 11.5021 12.842C11.3703 12.8388 11.2513 12.8088 11.1113 12.8088C11.0505 12.808 10.9903 12.81 10.9303 12.8088C10.7902 12.8088 10.6707 12.8388 10.5389 12.842C10.4071 12.8388 10.2875 12.8088 10.1475 12.8088C10.0867 12.808 10.0258 12.81 9.96565 12.8088Z" fill="url(#paint4_linear_358_10896)"/>
<path d="M9.96565 12.7639C9.89933 12.7639 9.83777 12.7706 9.77725 12.778L9.75781 12.8118C9.85513 12.8032 9.94569 12.7859 10.0434 12.7835C10.1751 12.7867 10.2947 12.8167 10.4349 12.8167C10.4956 12.8172 10.5559 12.8155 10.6159 12.8167C10.7559 12.8167 10.8755 12.7867 11.0072 12.7835C11.139 12.7867 11.2594 12.8167 11.3993 12.8167C11.4601 12.8168 11.5265 12.8157 11.5805 12.8167C11.7205 12.8167 11.8395 12.7867 11.9711 12.7835C12.1029 12.7867 12.2219 12.8167 12.3619 12.8167C12.4231 12.8172 12.4832 12.8155 12.5436 12.8167C12.6836 12.8167 12.8032 12.7867 12.9351 12.7835C13.0669 12.7867 13.1863 12.8167 13.3264 12.8167C13.387 12.8172 13.4476 12.8155 13.5076 12.8167C13.6475 12.8167 13.7666 12.7867 13.8982 12.7835C14.0002 12.786 14.095 12.8042 14.1976 12.8124L14.177 12.7767C14.1209 12.77 14.0636 12.7639 14.0023 12.7639C13.9411 12.7631 13.8809 12.7651 13.8204 12.7639C13.6804 12.7639 13.5615 12.7938 13.4298 12.797C13.298 12.7938 13.1785 12.7639 13.0384 12.7639C12.9779 12.7631 12.9172 12.7651 12.8573 12.7639C12.7173 12.7639 12.5976 12.7938 12.4659 12.797C12.3341 12.7938 12.2145 12.7639 12.0746 12.7639C12.0137 12.7631 11.9529 12.7651 11.8927 12.7639C11.7527 12.7639 11.6337 12.7938 11.5021 12.797C11.3703 12.7938 11.2513 12.7639 11.1113 12.7639C11.0505 12.763 10.9903 12.7651 10.9303 12.7639C10.7902 12.7639 10.6707 12.7938 10.5389 12.797C10.4071 12.7938 10.2875 12.7639 10.1475 12.7639C10.0867 12.7631 10.0258 12.7651 9.96565 12.7639Z" fill="url(#paint5_linear_358_10896)"/>
<path d="M9.96565 12.719C9.89933 12.719 9.83777 12.7256 9.77725 12.7331L9.75781 12.7669C9.85513 12.7583 9.94569 12.741 10.0434 12.7386C10.1751 12.7418 10.2947 12.7718 10.4349 12.7718C10.4956 12.7723 10.5559 12.7706 10.6159 12.7718C10.7559 12.7718 10.8755 12.7418 11.0072 12.7386C11.139 12.7418 11.2594 12.7718 11.3993 12.7718C11.4601 12.7719 11.5265 12.7708 11.5805 12.7718C11.7205 12.7718 11.8395 12.7418 11.9711 12.7386C12.1029 12.7418 12.2219 12.7718 12.3619 12.7718C12.4231 12.7723 12.4832 12.7706 12.5436 12.7718C12.6836 12.7718 12.8032 12.7418 12.9351 12.7386C13.0669 12.7418 13.1863 12.7718 13.3264 12.7718C13.387 12.7723 13.4476 12.7706 13.5076 12.7718C13.6475 12.7718 13.7666 12.7418 13.8982 12.7386C14.0002 12.741 14.095 12.7593 14.1976 12.7675L14.177 12.7318C14.1209 12.7251 14.0636 12.719 14.0023 12.719C13.9411 12.7182 13.8809 12.7202 13.8204 12.719C13.6804 12.719 13.5615 12.7489 13.4298 12.7521C13.298 12.7489 13.1785 12.719 13.0384 12.719C12.9779 12.7182 12.9172 12.7202 12.8573 12.719C12.7173 12.719 12.5976 12.7489 12.4659 12.7521C12.3341 12.7489 12.2145 12.719 12.0746 12.719C12.0137 12.7182 11.9529 12.7202 11.8927 12.719C11.7527 12.719 11.6337 12.7489 11.5021 12.7521C11.3703 12.7489 11.2513 12.719 11.1113 12.719C11.0505 12.7181 10.9903 12.7202 10.9303 12.719C10.7902 12.719 10.6707 12.7489 10.5389 12.7521C10.4071 12.7489 10.2875 12.719 10.1475 12.719C10.0867 12.7182 10.0258 12.7202 9.96565 12.719Z" fill="url(#paint6_linear_358_10896)"/>
<path d="M9.96565 12.674C9.89933 12.674 9.83777 12.6807 9.77725 12.6882L9.75781 12.722C9.85513 12.7134 9.94569 12.696 10.0434 12.6936C10.1751 12.6968 10.2947 12.7268 10.4349 12.7268C10.4956 12.7274 10.5559 12.7256 10.6159 12.7268C10.7559 12.7268 10.8755 12.6968 11.0072 12.6936C11.139 12.6968 11.2594 12.7268 11.3993 12.7268C11.4601 12.727 11.5265 12.7259 11.5805 12.7268C11.7205 12.7268 11.8395 12.6968 11.9711 12.6936C12.1029 12.6968 12.2219 12.7268 12.3619 12.7268C12.4231 12.7274 12.4832 12.7256 12.5436 12.7268C12.6836 12.7268 12.8032 12.6968 12.9351 12.6936C13.0669 12.6968 13.1863 12.7268 13.3264 12.7268C13.387 12.7274 13.4476 12.7256 13.5076 12.7268C13.6475 12.7268 13.7666 12.6968 13.8982 12.6936C14.0002 12.6961 14.095 12.7144 14.1976 12.7226L14.177 12.6869C14.1209 12.6802 14.0636 12.674 14.0023 12.674C13.9411 12.6732 13.8809 12.6752 13.8204 12.674C13.6804 12.674 13.5615 12.704 13.4298 12.7072C13.298 12.704 13.1785 12.674 13.0384 12.674C12.9779 12.6732 12.9172 12.6753 12.8573 12.674C12.7173 12.674 12.5976 12.704 12.4659 12.7072C12.3341 12.704 12.2145 12.674 12.0746 12.674C12.0137 12.6732 11.9529 12.6752 11.8927 12.674C11.7527 12.674 11.6337 12.704 11.5021 12.7072C11.3703 12.704 11.2513 12.674 11.1113 12.674C11.0505 12.6732 10.9903 12.6753 10.9303 12.674C10.7902 12.674 10.6707 12.704 10.5389 12.7072C10.4071 12.704 10.2875 12.674 10.1475 12.674C10.0867 12.6732 10.0258 12.6753 9.96565 12.674Z" fill="url(#paint7_linear_358_10896)"/>
<path d="M9.96565 12.6291C9.89933 12.6291 9.83777 12.6358 9.77725 12.6432L9.75781 12.6771C9.85513 12.6684 9.94569 12.6511 10.0434 12.6487C10.1751 12.6519 10.2947 12.6819 10.4349 12.6819C10.4956 12.6825 10.5559 12.6807 10.6159 12.6819C10.7559 12.6819 10.8755 12.6519 11.0072 12.6487C11.139 12.6519 11.2594 12.6819 11.3993 12.6819C11.4601 12.6821 11.5265 12.681 11.5805 12.6819C11.7205 12.6819 11.8395 12.6519 11.9711 12.6487C12.1029 12.6519 12.2219 12.6819 12.3619 12.6819C12.4231 12.6825 12.4832 12.6807 12.5436 12.6819C12.6836 12.6819 12.8032 12.6519 12.9351 12.6487C13.0669 12.6519 13.1863 12.6819 13.3264 12.6819C13.387 12.6825 13.4476 12.6807 13.5076 12.6819C13.6475 12.6819 13.7666 12.6519 13.8982 12.6487C14.0002 12.6512 14.095 12.6694 14.1976 12.6777L14.177 12.642C14.1209 12.6352 14.0636 12.6291 14.0023 12.6291C13.9411 12.6283 13.8809 12.6303 13.8204 12.6291C13.6804 12.6291 13.5615 12.659 13.4298 12.6623C13.298 12.6591 13.1785 12.6291 13.0384 12.6291C12.9779 12.6283 12.9172 12.6304 12.8573 12.6291C12.7173 12.6291 12.5976 12.6591 12.4659 12.6623C12.3341 12.6591 12.2145 12.6291 12.0746 12.6291C12.0137 12.6283 11.9529 12.6303 11.8927 12.6291C11.7527 12.6291 11.6337 12.6591 11.5021 12.6623C11.3703 12.6591 11.2513 12.6291 11.1113 12.6291C11.0505 12.6283 10.9903 12.6304 10.9303 12.6291C10.7902 12.6291 10.6707 12.6591 10.5389 12.6623C10.4071 12.6591 10.2875 12.6291 10.1475 12.6291C10.0867 12.6283 10.0258 12.6304 9.96565 12.6291Z" fill="url(#paint8_linear_358_10896)"/>
<path d="M9.96565 12.5861C9.89933 12.5861 9.83777 12.5928 9.77725 12.6003L9.75781 12.6341C9.85513 12.6255 9.94569 12.6081 10.0434 12.6057C10.1751 12.6089 10.2947 12.6389 10.4349 12.6389C10.4956 12.6395 10.5559 12.6377 10.6159 12.6389C10.7559 12.6389 10.8755 12.6089 11.0072 12.6057C11.139 12.6089 11.2594 12.6389 11.3993 12.6389C11.4601 12.6391 11.5265 12.638 11.5805 12.6389C11.7205 12.6389 11.8395 12.6089 11.9711 12.6057C12.1029 12.6089 12.2219 12.6389 12.3619 12.6389C12.4231 12.6395 12.4832 12.6377 12.5436 12.6389C12.6836 12.6389 12.8032 12.6089 12.9351 12.6057C13.0669 12.6089 13.1863 12.6389 13.3264 12.6389C13.387 12.6395 13.4476 12.6377 13.5076 12.6389C13.6475 12.6389 13.7666 12.6089 13.8982 12.6057C14.0002 12.6082 14.095 12.6265 14.1976 12.6347L14.177 12.599C14.1209 12.5923 14.0636 12.5861 14.0023 12.5861C13.9411 12.5853 13.8809 12.5873 13.8204 12.5861C13.6804 12.5861 13.5615 12.6161 13.4298 12.6193C13.298 12.6161 13.1785 12.5861 13.0384 12.5861C12.9779 12.5853 12.9172 12.5874 12.8573 12.5861C12.7173 12.5861 12.5976 12.6161 12.4659 12.6193C12.3341 12.6161 12.2145 12.5861 12.0746 12.5861C12.0137 12.5853 11.9529 12.5873 11.8927 12.5861C11.7527 12.5861 11.6337 12.6161 11.5021 12.6193C11.3703 12.6161 11.2513 12.5861 11.1113 12.5861C11.0505 12.5853 10.9903 12.5874 10.9303 12.5861C10.7902 12.5861 10.6707 12.6161 10.5389 12.6193C10.4071 12.6161 10.2875 12.5861 10.1475 12.5861C10.0867 12.5853 10.0258 12.5874 9.96565 12.5861Z" fill="url(#paint9_linear_358_10896)"/>
<path d="M9.96565 12.5412C9.89933 12.5412 9.83777 12.5479 9.77725 12.5553L9.75781 12.5892C9.85513 12.5805 9.94569 12.5632 10.0434 12.5608C10.1751 12.564 10.2947 12.594 10.4349 12.594C10.4956 12.5946 10.5559 12.5928 10.6159 12.594C10.7559 12.594 10.8755 12.564 11.0072 12.5608C11.139 12.564 11.2594 12.594 11.3993 12.594C11.4601 12.5942 11.5265 12.5931 11.5805 12.594C11.7205 12.594 11.8395 12.564 11.9711 12.5608C12.1029 12.564 12.2219 12.594 12.3619 12.594C12.4231 12.5946 12.4832 12.5928 12.5436 12.594C12.6836 12.594 12.8032 12.564 12.9351 12.5608C13.0669 12.564 13.1863 12.594 13.3264 12.594C13.387 12.5946 13.4476 12.5928 13.5076 12.594C13.6475 12.594 13.7666 12.564 13.8982 12.5608C14.0002 12.5633 14.095 12.5815 14.1976 12.5898L14.177 12.5541C14.1209 12.5473 14.0636 12.5412 14.0023 12.5412C13.9411 12.5404 13.8809 12.5424 13.8204 12.5412C13.6804 12.5412 13.5615 12.5711 13.4298 12.5744C13.298 12.5712 13.1785 12.5412 13.0384 12.5412C12.9779 12.5404 12.9172 12.5425 12.8573 12.5412C12.7173 12.5412 12.5976 12.5712 12.4659 12.5744C12.3341 12.5712 12.2145 12.5412 12.0746 12.5412C12.0137 12.5404 11.9529 12.5424 11.8927 12.5412C11.7527 12.5412 11.6337 12.5712 11.5021 12.5744C11.3703 12.5712 11.2513 12.5412 11.1113 12.5412C11.0505 12.5404 10.9903 12.5425 10.9303 12.5412C10.7902 12.5412 10.6707 12.5712 10.5389 12.5744C10.4071 12.5712 10.2875 12.5412 10.1475 12.5412C10.0867 12.5404 10.0258 12.5425 9.96565 12.5412Z" fill="url(#paint10_linear_358_10896)"/>
<path d="M9.96565 12.4963C9.89933 12.4963 9.83777 12.503 9.77725 12.5104L9.75781 12.5443C9.85513 12.5356 9.94569 12.5183 10.0434 12.5159C10.1751 12.5191 10.2947 12.5491 10.4349 12.5491C10.4956 12.5497 10.5559 12.5479 10.6159 12.5491C10.7559 12.5491 10.8755 12.5191 11.0072 12.5159C11.139 12.5191 11.2594 12.5491 11.3993 12.5491C11.4601 12.5493 11.5265 12.5481 11.5805 12.5491C11.7205 12.5491 11.8395 12.5191 11.9711 12.5159C12.1029 12.5191 12.2219 12.5491 12.3619 12.5491C12.4231 12.5497 12.4832 12.5479 12.5436 12.5491C12.6836 12.5491 12.8032 12.5191 12.9351 12.5159C13.0669 12.5191 13.1863 12.5491 13.3264 12.5491C13.387 12.5497 13.4476 12.5479 13.5076 12.5491C13.6475 12.5491 13.7666 12.5191 13.8982 12.5159C14.0002 12.5184 14.095 12.5366 14.1976 12.5449L14.177 12.5091C14.1209 12.5024 14.0636 12.4963 14.0023 12.4963C13.9411 12.4955 13.8809 12.4975 13.8204 12.4963C13.6804 12.4963 13.5615 12.5262 13.4298 12.5295C13.298 12.5263 13.1785 12.4963 13.0384 12.4963C12.9779 12.4955 12.9172 12.4975 12.8573 12.4963C12.7173 12.4963 12.5976 12.5263 12.4659 12.5295C12.3341 12.5263 12.2145 12.4963 12.0746 12.4963C12.0137 12.4955 11.9529 12.4975 11.8927 12.4963C11.7527 12.4963 11.6337 12.5263 11.5021 12.5295C11.3703 12.5263 11.2513 12.4963 11.1113 12.4963C11.0505 12.4955 10.9903 12.4975 10.9303 12.4963C10.7902 12.4963 10.6707 12.5263 10.5389 12.5295C10.4071 12.5263 10.2875 12.4963 10.1475 12.4963C10.0867 12.4955 10.0258 12.4975 9.96565 12.4963Z" fill="url(#paint11_linear_358_10896)"/>
<path d="M10.1067 12.2969L10.1018 12.3055H13.8534L13.8484 12.2969H10.1067ZM10.0979 12.312L10.0928 12.3208H13.8622L13.8572 12.312H10.098H10.0979ZM10.0899 12.3258L10.0817 12.34H13.8734L13.8652 12.3258H10.0899H10.0899ZM10.0772 12.3478L10.0672 12.3652H13.8879L13.8779 12.3478H10.0772V12.3478ZM10.0612 12.3755L10.0512 12.3928H13.9039L13.8939 12.3755H10.0612ZM10.0453 12.4031L10.0354 12.4203H13.9197L13.9098 12.4031H10.0453ZM10.0294 12.4308L10.0194 12.448H13.9358L13.9258 12.4308H10.0294ZM10.0122 12.4606L10 12.4818H13.9551L13.943 12.4606H10.0122ZM10.2718 12.49C10.4098 12.5165 10.423 12.49 10.423 12.49H10.2718ZM13.5319 12.49C13.5319 12.49 13.5451 12.5165 13.6832 12.49H13.5319Z" fill="url(#paint12_linear_358_10896)"/>
<path d="M13.1993 11.8809C13.1309 11.8809 13.11 11.9153 13.11 11.9153C13.0006 12.3384 12.6377 12.7687 12.206 12.7687H11.8828V13.1994C11.8828 13.1995 11.8832 13.1994 11.8835 13.1994H14.3434L14.0959 12.7612C13.7076 12.7033 13.3903 12.3063 13.2893 11.9153C13.2893 11.9153 13.2677 11.8809 13.1993 11.8809Z" fill="url(#paint13_linear_358_10896)"/>
<path d="M13.198 11.8984C13.1667 11.8984 13.1476 11.9056 13.1365 11.9126C13.126 11.9192 13.1239 11.9237 13.1237 11.9242C13.1237 11.9244 13.1231 11.9246 13.123 11.9248C13.067 12.1377 12.9489 12.3516 12.7896 12.5131C12.6291 12.6759 12.4268 12.7863 12.2054 12.7863H11.8984V13.1832H14.3326L14.1054 12.7808C13.918 12.7564 13.7465 12.6543 13.6071 12.5131C13.4477 12.3516 13.3298 12.1377 13.2738 11.9248L13.2731 11.9242C13.2728 11.9237 13.2703 11.92 13.2596 11.9133C13.2482 11.9063 13.2294 11.8984 13.198 11.8984Z" fill="#97C924"/>
<path d="M13.1977 11.8984C13.2036 11.8984 13.2089 11.8993 13.2139 11.8998C13.2149 12.0205 13.2139 12.2242 13.2139 12.3318C13.2128 12.4254 13.1807 12.5008 13.1334 12.5895C13.1116 12.6516 13.094 12.628 13.0394 12.7038C12.9662 12.7299 12.912 12.7401 12.8339 12.7524C12.7332 12.7683 12.5091 12.7824 12.3984 12.7578C12.5441 12.7151 12.6769 12.627 12.7893 12.513C12.8193 12.4826 12.8478 12.4505 12.8745 12.417C12.9193 12.3606 12.9596 12.3007 12.9949 12.2378C13.009 12.2128 13.0223 12.1879 13.0348 12.1621C13.0534 12.1235 13.0701 12.0841 13.0848 12.0445C13.0897 12.0313 13.0946 12.0178 13.099 12.0046C13.1079 11.978 13.1157 11.9514 13.1227 11.9248C13.1228 11.9246 13.1233 11.9244 13.1233 11.9241C13.1236 11.9236 13.1256 11.9192 13.1362 11.9126C13.1416 11.9092 13.1494 11.9058 13.1592 11.9032H13.1598C13.1699 11.9005 13.182 11.8984 13.1977 11.8984Z" fill="#EDE71F"/>
<path d="M13.1713 11.9551C13.1548 12.1964 13.0802 12.4828 12.9055 12.6675C12.8412 12.721 12.7591 12.7695 12.6797 12.7577C12.9505 12.5373 13.1151 12.1998 13.1713 11.9551Z" fill="#C6CB24"/>
<path d="M12.954 12.3711C12.914 12.4799 12.7625 12.6409 12.6004 12.7729C12.5544 12.7743 12.53 12.7769 12.4883 12.7744C12.587 12.7654 12.8171 12.5711 12.954 12.3711Z" fill="#9ECB34"/>
<path d="M12.586 11.8809C12.5177 11.8809 12.4967 11.9153 12.4967 11.9153C12.3873 12.3384 12.0245 12.7687 11.5927 12.7687H11.2695V13.1994C11.2695 13.1995 11.2699 13.1994 11.2702 13.1994H13.7301L13.4826 12.7612C13.0943 12.7033 12.777 12.3063 12.676 11.9153C12.676 11.9153 12.6544 11.8809 12.586 11.8809Z" fill="url(#paint14_linear_358_10896)"/>
<path d="M12.5848 11.8984C12.5534 11.8984 12.5344 11.9056 12.5232 11.9126C12.5127 11.9192 12.5106 11.9237 12.5104 11.9242C12.5104 11.9244 12.5098 11.9246 12.5097 11.9248C12.4537 12.1377 12.3356 12.3516 12.1763 12.5131C12.0158 12.6759 11.8135 12.7863 11.5921 12.7863H11.2852V13.1832H13.7194L13.4922 12.7808C13.3047 12.7564 13.1332 12.6543 12.9938 12.5131C12.8344 12.3516 12.7166 12.1377 12.6605 11.9248L12.6598 11.9242C12.6595 11.9237 12.657 11.92 12.6463 11.9133C12.635 11.9063 12.6161 11.8984 12.5848 11.8984Z" fill="#97C924"/>
<path d="M12.5844 11.8984C12.5903 11.8984 12.5956 11.8993 12.6006 11.8998C12.6016 12.0205 12.6006 12.2242 12.6006 12.3318C12.5995 12.4254 12.5674 12.5008 12.5202 12.5895C12.4983 12.6516 12.4807 12.628 12.4262 12.7038C12.353 12.7299 12.2987 12.7401 12.2206 12.7524C12.12 12.7683 11.8958 12.7824 11.7852 12.7578C11.9308 12.7151 12.0636 12.627 12.176 12.513C12.2061 12.4826 12.2345 12.4505 12.2612 12.417C12.3061 12.3606 12.3463 12.3007 12.3816 12.2378C12.3957 12.2128 12.409 12.1879 12.4215 12.1621C12.4402 12.1235 12.4568 12.0841 12.4715 12.0445C12.4764 12.0313 12.4813 12.0178 12.4857 12.0046C12.4946 11.978 12.5024 11.9514 12.5094 11.9248C12.5095 11.9246 12.51 11.9244 12.51 11.9241C12.5103 11.9236 12.5124 11.9192 12.5229 11.9126C12.5283 11.9092 12.5362 11.9058 12.5459 11.9032H12.5466C12.5566 11.9005 12.5687 11.8984 12.5844 11.8984Z" fill="#EDE71F"/>
<path d="M12.558 11.9551C12.5415 12.1964 12.4669 12.4828 12.2922 12.6675C12.228 12.721 12.1458 12.7695 12.0664 12.7577C12.3372 12.5373 12.5018 12.1998 12.558 11.9551Z" fill="#C6CB24"/>
<path d="M12.3408 12.3711C12.3007 12.4799 12.1492 12.6409 11.9872 12.7729C11.9412 12.7743 11.9168 12.7769 11.875 12.7744C11.9737 12.7654 12.2038 12.5711 12.3408 12.3711Z" fill="#9ECB34"/>
<path d="M12.0625 11.9155C12.1719 12.3385 12.5341 12.7688 12.9659 12.7688H13.2894V13.1995C13.2894 13.1997 13.2888 13.1995 13.2887 13.1995H10.6569C10.6567 13.1995 10.6562 13.1997 10.6562 13.1995V12.7688H10.9791C11.4108 12.7688 11.7736 12.3385 11.8831 11.9155C11.8831 11.9155 11.9045 11.8809 11.9729 11.8809C12.0412 11.8809 12.0626 11.9155 12.0626 11.9155H12.0625Z" fill="url(#paint15_linear_358_10896)"/>
<path d="M11.9715 11.8984C12.0028 11.8984 12.0217 11.9063 12.033 11.9133C12.0438 11.92 12.0463 11.9237 12.0466 11.9241L12.0472 11.9248C12.1033 12.1377 12.2212 12.3516 12.3806 12.5131C12.5412 12.6759 12.744 12.7863 12.9655 12.7863H13.2711V13.1832H10.6719V12.7862H10.9789C11.2003 12.7862 11.4026 12.6758 11.5631 12.513C11.7224 12.3516 11.8404 12.1377 11.8964 11.9248C11.8966 11.9245 11.897 11.9244 11.8971 11.9242C11.8974 11.9237 11.8994 11.9192 11.9099 11.9126C11.9211 11.9057 11.9401 11.8984 11.9715 11.8984Z" fill="#97C924"/>
<path d="M11.9429 11.9004C11.9396 11.901 11.9364 11.9017 11.9332 11.9026H11.9325C11.9244 11.9046 11.9167 11.9078 11.9096 11.912C11.899 11.9186 11.897 11.923 11.8968 11.9235C11.8967 11.9237 11.8961 11.9239 11.8961 11.9242C11.8891 11.9508 11.8813 11.9775 11.8724 12.004C11.868 12.0173 11.863 12.0306 11.8581 12.0438C11.8434 12.0834 11.8268 12.1229 11.8082 12.1615C11.7956 12.1872 11.7823 12.2124 11.7682 12.2373C11.733 12.3001 11.6927 12.36 11.6478 12.4164C11.6211 12.4499 11.5927 12.4819 11.5626 12.5125C11.4502 12.6265 11.3175 12.7145 11.1719 12.7572C11.2825 12.7818 11.3332 12.7549 11.4338 12.739C11.5119 12.7267 11.6022 12.7165 11.6756 12.6903C11.7301 12.6146 11.7115 12.6383 11.7334 12.5762C11.7806 12.4874 11.8496 12.4073 11.8668 12.3089C11.9315 12.188 11.9429 11.9644 11.9429 11.9004Z" fill="#EDE71F"/>
<path d="M11.9447 11.9551C11.9282 12.1964 11.8536 12.4828 11.679 12.6675C11.6147 12.721 11.5326 12.7695 11.4531 12.7577C11.7239 12.5373 11.8885 12.1998 11.9447 11.9551Z" fill="#C6CB24"/>
<path d="M11.7275 12.3711C11.6874 12.4799 11.536 12.641 11.3739 12.7729C11.3279 12.7743 11.3035 12.7769 11.2617 12.7744C11.3604 12.7654 11.5906 12.5711 11.7275 12.3711Z" fill="#9ECB34"/>
<path d="M12.0122 11.9023H12.0129C12.0226 11.905 12.0303 11.9084 12.0357 11.9118C12.0463 11.9184 12.0483 11.9227 12.0486 11.9232C12.0487 11.9235 12.0492 11.9237 12.0493 11.9239C12.0563 11.9505 12.0641 11.9773 12.073 12.0038C12.0774 12.0171 12.0823 12.0304 12.0873 12.0436C12.102 12.0832 12.1185 12.1226 12.1372 12.1613C12.1497 12.1871 12.163 12.212 12.1771 12.2371C12.2124 12.2999 12.2527 12.3598 12.2975 12.4161C12.3242 12.4496 12.3527 12.4817 12.3827 12.5122C12.4951 12.6262 12.6279 12.73 12.7735 12.7727C12.4837 12.7738 12.3579 12.7475 12.2526 12.6121C12.1473 12.4766 12.1083 12.4173 12.087 12.3346C12.0656 12.2519 12.0059 12.0718 12.0122 11.9023Z" fill="#EDE71F"/>
<path d="M12.0312 11.9551C12.0477 12.1964 12.12 12.4353 12.2947 12.6201C12.359 12.6736 12.4411 12.7221 12.5206 12.7103C12.2272 12.5102 12.0874 12.1998 12.0312 11.9551Z" fill="#C6CB24"/>
<path d="M11.3641 11.8809C11.2957 11.8809 11.2741 11.9153 11.2741 11.9153C11.1732 12.3052 10.8011 12.8081 10.4143 12.8678L10.2227 13.1994H12.1833V12.7455C11.8303 12.6506 11.5477 12.2803 11.4533 11.9153C11.4533 11.9153 11.4324 11.8809 11.3641 11.8809Z" fill="url(#paint16_linear_358_10896)"/>
<path d="M11.3623 11.8984C11.331 11.8984 11.3121 11.9063 11.3008 11.9133C11.2901 11.92 11.2875 11.9237 11.2873 11.9241L11.2866 11.9248C11.2305 12.1377 11.0995 12.353 10.9634 12.5244C10.8273 12.6957 10.5746 12.8691 10.4017 12.8874L10.2305 13.1832H12.1529V12.7554C12.0107 12.7118 11.8809 12.6248 11.7708 12.513C11.6115 12.3516 11.4934 12.1377 11.4374 11.9248C11.4373 11.9245 11.4368 11.9244 11.4367 11.9242C11.4365 11.9237 11.4344 11.9192 11.4239 11.9126C11.4127 11.9057 11.3937 11.8984 11.3623 11.8984Z" fill="#97C924"/>
<path d="M11.3121 11.9551C11.2874 12.3168 11.0859 12.7732 10.8585 12.8519C10.7843 12.8775 10.6545 12.8864 10.6094 12.8922C11.0073 12.703 11.2425 12.2581 11.3121 11.9551Z" fill="#93BC30"/>
<path d="M11.3643 11.8984C11.3584 11.8984 11.3531 11.8993 11.3481 11.8998C11.3471 12.0205 11.3481 12.2242 11.3481 12.3318C11.3493 12.4254 11.3813 12.5008 11.4285 12.5895C11.4313 12.5972 11.434 12.6036 11.4367 12.6091C11.4531 12.6525 11.4652 12.6676 11.5279 12.7152C11.7274 12.8667 11.9747 12.8894 12.1203 12.8768C12.0747 12.8409 12.0259 12.8082 11.983 12.7782C12.0515 12.7759 12.117 12.7682 12.1635 12.7578C12.0179 12.7152 11.8851 12.627 11.7727 12.513C11.7533 12.493 11.7346 12.4722 11.7166 12.4509C11.7083 12.4392 11.6966 12.423 11.6929 12.4184C11.6482 12.3624 11.6024 12.3005 11.5671 12.2379C11.5531 12.2131 11.5398 12.1878 11.5273 12.1621C11.5026 12.111 11.4811 12.0584 11.463 12.0046C11.4543 11.9783 11.4464 11.9517 11.4393 11.9248C11.4393 11.9246 11.4387 11.9244 11.4387 11.9241C11.4384 11.9236 11.4364 11.9192 11.4258 11.9126C11.4186 11.9084 11.4109 11.9052 11.4028 11.9032H11.4021C11.3898 11.8999 11.3771 11.8983 11.3643 11.8984Z" fill="#EDE71F"/>
<path d="M11.3906 11.9551C11.4071 12.1964 11.4817 12.4828 11.6564 12.6675C11.7206 12.721 11.8028 12.7695 11.8822 12.7577C11.6114 12.5373 11.4468 12.1998 11.3906 11.9551Z" fill="#CCD11E"/>
<path d="M11.5586 12.2891C11.6534 12.5225 11.8934 12.7407 12.1403 12.8872C12.1863 12.8886 12.2 12.8873 12.2418 12.8848C12.065 12.79 11.7802 12.6547 11.5586 12.2891Z" fill="#9ECB34"/>
<path d="M10.7469 11.8809C10.6785 11.8809 10.6569 11.9153 10.6569 11.9153C10.556 12.3052 10.1839 12.8081 9.79707 12.8678L9.60547 13.1994H11.5661V12.7455C11.2131 12.6506 10.9305 12.2803 10.8361 11.9153C10.8361 11.9153 10.8152 11.8809 10.7469 11.8809Z" fill="url(#paint17_linear_358_10896)"/>
<path d="M10.7452 11.8984C10.7138 11.8984 10.695 11.9063 10.6836 11.9133C10.6729 11.92 10.6704 11.9237 10.6701 11.9241L10.6694 11.9248C10.6134 12.1377 10.4823 12.353 10.3462 12.5244C10.2102 12.6957 9.95744 12.8691 9.78456 12.8874L9.61328 13.1832H11.5357V12.7554C11.3935 12.7118 11.2637 12.6248 11.1536 12.513C10.9943 12.3516 10.8762 12.1377 10.8202 11.9248C10.8202 11.9245 10.8196 11.9244 10.8196 11.9242C10.8193 11.9237 10.8172 11.9192 10.8067 11.9126C10.7955 11.9057 10.7765 11.8984 10.7452 11.8984Z" fill="#97C924"/>
<path d="M10.6949 11.9551C10.6702 12.3168 10.4687 12.7732 10.2413 12.8519C10.1671 12.8775 10.0373 12.8864 9.99219 12.8922C10.3901 12.703 10.6253 12.2581 10.6949 11.9551Z" fill="#93BC30"/>
<path d="M10.7471 11.8984C10.7412 11.8984 10.7359 11.8993 10.7309 11.8998C10.73 12.0205 10.7309 12.2242 10.7309 12.3318C10.7321 12.4254 10.7641 12.5008 10.8114 12.5895C10.8141 12.5972 10.8168 12.6036 10.8195 12.6091C10.8359 12.6525 10.848 12.6676 10.9108 12.7152C11.1102 12.8667 11.3576 12.8894 11.5031 12.8768C11.4575 12.8409 11.4088 12.8082 11.3658 12.7782C11.4343 12.7759 11.4998 12.7682 11.5464 12.7578C11.4008 12.7152 11.268 12.627 11.1556 12.513C11.1361 12.493 11.1174 12.4722 11.0994 12.4509C11.0911 12.4392 11.0794 12.423 11.0758 12.4184C11.031 12.3624 10.9852 12.3005 10.95 12.2379C10.9359 12.2131 10.9226 12.1878 10.9101 12.1621C10.8854 12.111 10.8639 12.0584 10.8458 12.0046C10.8371 11.9783 10.8292 11.9517 10.8222 11.9248C10.8221 11.9246 10.8216 11.9244 10.8215 11.9241C10.8212 11.9236 10.8192 11.9192 10.8086 11.9126C10.8015 11.9084 10.7937 11.9052 10.7856 11.9032H10.785C10.7726 11.8999 10.7599 11.8983 10.7471 11.8984Z" fill="#EDE71F"/>
<path d="M10.7734 11.9551C10.7899 12.1964 10.8645 12.4828 11.0392 12.6675C11.1034 12.721 11.1856 12.7695 11.265 12.7577C10.9942 12.5373 10.8296 12.1998 10.7734 11.9551Z" fill="#C6CB24"/>
<path d="M10.9414 12.2891C11.0362 12.5225 11.2762 12.7407 11.5231 12.8872C11.5691 12.8886 11.5828 12.8873 11.6246 12.8848C11.4478 12.79 11.163 12.6547 10.9414 12.2891Z" fill="#9ECB34"/>
<path d="M14.2366 12.9875C14.2136 12.9956 14.0597 12.9799 13.9792 12.9857L13.928 12.9991C13.8831 12.9988 13.8385 13.0001 13.7948 12.9991C13.6508 12.9991 13.5289 13.0371 13.3918 13.0371C13.2545 13.0371 13.133 12.9991 12.9888 12.9991C12.944 12.9988 12.8995 13.0001 12.8556 12.9991C12.7116 12.9991 12.5898 13.0371 12.4526 13.0371C12.3154 13.0371 12.1937 12.9991 12.0496 12.9991C12.0044 12.9989 11.9599 13.0001 11.9157 12.9991C11.7716 12.9991 11.6504 13.0371 11.5134 13.0371C11.3762 13.0371 11.2551 12.9991 11.111 12.9991C11.1004 12.9991 11.0904 12.9995 11.08 12.9998C11.0729 12.9997 11.0649 12.9991 11.0577 12.9991C11.0529 12.9991 11.0488 12.999 11.0441 12.9991C11.0395 12.999 11.0347 12.9991 11.0299 12.9991C11.0227 12.9991 11.0161 12.9997 11.009 12.9998C10.9986 12.9995 10.9886 12.9991 10.9778 12.9991C10.8336 12.9991 10.7121 13.0371 10.5748 13.0371C10.4376 13.0371 10.3159 12.9991 10.1718 12.9991C10.1613 12.9991 10.1509 12.9995 10.1408 12.9998C10.1336 12.9997 10.1272 12.9991 10.1199 12.9991C10.1149 12.9991 10.1098 12.999 10.1049 12.9991C10.1002 12.999 10.0954 12.9991 10.0907 12.9991C10.0834 12.9991 10.0762 12.9997 10.0691 12.9998C10.0587 12.9995 10.0487 12.9991 10.038 12.9991C9.92285 12.9991 9.78933 13.0234 9.68061 13.0331L9.42969 13.4675L11.9486 13.4672L14.5236 13.4675L14.2366 12.9875Z" fill="white"/>
<path d="M13.8965 12.9238C13.8885 12.9238 13.8805 12.9238 13.8726 12.9241C13.743 12.9279 13.6501 12.9687 13.4246 12.9687C13.1991 12.9687 13.1759 12.9279 12.9213 12.9335C12.6834 12.9388 12.5835 12.984 12.4545 12.9822C12.3253 12.9805 12.1155 12.9543 11.9541 12.9712C11.7926 12.9881 11.6009 13.0226 11.4751 13.0229C11.3188 13.0222 11.1623 12.9937 10.9989 13.0099C10.8354 13.0261 10.759 13.0699 10.5564 13.0693C10.3821 13.0688 10.1931 13.0414 10.0465 13.0415C9.90913 13.0416 9.75585 13.0798 9.64309 13.0992L9.60938 13.1578C9.69926 13.1474 9.95142 13.1091 10.0415 13.1067C10.1352 13.1043 10.4701 13.126 10.6549 13.1197C10.8396 13.1133 10.8612 13.0728 11.0796 13.0728C11.2316 13.0728 11.3462 13.0888 11.5022 13.0888C11.5996 13.0888 11.6879 13.0391 11.8359 13.0391C11.8734 13.038 11.9105 13.0367 11.9477 13.0355C12.0725 13.0149 12.2831 13.0373 12.4296 13.0447C12.5622 13.0517 12.6479 13.0201 12.7862 13.0155C12.846 13.0128 12.9061 13.0129 12.9651 13.0096C13.1035 13.005 13.222 13.0352 13.3523 13.0346C13.4823 13.0266 13.6085 12.9977 13.7467 12.9931C13.8072 12.9903 13.8667 12.9902 13.9263 12.9872C14.0178 12.9841 14.1598 12.9903 14.2573 13.0072L14.2237 12.9492C14.1285 12.9462 14.0112 12.9238 13.8965 12.9238Z" fill="url(#paint18_linear_358_10896)"/>
<path d="M9.98849 13.3889C9.85021 13.3889 9.73241 13.423 9.60241 13.4267C9.55401 13.4253 9.50773 13.4193 9.46101 13.4129L9.44141 13.4469C9.46085 13.4481 9.48041 13.4494 9.50093 13.4494C9.56101 13.4501 9.62053 13.4479 9.67989 13.4494C9.81817 13.4494 9.93517 13.4153 10.0652 13.4116C10.1954 13.4153 10.3135 13.4494 10.4519 13.4494C10.5119 13.4501 10.5716 13.4479 10.6308 13.4494C10.7691 13.4494 10.8873 13.4153 11.0175 13.4116C11.1477 13.4153 11.2667 13.4494 11.405 13.4494C11.4648 13.4501 11.5247 13.4479 11.5838 13.4494C11.722 13.4494 11.8398 13.4153 11.9698 13.4116C12.1 13.4153 12.2175 13.4494 12.3558 13.4494C12.4163 13.4501 12.4758 13.4479 12.5354 13.4494C12.6737 13.4494 12.7918 13.4153 12.9221 13.4116C13.0524 13.4153 13.1705 13.4494 13.3089 13.4494C13.3687 13.4501 13.4285 13.4479 13.4877 13.4494C13.6259 13.4494 13.7437 13.4153 13.8737 13.4116C14.0038 13.4153 14.1221 13.4494 14.2604 13.4494C14.3204 13.4501 14.3802 13.4479 14.4393 13.4494C14.4635 13.4494 14.4872 13.448 14.5104 13.4463L14.4919 13.4144C14.4494 13.4202 14.4066 13.4255 14.3625 13.4267C14.2324 13.423 14.1147 13.3889 13.9764 13.3889C13.916 13.3881 13.8566 13.3901 13.7968 13.3889C13.6585 13.3889 13.541 13.423 13.4109 13.4267C13.2806 13.423 13.1626 13.3889 13.0242 13.3889C12.9644 13.3881 12.9045 13.3901 12.8453 13.3889C12.707 13.3889 12.5888 13.423 12.4586 13.4267C12.3285 13.423 12.2103 13.3889 12.072 13.3889C12.0119 13.3881 11.9519 13.3901 11.8924 13.3889C11.7541 13.3889 11.6364 13.423 11.5064 13.4267C11.3763 13.423 11.2586 13.3889 11.1204 13.3889C11.0601 13.3881 11.0008 13.3901 10.9414 13.3889C10.803 13.3889 10.685 13.423 10.5548 13.4267C10.4246 13.423 10.3064 13.3889 10.1681 13.3889C10.108 13.3881 10.0478 13.3901 9.98849 13.3889Z" fill="url(#paint19_linear_358_10896)"/>
<path d="M9.98849 13.3361C9.85021 13.3361 9.73241 13.3703 9.60241 13.3739C9.55401 13.3726 9.50773 13.3666 9.46101 13.3601L9.44141 13.3941C9.46085 13.3954 9.48041 13.3967 9.50093 13.3967C9.56101 13.3974 9.62053 13.3952 9.67989 13.3967C9.81817 13.3967 9.93517 13.3626 10.0652 13.3589C10.1954 13.3625 10.3135 13.3967 10.4519 13.3967C10.5119 13.3974 10.5716 13.3952 10.6308 13.3967C10.7691 13.3967 10.8873 13.3625 11.0175 13.3589C11.1477 13.3625 11.2667 13.3967 11.405 13.3967C11.4648 13.3974 11.5247 13.3952 11.5838 13.3967C11.722 13.3967 11.8398 13.3625 11.9698 13.3589C12.1 13.3625 12.2175 13.3967 12.3558 13.3967C12.4163 13.3974 12.4758 13.3952 12.5354 13.3967C12.6737 13.3967 12.7918 13.3625 12.9221 13.3589C13.0524 13.3625 13.1705 13.3967 13.3089 13.3967C13.3687 13.3974 13.4285 13.3952 13.4877 13.3967C13.6259 13.3967 13.7437 13.3625 13.8737 13.3589C14.0038 13.3625 14.1221 13.3967 14.2604 13.3967C14.3204 13.3974 14.3802 13.3952 14.4393 13.3967C14.4635 13.3967 14.4872 13.3953 14.5104 13.3936L14.4919 13.3617C14.4494 13.3675 14.4066 13.3727 14.3625 13.3739C14.2324 13.3703 14.1147 13.3361 13.9764 13.3361C13.916 13.3353 13.8566 13.3373 13.7968 13.3361C13.6585 13.3361 13.541 13.3703 13.4109 13.3739C13.2806 13.3703 13.1626 13.3361 13.0242 13.3361C12.9644 13.3353 12.9045 13.3373 12.8453 13.3361C12.707 13.3361 12.5888 13.3703 12.4586 13.3739C12.3285 13.3703 12.2103 13.3361 12.072 13.3361C12.0119 13.3353 11.9519 13.3373 11.8924 13.3361C11.7541 13.3361 11.6364 13.3703 11.5064 13.3739C11.3763 13.3703 11.2586 13.3361 11.1204 13.3361C11.0601 13.3353 11.0008 13.3373 10.9414 13.3361C10.803 13.3361 10.685 13.3703 10.5548 13.3739C10.4246 13.3703 10.3064 13.3361 10.1681 13.3361C10.108 13.3353 10.0478 13.3373 9.98849 13.3361Z" fill="url(#paint20_linear_358_10896)"/>
<path d="M9.98849 13.2854C9.85021 13.2854 9.73241 13.3195 9.60241 13.3232C9.55401 13.3218 9.50773 13.3158 9.46101 13.3094L9.44141 13.3434C9.46085 13.3446 9.48041 13.3459 9.50093 13.3459C9.56101 13.3466 9.62053 13.3444 9.67989 13.3459C9.81817 13.3459 9.93517 13.3118 10.0652 13.3081C10.1954 13.3118 10.3135 13.3459 10.4519 13.3459C10.5119 13.3466 10.5716 13.3444 10.6308 13.3459C10.7691 13.3459 10.8873 13.3118 11.0175 13.3081C11.1477 13.3118 11.2667 13.3459 11.405 13.3459C11.4648 13.3466 11.5247 13.3444 11.5838 13.3459C11.722 13.3459 11.8398 13.3118 11.9698 13.3081C12.1 13.3118 12.2175 13.3459 12.3558 13.3459C12.4163 13.3466 12.4758 13.3444 12.5354 13.3459C12.6737 13.3459 12.7918 13.3118 12.9221 13.3081C13.0524 13.3118 13.1705 13.3459 13.3089 13.3459C13.3687 13.3466 13.4285 13.3444 13.4877 13.3459C13.6259 13.3459 13.7437 13.3118 13.8737 13.3081C14.0038 13.3118 14.1221 13.3459 14.2604 13.3459C14.3204 13.3466 14.3802 13.3444 14.4393 13.3459C14.4635 13.3459 14.4872 13.3445 14.5104 13.3428L14.4919 13.3109C14.4494 13.3167 14.4066 13.322 14.3625 13.3232C14.2324 13.3195 14.1147 13.2854 13.9764 13.2854C13.916 13.2846 13.8566 13.2866 13.7968 13.2854C13.6585 13.2854 13.541 13.3195 13.4109 13.3232C13.2806 13.3195 13.1626 13.2854 13.0242 13.2854C12.9644 13.2846 12.9045 13.2866 12.8453 13.2854C12.707 13.2854 12.5888 13.3195 12.4586 13.3232C12.3285 13.3195 12.2103 13.2854 12.072 13.2854C12.0119 13.2846 11.9519 13.2866 11.8924 13.2854C11.7541 13.2854 11.6364 13.3195 11.5064 13.3232C11.3763 13.3195 11.2586 13.2854 11.1204 13.2854C11.0601 13.2846 11.0008 13.2866 10.9414 13.2854C10.803 13.2854 10.685 13.3195 10.5548 13.3232C10.4246 13.3195 10.3064 13.2854 10.1681 13.2854C10.108 13.2846 10.0478 13.2866 9.98849 13.2854Z" fill="url(#paint21_linear_358_10896)"/>
<path d="M9.98849 13.2346C9.85021 13.2346 9.73241 13.2687 9.60241 13.2724C9.55401 13.2711 9.50773 13.2651 9.46101 13.2586L9.44141 13.2926C9.46085 13.2939 9.48041 13.2951 9.50093 13.2951C9.56101 13.2958 9.62053 13.2936 9.67989 13.2951C9.81817 13.2951 9.93517 13.261 10.0652 13.2573C10.1954 13.261 10.3135 13.2951 10.4519 13.2951C10.5119 13.2958 10.5716 13.2936 10.6308 13.2951C10.7691 13.2951 10.8873 13.261 11.0175 13.2573C11.1477 13.261 11.2667 13.2951 11.405 13.2951C11.4648 13.2958 11.5247 13.2936 11.5838 13.2951C11.722 13.2951 11.8398 13.261 11.9698 13.2573C12.1 13.261 12.2175 13.2951 12.3558 13.2951C12.4163 13.2958 12.4758 13.2936 12.5354 13.2951C12.6737 13.2951 12.7918 13.261 12.9221 13.2573C13.0524 13.261 13.1705 13.2951 13.3089 13.2951C13.3687 13.2958 13.4285 13.2936 13.4877 13.2951C13.6259 13.2951 13.7437 13.261 13.8737 13.2573C14.0038 13.261 14.1221 13.2951 14.2604 13.2951C14.3204 13.2958 14.3802 13.2936 14.4393 13.2951C14.4635 13.2951 14.4872 13.2937 14.5104 13.292L14.4919 13.2601C14.4494 13.2659 14.4066 13.2712 14.3625 13.2724C14.2324 13.2687 14.1147 13.2346 13.9764 13.2346C13.916 13.2338 13.8566 13.2358 13.7968 13.2346C13.6585 13.2346 13.541 13.2687 13.4109 13.2724C13.2806 13.2687 13.1626 13.2346 13.0242 13.2346C12.9644 13.2338 12.9045 13.2358 12.8453 13.2346C12.707 13.2346 12.5888 13.2687 12.4586 13.2724C12.3285 13.2687 12.2103 13.2346 12.072 13.2346C12.0119 13.2338 11.9519 13.2358 11.8924 13.2346C11.7541 13.2346 11.6364 13.2687 11.5064 13.2724C11.3763 13.2687 11.2586 13.2346 11.1204 13.2346C11.0601 13.2338 11.0008 13.2358 10.9414 13.2346C10.803 13.2346 10.685 13.2687 10.5548 13.2724C10.4246 13.2687 10.3064 13.2346 10.1681 13.2346C10.108 13.2338 10.0478 13.2358 9.98849 13.2346Z" fill="url(#paint22_linear_358_10896)"/>
<path d="M9.98849 13.1818C9.85021 13.1818 9.73241 13.216 9.60241 13.2196C9.55401 13.2183 9.50773 13.2123 9.46101 13.2058L9.44141 13.2398C9.46085 13.2411 9.48041 13.2424 9.50093 13.2424C9.56101 13.2431 9.62053 13.2409 9.67989 13.2424C9.81817 13.2424 9.93517 13.2083 10.0652 13.2046C10.1954 13.2082 10.3135 13.2424 10.4519 13.2424C10.5119 13.2431 10.5716 13.2409 10.6308 13.2424C10.7691 13.2424 10.8873 13.2082 11.0175 13.2046C11.1477 13.2082 11.2667 13.2424 11.405 13.2424C11.4648 13.2431 11.5247 13.2409 11.5838 13.2424C11.722 13.2424 11.8398 13.2082 11.9698 13.2046C12.1 13.2082 12.2175 13.2424 12.3558 13.2424C12.4163 13.2431 12.4758 13.2409 12.5354 13.2424C12.6737 13.2424 12.7918 13.2082 12.9221 13.2046C13.0524 13.2082 13.1705 13.2424 13.3089 13.2424C13.3687 13.2431 13.4285 13.2409 13.4877 13.2424C13.6259 13.2424 13.7437 13.2082 13.8737 13.2046C14.0038 13.2082 14.1221 13.2424 14.2604 13.2424C14.3204 13.2431 14.3802 13.2409 14.4393 13.2424C14.4635 13.2424 14.4872 13.241 14.5104 13.2393L14.4919 13.2074C14.4494 13.2132 14.4066 13.2184 14.3625 13.2196C14.2324 13.216 14.1147 13.1818 13.9764 13.1818C13.916 13.181 13.8566 13.183 13.7968 13.1818C13.6585 13.1818 13.541 13.216 13.4109 13.2196C13.2806 13.216 13.1626 13.1818 13.0242 13.1818C12.9644 13.181 12.9045 13.183 12.8453 13.1818C12.707 13.1818 12.5888 13.216 12.4586 13.2196C12.3285 13.216 12.2103 13.1818 12.072 13.1818C12.0119 13.181 11.9519 13.183 11.8924 13.1818C11.7541 13.1818 11.6364 13.216 11.5064 13.2196C11.3763 13.216 11.2586 13.1818 11.1204 13.1818C11.0601 13.181 11.0008 13.183 10.9414 13.1818C10.803 13.1818 10.685 13.216 10.5548 13.2196C10.4246 13.216 10.3064 13.1818 10.1681 13.1818C10.108 13.181 10.0478 13.183 9.98849 13.1818Z" fill="url(#paint23_linear_358_10896)"/>
<path d="M9.98849 13.1311C9.85021 13.1311 9.73241 13.1652 9.60241 13.1689C9.55401 13.1675 9.50773 13.1615 9.46101 13.1551L9.44141 13.1891C9.46085 13.1903 9.48041 13.1916 9.50093 13.1916C9.56101 13.1923 9.62053 13.1901 9.67989 13.1916C9.81817 13.1916 9.93517 13.1575 10.0652 13.1538C10.1954 13.1575 10.3135 13.1916 10.4519 13.1916C10.5119 13.1923 10.5716 13.1901 10.6308 13.1916C10.7691 13.1916 10.8873 13.1575 11.0175 13.1538C11.1477 13.1575 11.2667 13.1916 11.405 13.1916C11.4648 13.1923 11.5247 13.1901 11.5838 13.1916C11.722 13.1916 11.8398 13.1575 11.9698 13.1538C12.1 13.1575 12.2175 13.1916 12.3558 13.1916C12.4163 13.1923 12.4758 13.1901 12.5354 13.1916C12.6737 13.1916 12.7918 13.1575 12.9221 13.1538C13.0524 13.1575 13.1705 13.1916 13.3089 13.1916C13.3687 13.1923 13.4285 13.1901 13.4877 13.1916C13.6259 13.1916 13.7437 13.1575 13.8737 13.1538C14.0038 13.1575 14.1221 13.1916 14.2604 13.1916C14.3204 13.1923 14.3802 13.1901 14.4393 13.1916C14.4635 13.1916 14.4872 13.1902 14.5104 13.1885L14.4919 13.1566C14.4494 13.1624 14.4066 13.1677 14.3625 13.1689C14.2324 13.1652 14.1147 13.1311 13.9764 13.1311C13.916 13.1303 13.8566 13.1323 13.7968 13.1311C13.6585 13.1311 13.541 13.1652 13.4109 13.1689C13.2806 13.1652 13.1626 13.1311 13.0242 13.1311C12.9644 13.1303 12.9045 13.1323 12.8453 13.1311C12.707 13.1311 12.5888 13.1652 12.4586 13.1689C12.3285 13.1652 12.2103 13.1311 12.072 13.1311C12.0119 13.1303 11.9519 13.1323 11.8924 13.1311C11.7541 13.1311 11.6364 13.1652 11.5064 13.1689C11.3763 13.1652 11.2586 13.1311 11.1204 13.1311C11.0601 13.1303 11.0008 13.1323 10.9414 13.1311C10.803 13.1311 10.685 13.1652 10.5548 13.1689C10.4246 13.1652 10.3064 13.1311 10.1681 13.1311C10.108 13.1303 10.0478 13.1323 9.98849 13.1311Z" fill="url(#paint24_linear_358_10896)"/>
<path d="M9.98849 13.0803C9.85021 13.0803 9.73241 13.1144 9.60241 13.1181C9.55401 13.1168 9.50773 13.1108 9.46101 13.1043L9.44141 13.1383C9.46085 13.1396 9.48041 13.1408 9.50093 13.1408C9.56101 13.1415 9.62053 13.1394 9.67989 13.1408C9.81817 13.1408 9.93517 13.1067 10.0652 13.103C10.1954 13.1067 10.3135 13.1408 10.4519 13.1408C10.5119 13.1416 10.5716 13.1394 10.6308 13.1408C10.7691 13.1408 10.8873 13.1067 11.0175 13.103C11.1477 13.1067 11.2667 13.1408 11.405 13.1408C11.4648 13.1415 11.5247 13.1394 11.5838 13.1408C11.722 13.1408 11.8398 13.1067 11.9698 13.103C12.1 13.1067 12.2175 13.1408 12.3558 13.1408C12.4163 13.1416 12.4758 13.1394 12.5354 13.1408C12.6737 13.1408 12.7918 13.1067 12.9221 13.103C13.0524 13.1067 13.1705 13.1408 13.3089 13.1408C13.3687 13.1415 13.4285 13.1394 13.4877 13.1408C13.6259 13.1408 13.7437 13.1067 13.8737 13.103C14.0038 13.1067 14.1221 13.1408 14.2604 13.1408C14.3204 13.1415 14.3802 13.1394 14.4393 13.1408C14.4635 13.1408 14.4872 13.1394 14.5104 13.1377L14.4919 13.1058C14.4494 13.1116 14.4066 13.1169 14.3625 13.1181C14.2324 13.1144 14.1147 13.0803 13.9764 13.0803C13.916 13.0795 13.8566 13.0815 13.7968 13.0803C13.6585 13.0803 13.541 13.1144 13.4109 13.1181C13.2806 13.1144 13.1626 13.0803 13.0242 13.0803C12.9644 13.0795 12.9045 13.0815 12.8453 13.0803C12.707 13.0803 12.5888 13.1144 12.4586 13.1181C12.3285 13.1144 12.2103 13.0803 12.072 13.0803C12.0119 13.0795 11.9519 13.0815 11.8924 13.0803C11.7541 13.0803 11.6364 13.1144 11.5064 13.1181C11.3763 13.1144 11.2586 13.0803 11.1204 13.0803C11.0601 13.0795 11.0008 13.0815 10.9414 13.0803C10.803 13.0803 10.685 13.1144 10.5548 13.1181C10.4246 13.1144 10.3064 13.0803 10.1681 13.0803C10.108 13.0795 10.0478 13.0815 9.98849 13.0803Z" fill="url(#paint25_linear_358_10896)"/>
<path d="M9.98849 13.0275C9.85021 13.0275 9.73241 13.0617 9.60241 13.0653C9.55401 13.064 9.50773 13.058 9.46101 13.0515L9.44141 13.0855C9.46085 13.0868 9.48041 13.0881 9.50093 13.0881C9.56101 13.0888 9.62053 13.0866 9.67989 13.0881C9.81817 13.0881 9.93517 13.054 10.0652 13.0503C10.1954 13.0539 10.3135 13.0881 10.4519 13.0881C10.5119 13.0888 10.5716 13.0866 10.6308 13.0881C10.7691 13.0881 10.8873 13.0539 11.0175 13.0503C11.1477 13.0539 11.2667 13.0881 11.405 13.0881C11.4648 13.0888 11.5247 13.0866 11.5838 13.0881C11.722 13.0881 11.8398 13.0539 11.9698 13.0503C12.1 13.0539 12.2175 13.0881 12.3558 13.0881C12.4163 13.0888 12.4758 13.0866 12.5354 13.0881C12.6737 13.0881 12.7918 13.0539 12.9221 13.0503C13.0524 13.0539 13.1705 13.0881 13.3089 13.0881C13.3687 13.0888 13.4285 13.0866 13.4877 13.0881C13.6259 13.0881 13.7437 13.0539 13.8737 13.0503C14.0038 13.0539 14.1221 13.0881 14.2604 13.0881C14.3204 13.0888 14.3802 13.0866 14.4393 13.0881C14.4635 13.0881 14.4872 13.0867 14.5104 13.085L14.4919 13.0531C14.4494 13.0589 14.4066 13.0641 14.3625 13.0653C14.2324 13.0617 14.1147 13.0275 13.9764 13.0275C13.916 13.0267 13.8566 13.0287 13.7968 13.0275C13.6585 13.0275 13.541 13.0617 13.4109 13.0653C13.2806 13.0617 13.1626 13.0275 13.0242 13.0275C12.9644 13.0267 12.9045 13.0287 12.8453 13.0275C12.707 13.0275 12.5888 13.0617 12.4586 13.0653C12.3285 13.0617 12.2103 13.0275 12.072 13.0275C12.0119 13.0267 11.9519 13.0287 11.8924 13.0275C11.7541 13.0275 11.6364 13.0617 11.5064 13.0653C11.3763 13.0617 11.2586 13.0275 11.1204 13.0275C11.0601 13.0267 11.0008 13.0287 10.9414 13.0275C10.803 13.0275 10.685 13.0617 10.5548 13.0653C10.4246 13.0617 10.3064 13.0275 10.1681 13.0275C10.108 13.0267 10.0478 13.0287 9.98849 13.0275Z" fill="url(#paint26_linear_358_10896)"/>
<path d="M9.98849 12.9768C9.85021 12.9768 9.73241 13.0109 9.60241 13.0146C9.55401 13.0132 9.50773 13.0072 9.46101 13.0008L9.44141 13.0348C9.46085 13.036 9.48041 13.0373 9.50093 13.0373C9.56101 13.038 9.62053 13.0358 9.67989 13.0373C9.81817 13.0373 9.93517 13.0032 10.0652 12.9995C10.1954 13.0032 10.3135 13.0373 10.4519 13.0373C10.5119 13.038 10.5716 13.0358 10.6308 13.0373C10.7691 13.0373 10.8873 13.0032 11.0175 12.9995C11.1477 13.0032 11.2667 13.0373 11.405 13.0373C11.4648 13.038 11.5247 13.0358 11.5838 13.0373C11.722 13.0373 11.8398 13.0032 11.9698 12.9995C12.1 13.0032 12.2175 13.0373 12.3558 13.0373C12.4163 13.038 12.4758 13.0358 12.5354 13.0373C12.6737 13.0373 12.7918 13.0032 12.9221 12.9995C13.0524 13.0032 13.1705 13.0373 13.3089 13.0373C13.3687 13.038 13.4285 13.0358 13.4877 13.0373C13.6259 13.0373 13.7437 13.0032 13.8737 12.9995C14.0038 13.0032 14.1221 13.0373 14.2604 13.0373C14.3204 13.038 14.3802 13.0358 14.4393 13.0373C14.4635 13.0373 14.4872 13.0359 14.5104 13.0342L14.4919 13.0023C14.4494 13.0081 14.4066 13.0134 14.3625 13.0146C14.2324 13.0109 14.1147 12.9768 13.9764 12.9768C13.916 12.976 13.8566 12.978 13.7968 12.9768C13.6585 12.9768 13.541 13.0109 13.4109 13.0146C13.2806 13.0109 13.1626 12.9768 13.0242 12.9768C12.9644 12.976 12.9045 12.978 12.8453 12.9768C12.707 12.9768 12.5888 13.0109 12.4586 13.0146C12.3285 13.0109 12.2103 12.9768 12.072 12.9768C12.0119 12.976 11.9519 12.978 11.8924 12.9768C11.7541 12.9768 11.6364 13.0109 11.5064 13.0146C11.3763 13.0109 11.2586 12.9768 11.1204 12.9768C11.0601 12.976 11.0008 12.978 10.9414 12.9768C10.803 12.9768 10.685 13.0109 10.5548 13.0146C10.4246 13.0109 10.3064 12.9768 10.1681 12.9768C10.108 12.976 10.0478 12.978 9.98849 12.9768Z" fill="url(#paint27_linear_358_10896)"/>
<path d="M9.72989 12.9868L9.63281 13.1544C9.74637 13.1356 9.91689 13.0863 10.0582 13.0862C10.2047 13.086 10.3815 13.1223 10.5557 13.1228C10.7583 13.1234 10.8347 13.0796 10.9982 13.0634C11.1617 13.0471 11.3181 13.0845 11.4745 13.0852C11.6003 13.0849 11.7919 13.0416 11.9534 13.0247C12.1149 13.0078 12.2629 13.0364 12.4575 13.0395C12.6521 13.0425 12.6827 12.9923 12.9205 12.9871C13.1752 12.9814 13.1984 13.0222 13.4239 13.0222C13.5936 13.0313 13.7392 12.988 13.8905 12.9773C14.0419 12.9666 14.1121 12.979 14.2227 12.9817L14.1492 12.8516C14.148 12.8516 14.1468 12.8517 14.1455 12.8517L10.0957 12.9408L9.72989 12.9868Z" fill="#97C924"/>
<path d="M13.9805 12.9857C13.9805 12.9857 14.0889 12.9916 14.1343 12.9967C14.1737 13.0008 14.2131 13.0041 14.2525 13.0069L14.2377 12.9875C14.2148 12.9956 14.0609 12.9799 13.9805 12.9857Z" fill="white"/>
</g>
<path d="M11.975 8.99414L10.6893 11.2216L9.375 13.4975L11.9469 13.4973L14.575 13.4975L13.2889 11.2702L11.975 8.99414ZM11.975 9.11422L13.237 11.3003L14.471 13.4374L11.9469 13.4373L9.47888 13.4374L10.7413 11.2516L11.975 9.11422Z" fill="#C8A400"/>
</g>
<defs>
<linearGradient id="paint0_linear_358_10896" x1="11.9289" y1="11.5621" x2="12.0045" y2="11.3367" gradientUnits="userSpaceOnUse">
<stop stop-color="#510000"/>
<stop offset="0.3" stop-color="#8A0000"/>
<stop offset="1" stop-color="#AA0000"/>
</linearGradient>
<linearGradient id="paint1_linear_358_10896" x1="12.0374" y1="11.6533" x2="12.0967" y2="11.4963" gradientUnits="userSpaceOnUse">
<stop stop-color="#FF2A2A"/>
<stop offset="1" stop-color="#FF0000"/>
</linearGradient>
<linearGradient id="paint2_linear_358_10896" x1="9.75757" y1="12.6983" x2="17.3536" y2="12.6983" gradientUnits="userSpaceOnUse">
<stop stop-color="#002255"/>
<stop offset="0.5" stop-color="#0044AA"/>
<stop offset="1" stop-color="#002255"/>
</linearGradient>
<linearGradient id="paint3_linear_358_10896" x1="9.75781" y1="12.6986" x2="17.3539" y2="12.6986" gradientUnits="userSpaceOnUse">
<stop stop-color="#002255"/>
<stop offset="0.5" stop-color="#0044AA"/>
<stop offset="1" stop-color="#002255"/>
</linearGradient>
<linearGradient id="paint4_linear_358_10896" x1="9.75781" y1="12.6537" x2="17.3539" y2="12.6537" gradientUnits="userSpaceOnUse">
<stop stop-color="#002255"/>
<stop offset="0.5" stop-color="#0044AA"/>
<stop offset="1" stop-color="#002255"/>
</linearGradient>
<linearGradient id="paint5_linear_358_10896" x1="9.75781" y1="12.6088" x2="17.3539" y2="12.6088" gradientUnits="userSpaceOnUse">
<stop stop-color="#002255"/>
<stop offset="0.5" stop-color="#0044AA"/>
<stop offset="1" stop-color="#002255"/>
</linearGradient>
<linearGradient id="paint6_linear_358_10896" x1="9.75781" y1="12.5638" x2="17.3539" y2="12.5638" gradientUnits="userSpaceOnUse">
<stop stop-color="#002255"/>
<stop offset="0.5" stop-color="#0044AA"/>
<stop offset="1" stop-color="#002255"/>
</linearGradient>
<linearGradient id="paint7_linear_358_10896" x1="9.75781" y1="12.5189" x2="17.3539" y2="12.5189" gradientUnits="userSpaceOnUse">
<stop stop-color="#002255"/>
<stop offset="0.5" stop-color="#0044AA"/>
<stop offset="1" stop-color="#002255"/>
</linearGradient>
<linearGradient id="paint8_linear_358_10896" x1="9.75781" y1="12.474" x2="17.3539" y2="12.474" gradientUnits="userSpaceOnUse">
<stop stop-color="#002255"/>
<stop offset="0.5" stop-color="#0044AA"/>
<stop offset="1" stop-color="#002255"/>
</linearGradient>
<linearGradient id="paint9_linear_358_10896" x1="9.75781" y1="12.431" x2="17.3539" y2="12.431" gradientUnits="userSpaceOnUse">
<stop stop-color="#002255"/>
<stop offset="0.5" stop-color="#0044AA"/>
<stop offset="1" stop-color="#002255"/>
</linearGradient>
<linearGradient id="paint10_linear_358_10896" x1="9.75781" y1="12.3861" x2="17.3539" y2="12.3861" gradientUnits="userSpaceOnUse">
<stop stop-color="#002255"/>
<stop offset="0.5" stop-color="#0044AA"/>
<stop offset="1" stop-color="#002255"/>
</linearGradient>
<linearGradient id="paint11_linear_358_10896" x1="9.75781" y1="12.3412" x2="17.3539" y2="12.3412" gradientUnits="userSpaceOnUse">
<stop stop-color="#002255"/>
<stop offset="0.5" stop-color="#0044AA"/>
<stop offset="1" stop-color="#002255"/>
</linearGradient>
<linearGradient id="paint12_linear_358_10896" x1="9.75784" y1="12.698" x2="17.3539" y2="12.698" gradientUnits="userSpaceOnUse">
<stop stop-color="#002255"/>
<stop offset="0.5" stop-color="#0044AA"/>
<stop offset="1" stop-color="#002255"/>
</linearGradient>
<linearGradient id="paint13_linear_358_10896" x1="11.3646" y1="12.4675" x2="11.3646" y2="12.705" gradientUnits="userSpaceOnUse">
<stop stop-color="#F5F549"/>
<stop offset="1" stop-color="#97C924"/>
</linearGradient>
<linearGradient id="paint14_linear_358_10896" x1="10.7513" y1="12.4675" x2="10.7513" y2="12.705" gradientUnits="userSpaceOnUse">
<stop stop-color="#F5F549"/>
<stop offset="1" stop-color="#97C924"/>
</linearGradient>
<linearGradient id="paint15_linear_358_10896" x1="11.3644" y1="12.4674" x2="11.3644" y2="12.7049" gradientUnits="userSpaceOnUse">
<stop stop-color="#F5F549"/>
<stop offset="1" stop-color="#97C924"/>
</linearGradient>
<linearGradient id="paint16_linear_358_10896" x1="11.3647" y1="12.4675" x2="11.3647" y2="12.705" gradientUnits="userSpaceOnUse">
<stop stop-color="#F5F549"/>
<stop offset="1" stop-color="#97C924"/>
</linearGradient>
<linearGradient id="paint17_linear_358_10896" x1="10.7475" y1="12.4675" x2="10.7475" y2="12.705" gradientUnits="userSpaceOnUse">
<stop stop-color="#F5F549"/>
<stop offset="1" stop-color="#97C924"/>
</linearGradient>
<linearGradient id="paint18_linear_358_10896" x1="9.60937" y1="12.9238" x2="14.2573" y2="12.9238" gradientUnits="userSpaceOnUse">
<stop stop-color="#002255"/>
<stop offset="0.5" stop-color="#0044AA"/>
<stop offset="1" stop-color="#002255"/>
</linearGradient>
<linearGradient id="paint19_linear_358_10896" x1="9.44141" y1="13.3887" x2="14.5104" y2="13.3887" gradientUnits="userSpaceOnUse">
<stop stop-color="#002255"/>
<stop offset="0.5" stop-color="#0044AA"/>
<stop offset="1" stop-color="#002255"/>
</linearGradient>
<linearGradient id="paint20_linear_358_10896" x1="9.44141" y1="13.3359" x2="14.5104" y2="13.3359" gradientUnits="userSpaceOnUse">
<stop stop-color="#002255"/>
<stop offset="0.5" stop-color="#0044AA"/>
<stop offset="1" stop-color="#002255"/>
</linearGradient>
<linearGradient id="paint21_linear_358_10896" x1="9.44141" y1="13.2852" x2="14.5104" y2="13.2852" gradientUnits="userSpaceOnUse">
<stop stop-color="#002255"/>
<stop offset="0.5" stop-color="#0044AA"/>
<stop offset="1" stop-color="#002255"/>
</linearGradient>
<linearGradient id="paint22_linear_358_10896" x1="9.44141" y1="13.2344" x2="14.5104" y2="13.2344" gradientUnits="userSpaceOnUse">
<stop stop-color="#002255"/>
<stop offset="0.5" stop-color="#0044AA"/>
<stop offset="1" stop-color="#002255"/>
</linearGradient>
<linearGradient id="paint23_linear_358_10896" x1="9.44141" y1="13.1816" x2="14.5104" y2="13.1816" gradientUnits="userSpaceOnUse">
<stop stop-color="#002255"/>
<stop offset="0.5" stop-color="#0044AA"/>
<stop offset="1" stop-color="#002255"/>
</linearGradient>
<linearGradient id="paint24_linear_358_10896" x1="9.44141" y1="13.1309" x2="14.5104" y2="13.1309" gradientUnits="userSpaceOnUse">
<stop stop-color="#002255"/>
<stop offset="0.5" stop-color="#0044AA"/>
<stop offset="1" stop-color="#002255"/>
</linearGradient>
<linearGradient id="paint25_linear_358_10896" x1="9.44141" y1="13.0801" x2="14.5104" y2="13.0801" gradientUnits="userSpaceOnUse">
<stop stop-color="#002255"/>
<stop offset="0.5" stop-color="#0044AA"/>
<stop offset="1" stop-color="#002255"/>
</linearGradient>
<linearGradient id="paint26_linear_358_10896" x1="9.44141" y1="13.0273" x2="14.5104" y2="13.0273" gradientUnits="userSpaceOnUse">
<stop stop-color="#002255"/>
<stop offset="0.5" stop-color="#0044AA"/>
<stop offset="1" stop-color="#002255"/>
</linearGradient>
<linearGradient id="paint27_linear_358_10896" x1="9.44141" y1="12.9766" x2="14.5104" y2="12.9766" gradientUnits="userSpaceOnUse">
<stop stop-color="#002255"/>
<stop offset="0.5" stop-color="#0044AA"/>
<stop offset="1" stop-color="#002255"/>
</linearGradient>
<clipPath id="clip0_358_10896">
<rect width="24" height="24" rx="12" fill="white"/>
</clipPath>
</defs>
</svg>
