<svg width="26" height="26" viewBox="0 0 26 26" fill="none" xmlns="http://www.w3.org/2000/svg">
<path d="M4.91016 12.6181H21.4152L4.91016 2.2832V24.2899H21.4152L4.91016 7.78489V12.6181Z" fill="#DC143C" stroke="#003893" stroke-width="2.36802"/>
<path d="M4.91016 12.6181H21.4152L4.91016 2.2832V24.2899H21.4152L4.91016 7.78489V12.6181Z" fill="#DC143C"/>
<path d="M9.03599 12.0288C10.8515 12.0288 12.3232 10.5571 12.3232 8.74157C12.0374 9.46896 11.5177 10.0806 10.846 10.4801L10.5655 10.271L11.1156 9.85842L10.4499 9.68786L10.802 9.09093L10.1143 9.18996L10.2161 8.50775L9.61917 8.86536L9.44861 8.19141L9.03599 8.74157L8.62336 8.19141L8.45006 8.86261L7.85588 8.5105L7.95766 9.19821L7.26995 9.09643L7.62756 9.69337L6.95635 9.86392L7.50652 10.2765L7.23144 10.4884C6.57949 10.1032 6.04857 9.50906 5.75148 8.74983C5.75148 10.5654 7.22318 12.0371 9.03874 12.0371L9.03599 12.0288ZM7.4515 16.8703L5.97705 16.6888L6.87107 17.8716L5.50391 18.4548L6.87107 19.0325L5.97705 20.2153L7.4515 20.0338L7.26995 21.511L8.45281 20.617L9.03599 21.9869L9.61366 20.617L10.802 21.5137L10.6205 20.0393L12.0949 20.2236L11.2009 19.0407L12.5681 18.4631L11.2009 17.8799L12.0949 16.697L10.6205 16.8758L10.802 15.4014L9.61917 16.2954L9.03599 14.9227L8.45831 16.2899L7.26995 15.3959L7.4515 16.8703Z" fill="white"/>
</svg>
