<svg width="24" height="24" viewBox="0 0 24 24" fill="none" xmlns="http://www.w3.org/2000/svg">
<g clip-path="url(#clip0_358_13655)">
<path d="M30 0H-6V24.0001H30V0Z" fill="#002B7F"/>
<path d="M29.9999 11H-6V13H29.9999V11Z" fill="#FFC61E"/>
<path d="M11.6667 21L10.804 18.9319L8.33335 20.4641L9.30966 18.4142L5.89316 19L8.44693 17.5177L5 17L8.44693 16.4824L5.89316 15L9.30966 15.5858L8.33335 13.5359L10.804 15.0682L11.6667 13L12.5294 15.0682L15 13.5359L14.0237 15.5858L17.4402 15L14.8865 16.4824L18.3334 17L14.8865 17.5177L17.4402 19L14.0237 18.4142L15 20.4641L12.5294 18.9319L11.6667 21Z" fill="white"/>
</g>
<defs>
<clipPath id="clip0_358_13655">
<rect width="24" height="24" rx="12" fill="white"/>
</clipPath>
</defs>
</svg>
