<svg width="24" height="24" viewBox="0 0 24 24" fill="none" xmlns="http://www.w3.org/2000/svg">
<rect width="24" height="24" rx="12" fill="#012169"/>
<path d="M24 4H0V20H24V4Z" fill="#012169"/>
<mask id="mask0_358_13659" style="mask-type:luminance" maskUnits="userSpaceOnUse" x="0" y="4" width="12" height="8">
<path d="M0 4H12V12H0V4Z" fill="white"/>
</mask>
<g mask="url(#mask0_358_13659)">
<path d="M0 4L12 12L0 4ZM0 12L12 4L0 12Z" fill="black"/>
<path d="M0 4L12 12M0 12L12 4" stroke="white" stroke-width="2.3094"/>
</g>
<mask id="mask1_358_13659" style="mask-type:luminance" maskUnits="userSpaceOnUse" x="0" y="4" width="12" height="8">
<path d="M0 4L6 8H0V4ZM6 4H12L6 8V4ZM6 8H12V12L6 8ZM6 8V12H0L6 8Z" fill="white"/>
</mask>
<g mask="url(#mask1_358_13659)">
<path d="M0 4L12 12L0 4ZM0 12L12 4L0 12Z" fill="black"/>
<path d="M0 4L12 12M0 12L12 4" stroke="#C8102E" stroke-width="1.5396"/>
</g>
<mask id="mask2_358_13659" style="mask-type:luminance" maskUnits="userSpaceOnUse" x="0" y="4" width="12" height="8">
<path d="M0 4H12V12H0V4Z" fill="white"/>
</mask>
<g mask="url(#mask2_358_13659)">
<path d="M6 4V12V4ZM0 8H12H0Z" fill="black"/>
<path d="M6 4V12M0 8H12" stroke="white" stroke-width="3.849"/>
</g>
<mask id="mask3_358_13659" style="mask-type:luminance" maskUnits="userSpaceOnUse" x="0" y="4" width="12" height="8">
<path d="M0 4H12V12H0V4Z" fill="white"/>
</mask>
<g mask="url(#mask3_358_13659)">
<path d="M6 4V12V4ZM0 8H12H0Z" fill="black"/>
<path d="M6 4V12M0 8H12" stroke="#C8102E" stroke-width="2.3094"/>
</g>
<path d="M18.373 6.95703V7.56236L19.5837 6.95703H18.373Z" fill="white"/>
<path d="M18.6039 7.66746L18.248 7.17773L19.5833 6.95585L18.6039 7.66746Z" fill="white"/>
<path d="M18.3691 6.95703V7.56236L17.1585 6.95703H18.3691Z" fill="white"/>
<path d="M18.1383 7.66746L18.4941 7.17773L17.1589 6.95585L18.1383 7.66746Z" fill="white"/>
<path d="M18.7324 7.23047L18.1567 7.41753L19.1065 8.38188L18.7324 7.23047Z" fill="white"/>
<path d="M18.1305 7.67137L18.4863 7.18164L19.11 8.38298L18.1305 7.67137Z" fill="white"/>
<path d="M17.9941 7.23047L18.5698 7.41753L18.3683 6.07906L17.9941 7.23047Z" fill="white"/>
<path d="M18.7417 7.23091L18.166 7.41797L18.3676 6.0795L18.7417 7.23091Z" fill="white"/>
<path d="M17.998 7.23047L18.5738 7.41753L17.6239 8.38188L17.998 7.23047Z" fill="white"/>
<path d="M18.6039 7.67137L18.248 7.18164L17.6244 8.38298L18.6039 7.67137Z" fill="white"/>
<path d="M18.373 7.0918V7.4918L19.173 7.0918H18.373Z" fill="#C8102E"/>
<path d="M18.5261 7.56189L18.291 7.23828L19.1733 7.09166L18.5261 7.56189Z" fill="#C8102E"/>
<path d="M18.373 7.0918V7.4918L17.573 7.0918H18.373Z" fill="#C8102E"/>
<path d="M18.22 7.56189L18.4551 7.23828L17.5728 7.09166L18.22 7.56189Z" fill="#C8102E"/>
<path d="M18.627 7.26953L18.2465 7.39314L18.8742 8.03038L18.627 7.26953Z" fill="#C8102E"/>
<path d="M18.2278 7.55993L18.4629 7.23633L18.875 8.03016L18.2278 7.55993Z" fill="#C8102E"/>
<path d="M18.127 7.26953L18.5074 7.39314L18.3742 6.50869L18.127 7.26953Z" fill="#C8102E"/>
<path d="M18.6207 7.26897L18.2402 7.39258L18.3734 6.50813L18.6207 7.26897Z" fill="#C8102E"/>
<path d="M18.127 7.26953L18.5074 7.39314L17.8797 8.03038L18.127 7.26953Z" fill="#C8102E"/>
<path d="M18.5261 7.55993L18.291 7.23633L17.8789 8.03016L18.5261 7.55993Z" fill="#C8102E"/>
<path d="M21.5342 9.75684L21.5342 10.2955L22.6115 9.75684L21.5342 9.75684Z" fill="white"/>
<path d="M21.7414 10.3899L21.4248 9.9541L22.613 9.75665L21.7414 10.3899Z" fill="white"/>
<path d="M21.5381 9.75684L21.5381 10.2955L20.4608 9.75684L21.5381 9.75684Z" fill="white"/>
<path d="M21.3308 10.3899L21.6475 9.9541L20.4593 9.75665L21.3308 10.3899Z" fill="white"/>
<path d="M21.8662 9.99902L21.3539 10.1655L22.1991 11.0236L21.8662 9.99902Z" fill="white"/>
<path d="M21.3269 10.3899L21.6436 9.9541L22.1985 11.0231L21.3269 10.3899Z" fill="white"/>
<path d="M21.2021 9.99902L21.7145 10.1655L21.5351 8.97442L21.2021 9.99902Z" fill="white"/>
<path d="M21.8668 9.99858L21.3545 10.165L21.5339 8.97398L21.8668 9.99858Z" fill="white"/>
<path d="M21.2061 9.99902L21.7184 10.1655L20.8731 11.0236L21.2061 9.99902Z" fill="white"/>
<path d="M21.7414 10.3899L21.4248 9.9541L20.8698 11.0231L21.7414 10.3899Z" fill="white"/>
<path d="M21.5381 9.89258L21.5381 10.2259L22.2048 9.89258L21.5381 9.89258Z" fill="#C8102E"/>
<path d="M21.6676 10.2853L21.4717 10.0156L22.207 9.89344L21.6676 10.2853Z" fill="#C8102E"/>
<path d="M21.542 9.89062L21.542 10.224L20.8753 9.89063L21.542 9.89062Z" fill="#C8102E"/>
<path d="M21.4125 10.2833L21.6084 10.0137L20.8731 9.89149L21.4125 10.2833Z" fill="#C8102E"/>
<path d="M21.7451 10.0391L21.4281 10.1421L21.9511 10.6731L21.7451 10.0391Z" fill="#C8102E"/>
<path d="M21.4125 10.2814L21.6084 10.0117L21.9518 10.6732L21.4125 10.2814Z" fill="#C8102E"/>
<path d="M21.3311 10.0391L21.6481 10.1421L21.5371 9.40502L21.3311 10.0391Z" fill="#C8102E"/>
<path d="M21.7418 10.0396L21.4248 10.1426L21.5358 9.40553L21.7418 10.0396Z" fill="#C8102E"/>
<path d="M21.3311 10.0391L21.6481 10.1421L21.125 10.6731L21.3311 10.0391Z" fill="#C8102E"/>
<path d="M21.6637 10.2814L21.4678 10.0117L21.1244 10.6732L21.6637 10.2814Z" fill="#C8102E"/>
<path d="M14.6787 10.6758L14.6787 11.2811L15.8894 10.6758L14.6787 10.6758Z" fill="white"/>
<path d="M14.9095 11.3862L14.5537 10.8965L15.889 10.6746L14.9095 11.3862Z" fill="white"/>
<path d="M14.6787 10.6758L14.6787 11.2811L13.468 10.6758L14.6787 10.6758Z" fill="white"/>
<path d="M14.4479 11.3862L14.8037 10.8965L13.4685 10.6746L14.4479 11.3862Z" fill="white"/>
<path d="M15.0459 10.9492L14.4702 11.1363L15.42 12.1006L15.0459 10.9492Z" fill="white"/>
<path d="M14.4401 11.3901L14.7959 10.9004L15.4195 12.1017L14.4401 11.3901Z" fill="white"/>
<path d="M14.3037 10.9492L14.8794 11.1363L14.6778 9.79781L14.3037 10.9492Z" fill="white"/>
<path d="M15.0513 10.9497L14.4756 11.1367L14.6772 9.79825L15.0513 10.9497Z" fill="white"/>
<path d="M14.3037 10.9492L14.8794 11.1363L13.9296 12.1006L14.3037 10.9492Z" fill="white"/>
<path d="M14.9095 11.3901L14.5537 10.9004L13.9301 12.1017L14.9095 11.3901Z" fill="white"/>
<path d="M14.6729 10.8105L14.6729 11.2105L15.4729 10.8105L14.6729 10.8105Z" fill="#C8102E"/>
<path d="M14.8259 11.2806L14.5908 10.957L15.4731 10.8104L14.8259 11.2806Z" fill="#C8102E"/>
<path d="M14.6729 10.8105L14.6729 11.2105L13.8729 10.8105L14.6729 10.8105Z" fill="#C8102E"/>
<path d="M14.5198 11.2806L14.7549 10.957L13.8726 10.8104L14.5198 11.2806Z" fill="#C8102E"/>
<path d="M14.9229 10.9883L14.5424 11.1119L15.1701 11.7491L14.9229 10.9883Z" fill="#C8102E"/>
<path d="M14.5237 11.2787L14.7588 10.9551L15.1709 11.7489L14.5237 11.2787Z" fill="#C8102E"/>
<path d="M14.4268 10.9883L14.8072 11.1119L14.674 10.2274L14.4268 10.9883Z" fill="#C8102E"/>
<path d="M14.9205 10.9877L14.54 11.1113L14.6732 10.2269L14.9205 10.9877Z" fill="#C8102E"/>
<path d="M14.4268 10.9883L14.8072 11.1119L14.1795 11.7491L14.4268 10.9883Z" fill="#C8102E"/>
<path d="M14.8259 11.2787L14.5908 10.9551L14.1787 11.7489L14.8259 11.2787Z" fill="#C8102E"/>
<path d="M18.3711 16.5127V17.1847L19.7151 16.5127H18.3711Z" fill="white"/>
<path d="M18.6294 17.3024L18.2344 16.7588L19.7167 16.5125L18.6294 17.3024Z" fill="white"/>
<path d="M18.3711 16.5127V17.1847L17.0271 16.5127H18.3711Z" fill="white"/>
<path d="M18.1128 17.3024L18.5078 16.7588L17.0255 16.5125L18.1128 17.3024Z" fill="white"/>
<path d="M18.7891 16.8145L18.15 17.0221L19.2044 18.0927L18.7891 16.8145Z" fill="white"/>
<path d="M18.1206 17.3034L18.5156 16.7598L19.208 18.0934L18.1206 17.3034Z" fill="white"/>
<path d="M17.9531 16.8174L18.5922 17.025L18.3684 15.5392L17.9531 16.8174Z" fill="white"/>
<path d="M18.7836 16.8168L18.1445 17.0244L18.3683 15.5385L18.7836 16.8168Z" fill="white"/>
<path d="M17.9531 16.8154L18.5922 17.0231L17.5378 18.0936L17.9531 16.8154Z" fill="white"/>
<path d="M18.6216 17.3044L18.2266 16.7607L17.5342 18.0944L18.6216 17.3044Z" fill="white"/>
<path d="M18.3711 16.6475V17.1141L19.3044 16.6475H18.3711Z" fill="#C8102E"/>
<path d="M18.5477 17.1969L18.2734 16.8193L19.3028 16.6483L18.5477 17.1969Z" fill="#C8102E"/>
<path d="M18.3711 16.6475V17.1141L17.4378 16.6475H18.3711Z" fill="#C8102E"/>
<path d="M18.1945 17.1969L18.4688 16.8193L17.4394 16.6483L18.1945 17.1969Z" fill="#C8102E"/>
<path d="M18.6602 16.8604L18.2163 17.0046L18.9486 17.748L18.6602 16.8604Z" fill="#C8102E"/>
<path d="M18.1905 17.2008L18.4648 16.8232L18.9456 17.7494L18.1905 17.2008Z" fill="#C8102E"/>
<path d="M18.0742 16.8604L18.518 17.0046L18.3626 15.9727L18.0742 16.8604Z" fill="#C8102E"/>
<path d="M18.6509 16.8607L18.207 17.0049L18.3624 15.973L18.6509 16.8607Z" fill="#C8102E"/>
<path d="M18.0703 16.8604L18.5141 17.0046L17.7819 17.748L18.0703 16.8604Z" fill="#C8102E"/>
<path d="M18.5399 17.2008L18.2656 16.8232L17.7848 17.7494L18.5399 17.2008Z" fill="#C8102E"/>
</svg>
