<svg width="24" height="24" viewBox="0 0 24 24" fill="none" xmlns="http://www.w3.org/2000/svg">
<g clip-path="url(#clip0_358_4573)">
<path d="M0 0H36V24H0V0Z" fill="#DB161B"/>
<path d="M12 0H36V8H12V0Z" fill="white"/>
<path d="M12 16H36V24H12V16Z" fill="#008000"/>
<path d="M5.84541 4.96094H4.963C4.9144 4.96094 4.875 4.99788 4.875 5.04346V5.45914C4.875 5.50472 4.9144 5.54167 4.963 5.54167H5.84541C5.89401 5.54167 5.93341 5.50472 5.93341 5.45914V5.04346C5.93341 4.99788 5.89401 4.96094 5.84541 4.96094Z" fill="white" stroke="#DB161B" stroke-width="0.0172437"/>
<path d="M5.82299 4.98438H4.98583C4.93972 4.98438 4.90234 5.01825 4.90234 5.06003V5.44106C4.90234 5.48284 4.93972 5.51671 4.98583 5.51671H5.82299C5.8691 5.51671 5.90647 5.48284 5.90647 5.44106V5.06003C5.90647 5.01825 5.8691 4.98438 5.82299 4.98438Z" fill="white" stroke="#DB161B" stroke-width="0.0160576"/>
<path fill-rule="evenodd" clip-rule="evenodd" d="M5.37071 5.13086L5.42143 5.1325L5.42373 5.15549L5.46522 5.17657L5.49752 5.15029L5.53669 5.17137L5.49982 5.19436L5.50904 5.22611L5.55513 5.22447V5.26689L5.51827 5.26498L5.49982 5.29153L5.54131 5.32163L5.50904 5.34627L5.47444 5.31972L5.42373 5.33039L5.42603 5.36926L5.37071 5.37282L5.36378 5.33559L5.31769 5.31616L5.29232 5.34271L5.25312 5.32328L5.2762 5.29317L5.24853 5.27374H5.20933L5.20703 5.21899L5.24623 5.22255L5.27387 5.1908L5.2416 5.16617L5.28309 5.1377L5.31307 5.16069L5.36378 5.15385L5.37071 5.13086Z" fill="white" stroke="#DB161B" stroke-width="0.0101272"/>
<path d="M5.38382 5.29264C5.41459 5.29264 5.43952 5.27129 5.43952 5.24495C5.43952 5.21862 5.41459 5.19727 5.38382 5.19727C5.35306 5.19727 5.32812 5.21862 5.32812 5.24495C5.32812 5.27129 5.35306 5.29264 5.38382 5.29264Z" fill="white" stroke="#DB161B" stroke-width="0.0109234"/>
<path fill-rule="evenodd" clip-rule="evenodd" d="M5.03843 5.00977L4.95703 5.0823L5.03843 5.00977ZM5.09271 5.00977L5.01131 5.0823L5.09271 5.00977ZM5.14699 5.00977L5.06558 5.0823L5.14699 5.00977ZM5.20126 5.00977L5.11986 5.0823L5.20126 5.00977ZM5.25554 5.00977L5.17414 5.0823L5.25554 5.00977ZM5.30981 5.00977L5.22841 5.0823L5.30981 5.00977ZM5.36412 5.00977L5.28269 5.0823L5.36412 5.00977ZM5.4184 5.00977L5.33697 5.0823L5.4184 5.00977ZM5.47267 5.00977L5.39124 5.0823L5.47267 5.00977ZM5.52695 5.00977L5.44552 5.0823L5.52695 5.00977ZM5.58122 5.00977L5.4998 5.0823L5.58122 5.00977ZM5.6355 5.00977L5.55407 5.0823L5.6355 5.00977ZM5.4184 5.00977L5.33697 5.0823L5.4184 5.00977ZM5.68978 5.00977L5.60835 5.0823L5.68978 5.00977ZM5.74405 5.00977L5.66263 5.0823L5.74405 5.00977ZM5.79833 5.00977L5.7169 5.0823L5.79833 5.00977ZM5.85263 5.00977L5.77118 5.0823L5.85263 5.00977ZM5.77118 5.00977L5.85263 5.0823L5.77118 5.00977ZM5.7169 5.00977L5.79833 5.0823L5.7169 5.00977ZM5.66263 5.00977L5.74405 5.0823L5.66263 5.00977ZM5.60835 5.00977L5.68978 5.0823L5.60835 5.00977ZM5.55407 5.00977L5.6355 5.0823L5.55407 5.00977ZM5.4998 5.00977L5.58122 5.0823L5.4998 5.00977ZM5.44552 5.00977L5.52695 5.0823L5.44552 5.00977ZM5.39124 5.00977L5.47267 5.0823L5.39124 5.00977ZM5.33697 5.00977L5.4184 5.0823L5.33697 5.00977ZM5.28269 5.00977L5.36412 5.0823L5.28269 5.00977ZM5.22841 5.00977L5.30984 5.0823L5.22841 5.00977ZM5.17414 5.00977L5.25554 5.0823L5.17414 5.00977ZM5.39124 5.00977L5.47267 5.0823L5.39124 5.00977ZM5.11986 5.00977L5.20126 5.0823L5.11986 5.00977ZM5.06558 5.00977L5.14699 5.0823L5.06558 5.00977ZM5.01131 5.00977L5.09271 5.0823L5.01131 5.00977ZM4.95703 5.00977L5.03843 5.0823L4.95703 5.00977ZM5.03843 5.42088L4.95703 5.49368L5.03843 5.42088ZM5.09271 5.42088L5.01131 5.49368L5.09271 5.42088ZM5.14699 5.42088L5.06558 5.49368L5.14699 5.42088ZM5.20126 5.42088L5.11986 5.49368L5.20126 5.42088ZM5.25554 5.42088L5.17414 5.49368L5.25554 5.42088ZM5.30981 5.42088L5.22841 5.49368L5.30981 5.42088ZM5.36412 5.42088L5.28269 5.49368L5.36412 5.42088ZM5.4184 5.42088L5.33697 5.49368L5.4184 5.42088ZM5.47267 5.42088L5.39124 5.49368L5.47267 5.42088ZM5.52695 5.42088L5.44552 5.49368L5.52695 5.42088ZM5.58122 5.42088L5.4998 5.49368L5.58122 5.42088ZM5.6355 5.42088L5.55407 5.49368L5.6355 5.42088ZM5.4184 5.42088L5.33697 5.49368L5.4184 5.42088ZM5.68978 5.42088L5.60835 5.49368L5.68978 5.42088ZM5.74405 5.42088L5.66263 5.49368L5.74405 5.42088ZM5.79833 5.42088L5.7169 5.49368L5.79833 5.42088ZM5.85263 5.42088L5.77118 5.49368L5.85263 5.42088ZM5.77118 5.42088L5.85263 5.49368L5.77118 5.42088ZM5.7169 5.42088L5.79833 5.49368L5.7169 5.42088ZM5.66263 5.42088L5.74405 5.49368L5.66263 5.42088ZM5.60835 5.42088L5.68978 5.49368L5.60835 5.42088ZM5.55407 5.42088L5.6355 5.49368L5.55407 5.42088ZM5.4998 5.42088L5.58122 5.49368L5.4998 5.42088ZM5.44552 5.42088L5.52695 5.49368L5.44552 5.42088ZM5.39124 5.42088L5.47267 5.49368L5.39124 5.42088ZM5.33697 5.42088L5.4184 5.49368L5.33697 5.42088ZM5.28269 5.42088L5.36412 5.49368L5.28269 5.42088ZM5.22841 5.42088L5.30984 5.49368L5.22841 5.42088ZM5.17414 5.42088L5.25554 5.49368L5.17414 5.42088ZM5.39124 5.42088L5.47267 5.49368L5.39124 5.42088ZM5.11986 5.42088L5.20126 5.49368L5.11986 5.42088ZM5.06558 5.42088L5.14699 5.49368L5.06558 5.42088ZM5.01131 5.42088L5.09271 5.49368L5.01131 5.42088ZM4.95703 5.42088L5.03843 5.49368L4.95703 5.42088Z" fill="white"/>
<path d="M5.03843 5.00977L4.95703 5.0823M5.09271 5.00977L5.01131 5.0823M5.14699 5.00977L5.06558 5.0823M5.20126 5.00977L5.11986 5.0823M5.25554 5.00977L5.17414 5.0823M5.30981 5.00977L5.22841 5.0823M5.36412 5.00977L5.28269 5.0823M5.4184 5.00977L5.33697 5.0823M5.47267 5.00977L5.39124 5.0823M5.52695 5.00977L5.44552 5.0823M5.58122 5.00977L5.4998 5.0823M5.6355 5.00977L5.55407 5.0823M5.68978 5.00977L5.60835 5.0823M5.74405 5.00977L5.66263 5.0823M5.79833 5.00977L5.7169 5.0823M5.85263 5.00977L5.77118 5.0823M5.77118 5.00977L5.85263 5.0823M5.7169 5.00977L5.79833 5.0823M5.66263 5.00977L5.74405 5.0823M5.60835 5.00977L5.68978 5.0823M5.55407 5.00977L5.6355 5.0823M5.4998 5.00977L5.58122 5.0823M5.44552 5.00977L5.52695 5.0823M5.39124 5.00977L5.47267 5.0823M5.33697 5.00977L5.4184 5.0823M5.28269 5.00977L5.36412 5.0823M5.22841 5.00977L5.30984 5.0823M5.17414 5.00977L5.25554 5.0823M5.11986 5.00977L5.20126 5.0823M5.06558 5.00977L5.14699 5.0823M5.01131 5.00977L5.09271 5.0823M4.95703 5.00977L5.03843 5.0823M5.03843 5.42088L4.95703 5.49368M5.09271 5.42088L5.01131 5.49368M5.14699 5.42088L5.06558 5.49368M5.20126 5.42088L5.11986 5.49368M5.25554 5.42088L5.17414 5.49368M5.30981 5.42088L5.22841 5.49368M5.36412 5.42088L5.28269 5.49368M5.4184 5.42088L5.33697 5.49368M5.47267 5.42088L5.39124 5.49368M5.52695 5.42088L5.44552 5.49368M5.58122 5.42088L5.4998 5.49368M5.6355 5.42088L5.55407 5.49368M5.68978 5.42088L5.60835 5.49368M5.74405 5.42088L5.66263 5.49368M5.79833 5.42088L5.7169 5.49368M5.85263 5.42088L5.77118 5.49368M5.77118 5.42088L5.85263 5.49368M5.7169 5.42088L5.79833 5.49368M5.66263 5.42088L5.74405 5.49368M5.60835 5.42088L5.68978 5.49368M5.55407 5.42088L5.6355 5.49368M5.4998 5.42088L5.58122 5.49368M5.44552 5.42088L5.52695 5.49368M5.39124 5.42088L5.47267 5.49368M5.33697 5.42088L5.4184 5.49368M5.28269 5.42088L5.36412 5.49368M5.22841 5.42088L5.30984 5.49368M5.17414 5.42088L5.25554 5.49368M5.11986 5.42088L5.20126 5.49368M5.06558 5.42088L5.14699 5.49368M5.01131 5.42088L5.09271 5.49368M4.95703 5.42088L5.03843 5.49368" stroke="#DB161B" stroke-width="0.0160576"/>
<path d="M8.51006 4.96094H9.39247C9.44107 4.96094 9.48047 4.99788 9.48047 5.04346V5.45914C9.48047 5.50472 9.44107 5.54167 9.39247 5.54167H8.51006C8.46146 5.54167 8.42206 5.50472 8.42206 5.45914V5.04346C8.42206 4.99788 8.46146 4.96094 8.51006 4.96094Z" fill="white" stroke="#DB161B" stroke-width="0.0172437"/>
<path d="M8.53248 4.98438H9.36964C9.41575 4.98438 9.45312 5.01825 9.45312 5.06003V5.44106C9.45312 5.48284 9.41575 5.51671 9.36964 5.51671H8.53248C8.48637 5.51671 8.449 5.48284 8.449 5.44106V5.06003C8.449 5.01825 8.48637 4.98438 8.53248 4.98438Z" fill="white" stroke="#DB161B" stroke-width="0.0160576"/>
<path fill-rule="evenodd" clip-rule="evenodd" d="M8.98476 5.13086L8.93404 5.1325L8.93174 5.15549L8.89025 5.17657L8.85795 5.15029L8.81878 5.17137L8.85565 5.19436L8.84643 5.22611L8.80033 5.22447V5.26689L8.8372 5.26498L8.85565 5.29153L8.81416 5.32163L8.84643 5.34627L8.88102 5.31972L8.93174 5.33039L8.92944 5.36926L8.98476 5.37282L8.99168 5.33559L9.03778 5.31616L9.06315 5.34271L9.10234 5.32328L9.07927 5.29317L9.10694 5.27374H9.14614L9.14844 5.21899L9.10924 5.22255L9.0816 5.1908L9.11387 5.16617L9.07237 5.1377L9.0424 5.16069L8.99168 5.15385L8.98476 5.13086Z" fill="white" stroke="#DB161B" stroke-width="0.0101272"/>
<path d="M8.97164 5.29264C8.94088 5.29264 8.91594 5.27129 8.91594 5.24495C8.91594 5.21862 8.94088 5.19727 8.97164 5.19727C9.00241 5.19727 9.02734 5.21862 9.02734 5.24495C9.02734 5.27129 9.00241 5.29264 8.97164 5.29264Z" fill="white" stroke="#DB161B" stroke-width="0.0109234"/>
<path fill-rule="evenodd" clip-rule="evenodd" d="M9.31704 5.00977L9.39844 5.0823L9.31704 5.00977ZM9.26276 5.00977L9.34416 5.0823L9.26276 5.00977ZM9.20848 5.00977L9.28988 5.0823L9.20848 5.00977ZM9.15421 5.00977L9.23561 5.0823L9.15421 5.00977ZM9.09993 5.00977L9.18133 5.0823L9.09993 5.00977ZM9.04565 5.00977L9.12705 5.0823L9.04565 5.00977ZM8.99135 5.00977L9.07278 5.0823L8.99135 5.00977ZM8.93707 5.00977L9.0185 5.0823L8.93707 5.00977ZM8.8828 5.00977L8.96423 5.0823L8.8828 5.00977ZM8.82852 5.00977L8.90995 5.0823L8.82852 5.00977ZM8.77424 5.00977L8.85567 5.0823L8.77424 5.00977ZM8.71997 5.00977L8.8014 5.0823L8.71997 5.00977ZM8.93707 5.00977L9.0185 5.0823L8.93707 5.00977ZM8.66569 5.00977L8.74712 5.0823L8.66569 5.00977ZM8.61141 5.00977L8.69284 5.0823L8.61141 5.00977ZM8.55714 5.00977L8.63857 5.0823L8.55714 5.00977ZM8.50283 5.00977L8.58429 5.0823L8.50283 5.00977ZM8.58429 5.00977L8.50283 5.0823L8.58429 5.00977ZM8.63857 5.00977L8.55714 5.0823L8.63857 5.00977ZM8.69284 5.00977L8.61141 5.0823L8.69284 5.00977ZM8.74712 5.00977L8.66569 5.0823L8.74712 5.00977ZM8.8014 5.00977L8.71997 5.0823L8.8014 5.00977ZM8.85567 5.00977L8.77424 5.0823L8.85567 5.00977ZM8.90995 5.00977L8.82852 5.0823L8.90995 5.00977ZM8.96423 5.00977L8.8828 5.0823L8.96423 5.00977ZM9.0185 5.00977L8.93707 5.0823L9.0185 5.00977ZM9.07278 5.00977L8.99135 5.0823L9.07278 5.00977ZM9.12705 5.00977L9.04563 5.0823L9.12705 5.00977ZM9.18133 5.00977L9.09993 5.0823L9.18133 5.00977ZM8.96423 5.00977L8.8828 5.0823L8.96423 5.00977ZM9.23561 5.00977L9.15421 5.0823L9.23561 5.00977ZM9.28988 5.00977L9.20848 5.0823L9.28988 5.00977ZM9.34416 5.00977L9.26276 5.0823L9.34416 5.00977ZM9.39844 5.00977L9.31704 5.0823L9.39844 5.00977ZM9.31704 5.42088L9.39844 5.49368L9.31704 5.42088ZM9.26276 5.42088L9.34416 5.49368L9.26276 5.42088ZM9.20848 5.42088L9.28988 5.49368L9.20848 5.42088ZM9.15421 5.42088L9.23561 5.49368L9.15421 5.42088ZM9.09993 5.42088L9.18133 5.49368L9.09993 5.42088ZM9.04565 5.42088L9.12705 5.49368L9.04565 5.42088ZM8.99135 5.42088L9.07278 5.49368L8.99135 5.42088ZM8.93707 5.42088L9.0185 5.49368L8.93707 5.42088ZM8.8828 5.42088L8.96423 5.49368L8.8828 5.42088ZM8.82852 5.42088L8.90995 5.49368L8.82852 5.42088ZM8.77424 5.42088L8.85567 5.49368L8.77424 5.42088ZM8.71997 5.42088L8.8014 5.49368L8.71997 5.42088ZM8.93707 5.42088L9.0185 5.49368L8.93707 5.42088ZM8.66569 5.42088L8.74712 5.49368L8.66569 5.42088ZM8.61141 5.42088L8.69284 5.49368L8.61141 5.42088ZM8.55714 5.42088L8.63857 5.49368L8.55714 5.42088ZM8.50283 5.42088L8.58429 5.49368L8.50283 5.42088ZM8.58429 5.42088L8.50283 5.49368L8.58429 5.42088ZM8.63857 5.42088L8.55714 5.49368L8.63857 5.42088ZM8.69284 5.42088L8.61141 5.49368L8.69284 5.42088ZM8.74712 5.42088L8.66569 5.49368L8.74712 5.42088ZM8.8014 5.42088L8.71997 5.49368L8.8014 5.42088ZM8.85567 5.42088L8.77424 5.49368L8.85567 5.42088ZM8.90995 5.42088L8.82852 5.49368L8.90995 5.42088ZM8.96423 5.42088L8.8828 5.49368L8.96423 5.42088ZM9.0185 5.42088L8.93707 5.49368L9.0185 5.42088ZM9.07278 5.42088L8.99135 5.49368L9.07278 5.42088ZM9.12705 5.42088L9.04563 5.49368L9.12705 5.42088ZM9.18133 5.42088L9.09993 5.49368L9.18133 5.42088ZM8.96423 5.42088L8.8828 5.49368L8.96423 5.42088ZM9.23561 5.42088L9.15421 5.49368L9.23561 5.42088ZM9.28988 5.42088L9.20848 5.49368L9.28988 5.42088ZM9.34416 5.42088L9.26276 5.49368L9.34416 5.42088ZM9.39844 5.42088L9.31704 5.49368L9.39844 5.42088Z" fill="white"/>
<path d="M9.31704 5.00977L9.39844 5.0823M9.26276 5.00977L9.34416 5.0823M9.20848 5.00977L9.28988 5.0823M9.15421 5.00977L9.23561 5.0823M9.09993 5.00977L9.18133 5.0823M9.04565 5.00977L9.12705 5.0823M8.99135 5.00977L9.07278 5.0823M8.93707 5.00977L9.0185 5.0823M8.8828 5.00977L8.96423 5.0823M8.82852 5.00977L8.90995 5.0823M8.77424 5.00977L8.85567 5.0823M8.71997 5.00977L8.8014 5.0823M8.66569 5.00977L8.74712 5.0823M8.61141 5.00977L8.69284 5.0823M8.55714 5.00977L8.63857 5.0823M8.50283 5.00977L8.58429 5.0823M8.58429 5.00977L8.50283 5.0823M8.63857 5.00977L8.55714 5.0823M8.69284 5.00977L8.61141 5.0823M8.74712 5.00977L8.66569 5.0823M8.8014 5.00977L8.71997 5.0823M8.85567 5.00977L8.77424 5.0823M8.90995 5.00977L8.82852 5.0823M8.96423 5.00977L8.8828 5.0823M9.0185 5.00977L8.93707 5.0823M9.07278 5.00977L8.99135 5.0823M9.12705 5.00977L9.04563 5.0823M9.18133 5.00977L9.09993 5.0823M9.23561 5.00977L9.15421 5.0823M9.28988 5.00977L9.20848 5.0823M9.34416 5.00977L9.26276 5.0823M9.39844 5.00977L9.31704 5.0823M9.31704 5.42088L9.39844 5.49368M9.26276 5.42088L9.34416 5.49368M9.20848 5.42088L9.28988 5.49368M9.15421 5.42088L9.23561 5.49368M9.09993 5.42088L9.18133 5.49368M9.04565 5.42088L9.12705 5.49368M8.99135 5.42088L9.07278 5.49368M8.93707 5.42088L9.0185 5.49368M8.8828 5.42088L8.96423 5.49368M8.82852 5.42088L8.90995 5.49368M8.77424 5.42088L8.85567 5.49368M8.71997 5.42088L8.8014 5.49368M8.66569 5.42088L8.74712 5.49368M8.61141 5.42088L8.69284 5.49368M8.55714 5.42088L8.63857 5.49368M8.50283 5.42088L8.58429 5.49368M8.58429 5.42088L8.50283 5.49368M8.63857 5.42088L8.55714 5.49368M8.69284 5.42088L8.61141 5.49368M8.74712 5.42088L8.66569 5.49368M8.8014 5.42088L8.71997 5.49368M8.85567 5.42088L8.77424 5.49368M8.90995 5.42088L8.82852 5.49368M8.96423 5.42088L8.8828 5.49368M9.0185 5.42088L8.93707 5.49368M9.07278 5.42088L8.99135 5.49368M9.12705 5.42088L9.04563 5.49368M9.18133 5.42088L9.09993 5.49368M9.23561 5.42088L9.15421 5.49368M9.28988 5.42088L9.20848 5.49368M9.34416 5.42088L9.26276 5.49368M9.39844 5.42088L9.31704 5.49368" stroke="#DB161B" stroke-width="0.0160576"/>
<path fill-rule="evenodd" clip-rule="evenodd" d="M6.53396 6.17924C5.21704 7.46704 4.65528 7.6299 4.91891 7.73363C5.18255 7.83737 6.03061 7.1728 6.91305 6.28982C7.79549 5.40711 8.33579 4.6214 8.07221 4.51763C7.80862 4.41384 7.93453 4.80946 6.53396 6.17924Z" fill="white" stroke="#DB161B" stroke-width="0.0257743"/>
<path fill-rule="evenodd" clip-rule="evenodd" d="M5.426 7.11328L5.88725 7.23426C5.45312 7.64565 4.96463 7.81507 4.82895 7.74254C4.69325 7.67001 5.07318 7.50058 5.426 7.11328Z" fill="white" stroke="#DB161B" stroke-width="0.015054"/>
<path fill-rule="evenodd" clip-rule="evenodd" d="M5.42647 7.16211L5.80641 7.259C5.38344 7.65451 4.96511 7.76701 4.85685 7.71883C4.748 7.67039 5.0828 7.53435 5.42647 7.16211Z" fill="white" stroke="#DB161B" stroke-width="0.015054"/>
<path d="M6.8431 6.12109C6.84201 6.12739 6.839 6.15503 6.83626 6.16598C6.83626 6.18131 6.83462 6.19281 6.83297 6.20485C6.8286 6.21525 6.82942 6.22483 6.816 6.22866C6.80697 6.24125 6.80122 6.24454 6.78918 6.24974C6.78097 6.25603 6.76838 6.26233 6.75524 6.26753C6.74183 6.27273 6.72951 6.27328 6.71501 6.27054C6.70296 6.26315 6.69448 6.25576 6.68462 6.24974C6.68216 6.24016 6.68024 6.2262 6.67778 6.21689C6.68134 6.22647 6.68408 6.2418 6.68462 6.25548C6.68326 6.27054 6.67778 6.27711 6.67121 6.28833M6.71829 6.32117C6.7172 6.32035 6.7161 6.31926 6.71501 6.31816C6.72294 6.32528 6.71966 6.322 6.70132 6.31242C6.68846 6.30639 6.6745 6.30311 6.65753 6.30037H6.61045C6.59211 6.30037 6.57979 6.30284 6.56666 6.30639C6.55708 6.31488 6.54284 6.31953 6.53299 6.3272C6.52259 6.33349 6.51821 6.34088 6.51273 6.35101C6.50343 6.35922 6.49741 6.37181 6.48892 6.37811C6.48536 6.39179 6.47743 6.39124 6.47223 6.40192C6.4881 6.40301 6.50097 6.40493 6.50918 6.41369C6.52341 6.42026 6.49741 6.40739 6.49248 6.40192C6.48126 6.39891 6.47852 6.3959 6.4621 6.3959C6.44677 6.39152 6.43746 6.39946 6.42159 6.40192C6.41256 6.40657 6.40982 6.40794 6.39805 6.40794M6.53627 6.47062C6.52943 6.47089 6.49795 6.47609 6.48564 6.47062C6.47195 6.46734 6.46374 6.46077 6.45526 6.44954C6.45115 6.44161 6.45526 6.46405 6.45526 6.47363C6.45389 6.49115 6.44787 6.49142 6.43856 6.50347C6.42871 6.50894 6.41831 6.51688 6.40818 6.52126C6.39969 6.52783 6.38929 6.5322 6.3778 6.53631C6.36767 6.54042 6.35563 6.5448 6.34741 6.55109C6.33619 6.55821 6.33729 6.56697 6.33072 6.57791C6.33181 6.59269 6.33455 6.60091 6.34413 6.60802C6.34796 6.61788 6.35699 6.628 6.36438 6.63485C6.3726 6.64853 6.3819 6.65483 6.36083 6.65866C6.34933 6.66304 6.34304 6.65948 6.33072 6.65866M6.32388 6.67946C6.31566 6.67782 6.2861 6.66906 6.27324 6.66468H6.22616C6.20782 6.66577 6.20426 6.6707 6.18894 6.67645C6.17908 6.68548 6.17224 6.69178 6.15856 6.69752C6.15144 6.70574 6.13721 6.7197 6.13173 6.73037C6.12763 6.7405 6.12489 6.75418 6.12489 6.76924C6.12516 6.78648 6.13036 6.78949 6.13173 6.80509C6.13556 6.81768 6.14159 6.82945 6.15199 6.84068C6.15335 6.84451 6.15445 6.8456 6.15856 6.8467M6.16321 6.88584C6.16184 6.88584 6.15856 6.8935 6.15363 6.90007C6.14295 6.91102 6.14159 6.91184 6.12489 6.91184C6.11011 6.91129 6.11148 6.90609 6.10108 6.90226C6.09615 6.89487 6.08985 6.88885 6.08438 6.87872C6.08055 6.8727 6.07699 6.86312 6.07234 6.85764C6.06796 6.85053 6.06248 6.84533 6.05783 6.83876C6.05345 6.83684 6.05181 6.83493 6.04606 6.83411C6.05975 6.8363 6.06084 6.84095 6.06987 6.84806C6.07398 6.85491 6.07836 6.86175 6.08192 6.86941C6.08329 6.87954 6.08657 6.88748 6.08657 6.90007C6.08657 6.91293 6.08657 6.92224 6.08192 6.93291C6.07617 6.93894 6.07206 6.94496 6.06522 6.94961C6.05947 6.95481 6.05263 6.96193 6.04825 6.96822C6.04086 6.97288 6.03539 6.97671 6.0269 6.98246C6.01951 6.98656 6.01185 6.99094 6.00063 6.99204C5.98639 6.99094 5.98229 6.98711 5.97189 6.98246C5.96285 6.97589 5.95574 6.97178 5.9478 6.96603C5.9415 6.96165 5.93521 6.95317 5.9311 6.94715C5.91824 6.94386 5.91003 6.94523 5.90236 6.9518C5.89579 6.95618 5.89005 6.96193 5.88567 6.96822C5.88156 6.97014 5.87527 6.97589 5.87116 6.9778M5.89963 6.98328C5.90346 6.98492 5.91714 6.9945 5.92344 6.99806C5.92727 7.01037 5.93329 7.01722 5.93521 7.03036C5.93849 7.04322 5.93822 7.05718 5.93822 7.07169C5.93494 7.08674 5.92864 7.09769 5.92344 7.10973C5.91386 7.1163 5.90921 7.12068 5.89662 7.12752C5.88485 7.12916 5.87308 7.13053 5.85802 7.13053C5.84872 7.13354 5.8312 7.13491 5.82217 7.13053C5.80903 7.12862 5.79909 7.12342 5.78949 7.11876C5.77848 7.11247 5.77172 7.10672 5.75971 7.10097C5.75388 7.09249 5.74482 7.08482 5.73592 7.07442C5.7285 7.06457 5.72306 7.05909 5.71805 7.04815C5.72245 7.06074 5.72913 7.07169 5.73294 7.08345C5.7397 7.09577 5.74364 7.10042 5.74484 7.11575C5.74898 7.12807 5.74783 7.14285 5.74783 7.15681C5.74651 7.16639 5.74583 7.18445 5.74186 7.19212V7.20115M5.45956 7.24795V7.25233C5.45956 7.24084 5.45926 7.24659 5.46435 7.2693C5.47338 7.27943 5.49456 7.28217 5.51222 7.27779C5.52771 7.26657 5.52722 7.25781 5.5553 7.25233C5.58243 7.25398 5.59277 7.26109 5.60796 7.2693C5.62597 7.27724 5.63429 7.28135 5.64625 7.29914C5.65219 7.31364 5.65551 7.3235 5.63667 7.32897C5.6217 7.33855 5.60391 7.34375 5.58401 7.34622C5.5619 7.34622 5.54597 7.34375 5.53614 7.3547C5.52095 7.36866 5.5218 7.37714 5.5218 7.4015C5.51668 7.40917 5.51567 7.43161 5.51222 7.4401C5.49892 7.44557 5.49112 7.44858 5.46914 7.44858C5.46396 7.43544 5.45824 7.41163 5.45477 7.3974C5.45102 7.38207 5.44987 7.36072 5.4404 7.35032C5.43115 7.33841 5.41979 7.3283 5.4069 7.32049C5.40104 7.3131 5.38987 7.30707 5.37818 7.30352C5.39696 7.312 5.39964 7.32131 5.40211 7.34184C5.3856 7.34923 5.38119 7.35443 5.35423 7.3547C5.32774 7.35278 5.32133 7.34676 5.31115 7.33335C5.30932 7.3547 5.30163 7.36182 5.29681 7.38043C5.28696 7.39329 5.28277 7.40643 5.27286 7.42285C5.27708 7.44366 5.28616 7.44448 5.28723 7.46993C5.29344 7.48663 5.29276 7.5025 5.30636 7.51263C5.31244 7.5192 5.31698 7.52057 5.33031 7.52112C5.30259 7.52112 5.28644 7.51838 5.26807 7.50825C5.25387 7.50059 5.24314 7.49073 5.22978 7.4828C5.21284 7.47185 5.1919 7.46172 5.17233 7.45707C5.15021 7.45707 5.13428 7.45488 5.12446 7.46555C5.11091 7.47431 5.10179 7.48909 5.09574 7.50825C5.09131 7.53042 5.08961 7.5452 5.10053 7.55943C5.10864 7.57613 5.11047 7.58243 5.10053 7.60213C5.08939 7.61609 5.07283 7.61773 5.04787 7.62348C5.03161 7.6228 5.01551 7.61995 5 7.615" stroke="#DB161B" stroke-width="0.015054"/>
<path fill-rule="evenodd" clip-rule="evenodd" d="M8.03827 5.0162C8.62264 4.00736 9.01049 3.1489 8.90374 3.09985C8.79727 3.05083 8.23671 3.82969 7.65234 4.83839L8.03827 5.0162Z" fill="white" stroke="#DB161B" stroke-width="0.0203913"/>
<path fill-rule="evenodd" clip-rule="evenodd" d="M7.99624 4.99761C8.55981 4.02438 8.9482 3.20279 8.86308 3.16357C8.77796 3.12434 8.25134 3.88227 7.6875 4.85536" fill="white"/>
<path d="M7.99624 4.99761C8.55981 4.02438 8.9482 3.20279 8.86308 3.16357C8.77796 3.12434 8.25134 3.88227 7.6875 4.85536" stroke="#DB161B" stroke-width="0.0179279"/>
<path fill-rule="evenodd" clip-rule="evenodd" d="M7.89935 4.49023C7.83065 4.60402 7.75812 4.73405 7.6875 4.85569L7.99624 4.99794C8.06659 4.87619 8.1435 4.74804 8.20782 4.63237L7.89935 4.49023Z" fill="white" stroke="#DB161B" stroke-width="0.0203457"/>
<path fill-rule="evenodd" clip-rule="evenodd" d="M7.92886 4.5293C7.86043 4.64308 7.81253 4.73014 7.74219 4.85178L7.97347 4.95834C8.04409 4.83675 8.09609 4.75158 8.16041 4.63591L7.92886 4.5293Z" fill="white" stroke="#DB161B" stroke-width="0.0203457"/>
<path d="M8.09766 4.66211L7.94334 4.59105L7.80635 4.82753L7.96067 4.89859L8.09766 4.66211Z" fill="white" stroke="#DB161B" stroke-width="0.0203913"/>
<path fill-rule="evenodd" clip-rule="evenodd" d="M8.09591 4.66171L7.80469 4.82711L8.09591 4.66171ZM7.95879 4.89814L7.94154 4.59063L7.95879 4.89814ZM8.79332 3.4578L8.63895 3.38672L8.79332 3.4578Z" fill="white"/>
<path d="M8.09591 4.66171L7.80469 4.82711M7.95879 4.89814L7.94154 4.59063M8.79332 3.4578L8.63895 3.38672" stroke="#DB161B" stroke-width="0.0203457"/>
<path d="M8.79252 3.34713C8.76847 3.3532 8.74458 3.34101 8.73915 3.31992C8.73372 3.29882 8.74882 3.27681 8.77286 3.27074C8.79691 3.26468 8.82081 3.27687 8.82623 3.29796C8.83166 3.31906 8.81657 3.34107 8.79252 3.34713Z" fill="#DB161B" stroke="#DB161B" stroke-width="0.0263887"/>
<path fill-rule="evenodd" clip-rule="evenodd" d="M7.82151 6.17729C9.13843 7.46509 9.70019 7.62794 9.43656 7.73168C9.17292 7.83542 8.32486 7.17085 7.44242 6.28787C6.55998 5.40515 6.01968 4.61944 6.28326 4.51568C6.54684 4.41189 6.42094 4.80751 7.82151 6.17729Z" fill="white" stroke="#DB161B" stroke-width="0.0257743"/>
<path fill-rule="evenodd" clip-rule="evenodd" d="M8.92947 7.11328L8.46822 7.23426C8.90235 7.64565 9.39084 7.81507 9.52652 7.74254C9.66222 7.67001 9.28228 7.50058 8.92947 7.11328Z" fill="white" stroke="#DB161B" stroke-width="0.015054"/>
<path fill-rule="evenodd" clip-rule="evenodd" d="M8.929 7.16211L8.54906 7.259C8.97203 7.65451 9.39036 7.76701 9.49861 7.71883C9.60747 7.67039 9.27267 7.53435 8.929 7.16211Z" fill="white" stroke="#DB161B" stroke-width="0.015054"/>
<path d="M7.51237 6.12109C7.51346 6.12739 7.51647 6.15503 7.51921 6.16598C7.51921 6.18131 7.52085 6.19281 7.52249 6.20485C7.52687 6.21525 7.52605 6.22483 7.53946 6.22866C7.5485 6.24125 7.55424 6.24454 7.56629 6.24974C7.5745 6.25603 7.58709 6.26233 7.60023 6.26753C7.61364 6.27273 7.62596 6.27328 7.64046 6.27054C7.65251 6.26315 7.66099 6.25576 7.67084 6.24974C7.67331 6.24016 7.67522 6.2262 7.67769 6.21689C7.67413 6.22647 7.67139 6.2418 7.67084 6.25548C7.67221 6.27054 7.67769 6.27711 7.68426 6.28833M7.63718 6.32117C7.63827 6.32035 7.63937 6.31926 7.64046 6.31816C7.63253 6.32528 7.63581 6.322 7.65415 6.31242C7.66701 6.30639 7.68097 6.30311 7.69794 6.30037H7.74502C7.76336 6.30037 7.77568 6.30284 7.78881 6.30639C7.79839 6.31488 7.81263 6.31953 7.82248 6.3272C7.83288 6.33349 7.83726 6.34088 7.84273 6.35101C7.85204 6.35922 7.85806 6.37181 7.86655 6.37811C7.8701 6.39179 7.87804 6.39124 7.88324 6.40192C7.86737 6.40301 7.8545 6.40493 7.84629 6.41369C7.83206 6.42026 7.85806 6.40739 7.86299 6.40192C7.87421 6.39891 7.87695 6.3959 7.89337 6.3959C7.9087 6.39152 7.918 6.39946 7.93388 6.40192C7.94291 6.40657 7.94565 6.40794 7.95742 6.40794M7.81919 6.47062C7.82604 6.47089 7.85751 6.47609 7.86983 6.47062C7.88352 6.46734 7.89173 6.46077 7.90021 6.44954C7.90432 6.44161 7.90021 6.46405 7.90021 6.47363C7.90158 6.49115 7.9076 6.49142 7.91691 6.50347C7.92676 6.50894 7.93716 6.51688 7.94729 6.52126C7.95578 6.52783 7.96618 6.5322 7.97767 6.53631C7.9878 6.54042 7.99984 6.5448 8.00805 6.55109C8.01928 6.55821 8.01818 6.56697 8.02475 6.57791C8.02366 6.59269 8.02092 6.60091 8.01134 6.60802C8.00751 6.61788 7.99847 6.628 7.99108 6.63485C7.98287 6.64853 7.97357 6.65483 7.99464 6.65866C8.00614 6.66304 8.01243 6.65948 8.02475 6.65866M8.03159 6.67946C8.0398 6.67782 8.06936 6.66906 8.08223 6.66468H8.12931C8.14765 6.66577 8.1512 6.6707 8.16653 6.67645C8.17639 6.68548 8.18323 6.69178 8.19691 6.69752C8.20403 6.70574 8.21826 6.7197 8.22374 6.73037C8.22784 6.7405 8.23058 6.75418 8.23058 6.76924C8.23031 6.78648 8.22511 6.78949 8.22374 6.80509C8.2199 6.81768 8.21388 6.82945 8.20348 6.84068C8.20211 6.84451 8.20102 6.8456 8.19691 6.8467M8.19226 6.88584C8.19363 6.88584 8.19691 6.8935 8.20184 6.90007C8.21251 6.91102 8.21388 6.91184 8.23058 6.91184C8.24536 6.91129 8.24399 6.90609 8.25439 6.90226C8.25932 6.89487 8.26561 6.88885 8.27109 6.87872C8.27492 6.8727 8.27848 6.86312 8.28313 6.85764C8.28751 6.85053 8.29299 6.84533 8.29764 6.83876C8.30202 6.83684 8.30366 6.83493 8.30941 6.83411C8.29572 6.8363 8.29463 6.84095 8.2856 6.84806C8.28149 6.85491 8.27711 6.86175 8.27355 6.86941C8.27218 6.87954 8.2689 6.88748 8.2689 6.90007C8.2689 6.91293 8.2689 6.92224 8.27355 6.93291C8.2793 6.93894 8.28341 6.94496 8.29025 6.94961C8.296 6.95481 8.30284 6.96193 8.30722 6.96822C8.31461 6.97288 8.32008 6.97671 8.32857 6.98246C8.33596 6.98656 8.34362 6.99094 8.35484 6.99204C8.36908 6.99094 8.37318 6.98711 8.38358 6.98246C8.39262 6.97589 8.39973 6.97178 8.40767 6.96603C8.41396 6.96165 8.42026 6.95317 8.42437 6.94715C8.43723 6.94386 8.44544 6.94523 8.45311 6.9518C8.45967 6.95618 8.46542 6.96193 8.4698 6.96822C8.47391 6.97014 8.4802 6.97589 8.48431 6.9778M8.45584 6.98328C8.45201 6.98492 8.43832 6.9945 8.43203 6.99806C8.4282 7.01037 8.42218 7.01722 8.42026 7.03036C8.41698 7.04322 8.41725 7.05718 8.41725 7.07169C8.42053 7.08674 8.42683 7.09769 8.43203 7.10973C8.44161 7.1163 8.44626 7.12068 8.45885 7.12752C8.47062 7.12916 8.48239 7.13053 8.49745 7.13053C8.50675 7.13354 8.52427 7.13491 8.5333 7.13053C8.54644 7.12862 8.55638 7.12342 8.56598 7.11876C8.57699 7.11247 8.58375 7.10672 8.59576 7.10097C8.60159 7.09249 8.61065 7.08482 8.61955 7.07442C8.62697 7.06457 8.63241 7.05909 8.63742 7.04815C8.63301 7.06074 8.62634 7.07169 8.62253 7.08345C8.61577 7.09577 8.61183 7.10042 8.61062 7.11575C8.60649 7.12807 8.60764 7.14285 8.60764 7.15681C8.60895 7.16639 8.60964 7.18445 8.61361 7.19212V7.20115M8.89591 7.24795V7.25233C8.89591 7.24084 8.89621 7.24659 8.89112 7.2693C8.88209 7.27943 8.8609 7.28217 8.84325 7.27779C8.82776 7.26657 8.82825 7.25781 8.80017 7.25233C8.77304 7.25398 8.7627 7.26109 8.74751 7.2693C8.7295 7.27724 8.72118 7.28135 8.70921 7.29914C8.70327 7.31364 8.69996 7.3235 8.71879 7.32897C8.73377 7.33855 8.75156 7.34375 8.77146 7.34622C8.79357 7.34622 8.8095 7.34375 8.81933 7.3547C8.83452 7.36866 8.83367 7.37714 8.83367 7.4015C8.83879 7.40917 8.8398 7.43161 8.84325 7.4401C8.85655 7.44557 8.86435 7.44858 8.88633 7.44858C8.8915 7.43544 8.89723 7.41163 8.9007 7.3974C8.90445 7.38207 8.9056 7.36072 8.91507 7.35032C8.92432 7.33841 8.93568 7.3283 8.94857 7.32049C8.95443 7.3131 8.9656 7.30707 8.97729 7.30352C8.95851 7.312 8.95583 7.32131 8.95336 7.34184C8.96987 7.34923 8.97427 7.35443 9.00123 7.3547C9.02773 7.35278 9.03413 7.34676 9.04432 7.33335C9.04615 7.3547 9.05384 7.36182 9.05866 7.38043C9.06851 7.39329 9.0727 7.40643 9.08261 7.42285C9.07839 7.44366 9.06931 7.44448 9.06824 7.46993C9.06203 7.48663 9.06271 7.5025 9.04911 7.51263C9.04303 7.5192 9.03849 7.52057 9.02516 7.52112C9.05288 7.52112 9.06903 7.51838 9.0874 7.50825C9.1016 7.50059 9.11233 7.49073 9.12569 7.4828C9.14263 7.47185 9.16357 7.46172 9.18314 7.45707C9.20526 7.45707 9.22119 7.45488 9.23101 7.46555C9.24456 7.47431 9.25368 7.48909 9.25973 7.50825C9.26416 7.53042 9.26586 7.5452 9.25494 7.55943C9.24683 7.57613 9.245 7.58243 9.25494 7.60213C9.26608 7.61609 9.28263 7.61773 9.3076 7.62348C9.32386 7.6228 9.33996 7.61995 9.35547 7.615" stroke="#DB161B" stroke-width="0.015054"/>
<path fill-rule="evenodd" clip-rule="evenodd" d="M6.3172 5.0162C5.73283 4.00736 5.34498 3.1489 5.45173 3.09985C5.5582 3.05083 6.11876 3.82969 6.70312 4.83839L6.3172 5.0162Z" fill="white" stroke="#DB161B" stroke-width="0.0203913"/>
<path fill-rule="evenodd" clip-rule="evenodd" d="M6.35923 4.99761C5.79566 4.02438 5.40727 3.20279 5.49239 3.16357C5.57751 3.12434 6.10413 3.88227 6.66797 4.85536" fill="white"/>
<path d="M6.35922 4.99761C5.79566 4.02438 5.40727 3.20279 5.49239 3.16357C5.57751 3.12434 6.10413 3.88227 6.66797 4.85536" stroke="#DB161B" stroke-width="0.0179279"/>
<path fill-rule="evenodd" clip-rule="evenodd" d="M6.45612 4.49023C6.52482 4.60402 6.59735 4.73405 6.66797 4.85569L6.35923 4.99794C6.28888 4.87619 6.21197 4.74804 6.14765 4.63237L6.45612 4.49023Z" fill="white" stroke="#DB161B" stroke-width="0.0203457"/>
<path fill-rule="evenodd" clip-rule="evenodd" d="M6.42661 4.5293C6.49504 4.64308 6.54294 4.73014 6.61328 4.85178L6.382 4.95834C6.31138 4.83675 6.25938 4.75158 6.19505 4.63591L6.42661 4.5293Z" fill="white" stroke="#DB161B" stroke-width="0.0203457"/>
<path d="M6.25781 4.66211L6.41213 4.59105L6.54912 4.82753L6.3948 4.89859L6.25781 4.66211Z" fill="white" stroke="#DB161B" stroke-width="0.0203913"/>
<path fill-rule="evenodd" clip-rule="evenodd" d="M6.25955 4.66171L6.55078 4.82711L6.25955 4.66171ZM6.39668 4.89814L6.41393 4.59063L6.39668 4.89814ZM5.56214 3.4578L5.71652 3.38672L5.56214 3.4578Z" fill="white"/>
<path d="M6.25955 4.66171L6.55078 4.82711M6.39668 4.89814L6.41393 4.59063M5.56214 3.4578L5.71652 3.38672" stroke="#DB161B" stroke-width="0.0203457"/>
<path d="M5.56295 3.34713C5.587 3.3532 5.61089 3.34101 5.61632 3.31992C5.62175 3.29882 5.60665 3.27681 5.5826 3.27074C5.55856 3.26468 5.53466 3.27687 5.52924 3.29796C5.52381 3.31906 5.5389 3.34107 5.56295 3.34713Z" fill="#DB161B" stroke="#DB161B" stroke-width="0.0263887"/>
<path fill-rule="evenodd" clip-rule="evenodd" d="M6.77181 4.47656C6.77181 5.32347 6.77674 5.64262 6.71433 5.68641C6.65521 5.73322 5.00781 5.68641 5.00781 5.92837C5.00781 6.17033 6.36481 6.41229 6.77181 6.41229C7.31458 6.41229 7.5861 6.17033 7.5861 5.68641V4.47656H6.77181Z" fill="white" stroke="#DB161B" stroke-width="0.0185666"/>
<path fill-rule="evenodd" clip-rule="evenodd" d="M6.77344 4.71852V4.8395C7.04337 4.87985 7.31779 4.87985 7.58772 4.8395V4.71852C7.31779 4.75887 7.04337 4.75887 6.77344 4.71852ZM6.77344 4.47656V4.59754C7.04337 4.63786 7.31779 4.63786 7.58772 4.59754V4.47656C7.31779 4.51688 7.04337 4.51688 6.77344 4.47656Z" fill="white" stroke="#DB161B" stroke-width="0.0160576"/>
<path fill-rule="evenodd" clip-rule="evenodd" d="M6.77344 4.59766V4.71864C7.04337 4.75898 7.31779 4.75898 7.58772 4.71864V4.59766C7.31779 4.63797 7.04337 4.63797 6.77344 4.59766ZM6.77344 4.83962V4.96065C7.04496 5.00088 7.3162 5.00088 7.58772 4.96065V4.83962C7.31779 4.87996 7.04337 4.87996 6.77344 4.83962Z" fill="white" stroke="#DB161B" stroke-width="0.0160576"/>
<path d="M6.81044 4.69282C6.83088 4.69282 6.84745 4.68114 6.84745 4.66672C6.84745 4.65231 6.83088 4.64062 6.81044 4.64062C6.79001 4.64062 6.77344 4.65231 6.77344 4.66672C6.77344 4.68114 6.79001 4.69282 6.81044 4.69282Z" fill="white" stroke="#DB161B" stroke-width="0.0150665"/>
<path d="M6.95888 4.70454C6.97932 4.70454 6.99589 4.69286 6.99589 4.67844C6.99589 4.66403 6.97932 4.65234 6.95888 4.65234C6.93844 4.65234 6.92188 4.66403 6.92188 4.67844C6.92188 4.69286 6.93844 4.70454 6.95888 4.70454Z" fill="white" stroke="#DB161B" stroke-width="0.0150665"/>
<path d="M7.10732 4.71821C7.12776 4.71821 7.14432 4.70653 7.14432 4.69211C7.14432 4.6777 7.12776 4.66602 7.10732 4.66602C7.08688 4.66602 7.07031 4.6777 7.07031 4.69211C7.07031 4.70653 7.08688 4.71821 7.10732 4.71821Z" fill="white" stroke="#DB161B" stroke-width="0.0150665"/>
<path d="M7.25576 4.71821C7.27619 4.71821 7.29276 4.70653 7.29276 4.69211C7.29276 4.6777 7.27619 4.66602 7.25576 4.66602C7.23532 4.66602 7.21875 4.6777 7.21875 4.69211C7.21875 4.70653 7.23532 4.71821 7.25576 4.71821Z" fill="white" stroke="#DB161B" stroke-width="0.0150665"/>
<path d="M7.40419 4.70454C7.42463 4.70454 7.4412 4.69286 7.4412 4.67844C7.4412 4.66403 7.42463 4.65234 7.40419 4.65234C7.38376 4.65234 7.36719 4.66403 7.36719 4.67844C7.36719 4.69286 7.38376 4.70454 7.40419 4.70454Z" fill="white" stroke="#DB161B" stroke-width="0.0150665"/>
<path d="M7.55263 4.69282C7.57307 4.69282 7.58964 4.68114 7.58964 4.66672C7.58964 4.65231 7.57307 4.64062 7.55263 4.64062C7.53219 4.64062 7.51562 4.65231 7.51562 4.66672C7.51562 4.68114 7.53219 4.69282 7.55263 4.69282Z" fill="white" stroke="#DB161B" stroke-width="0.0150665"/>
<path fill-rule="evenodd" clip-rule="evenodd" d="M6.7727 5.08203L7.58698 5.73537L6.7727 5.08203ZM6.85399 5.08203L7.58698 5.66257L6.85399 5.08203ZM6.96265 5.10612L7.58698 5.59004L6.96265 5.10612ZM7.04422 5.10612L7.58698 5.5175L7.04422 5.10612ZM7.12551 5.10612L7.58698 5.44497L7.12551 5.10612ZM7.2068 5.10612L7.58698 5.37244L7.2068 5.10612ZM7.28837 5.10612L7.58698 5.29963L7.28837 5.10612ZM7.36966 5.10612L7.58698 5.25146L7.36966 5.10612ZM7.45122 5.10612L7.58698 5.20301L7.45122 5.10612ZM7.53251 5.10612L7.58698 5.15456L7.53251 5.10612ZM6.7727 5.15456L7.58698 5.80791L6.7727 5.15456ZM7.58698 5.08203L6.69141 5.80791L7.58698 5.08203ZM7.50542 5.08203L6.7185 5.71101L7.50542 5.08203ZM7.39703 5.10612L6.7727 5.59004L7.39703 5.10612ZM7.31546 5.10612L6.7727 5.5175L7.31546 5.10612ZM7.23417 5.10612L6.7727 5.44497L7.23417 5.10612ZM7.15261 5.10612L6.7727 5.37244L7.15261 5.10612ZM7.07131 5.10612L6.7727 5.29963L7.07131 5.10612ZM6.98975 5.10612L6.7727 5.25146L6.98975 5.10612ZM6.90846 5.10612L6.7727 5.20301L6.90846 5.10612ZM6.82689 5.10612L6.7727 5.15456L6.82689 5.10612ZM7.58698 5.15456L6.69141 5.88044L7.58698 5.15456ZM7.58698 5.2271L6.69141 5.95297L7.58698 5.2271ZM7.58698 5.29963L6.69141 6.02578L7.58698 5.29963ZM7.58698 5.37244L6.69141 6.09831L7.58698 5.37244ZM7.58698 5.44497L6.69141 6.17085L7.58698 5.44497ZM7.58698 5.5175L6.69141 6.24338L7.58698 5.5175ZM7.58698 5.59004L6.69141 6.31591L7.58698 5.59004ZM7.58698 5.66284L6.69141 6.38872L7.58698 5.66284ZM7.58698 5.73537L6.7456 6.4128L7.58698 5.73537ZM7.58698 5.80791L6.82689 6.4128L7.58698 5.80791ZM7.55961 5.9048L6.96265 6.38872L7.55961 5.9048ZM7.53251 6.00142L7.04422 6.38872L7.53251 6.00142ZM7.47832 6.1224L7.23417 6.31591L7.47832 6.1224ZM6.7727 5.2271L7.55961 5.85635L6.7727 5.2271ZM6.7727 5.29963L7.55961 5.92889L6.7727 5.29963ZM6.7727 5.37244L7.53251 5.97733L6.7727 5.37244ZM6.7727 5.44497L7.53251 6.04987L6.7727 5.44497ZM6.7727 5.5175L7.50542 6.09831L6.7727 5.5175ZM6.7456 5.56595L7.47832 6.14676L6.7456 5.56595ZM6.7456 5.63848L7.42413 6.17085L6.7456 5.63848ZM6.7185 5.68693L7.39703 6.21929L6.7185 5.68693ZM6.69141 5.73537L7.34256 6.24338L6.69141 5.73537ZM6.69141 5.80791L7.31546 6.29183L6.69141 5.80791ZM6.69141 5.88044L7.23417 6.31591L6.69141 5.88044Z" fill="white"/>
<path d="M6.7727 5.08203L7.58698 5.73537L6.7456 6.4128M6.85399 5.08203L7.58698 5.66257M6.96265 5.10612L7.58698 5.59004L6.69141 6.31591M7.04422 5.10612L7.58698 5.5175L6.69141 6.24338M7.12551 5.10612L7.58698 5.44497L6.69141 6.17085M7.2068 5.10612L7.58698 5.37244L6.69141 6.09831M7.28837 5.10612L7.58698 5.29963L6.69141 6.02578M7.36966 5.10612L7.58698 5.25146M7.45122 5.10612L7.58698 5.20301M7.53251 5.10612L7.58698 5.15456L6.69141 5.88044L7.23417 6.31591L7.47832 6.1224M7.58698 5.08203L6.69141 5.80791L7.31546 6.29183M7.50542 5.08203L6.7185 5.71101M7.39703 5.10612L6.7727 5.59004M7.31546 5.10612L6.7727 5.5175L7.50542 6.09831M7.23417 5.10612L6.7727 5.44497L7.53251 6.04987M7.15261 5.10612L6.7727 5.37244L7.53251 5.97733M7.07131 5.10612L6.7727 5.29963L7.55961 5.92889M6.98975 5.10612L6.7727 5.25146M6.90846 5.10612L6.7727 5.20301M6.82689 5.10612L6.7727 5.15456L7.58698 5.80791L6.82689 6.4128M7.58698 5.2271L6.69141 5.95297M7.58698 5.66284L6.69141 6.38872M7.55961 5.9048L6.96265 6.38872M7.53251 6.00142L7.04422 6.38872M6.7727 5.2271L7.55961 5.85635M6.7456 5.56595L7.47832 6.14676M6.7456 5.63848L7.42413 6.17085M6.7185 5.68693L7.39703 6.21929M6.69141 5.73537L7.34256 6.24338" stroke="#DB161B" stroke-width="0.0160576"/>
<path fill-rule="evenodd" clip-rule="evenodd" d="M6.7727 4.96094V5.08192C7.04422 5.12215 7.31546 5.12215 7.58698 5.08192V4.96094C7.31546 5.00117 7.04422 5.00117 6.7727 4.96094ZM6.69141 5.95286L7.1797 6.34016L6.69141 5.95286ZM6.69141 6.02567L7.12551 6.36424L6.69141 6.02567ZM6.69141 6.0982L7.07131 6.3886L6.69141 6.0982ZM6.69141 6.17073L6.96265 6.3886L6.69141 6.17073ZM6.69141 6.24326L6.90846 6.41269L6.69141 6.24326ZM6.69141 6.3158L6.82689 6.41269L6.69141 6.3158Z" fill="white"/>
<path d="M6.69141 5.95286L7.1797 6.34016M6.69141 6.02567L7.12551 6.36424M6.69141 6.0982L7.07131 6.3886M6.69141 6.17073L6.96265 6.3886M6.69141 6.24326L6.90846 6.41269M6.69141 6.3158L6.82689 6.41269M6.7727 4.96094V5.08192C7.04422 5.12215 7.31546 5.12215 7.58698 5.08192V4.96094C7.31546 5.00117 7.04422 5.00117 6.7727 4.96094Z" stroke="#DB161B" stroke-width="0.0160576"/>
<path d="M6.81044 5.05415C6.83088 5.05415 6.84745 5.04247 6.84745 5.02805C6.84745 5.01364 6.83088 5.00195 6.81044 5.00195C6.79001 5.00195 6.77344 5.01364 6.77344 5.02805C6.77344 5.04247 6.79001 5.05415 6.81044 5.05415Z" fill="white" stroke="#DB161B" stroke-width="0.0150665"/>
<path d="M6.95888 5.06782C6.97932 5.06782 6.99589 5.05614 6.99589 5.04172C6.99589 5.02731 6.97932 5.01562 6.95888 5.01562C6.93844 5.01562 6.92188 5.02731 6.92188 5.04172C6.92188 5.05614 6.93844 5.06782 6.95888 5.06782Z" fill="white" stroke="#DB161B" stroke-width="0.0150665"/>
<path d="M7.10732 5.08149C7.12776 5.08149 7.14432 5.06981 7.14432 5.0554C7.14432 5.04098 7.12776 5.0293 7.10732 5.0293C7.08688 5.0293 7.07031 5.04098 7.07031 5.0554C7.07031 5.06981 7.08688 5.08149 7.10732 5.08149Z" fill="white" stroke="#DB161B" stroke-width="0.0150665"/>
<path d="M7.25576 5.08149C7.27619 5.08149 7.29276 5.06981 7.29276 5.0554C7.29276 5.04098 7.27619 5.0293 7.25576 5.0293C7.23532 5.0293 7.21875 5.04098 7.21875 5.0554C7.21875 5.06981 7.23532 5.08149 7.25576 5.08149Z" fill="white" stroke="#DB161B" stroke-width="0.0150665"/>
<path d="M7.40419 5.06782C7.42463 5.06782 7.4412 5.05614 7.4412 5.04172C7.4412 5.02731 7.42463 5.01562 7.40419 5.01562C7.38376 5.01562 7.36719 5.02731 7.36719 5.04172C7.36719 5.05614 7.38376 5.06782 7.40419 5.06782Z" fill="white" stroke="#DB161B" stroke-width="0.0150665"/>
<path d="M7.55263 5.05415C7.57307 5.05415 7.58964 5.04247 7.58964 5.02805C7.58964 5.01364 7.57307 5.00195 7.55263 5.00195C7.53219 5.00195 7.51562 5.01364 7.51562 5.02805C7.51562 5.04247 7.53219 5.05415 7.55263 5.05415Z" fill="white" stroke="#DB161B" stroke-width="0.0150665"/>
<path fill-rule="evenodd" clip-rule="evenodd" d="M5.60814 6.21726L6.58515 5.70898L5.60814 6.21726ZM5.55387 6.1929L6.47648 5.70898L5.55387 6.1929ZM5.52674 6.14473L6.3681 5.70898L5.52674 6.14473ZM5.49959 6.09628L6.23234 5.70898L5.49959 6.09628ZM5.44531 6.04784L6.12367 5.70898L5.44531 6.04784ZM5.47246 5.9753L5.93372 5.73334L5.47246 5.9753ZM5.44531 5.92686L5.79812 5.73334L5.44531 5.92686ZM5.44531 5.85432L5.68957 5.73334L5.44531 5.85432ZM5.68957 6.24135L6.61224 5.75743L5.68957 6.24135ZM5.77097 6.26571L6.63934 5.80588L5.77097 6.26571ZM5.85243 6.28979L6.66644 5.85432L5.85243 6.28979ZM5.93372 6.31388L6.61224 5.95094L5.93372 6.31388ZM6.04238 6.31388L6.63934 5.99939L6.04238 6.31388ZM6.12367 6.33824L6.63934 6.07192L6.12367 6.33824ZM6.20524 6.36233L6.61224 6.14473L6.20524 6.36233ZM6.31363 6.36233L6.63934 6.1929L6.31363 6.36233ZM6.42229 6.38669L6.63934 6.26571L6.42229 6.38669ZM6.53095 6.38669L6.66644 6.31388L6.53095 6.38669Z" fill="white"/>
<path d="M5.60814 6.21726L6.58515 5.70898M5.55387 6.1929L6.47648 5.70898M5.52674 6.14473L6.3681 5.70898M5.49959 6.09628L6.23234 5.70898M5.44531 6.04784L6.12367 5.70898M5.47246 5.9753L5.93372 5.73334M5.44531 5.92686L5.79812 5.73334M5.44531 5.85432L5.68957 5.73334M5.68957 6.24135L6.61224 5.75743M5.77097 6.26571L6.63934 5.80588M5.85243 6.28979L6.66644 5.85432M5.93372 6.31388L6.61224 5.95094M6.04238 6.31388L6.63934 5.99939M6.12367 6.33824L6.63934 6.07192M6.20524 6.36233L6.61224 6.14473M6.31363 6.36233L6.63934 6.1929M6.42229 6.38669L6.63934 6.26571M6.53095 6.38669L6.66644 6.31388" stroke="#DB161B" stroke-width="0.0160576"/>
<path fill-rule="evenodd" clip-rule="evenodd" d="M6.71844 5.68555H6.58268C6.53752 5.9254 6.53752 6.17157 6.58268 6.41142H6.71844C6.673 6.1716 6.673 5.92537 6.71844 5.68555ZM5.11719 6.0244L5.44285 5.78244L5.11719 6.0244ZM5.11719 5.85497L5.44285 6.14538L5.11719 5.85497Z" fill="white"/>
<path d="M5.11719 6.0244L5.44285 5.78244M5.11719 5.85497L5.44285 6.14538M6.71844 5.68555H6.58268C6.53752 5.9254 6.53752 6.17157 6.58268 6.41142H6.71844C6.673 6.1716 6.673 5.92537 6.71844 5.68555Z" stroke="#DB161B" stroke-width="0.0160576"/>
<path fill-rule="evenodd" clip-rule="evenodd" d="M5.60794 5.73438L5.44511 5.75846C5.40892 5.91174 5.40892 6.04066 5.44511 6.19393L5.60794 6.24238C5.57175 6.0891 5.57175 5.88765 5.60794 5.73438Z" fill="white" stroke="#DB161B" stroke-width="0.0114502"/>
<path fill-rule="evenodd" clip-rule="evenodd" d="M7.58663 4.52501V4.40302C7.46483 4.40403 7.38326 4.33144 7.38326 4.25781L6.9768 4.25883C6.9768 4.33144 6.89551 4.40403 6.77344 4.40403V4.52501H7.58663Z" fill="white" stroke="#DB161B" stroke-width="0.0196614"/>
<path d="M7.00781 4.11262H7.35635V4.25779H7.00781V4.11262ZM7.03683 3.96744H7.32729V4.11262H7.03683V3.96744ZM7.03683 3.82227H7.32729V3.96744H7.03683V3.82227Z" fill="white"/>
<path d="M7.03683 3.96744H7.32729M7.03683 3.96744V4.11262H7.32729V3.96744M7.03683 3.96744V3.82227H7.32729V3.96744M7.00781 4.11262H7.35635V4.25779H7.00781V4.11262Z" stroke="#DB161B" stroke-width="0.016605"/>
<path d="M7.0625 3.62891H7.29485V3.82247H7.0625V3.62891Z" fill="white" stroke="#DB161B" stroke-width="0.016605"/>
<path d="M7.05469 3.45898H7.30707V3.62836H7.05469V3.45898Z" fill="white" stroke="#DB161B" stroke-width="0.0173349"/>
<path d="M7.1959 3.53201C7.38176 3.53201 7.53243 3.42909 7.53243 3.30214C7.53243 3.17518 7.38176 3.07227 7.1959 3.07227C7.01004 3.07227 6.85938 3.17518 6.85938 3.30214C6.85938 3.42909 7.01004 3.53201 7.1959 3.53201Z" fill="white" stroke="#DB161B" stroke-width="0.0163332"/>
<path fill-rule="evenodd" clip-rule="evenodd" d="M7.3621 3.29003C7.3621 3.3535 7.44613 3.45943 7.44613 3.45943C7.38509 3.50103 7.28655 3.53201 7.19377 3.53201C7.10098 3.53201 6.9852 3.51474 6.94141 3.45943C6.94141 3.45943 7.02543 3.3535 7.02543 3.29003C7.02543 3.22658 6.94141 3.14485 6.94141 3.14485C7.00217 3.10325 7.10098 3.07227 7.19377 3.07227C7.28655 3.07227 7.38509 3.10325 7.44613 3.14485C7.44613 3.14485 7.3621 3.22658 7.3621 3.29003Z" fill="white" stroke="#DB161B" stroke-width="0.0163313"/>
<path fill-rule="evenodd" clip-rule="evenodd" d="M7.30847 3.29003C7.30847 3.3535 7.3925 3.48362 7.3925 3.48362C7.33174 3.52523 7.28904 3.53201 7.19625 3.53201C7.10346 3.53201 7.04379 3.53894 7 3.48362C7 3.48362 7.08403 3.3535 7.08403 3.29003C7.08403 3.22658 7 3.12066 7 3.12066C7.06076 3.07905 7.10346 3.07227 7.19625 3.07227C7.28904 3.07227 7.33174 3.07905 7.3925 3.12066C7.3925 3.12066 7.30847 3.22658 7.30847 3.29003Z" fill="white" stroke="#DB161B" stroke-width="0.0163313"/>
<path d="M6.85757 3.38737C6.90403 3.38737 6.9417 3.35487 6.9417 3.31478C6.9417 3.27469 6.90403 3.24219 6.85757 3.24219C6.8111 3.24219 6.77344 3.27469 6.77344 3.31478C6.77344 3.35487 6.8111 3.38737 6.85757 3.38737Z" fill="white" stroke="#DB161B" stroke-width="0.0163332"/>
<path d="M7.52944 3.38737C7.57591 3.38737 7.61358 3.35487 7.61358 3.31478C7.61358 3.27469 7.57591 3.24219 7.52944 3.24219C7.48298 3.24219 7.44531 3.27469 7.44531 3.31478C7.44531 3.35487 7.48298 3.38737 7.52944 3.38737Z" fill="white" stroke="#DB161B" stroke-width="0.0163332"/>
<path d="M7.19351 3.38737C7.23997 3.38737 7.27764 3.35487 7.27764 3.31478C7.27764 3.27469 7.23997 3.24219 7.19351 3.24219C7.14704 3.24219 7.10938 3.27469 7.10938 3.31478C7.10938 3.35487 7.14704 3.38737 7.19351 3.38737Z" fill="white" stroke="#DB161B" stroke-width="0.0163332"/>
<path d="M7.19351 3.14519C7.23997 3.14519 7.27764 3.11268 7.27764 3.07259C7.27764 3.0325 7.23997 3 7.19351 3C7.14704 3 7.10938 3.0325 7.10938 3.07259C7.10938 3.11268 7.14704 3.14519 7.19351 3.14519Z" fill="white" stroke="#DB161B" stroke-width="0.0163332"/>
<path d="M6.94651 4.52409C6.99463 4.52409 7.03364 4.49159 7.03364 4.4515C7.03364 4.41141 6.99463 4.37891 6.94651 4.37891C6.89839 4.37891 6.85938 4.41141 6.85938 4.4515C6.85938 4.49159 6.89839 4.52409 6.94651 4.52409Z" fill="white" stroke="#DB161B" stroke-width="0.0166222"/>
<path d="M7.41135 4.52409C7.45948 4.52409 7.49849 4.49159 7.49849 4.4515C7.49849 4.41141 7.45948 4.37891 7.41135 4.37891C7.36323 4.37891 7.32422 4.41141 7.32422 4.4515C7.32422 4.49159 7.36323 4.52409 7.41135 4.52409Z" fill="white" stroke="#DB161B" stroke-width="0.0166222"/>
<path fill-rule="evenodd" clip-rule="evenodd" d="M6.97656 4.25781H7.38302L7.17993 4.4756L6.97656 4.25781Z" fill="white" stroke="#DB161B" stroke-width="0.016605"/>
<path d="M7.17868 4.52365C7.24284 4.52365 7.29486 4.48032 7.29486 4.42687C7.29486 4.37341 7.24284 4.33008 7.17868 4.33008C7.11452 4.33008 7.0625 4.37341 7.0625 4.42687C7.0625 4.48032 7.11452 4.52365 7.17868 4.52365Z" fill="white" stroke="#DB161B" stroke-width="0.0221627"/>
<path d="M7.32468 5.1543H6.76826C6.74955 5.1543 6.73438 5.16579 6.73438 5.17997V5.2738C6.73438 5.28798 6.74955 5.29947 6.76826 5.29947H7.32468C7.3434 5.29947 7.35857 5.28798 7.35857 5.2738V5.17997C7.35857 5.16579 7.3434 5.1543 7.32468 5.1543Z" fill="white" stroke="#DB161B" stroke-width="0.015054"/>
<path fill-rule="evenodd" clip-rule="evenodd" d="M7.54841 5.0319C7.47314 5.0319 7.41265 5.08828 7.41265 5.15835V5.26838C7.41265 5.33845 7.47314 5.39484 7.54841 5.39484C7.62368 5.39484 7.68417 5.33845 7.68417 5.26838V5.15835C7.68417 5.08828 7.62368 5.0319 7.54841 5.0319ZM7.54841 5.08035C7.50325 5.08035 7.46685 5.12551 7.46685 5.18162V5.24539C7.46685 5.3015 7.50325 5.34639 7.54841 5.34639C7.59357 5.34639 7.6297 5.3015 7.6297 5.24539V5.18162C7.6297 5.12551 7.59357 5.08035 7.54841 5.08035ZM6.84279 5.05626C6.79763 5.05626 6.7615 5.10115 6.7615 5.15726V5.26948C6.7615 5.32559 6.79763 5.37075 6.84279 5.37075C6.88795 5.37075 6.92408 5.32559 6.92408 5.26948V5.15726C6.92408 5.10115 6.88795 5.05626 6.84279 5.05626ZM6.84279 5.00781C6.76752 5.00781 6.70703 5.0642 6.70703 5.13427V5.29274C6.70703 5.36281 6.76752 5.4192 6.84279 5.4192C6.91806 5.4192 6.97855 5.36281 6.97855 5.29274V5.13427C6.97855 5.0642 6.91806 5.00781 6.84279 5.00781Z" fill="white" stroke="#DB161B" stroke-width="0.015054"/>
<path fill-rule="evenodd" clip-rule="evenodd" d="M6.62404 5.10481C6.57888 5.10481 6.54248 5.14998 6.54248 5.20609V5.23236C6.54248 5.28847 6.57888 5.33363 6.62404 5.33363C6.6692 5.33363 6.70533 5.28847 6.70533 5.23236V5.20609C6.70533 5.14998 6.6692 5.10481 6.62404 5.10481ZM6.62404 5.05664C6.54877 5.05664 6.48828 5.11302 6.48828 5.18309V5.25563C6.48828 5.3257 6.54877 5.38208 6.62404 5.38208C6.69904 5.38208 6.7598 5.3257 6.7598 5.25563V5.18309C6.7598 5.11302 6.69904 5.05664 6.62404 5.05664Z" fill="white" stroke="#DB161B" stroke-width="0.015054"/>
<path fill-rule="evenodd" clip-rule="evenodd" d="M6.29884 5.03857C6.21754 5.03857 6.1524 5.08893 6.1524 5.15161V5.27697C6.1524 5.33965 6.21754 5.39001 6.29884 5.39001C6.38013 5.39001 6.44527 5.33965 6.44527 5.27697V5.15161C6.44527 5.08893 6.38013 5.03857 6.29884 5.03857ZM6.29884 4.98438C6.16362 4.98438 6.05469 5.0476 6.05469 5.12588V5.30297C6.05469 5.38125 6.16362 5.44421 6.29884 5.44421C6.43405 5.44421 6.54298 5.38125 6.54298 5.30297V5.12588C6.54298 5.0476 6.43405 4.98438 6.29884 4.98438ZM8.06289 5.06266C7.9816 5.06266 7.91618 5.11329 7.91618 5.17597V5.30133C7.91618 5.36401 7.9816 5.41437 8.06289 5.41437C8.14391 5.41437 8.20933 5.36401 8.20933 5.30133V5.17597C8.20933 5.11329 8.14391 5.06266 8.06289 5.06266ZM8.06289 5.00874C7.9274 5.00874 7.81847 5.07169 7.81847 5.14997V5.32706C7.81847 5.40534 7.9274 5.46829 8.06289 5.46829C8.1981 5.46829 8.30704 5.40534 8.30704 5.32706V5.14997C8.30704 5.07169 8.1981 5.00874 8.06289 5.00874Z" fill="white" stroke="#DB161B" stroke-width="0.015054"/>
<path d="M7.90954 5.1543H7.61924C7.60948 5.1543 7.60156 5.16579 7.60156 5.17997V5.2738C7.60156 5.28798 7.60948 5.29947 7.61924 5.29947H7.90954C7.91931 5.29947 7.92722 5.28798 7.92722 5.2738V5.17997C7.92722 5.16579 7.91931 5.1543 7.90954 5.1543Z" fill="white" stroke="#DB161B" stroke-width="0.015054"/>
<path d="M7.48435 5.12891H7.31501C7.30931 5.12891 7.30469 5.14424 7.30469 5.16315V5.28823C7.30469 5.30714 7.30931 5.32247 7.31501 5.32247H7.48435C7.49005 5.32247 7.49467 5.30714 7.49467 5.28823V5.16315C7.49467 5.14424 7.49005 5.12891 7.48435 5.12891Z" fill="white" stroke="#DB161B" stroke-width="0.015054"/>
<path d="M6.58591 5.12891H6.41657C6.41087 5.12891 6.40625 5.14424 6.40625 5.16315V5.28823C6.40625 5.30714 6.41087 5.32247 6.41657 5.32247H6.58591C6.59161 5.32247 6.59623 5.30714 6.59623 5.28823V5.16315C6.59623 5.14424 6.59161 5.12891 6.58591 5.12891Z" fill="white" stroke="#DB161B" stroke-width="0.015054"/>
<path d="M6.17183 5.10547H5.83311C5.82173 5.10547 5.8125 5.12462 5.8125 5.14825V5.30465C5.8125 5.32827 5.82173 5.34743 5.83311 5.34743H6.17183C6.18321 5.34743 6.19244 5.32827 6.19244 5.30465V5.14825C6.19244 5.12462 6.18321 5.10547 6.17183 5.10547Z" fill="white" stroke="#DB161B" stroke-width="0.015054"/>
<path d="M8.50553 5.12891H8.19103C8.18045 5.12891 8.17188 5.14806 8.17188 5.17169V5.32808C8.17188 5.35171 8.18045 5.37087 8.19103 5.37087H8.50553C8.51611 5.37087 8.52469 5.35171 8.52469 5.32808V5.17169C8.52469 5.14806 8.51611 5.12891 8.50553 5.12891Z" fill="white" stroke="#DB161B" stroke-width="0.015054"/>
</g>
<defs>
<clipPath id="clip0_358_4573">
<rect width="24" height="24" rx="12" fill="white"/>
</clipPath>
</defs>
</svg>
