<svg width="24" height="24" viewBox="0 0 24 24" fill="none" xmlns="http://www.w3.org/2000/svg">
<g clip-path="url(#clip0_358_13816)">
<path d="M0.000781298 4.19922H24.0008V20.2035L-2.69922 32.9992L0.000781298 4.19922Z" fill="black"/>
<path d="M0 4.19922L25.8 -12.3008L24 20.2035L0 4.19922Z" fill="#CE1126"/>
<path d="M14.1766 8.57961C14.0189 8.78318 13.646 8.37485 13.1992 8.36552C12.7524 8.35619 12.4359 8.79368 12.3056 8.94263C12.1753 9.09158 11.7565 9.87342 11.7658 9.9572C11.7751 10.041 12.0264 9.7245 12.1195 9.66866C12.1288 9.78035 12.0171 9.91067 12.045 9.9479C12.0729 9.98512 12.3708 9.7245 12.4732 9.71521C12.5011 9.78968 12.4173 9.86412 12.4453 9.97582C12.4825 10.013 12.6501 9.78965 12.7617 9.74313C12.7803 9.8269 12.6593 9.98515 12.7245 10.0875C12.771 10.0968 13.0503 9.77105 13.1434 9.7338C13.2365 9.69655 13.0968 10.041 13.1434 10.0689C13.2271 10.013 13.4878 9.71518 13.5715 9.67795C13.6553 9.64073 13.5622 10.0596 13.5995 10.0596C13.7018 9.98512 13.9625 9.63143 13.9904 9.57558C14.0183 9.51974 13.9625 10.1154 14.251 10.4319C14.5396 10.7484 14.9771 11.1114 15.0236 11.1114C15.0795 11.009 15.005 10.7949 15.0515 10.8042C15.1818 10.9439 15.4238 11.1486 15.4797 11.1486C15.5355 11.1486 15.4424 10.9252 15.5169 10.9252C15.6659 11.0649 16.094 11.614 16.9317 11.8654C16.8759 11.7071 16.7549 11.5675 16.7456 11.4931C16.8014 11.5024 16.9969 11.5954 17.0341 11.5861C17.0714 11.5768 16.6246 11.0276 16.6525 10.9532C16.7549 10.9439 16.8014 11.009 16.8387 10.9625C16.7921 10.888 16.4012 10.4505 16.4012 10.3481C16.4012 10.2457 16.5222 10.3668 16.5594 10.3481C16.5967 10.3295 16.4105 9.93857 16.4477 9.89205C16.485 9.84553 16.8945 10.1434 16.9969 10.1434C17.0993 10.1434 17.0248 9.78035 17.0714 9.76173C17.1179 9.7431 17.4623 9.9572 17.5368 9.9572C17.6112 9.9572 17.6019 9.79895 17.6298 9.81758C17.6578 9.8362 18.4676 10.646 18.1883 11.5954C17.9091 12.2749 17.3506 12.6379 16.5315 12.3401C16.578 12.4145 17.0155 12.7776 17.4902 12.6472C17.9649 12.5169 18.542 12.1446 18.4769 11.2138C18.4117 10.283 18.1045 10.1527 18.058 10.0131C18.0115 9.87345 18.1325 10.0503 18.2349 10.0875C18.3372 10.1248 18.2163 9.89205 18.1883 9.78965C18.1604 9.68725 18.4955 10.0037 18.5793 10.0317C18.663 10.0596 18.3838 9.26842 18.3 9.21257C18.2163 9.15672 18.3838 9.23117 18.4396 9.24979C18.4955 9.26842 17.9277 8.38414 17.8067 8.38414C17.6857 8.38414 17.9091 8.3376 17.9742 8.3376C18.0394 8.3376 17.3227 7.76049 17.2017 7.76049C17.0807 7.76049 17.4623 7.61154 17.4995 7.60224C17.5647 7.61154 16.6711 7.12753 15.8706 7.61154C15.8241 7.57434 16.2476 7.28114 16.2616 7.15548C16.2662 7.1229 16.122 7.05308 16.1126 7.01586C16.1033 6.97864 16.336 6.86694 16.3453 6.78317C16.2895 6.7087 16.1871 6.73662 16.1312 6.71802C16.1173 6.64821 16.3267 6.476 16.3081 6.40156C16.2942 6.35967 16.1405 6.34571 16.1033 6.37363C16.0661 6.40156 16.2011 6.17817 16.1778 6.11302C16.1592 6.08509 16.0847 6.10372 16.0102 6.12232C15.9637 6.11302 16.2523 5.71275 16.1964 5.65691C16.1406 5.60106 15.3587 6.06644 15.0701 6.5877C14.7816 7.10896 15.005 7.52782 14.9678 7.70467C14.9305 7.88151 14.884 8.05838 14.763 8.05838C14.642 8.05838 14.3628 7.87221 14.2697 7.77914C14.1766 7.68607 14.158 7.62089 14.0276 7.58367C13.8973 7.54645 13.5995 7.65815 13.4878 7.66744C13.3761 7.67674 12.9386 7.58367 12.9107 7.6116C12.8827 7.63952 13.3388 7.80706 13.4412 7.86291C13.5436 7.91876 13.553 7.99324 13.6274 8.03976C13.7018 8.08628 14.3999 8.29107 14.1766 8.57961ZM16.9038 9.89205C17.1272 10.1154 18.6351 11.1207 18.6351 12.3494C18.6351 13.578 17.5367 13.5408 17.2203 13.5036C17.574 13.8014 18.9144 13.7456 18.9144 12.3494C18.9144 11.1207 17.1831 9.89205 16.9597 9.78035C16.7363 9.66866 16.6804 9.66866 16.9038 9.89205Z" fill="#FCD116"/>
<path d="M5.33504 9.10742L5.5859 9.8291L6.34978 9.84467L5.74094 10.3063L5.96218 11.0376L5.33504 10.6012L4.70791 11.0376L4.92915 10.3063L4.32031 9.84467L5.08419 9.8291L5.33504 9.10742Z" fill="white"/>
<path d="M2.98739 12.3086L3.23824 13.0303L4.00212 13.0458L3.39328 13.5074L3.61453 14.2387L2.98739 13.8023L2.36025 14.2387L2.5815 13.5074L1.97266 13.0458L2.73653 13.0303L2.98739 12.3086Z" fill="white"/>
<path d="M5.33504 16.5762L5.5859 17.2979L6.34978 17.3134L5.74094 17.775L5.96218 18.5063L5.33504 18.0699L4.70791 18.5063L4.92915 17.775L4.32031 17.3134L5.08419 17.2979L5.33504 16.5762Z" fill="white"/>
<path d="M7.46786 12.0957L7.71871 12.8174L8.48259 12.8329L7.87375 13.2945L8.095 14.0258L7.46786 13.5894L6.84072 14.0258L7.06196 13.2945L6.45312 12.8329L7.217 12.8174L7.46786 12.0957Z" fill="white"/>
<path d="M6.4019 14.7617L6.52733 15.1226L6.90926 15.1303L6.60484 15.3611L6.71547 15.7268L6.4019 15.5086L6.08833 15.7268L6.19895 15.3611L5.89453 15.1303L6.27647 15.1226L6.4019 14.7617Z" fill="white"/>
</g>
<defs>
<clipPath id="clip0_358_13816">
<rect width="24" height="24" rx="12" fill="white"/>
</clipPath>
</defs>
</svg>
