<svg width="24" height="24" viewBox="0 0 24 24" fill="none" xmlns="http://www.w3.org/2000/svg">
<g clip-path="url(#clip0_358_5430)">
<path d="M1.80078 4.20078L3.60078 -16.1992L27.6008 -2.69922L25.8008 12.2008L5.53411 20.023L1.80078 4.20078Z" fill="#0038A8"/>
<path d="M5.53177 12.1992H25.7984V38.9991L-5.10156 28.4991L1.79844 20.1992L5.53177 12.1992Z" fill="#CE1126"/>
<path d="M15.6571 12.2008L1.80078 20.2008L0.000782013 38.4008L-10.1992 2.10078L1.80078 -11.6992V4.20078L15.6571 12.2008Z" fill="white"/>
<path d="M6.77578 13.7996C7.65944 13.7996 8.37578 13.0833 8.37578 12.1996C8.37578 11.316 7.65944 10.5996 6.77578 10.5996C5.89213 10.5996 5.17578 11.316 5.17578 12.1996C5.17578 13.0833 5.89213 13.7996 6.77578 13.7996Z" fill="#FCD116"/>
<path d="M6.78124 12.2L6.21875 9.37178L6.38675 9.2036L6.78124 12.2ZM6.78124 12.2L6.57342 9.03009L6.78124 8.82227L6.98906 9.03009L6.78124 12.2ZM6.78124 12.2L7.17573 9.2036L7.34373 9.37178L6.78124 12.2Z" fill="#FCD116"/>
<path d="M6.78126 12.2003L7.34375 15.0286L7.17575 15.1968L6.78126 12.2003ZM6.78126 12.2003L6.98908 15.3703L6.78126 15.5781L6.57344 15.3703L6.78126 12.2003ZM6.78126 12.2003L6.38677 15.1968L6.21877 15.0286L6.78126 12.2003Z" fill="#FCD116"/>
<path d="M6.77847 12.1992L9.60674 11.6367L9.77492 11.8047L6.77847 12.1992ZM6.77847 12.1992L9.94843 11.9914L10.1562 12.1992L9.94843 12.407L6.77847 12.1992ZM6.77847 12.1992L9.77492 12.5937L9.60674 12.7617L6.77847 12.1992Z" fill="#FCD116"/>
<path d="M6.77622 12.1992L3.94795 12.7617L3.77977 12.5937L6.77622 12.1992ZM6.77622 12.1992L3.60626 12.4071L3.39844 12.1992L3.60626 11.9914L6.77622 12.1992ZM6.77622 12.1992L3.77977 11.8047L3.94795 11.6367L6.77622 12.1992Z" fill="#FCD116"/>
<path d="M6.78273 12.2003L8.38487 9.80263L8.62259 9.8025L6.78273 12.2003ZM6.78273 12.2003L8.87727 9.8118L9.17118 9.8118L9.17118 10.1057L6.78273 12.2003ZM6.78273 12.2003L9.18048 10.3604L9.18035 10.5981L6.78273 12.2003Z" fill="#FCD116"/>
<path d="M6.78368 12.2001L5.18153 14.5978L4.94382 14.5979L6.78368 12.2001ZM6.78368 12.2001L4.68913 14.5886L4.39523 14.5886L4.39523 14.2947L6.78368 12.2001ZM6.78368 12.2001L4.38593 14.04L4.38605 13.8023L6.78368 12.2001Z" fill="#FCD116"/>
<path d="M6.78022 12.2007L9.17784 13.8028L9.17797 14.0406L6.78022 12.2007ZM6.78022 12.2007L9.16867 14.2952L9.16867 14.5891L8.87476 14.5891L6.78022 12.2007ZM6.78022 12.2007L8.62008 14.5984L8.38236 14.5983L6.78022 12.2007Z" fill="#FCD116"/>
<path d="M6.78228 12.2016L4.38466 10.5995L4.38453 10.3618L6.78228 12.2016ZM6.78228 12.2016L4.39383 10.1071L4.39383 9.8132L4.68774 9.8132L6.78228 12.2016ZM6.78228 12.2016L4.94242 9.8039L5.18014 9.80402L6.78228 12.2016Z" fill="#FCD116"/>
<path d="M14.0572 12.2008L13.456 12.4099L13.443 13.0461L13.0585 12.5389L12.4492 12.7233L12.8128 12.2008L12.4492 11.6783L13.0585 11.8627L13.443 11.3555L13.456 11.9917L14.0572 12.2008Z" fill="#FCD116"/>
<path d="M2.60064 18.8137L2.7202 18.1884L2.17567 17.8591L2.80718 17.7796L2.95215 17.1598L3.22286 17.7359L3.85713 17.6823L3.39285 18.1178L3.63983 18.7044L3.08232 18.3975L2.60064 18.8137Z" fill="#FCD116"/>
<path d="M2.59996 5.58515L3.08163 6.00131L3.63915 5.69442L3.39217 6.28104L3.85644 6.71648L3.22218 6.66288L2.95147 7.23897L2.8065 6.61917L2.17499 6.53975L2.71952 6.21038L2.59996 5.58515Z" fill="#FCD116"/>
</g>
<defs>
<clipPath id="clip0_358_5430">
<rect width="24" height="24" rx="12" fill="white"/>
</clipPath>
</defs>
</svg>
