<svg width="24" height="24" viewBox="0 0 24 24" fill="none" xmlns="http://www.w3.org/2000/svg">
<g clip-path="url(#clip0_358_4659)">
<path d="M24 0H0V24H24V0Z" fill="white"/>
<path d="M24 -0.599609H6V25.2004H24V-0.599609Z" fill="#01411C"/>
<path d="M14.9992 16.8137C17.6502 16.8137 19.7992 14.6379 19.7992 11.9537C19.7992 9.26965 17.6502 7.09375 14.9992 7.09375C12.3483 7.09375 10.1992 9.26965 10.1992 11.9537C10.1992 14.6379 12.3483 16.8137 14.9992 16.8137Z" fill="white"/>
<path d="M19.1506 15.02C20.9669 13.3854 21.1305 10.5695 19.516 8.73054C17.9016 6.89159 15.1205 6.72595 13.3042 8.36057C11.488 9.99519 11.3244 12.8111 12.9388 14.65C14.5533 16.489 17.3344 16.6546 19.1506 15.02Z" fill="#01411C"/>
<path d="M16.7495 8.3179L18.7714 10.621L15.7987 9.96105L18.5868 8.72576L17.0483 11.3844L16.7495 8.3179Z" fill="white"/>
</g>
<defs>
<clipPath id="clip0_358_4659">
<rect width="24" height="24" rx="12" fill="white"/>
</clipPath>
</defs>
</svg>
