<svg width="24" height="24" viewBox="0 0 24 24" fill="none" xmlns="http://www.w3.org/2000/svg">
<g clip-path="url(#clip0_358_4666)">
<path d="M0.0359347 23.8113C0.0484319 23.6672 0.494166 23.2071 3.97256 19.7374L7.89251 15.8242H21.956H36.0196V19.8981V23.972H18.0194H0.0234375L0.0359347 23.8113Z" fill="#009639"/>
<path d="M4.04958 4.22319C0.89386 1.08046 0.0861945 0.249053 0.0861945 0.154826L0.0820312 0.0273438H18.0463H36.0107V4.10125V8.17515H22.0139H8.01297L4.04958 4.22319Z" fill="black"/>
<path d="M10.5586 15.9022C10.5586 15.8079 10.9554 15.3479 12.2972 13.8791C13.2496 12.8315 14.0319 11.9613 14.0319 11.9447C14.0319 11.928 13.2685 11.08 12.3349 10.0601C10.774 8.35298 10.638 8.19224 10.6342 8.03705C10.6342 7.91511 10.6455 7.89294 10.6795 7.94282C10.7136 7.99271 13.586 8.00933 23.3786 8.00933H36.0323V12.0001V15.9909L23.2954 16.0019L10.5586 16.0186V15.9022Z" fill="white"/>
<path d="M0.0273438 11.9996C0.0273438 0.237967 0.0273438 0.0273438 0.132656 0.0273438C0.193625 0.0273438 0.249053 0.0495146 0.260138 0.0716855C0.271224 0.0938565 3.81302 2.76545 8.13081 6.0024C12.4541 9.23935 15.9904 11.9109 15.9904 11.9442C15.9904 11.9775 12.4541 14.6491 8.13635 17.8805C3.81302 21.1174 0.237967 23.8112 0.18254 23.8666C0.132656 23.9276 0.0772283 23.9719 0.0606001 23.9719C0.0439719 23.9719 0.0273438 18.5844 0.0273438 11.9996Z" fill="#ED2E38" stroke="#FF0000" stroke-width="0.0923788"/>
</g>
<defs>
<clipPath id="clip0_358_4666">
<rect width="24" height="24" rx="12" fill="white"/>
</clipPath>
</defs>
</svg>
