<svg width="24" height="24" viewBox="0 0 24 24" fill="none" xmlns="http://www.w3.org/2000/svg">
<g clip-path="url(#clip0_358_11138)">
<path d="M-6 0H30.0019V24H-6V0Z" fill="#0038A8"/>
<path d="M-6 0H30.0019V16H-6V0Z" fill="white"/>
<path d="M-6 0H30.0019V8H-6V0Z" fill="#D52B1E"/>
<path d="M15.0138 11.9416C15.0138 13.6223 13.6522 14.9845 11.9717 14.9845C10.2919 14.9845 8.92969 13.6223 8.92969 11.9416C8.92969 10.2617 10.2919 8.90039 11.9717 8.90039C13.6522 8.90039 15.0138 10.2617 15.0138 11.9416Z" fill="white" stroke="black" stroke-width="0.223455" stroke-miterlimit="10"/>
<path d="M13.4415 11.4708C13.3676 11.4679 13.3672 11.5493 13.3672 11.5493C13.3672 11.5493 13.3697 11.5252 13.3676 11.5525C13.3662 11.5795 13.3797 11.6454 13.4343 11.6508C13.4918 11.6559 13.511 11.5886 13.5114 11.5559C13.5114 11.543 13.5072 11.4725 13.4415 11.4709" fill="#009B3A"/>
<path d="M13.4415 11.4708C13.3676 11.4679 13.3672 11.5493 13.3672 11.5493C13.3672 11.5493 13.3697 11.5252 13.3676 11.5525C13.3662 11.5795 13.3797 11.6454 13.4343 11.6508C13.4918 11.6559 13.511 11.5886 13.5114 11.5559C13.5114 11.543 13.5072 11.4725 13.4415 11.4709" stroke="black" stroke-width="0.059697"/>
<path d="M10.0625 13.159L10.0364 13.1159C10.0338 13.1111 10.027 13.1031 10.0161 13.0913C10.011 13.0855 10.0037 13.0819 9.99597 13.0814C9.98775 13.0802 9.97938 13.0819 9.97227 13.0862C9.96216 13.0924 9.95554 13.1006 9.95445 13.1107C9.95252 13.121 9.95732 13.1352 9.96874 13.1543L9.9951 13.1992L10.0625 13.159ZM10.3199 13.1442L9.98903 13.341L9.88801 13.1712C9.86928 13.1394 9.8579 13.1141 9.85347 13.0941C9.84827 13.0737 9.85074 13.0547 9.85914 13.0357C9.8675 13.0166 9.8827 13.0007 9.90387 12.988C9.92015 12.9781 9.93864 12.9724 9.95768 12.9714C9.97623 12.9714 9.99314 12.976 10.0095 12.9847C10.0196 12.9905 10.0314 12.9995 10.0443 13.0126C10.0412 12.9984 10.0395 12.9873 10.0402 12.9786C10.0412 12.9735 10.0436 12.965 10.0482 12.9521C10.0527 12.9397 10.0569 12.9311 10.0596 12.9256L10.1264 12.8191L10.1946 12.9347L10.1264 13.0495C10.1179 13.064 10.1127 13.0752 10.112 13.083C10.1116 13.0937 10.114 13.1031 10.1191 13.1123L10.1248 13.1217L10.2588 13.0419L10.3199 13.1442ZM9.73739 12.8747L9.63638 12.5728L9.71427 12.5467L9.77754 12.7359L9.83594 12.7163L9.77645 12.5406L9.85129 12.5162L9.91005 12.691L9.98169 12.6678L9.91703 12.4731L9.99968 12.4449L10.1023 12.7525L9.73739 12.8747ZM9.74816 12.2602L9.74408 12.2319C9.74143 12.2084 9.73572 12.1932 9.72699 12.1852C9.72261 12.1813 9.71744 12.1783 9.71182 12.1766C9.70619 12.1748 9.70026 12.1743 9.69441 12.175C9.68263 12.1769 9.67303 12.1819 9.66568 12.1901C9.65805 12.1994 9.6555 12.2146 9.6587 12.2367L9.66194 12.2707L9.74816 12.2602ZM9.59848 12.398L9.57554 12.2019C9.57092 12.1597 9.57699 12.1261 9.59459 12.1024C9.61278 12.0789 9.64059 12.0648 9.67798 12.0605C9.71648 12.0557 9.74838 12.064 9.77259 12.0844C9.79652 12.1051 9.81183 12.1396 9.81754 12.187L9.82481 12.2516L9.96649 12.2351L9.98038 12.3538L9.59848 12.398ZM9.58514 11.6475L9.59743 11.5293L9.82587 11.5539C9.8474 11.5563 9.8684 11.5622 9.88805 11.5714C9.90754 11.5801 9.92456 11.5935 9.93758 11.6104C9.95078 11.6275 9.96005 11.6437 9.96434 11.6612C9.97016 11.6844 9.97179 11.7127 9.96805 11.7452C9.9659 11.7655 9.96233 11.7856 9.95736 11.8054C9.95256 11.8271 9.9451 11.845 9.93579 11.8588C9.92592 11.8735 9.91335 11.8862 9.89874 11.8963C9.88471 11.9062 9.86873 11.913 9.85187 11.9163C9.82656 11.9214 9.80485 11.9224 9.78598 11.9203L9.55859 11.8963L9.57085 11.778L9.80416 11.8033C9.82518 11.8054 9.8419 11.8015 9.85489 11.7908C9.86794 11.7804 9.87525 11.7652 9.87772 11.7452C9.8799 11.7241 9.87558 11.7079 9.86539 11.6954C9.85529 11.6824 9.83957 11.6752 9.81837 11.6727L9.58514 11.6475ZM9.96779 11.3241L9.9883 11.2672C9.99452 11.2479 9.9963 11.233 9.99205 11.2222C9.99002 11.2172 9.98686 11.2126 9.98282 11.209C9.97877 11.2054 9.97394 11.2027 9.9687 11.2012C9.95725 11.1973 9.94783 11.198 9.93859 11.2037C9.92899 11.2095 9.92074 11.2219 9.91416 11.2411L9.89387 11.2984L9.96779 11.3241ZM9.8251 11.2741L9.84238 11.2257C9.84819 11.2081 9.84983 11.1947 9.84554 11.1856C9.84238 11.1769 9.83485 11.17 9.82328 11.1667C9.81879 11.1648 9.81394 11.164 9.80907 11.1642C9.80421 11.1644 9.79945 11.1657 9.79514 11.1679C9.78678 11.1729 9.77979 11.1835 9.77412 11.2005L9.75608 11.2501L9.8251 11.2741ZM9.64347 11.3379L9.71656 11.1273C9.72921 11.0922 9.74721 11.0689 9.77143 11.0556C9.78272 11.0496 9.79516 11.046 9.80793 11.045C9.82071 11.044 9.83355 11.0458 9.84561 11.0501C9.86659 11.0584 9.88259 11.0712 9.89368 11.0899C9.90023 11.1023 9.90438 11.1186 9.90438 11.1375C9.9195 11.1135 9.93696 11.0982 9.95638 11.0917C9.97616 11.0846 9.99772 11.085 10.0211 11.0931C10.0394 11.0995 10.0547 11.1099 10.0669 11.1237C10.0784 11.1382 10.0861 11.1541 10.0899 11.1722C10.0916 11.1838 10.0907 11.1994 10.0866 11.2187C10.0806 11.2457 10.077 11.2629 10.074 11.2709L10.0063 11.4647L9.64347 11.3379ZM9.83954 10.845L9.90172 10.7435L10.1494 10.8936L10.2458 10.7352L10.3266 10.7845L10.1694 11.0443L9.83954 10.845ZM10.0936 10.4666L10.17 10.3755L10.4635 10.6236L10.3869 10.7147L10.0936 10.4666ZM10.6266 10.2598L10.7266 10.2171C10.7394 10.244 10.7467 10.2696 10.7477 10.2947C10.7487 10.3188 10.7439 10.3427 10.7335 10.3645C10.7221 10.3866 10.7034 10.408 10.6778 10.4305C10.6451 10.4571 10.6152 10.4744 10.5868 10.482C10.5588 10.4892 10.5275 10.4875 10.4926 10.4765C10.4589 10.4653 10.4268 10.4411 10.3959 10.4048C10.3556 10.3556 10.337 10.3072 10.3411 10.2598C10.3451 10.2116 10.3711 10.1682 10.4184 10.1283C10.4561 10.0971 10.491 10.0809 10.5254 10.0782C10.5589 10.075 10.5945 10.0851 10.6303 10.1076L10.5646 10.1928C10.5546 10.1863 10.5463 10.1819 10.5391 10.1804C10.5287 10.1773 10.5177 10.1772 10.5072 10.1801C10.4964 10.1825 10.4864 10.1874 10.478 10.1946C10.4571 10.212 10.448 10.2336 10.4511 10.2595C10.4528 10.2787 10.4651 10.3012 10.4865 10.3279C10.5142 10.3607 10.538 10.379 10.5576 10.3827C10.5783 10.387 10.5974 10.3812 10.6152 10.3663C10.6325 10.3515 10.6419 10.3359 10.6423 10.3189C10.6428 10.3008 10.638 10.2812 10.6266 10.2598ZM11.0156 10.0287L10.9152 9.92473L10.9405 10.0674L11.0156 10.0287ZM11.0755 10.0919L10.9551 10.1531L10.9674 10.2183L10.8592 10.2733L10.8134 9.86495L10.929 9.80586L11.2325 10.0831L11.1219 10.1396L11.0755 10.0919ZM11.5433 9.69095L11.5728 9.89858L11.6018 9.89433C11.6265 9.89127 11.6438 9.88582 11.6536 9.87891C11.663 9.87131 11.6695 9.8616 11.6734 9.84637C11.6776 9.83222 11.6776 9.81015 11.6732 9.77935C11.6675 9.7392 11.6568 9.71233 11.6418 9.69957C11.6266 9.68684 11.6035 9.68226 11.5729 9.68684L11.5433 9.69095ZM11.4139 9.62142L11.5886 9.59629C11.623 9.59171 11.6509 9.59204 11.6734 9.59844C11.6965 9.60498 11.7156 9.61557 11.7323 9.63117C11.7486 9.64669 11.7616 9.66564 11.7708 9.68775C11.7809 9.71092 11.7876 9.73537 11.7908 9.7604C11.797 9.80073 11.797 9.83328 11.7904 9.85644C11.7849 9.87918 11.7746 9.90046 11.7601 9.91884C11.7455 9.93604 11.7293 9.94895 11.7113 9.95618C11.6894 9.96629 11.6662 9.97337 11.6423 9.97724L11.4674 10.0019L11.4139 9.62142ZM11.9372 9.54688L12.2546 9.5704L12.2487 9.65226L12.05 9.63742L12.0454 9.69844L12.2297 9.71204L12.223 9.79004L12.0397 9.77695L12.0343 9.85197L12.2387 9.86713L12.2323 9.95378L11.9089 9.92993L11.9372 9.54688ZM12.4262 9.59175L12.5404 9.6236L12.4615 9.90306L12.6399 9.95346L12.6138 10.044L12.321 9.96109L12.4262 9.59175ZM13.0749 10.0184L13.0995 10.0343C13.1184 10.0468 13.1344 10.0521 13.146 10.0509C13.1519 10.0505 13.1575 10.0486 13.1624 10.0456C13.1674 10.0425 13.1715 10.0382 13.1744 10.0332C13.1808 10.0235 13.1831 10.0125 13.1817 10.0007C13.1794 9.98938 13.1688 9.97789 13.1503 9.96567L13.1219 9.94655L13.0749 10.0184ZM13.0655 9.81586L13.2307 9.92484C13.2665 9.94833 13.2875 9.97488 13.294 10.0035C13.3009 10.0325 13.294 10.0629 13.2727 10.0944C13.2521 10.1264 13.2253 10.1452 13.1936 10.1507C13.1615 10.1558 13.1264 10.1459 13.0863 10.1195L13.032 10.0835L12.9539 10.2025L12.8543 10.1365L13.0655 9.81586ZM13.4826 10.4021L13.5496 10.2739L13.4224 10.3427L13.4826 10.4021ZM13.442 10.4785L13.3456 10.3837L13.2875 10.4156L13.2011 10.3307L13.3787 10.2487L13.5744 10.1582L13.6663 10.2492L13.4992 10.625L13.4108 10.5373L13.442 10.4785ZM13.7991 10.6453L13.8262 10.6881C13.8295 10.6924 13.8353 10.7007 13.8474 10.712C13.853 10.7174 13.8604 10.7207 13.8682 10.721C13.8762 10.722 13.8843 10.72 13.8909 10.7153C13.9011 10.7088 13.9068 10.7007 13.9086 10.6903C13.91 10.6803 13.9047 10.6655 13.8927 10.6475L13.8652 10.6036L13.7991 10.6453ZM13.542 10.6681L13.8662 10.4612L13.9726 10.628C13.9923 10.6587 14.0048 10.684 14.0108 10.7037C14.0154 10.7232 14.0137 10.7436 14.0058 10.762C13.998 10.7815 13.9836 10.7976 13.9633 10.8109C13.9449 10.8225 13.9273 10.8291 13.9091 10.8291C13.8918 10.8301 13.8742 10.8257 13.8569 10.8184C13.8442 10.8107 13.8324 10.8015 13.8218 10.7911C13.8252 10.8052 13.8273 10.8167 13.8269 10.8247C13.8252 10.8336 13.823 10.8425 13.8202 10.8512C13.8173 10.8606 13.8134 10.8698 13.8086 10.8784L13.7459 10.987L13.6731 10.8736L13.7384 10.7573C13.7471 10.7417 13.7514 10.7306 13.7514 10.7228C13.7518 10.7123 13.7501 10.7024 13.7432 10.6936L13.738 10.6848L13.6062 10.7688L13.542 10.6681ZM13.9964 11.1859L14.1117 11.0989L13.9676 11.1069L13.9964 11.1859ZM13.9265 11.2374L13.8803 11.1103L13.8147 11.1148L13.7728 11.0008L14.1837 11.0056L14.2281 11.1269L13.9161 11.3943L13.8734 11.2768L13.9265 11.2374ZM14.1105 11.6464L14.1896 11.6359L14.2125 11.8192L14.0499 11.8388C14.0224 11.807 14.0014 11.7785 13.9902 11.7525C13.9777 11.7267 13.9697 11.6954 13.9651 11.6588C13.9592 11.6135 13.9622 11.5756 13.9748 11.5452C13.9863 11.5148 14.0066 11.4895 14.0351 11.4695C14.0638 11.4506 14.0976 11.438 14.137 11.4333C14.1786 11.4278 14.2161 11.432 14.2489 11.4456C14.2817 11.4587 14.3081 11.4808 14.3286 11.512C14.3444 11.5366 14.3549 11.5704 14.3599 11.6142C14.3658 11.6561 14.3658 11.6881 14.3603 11.7099C14.3561 11.7312 14.3461 11.7508 14.3312 11.7666C14.3157 11.7837 14.2963 11.7969 14.2747 11.8052L14.2402 11.6943C14.2539 11.6874 14.264 11.6786 14.2701 11.666C14.2764 11.654 14.278 11.6388 14.2764 11.6221C14.2721 11.596 14.2614 11.5765 14.2418 11.5635C14.2217 11.5504 14.192 11.5463 14.1532 11.5511C14.1119 11.5562 14.0839 11.568 14.0677 11.5852C14.0524 11.6032 14.0467 11.6264 14.0495 11.654C14.051 11.6671 14.0548 11.6793 14.0599 11.6906C14.0654 11.7026 14.0734 11.7148 14.0844 11.7301L14.1207 11.7251L14.1105 11.6464ZM14.3539 12.2229L14.3404 12.3407L14.113 12.3151C14.0912 12.3127 14.07 12.3066 14.0503 12.2972C14.0311 12.2881 14.0143 12.2747 14.0011 12.2581C13.9881 12.2415 13.9792 12.2247 13.9749 12.2077C13.9694 12.1831 13.9679 12.1555 13.9716 12.1232C13.9742 12.1048 13.9778 12.0844 13.9822 12.0627C13.9874 12.0409 13.995 12.0232 14.0047 12.0095C14.0147 11.9951 14.0271 11.9826 14.0414 11.9725C14.0581 11.962 14.0734 11.9555 14.0887 11.9528C14.1137 11.9481 14.136 11.9465 14.1547 11.9493L14.3824 11.9753L14.3689 12.0928L14.136 12.066C14.1148 12.0637 14.098 12.0675 14.0848 12.0779C14.072 12.0885 14.0643 12.1033 14.0622 12.1237C14.0599 12.1445 14.0638 12.161 14.0741 12.1736C14.0842 12.1863 14.0998 12.1939 14.1207 12.1971L14.3539 12.2229ZM14 12.6605L14.1449 12.6657L14.0279 12.5804L14 12.6605ZM13.9141 12.6562L13.9579 12.5287L13.9043 12.4903L13.9442 12.3755L14.2603 12.6381L14.2168 12.761L13.8072 12.7711L13.8474 12.6533L13.9141 12.6562ZM14.1263 13.0101L14.0595 13.1239L13.908 13.1244L13.9805 13.2574L13.9141 13.3697L13.7972 13.1275L13.6586 13.0459L13.7195 12.9431L13.858 13.0253L14.1263 13.0101Z" fill="black"/>
<path d="M14.5187 11.9423C14.5187 13.3492 13.3787 14.4894 11.9724 14.4894C10.5658 14.4894 9.42578 13.3492 9.42578 11.9424C9.42578 10.5365 10.5658 9.39648 11.9724 9.39648C13.3787 9.39648 14.5187 10.5365 14.5187 11.9423L14.5187 11.9423Z" stroke="black" stroke-width="0.0893939" stroke-miterlimit="10"/>
<path d="M13.8681 11.9337C13.8681 12.9809 13.02 13.8291 11.9733 13.8291C10.9266 13.8291 10.0781 12.9809 10.0781 11.9337C10.0781 10.8875 10.9266 10.0391 11.9733 10.0391C13.02 10.0391 13.8681 10.8875 13.8681 11.9337Z" stroke="black" stroke-width="0.0893939" stroke-miterlimit="10"/>
<path d="M11.9703 11.252L12.1295 11.7076L12.6111 11.7184L12.2273 12.0102L12.3668 12.472L11.9703 12.1975L11.5737 12.472L11.7125 12.0102L11.3281 11.7184L11.8107 11.7076L11.9703 11.252Z" fill="#FEDF00" stroke="black" stroke-width="0.0364848"/>
<path d="M12.8452 13.2412C12.8291 13.2547 12.7645 13.2619 12.7474 13.2648C12.7301 13.2671 12.6622 13.2678 12.6335 13.2688C12.6176 13.2699 12.5872 13.2743 12.5713 13.2743C12.4321 13.2584 12.7975 13.2607 12.8452 13.2412M12.4804 13.1336C12.4895 13.1173 12.5352 13.0158 12.5516 12.9869C12.5683 12.9586 12.6061 12.8831 12.6287 12.8516C12.6403 12.8346 12.6857 12.7853 12.6966 12.8074C12.6175 12.8758 12.5551 12.9951 12.5219 13.0754C12.5176 13.084 12.4916 13.1287 12.482 13.1404C12.4727 13.1519 12.4765 13.1736 12.4619 13.1754C12.4465 13.1773 12.4573 13.1801 12.4573 13.1801C12.4573 13.1801 12.4704 13.1507 12.4804 13.1335V13.1336ZM13.0052 13.2112C13.0052 13.2112 12.9423 13.2018 12.9033 13.188C12.8644 13.1749 12.7992 13.1649 12.7436 13.1663C12.6886 13.167 12.6382 13.1836 12.5932 13.2007C12.5485 13.2174 12.4906 13.2188 12.4906 13.2188C12.4906 13.2188 12.4578 13.2239 12.4731 13.2163C12.4877 13.2091 12.5385 13.1694 12.5385 13.1694L12.5713 13.1245C12.5808 13.1219 12.7472 12.9035 12.7291 12.8449C12.7546 12.8018 12.7844 12.7248 12.7732 12.7114C12.7679 12.7059 12.6436 12.7508 12.6164 12.7755C12.5848 12.8028 12.5626 12.8596 12.5531 12.8923C12.5439 12.9248 12.4961 12.9517 12.4961 12.9517C12.4573 12.9796 12.4291 13.0681 12.4159 13.1404C12.4026 13.2119 12.2266 13.2515 12.2266 13.2515C12.2266 13.2515 12.1777 13.2697 12.2211 13.2835C12.2285 13.2856 12.2479 13.3183 12.2634 13.3188C12.2849 13.3213 12.3942 13.2745 12.4111 13.2782C12.4483 13.2866 12.485 13.2967 12.5212 13.3083C12.563 13.3224 12.5974 13.3297 12.6265 13.3189C12.6561 13.3083 12.6984 13.3124 12.7301 13.3186C12.7613 13.3253 12.7962 13.3224 12.8163 13.3162C12.8379 13.3097 12.8946 13.2782 12.8946 13.2782C12.8946 13.2782 12.9559 13.2516 12.9913 13.235C13.0268 13.2184 13.0052 13.2112 13.0052 13.2112" fill="#009B3A"/>
<path d="M12.8452 13.2412C12.8291 13.2547 12.7645 13.2619 12.7474 13.2648C12.7301 13.2671 12.6622 13.2678 12.6335 13.2688C12.6176 13.2699 12.5872 13.2743 12.5713 13.2743C12.4321 13.2584 12.7975 13.2607 12.8452 13.2412M13.0052 13.2112C13.0052 13.2112 12.9423 13.2018 12.9033 13.188C12.8644 13.1749 12.7992 13.1649 12.7436 13.1663C12.6886 13.167 12.6382 13.1836 12.5932 13.2007C12.5485 13.2174 12.4906 13.2188 12.4906 13.2188C12.4906 13.2188 12.4578 13.2239 12.4731 13.2163C12.4877 13.2091 12.5385 13.1694 12.5385 13.1694L12.5713 13.1245C12.5808 13.1219 12.7472 12.9035 12.7291 12.8449C12.7546 12.8018 12.7844 12.7248 12.7732 12.7114C12.7679 12.7059 12.6436 12.7508 12.6164 12.7755C12.5848 12.8028 12.5626 12.8596 12.5531 12.8923C12.5439 12.9248 12.4961 12.9517 12.4961 12.9517C12.4573 12.9796 12.4291 13.0681 12.4159 13.1404C12.4026 13.2119 12.2266 13.2515 12.2266 13.2515C12.2266 13.2515 12.1777 13.2697 12.2211 13.2835C12.2285 13.2856 12.2479 13.3183 12.2634 13.3188C12.2849 13.3213 12.3942 13.2745 12.4111 13.2782C12.4483 13.2866 12.485 13.2967 12.5212 13.3083C12.563 13.3224 12.5974 13.3297 12.6265 13.3189C12.6561 13.3083 12.6984 13.3124 12.7301 13.3186C12.7613 13.3253 12.7962 13.3224 12.8163 13.3162C12.8379 13.3097 12.8946 13.2782 12.8946 13.2782C12.8946 13.2782 12.9559 13.2516 12.9913 13.235C13.0268 13.2184 13.0052 13.2112 13.0052 13.2112M12.4804 13.1336C12.4895 13.1173 12.5352 13.0158 12.5516 12.9869C12.5683 12.9586 12.6061 12.8831 12.6287 12.8516C12.6403 12.8346 12.6857 12.7853 12.6966 12.8074C12.6175 12.8758 12.5551 12.9951 12.5219 13.0754C12.5176 13.084 12.4916 13.1287 12.482 13.1404C12.4727 13.1519 12.4765 13.1736 12.4619 13.1754C12.4465 13.1773 12.4573 13.1801 12.4573 13.1801C12.4573 13.1801 12.4704 13.1507 12.4804 13.1335V13.1336Z" stroke="black" stroke-width="0.045697"/>
<path d="M12.5286 13.4237C12.5286 13.4237 12.2862 13.2969 12.2732 13.2939C12.2656 13.2929 12.1632 13.2365 12.1164 13.2219C12.0826 13.211 12.0359 13.2081 12.0191 13.2092C11.9792 13.212 11.9141 13.2296 11.9141 13.2296L11.9743 13.2542C11.9743 13.2542 12.0308 13.282 12.0584 13.2968C12.098 13.3177 12.0997 13.3431 12.0997 13.3431L12.3192 13.4397L12.3637 13.4717C12.3637 13.4717 12.4042 13.4158 12.5286 13.4237Z" fill="#009B3A" stroke="black" stroke-width="0.0364848"/>
<path d="M12.773 12.92C12.8492 12.852 12.8865 12.7554 12.9492 12.7018C12.9594 12.7091 12.9594 12.7213 12.947 12.7427C12.9351 12.7638 12.9193 12.771 12.9124 12.782C12.8996 12.7992 12.8614 12.8309 12.8511 12.85C12.8419 12.868 12.8301 12.8932 12.7968 12.9124C12.7637 12.9322 12.7741 12.9637 12.7714 12.9769C12.7687 12.9914 12.7177 13.0279 12.6931 13.073C12.6884 13.1201 12.6863 13.1004 12.6578 13.1171C12.7097 13.0388 12.737 12.9884 12.773 12.92M12.6017 13.1352C12.5968 13.1454 12.4465 13.2308 12.4935 13.2181C12.5402 13.2058 12.6791 13.1557 12.7186 13.1381C12.7668 13.1171 12.7958 13.0729 12.832 13.0369C12.869 13.0002 12.9834 12.8909 13.0032 12.8487C13.0225 12.8053 13.0401 12.7449 12.9626 12.6094C12.9626 12.6094 12.9505 12.6353 12.9216 12.6606C12.893 12.6866 12.8504 12.7153 12.8504 12.7153L12.8007 12.7623C12.8007 12.7623 12.625 13.085 12.6017 13.1352" fill="#009B3A"/>
<path d="M12.773 12.92C12.8492 12.852 12.8865 12.7554 12.9492 12.7018C12.9594 12.7091 12.9594 12.7213 12.947 12.7427C12.9351 12.7638 12.9193 12.771 12.9124 12.782C12.8996 12.7992 12.8614 12.8309 12.8511 12.85C12.8419 12.868 12.8301 12.8932 12.7968 12.9124C12.7637 12.9322 12.7741 12.9637 12.7714 12.9769C12.7687 12.9914 12.7177 13.0279 12.6931 13.073C12.6884 13.1201 12.6863 13.1004 12.6578 13.1171C12.7097 13.0388 12.737 12.9884 12.773 12.92M12.6017 13.1352C12.5968 13.1454 12.4465 13.2308 12.4935 13.2181C12.5402 13.2058 12.6791 13.1557 12.7186 13.1381C12.7668 13.1171 12.7958 13.0729 12.832 13.0369C12.869 13.0002 12.9834 12.8909 13.0032 12.8487C13.0225 12.8053 13.0401 12.7449 12.9626 12.6094C12.9626 12.6094 12.9505 12.6353 12.9216 12.6606C12.893 12.6866 12.8504 12.7153 12.8504 12.7153L12.8007 12.7623C12.8007 12.7623 12.625 13.085 12.6017 13.1352" stroke="black" stroke-width="0.0481212"/>
<path d="M13.21 13.0226C13.21 13.0226 13.1138 13.014 13.1054 13.014C13.0963 13.014 13.0436 13.0067 12.9669 13.0067C12.891 13.0067 12.8625 13.033 12.8426 13.0542C12.821 13.078 12.7611 13.1328 12.7611 13.1328L12.7934 13.1299C12.8704 13.07 12.9302 13.092 12.9541 13.0902C12.9791 13.0894 13.0091 13.0918 13.0861 13.0646C13.1643 13.0371 13.1597 13.0628 13.1512 13.0654C13.1138 13.0789 13.0747 13.0868 13.0351 13.0889C12.977 13.0921 12.9261 13.1033 12.9033 13.1033C12.8803 13.1033 12.7109 13.1497 12.7109 13.1497C12.7109 13.1497 12.8942 13.1604 12.914 13.1669C12.9336 13.1749 12.9645 13.1712 12.9899 13.159C13.0601 13.1266 13.0919 13.1204 13.1207 13.1139C13.1498 13.1082 13.1844 13.0886 13.1844 13.0886C13.1844 13.0886 13.2029 13.0769 13.22 13.0458C13.2376 13.014 13.21 13.0226 13.21 13.0226ZM13.2999 12.5204C13.3115 12.4917 13.3404 12.4243 13.371 12.3978C13.3897 12.3815 13.422 12.3739 13.4391 12.3667C13.4464 12.3642 13.499 12.3617 13.4333 12.3798C13.406 12.387 13.3691 12.4031 13.3528 12.4306C13.3298 12.4944 13.3097 12.55 13.267 12.5907C13.2357 12.6237 13.2158 12.6665 13.2158 12.6665L13.1822 12.6781C13.2438 12.6404 13.2706 12.5705 13.2999 12.5204ZM13.5978 12.4845C13.5628 12.4962 13.5504 12.5059 13.5504 12.5059C13.4719 12.5294 13.4397 12.5787 13.4053 12.6189C13.3879 12.6399 13.3633 12.6556 13.2804 12.6911C13.2047 12.7237 13.1461 12.774 13.1447 12.774C13.1447 12.774 13.1207 12.7789 13.1253 12.7906C13.1271 12.7961 13.1476 12.7917 13.1476 12.7917C13.1476 12.7917 13.3036 12.7694 13.3686 12.7298C13.4101 12.7038 13.4336 12.6849 13.4729 12.624C13.4906 12.5971 13.5104 12.5466 13.5113 12.5791C13.5143 12.6654 13.3802 12.7491 13.3219 12.7749C13.2906 12.7882 13.249 12.7937 13.1945 12.8026C13.1406 12.8126 13.1078 12.8096 13.1118 12.7977C13.1173 12.7806 13.1236 12.777 13.1378 12.7601C13.1634 12.7295 13.2254 12.7186 13.271 12.6972C13.325 12.673 13.3762 12.6374 13.4018 12.607C13.428 12.5763 13.4371 12.565 13.4442 12.539C13.4642 12.471 13.4653 12.4334 13.484 12.4091C13.5499 12.328 13.5595 12.3018 13.5628 12.2656C13.5634 12.2572 13.5285 12.2848 13.5104 12.2949C13.4749 12.3159 13.4617 12.3159 13.389 12.3349C13.3152 12.3533 13.3169 12.4009 13.3054 12.4233C13.3021 12.4323 13.2721 12.4697 13.2578 12.4766C13.2436 12.4838 13.2085 12.5345 13.1955 12.5643C13.1859 12.586 13.1688 12.6016 13.155 12.5998C13.1406 12.5971 13.1827 12.4399 13.1919 12.4139C13.2019 12.3881 13.2039 12.3377 13.2039 12.3207C13.2039 12.3045 13.2045 12.2617 13.176 12.2569C13.1476 12.2521 13.1463 12.2129 13.1463 12.2129C13.0781 12.272 13.1162 12.3761 13.1235 12.4378C13.1308 12.499 13.1094 12.6122 13.1094 12.6122C13.1753 12.6403 13.1235 12.7204 13.103 12.7463C13.0815 12.7726 13.0406 12.7774 13.0223 12.8006C13.0029 12.8244 12.8648 13.0167 12.8648 13.0167L13.0366 12.968C13.0366 12.968 13.0526 12.9709 13.0269 12.9514C13.0009 12.9328 13.0353 12.8607 13.0574 12.843C13.0996 12.8099 13.1567 12.834 13.1567 12.834C13.1567 12.834 13.2363 12.8462 13.334 12.8074C13.4156 12.7753 13.4506 12.7231 13.4893 12.6838C13.5104 12.6625 13.5488 12.5915 13.5731 12.5494C13.5877 12.5251 13.6139 12.479 13.5978 12.4845" fill="#009B3A"/>
<path d="M13.5978 12.4845C13.5628 12.4962 13.5504 12.5059 13.5504 12.5059C13.4719 12.5294 13.4397 12.5787 13.4053 12.6189C13.3879 12.6399 13.3633 12.6556 13.2804 12.6911C13.2047 12.7237 13.1461 12.774 13.1447 12.774C13.1447 12.774 13.1207 12.7789 13.1253 12.7906C13.1271 12.7961 13.1476 12.7917 13.1476 12.7917C13.1476 12.7917 13.3036 12.7694 13.3686 12.7298C13.4101 12.7038 13.4336 12.6849 13.4729 12.624C13.4906 12.5971 13.5104 12.5466 13.5113 12.5791C13.5143 12.6654 13.3802 12.7491 13.3219 12.7749C13.2906 12.7882 13.249 12.7937 13.1945 12.8026C13.1406 12.8126 13.1078 12.8096 13.1118 12.7977C13.1173 12.7806 13.1236 12.777 13.1378 12.7601C13.1634 12.7295 13.2254 12.7186 13.271 12.6972C13.325 12.673 13.3762 12.6374 13.4018 12.607C13.428 12.5763 13.4371 12.565 13.4442 12.539C13.4642 12.471 13.4653 12.4334 13.484 12.4091C13.5499 12.328 13.5595 12.3018 13.5628 12.2656C13.5634 12.2572 13.5285 12.2848 13.5104 12.2949C13.4749 12.3159 13.4617 12.3159 13.389 12.3349C13.3152 12.3533 13.3169 12.4009 13.3054 12.4233C13.3021 12.4323 13.2721 12.4697 13.2578 12.4766C13.2436 12.4838 13.2085 12.5345 13.1955 12.5643C13.1859 12.586 13.1688 12.6016 13.155 12.5998C13.1406 12.5971 13.1827 12.4399 13.1919 12.4139C13.2019 12.3881 13.2039 12.3377 13.2039 12.3207C13.2039 12.3045 13.2045 12.2617 13.176 12.2569C13.1476 12.2521 13.1463 12.2129 13.1463 12.2129C13.0781 12.272 13.1162 12.3761 13.1235 12.4378C13.1308 12.499 13.1094 12.6122 13.1094 12.6122C13.1753 12.6403 13.1235 12.7204 13.103 12.7463C13.0815 12.7726 13.0406 12.7774 13.0223 12.8006C13.0029 12.8244 12.8648 13.0167 12.8648 13.0167L13.0366 12.968C13.0366 12.968 13.0526 12.9709 13.0269 12.9514C13.0009 12.9328 13.0353 12.8607 13.0574 12.843C13.0996 12.8099 13.1567 12.834 13.1567 12.834C13.1567 12.834 13.2363 12.8462 13.334 12.8074C13.4156 12.7753 13.4506 12.7231 13.4893 12.6838C13.5104 12.6625 13.5488 12.5915 13.5731 12.5494C13.5877 12.5251 13.6139 12.479 13.5978 12.4845M13.21 13.0226C13.21 13.0226 13.1138 13.014 13.1054 13.014C13.0963 13.014 13.0436 13.0067 12.9669 13.0067C12.891 13.0067 12.8625 13.033 12.8426 13.0542C12.821 13.078 12.7611 13.1328 12.7611 13.1328L12.7934 13.1299C12.8704 13.07 12.9302 13.092 12.9541 13.0902C12.9791 13.0894 13.0091 13.0918 13.0861 13.0646C13.1643 13.0371 13.1597 13.0628 13.1512 13.0654C13.1138 13.0789 13.0747 13.0868 13.0351 13.0889C12.977 13.0921 12.9261 13.1033 12.9033 13.1033C12.8803 13.1033 12.7109 13.1497 12.7109 13.1497C12.7109 13.1497 12.8942 13.1604 12.914 13.1669C12.9336 13.1749 12.9645 13.1712 12.9899 13.159C13.0601 13.1266 13.0919 13.1204 13.1207 13.1139C13.1498 13.1082 13.1844 13.0886 13.1844 13.0886C13.1844 13.0886 13.2029 13.0769 13.22 13.0458C13.2376 13.014 13.21 13.0226 13.21 13.0226ZM13.2999 12.5204C13.3115 12.4917 13.3404 12.4243 13.371 12.3978C13.3897 12.3815 13.422 12.3739 13.4391 12.3667C13.4464 12.3642 13.499 12.3617 13.4333 12.3798C13.406 12.387 13.3691 12.4031 13.3528 12.4306C13.3298 12.4944 13.3097 12.55 13.267 12.5907C13.2357 12.6237 13.2158 12.6665 13.2158 12.6665L13.1822 12.6781C13.2438 12.6404 13.2706 12.5705 13.2999 12.5204Z" stroke="black" stroke-width="0.045697"/>
<path d="M13.1134 12.9463C13.1265 12.941 13.1285 12.9386 13.1525 12.9124C13.1761 12.8862 13.1553 12.842 13.1187 12.8438C13.1008 12.845 13.0818 12.8409 13.0467 12.8882C13.0127 12.9355 13.0629 12.9528 13.082 12.9548C13.0901 12.9552 13.1009 12.9517 13.1134 12.9463Z" fill="#009B3A" stroke="black" stroke-width="0.0509091"/>
<path d="M13.0256 12.6455C13.0029 12.6836 12.9907 12.7273 13.0086 12.7408C13.0126 12.743 13.0285 12.7569 13.0418 12.7569C13.055 12.7569 13.0924 12.739 13.1137 12.7061C13.135 12.6742 13.1525 12.6393 13.1088 12.6175C13.0693 12.5979 13.0421 12.6162 13.0256 12.6454" fill="#009B3A"/>
<path d="M13.0256 12.6455C13.0029 12.6836 12.9907 12.7273 13.0086 12.7408C13.0126 12.743 13.0285 12.7569 13.0418 12.7569C13.055 12.7569 13.0924 12.739 13.1137 12.7061C13.135 12.6742 13.1525 12.6393 13.1088 12.6175C13.0693 12.5979 13.0421 12.6162 13.0256 12.6454" stroke="black" stroke-width="0.052"/>
<path d="M13.1534 12.1807C13.1534 12.1807 13.157 12.1749 13.142 12.1593C13.1183 12.135 13.0886 12.0918 13.0886 12.0918C13.0414 12.1176 13.0257 12.1698 13.0257 12.1905C13.0257 12.2121 13.0337 12.2589 13.0265 12.3067C13.0239 12.323 13.0213 12.3415 12.9979 12.4006C12.9741 12.459 13.0013 12.5126 13.0067 12.5315C13.0107 12.5502 13.0302 12.6086 13.0302 12.6086C13.0302 12.6086 13.0487 12.5967 13.055 12.5953C13.0622 12.5934 13.0874 12.5945 13.0874 12.5945C13.0874 12.5945 13.1158 12.543 13.1169 12.5145C13.1174 12.4934 13.1141 12.4577 13.1041 12.4028C13.0902 12.323 13.091 12.3003 13.1005 12.2557C13.1099 12.2104 13.1534 12.1806 13.1534 12.1806" fill="#009B3A"/>
<path d="M13.1534 12.1807C13.1534 12.1807 13.157 12.1749 13.142 12.1593C13.1183 12.135 13.0886 12.0918 13.0886 12.0918C13.0414 12.1176 13.0257 12.1698 13.0257 12.1905C13.0257 12.2121 13.0337 12.2589 13.0265 12.3067C13.0239 12.323 13.0213 12.3415 12.9979 12.4006C12.9741 12.459 13.0013 12.5126 13.0067 12.5315C13.0107 12.5502 13.0302 12.6086 13.0302 12.6086C13.0302 12.6086 13.0487 12.5967 13.055 12.5953C13.0622 12.5934 13.0874 12.5945 13.0874 12.5945C13.0874 12.5945 13.1158 12.543 13.1169 12.5145C13.1174 12.4934 13.1141 12.4577 13.1041 12.4028C13.0902 12.323 13.091 12.3003 13.1005 12.2557C13.1099 12.2104 13.1534 12.1806 13.1534 12.1806" stroke="black" stroke-width="0.045697"/>
<path d="M13.2231 12.2603C13.2231 12.2603 13.2499 12.2539 13.2634 12.2296C13.2804 12.2003 13.276 12.1692 13.276 12.1692C13.2344 12.0887 13.1787 12.1537 13.1787 12.1537C13.1287 12.2558 13.2231 12.2604 13.2231 12.2604" fill="#009B3A"/>
<path d="M13.2231 12.2603C13.2231 12.2603 13.2499 12.2539 13.2634 12.2296C13.2804 12.2003 13.276 12.1692 13.276 12.1692C13.2344 12.0887 13.1787 12.1537 13.1787 12.1537C13.1287 12.2558 13.2231 12.2604 13.2231 12.2604" stroke="black" stroke-width="0.0501818"/>
<path d="M13.367 12.1145C13.305 12.1177 13.2746 12.2291 13.2746 12.2291C13.2746 12.2291 13.2645 12.2566 13.2315 12.2779C13.1964 12.2996 13.2171 12.3308 13.2171 12.3863C13.2171 12.4417 13.1785 12.5397 13.1785 12.5397L13.1641 12.5729C13.1641 12.5729 13.1654 12.5979 13.188 12.5526C13.2264 12.4764 13.2685 12.4949 13.2844 12.4128C13.2944 12.3518 13.3954 12.3324 13.3954 12.3324L13.367 12.3271C13.262 12.2779 13.3731 12.1552 13.391 12.1335C13.4101 12.1118 13.4282 12.1118 13.367 12.1145Z" fill="#009B3A" stroke="black" stroke-width="0.0596364"/>
<path d="M13.3497 12.2452C13.3214 12.3061 13.4021 12.309 13.4207 12.2984C13.4282 12.294 13.4453 12.2738 13.4453 12.2738C13.478 12.2267 13.4481 12.1949 13.431 12.1903C13.4146 12.1849 13.3795 12.1807 13.3497 12.2452Z" fill="#009B3A" stroke="black" stroke-width="0.0507879"/>
<path d="M13.1954 12.0106C13.2166 12.05 13.2757 12.1598 13.2896 12.153C13.2983 12.1487 13.2914 12.1262 13.2914 12.1262C13.2914 12.1262 13.2896 12.0965 13.28 12.0606C13.2706 12.0244 13.2728 11.978 13.254 11.9483C13.2356 11.9186 13.1916 11.8834 13.1743 11.8365C13.1572 11.7895 13.1707 11.7005 13.1721 11.6896C13.1738 11.6793 13.179 11.6861 13.1699 11.6754C13.1607 11.6639 13.0859 11.6241 13.0859 11.6241C13.0859 11.6241 13.0903 11.6532 13.0884 11.7057C13.0877 11.7184 13.0842 11.7333 13.0822 11.7554C13.0804 11.7764 13.0931 11.8029 13.1238 11.8634C13.1594 11.9335 13.1765 11.9765 13.1954 12.0106ZM13.6439 11.4883C13.6439 11.4883 13.6224 11.5242 13.6147 11.5321C13.6067 11.5401 13.4848 11.6448 13.4779 11.6492C13.472 11.6538 13.4084 11.6742 13.3505 11.8307C13.2924 11.9867 13.3175 12.1326 13.3175 12.1326L13.3457 12.1291L13.3505 12.1138C13.3505 12.1138 13.3599 12.062 13.3672 12.0228C13.3753 11.984 13.4187 11.9299 13.4475 11.8899C13.475 11.8508 13.4972 11.7946 13.4972 11.7946C13.5298 11.7288 13.5455 11.67 13.5779 11.6241C13.5792 11.6788 13.3715 12.0147 13.3492 12.129L13.4107 12.1197C13.4599 12.0748 13.5242 11.9805 13.5677 11.9197C13.6115 11.8586 13.6301 11.7633 13.6381 11.721C13.6457 11.6793 13.644 11.4883 13.644 11.4883" fill="#009B3A"/>
<path d="M13.6439 11.4883C13.6439 11.4883 13.6224 11.5242 13.6147 11.5321C13.6067 11.5401 13.4848 11.6448 13.4779 11.6492C13.472 11.6538 13.4084 11.6742 13.3505 11.8307C13.2924 11.9867 13.3175 12.1326 13.3175 12.1326L13.3457 12.1291L13.3505 12.1138C13.3505 12.1138 13.3599 12.062 13.3672 12.0228C13.3753 11.984 13.4187 11.9299 13.4475 11.8899C13.475 11.8508 13.4972 11.7946 13.4972 11.7946C13.5298 11.7288 13.5455 11.67 13.5779 11.6241C13.5792 11.6788 13.3715 12.0147 13.3492 12.129L13.4107 12.1197C13.4599 12.0748 13.5242 11.9805 13.5677 11.9197C13.6115 11.8586 13.6301 11.7633 13.6381 11.721C13.6457 11.6793 13.644 11.4883 13.644 11.4883M13.1954 12.0106C13.2166 12.05 13.2757 12.1598 13.2896 12.153C13.2983 12.1487 13.2914 12.1262 13.2914 12.1262C13.2914 12.1262 13.2896 12.0965 13.28 12.0606C13.2706 12.0244 13.2728 11.978 13.254 11.9483C13.2356 11.9186 13.1916 11.8834 13.1743 11.8365C13.1572 11.7895 13.1707 11.7005 13.1721 11.6896C13.1738 11.6793 13.179 11.6861 13.1699 11.6754C13.1607 11.6639 13.0859 11.6241 13.0859 11.6241C13.0859 11.6241 13.0903 11.6532 13.0884 11.7057C13.0877 11.7184 13.0842 11.7333 13.0822 11.7554C13.0804 11.7764 13.0931 11.8029 13.1238 11.8634C13.1594 11.9335 13.1765 11.9765 13.1954 12.0106Z" stroke="black" stroke-width="0.045697"/>
<path d="M13.2277 11.5216C13.1963 11.4926 13.1719 11.4839 13.1719 11.4839C13.1719 11.4839 13.1794 11.5408 13.1794 11.5755C13.1794 11.6103 13.1824 11.6687 13.1806 11.6999C13.1794 11.731 13.1639 11.7824 13.1859 11.8328C13.2086 11.8826 13.2341 11.9079 13.2521 11.9391C13.2685 11.9698 13.2985 12.1288 13.2985 12.1288C13.2985 12.1288 13.2875 11.9137 13.297 11.8528C13.3057 11.7931 13.3086 11.6999 13.2952 11.6532C13.2813 11.6063 13.2583 11.5513 13.2277 11.5216ZM13.371 11.3116C13.3805 11.2932 13.4026 11.2551 13.4118 11.1973C13.4152 11.1727 13.4175 11.1329 13.4166 11.1054C13.4159 11.0869 13.4086 11.055 13.4166 11.0528C13.4238 11.0511 13.4178 11.0628 13.4219 11.09C13.4238 11.0998 13.4171 11.1267 13.4159 11.1612C13.4143 11.1887 13.4132 11.2118 13.4009 11.2491C13.3902 11.282 13.3999 11.3185 13.3933 11.3287C13.3862 11.3391 13.3673 11.3786 13.3673 11.3786C13.3673 11.3786 13.3557 11.4104 13.3577 11.4394C13.3587 11.4691 13.3605 11.5012 13.3605 11.5012C13.3605 11.5012 13.3742 11.4757 13.4049 11.4715C13.4049 11.4715 13.4118 11.4217 13.4118 11.4062C13.4118 11.3906 13.4318 11.2887 13.4419 11.2576C13.4558 11.212 13.4657 11.1326 13.4436 11.0404C13.4375 11.0155 13.433 10.9375 13.433 10.9375C13.433 10.9375 13.4037 10.961 13.3862 11.05C13.3808 11.077 13.3922 11.1495 13.3878 11.2268C13.386 11.2695 13.3451 11.4422 13.3396 11.453" fill="#009B3A"/>
<path d="M13.371 11.3116C13.3805 11.2932 13.4026 11.2551 13.4118 11.1973C13.4152 11.1727 13.4175 11.1329 13.4166 11.1054C13.4159 11.0869 13.4086 11.055 13.4166 11.0528C13.4238 11.0511 13.4178 11.0628 13.4219 11.09C13.4238 11.0998 13.4171 11.1267 13.4159 11.1612C13.4143 11.1887 13.4132 11.2118 13.4009 11.2491C13.3902 11.282 13.3999 11.3185 13.3933 11.3287C13.3862 11.3391 13.3673 11.3786 13.3673 11.3786C13.3673 11.3786 13.3557 11.4104 13.3577 11.4394C13.3587 11.4691 13.3605 11.5012 13.3605 11.5012C13.3605 11.5012 13.3742 11.4757 13.4049 11.4715C13.4049 11.4715 13.4118 11.4217 13.4118 11.4062C13.4118 11.3906 13.4318 11.2887 13.4419 11.2576C13.4558 11.212 13.4657 11.1326 13.4436 11.0404C13.4375 11.0155 13.433 10.9375 13.433 10.9375C13.433 10.9375 13.4037 10.961 13.3862 11.05C13.3808 11.077 13.3922 11.1495 13.3878 11.2268C13.386 11.2695 13.3451 11.4422 13.3396 11.453M13.2277 11.5216C13.1963 11.4926 13.1719 11.4839 13.1719 11.4839C13.1719 11.4839 13.1794 11.5408 13.1794 11.5755C13.1794 11.6103 13.1824 11.6687 13.1806 11.6999C13.1794 11.731 13.1639 11.7824 13.1859 11.8328C13.2086 11.8826 13.2341 11.9079 13.2521 11.9391C13.2685 11.9698 13.2985 12.1288 13.2985 12.1288C13.2985 12.1288 13.2875 11.9137 13.297 11.8528C13.3057 11.7931 13.3086 11.6999 13.2952 11.6532C13.2813 11.6063 13.2583 11.5513 13.2277 11.5216Z" stroke="black" stroke-width="0.045697"/>
<path d="M13.3732 11.3125C13.3716 11.3153 13.3711 11.3165 13.3711 11.3165C13.3711 11.3165 13.3724 11.3153 13.3732 11.3125Z" fill="#009B3A" stroke="black" stroke-width="0.045697"/>
<path d="M13.257 10.8629C13.2727 10.8629 13.2727 10.8799 13.2694 10.8933C13.267 10.9071 13.2673 10.9328 13.2673 10.9381C13.2673 10.9441 13.2739 10.9807 13.2791 10.9998C13.2848 11.0194 13.2946 11.0256 13.2903 11.065C13.2874 11.0898 13.262 11.119 13.2709 11.1611C13.2757 11.1832 13.2916 11.2064 13.2994 11.2254C13.306 11.2387 13.3024 11.2711 13.3042 11.2977C13.3049 11.3235 13.3192 11.3409 13.3192 11.3409C13.3192 11.3409 13.3015 11.3739 13.2956 11.3327C13.2892 11.2854 13.2871 11.2644 13.278 11.243C13.2632 11.2079 13.2497 11.1449 13.2726 11.0963C13.2766 11.087 13.2796 11.0695 13.2796 11.0488C13.2796 11.0277 13.2667 10.9918 13.2642 10.9695C13.262 10.9518 13.2634 10.9145 13.2634 10.901M13.1811 11.0988C13.1848 11.1255 13.1934 11.1407 13.2235 11.1987C13.2328 11.2179 13.2538 11.2667 13.257 11.2822C13.2607 11.2978 13.264 11.3166 13.264 11.3213C13.264 11.3265 13.2673 11.3631 13.2673 11.3631V11.3783C13.2673 11.3783 13.1839 11.3297 13.1474 11.3037C13.111 11.2775 13.0697 11.2415 13.0433 11.2198C13.0134 11.1952 12.9421 11.1107 12.9412 11.043L12.9085 11.0133C12.9085 11.0133 12.8835 11.1638 13.0014 11.2612C13.0355 11.2891 13.0726 11.3199 13.1518 11.3558C13.2313 11.3925 13.2209 11.4252 13.254 11.4956C13.2866 11.5663 13.3071 11.607 13.3112 11.627C13.314 11.6484 13.3021 11.9491 13.3021 11.9491L13.305 11.9764C13.305 11.9764 13.3776 11.6978 13.4125 11.6667C13.4125 11.6667 13.3433 11.6561 13.3488 11.5472L13.3366 11.4754C13.3366 11.4754 13.3228 11.389 13.3488 11.3355C13.3488 11.3355 13.3796 11.2373 13.3691 11.1524C13.3625 11.1017 13.3601 11.0865 13.354 11.0378C13.3445 10.9621 13.3142 10.8539 13.3108 10.8408C13.3004 10.8028 13.2969 10.7969 13.2848 10.7669C13.2812 10.7563 13.2744 10.7212 13.2632 10.7207C13.2568 10.7203 13.247 10.7658 13.247 10.7658C13.247 10.7658 13.2324 10.8153 13.2294 10.8287C13.2199 10.8687 13.1978 10.9023 13.1877 10.9922C13.1859 11.0085 13.1841 11.0523 13.1821 11.0582C13.1811 11.0631 13.179 11.0889 13.1811 11.0988Z" fill="#009B3A"/>
<path d="M13.257 10.8629C13.2727 10.8629 13.2727 10.8799 13.2694 10.8933C13.267 10.9071 13.2673 10.9328 13.2673 10.9381C13.2673 10.9441 13.2739 10.9807 13.2791 10.9998C13.2848 11.0194 13.2946 11.0256 13.2903 11.065C13.2874 11.0898 13.262 11.119 13.2709 11.1611C13.2757 11.1832 13.2916 11.2064 13.2994 11.2254C13.306 11.2387 13.3024 11.2711 13.3042 11.2977C13.3049 11.3235 13.3192 11.3409 13.3192 11.3409C13.3192 11.3409 13.3015 11.3739 13.2956 11.3327C13.2892 11.2854 13.2871 11.2644 13.278 11.243C13.2632 11.2079 13.2497 11.1449 13.2726 11.0963C13.2766 11.087 13.2796 11.0695 13.2796 11.0488C13.2796 11.0277 13.2667 10.9918 13.2642 10.9695C13.262 10.9518 13.2634 10.9145 13.2634 10.901M13.1811 11.0988C13.1848 11.1255 13.1934 11.1407 13.2235 11.1987C13.2328 11.2179 13.2538 11.2667 13.257 11.2822C13.2607 11.2978 13.264 11.3166 13.264 11.3213C13.264 11.3265 13.2673 11.3631 13.2673 11.3631V11.3783C13.2673 11.3783 13.1839 11.3297 13.1474 11.3037C13.111 11.2775 13.0697 11.2415 13.0433 11.2198C13.0134 11.1952 12.9421 11.1107 12.9412 11.043L12.9085 11.0133C12.9085 11.0133 12.8835 11.1638 13.0014 11.2612C13.0355 11.2891 13.0726 11.3199 13.1518 11.3558C13.2313 11.3925 13.2209 11.4252 13.254 11.4956C13.2866 11.5663 13.3071 11.607 13.3112 11.627C13.314 11.6484 13.3021 11.9491 13.3021 11.9491L13.305 11.9764C13.305 11.9764 13.3776 11.6978 13.4125 11.6667C13.4125 11.6667 13.3433 11.6561 13.3488 11.5472L13.3366 11.4754C13.3366 11.4754 13.3228 11.389 13.3488 11.3355C13.3488 11.3355 13.3796 11.2373 13.3691 11.1524C13.3625 11.1017 13.3601 11.0865 13.354 11.0378C13.3445 10.9621 13.3142 10.8539 13.3108 10.8408C13.3004 10.8028 13.2969 10.7969 13.2848 10.7669C13.2812 10.7563 13.2744 10.7212 13.2632 10.7207C13.2568 10.7203 13.247 10.7658 13.247 10.7658C13.247 10.7658 13.2324 10.8153 13.2294 10.8287C13.2199 10.8687 13.1978 10.9023 13.1877 10.9922C13.1859 11.0085 13.1841 11.0523 13.1821 11.0582C13.1811 11.0631 13.179 11.0889 13.1811 11.0988Z" stroke="black" stroke-width="0.045697"/>
<path d="M13.2417 11.479C13.2417 11.479 13.2296 11.4521 13.2172 11.4383C13.1925 11.4092 13.1592 11.3844 13.0644 11.3381C12.97 11.291 12.945 11.2137 12.8969 11.1819C12.8748 11.1667 12.832 11.1594 12.832 11.1594C12.832 11.1594 12.8741 11.2173 12.884 11.2373C12.8969 11.2627 12.8999 11.2801 12.9519 11.3285C13.0036 11.3772 13.0667 11.3942 13.1073 11.4062C13.1647 11.424 13.2417 11.4791 13.2417 11.4791M12.944 11.0321C12.9466 11.0397 12.9709 11.1229 13.0221 11.1874C13.1002 11.2863 13.2508 11.3569 13.2508 11.3569C13.2368 11.2954 13.2122 11.2242 13.1928 11.1927C13.1243 11.0822 12.9435 11.028 12.9435 11.028C12.9435 11.028 12.9403 11.0238 12.944 11.0321ZM13.1599 11.0787C13.2004 10.99 13.0795 10.9053 13.0453 10.8434C13.058 10.8334 13.0729 10.8597 13.0868 10.8773C13.1066 10.9036 13.1624 10.9798 13.1624 10.9798L13.1797 10.8986L13.0356 10.7676C13.0339 10.7866 12.9894 10.8023 12.9894 10.8023C12.9678 10.9236 13.1599 11.0787 13.1599 11.0787" fill="#009B3A"/>
<path d="M13.2417 11.479C13.2417 11.479 13.2296 11.4521 13.2172 11.4383C13.1925 11.4092 13.1592 11.3844 13.0644 11.3381C12.97 11.291 12.945 11.2137 12.8969 11.1819C12.8748 11.1667 12.832 11.1594 12.832 11.1594C12.832 11.1594 12.8741 11.2173 12.884 11.2373C12.8969 11.2627 12.8999 11.2801 12.9519 11.3285C13.0036 11.3772 13.0667 11.3942 13.1073 11.4062C13.1647 11.424 13.2417 11.4791 13.2417 11.4791M13.1599 11.0787C13.2004 10.99 13.0795 10.9053 13.0453 10.8434C13.058 10.8334 13.0729 10.8597 13.0868 10.8773C13.1066 10.9036 13.1624 10.9798 13.1624 10.9798L13.1797 10.8986L13.0356 10.7676C13.0339 10.7866 12.9894 10.8023 12.9894 10.8023C12.9678 10.9236 13.1599 11.0787 13.1599 11.0787M12.944 11.0321C12.9466 11.0397 12.9709 11.1229 13.0221 11.1874C13.1002 11.2863 13.2508 11.3569 13.2508 11.3569C13.2368 11.2954 13.2122 11.2242 13.1928 11.1927C13.1243 11.0822 12.9435 11.028 12.9435 11.028C12.9435 11.028 12.9403 11.0238 12.944 11.0321Z" stroke="black" stroke-width="0.045697"/>
<path d="M12.9103 10.8742C12.8756 10.8898 12.8633 10.8898 12.8633 10.8898L12.8827 10.9412L12.8939 10.9552C12.8939 10.9552 12.9392 11.0206 12.9655 11.0288C12.9766 11.0329 13.0178 11.0401 13.0591 11.0578C13.1111 11.0799 13.196 11.1541 13.196 11.1541C13.196 11.1541 13.0548 10.9949 13.0006 10.8754L12.9824 10.8066L12.9312 10.81C12.9312 10.81 12.9452 10.8583 12.9103 10.8742Z" fill="#009B3A" stroke="black" stroke-width="0.045697"/>
<path d="M12.3806 10.7721C12.4043 10.7935 12.43 10.8126 12.4574 10.8291C12.4885 10.8478 12.5783 10.9007 12.6455 10.9134C12.6613 10.9159 12.7456 10.9265 12.7456 10.9265C12.749 10.8895 12.7891 10.8863 12.7891 10.8863L12.6696 10.8733C12.5732 10.8661 12.4998 10.8258 12.4427 10.7613C12.5193 10.8078 12.6294 10.8809 12.7187 10.877C13.085 10.841 12.6083 10.8319 12.5669 10.8054C12.5231 10.7783 12.4857 10.7334 12.4857 10.7334L12.3783 10.7286C12.3783 10.7286 12.3255 10.7253 12.3806 10.7721Z" fill="#009B3A" stroke="black" stroke-width="0.045697"/>
<path d="M12.8116 10.9796C12.8353 10.9778 12.8519 10.9734 12.8572 10.9474C12.862 10.9184 12.851 10.8974 12.8161 10.8897C12.7967 10.8849 12.7626 10.8839 12.7487 10.9184C12.7336 10.9538 12.7886 10.9764 12.7886 10.9764C12.7886 10.9764 12.7991 10.981 12.8116 10.9796ZM12.8527 10.7695C12.8217 10.7695 12.8112 10.7948 12.8178 10.8441C12.826 10.8939 12.902 10.8722 12.902 10.8722L12.9161 10.8649C12.9161 10.8649 12.9265 10.8569 12.9207 10.8173C12.9154 10.7768 12.8839 10.7695 12.8527 10.7695ZM12.9772 10.8044H12.976C12.9755 10.8048 12.9772 10.8044 12.9772 10.8044Z" fill="#009B3A" stroke="black" stroke-width="0.045697"/>
<path d="M12.9762 10.8058C12.9771 10.8055 12.9792 10.8044 12.9873 10.8021C13.0031 10.7961 13.0191 10.758 13.0191 10.758C13.0271 10.7066 12.9903 10.6939 12.9903 10.6939C12.9283 10.6815 12.9267 10.736 12.9267 10.736C12.9096 10.8069 12.9671 10.8062 12.9762 10.8058M12.7 10.5623C12.7035 10.5858 12.7369 10.6199 12.7421 10.6258C12.7482 10.6311 12.791 10.6757 12.8054 10.6956C12.8198 10.7156 12.8678 10.8063 12.8678 10.8063C12.8678 10.8063 12.8762 10.8049 12.8797 10.798C12.8881 10.7839 12.8476 10.674 12.8435 10.6665C12.8287 10.6331 12.8044 10.6083 12.78 10.5823C12.7744 10.5786 12.7544 10.5529 12.7325 10.5254C12.7759 10.5808 12.887 10.7386 12.9198 10.8088C12.9198 10.8088 12.9158 10.734 12.9117 10.6939C12.8979 10.5768 12.8674 10.5405 12.8576 10.5236C12.8403 10.4919 12.7965 10.4612 12.7651 10.4503C12.7338 10.439 12.6967 10.4234 12.657 10.4107C12.6159 10.3982 12.6475 10.4351 12.6626 10.467C12.6815 10.5047 12.6967 10.5384 12.7001 10.5623" fill="#009B3A"/>
<path d="M12.9762 10.8058C12.9771 10.8055 12.9792 10.8044 12.9873 10.8021C13.0031 10.7961 13.0191 10.758 13.0191 10.758C13.0271 10.7066 12.9903 10.6939 12.9903 10.6939C12.9283 10.6815 12.9267 10.736 12.9267 10.736C12.9096 10.8069 12.9671 10.8062 12.9762 10.8058M12.7 10.5623C12.7035 10.5858 12.7369 10.6199 12.7421 10.6258C12.7482 10.6311 12.791 10.6757 12.8054 10.6956C12.8198 10.7156 12.8678 10.8063 12.8678 10.8063C12.8678 10.8063 12.8762 10.8049 12.8797 10.798C12.8881 10.7839 12.8476 10.674 12.8435 10.6665C12.8287 10.6331 12.8044 10.6083 12.78 10.5823C12.7744 10.5786 12.7544 10.5529 12.7325 10.5254C12.7759 10.5808 12.887 10.7386 12.9198 10.8088C12.9198 10.8088 12.9158 10.734 12.9117 10.6939C12.8979 10.5768 12.8674 10.5405 12.8576 10.5236C12.8403 10.4919 12.7965 10.4612 12.7651 10.4503C12.7338 10.439 12.6967 10.4234 12.657 10.4107C12.6159 10.3982 12.6475 10.4351 12.6626 10.467C12.6815 10.5047 12.6967 10.5384 12.7001 10.5623" stroke="black" stroke-width="0.045697"/>
<path d="M12.5473 10.7537C12.5878 10.788 12.606 10.8119 12.6899 10.8242C12.7745 10.8375 12.7816 10.8319 12.7816 10.8319C12.7816 10.8319 12.8255 10.8107 12.8032 10.7921C12.6789 10.7374 12.5611 10.6723 12.5013 10.5991C12.5013 10.5991 12.5117 10.589 12.5548 10.6322C12.5798 10.6575 12.5965 10.6702 12.6118 10.6821C12.6571 10.7137 12.6767 10.7228 12.7218 10.7473C12.7458 10.7604 12.8059 10.7745 12.8059 10.7745C12.8059 10.7745 12.8144 10.7564 12.8221 10.7542C12.8294 10.7525 12.8174 10.7239 12.7652 10.6817C12.7362 10.6576 12.7105 10.6298 12.689 10.5989C12.689 10.5989 12.6272 10.5853 12.5602 10.5742C12.5102 10.5662 12.4164 10.4934 12.418 10.5132C12.4197 10.5335 12.4321 10.5966 12.4574 10.6368C12.4828 10.6771 12.5071 10.7184 12.5473 10.7537" fill="#009B3A"/>
<path d="M12.5473 10.7537C12.5878 10.788 12.606 10.8119 12.6899 10.8242C12.7745 10.8375 12.7816 10.8319 12.7816 10.8319C12.7816 10.8319 12.8255 10.8107 12.8032 10.7921C12.6789 10.7374 12.5611 10.6723 12.5013 10.5991C12.5013 10.5991 12.5117 10.589 12.5548 10.6322C12.5798 10.6575 12.5965 10.6702 12.6118 10.6821C12.6571 10.7137 12.6767 10.7228 12.7218 10.7473C12.7458 10.7604 12.8059 10.7745 12.8059 10.7745C12.8059 10.7745 12.8144 10.7564 12.8221 10.7542C12.8294 10.7525 12.8174 10.7239 12.7652 10.6817C12.7362 10.6576 12.7105 10.6298 12.689 10.5989C12.689 10.5989 12.6272 10.5853 12.5602 10.5742C12.5102 10.5662 12.4164 10.4934 12.418 10.5132C12.4197 10.5335 12.4321 10.5966 12.4574 10.6368C12.4828 10.6771 12.5071 10.7184 12.5473 10.7537" stroke="black" stroke-width="0.045697"/>
<path d="M11.8494 13.2838C11.8128 13.2946 11.5377 13.3979 11.5377 13.3979L11.4609 13.4287C11.567 13.4048 11.6482 13.4582 11.6482 13.4582L11.9546 13.3164C11.9546 13.3164 11.9537 13.3118 11.9461 13.3063C11.938 13.3008 11.8865 13.2727 11.8494 13.2838Z" fill="#009B3A" stroke="black" stroke-width="0.0364848"/>
<path d="M11.4475 13.438C11.4454 13.4397 11.4434 13.447 11.4487 13.4493C11.464 13.4578 11.4599 13.4611 11.5293 13.4695C11.5993 13.4771 11.6449 13.4638 11.6569 13.4505C11.6709 13.4352 11.4835 13.4065 11.4474 13.438" fill="#009B3A"/>
<path d="M11.4475 13.438C11.4454 13.4397 11.4434 13.447 11.4487 13.4493C11.464 13.4578 11.4599 13.4611 11.5293 13.4695C11.5993 13.4771 11.6449 13.4638 11.6569 13.4505C11.6709 13.4352 11.4835 13.4065 11.4474 13.438" stroke="black" stroke-width="0.0390303"/>
<path d="M11.0078 12.4488L10.9951 12.3628C10.9951 12.3628 10.9791 12.1304 10.9527 12.0838C10.9476 12.0734 10.9499 12.0493 10.9332 12.0489C10.9011 12.0465 10.9011 12.1221 10.8972 12.1906C10.845 12.536 11.1206 12.7998 11.1206 12.7998L11.0078 12.4488Z" fill="#009B3A" stroke="black" stroke-width="0.0506667"/>
<path d="M12.3722 13.4722C12.3722 13.4722 12.3432 13.4657 12.3615 13.4431C12.3791 13.4217 12.4312 13.4102 12.4416 13.4102C12.4519 13.4098 12.4811 13.4123 12.5028 13.4184C12.5248 13.4238 12.5551 13.4431 12.5463 13.4572C12.537 13.4705 12.5073 13.4872 12.4667 13.4872C12.4319 13.4872 12.4141 13.4863 12.3988 13.4819C12.3839 13.4763 12.3721 13.4722 12.3721 13.4722" fill="#009B3A"/>
<path d="M12.3722 13.4722C12.3722 13.4722 12.3432 13.4657 12.3615 13.4431C12.3791 13.4217 12.4312 13.4102 12.4416 13.4102C12.4519 13.4098 12.4811 13.4123 12.5028 13.4184C12.5248 13.4238 12.5551 13.4431 12.5463 13.4572C12.537 13.4705 12.5073 13.4872 12.4667 13.4872C12.4319 13.4872 12.4141 13.4863 12.3988 13.4819C12.3839 13.4763 12.3721 13.4722 12.3721 13.4722" stroke="black" stroke-width="0.0466667"/>
<path d="M12.0749 13.3081C12.0749 13.3081 11.9803 13.2646 11.8907 13.2207C11.7725 13.163 11.6305 13.0829 11.5316 12.9359C11.4078 12.7539 11.3002 12.6565 11.2742 12.6369C11.2474 12.6173 11.2435 12.61 11.2337 12.6238C11.2248 12.6358 11.231 12.6462 11.2385 12.659C11.264 12.7004 11.3266 12.7782 11.349 12.8199C11.3876 12.8946 11.4677 12.9761 11.467 13.0244C11.467 13.0311 11.4436 13.0196 11.4436 13.0196C11.4436 13.0196 11.2563 12.9554 11.1805 12.7285C11.1252 12.564 11.1487 12.5157 11.1359 12.4335C11.114 12.2874 11.1095 12.2755 11.0372 12.1118C11.0352 12.1077 10.993 12.0393 10.9873 12.0545C10.9794 12.0741 10.9944 12.1473 10.9944 12.1473L11.0021 12.2317C11.0021 12.2317 10.996 12.419 10.996 12.4303C10.996 12.4417 10.9488 12.5585 11.1492 12.755C11.1492 12.755 11.1523 12.7884 11.1254 12.759C11.1063 12.738 10.9628 12.6278 10.9192 12.4466C10.8743 12.2653 10.8677 12.0838 10.9018 12.0085C10.9326 11.9404 10.9944 11.7739 10.968 11.6286C10.965 11.6134 10.9607 11.5688 10.9511 11.5805C10.947 11.5862 10.929 11.6598 10.9181 11.6852C10.903 11.7201 10.8795 11.7543 10.8722 11.7784C10.8581 11.8192 10.789 11.8824 10.8025 11.9986C10.8178 12.1321 10.8265 12.153 10.8426 12.2006C10.8481 12.2179 10.8615 12.2621 10.8528 12.2665C10.8447 12.2708 10.8164 12.2137 10.8164 12.2137C10.8164 12.2137 10.6895 11.9643 10.7678 11.7619C10.8469 11.5605 11.0454 11.3695 11.0454 11.3695C11.0454 11.3695 11.2066 11.2358 11.2394 11.2046C11.2523 11.1926 11.2492 11.1836 11.2449 11.185C11.2048 11.1951 10.8946 11.2593 10.7856 11.6289C10.7856 11.6289 10.7799 11.6445 10.7719 11.6406C10.7619 11.6362 10.7719 11.6188 10.7719 11.6188C10.7719 11.6188 10.8401 11.3568 11.0316 11.2379C11.2406 11.1075 11.2161 11.1266 11.2852 11.0856C11.3287 11.0586 11.368 11.0223 11.4167 10.9418C11.4217 10.9329 11.4414 10.886 11.4388 10.878C11.4366 10.8701 11.4272 10.881 11.4228 10.8943C11.4228 10.8943 11.3636 10.9857 11.275 11.0165C11.1862 11.0473 11.1139 11.0034 11.0247 11.1021C10.9352 11.2013 10.8642 11.3387 10.8642 11.3387C10.8642 11.3387 10.8408 11.3743 10.8356 11.3732C10.8258 11.3702 10.8404 11.3354 10.8404 11.3354C10.8404 11.3354 10.9598 11.0821 11.0557 11.0306C11.1517 10.9788 11.2372 10.9291 11.2918 10.887C11.3581 10.835 11.4723 10.7077 11.5135 10.6638C11.5222 10.6545 11.5835 10.5923 11.597 10.5722C11.6052 10.5612 11.6247 10.5453 11.6215 10.5425C11.6127 10.536 11.5546 10.5639 11.5546 10.5639C11.5546 10.5639 11.2384 10.651 11.0417 10.9482C11.0326 10.9619 11.011 10.99 10.9994 11.0018C10.9784 11.0236 10.9679 11.0599 10.9679 11.0599C10.955 11.0493 11.0791 10.8943 11.0791 10.8943L11.1008 10.794C11.1008 10.794 11.1375 10.6433 11.2147 10.537C11.2223 10.5273 11.2679 10.4813 11.2756 10.4717C11.2909 10.4551 11.2465 10.4863 11.2544 10.4793C11.2544 10.4793 10.9595 10.691 10.9595 10.9578C10.9595 11.0057 10.9297 11.0494 10.8886 11.109C10.8404 11.1781 10.8244 11.2206 10.8036 11.3235C10.7949 11.3668 10.7859 11.41 10.7765 11.4531C10.7765 11.4531 10.7793 11.4912 10.767 11.4883C10.7542 11.4855 10.7587 11.454 10.7587 11.454C10.7587 11.454 10.7888 11.2552 10.8102 11.194C10.831 11.1346 10.8447 11.0941 10.8447 11.0941C10.8447 11.0941 10.8324 10.9447 10.8656 10.8627C10.8937 10.7913 10.965 10.6973 10.976 10.6737C10.9808 10.6635 11.0138 10.5965 11.0231 10.5201C11.0243 10.5098 11.0163 10.5183 11.003 10.5481C10.9705 10.6212 10.9434 10.6403 10.8902 10.7091C10.8902 10.7091 10.7535 10.8081 10.704 11.1027C10.704 11.1027 10.7023 11.2126 10.6856 11.3847C10.6735 11.5108 10.6838 11.6289 10.6981 11.7001C10.7072 11.7435 10.7245 11.7439 10.7138 11.7492C10.7071 11.7526 10.718 11.7498 10.7025 11.7169C10.6836 11.6774 10.6691 11.6167 10.6691 11.5329C10.6691 11.3792 10.6825 11.2558 10.6825 11.2558C10.6825 11.2558 10.6925 11.0074 10.5895 10.8955C10.5846 10.8897 10.6076 10.9457 10.6179 11.0016C10.6306 11.071 10.6076 11.1672 10.6008 11.2046C10.5942 11.2423 10.5256 11.4065 10.5498 11.5605C10.5498 11.5605 10.6079 11.8217 10.6827 11.9483C10.6827 11.9483 10.7293 12.0029 10.6881 11.9518C10.6473 11.9006 10.5635 11.6974 10.5563 11.6801C10.5498 11.6634 10.4898 11.5369 10.4333 11.4855C10.404 11.4582 10.3237 11.41 10.3237 11.41C10.3237 11.41 10.2801 11.3767 10.3132 11.4209C10.3394 11.4558 10.3745 11.5184 10.3912 11.5457C10.426 11.602 10.457 11.6605 10.4839 11.721C10.5108 11.7802 10.5734 11.954 10.5734 11.954L10.6134 12.0643C10.6134 12.0643 10.6804 12.1015 10.717 12.1422C10.7469 12.1751 10.8089 12.2506 10.8604 12.385C10.8836 12.4445 10.9298 12.4989 10.9298 12.4989C10.9298 12.4989 10.92 12.5178 10.8788 12.4465C10.8382 12.3743 10.7984 12.2389 10.7006 12.1335C10.6263 12.0527 10.4263 11.9712 10.4263 11.9712C10.4263 11.9712 10.5548 12.1951 10.5867 12.235C10.6407 12.299 10.7187 12.3889 10.7389 12.4126C10.7597 12.4369 10.8806 12.5861 10.8984 12.61C10.9265 12.6473 10.9451 12.6638 10.9598 12.679C10.9917 12.7129 11.0861 12.7748 11.0935 12.7846C11.0948 12.7945 11.0967 12.7863 11.0887 12.7805C11.0468 12.7555 10.9968 12.7161 10.9452 12.6825C10.8937 12.6483 10.6948 12.5634 10.5609 12.3788C10.5291 12.3242 10.514 12.3025 10.5033 12.3081C10.4869 12.3168 10.5935 12.6694 10.8127 12.7815C10.8127 12.7815 11.0544 12.8891 11.1081 12.9214C11.1375 12.9391 11.1968 12.9653 11.2243 12.9874C11.2399 13.0003 11.21 12.9996 11.208 12.9993C11.0796 12.9892 10.8952 12.9722 10.782 12.9065C10.782 12.9065 10.7334 12.8724 10.7732 12.9204C10.805 12.9575 10.8652 13.0489 10.9814 13.1004C11.0978 13.1515 11.2668 13.1813 11.3287 13.1844C11.3894 13.1878 11.6061 13.1889 11.6476 13.2023C11.6882 13.2161 11.7574 13.2603 11.797 13.2731C11.8329 13.2847 11.9414 13.3263 11.9414 13.3263C11.9414 13.3263 11.9741 13.3442 11.9915 13.3506C12.0111 13.3584 12.0924 13.3577 12.0982 13.3425C12.1036 13.3288 12.0749 13.3081 12.0749 13.3081Z" fill="#009B3A" stroke="black" stroke-width="0.0364848"/>
<path d="M13.4805 11.4733C13.505 11.4822 13.5159 11.5551 13.5159 11.5551C13.5159 11.5551 13.5137 11.5134 13.5137 11.4929C13.5137 11.4721 13.5036 11.3945 13.5036 11.3945L13.4818 11.4101C13.4558 11.4308 13.4414 11.4674 13.4414 11.4674C13.4414 11.4674 13.4564 11.4649 13.4805 11.4732" fill="#009B3A"/>
<path d="M13.4805 11.4733C13.505 11.4822 13.5159 11.5551 13.5159 11.5551C13.5159 11.5551 13.5137 11.5134 13.5137 11.4929C13.5137 11.4721 13.5036 11.3945 13.5036 11.3945L13.4818 11.4101C13.4558 11.4308 13.4414 11.4674 13.4414 11.4674C13.4414 11.4674 13.4564 11.4649 13.4805 11.4732" stroke="black" stroke-width="0.045697"/>
</g>
<defs>
<clipPath id="clip0_358_11138">
<rect width="24" height="24" rx="12" fill="white"/>
</clipPath>
</defs>
</svg>
