<svg width="24" height="24" viewBox="0 0 24 24" fill="none" xmlns="http://www.w3.org/2000/svg">
<g clip-path="url(#clip0_358_14958)">
<path d="M24 0H-12V24H24V0Z" fill="#20603D"/>
<path d="M24 0H-12V18H24V0Z" fill="#FAD201"/>
<path d="M24 0H-12V12H24V0Z" fill="#00A1DE"/>
<path d="M21.419 6.26966L18.7387 6.42629L21.2871 7.27129L18.6576 6.72888L20.9005 8.20466L18.501 7.00018L20.2855 9.00616L18.2795 7.22169L19.484 9.62118L18.0082 7.37832L18.5506 10.0078L17.7056 7.4594L17.549 10.1397L17.5156 6.23633L21.419 6.26966Z" fill="#E5BE01"/>
<path d="M21.419 6.27135L18.7387 6.11472L21.2871 5.26972L18.6576 5.81213L20.9005 4.33635L18.501 5.54084L20.2855 3.53485L18.2795 5.31933L19.484 2.91984L18.0082 5.1627L18.5506 2.53322L17.7056 5.08162L17.549 2.40135L17.5156 6.30469L21.419 6.27135Z" fill="#E5BE01"/>
<path d="M13.6787 6.26966L16.359 6.42629L13.8106 7.27129L16.44 6.72888L14.1972 8.20466L16.5967 7.00018L14.8122 9.00616L16.8182 7.22169L15.6137 9.62118L17.0895 7.37832L16.5471 10.0078L17.3921 7.4594L17.5487 10.1397L17.582 6.23633L13.6787 6.26966Z" fill="#E5BE01"/>
<path d="M13.6787 6.2694L16.359 6.11277L13.8106 5.26777L16.44 5.81018L14.1972 4.3344L16.5967 5.53889L14.8122 3.5329L16.8182 5.31738L15.6137 2.91788L17.0895 5.16075L16.5471 2.53127L17.3921 5.07967L17.5487 2.3994L17.582 6.30273L13.6787 6.2694Z" fill="#E5BE01"/>
<path d="M17.5496 7.41362C18.181 7.41362 18.6929 6.90173 18.6929 6.27029C18.6929 5.63884 18.181 5.12695 17.5496 5.12695C16.9181 5.12695 16.4062 5.63884 16.4062 6.27029C16.4062 6.90173 16.9181 7.41362 17.5496 7.41362Z" fill="#E5BE01" stroke="#00A1DE" stroke-width="0.188889"/>
</g>
<defs>
<clipPath id="clip0_358_14958">
<rect width="24" height="24" rx="12" fill="white"/>
</clipPath>
</defs>
</svg>
