<svg width="24" height="24" viewBox="0 0 24 24" fill="none" xmlns="http://www.w3.org/2000/svg">
<g clip-path="url(#clip0_358_4690)">
<path d="M-6 0H30V24H-6V0Z" fill="#006C35"/>
<path d="M16.5729 16.5C16.5139 16.5 16.3541 16.6632 16.3541 16.7222C16.3541 16.7673 16.434 16.8576 16.5 16.9097V17.0452H5.25C5.64931 17.4445 6.24306 17.4548 7.4375 17.4548H16.5V17.5903C16.4306 17.6459 16.3541 17.7327 16.3541 17.7778C16.3541 17.8368 16.5139 18 16.5729 18C16.6215 18 16.7084 17.9132 16.7639 17.8403H17.2639C17.2796 17.8658 17.3063 17.8876 17.3406 17.9029C17.3749 17.9182 17.4153 17.9264 17.4566 17.9264C17.4979 17.9264 17.5383 17.9182 17.5726 17.9029C17.6069 17.8876 17.6336 17.8658 17.6493 17.8403H18.243C18.316 17.9236 18.4132 17.9271 18.4722 17.9271C18.6423 17.9271 18.75 17.8541 18.75 17.4548C18.75 17.0798 18.5833 17.0452 18.1736 17.0452H16.6459V16.9097C16.7118 16.8576 16.7916 16.7673 16.7916 16.7222C16.7916 16.6632 16.6319 16.5 16.5729 16.5ZM16.6459 17.4548H18.1736C18.1458 17.559 18.1458 17.6389 18.1736 17.7153H17.6493C17.6336 17.6898 17.6069 17.6681 17.5726 17.6527C17.5383 17.6374 17.4979 17.6292 17.4566 17.6292C17.4153 17.6292 17.3749 17.6374 17.3406 17.6527C17.3063 17.6681 17.2796 17.6898 17.2639 17.7153H16.7639C16.7361 17.6771 16.6841 17.6181 16.6459 17.5903V17.4548Z" fill="white"/>
<path d="M19.4828 6.54714C19.6979 6.36848 19.9064 6.18491 20.1131 6C20.1223 6.16618 20.0142 6.31897 19.8936 6.44878C19.829 6.52426 19.7379 6.58076 19.656 6.6435C19.6168 6.67163 19.5787 6.70059 19.5411 6.72988C19.5519 6.77432 19.5684 6.81809 19.5745 6.86319C19.5714 6.90505 19.5628 6.94666 19.5565 6.98835C19.5101 6.93076 19.477 6.86652 19.424 6.8126C19.4474 7.00108 19.4587 7.1904 19.4746 7.37938C19.516 7.93426 19.554 8.48923 19.5898 9.04436C19.5877 9.05867 19.6035 9.06774 19.6137 9.07789C19.7668 9.21253 19.9192 9.34768 20.0624 9.48897C20.1749 9.60747 20.2815 9.72996 20.3718 9.86003C20.4902 10.0303 20.5839 10.2147 20.6115 10.4091C20.6266 10.5313 20.6191 10.6575 20.5688 10.7746C20.5182 10.4804 20.3589 10.2016 20.1333 9.9658C20.1285 9.96521 20.1186 9.96405 20.1137 9.96355C20.1163 9.96172 20.1215 9.95806 20.124 9.95623C19.9642 9.78389 19.7924 9.61863 19.6159 9.45685C19.6283 9.65474 19.6406 9.85271 19.6501 10.0507C19.6595 10.3061 19.6476 10.5615 19.6339 10.8167C19.634 10.865 19.6065 10.9092 19.5923 10.9554C19.5512 11.0591 19.518 11.1653 19.4653 11.2658C19.4569 11.0301 19.4468 10.7942 19.4288 10.5588C19.3966 10.1371 19.3626 9.71565 19.3321 9.294C19.3276 9.2608 19.3299 9.22693 19.3219 9.1943C19.2058 9.08687 19.0804 8.98585 18.9591 8.88216C18.7455 8.70558 18.5297 8.53066 18.3057 8.3624C18.3482 8.80286 18.3921 9.24323 18.4319 9.68386C18.4489 9.88391 18.4714 10.084 18.4739 10.2846C18.4769 10.4591 18.4747 10.6337 18.4698 10.8081C18.4704 10.9182 18.4723 11.032 18.423 11.1366C18.35 11.2663 18.219 11.3746 18.0612 11.4414C17.9379 11.4931 17.7985 11.5207 17.6591 11.5216C17.565 11.5233 17.4714 11.5035 17.3882 11.4694C17.2425 11.4044 17.1386 11.2936 17.0717 11.1743C17.0258 11.0921 16.9929 11.0053 16.9751 10.9165C16.9648 10.8777 16.9539 10.8327 16.91 10.8084C16.8751 10.7898 16.8334 10.8047 16.7996 10.8172C16.7175 10.8518 16.6384 10.8936 16.579 10.9511C16.3854 11.1353 16.2934 11.3705 16.2358 11.6019C16.2076 11.7018 16.1629 11.801 16.0844 11.8835C16.0275 11.9422 15.946 11.9931 15.8501 12C15.7749 11.9958 15.7021 11.9758 15.6349 11.9495C15.4862 11.8874 15.3816 11.7742 15.3216 11.6521C15.3037 11.6203 15.2954 11.5857 15.2772 11.5541C15.2742 11.5537 15.2682 11.5531 15.2651 11.5526C15.2681 11.5511 15.274 11.5481 15.2768 11.5465C15.2153 11.3599 15.2062 11.1651 15.2197 10.9734C15.2262 10.9548 15.2019 10.9481 15.1886 10.9378C15.1356 10.9018 15.1139 10.8447 15.1146 10.791C15.1132 10.5937 15.1493 10.3929 15.2543 10.2124C15.3394 10.0636 15.4668 9.93359 15.591 9.80411C15.6026 9.79013 15.6232 9.77898 15.6289 9.76266C15.5516 9.69285 15.47 9.62594 15.3875 9.55995C15.3405 9.51693 15.2833 9.48198 15.237 9.43854C15.0631 9.28933 14.8921 9.13805 14.7212 8.98668C14.7375 9.20811 14.7499 9.42971 14.7639 9.65132C14.7745 9.85652 14.7925 10.0617 14.7888 10.2671C14.7895 10.4503 14.7791 10.6333 14.7697 10.8162C14.7691 10.8618 14.7459 10.9042 14.7312 10.9476C14.6897 11.0547 14.6523 11.1631 14.602 11.2679C14.5926 11.1812 14.5983 11.0939 14.5914 11.0071C14.5724 10.5742 14.5295 10.1422 14.4991 9.70974C14.4733 9.37887 14.4504 9.04776 14.4229 8.71706C14.309 8.60521 14.1888 8.49695 14.0761 8.38403C13.9443 8.25238 13.8125 8.11982 13.7021 7.97611C13.5436 7.75043 13.3656 7.53132 13.1459 7.33959C13.1334 7.33027 13.1373 7.31637 13.1374 7.30447C13.1449 7.1804 13.1509 7.05632 13.1587 6.93225C13.3151 7.0128 13.4642 7.10209 13.6076 7.19671C13.7187 7.27252 13.8244 7.35382 13.9143 7.44577C13.9607 7.48921 14.0035 7.54463 13.9879 7.60396C13.9351 7.5874 13.8805 7.57417 13.8306 7.5527C13.8105 7.54396 13.7886 7.53839 13.7661 7.53573C13.7628 7.57043 13.7927 7.59781 13.8151 7.6251C13.978 7.81392 14.148 7.99874 14.3224 8.18098C14.3448 8.20436 14.3695 8.22666 14.3867 8.25296C14.3757 8.03927 14.3551 7.82582 14.3404 7.61221C14.3157 7.28234 14.2904 6.95256 14.2657 6.62269C14.2611 6.57343 14.2642 6.52259 14.2392 6.47623C14.2271 6.45776 14.245 6.44087 14.2548 6.42489C14.3147 6.33335 14.3725 6.2409 14.4293 6.14803C14.4321 6.14154 14.4452 6.12482 14.4492 6.14088C14.5568 6.36215 14.6405 6.59066 14.7024 6.82258C14.7214 6.87809 14.6979 6.93467 14.6909 6.99018C14.6507 6.92735 14.6052 6.86685 14.5606 6.80594C14.6177 7.3852 14.6508 7.96587 14.6936 8.5458C14.7225 8.58425 14.7669 8.6147 14.8023 8.64982C15.1436 8.96122 15.4979 9.26337 15.852 9.56553C16.1152 9.33436 16.3809 9.10501 16.6476 8.87642C16.6592 8.86793 16.6671 8.85754 16.663 8.84463C16.5828 8.12357 16.5024 7.40243 16.422 6.68136C16.4118 6.60847 16.4146 6.53341 16.38 6.46417C16.4457 6.35241 16.5178 6.2429 16.5831 6.13089C16.6188 6.18972 16.6434 6.25256 16.6716 6.31397C16.7379 6.467 16.7952 6.62253 16.8405 6.78023C16.85 6.81576 16.8656 6.85163 16.8594 6.88841C16.8546 6.92161 16.8488 6.95473 16.8443 6.98802C16.8004 6.92927 16.7582 6.86969 16.7139 6.8111C16.7075 6.81301 16.7014 6.81501 16.6955 6.81701C16.7018 6.81825 16.7083 6.81942 16.7151 6.8205C16.7818 7.4338 16.8321 8.04843 16.8976 8.66197C17.1741 8.42955 17.4484 8.19539 17.7262 7.96397C17.7567 7.93651 17.7914 7.91196 17.8195 7.88283C17.6843 7.73912 17.5582 7.59025 17.4324 7.44137C17.3887 7.39236 17.3547 7.3386 17.313 7.28859C17.225 7.18074 17.1352 7.07165 17.0145 6.98468C17.004 6.84455 16.9983 6.70408 16.9907 6.5637C17.2743 6.75976 17.5623 6.95198 17.8379 7.15519C17.8643 7.17392 17.8853 7.19688 17.9 7.22251C17.8752 7.00324 17.8525 6.78388 17.829 6.56453C17.8262 6.54439 17.827 6.52342 17.8164 6.50461C17.8094 6.48531 17.7899 6.46467 17.8057 6.44495C17.8709 6.33885 17.9324 6.23133 17.9969 6.1249C18.1098 6.33627 18.1977 6.55579 18.2673 6.77848C18.2745 6.80976 18.2917 6.84047 18.2864 6.87276C18.2813 6.90837 18.2782 6.94416 18.2731 6.97977C18.2332 6.92734 18.1934 6.87492 18.1539 6.82241C18.1471 6.81409 18.1407 6.80576 18.1349 6.79728C18.1709 7.04817 18.1946 7.30007 18.2227 7.55154C18.4304 7.37712 18.6437 7.20695 18.8586 7.03794C18.9543 6.96629 19.0536 6.89755 19.1453 6.82258C19.1367 6.72521 19.1317 6.62768 19.122 6.53041C19.1203 6.49954 19.0844 6.46841 19.1095 6.43887C19.1774 6.33685 19.2416 6.23325 19.3049 6.12931C19.3791 6.26413 19.4292 6.40659 19.4828 6.54714ZM18.2455 7.76941C18.2488 7.80877 18.253 7.84813 18.2575 7.8874C18.325 7.9534 18.3936 8.0188 18.4649 8.0823C18.7368 8.32512 19.018 8.5612 19.2939 8.80111C19.2512 8.20771 19.2032 7.61438 19.1609 7.02088C18.8497 7.26571 18.5444 7.51519 18.2455 7.76941ZM17.6584 7.23117C17.7455 7.33902 17.8363 7.44529 17.9331 7.54789C17.9253 7.45277 17.9136 7.35774 17.9031 7.26279C17.8978 7.2712 17.8922 7.27961 17.8877 7.28817C17.822 7.25023 17.7418 7.22044 17.6584 7.23117ZM17.0995 8.76616C17.0431 8.81867 16.9803 8.8671 16.9273 8.92169C16.9398 9.08995 16.9669 9.2578 16.9837 9.42597C16.9919 9.704 16.9335 9.99908 16.7175 10.2266C16.7237 10.1904 16.7207 10.1538 16.7213 10.1173C16.7209 9.99259 16.7212 9.86785 16.7212 9.74303C16.7197 9.62344 16.7273 9.50387 16.7229 9.38428C16.7168 9.3232 16.7089 9.26213 16.703 9.20104C16.7002 9.19122 16.7038 9.17383 16.6862 9.17333C16.7001 9.1596 16.6971 9.14254 16.6938 9.1264C16.6184 9.18947 16.5466 9.25522 16.4714 9.31846C16.3234 9.44927 16.1661 9.5731 16.0144 9.70117C16.1685 9.83248 16.2651 10.0053 16.2901 10.1832C16.3152 10.3723 16.2557 10.5734 16.0987 10.7205C15.9603 10.8494 15.7618 10.9308 15.5555 10.9682C15.4588 10.9852 15.3554 10.9968 15.2594 10.9712C15.2713 11.0506 15.2864 11.1297 15.3065 11.2081C15.341 11.3403 15.3859 11.4737 15.475 11.5901C15.5226 11.6496 15.5879 11.7072 15.6777 11.7247C15.7738 11.7432 15.8715 11.7051 15.939 11.6528C15.9992 11.6101 16.027 11.5482 16.0524 11.4893C16.1286 11.3158 16.1544 11.1294 16.2553 10.9626C16.326 10.8302 16.416 10.7017 16.5457 10.5996C16.6131 10.5442 16.6905 10.497 16.7715 10.4549C16.8274 10.4284 16.895 10.4063 16.9608 10.4218C17.0233 10.4364 17.0655 10.4801 17.0944 10.5241C17.1603 10.6232 17.1774 10.7365 17.2307 10.8396C17.2697 10.9247 17.3215 11.0111 17.4134 11.0686C17.5063 11.1266 17.6287 11.1443 17.7445 11.1405C17.9466 11.1336 18.1366 11.0617 18.2959 10.9665C18.2817 10.8027 18.2668 10.639 18.2492 10.4754C18.1608 9.67638 18.0771 8.87701 17.991 8.07789C17.9881 8.05592 17.9632 8.04103 17.9509 8.02239C17.6619 8.26662 17.3819 8.51727 17.0995 8.76616ZM15.7823 9.91262C15.7218 9.96788 15.6647 10.0255 15.6078 10.0831C15.4996 10.1986 15.3912 10.3155 15.3111 10.445C15.2909 10.4778 15.2725 10.5188 15.2957 10.5538C15.3232 10.5896 15.3819 10.5949 15.43 10.595C15.6427 10.5882 15.8411 10.5129 16.0138 10.4189C16.0715 10.3964 16.1258 10.3464 16.104 10.2923C16.0754 10.2194 16.0212 10.1552 15.9682 10.0922C15.9132 10.0303 15.8553 9.96979 15.7935 9.91196C15.7907 9.91212 15.7851 9.91246 15.7823 9.91262Z" fill="white"/>
<path d="M20.4138 6.43138C20.477 6.31272 20.5355 6.19264 20.5994 6.07422C20.6974 6.32977 20.7931 6.58608 20.8731 6.84554C20.8851 6.89022 20.9007 6.93458 20.9066 6.9801C20.8983 7.01613 20.8844 7.0515 20.8833 7.08853C20.8484 7.03527 20.8132 6.98218 20.7778 6.92925C20.8224 7.59306 20.8762 8.25654 20.9364 8.91968C20.955 9.13296 20.9823 9.34583 20.9921 9.55953C21.0102 9.95538 20.9928 10.3598 20.8408 10.7404C20.7837 10.8779 20.711 11.012 20.6187 11.1371C20.4946 11.2989 20.3103 11.4265 20.1076 11.5245C19.7467 11.6963 19.3336 11.7857 18.9211 11.8409C18.8977 11.8476 18.8883 11.8261 18.875 11.8164C19.243 11.6762 19.5968 11.5114 19.9271 11.321C20.0922 11.2232 20.2538 11.1201 20.3928 10.9989C20.552 10.857 20.6721 10.6862 20.7267 10.5008C20.7865 10.3144 20.7659 10.1204 20.7528 9.93067C20.7183 9.49329 20.6756 9.05633 20.6392 8.61903C20.5831 7.94514 20.5266 7.27119 20.4705 6.59731C20.4586 6.54996 20.4213 6.50935 20.404 6.46325C20.3994 6.45194 20.4101 6.44178 20.4138 6.43138Z" fill="white"/>
<path d="M4.7935 6.42943C4.86522 6.31943 4.93411 6.20833 5.00405 6.09766C5.11764 6.3324 5.20757 6.5744 5.26993 6.82088C5.27403 6.86573 5.25858 6.91042 5.25353 6.95502C5.20221 6.9001 5.17139 6.83395 5.11912 6.77911C5.14762 6.96427 5.15783 7.15091 5.17644 7.33682C5.19716 7.57723 5.21672 7.81772 5.23618 8.05821C5.39194 8.03757 5.53192 7.96476 5.62595 7.8654C5.7674 7.71661 5.83019 7.52938 5.84796 7.34613C5.8468 7.11072 5.83093 6.87123 5.73743 6.64588C5.72092 6.59978 5.69052 6.55517 5.69115 6.50632C5.7023 6.41554 5.74068 6.32849 5.78128 6.2437C5.79159 6.22389 5.79832 6.19868 5.82861 6.19277C5.87478 6.3057 5.92252 6.41854 5.95324 6.53487C6.00088 6.71711 6.02391 6.90268 6.05042 7.08742C6.06808 7.19926 6.07334 7.31293 6.10911 7.42253C6.15548 7.56991 6.24951 7.71353 6.40433 7.80724C6.52075 7.87714 6.66947 7.92499 6.81755 7.90643C6.92199 7.89154 7.02769 7.85866 7.10079 7.79559C7.13381 7.76763 7.15653 7.72669 7.14243 7.6884C6.99288 7.38375 6.87077 7.07128 6.7473 6.75955C6.70512 6.65112 6.66368 6.54245 6.62235 6.43385C6.61057 6.4063 6.62593 6.37792 6.6316 6.35071C6.65758 6.26766 6.69124 6.18536 6.73773 6.10814C6.78832 6.12736 6.82113 6.16539 6.85415 6.19976C6.95375 6.31327 7.03315 6.43692 7.10614 6.56216C7.10267 6.57814 7.09931 6.5942 7.09657 6.61035C7.05955 6.57398 7.01202 6.54136 6.95249 6.53213C6.94303 6.54993 6.94345 6.56941 6.95165 6.58746C7.01791 6.74599 7.08858 6.90335 7.156 7.06155C7.21331 7.2026 7.27084 7.34614 7.27831 7.49526C7.28399 7.61668 7.26011 7.73833 7.21658 7.85459C7.2109 7.86466 7.20974 7.88447 7.19049 7.88197C7.20711 7.89154 7.19176 7.90701 7.18776 7.919C7.13601 8.02094 7.05555 8.11988 6.93282 8.17588C6.82754 8.22598 6.69754 8.23372 6.57891 8.21524C6.42272 8.19053 6.28873 8.11064 6.19281 8.01228C6.05798 7.87364 5.97521 7.70704 5.9262 7.53762C5.91884 7.53778 5.90412 7.53828 5.89675 7.53854C5.8509 7.70896 5.78117 7.87681 5.67347 8.02934C5.57692 8.16573 5.44346 8.29463 5.2594 8.3597C5.29158 8.78169 5.32524 9.20359 5.34827 9.626C5.35164 9.83429 5.34101 10.0425 5.32797 10.2505C5.32776 10.2788 5.31282 10.305 5.30168 10.3315C5.2656 10.4218 5.22743 10.5116 5.18683 10.6008C5.18042 10.6157 5.17211 10.6302 5.16022 10.6431C5.15496 10.2454 5.11237 9.84868 5.0784 9.45208C5.04758 9.10282 5.01677 8.75357 4.9868 8.40431C4.83945 8.40173 4.68769 8.36761 4.57894 8.28573C4.45221 8.19344 4.38752 8.06038 4.3566 7.92907C4.32926 7.81273 4.32347 7.69348 4.33494 7.57573C4.36018 7.42195 4.40993 7.27158 4.45736 7.12129C4.46388 7.09442 4.46862 7.06621 4.46094 7.03916C4.45799 7.02934 4.45515 7.01769 4.44074 7.01494C4.41866 7.01269 4.40225 7.02576 4.38731 7.03633C4.30465 7.09957 4.25059 7.18137 4.20337 7.26325C4.11387 7.43243 4.06118 7.61276 4.03246 7.79442C4.00869 7.91417 3.97398 8.03341 3.91719 8.14633C3.87207 8.23022 3.81581 8.31659 3.718 8.36918C3.63449 8.4147 3.52405 8.40913 3.43266 8.383C3.31697 8.34904 3.23462 8.267 3.19087 8.17812C3.11483 8.02533 3.10988 7.85807 3.11452 7.69605C3.12535 7.50615 3.15943 7.31725 3.21191 7.13185C3.22179 7.13018 3.23179 7.1286 3.24167 7.1271C3.19918 7.3398 3.16458 7.5555 3.18467 7.77111C3.19445 7.86456 3.21549 7.95892 3.26597 8.04447C3.30888 8.11753 3.38419 8.18319 3.48389 8.20707C3.56866 8.22771 3.6691 8.22605 3.74125 8.18094C3.81971 8.13126 3.85683 8.05362 3.88554 7.9799C3.95306 7.79308 3.97841 7.59844 4.04835 7.41212C4.11619 7.22946 4.20843 7.0523 4.32254 6.8847C4.38869 6.79782 4.46021 6.71286 4.5433 6.63547C4.56791 6.61516 4.59262 6.58629 4.63175 6.58596C4.6532 6.59686 4.64553 6.62074 4.64605 6.6378C4.63511 6.72185 4.63406 6.80781 4.60229 6.88911C4.54424 7.05596 4.50512 7.22647 4.46252 7.39606C4.43297 7.52812 4.42508 7.66917 4.48892 7.79583C4.53593 7.89244 4.63374 7.97083 4.75174 8.01444C4.8159 8.0384 4.88521 8.05305 4.95536 8.06103C4.91665 7.58987 4.8727 7.11895 4.83262 6.64779C4.82347 6.57448 4.82957 6.49884 4.7935 6.42943Z" fill="white"/>
<path d="M13.3141 6.21045C13.3438 6.17134 13.3722 6.12815 13.423 6.10352C13.3492 6.22052 13.2739 6.33952 13.2407 6.46867C13.2277 6.52451 13.2233 6.59249 13.2813 6.63435C13.3149 6.64733 13.3537 6.65507 13.3904 6.64483C13.4575 6.63293 13.4889 6.57768 13.5151 6.53291C13.5223 6.55089 13.5272 6.56952 13.5194 6.588C13.4955 6.66572 13.4637 6.74711 13.3919 6.80594C13.311 6.87451 13.1479 6.83506 13.1171 6.74719C13.0901 6.66747 13.1148 6.58392 13.1444 6.50686C13.1876 6.40367 13.2473 6.30523 13.3141 6.21045Z" fill="white"/>
<path d="M7.3203 6.45438C7.38404 6.34054 7.44767 6.22662 7.51277 6.11328C7.63867 6.34246 7.7411 6.57962 7.81788 6.82203C7.82692 6.87104 7.80862 6.9203 7.81083 6.96956C7.76687 6.90782 7.71639 6.84915 7.67032 6.7884C7.6822 6.89958 7.70377 7.01017 7.7168 7.12135C7.80494 7.778 7.88245 8.43557 7.9486 9.09389C8.02443 9.05045 8.08228 8.98812 8.11478 8.9188C8.15716 8.84074 8.20292 8.76311 8.26486 8.69337C8.28811 8.66832 8.31881 8.6362 8.36383 8.64394C8.38929 8.6451 8.40138 8.66674 8.4039 8.6843C8.41516 8.74613 8.35605 8.79947 8.36615 8.8608C8.36888 8.91115 8.41863 8.95434 8.47773 8.96956C8.57996 8.99877 8.69102 8.98571 8.79588 8.97398C8.84321 8.96574 8.90231 8.95867 8.92535 8.9198C8.90074 8.85739 8.87339 8.79565 8.84237 8.73506C8.88664 8.64577 8.93723 8.55839 8.98341 8.4696C8.99529 8.44864 9.00328 8.4255 9.02284 8.40786C9.0564 8.50938 9.06481 8.61473 9.07838 8.71875C9.09236 8.88693 9.05829 9.06151 8.95227 9.20947C8.89516 9.2852 8.80987 9.35402 8.69859 9.3759C8.60162 9.39429 8.49508 9.38589 8.40715 9.34761C8.30535 9.30175 8.23551 9.2212 8.19922 9.13441C8.14411 9.2346 8.07165 9.3293 7.97941 9.41077C7.99014 9.54075 8.00213 9.67065 8.01034 9.80071C8.01643 9.94576 7.96942 10.0879 7.91505 10.2252C7.88865 10.2842 7.86267 10.3435 7.83007 10.4006C7.54021 10.7754 7.15707 11.1074 6.69736 11.3553C6.39645 11.5189 6.06358 11.6457 5.71409 11.729C5.53141 11.7709 5.34462 11.8051 5.15457 11.8161C4.95842 11.8183 4.75933 11.7982 4.57602 11.7413C4.40395 11.6882 4.25366 11.5915 4.15721 11.4665C3.81834 11.4942 3.47748 11.5095 3.13672 11.5101C3.44067 11.4239 3.74157 11.3308 4.03742 11.2283C3.95844 10.9235 4.02375 10.6092 4.12251 10.3122C4.18298 10.1322 4.26102 9.95625 4.34863 9.78349C4.40627 9.65684 4.46348 9.52702 4.5614 9.41593C4.50397 9.51079 4.44413 9.60524 4.3968 9.70352L4.39943 9.70885C4.40069 9.71026 4.40332 9.71318 4.40469 9.71459C4.40153 9.71392 4.39512 9.71251 4.39197 9.71184C4.37188 9.74279 4.35473 9.775 4.34327 9.80862C4.26334 10.0111 4.21243 10.2208 4.1955 10.4326C4.17878 10.6654 4.19991 10.9099 4.33706 11.1206C4.70169 10.9857 5.05665 10.8341 5.397 10.664C5.6856 10.5177 5.96441 10.3581 6.21777 10.1751C6.33788 10.0872 6.45462 9.99553 6.55327 9.89201C6.5824 9.86488 6.56821 9.82618 6.55874 9.79531C6.53676 9.74347 6.51184 9.69246 6.48649 9.6417C6.31401 9.69695 6.13027 9.73482 5.94316 9.73415C5.84115 9.73648 5.73619 9.72109 5.64826 9.67856C5.57285 9.64178 5.5169 9.58136 5.49418 9.51363C5.46274 9.42475 5.47641 9.33097 5.49524 9.24134C5.52511 9.11161 5.58548 8.98188 5.70022 8.88368C5.78078 8.81512 5.88743 8.76235 6.00564 8.74854C6.13932 8.74904 6.26521 8.80064 6.3606 8.87228C6.48207 8.9634 6.56495 9.08157 6.62869 9.20281C6.74764 9.14797 6.86197 9.08307 6.95052 8.99877C7.03739 8.92728 7.12679 8.8543 7.23774 8.80629C7.2654 8.79372 7.31315 8.77982 7.33155 8.8092C7.35164 8.8528 7.3325 8.90074 7.31904 8.94409C7.28328 9.00733 7.32651 9.07923 7.37994 9.12758C7.45429 9.19398 7.5765 9.20039 7.6801 9.1855C7.57156 8.303 7.46123 7.42058 7.35259 6.53808C7.35038 6.50847 7.33419 6.48143 7.3203 6.45438ZM5.8422 9.1643C5.78898 9.18244 5.72241 9.20931 5.71452 9.26C5.72704 9.29853 5.78425 9.31043 5.82727 9.31866C5.96557 9.33988 6.10934 9.33947 6.24754 9.31799C6.24502 9.31408 6.23976 9.30634 6.23713 9.30243C6.16508 9.23786 6.07326 9.18227 5.9641 9.16596C5.92402 9.16121 5.88143 9.15215 5.8422 9.1643ZM6.74785 9.52479C6.76215 9.70461 6.73028 9.88644 6.65866 10.0573C6.631 10.1166 6.60797 10.1794 6.5558 10.2289C6.29928 10.5002 5.96883 10.7218 5.62061 10.9163C5.31034 11.0873 4.98273 11.239 4.64029 11.3658C4.69877 11.3883 4.76018 11.4064 4.82403 11.4172C4.99504 11.4472 5.17163 11.4311 5.34296 11.4115C5.87934 11.348 6.38438 11.1627 6.81938 10.9096C7.10776 10.7417 7.37049 10.5462 7.59976 10.3286C7.67643 10.2518 7.77077 10.1766 7.78949 10.0754C7.77119 9.90375 7.747 9.73249 7.72681 9.5609C7.60754 9.59876 7.45988 9.60766 7.35166 9.54442C7.22029 9.46595 7.17033 9.33205 7.14962 9.2084C7.03634 9.32881 6.90308 9.43799 6.74785 9.52479Z" fill="white"/>
<path d="M12.5301 6.12891C12.5848 6.15138 12.6205 6.1924 12.6558 6.23085C12.7417 6.33037 12.8123 6.43764 12.8778 6.54624C12.8889 6.56221 12.8928 6.58235 12.9128 6.59358C12.9064 6.5945 12.9001 6.59525 12.8941 6.59592C12.8934 6.60457 12.8921 6.62196 12.8915 6.63062C12.8519 6.59658 12.8056 6.56372 12.7469 6.55373C12.7364 6.57195 12.7365 6.59159 12.7454 6.61023C12.8217 6.79555 12.9081 6.97829 12.982 7.16428C13.0291 7.28552 13.0705 7.4101 13.0721 7.53775C13.0753 7.65624 13.0498 7.77458 13.0056 7.88758C12.9612 7.99376 12.8932 8.09903 12.7797 8.1691C12.6863 8.2291 12.5616 8.25398 12.4428 8.24516C12.2978 8.23659 12.1604 8.18125 12.0598 8.09904C12.006 8.05851 11.9624 8.01066 11.9215 7.9619L11.9371 7.95898C11.9328 7.9594 11.9243 7.96023 11.92 7.96064C11.8291 7.83948 11.7617 7.70725 11.7228 7.5697C11.7263 7.55189 11.6834 7.55338 11.6877 7.57111C11.6322 7.77174 11.5438 7.96963 11.3974 8.14055C11.3119 8.23874 11.2012 8.32637 11.064 8.37821C10.9144 8.43405 10.7383 8.43771 10.5808 8.40193C10.4226 8.36581 10.2973 8.26695 10.2293 8.15045C10.1309 7.98352 10.1158 7.79454 10.1267 7.61305C10.1478 7.46642 10.1941 7.32304 10.2393 7.18016C10.2546 7.13622 10.2681 7.08896 10.2485 7.04436C10.2422 7.04177 10.2296 7.03662 10.2234 7.03404C10.2023 7.04493 10.1805 7.05567 10.164 7.07098C10.0481 7.17217 9.98228 7.30149 9.92969 7.42972C9.88994 7.533 9.85891 7.63843 9.83809 7.7452C9.81043 7.91396 9.76804 8.08472 9.66991 8.23766C9.6167 8.31896 9.53676 8.40343 9.41634 8.42207C9.30475 8.43389 9.18548 8.40617 9.10377 8.34393C9.00364 8.26986 8.95979 8.16219 8.93338 8.05866C8.89132 7.87285 8.90436 7.68236 8.93076 7.49579C8.94842 7.38079 8.97367 7.26662 9.00511 7.15353C9.01542 7.15278 9.02583 7.1522 9.03645 7.1517C8.9948 7.34235 8.96609 7.5359 8.97334 7.72971C8.97986 7.84014 8.99627 7.95264 9.05296 8.05484C9.09145 8.12482 9.15676 8.18998 9.24753 8.22011C9.33325 8.24773 9.43904 8.25272 9.51929 8.21153C9.60227 8.16843 9.64119 8.09145 9.672 8.02014C9.73269 7.86228 9.75951 7.6981 9.80715 7.53774C9.85711 7.37497 9.92894 7.21661 10.0171 7.06433C10.0676 6.97554 10.1232 6.88824 10.1946 6.80869C10.258 6.73787 10.3163 6.66015 10.4063 6.60814C10.413 6.60839 10.4263 6.60897 10.433 6.60922C10.4495 6.66256 10.4301 6.71781 10.4271 6.77182C10.4216 6.86103 10.3805 6.94483 10.357 7.03129C10.3278 7.13015 10.3027 7.22984 10.2777 7.32945C10.239 7.47208 10.2114 7.62253 10.2601 7.766C10.2969 7.8785 10.3951 7.97778 10.5276 8.02904C10.6137 8.06491 10.7104 8.08313 10.8073 8.08587C10.9436 8.09678 11.0862 8.08379 11.2081 8.03187C11.355 7.97129 11.459 7.86144 11.5264 7.7441C11.5924 7.62685 11.63 7.49987 11.6409 7.37197C11.6424 7.11791 11.6201 6.85894 11.5103 6.61804C11.4963 6.58475 11.478 6.55021 11.486 6.51451C11.5034 6.41657 11.5447 6.32229 11.5932 6.2315C11.5962 6.2211 11.612 6.22035 11.6215 6.21502C11.6733 6.3376 11.7237 6.46101 11.7552 6.58808C11.7948 6.75326 11.8176 6.92061 11.8411 7.08754C11.8597 7.2067 11.8652 7.3277 11.9029 7.44453C11.9343 7.54148 11.9831 7.63634 12.0597 7.71665C12.1529 7.81909 12.2928 7.89515 12.4484 7.92419C12.5815 7.94866 12.7237 7.9172 12.8357 7.85836C12.8946 7.82658 12.9557 7.77298 12.9362 7.71232C12.7497 7.32421 12.5963 6.92677 12.4439 6.52975C12.4338 6.49696 12.4146 6.46559 12.4114 6.43188C12.4312 6.32688 12.4777 6.22619 12.5301 6.12891Z" fill="white"/>
<path d="M10.595 6.19531C10.7336 6.27029 10.8473 6.37847 10.9003 6.50562C10.9266 6.57236 10.9363 6.64351 10.9261 6.71308C10.9185 6.76375 10.9083 6.81635 10.8724 6.85995C10.8674 6.84664 10.8707 6.83299 10.8739 6.81976C10.8978 6.71915 10.8775 6.6113 10.8115 6.52276C10.7571 6.44895 10.6767 6.38704 10.582 6.34618C10.5838 6.29575 10.59 6.24557 10.595 6.19531Z" fill="white"/>
<path d="M3.34383 6.33564C3.36992 6.29919 3.39873 6.26166 3.44396 6.23828C3.37181 6.36144 3.28788 6.48377 3.26106 6.61966C3.25264 6.66409 3.25233 6.71502 3.2883 6.75238C3.32196 6.78592 3.38316 6.7865 3.43081 6.77477C3.48413 6.75788 3.50895 6.71261 3.53388 6.67491C3.54503 6.67516 3.54734 6.68556 3.5527 6.6918C3.52462 6.77909 3.49748 6.87379 3.41429 6.93995C3.33699 7.00461 3.18449 6.97132 3.14652 6.89102C3.11896 6.83327 3.12811 6.76936 3.14431 6.71044C3.18407 6.5778 3.25938 6.45372 3.34383 6.33564Z" fill="white"/>
<path d="M15.5219 6.30006C15.5421 6.27219 15.5734 6.23782 15.6197 6.24264C15.6688 6.25138 15.7168 6.27227 15.747 6.30489C15.7624 6.32528 15.7751 6.3564 15.7479 6.37438C15.7336 6.38544 15.7234 6.40417 15.7057 6.40974C15.681 6.3842 15.6618 6.33859 15.6119 6.33992C15.5493 6.35815 15.5147 6.40833 15.496 6.45601C15.4572 6.55437 15.4493 6.65806 15.4371 6.75991C15.4247 6.77007 15.4079 6.77572 15.393 6.78296C15.393 6.67969 15.3627 6.5691 15.2692 6.49279C15.2242 6.48838 15.1707 6.48414 15.1454 6.4496C15.1147 6.40558 15.0926 6.35125 15.1139 6.30165C15.1615 6.29424 15.2001 6.32253 15.2325 6.34601C15.3181 6.40817 15.3735 6.49047 15.4234 6.57227C15.4445 6.47939 15.4658 6.38436 15.5219 6.30006Z" fill="white"/>
<path d="M9.06067 6.35497C9.08897 6.30046 9.16311 6.2547 9.24041 6.26518C9.27902 6.27175 9.30604 6.29863 9.31982 6.32651C9.34685 6.38393 9.35085 6.4465 9.34138 6.50692C9.38881 6.55185 9.44034 6.59737 9.46022 6.65563C9.49703 6.73227 9.46411 6.81407 9.43277 6.88805C9.3927 6.98591 9.31655 7.07479 9.30235 7.1788C9.29741 7.20452 9.30992 7.23256 9.34316 7.24146C9.39659 7.22898 9.4049 7.17872 9.41584 7.1421C9.43256 7.13894 9.45875 7.13752 9.46453 7.15425C9.47368 7.20052 9.44802 7.24504 9.4273 7.28723C9.40858 7.31927 9.3826 7.35713 9.33453 7.36429C9.29614 7.36986 9.2668 7.34324 9.25145 7.31885C9.20769 7.24862 9.22147 7.16532 9.25807 7.09517C9.31507 6.98341 9.39038 6.8709 9.38344 6.74691C9.38365 6.69424 9.35567 6.64398 9.31097 6.60561C9.24419 6.74833 9.13618 6.87698 9.01176 6.99215C8.94739 7.05539 8.85495 7.09401 8.7667 7.13253C8.68772 7.1649 8.60758 7.19678 8.52344 7.22016C8.6854 7.12796 8.84074 7.02718 8.97516 6.9101C9.08601 6.81166 9.18803 6.70065 9.22916 6.57083L9.22642 6.56351C9.16647 6.53288 9.09443 6.50584 9.06319 6.45175C9.04994 6.42096 9.05163 6.38634 9.06067 6.35497ZM9.12073 6.37061C9.10527 6.37852 9.11589 6.39366 9.12851 6.39882C9.16627 6.41622 9.20507 6.43236 9.24431 6.44767C9.24336 6.41638 9.25052 6.37752 9.21591 6.35522C9.18594 6.33541 9.14492 6.35255 9.12073 6.37061Z" fill="white"/>
<path d="M8.04767 6.44141C8.06997 6.44615 8.08606 6.46054 8.10446 6.47078C8.21595 6.54343 8.30881 6.63788 8.3531 6.74764C8.39453 6.847 8.39201 6.95609 8.35509 7.05603C8.35004 7.07334 8.33616 7.08732 8.32396 7.1018C8.32301 7.09997 8.32112 7.09623 8.32007 7.0944C8.34699 7.00203 8.343 6.90259 8.29599 6.81471C8.24519 6.71843 8.15 6.63871 8.03516 6.58853C8.0381 6.53944 8.04294 6.49034 8.04767 6.44141Z" fill="white"/>
<path d="M6.37147 6.53516L6.37978 6.54173C6.36148 6.56012 6.37084 6.58442 6.37378 6.60556C6.38377 6.65108 6.39807 6.69618 6.41784 6.7397C6.42436 6.75917 6.44992 6.76849 6.47169 6.77498C6.49072 6.77814 6.52154 6.78555 6.52943 6.76541C6.51639 6.71823 6.48505 6.67612 6.46569 6.63086C6.47484 6.60473 6.47916 6.57668 6.49482 6.55247C6.50534 6.55264 6.51607 6.55297 6.52679 6.55355C6.53731 6.60431 6.57065 6.649 6.59463 6.69585C6.59327 6.74403 6.59137 6.79404 6.56844 6.83931C6.55414 6.86994 6.5086 6.87809 6.472 6.87768C6.41846 6.87168 6.38334 6.8359 6.35168 6.80478C6.33128 6.85022 6.27911 6.88575 6.21832 6.89199C6.1672 6.89407 6.12388 6.86145 6.11041 6.82425C6.09264 6.77507 6.09463 6.72223 6.10905 6.67271C6.1203 6.63809 6.14228 6.60065 6.18751 6.58733C6.15185 6.63502 6.14302 6.69368 6.163 6.74686C6.17079 6.76883 6.18519 6.79637 6.21801 6.79953C6.2544 6.80003 6.28143 6.77806 6.3074 6.761C6.31413 6.70657 6.30603 6.65165 6.31456 6.59731C6.32771 6.57393 6.35401 6.55662 6.37147 6.53516Z" fill="white"/>
<path d="M15.4709 6.86898C15.6732 6.79974 15.8754 6.72984 16.0823 6.66992C16.076 6.70712 16.0589 6.74956 16.0132 6.76728C15.7194 6.86648 15.4245 6.96401 15.137 7.07418C15.0799 7.09915 15.0212 7.12478 14.9767 7.16322C15.0085 7.19093 15.056 7.20134 15.0989 7.21382C15.0984 7.24069 15.0985 7.26757 15.0985 7.29453C15.0377 7.28288 14.9768 7.26533 14.9297 7.23179C14.9324 7.19359 14.9316 7.15515 14.9382 7.1172C14.945 7.08275 14.9895 7.06653 15.0217 7.0478C15.1642 6.97757 15.3185 6.92406 15.4709 6.86898Z" fill="white"/>
<path d="M10.8232 6.97609C10.8549 6.94506 10.8832 6.90936 10.9252 6.88672C10.8975 6.92009 10.9092 6.96128 10.9158 6.99806C10.9313 7.06671 10.9545 7.13428 10.9818 7.20061C10.9905 7.22832 11.0265 7.24014 11.0563 7.25079C11.0832 7.25878 11.1156 7.26618 11.143 7.25554C11.1602 7.24355 11.1521 7.22308 11.146 7.20827C11.1197 7.15018 11.0928 7.09194 11.0558 7.03751C11.0643 7.0118 11.0701 6.98525 11.0843 6.96096C11.0871 6.96054 11.0929 6.95971 11.0958 6.95929C11.0924 6.95397 11.0891 6.94864 11.086 6.9434C11.0901 6.93258 11.0941 6.92168 11.0983 6.91086C11.1168 6.91202 11.1353 6.91302 11.1541 6.91393C11.1626 6.99191 11.2168 7.05998 11.2558 7.12996C11.2544 7.18963 11.249 7.24979 11.2327 7.30821C11.2234 7.34266 11.2033 7.37902 11.1622 7.39634C11.115 7.41115 11.0587 7.41806 11.0125 7.3975C10.959 7.3732 10.9162 7.33617 10.8827 7.29573C10.8557 7.35772 10.791 7.40682 10.7125 7.42704C10.6584 7.4431 10.5942 7.42596 10.5572 7.39209C10.5102 7.35348 10.4976 7.29756 10.4931 7.24605C10.4894 7.17981 10.4961 7.11149 10.5289 7.04983C10.5476 7.01405 10.581 6.98251 10.6253 6.96512C10.5819 7.03336 10.5596 7.11274 10.5839 7.18813C10.5946 7.22766 10.6125 7.27809 10.6681 7.29049C10.7282 7.29656 10.7759 7.26044 10.8146 7.22916C10.8219 7.14494 10.8173 7.06022 10.8232 6.97609Z" fill="white"/>
<path d="M6.31108 7.08398C6.45085 7.15563 6.56213 7.26465 6.61534 7.39005C6.65857 7.49141 6.65552 7.60292 6.61702 7.70485C6.61187 7.72141 6.59609 7.73381 6.582 7.74596C6.6104 7.64976 6.60735 7.54549 6.55644 7.4542C6.50459 7.35992 6.40952 7.2822 6.29688 7.23193C6.30298 7.18268 6.30603 7.13325 6.31108 7.08398Z" fill="white"/>
<path d="M15.5916 7.66371C15.621 7.63533 15.6496 7.60646 15.6818 7.58008C15.6511 7.63666 15.6745 7.69816 15.689 7.75549C15.7055 7.808 15.7214 7.86101 15.7464 7.91144C15.7777 7.94381 15.8325 7.96028 15.8829 7.95904C15.9064 7.95895 15.9175 7.93724 15.9094 7.92167C15.8847 7.85843 15.8527 7.79702 15.8162 7.73752C15.8232 7.69383 15.8437 7.65181 15.8581 7.6092C15.8756 7.61045 15.8934 7.61162 15.9112 7.61303C15.9229 7.6905 15.9741 7.75915 16.0143 7.82872C16.0126 7.88473 16.0077 7.94106 15.994 7.99615C15.9837 8.03451 15.9657 8.07895 15.9167 8.09626C15.875 8.10907 15.826 8.11623 15.7839 8.10075C15.7219 8.07903 15.678 8.03626 15.6399 7.99349C15.6158 8.05398 15.5546 8.10191 15.4795 8.12314C15.4178 8.14561 15.3427 8.12206 15.3035 8.08095C15.2586 8.03243 15.2507 7.96994 15.25 7.91161C15.2525 7.8556 15.2581 7.79793 15.2886 7.7465C15.3084 7.71197 15.339 7.67802 15.386 7.66512C15.3233 7.74709 15.3164 7.85219 15.3626 7.94023C15.376 7.96519 15.4034 7.98932 15.44 7.99016C15.4957 7.98791 15.5389 7.95621 15.5757 7.92616C15.5749 7.85468 15.5789 7.78337 15.579 7.71188C15.5816 7.69575 15.5754 7.67636 15.5916 7.66371Z" fill="white"/>
<path d="M19.7071 7.59766C19.8779 7.68861 20.0187 7.81843 20.0949 7.97046C20.17 8.11784 20.1694 8.2851 20.1089 8.43564C20.1007 8.45303 20.0832 8.4661 20.0684 8.48008C20.0947 8.37789 20.1038 8.27062 20.0672 8.16927C20.0154 8.00866 19.8675 7.87526 19.6875 7.79455C19.6964 7.72906 19.6984 7.66315 19.7071 7.59766Z" fill="white"/>
<path d="M8.41995 7.96581C8.53711 7.90864 8.65196 7.84822 8.7706 7.79297C8.75892 7.85197 8.73473 7.92029 8.66227 7.94966C8.40311 8.07516 8.14681 8.20438 7.88672 8.32855C7.91574 8.28153 7.94435 8.23401 7.97633 8.18825C8.12294 8.11268 8.27228 8.04012 8.41995 7.96581Z" fill="white"/>
<path d="M13.4113 8.15886C13.4468 8.14264 13.4987 8.1438 13.5227 8.17343C13.5557 8.21287 13.5646 8.26447 13.5467 8.30973C13.5129 8.39953 13.4384 8.47583 13.3571 8.54224C13.2582 8.61863 13.1399 8.68903 13 8.70626C13.0235 8.68329 13.0577 8.67056 13.0879 8.65408C13.1746 8.60789 13.258 8.55697 13.3308 8.49747C13.369 8.46252 13.4103 8.42474 13.4171 8.37689C13.4198 8.33678 13.3738 8.3025 13.3269 8.29584C13.2585 8.30541 13.2159 8.35217 13.1656 8.38504C13.1537 8.356 13.1857 8.33561 13.2047 8.31431C13.2649 8.25639 13.3256 8.19423 13.4113 8.15886Z" fill="white"/>
<path d="M15.3463 8.86777C15.7294 8.68004 16.1105 8.48972 16.4941 8.30273C16.4833 8.36107 16.4622 8.42498 16.4016 8.46342C16.0301 8.64675 15.6565 8.82757 15.2852 9.01123C15.301 8.9623 15.3261 8.91562 15.3463 8.86777Z" fill="white"/>
<path d="M10.2122 8.42383C10.2681 8.46069 10.302 8.5137 10.3398 8.56205C10.4364 8.69661 10.5188 8.83724 10.5985 8.97846C10.7734 9.28161 10.8885 9.60524 10.9518 9.93435C10.9697 10.0364 10.988 10.139 10.9843 10.2423C10.9949 10.4475 11.0257 10.6572 11.134 10.846C11.1548 10.8835 11.1836 10.9178 11.2105 10.9527C11.2093 10.9575 11.2068 10.9669 11.2056 10.9716C11.2112 10.9678 11.2168 10.964 11.2224 10.9602C11.2928 11.0351 11.371 11.1057 11.455 11.1713C11.4764 11.1894 11.5196 11.205 11.5407 11.177C11.5447 11.1776 11.5527 11.1788 11.5568 11.1795C11.554 11.1775 11.5485 11.1736 11.5458 11.1716C11.5634 11.1293 11.5453 11.0841 11.5621 11.0419C11.5861 10.9725 11.641 10.9134 11.6994 10.8595C11.7647 10.803 11.8386 10.751 11.9259 10.7168C12.1007 10.6467 12.2819 10.587 12.4649 10.5318C12.6027 10.4913 12.7428 10.4554 12.886 10.4294C12.2712 10.4328 11.6563 10.4368 11.0415 10.4424C11.0722 10.3242 11.1034 10.2061 11.1351 10.0881C11.2003 10.0204 11.2823 9.96472 11.3633 9.90939C11.7159 9.67921 12.1229 9.50887 12.5351 9.35633C12.4868 9.2965 12.4197 9.24075 12.4091 9.16727C12.3841 9.06408 12.4383 8.96206 12.5065 8.87618C12.5468 8.82742 12.5846 8.77415 12.6468 8.74062C12.7091 8.70641 12.7935 8.70425 12.8617 8.72847C12.9053 8.74411 12.9498 8.75818 12.9917 8.77665C12.9926 8.78031 12.9941 8.78772 12.995 8.79138C12.9973 8.78922 13.0018 8.78481 13.0041 8.78264C13.1862 8.86311 13.3493 8.96779 13.5003 9.08097C13.5178 9.09495 13.5402 9.10702 13.5512 9.12524C13.5101 9.23034 13.4668 9.33503 13.427 9.44055C13.2453 9.47267 13.0626 9.50337 12.8855 9.54956C12.9035 9.63835 12.9356 9.73521 12.8874 9.82126C12.8706 9.81943 12.8478 9.8171 12.8449 9.80078C12.8381 9.72614 12.7926 9.65824 12.7459 9.59466C12.5199 9.66506 12.2944 9.73788 12.0814 9.83049C11.9096 9.90597 11.7354 9.98785 11.6082 10.1086C12.5535 10.1089 13.4989 10.1089 14.4443 10.1086C14.3837 10.214 14.3189 10.3179 14.2572 10.4228C13.6382 10.5422 13.0205 10.6697 12.42 10.8393C12.168 10.9124 11.9162 10.9928 11.6927 11.1119C11.6696 11.1259 11.6562 11.1517 11.6731 11.1727C11.7078 11.2149 11.7711 11.2323 11.8242 11.2563C11.9397 11.3069 12.0677 11.3344 12.1935 11.364C12.2836 11.385 12.3737 11.406 12.4638 11.4273C12.4563 11.5536 12.455 11.6801 12.4454 11.8062C12.3716 11.8062 12.2964 11.7959 12.2223 11.7907C12.077 11.7771 11.9296 11.7679 11.7895 11.7326C11.5987 11.6849 11.4269 11.5942 11.2922 11.4775C11.1445 11.3517 11.0376 11.199 10.9611 11.039C10.8565 10.8172 10.8039 10.5816 10.7837 10.346C10.7745 10.345 10.7654 10.3442 10.7565 10.3434C10.7303 10.4473 10.7006 10.5511 10.6568 10.6513C10.6485 10.6751 10.6264 10.6933 10.6069 10.7118C10.4662 10.8411 10.3161 10.964 10.1592 11.0809C9.99862 11.1993 9.83118 11.3127 9.65028 11.4113C9.46003 11.5146 9.2542 11.6075 9.02661 11.6465C8.90429 11.6666 8.76525 11.6704 8.65808 11.6118C8.53839 11.5471 8.48002 11.4346 8.44847 11.3267C8.33941 11.3922 8.22949 11.4568 8.11717 11.5188C8.01579 11.5726 7.91482 11.6295 7.7987 11.662C7.50843 11.7473 7.20637 11.8032 6.90589 11.8609C6.69039 11.8995 6.47478 11.9382 6.25781 11.9712C6.4588 11.8809 6.66294 11.7947 6.86308 11.7032C7.40609 11.4574 7.941 11.1991 8.45162 10.9128C8.52124 10.6489 8.63367 10.3835 8.85149 10.1717C8.85422 10.1711 8.8598 10.1699 8.86253 10.1693C8.84518 10.1985 8.83687 10.2305 8.81899 10.2596C8.68773 10.4415 8.59444 10.6425 8.56142 10.8508C8.79385 10.7171 9.02071 10.5769 9.23421 10.4244C9.3661 10.3309 9.48999 10.2303 9.60316 10.1225C9.63429 10.092 9.67657 10.0657 9.68835 10.0256C9.70476 9.98003 9.68015 9.93468 9.65417 9.89482C9.6568 9.88958 9.65943 9.88442 9.66217 9.87934C9.65112 9.87693 9.64397 9.87177 9.64061 9.86395C9.50357 9.58476 9.36495 9.30599 9.22812 9.02672C9.27072 8.89849 9.31015 8.76959 9.35317 8.64144C9.41049 8.67131 9.44783 8.71824 9.48864 8.76068C9.57193 8.85746 9.65028 8.95699 9.72065 9.0601C9.75998 9.11676 9.76745 9.18259 9.78186 9.24517C9.72538 9.20497 9.68605 9.15047 9.62336 9.1161C9.6261 9.12525 9.62988 9.13416 9.63482 9.14289C9.734 9.29776 9.80184 9.46461 9.8458 9.63453C9.87294 9.73547 9.88471 9.83899 9.87715 9.94218C9.87147 10.054 9.85222 10.1686 9.78733 10.2696C9.72969 10.3592 9.65218 10.4395 9.5712 10.5165C9.2967 10.7714 8.97497 10.9911 8.6482 11.2026C8.64862 11.215 8.66629 11.2183 8.67681 11.225C8.79376 11.2828 8.94006 11.277 9.07068 11.259C9.16913 11.2409 9.27051 11.2272 9.36065 11.1891C9.59718 11.0911 9.80342 10.9546 10.0025 10.8154C10.2636 10.6275 10.5095 10.4265 10.744 10.218C10.6656 9.99794 10.5842 9.77867 10.5014 9.55973C10.4563 9.44539 10.4145 9.33005 10.3606 9.21813C10.2713 9.0705 10.1855 8.92113 10.1077 8.7696C10.1391 8.65384 10.1787 8.53933 10.2122 8.42383ZM12.5913 9.01923C12.5627 9.02822 12.5387 9.05319 12.5507 9.07823C12.5552 9.0972 12.5813 9.10378 12.5951 9.11784C12.6524 9.17052 12.7067 9.22536 12.7566 9.28269C12.881 9.24691 13.0073 9.21587 13.1329 9.183C13.0394 9.11235 12.9356 9.04511 12.8108 9.01316C12.7398 8.9941 12.6604 8.99643 12.5913 9.01923Z" fill="white"/>
<path d="M3.84286 8.48733C3.92848 8.47268 4.00641 8.51504 4.0673 8.55757C4.14881 8.62056 4.21675 8.69562 4.25977 8.77942C4.27281 8.80472 4.27859 8.83234 4.27375 8.85956C4.26754 8.89568 4.26397 8.93529 4.23494 8.96533C4.20087 8.99021 4.14712 8.9848 4.11094 8.96566C4.07497 8.94686 4.03743 8.92996 3.9983 8.91565C3.93961 9.03856 3.81972 9.13575 3.68899 9.21331C3.58634 9.27473 3.47444 9.32632 3.35875 9.37068C3.27587 9.39555 3.1911 9.41695 3.10507 9.43392C3.07078 9.44132 3.03513 9.44058 3 9.43983C3.02062 9.436 3.0426 9.43475 3.06142 9.42635C3.24968 9.34222 3.43331 9.25093 3.60443 9.14624C3.72001 9.07259 3.83476 8.99463 3.91679 8.89568C3.87693 8.88853 3.83686 8.88179 3.79616 8.87871C3.76408 8.80473 3.76313 8.71469 3.83076 8.65261C3.79815 8.63006 3.79342 8.59295 3.78753 8.56116C3.78133 8.53035 3.80121 8.49382 3.84286 8.48733ZM4.00273 8.67149C4.01787 8.72666 4.01934 8.78333 4.02218 8.8395C4.07918 8.84457 4.13661 8.86596 4.19403 8.85481C4.22064 8.84299 4.20192 8.81595 4.18803 8.80214C4.13556 8.75113 4.06909 8.71043 4.00273 8.67149ZM3.86274 8.6952C3.84402 8.71717 3.82225 8.74247 3.82519 8.77018C3.85833 8.80313 3.91427 8.81686 3.96486 8.82411C3.96981 8.80829 3.9757 8.79282 3.97959 8.77692C3.99347 8.74463 3.96192 8.71568 3.93667 8.69321C3.91785 8.67515 3.87904 8.67456 3.86274 8.6952Z" fill="white"/>
<path d="M11.3669 8.66085C11.3963 8.62724 11.4294 8.59503 11.4665 8.56641C11.4392 8.6155 11.4555 8.66909 11.4682 8.71927C11.4826 8.77419 11.5021 8.82812 11.5238 8.88154C11.5391 8.92182 11.5975 8.93597 11.6441 8.94387C11.6721 8.95095 11.7064 8.93447 11.6956 8.90917C11.6698 8.84393 11.6369 8.7806 11.5992 8.71919C11.6126 8.678 11.6277 8.63722 11.6406 8.59595C11.6582 8.59595 11.6761 8.59611 11.6941 8.59628C11.7096 8.67259 11.7555 8.74182 11.7978 8.8104C11.7979 8.88454 11.7923 8.96185 11.7591 9.03216C11.7369 9.08201 11.6627 9.09749 11.6027 9.09349C11.5231 9.08134 11.4703 9.02701 11.4236 8.97924C11.4003 9.0419 11.3346 9.0905 11.2568 9.11014C11.1909 9.12928 11.115 9.10148 11.0797 9.05555C11.041 9.00463 11.0336 8.94313 11.0354 8.88488C11.0389 8.80158 11.0593 8.70446 11.1537 8.65445C11.1603 8.65445 11.1736 8.65453 11.1802 8.65453C11.176 8.65603 11.1674 8.65895 11.1632 8.66044C11.1058 8.74357 11.1022 8.84801 11.1532 8.93364C11.168 8.96068 11.2056 8.98016 11.2435 8.97383C11.2909 8.96477 11.3283 8.93813 11.3606 8.91067C11.3618 8.82737 11.3613 8.74399 11.3669 8.66085Z" fill="white"/>
<path d="M3.38363 9.66335C3.76499 9.47387 4.14793 9.28614 4.53002 9.09766C4.51908 9.16348 4.49058 9.23962 4.41044 9.27258C4.05674 9.44608 3.7022 9.61859 3.34903 9.79267C3.33988 9.7965 3.3303 9.79966 3.32031 9.80207C3.34283 9.75623 3.35997 9.70871 3.38363 9.66335Z" fill="white"/>
<path d="M13.9908 9.28609C14.0227 9.25347 14.0766 9.23758 14.1275 9.23633C14.1629 9.23608 14.18 9.26612 14.1881 9.289C14.2035 9.34301 14.2062 9.40176 14.173 9.45211C14.1902 9.46201 14.2076 9.47208 14.2252 9.4819C14.2206 9.51644 14.2173 9.55122 14.2165 9.586C14.1814 9.57111 14.1543 9.54739 14.1243 9.52742C14.0306 9.65516 13.8938 9.76592 13.7233 9.82849C13.6332 9.86444 13.53 9.88017 13.4297 9.87027C13.6197 9.81651 13.8043 9.73895 13.9422 9.61995C13.9896 9.57918 14.0304 9.53407 14.0649 9.48581C14.0382 9.46326 14.0062 9.44395 13.9854 9.41757C13.9688 9.37538 13.9566 9.32496 13.9908 9.28609ZM14.043 9.3277C14.0567 9.35857 14.0831 9.38404 14.1106 9.408C14.1222 9.38129 14.1373 9.35225 14.1204 9.32479C14.0944 9.3208 14.0683 9.32304 14.043 9.3277Z" fill="white"/>
<path d="M17.5501 9.36349C17.6142 9.34601 17.6817 9.36898 17.7342 9.39827C17.8218 9.44953 17.8902 9.51918 17.943 9.59399C17.9712 9.63735 18.0034 9.68486 17.992 9.73529C17.9853 9.76924 17.9819 9.80569 17.9562 9.83465C17.9278 9.86245 17.8745 9.85961 17.8388 9.84306C17.7979 9.82475 17.759 9.80387 17.7163 9.78839C17.6586 9.91254 17.5369 10.0103 17.405 10.0879C17.3157 10.142 17.2178 10.1864 17.1186 10.2279C17.0574 10.2541 16.9897 10.268 16.9241 10.285C16.8585 10.2997 16.7919 10.3191 16.7227 10.3137C16.7663 10.3117 16.8008 10.2893 16.8376 10.2734C17.0294 10.1851 17.2174 10.0901 17.3881 9.97753C17.4787 9.91545 17.5714 9.8508 17.6325 9.76808C17.5931 9.76134 17.5535 9.75551 17.5137 9.75127C17.4816 9.67746 17.4813 9.58717 17.5505 9.52609C17.516 9.50512 17.512 9.46709 17.5062 9.43547C17.5013 9.40793 17.5129 9.37298 17.5501 9.36349ZM17.7221 9.54631C17.7352 9.60098 17.7391 9.65674 17.7401 9.71233C17.7942 9.71849 17.8479 9.73546 17.903 9.73055C17.9311 9.72731 17.9301 9.6981 17.9145 9.6842C17.8633 9.62837 17.7922 9.58634 17.7221 9.54631ZM17.539 9.63552C17.5667 9.67605 17.6294 9.68636 17.6806 9.69935C17.6911 9.67322 17.7047 9.64584 17.6995 9.61813C17.681 9.5895 17.6559 9.55205 17.6094 9.55222C17.5692 9.56853 17.5533 9.60415 17.539 9.63552Z" fill="white"/>
<path d="M8.72965 9.61879C8.7511 9.5865 8.79317 9.54822 8.84481 9.56436C8.90686 9.57918 8.9807 9.61812 8.97081 9.67654C8.9542 9.69642 8.93284 9.71348 8.91402 9.73204C8.89393 9.70192 8.87143 9.66339 8.82431 9.65698C8.763 9.67288 8.72629 9.72155 8.70694 9.76791C8.66623 9.86918 8.65719 9.97611 8.64583 10.0814C8.631 10.0876 8.61617 10.0938 8.60102 10.0994C8.60145 10.0026 8.57483 9.89972 8.49269 9.82466C8.47408 9.79978 8.43275 9.81226 8.40477 9.80028C8.3526 9.78547 8.33367 9.74045 8.32105 9.70192C8.31474 9.67587 8.30348 9.64459 8.32546 9.62137C8.37164 9.61088 8.40781 9.64292 8.44073 9.66315C8.5255 9.72689 8.58409 9.80894 8.63205 9.89249C8.65223 9.7992 8.67359 9.70351 8.72965 9.61879Z" fill="white"/>
<path d="M3.36996 10.1468C3.40477 10.0977 3.43748 10.0442 3.49838 10.0117C3.42444 10.1298 3.34756 10.2495 3.31527 10.3799C3.30454 10.4297 3.29917 10.4873 3.33988 10.5301C3.37153 10.557 3.42233 10.5619 3.46567 10.5536C3.5314 10.5421 3.56201 10.4877 3.58914 10.4445C3.60997 10.4767 3.58841 10.5115 3.57884 10.5436C3.5516 10.6116 3.5191 10.6853 3.4439 10.7294C3.38616 10.7644 3.30339 10.7504 3.24785 10.7196C3.17465 10.6744 3.17297 10.5922 3.1858 10.5257C3.21472 10.3912 3.2895 10.2663 3.36996 10.1468Z" fill="white"/>
<path d="M14.2751 10.9665C14.2788 10.9635 14.2836 10.9624 14.2896 10.9631C14.2677 10.9829 14.2557 11.0079 14.2389 11.0303C14.1911 11.1019 14.1357 11.1779 14.1485 11.2621C14.1498 11.3016 14.1779 11.3527 14.2363 11.3524C14.2648 11.3412 14.2721 11.3124 14.2865 11.2916C14.2847 11.3533 14.2732 11.4282 14.2 11.4635C14.1392 11.4557 14.0936 11.4131 14.0912 11.3649C14.0787 11.2192 14.1558 11.0755 14.2751 10.9665Z" fill="white"/>
<path d="M10.592 10.9882C10.6482 10.9664 10.7259 10.9695 10.7702 11.0075C10.8074 11.0422 10.8114 11.0901 10.8086 11.1336C10.7789 11.165 10.7446 11.1939 10.7197 11.2281C10.6675 11.2357 10.6127 11.229 10.5617 11.2411C10.536 11.2529 10.5025 11.2601 10.4902 11.2839C10.4741 11.3146 10.4815 11.3487 10.4884 11.3805C10.5149 11.4915 10.5639 11.6006 10.5614 11.715C10.5585 11.7551 10.5552 11.7967 10.5312 11.833C10.5256 11.7694 10.4973 11.7093 10.4768 11.6481C10.4381 11.5367 10.4074 11.4224 10.4029 11.3065C10.3978 11.2619 10.4302 11.2236 10.4629 11.1899C10.5112 11.1365 10.5978 11.1209 10.6746 11.1093C10.6546 11.0948 10.632 11.0779 10.6025 11.0812C10.5611 11.0859 10.5332 11.1133 10.5105 11.1385C10.5064 11.0829 10.5256 11.0171 10.592 10.9882Z" fill="white"/>
<path d="M13.132 11.0864C13.1886 11.0485 13.2672 11.0448 13.3379 11.0449C13.409 11.0488 13.4842 11.0513 13.5469 11.0814C13.5766 11.1087 13.5484 11.141 13.518 11.1581C13.3947 11.2285 13.259 11.2896 13.1589 11.382C13.1318 11.4059 13.1459 11.4431 13.1802 11.4571C13.232 11.4776 13.2921 11.4786 13.3491 11.4775C13.4845 11.4717 13.6145 11.4311 13.7277 11.3734C13.7593 11.3575 13.7876 11.3377 13.8202 11.3229C13.7503 11.3899 13.6719 11.4514 13.5853 11.5049C13.5123 11.5482 13.4301 11.5858 13.3388 11.5971C13.267 11.602 13.1897 11.5992 13.1276 11.5671C13.0585 11.5347 13.0261 11.4622 13.0517 11.4024C13.0671 11.3688 13.0957 11.3403 13.1258 11.3141C13.2034 11.2491 13.2983 11.1993 13.3929 11.1513C13.3288 11.1489 13.2638 11.1461 13.2001 11.1523C13.1584 11.1556 13.1304 11.1803 13.1009 11.2004C13.0919 11.1613 13.0917 11.1151 13.132 11.0864Z" fill="white"/>
<path d="M16.6158 11.1562C16.7039 11.2034 16.7815 11.2634 16.8395 11.3342C16.8445 11.3343 16.8542 11.3347 16.8591 11.3349C16.8562 11.3367 16.8503 11.3402 16.8473 11.3421C16.9546 11.4728 16.9823 11.6423 16.9157 11.7894C16.9099 11.8014 16.8977 11.8104 16.8873 11.8201C16.9079 11.7387 16.914 11.6525 16.8817 11.5725C16.8374 11.4563 16.7275 11.3596 16.5938 11.3025L16.6034 11.3017C16.6056 11.253 16.6123 11.2047 16.6158 11.1562Z" fill="white"/>
<path d="M17.9277 11.7195C18.3499 11.5578 18.7706 11.3938 19.1928 11.2324C19.1705 11.2921 19.1413 11.3603 19.0663 11.3904C18.6771 11.539 18.2886 11.6888 17.8994 11.8372C17.8737 11.8475 17.8483 11.8586 17.8203 11.864C17.846 11.8232 17.8702 11.7818 17.8949 11.7407C17.9001 11.7292 17.915 11.7246 17.9277 11.7195Z" fill="white"/>
</g>
<defs>
<clipPath id="clip0_358_4690">
<rect width="24" height="24" rx="12" fill="white"/>
</clipPath>
</defs>
</svg>
