<svg width="24" height="24" viewBox="0 0 24 24" fill="none" xmlns="http://www.w3.org/2000/svg">
<g clip-path="url(#clip0_358_13835)">
<rect width="24" height="24" rx="12" fill="#0051BA"/>
<path d="M24.0008 4.19922L-1.19922 8.09922L0.000781178 20.1992L24.0008 31.4992V4.19922Z" fill="#215B33"/>
<path d="M0 20.1992V4.19922H24" fill="#0051BA"/>
<mask id="mask0_358_13835" style="mask-type:luminance" maskUnits="userSpaceOnUse" x="0" y="4" width="24" height="17">
<path d="M24 4.19922H0V20.1992H24V4.19922Z" fill="white"/>
</mask>
<g mask="url(#mask0_358_13835)">
<path d="M24 4.19922L0 20.1992L24 4.19922Z" fill="black"/>
<path d="M24 4.19922L0 20.1992" stroke="#FCD116" stroke-width="2.07846"/>
</g>
<path d="M7.93652 6.25391L7.56118 7.4091L8.13877 7.59677L7.93652 6.25391Z" fill="white"/>
<path d="M7.93652 6.25391L8.31187 7.4091L7.73427 7.59677L7.93652 6.25391Z" fill="white"/>
<path d="M9.08984 7.0918H7.87521V7.69912L9.08984 7.0918Z" fill="white"/>
<path d="M9.08984 7.0918L8.10718 7.80574L7.75021 7.31441L9.08984 7.0918Z" fill="white"/>
<path d="M6.78125 7.09375L7.76391 7.8077L8.12089 7.31636L6.78125 7.09375Z" fill="white"/>
<path d="M6.78125 7.09375H7.99589V7.70107L6.78125 7.09375Z" fill="white"/>
<path d="M8.64062 8.45312L8.26528 7.29794L7.68769 7.48561L8.64062 8.45312Z" fill="white"/>
<path d="M8.64062 8.45312L7.65796 7.73918L8.01494 7.24785L8.64062 8.45312Z" fill="white"/>
<path d="M7.21484 8.44922L8.19751 7.73527L7.84053 7.24394L7.21484 8.44922Z" fill="white"/>
<path d="M7.21484 8.44922L7.59019 7.29403L8.16778 7.4817L7.21484 8.44922Z" fill="white"/>
<path d="M10.3311 4.19922L9.95571 5.35441L10.5333 5.54208L10.3311 4.19922Z" fill="white"/>
<path d="M10.3311 4.19922L10.7064 5.35441L10.1288 5.54208L10.3311 4.19922Z" fill="white"/>
<path d="M11.4844 5.03711H10.2697V5.64443L11.4844 5.03711Z" fill="white"/>
<path d="M11.4844 5.03711L10.5017 5.75106L10.1447 5.25972L11.4844 5.03711Z" fill="white"/>
<path d="M9.17188 5.03906L10.1545 5.75301L10.5115 5.26168L9.17188 5.03906Z" fill="white"/>
<path d="M9.17188 5.03906H10.3865V5.64638L9.17188 5.03906Z" fill="white"/>
<path d="M11.0352 6.39844L10.6598 5.24325L10.0822 5.43092L11.0352 6.39844Z" fill="white"/>
<path d="M11.0352 6.39844L10.0525 5.68449L10.4095 5.19316L11.0352 6.39844Z" fill="white"/>
<path d="M9.60938 6.39453L10.592 5.68058L10.2351 5.18925L9.60938 6.39453Z" fill="white"/>
<path d="M9.60938 6.39453L9.98472 5.23934L10.5623 5.42701L9.60938 6.39453Z" fill="white"/>
<path d="M10.3311 8.31055L9.95571 9.46574L10.5333 9.65341L10.3311 8.31055Z" fill="white"/>
<path d="M10.3311 8.31055L10.7064 9.46574L10.1288 9.65341L10.3311 8.31055Z" fill="white"/>
<path d="M11.4805 9.14844H10.2658V9.75576L11.4805 9.14844Z" fill="white"/>
<path d="M11.4805 9.14844L10.4978 9.86238L10.1408 9.37105L11.4805 9.14844Z" fill="white"/>
<path d="M9.17188 9.15039L10.1545 9.86434L10.5115 9.37301L9.17188 9.15039Z" fill="white"/>
<path d="M9.17188 9.15039H10.3865V9.75771L9.17188 9.15039Z" fill="white"/>
<path d="M11.0352 10.5098L10.6598 9.35458L10.0822 9.54225L11.0352 10.5098Z" fill="white"/>
<path d="M11.0352 10.5098L10.0525 9.79582L10.4095 9.30449L11.0352 10.5098Z" fill="white"/>
<path d="M9.60938 10.5059L10.592 9.79191L10.2351 9.30058L9.60938 10.5059Z" fill="white"/>
<path d="M9.60938 10.5059L9.98472 9.35067L10.5623 9.53834L9.60938 10.5059Z" fill="white"/>
<path d="M5.53418 8.31055L5.15884 9.46574L5.73643 9.65341L5.53418 8.31055Z" fill="white"/>
<path d="M5.53418 8.31055L5.90952 9.46574L5.33193 9.65341L5.53418 8.31055Z" fill="white"/>
<path d="M6.69141 9.14844H5.47677V9.75576L6.69141 9.14844Z" fill="white"/>
<path d="M6.69141 9.14844L5.70874 9.86238L5.35177 9.37105L6.69141 9.14844Z" fill="white"/>
<path d="M4.37891 9.15039L5.36157 9.86434L5.71854 9.37301L4.37891 9.15039Z" fill="white"/>
<path d="M4.37891 9.15039H5.59354V9.75771L4.37891 9.15039Z" fill="white"/>
<path d="M6.23828 10.5098L5.86294 9.35458L5.28534 9.54225L6.23828 10.5098Z" fill="white"/>
<path d="M6.23828 10.5098L5.25562 9.79582L5.61259 9.30449L6.23828 10.5098Z" fill="white"/>
<path d="M4.81641 10.5059L5.79907 9.79191L5.4421 9.30058L4.81641 10.5059Z" fill="white"/>
<path d="M4.81641 10.5059L5.19175 9.35067L5.76934 9.53834L4.81641 10.5059Z" fill="white"/>
<path d="M5.53418 4.19922L5.15884 5.35441L5.73643 5.54208L5.53418 4.19922Z" fill="white"/>
<path d="M5.53418 4.19922L5.90952 5.35441L5.33193 5.54208L5.53418 4.19922Z" fill="white"/>
<path d="M6.69141 5.03711H5.47677V5.64443L6.69141 5.03711Z" fill="white"/>
<path d="M6.69141 5.03711L5.70874 5.75106L5.35177 5.25972L6.69141 5.03711Z" fill="white"/>
<path d="M4.37891 5.03906L5.36157 5.75301L5.71854 5.26168L4.37891 5.03906Z" fill="white"/>
<path d="M4.37891 5.03906H5.59354V5.64638L4.37891 5.03906Z" fill="white"/>
<path d="M6.23828 6.39844L5.86294 5.24325L5.28534 5.43092L6.23828 6.39844Z" fill="white"/>
<path d="M6.23828 6.39844L5.25562 5.68449L5.61259 5.19316L6.23828 6.39844Z" fill="white"/>
<path d="M4.81641 6.39453L5.79907 5.68058L5.4421 5.18925L4.81641 6.39453Z" fill="white"/>
<path d="M4.81641 6.39453L5.19175 5.23934L5.76934 5.42701L4.81641 6.39453Z" fill="white"/>
</g>
<defs>
<clipPath id="clip0_358_13835">
<rect width="24" height="24" rx="12" fill="white"/>
</clipPath>
</defs>
</svg>
