<svg width="24" height="24" viewBox="0 0 24 24" fill="none" xmlns="http://www.w3.org/2000/svg">
<g clip-path="url(#clip0_358_4732)">
<path d="M-6 0H30V24H-6V0Z" fill="white"/>
<path d="M-6 0H30V12H-6V0Z" fill="#ED2939"/>
<path d="M11.0992 9.92101C13.2531 9.92101 14.9991 8.17494 14.9991 6.02105C14.9991 3.86716 13.2531 2.12109 11.0992 2.12109C8.94529 2.12109 7.19922 3.86716 7.19922 6.02105C7.19922 8.17494 8.94529 9.92101 11.0992 9.92101Z" fill="white"/>
<path d="M12.8648 9.92101C15.0187 9.92101 16.7648 8.17494 16.7648 6.02105C16.7648 3.86716 15.0187 2.12109 12.8648 2.12109C10.7109 2.12109 8.96484 3.86716 8.96484 6.02105C8.96484 8.17494 10.7109 9.92101 12.8648 9.92101Z" fill="#ED2939"/>
<path d="M13.2314 2.76953L12.6345 4.60652L14.1971 3.4712H12.2656L13.8283 4.60652L13.2314 2.76953Z" fill="white"/>
<path d="M16.3258 5.01615L14.3943 5.01615L15.9569 6.15147L15.36 4.31448L14.7631 6.15147L16.3258 5.01615Z" fill="white"/>
<path d="M11.3202 8.65304L12.8829 7.51772L10.9514 7.51772L12.514 8.65304L11.9171 6.81606L11.3202 8.65304Z" fill="white"/>
<path d="M15.1445 8.65164L14.5476 6.81466L13.9507 8.65164L15.5134 7.51632L13.5818 7.51632L15.1445 8.65164Z" fill="white"/>
<path d="M10.1383 5.0151L11.7009 6.15042L11.104 4.31343L10.5072 6.15042L12.0698 5.0151L10.1383 5.0151Z" fill="white"/>
</g>
<defs>
<clipPath id="clip0_358_4732">
<rect width="24" height="24" rx="12" fill="white"/>
</clipPath>
</defs>
</svg>
