<svg width="24" height="24" viewBox="0 0 24 24" fill="none" xmlns="http://www.w3.org/2000/svg">
<g clip-path="url(#clip0_358_2794)">
<path d="M-6 0H29.9921V24H-6V0Z" fill="#FF0000"/>
<path d="M-6 0H29.9921V16H-6V0Z" fill="#0000FF"/>
<path d="M-6 0H29.9921V8H-6V0Z" fill="white"/>
<path fill-rule="evenodd" clip-rule="evenodd" d="M12.0909 4.23047C12.0371 4.23055 11.9836 4.23165 11.9302 4.23321C10.8911 4.26014 9.91561 4.52846 9.22101 4.8557L9.22109 4.85664C9.14514 4.88838 9.07074 4.92021 9 4.95203L9.23875 8.69164C9.40417 10.6459 10.6777 11.7837 12.0927 12.2305C13.5077 11.7837 14.7812 10.6459 14.9466 8.69164L15.1841 4.96391C15.1132 4.92721 15.0388 4.89165 14.963 4.85664L14.963 4.8557C14.233 4.51176 13.1928 4.2324 12.0945 4.23055C12.0936 4.23055 12.0928 4.23047 12.092 4.23047C12.0916 4.23047 12.0912 4.23047 12.0909 4.23047Z" fill="#0000FF"/>
<path fill-rule="evenodd" clip-rule="evenodd" d="M12.0915 6.81836L11.3931 8.18221L10.9416 7.59564L9.76172 9.15484C9.78304 9.25162 9.80808 9.34504 9.83543 9.43627C9.9672 9.65865 10.2204 9.91253 10.5452 9.91253C10.8029 9.91253 11.0606 9.70636 11.3183 9.70636C11.5761 9.70636 11.8338 9.91253 12.0915 9.91253C12.3492 9.91253 12.6069 9.70636 12.8647 9.70636C13.1224 9.70636 13.3801 9.91253 13.6378 9.91253C13.9596 9.91253 14.2112 9.66337 14.344 9.44245C14.3723 9.34879 14.3978 9.25231 14.4197 9.15278L13.2414 7.59564L12.7899 8.18221L12.0915 6.81836ZM11.3183 9.91253C11.0606 9.91253 10.8029 10.1187 10.5452 10.1187C10.3412 10.1187 10.166 10.0465 10.0303 9.94397C10.0782 10.0457 10.1289 10.1446 10.1844 10.2383C10.2907 10.3044 10.4115 10.3491 10.5452 10.3491C10.8029 10.3491 11.0606 10.1429 11.3183 10.1429C11.5761 10.1429 11.8338 10.3491 12.0915 10.3491C12.3492 10.3491 12.6069 10.1429 12.8647 10.1429C13.1224 10.1429 13.3801 10.3491 13.6378 10.3491C13.7696 10.3491 13.8887 10.3054 13.994 10.2409C14.0494 10.1475 14.1001 10.0489 14.1481 9.94758C14.013 10.0482 13.8394 10.1187 13.6378 10.1187C13.3801 10.1187 13.1224 9.91253 12.8647 9.91253C12.6069 9.91253 12.3492 10.1187 12.0915 10.1187C11.8338 10.1187 11.5761 9.91253 11.3183 9.91253ZM11.3183 10.3491C11.0606 10.3491 10.8029 10.5553 10.5452 10.5553C10.4892 10.5553 10.4359 10.5487 10.3844 10.5388C10.8302 11.1344 11.4385 11.5332 12.091 11.7624C12.7421 11.5335 13.3494 11.1345 13.795 10.5398C13.7446 10.5493 13.6924 10.5553 13.6378 10.5553C13.3801 10.5553 13.1224 10.3491 12.8647 10.3491C12.6069 10.3491 12.3492 10.5553 12.0915 10.5553C11.8338 10.5553 11.5761 10.3491 11.3183 10.3491Z" fill="white"/>
<path fill-rule="evenodd" clip-rule="evenodd" d="M10.9297 4.73047H11.5144L11.222 5.23677" fill="#FFFF00"/>
<path fill-rule="evenodd" clip-rule="evenodd" d="M10.9297 5.06836H11.5144L11.222 4.56206" fill="#FFFF00"/>
<path fill-rule="evenodd" clip-rule="evenodd" d="M12.6719 4.73047H13.2566L12.9642 5.23677" fill="#FFFF00"/>
<path fill-rule="evenodd" clip-rule="evenodd" d="M12.6719 5.06836H13.2566L12.9642 4.56206" fill="#FFFF00"/>
<path fill-rule="evenodd" clip-rule="evenodd" d="M11.8008 5.89648H12.3855L12.0931 6.40278" fill="#FFFF00"/>
<path fill-rule="evenodd" clip-rule="evenodd" d="M11.8008 6.23438H12.3855L12.0931 5.72808" fill="#FFFF00"/>
<path fill-rule="evenodd" clip-rule="evenodd" d="M9.22109 4.85664C9.14512 4.8884 9.07076 4.9202 9 4.95203L9.23875 8.69172C9.40417 10.6459 10.6776 11.7837 12.0927 12.2305C13.5077 11.7837 14.7811 10.6459 14.9466 8.69172L15.184 4.96391C15.1131 4.92723 15.0388 4.89165 14.9629 4.85664L14.7413 8.56789C14.5878 10.4679 13.4056 11.5741 12.092 12.0084C10.7784 11.5741 9.59622 10.4679 9.44266 8.56789L9.22109 4.85664Z" fill="#FF0000"/>
</g>
<defs>
<clipPath id="clip0_358_2794">
<rect width="24" height="24" rx="12" fill="white"/>
</clipPath>
</defs>
</svg>
