<svg width="24" height="24" viewBox="0 0 24 24" fill="none" xmlns="http://www.w3.org/2000/svg">
<g clip-path="url(#clip0_358_2785)">
<path d="M30 0H-6V24H30V0Z" fill="#EE1C25"/>
<path d="M30 0H-6V16H30V0Z" fill="#0B4EA2"/>
<path d="M30 0H-6V8H30V0Z" fill="white"/>
<path d="M16.939 5.64062H16.6149H11.9965H7.37828H7.05416L7.02028 5.96299C7.01292 6.03307 6.83984 7.72182 6.83984 11.4306C6.83984 13.1731 7.42888 14.7104 8.59064 15.9998C9.4046 16.9032 10.4676 17.6637 11.8403 18.3249L11.9965 18.4002L12.1528 18.3249C13.5256 17.6637 14.5886 16.9032 15.4026 15.9998C16.5644 14.7104 17.1534 13.1731 17.1534 11.4306C17.1534 7.72186 16.9803 6.03307 16.973 5.96299L16.939 5.64062Z" fill="white"/>
<path d="M11.9959 18C10.0223 17.0494 7.19922 15.1625 7.19922 11.43C7.19922 7.69744 7.37766 6 7.37766 6H11.9959H16.6143C16.6143 6 16.7928 7.69748 16.7928 11.43C16.7928 15.1625 13.9697 17.0494 11.9959 18Z" fill="#EE1C25"/>
<path d="M12.4199 10.453C12.9543 10.4616 13.9969 10.4825 14.9253 10.1719C14.9253 10.1719 14.9008 10.5041 14.9008 10.8911C14.9008 11.2782 14.9253 11.6104 14.9253 11.6104C14.0737 11.3254 13.0221 11.3195 12.4199 11.3271V13.3887H11.5757V11.3271C10.9735 11.3195 9.92191 11.3254 9.07031 11.6104C9.07031 11.6104 9.09483 11.2782 9.09483 10.8911C9.09483 10.5041 9.07031 10.1719 9.07031 10.1719C9.99871 10.4825 11.0413 10.4616 11.5757 10.453V9.15827C11.0886 9.15395 10.3868 9.17719 9.59319 9.44279C9.59319 9.44279 9.61771 9.11059 9.61771 8.72351C9.61771 8.33647 9.59319 8.00427 9.59319 8.00427C10.3856 8.26939 11.0866 8.29303 11.5736 8.28883C11.5485 7.46891 11.3097 6.43555 11.3097 6.43555C11.3097 6.43555 11.8012 6.47391 11.9978 6.47391C12.1945 6.47391 12.6859 6.43555 12.6859 6.43555C12.6859 6.43555 12.4471 7.46895 12.422 8.28875C12.909 8.29299 13.61 8.26935 14.4024 8.00419C14.4024 8.00419 14.3779 8.33639 14.3779 8.72343C14.3779 9.11051 14.4024 9.44271 14.4024 9.44271C13.6088 9.17715 12.907 9.15387 12.4199 9.15819V10.4529V10.453Z" fill="white"/>
<path d="M11.9955 13.1641C11.0015 13.1641 10.469 14.5428 10.469 14.5428C10.469 14.5428 10.1736 13.8891 9.36258 13.8891C8.81382 13.8891 8.40942 14.3771 8.15234 14.8291C9.1507 16.4173 10.7435 17.3973 11.9955 18.0003C13.2477 17.3973 14.8416 16.4175 15.84 14.8291C15.5829 14.3771 15.1785 13.8891 14.6297 13.8891C13.8187 13.8891 13.522 14.5428 13.522 14.5428C13.522 14.5428 12.9897 13.1641 11.9955 13.1641Z" fill="#0B4EA2"/>
</g>
<defs>
<clipPath id="clip0_358_2785">
<rect width="24" height="24" rx="12" fill="white"/>
</clipPath>
</defs>
</svg>
