<svg width="24" height="24" viewBox="0 0 24 24" fill="none" xmlns="http://www.w3.org/2000/svg">
<g clip-path="url(#clip0_358_14976)">
<path d="M24 -3H0V27.6H24V-3Z" fill="#00853F"/>
<path d="M24.0008 -3H7.80078V27.6H24.0008V-3Z" fill="#FDEF42"/>
<path d="M23.9992 -2.40039H16.1992V26.9996H23.9992V-2.40039Z" fill="#E31B23"/>
<path d="M12 9.5332L11.176 12.0694L12.444 12.4814L12 9.5332Z" fill="#00853F"/>
<path d="M12 9.5332L12.824 12.0694L11.556 12.4814L12 9.5332Z" fill="#00853F"/>
<path d="M14.5352 11.375H11.8685V12.7083L14.5352 11.375Z" fill="#00853F"/>
<path d="M14.5352 11.375L12.3778 12.9424L11.5941 11.8637L14.5352 11.375Z" fill="#00853F"/>
<path d="M13.5664 14.3574L12.7424 11.8213L11.4743 12.2333L13.5664 14.3574Z" fill="#00853F"/>
<path d="M13.5664 14.3574L11.409 12.79L12.1927 11.7113L13.5664 14.3574Z" fill="#00853F"/>
<path d="M10.4297 14.3574L12.5871 12.79L11.8034 11.7113L10.4297 14.3574Z" fill="#00853F"/>
<path d="M10.4297 14.3574L11.2537 11.8213L12.5218 12.2333L10.4297 14.3574Z" fill="#00853F"/>
<path d="M9.46094 11.377L11.6183 12.9444L12.402 11.8657L9.46094 11.377Z" fill="#00853F"/>
<path d="M9.46094 11.377H12.1276V12.7103L9.46094 11.377Z" fill="#00853F"/>
</g>
<defs>
<clipPath id="clip0_358_14976">
<rect width="24" height="24" rx="12" fill="white"/>
</clipPath>
</defs>
</svg>
