<svg width="24" height="24" viewBox="0 0 24 24" fill="none" xmlns="http://www.w3.org/2000/svg">
<g clip-path="url(#clip0_358_14389)">
<rect width="24" height="24" rx="12" fill="#3E5EB9"/>
<path d="M-0.601562 3.59961H24.5984V20.3996H-0.601562V3.59961Z" fill="#3E5EB9"/>
<path d="M-0.601562 6.75H24.5984V17.25H-0.601562V6.75Z" fill="#FFD900"/>
<path d="M-0.601562 7.80078H24.5984V16.2008H-0.601562V7.80078Z" fill="#B10C0C"/>
<path d="M20.102 10.0801L19.082 10.4401L20.102 10.8L21.122 10.4401L20.102 10.0801Z" fill="white" stroke="black" stroke-width="0.07056"/>
<path d="M19.4315 10.3203H4.69295C4.62091 10.3203 4.5625 10.374 4.5625 10.4403C4.5625 10.5066 4.62091 10.5603 4.69295 10.5603H19.4315C19.5036 10.5603 19.562 10.5066 19.562 10.4403C19.562 10.374 19.5036 10.3203 19.4315 10.3203Z" fill="#FFD900" stroke="black" stroke-width="0.07056"/>
<path d="M19.2051 10.5603C19.265 10.5603 19.3252 10.5003 19.3252 10.4403C19.3252 10.3803 19.2651 10.3203 19.2051 10.3203M19.085 10.5603C19.1449 10.5603 19.205 10.5003 19.205 10.4403C19.205 10.3803 19.1449 10.3203 19.085 10.3203M18.9648 10.5603C19.0248 10.5603 19.0849 10.5003 19.0849 10.4403C19.0849 10.3803 19.0248 10.3203 18.9649 10.3203" fill="#FFD900"/>
<path d="M19.2051 10.5603C19.265 10.5603 19.3252 10.5003 19.3252 10.4403C19.3252 10.3803 19.2651 10.3203 19.2051 10.3203M19.085 10.5603C19.1449 10.5603 19.205 10.5003 19.205 10.4403C19.205 10.3803 19.1449 10.3203 19.085 10.3203M18.9648 10.5603C19.0248 10.5603 19.0849 10.5003 19.0849 10.4403C19.0849 10.3803 19.0248 10.3203 18.9649 10.3203" stroke="black" stroke-width="0.07056"/>
<path d="M19.1254 10.8008L18.1055 11.1608L19.1254 11.5207L20.1454 11.1608L19.1254 10.8008Z" fill="white" stroke="black" stroke-width="0.07056"/>
<path d="M18.4549 11.041H3.71639C3.64434 11.041 3.58594 11.0947 3.58594 11.161C3.58594 11.2273 3.64434 11.281 3.71639 11.281H18.4549C18.527 11.281 18.5854 11.2273 18.5854 11.161C18.5854 11.0947 18.527 11.041 18.4549 11.041Z" fill="#FFD900" stroke="black" stroke-width="0.07056"/>
<path d="M18.2285 11.281C18.2885 11.281 18.3486 11.221 18.3486 11.161C18.3486 11.101 18.2885 11.041 18.2286 11.041M18.1084 11.281C18.1683 11.281 18.2285 11.221 18.2285 11.161C18.2285 11.101 18.1684 11.041 18.1084 11.041M17.9883 11.281C18.0482 11.281 18.1084 11.221 18.1084 11.161C18.1084 11.101 18.0483 11.041 17.9883 11.041" fill="#FFD900"/>
<path d="M18.2285 11.281C18.2885 11.281 18.3486 11.221 18.3486 11.161C18.3486 11.101 18.2885 11.041 18.2286 11.041M18.1084 11.281C18.1683 11.281 18.2285 11.221 18.2285 11.161C18.2285 11.101 18.1684 11.041 18.1084 11.041M17.9883 11.281C18.0482 11.281 18.1084 11.221 18.1084 11.161C18.1084 11.101 18.0483 11.041 17.9883 11.041" stroke="black" stroke-width="0.07056"/>
<path d="M22.1361 11.8203H2.09147C1.99349 11.8203 1.91406 11.9009 1.91406 12.0003C1.91406 12.0997 1.99349 12.1803 2.09147 12.1803H22.1361C22.234 12.1803 22.3135 12.0997 22.3135 12.0003C22.3135 11.9009 22.234 11.8203 22.1361 11.8203Z" fill="#FFD900" stroke="black" stroke-width="0.0756"/>
<path d="M18.0002 12.0005C16.8003 13.2003 15.2002 15.6003 12.0001 15.6003C9.20006 15.6003 7.20036 13.2004 6 12.0005C7.2 10.8004 9.1999 8.40039 12.0001 8.40039C15.2 8.40039 16.7999 10.8004 18.0002 12.0005Z" fill="white" stroke="black" stroke-width="0.07056"/>
<path d="M11.5809 9.65289C11.9002 10.0119 11.6336 10.1567 11.9715 10.1803C12.3279 10.2064 12.1259 10.5597 12.4256 10.572C12.6352 10.5811 12.4047 11.4183 12.6064 11.6946C12.812 11.9826 12.9841 11.779 12.9877 11.987C12.9912 12.2022 12.4284 12.1805 12.4185 12.8434C12.402 13.2254 11.9435 13.2499 11.9216 13.4957C11.8944 13.7269 12.8249 13.8567 12.8125 14.0637C12.7997 14.27 11.8077 14.2377 11.7646 14.4731C11.7424 14.6845 13.1273 14.8577 13.2387 15.469C13.032 15.5366 12.4441 15.6002 11.9997 15.6005C9.20012 15.6026 7.19994 13.2004 6 12.0005C7.2 10.8004 9.1999 8.40039 12.0001 8.40039C12.0001 8.40039 11.169 9.15983 11.5814 9.65263L11.5809 9.65289Z" fill="black"/>
<path d="M8.38281 11.6807V10.7207V11.6807ZM8.96451 10.7207V11.6807V10.7207ZM9.54663 10.7207V11.6807V10.7207Z" fill="black"/>
<path d="M8.38281 11.6807V10.7207M8.96451 10.7207V11.6807M9.54663 10.7207V11.6807" stroke="white" stroke-width="0.48489"/>
<path d="M8.38281 13.2803V12.3203V13.2803ZM8.96451 12.3203V13.2803V12.3203ZM9.54663 12.3203V13.2803V12.3203Z" fill="black"/>
<path d="M8.38281 13.2803V12.3203M8.96451 12.3203V13.2803M9.54663 12.3203V13.2803" stroke="white" stroke-width="0.48489"/>
<path d="M10.1289 11.6807V10.7207V11.6807ZM10.7106 10.7207V11.6807V10.7207ZM11.2927 10.7207V11.6807V10.7207Z" fill="black"/>
<path d="M10.1289 11.6807V10.7207M10.7106 10.7207V11.6807M11.2927 10.7207V11.6807" stroke="white" stroke-width="0.48489"/>
<path d="M10.1289 13.2803V12.3203V13.2803ZM10.7106 12.3203V13.2803V12.3203ZM11.2927 12.3203V13.2803V12.3203Z" fill="black"/>
<path d="M10.1289 13.2803V12.3203M10.7106 12.3203V13.2803M11.2927 12.3203V13.2803" stroke="white" stroke-width="0.48489"/>
<path d="M12.7852 11.6787V10.7188V11.6787ZM13.3669 10.7188V11.6787V10.7188ZM13.949 10.7188V11.6787V10.7188Z" fill="black"/>
<path d="M12.7852 11.6787V10.7188M13.3669 10.7188V11.6787M13.949 10.7188V11.6787" stroke="black" stroke-width="0.48489"/>
<path d="M12.7852 13.2784V12.3184V13.2784ZM13.3669 12.3184V13.2784V12.3184ZM13.949 12.3184V13.2784V12.3184Z" fill="black"/>
<path d="M12.7852 13.2784V12.3184M13.3669 12.3184V13.2784M13.949 12.3184V13.2784" stroke="black" stroke-width="0.48489"/>
<path d="M14.5312 11.6787V10.7188V11.6787ZM15.113 10.7188V11.6787V10.7188ZM15.6951 10.7188V11.6787V10.7188Z" fill="black"/>
<path d="M14.5312 11.6787V10.7188M15.113 10.7188V11.6787M15.6951 10.7188V11.6787" stroke="black" stroke-width="0.48489"/>
<path d="M14.5312 13.2784V12.3184V13.2784ZM15.113 12.3184V13.2784V12.3184ZM15.6951 12.3184V13.2784V12.3184Z" fill="black"/>
<path d="M14.5312 13.2784V12.3184M15.113 12.3184V13.2784M15.6951 12.3184V13.2784" stroke="black" stroke-width="0.48489"/>
<path d="M20.8777 11.8574C20.6959 12.1723 21.0172 11.7527 21.8011 12.2798C21.9464 12.3777 22.0733 12.6363 22.0733 12.8157C22.0364 12.791 22.009 12.7361 21.9684 12.7004C21.9116 12.7574 22.0227 13.0187 22.039 13.1421C21.9164 13.0736 21.9282 13.0411 21.8875 12.9568C21.8956 13.0587 21.8665 13.3393 21.9152 13.4474C21.8186 13.4198 21.8251 13.342 21.7746 13.3264C21.8089 13.4487 21.7447 13.5818 21.7618 13.7193C21.7053 13.6635 21.6452 13.6197 21.619 13.5971C21.6146 13.6626 21.5104 13.8347 21.508 13.8966C21.4602 13.8677 21.4471 13.8226 21.4392 13.7922C21.3796 13.867 21.1681 14.1432 21.1545 14.2275C20.9915 14.0835 20.574 13.7329 20.5196 13.5468C20.4716 13.6524 20.402 13.6881 20.2645 13.7652C20.2102 13.4703 20.0071 13.1388 20.1157 12.886C20.0387 12.9316 19.9754 12.9773 19.8984 13.0335C19.9713 12.6063 20.3431 12.1055 20.8778 11.8574H20.8777Z" fill="#3D5DA7" stroke="black" stroke-width="0.05985"/>
<path d="M20.2031 13.4167C20.2786 13.2658 20.3481 13.218 20.3969 13.1209C20.483 12.9501 20.4953 12.8143 20.5704 12.8342C20.6454 12.8541 20.6453 12.9241 20.5481 13.0919C20.4509 13.2598 20.4046 13.2957 20.2031 13.4167ZM20.7134 13.7762C20.7037 13.6613 20.737 13.6134 20.731 13.5394C20.7206 13.4093 20.6674 13.3199 20.7366 13.3136C20.8058 13.3073 20.8382 13.3517 20.8384 13.4828C20.8386 13.614 20.8183 13.6484 20.7135 13.7763L20.7134 13.7762ZM21.1007 14.0014C21.0704 13.841 21.0931 13.7699 21.0737 13.6666C21.04 13.4848 20.9734 13.3651 21.0375 13.3485C21.1016 13.3319 21.1404 13.3907 21.1646 13.575C21.1889 13.7593 21.1761 13.81 21.1007 14.0014ZM21.5034 12.8779C21.4089 12.8061 21.3537 12.8012 21.2927 12.7551C21.1853 12.6742 21.1309 12.5875 21.0963 12.6306C21.0618 12.6736 21.0863 12.7206 21.1989 12.7953C21.3114 12.87 21.3496 12.8758 21.5034 12.8779ZM21.4367 13.41C21.3868 13.3065 21.3344 13.2802 21.3021 13.2136C21.2451 13.0966 21.245 12.9953 21.1832 13.0212C21.1214 13.0472 21.1164 13.1002 21.1825 13.2135C21.2486 13.3268 21.2833 13.3473 21.4367 13.41Z" fill="#B3B3B3"/>
<path d="M2.79549 12.1601C2.78532 12.0684 2.80495 12.0574 2.74853 11.9883C2.83065 12.0227 2.83376 12.114 2.93361 12.0492C2.97026 12.0302 2.98625 12.0296 2.9417 11.9277C3.04581 11.9326 3.38673 12.0495 3.44133 12.0522C3.58469 12.0588 3.84638 11.9016 4.02802 12.0949C4.20237 12.2711 4.14416 12.454 4.14416 12.6981C4.07411 12.6645 4.10787 12.6479 4.03353 12.5607C4.08925 12.774 4.03057 13.1586 4.03057 13.3849C4.00195 13.3303 4.00615 13.354 3.97818 13.2975C3.90384 13.504 3.81474 13.5465 3.81474 13.7906C3.78792 13.6949 3.81382 13.7151 3.78397 13.6648C3.71173 13.8216 3.22705 13.9555 3.41381 14.1136C3.24525 14.0147 3.17133 14.0251 3.09489 13.9362C3.06193 13.9575 3.03578 13.9977 3.00515 14.0529C2.70877 13.9165 2.81475 13.6224 2.58255 13.4259C2.54237 13.5083 2.56068 13.4963 2.51725 13.6304C2.47024 13.4442 2.45739 13.3258 2.40452 13.1889C2.35891 13.2648 2.36297 13.2357 2.28015 13.3504C2.24587 13.1236 2.1901 13.07 2.21216 12.9199C2.12413 12.982 2.18175 12.9569 2.09375 13.0333C2.17713 12.452 2.53719 12.0225 2.79557 12.1601L2.79549 12.1601Z" fill="#3D5DA7" stroke="black" stroke-width="0.07469"/>
<path d="M2.42969 13.109C2.50607 12.9218 2.5749 12.863 2.62426 12.7425C2.7114 12.5308 2.72559 12.3615 2.79878 12.3873C2.872 12.4131 2.87083 12.5003 2.77288 12.7084C2.67494 12.9165 2.6291 12.9606 2.42969 13.1089V13.109ZM2.71882 13.5773C2.74945 13.4095 2.79775 13.3484 2.8176 13.2403C2.85285 13.0503 2.8332 12.9088 2.90124 12.9163C2.96928 12.9237 2.98465 12.9954 2.93937 13.1844C2.8941 13.3735 2.86288 13.4182 2.71882 13.5773ZM3.06464 13.9028C3.07327 13.7401 3.1114 13.6766 3.11712 13.5718C3.12745 13.3875 3.09197 13.2556 3.15685 13.2548C3.22172 13.2541 3.24485 13.3204 3.22497 13.5048C3.20509 13.6894 3.1811 13.7354 3.06464 13.9028ZM3.80726 12.8389C3.66527 12.6974 3.57942 12.671 3.48781 12.58C3.32644 12.4203 3.24849 12.2702 3.19104 12.3234C3.13358 12.3766 3.16816 12.4563 3.33804 12.6083C3.50794 12.7604 3.56702 12.7826 3.80726 12.8389ZM3.72074 13.3857C3.62826 13.2437 3.56038 13.2069 3.50066 13.1155C3.39538 12.9549 3.35915 12.8169 3.29948 12.8511C3.23976 12.8853 3.25311 12.9574 3.36724 13.1131C3.48134 13.2687 3.52723 13.2974 3.72074 13.3858V13.3857Z" fill="#B3B3B3"/>
<path d="M10.0636 9.03906C9.89734 9.36056 10.3546 8.93213 11.0715 9.47037C11.2044 9.57036 11.3948 9.96541 11.3948 10.1485C11.2422 10.1161 10.9719 9.96541 10.9719 9.96541C10.9719 9.96541 11.2891 10.2831 11.2891 10.6493C11.177 10.5793 11.1209 10.5898 11.0837 10.5038C11.0837 10.6223 11.1834 10.6979 11.1834 10.881C11.1152 10.8262 11.0423 10.7776 10.9655 10.7357C11.0712 10.9188 10.7729 11.2741 10.9222 11.3926C10.661 11.3549 10.3938 11.188 10.2881 11.0049C10.2321 11.0426 10.226 11.1019 10.2238 11.1651C10.2321 11.172 9.82628 10.864 9.86357 10.7456C9.80914 10.822 9.8015 10.864 9.78906 10.95C9.64002 10.803 9.50338 10.656 9.45365 10.466C9.38743 10.552 9.38326 10.552 9.31701 10.6381C9.26734 10.3369 9.26734 10.3476 9.36671 10.0895C9.29632 10.1361 9.23836 10.1828 9.16797 10.2402C9.23461 9.80397 9.57461 9.29249 10.0636 9.03917L10.0636 9.03906Z" fill="#3D5DA7" stroke="black" stroke-width="0.05782"/>
<path d="M9.65234 10.6089C9.67894 10.3873 9.73685 10.3039 9.75415 10.1612C9.78504 9.9103 9.74838 9.72688 9.83731 9.73155C9.92624 9.73617 9.95183 9.82871 9.90787 10.0791C9.86394 10.3295 9.82687 10.3903 9.65234 10.6089ZM10.1164 11.0146C10.0984 10.8277 10.133 10.7481 10.1215 10.6277C10.1017 10.4158 10.0363 10.2723 10.1138 10.2592C10.1913 10.246 10.2305 10.317 10.2388 10.5309C10.2472 10.7448 10.2265 10.8018 10.1164 11.0146H10.1164ZM10.8409 11.3456C10.7622 11.1838 10.6944 11.1356 10.6436 11.0315C10.5537 10.8485 10.535 10.6991 10.4657 10.7262C10.3964 10.7533 10.4002 10.8306 10.5003 11.0096C10.6004 11.1887 10.6456 11.2253 10.8409 11.3456ZM11.0917 9.89698C10.891 9.79133 10.7879 9.79002 10.6586 9.72212C10.4309 9.60312 10.2984 9.46866 10.2513 9.54266C10.2042 9.61667 10.2671 9.69025 10.5018 9.79844C10.7366 9.90664 10.8087 9.91176 11.0917 9.89698H11.0917ZM11.1652 10.5022C11.0191 10.3806 10.9327 10.3628 10.8384 10.2846C10.6724 10.1474 10.5898 10.0126 10.5343 10.0672C10.4789 10.1218 10.5159 10.194 10.6902 10.3233C10.8644 10.4526 10.924 10.4686 11.1652 10.5022Z" fill="#B3B3B3"/>
</g>
<defs>
<clipPath id="clip0_358_14389">
<rect width="24" height="24" rx="12" fill="white"/>
</clipPath>
</defs>
</svg>
