<svg width="24" height="24" viewBox="0 0 24 24" fill="none" xmlns="http://www.w3.org/2000/svg">
<g clip-path="url(#clip0_358_4750)">
<path d="M-6 0H30V24H-6V0Z" fill="#006600"/>
<path d="M-6 0H30V17.1429H-6V0Z" fill="white"/>
<path d="M-6 0H30V6.85714H-6V0Z" fill="#CC0000"/>
<path d="M11.0397 11.6697C11.0865 11.5892 11.1583 11.5261 11.2441 11.4901C11.3299 11.454 11.4251 11.4468 11.5154 11.4697C11.6057 11.4925 11.686 11.5441 11.7443 11.6167C11.8026 11.6893 11.8357 11.7789 11.8386 11.872V13.5863H12.1609V11.872C12.1637 11.7789 12.1968 11.6893 12.2551 11.6167C12.3134 11.5441 12.3938 11.4925 12.484 11.4697C12.5743 11.4468 12.6695 11.454 12.7553 11.4901C12.8412 11.5261 12.9129 11.5892 12.9597 11.6697C13.0101 11.5177 13.0237 11.3559 12.9994 11.1976C12.9751 11.0393 12.9135 10.8891 12.8198 10.7593C12.7261 10.6294 12.6028 10.5237 12.4603 10.4508C12.3177 10.3779 12.1598 10.3398 11.9997 10.3398C11.8396 10.3398 11.6817 10.3779 11.5392 10.4508C11.3966 10.5237 11.2734 10.6294 11.1796 10.7593C11.0859 10.8891 11.0243 11.0393 11 11.1976C10.9757 11.3559 10.9893 11.5177 11.0397 11.6697Z" fill="#F8C300"/>
<path d="M11.2695 11.2228C11.4102 11.194 11.5564 11.2101 11.6874 11.2689C11.8184 11.3276 11.9277 11.426 11.9998 11.5502C12.0719 11.426 12.1812 11.3276 12.3122 11.2689C12.4433 11.2101 12.5894 11.194 12.7301 11.2228C12.7059 11.0463 12.6185 10.8846 12.4843 10.7675C12.35 10.6504 12.1779 10.5859 11.9998 10.5859C11.8217 10.5859 11.6496 10.6504 11.5153 10.7675C11.3811 10.8846 11.2938 11.0463 11.2695 11.2228Z" fill="white"/>
<path d="M11.8386 12.9004C11.8167 13.1436 11.7269 13.3758 11.5795 13.5705C11.432 13.7652 11.2329 13.9145 11.0046 14.0014C10.7764 14.0883 10.5284 14.1093 10.2888 14.0621C10.0492 14.0148 9.8277 13.9012 9.64959 13.7341C9.57348 13.9251 9.45485 14.0963 9.30272 14.2347C9.15059 14.3731 8.96894 14.475 8.77155 14.5327C8.57416 14.5905 8.36622 14.6025 8.1635 14.5678C7.96078 14.5332 7.76861 14.4529 7.60156 14.333C7.72669 15.5818 9.59877 15.3269 9.73825 14.1125C10.3264 15.145 11.6196 14.8493 11.998 13.5845L11.8386 12.9004Z" fill="#F8C300"/>
<path d="M12.1614 12.9004C12.1833 13.1436 12.2731 13.3758 12.4205 13.5705C12.568 13.7652 12.7671 13.9145 12.9954 14.0014C13.2236 14.0883 13.4716 14.1093 13.7112 14.0621C13.9508 14.0148 14.1723 13.9012 14.3504 13.7341C14.4265 13.9251 14.5451 14.0963 14.6973 14.2347C14.8494 14.3731 15.0311 14.475 15.2284 14.5327C15.4258 14.5905 15.6338 14.6025 15.8365 14.5678C16.0392 14.5332 16.2314 14.4529 16.3984 14.333C16.2733 15.5818 14.4012 15.3269 14.2618 14.1125C13.6736 15.145 12.3804 14.8493 12.002 13.5845L12.1614 12.9004Z" fill="#F8C300"/>
<path d="M10.5876 15.119C10.3264 15.6828 9.80431 15.7797 9.34766 15.3245C9.34766 15.3245 9.53122 15.1948 9.72775 15.1591C9.6909 15.0022 9.76646 14.7853 9.87296 14.668C9.98465 14.7443 10.1405 14.8973 10.1802 15.0751C10.4554 15.0394 10.5876 15.119 10.5876 15.119Z" fill="#F8C300"/>
<path d="M12.6343 15.0551C12.2848 15.5689 11.7539 15.5795 11.3775 15.056C11.3775 15.056 11.5797 14.9579 11.7794 14.9546C11.7686 14.7939 11.8785 14.5921 12.0027 14.4937C12.1004 14.5872 12.2293 14.7636 12.2395 14.9454C12.5169 14.9551 12.6343 15.0551 12.6343 15.0551Z" fill="#F8C300"/>
<path d="M14.6582 15.3255C14.2297 15.7755 13.7042 15.6995 13.418 15.1218C13.418 15.1218 13.6335 15.0579 13.8311 15.0872C13.8466 14.9268 13.9878 14.7457 14.1264 14.6688C14.2076 14.7769 14.3061 14.9719 14.2865 15.153C14.5586 15.2077 14.6582 15.3255 14.6582 15.3255Z" fill="#F8C300"/>
<path d="M8.67578 16.377C10.8459 15.7311 13.1571 15.7311 15.3272 16.377" stroke="#F8C300" stroke-width="0.914286"/>
<path d="M11.1875 7.95165H12.8179L11.4989 8.90996L12.0027 7.35938L12.5065 8.90996L11.1875 7.95165Z" fill="#F8C300"/>
<path d="M8.78516 8.59422H10.4155L9.09653 9.55254L9.60035 8.00195L10.1042 9.55254L8.78516 8.59422Z" fill="#F8C300"/>
<path d="M7.03125 10.352H8.66163L7.34263 11.3104L7.84644 9.75977L8.35026 11.3104L7.03125 10.352Z" fill="#F8C300"/>
<path d="M6.38672 12.7505H8.0171L6.69809 13.7088L7.20191 12.1582L7.70573 13.7088L6.38672 12.7505Z" fill="#F8C300"/>
<path d="M15.2188 8.59422H13.5884L14.9074 9.55254L14.4036 8.00195L13.8997 9.55254L15.2188 8.59422Z" fill="#F8C300"/>
<path d="M16.9727 10.352H15.3423L16.6613 11.3104L16.1575 9.75977L15.6536 11.3104L16.9727 10.352Z" fill="#F8C300"/>
<path d="M17.6172 12.7505H15.9868L17.3058 13.7088L16.802 12.1582L16.2982 13.7088L17.6172 12.7505Z" fill="#F8C300"/>
</g>
<defs>
<clipPath id="clip0_358_4750">
<rect width="24" height="24" rx="12" fill="white"/>
</clipPath>
</defs>
</svg>
