<svg width="24" height="24" viewBox="0 0 24 24" fill="none" xmlns="http://www.w3.org/2000/svg">
<g clip-path="url(#clip0_358_4781)">
<path d="M34.8008 0H-1.19922V24H34.8008V0Z" fill="#00843D"/>
<path d="M16.6743 2.66211C17.7383 3.11893 18.4838 4.17615 18.4838 5.40722C18.4838 7.05619 17.1465 8.39343 15.4976 8.39343C14.7594 8.39343 14.0838 8.12525 13.5625 7.68123C13.885 7.81951 14.2373 7.90306 14.6085 7.91926C16.2559 7.99119 17.6502 6.71357 17.7221 5.06619C17.7639 4.10974 17.3506 3.23867 16.6743 2.66211Z" fill="white"/>
<path d="M13.8287 4.85577L14.167 3.81445L13.2812 4.45801H14.3762L13.4904 3.81445L13.8287 4.85577Z" fill="white"/>
<path d="M13.8287 3.32061L14.167 2.2793L13.2812 2.92286H14.3762L13.4904 2.2793L13.8287 3.32061Z" fill="white"/>
<path d="M15.3443 4.10772L15.6827 3.06641L14.7969 3.70997H15.8918L15.006 3.06641L15.3443 4.10772Z" fill="white"/>
<path d="M12.3092 5.60577L12.6475 4.56445L11.7617 5.20801H12.8566L11.9708 4.56445L12.3092 5.60577Z" fill="white"/>
<path d="M13.8287 6.39287L14.167 5.35156L13.2812 5.99512H14.3762L13.4904 5.35156L13.8287 6.39287Z" fill="white"/>
<path d="M9.60109 0H3.12109V24H9.60109V0Z" fill="#D22630"/>
<path d="M3.12109 -1.58594V-1.35076L3.4855 -1.00967L3.36261 -0.895259L3.62321 -0.653734L3.5088 -0.54992V-0.700344H3.28634V-0.520259L3.78846 -0.0499191H4.0427L4.07024 -0.215173H3.92405L4.08295 -0.363479L4.48125 -0.00119066L4.08295 0.363216L3.92405 0.214911H4.07024L4.0427 0.0475382H3.78846L3.28634 0.517882V0.697967H3.5088V0.547543L3.62321 0.651357L3.36261 0.892883L3.4855 1.0094L3.12109 1.34839V1.58356L3.73761 1.0094L3.61473 0.892883L3.87321 0.651357L3.65075 0.44373L3.79906 0.308137L4.08295 0.570848L4.70584 -0.00118351L4.08295 -0.573215L3.79906 -0.308385L3.65075 -0.446097L3.87321 -0.653724L3.61473 -0.89525L3.73761 -1.00966L3.12109 -1.58594ZM3.12109 -0.443985V0.441606L3.26516 0.29542V0.123813H3.4177L3.54058 -0.00118744L3.4177 -0.124069H3.26516V-0.297798L3.12109 -0.443985ZM4.17194 -0.130426L4.15075 -0.00966358L4.17194 0.113218L4.30329 -0.00966358L4.17194 -0.130426Z" fill="#383739"/>
<path d="M3.12115 -1.56054V-1.3741L3.51098 -1.0097L3.38809 -0.89529L3.64869 -0.653765L3.49191 -0.507578V-0.683426H3.30335V-0.526646L3.797 -0.0669024H4.02581L4.04911 -0.198258H3.87962L4.08301 -0.388936L4.50674 -0.0012244L4.08301 0.386488L3.87962 0.197928H4.04911L4.02575 0.064454H3.79694L3.30329 0.524198V0.680978H3.49185V0.50513L3.64863 0.651316L3.38804 0.892842L3.51092 1.00936L3.12109 1.37166V1.5581L3.71219 1.00936L3.58931 0.892843L3.84778 0.651317L3.62532 0.44369L3.79906 0.282673L4.08295 0.547503L4.67829 -0.00122488L4.08295 -0.549953L3.79906 -0.285122L3.62532 -0.446139L3.84778 -0.653767L3.58931 -0.895292L3.71219 -1.0097L3.12109 -1.56055L3.12115 -1.56054ZM3.12115 -0.418593V0.416151L3.24827 0.289032V0.104713H3.4114L3.51734 -0.00121927L3.4114 -0.107152H3.24827V-0.291474L3.12115 -0.418593ZM4.1847 -0.0965589L4.16988 -0.00969446L4.1847 0.07717L4.27792 -0.00969446L4.1847 -0.0965589Z" fill="#FFC72C"/>
<path d="M3.12109 2.7832V3.01838L3.4855 3.35947L3.36261 3.47388L3.62321 3.71541L3.5088 3.81922V3.6688H3.28634V3.84888L3.78846 4.31922H4.0427L4.07024 4.15397H3.92405L4.08295 4.00566L4.48125 4.36795L4.08295 4.73236L3.92405 4.58405H4.07024L4.0427 4.41668H3.78846L3.28634 4.88702V5.06711H3.5088V4.91668L3.62321 5.0205L3.36261 5.26202L3.4855 5.37855L3.12109 5.71753V5.9527L3.73761 5.37855L3.61473 5.26202L3.87321 5.0205L3.65075 4.81287L3.79906 4.67728L4.08295 4.93999L4.70584 4.36796L4.08295 3.79593L3.79906 4.06076L3.65075 3.92304L3.87321 3.71542L3.61473 3.47389L3.73761 3.35948L3.12109 2.7832ZM3.12109 3.92516V4.81075L3.26516 4.66456V4.49295H3.4177L3.54058 4.36795L3.4177 4.24507H3.26516V4.07134L3.12109 3.92516ZM4.17194 4.23871L4.15075 4.35948L4.17194 4.48236L4.30329 4.35948L4.17194 4.23871Z" fill="#383739"/>
<path d="M3.12115 2.8086V2.99504L3.51098 3.35944L3.38809 3.47385L3.64869 3.71538L3.49191 3.86156V3.68571H3.30335V3.84249L3.797 4.30224H4.02581L4.04911 4.17088H3.87962L4.08301 3.9802L4.50674 4.36792L4.08301 4.75563L3.87962 4.56707H4.04911L4.02575 4.43359H3.79694L3.30329 4.89334V5.05012H3.49185V4.87427L3.64863 5.02046L3.38804 5.26198L3.51092 5.3785L3.12109 5.7408V5.92724L3.71219 5.37851L3.58931 5.26198L3.84778 5.02046L3.62532 4.81283L3.79906 4.65181L4.08295 4.91664L4.67829 4.36792L4.08295 3.81919L3.79906 4.08402L3.62532 3.923L3.84778 3.71537L3.58931 3.47385L3.71219 3.35944L3.12109 2.80859L3.12115 2.8086ZM3.12115 3.95055V4.78529L3.24827 4.65817V4.47385H3.4114L3.51734 4.36792L3.4114 4.26199H3.24827V4.07767L3.12115 3.95055ZM4.1847 4.27258L4.16988 4.35945L4.1847 4.44631L4.27792 4.35945L4.1847 4.27258Z" fill="#FFC72C"/>
<path d="M3.12109 7.29492V7.53009L3.4855 7.87119L3.36261 7.9856L3.62321 8.22713L3.5088 8.33094V8.18052H3.28634V8.3606L3.78846 8.83094H4.0427L4.07024 8.66569H3.92405L4.08295 8.51738L4.48125 8.87967L4.08295 9.24408L3.92405 9.09577H4.07024L4.0427 8.9284H3.78846L3.28634 9.39874V9.57883H3.5088V9.4284L3.62321 9.53222L3.36261 9.77374L3.4855 9.89026L3.12109 10.2292V10.4644L3.73761 9.89026L3.61473 9.77374L3.87321 9.53222L3.65075 9.32459L3.79906 9.189L4.08295 9.45171L4.70584 8.87968L4.08295 8.30764L3.79906 8.57247L3.65075 8.43476L3.87321 8.22714L3.61473 7.98561L3.73761 7.8712L3.12109 7.29492ZM3.12109 8.43687V9.32247L3.26516 9.17628V9.00467H3.4177L3.54058 8.87967L3.4177 8.75679H3.26516V8.58306L3.12109 8.43687ZM4.17194 8.75043L4.15075 8.8712L4.17194 8.99408L4.30329 8.8712L4.17194 8.75043Z" fill="#383739"/>
<path d="M3.12115 7.32031V7.50676L3.51098 7.87116L3.38809 7.98557L3.64869 8.22709L3.49191 8.37328V8.19743H3.30335V8.35421L3.797 8.81396H4.02581L4.04911 8.6826H3.87962L4.08301 8.49192L4.50674 8.87963L4.08301 9.26735L3.87962 9.07879H4.04911L4.02575 8.94531H3.79694L3.30329 9.40506V9.56184H3.49185V9.38599L3.64863 9.53218L3.38804 9.7737L3.51092 9.89022L3.12109 10.2525V10.439L3.71219 9.89022L3.58931 9.7737L3.84778 9.53218L3.62532 9.32455L3.79906 9.16353L4.08295 9.42836L4.67829 8.87963L4.08295 8.33091L3.79906 8.59574L3.62532 8.43472L3.84778 8.22709L3.58931 7.98557L3.71219 7.87116L3.12109 7.32031L3.12115 7.32031ZM3.12115 8.46227V9.29701L3.24827 9.16989V8.98557H3.4114L3.51734 8.87964L3.4114 8.77371H3.24827V8.58939L3.12115 8.46227ZM4.1847 8.7843L4.16988 8.87116L4.1847 8.95803L4.27792 8.87116L4.1847 8.7843Z" fill="#FFC72C"/>
<path d="M3.12109 11.8066V12.0418L3.4855 12.3829L3.36261 12.4973L3.62321 12.7388L3.5088 12.8427V12.6922H3.28634V12.8723L3.78846 13.3427H4.0427L4.07024 13.1774H3.92405L4.08295 13.0291L4.48125 13.3914L4.08295 13.7558L3.92405 13.6075H4.07024L4.0427 13.4401H3.78846L3.28634 13.9105V14.0905H3.5088V13.9401L3.62321 14.0439L3.36261 14.2855L3.4855 14.402L3.12109 14.741V14.9761L3.73761 14.402L3.61473 14.2855L3.87321 14.0439L3.65075 13.8363L3.79906 13.7007L4.08295 13.9634L4.70584 13.3914L4.08295 12.8194L3.79906 13.0842L3.65075 12.9465L3.87321 12.7389L3.61473 12.4973L3.73761 12.3829L3.12109 11.8066ZM3.12109 12.9486V13.8342L3.26516 13.688V13.5164H3.4177L3.54058 13.3914L3.4177 13.2685H3.26516V13.0948L3.12109 12.9486ZM4.17194 13.2622L4.15075 13.3829L4.17194 13.5058L4.30329 13.3829L4.17194 13.2622Z" fill="#383739"/>
<path d="M3.12115 11.832V12.0185L3.51098 12.3829L3.38809 12.4973L3.64869 12.7388L3.49191 12.885V12.7092H3.30335V12.8659L3.797 13.3257H4.02581L4.04911 13.1943H3.87962L4.08301 13.0036L4.50674 13.3914L4.08301 13.7791L3.87962 13.5905H4.04911L4.02575 13.457H3.79694L3.30329 13.9168V14.0736H3.49185V13.8977L3.64863 14.0439L3.38804 14.2854L3.51092 14.4019L3.12109 14.7642V14.9507L3.71219 14.4019L3.58931 14.2854L3.84778 14.0439L3.62532 13.8363L3.79906 13.6753L4.08295 13.9401L4.67829 13.3914L4.08295 12.8426L3.79906 13.1075L3.62532 12.9464L3.84778 12.7388L3.58931 12.4973L3.71219 12.3829L3.12109 11.832L3.12115 11.832ZM3.12115 12.974V13.8087L3.24827 13.6816V13.4973H3.4114L3.51734 13.3914L3.4114 13.2854H3.24827V13.1011L3.12115 12.974ZM4.1847 13.296L4.16988 13.3829L4.1847 13.4697L4.27792 13.3829L4.1847 13.296Z" fill="#FFC72C"/>
<path d="M3.12109 16.3184V16.5535L3.4855 16.8946L3.36261 17.009L3.62321 17.2506L3.5088 17.3544V17.204H3.28634V17.384L3.78846 17.8544H4.0427L4.07024 17.6891H3.92405L4.08295 17.5408L4.48125 17.9031L4.08295 18.2675L3.92405 18.1192H4.07024L4.0427 17.9518H3.78846L3.28634 18.4222V18.6023H3.5088V18.4518L3.62321 18.5557L3.36261 18.7972L3.4855 18.9137L3.12109 19.2527V19.4879L3.73761 18.9137L3.61473 18.7972L3.87321 18.5557L3.65075 18.348L3.79906 18.2124L4.08295 18.4751L4.70584 17.9031L4.08295 17.3311L3.79906 17.5959L3.65075 17.4582L3.87321 17.2506L3.61473 17.009L3.73761 16.8946L3.12109 16.3184ZM3.12109 17.4603V18.3459L3.26516 18.1997V18.0281H3.4177L3.54058 17.9031L3.4177 17.7802H3.26516V17.6065L3.12109 17.4603ZM4.17194 17.7739L4.15075 17.8946L4.17194 18.0175L4.30329 17.8946L4.17194 17.7739Z" fill="#383739"/>
<path d="M3.12115 16.3438V16.5302L3.51098 16.8946L3.38809 17.009L3.64869 17.2505L3.49191 17.3967V17.2209H3.30335V17.3777L3.797 17.8374H4.02581L4.04911 17.706H3.87962L4.08301 17.5154L4.50674 17.9031L4.08301 18.2908L3.87962 18.1022H4.04911L4.02575 17.9688H3.79694L3.30329 18.4285V18.5853H3.49185V18.4094L3.64863 18.5556L3.38804 18.7971L3.51092 18.9137L3.12109 19.276V19.4624L3.71219 18.9137L3.58931 18.7971L3.84778 18.5556L3.62532 18.348L3.79906 18.187L4.08295 18.4518L4.67829 17.9031L4.08295 17.3543L3.79906 17.6192L3.62532 17.4582L3.84778 17.2505L3.58931 17.009L3.71219 16.8946L3.12109 16.3438L3.12115 16.3438ZM3.12115 17.4857V18.3204L3.24827 18.1933V18.009H3.4114L3.51734 17.9031L3.4114 17.7971H3.24827V17.6128L3.12115 17.4857ZM4.1847 17.8077L4.16988 17.8946L4.1847 17.9815L4.27792 17.8946L4.1847 17.8077Z" fill="#FFC72C"/>
<path d="M9.60156 -1.58594V-1.35076L9.23716 -1.00967L9.36004 -0.895259L9.09945 -0.653734L9.21385 -0.54992V-0.700344H9.43632V-0.520259L8.9342 -0.0499191H8.67996L8.65241 -0.215173H8.7986L8.63971 -0.363479L8.2414 -0.00119066L8.63971 0.363216L8.7986 0.214911H8.65241L8.67996 0.0475382H8.9342L9.43632 0.517882V0.697967H9.21385V0.547543L9.09945 0.651357L9.36004 0.892883L9.23716 1.0094L9.60156 1.34839V1.58356L8.98504 1.0094L9.10792 0.892883L8.84945 0.651357L9.07191 0.44373L8.9236 0.308137L8.63971 0.570848L8.01682 -0.00118351L8.63971 -0.573215L8.9236 -0.308385L9.07191 -0.446097L8.84945 -0.653724L9.10792 -0.89525L8.98504 -1.00966L9.60156 -1.58594ZM9.60156 -0.443985V0.441606L9.45749 0.29542V0.123813H9.30495L9.18208 -0.00118744L9.30495 -0.124069H9.45749V-0.297798L9.60156 -0.443985ZM8.55071 -0.130426L8.57191 -0.00966358L8.55071 0.113218L8.41937 -0.00966358L8.55071 -0.130426Z" fill="#383739"/>
<path d="M9.6015 -1.56054V-1.3741L9.21167 -1.0097L9.33456 -0.89529L9.07397 -0.653765L9.23074 -0.507578V-0.683426H9.41931V-0.526646L8.92566 -0.0669024H8.69685L8.67354 -0.198258H8.84304L8.63965 -0.388936L8.21592 -0.0012244L8.63965 0.386488L8.84304 0.197928H8.67354L8.6969 0.064454H8.92572L9.41937 0.524198V0.680978H9.2308V0.50513L9.07402 0.651316L9.33462 0.892842L9.21173 1.00936L9.60156 1.37166V1.5581L9.01047 1.00936L9.13335 0.892843L8.87487 0.651317L9.09733 0.44369L8.9236 0.282673L8.63971 0.547503L8.04436 -0.00122488L8.63971 -0.549953L8.9236 -0.285122L9.09733 -0.446139L8.87487 -0.653767L9.13335 -0.895292L9.01047 -1.0097L9.60156 -1.56055L9.6015 -1.56054ZM9.6015 -0.418593V0.416151L9.47439 0.289032V0.104713H9.31125L9.20532 -0.00121927L9.31125 -0.107152H9.47439V-0.291474L9.6015 -0.418593ZM8.53795 -0.0965589L8.55278 -0.00969446L8.53795 0.07717L8.44473 -0.00969446L8.53795 -0.0965589Z" fill="#FFC72C"/>
<path d="M9.60156 2.7832V3.01838L9.23716 3.35947L9.36004 3.47388L9.09945 3.71541L9.21385 3.81922V3.6688H9.43632V3.84888L8.9342 4.31922H8.67996L8.65241 4.15397H8.7986L8.63971 4.00566L8.2414 4.36795L8.63971 4.73236L8.7986 4.58405H8.65241L8.67996 4.41668H8.9342L9.43632 4.88702V5.06711H9.21385V4.91668L9.09945 5.0205L9.36004 5.26202L9.23716 5.37855L9.60156 5.71753V5.9527L8.98504 5.37855L9.10792 5.26202L8.84945 5.0205L9.07191 4.81287L8.9236 4.67728L8.63971 4.93999L8.01682 4.36796L8.63971 3.79593L8.9236 4.06076L9.07191 3.92304L8.84945 3.71542L9.10792 3.47389L8.98504 3.35948L9.60156 2.7832ZM9.60156 3.92516V4.81075L9.45749 4.66456V4.49295H9.30495L9.18208 4.36795L9.30495 4.24507H9.45749V4.07134L9.60156 3.92516ZM8.55071 4.23871L8.57191 4.35948L8.55071 4.48236L8.41937 4.35948L8.55071 4.23871Z" fill="#383739"/>
<path d="M9.6015 2.8086V2.99504L9.21167 3.35944L9.33456 3.47385L9.07397 3.71538L9.23074 3.86156V3.68571H9.41931V3.84249L8.92566 4.30224H8.69685L8.67354 4.17088H8.84304L8.63965 3.9802L8.21592 4.36792L8.63965 4.75563L8.84304 4.56707H8.67354L8.6969 4.43359H8.92572L9.41937 4.89334V5.05012H9.2308V4.87427L9.07402 5.02046L9.33462 5.26198L9.21173 5.3785L9.60156 5.7408V5.92724L9.01047 5.37851L9.13335 5.26198L8.87487 5.02046L9.09733 4.81283L8.9236 4.65181L8.63971 4.91664L8.04436 4.36792L8.63971 3.81919L8.9236 4.08402L9.09733 3.923L8.87487 3.71537L9.13335 3.47385L9.01047 3.35944L9.60156 2.80859L9.6015 2.8086ZM9.6015 3.95055V4.78529L9.47439 4.65817V4.47385H9.31125L9.20532 4.36792L9.31125 4.26199H9.47439V4.07767L9.6015 3.95055ZM8.53795 4.27258L8.55278 4.35945L8.53795 4.44631L8.44473 4.35945L8.53795 4.27258Z" fill="#FFC72C"/>
<path d="M9.60156 7.29492V7.53009L9.23716 7.87119L9.36004 7.9856L9.09945 8.22713L9.21385 8.33094V8.18052H9.43632V8.3606L8.9342 8.83094H8.67996L8.65241 8.66569H8.7986L8.63971 8.51738L8.2414 8.87967L8.63971 9.24408L8.7986 9.09577H8.65241L8.67996 8.9284H8.9342L9.43632 9.39874V9.57883H9.21385V9.4284L9.09945 9.53222L9.36004 9.77374L9.23716 9.89026L9.60156 10.2292V10.4644L8.98504 9.89026L9.10792 9.77374L8.84945 9.53222L9.07191 9.32459L8.9236 9.189L8.63971 9.45171L8.01682 8.87968L8.63971 8.30764L8.9236 8.57247L9.07191 8.43476L8.84945 8.22714L9.10792 7.98561L8.98504 7.8712L9.60156 7.29492ZM9.60156 8.43687V9.32247L9.45749 9.17628V9.00467H9.30495L9.18208 8.87967L9.30495 8.75679H9.45749V8.58306L9.60156 8.43687ZM8.55071 8.75043L8.57191 8.8712L8.55071 8.99408L8.41937 8.8712L8.55071 8.75043Z" fill="#383739"/>
<path d="M9.6015 7.32031V7.50676L9.21167 7.87116L9.33456 7.98557L9.07397 8.22709L9.23074 8.37328V8.19743H9.41931V8.35421L8.92566 8.81396H8.69685L8.67354 8.6826H8.84304L8.63965 8.49192L8.21592 8.87963L8.63965 9.26735L8.84304 9.07879H8.67354L8.6969 8.94531H8.92572L9.41937 9.40506V9.56184H9.2308V9.38599L9.07402 9.53218L9.33462 9.7737L9.21173 9.89022L9.60156 10.2525V10.439L9.01047 9.89022L9.13335 9.7737L8.87487 9.53218L9.09733 9.32455L8.9236 9.16353L8.63971 9.42836L8.04436 8.87963L8.63971 8.33091L8.9236 8.59574L9.09733 8.43472L8.87487 8.22709L9.13335 7.98557L9.01047 7.87116L9.60156 7.32031L9.6015 7.32031ZM9.6015 8.46227V9.29701L9.47439 9.16989V8.98557H9.31125L9.20532 8.87964L9.31125 8.77371H9.47439V8.58939L9.6015 8.46227ZM8.53795 8.7843L8.55278 8.87116L8.53795 8.95803L8.44473 8.87116L8.53795 8.7843Z" fill="#FFC72C"/>
<path d="M9.60156 11.8066V12.0418L9.23716 12.3829L9.36004 12.4973L9.09945 12.7388L9.21385 12.8427V12.6922H9.43632V12.8723L8.9342 13.3427H8.67996L8.65241 13.1774H8.7986L8.63971 13.0291L8.2414 13.3914L8.63971 13.7558L8.7986 13.6075H8.65241L8.67996 13.4401H8.9342L9.43632 13.9105V14.0905H9.21385V13.9401L9.09945 14.0439L9.36004 14.2855L9.23716 14.402L9.60156 14.741V14.9761L8.98504 14.402L9.10792 14.2855L8.84945 14.0439L9.07191 13.8363L8.9236 13.7007L8.63971 13.9634L8.01682 13.3914L8.63971 12.8194L8.9236 13.0842L9.07191 12.9465L8.84945 12.7389L9.10792 12.4973L8.98504 12.3829L9.60156 11.8066ZM9.60156 12.9486V13.8342L9.45749 13.688V13.5164H9.30495L9.18208 13.3914L9.30495 13.2685H9.45749V13.0948L9.60156 12.9486ZM8.55071 13.2622L8.57191 13.3829L8.55071 13.5058L8.41937 13.3829L8.55071 13.2622Z" fill="#383739"/>
<path d="M9.6015 11.832V12.0185L9.21167 12.3829L9.33456 12.4973L9.07397 12.7388L9.23074 12.885V12.7092H9.41931V12.8659L8.92566 13.3257H8.69685L8.67354 13.1943H8.84304L8.63965 13.0036L8.21592 13.3914L8.63965 13.7791L8.84304 13.5905H8.67354L8.6969 13.457H8.92572L9.41937 13.9168V14.0736H9.2308V13.8977L9.07402 14.0439L9.33462 14.2854L9.21173 14.4019L9.60156 14.7642V14.9507L9.01047 14.4019L9.13335 14.2854L8.87487 14.0439L9.09733 13.8363L8.9236 13.6753L8.63971 13.9401L8.04436 13.3914L8.63971 12.8426L8.9236 13.1075L9.09733 12.9464L8.87487 12.7388L9.13335 12.4973L9.01047 12.3829L9.60156 11.832L9.6015 11.832ZM9.6015 12.974V13.8087L9.47439 13.6816V13.4973H9.31125L9.20532 13.3914L9.31125 13.2854H9.47439V13.1011L9.6015 12.974ZM8.53795 13.296L8.55278 13.3829L8.53795 13.4697L8.44473 13.3829L8.53795 13.296Z" fill="#FFC72C"/>
<path d="M9.60156 16.3184V16.5535L9.23716 16.8946L9.36004 17.009L9.09945 17.2506L9.21385 17.3544V17.204H9.43632V17.384L8.9342 17.8544H8.67996L8.65241 17.6891H8.7986L8.63971 17.5408L8.2414 17.9031L8.63971 18.2675L8.7986 18.1192H8.65241L8.67996 17.9518H8.9342L9.43632 18.4222V18.6023H9.21385V18.4518L9.09945 18.5557L9.36004 18.7972L9.23716 18.9137L9.60156 19.2527V19.4879L8.98504 18.9137L9.10792 18.7972L8.84945 18.5557L9.07191 18.348L8.9236 18.2124L8.63971 18.4751L8.01682 17.9031L8.63971 17.3311L8.9236 17.5959L9.07191 17.4582L8.84945 17.2506L9.10792 17.009L8.98504 16.8946L9.60156 16.3184ZM9.60156 17.4603V18.3459L9.45749 18.1997V18.0281H9.30495L9.18208 17.9031L9.30495 17.7802H9.45749V17.6065L9.60156 17.4603ZM8.55071 17.7739L8.57191 17.8946L8.55071 18.0175L8.41937 17.8946L8.55071 17.7739Z" fill="#383739"/>
<path d="M9.6015 16.3438V16.5302L9.21167 16.8946L9.33456 17.009L9.07397 17.2505L9.23074 17.3967V17.2209H9.41931V17.3777L8.92566 17.8374H8.69685L8.67354 17.706H8.84304L8.63965 17.5154L8.21592 17.9031L8.63965 18.2908L8.84304 18.1022H8.67354L8.6969 17.9688H8.92572L9.41937 18.4285V18.5853H9.2308V18.4094L9.07402 18.5556L9.33462 18.7971L9.21173 18.9137L9.60156 19.276V19.4624L9.01047 18.9137L9.13335 18.7971L8.87487 18.5556L9.09733 18.348L8.9236 18.187L8.63971 18.4518L8.04436 17.9031L8.63971 17.3543L8.9236 17.6192L9.09733 17.4582L8.87487 17.2505L9.13335 17.009L9.01047 16.8946L9.60156 16.3438L9.6015 16.3438ZM9.6015 17.4857V18.3204L9.47439 18.1933V18.009H9.31125L9.20532 17.9031L9.31125 17.7971H9.47439V17.6128L9.6015 17.4857ZM8.53795 17.8077L8.55278 17.8946L8.53795 17.9815L8.44473 17.8946L8.53795 17.8077Z" fill="#FFC72C"/>
<path d="M3.64669 21.233C3.67866 21.3693 3.78702 21.4721 3.81285 21.6135C3.86454 21.4661 3.91221 21.3425 3.87661 21.1813C3.85115 21.066 3.75414 20.9837 3.74291 20.8652C3.63714 20.9603 3.61437 21.0952 3.64669 21.233ZM3.61988 21.804C3.7096 21.927 3.8343 22.0214 3.97201 22.0843C3.94489 21.9765 3.99577 21.8954 4.05225 21.8099C4.12029 21.7069 4.15345 21.6058 4.09799 21.4872C4.07214 21.5489 4.03741 21.6 3.99666 21.6527C3.9364 21.735 3.89677 21.8081 3.88749 21.9135C3.81779 21.8619 3.78717 21.7847 3.74989 21.7101C3.69309 21.6032 3.6014 21.5138 3.49609 21.4554C3.52408 21.5753 3.54563 21.7021 3.61988 21.804ZM4.12302 22.1706C4.10385 22.2389 4.08731 22.3067 4.091 22.3781C4.03172 22.3142 3.95301 22.2661 3.88278 22.2147C3.78714 22.1373 3.67566 22.0828 3.59747 21.9843C3.60913 22.1292 3.67117 22.2474 3.78897 22.3356C3.91348 22.4288 4.06364 22.4789 4.18629 22.5768C4.16793 22.4449 4.21636 22.3393 4.25766 22.2181C4.29208 22.1023 4.25877 21.9848 4.18024 21.8965C4.18141 21.9943 4.15055 22.0783 4.12302 22.1706ZM4.40245 22.616C4.42825 22.716 4.49992 22.7973 4.54885 22.8865C4.4169 22.8456 4.30048 22.7741 4.1812 22.7067C4.03912 22.6294 3.88484 22.5801 3.75623 22.478C3.82024 22.7149 3.97888 22.8523 4.21096 22.9224C4.36964 22.9703 4.50337 22.9464 4.69592 23.0242C4.67384 22.8939 4.63494 22.7532 4.57331 22.6356C4.52548 22.5506 4.47244 22.4668 4.44289 22.3732C4.4001 22.4501 4.37984 22.5283 4.40245 22.616ZM4.888 22.9786C4.93343 23.0564 4.9934 23.1219 5.06778 23.1736C4.88046 23.1855 4.72972 23.0668 4.5471 23.0616C4.4343 23.0585 4.32721 23.0935 4.21218 23.083C4.34869 23.1751 4.49161 23.2555 4.65781 23.277C4.87386 23.305 5.07311 23.2506 5.31145 23.2719C5.20007 23.1933 5.14434 23.088 5.07491 22.9749C4.9845 22.8336 4.89918 22.7329 4.72333 22.7102C4.79392 22.7895 4.835 22.8878 4.888 22.9786ZM5.55325 23.2895C5.22325 23.3456 4.90703 23.4182 4.57 23.4215C4.94725 23.553 5.30272 23.5768 5.67688 23.441C5.87908 23.3676 6.03412 23.3284 6.18683 23.3393C6.41 23.3553 6.68123 23.4434 6.9814 23.76L7.09938 23.6656C6.66916 23.2822 6.10627 23.1954 5.55327 23.2895L5.55325 23.2895Z" fill="#FFC72C"/>
<path d="M3.9294 2.81327L3.41016 2.49486V1.72946L3.9294 1.41105V1.00605L4.42008 0.71056H4.81209L5.55799 0.291016H7.15932L7.90524 0.71056H8.29725L8.78793 1.00605V1.41105L9.30717 1.72946L9.30715 2.49486L8.78793 2.81327V3.21827L8.29725 3.51376H7.90524L7.15932 3.9333H5.55799L4.81209 3.51376H4.42008L3.9294 3.21827V2.81327Z" fill="#383739"/>
<path d="M5.56316 0.308594L4.8174 0.728086H4.42757L3.94876 1.01622V1.42088L3.42969 1.73868V2.48444L3.94876 2.80224V3.20902L4.42545 3.49715H4.8174L5.56316 3.91664H7.15638L7.90214 3.49715H8.29409L8.77291 3.20902V2.80224L9.29198 2.48444V1.73868L8.77291 1.42088V1.01622L8.29409 0.728086H7.90214L7.15638 0.308594H5.56316ZM5.60765 0.463255H7.11401L7.85977 0.882747H8.2496L8.61189 1.10097V1.50563L9.13307 1.82342V2.3997L8.61189 2.71749V3.12215L8.2496 3.34037H7.85977L7.11401 3.75987H5.60765L4.86189 3.34037H4.47206L4.10766 3.12215V2.71749L3.58859 2.3997V1.82342L4.10766 1.50563V1.10097L4.47206 0.882747H4.86189L5.60765 0.463255Z" fill="#00843D"/>
<path d="M6.35152 2.12081V0.480469H5.61129L4.86535 0.900013H4.47648L4.12468 1.11186V1.51588L3.60547 1.83426V2.10368L6.3687 2.10366V3.74404H7.10893L7.85485 3.32449H8.24374L8.59551 3.11265V2.70865L9.11475 2.39025V2.12082L6.35152 2.12081Z" fill="#FFC72C"/>
<path d="M3.60549 2.12082L3.60547 2.39025L4.12471 2.70865V3.11265L4.47648 3.32449H4.86537L5.61129 3.74404H6.35155V2.10366L9.11478 2.10368V1.83426L8.59554 1.51588V1.11186L8.24377 0.900013H7.85487L7.10895 0.480469H6.36872V2.12081L3.60549 2.12082Z" fill="white"/>
<path d="M4.73614 1.05078L4.60832 0.931641L4.48167 1.00974L4.60971 1.12911L4.44531 1.23097H4.80406L5.11323 1.52259L5.21214 1.41815L4.91154 1.13458V0.942105L4.73614 1.05078Z" fill="#383739"/>
<path d="M5.34161 0.998042L5.21379 0.878906L5.08714 0.957002L5.21518 1.07638L5.05078 1.17823H5.40953L5.7187 1.46986L5.8176 1.36541L5.51701 1.08185V0.88937L5.34161 0.998042Z" fill="#383739"/>
<path d="M4.69315 1.39257L4.56533 1.27344L4.4387 1.35153L4.56672 1.47091L4.40234 1.57277H4.76109L5.07024 1.86439L5.16914 1.75994L4.86854 1.47638V1.2839L4.69315 1.39257Z" fill="#383739"/>
<path d="M6.36031 0.462891H6.03659L5.86719 0.626139H5.53698L5.29297 0.752787L5.34987 0.891435L5.56748 0.777147H5.66279L5.99643 1.16302L6.36032 0.941427L6.36031 0.462891Z" fill="#383739"/>
<path d="M4.60854 0.953125L4.7234 1.06019L4.62716 1.11981L4.51213 1.01257L4.60854 0.953125ZM4.89676 0.972925V1.142L5.19025 1.41887L5.11489 1.49845L4.81324 1.21389H4.50781L4.89676 0.972925Z" fill="#D22630"/>
<path d="M5.2101 0.900391L5.32497 1.00745L5.22873 1.06707L5.11372 0.959839L5.2101 0.900391ZM5.49832 0.920191V1.08927L5.79181 1.36613L5.71646 1.44572L5.4148 1.16117H5.10938L5.49832 0.920191Z" fill="#D22630"/>
<path d="M4.56169 1.29492L4.67653 1.40199L4.58029 1.4616L4.46528 1.35437L4.56169 1.29492ZM4.84988 1.31472V1.4838L5.14338 1.76067L5.06804 1.84025L4.76638 1.55571H4.46094L4.84988 1.31472Z" fill="#D22630"/>
<path d="M6.3495 0.480469H6.04126L5.87187 0.643717H5.53892L5.3125 0.761221L5.3563 0.867973L5.56097 0.760501H5.66837L5.99765 1.14133L6.3495 0.927085L6.3495 0.480469Z" fill="#D22630"/>
<path d="M4.73614 3.17188L4.60832 3.29102L4.48167 3.21292L4.60971 3.09354L4.44531 2.99169H4.80406L5.11323 2.70006L5.21214 2.80451L4.91154 3.08807V3.28055L4.73614 3.17188Z" fill="#383739"/>
<path d="M5.34161 3.22461L5.21379 3.34375L5.08714 3.26565L5.21518 3.14628L5.05078 3.04442H5.40953L5.7187 2.7528L5.8176 2.85725L5.51701 3.14081V3.33329L5.34161 3.22461Z" fill="#383739"/>
<path d="M4.69315 2.83008L4.56533 2.94922L4.4387 2.87112L4.56672 2.75175L4.40234 2.64989H4.76109L5.07024 2.35827L5.16914 2.46271L4.86854 2.74627V2.93875L4.69315 2.83008Z" fill="#383739"/>
<path d="M6.36031 3.75977H6.03659L5.86719 3.59652H5.53698L5.29297 3.46987L5.34987 3.33122L5.56748 3.44551H5.66279L5.99643 3.05964L6.36032 3.28123L6.36031 3.75977Z" fill="#383739"/>
<path d="M4.60854 3.26953L4.7234 3.16247L4.62716 3.10285L4.51213 3.21008L4.60854 3.26953ZM4.89676 3.24973V3.08065L5.19025 2.80379L5.11489 2.7242L4.81324 3.00877H4.50781L4.89676 3.24973Z" fill="#D22630"/>
<path d="M5.2101 3.32227L5.32497 3.2152L5.22873 3.15559L5.11372 3.26282L5.2101 3.32227ZM5.49832 3.30247V3.13339L5.79181 2.85652L5.71646 2.77694L5.4148 3.06148H5.10938L5.49832 3.30247Z" fill="#D22630"/>
<path d="M4.56169 2.92773L4.67653 2.82067L4.58029 2.76105L4.46528 2.86829L4.56169 2.92773ZM4.84988 2.90793V2.73885L5.14338 2.46199L5.06804 2.38241L4.76638 2.66695H4.46094L4.84988 2.90793Z" fill="#D22630"/>
<path d="M6.3495 3.74219H6.04126L5.87187 3.57894H5.53892L5.3125 3.46144L5.3563 3.35468L5.56097 3.46216H5.66837L5.99765 3.08132L6.3495 3.29557L6.3495 3.74219Z" fill="#D22630"/>
<path d="M4.52029 1.58697L4.36594 1.5293L4.36225 1.53186L4.16295 1.67015V1.70733L3.84375 2.11098L4.16295 2.51464V2.55184L4.36594 2.69267L4.52029 2.635L4.42609 2.57262V2.45394L4.46353 2.40916H4.63078V1.81281H4.46353L4.42609 1.76802V1.64934L4.52029 1.58697Z" fill="#383739"/>
<path d="M4.18168 1.67944L4.36994 1.54883L4.48442 1.5916L4.41055 1.64051V1.7746L4.45711 1.83028H4.61522V2.3924H4.45711L4.41055 2.44808V2.58217L4.48442 2.63108L4.36994 2.67385L4.18168 2.54324L4.18171 2.50904L3.86719 2.11134L4.18171 1.71361L4.18168 1.67944Z" fill="#D22630"/>
<path d="M7.98261 1.05078L8.11043 0.931641L8.23708 1.00974L8.10904 1.12911L8.27344 1.23097H7.91469L7.60552 1.52259L7.50661 1.41815L7.80721 1.13458V0.942105L7.98261 1.05078Z" fill="#383739"/>
<path d="M7.37714 0.998042L7.50496 0.878906L7.63161 0.957002L7.50357 1.07638L7.66797 1.17823H7.30922L7.00005 1.46986L6.90115 1.36541L7.20174 1.08185V0.88937L7.37714 0.998042Z" fill="#383739"/>
<path d="M8.0256 1.39257L8.15342 1.27344L8.28005 1.35153L8.15203 1.47091L8.31641 1.57277H7.95766L7.64851 1.86439L7.54961 1.75994L7.85021 1.47638V1.2839L8.0256 1.39257Z" fill="#383739"/>
<path d="M6.35844 0.462891H6.68216L6.85156 0.626139H7.18177L7.42578 0.752787L7.36888 0.891435L7.15127 0.777147H7.05596L6.72232 1.16302L6.35843 0.941427L6.35844 0.462891Z" fill="#383739"/>
<path d="M8.11021 0.953125L7.99535 1.06019L8.09159 1.11981L8.20662 1.01257L8.11021 0.953125ZM7.82199 0.972925V1.142L7.5285 1.41887L7.60386 1.49845L7.90551 1.21389H8.21094L7.82199 0.972925Z" fill="#D22630"/>
<path d="M7.50865 0.900391L7.39378 1.00745L7.49002 1.06707L7.60503 0.959839L7.50865 0.900391ZM7.22043 0.920191V1.08927L6.92694 1.36613L7.00229 1.44572L7.30395 1.16117H7.60938L7.22043 0.920191Z" fill="#D22630"/>
<path d="M8.15706 1.29492L8.04222 1.40199L8.13846 1.4616L8.25347 1.35437L8.15706 1.29492ZM7.86887 1.31472V1.4838L7.57537 1.76067L7.65071 1.84025L7.95237 1.55571H8.25781L7.86887 1.31472Z" fill="#D22630"/>
<path d="M6.36925 0.480469H6.67749L6.84688 0.643717H7.17983L7.40625 0.761221L7.36245 0.867973L7.15778 0.760501H7.05038L6.7211 1.14133L6.36925 0.927085L6.36925 0.480469Z" fill="#D22630"/>
<path d="M7.98261 3.17188L8.11043 3.29102L8.23708 3.21292L8.10904 3.09354L8.27344 2.99169H7.91469L7.60552 2.70006L7.50661 2.80451L7.80721 3.08807V3.28055L7.98261 3.17188Z" fill="#383739"/>
<path d="M7.37714 3.22461L7.50496 3.34375L7.63161 3.26565L7.50357 3.14628L7.66797 3.04442H7.30922L7.00005 2.7528L6.90115 2.85725L7.20174 3.14081V3.33329L7.37714 3.22461Z" fill="#383739"/>
<path d="M8.0256 2.83008L8.15342 2.94922L8.28005 2.87112L8.15203 2.75175L8.31641 2.64989H7.95766L7.64851 2.35827L7.54961 2.46271L7.85021 2.74627V2.93875L8.0256 2.83008Z" fill="#383739"/>
<path d="M6.35844 3.75977H6.68216L6.85156 3.59652H7.18177L7.42578 3.46987L7.36888 3.33122L7.15127 3.44551H7.05596L6.72232 3.05964L6.35843 3.28123L6.35844 3.75977Z" fill="#383739"/>
<path d="M8.11021 3.26953L7.99535 3.16247L8.09159 3.10285L8.20662 3.21008L8.11021 3.26953ZM7.82199 3.24973V3.08065L7.5285 2.80379L7.60386 2.7242L7.90551 3.00877H8.21094L7.82199 3.24973Z" fill="#D22630"/>
<path d="M7.50865 3.32227L7.39378 3.2152L7.49002 3.15559L7.60503 3.26282L7.50865 3.32227ZM7.22043 3.30247V3.13339L6.92694 2.85652L7.00229 2.77694L7.30395 3.06148H7.60938L7.22043 3.30247Z" fill="#D22630"/>
<path d="M8.15706 2.92773L8.04222 2.82067L8.13846 2.76105L8.25347 2.86829L8.15706 2.92773ZM7.86887 2.90793V2.73885L7.57537 2.46199L7.65071 2.38241L7.95237 2.66695H8.25781L7.86887 2.90793Z" fill="#D22630"/>
<path d="M6.36925 3.74219H6.67749L6.84688 3.57894H7.17983L7.40625 3.46144L7.36245 3.35468L7.15778 3.46216H7.05038L6.7211 3.08132L6.36925 3.29557L6.36925 3.74219Z" fill="#D22630"/>
<path d="M8.19846 1.58697L8.35281 1.5293L8.3565 1.53186L8.5558 1.67015V1.70733L8.875 2.11098L8.5558 2.51464V2.55184L8.35281 2.69267L8.19846 2.635L8.29266 2.57262V2.45394L8.25522 2.40916H8.08797V1.81281H8.25522L8.29266 1.76802V1.64934L8.19846 1.58697Z" fill="#383739"/>
<path d="M8.53707 1.67944L8.34881 1.54883L8.23433 1.5916L8.3082 1.64051V1.7746L8.26164 1.83028H8.10353V2.3924H8.26164L8.3082 2.44808V2.58217L8.23433 2.63108L8.34881 2.67385L8.53707 2.54324L8.53704 2.50904L8.85156 2.11134L8.53704 1.71361L8.53707 1.67944Z" fill="#D22630"/>
<path d="M4.2499 2.45062L4.16299 2.37543V2.33919L3.97656 2.11179L4.16302 1.88436V1.84815L4.24992 1.77295L4.40602 1.89989L4.31592 1.89919L4.44905 2.03431H4.75325L4.99248 1.84723V1.35387H5.59083L6.28572 0.927435V0.815595L6.17945 0.744771H6.14578L6.03005 0.822219L6.01212 0.879987L5.9216 0.756387L6.09754 0.608571H6.12567L6.32422 0.462891H6.39908L6.5976 0.608571H6.62576L6.8017 0.756387L6.71117 0.879987L6.69324 0.822219L6.57752 0.744771H6.54384L6.43757 0.815595V0.927435L7.13247 1.35387H7.73081V1.84723L7.97004 2.03431H8.27424L8.40737 1.89919L8.31728 1.89989L8.47337 1.77295L8.56028 1.84815V1.88436L8.74673 2.11179L8.56028 2.33919V2.37543L8.47337 2.45062L8.31728 2.32368L8.40737 2.32438L8.27424 2.18923H7.97004L7.73081 2.37634V2.86971H7.13247L6.43757 3.29614V3.40798L6.54384 3.4788H6.57752L6.69324 3.40135L6.71117 3.34359L6.8017 3.46716L6.62576 3.615H6.5976L6.39908 3.76068H6.32422L6.12567 3.615H6.09754L5.92157 3.46716L6.01212 3.34359L6.03005 3.40135L6.14576 3.4788H6.17943L6.28572 3.40798V3.29614L5.59083 2.86971H4.99248V2.37634L4.75323 2.18923H4.44905L4.31592 2.32438L4.40602 2.32368L4.2499 2.45062Z" fill="#383739"/>
<path d="M6.36841 3.49256L6.44447 3.55072L6.36841 3.60887V3.49256ZM6.12666 3.59833H6.12947L6.32802 3.74404H6.3512V3.63037L6.24704 3.55072L6.35123 3.47106V3.25756L5.60766 2.80124H5.05799V2.34275L4.77419 2.1208H4.34612L4.23853 2.24245L4.13094 2.1208L4.00391 2.12082L4.17829 2.33351V2.36804L4.24736 2.42804L4.35834 2.34164L4.2932 2.34215V2.32055L4.43835 2.17259H4.75731L5.0078 2.36848V2.85306H5.59386L6.30102 3.28703V3.41759L6.1828 3.49638H6.13871L6.01364 3.41267L6.00402 3.38161L5.94304 3.46484L6.10196 3.59833L6.12666 3.59833ZM4.23863 2.00792L4.32335 2.10368H4.15388L4.23863 2.00792ZM6.35125 0.615637L6.27524 0.673789L6.35125 0.731917V0.615637ZM8.39634 2.12082L8.48106 2.21658L8.56578 2.12082H8.39634ZM6.59017 0.626149L6.39162 0.480469H6.36843V0.594085L6.47264 0.673789L6.36841 0.753493V0.966949L7.11198 1.42326H7.66165V1.88176L7.94545 2.10371H8.37344L8.48106 1.98208L8.58868 2.10368H8.71573L8.54135 1.891V1.85646L8.47228 1.79646L8.3613 1.88286L8.42644 1.88233V1.90396L8.28128 2.05189H7.96232L7.71186 1.856V1.37144H7.12578L6.41862 0.937477V0.806893L6.53684 0.728125H6.58093L6.70599 0.811837L6.71562 0.842893L6.7766 0.759661L6.61768 0.626149L6.59017 0.626149Z" fill="#FFC72C"/>
<path d="M6.3512 3.60884L6.27519 3.55072L6.3512 3.49259V3.60884ZM4.3233 2.12082L4.23858 2.21658L4.15386 2.12082H4.3233ZM6.59293 3.59833H6.59012L6.39157 3.74404H6.36839V3.71428V3.63042L6.47259 3.55072L6.36836 3.47101V3.25756L7.11193 2.80124H7.6616V2.34275L7.9454 2.1208H8.37342L8.48101 2.24245L8.5886 2.1208L8.71568 2.12082L8.5413 2.33351V2.36804L8.47223 2.42804L8.36125 2.34164L8.42639 2.34215V2.32055L8.28124 2.17259H7.96228L7.71181 2.36848V2.85306H7.12573L6.41857 3.28703V3.41759L6.53679 3.49638H6.58088L6.70595 3.41267L6.71557 3.38161L6.77655 3.46484L6.61763 3.59833L6.59293 3.59833ZM8.48101 2.00792L8.39629 2.10368H8.56576L8.48101 2.00792ZM6.12947 0.626149L6.32802 0.480469H6.35123V0.594085L6.24699 0.673789L6.35123 0.753493L6.35125 0.966949L5.60766 1.42326H5.05801V1.88176L4.77419 2.10371H4.34607L4.23848 1.98208L4.13087 2.10368H4.00391L4.17831 1.891V1.85646L4.24739 1.79646L4.35834 1.88286L4.2932 1.88233V1.90396L4.43838 2.05189H4.75731L5.0078 1.856V1.37144H5.59386L6.30104 0.937477V0.806893L6.18282 0.728125H6.13871L6.01364 0.811837L6.00402 0.842893L5.94306 0.759661L6.10199 0.626149L6.12947 0.626149ZM6.36836 0.731941L6.44442 0.673789L6.36836 0.615637V0.731941Z" fill="white"/>
<path d="M6.35003 2.12208V0.988281L5.61129 1.44164H5.0739V1.89135L4.80078 2.10495L6.36719 2.10493V3.23874L7.10589 2.7854H7.64327V2.33569L7.91639 2.12209L6.35003 2.12208Z" fill="#00843D"/>
<path d="M4.80078 2.12207L5.07393 2.33567V2.78538H5.61129L6.35005 3.23874V2.1049L7.91641 2.10493L7.64329 1.89133V1.44162H7.10591L6.36721 0.988281V2.12205L4.80078 2.12207Z" fill="#D22630"/>
<path d="M5.56425 1.5625L5.43645 1.44336L5.3098 1.52143L5.43784 1.64081L5.27344 1.74266H5.63219L5.94136 2.03431L6.04026 1.92984L5.73966 1.64628V1.45382L5.56425 1.5625Z" fill="#383739"/>
<path d="M7.15568 2.66322L7.2835 2.78236L7.41013 2.70426L7.28211 2.58489L7.44651 2.48306H7.08774L6.77859 2.19141L6.67969 2.29585L6.98029 2.57944V2.7719L7.15568 2.66322Z" fill="#383739"/>
<path d="M5.56425 2.66322L5.43642 2.78236L5.3098 2.70426L5.43781 2.58489L5.27344 2.48306H5.63219L5.94133 2.19141L6.04024 2.29585L5.73964 2.57944V2.7719L5.56425 2.66322Z" fill="#383739"/>
<path d="M7.15568 1.5625L7.2835 1.44336L7.41013 1.52143L7.28211 1.64081L7.44651 1.74266H7.08774L6.77859 2.03431L6.67969 1.92984L6.98029 1.64628V1.45382L7.15568 1.5625Z" fill="#383739"/>
<path d="M7.28673 2.7601L7.17189 2.65304L7.26813 2.59342L7.38314 2.70066L7.28673 2.7601ZM6.99854 2.7403V2.57125L6.70504 2.29438L6.7804 2.21478L7.08206 2.49934H7.38748L6.99854 2.7403ZM5.43667 1.46484L5.55153 1.57191L5.45527 1.63155L5.34026 1.52432L5.43667 1.46484ZM5.72488 1.48467V1.65372L6.01838 1.93059L5.94302 2.0102L5.64136 1.72563H5.33594L5.72488 1.48467Z" fill="#D22630"/>
<path d="M7.28675 1.46484L7.17191 1.57191L7.26815 1.63155L7.38316 1.52432L7.28675 1.46484ZM6.99856 1.48467V1.65372L6.70506 1.93059L6.78042 2.0102L7.08208 1.72563H7.38751L6.99856 1.48467ZM5.43669 2.7601L5.55153 2.65304L5.45529 2.59342L5.34028 2.70066L5.43669 2.7601ZM5.72488 2.7403V2.57125L6.01838 2.29438L5.94304 2.21478L5.64138 2.49934H5.33594L5.72488 2.7403Z" fill="#00843D"/>
<path d="M7.15513 2.11147L6.36077 2.64088L5.56641 2.11147L6.36077 1.58203L7.15513 2.11147Z" fill="#383739"/>
<path d="M6.35146 1.60938L5.6094 2.10394H7.11067L6.36862 1.60938V2.61565L7.1107 2.12108H5.60938L6.35146 2.61565V1.60938Z" fill="white"/>
<path d="M6.57086 2.29484V2.4404H6.14604V2.29484H5.87109V1.93072H6.14604V1.78516H6.57086V1.93072H6.84578V2.29484H6.57086Z" fill="#383739"/>
<path d="M6.16555 1.80274V1.9483H5.89063V2.10468H6.35224V1.80273L6.16555 1.80274ZM6.3694 2.10468H6.83102V1.9483H6.5561V1.80274H6.3694L6.3694 2.10468ZM5.89062 2.12182V2.2782H6.16555V2.42376H6.35224V2.12182L5.89062 2.12182ZM6.3694 2.42376H6.5561V2.2782H6.83102V2.12182H6.3694V2.42376Z" fill="#D22630"/>
<path d="M7.71599 8.14438V7.91117H8.35552V7.67797H8.99504V5.57072H8.35552V5.33751H7.71599V5.1043H7.07646V4.87109H5.64517V5.1043H5.00564V5.33751H4.36609V5.57072H3.72656V7.67797H4.36609V7.91117H5.00564V8.14438H5.64517V8.37759H7.07646V8.14438H7.71599Z" fill="#383739"/>
<path d="M5.6617 4.88672V5.11976H5.02185V5.35282H4.38202V5.58586H3.74219V7.66002H4.38202V7.89311H5.02185V8.12612H5.6617V8.35914H7.05784V8.12612H7.6977V7.89311H8.33756V7.66002H8.97736V5.58586H8.33756V5.35282H7.6977V5.11976H7.05784V4.88672H5.6617ZM5.83119 5.05621H6.88834V5.28925H7.52821V5.52231H8.16807V5.75536H8.80787V7.49053H8.16807V7.72361H7.52821V7.95663H6.88834V8.18965H5.83119V7.95663H5.19134V7.72361H4.55152V7.49053H3.91168V5.75536H4.55152V5.52231H5.19134V5.28925H5.83119V5.05621Z" fill="#FFC72C"/>
<path d="M5.20877 7.94025V7.70702H4.56924V7.47383H3.92969V5.77382H4.56924V5.54061H5.20877V5.3074H5.8483V5.07422H6.87233V5.3074H7.51188V5.54061H8.15138V5.77382H8.79094V7.47383H8.15138V7.70702H7.51188V7.94025H6.87233V8.17343H5.8483V7.94025H5.20877Z" fill="#D22630"/>
<path d="M5.35775 5.48031L5.19211 5.3551V5.59553L5.03349 5.69633L5.03308 5.54583L4.88095 5.68248L4.72881 5.54583L4.7284 5.69633L4.55263 5.58464V5.80755L4.41057 5.91039L4.41017 5.77371L4.2414 5.89594L4.07263 5.77371L4.07224 5.91039L3.91304 5.79514V6.4704H3.72656V6.77777H3.91304V7.45304L4.07224 7.33776L4.07263 7.47447L4.2414 7.35224L4.41015 7.47447L4.41055 7.33776L4.55261 7.4406V7.66354L4.72839 7.55184L4.7288 7.70235L4.88093 7.56569L5.03307 7.70235L5.03347 7.55184L5.19209 7.65262V7.89308L5.35774 7.76787L5.3581 7.9358L5.52043 7.79062L5.68279 7.9358L5.68315 7.76787L5.83167 7.88012V8.13656L6.05371 7.93416V8.172L6.36082 7.97456L6.66795 8.172V7.93416L6.88999 8.13656V7.88012L7.03848 7.76787L7.03884 7.9358L7.2012 7.79062L7.36356 7.9358L7.36392 7.76787L7.52952 7.89308V7.65262L7.68819 7.55184L7.68859 7.70235L7.84075 7.56569L7.99288 7.70235L7.99328 7.55184L8.16908 7.66354V7.4406L8.31114 7.33776L8.31154 7.47447L8.48028 7.35224L8.64905 7.47447L8.64945 7.33776L8.80864 7.45301V6.77777H8.99512V6.4704H8.80864V5.79514L8.64945 5.91039L8.64905 5.77371L8.48028 5.89594L8.31151 5.77371L8.31115 5.91039L8.1691 5.80755V5.58464L7.9933 5.69633L7.9929 5.54583L7.84076 5.68248L7.6886 5.54583L7.6882 5.69633L7.52954 5.59551V5.3551L7.36394 5.48028L7.36358 5.31236L7.20122 5.45756L7.03886 5.31236L7.0385 5.48031L6.89001 5.36801V5.11162L6.66796 5.31401V5.07617L6.36083 5.27362L6.05373 5.07617V5.31401L5.83168 5.11162V5.36804L5.68317 5.48031L5.68281 5.31236L5.52045 5.45756L5.35811 5.31236L5.35775 5.48031Z" fill="#383739"/>
<path d="M4.08779 5.9453L4.08819 5.80859L4.23989 5.91849L4.245 5.91477L4.3916 5.80859L4.392 5.9453L4.55112 5.83012V7.42084L4.392 7.30567L4.3916 7.44237L4.23989 7.33247L4.08819 7.44237L4.08779 7.30567L3.92867 7.42084V6.76202H3.74219V6.48895H3.92867V5.83012L4.08779 5.9453Z" fill="#00843D"/>
<path d="M5.3729 5.35156L5.5182 5.4815L5.6635 5.35156L5.66386 5.51565L5.82941 5.39049V7.85959L5.66386 7.73443L5.6635 7.89851L5.5182 7.76858L5.3729 7.89851L5.37258 7.73443L5.20703 7.85959V5.39049L5.37258 5.51565L5.3729 5.35156Z" fill="#00843D"/>
<path d="M7.34711 5.35156L7.20181 5.4815L7.05651 5.35156L7.05615 5.51565L6.89062 5.39049V7.85959L7.05615 7.73443L7.05651 7.89851L7.20181 7.76858L7.34711 7.89851L7.34747 7.73443L7.51302 7.85959V5.39049L7.34747 5.51565L7.34711 5.35156Z" fill="#00843D"/>
<path d="M8.6313 5.9453L8.6309 5.80859L8.47919 5.91849L8.47406 5.91477L8.32746 5.80859L8.32706 5.9453L8.16797 5.83012V7.42084L8.32706 7.30567L8.32746 7.44237L8.47919 7.33247L8.6309 7.44237L8.6313 7.30567L8.79039 7.42084V6.76202H8.97687V6.48895H8.79039V5.83012L8.6313 5.9453Z" fill="#00843D"/>
<path d="M4.74251 5.58398L4.87761 5.70535L5.0127 5.58398L5.0131 5.72731L5.18881 5.61564V7.63214L5.0131 7.5205L5.0127 7.6638L4.87761 7.54246L4.74251 7.6638L4.74211 7.5205L4.56641 7.63214V5.61564L4.74211 5.72731L4.74251 5.58398Z" fill="#FFC72C"/>
<path d="M6.0658 5.35268L5.84375 5.15029V8.09758L6.0658 7.89519V8.14045L6.35574 7.95404H6.35579L6.64573 8.14045V7.89519L6.86778 8.09758V5.15029L6.64573 5.35268V5.10742L6.35579 5.29383H6.35574L6.0658 5.10742V5.35268Z" fill="#FFC72C"/>
<path d="M7.97365 5.58398L7.83855 5.70535L7.70343 5.58398L7.70307 5.72731L7.52734 5.61564V7.63214L7.70307 7.5205L7.70343 7.6638L7.83855 7.54246L7.97365 7.6638L7.97405 7.5205L8.14975 7.63214V5.61564L7.97405 5.72731L7.97365 5.58398Z" fill="#FFC72C"/>
<path d="M4.17165 6.33357C4.19107 6.35316 4.21427 6.36307 4.24063 6.36307C4.26695 6.36307 4.29016 6.35316 4.3096 6.33357C4.37035 6.27237 4.37239 6.16169 4.37179 6.08203C4.37179 6.08203 4.30156 6.15624 4.28889 6.16963C4.28006 6.15437 4.24063 6.08628 4.24063 6.08628C4.24063 6.08628 4.2012 6.15437 4.19234 6.16963C4.17967 6.15624 4.10944 6.08203 4.10944 6.08203C4.10884 6.16169 4.11091 6.27238 4.17165 6.33357Z" fill="#383739"/>
<path d="M4.84055 6.16261L4.78938 6.11149V6.00963L4.67188 6.11854L4.88192 6.32859L5.09197 6.11854L4.97447 6.00963V6.11149L4.92332 6.16261V5.98215L5.01392 5.90437L4.88192 5.79102L4.74992 5.90437L4.84055 5.98215V6.16261Z" fill="#383739"/>
<path d="M5.47724 5.95948L5.4261 5.90834V5.80648L5.30859 5.91539L5.51864 6.12544L5.72869 5.91539L5.61119 5.80648V5.90834L5.56002 5.95948V5.779L5.65064 5.70122L5.51864 5.58789L5.38664 5.70122L5.47724 5.779V5.95948Z" fill="#383739"/>
<path d="M4.23828 6.12109C4.24877 6.13919 4.28321 6.19869 4.28321 6.19869C4.28321 6.19869 4.33174 6.14737 4.35156 6.12647C4.34918 6.21642 4.32943 6.28749 4.29509 6.32207C4.27898 6.33829 4.25988 6.34653 4.23828 6.34653C4.21666 6.34653 4.19755 6.33829 4.18147 6.32209C4.14713 6.28749 4.12738 6.21642 4.125 6.12647C4.1448 6.1474 4.19333 6.19869 4.19333 6.19869C4.2083 6.17281 4.2233 6.14694 4.23828 6.12109Z" fill="white"/>
<path d="M5.54553 5.77198V6.00171L5.63097 5.9163V5.8466L5.70662 5.91673L5.52129 6.10206L5.33594 5.91673L5.41159 5.8466V5.9163L5.49703 6.00171V5.77198L5.41559 5.70207L5.52129 5.61133L5.62696 5.70207L5.54553 5.77198Z" fill="white"/>
<path d="M4.9049 5.97316V6.20288L4.99034 6.11744V6.04777L5.06599 6.11788L4.88064 6.30323L4.69531 6.11788L4.77096 6.04777V6.11744L4.8564 6.20288V5.97316L4.77497 5.90324L4.88064 5.8125L4.98634 5.90324L4.9049 5.97316Z" fill="#D22630"/>
<path d="M8.5471 6.33357C8.52768 6.35316 8.50448 6.36307 8.47812 6.36307C8.4518 6.36307 8.42859 6.35316 8.40915 6.33357C8.3484 6.27237 8.34636 6.16169 8.34696 6.08203C8.34696 6.08203 8.41719 6.15624 8.42986 6.16963C8.43869 6.15437 8.47812 6.08628 8.47812 6.08628C8.47812 6.08628 8.51755 6.15437 8.52641 6.16963C8.53908 6.15624 8.60931 6.08203 8.60931 6.08203C8.60991 6.16169 8.60784 6.27238 8.5471 6.33357Z" fill="#383739"/>
<path d="M7.8782 6.16261L7.92937 6.11149V6.00963L8.04688 6.11854L7.83683 6.32859L7.62678 6.11854L7.74428 6.00963V6.11149L7.79543 6.16261V5.98215L7.70483 5.90437L7.83683 5.79102L7.96883 5.90437L7.8782 5.98215V6.16261Z" fill="#383739"/>
<path d="M7.24151 5.95948L7.29265 5.90834V5.80648L7.41016 5.91539L7.20011 6.12544L6.99006 5.91539L7.10756 5.80648V5.90834L7.15873 5.95948V5.779L7.06811 5.70122L7.20011 5.58789L7.33211 5.70122L7.24151 5.779V5.95948Z" fill="#383739"/>
<path d="M8.48047 6.12109C8.46998 6.13919 8.43554 6.19869 8.43554 6.19869C8.43554 6.19869 8.38701 6.14737 8.36719 6.12647C8.36957 6.21642 8.38932 6.28749 8.42366 6.32207C8.43977 6.33829 8.45887 6.34653 8.48047 6.34653C8.50209 6.34653 8.5212 6.33829 8.53728 6.32209C8.57162 6.28749 8.59137 6.21642 8.59375 6.12647C8.57395 6.1474 8.52542 6.19869 8.52542 6.19869C8.51045 6.17281 8.49545 6.14694 8.48047 6.12109Z" fill="white"/>
<path d="M7.17713 5.77198V6.00171L7.09169 5.9163V5.8466L7.01604 5.91673L7.20137 6.10206L7.38672 5.91673L7.31107 5.8466V5.9163L7.22563 6.00171V5.77198L7.30706 5.70207L7.20137 5.61133L7.09569 5.70207L7.17713 5.77198Z" fill="white"/>
<path d="M7.81385 5.97316V6.20288L7.72841 6.11744V6.04777L7.65276 6.11788L7.83811 6.30323L8.02344 6.11788L7.94779 6.04777V6.11744L7.86235 6.20288V5.97316L7.94378 5.90324L7.83811 5.8125L7.73241 5.90324L7.81385 5.97316Z" fill="#D22630"/>
<path d="M6.61049 6.03673L6.54168 5.94164L6.71813 5.77875L6.55361 5.64358V5.73934L6.4848 5.79821V5.62453L6.64023 5.50997L6.35906 5.30273L6.0779 5.50997L6.23335 5.62453V5.79821L6.16454 5.73934V5.64358L6 5.77875L6.17647 5.94164L6.10766 6.03673H6.61049Z" fill="#383739"/>
<path d="M6.14247 6.01976L6.2005 5.93953L6.02734 5.77969L6.14862 5.68004V5.74741L6.25172 5.83563V5.61603L6.10803 5.51015L6.3603 5.32422L6.61256 5.51015L6.4689 5.61603V5.83563L6.57198 5.74741V5.68004L6.69327 5.77969L6.52011 5.93953L6.57817 6.01976H6.14247Z" fill="#D22630"/>
<path d="M6.23047 5.51072L6.35894 5.6054L6.48744 5.51072L6.35894 5.41602L6.35385 5.41978L6.23047 5.51072Z" fill="#383739"/>
<path d="M6.35739 5.4375C6.36588 5.44374 6.44196 5.49983 6.45699 5.51089C6.44196 5.52196 6.36588 5.57804 6.35739 5.58428C6.34892 5.57804 6.27281 5.52196 6.25781 5.51089C6.27281 5.49983 6.34892 5.44374 6.35739 5.4375Z" fill="#00843D"/>
<path d="M4.17165 6.91447C4.19107 6.89489 4.21427 6.88498 4.24063 6.88498C4.26695 6.88498 4.29016 6.89489 4.3096 6.91447C4.37035 6.97567 4.37239 7.08636 4.37179 7.16602C4.37179 7.16602 4.30156 7.09181 4.28889 7.07842C4.28006 7.09368 4.24063 7.16177 4.24063 7.16177C4.24063 7.16177 4.2012 7.09368 4.19234 7.07842C4.17967 7.09181 4.10944 7.16602 4.10944 7.16602C4.10884 7.08636 4.11091 6.97567 4.17165 6.91447Z" fill="#383739"/>
<path d="M4.84055 7.08544L4.78938 7.13656V7.23841L4.67188 7.1295L4.88192 6.91945L5.09197 7.1295L4.97447 7.23841V7.13656L4.92332 7.08544V7.2659L5.01392 7.34368L4.88192 7.45703L4.74992 7.34368L4.84055 7.2659V7.08544Z" fill="#383739"/>
<path d="M5.47724 7.28856L5.4261 7.33971V7.44156L5.30859 7.33265L5.51864 7.1226L5.72869 7.33265L5.61119 7.44156V7.33971L5.56002 7.28856V7.46904L5.65064 7.54683L5.51864 7.66016L5.38664 7.54683L5.47724 7.46904V7.28856Z" fill="#383739"/>
<path d="M4.23828 7.12695C4.24877 7.10886 4.28321 7.04936 4.28321 7.04936C4.28321 7.04936 4.33174 7.10067 4.35156 7.12158C4.34918 7.03163 4.32943 6.96056 4.29509 6.92598C4.27898 6.90975 4.25988 6.90152 4.23828 6.90152C4.21666 6.90152 4.19755 6.90975 4.18147 6.92595C4.14713 6.96056 4.12738 7.03163 4.125 7.12158C4.1448 7.10065 4.19333 7.04936 4.19333 7.04936C4.2083 7.07523 4.2233 7.10111 4.23828 7.12695Z" fill="white"/>
<path d="M5.54553 7.47606V7.24633L5.63097 7.33175V7.40145L5.70662 7.33132L5.52129 7.14599L5.33594 7.33132L5.41159 7.40145V7.33175L5.49703 7.24633V7.47606L5.41559 7.54597L5.52129 7.63672L5.62696 7.54597L5.54553 7.47606Z" fill="white"/>
<path d="M4.9049 7.27489V7.04516L4.99034 7.1306V7.20028L5.06599 7.13017L4.88064 6.94482L4.69531 7.13017L4.77096 7.20028V7.1306L4.8564 7.04516V7.27489L4.77497 7.3448L4.88064 7.43555L4.98634 7.3448L4.9049 7.27489Z" fill="#D22630"/>
<path d="M8.5471 6.91447C8.52768 6.89489 8.50448 6.88498 8.47812 6.88498C8.4518 6.88498 8.42859 6.89489 8.40915 6.91447C8.3484 6.97567 8.34636 7.08636 8.34696 7.16602C8.34696 7.16602 8.41719 7.09181 8.42986 7.07842C8.43869 7.09368 8.47812 7.16177 8.47812 7.16177C8.47812 7.16177 8.51755 7.09368 8.52641 7.07842C8.53908 7.09181 8.60931 7.16602 8.60931 7.16602C8.60991 7.08636 8.60784 6.97567 8.5471 6.91447Z" fill="#383739"/>
<path d="M7.8782 7.08544L7.92937 7.13656V7.23841L8.04688 7.1295L7.83683 6.91945L7.62678 7.1295L7.74428 7.23841V7.13656L7.79543 7.08544V7.2659L7.70483 7.34368L7.83683 7.45703L7.96883 7.34368L7.8782 7.2659V7.08544Z" fill="#383739"/>
<path d="M7.24151 7.28856L7.29265 7.33971V7.44156L7.41016 7.33265L7.20011 7.1226L6.99006 7.33265L7.10756 7.44156V7.33971L7.15873 7.28856V7.46904L7.06811 7.54683L7.20011 7.66016L7.33211 7.54683L7.24151 7.46904V7.28856Z" fill="#383739"/>
<path d="M8.48047 7.12695C8.46998 7.10886 8.43554 7.04936 8.43554 7.04936C8.43554 7.04936 8.38701 7.10067 8.36719 7.12158C8.36957 7.03163 8.38932 6.96056 8.42366 6.92598C8.43977 6.90975 8.45887 6.90152 8.48047 6.90152C8.50209 6.90152 8.5212 6.90975 8.53728 6.92595C8.57162 6.96056 8.59137 7.03163 8.59375 7.12158C8.57395 7.10065 8.52542 7.04936 8.52542 7.04936C8.51045 7.07523 8.49545 7.10111 8.48047 7.12695Z" fill="white"/>
<path d="M7.17713 7.47606V7.24633L7.09169 7.33175V7.40145L7.01604 7.33132L7.20137 7.14599L7.38672 7.33132L7.31107 7.40145V7.33175L7.22563 7.24633V7.47606L7.30706 7.54597L7.20137 7.63672L7.09569 7.54597L7.17713 7.47606Z" fill="white"/>
<path d="M7.81385 7.27489V7.04516L7.72841 7.1306V7.20028L7.65276 7.13017L7.83811 6.94482L8.02344 7.13017L7.94779 7.20028V7.1306L7.86235 7.04516V7.27489L7.94378 7.3448L7.83811 7.43555L7.73241 7.3448L7.81385 7.27489Z" fill="#D22630"/>
<path d="M6.61049 7.21132L6.54168 7.30641L6.71813 7.4693L6.55361 7.60446V7.5087L6.4848 7.44983V7.62352L6.64023 7.73807L6.35906 7.94531L6.0779 7.73807L6.23335 7.62352V7.44983L6.16454 7.5087V7.60446L6 7.4693L6.17647 7.30641L6.10766 7.21132H6.61049Z" fill="#383739"/>
<path d="M6.14247 7.22828L6.2005 7.30852L6.02734 7.46836L6.14862 7.568V7.50064L6.25172 7.41241V7.63201L6.10803 7.7379L6.3603 7.92383L6.61256 7.7379L6.4689 7.63201V7.41241L6.57198 7.50064V7.568L6.69327 7.46836L6.52011 7.30852L6.57817 7.22828H6.14247Z" fill="#D22630"/>
<path d="M6.23047 7.73733L6.35894 7.64265L6.48744 7.73733L6.35894 7.83203L6.35385 7.82826L6.23047 7.73733Z" fill="#383739"/>
<path d="M6.35739 7.81055C6.36588 7.80431 6.44196 7.74822 6.45699 7.73716C6.44196 7.72609 6.36588 7.67 6.35739 7.66376C6.34892 7.67 6.27281 7.72609 6.25781 7.73716C6.27281 7.74822 6.34892 7.80431 6.35739 7.81055Z" fill="#00843D"/>
<path d="M8.6344 6.52516H8.3529V6.41296H7.49248L6.89351 6.01953H6.89097H5.82292L5.22398 6.41296H4.36353V6.52516H4.08203V6.72187H4.36353V6.83407H5.22398L5.82292 7.22752H6.89351L7.49248 6.83407H8.3529V6.72187H8.6344V6.52516Z" fill="#383739"/>
<path d="M5.83037 6.03906L5.2308 6.43101H4.38334V6.5433H4.10156V6.70643H4.38334V6.81872H5.2308L5.83037 7.21279H6.89181L7.48927 6.81872H8.33884V6.70643H8.62062V6.5433H8.33884V6.43101H7.48927L6.89181 6.03906H5.83037ZM5.84309 6.09627H6.87699L7.42571 6.45643V6.51152H8.038V6.74033H7.42571V6.79542L6.87699 7.15347H5.84309L5.29648 6.79542V6.74033H4.68207V6.51152H5.29648V6.45643L5.84309 6.09627Z" fill="#D22630"/>
<path d="M6.87182 6.11328L7.40697 6.46462V6.52697H8.02024V6.72219H7.40697V6.78456L6.87182 7.1359H5.84764L5.31249 6.78456V6.72219H4.69922V6.52697H5.31249V6.46462L5.84764 6.11328H6.87182Z" fill="#D22630"/>
<path d="M5.58203 6.82312L5.81375 6.99707L5.96618 6.88262L5.87757 6.81609L5.81375 6.86402L5.75927 6.82312L6.63189 6.16797H6.45467L5.58203 6.82312ZM6.08783 7.07915H6.26505L7.13769 6.424L6.90599 6.25007L6.75354 6.3645L6.84215 6.43101L6.90599 6.38308L6.96047 6.424L6.08783 7.07915ZM6.45467 7.07915H6.63186L5.75927 6.424L5.81375 6.38308L5.87757 6.43101L5.96618 6.3645L5.81375 6.25007L5.58203 6.424L6.45467 7.07915ZM6.96047 6.82312L6.90599 6.86402L6.84215 6.81609L6.75354 6.88262L6.90599 6.99707L7.13769 6.82312L6.26505 6.16797H6.08783L6.96047 6.82312Z" fill="#383739"/>
<path d="M5.40625 6.62297L5.56199 6.72641L5.71772 6.62297L5.56199 6.51953L5.40625 6.62297Z" fill="#383739"/>
<path d="M6.20312 6.62297L6.35886 6.72641L6.5146 6.62297L6.35886 6.51953L6.20312 6.62297Z" fill="#383739"/>
<path d="M7.31147 6.62297L7.15574 6.72641L7 6.62297L7.15574 6.51953L7.31147 6.62297Z" fill="#383739"/>
<path d="M7.10791 6.82354L6.90478 6.97606L6.78086 6.88304L6.84094 6.83794L6.90478 6.88587L6.98779 6.82354L6.138 6.18555H6.25812L7.10791 6.82354ZM6.57926 7.06241H6.45917L5.60938 6.42442L5.81254 6.2719L5.9364 6.36492L5.87635 6.40999L5.81254 6.36207L5.7295 6.42442L6.57926 7.06241ZM6.25812 7.06241H6.138L6.98779 6.42442L6.90478 6.36207L6.84094 6.40999L6.78086 6.36492L6.90478 6.2719L7.10791 6.42442L6.25812 7.06241ZM6.45917 6.18555H6.57926L5.7295 6.82354L5.81254 6.88587L5.87635 6.83794L5.9364 6.88303L5.81254 6.97606L5.60938 6.82354L6.45917 6.18555Z" fill="#FFC72C"/>
<path d="M5.56225 6.54102L5.687 6.62386L5.56225 6.70671L5.4375 6.62386L5.56225 6.54102Z" fill="#00843D"/>
<path d="M6.3591 6.54102L6.48385 6.62386L6.3591 6.70671L6.23438 6.62386L6.3591 6.54102Z" fill="#00843D"/>
<path d="M7.156 6.54102L7.03125 6.62386L7.156 6.70671L7.28073 6.62386L7.156 6.54102Z" fill="#00843D"/>
<path d="M3.61972 10.9663L3.55862 11.0527L3.66815 11.1365L3.55859 11.2203L3.6197 11.3067L3.74697 11.3215L3.87021 11.2263L4.17748 11.4214V11.2593L3.98409 11.1365L4.17748 11.0137V10.8516L3.87021 11.0468L3.74697 10.9515L3.61972 10.9663Z" fill="#383739"/>
<path d="M3.61972 10.4019L3.55862 10.4883L3.66815 10.5721L3.55859 10.6558L3.6197 10.7423L3.74697 10.757L3.87021 10.6618L4.17748 10.857V10.6949L3.98409 10.5721L4.17748 10.4492V10.2871L3.87021 10.4823L3.74697 10.3871L3.61972 10.4019Z" fill="#383739"/>
<path d="M3.61972 11.8692L3.55862 11.7828L3.66815 11.699L3.55859 11.6152L3.6197 11.5288L3.74697 11.514L3.87021 11.6093L4.17748 11.4141V11.5762L3.98409 11.699L4.17748 11.8218V11.9839L3.87021 11.7888L3.74697 11.884L3.61972 11.8692Z" fill="#383739"/>
<path d="M9.09685 10.9663L9.15795 11.0527L9.04841 11.1365L9.15795 11.2203L9.09685 11.3067L8.9696 11.3215L8.84636 11.2263L8.53906 11.4214V11.2593L8.73248 11.1365L8.53906 11.0137V10.8516L8.84636 11.0468L8.9696 10.9515L9.09685 10.9663Z" fill="#383739"/>
<path d="M9.09685 10.4019L9.15795 10.4883L9.04841 10.5721L9.15795 10.6558L9.09685 10.7423L8.9696 10.757L8.84636 10.6618L8.53906 10.857V10.6949L8.73248 10.5721L8.53906 10.4492V10.2871L8.84636 10.4823L8.9696 10.3871L9.09685 10.4019Z" fill="#383739"/>
<path d="M9.09685 11.8692L9.15795 11.7828L9.04841 11.699L9.15795 11.6152L9.09685 11.5288L8.9696 11.514L8.84636 11.6093L8.53906 11.4141V11.5762L8.73248 11.699L8.53906 11.8218V11.9839L8.84636 11.7888L8.9696 11.884L9.09685 11.8692Z" fill="#383739"/>
<path d="M7.86719 9.42773V9.66197H8.03756V9.76549H8.20494V9.57699H8.05566V9.42773H7.86719Z" fill="#383739"/>
<path d="M8.37109 9.79883V10.033H8.5413V10.1366H8.70885V9.94808H8.55959V9.79883H8.37109Z" fill="#383739"/>
<path d="M4.84947 9.42773V9.66197H4.67905V9.76549H4.51172V9.57699H4.66097V9.42773H4.84947Z" fill="#383739"/>
<path d="M7.86719 12.8417V12.6074H8.03756V12.5039H8.20494V12.6924H8.05566V12.8417H7.86719Z" fill="#383739"/>
<path d="M4.84947 12.8417V12.6074H4.67905V12.5039H4.51172V12.6924H4.66097V12.8417H4.84947Z" fill="#383739"/>
<path d="M8.37109 12.4725V12.2383H8.5413V12.1348H8.70885V12.3232H8.55959V12.4725H8.37109Z" fill="#383739"/>
<path d="M4.34947 9.79688V10.0311H4.17922V10.1346H4.01172V9.94613H4.16098V9.79688H4.34947Z" fill="#383739"/>
<path d="M4.34947 12.4725V12.2383H4.17922V12.1348H4.01172V12.3232H4.16098V12.4725H4.34947Z" fill="#383739"/>
<path d="M6.98936 9.42311C6.97848 9.41255 6.85932 9.29688 6.85932 9.29688L6.73159 9.41522C6.73159 9.41522 6.83167 9.51235 6.84293 9.52329L6.69922 9.6628H6.91258L6.98936 9.58826L7.06613 9.6628H7.27947L7.13576 9.52329C7.14701 9.51235 7.24707 9.41522 7.24707 9.41522L7.11936 9.29688C7.07597 9.3389 7.03268 9.38102 6.98936 9.42311Z" fill="#383739"/>
<path d="M6.36042 9.42311C6.34958 9.41255 6.23042 9.29688 6.23042 9.29688L6.10269 9.41522C6.10269 9.41522 6.20274 9.51235 6.21402 9.52329L6.07031 9.6628H6.28365L6.36042 9.58826L6.4372 9.6628H6.65054L6.50685 9.52329C6.5181 9.51235 6.61816 9.41522 6.61816 9.41522L6.49046 9.29688C6.44706 9.3389 6.40377 9.38102 6.36042 9.42311Z" fill="#383739"/>
<path d="M5.72761 9.42311C5.73848 9.41255 5.85764 9.29688 5.85764 9.29688L5.98537 9.41522C5.98537 9.41522 5.88529 9.51235 5.87404 9.52329L6.01775 9.6628H5.80439L5.72761 9.58826L5.65084 9.6628H5.4375L5.58121 9.52329C5.56996 9.51235 5.46988 9.41522 5.46988 9.41522L5.5976 9.29688C5.641 9.3389 5.68429 9.38102 5.72761 9.42311Z" fill="#383739"/>
<path d="M6.98936 12.8471C6.97848 12.8576 6.85932 12.9733 6.85932 12.9733L6.73159 12.855C6.73159 12.855 6.83167 12.7579 6.84293 12.7469L6.69922 12.6074H6.91258L6.98936 12.682L7.06613 12.6074H7.27947L7.13576 12.7469C7.14701 12.7579 7.24707 12.855 7.24707 12.855L7.11936 12.9733C7.07597 12.9313 7.03268 12.8892 6.98936 12.8471Z" fill="#383739"/>
<path d="M6.36042 12.8471C6.34958 12.8576 6.23042 12.9733 6.23042 12.9733L6.10269 12.855C6.10269 12.855 6.20274 12.7579 6.21402 12.7469L6.07031 12.6074H6.28365L6.36042 12.682L6.4372 12.6074H6.65054L6.50685 12.7469C6.5181 12.7579 6.61816 12.855 6.61816 12.855L6.49046 12.9733C6.44706 12.9313 6.40377 12.8892 6.36042 12.8471Z" fill="#383739"/>
<path d="M5.72761 12.8471C5.73848 12.8576 5.85764 12.9733 5.85764 12.9733L5.98537 12.855C5.98537 12.855 5.88529 12.7579 5.87404 12.7469L6.01775 12.6074H5.80439L5.72761 12.682L5.65084 12.6074H5.4375L5.58121 12.7469C5.56996 12.7579 5.46988 12.855 5.46988 12.855L5.5976 12.9733C5.641 12.9313 5.68429 12.8892 5.72761 12.8471Z" fill="#383739"/>
<path d="M4.16024 11.2669V11.3883L3.86912 11.2034L3.7419 11.3017L3.62917 11.2887L3.58203 11.222L3.69627 11.1346L3.58203 11.0473L3.62919 10.9806L3.7419 10.9675L3.86912 11.0658L4.16024 10.8809V11.0023L3.95199 11.1346L4.16024 11.2669Z" fill="#00843D"/>
<path d="M4.16024 10.7044V10.8258L3.86912 10.6409L3.7419 10.7392L3.62917 10.7261L3.58203 10.6594L3.69627 10.5721L3.58203 10.4848L3.62919 10.4181L3.7419 10.405L3.86912 10.5033L4.16024 10.3184V10.4398L3.95199 10.5721L4.16024 10.7044Z" fill="#00843D"/>
<path d="M4.16024 11.5668V11.4453L3.86912 11.6302L3.7419 11.5319L3.62917 11.545L3.58203 11.6117L3.69627 11.699L3.58203 11.7864L3.62919 11.8531L3.7419 11.8662L3.86912 11.7679L4.16024 11.9528V11.8313L3.95199 11.699L4.16024 11.5668Z" fill="#00843D"/>
<path d="M8.55859 11.2669V11.3883L8.84971 11.2034L8.97691 11.3017L9.08964 11.2887L9.13678 11.222L9.02254 11.1346L9.13678 11.0473L9.08964 10.9806L8.97691 10.9675L8.84971 11.0658L8.55859 10.8809V11.0023L8.76682 11.1346L8.55859 11.2669Z" fill="#00843D"/>
<path d="M8.55859 10.7044V10.8258L8.84971 10.6409L8.97691 10.7392L9.08964 10.7261L9.13678 10.6594L9.02254 10.5721L9.13678 10.4848L9.08964 10.4181L8.97691 10.405L8.84971 10.5033L8.55859 10.3184V10.4398L8.76682 10.5721L8.55859 10.7044Z" fill="#00843D"/>
<path d="M8.55859 11.5668V11.4453L8.84971 11.6302L8.97691 11.5319L9.08964 11.545L9.13678 11.6117L9.02254 11.699L9.13678 11.7864L9.08964 11.8531L8.97691 11.8662L8.84971 11.7679L8.55859 11.9528V11.8313L8.76682 11.699L8.55859 11.5668Z" fill="#00843D"/>
<path d="M8.04092 9.44531V9.59459H8.19018V9.74879H8.05712V9.64528H7.88672V9.44531H8.04092Z" fill="#00843D"/>
<path d="M8.54092 9.81445V9.96371H8.69017V10.1179H8.55709V10.0144H8.38672V9.81445H8.54092Z" fill="#00843D"/>
<path d="M4.6766 9.44531V9.59459H4.52734V9.74879H4.66042V9.64528H4.8308V9.44531H4.6766Z" fill="#00843D"/>
<path d="M8.04092 12.8249V12.6757H8.19018V12.5215H8.05712V12.625H7.88672V12.8249H8.04092Z" fill="#00843D"/>
<path d="M4.67662 12.8249V12.6757H4.52734V12.5215H4.66042V12.625H4.83082V12.8249H4.67662Z" fill="#00843D"/>
<path d="M8.54092 12.4558V12.3065H8.69017V12.1523H8.55709V12.2559H8.38672V12.4558H8.54092Z" fill="#00843D"/>
<path d="M4.1766 9.81445V9.96371H4.02734V10.1179H4.16042V10.0144H4.3308V9.81445H4.1766Z" fill="#00843D"/>
<path d="M4.17662 12.4558V12.3065H4.02734V12.1523H4.16042V12.2559H4.33082V12.4558H4.17662Z" fill="#00843D"/>
<path d="M6.85974 9.32031C6.87037 9.33063 6.99004 9.44679 6.99004 9.44679C6.99004 9.44679 7.10968 9.33063 7.12031 9.32031C7.13039 9.32962 7.21172 9.40498 7.22286 9.4153C7.21134 9.42646 7.11181 9.52309 7.11181 9.52309L7.23786 9.64546H7.07377L6.99004 9.56415L6.90628 9.64546H6.74219L6.86824 9.52309C6.86824 9.52309 6.76871 9.42646 6.75719 9.4153C6.76832 9.40498 6.84966 9.32962 6.85974 9.32031Z" fill="#00843D"/>
<path d="M6.22695 9.32031C6.23758 9.33063 6.35722 9.44679 6.35722 9.44679C6.35722 9.44679 6.47686 9.33063 6.48752 9.32031C6.4976 9.32962 6.57891 9.40498 6.59005 9.4153C6.57855 9.42646 6.47902 9.52309 6.47902 9.52309L6.60507 9.64546H6.44096L6.35722 9.56415L6.27349 9.64546H6.10938L6.23542 9.52309C6.23542 9.52309 6.13589 9.42646 6.1244 9.4153C6.13553 9.40498 6.21687 9.32962 6.22695 9.32031Z" fill="#00843D"/>
<path d="M5.85859 9.32031C5.84793 9.33063 5.72829 9.44679 5.72829 9.44679C5.72829 9.44679 5.60865 9.33063 5.59802 9.32031C5.58794 9.32962 5.5066 9.40498 5.49547 9.4153C5.50699 9.42646 5.60652 9.52309 5.60652 9.52309L5.48047 9.64546H5.64456L5.72829 9.56415L5.81205 9.64546H5.97614L5.85009 9.52309C5.85009 9.52309 5.94962 9.42646 5.96114 9.4153C5.95 9.40498 5.86867 9.32962 5.85859 9.32031Z" fill="#00843D"/>
<path d="M6.85974 12.9502C6.87037 12.9398 6.99004 12.8236 6.99004 12.8236C6.99004 12.8236 7.10968 12.9398 7.12031 12.9502C7.13039 12.9408 7.21172 12.8655 7.22286 12.8552C7.21134 12.844 7.11181 12.7474 7.11181 12.7474L7.23786 12.625H7.07377L6.99004 12.7063L6.90628 12.625H6.74219L6.86824 12.7474C6.86824 12.7474 6.76871 12.844 6.75719 12.8552C6.76832 12.8655 6.84966 12.9408 6.85974 12.9502Z" fill="#00843D"/>
<path d="M6.22695 12.9502C6.23758 12.9398 6.35722 12.8236 6.35722 12.8236C6.35722 12.8236 6.47686 12.9398 6.48752 12.9502C6.4976 12.9408 6.57891 12.8655 6.59005 12.8552C6.57855 12.844 6.47902 12.7474 6.47902 12.7474L6.60507 12.625H6.44096L6.35722 12.7063L6.27349 12.625H6.10938L6.23542 12.7474C6.23542 12.7474 6.13589 12.844 6.1244 12.8552C6.13553 12.8655 6.21687 12.9408 6.22695 12.9502Z" fill="#00843D"/>
<path d="M5.85859 12.9502C5.84793 12.9398 5.72829 12.8236 5.72829 12.8236C5.72829 12.8236 5.60865 12.9398 5.59802 12.9502C5.58794 12.9408 5.5066 12.8655 5.49547 12.8552C5.50699 12.844 5.60652 12.7474 5.60652 12.7474L5.48047 12.625H5.64456L5.72829 12.7063L5.81205 12.625H5.97614L5.85009 12.7474C5.85009 12.7474 5.94962 12.844 5.96114 12.8552C5.95 12.8655 5.86867 12.9408 5.85859 12.9502Z" fill="#00843D"/>
<path d="M4.66219 12.257V12.6264H8.05562V12.257H8.55765V10.0158H8.05562V9.64648H4.66219V10.0158H4.16016V12.257H4.66219Z" fill="#383739"/>
<path d="M4.6818 9.66213V10.0308H4.17969V12.2384H4.6818V12.6071H8.03984V12.2384H8.542V10.0308H8.03983V9.66211L4.6818 9.66213ZM4.89791 9.8041H7.82377V10.16L7.94452 10.249H8.40004V12.0223H7.94242L7.82377 12.1092V12.4672H4.89791V12.1113L4.77714 12.0223H4.31952V10.249H4.77503L4.89791 10.16L4.89791 9.8041Z" fill="#FFC72C"/>
<path d="M4.91613 9.82227V10.1486L5.35681 9.82227H4.91613ZM7.36525 9.82227L7.80593 10.1486V9.82227H7.36525ZM4.33986 10.2672V10.5723L4.75511 10.2672H4.33986ZM7.96701 10.2672L8.38436 10.5744V10.2672H7.96701ZM8.38436 11.6972L7.96701 12.0066H8.38436V11.6972ZM4.33984 11.6993V12.0066H4.7551L4.33984 11.6993ZM4.91612 12.1252V12.4494H5.35467L4.91612 12.1252ZM7.80591 12.1252L7.3674 12.4494H7.80591V12.1252Z" fill="#D22630"/>
<path d="M7.3338 9.82227C7.33831 9.82558 8.37442 10.5908 8.38131 10.5959V11.6763C8.37442 11.6814 7.33831 12.4467 7.3338 12.45H5.38342C5.37893 12.4467 4.34283 11.6814 4.33594 11.6763V10.5959C4.34283 10.5908 5.37893 9.82558 5.38342 9.82227H7.3338Z" fill="#00843D"/>
<path d="M4.58528 11.801L4.46484 11.6612L4.57791 11.53L4.46484 11.3988L4.57791 11.2676L4.46484 11.1364L4.57791 11.0052L4.46484 10.874L4.57788 10.7428L4.46484 10.6116L4.58528 10.4718H8.13173L8.25216 10.6116L8.1391 10.7428L8.25216 10.874L8.1391 11.0052L8.25216 11.1364L8.1391 11.2676L8.25216 11.3988L8.1391 11.53L8.25216 11.6612L8.13173 11.801H4.58528ZM7.0231 9.99153L6.88332 9.87109L6.75209 9.98416L6.62091 9.87109L6.4897 9.98416L6.35849 9.87109L6.22728 9.98416L6.09608 9.87109L5.96489 9.98416L5.83368 9.87109L5.69391 9.99153V12.2812L5.83368 12.4017L5.96489 12.2886L6.09608 12.4017L6.22728 12.2886L6.35849 12.4017L6.4897 12.2886L6.62091 12.4017L6.75209 12.2886L6.88332 12.4017L7.0231 12.2812V9.99153Z" fill="#383739"/>
<path d="M6.74526 10.0002L6.62264 9.89453L6.5 10.0002V12.2742L6.62264 12.3799L6.74526 12.2742V10.0002Z" fill="#FFC72C"/>
<path d="M6.21791 10.0002L6.09527 9.89453L5.97266 10.0002V12.2742L6.09527 12.3799L6.21791 12.2742V10.0002Z" fill="#FFC72C"/>
<path d="M4.59393 11.7843L4.48828 11.6617L4.59393 11.5391H8.12469L8.23034 11.6617L8.12469 11.7843H4.59393Z" fill="#FFC72C"/>
<path d="M8.12467 11.0137L8.23034 11.1363L8.12467 11.2589H4.59395L4.48828 11.1363L4.59395 11.0137H8.12467Z" fill="#FFC72C"/>
<path d="M8.12469 10.7355L8.23034 10.6129L8.12469 10.4902H4.59393L4.48828 10.6129L4.59393 10.7355H8.12469Z" fill="#FFC72C"/>
<path d="M7.00698 10.0002L6.88436 9.89453L6.76172 10.0002V12.2742L6.88436 12.3799L7.00694 12.2742L7.00698 10.0002Z" fill="#D22630"/>
<path d="M5.95622 10.0002L5.83358 9.89453L5.71094 10.0002V12.2742L5.83358 12.3799L5.95622 12.2742V10.0002Z" fill="#D22630"/>
<path d="M4.59395 11.5226L4.48828 11.4L4.59395 11.2773H8.12467L8.23034 11.4L8.12467 11.5226H4.59395Z" fill="#D22630"/>
<path d="M4.59395 10.9972L4.48828 10.8746L4.59395 10.752H8.12467L8.23034 10.8746L8.12467 10.9972H4.59395Z" fill="#D22630"/>
<path d="M6.48356 12.2742L6.36092 12.3799L6.23828 12.2742V10.0002L6.36092 9.89453L6.48356 10.0002V12.2742Z" fill="#D22630"/>
<path d="M7.54655 10.043H5.16734V10.2319H4.86328V12.0393H5.16734V12.2282H7.55512V12.0393H7.85918V10.2319H7.55512V10.043H7.54655Z" fill="#383739"/>
<path d="M5.18399 10.0605V10.2492H4.87891V12.0224H5.18399V12.211H5.434L4.93611 11.7936V10.4779L5.434 10.0605H5.18399ZM7.28784 10.0605L7.78357 10.4779V11.7936L7.28784 12.211H7.53781V12.0224H7.84079V10.2492H7.53781V10.0605L7.28784 10.0605Z" fill="#D22630"/>
<path d="M5.4616 10.0605C5.4569 10.0645 4.95915 10.4814 4.95312 10.4864V11.7851C4.95915 11.7902 5.4569 12.207 5.4616 12.211H7.26033C7.26505 12.207 7.76066 11.7902 7.76668 11.7851V10.4864C7.76065 10.4814 7.26505 10.0645 7.26033 10.0605H5.4616ZM5.48702 10.1326H7.23279L7.69465 10.5203V11.7512L7.23279 12.1368H5.48702L5.02728 11.7512V10.5203L5.48702 10.1326Z" fill="#00843D"/>
<path d="M5.94787 11.7715L6.02601 11.8053L6.04039 11.8965L5.94201 11.9831L6.08491 12.1212H5.94741L5.84911 12.0266L5.75078 12.1212H5.61328L5.7562 11.9831L5.6578 11.8965L5.6722 11.8053L5.75032 11.7715L5.84911 11.8505L5.85446 11.8462L5.94787 11.7715Z" fill="#00843D"/>
<path d="M6.45961 11.7715L6.53773 11.8053L6.55213 11.8965L6.45375 11.9831L6.59665 12.1212H6.45915L6.36082 12.0266L6.26252 12.1212H6.125L6.26792 11.9831L6.16954 11.8965L6.18394 11.8053L6.26206 11.7715L6.36082 11.8505L6.36618 11.8462L6.45961 11.7715Z" fill="#00843D"/>
<path d="M6.76985 11.7715L6.69173 11.8053L6.67733 11.8965L6.77571 11.9831L6.63281 12.1212H6.77031L6.86864 12.0266L6.96694 12.1212H7.10444L6.96154 11.9831L7.05992 11.8965L7.04552 11.8053L6.9674 11.7715L6.86864 11.8505L6.86326 11.8462L6.76985 11.7715Z" fill="#00843D"/>
<path d="M5.94787 10.5001L6.02601 10.4664L6.04039 10.3751L5.94201 10.2886L6.08491 10.1504H5.94741L5.84911 10.245L5.75078 10.1504H5.61328L5.7562 10.2886L5.6578 10.3751L5.6722 10.4664L5.75032 10.5001L5.84911 10.4212L5.85446 10.4254L5.94787 10.5001Z" fill="#00843D"/>
<path d="M6.45961 10.5001L6.53773 10.4664L6.55213 10.3751L6.45375 10.2886L6.59665 10.1504H6.45915L6.36082 10.245L6.26252 10.1504H6.125L6.26792 10.2886L6.16954 10.3751L6.18394 10.4664L6.26206 10.5001L6.36082 10.4212L6.36618 10.4254L6.45961 10.5001Z" fill="#00843D"/>
<path d="M6.76985 10.5001L6.69173 10.4664L6.67733 10.3751L6.77571 10.2886L6.63281 10.1504H6.77031L6.86864 10.245L6.96694 10.1504H7.10444L6.96154 10.2886L7.05992 10.3751L7.04552 10.4664L6.9674 10.5001L6.86864 10.4212L6.86326 10.4254L6.76985 10.5001Z" fill="#00843D"/>
<path d="M7.67852 10.6461L7.60052 10.7107L7.67852 10.7752V10.8823L7.55857 10.7835C7.55857 10.7835 7.4779 10.8565 7.47248 10.8615C7.46557 10.8606 7.38786 10.8508 7.38018 10.8499C7.37674 10.8436 7.35248 10.7988 7.34766 10.7899C7.3557 10.7818 7.4271 10.7107 7.4271 10.7107C7.4271 10.7107 7.3557 10.6395 7.34766 10.6315C7.35248 10.6225 7.37674 10.5778 7.38018 10.5715C7.38786 10.5705 7.46557 10.5607 7.47248 10.5599C7.4779 10.5648 7.55857 10.6379 7.55857 10.6379L7.67852 10.5391V10.6461Z" fill="#00843D"/>
<path d="M7.67852 11.0699L7.60052 11.1345L7.67852 11.1991V11.3061L7.55857 11.2073C7.55857 11.2073 7.4779 11.2804 7.47248 11.2853C7.46557 11.2844 7.38786 11.2746 7.38018 11.2737C7.37674 11.2674 7.35248 11.2226 7.34766 11.2137C7.3557 11.2057 7.4271 11.1345 7.4271 11.1345C7.4271 11.1345 7.3557 11.0633 7.34766 11.0553C7.35248 11.0464 7.37674 11.0016 7.38018 10.9953C7.38786 10.9944 7.46557 10.9846 7.47248 10.9837C7.4779 10.9886 7.55857 11.0617 7.55857 11.0617L7.67852 10.9629V11.0699Z" fill="#00843D"/>
<path d="M7.67852 11.6249L7.60052 11.5603L7.67852 11.4957V11.3887L7.55857 11.4875C7.55857 11.4875 7.4779 11.4144 7.47248 11.4095C7.46557 11.4104 7.38786 11.4202 7.38018 11.4211C7.37674 11.4274 7.35248 11.4722 7.34766 11.4811C7.3557 11.4891 7.4271 11.5603 7.4271 11.5603C7.4271 11.5603 7.3557 11.6315 7.34766 11.6395C7.35248 11.6484 7.37674 11.6932 7.38018 11.6995C7.38786 11.7005 7.46557 11.7102 7.47248 11.7111C7.4779 11.7062 7.55857 11.6331 7.55857 11.6331L7.67852 11.7319V11.6249Z" fill="#00843D"/>
<path d="M5.04297 10.6461L5.12094 10.7107L5.04297 10.7752V10.8823L5.16292 10.7835C5.16292 10.7835 5.24358 10.8565 5.24901 10.8615C5.2559 10.8606 5.33363 10.8508 5.34131 10.8499C5.34474 10.8436 5.36898 10.7988 5.37383 10.7899C5.36579 10.7818 5.29439 10.7107 5.29439 10.7107C5.29439 10.7107 5.36579 10.6395 5.37383 10.6315C5.36898 10.6225 5.34474 10.5778 5.34131 10.5715C5.33363 10.5705 5.2559 10.5607 5.24901 10.5599C5.24358 10.5648 5.16292 10.6379 5.16292 10.6379L5.04297 10.5391V10.6461Z" fill="#00843D"/>
<path d="M5.04297 11.0699L5.12094 11.1345L5.04297 11.1991V11.3061L5.16292 11.2073C5.16292 11.2073 5.24358 11.2804 5.24901 11.2853C5.2559 11.2844 5.33363 11.2746 5.34131 11.2737C5.34474 11.2674 5.36898 11.2226 5.37383 11.2137C5.36579 11.2057 5.29439 11.1345 5.29439 11.1345C5.29439 11.1345 5.36579 11.0633 5.37383 11.0553C5.36898 11.0464 5.34474 11.0016 5.34131 10.9953C5.33363 10.9944 5.2559 10.9846 5.24901 10.9837C5.24358 10.9886 5.16292 11.0617 5.16292 11.0617L5.04297 10.9629V11.0699Z" fill="#00843D"/>
<path d="M5.04297 11.6249L5.12094 11.5603L5.04297 11.4957V11.3887L5.16292 11.4875C5.16292 11.4875 5.24358 11.4144 5.24901 11.4095C5.2559 11.4104 5.33363 11.4202 5.34131 11.4211C5.34474 11.4274 5.36898 11.4722 5.37383 11.4811C5.36579 11.4891 5.29439 11.5603 5.29439 11.5603C5.29439 11.5603 5.36579 11.6315 5.37383 11.6395C5.36898 11.6484 5.34474 11.6932 5.34131 11.6995C5.33363 11.7005 5.2559 11.7102 5.24901 11.7111C5.24358 11.7062 5.16292 11.6331 5.16292 11.6331L5.04297 11.7319V11.6249Z" fill="#00843D"/>
<path d="M5.49212 10.1504C5.48749 10.1543 5.06804 10.5055 5.04933 10.5212C5.08714 10.5525 5.12371 10.5853 5.16162 10.6165C5.17121 10.6078 5.24424 10.5423 5.24424 10.5423L5.35229 10.5572L5.39466 10.6356C5.39466 10.6356 5.32876 10.7015 5.31839 10.7118C5.32876 10.7221 5.39466 10.7881 5.39466 10.7881L5.35229 10.8665L5.24424 10.8792C5.24424 10.8792 5.17121 10.8159 5.16161 10.8072L5.04297 10.9067V10.9406C5.08288 10.9737 5.12156 11.0072 5.16161 11.0402C5.17121 11.0316 5.24424 10.9682 5.24424 10.9682L5.35229 10.9809L5.39466 11.0593C5.39466 11.0593 5.32876 11.1252 5.31839 11.1356C5.32876 11.1459 5.39466 11.2118 5.39466 11.2118L5.35229 11.2923L5.24424 11.3051C5.24424 11.3051 5.17121 11.2396 5.16161 11.2309L5.04297 11.3305V11.3665L5.16161 11.4661C5.17121 11.4574 5.24424 11.3919 5.24424 11.3919L5.35229 11.4067L5.39466 11.4851C5.39466 11.4851 5.32876 11.5511 5.31839 11.5614C5.32876 11.5717 5.39466 11.6377 5.39466 11.6377L5.35229 11.7161L5.24424 11.7309C5.24424 11.7309 5.17121 11.6654 5.16161 11.6567C5.12386 11.6878 5.087 11.7189 5.04932 11.75C5.06804 11.7657 5.48749 12.1168 5.49212 12.1207H5.58958L5.73153 11.983L5.64043 11.9025L5.65737 11.7923L5.75271 11.7521L5.85017 11.8284L5.94551 11.7521L6.04085 11.7923L6.05992 11.9025L5.9667 11.983L6.10441 12.1144L6.24212 11.983L6.1489 11.9025L6.16585 11.7923L6.26331 11.7521L6.35865 11.8284L6.4561 11.7521L6.55144 11.7923L6.56839 11.9025L6.47729 11.983L6.61288 12.1165L6.7506 11.983L6.65949 11.9025L6.67644 11.7923L6.7739 11.7521L6.86924 11.8284L6.96458 11.7521L7.06204 11.7923L7.07898 11.9025L6.98788 11.983L7.12983 12.1207H7.22517C7.2298 12.1168 7.64923 11.7657 7.66797 11.75C7.63023 11.7189 7.59348 11.6879 7.55568 11.6567C7.54608 11.6654 7.47517 11.7309 7.47517 11.7309L7.36712 11.7161L7.32263 11.6377C7.32263 11.6377 7.38856 11.5717 7.3989 11.5614C7.38856 11.5511 7.32263 11.4851 7.32263 11.4851L7.36712 11.4067L7.47517 11.3919C7.47517 11.3919 7.54608 11.4574 7.55568 11.4661L7.67432 11.3665V11.3305L7.55568 11.2309C7.54608 11.2396 7.47517 11.3051 7.47517 11.3051L7.36712 11.2923L7.32263 11.2118C7.32263 11.2118 7.38856 11.1459 7.3989 11.1356C7.38856 11.1252 7.32263 11.0593 7.32263 11.0593L7.36712 10.9809L7.47517 10.9682C7.47517 10.9682 7.54608 11.0316 7.55568 11.0402C7.59546 11.0075 7.63463 10.9754 7.67432 10.9428V10.9046L7.55568 10.8072C7.54608 10.8159 7.47517 10.8792 7.47517 10.8792L7.36712 10.8665L7.32263 10.7881C7.32263 10.7881 7.38856 10.7221 7.3989 10.7118C7.38856 10.7015 7.32263 10.6356 7.32263 10.6356L7.36712 10.5572L7.47517 10.5423C7.47517 10.5423 7.54608 10.6078 7.55568 10.6165C7.59365 10.5852 7.63213 10.5546 7.67009 10.5233C7.6555 10.511 7.22983 10.1543 7.22517 10.1504H7.12983L6.98788 10.2881L7.07898 10.3686L7.06203 10.4788L6.96458 10.5212L6.86924 10.4449L6.7739 10.5212L6.67644 10.4788L6.65949 10.3686L6.75059 10.2881L6.615 10.1567L6.47729 10.2881L6.56839 10.3686L6.55144 10.4788L6.4561 10.5212L6.35864 10.4449L6.26331 10.5212L6.16585 10.4788L6.1489 10.3686L6.24212 10.2881L6.10441 10.1567L5.9667 10.2881L6.05992 10.3686L6.04085 10.4788L5.94551 10.5212L5.85017 10.4449L5.75271 10.5212L5.65737 10.4788L5.64042 10.3686L5.73153 10.2881L5.58746 10.1504L5.49212 10.1504ZM5.04297 11.0932V11.1801L5.09382 11.1356L5.04297 11.0932Z" fill="#D22630"/>
<path d="M5.85151 12.0508L5.77734 12.1207H5.92351L5.85151 12.0508Z" fill="white"/>
<path d="M6.35716 12.0508L6.28516 12.1207H6.43133L6.35716 12.0508Z" fill="white"/>
<path d="M6.86707 12.0508L6.79297 12.1207H6.94124L6.86707 12.0508Z" fill="white"/>
<path d="M5.77344 10.1504L5.84971 10.2224L5.92388 10.1504H5.77344Z" fill="white"/>
<path d="M6.28516 10.1504L6.35933 10.2224L6.4356 10.1504H6.28516Z" fill="white"/>
<path d="M6.79688 10.1504L6.87098 10.2224L6.94515 10.1504H6.79688Z" fill="white"/>
<path d="M7.67585 10.6699L7.625 10.7123L7.67585 10.7526V10.6699Z" fill="white"/>
<path d="M7.67585 11.0938L7.625 11.1361L7.67585 11.1785V11.0938Z" fill="white"/>
<path d="M7.67585 11.5195L7.625 11.5619L7.67585 11.6043V11.5195Z" fill="white"/>
<path d="M5.04297 10.668V10.7548L5.09382 10.7124L5.04297 10.668Z" fill="white"/>
<path d="M5.04297 11.0938V11.1806L5.09382 11.1361L5.04297 11.0938Z" fill="white"/>
<path d="M5.04297 11.5176V11.6044L5.09382 11.5621L5.04297 11.5176Z" fill="white"/>
<path d="M6.79514 10.9937V10.842H6.64166V10.6758H6.07639V10.842H5.92291V10.9937H5.71094V11.2776H5.92291V11.4292H6.07639V11.5955H6.64166V11.4292H6.79514V11.2776H7.00708V10.9937H6.79514Z" fill="#383739"/>
<path d="M6.34891 10.6934V10.8647L6.10593 11.0029V11.1275H5.72656V11.0113H5.93851V10.8596H6.09199V10.6934H6.34891Z" fill="#FFC72C"/>
<path d="M6.36719 11.5787V11.4073L6.61014 11.2692V11.1445H6.98953V11.2608H6.77759V11.4124H6.62411V11.5787H6.36719Z" fill="#FFC72C"/>
<path d="M6.61014 11.1275V11.0029L6.36719 10.8647V10.6934H6.62411V10.8596H6.77759V11.0113H6.98953V11.1275H6.61014Z" fill="white"/>
<path d="M5.73047 11.1445H6.10984V11.2692L6.35281 11.4073V11.5787H6.09589V11.4124H5.94241V11.2608H5.73047V11.1445Z" fill="white"/>
<path d="M6.125 11.1445V11.2601L6.35082 11.3885V11.1445H6.125Z" fill="#D22630"/>
<path d="M6.35082 10.8828L6.125 11.0112V11.1267H6.35082V10.8828Z" fill="#00843D"/>
<path d="M6.593 11.1267V11.0112L6.36719 10.8828V11.1267H6.593Z" fill="#D22630"/>
<path d="M6.36719 11.3885L6.593 11.2601V11.1445H6.36719V11.3885Z" fill="#00843D"/>
<path d="M4.30553 14.149V14.6177H3.85891V15.0428H3.40625V16.2531H3.85891V16.6782H4.30553V17.1469H5.92944L6.21502 17.3185L6.07779 17.4009H5.49874L5.44879 17.3446H5.97355L5.82571 17.1957H5.07507L5.41517 17.5498H6.11909L6.35955 17.4053L6.6 17.5498H7.30397L7.64405 17.1957H6.89343L6.74556 17.3446H7.27035L7.22038 17.4009H6.64131L6.50407 17.3185L6.78967 17.1469H8.41359V16.6782H8.8602V16.2531H9.31284V15.0428H8.8602V14.6177H8.41359V14.149H6.78967L6.50407 13.9774L6.64131 13.895H7.22038L7.27035 13.9513H6.74556L6.89343 14.1002H7.64405L7.30397 13.7461H6.6L6.35955 13.8906L6.11909 13.7461H5.41517L5.07507 14.1002H5.82571L5.97355 13.9513H5.44879L5.49874 13.895H6.07779L6.21502 13.9774L5.92944 14.149H4.30553Z" fill="#D22630"/>
<path d="M6.78416 17.1302H8.39644V16.662H8.84136V16.2361H9.29475V15.0603H8.84136V14.6366H8.39644V14.1683H6.78416L6.11467 13.7637H5.42187L5.11466 14.0836H5.81806L5.93246 13.9692H5.40916L5.48967 13.8781H6.08289L6.84136 14.3357H8.22695V14.8039H8.67399V15.2298H9.12738V16.0688H8.67399V16.4946H8.22695V16.9628H6.84136L6.08289 17.4183H5.48967L5.40916 17.3294H5.93246L5.81806 17.2149H5.11466L5.42187 17.5349H6.11467L6.78416 17.1302ZM5.87526 16.9628H4.48967V16.4946H4.04476V16.0688H3.59136V15.2298H4.04476V14.8039H4.48967V14.3357H5.87526L6.63586 13.8781H7.22696L7.30747 13.9692H6.78628L6.90069 14.0836H7.60408L7.29688 13.7637H6.60408L5.93458 14.1683H4.3223V14.6366H3.87527V15.0603H3.42188V16.2361H3.87527V16.662H4.3223V17.1302H5.93458L6.60408 17.5349H7.29688L7.60408 17.2149H6.90069L6.78628 17.3294H7.30747L7.22696 17.4183H6.63586L5.87526 16.9628Z" fill="#FFC72C"/>
<path d="M8.09339 16.3577V16.8264H6.80538L6.3596 17.0942L5.91383 16.8264H4.62584V16.3577H4.1792V15.9326H3.72656V15.3628H4.1792V14.9377H4.62584V14.469H5.91145H5.91383L6.3596 14.2012L6.80538 14.469H8.09339V14.9377H8.54V15.3628H8.99264V15.9326H8.54V16.3577H8.09339Z" fill="#00843D"/>
<path d="M4.79297 16.1937V16.6473H5.50097L4.79297 16.1777V16.1937Z" fill="#383739"/>
<path d="M4.79297 15.1021V14.6484H5.50097L4.79297 15.118V15.1021Z" fill="#383739"/>
<path d="M7.92284 16.1937V16.6473H7.21484L7.92284 16.1777V16.1937Z" fill="#383739"/>
<path d="M7.92284 15.1021V14.6484H7.21484L7.92284 15.118V15.1021Z" fill="#383739"/>
<path d="M4.80859 16.209L5.44258 16.6295H4.80859V16.209Z" fill="#D22630"/>
<path d="M4.80859 15.0865C4.83324 15.0702 5.39938 14.6946 5.44258 14.666H4.80859V15.0865Z" fill="#D22630"/>
<path d="M7.90352 16.209C7.87884 16.2254 7.31271 16.6008 7.26953 16.6295H7.90352V16.209Z" fill="#D22630"/>
<path d="M7.90352 15.0865C7.87884 15.0702 7.31271 14.6947 7.26953 14.666H7.90352V15.0865Z" fill="#D22630"/>
<path d="M5.69977 15.5233V15.2917H5.62076L5.24171 15.0547L5.23717 15.0575L4.86268 15.2917H4.78367V15.5233H4.60547V15.7721H4.78367V16.0037H4.86268L5.24171 16.2407L5.62076 16.0037H5.69977V15.7721H5.97105V15.5233H5.69977Z" fill="#383739"/>
<path d="M5.24121 15.0742L5.58794 15.291H4.89453L5.24121 15.0742ZM5.58789 16.003L5.24121 16.2198L4.89456 16.003H5.58789Z" fill="#D22630"/>
<path d="M5.50267 15.541V15.7555H5.07031V15.541H5.50267Z" fill="#D22630"/>
<path d="M5.68627 15.7715V15.986H5.25391V15.7715H5.68627Z" fill="#FFC72C"/>
<path d="M5.23705 15.7715V15.986H4.80469V15.7715H5.23705Z" fill="#FFC72C"/>
<path d="M5.9558 15.541V15.7555H5.52344V15.541H5.9558Z" fill="#FFC72C"/>
<path d="M5.05736 15.541V15.7555H4.625V15.541H5.05736Z" fill="#FFC72C"/>
<path d="M5.68627 15.3086V15.5231H5.25391V15.3086H5.68627Z" fill="#FFC72C"/>
<path d="M5.23705 15.3086V15.5231H4.80469V15.3086H5.23705Z" fill="#FFC72C"/>
<path d="M4.9364 15.5898V15.709H4.74219V15.5898H4.9364Z" fill="#383739"/>
<path d="M5.11608 15.3574V15.4766H4.92188V15.3574H5.11608Z" fill="#383739"/>
<path d="M5.5653 15.3574V15.4766H5.37109V15.3574H5.5653Z" fill="#383739"/>
<path d="M5.38561 15.5898V15.709H5.19141V15.5898H5.38561Z" fill="#383739"/>
<path d="M5.83483 15.5898V15.709H5.64062V15.5898H5.83483Z" fill="#383739"/>
<path d="M5.5653 15.8203V15.9395H5.37109V15.8203H5.5653Z" fill="#383739"/>
<path d="M5.11608 15.8203V15.9395H4.92188V15.8203H5.11608Z" fill="#383739"/>
<path d="M4.91935 15.6074H4.76172V15.69H4.91935V15.6074Z" fill="white"/>
<path d="M5.09904 15.375H4.94141V15.4576H5.09904V15.375Z" fill="white"/>
<path d="M5.54826 15.375H5.39062V15.4576H5.54826V15.375Z" fill="white"/>
<path d="M5.36857 15.6074H5.21094V15.69H5.36857V15.6074Z" fill="white"/>
<path d="M5.81779 15.6074H5.66016V15.69H5.81779V15.6074Z" fill="white"/>
<path d="M5.54826 15.8379H5.39062V15.9205H5.54826V15.8379Z" fill="white"/>
<path d="M5.09904 15.8379H4.94141V15.9205H5.09904V15.8379Z" fill="white"/>
<path d="M7.02288 15.5233V15.2917H7.10189L7.48095 15.0547L7.48548 15.0575L7.85998 15.2917H7.93899V15.5233H8.11719V15.7721H7.93899V16.0037H7.85998L7.48095 16.2407L7.10189 16.0037H7.02288V15.7721H6.75161V15.5233H7.02288Z" fill="#383739"/>
<path d="M7.48144 15.0742L7.13472 15.291H7.82812L7.48144 15.0742ZM7.13476 16.003L7.48144 16.2198L7.8281 16.003H7.13476Z" fill="#D22630"/>
<path d="M7.21998 15.541V15.7555H7.65234V15.541H7.21998Z" fill="#D22630"/>
<path d="M7.0403 15.7715V15.986H7.47266V15.7715H7.0403Z" fill="#FFC72C"/>
<path d="M7.48951 15.7715V15.986H7.92188V15.7715H7.48951Z" fill="#FFC72C"/>
<path d="M6.77077 15.541V15.7555H7.20312V15.541H6.77077Z" fill="#FFC72C"/>
<path d="M7.6692 15.541V15.7555H8.10156V15.541H7.6692Z" fill="#FFC72C"/>
<path d="M7.0403 15.3086V15.5231H7.47266V15.3086H7.0403Z" fill="#FFC72C"/>
<path d="M7.48951 15.3086V15.5231H7.92188V15.3086H7.48951Z" fill="#FFC72C"/>
<path d="M7.78626 15.5879V15.7071H7.98047V15.5879H7.78626Z" fill="#383739"/>
<path d="M7.60657 15.3555V15.4747H7.80078V15.3555H7.60657Z" fill="#383739"/>
<path d="M7.15735 15.3555V15.4747H7.35156V15.3555H7.15735Z" fill="#383739"/>
<path d="M7.33704 15.5879V15.7071H7.53125V15.5879H7.33704Z" fill="#383739"/>
<path d="M6.88782 15.5879V15.7071H7.08203V15.5879H6.88782Z" fill="#383739"/>
<path d="M7.15735 15.8184V15.9375H7.35156V15.8184H7.15735Z" fill="#383739"/>
<path d="M7.60657 15.8184V15.9375H7.80078V15.8184H7.60657Z" fill="#383739"/>
<path d="M7.80331 15.6074H7.96094V15.69H7.80331V15.6074Z" fill="white"/>
<path d="M7.62362 15.375H7.78125V15.4576H7.62362V15.375Z" fill="white"/>
<path d="M7.1744 15.375H7.33203V15.4576H7.1744V15.375Z" fill="white"/>
<path d="M7.35409 15.6074H7.51172V15.69H7.35409V15.6074Z" fill="white"/>
<path d="M6.90487 15.6074H7.0625V15.69H6.90487V15.6074Z" fill="white"/>
<path d="M7.1744 15.8379H7.33203V15.9205H7.1744V15.8379Z" fill="white"/>
<path d="M7.62362 15.8379H7.78125V15.9205H7.62362V15.8379Z" fill="white"/>
<path d="M6.81662 15.1374V15.369H6.73761L6.35856 15.606L6.35402 15.6031L5.97953 15.369H5.90052V15.1374H5.67578V14.8886H5.90052V14.6569H5.97953L6.35856 14.4199L6.73761 14.6569H6.81662V14.8886H7.04136V15.1374H6.81662Z" fill="#383739"/>
<path d="M6.3584 15.5851L6.7051 15.3683H6.01172L6.3584 15.5851ZM6.70508 14.6562L6.3584 14.4395L6.01174 14.6562H6.70508Z" fill="#FFC72C"/>
<path d="M6.79955 14.8883V14.6738H6.36719V14.8883H6.79955Z" fill="#D22630"/>
<path d="M6.35033 14.8883V14.6738H5.91797V14.8883H6.35033Z" fill="#D22630"/>
<path d="M7.0222 15.1208V14.9062H6.58984V15.1208H7.0222Z" fill="#D22630"/>
<path d="M6.57298 15.1208V14.9062H6.14062V15.1208H6.57298Z" fill="#D22630"/>
<path d="M6.12374 15.1208V14.9062H5.69141V15.1208H6.12374Z" fill="#D22630"/>
<path d="M6.79955 15.3512V15.1367H6.36719V15.3512H6.79955Z" fill="#D22630"/>
<path d="M6.35033 15.3512V15.1367H5.91797V15.3512H6.35033Z" fill="#D22630"/>
<path d="M6.23327 14.7207V14.8399H6.03906V14.7207H6.23327Z" fill="#383739"/>
<path d="M6.67858 14.7207V14.8399H6.48438V14.7207H6.67858Z" fill="#383739"/>
<path d="M6.00671 14.9531V15.0723H5.8125V14.9531H6.00671Z" fill="#383739"/>
<path d="M6.45593 14.9531V15.0723H6.26172V14.9531H6.45593Z" fill="#383739"/>
<path d="M6.90515 14.9531V15.0723H6.71094V14.9531H6.90515Z" fill="#383739"/>
<path d="M6.23327 15.1836V15.3028H6.03906V15.1836H6.23327Z" fill="#383739"/>
<path d="M6.67858 15.1836V15.3028H6.48438V15.1836H6.67858Z" fill="#383739"/>
<path d="M6.21232 14.7402H6.05469V14.8228H6.21232V14.7402Z" fill="white"/>
<path d="M6.65763 14.7402H6.5V14.8228H6.65763V14.7402Z" fill="white"/>
<path d="M5.98576 14.9727H5.82812V15.0553H5.98576V14.9727Z" fill="white"/>
<path d="M6.43498 14.9727H6.27734V15.0553H6.43498V14.9727Z" fill="white"/>
<path d="M6.88419 14.9727H6.72656V15.0553H6.88419V14.9727Z" fill="white"/>
<path d="M6.21232 15.2031H6.05469V15.2857H6.21232V15.2031Z" fill="white"/>
<path d="M6.65763 15.2031H6.5V15.2857H6.65763V15.2031Z" fill="white"/>
<path d="M6.81662 16.4088V16.6405H6.73761L6.35856 16.8775L6.35402 16.8746L5.97953 16.6405H5.90052V16.4088H5.67578V16.1601H5.90052V15.9284H5.97953L6.35856 15.6914L6.73761 15.9284H6.81662V16.1601H7.04136V16.4088H6.81662Z" fill="#383739"/>
<path d="M6.3584 16.8566L6.7051 16.6398H6.01172L6.3584 16.8566ZM6.70508 15.9277L6.3584 15.7109L6.01174 15.9277H6.70508Z" fill="#FFC72C"/>
<path d="M6.79955 16.1598V15.9453H6.36719V16.1598H6.79955Z" fill="#D22630"/>
<path d="M6.35033 16.1598V15.9453H5.91797V16.1598H6.35033Z" fill="#D22630"/>
<path d="M7.0222 16.3903V16.1758H6.58984V16.3903H7.0222Z" fill="#D22630"/>
<path d="M6.57298 16.3903V16.1758H6.14062V16.3903H6.57298Z" fill="#D22630"/>
<path d="M6.12374 16.3922V16.1777H5.69141V16.3922H6.12374Z" fill="#D22630"/>
<path d="M6.79955 16.6227V16.4082H6.36719V16.6227H6.79955Z" fill="#D22630"/>
<path d="M6.35033 16.6227V16.4082H5.91797V16.6227H6.35033Z" fill="#D22630"/>
<path d="M6.23327 15.9922V16.1114H6.03906V15.9922H6.23327Z" fill="#383739"/>
<path d="M6.67858 15.9922V16.1114H6.48438V15.9922H6.67858Z" fill="#383739"/>
<path d="M6.00671 16.2246V16.3438H5.8125V16.2246H6.00671Z" fill="#383739"/>
<path d="M6.45593 16.2246V16.3438H6.26172V16.2246H6.45593Z" fill="#383739"/>
<path d="M6.90515 16.2246V16.3438H6.71094V16.2246H6.90515Z" fill="#383739"/>
<path d="M6.23327 16.4551V16.5743H6.03906V16.4551H6.23327Z" fill="#383739"/>
<path d="M6.67858 16.4551V16.5743H6.48438V16.4551H6.67858Z" fill="#383739"/>
<path d="M6.21232 16.0117H6.05469V16.0943H6.21232V16.0117Z" fill="white"/>
<path d="M6.65763 16.0117H6.5V16.0943H6.65763V16.0117Z" fill="white"/>
<path d="M5.98576 16.2441H5.82812V16.3267H5.98576V16.2441Z" fill="white"/>
<path d="M6.43498 16.2441H6.27734V16.3267H6.43498V16.2441Z" fill="white"/>
<path d="M6.88419 16.2441H6.72656V16.3267H6.88419V16.2441Z" fill="white"/>
<path d="M6.21232 16.4746H6.05469V16.5572H6.21232V16.4746Z" fill="white"/>
<path d="M6.65763 16.4746H6.5V16.5572H6.65763V16.4746Z" fill="white"/>
<path d="M3.90625 19.1748L5.58831 18.2695H5.59047H7.12988L8.81195 19.1748V20.6664L7.12988 21.5716H5.58831L3.90625 20.6664V19.1748Z" fill="#383739"/>
<path d="M5.59529 18.2852L3.92578 19.1835V20.6538L5.59529 21.5521H7.12701L8.79657 20.6538V19.1835L7.12701 18.2852H5.59529ZM5.62491 18.4059H7.09738L8.67793 19.2555V20.5839L7.09738 21.4334H5.62402L4.04354 20.5839V19.2555L5.62491 18.4059Z" fill="#00843D"/>
<path d="M6.37077 19.9103V21.4159H7.09459L8.66191 20.5724V19.9275L6.35364 19.9275V18.4219H5.62984L4.0625 19.2653V19.9103L6.37077 19.9103Z" fill="#FFC72C"/>
<path d="M6.35364 19.9103V21.4159H5.62984L4.0625 20.5724V19.9275L6.37077 19.9275V18.4219H7.09459L8.66191 19.2653V19.9103L6.35364 19.9103Z" fill="white"/>
<path d="M6.50134 21.3332V20.898L6.36065 20.9873L6.21994 20.898V21.3332H5.78228L6.0776 21.1166V20.8077L5.62721 20.522H5.3125V19.3191H5.62721L6.0776 19.0333V18.7244L5.78228 18.5078H5.80846H6.21994V18.943L6.36065 18.8537L6.50134 18.943V18.5078H6.93903L6.64368 18.7244V19.0333L7.09407 19.3191H7.40878V20.522H7.09407L6.64368 20.8077V21.1166L6.93903 21.3332H6.50134Z" fill="#383739"/>
<path d="M6.5167 18.5254V18.9745L6.36626 18.8792V19.0063L7.05481 19.4448H7.28152V19.911H7.38959V19.3347H7.0866L6.62477 19.0423V18.716L6.88531 18.5254H6.5167ZM5.32813 19.928V20.5042H5.62897L6.09297 20.7987V21.125L5.83236 21.3156H6.20104V20.8665L6.34931 20.9619V20.8305L5.66077 20.3962H5.43617V19.928L5.32813 19.928Z" fill="#FFC72C"/>
<path d="M5.83236 18.5254L6.09297 18.716V19.0423L5.62897 19.3347H5.32812V19.911H5.43617V19.4448H5.66077L6.34931 19.0084V18.8792L6.20104 18.9745V18.5254L5.83236 18.5254ZM7.28151 19.928V20.3962H7.0548L6.36626 20.8305V20.9619L6.5167 20.8665V21.3156H6.88531L6.62477 21.125V20.7987L7.0866 20.5042H7.38958V19.928L7.28151 19.928Z" fill="white"/>
<path d="M5.45312 20.3774H5.66663L6.35893 20.8166L7.05121 20.3774H7.26474V19.4607H7.05371H7.05121L6.35893 19.0215L5.66663 19.4607H5.45312V20.3774Z" fill="#D22630"/>
<path d="M6.83818 20.1375H6.986V20.0675H6.8748V19.9404H7.11245V20.2646H6.88462L6.88464 20.4858H6.41566V20.168H6.62206V20.2951H6.54212V20.3587H6.75819V20.2372L5.87974 19.7019H5.73193V19.7718H5.84314V19.8989H5.60547V19.5747H5.8333V19.3535H5.84187H6.30226V19.6713H6.09586V19.5442H6.17581V19.4806H5.95976V19.6022L6.83818 20.1375ZM6.75819 19.6022V19.4806H6.54212V19.5442H6.62206V19.6713H6.41566V19.3535H6.88464V19.5747H7.11245V19.8989H6.8748V19.7718H6.98602V19.7019H6.83818L5.95976 20.2372V20.3587H6.17581V20.2951H6.09586V20.168H6.30226V20.4858H5.8333V20.2646H5.60547V19.9404H5.84314V20.0675H5.73193V20.1375H5.87974L6.75819 19.6022Z" fill="#383739"/>
<path d="M6.7777 20.228V20.3763H6.52733V20.2784H6.6073V20.1856H6.43517V20.4691H6.86986V20.2479H7.09769V19.958H6.89431V20.0508H7.0055V20.1551H6.83575L5.94497 19.6122V19.464H6.19534V19.5618H6.11539V19.6546H6.2875V19.3711H5.85281V19.5923H5.625V19.8822H5.82835V19.7893H5.71716V19.6851H5.88691L6.7777 20.228ZM6.83575 19.6851H7.00553V19.7893H6.89431V19.8822H7.09769V19.5923H6.86988V19.3711H6.43519V19.6546H6.6073V19.5618H6.52735V19.464H6.7777V19.6122L5.88691 20.1551H5.71716V20.0508H5.82835V19.958H5.625V20.2479H5.85281V20.4691H6.2875V20.1856H6.11539V20.2784H6.19534V20.3762H5.94497V20.228L6.83575 19.6851Z" fill="white"/>
<path d="M8.32098 19.9961V20.4666H8.12077V20.3004H7.91896V20.4666H7.71875V19.9961H7.91896V20.1622H8.12077V19.9961H8.32098Z" fill="#383739"/>
<path d="M7.60614 20.6211V21.0916H7.40593V20.9254H7.20411V21.0916H7.00391V20.6211H7.20411V20.7873H7.40593V20.6211H7.60614Z" fill="#383739"/>
<path d="M8.32098 19.8455V19.375H8.12077V19.5412H7.91896V19.375H7.71875V19.8455H7.91896V19.6793H8.12077V19.8455H8.32098Z" fill="#383739"/>
<path d="M4.39844 19.9961V20.4666H4.59865V20.3004H4.80046V20.4666H5.00067V19.9961H4.80046V20.1622H4.59865V19.9961H4.39844Z" fill="#383739"/>
<path d="M4.39844 19.8455V19.375H4.59865V19.5412H4.80046V19.375H5.00067V19.8455H4.80046V19.6793H4.59865V19.8455H4.39844Z" fill="#383739"/>
<path d="M7.60614 19.2205V18.75H7.40593V18.9162H7.20411V18.75H7.00391V19.2205H7.20411V19.0543H7.40593V19.2205H7.60614Z" fill="#383739"/>
<path d="M5.11328 20.6211V21.0916H5.31349V20.9254H5.51531V21.0916H5.71551V20.6211H5.51531V20.7873H5.31349V20.6211H5.11328Z" fill="#383739"/>
<path d="M5.11328 19.2205V18.75H5.31349V18.9162H5.51531V18.75H5.71551V19.2205H5.51531V19.0543H5.31349V19.2205H5.11328Z" fill="#383739"/>
<path d="M7.72656 18.8906V19.2479H8.39045L7.72656 18.8906Z" fill="#383739"/>
<path d="M4.99592 20.951V20.5938H4.33203L4.99592 20.951Z" fill="#383739"/>
<path d="M4.99592 18.8906V19.2479H4.33203L4.99592 18.8906Z" fill="#383739"/>
<path d="M7.72656 20.951V20.5938H8.39045L7.72656 20.951Z" fill="#383739"/>
<path d="M8.1364 20.2817V20.4479H8.30234V20.0117H8.1364V20.1779H7.90029V20.0117H7.73438V20.4479H7.90029V20.2817H8.1364Z" fill="#D22630"/>
<path d="M7.42156 20.9067V21.0729H7.58747V20.6367H7.42156V20.8029H7.18544V20.6367H7.01953V21.0729H7.18544V20.9067H7.42156Z" fill="#D22630"/>
<path d="M8.1364 19.5568V19.3906H8.30234V19.8268H8.1364V19.6606H7.90029V19.8268H7.73438V19.3906H7.90029V19.5568H8.1364Z" fill="#D22630"/>
<path d="M4.57997 20.2817V20.4479H4.41406V20.0117H4.57997V20.1779H4.81609V20.0117H4.982V20.4479H4.81609V20.2817H4.57997Z" fill="#D22630"/>
<path d="M4.57997 19.5568V19.3906H4.41406V19.8268H4.57997V19.6606H4.81609V19.8268H4.982V19.3906H4.81609V19.5568H4.57997Z" fill="#D22630"/>
<path d="M7.42156 18.9318V18.7656H7.58747V19.2018H7.42156V19.0356H7.18544V19.2018H7.01953V18.7656H7.18544V18.9318H7.42156Z" fill="#D22630"/>
<path d="M5.29482 20.9067V21.0729H5.12891V20.6367H5.29482V20.8029H5.53093V20.6367H5.69687V21.0729H5.53093V20.9067H5.29482Z" fill="#D22630"/>
<path d="M5.29482 18.9318V18.7656H5.12891V19.2018H5.29482V19.0356H5.53093V19.2018H5.69687V18.7656H5.53093V18.9318H5.29482Z" fill="#D22630"/>
<path d="M7.74167 18.9199V19.2314H8.32011L7.74167 18.9199ZM4.39847 20.6106L4.97686 20.9221V20.6106H4.39847Z" fill="#FFC72C"/>
<path d="M4.97683 18.9199L4.39844 19.2314H4.97683V18.9199ZM7.74164 20.6106V20.9221L8.32008 20.6106H7.74164Z" fill="white"/>
<path d="M9.07378 21.233C9.04181 21.3693 8.93345 21.4721 8.90763 21.6135C8.85593 21.4661 8.80827 21.3425 8.84386 21.1813C8.86932 21.066 8.96633 20.9837 8.97757 20.8652C9.08333 20.9603 9.10611 21.0952 9.07378 21.233ZM9.10059 21.804C9.01088 21.927 8.88617 22.0214 8.74846 22.0843C8.77558 21.9765 8.7247 21.8954 8.66823 21.8099C8.60019 21.7069 8.56702 21.6058 8.62248 21.4872C8.64833 21.5489 8.68306 21.6 8.72381 21.6527C8.78408 21.735 8.8237 21.8081 8.83299 21.9135C8.90269 21.8619 8.93331 21.7847 8.97058 21.7101C9.02739 21.6032 9.11907 21.5138 9.22438 21.4554C9.1964 21.5753 9.17484 21.7021 9.10059 21.804ZM8.59745 22.1706C8.61663 22.2389 8.63317 22.3067 8.62947 22.3781C8.68875 22.3142 8.76747 22.2661 8.83769 22.2147C8.93333 22.1373 9.04481 22.0828 9.12301 21.9843C9.11134 22.1292 9.0493 22.2474 8.93151 22.3356C8.807 22.4288 8.65683 22.4789 8.53419 22.5768C8.55255 22.4449 8.50412 22.3393 8.46281 22.2181C8.4284 22.1023 8.46171 21.9848 8.54024 21.8965C8.53906 21.9943 8.56993 22.0783 8.59745 22.1706ZM8.31802 22.616C8.29222 22.716 8.22056 22.7973 8.17162 22.8865C8.30357 22.8456 8.42 22.7741 8.53928 22.7067C8.68136 22.6294 8.83563 22.5801 8.96425 22.478C8.90024 22.7149 8.7416 22.8523 8.50952 22.9224C8.35083 22.9703 8.2171 22.9464 8.02455 23.0242C8.04663 22.8939 8.08553 22.7532 8.14717 22.6356C8.195 22.5506 8.24804 22.4668 8.27758 22.3732C8.32037 22.4501 8.34063 22.5283 8.31802 22.616ZM7.83248 22.9786C7.78705 23.0564 7.72707 23.1219 7.65269 23.1736C7.84001 23.1855 7.99076 23.0668 8.17337 23.0616C8.28617 23.0585 8.39326 23.0935 8.50829 23.083C8.37178 23.1751 8.22886 23.2555 8.06266 23.277C7.84661 23.305 7.64737 23.2506 7.40902 23.2719C7.52041 23.1933 7.57613 23.088 7.64557 22.9749C7.73597 22.8336 7.82129 22.7329 7.99714 22.7102C7.92656 22.7895 7.88547 22.8878 7.83248 22.9786ZM7.16722 23.2895C7.49722 23.3456 7.81345 23.4182 8.15048 23.4215C7.77322 23.553 7.41776 23.5768 7.0436 23.441C6.8414 23.3676 6.68636 23.3284 6.53365 23.3393C6.31047 23.3553 6.03925 23.4434 5.73908 23.76L5.62109 23.6656C6.05131 23.2822 6.61421 23.1954 7.1672 23.2895L7.16722 23.2895Z" fill="#FFC72C"/>
</g>
<defs>
<clipPath id="clip0_358_4781">
<rect width="24" height="24" rx="12" fill="white"/>
</clipPath>
</defs>
</svg>
