<svg width="24" height="24" viewBox="0 0 24 24" fill="none" xmlns="http://www.w3.org/2000/svg">
<g clip-path="url(#clip0_358_15066)">
<path d="M-6 0H30V24H-6V0Z" fill="#E70013"/>
<path d="M12 18C15.3137 18 18 15.3137 18 12C18 8.68629 15.3137 6 12 6C8.68629 6 6 8.68629 6 12C6 15.3137 8.68629 18 12 18Z" fill="white"/>
<path d="M12 16.5C14.4853 16.5 16.5 14.4853 16.5 12C16.5 9.51472 14.4853 7.5 12 7.5C9.51472 7.5 7.5 9.51472 7.5 12C7.5 14.4853 9.51472 16.5 12 16.5Z" fill="#E70013"/>
<path d="M13.2016 15.6004C15.1898 15.6004 16.8016 13.9886 16.8016 12.0004C16.8016 10.0122 15.1898 8.40039 13.2016 8.40039C11.2133 8.40039 9.60156 10.0122 9.60156 12.0004C9.60156 13.9886 11.2133 15.6004 13.2016 15.6004Z" fill="white"/>
<path d="M10.5 11.9996L15.3843 10.4126L12.366 14.5676V9.43164L15.384 13.5866L10.5 11.9996Z" fill="#E70013"/>
</g>
<defs>
<clipPath id="clip0_358_15066">
<rect width="24" height="24" rx="12" fill="white"/>
</clipPath>
</defs>
</svg>
