<svg width="24" height="24" viewBox="0 0 24 24" fill="none" xmlns="http://www.w3.org/2000/svg">
<g clip-path="url(#clip0_358_4778)">
<path d="M-6 0H30V24H-6V0Z" fill="#E30A17"/>
<path d="M16.8335 12L25.8789 10.2368L20.2882 14.8532V9.1468L25.8789 13.7632L16.8335 12ZM17.4502 15.2084C16.2917 16.3069 14.5698 17.1499 12.5438 17.6106C10.5178 18.0713 8.29727 18.1247 6.2163 17.7628C4.13533 17.401 2.30653 16.6434 1.0051 15.6041C-0.296339 14.5648 -1 13.3 -1 12C-1 10.7 -0.296339 9.43524 1.0051 8.39593C2.30653 7.35662 4.13533 6.59903 6.2163 6.23716C8.29727 5.87529 10.5178 5.92871 12.5438 6.3894C14.5698 6.85008 16.2917 7.6931 17.4502 8.7916C16.3683 8.06927 14.9467 7.56083 13.3731 7.33343C11.7995 7.10604 10.1479 7.17039 8.63655 7.51799C7.12519 7.86559 5.82509 8.48008 4.90799 9.2803C3.99089 10.0805 3.49991 11.0288 3.49991 12C3.49991 12.9712 3.99089 13.9195 4.90799 14.7197C5.82509 15.5199 7.12519 16.1344 8.63655 16.482C10.1479 16.8296 11.7995 16.894 13.3731 16.6666C14.9467 16.4392 16.3683 15.9307 17.4502 15.2084Z" fill="white"/>
</g>
<defs>
<clipPath id="clip0_358_4778">
<rect width="24" height="24" rx="12" fill="white"/>
</clipPath>
</defs>
</svg>
