<svg width="24" height="24" viewBox="0 0 24 24" fill="none" xmlns="http://www.w3.org/2000/svg">
<rect width="24" height="24" rx="12" fill="#009CDE"/>
<path d="M24 4.19922H0V20.2287H24V4.19922Z" fill="#012169"/>
<mask id="mask0_358_13927" style="mask-type:luminance" maskUnits="userSpaceOnUse" x="0" y="4" width="13" height="10">
<path d="M0 4.19922H13V13.5498H0V4.19922Z" fill="white"/>
</mask>
<g mask="url(#mask0_358_13927)">
<path d="M0 4.19922L12 12.214L0 4.19922ZM12 4.19922L0 12.214L12 4.19922Z" fill="black"/>
<path d="M0 4.19922L12 12.214M12 4.19922L0 12.214" stroke="white" stroke-width="2.31153"/>
</g>
<mask id="mask1_358_13927" style="mask-type:luminance" maskUnits="userSpaceOnUse" x="0" y="4" width="13" height="10">
<path d="M0 4.19922V8.2066H13V12.214H12L0 4.19922ZM0 12.214V13.5498H6V4.19922H12L0 12.214Z" fill="white"/>
</mask>
<g mask="url(#mask1_358_13927)">
<path d="M0 4.19922L12 12.214L0 4.19922ZM12 4.19922L0 12.214L12 4.19922Z" fill="black"/>
<path d="M0 4.19922L12 12.214M12 4.19922L0 12.214" stroke="#C8102E" stroke-width="1.54102"/>
</g>
<path d="M0 8.2066H13H0ZM6 4.19922V13.5498V4.19922Z" fill="black"/>
<path d="M0 8.2066H13M6 4.19922V13.5498" stroke="white" stroke-width="3.85255"/>
<path d="M0 8.2066H13H0ZM6 4.19922V13.5498V4.19922Z" fill="black"/>
<path d="M0 8.2066H13M6 4.19922V13.5498" stroke="#C8102E" stroke-width="2.31153"/>
<path d="M0 12.214H12V4.19922H24V20.2287H0V12.214Z" fill="#009CDE"/>
<path d="M8.38759 17.9141L9.12204 20.1745L7.19922 18.7775H9.57596L7.65313 20.1745L8.38759 17.9141Z" fill="#FEDD00"/>
<path d="M12.6807 17.2422L11.9462 19.5026L11.2117 17.2422L13.1346 18.6392L10.7578 18.6392L12.6807 17.2422Z" fill="#FEDD00"/>
<path d="M12.6807 14.1992L11.9462 16.4596L11.2117 14.1992L13.1346 15.5962L10.7578 15.5963L12.6807 14.1992Z" fill="#FEDD00"/>
<path d="M15.8252 16.4746L15.0907 18.735L14.3563 16.4746L16.2791 17.8716L13.9023 17.8716L15.8252 16.4746Z" fill="#FEDD00"/>
<path d="M15.8252 9.85156L15.0907 12.112L14.3563 9.85156L16.2791 11.2486L13.9023 11.2486L15.8252 9.85156Z" fill="#FEDD00"/>
<path d="M17.1493 14.1484L17.8838 16.4089L15.9609 15.0118H18.3377L16.4149 16.4089L17.1493 14.1484Z" fill="#FEDD00"/>
<path d="M18.4697 8.94922L17.7353 11.2096L17.0008 8.94922L18.9236 10.3462L16.5469 10.3463L18.4697 8.94922Z" fill="#FEDD00"/>
<path d="M19.8017 12.4395L20.5361 14.6999L18.6133 13.3029H20.99L19.0672 14.6999L19.8017 12.4395Z" fill="#FEDD00"/>
<path d="M19.8017 6.59961L20.5361 8.86002L18.6133 7.46301H20.99L19.0672 8.86005L19.8017 6.59961Z" fill="#FEDD00"/>
</svg>
