<svg width="24" height="24" viewBox="0 0 24 24" fill="none" xmlns="http://www.w3.org/2000/svg">
<g clip-path="url(#clip0_358_15072)">
<path d="M-6 0H30V24H-6V0Z" fill="black"/>
<path d="M-6 4H30V10H-6V4ZM-6 16H30V24H-6V16Z" fill="#FCDC04"/>
<path d="M-6 8H30V12H-6V8ZM-6 20H30V24H-6V20Z" fill="#D90000"/>
<path d="M11.9978 15.7398C14.0634 15.7398 15.7378 14.0653 15.7378 11.9998C15.7378 9.93422 14.0634 8.25977 11.9978 8.25977C9.93227 8.25977 8.25781 9.93422 8.25781 11.9998C8.25781 14.0653 9.93227 15.7398 11.9978 15.7398Z" fill="white"/>
<path d="M11.3402 9.13426L11.0977 8.68745C11.1913 8.59384 11.3487 8.52148 11.5998 8.52148C11.5998 8.53851 11.5743 9.01086 11.5743 9.01086L11.3402 9.13426Z" fill="#D90000" stroke="black" stroke-width="0.0666667"/>
<path d="M11.5742 9.01582L11.6083 8.52219C11.6083 8.52219 12.1104 8.49243 12.3827 8.82006C12.387 8.81581 12.1147 9.20303 12.1147 9.20303L11.5742 9.01582Z" fill="#FCDC04" stroke="black" stroke-width="0.0666667"/>
<path d="M12.1211 9.19937L12.3679 8.81641C12.5339 8.99088 12.6019 9.11428 12.6275 9.30152C12.6317 9.30578 12.236 9.39939 12.236 9.39513C12.236 9.39087 12.1254 9.20363 12.1211 9.19937Z" fill="#D90000" stroke="black" stroke-width="0.0666667"/>
<path d="M11.4623 15.5225C11.4623 15.5225 11.9262 14.9906 12.8283 15.1055C12.6921 14.8842 12.2538 14.9097 12.2538 14.9097C12.2538 14.9097 12.1177 13.8757 12.224 13.8246C12.3304 13.7735 12.7815 13.8289 12.7815 13.8289C12.841 13.8289 12.9432 13.6672 12.8623 13.5651C12.7815 13.4629 12.5432 13.0714 12.641 12.9948C12.7389 12.9182 13.2708 13.0374 13.2708 13.0374L11.7687 11.114C11.7687 11.114 11.6155 10.3906 11.9219 10.0416C12.2921 9.73522 12.2538 9.40329 12.2411 9.40755C12.19 9.07137 11.6794 8.82879 11.3347 9.13947C11.1304 9.38627 11.2666 9.57351 11.2666 9.57351C11.2666 9.57351 10.7304 9.71819 10.7091 9.8118C10.6878 9.90544 11.3134 9.79481 11.3134 9.79481L11.2538 10.2246C11.2538 10.2246 10.0368 11.331 10.9687 12.2884C10.9772 12.2842 10.9985 12.2459 10.9985 12.2459C10.9985 12.2459 11.3262 12.6501 11.6708 12.7395C11.9942 13.0714 11.9645 13.0203 11.9645 13.0203C11.9645 13.0203 12.0283 13.5438 11.9687 13.6459C11.8879 13.6204 11.0623 13.5906 10.9389 13.6374C10.8283 13.6714 10.4027 13.6501 10.5091 14.3438C10.5899 14.1565 10.6623 13.9906 10.6623 13.9906C10.6623 13.9906 10.6495 14.2416 10.7517 14.331C10.7347 14.0672 10.8495 13.8885 10.8495 13.8885C10.8495 13.8885 10.8708 14.1778 10.9346 14.2204C10.9985 14.2629 10.9985 13.7523 11.3517 13.7948C11.7049 13.8374 11.9602 13.8246 11.9602 13.8246C11.9602 13.8246 12.0794 14.8246 12.041 14.9183C11.7857 14.8587 11.1772 14.9438 11.1389 15.097C11.4963 15.0757 11.6623 15.1182 11.6623 15.1182C11.6623 15.1182 11.373 15.3736 11.4623 15.5225Z" fill="black" stroke="black" stroke-width="0.0666667"/>
<path d="M11.607 10.0664C11.607 10.0664 10.7214 11.0425 11.1035 11.7894C11.1238 11.6853 11.115 11.6198 11.1277 11.6241C11.1064 11.6113 11.2375 11.7139 11.2276 11.694C11.2304 11.64 11.1876 11.5242 11.1876 11.5242C11.2276 11.5342 11.2675 11.5442 11.3075 11.5542C11.2842 11.5109 11.2608 11.4677 11.2375 11.4244C11.2941 11.431 11.3507 11.4377 11.4073 11.4443C11.4073 11.4443 11.3474 11.2846 11.3674 11.2846C11.3873 11.2846 11.5071 11.2946 11.5071 11.2946C11.2553 10.8426 11.4929 10.4673 11.607 10.0664Z" fill="#9CA69C" stroke="#9CA69C" stroke-width="0.0666667"/>
<path d="M11.914 9.22852C11.914 9.22852 11.9608 9.5647 11.7778 9.66256C11.748 9.68384 11.6331 9.72215 11.6501 9.79025C11.6714 9.88385 11.7225 9.86683 11.7948 9.8498C11.9863 9.81575 12.2076 9.40725 11.914 9.22852Z" fill="#9CA69C" stroke="#9CA69C" stroke-width="0.0666667"/>
<path d="M11.5173 9.59127C11.5571 9.59127 11.5893 9.55903 11.5893 9.51927C11.5893 9.4795 11.5571 9.44727 11.5173 9.44727C11.4775 9.44727 11.4453 9.4795 11.4453 9.51927C11.4453 9.55903 11.4775 9.59127 11.5173 9.59127Z" fill="white"/>
<path d="M11.3007 9.79883C11.2539 9.83713 11.0071 10.0925 11.2496 10.1861C11.5007 10.118 11.4326 10.0712 11.488 10.0159C11.4894 9.90098 11.3631 9.87118 11.3007 9.79883Z" fill="#D90000" stroke="black" stroke-width="0.0666667"/>
<path d="M11.8359 12.2109C11.8232 12.2663 11.7679 12.4705 11.8445 12.628C12.0572 12.5386 12.1551 12.5641 12.2275 12.6109C12.053 12.4705 11.9849 12.4109 11.8359 12.2109Z" fill="#9CA69C" stroke="#9CA69C" stroke-width="0.0666667"/>
<path d="M12.2031 13.1777L12.2159 13.6543C12.2159 13.6543 12.3819 13.6841 12.4584 13.6543C12.535 13.6245 12.4542 13.3224 12.2031 13.1777Z" fill="white" stroke="white" stroke-width="0.0666667"/>
<path d="M13.4056 13.2379C13.4056 13.2379 13.0992 12.4974 12.3162 12.3102C11.5332 12.1229 11.6353 11.2889 11.6992 11.2378C11.7332 11.1655 11.7587 11.0548 11.9843 11.1613C12.2098 11.2676 13.2481 11.791 13.3971 11.8166C13.546 11.8421 13.4183 13.2549 13.4056 13.2379Z" fill="#9CA69C" stroke="black" stroke-width="0.0666667"/>
<path d="M12.6642 12.305C12.6514 12.3135 13.711 12.9305 13.3918 13.4625C13.694 13.2625 13.5961 12.9135 13.5961 12.9135C13.5961 12.9135 13.8429 13.5561 13.2429 13.871C13.3067 13.9263 13.3493 13.9135 13.3493 13.9135L13.2472 14.0157C13.2472 14.0157 13.2003 14.0923 13.6046 13.8965C13.494 13.9859 13.4855 14.0497 13.4855 14.0497C13.4855 14.0497 13.5152 14.1348 13.7791 13.905C13.5663 14.1348 13.5195 14.254 13.5195 14.2497C14.094 14.1986 15.345 12.3306 13.1238 11.7773C13.2429 11.9008 13.2259 11.8838 13.2259 11.8838L12.6642 12.305Z" fill="#D90000" stroke="black" stroke-width="0.0666667"/>
<path d="M12.709 12.1216C12.8537 12.2237 12.9048 12.2577 12.9218 12.3088C12.7899 12.279 12.6707 12.2875 12.6707 12.2875C12.6707 12.2875 12.3856 12.0152 12.3346 11.9939C12.2963 11.9939 12.075 11.8535 12.075 11.8535C11.9644 11.7981 11.8622 11.4152 12.2707 11.5258C12.692 11.7258 12.7516 11.7428 12.7516 11.7428C12.919 11.7953 13.0863 11.8478 13.2537 11.9003C13.3502 12.0081 13.4466 12.1159 13.5431 12.2237C13.5431 12.2237 13.0282 11.9684 12.9644 11.9641C13.1048 12.079 13.1857 12.2364 13.1857 12.2364C13.0225 12.1896 12.8807 12.1471 12.709 12.1216Z" fill="white" stroke="black" stroke-width="0.0666667"/>
<path d="M10.7031 9.8362C10.7031 9.8362 11.1968 9.71706 11.2563 9.73409L10.7031 9.8362Z" fill="black"/>
<path d="M10.7031 9.8362C10.7031 9.8362 11.1968 9.71706 11.2563 9.73409" stroke="white" stroke-width="0.0666667"/>
</g>
<defs>
<clipPath id="clip0_358_15072">
<rect width="24" height="24" rx="12" fill="white"/>
</clipPath>
</defs>
</svg>
