<svg width="24" height="24" viewBox="0 0 24 24" fill="none" xmlns="http://www.w3.org/2000/svg">
<g clip-path="url(#clip0_358_13424)">
<path d="M30 0H-6V24H30V0Z" fill="#B22234"/>
<path d="M-6 2.76953H30.0351H-6ZM30.0351 6.46184H-6H30.0351ZM-6 10.1541H30.0351H-6ZM30.0351 13.8465H-6H30.0351ZM-6 17.5388H30.0351H-6ZM30.0351 21.2311H-6H30.0351Z" fill="black"/>
<path d="M-6 2.76953H30.0351M30.0351 6.46184H-6M-6 10.1541H30.0351M30.0351 13.8465H-6M-6 17.5388H30.0351M30.0351 21.2311H-6" stroke="white" stroke-width="2.73525"/>
<path d="M12.24 0H-6V13.0256H12.24V0Z" fill="#3C3B6E"/>
<path d="M0.0812251 1.84766L0.515282 3.18355L-0.621094 2.35792H0.783544L-0.352832 3.18355L0.0812251 1.84766Z" fill="white"/>
<path d="M0.0812251 4.43164L0.515282 5.76753L-0.621094 4.94191H0.783544L-0.352832 5.76753L0.0812251 4.43164Z" fill="white"/>
<path d="M0.0812251 7.01758L0.515282 8.35347L-0.621094 7.52784H0.783544L-0.352832 8.35347L0.0812251 7.01758Z" fill="white"/>
<path d="M0.0812251 9.60156L0.515282 10.9375L-0.621094 10.1118H0.783544L-0.352832 10.9375L0.0812251 9.60156Z" fill="white"/>
<path d="M1.60076 0.554688L2.03481 1.89058L0.898438 1.06495H2.30308L1.1667 1.89058L1.60076 0.554688Z" fill="white"/>
<path d="M1.60076 3.13867L2.03481 4.47456L0.898438 3.64894H2.30308L1.1667 4.47456L1.60076 3.13867Z" fill="white"/>
<path d="M1.60076 5.72461L2.03481 7.0605L0.898438 6.23487H2.30308L1.1667 7.0605L1.60076 5.72461Z" fill="white"/>
<path d="M1.60076 8.30859L2.03481 9.64448L0.898438 8.81886H2.30308L1.1667 9.64448L1.60076 8.30859Z" fill="white"/>
<path d="M1.60076 10.8926L2.03481 12.2285L0.898438 11.4028H2.30308L1.1667 12.2285L1.60076 10.8926Z" fill="white"/>
<path d="M3.12029 1.84766L3.55434 3.18355L2.41797 2.35792H3.82261L2.68623 3.18355L3.12029 1.84766Z" fill="white"/>
<path d="M3.12029 4.43164L3.55434 5.76753L2.41797 4.94191H3.82261L2.68623 5.76753L3.12029 4.43164Z" fill="white"/>
<path d="M3.12029 7.01758L3.55434 8.35347L2.41797 7.52784H3.82261L2.68623 8.35347L3.12029 7.01758Z" fill="white"/>
<path d="M3.12029 9.60156L3.55434 10.9375L2.41797 10.1118H3.82261L2.68623 10.9375L3.12029 9.60156Z" fill="white"/>
<path d="M4.63982 0.554688L5.07388 1.89058L3.9375 1.06495H5.34214L4.20576 1.89058L4.63982 0.554688Z" fill="white"/>
<path d="M4.63982 3.13867L5.07388 4.47456L3.9375 3.64894H5.34214L4.20576 4.47456L4.63982 3.13867Z" fill="white"/>
<path d="M4.63982 5.72461L5.07388 7.0605L3.9375 6.23487H5.34214L4.20576 7.0605L4.63982 5.72461Z" fill="white"/>
<path d="M4.63982 8.30859L5.07388 9.64448L3.9375 8.81886H5.34214L4.20576 9.64448L4.63982 8.30859Z" fill="white"/>
<path d="M4.63982 10.8926L5.07388 12.2285L3.9375 11.4028H5.34214L4.20576 12.2285L4.63982 10.8926Z" fill="white"/>
<path d="M6.15935 1.84766L6.59341 3.18355L5.45703 2.35792H6.86167L5.72529 3.18355L6.15935 1.84766Z" fill="white"/>
<path d="M6.15935 4.43164L6.59341 5.76753L5.45703 4.94191H6.86167L5.72529 5.76753L6.15935 4.43164Z" fill="white"/>
<path d="M6.15935 7.01758L6.59341 8.35347L5.45703 7.52784H6.86167L5.72529 8.35347L6.15935 7.01758Z" fill="white"/>
<path d="M6.15935 9.60156L6.59341 10.9375L5.45703 10.1118H6.86167L5.72529 10.9375L6.15935 9.60156Z" fill="white"/>
<path d="M7.67888 0.554688L8.11294 1.89058L6.97656 1.06495H8.3812L7.24482 1.89058L7.67888 0.554688Z" fill="white"/>
<path d="M7.67888 3.13867L8.11294 4.47456L6.97656 3.64894H8.3812L7.24482 4.47456L7.67888 3.13867Z" fill="white"/>
<path d="M7.67888 5.72461L8.11294 7.0605L6.97656 6.23487H8.3812L7.24482 7.0605L7.67888 5.72461Z" fill="white"/>
<path d="M7.67888 8.30859L8.11294 9.64448L6.97656 8.81886H8.3812L7.24482 9.64448L7.67888 8.30859Z" fill="white"/>
<path d="M7.67888 10.8926L8.11294 12.2285L6.97656 11.4028H8.3812L7.24482 12.2285L7.67888 10.8926Z" fill="white"/>
<path d="M9.19841 1.84766L9.63247 3.18355L8.49609 2.35792H9.90073L8.76436 3.18355L9.19841 1.84766Z" fill="white"/>
<path d="M9.19841 4.43164L9.63247 5.76753L8.49609 4.94191H9.90073L8.76436 5.76753L9.19841 4.43164Z" fill="white"/>
<path d="M9.19841 7.01758L9.63247 8.35347L8.49609 7.52784H9.90073L8.76436 8.35347L9.19841 7.01758Z" fill="white"/>
<path d="M9.19841 9.60156L9.63247 10.9375L8.49609 10.1118H9.90073L8.76436 10.9375L9.19841 9.60156Z" fill="white"/>
<path d="M10.7219 0.554688L11.1559 1.89058L10.0195 1.06495H11.4242L10.2878 1.89058L10.7219 0.554688Z" fill="white"/>
<path d="M10.7219 3.13867L11.1559 4.47456L10.0195 3.64894H11.4242L10.2878 4.47456L10.7219 3.13867Z" fill="white"/>
<path d="M10.7219 5.72461L11.1559 7.0605L10.0195 6.23487H11.4242L10.2878 7.0605L10.7219 5.72461Z" fill="white"/>
<path d="M10.7219 8.30859L11.1559 9.64448L10.0195 8.81886H11.4242L10.2878 9.64448L10.7219 8.30859Z" fill="white"/>
<path d="M10.7219 10.8926L11.1559 12.2285L10.0195 11.4028H11.4242L10.2878 12.2285L10.7219 10.8926Z" fill="white"/>
</g>
<defs>
<clipPath id="clip0_358_13424">
<rect width="24" height="24" rx="12" fill="white"/>
</clipPath>
</defs>
</svg>
