<svg width="24" height="24" viewBox="0 0 24 24" fill="none" xmlns="http://www.w3.org/2000/svg">
<g clip-path="url(#clip0_358_13329)">
<path d="M-0.601562 0H35.3984V24H-0.601562V0Z" fill="white"/>
<path d="M12.7305 2.66602H35.3971V5.33268H12.7305V2.66602Z" fill="#0038A8"/>
<path d="M12.7305 8H35.3971V10.6667H12.7305V8Z" fill="#0038A8"/>
<path d="M-0.601562 13.332H35.3984V15.9987H-0.601562V13.332Z" fill="#0038A8"/>
<path d="M-0.601562 18.666H35.3984V21.3327H-0.601562V18.666Z" fill="#0038A8"/>
<path d="M6.78686 8.03711L7.09651 8.4995C5.8241 9.42031 6.60093 9.96483 5.69922 10.2596C6.26005 9.71226 5.62509 9.62785 6.09761 8.48708" fill="#FCD116"/>
<path d="M6.78686 8.03711L7.09651 8.4995C5.8241 9.42031 6.60093 9.96483 5.69922 10.2596C6.26005 9.71226 5.62509 9.62785 6.09761 8.48708" stroke="#7B3F00" stroke-width="0.111627" stroke-miterlimit="20" stroke-linecap="square"/>
<path d="M6.20109 7.61834L6.09309 8.16426C4.54225 7.91565 4.70651 8.84997 3.86049 8.42079C4.64407 8.43034 4.27248 7.91472 5.41324 7.4422" fill="#FCD116"/>
<path d="M6.20109 7.61834L6.09309 8.16426C4.54225 7.91565 4.70651 8.84997 3.86049 8.42079C4.64407 8.43034 4.27248 7.91472 5.41324 7.4422" stroke="#7B3F00" stroke-width="0.111661" stroke-miterlimit="20" stroke-linecap="square"/>
<path d="M6.1995 7.61836L5.95517 7.57433L5.95768 7.58443C5.30582 7.74417 4.95188 8.01441 4.67465 8.21979C4.53597 8.32245 4.41632 8.40976 4.28656 8.45705C4.20062 8.48891 4.10837 8.50003 4.01733 8.4895C4.69025 8.72854 4.64569 7.93263 6.09154 8.16437L6.1995 7.61836Z" fill="#7B3F00" stroke="#7B3F00" stroke-width="0.050806" stroke-miterlimit="20" stroke-linecap="square"/>
<path d="M5.9491 7.55501C4.63451 7.87678 4.51021 8.6522 3.85769 8.42129" stroke="#7B3F00" stroke-width="0.111661" stroke-miterlimit="20"/>
<path d="M6.9987 7.1221L6.56214 6.68555L4.59766 9.52314L7.43525 7.55865L6.9987 7.1221L4.59766 9.52314L6.9987 7.1221Z" fill="#FCD116"/>
<path d="M6.9987 7.1221L6.56214 6.68555L4.59766 9.52314M6.9987 7.1221L7.43525 7.55865L4.59766 9.52314M6.9987 7.1221L4.59766 9.52314" stroke="#7B3F00" stroke-width="0.111627" stroke-miterlimit="20"/>
<path d="M6.08353 6.91065L5.62114 7.22031C4.70033 5.9479 4.15581 6.72472 3.86106 5.82301C4.40838 6.38384 4.49804 5.74993 5.6388 6.22245" fill="#FCD116"/>
<path d="M6.08353 6.91065L5.62114 7.22031C4.70033 5.9479 4.15581 6.72472 3.86106 5.82301C4.40838 6.38384 4.49804 5.74993 5.6388 6.22245" stroke="#7B3F00" stroke-width="0.111661" stroke-miterlimit="20" stroke-linecap="square"/>
<path d="M6.08175 6.91133L5.94012 6.70743L5.93476 6.71634C5.36086 6.36837 4.9195 6.30918 4.57825 6.25837C4.40759 6.2329 4.26125 6.21004 4.13605 6.15172C4.05276 6.11348 3.97967 6.05611 3.92274 5.98429C4.22954 6.62915 4.76082 6.03485 5.61933 7.22108L6.08175 6.91133Z" fill="#7B3F00" stroke="#7B3F00" stroke-width="0.050806" stroke-miterlimit="20" stroke-linecap="square"/>
<path d="M5.95325 6.68977C4.79617 5.98775 4.15997 6.44815 3.86184 5.82348" stroke="#7B3F00" stroke-width="0.111661" stroke-miterlimit="20"/>
<path d="M6.99609 7.12324V6.50586L3.60051 7.12324L6.99609 7.74062V7.12324H3.60051H6.99609Z" fill="#FCD116"/>
<path d="M6.99609 7.12324V6.50586L3.60051 7.12324M6.99609 7.12324V7.74062L3.60051 7.12324M6.99609 7.12324H3.60051" stroke="#7B3F00" stroke-width="0.111661" stroke-miterlimit="20"/>
<path d="M6.99609 7.12305H3.60051L6.99609 7.74043" fill="#7B3F00"/>
<path d="M6.50134 6.32432L5.95542 6.21632C6.20404 4.66547 5.26971 4.82974 5.6989 3.98372C5.68934 4.76729 6.23142 4.45836 6.70394 5.59913" fill="#FCD116"/>
<path d="M6.50134 6.32432L5.95542 6.21632C6.20404 4.66547 5.26971 4.82974 5.6989 3.98372C5.68934 4.76729 6.23142 4.45836 6.70394 5.59913" stroke="#7B3F00" stroke-width="0.111661" stroke-miterlimit="20" stroke-linecap="square"/>
<path d="M6.50176 6.3245L6.54579 6.08017L6.53569 6.08268C6.37594 5.43082 6.10571 5.07688 5.90033 4.79965C5.79767 4.66097 5.71035 4.54132 5.66306 4.41156C5.63121 4.32562 5.62009 4.23337 5.63062 4.14233C5.39158 4.81525 6.18749 4.77069 5.95575 6.21654L6.50176 6.3245Z" fill="#7B3F00" stroke="#7B3F00" stroke-width="0.050806" stroke-miterlimit="20" stroke-linecap="square"/>
<path d="M6.56511 6.0741C6.24334 4.75951 5.46792 4.63521 5.69882 3.98269" stroke="#7B3F00" stroke-width="0.111661" stroke-miterlimit="20"/>
<path d="M6.99704 7.1221L7.43359 6.68555L4.596 4.72106L6.56049 7.55865L6.99704 7.1221L4.596 4.72106L6.99704 7.1221Z" fill="#FCD116"/>
<path d="M6.99704 7.1221L7.43359 6.68555L4.596 4.72106M6.99704 7.1221L6.56049 7.55865L4.596 4.72106M6.99704 7.1221L4.596 4.72106" stroke="#7B3F00" stroke-width="0.111661" stroke-miterlimit="20"/>
<path d="M7 7.12109L4.59896 4.72006L6.56345 7.55765" fill="#7B3F00"/>
<path d="M7.20039 6.20727L6.89073 5.74488C8.16314 4.82406 7.38632 4.27955 8.28802 3.9848C7.7272 4.53212 8.35891 4.62238 7.88639 5.76314" fill="#FCD116"/>
<path d="M7.20039 6.20727L6.89073 5.74488C8.16314 4.82406 7.38632 4.27955 8.28802 3.9848C7.7272 4.53212 8.35891 4.62238 7.88639 5.76314" stroke="#7B3F00" stroke-width="0.111661" stroke-miterlimit="20" stroke-linecap="square"/>
<path d="M7.2 6.20675L7.4039 6.06512L7.39498 6.05976C7.74296 5.48586 7.80215 5.0445 7.85296 4.70325C7.87843 4.53259 7.90129 4.38625 7.95961 4.26105C7.99785 4.17776 8.05522 4.10467 8.12704 4.04774C7.48218 4.35454 8.07648 4.88582 6.89025 5.74433L7.2 6.20675Z" fill="#7B3F00" stroke="#7B3F00" stroke-width="0.050806" stroke-miterlimit="20" stroke-linecap="square"/>
<path d="M7.42351 6.07629C8.12554 4.91922 7.66513 4.28301 8.2898 3.98489" stroke="#7B3F00" stroke-width="0.111661" stroke-miterlimit="20"/>
<path d="M6.9959 7.12305H7.61328L6.9959 3.72747L6.37852 7.12305H6.9959V3.72747V7.12305Z" fill="#FCD116"/>
<path d="M6.9959 7.12305H7.61328L6.9959 3.72747M6.9959 7.12305H6.37852L6.9959 3.72747M6.9959 7.12305V3.72747" stroke="#7B3F00" stroke-width="0.111661" stroke-miterlimit="20"/>
<path d="M6.99609 7.12305V3.72747L6.37872 7.12305" fill="#7B3F00"/>
<path d="M7.78176 6.62569L7.88976 6.07977C9.4406 6.32839 9.27634 5.39406 10.1224 5.82324C9.33878 5.81369 9.68787 6.33189 8.54711 6.80441" fill="#FCD116"/>
<path d="M7.78176 6.62569L7.88976 6.07977C9.4406 6.32839 9.27634 5.39406 10.1224 5.82324C9.33878 5.81369 9.68787 6.33189 8.54711 6.80441" stroke="#7B3F00" stroke-width="0.111661" stroke-miterlimit="20" stroke-linecap="square"/>
<path d="M7.78097 6.62578L8.0253 6.66981L8.02279 6.65971C8.67465 6.49997 9.02859 6.22973 9.30582 6.02435C9.4445 5.92169 9.56415 5.83438 9.69391 5.78709C9.77985 5.75523 9.8721 5.74411 9.96314 5.75464C9.29022 5.5156 9.33477 6.31151 7.88893 6.07977L7.78097 6.62578Z" fill="#7B3F00" stroke="#7B3F00" stroke-width="0.050806" stroke-miterlimit="20" stroke-linecap="square"/>
<path d="M8.03137 6.68914C9.34596 6.36737 9.47026 5.59194 10.1228 5.82285" stroke="#7B3F00" stroke-width="0.111661" stroke-miterlimit="20"/>
<path d="M6.98532 7.12204L7.42188 7.55859L9.38636 4.721L6.54877 6.68549L6.98532 7.12204L9.38636 4.721L6.98532 7.12204Z" fill="#FCD116"/>
<path d="M6.98532 7.12204L7.42188 7.55859L9.38636 4.721M6.98532 7.12204L6.54877 6.68549L9.38636 4.721M6.98532 7.12204L9.38636 4.721" stroke="#7B3F00" stroke-width="0.111661" stroke-miterlimit="20"/>
<path d="M6.98438 7.12305L9.38541 4.72201L6.54782 6.68649" fill="#7B3F00"/>
<path d="M7.91223 7.33136L8.37462 7.0217C9.29543 8.29411 9.83995 7.51729 10.1347 8.419C9.58738 7.85817 9.48464 8.48573 8.34388 8.01321" fill="#FCD116"/>
<path d="M7.91223 7.33136L8.37462 7.0217C9.29543 8.29411 9.83995 7.51729 10.1347 8.419C9.58738 7.85817 9.48464 8.48573 8.34388 8.01321" stroke="#7B3F00" stroke-width="0.111661" stroke-miterlimit="20" stroke-linecap="square"/>
<path d="M7.91434 7.33184L8.05597 7.53574L8.06134 7.52682C8.63523 7.8748 9.07659 7.93399 9.41785 7.98479C9.5885 8.01026 9.73485 8.03312 9.86004 8.09144C9.94334 8.12968 10.0164 8.18705 10.0734 8.25888C9.76656 7.61402 9.23527 8.20832 8.37677 7.02209L7.91434 7.33184Z" fill="#7B3F00" stroke="#7B3F00" stroke-width="0.050806" stroke-miterlimit="20" stroke-linecap="square"/>
<path d="M8.04285 7.55339C9.19992 8.25542 9.83613 7.79501 10.1343 8.41968" stroke="#7B3F00" stroke-width="0.111661" stroke-miterlimit="20"/>
<path d="M6.99609 7.11993V7.7373L10.3917 7.11993L6.99609 6.50255V7.11993H10.3917H6.99609Z" fill="#FCD116"/>
<path d="M6.99609 7.11993V7.7373L10.3917 7.11993M6.99609 7.11993V6.50255L10.3917 7.11993M6.99609 7.11993H10.3917" stroke="#7B3F00" stroke-width="0.111661" stroke-miterlimit="20"/>
<path d="M6.99609 7.12012H10.3917L6.99609 6.50274" fill="#7B3F00"/>
<path d="M7.48368 7.91531L8.0296 8.02331C7.78099 9.57416 8.71532 9.40989 8.28613 10.2559C8.29568 9.47234 7.77978 9.83524 7.30726 8.69448" fill="#FCD116"/>
<path d="M7.48368 7.91531L8.0296 8.02331C7.78099 9.57416 8.71532 9.40989 8.28613 10.2559C8.29568 9.47234 7.77978 9.83524 7.30726 8.69448" stroke="#7B3F00" stroke-width="0.111661" stroke-miterlimit="20" stroke-linecap="square"/>
<path d="M7.48262 7.91574L7.43859 8.16006L7.44868 8.15755C7.60843 8.80941 7.87867 9.16336 8.08405 9.44059C8.18671 9.57927 8.27402 9.69891 8.32131 9.82868C8.35317 9.91462 8.36428 10.0069 8.35376 10.0979C8.5928 9.42498 7.79689 9.46954 8.02863 8.02369L7.48262 7.91574Z" fill="#7B3F00" stroke="#7B3F00" stroke-width="0.050806" stroke-miterlimit="20" stroke-linecap="square"/>
<path d="M7.41926 8.16418C7.74103 9.47877 8.51646 9.60308 8.28555 10.2556" stroke="#7B3F00" stroke-width="0.111661" stroke-miterlimit="20"/>
<path d="M6.98636 7.11814L6.5498 7.55469L9.3874 9.51917L7.42291 6.68158L6.98636 7.11814L9.3874 9.51917L6.98636 7.11814Z" fill="#FCD116"/>
<path d="M6.98636 7.11814L6.5498 7.55469L9.3874 9.51917M6.98636 7.11814L7.42291 6.68158L9.3874 9.51917M6.98636 7.11814L9.3874 9.51917" stroke="#7B3F00" stroke-width="0.111661" stroke-miterlimit="20"/>
<path d="M6.9873 7.11914L9.38834 9.52018L7.42386 6.68259" fill="#7B3F00"/>
<path d="M6.78641 8.03711L6.58252 8.17874L6.59143 8.1841C6.24346 8.758 6.18426 9.19936 6.13346 9.54062C6.10799 9.71127 6.08513 9.85761 6.02681 9.98281C5.98857 10.0661 5.9312 10.1392 5.85938 10.1961C6.50424 9.88933 5.90993 9.35804 7.09617 8.49953L6.78641 8.03711Z" fill="#7B3F00" stroke="#7B3F00" stroke-width="0.0507895" stroke-miterlimit="20" stroke-linecap="square"/>
<path d="M6.56551 8.16602C5.86348 9.32309 6.32389 9.9593 5.69922 10.2574" stroke="#7B3F00" stroke-width="0.111627" stroke-miterlimit="20"/>
<path d="M7.00019 7.12109H6.38281L7.00019 10.5167L7.61757 7.12109H7.00019V10.5167V7.12109Z" fill="#FCD116"/>
<path d="M7.00019 7.12109H6.38281L7.00019 10.5167M7.00019 7.12109H7.61757L7.00019 10.5167M7.00019 7.12109V10.5167" stroke="#7B3F00" stroke-width="0.111627" stroke-miterlimit="20"/>
<path d="M7 7.12305V10.5186L7.61738 7.12305" fill="#7B3F00"/>
<path d="M6.9987 7.12305L4.59766 9.52408L7.43525 7.5596" fill="#7B3F00"/>
<path d="M6.99904 8.25393C7.62414 8.25393 8.13089 7.74719 8.13089 7.12208C8.13089 6.49698 7.62414 5.99023 6.99904 5.99023C6.37393 5.99023 5.86719 6.49698 5.86719 7.12208C5.86719 7.74719 6.37393 8.25393 6.99904 8.25393Z" fill="#FCD116" stroke="#7B3F00" stroke-width="0.111627" stroke-miterlimit="20"/>
<path d="M7.83746 6.66746C7.76543 6.74978 7.72427 6.60572 7.46703 6.60572C7.20979 6.60572 7.16863 6.76007 7.12747 6.7292C7.08632 6.69833 7.34356 6.51311 7.42587 6.50283C7.50819 6.49254 7.74485 6.57485 7.83746 6.66746ZM7.53906 6.76007C7.61109 6.8218 7.54935 6.95557 7.47732 6.95557C7.40529 6.95557 7.27153 6.83209 7.33327 6.74978" fill="#7B3F00"/>
<path d="M7.19727 6.85304C7.20756 6.72956 7.31045 6.70898 7.47509 6.70898C7.63972 6.70898 7.71175 6.83246 7.77349 6.86333C7.70146 6.86333 7.63972 6.76043 7.47509 6.76043C7.31045 6.76043 7.31045 6.76043 7.19727 6.86333M7.22813 6.88391C7.26929 6.82217 7.32074 6.94565 7.43393 6.94565C7.54711 6.94565 7.60885 6.91478 7.68088 6.86333C7.75291 6.81188 7.57798 6.9868 7.4648 6.9868C7.35161 6.9868 7.19727 6.92507 7.22813 6.88391Z" fill="#7B3F00"/>
<path d="M6.42612 6.75C6.37467 6.77058 6.29236 6.87346 6.42612 6.94549C6.32322 6.87346 6.40554 6.77058 6.42612 6.75Z" fill="#7B3F00"/>
<path d="M7.58008 6.75C7.60066 6.77058 7.68297 6.87346 7.58008 6.94549C7.71384 6.87346 7.63153 6.77058 7.58008 6.75Z" fill="#7B3F00"/>
<path d="M6.83887 7.19336C6.74627 7.21394 6.77712 7.34771 6.6948 7.358C6.61248 7.36829 6.57134 7.46089 6.58163 7.4506C6.63308 7.40944 6.74627 7.37856 6.82859 7.37856C6.91091 7.37856 6.93148 7.43003 7.00351 7.43003C7.07554 7.43003 7.09612 7.37856 7.17843 7.37856C7.26075 7.37856 7.37394 7.40944 7.42539 7.4506C7.43568 7.46089 7.39454 7.36829 7.31222 7.358C7.2299 7.34771 7.26076 7.21394 7.16815 7.19336C7.16815 7.23452 7.19899 7.22422 7.20928 7.28596C7.20928 7.33741 7.11669 7.33741 7.09611 7.28596C7.11669 7.36828 7.05496 7.36828 7.00351 7.36828C6.95206 7.36828 6.89033 7.36828 6.91091 7.28596C6.89033 7.33741 6.79774 7.33741 6.79774 7.28596C6.80803 7.22422 6.83887 7.23452 6.83887 7.19336Z" fill="#7B3F00"/>
<path d="M6.51747 7.54297C6.43515 7.60471 6.41459 7.63558 6.4043 7.70761C6.42898 7.66442 6.4411 7.64667 6.45984 7.62127C6.45488 7.61914 6.45061 7.61718 6.44548 7.61501C6.45147 7.61571 6.45684 7.61665 6.4626 7.61746C6.47505 7.60065 6.4861 7.58609 6.51747 7.54297Z" fill="#7B3F00"/>
<path d="M6.46419 7.61719C6.4639 7.61759 6.46318 7.61857 6.46289 7.61896C6.47575 7.62195 6.4894 7.62335 6.50371 7.6234C6.49114 7.62118 6.47793 7.61911 6.46419 7.61719Z" fill="#7B3F00"/>
<path d="M6.50195 7.62367C6.56612 7.635 6.6165 7.64976 6.66268 7.6647C6.72027 7.66044 6.79971 7.64585 7.00093 7.64585C7.20215 7.64585 7.28159 7.66044 7.33919 7.6647C7.38537 7.64976 7.43574 7.635 7.49991 7.62367C7.38653 7.62407 7.2354 7.54297 7.16557 7.54297C7.08325 7.54297 7.06267 7.56354 7.00093 7.56354C6.93919 7.56354 6.91861 7.54297 6.83629 7.54297C6.76646 7.54297 6.61534 7.62408 6.50195 7.62367Z" fill="#7B3F00"/>
<path d="M7.50195 7.6234C7.51626 7.62335 7.52991 7.62195 7.54277 7.61896C7.54248 7.61856 7.54176 7.61759 7.54147 7.61719C7.52774 7.61911 7.51452 7.62118 7.50195 7.6234Z" fill="#7B3F00"/>
<path d="M7.54119 7.61746C7.54696 7.61665 7.55232 7.61575 7.55831 7.61501C7.55318 7.61718 7.54892 7.61914 7.54396 7.62127C7.5627 7.64667 7.57482 7.66442 7.5995 7.70761C7.58921 7.63558 7.56865 7.60471 7.48633 7.54297C7.51769 7.58609 7.52875 7.60065 7.54119 7.61746Z" fill="#7B3F00"/>
<path d="M7.54542 7.61985C7.54531 7.61964 7.54501 7.61924 7.54489 7.61914C7.4375 7.66051 7.3997 7.66754 7.34241 7.6633C7.24485 7.69486 7.16443 7.72678 7.00415 7.72678C6.84388 7.72678 6.76346 7.69486 6.6659 7.6633C6.60861 7.66754 6.5708 7.66051 6.46342 7.61914C6.4633 7.61934 6.46301 7.61975 6.46289 7.61985C6.78614 7.75898 6.7508 7.80907 7.00415 7.80907C7.2575 7.80907 7.22217 7.75898 7.54542 7.61985Z" fill="#7B3F00"/>
<path d="M6.46214 7.61882C6.46235 7.61851 6.46287 7.6178 6.46308 7.61751C6.45772 7.61627 6.45232 7.61513 6.44727 7.61328C6.45314 7.61558 6.45666 7.61671 6.46214 7.61882Z" fill="#7B3F00"/>
<path d="M7.54195 7.61882C7.54744 7.61671 7.55096 7.61558 7.55683 7.61328C7.55178 7.61512 7.54638 7.61626 7.54102 7.6175C7.54123 7.61781 7.54174 7.61853 7.54195 7.61882Z" fill="#7B3F00"/>
<path d="M6.17035 6.66746C6.24238 6.74978 6.28354 6.60572 6.54078 6.60572C6.79802 6.60572 6.83918 6.76007 6.88034 6.7292C6.9215 6.69833 6.66426 6.51311 6.58194 6.50283C6.49962 6.49254 6.26296 6.57485 6.17035 6.66746ZM6.46875 6.76007C6.39673 6.8218 6.45846 6.95557 6.53049 6.95557C6.60252 6.95557 6.73628 6.83209 6.67455 6.74978" fill="#7B3F00"/>
<path d="M6.80664 6.85304C6.79635 6.72956 6.69345 6.70898 6.52882 6.70898C6.36419 6.70898 6.29216 6.83246 6.23042 6.86333C6.30245 6.86333 6.36419 6.76043 6.52882 6.76043C6.69345 6.76043 6.69345 6.76043 6.80664 6.86333M6.77577 6.88391C6.73461 6.82217 6.68316 6.94565 6.56998 6.94565C6.45679 6.94565 6.39505 6.91478 6.32303 6.86333C6.251 6.81188 6.42592 6.9868 6.53911 6.9868C6.6523 6.9868 6.80664 6.92507 6.77577 6.88391Z" fill="#7B3F00"/>
<path d="M7.00319 7.90234C6.95174 7.90234 6.81797 7.93321 7.00319 7.93321C7.1884 7.93321 7.05464 7.90234 7.00319 7.90234Z" fill="#7B3F00"/>
</g>
<defs>
<clipPath id="clip0_358_13329">
<rect width="24" height="24" rx="12" fill="white"/>
</clipPath>
</defs>
</svg>
