<svg width="24" height="24" viewBox="0 0 24 24" fill="none" xmlns="http://www.w3.org/2000/svg">
<g clip-path="url(#clip0_358_5202)">
<path d="M-6 0H30.0274V24H-6V0Z" fill="#1EB53A"/>
<path d="M-6 0H30.0274V12H-6V0Z" fill="#0099B5"/>
<path d="M-6 7.67969H30.0433V16.3197H-6V7.67969Z" fill="#CE1126"/>
<path d="M-6 8.16016H30.0512V15.8402H-6V8.16016Z" fill="white"/>
<path d="M8.75306 6.10378C9.9413 6.10378 10.9046 5.14052 10.9046 3.95228C10.9046 2.76404 9.9413 1.80078 8.75306 1.80078C7.56482 1.80078 6.60156 2.76404 6.60156 3.95228C6.60156 5.14052 7.56482 6.10378 8.75306 6.10378Z" fill="white"/>
<path d="M9.47181 6.10378C10.6601 6.10378 11.6233 5.14052 11.6233 3.95228C11.6233 2.76404 10.6601 1.80078 9.47181 1.80078C8.28357 1.80078 7.32031 2.76404 7.32031 3.95228C7.32031 5.14052 8.28357 6.10378 9.47181 6.10378Z" fill="#0099B5"/>
<path d="M13.4844 5.24414L13.3514 5.65338L13.556 5.71987" fill="white"/>
<path d="M13.4844 5.24414L13.6173 5.65338L13.4127 5.71987" fill="white"/>
<path d="M13.8906 5.54297H13.4603V5.75812" fill="white"/>
<path d="M13.8906 5.54297L13.5425 5.79589L13.416 5.62183" fill="white"/>
<path d="M13.0703 5.54102L13.4184 5.79394L13.5449 5.61988" fill="white"/>
<path d="M13.0703 5.54102H13.5006V5.75617" fill="white"/>
<path d="M13.7422 6.02344L13.6092 5.6142L13.4046 5.68068" fill="white"/>
<path d="M13.7422 6.02344L13.3941 5.77051L13.5205 5.59645" fill="white"/>
<path d="M13.2383 6.01855L13.5864 5.76563L13.4599 5.59157" fill="white"/>
<path d="M13.2383 6.01855L13.3713 5.60931L13.5759 5.6758" fill="white"/>
<path d="M13.4844 3.52344L13.3514 3.93268L13.556 3.99916" fill="white"/>
<path d="M13.4844 3.52344L13.6173 3.93268L13.4127 3.99916" fill="white"/>
<path d="M13.8906 3.82227H13.4603V4.03742" fill="white"/>
<path d="M13.8906 3.82227L13.5425 4.07519L13.416 3.90113" fill="white"/>
<path d="M13.0703 3.82031L13.4184 4.07324L13.5449 3.89918" fill="white"/>
<path d="M13.0703 3.82031H13.5006V4.03546" fill="white"/>
<path d="M13.7422 4.30273L13.6092 3.89349L13.4046 3.95998" fill="white"/>
<path d="M13.7422 4.30273L13.3941 4.04981L13.5205 3.87575" fill="white"/>
<path d="M13.2383 4.29785L13.5864 4.04493L13.4599 3.87087" fill="white"/>
<path d="M13.2383 4.29785L13.3713 3.88861L13.5759 3.9551" fill="white"/>
<path d="M13.4844 1.80078L13.3514 2.21002L13.556 2.27651" fill="white"/>
<path d="M13.4844 1.80078L13.6173 2.21002L13.4127 2.27651" fill="white"/>
<path d="M13.8906 2.09961H13.4603V2.31476" fill="white"/>
<path d="M13.8906 2.09961L13.5425 2.35253L13.416 2.17847" fill="white"/>
<path d="M13.0703 2.09766L13.4184 2.35058L13.5449 2.17652" fill="white"/>
<path d="M13.0703 2.09766H13.5006V2.31281" fill="white"/>
<path d="M13.7422 2.58008L13.6092 2.17084L13.4046 2.23732" fill="white"/>
<path d="M13.7422 2.58008L13.3941 2.32715L13.5205 2.15309" fill="white"/>
<path d="M13.2383 2.57324L13.5864 2.32032L13.4599 2.14626" fill="white"/>
<path d="M13.2383 2.57324L13.3713 2.164L13.5759 2.23049" fill="white"/>
<path d="M15.2031 5.24414L15.0702 5.65338L15.2748 5.71987" fill="white"/>
<path d="M15.2031 5.24414L15.3361 5.65338L15.1315 5.71987" fill="white"/>
<path d="M15.6133 5.54297H15.183V5.75812" fill="white"/>
<path d="M15.6133 5.54297L15.2652 5.79589L15.1387 5.62183" fill="white"/>
<path d="M14.793 5.54102L15.1411 5.79394L15.2676 5.61988" fill="white"/>
<path d="M14.793 5.54102H15.2233V5.75617" fill="white"/>
<path d="M15.4609 6.02344L15.328 5.6142L15.1233 5.68068" fill="white"/>
<path d="M15.4609 6.02344L15.1128 5.77051L15.2393 5.59645" fill="white"/>
<path d="M14.9531 6.01855L15.3012 5.76563L15.1748 5.59157" fill="white"/>
<path d="M14.9531 6.01855L15.0861 5.60931L15.2907 5.6758" fill="white"/>
<path d="M15.2031 3.52344L15.0702 3.93268L15.2748 3.99916" fill="white"/>
<path d="M15.2031 3.52344L15.3361 3.93268L15.1315 3.99916" fill="white"/>
<path d="M15.6133 3.82227H15.183V4.03742" fill="white"/>
<path d="M15.6133 3.82227L15.2652 4.07519L15.1387 3.90113" fill="white"/>
<path d="M14.793 3.82031L15.1411 4.07324L15.2676 3.89918" fill="white"/>
<path d="M14.793 3.82031H15.2233V4.03546" fill="white"/>
<path d="M15.4609 4.30273L15.328 3.89349L15.1233 3.95998" fill="white"/>
<path d="M15.4609 4.30273L15.1128 4.04981L15.2393 3.87575" fill="white"/>
<path d="M14.9531 4.29785L15.3012 4.04493L15.1748 3.87087" fill="white"/>
<path d="M14.9531 4.29785L15.0861 3.88861L15.2907 3.9551" fill="white"/>
<path d="M15.2031 1.80078L15.0702 2.21002L15.2748 2.27651" fill="white"/>
<path d="M15.2031 1.80078L15.3361 2.21002L15.1315 2.27651" fill="white"/>
<path d="M15.6133 2.09961H15.183V2.31476" fill="white"/>
<path d="M15.6133 2.09961L15.2652 2.35253L15.1387 2.17847" fill="white"/>
<path d="M14.793 2.09766L15.1411 2.35058L15.2676 2.17652" fill="white"/>
<path d="M14.793 2.09766H15.2233V2.31281" fill="white"/>
<path d="M15.4609 2.58008L15.328 2.17084L15.1233 2.23732" fill="white"/>
<path d="M15.4609 2.58008L15.1128 2.32715L15.2393 2.15309" fill="white"/>
<path d="M14.9531 2.57324L15.3012 2.32032L15.1748 2.14626" fill="white"/>
<path d="M14.9531 2.57324L15.0861 2.164L15.2907 2.23049" fill="white"/>
<path d="M16.9297 5.24414L16.7967 5.65338L17.0013 5.71987" fill="white"/>
<path d="M16.9297 5.24414L17.0627 5.65338L16.858 5.71987" fill="white"/>
<path d="M17.3398 5.54297H16.9095V5.75812" fill="white"/>
<path d="M17.3398 5.54297L16.9917 5.79589L16.8653 5.62183" fill="white"/>
<path d="M16.5195 5.54102L16.8677 5.79394L16.9941 5.61988" fill="white"/>
<path d="M16.5195 5.54102H16.9498V5.75617" fill="white"/>
<path d="M17.1875 6.02344L17.0545 5.6142L16.8499 5.68068" fill="white"/>
<path d="M17.1875 6.02344L16.8394 5.77051L16.9658 5.59645" fill="white"/>
<path d="M16.6836 6.01855L17.0317 5.76563L16.9053 5.59157" fill="white"/>
<path d="M16.6836 6.01855L16.8166 5.60931L17.0212 5.6758" fill="white"/>
<path d="M16.9297 3.52148L16.7967 3.93072L17.0013 3.99721" fill="white"/>
<path d="M16.9297 3.52148L17.0627 3.93072L16.858 3.99721" fill="white"/>
<path d="M17.3398 3.82031H16.9095V4.03546" fill="white"/>
<path d="M17.3398 3.82031L16.9917 4.07324L16.8653 3.89918" fill="white"/>
<path d="M16.5195 3.81836L16.8677 4.07128L16.9941 3.89722" fill="white"/>
<path d="M16.5195 3.81836H16.9498V4.03351" fill="white"/>
<path d="M17.1875 4.30078L17.0545 3.89154L16.8499 3.95803" fill="white"/>
<path d="M17.1875 4.30078L16.8394 4.04786L16.9658 3.8738" fill="white"/>
<path d="M16.6836 4.2959L17.0317 4.04297L16.9053 3.86891" fill="white"/>
<path d="M16.6836 4.2959L16.8166 3.88666L17.0212 3.95314" fill="white"/>
<path d="M16.9297 1.80078L16.7967 2.21002L17.0013 2.27651" fill="white"/>
<path d="M16.9297 1.80078L17.0627 2.21002L16.858 2.27651" fill="white"/>
<path d="M17.3359 2.09961H16.9056V2.31476" fill="white"/>
<path d="M17.3359 2.09961L16.9878 2.35253L16.8614 2.17847" fill="white"/>
<path d="M16.5234 2.09766L16.8716 2.35058L16.998 2.17652" fill="white"/>
<path d="M16.5234 2.09766H16.9537V2.31281" fill="white"/>
<path d="M17.1875 2.58008L17.0545 2.17084L16.8499 2.23732" fill="white"/>
<path d="M17.1875 2.58008L16.8394 2.32715L16.9658 2.15309" fill="white"/>
<path d="M16.6797 2.5752L17.0278 2.32227L16.9013 2.14821" fill="white"/>
<path d="M16.6797 2.5752L16.8127 2.16596L17.0173 2.23244" fill="white"/>
<path d="M10.043 5.24414L9.91 5.65338L10.1146 5.71987" fill="white"/>
<path d="M10.043 5.24414L10.1759 5.65338L9.97132 5.71987" fill="white"/>
<path d="M10.4492 5.54297H10.0189V5.75812" fill="white"/>
<path d="M10.4492 5.54297L10.1011 5.79589L9.97464 5.62183" fill="white"/>
<path d="M9.63281 5.54102L9.98093 5.79394L10.1074 5.61988" fill="white"/>
<path d="M9.63281 5.54102H10.0631V5.75617" fill="white"/>
<path d="M10.3008 6.02344L10.1678 5.6142L9.96319 5.68068" fill="white"/>
<path d="M10.3008 6.02344L9.95266 5.77051L10.0791 5.59645" fill="white"/>
<path d="M9.79297 6.0166L10.1411 5.76368L10.0146 5.58962" fill="white"/>
<path d="M9.79297 6.0166L9.92594 5.60736L10.1306 5.67385" fill="white"/>
<path d="M11.7617 5.24414L11.6287 5.65338L11.8334 5.71987" fill="white"/>
<path d="M11.7617 5.24414L11.8947 5.65338L11.6901 5.71987" fill="white"/>
<path d="M12.1719 5.54297H11.7416V5.75812" fill="white"/>
<path d="M12.1719 5.54297L11.8238 5.79589L11.6973 5.62183" fill="white"/>
<path d="M11.3555 5.54102L11.7036 5.79394L11.8301 5.61988" fill="white"/>
<path d="M11.3555 5.54102H11.7858V5.75617" fill="white"/>
<path d="M12.0195 6.02344L11.8866 5.6142L11.6819 5.68068" fill="white"/>
<path d="M12.0195 6.02344L11.6714 5.77051L11.7979 5.59645" fill="white"/>
<path d="M11.5156 6.01855L11.8637 5.76563L11.7373 5.59157" fill="white"/>
<path d="M11.5156 6.01855L11.6486 5.60931L11.8532 5.6758" fill="white"/>
<path d="M11.7656 3.52344L11.6327 3.93268L11.8373 3.99916" fill="white"/>
<path d="M11.7656 3.52344L11.8986 3.93268L11.694 3.99916" fill="white"/>
<path d="M12.1758 3.82031H11.7455V4.03546" fill="white"/>
<path d="M12.1758 3.82031L11.8277 4.07324L11.7012 3.89918" fill="white"/>
<path d="M11.3555 3.82031L11.7036 4.07324L11.8301 3.89918" fill="white"/>
<path d="M11.3555 3.82031H11.7858V4.03546" fill="white"/>
<path d="M12.0195 4.30273L11.8866 3.89349L11.6819 3.95998" fill="white"/>
<path d="M12.0195 4.30273L11.6714 4.04981L11.7979 3.87575" fill="white"/>
<path d="M11.5156 4.2959L11.8637 4.04297L11.7373 3.86891" fill="white"/>
<path d="M11.5156 4.2959L11.6486 3.88666L11.8532 3.95314" fill="white"/>
</g>
<defs>
<clipPath id="clip0_358_5202">
<rect width="24" height="24" rx="12" fill="white"/>
</clipPath>
</defs>
</svg>
