<svg width="24" height="24" viewBox="0 0 24 24" fill="none" xmlns="http://www.w3.org/2000/svg">
<g clip-path="url(#clip0_358_7982)">
<path d="M-6 0H30V24H-6V0Z" fill="#CF142B"/>
<path d="M-6 0H30V16H-6V0Z" fill="#00247D"/>
<path d="M-6 0H30V8H-6V0Z" fill="#FFCC00"/>
<path d="M13.4346 8.72266L12.9651 9.6056L13.4949 9.88729L13.4346 8.72266Z" fill="white"/>
<path d="M13.4346 8.72266L13.5737 9.71292L12.9796 9.79643L13.4346 8.72266Z" fill="white"/>
<path d="M14.251 9.56641L13.2662 9.39276L13.162 9.98364L14.251 9.56641Z" fill="white"/>
<path d="M14.251 9.56641L13.3522 10.0048L13.0892 9.4655L14.251 9.56641Z" fill="white"/>
<path d="M12.3799 9.23535L13.0745 9.95469L13.5061 9.5379L12.3799 9.23535Z" fill="white"/>
<path d="M12.3799 9.23535L13.3647 9.409L13.2605 9.99988L12.3799 9.23535Z" fill="white"/>
<path d="M13.6924 10.6035L13.5532 9.61325L12.959 9.69675L13.6924 10.6035Z" fill="white"/>
<path d="M13.6924 10.6035L12.9977 9.88418L13.4293 9.46738L13.6924 10.6035Z" fill="white"/>
<path d="M12.5479 10.4004L13.4466 9.96202L13.1836 9.42274L12.5479 10.4004Z" fill="white"/>
<path d="M12.5479 10.4004L13.0173 9.51744L13.5471 9.79913L12.5479 10.4004Z" fill="white"/>
<path d="M16.1016 9.69922L15.3584 10.3683L15.7599 10.8142L16.1016 9.69922Z" fill="white"/>
<path d="M16.1016 9.69922L15.8937 10.6774L15.3068 10.5526L16.1016 9.69922Z" fill="white"/>
<path d="M16.5791 10.7734L15.7131 10.2734L15.4131 10.7931L16.5791 10.7734Z" fill="white"/>
<path d="M16.5791 10.7734L15.5846 10.878L15.5219 10.2813L16.5791 10.7734Z" fill="white"/>
<path d="M14.9336 9.82422L15.3403 10.7378L15.8885 10.4937L14.9336 9.82422Z" fill="white"/>
<path d="M14.9336 9.82422L15.7996 10.3242L15.4996 10.8438L14.9336 9.82422Z" fill="white"/>
<path d="M15.708 11.5605L15.9159 10.5824L15.329 10.4577L15.708 11.5605Z" fill="white"/>
<path d="M15.708 11.5605L15.3013 10.647L15.8494 10.403L15.708 11.5605Z" fill="white"/>
<path d="M14.6885 10.9688L15.683 10.8642L15.6203 10.2675L14.6885 10.9688Z" fill="white"/>
<path d="M14.6885 10.9688L15.4316 10.2996L15.8331 10.7455L14.6885 10.9688Z" fill="white"/>
<path d="M18.2949 11.5293L17.3677 11.9039L17.5925 12.4602L18.2949 11.5293Z" fill="white"/>
<path d="M18.2949 11.5293L17.765 12.3773L17.2562 12.0594L18.2949 11.5293Z" fill="white"/>
<path d="M18.373 12.7012L17.7303 11.9351L17.2706 12.3208L18.373 12.7012Z" fill="white"/>
<path d="M18.373 12.7012L17.4028 12.4593L17.5479 11.8771L18.373 12.7012Z" fill="white"/>
<path d="M17.1465 11.2441L17.2162 12.2417L17.8148 12.1999L17.1465 11.2441Z" fill="white"/>
<path d="M17.1465 11.2441L17.7893 12.0102L17.3296 12.3959L17.1465 11.2441Z" fill="white"/>
<path d="M17.2822 13.1416L17.8121 12.2936L17.3033 11.9756L17.2822 13.1416Z" fill="white"/>
<path d="M17.2822 13.1416L17.2125 12.144L17.811 12.1022L17.2822 13.1416Z" fill="white"/>
<path d="M16.5283 12.2451L17.4986 12.487L17.6438 11.9049L16.5283 12.2451Z" fill="white"/>
<path d="M16.5283 12.2451L17.4555 11.8705L17.6803 12.4268L16.5283 12.2451Z" fill="white"/>
<path d="M19.7158 13.9961L18.7164 14.031L18.7374 14.6306L19.7158 13.9961Z" fill="white"/>
<path d="M19.7158 13.9961L18.9278 14.6118L18.5584 14.1389L19.7158 13.9961Z" fill="white"/>
<path d="M19.3799 15.125L19.0379 14.1853L18.474 14.3905L19.3799 15.125Z" fill="white"/>
<path d="M19.3799 15.125L18.5508 14.5658L18.8864 14.0684L19.3799 15.125Z" fill="white"/>
<path d="M18.7432 13.3379L18.4675 14.2992L19.0443 14.4645L18.7432 13.3379Z" fill="white"/>
<path d="M18.7432 13.3379L19.0852 14.2776L18.5214 14.4828L18.7432 13.3379Z" fill="white"/>
<path d="M18.2119 15.165L18.9999 14.5494L18.6305 14.0766L18.2119 15.165Z" fill="white"/>
<path d="M18.2119 15.165L18.4876 14.2038L19.0643 14.3692L18.2119 15.165Z" fill="white"/>
<path d="M17.8096 14.0576L18.6386 14.6168L18.9741 14.1194L17.8096 14.0576Z" fill="white"/>
<path d="M17.8096 14.0576L18.809 14.0227L18.8299 14.6224L17.8096 14.0576Z" fill="white"/>
<path d="M4.30078 13.9951L5.08879 14.6108L5.45819 14.138L4.30078 13.9951Z" fill="white"/>
<path d="M4.30078 13.9951L5.30017 14.03L5.27923 14.6297L4.30078 13.9951Z" fill="white"/>
<path d="M5.27734 13.3369L4.93532 14.2766L5.49914 14.4818L5.27734 13.3369Z" fill="white"/>
<path d="M5.27734 13.3369L5.55298 14.2982L4.97622 14.4636L5.27734 13.3369Z" fill="white"/>
<path d="M4.61816 15.126L5.4472 14.5668L5.11169 14.0694L4.61816 15.126Z" fill="white"/>
<path d="M4.61816 15.126L4.96018 14.1863L5.524 14.3915L4.61816 15.126Z" fill="white"/>
<path d="M6.19531 14.0635L5.19592 14.0286L5.17498 14.6282L6.19531 14.0635Z" fill="white"/>
<path d="M6.19531 14.0635L5.36627 14.6227L5.03076 14.1252L6.19531 14.0635Z" fill="white"/>
<path d="M5.79297 15.165L5.51733 14.2038L4.94057 14.3692L5.79297 15.165Z" fill="white"/>
<path d="M5.79297 15.165L5.00496 14.5494L5.37435 14.0766L5.79297 15.165Z" fill="white"/>
<path d="M5.72266 11.5303L6.25258 12.3783L6.7614 12.0604L5.72266 11.5303Z" fill="white"/>
<path d="M5.72266 11.5303L6.64984 11.9049L6.42508 12.4612L5.72266 11.5303Z" fill="white"/>
<path d="M6.85547 11.2451L6.21268 12.0112L6.67231 12.3968L6.85547 11.2451Z" fill="white"/>
<path d="M6.85547 11.2451L6.78571 12.2427L6.18717 12.2008L6.85547 11.2451Z" fill="white"/>
<path d="M5.6416 12.7041L6.6119 12.4622L6.46674 11.88L5.6416 12.7041Z" fill="white"/>
<path d="M5.6416 12.7041L6.28439 11.9381L6.74402 12.3237L5.6416 12.7041Z" fill="white"/>
<path d="M7.48828 12.2422L6.5611 11.8676L6.33633 12.4239L7.48828 12.2422Z" fill="white"/>
<path d="M7.48828 12.2422L6.51799 12.4841L6.37283 11.9019L7.48828 12.2422Z" fill="white"/>
<path d="M6.73047 13.1465L6.80023 12.1489L6.20169 12.1071L6.73047 13.1465Z" fill="white"/>
<path d="M6.73047 13.1465L6.20055 12.2984L6.70938 11.9805L6.73047 13.1465Z" fill="white"/>
<path d="M7.90527 9.70117L8.11319 10.6793L8.70007 10.5546L7.90527 9.70117Z" fill="white"/>
<path d="M7.90527 9.70117L8.64842 10.3703L8.24694 10.8162L7.90527 9.70117Z" fill="white"/>
<path d="M9.07324 9.82031L8.20722 10.3203L8.50722 10.8399L9.07324 9.82031Z" fill="white"/>
<path d="M9.07324 9.82031L8.66651 10.7339L8.11838 10.4898L9.07324 9.82031Z" fill="white"/>
<path d="M7.42969 10.7725L8.42421 10.877L8.48693 10.2803L7.42969 10.7725Z" fill="white"/>
<path d="M7.42969 10.7725L8.29571 10.2725L8.59571 10.7921L7.42969 10.7725Z" fill="white"/>
<path d="M9.31543 10.9746L8.57228 10.3055L8.17081 10.7514L9.31543 10.9746Z" fill="white"/>
<path d="M9.31543 10.9746L8.32091 10.8701L8.38362 10.2734L9.31543 10.9746Z" fill="white"/>
<path d="M8.2959 11.5586L8.70264 10.645L8.15451 10.401L8.2959 11.5586Z" fill="white"/>
<path d="M8.2959 11.5586L8.08799 10.5804L8.67488 10.4557L8.2959 11.5586Z" fill="white"/>
<path d="M10.584 8.72461L10.4448 9.71488L11.039 9.79838L10.584 8.72461Z" fill="white"/>
<path d="M10.584 8.72461L11.0535 9.60756L10.5237 9.88924L10.584 8.72461Z" fill="white"/>
<path d="M11.6426 9.24023L10.6578 9.41388L10.762 10.0048L11.6426 9.24023Z" fill="white"/>
<path d="M11.6426 9.24023L10.9479 9.95957L10.5163 9.54278L11.6426 9.24023Z" fill="white"/>
<path d="M9.76074 9.57031L10.6595 10.0087L10.9226 9.46941L9.76074 9.57031Z" fill="white"/>
<path d="M9.76074 9.57031L10.7455 9.39666L10.8497 9.98755L9.76074 9.57031Z" fill="white"/>
<path d="M11.4805 10.4004L11.011 9.51744L10.4812 9.79913L11.4805 10.4004Z" fill="white"/>
<path d="M11.4805 10.4004L10.5817 9.96202L10.8447 9.42274L11.4805 10.4004Z" fill="white"/>
<path d="M10.3086 10.6055L11.0033 9.88613L10.5716 9.46933L10.3086 10.6055Z" fill="white"/>
<path d="M10.3086 10.6055L10.4478 9.6152L11.0419 9.6987L10.3086 10.6055Z" fill="white"/>
</g>
<defs>
<clipPath id="clip0_358_7982">
<rect width="24" height="24" rx="12" fill="white"/>
</clipPath>
</defs>
</svg>
