<svg width="24" height="24" viewBox="0 0 24 24" fill="none" xmlns="http://www.w3.org/2000/svg">
<g clip-path="url(#clip0_358_13536)">
<path d="M36 0H0V12H36V0Z" fill="#D21034"/>
<path d="M36 12H0V24H36V12Z" fill="#009543"/>
<path d="M0 0L23.2764 12L0 24V0Z" fill="black"/>
<path d="M36.0241 9.85352H0V14.1483H36.0241V9.85352Z" fill="black"/>
<path d="M0 1.70508L19.9685 11.9997L0 22.2943V1.70508Z" fill="#FDCE12"/>
<path d="M36.0313 11.3691H0V12.6323H36.0313V11.3691Z" fill="#FDCE12"/>
<path d="M0 3.12695L17.2119 12.0004L0 20.8739V3.12695Z" fill="black"/>
<path d="M4.86256 14.2948C4.86256 14.2948 4.86256 15.162 4.86256 15.6623C6.05216 15.6623 8.38677 14.7507 8.38677 11.8157C8.38677 8.8807 5.8965 8.33594 5.15162 8.33594C4.40677 8.33594 2.10547 8.86958 2.10547 11.2709C2.10547 13.6723 4.36231 13.8946 4.80698 13.8946C5.25166 13.8946 6.91928 13.4944 6.73031 11.6934C6.73031 12.2048 6.15221 13.2832 4.94037 13.2832C3.72858 13.2832 2.97263 12.3826 2.97263 11.4933C2.97263 10.6039 3.70635 9.4143 4.98484 9.4143C6.26332 9.4143 7.19717 10.5482 7.19717 11.6934C7.19717 12.8385 6.29671 14.2948 4.86256 14.2948Z" fill="#FDCE12"/>
<path d="M3.82031 12.5164L3.89118 12.5623C3.89118 12.5623 4.454 11.2782 5.96734 10.3652C5.77556 10.4694 4.7625 10.9739 3.82031 12.5164Z" fill="#FDCE12" stroke="#FDCE12" stroke-width="0.0701754"/>
<path d="M3.96719 12.2954C3.96719 12.2954 3.79211 11.9369 3.94634 11.7785C4.10062 11.6201 4.02976 12.1996 4.02976 12.1996L4.09645 12.1037C4.09645 12.1037 3.9922 11.6659 4.10895 11.5742C4.22567 11.4825 4.16731 11.9953 4.16731 11.9953L4.23818 11.9036C4.23818 11.9036 4.16314 11.4783 4.27569 11.3991C4.38828 11.3199 4.31742 11.7994 4.31742 11.7994L4.40079 11.7034C4.40079 11.7034 4.33826 11.2991 4.47582 11.2032C4.61342 11.1073 4.49249 11.5867 4.49249 11.5867L4.5842 11.4867C4.5842 11.4867 4.54251 11.1156 4.65927 11.0322C4.77599 10.9489 4.67594 11.3824 4.67594 11.3824L4.75931 11.2949C4.75931 11.2949 4.7343 10.9489 4.84685 10.8697C4.95944 10.7904 4.85519 11.199 4.85519 11.199L4.94277 11.1156C4.94277 11.1156 4.92192 10.7696 5.06365 10.7029C5.20538 10.6362 5.03864 11.0281 5.03864 11.0281L5.13451 10.9447C5.13451 10.9447 5.16369 10.5403 5.28462 10.5028C5.4055 10.4652 5.23043 10.8613 5.23043 10.8613L5.31797 10.7904C5.31797 10.7904 5.36382 10.4444 5.49721 10.4027C5.63064 10.361 5.41384 10.7196 5.41384 10.7196L5.50138 10.6529C5.50138 10.6529 5.59729 10.3068 5.72234 10.2693C5.84744 10.2318 5.59312 10.5945 5.59312 10.5945L5.67649 10.5362C5.67649 10.5362 5.81405 10.2234 5.92664 10.2026C6.03919 10.1818 5.80154 10.4611 5.80154 10.4611L5.9058 10.3986C5.9058 10.3986 6.08504 10.0734 6.14761 10.1734C6.21013 10.2735 5.89746 10.4194 5.89746 10.4194L5.79321 10.4778C5.79321 10.4778 6.17262 10.2985 6.21847 10.3902C6.26432 10.4819 5.69733 10.5403 5.69733 10.5403L5.60563 10.6028C5.60563 10.6028 5.985 10.4986 5.93914 10.5945C5.89329 10.6904 5.51809 10.6695 5.51809 10.6695L5.43051 10.7321C5.43051 10.7321 5.80988 10.6404 5.75986 10.7279C5.70984 10.8154 5.33881 10.8071 5.33881 10.8071L5.2471 10.8822C5.2471 10.8822 5.61813 10.7863 5.56394 10.8988C5.50971 11.0114 5.08866 11.0072 5.08866 11.0072L4.98445 11.1031C4.98445 11.1031 5.37632 10.9697 5.34298 11.0739C5.30963 11.1782 4.86352 11.2324 4.86352 11.2324L4.76348 11.3324C4.76348 11.3324 5.18453 11.1907 5.05948 11.3199C4.93443 11.4492 4.63009 11.4825 4.63009 11.4825L4.50917 11.6284C4.50917 11.6284 4.92609 11.3783 4.86769 11.52C4.80933 11.6618 4.40079 11.7577 4.40079 11.7577L4.31742 11.8577C4.31742 11.8577 4.69262 11.6409 4.6551 11.7618C4.61759 11.8827 4.21733 12.0119 4.21733 12.0119L4.15064 12.1037C4.15064 12.1037 4.59253 11.841 4.55502 11.9744C4.5175 12.1079 4.09645 12.2037 4.09645 12.2037L4.04226 12.2871C4.04226 12.2871 4.45081 12.0537 4.45498 12.1662C4.45914 12.2788 3.97552 12.3914 3.97552 12.3914L3.96719 12.2954Z" fill="#FDCE12"/>
<path d="M6.22266 12.5164L6.15179 12.5623C6.15179 12.5623 5.58897 11.2782 4.07562 10.3652C4.26741 10.4694 5.28047 10.9739 6.22266 12.5164Z" fill="#FDCE12" stroke="#FDCE12" stroke-width="0.0701754"/>
<path d="M6.07578 12.2954C6.07578 12.2954 6.25086 11.9369 6.09662 11.7785C5.94235 11.6201 6.01321 12.1996 6.01321 12.1996L5.94652 12.1037C5.94652 12.1037 6.05077 11.6659 5.93401 11.5742C5.8173 11.4825 5.87566 11.9953 5.87566 11.9953L5.80479 11.9036C5.80479 11.9036 5.87982 11.4783 5.76728 11.3991C5.65469 11.3199 5.72555 11.7994 5.72555 11.7994L5.64218 11.7034C5.64218 11.7034 5.70471 11.2991 5.56715 11.2032C5.42955 11.1073 5.55048 11.5867 5.55048 11.5867L5.45877 11.4867C5.45877 11.4867 5.50046 11.1156 5.3837 11.0322C5.26698 10.9489 5.36702 11.3824 5.36702 11.3824L5.28366 11.2949C5.28366 11.2949 5.30867 10.9489 5.19612 10.8697C5.08353 10.7904 5.18778 11.199 5.18778 11.199L5.1002 11.1156C5.1002 11.1156 5.12105 10.7696 4.97932 10.7029C4.83759 10.6362 5.00433 11.0281 5.00433 11.0281L4.90846 10.9447C4.90846 10.9447 4.87928 10.5403 4.75835 10.5028C4.63747 10.4652 4.81254 10.8613 4.81254 10.8613L4.725 10.7904C4.725 10.7904 4.67915 10.4444 4.54576 10.4027C4.41233 10.361 4.62913 10.7196 4.62913 10.7196L4.54159 10.6529C4.54159 10.6529 4.44568 10.3068 4.32062 10.2693C4.19553 10.2318 4.44985 10.5945 4.44985 10.5945L4.36648 10.5362C4.36648 10.5362 4.22892 10.2234 4.11633 10.2026C4.00378 10.1818 4.24142 10.4611 4.24142 10.4611L4.13717 10.3986C4.13717 10.3986 3.95793 10.0734 3.89536 10.1734C3.83283 10.2735 4.14551 10.4194 4.14551 10.4194L4.24976 10.4778C4.24976 10.4778 3.87035 10.2985 3.8245 10.3902C3.77865 10.4819 4.34563 10.5403 4.34563 10.5403L4.43734 10.6028C4.43734 10.6028 4.05797 10.4986 4.10382 10.5945C4.14968 10.6904 4.52488 10.6695 4.52488 10.6695L4.61246 10.7321C4.61246 10.7321 4.23309 10.6404 4.28311 10.7279C4.33313 10.8154 4.70416 10.8071 4.70416 10.8071L4.79587 10.8822C4.79587 10.8822 4.42483 10.7863 4.47902 10.8988C4.53326 11.0114 4.95431 11.0072 4.95431 11.0072L5.05852 11.1031C5.05852 11.1031 4.66665 10.9697 4.69999 11.0739C4.73334 11.1782 5.17945 11.2324 5.17945 11.2324L5.27949 11.3324C5.27949 11.3324 4.85843 11.1907 4.98349 11.3199C5.10854 11.4492 5.41288 11.4825 5.41288 11.4825L5.5338 11.6284C5.5338 11.6284 5.11688 11.3783 5.17528 11.52C5.23363 11.6618 5.64218 11.7577 5.64218 11.7577L5.72555 11.8577C5.72555 11.8577 5.35035 11.6409 5.38787 11.7618C5.42538 11.8827 5.82563 12.0119 5.82563 12.0119L5.89233 12.1037C5.89233 12.1037 5.45043 11.841 5.48795 11.9744C5.52547 12.1079 5.94652 12.2037 5.94652 12.2037L6.00071 12.2871C6.00071 12.2871 5.59216 12.0537 5.58799 12.1662C5.58382 12.2788 6.06745 12.3914 6.06745 12.3914L6.07578 12.2954Z" fill="#FDCE12"/>
</g>
<defs>
<clipPath id="clip0_358_13536">
<rect width="24" height="24" rx="12" fill="white"/>
</clipPath>
</defs>
</svg>
