<svg width="24" height="24" viewBox="0 0 24 24" fill="none" xmlns="http://www.w3.org/2000/svg">
<g clip-path="url(#clip0_358_13826)">
<rect width="24" height="24" rx="12" fill="#CE1126"/>
<path d="M24.0836 1.52344H0V22.0391H24.0836V1.52344Z" fill="#CE1126"/>
<path d="M12 -1.80078L0 1.46925V11.9992H12V-1.80078Z" fill="#002B7F"/>
<path d="M6.94667 3L7.49795 4.69666L6.05469 3.64806H7.83866L6.3954 4.69666L6.94667 3Z" fill="white"/>
<path d="M4.49355 5.00781L5.04482 6.70447L3.60156 5.65588H5.38553L3.94227 6.70447L4.49355 5.00781Z" fill="white"/>
<path d="M9.45342 4.67188L9.97024 6.26249L8.61719 5.27944H10.2897L8.9366 6.26249L9.45342 4.67188Z" fill="white"/>
<path d="M8.17468 6.73438L8.51923 7.79479L7.61719 7.13942H8.73217L7.83013 7.79479L8.17468 6.73438Z" fill="white"/>
<path d="M6.94701 8.23828L7.63611 10.3591L5.83203 9.04836H8.06199L6.25792 10.3591L6.94701 8.23828Z" fill="white"/>
</g>
<defs>
<clipPath id="clip0_358_13826">
<rect width="24" height="24" rx="12" fill="white"/>
</clipPath>
</defs>
</svg>
