<svg width="24" height="24" viewBox="0 0 24 24" fill="none" xmlns="http://www.w3.org/2000/svg">
<g clip-path="url(#clip0_358_1305)">
<rect width="24" height="24" rx="12" fill="#244AA5"/>
<path d="M-3 1.80078H27V21.8008H-3V1.80078Z" fill="#244AA5"/>
<path d="M12.1514 8.13719C12.2685 8.27391 12.3469 8.41053 12.3469 8.57669C12.2486 8.62532 12.1127 8.64518 12.0343 8.73306C12.5226 8.66454 12.6199 9.23085 13.1669 9.01595C13.1867 9.09438 13.2652 9.16283 13.3624 9.13324L13.421 8.97726C13.6354 8.91869 13.5768 9.27006 13.812 9.20158C13.9293 9.29937 13.8508 9.46514 13.9293 9.58279C13.9293 9.71926 13.9879 9.83641 14.0464 9.95352C14.105 9.88554 14.1437 9.78775 14.2806 9.81705C14.3779 9.92425 14.4564 10.022 14.4761 10.1392C14.4365 10.364 14.3779 10.559 14.6121 10.6762V10.7446C14.769 10.8131 15.1204 10.6762 15.1204 10.9496C15.1005 11.0474 15.2177 10.9596 15.2574 11.0181C15.3547 10.9789 15.4916 10.9988 15.6088 10.9988C15.706 11.2038 15.4916 11.3502 15.4331 11.5358C15.5303 11.6331 15.4916 11.8093 15.4718 11.9259L15.4132 11.9552C15.569 11.9844 15.7646 11.9363 15.9016 12.0242L16.1557 12.1214C16.2728 12.0535 16.4088 12.043 16.5657 12.0535C16.6828 12.1414 16.5259 12.2877 16.6243 12.3557C16.7613 12.3557 16.8784 12.3756 16.8972 12.4928L16.9171 12.5315C17.0144 12.3557 17.2883 12.4728 17.4055 12.3464C17.601 12.3464 17.6397 12.5608 17.737 12.6779C17.7767 12.9812 17.4055 13.1182 17.5226 13.4204C17.4442 13.5668 17.2883 13.684 17.1712 13.8209C17.2099 13.8408 17.19 13.8889 17.19 13.9182C17.0729 13.9872 17.1712 14.1922 17.0143 14.2111C16.9955 14.3386 16.7612 14.2895 16.8386 14.4265C16.9955 14.6315 16.7612 14.758 16.7612 14.9441C16.6629 15.0518 16.4674 14.8458 16.4674 15.0518C16.3502 15.0811 16.2331 14.9441 16.1557 15.0613C16.116 15.1983 16.2331 15.2464 16.2143 15.3834C16.4088 15.3635 16.4674 15.5591 16.5458 15.6762L16.7414 15.8718C16.5458 16.0276 16.2917 15.8519 16.0574 15.9397C15.9988 15.9105 16.0574 15.8331 15.9988 15.8038C15.9402 15.7347 15.8231 15.7347 15.7259 15.7159C15.7447 15.8038 15.569 15.833 15.6474 15.9397C15.6474 15.969 15.6861 16.0568 15.6087 16.0568C15.4519 16.106 15.4718 15.9209 15.3347 15.9889C15.159 16.0568 15.296 16.3204 15.0419 16.2911C15.0806 16.5264 14.6518 16.6823 14.9446 16.8872C14.9833 16.926 14.9634 17.0044 14.9634 17.0629C14.7877 17.2198 14.476 17.1613 14.2805 17.1026C14.1237 17.0629 14.222 16.8674 14.1634 16.7607C14.1048 16.6624 13.9292 16.5944 13.9292 16.4574C13.8119 16.4092 13.7137 16.379 13.6353 16.2817C13.3623 16.5452 13.0299 16.7994 12.6397 16.8088C12.464 16.8966 12.3657 17.2491 12.0927 17.1026C11.9855 17.2784 11.6629 17.1026 11.6435 17.3558C11.5165 17.4049 11.575 17.5712 11.4971 17.6486C11.4678 17.8441 11.4971 18.0104 11.6629 18.1276C11.7314 18.2739 11.5165 18.2739 11.6043 18.411C11.6242 18.4591 11.6043 18.5281 11.575 18.548C11.5165 18.5772 11.4971 18.6066 11.5165 18.6651C11.4678 18.6651 11.448 18.6944 11.4093 18.7331C11.3601 18.8303 11.2043 18.8795 11.0966 18.9475C10.9894 18.9767 10.9109 18.8993 10.8429 18.8303C10.8231 18.938 10.7352 18.9966 10.628 18.9966C10.4717 18.9966 10.501 18.8596 10.3838 18.8011C10.4325 18.6254 10.2761 18.548 10.3253 18.3911C10.4523 18.2938 10.6667 18.2248 10.6082 18.0199C10.4717 17.8546 10.5203 17.6099 10.3838 17.4143C10.296 17.3369 10.1496 17.2198 10.1982 17.0337C10.3253 16.8873 10.1982 16.7116 10.1297 16.5557C10.1005 16.4282 10.0225 16.3111 10.0225 16.1646C9.80762 16.0381 9.79767 15.7055 9.49493 15.6762C9.28003 15.6762 9.24131 15.4033 9.02641 15.4221C9.00655 15.3834 8.95792 15.3541 8.91871 15.3154C8.76288 15.4221 8.56733 15.2861 8.37225 15.3342C8.2452 15.1198 8.47946 14.827 8.13749 14.6994V14.5635C8.17671 14.5823 8.19607 14.5435 8.20598 14.5237C8.22534 14.3773 7.96177 14.3585 8.06951 14.1922C8.01094 14.143 7.94245 14.1231 7.98167 14.0259C7.83475 13.7236 7.3955 13.753 7.29771 13.4497C7.37614 13.3817 7.37614 13.3127 7.40545 13.2541C7.33692 13.137 7.3176 13.0104 7.33692 12.8839C7.40545 12.864 7.44413 12.7762 7.48334 12.7071C7.3955 12.6486 7.28826 12.5608 7.19051 12.59C7.01482 12.5608 6.88773 12.4248 6.7314 12.3464C6.69218 12.3076 6.71208 12.2387 6.71208 12.1905C6.92694 12.1215 6.68281 11.8187 6.94634 11.858C7.01486 11.7701 7.16124 11.7408 7.26848 11.6723C7.37618 11.653 7.46402 11.6922 7.57122 11.7215C7.65906 11.8381 7.81543 11.7895 7.90323 11.8872C7.99108 11.8674 8.09881 11.8187 8.20602 11.8674C8.20602 11.7016 8.28395 11.6038 8.40156 11.4867C8.42092 11.4187 8.52812 11.3696 8.61596 11.3308C8.78227 11.3696 8.97732 11.3696 9.09496 11.2524C9.1729 11.3015 9.24138 11.2038 9.32922 11.2038C9.43639 11.1839 9.52427 11.2132 9.6027 11.2624C9.61211 11.0668 9.95407 11.2331 10.0226 10.9988C10.1005 10.8424 9.80769 10.7839 9.82701 10.6469C9.77839 10.4905 9.89553 10.4126 9.95407 10.3054C10.0226 10.2761 10.1005 10.2369 10.1883 10.2563C10.4132 10.1783 10.2375 9.71926 10.5988 9.88554C10.5988 9.9342 10.579 9.99274 10.6082 10.0027C10.7353 10.0027 10.7548 9.85612 10.843 9.80714C10.8817 9.67067 10.7939 9.50439 10.911 9.39716C10.9696 9.38725 11.0187 9.36789 11.0574 9.31873C11.0574 9.21152 10.9988 9.15299 10.911 9.08447C10.8817 9.13327 10.8038 9.09441 10.7548 9.11377C10.7548 8.99662 10.6867 8.91873 10.6668 8.81099C10.6082 8.78172 10.579 8.73309 10.5988 8.66457C10.6867 8.57673 10.5988 8.36183 10.8038 8.41056C10.8817 8.34247 11.0187 8.3911 11.0966 8.27395C11.3016 8.15684 11.5751 8.15684 11.7314 7.94193C11.7999 7.95185 11.8779 7.88336 11.9463 7.94193C11.9657 8.06896 12.1514 8.0198 12.1514 8.13719Z" fill="#D0A650"/>
<path d="M13.6639 5.49016L13.3939 4.66016L13.1272 5.49016H12.2539L12.9606 6.00349L12.6906 6.83349L13.3939 6.32016L14.1006 6.83349L13.8306 6.00349L14.5372 5.49016H13.6639Z" fill="white"/>
<path d="M16.41 5.97315L16.14 5.14648L15.8733 5.97315H15L15.7067 6.48648L15.4367 7.31648L16.14 6.80315L16.8467 7.31648L16.5767 6.48648L17.2833 5.97315H16.41Z" fill="white"/>
<path d="M19.0311 6.92628L18.7644 6.09961L18.4944 6.92628H17.6211L18.3278 7.43961L18.0578 8.26961L18.7644 7.75628L19.4678 8.26961L19.1978 7.43961L19.9044 6.92628H19.0311Z" fill="white"/>
<path d="M10.8748 5.49016L10.6082 4.66016L10.3382 5.49016H9.46484L10.1715 6.00349L9.90151 6.83349L10.6082 6.32016L11.3115 6.83349L11.0415 6.00349L11.7482 5.49016H10.8748Z" fill="white"/>
<path d="M8.12875 5.97315L7.86208 5.14648L7.59208 5.97315H6.71875L7.42542 6.48648L7.15542 7.31648L7.86208 6.80315L8.56542 7.31648L8.29542 6.48648L9.00208 5.97315H8.12875Z" fill="white"/>
<path d="M5.50766 6.92628L5.23766 6.09961L4.97099 6.92628H4.09766L4.80432 7.43961L4.53432 8.26961L5.23766 7.75628L5.94432 8.26961L5.67432 7.43961L6.38099 6.92628H5.50766Z" fill="white"/>
</g>
<defs>
<clipPath id="clip0_358_1305">
<rect width="24" height="24" rx="12" fill="white"/>
</clipPath>
</defs>
</svg>
