<svg width="24" height="24" viewBox="0 0 24 24" fill="none" xmlns="http://www.w3.org/2000/svg">
<g clip-path="url(#clip0_358_14490)">
<path d="M18.0011 7.71484H9.42969V24.0006H18.0011V7.71484Z" fill="#DE2010"/>
<path d="M24.0011 7.71484H15.4297V24.0006H24.0011V7.71484Z" fill="#EF7D00"/>
<path d="M19.7154 7.71484H15.4297V24.0006H19.7154V7.71484Z" fill="black"/>
<path d="M-12 0H24V8.57143H11.1429V24H-12V0Z" fill="#198A00"/>
<path d="M18.0172 4.47763C18.0172 4.47763 19.1226 4.04441 19.2297 3.95508C19.2784 4.00867 18.7866 4.55356 17.8322 4.75454C18.699 4.56696 19.4391 3.97741 19.5901 3.99527C19.6339 4.00421 19.6242 4.57142 17.6374 5.06271C19.0106 4.7322 19.8092 4.12479 19.7995 4.19179C19.8092 4.20519 19.6631 4.66968 18.4604 5.03144C18.7964 4.95997 19.707 4.45083 19.6972 4.54909C19.7264 4.58929 18.8158 5.66118 17.17 5.31283C18.4847 5.62546 19.3369 4.87066 19.4586 4.88406C19.483 4.88852 19.2151 5.54506 17.5595 5.58526C18.3533 5.50934 18.1244 5.58079 18.1244 5.58079C18.1244 5.58079 17.6569 5.91575 17.092 5.68799C17.5352 5.79966 17.5839 5.80411 17.5936 5.83983C17.5644 5.88449 17.1992 5.9515 16.8486 5.7773C17.131 5.88449 17.3842 5.90237 17.3891 5.94257C17.3842 5.95595 17.2041 6.04975 17.0434 5.98277C16.8827 5.91575 15.4023 5.08057 15.4023 5.08057L17.9247 4.44637L18.0172 4.47763Z" fill="#EF7D00" stroke="black" stroke-width="0.0481989" stroke-linecap="round" stroke-linejoin="round"/>
<path d="M15.0508 6.73704C14.8289 6.73704 14.8228 6.91812 14.8228 6.91812C14.8228 6.91812 14.8045 6.93119 14.8167 7.01896C14.8533 6.95919 14.8717 6.94053 14.8717 6.94053C14.8961 6.94427 14.9979 6.97227 15.1587 6.85652C15.0121 6.99653 15.0996 7.04881 15.0996 7.04881C15.0996 7.04881 15.065 7.15896 15.177 7.18137C15.1424 7.13655 15.1627 7.09735 15.1627 7.09735C15.1627 7.09735 15.3195 7.08242 15.3093 6.90693C15.3154 7.0656 15.409 7.10481 15.409 7.10481C15.409 7.10481 15.409 7.19255 15.5108 7.20004C15.4559 7.15522 15.4681 7.08614 15.4681 7.08614C15.4681 7.08614 15.6004 6.9984 15.4884 6.84904C15.5556 6.81355 15.6105 6.71463 15.6105 6.71463C15.6105 6.71463 15.519 6.67914 15.4762 6.64929C15.4558 6.61006 15.4742 6.39537 15.4742 6.39537L15.4192 6.11719L15.2625 6.55034C15.2686 6.48873 15.2726 6.73704 15.0508 6.73704Z" fill="#EF7D00" stroke="black" stroke-width="0.0481989" stroke-linecap="round" stroke-linejoin="round"/>
<path d="M16.1455 6.11339C16.1503 6.11786 16.3111 6.28317 16.467 6.27422C16.5254 6.22956 16.3452 6.13127 16.3452 6.10893C16.4085 6.16255 16.6764 6.3725 16.8469 6.29656C16.915 6.20721 16.7251 6.22062 16.5156 5.97938C16.6618 6.06872 17.0271 6.26529 17.1975 6.18935C17.2706 6.11786 16.8176 5.89448 16.6666 5.72026L16.277 5.53711L15.7461 5.93471L16.1455 6.11339Z" fill="#EF7D00" stroke="black" stroke-width="0.0481989" stroke-linecap="round" stroke-linejoin="round"/>
<path d="M15.5469 4.75442C15.5469 4.75442 15.727 4.65617 16.4477 4.70529C16.5256 4.71422 16.9395 4.57577 17.071 4.53558C17.2804 4.49985 17.9475 4.36586 18.1277 4.2408C18.2543 4.22741 18.0936 4.45518 17.9329 4.50878C17.7625 4.58024 17.144 4.77675 16.9249 4.74996C17.1879 4.75442 17.0418 4.95094 16.6035 4.85715C16.8129 4.96434 16.735 4.9822 16.735 4.9822C16.735 4.9822 16.3649 5.00007 16.2676 4.92414C16.5159 5.009 16.4136 5.04026 16.4136 5.04026C16.4136 5.04026 16.1604 5.06259 16.0435 5.01346C16.2237 5.06259 16.1312 5.09386 16.1312 5.09386C16.1312 5.09386 15.9851 5.11619 15.8634 5.07599C15.7417 5.0358 15.5566 4.75442 15.5469 4.75442Z" fill="#EF7D00" stroke="black" stroke-width="0.0481989" stroke-linecap="round" stroke-linejoin="round"/>
<path d="M15.8364 6.20446L15.8629 6.64133C15.8629 6.64133 15.8486 6.66374 15.8364 6.67682C15.8242 6.68987 15.4985 6.63013 15.5433 6.8579C15.5433 6.95126 15.5453 6.97552 15.6145 7.0278C15.5962 6.96618 15.6023 6.92326 15.6023 6.92326C15.6023 6.92326 15.6939 6.97367 15.7835 6.83551C15.7224 6.9718 15.7651 7.02034 15.7794 7.02408C15.7937 7.04836 15.755 7.15849 15.8771 7.15662C15.8303 7.11554 15.8527 7.0558 15.8527 7.0558C15.8527 7.0558 15.9809 7.03715 15.9362 6.82431C15.983 6.78136 16.0013 6.82244 16.0013 6.82244C16.0013 6.82244 16.0155 6.94939 16.1275 6.92326C16.1784 6.94939 16.1193 7.01846 16.1193 7.01846C16.1193 7.01846 16.2008 7.02034 16.2252 6.95685C16.2496 6.89339 16.2781 6.77949 16.1438 6.73282C16.1275 6.68803 16.1967 6.68428 16.1967 6.68428C16.1967 6.68428 16.2822 6.71041 16.3066 6.74962C16.331 6.78882 16.3229 6.64695 16.2171 6.632C16.0868 6.62826 16.0786 6.604 16.0786 6.59841C16.0786 6.5928 16.0563 6.28102 16.0461 6.19141L15.8364 6.20446Z" fill="#EF7D00" stroke="black" stroke-width="0.0481989" stroke-linecap="round" stroke-linejoin="round"/>
<path d="M16.289 6.57767C16.2906 6.55765 16.0669 6.2813 16.1236 6.24558C16.1804 6.25629 16.2734 6.38198 16.3488 6.34118C16.326 6.29219 16.2586 6.31978 16.1822 6.19435C16.1057 6.05256 16.0945 5.8397 15.8267 5.60751C16.0001 5.85322 16.3934 5.99724 16.4101 5.9256C16.4267 5.85395 16.0637 5.58303 16.0823 5.51774C16.1545 5.65183 16.519 5.95061 16.7875 5.92586C16.806 5.86834 16.5676 5.75224 16.5063 5.64383C16.3348 5.53814 15.8757 5.17518 15.8665 5.09101C15.6994 4.86754 15.5951 4.79994 15.5466 4.7742C15.5278 4.75392 15.5231 4.73454 15.5194 4.72221C15.4157 4.49798 15.5531 4.42516 15.6335 4.4144C15.6996 4.40765 15.7188 4.41674 15.7665 4.39559C15.7101 4.37536 15.6537 4.35644 15.5974 4.33621C15.6709 4.38566 15.8586 4.34213 15.8179 4.48456C15.9002 4.45583 16.0754 4.26472 15.6194 4.22159C15.471 4.06546 14.861 3.97573 14.7083 4.65715C14.7205 4.6667 14.7269 4.67455 14.7657 4.70113C14.573 4.61549 14.0533 4.54944 13.8661 4.52169C13.3601 4.3878 12.8347 4.06515 12.7842 4.10483C12.7166 4.13233 13.0899 4.45082 13.0705 4.45787C12.7468 4.2848 12.4512 4.16218 12.1761 4.0506C11.9825 3.98424 11.7887 3.82976 11.7673 3.85914C11.6961 3.99448 12.0776 4.33466 12.1486 4.37467C12.2195 4.41295 12.7777 4.65041 12.7695 4.65338C11.9288 4.30341 11.7879 4.23996 11.7457 4.19961C11.6716 4.1843 11.4911 3.96078 11.4408 3.97516C11.4132 3.99997 11.4685 4.35315 11.8696 4.51169C11.935 4.55539 12.7295 4.81681 12.7217 4.8373C12.7198 4.84242 11.8117 4.49356 11.7765 4.48109C11.6014 4.41812 11.3866 4.19742 11.3464 4.22223C11.3081 4.24476 11.4455 4.48364 11.6224 4.55857C11.7151 4.5961 12.0708 4.75768 12.3912 4.86052C12.4117 4.8673 11.8152 4.65306 11.5284 4.54315C11.3984 4.47696 11.3372 4.39446 11.3174 4.41221C11.2881 4.42996 11.3647 4.78285 12.2862 4.98198C12.3105 4.99145 12.6106 4.91677 12.5958 4.92667C12.5921 4.92915 12.2978 4.98791 12.2691 4.98591C12.2436 4.98233 12.0824 5.00341 12.0795 5.01108C12.0697 5.03495 12.1379 5.16131 12.6137 5.13495C12.6745 5.1316 13.0046 5.0247 12.9769 5.04769C12.963 5.0592 12.5274 5.18903 12.4942 5.1916C12.4654 5.19533 12.3124 5.21001 12.3067 5.22494C12.2998 5.2453 12.42 5.33523 12.6755 5.34964C12.9017 5.36066 13.3316 5.22285 13.323 5.23178C13.3144 5.24072 12.9086 5.36826 12.898 5.37603C12.8833 5.38365 12.7347 5.39104 12.7295 5.40151C12.7174 5.42754 12.9438 5.62178 13.6136 5.41449C13.5463 5.49785 13.2217 5.55486 13.2221 5.56987C13.2206 5.58076 13.2936 5.64548 13.4071 5.66864C13.4639 5.68022 13.5416 5.67786 13.6126 5.66757C13.74 5.64416 13.8744 5.59791 14.0451 5.45322C14.0655 5.49863 13.6187 5.70601 13.6397 5.72579C13.7365 5.80819 14.0584 5.71516 14.0794 5.70436C14.1005 5.69354 14.6992 5.38394 14.6971 5.3481C14.7064 5.39402 13.9253 5.78329 13.9337 5.79926C13.9839 5.87264 14.2507 5.7954 14.2635 5.78866C14.2762 5.78193 14.604 5.61951 14.613 5.61472C14.6219 5.60994 14.2277 5.82634 14.2628 5.85927C14.2459 5.9998 14.8785 5.76229 14.928 5.73271C14.9528 5.71792 14.6241 5.86527 14.6233 5.93526C14.7291 6.09939 15.068 6.04733 15.1203 6.01122C15.1465 5.99316 15.0895 6.13316 15.1079 6.12044C15.1143 6.11781 15.1816 6.04479 15.2075 5.99194C15.1992 6.03779 15.1621 6.11004 15.1404 6.19293C15.1187 6.27582 15.1125 6.36935 15.0827 6.46873C15.0758 6.51237 15.2915 6.38339 15.2602 6.07503C15.2786 6.23542 15.1921 6.53534 15.2147 6.55093C15.26 6.5821 15.3853 6.40156 15.398 6.27947C15.4352 6.34114 15.5132 6.46986 15.5804 6.49948C15.5731 6.40619 15.5817 6.41047 15.5514 6.31878C15.5689 6.19705 15.5713 6.02857 15.5755 5.83834C15.758 6.15899 15.8308 6.29439 15.7798 6.53995C15.8341 6.5607 15.9208 6.36855 15.9138 6.26965C15.9835 6.54447 16.2843 6.58567 16.289 6.57767Z" fill="#EF7D00" stroke="black" stroke-width="0.0481989" stroke-linecap="round" stroke-linejoin="round"/>
<path d="M13.2515 4.54102C13.2515 4.54102 13.1273 4.62712 12.9727 4.62205C13.0113 4.76387 13.3316 4.65497 13.3316 4.65497C13.3316 4.65497 13.177 4.81198 13.0665 4.8373C13.1328 4.88795 13.4117 4.87023 13.4586 4.8449C13.5055 4.81958 13.5884 4.72082 13.5884 4.72082C13.5884 4.72082 13.3012 5.0247 13.2598 5.02217C13.2543 5.05762 13.5608 5.04496 13.6243 4.99178C13.6877 4.9386 13.8479 4.8601 13.8479 4.8601C13.8479 4.8601 13.4282 5.12853 13.4089 5.12853C13.5663 5.16652 13.881 5.08295 14.0826 4.96899C13.7844 5.15132 13.7568 5.18424 13.6049 5.24502C13.7402 5.27288 13.8092 5.35645 14.2676 5.17411C14.5299 5.06016 14.6789 4.8525 14.6789 4.8525C14.5161 5.05256 14.2593 5.22224 13.9749 5.38937C13.9583 5.41975 14.2786 5.54383 14.6872 5.15385" fill="#EF7D00"/>
<path d="M13.2515 4.54102C13.2515 4.54102 13.1273 4.62712 12.9727 4.62205C13.0113 4.76387 13.3316 4.65497 13.3316 4.65497C13.3316 4.65497 13.177 4.81198 13.0665 4.8373C13.1328 4.88795 13.4117 4.87023 13.4586 4.8449C13.5055 4.81958 13.5884 4.72082 13.5884 4.72082C13.5884 4.72082 13.3012 5.0247 13.2598 5.02217C13.2543 5.05762 13.5608 5.04496 13.6243 4.99178C13.6877 4.9386 13.8479 4.8601 13.8479 4.8601C13.8479 4.8601 13.4282 5.12853 13.4089 5.12853C13.5663 5.16652 13.881 5.08295 14.0826 4.96899C13.7844 5.15132 13.7568 5.18424 13.6049 5.24502C13.7402 5.27288 13.8092 5.35645 14.2676 5.17411C14.5299 5.06016 14.6789 4.8525 14.6789 4.8525C14.5161 5.05256 14.2593 5.22224 13.9749 5.38937C13.9583 5.41975 14.2786 5.54383 14.6872 5.15385" stroke="black" stroke-width="0.0481989" stroke-linecap="round" stroke-linejoin="round"/>
<path d="M15.4688 5.38672C15.4688 5.38672 15.4964 5.50574 15.6068 5.59691C15.7173 5.68807 15.7255 5.7767 15.7255 5.7767" fill="#EF7D00"/>
<path d="M15.4688 5.38672C15.4688 5.38672 15.4964 5.50574 15.6068 5.59691C15.7173 5.68807 15.7255 5.7767 15.7255 5.7767" stroke="black" stroke-width="0.0481989" stroke-linecap="round" stroke-linejoin="round"/>
<path d="M15.4141 4.61328C15.4141 4.61328 15.4527 4.71964 15.5659 4.78801C15.6819 4.85639 15.8558 5.07164 15.8696 5.10963C15.883 5.1556 15.9497 5.48696 15.9442 5.5224" fill="#EF7D00"/>
<path d="M15.4141 4.61328C15.4141 4.61328 15.4527 4.71964 15.5659 4.78801C15.6819 4.85639 15.8558 5.07164 15.8696 5.10963C15.883 5.1556 15.9497 5.48696 15.9442 5.5224" stroke="black" stroke-width="0.0481989" stroke-linecap="round" stroke-linejoin="round"/>
<path d="M14.7111 4.77734C14.7194 4.81786 14.5482 5.02299 14.7829 5.26356C14.5703 5.50159 14.5703 5.53199 14.5703 5.53199C14.5703 5.53199 14.689 5.59276 14.9016 5.42563C15.2523 5.82069 15.1354 6.00148 15.1354 6.00148" fill="#EF7D00"/>
<path d="M14.7111 4.77734C14.7194 4.81786 14.5482 5.02299 14.7829 5.26356C14.5703 5.50159 14.5703 5.53199 14.5703 5.53199C14.5703 5.53199 14.689 5.59276 14.9016 5.42563C15.2523 5.82069 15.1354 6.00148 15.1354 6.00148" stroke="black" stroke-width="0.0481989" stroke-linecap="round" stroke-linejoin="round"/>
<path d="M15.1067 5.72239C15.1067 5.72239 15.0744 5.67995 15.132 5.52148C15.1838 5.57878 15.2415 5.59101 15.2668 5.6142C15.292 5.63739 15.5568 5.67254 15.5736 5.83482" fill="#EF7D00"/>
<path d="M15.1067 5.72239C15.1067 5.72239 15.0744 5.67995 15.132 5.52148C15.1838 5.57878 15.2415 5.59101 15.2668 5.6142C15.292 5.63739 15.5568 5.67254 15.5736 5.83482" stroke="black" stroke-width="0.0481989" stroke-linecap="round" stroke-linejoin="round"/>
<path d="M15.4163 4.23459C15.4163 4.22267 15.3629 4.11775 15.1641 4.2489C15.2707 4.25486 15.3759 4.3109 15.4163 4.23459Z" fill="#EF7D00" stroke="black" stroke-width="0.0481989" stroke-linecap="round" stroke-linejoin="round"/>
<path d="M17.3159 4.71484C17.3257 4.71931 17.9102 4.83546 18.105 4.77739C17.8566 5.08117 17.3598 4.87567 17.3598 4.87567C17.6033 4.94268 17.6131 4.93821 17.691 5.00075C17.7153 5.05883 17.2429 5.03203 17.087 4.95161C17.5205 5.0767 17.5303 5.06777 17.5449 5.11691C17.5644 5.18392 16.8338 5.09904 16.7704 5.00969C16.9653 5.14818 17.0724 5.17498 17.1796 5.23752C17.0481 5.29113 16.8045 5.34473 16.3564 5.05436C16.9458 5.54577 17.4767 5.5145 17.5595 5.60384C17.3549 5.88082 16.561 5.43856 16.1957 5.21519C15.8304 4.99182 16.9945 5.75574 17.1017 5.74233C17.0481 5.81827 16.6633 5.75127 16.6389 5.71554" fill="#EF7D00"/>
<path d="M17.3159 4.71484C17.3257 4.71931 17.9102 4.83546 18.105 4.77739C17.8566 5.08117 17.3598 4.87567 17.3598 4.87567C17.6033 4.94268 17.6131 4.93821 17.691 5.00075C17.7153 5.05883 17.2429 5.03203 17.087 4.95161C17.5205 5.0767 17.5303 5.06777 17.5449 5.11691C17.5644 5.18392 16.8338 5.09904 16.7704 5.00969C16.9653 5.14818 17.0724 5.17498 17.1796 5.23752C17.0481 5.29113 16.8045 5.34473 16.3564 5.05436C16.9458 5.54577 17.4767 5.5145 17.5595 5.60384C17.3549 5.88082 16.561 5.43856 16.1957 5.21519C15.8304 4.99182 16.9945 5.75574 17.1017 5.74233C17.0481 5.81827 16.6633 5.75127 16.6389 5.71554" stroke="black" stroke-width="0.0481989" stroke-linecap="round" stroke-linejoin="round"/>
<path d="M17.466 5.22852C17.3978 5.23745 17.1933 5.23745 17.1641 5.23298L17.466 5.22852Z" fill="#EF7D00"/>
<path d="M17.466 5.22852C17.3978 5.23745 17.1933 5.23745 17.1641 5.23298" stroke="black" stroke-width="0.0481989" stroke-linecap="round" stroke-linejoin="round"/>
<path d="M13.0781 4.46094C13.0781 4.46094 13.5226 4.67619 13.7104 4.66099C13.6607 4.70404 13.5861 4.72177 13.5861 4.72177C13.6331 4.7395 13.7628 4.80281 13.9589 4.76229C13.9119 4.80534 13.8512 4.85346 13.8512 4.85346C13.8512 4.85346 14.0196 4.9117 14.2101 4.82053C14.1522 4.88637 14.119 4.93449 14.119 4.93449L14.2515 4.94209" fill="#EF7D00"/>
<path d="M13.0781 4.46094C13.0781 4.46094 13.5226 4.67619 13.7104 4.66099C13.6607 4.70404 13.5861 4.72177 13.5861 4.72177C13.6331 4.7395 13.7628 4.80281 13.9589 4.76229C13.9119 4.80534 13.8512 4.85346 13.8512 4.85346C13.8512 4.85346 14.0196 4.9117 14.2101 4.82053C14.1522 4.88637 14.119 4.93449 14.119 4.93449L14.2515 4.94209" stroke="black" stroke-width="0.0481989" stroke-linecap="round" stroke-linejoin="round"/>
</g>
<defs>
<clipPath id="clip0_358_14490">
<rect width="24" height="24" rx="12" fill="white"/>
</clipPath>
</defs>
</svg>
