<svg width="24" height="24" viewBox="0 0 24 24" fill="none" xmlns="http://www.w3.org/2000/svg">
<g clip-path="url(#clip0_358_14511)">
<path d="M0 0H36V24H0V0Z" fill="#006400"/>
<path d="M0 3.42773H36.0049V20.5706H0V3.42773Z" fill="#FFD200"/>
<path d="M0 6.85742H36.0049V17.1431H0V6.85742Z" fill="#D40000"/>
<path d="M0 10.2852H36.0037V13.7137H0V10.2852Z" fill="black"/>
<mask id="mask0_358_14511" style="mask-type:luminance" maskUnits="userSpaceOnUse" x="0" y="0" width="48" height="24">
<path d="M0 0H48V24H0V0Z" fill="white"/>
</mask>
<g mask="url(#mask0_358_14511)">
<path d="M0 0V24L16 12L0 0Z" fill="black" stroke="black" stroke-width="1.90476"/>
</g>
<path d="M0 0V24L16 12L0 0Z" fill="white"/>
<path d="M6.08469 5.9668L9.25383 15.7202L0.957031 9.69228H11.2124L2.91562 15.7202L6.08469 5.9668Z" fill="#D40000"/>
<path fill-rule="evenodd" clip-rule="evenodd" d="M5.80974 8.2226C5.69644 8.09285 5.5287 8.02395 5.35689 8.03665C5.18509 8.04932 5.0293 8.14213 4.93628 8.28711C4.83763 8.28472 4.73899 8.29196 4.64175 8.30867C4.5508 8.32432 4.4719 8.38043 4.42729 8.46124C4.38264 8.54201 4.37718 8.6387 4.41236 8.72399L4.74471 8.70429C4.88087 8.78113 4.96682 8.92368 4.97129 9.07996L5.00873 10.4006C4.94452 10.5333 4.91208 10.6791 4.91393 10.8265C4.91621 11.0039 4.93028 11.1809 4.95615 11.3565C4.98209 11.5328 4.92412 11.7111 4.79945 11.8384C4.60621 12.0357 4.43818 12.2563 4.29923 12.495C4.19255 12.6783 4.21134 12.9087 4.34632 13.0723L4.725 14.5375H7.56716L7.72488 13.2943C7.79184 12.7665 8.09278 12.297 8.54435 12.0157L8.65619 12.0475C8.73132 12.0688 8.81103 12.0339 8.84641 11.9643C8.88178 11.8946 8.86292 11.8097 8.80138 11.7616L6.11278 9.65919L6.04212 8.77431C6.02581 8.57022 5.94435 8.37682 5.80974 8.2226Z" fill="#FFD200"/>
<path d="M5.78361 8.24616L5.78138 8.24363L5.83584 8.19548L5.83807 8.198L5.78361 8.24616ZM5.78138 8.24363C5.76669 8.22701 5.75068 8.2112 5.73384 8.1965L5.78176 8.14172C5.80059 8.15815 5.81875 8.17615 5.83584 8.19548L5.78138 8.24363ZM5.78182 8.1416V8.14171L5.75786 8.16911L5.78182 8.1416ZM5.73389 8.19663C5.71702 8.18195 5.69939 8.16849 5.68139 8.15653L5.7216 8.09579C5.7428 8.10986 5.76294 8.12518 5.78182 8.1416L5.73389 8.19663ZM5.68139 8.15653C5.58799 8.09446 5.47533 8.06418 5.36063 8.07263L5.35549 7.99963C5.48605 7.98999 5.61469 8.02475 5.7216 8.09579L5.68139 8.15653ZM5.36063 8.07263L5.35727 8.07293L5.35215 7.99993L5.35549 7.99963L5.36063 8.07263ZM5.35185 7.99987H5.35216L5.35473 8.03637L5.35185 7.99987ZM5.35756 8.07288C5.33431 8.07468 5.31218 8.07791 5.29143 8.08235L5.2763 8.01109C5.30187 8.00563 5.3272 8.00182 5.35185 7.99987L5.35756 8.07288ZM5.29143 8.08235C5.2698 8.08693 5.24849 8.09302 5.2278 8.10035L5.20356 8.03165C5.22718 8.0233 5.25155 8.01638 5.2763 8.01109L5.29143 8.08235ZM5.2278 8.10035C5.122 8.13779 5.0301 8.20967 4.9681 8.30624L4.90679 8.26693C4.97759 8.15658 5.0826 8.07444 5.20356 8.03165L5.2278 8.10035ZM4.9681 8.30624L4.93657 8.32309L4.93745 8.28658L4.9681 8.30624ZM4.93657 8.32309C4.93303 8.32301 4.92933 8.32294 4.92682 8.32294L4.9277 8.24995C4.932 8.24999 4.93527 8.2501 4.93838 8.2501L4.93663 8.3231L4.93657 8.32309ZM4.92682 8.32294H4.92667L4.92725 8.28644L4.92682 8.32294ZM4.92667 8.32294C4.91327 8.32278 4.89978 8.32263 4.88654 8.32278L4.88596 8.2498C4.89994 8.24968 4.91406 8.24972 4.92784 8.24995L4.92667 8.32294ZM4.88654 8.32278C4.87387 8.32286 4.86038 8.32322 4.84656 8.32366L4.84401 8.25067C4.85741 8.25023 4.87143 8.2498 4.88596 8.2498L4.88654 8.32278ZM4.84656 8.32366C4.78007 8.32603 4.71394 8.33293 4.64907 8.34407L4.63681 8.27223C4.70567 8.26039 4.77498 8.25315 4.84401 8.25067L4.84656 8.32366ZM4.64907 8.34407L4.64761 8.34437L4.63537 8.27254L4.63681 8.27223L4.64907 8.34407ZM4.6352 8.27248H4.63536L4.64149 8.30839L4.6352 8.27248ZM4.64779 8.34431C4.63636 8.3463 4.62531 8.34903 4.61484 8.35226L4.5935 8.28266C4.60731 8.27839 4.62134 8.27492 4.6352 8.27248L4.64779 8.34431ZM4.61484 8.35226C4.60454 8.35544 4.59403 8.35954 4.58365 8.36421L4.55369 8.29776C4.56626 8.29209 4.57955 8.28696 4.5935 8.28266L4.61484 8.35226ZM4.55356 8.29776H4.55369L4.56865 8.33099L4.55356 8.29776ZM4.58376 8.36421C4.532 8.38776 4.4884 8.42752 4.46042 8.47826L4.39654 8.44317C4.43224 8.37837 4.48773 8.32767 4.55356 8.29776L4.58376 8.36421ZM4.39641 8.44346L4.39654 8.44317L4.42846 8.4607L4.39641 8.44346ZM4.46055 8.47797L4.45856 8.48165L4.39442 8.44714L4.39641 8.44346L4.46055 8.47797ZM4.39442 8.4473L4.39442 8.44714L4.42649 8.4644L4.39442 8.4473ZM4.45856 8.48149C4.45351 8.49096 4.4488 8.50126 4.44465 8.51218L4.37656 8.4862C4.38134 8.47353 4.38743 8.46042 4.39442 8.4473L4.45856 8.48149ZM4.37656 8.48636V8.4862L4.4106 8.4992L4.37656 8.48636ZM4.44465 8.51202C4.44068 8.52256 4.43729 8.53332 4.43464 8.54405L4.36397 8.52666C4.36731 8.51302 4.37158 8.49948 4.37656 8.48636L4.44465 8.51202ZM4.36397 8.5268V8.52666L4.39931 8.53537L4.36397 8.5268ZM4.43464 8.54392C4.42128 8.59845 4.42534 8.6566 4.44718 8.70964L4.3799 8.73727C4.35213 8.66988 4.34701 8.5961 4.36397 8.5268L4.43464 8.54392ZM4.41569 8.75996L4.3799 8.73727L4.41354 8.72347L4.41569 8.75996ZM4.41138 8.68697L4.74374 8.66727L4.74804 8.74027L4.41569 8.75996L4.41138 8.68697ZM4.74374 8.66727L4.76356 8.67198L4.7459 8.70376L4.74374 8.66727ZM4.76356 8.67198C4.76852 8.67475 4.77068 8.67599 4.77195 8.67674L4.7348 8.73946C4.73111 8.7373 4.72813 8.73552 4.72813 8.73552L4.76347 8.67197L4.76356 8.67198ZM4.77195 8.67674C4.79202 8.68858 4.81123 8.70195 4.82926 8.71647L4.78367 8.77324C4.76848 8.761 4.75214 8.74965 4.73489 8.73948L4.77195 8.67674ZM4.82926 8.71647C4.84723 8.73095 4.86419 8.74672 4.87975 8.76352L4.82646 8.81309C4.81329 8.79889 4.79894 8.78553 4.78367 8.77324L4.82926 8.71647ZM4.87975 8.76352C4.95854 8.84813 5.00558 8.95974 5.00897 9.07844L4.93598 9.08043C4.93312 8.9795 4.89324 8.8848 4.82646 8.81309L4.87975 8.76352ZM5.00897 9.07844L5.04643 10.3991L4.97343 10.4011L4.93598 9.08043L5.00897 9.07844ZM5.04643 10.3991L5.0427 10.4159L5.00992 10.4001L5.04643 10.3991ZM5.0427 10.4159C5.04059 10.4203 5.03761 10.4266 5.03463 10.4331L4.96851 10.4026C4.9709 10.3973 4.9736 10.3916 4.97715 10.3843L5.0427 10.4159ZM4.96851 10.4028V10.4026L5.00157 10.4179L4.96851 10.4028ZM5.03463 10.433C5.0266 10.4505 5.01898 10.4687 5.01187 10.4871L4.94401 10.4609C4.95141 10.4417 4.95962 10.4222 4.96851 10.4028L5.03463 10.433ZM4.94388 10.461L4.94401 10.4609L4.97792 10.474L4.94388 10.461ZM5.01199 10.487C5.005 10.5052 4.99859 10.5237 4.9928 10.5423L4.9232 10.5206C4.92944 10.5006 4.93635 10.4807 4.94388 10.461L5.01199 10.487ZM4.9928 10.5423C4.9644 10.6335 4.95042 10.7292 4.95162 10.8255L4.87863 10.8264C4.87732 10.7226 4.89245 10.6194 4.9232 10.5207L4.9928 10.5423V10.5423ZM4.95162 10.8255C4.95166 10.8317 4.95177 10.838 4.95192 10.8447L4.87894 10.8459C4.87886 10.8398 4.87878 10.833 4.87863 10.8264L4.95162 10.8255V10.8255ZM4.95192 10.8447C4.95236 10.8684 4.95294 10.8928 4.95391 10.9177L4.88092 10.9203C4.88004 10.8962 4.87934 10.8713 4.87894 10.8459L4.95192 10.8447ZM4.95391 10.9177C4.95463 10.941 4.95586 10.9653 4.95726 10.9907L4.88428 10.9946C4.88296 10.971 4.88182 10.9461 4.88092 10.9203L4.95391 10.9177ZM4.95726 10.9907C4.96389 11.1117 4.97596 11.2319 4.99342 11.3507L4.92127 11.3612C4.90331 11.2391 4.89093 11.1167 4.88428 10.9946L4.95726 10.9907ZM4.99342 11.3507L4.99372 11.3524L4.92157 11.3629L4.92127 11.3612L4.99342 11.3507ZM4.99372 11.3524V11.3525L4.95765 11.3577L4.99372 11.3524ZM4.99372 11.3525C4.99753 11.379 4.99961 11.4053 4.99994 11.4312L4.92694 11.4321C4.92664 11.4089 4.92484 11.3857 4.92157 11.3629L4.99372 11.3526V11.3525ZM4.99994 11.4312C5.00025 11.457 4.99892 11.4831 4.99589 11.509L4.92347 11.5008C4.92604 11.4784 4.92724 11.4553 4.92694 11.432L4.99994 11.4312V11.4312ZM4.99589 11.509C4.98049 11.6411 4.92182 11.7662 4.82664 11.8634L4.77476 11.8123C4.85838 11.7269 4.90994 11.617 4.92347 11.5008L4.99589 11.509ZM4.82664 11.8634L4.82653 11.8637L4.80071 11.8379L4.82664 11.8634ZM4.82653 11.8637C4.82551 11.8647 4.83269 11.8556 4.83075 11.8585L4.77001 11.818C4.77211 11.8148 4.77356 11.8134 4.77488 11.8121L4.82653 11.8637ZM4.83075 11.8585L4.82631 11.8638L4.80037 11.8383L4.83075 11.8585ZM4.82631 11.8638C4.80129 11.8894 4.77502 11.9172 4.74766 11.9471L4.69378 11.8978C4.71848 11.8708 4.74538 11.8424 4.77443 11.8127L4.82631 11.8638ZM4.69378 11.8979V11.8978L4.72071 11.9225L4.69378 11.8979ZM4.74766 11.947C4.7213 11.9759 4.6959 12.0047 4.67172 12.033L4.61644 11.9856C4.64231 11.9553 4.66816 11.926 4.69378 11.8979L4.74766 11.947ZM4.61628 11.9856H4.61644L4.64408 12.0093L4.61628 11.9856ZM4.6719 12.033C4.54445 12.1827 4.43058 12.3433 4.33197 12.5127L4.269 12.4762C4.37029 12.3022 4.4866 12.138 4.61628 11.9856L4.6719 12.033ZM4.26882 12.4762H4.269L4.30046 12.4944L4.26882 12.4762ZM4.33213 12.5127L4.33067 12.5151L4.26736 12.4786L4.26882 12.4762L4.33213 12.5127ZM4.33067 12.5151C4.31673 12.5394 4.30526 12.5641 4.29628 12.5888L4.22785 12.5639C4.23861 12.5343 4.2518 12.5057 4.26736 12.4786L4.33067 12.5151ZM4.29628 12.5888C4.2871 12.6141 4.28011 12.64 4.27548 12.6659L4.2039 12.653C4.20931 12.6228 4.21734 12.5929 4.22785 12.5639L4.29628 12.5888ZM4.27548 12.6659C4.25144 12.7994 4.28586 12.9399 4.3756 13.0487L4.31942 13.0948C4.21589 12.9694 4.17616 12.8071 4.2039 12.653L4.27548 12.6659ZM4.3756 13.0487L4.38273 13.0626L4.34752 13.0717L4.3756 13.0487ZM4.38273 13.0626L4.76143 14.5278L4.69099 14.5461L4.3123 13.0809L4.38273 13.0626ZM4.7262 14.5734L4.69099 14.5461L4.7262 14.537V14.5734ZM4.7262 14.5005H7.56836V14.5734H4.7262V14.5005ZM7.60443 14.5415L7.56836 14.5734V14.537L7.60443 14.5415ZM7.53228 14.5324L7.69 13.2892L7.76217 13.2983L7.60443 14.5415L7.53228 14.5324ZM7.7623 13.2982L7.76217 13.2983L7.7261 13.2938L7.7623 13.2982ZM7.68988 13.2894C7.69047 13.2849 7.68886 13.2983 7.69032 13.2871L7.76249 13.2966C7.76118 13.3064 7.76307 13.2925 7.76238 13.2982L7.68996 13.2894H7.68988ZM7.76242 13.2964V13.2966L7.72633 13.2918L7.76242 13.2964ZM7.69025 13.2873C7.69994 13.2114 7.71429 13.1371 7.73287 13.0651L7.80355 13.0831C7.78542 13.1533 7.77157 13.2246 7.76242 13.2964L7.69025 13.2873ZM7.73287 13.0651C7.75166 12.9923 7.77491 12.921 7.80227 12.852L7.87013 12.8788C7.84381 12.9453 7.82146 13.0136 7.80355 13.0831L7.73287 13.0651ZM7.80227 12.852C7.94303 12.4963 8.19495 12.1906 8.5263 11.9842L8.56479 12.0462C8.24692 12.2441 8.00523 12.5375 7.87013 12.8788L7.80227 12.852ZM8.5263 11.9842L8.55539 11.9801L8.54555 12.0152L8.5263 11.9842ZM8.55539 11.9801L8.66723 12.0118L8.64754 12.082L8.5357 12.0503L8.55539 11.9801ZM8.66723 12.0118H8.66735L8.65738 12.0469L8.66723 12.0118ZM8.66735 12.0118L8.66822 12.0122L8.64828 12.0823L8.64741 12.082L8.66735 12.0118ZM8.64856 12.0823H8.64826L8.65823 12.0472L8.64856 12.0823ZM8.66792 12.0121C8.67545 12.0142 8.68377 12.0156 8.69259 12.0162L8.6872 12.0892C8.675 12.0883 8.66196 12.086 8.64856 12.0823L8.66792 12.0121ZM8.69259 12.0162C8.70123 12.0168 8.70946 12.0166 8.71699 12.0157L8.72552 12.0882C8.71253 12.0897 8.69962 12.0901 8.6872 12.0892L8.69259 12.0162ZM8.71699 12.0157C8.75804 12.0109 8.79545 11.986 8.81506 11.9473L8.88012 11.9801C8.84911 12.0412 8.79016 12.0804 8.72552 12.0882L8.71699 12.0157ZM8.88024 11.98L8.88012 11.9801L8.8476 11.9637L8.88024 11.98ZM8.81494 11.9475L8.81538 11.9466L8.88067 11.9791L8.88024 11.98L8.81494 11.9475ZM8.81538 11.9466C8.81928 11.9388 8.82233 11.9309 8.82444 11.9232L8.89463 11.9425C8.89114 11.9552 8.88647 11.9675 8.88067 11.9791L8.81538 11.9466ZM8.89474 11.9424L8.89463 11.9425L8.85954 11.9328L8.89474 11.9424ZM8.82431 11.9233C8.82634 11.9157 8.82776 11.9076 8.82837 11.8992L8.90137 11.9046C8.9005 11.9169 8.89818 11.9297 8.89474 11.9424L8.82431 11.9233ZM8.90137 11.9045V11.9046L8.86486 11.9019L8.90137 11.9045ZM8.82837 11.8993C8.83144 11.8579 8.81423 11.8164 8.78017 11.7897L8.82494 11.7324C8.87886 11.7745 8.90613 11.8398 8.90137 11.9045L8.82837 11.8993ZM8.78017 11.7897L6.09158 9.68734L6.13635 9.62999L8.82494 11.7324L8.78017 11.7897ZM6.09158 9.68734L6.07746 9.66152L6.11395 9.65867L6.09158 9.68734ZM6.07746 9.66152L6.0068 8.77664L6.07978 8.77093L6.15046 9.65581L6.07746 9.66152ZM6.0068 8.77664L6.00649 8.77355L6.07948 8.76783L6.07978 8.77093L6.0068 8.77664ZM6.07953 8.76771V8.76782L6.04304 8.77068L6.07953 8.76771ZM6.00655 8.77366C6.00418 8.74495 6.00071 8.71764 5.99624 8.69199L6.06807 8.67973C6.07333 8.70999 6.07721 8.73949 6.07953 8.76771L6.00655 8.77366ZM5.99624 8.69199C5.9916 8.66525 5.98564 8.63857 5.97858 8.61216L6.049 8.59339C6.05662 8.62165 6.06298 8.65052 6.06807 8.67973L5.99624 8.69199ZM5.97858 8.61216C5.94249 8.47748 5.87599 8.35202 5.78351 8.24606L5.8383 8.19813C5.93823 8.31267 6.01006 8.4481 6.049 8.59339" fill="black"/>
<path d="M5.80369 10.6235C5.80338 10.6242 5.80427 10.622 5.80325 10.625L5.7334 10.6039C5.73371 10.6028 5.73399 10.6023 5.73493 10.5996L5.80363 10.6235L5.80369 10.6235ZM5.80325 10.625L5.80295 10.6258L5.76832 10.6144L5.80325 10.625ZM5.80295 10.6258C5.79641 10.6455 5.79112 10.665 5.78714 10.684L5.71589 10.6692C5.72065 10.6464 5.7266 10.6243 5.73368 10.603L5.80295 10.6258ZM5.78714 10.684C5.78301 10.7038 5.77998 10.7236 5.77816 10.7431L5.70576 10.7365C5.70786 10.7138 5.7113 10.6912 5.71589 10.6692L5.78714 10.684ZM5.77816 10.7431C5.76864 10.8442 5.78851 10.947 5.83664 11.0385L5.77216 11.0724C5.71746 10.9684 5.69495 10.8516 5.70576 10.7365L5.77816 10.7431ZM5.83664 11.0385L5.83708 11.0392L5.77261 11.0731L5.77216 11.0724L5.83664 11.0385ZM5.83708 11.0392C5.84651 11.0571 5.85699 11.0744 5.86827 11.0909L5.80811 11.1319C5.79524 11.1131 5.78333 11.0934 5.77261 11.0731L5.83708 11.0392ZM5.86827 11.0909C5.87966 11.1075 5.89195 11.1234 5.90478 11.1383L5.84973 11.1859C5.83484 11.1686 5.82081 11.1505 5.80811 11.1319L5.86827 11.0909ZM5.90478 11.1383C5.97156 11.2155 6.06006 11.2725 6.16003 11.3008L6.14033 11.371C6.02664 11.3388 5.92587 11.2739 5.84973 11.1859" fill="black"/>
<path d="M6.133 9.68906L5.02933 10.4433L4.98828 10.3831L6.09197 9.62891" fill="black"/>
<path d="M5.49275 8.49384V8.49354H5.56573V8.49384H5.49275ZM5.49275 8.49354C5.49271 8.4637 5.48059 8.43659 5.4611 8.41715L5.51241 8.3655C5.54525 8.39832 5.56566 8.44363 5.56573 8.49354H5.49275ZM5.4611 8.41715C5.44164 8.39773 5.41462 8.38557 5.38492 8.38549L5.38522 8.3125C5.43479 8.31265 5.47981 8.33294 5.51247 8.3655L5.46116 8.41715H5.4611ZM5.38503 8.3125H5.38515L5.38503 8.34899V8.3125ZM5.38503 8.38549H5.38445V8.3125H5.38503V8.38549ZM5.38445 8.38549H5.38415V8.3125H5.38445V8.38549ZM5.38415 8.38549C5.35431 8.38552 5.32722 8.39766 5.30776 8.41715L5.25613 8.36584C5.28894 8.33298 5.33425 8.31259 5.38415 8.3125V8.38549ZM5.30776 8.41715C5.28836 8.43659 5.2762 8.46361 5.27611 8.49333L5.20312 8.49303C5.20328 8.44343 5.22356 8.39841 5.25613 8.3658L5.30776 8.41711V8.41715ZM5.20312 8.4932V8.49309L5.23962 8.4932H5.20312ZM5.27611 8.4932V8.49378H5.20312V8.4932H5.27611ZM5.27611 8.49378V8.49409H5.20312V8.49378H5.27611ZM5.27611 8.49409C5.27615 8.52397 5.28827 8.55103 5.30776 8.57048L5.25645 8.62212C5.22361 8.58931 5.2032 8.54395 5.20312 8.49409H5.27611ZM5.30776 8.57048C5.32722 8.58989 5.35424 8.60205 5.38394 8.60214L5.38364 8.67512C5.33402 8.67497 5.289 8.65469 5.25639 8.62212L5.3077 8.57048H5.30776ZM5.38381 8.67512H5.3837L5.38381 8.63863V8.67512ZM5.38381 8.60214H5.38439V8.67512H5.38381V8.60214ZM5.38439 8.60214H5.3847V8.67512H5.38439V8.60214ZM5.3847 8.60214C5.41456 8.6021 5.44163 8.58996 5.46109 8.57048L5.51272 8.62179C5.4799 8.65464 5.43456 8.67504 5.3847 8.67512V8.60214ZM5.46109 8.57048C5.48049 8.55103 5.49265 8.52401 5.49273 8.49431L5.56572 8.49461C5.56557 8.54417 5.54528 8.5892 5.51272 8.62184L5.46109 8.57053V8.57048ZM5.56572 8.49442V8.49454L5.52923 8.49442H5.56572ZM5.49273 8.49442L5.49275 8.49384H5.56573L5.56572 8.49442" fill="black"/>
<path d="M5.23438 11.9509L5.23694 11.9496L5.26947 12.0149L5.2669 12.0162L5.23438 11.9509ZM5.26958 12.0148L5.26947 12.0149L5.25321 11.9822L5.26958 12.0148ZM5.23681 11.9497C5.26669 11.9346 5.29491 11.9172 5.32098 11.8979L5.36434 11.9564C5.33472 11.9783 5.30298 11.9979 5.26958 12.0148L5.23681 11.9497ZM5.32098 11.8979C5.34713 11.8786 5.37158 11.857 5.39392 11.8338L5.44639 11.8842C5.4214 11.9102 5.39392 11.9345 5.36434 11.9564L5.32098 11.8979ZM5.39392 11.8338C5.50818 11.7149 5.56903 11.5501 5.55419 11.3793L5.62717 11.373C5.64389 11.5649 5.57525 11.7502 5.44639 11.8842" fill="black"/>
<path d="M5.73667 11.1805L5.73412 11.1818L5.70159 11.1165L5.70415 11.1152L5.73667 11.1805ZM5.7013 11.1166L5.70159 11.1165L5.71787 11.1492L5.7013 11.1166ZM5.73441 11.1817C5.72402 11.187 5.7145 11.1929 5.70618 11.1991L5.66258 11.141C5.67503 11.1316 5.68802 11.1234 5.7013 11.1166L5.73441 11.1817ZM5.70618 11.1991C5.69749 11.2056 5.68926 11.213 5.68177 11.2209L5.62906 11.1707C5.63919 11.1601 5.65049 11.15 5.66258 11.141L5.70618 11.1991ZM5.68177 11.2209C5.64386 11.2607 5.62372 11.3159 5.62868 11.3732L5.55569 11.3795C5.54891 11.3013 5.57676 11.2257 5.62906 11.1707" fill="black"/>
<path d="M6.1436 12.2512L6.14302 12.2515L6.11596 12.1839L6.11654 12.1836L6.1436 12.2512ZM6.14302 12.2515C6.10542 12.2667 6.06636 12.2827 6.02642 12.2992L5.99845 12.2319C6.03631 12.2163 6.07549 12.2002 6.11596 12.1839L6.14302 12.2515ZM6.02642 12.2992C5.98749 12.3154 5.94867 12.3317 5.91015 12.3482L5.8816 12.2811C5.92053 12.2645 5.95959 12.248 5.99845 12.2319L6.02642 12.2992ZM5.91015 12.3482C5.71182 12.4328 5.51532 12.5228 5.321 12.618L5.28906 12.5525C5.48383 12.457 5.68145 12.3665 5.8816 12.2811" fill="black"/>
<path d="M6.11719 12.1823L6.1185 12.1818L6.14473 12.2497L6.14342 12.2501L6.11719 12.1823ZM6.14529 12.2495L6.1447 12.2496L6.1316 12.2157L6.14529 12.2495ZM6.11789 12.1819C6.1594 12.1651 6.19908 12.1456 6.23652 12.1238L6.27303 12.1868C6.23201 12.2107 6.18927 12.2317 6.14529 12.2495L6.11789 12.1819ZM6.23652 12.1238C6.27355 12.1023 6.30957 12.0777 6.3441 12.0504L6.38946 12.1078C6.35337 12.1362 6.31444 12.1627 6.27303 12.1868L6.23652 12.1238ZM6.3441 12.0504C6.51873 11.9126 6.6405 11.7144 6.68155 11.4902L6.75313 11.5033C6.70882 11.7455 6.57757 11.9593 6.38946 12.1078" fill="black"/>
<path d="M5.75781 12.3379H8.12957V12.4109H5.75781" fill="black"/>
<path d="M6.26872 12.8194V12.8191H6.3417V12.8194H6.26872ZM6.26872 12.8191C6.26868 12.7534 6.24186 12.6937 6.19875 12.6506L6.25038 12.5989C6.30665 12.6552 6.34163 12.7331 6.3417 12.8191H6.26872ZM6.25022 12.5989H6.25038L6.22457 12.6248L6.25022 12.5989ZM6.19891 12.6506C6.15588 12.6076 6.09642 12.5809 6.03084 12.5808V12.5078C6.11645 12.508 6.19404 12.5428 6.25022 12.5989L6.19891 12.6506ZM6.03084 12.5808H6.03025V12.5078H6.03084V12.5808ZM6.03025 12.5808H6.02995V12.5078H6.03025V12.5808ZM6.02995 12.5808C5.96412 12.5808 5.9045 12.6075 5.86151 12.6506L5.80987 12.5993C5.86623 12.5429 5.94413 12.5079 6.02995 12.5078V12.5808ZM5.86151 12.6506C5.81855 12.6936 5.79187 12.7531 5.79174 12.8187H5.71875C5.7189 12.7331 5.75375 12.6555 5.80987 12.5993L5.86151 12.6506ZM5.79174 12.8187V12.8193H5.71875V12.8187H5.79174ZM5.79174 12.8193V12.8196H5.71875V12.8193H5.79174ZM5.79174 12.8196C5.79177 12.8854 5.81851 12.9451 5.86154 12.9881L5.81023 13.0397C5.7538 12.9833 5.71884 12.9054 5.71875 12.8196H5.79174ZM5.86154 12.9881C5.90454 13.031 5.96404 13.0577 6.02963 13.0578V13.1308C5.94402 13.1307 5.86639 13.0958 5.81023 13.0397L5.86154 12.9881ZM6.02963 13.0578H6.03021V13.1308H6.02963V13.0578ZM6.03021 13.0578H6.03052V13.1308H6.03021V13.0578ZM6.03052 13.0578C6.09619 13.0578 6.15585 13.031 6.19897 12.9879L6.25062 13.0395C6.19433 13.0958 6.11642 13.1308 6.03052 13.1308V13.0578ZM6.25062 13.0393V13.0395L6.22479 13.0137L6.25062 13.0393ZM6.19897 12.988C6.24192 12.945 6.26861 12.8855 6.26873 12.82H6.34172C6.34156 12.9056 6.30671 12.9831 6.25062 13.0393L6.19897 12.988ZM6.26873 12.82L6.26872 12.8194H6.3417L6.34172 12.82" fill="black"/>
<path d="M7.36252 12.8194V12.8191H7.43551V12.8194H7.36252ZM7.36252 12.8191C7.36249 12.7534 7.33567 12.6937 7.29255 12.6506L7.34419 12.5989C7.40046 12.6552 7.43542 12.7331 7.43551 12.8191H7.36252ZM7.34403 12.5989H7.34419L7.31836 12.6248L7.34403 12.5989ZM7.29272 12.6506C7.24969 12.6076 7.19022 12.5809 7.12463 12.5808V12.5078C7.21025 12.508 7.28783 12.5428 7.34403 12.5989L7.29272 12.6506ZM7.12463 12.5808H7.12405V12.5078H7.12463V12.5808ZM7.12405 12.5808H7.12374V12.5078H7.12405V12.5808ZM7.12374 12.5808C7.05791 12.5808 6.99824 12.6076 6.95525 12.6506L6.90362 12.5993C6.96001 12.5429 7.03788 12.5079 7.12374 12.5078V12.5808ZM6.95525 12.6506C6.9123 12.6936 6.8856 12.7531 6.88549 12.8187H6.8125C6.81265 12.7331 6.8475 12.6555 6.90362 12.5993L6.95525 12.6506ZM6.88549 12.8187V12.8193H6.8125V12.8187H6.88549ZM6.88549 12.8193V12.8196H6.8125V12.8193H6.88549ZM6.88549 12.8196C6.88552 12.8854 6.91226 12.9451 6.95529 12.9881L6.90398 13.0397C6.84755 12.9833 6.81257 12.9054 6.8125 12.8196H6.88549ZM6.95529 12.9881C6.99832 13.031 7.05778 13.0577 7.12341 13.0578V13.1308C7.03775 13.1307 6.96018 13.0958 6.90398 13.0397L6.95529 12.9881ZM7.12341 13.0578H7.12399V13.1308H7.12341V13.0578ZM7.12399 13.0578H7.1243V13.1308H7.12399V13.0578ZM7.1243 13.0578C7.18995 13.0578 7.24963 13.031 7.29273 12.9879L7.34438 13.0395C7.28811 13.0958 7.21019 13.1308 7.1243 13.1308V13.0578ZM7.34438 13.0393V13.0395L7.31856 13.0137L7.34438 13.0393ZM7.29273 12.988C7.33569 12.945 7.36238 12.8855 7.36251 12.82H7.4355C7.43534 12.9056 7.40049 12.9831 7.34438 13.0393L7.29273 12.988ZM7.36251 12.82L7.36252 12.8194H7.43551L7.4355 12.82" fill="black"/>
<path d="M6.56772 11.8477C6.5806 11.8515 6.59346 11.8551 6.6062 11.8586L6.58741 11.929C6.57385 11.9254 6.56019 11.9215 6.54688 11.9175L6.56772 11.8477ZM6.6062 11.8586C6.62645 11.864 6.64593 11.8689 6.66447 11.8731L6.64849 11.9441C6.62722 11.9393 6.60678 11.9342 6.58741 11.929L6.6062 11.8586ZM6.66447 11.8731C6.68408 11.8774 6.70369 11.8815 6.72323 11.8851L6.71015 11.9567C6.68946 11.9529 6.66881 11.9486 6.64849 11.9441L6.66447 11.8731ZM6.72323 11.8851C6.81471 11.9019 6.90826 11.9101 7.00228 11.9096L7.00259 11.9826C6.90489 11.9832 6.80691 11.9744 6.7102 11.9567" fill="black"/>
<path d="M7.00006 11.9085C7.01296 11.9085 7.02534 11.9078 7.03671 11.9067L7.04416 11.9791C7.02902 11.9806 7.01433 11.9814 7.00031 11.9815L7 11.9085L7.00006 11.9085ZM7.03671 11.9067H7.03686L7.04043 11.9429L7.03671 11.9067ZM7.03686 11.9067C7.05743 11.9046 7.07791 11.9008 7.09791 11.8956L7.11643 11.966C7.09306 11.9722 7.06877 11.9766 7.04399 11.9791L7.03686 11.9067ZM7.09791 11.8956C7.11756 11.8904 7.137 11.8835 7.15571 11.8753L7.18508 11.942C7.16316 11.9517 7.14011 11.9597 7.11643 11.966L7.09791 11.8956ZM7.15571 11.8753C7.24393 11.8364 7.31671 11.7655 7.35685 11.6738L7.42355 11.7029C7.37589 11.8117 7.2896 11.8959 7.18508 11.942" fill="black"/>
<path d="M8.53597 12.0505L6.14062 11.371L6.16032 11.3008L8.55567 11.9803" fill="black"/>
<path d="M4.39453 13.2227H7.72979V13.2956H4.39453" fill="black"/>
<path d="M5.16406 13.9473H7.63704V14.0203H5.16406" fill="black"/>
<path d="M6.32302 13.7003L6.02762 13.9909L5.97656 13.939L6.27196 13.6484" fill="black"/>
<path d="M5.78153 13.6484L6.07697 13.939L6.02591 13.9909L5.73047 13.7003" fill="black"/>
<path d="M5.83478 13.7003L5.53934 13.9909L5.48828 13.939L5.78372 13.6484" fill="black"/>
<path d="M5.29325 13.6484L5.5887 13.939L5.53763 13.9909L5.24219 13.7003" fill="black"/>
<path d="M6.81135 13.7003L6.51591 13.9909L6.46484 13.939L6.76028 13.6484" fill="black"/>
<path d="M6.26981 13.6484L6.56526 13.939L6.51419 13.9909L6.21875 13.7003" fill="black"/>
<path d="M7.29963 13.7003L7.00419 13.9909L6.95312 13.939L7.24857 13.6484" fill="black"/>
<path d="M6.75809 13.6484L7.05353 13.939L7.00247 13.9909L6.70703 13.7003" fill="black"/>
<path d="M7.69121 13.796L7.49247 13.9915L7.44141 13.9396L7.64015 13.7441" fill="black"/>
<path d="M7.25028 13.6484L7.54572 13.939L7.49466 13.9909L7.19922 13.7003" fill="black"/>
<path d="M6.32301 13.3292L6.02762 13.6198L5.97656 13.5679L6.27195 13.2773" fill="black"/>
<path d="M5.78153 13.2773L6.07698 13.5679L6.02592 13.6198L5.73047 13.3292" fill="black"/>
<path d="M5.83477 13.3292L5.53934 13.6198L5.48828 13.5679L5.78371 13.2773" fill="black"/>
<path d="M5.29325 13.2773L5.58828 13.5683L5.53722 13.6202L5.24219 13.3292" fill="black"/>
<path d="M6.81134 13.3292L6.51591 13.6198L6.46484 13.5679L6.76027 13.2773" fill="black"/>
<path d="M6.26981 13.2773L6.56526 13.5679L6.5142 13.6198L6.21875 13.3292" fill="black"/>
<path d="M7.29962 13.3292L7.00419 13.6198L6.95312 13.5679L7.24856 13.2773" fill="black"/>
<path d="M6.75809 13.2773L7.05355 13.5679L7.00249 13.6198L6.70703 13.3292" fill="black"/>
<path d="M7.74493 13.3722L7.49247 13.6205L7.44141 13.5686L7.69387 13.3203" fill="black"/>
<path d="M7.25028 13.2773L7.54572 13.5679L7.49466 13.6198L7.19922 13.3292" fill="black"/>
<path d="M5.06593 8.72142L4.74649 8.74039L4.74219 8.66738L5.06163 8.64844" fill="black"/>
<path d="M5.26688 12.0151L5.26586 12.0155L5.2345 11.9497L5.23553 11.9492L5.26688 12.0151ZM5.23391 11.95L5.23449 11.9497L5.25017 11.9826L5.23391 11.95ZM5.26643 12.0153C5.2044 12.0463 5.14651 12.0827 5.09335 12.1233L5.04915 12.0654C5.1063 12.0218 5.16807 11.9829 5.23391 11.95L5.26643 12.0153ZM5.09335 12.1233C5.04013 12.164 4.99114 12.2095 4.94686 12.2588L4.89266 12.21C4.93967 12.1577 4.99204 12.1091 5.04915 12.0654L5.09335 12.1233ZM4.94686 12.2588C4.71986 12.5115 4.61952 12.8641 4.69591 13.2113L4.62466 13.227C4.54309 12.8564 4.6503 12.4798 4.89266 12.21" fill="black"/>
<path d="M5.32361 12.6183L5.31915 12.6205L5.28721 12.5549L5.29167 12.5527L5.32361 12.6183ZM5.28692 12.5551L5.28721 12.5549L5.30319 12.5877L5.28692 12.5551ZM5.31944 12.6203C5.28832 12.6359 5.2589 12.6538 5.23155 12.6737L5.18876 12.6147C5.21946 12.5924 5.25232 12.5724 5.28692 12.5551L5.31944 12.6203ZM5.23155 12.6737C5.20399 12.6937 5.17834 12.7158 5.15496 12.7395L5.10308 12.6884C5.12951 12.6616 5.15823 12.6369 5.18876 12.6147L5.23155 12.6737ZM5.15496 12.7395C5.03459 12.8613 4.96735 13.0304 4.97621 13.2079L4.90321 13.2113C4.89333 13.0133 4.9685 12.8246 5.10308 12.6884" fill="black"/>
<path d="M4.46702 12.8704C4.47215 12.8879 4.47818 12.9055 4.48493 12.9227L4.41708 12.9492C4.40971 12.9303 4.40428 12.8851 4.39844 12.8652L4.46702 12.8704ZM4.48493 12.9227C4.49164 12.94 4.49913 12.9568 4.50716 12.9731L4.44186 13.0053C4.4328 12.9869 4.42444 12.9681 4.41708 12.9492L4.48493 12.9227ZM4.50716 12.9731C4.54873 13.0574 4.60874 13.1321 4.6831 13.1912L4.63775 13.2482C4.55502 13.1824 4.4882 13.0993 4.44186 13.0053" fill="black"/>
<path d="M4.46669 12.8943L4.3831 13.0866L4.31641 13.0576L4.39999 12.8652" fill="black"/>
<path d="M4.69362 13.2357L4.62891 13.2021L4.63835 13.2482L4.69362 13.2357ZM4.62891 13.2021C4.63793 13.1849 4.64645 13.168 4.65448 13.1517L4.72002 13.1837C4.71121 13.2016 4.70236 13.2191 4.69362 13.2357L4.62891 13.2021ZM4.65448 13.1517C4.664 13.1323 4.67223 13.1152 4.67884 13.1007L4.74497 13.1309C4.7357 13.1511 4.72735 13.1688 4.72002 13.1837L4.65448 13.1517ZM4.67884 13.1007C4.71907 13.0132 4.75363 12.9227 4.78218 12.8301L4.85176 12.8514C4.82244 12.9467 4.78672 13.0401 4.74497 13.1309" fill="black"/>
<path d="M4.78277 12.8555L4.78125 12.8302L4.84946 12.8262L4.78277 12.8555ZM4.90301 13.2158L4.97401 13.1993L4.97532 13.2069L4.90301 13.2158ZM4.90301 13.2158C4.89854 13.1968 4.89419 13.1793 4.89022 13.1639L4.96065 13.1456C4.96578 13.1653 4.97026 13.1832 4.97401 13.1993L4.90301 13.2158ZM4.89022 13.1639C4.88643 13.1494 4.88162 13.1322 4.87594 13.1124L4.94613 13.0925C4.95043 13.1074 4.95531 13.1252 4.96065 13.1456L4.89022 13.1639ZM4.94597 13.0923L4.94613 13.0925L4.91103 13.1024L4.94597 13.0923ZM4.87612 13.1126C4.85088 13.0254 4.81963 12.9394 4.78277 12.8555L4.84946 12.8262C4.88733 12.9123 4.91961 13.0013 4.94597 13.0923" fill="black"/>
<path d="M5.12891 14.5382V13.9844H5.20189V14.5382" fill="black"/>
<path d="M5.13084 13.9963L4.88281 13.2715L4.95183 13.248L5.19985 13.9729" fill="black"/>
<path d="M5.34248 13.7003L5.14872 13.8909L5.09766 13.839L5.29142 13.6484" fill="black"/>
<path d="M5.34395 13.3292L5.05497 13.6135L5.00391 13.5616L5.29289 13.2773" fill="black"/>
</g>
<defs>
<clipPath id="clip0_358_14511">
<rect width="24" height="24" rx="12" fill="white"/>
</clipPath>
</defs>
</svg>
