<svg width="52" height="36" viewBox="0 0 52 36" fill="none" xmlns="http://www.w3.org/2000/svg">
<g clip-path="url(#clip0_2280_3956)">
<rect width="52" height="36" rx="4" fill="white"/>
<path d="M48 0H4C1.79086 0 0 1.79086 0 4V32C0 34.2091 1.79086 36 4 36H48C50.2091 36 52 34.2091 52 32V4C52 1.79086 50.2091 0 48 0Z" fill="white"/>
<path d="M48 0H4C1.79086 0 0 1.79086 0 4V32C0 34.2091 1.79086 36 4 36H48C50.2091 36 52 34.2091 52 32V4C52 1.79086 50.2091 0 48 0Z" fill="#D3D3D3"/>
<path d="M47.3198 0.550781H4.6798C2.53694 0.550781 0.799805 2.28792 0.799805 4.43078V31.5608C0.799805 33.7036 2.53694 35.4408 4.6798 35.4408H47.3198C49.4627 35.4408 51.1998 33.7036 51.1998 31.5608V4.43078C51.1998 2.28792 49.4627 0.550781 47.3198 0.550781Z" fill="white"/>
<path d="M23.2798 15.5002C23.0298 16.6902 22.7798 17.8802 22.5298 19.0702C22.3398 19.9702 23.0598 19.8402 23.6198 19.8302C23.7098 19.8302 23.7398 19.8702 23.7198 19.9602L23.5398 20.6302C23.5198 20.7202 23.4598 20.7602 23.3698 20.7602C22.4998 20.7602 20.9498 21.0302 21.2698 19.5202C21.5498 18.1902 21.8298 16.8602 22.1098 15.5202C22.1298 15.4302 22.0898 15.3802 21.9998 15.3802H21.2098C21.1298 15.3802 21.0698 15.3202 21.0698 15.2402C21.0698 15.2302 21.0698 15.2102 21.0698 15.2002L21.2198 14.6502C21.2398 14.5602 21.2998 14.5202 21.3998 14.5202H22.1698C22.2798 14.5202 22.3498 14.4702 22.3698 14.3602L22.5698 13.4102C22.5898 13.3102 22.6498 13.2502 22.7398 13.2102L23.6198 12.9102C23.6998 12.8802 23.7998 12.9202 23.8298 13.0102C23.8398 13.0402 23.8398 13.0702 23.8298 13.1002L23.5098 14.4002C23.4898 14.4802 23.5198 14.5202 23.6098 14.5202H24.7198C24.7998 14.5202 24.8598 14.5802 24.8598 14.6602C24.8598 14.6702 24.8598 14.6802 24.8598 14.6902L24.7198 15.2502C24.6998 15.3402 24.6398 15.3802 24.5498 15.3802H23.4398C23.3598 15.3802 23.3098 15.4202 23.2998 15.5002H23.2798Z" fill="#00519E"/>
<path d="M41.0602 20.0793C41.0602 20.0793 41.0402 19.9993 40.9902 19.9893C40.9602 19.9893 40.9402 19.9893 40.9202 20.0093C39.8402 21.1593 36.8602 21.3693 37.3802 18.9593C37.7602 17.1793 39.7702 16.6393 41.3902 16.7593C41.4702 16.7593 41.5202 16.7293 41.5602 16.6593C42.2202 15.2993 40.4602 14.9893 40.0202 16.1693C39.9902 16.2593 39.9202 16.3093 39.8202 16.3093H38.3402C38.2302 16.3093 38.1902 16.2593 38.2202 16.1493C38.9502 13.7993 43.8702 13.4693 43.3302 16.3593C43.0702 17.7493 42.8302 19.1593 42.6102 20.5593C42.6002 20.6393 42.5502 20.6793 42.4602 20.6793H41.1202C41.0002 20.6793 40.9602 20.6193 40.9702 20.5093L41.0402 20.0693L41.0602 20.0793ZM39.6002 18.1793C37.9902 19.3793 40.9402 20.7393 41.3102 17.9493C41.3102 17.8693 41.2902 17.8293 41.2102 17.8193C40.5602 17.7393 40.0302 17.8593 39.6002 18.1793Z" fill="#00519E"/>
<path d="M13.0498 14.3696C13.9898 14.3496 14.9198 15.0496 15.0898 15.9996C16.0098 21.3196 8.31979 22.6996 8.87979 18.2396C9.18979 15.7296 10.5798 14.4396 13.0598 14.3696H13.0498ZM10.8898 19.9196C11.7598 20.3496 12.9798 19.6796 13.5998 18.4196C14.2298 17.1596 14.0298 15.7796 13.1598 15.3496C12.2898 14.9196 11.0698 15.5896 10.4498 16.8496C9.81979 18.1096 10.0198 19.4896 10.8898 19.9196Z" fill="#00519E"/>
<path d="M16.6699 14.8709C17.7499 14.2609 20.9399 14.0009 20.4799 16.1309C20.4599 16.2009 20.4199 16.2409 20.3399 16.2509L19.3999 16.2909C19.3999 16.2909 19.3699 16.2909 19.3699 16.2709C19.2399 15.7709 19.0599 15.4809 18.8199 15.4109C18.0899 15.1909 16.7799 15.3509 16.8499 16.3109C16.8699 16.5509 17.0399 16.7609 17.2699 16.8309C18.4599 17.1509 20.7999 17.3809 19.8499 19.3609C18.8999 21.3609 14.3499 21.5809 14.9699 18.9909C14.9899 18.9109 15.0599 18.8509 15.1399 18.8509H16.0199C16.1099 18.8509 16.1799 18.9209 16.1799 19.0109C16.1799 19.0109 16.1799 19.0209 16.1799 19.0309C16.1299 19.4409 16.2299 19.6909 16.4799 19.7809C17.5699 20.2109 18.3399 19.9409 18.7999 18.9609C18.8399 18.8809 18.8399 18.7909 18.7999 18.7109C18.3899 17.8509 16.4799 18.2609 15.7999 17.2709C15.2399 16.4609 15.9299 15.2809 16.6699 14.8609V14.8709Z" fill="#00519E"/>
<path d="M25.5301 17.9506C24.8601 20.3306 27.7201 20.7306 28.4601 18.8906C28.4901 18.8206 28.5401 18.7806 28.6201 18.7806H29.4101C29.7101 18.7806 29.7801 18.9006 29.6201 19.1506C28.8301 20.3806 27.7301 20.9506 26.3301 20.8606C23.5101 20.6706 24.1101 17.4406 25.1401 15.9206C26.7601 13.5306 31.2301 13.7106 29.9501 17.7306C29.9201 17.8206 29.8701 17.8606 29.7701 17.8606H25.6501C25.5901 17.8606 25.5401 17.8906 25.5301 17.9506ZM28.9201 16.8906C29.6801 14.6606 26.4401 14.8506 25.8201 16.8306C25.8001 16.9006 25.8401 16.9706 25.9001 16.9906C25.9101 16.9906 25.9301 16.9906 25.9401 16.9906L28.7401 17.0106C28.8301 17.0106 28.8801 16.9706 28.9101 16.8906H28.9201Z" fill="#00519E"/>
<path d="M33.21 15.1302C33.21 15.1302 33.21 15.2202 33.26 15.2402C33.29 15.2502 33.32 15.2402 33.35 15.2202C33.74 14.8102 34.21 14.5502 34.75 14.4502C39.03 13.6302 37.49 21.2902 33.35 20.7602C32.98 20.7102 32.65 20.5202 32.36 20.1802C32.28 20.0902 32.24 20.1102 32.21 20.2202L31.64 22.9702C31.62 23.0702 31.56 23.1102 31.46 23.1102H29.9C29.82 23.1102 29.75 23.0402 29.75 22.9602C29.75 22.9502 29.75 22.9402 29.75 22.9302L31.51 14.6702C31.53 14.5802 31.58 14.5402 31.67 14.5402H33.2C33.27 14.5402 33.33 14.6002 33.33 14.6702C33.33 14.6802 33.33 14.7002 33.33 14.7102L33.2 15.1402L33.21 15.1302ZM33.24 19.5502C33.9 19.8102 34.78 19.1302 35.21 18.0502C35.64 16.9602 35.45 15.8702 34.79 15.6102C34.13 15.3502 33.25 16.0302 32.82 17.1102C32.39 18.2002 32.58 19.2902 33.24 19.5502Z" fill="#00519E"/>
<path d="M3.44 20.3697L2.91 22.9597C2.89 23.0497 2.84 23.0997 2.75 23.0997H1.88C1.81 23.0997 1.75 23.0297 1.75 22.9597C1.75 22.9597 1.75 22.9397 1.75 22.9297L3.5 14.6597C3.52 14.5697 3.57 14.5197 3.67 14.5197H4.55C4.63 14.5197 4.69 14.5797 4.69 14.6597C4.69 14.6797 4.69 14.6897 4.69 14.7097L4.5 15.2697C4.5 15.2697 4.5 15.3697 4.55 15.3897C4.58 15.3997 4.62 15.3897 4.65 15.3697C6.17 13.9097 8.78 14.0497 8.81 16.6697C8.84 19.2197 6.28 22.3597 3.62 20.3197C3.53 20.2497 3.47 20.2697 3.45 20.3797L3.44 20.3697ZM4.37 19.8797C7.07 21.2697 8.61 15.7897 6.82 15.3797C4.25 14.7997 3.04 19.1897 4.37 19.8797Z" fill="#00519E"/>
<path d="M46.1698 18.5295C46.1698 18.5295 46.2098 18.5995 46.2598 18.5995C46.2898 18.5995 46.3098 18.5795 46.3198 18.5595L48.4198 14.6195C48.4498 14.5595 48.5098 14.5195 48.5798 14.5195H50.1098C50.1898 14.5195 50.2498 14.5795 50.2498 14.6595C50.2498 14.6895 50.2498 14.7095 50.2298 14.7295C48.4998 17.4095 46.8998 20.1495 45.4298 22.9695C45.3898 23.0495 45.3298 23.0895 45.2398 23.0895H43.7098C43.6398 23.0895 43.5898 23.0395 43.5898 22.9695C43.5898 22.9495 43.5898 22.9295 43.6098 22.9095L44.7798 20.8295C44.8198 20.7495 44.8398 20.6595 44.8298 20.5695L43.8098 14.6295C43.8098 14.5795 43.8398 14.5295 43.8898 14.5195C43.8898 14.5195 43.8998 14.5195 43.9098 14.5195H45.6398C45.7198 14.5195 45.7898 14.5795 45.7998 14.6695L46.1898 18.5295H46.1698Z" fill="#00519E"/>
</g>
<rect x="0.5" y="0.5" width="51" height="35" rx="3.5" stroke="#EAEAEA"/>
<defs>
<clipPath id="clip0_2280_3956">
<rect width="52" height="36" rx="4" fill="white"/>
</clipPath>
</defs>
</svg>
