<svg width="52" height="36" viewBox="0 0 52 36" fill="none" xmlns="http://www.w3.org/2000/svg">
<rect x="0.5" y="0.5" width="51" height="35" rx="3.5" fill="white"/>
<rect x="0.5" y="0.5" width="51" height="35" rx="3.5" stroke="#EAEAEA"/>
<path d="M46.6898 11.0898H5.2998C4.19524 11.0898 3.2998 11.9853 3.2998 13.0898V22.9098C3.2998 24.0144 4.19524 24.9098 5.2998 24.9098H46.6898C47.7944 24.9098 48.6898 24.0144 48.6898 22.9098V13.0898C48.6898 11.9853 47.7944 11.0898 46.6898 11.0898Z" fill="#0E192F"/>
<path d="M35.35 17.9707H33.21" stroke="white" stroke-width="0.33" stroke-linecap="round" stroke-linejoin="round"/>
<path d="M18.54 19.7895V16.0195L20.35 19.1095L22.27 16.0195V19.7895" stroke="white" stroke-width="0.33" stroke-linecap="round" stroke-linejoin="round"/>
<path d="M25.3697 19.7893C26.408 19.7893 27.2497 18.9476 27.2497 17.9093C27.2497 16.871 26.408 16.0293 25.3697 16.0293C24.3315 16.0293 23.4897 16.871 23.4897 17.9093C23.4897 18.9476 24.3315 19.7893 25.3697 19.7893Z" stroke="white" stroke-width="0.34" stroke-linecap="round" stroke-linejoin="round"/>
<path d="M45.8097 19.7904C46.8149 19.7904 47.6297 18.9755 47.6297 17.9704C47.6297 16.9652 46.8149 16.1504 45.8097 16.1504C44.8046 16.1504 43.9897 16.9652 43.9897 17.9704C43.9897 18.9755 44.8046 19.7904 45.8097 19.7904Z" stroke="white" stroke-width="0.33" stroke-linecap="round" stroke-linejoin="round"/>
<path d="M42.7197 16.6302C42.2897 16.2602 41.9097 16.1602 41.4997 16.1602C40.4997 16.1602 39.6797 16.9702 39.6797 17.9802C39.6797 18.9902 40.4897 19.8002 41.4997 19.8002C42.3897 19.8002 42.7497 19.5302 42.7697 19.2402V18.1702" stroke="white" stroke-width="0.33" stroke-linecap="round" stroke-linejoin="round"/>
<path d="M28.5596 19.7895V16.1095L31.3996 19.7895V16.0195" stroke="white" stroke-width="0.33" stroke-linecap="round" stroke-linejoin="round"/>
<path d="M35.5298 19.7902H33.0298V17.9702V16.1602H35.3998" stroke="white" stroke-width="0.33" stroke-linecap="round" stroke-linejoin="round"/>
<path d="M36.1396 16.0195L37.6497 18.4695L39.1596 16.0195" stroke="white" stroke-width="0.33" stroke-linecap="round" stroke-linejoin="round"/>
<path d="M37.6499 19.7907V18.4707" stroke="white" stroke-width="0.33" stroke-linecap="round" stroke-linejoin="round"/>
<path d="M15.8199 16.9905L11.2099 12.3805C10.6999 11.8705 9.87994 11.8705 9.36994 12.3805L4.75994 16.9905C4.24994 17.5005 4.24994 18.3205 4.75994 18.8305L9.36994 23.4405C9.87994 23.9505 10.6999 23.9505 11.2099 23.4405L15.8199 18.8305C16.3299 18.3205 16.3299 17.5005 15.8199 16.9905ZM7.76994 20.2605C7.76994 20.3505 7.69994 20.4205 7.60994 20.4205C7.51994 20.4205 7.44994 20.3505 7.44994 20.2605V18.4105C7.44994 18.3205 7.51994 18.2505 7.60994 18.2505C7.69994 18.2505 7.76994 18.3205 7.76994 18.4105V20.2605ZM10.2899 19.2005C10.1399 19.2005 10.0199 19.0805 10.0199 18.9305C10.0199 18.7805 10.1399 18.6605 10.2899 18.6605C10.4399 18.6605 10.5599 18.7805 10.5599 18.9305C10.5599 19.0805 10.4399 19.2005 10.2899 19.2005Z" fill="url(#paint0_linear_2280_3686)"/>
<path d="M7.60986 17.7305V15.5605L10.2999 18.1805L11.6299 16.8705" stroke="white" stroke-width="0.33" stroke-linecap="round" stroke-linejoin="round"/>
<path d="M12.0898 16.4305L12.9798 15.5605V20.2505" stroke="white" stroke-width="0.33" stroke-linecap="round" stroke-linejoin="round"/>
<defs>
<linearGradient id="paint0_linear_2280_3686" x1="6.92994" y1="14.7105" x2="12.5399" y2="20.0505" gradientUnits="userSpaceOnUse">
<stop stop-color="#EB1C69"/>
<stop offset="0.39" stop-color="#D11867"/>
<stop offset="1" stop-color="#AE1365"/>
</linearGradient>
</defs>
</svg>
