<svg width="52" height="36" viewBox="0 0 52 36" fill="none" xmlns="http://www.w3.org/2000/svg">
<g clip-path="url(#clip0_2280_4251)">
<rect width="52" height="36" rx="4" fill="white"/>
<path d="M48 0H4C1.79086 0 0 1.79086 0 4V32C0 34.2091 1.79086 36 4 36H48C50.2091 36 52 34.2091 52 32V4C52 1.79086 50.2091 0 48 0Z" fill="white"/>
<path d="M48 0H4C1.79086 0 0 1.79086 0 4V32C0 34.2091 1.79086 36 4 36H48C50.2091 36 52 34.2091 52 32V4C52 1.79086 50.2091 0 48 0Z" fill="#D3D3D3"/>
<path d="M47.3198 0.550781H4.6798C2.53694 0.550781 0.799805 2.28792 0.799805 4.43078V31.5608C0.799805 33.7036 2.53694 35.4408 4.6798 35.4408H47.3198C49.4627 35.4408 51.1998 33.7036 51.1998 31.5608V4.43078C51.1998 2.28792 49.4627 0.550781 47.3198 0.550781Z" fill="white"/>
<path d="M26.7703 4.18945C26.7703 4.29945 26.8703 4.25945 26.9203 4.26945C31.4803 4.78945 34.7903 8.76945 34.4503 13.3395C34.1303 17.6295 30.6203 20.9995 26.2903 21.1595C21.6503 21.3295 17.7003 17.6695 17.5403 13.0395C17.3903 8.61945 20.5103 4.89945 24.8903 4.27945C25.0003 4.25945 25.1503 4.33945 25.2303 4.18945H26.7703ZM22.8203 12.7195C22.8703 13.9395 22.8903 15.1695 22.9603 16.3895C23.0203 17.4395 23.5203 18.2295 24.3803 18.7895C25.1803 19.3095 26.0803 19.4395 27.0203 19.3695C27.5903 19.3295 28.1403 19.1895 28.6503 18.8995C29.0603 18.6595 29.2803 18.3095 29.3003 17.8195C29.3103 17.4095 29.2903 17.0095 29.3003 16.5995C29.3003 16.4195 29.2403 16.3895 29.0803 16.3995C28.5603 16.4395 28.0403 16.4695 27.5203 16.4895C26.9203 16.5195 26.5503 16.2295 26.4203 15.6395C26.4003 15.5295 26.3903 15.4095 26.3803 15.2995C26.3303 14.1295 26.3603 12.9495 26.3603 11.7795C26.3603 11.4895 26.4503 11.4095 26.7403 11.4195C27.1203 11.4295 27.5103 11.4495 27.8903 11.3995C28.7103 11.2995 29.5803 10.8295 29.4703 9.58945C29.4503 9.41945 29.4703 9.24945 29.4703 9.07945C29.4903 8.66945 29.4203 8.58945 29.0003 8.58945C28.2703 8.58945 27.5503 8.58945 26.8203 8.58945C26.4503 8.58945 26.3503 8.48945 26.3503 8.11945C26.3503 7.59945 26.3603 7.07945 26.3503 6.55945C26.3403 5.90945 26.2903 5.87945 25.6303 5.98945C24.8303 6.12945 24.1903 6.56945 23.6203 7.12945C23.0903 7.65945 22.8203 8.29945 22.8203 9.04945C22.8203 10.2695 22.8203 11.4795 22.8203 12.6995V12.7195Z" fill="#E32325"/>
<path d="M38.6801 31.5592C38.6801 31.4392 38.5801 31.4792 38.5301 31.4692C37.3801 31.2692 36.5501 30.6492 36.0601 29.5792C35.7601 28.9192 35.7201 28.2192 35.8201 27.5092C36.2101 24.6692 38.9801 23.8092 40.9501 24.7992C42.0401 25.3492 42.5301 26.3692 42.3001 27.5692C42.2001 28.0792 41.8801 28.3792 41.4001 28.5292C40.9801 28.6692 40.5301 28.6892 40.0901 28.7192C39.4801 28.7592 38.8701 28.8292 38.2601 28.7992C38.1101 28.7992 38.0701 28.8492 38.1101 28.9892C38.1701 29.2092 38.2901 29.3692 38.4701 29.5092C38.6401 29.6392 38.8401 29.7392 39.0501 29.7592C39.9401 29.8792 40.8301 29.8592 41.6701 29.4892C41.8501 29.4092 41.8801 29.4692 41.9101 29.6292C42.0201 30.2592 41.7101 30.8692 41.1201 31.1692C40.8301 31.3192 40.5301 31.4092 40.2101 31.4692C40.1201 31.4892 40.1201 31.4892 40.0801 31.5592H38.6701H38.6801ZM38.8601 27.3392C39.1001 27.3192 39.4201 27.2892 39.7401 27.2492C39.9301 27.2292 40.1401 27.2092 40.2201 26.9892C40.3001 26.7692 40.1701 26.5892 40.0401 26.4292C39.9901 26.3692 39.9201 26.3092 39.8501 26.2692C39.1101 25.8192 38.1201 26.3292 38.0401 27.1892C38.0301 27.3092 38.0701 27.3392 38.1801 27.3392C38.3901 27.3392 38.5901 27.3392 38.8701 27.3392H38.8601Z" fill="#E32325"/>
<path d="M24.6703 31.5598C24.6703 31.4398 24.5703 31.4798 24.5203 31.4698C23.5703 31.2998 22.8303 30.8398 22.2903 30.0298C21.2903 28.5098 21.6403 25.3798 24.1303 24.5998C25.3503 24.2198 26.5703 24.3398 27.5803 25.2398C28.2603 25.8498 28.4603 26.6498 28.3203 27.5298C28.2303 28.0598 27.9103 28.3998 27.3803 28.5098C26.4003 28.7098 25.4003 28.8398 24.3903 28.7998C24.0603 28.7798 24.0403 28.8098 24.1603 29.1198C24.2603 29.3598 24.4303 29.5398 24.6903 29.6098C25.7103 29.9098 26.7203 29.9098 27.7103 29.4698C27.8403 29.4098 27.8703 29.4298 27.9003 29.5598C28.0403 30.1898 27.7503 30.8198 27.1603 31.1398C26.8603 31.2998 26.5403 31.3898 26.2103 31.4498C26.1503 31.4631 26.107 31.4931 26.0803 31.5398H24.6703V31.5598ZM24.8303 27.3298C24.8303 27.3298 24.8303 27.3298 24.8303 27.3398C25.1503 27.3098 25.4703 27.2998 25.7803 27.2498C25.9803 27.2198 26.1303 27.0898 26.1903 26.8898C26.2503 26.6798 26.1603 26.5098 26.0003 26.3798C25.6003 26.0698 25.1603 26.0298 24.6903 26.2198C24.2403 26.3998 24.0603 26.7598 24.0003 27.2198C23.9903 27.3398 24.0203 27.3698 24.1403 27.3598C24.3703 27.3398 24.5903 27.3298 24.8203 27.3198L24.8303 27.3298Z" fill="#E32325"/>
<path d="M12.5399 31.5598C12.5399 31.4398 12.4499 31.4798 12.3899 31.4698C11.5999 31.3098 10.9099 30.9598 10.3899 30.3298C9.83992 29.6598 9.66992 28.8598 9.66992 28.0198C9.66992 27.4598 9.78992 26.9198 10.0299 26.4098C10.9299 24.4898 13.4199 23.7998 15.1399 24.9898C16.0299 25.5998 16.4199 26.5898 16.1799 27.6398C16.0499 28.1898 15.6699 28.4798 15.1399 28.5798C14.5099 28.6998 13.8699 28.7398 13.2299 28.7998C12.8799 28.8298 12.5199 28.8498 12.1599 28.8198C11.9699 28.8098 11.9599 28.8898 12.0099 29.0298C12.1699 29.4598 12.4899 29.7098 12.9199 29.7698C13.8199 29.8998 14.7099 29.8798 15.5599 29.4998C15.7399 29.4198 15.7699 29.4798 15.7999 29.6298C15.8899 30.2198 15.6299 30.8098 15.1099 31.1298C14.7799 31.3298 14.4099 31.4298 14.0199 31.4898C13.9399 31.4998 13.9399 31.4998 13.8899 31.5698H12.5199L12.5399 31.5598ZM12.7999 27.3298C13.1199 27.2998 13.4399 27.2898 13.7499 27.2498C14.0299 27.2098 14.1499 27.0298 14.1099 26.7498C14.0799 26.5598 13.9699 26.4298 13.8199 26.3198C13.2099 25.8998 12.0299 26.0798 11.8999 27.2098C11.8799 27.3498 11.9399 27.3698 12.0499 27.3598C12.2999 27.3398 12.5499 27.3298 12.7899 27.3198L12.7999 27.3298Z" fill="#E32325"/>
<path d="M4.64014 24.3901C4.76014 24.4201 4.72014 24.3101 4.74014 24.2701C5.05014 23.4601 5.66014 23.0201 6.47014 22.8001C6.50014 22.8001 6.54014 22.7901 6.58014 22.7801C6.96014 22.7401 6.98014 22.7601 6.98014 23.1401C6.98014 23.4901 6.98014 23.8401 6.98014 24.1901C6.98014 24.4201 7.04014 24.4801 7.27014 24.4801C7.73014 24.4801 8.18014 24.4801 8.64014 24.4801C8.98014 24.4801 9.01014 24.5101 9.00014 24.8401C9.00014 24.9401 9.00014 25.0401 9.00014 25.1401C9.02014 25.8401 8.66014 26.2401 7.96014 26.3201C7.72014 26.3501 7.48014 26.3401 7.24014 26.3201C7.06014 26.3101 6.98014 26.3901 6.98014 26.5701C6.98014 27.3201 6.96014 28.0601 6.98014 28.8101C7.01014 29.4201 7.26014 29.6501 7.87014 29.6101C8.15014 29.5901 8.42014 29.5801 8.70014 29.5601C8.82014 29.5601 8.88014 29.5801 8.88014 29.7201C8.88014 29.9801 8.89014 30.2501 8.88014 30.5101C8.87014 30.8201 8.72014 31.0301 8.46014 31.1901C8.17014 31.3601 7.86014 31.4501 7.53014 31.4901C7.42014 31.5001 7.42014 31.5001 7.37014 31.5701H6.86014C6.88014 31.4701 6.79014 31.5001 6.75014 31.4901C6.52014 31.4601 6.29014 31.4101 6.07014 31.3201C5.28014 30.9901 4.81014 30.4201 4.76014 29.5401C4.73014 28.9901 4.72014 28.4501 4.69014 27.9001C4.69014 27.8401 4.74014 27.7601 4.64014 27.7201V24.3901Z" fill="#E32325"/>
<path d="M32.36 31.5588C32.36 31.4388 32.26 31.4888 32.21 31.4788C31.06 31.2688 30.13 30.6988 29.67 29.6088C28.55 26.9388 30.16 24.8588 32.23 24.4888C32.7 24.4088 33.17 24.4288 33.63 24.5288C34.43 24.6988 34.91 25.2688 34.96 26.0888C34.96 26.2588 34.96 26.4288 34.97 26.5988C34.98 26.7688 34.93 26.7688 34.79 26.6988C34.15 26.3488 33.46 26.2388 32.75 26.4188C32 26.6088 31.58 27.1788 31.62 27.9588C31.66 28.8288 32.12 29.4288 32.87 29.5388C33.48 29.6288 34.08 29.5588 34.65 29.3388C34.91 29.2388 34.91 29.2388 34.93 29.5088C35.01 30.4188 34.67 30.9688 33.82 31.2988C33.59 31.3888 33.36 31.4488 33.12 31.4788C33.08 31.4788 32.99 31.4488 33.01 31.5588H32.37H32.36Z" fill="#E32325"/>
<path d="M47.35 30.66C47.25 30.61 47.27 30.71 47.26 30.74C47.14 31.03 46.92 31.21 46.63 31.3C46.06 31.48 45.48 31.49 44.91 31.29C44.09 31.01 43.58 30.31 43.54 29.39C43.52 28.87 43.52 28.35 43.52 27.83C43.52 26.07 43.52 24.32 43.52 22.56C43.52 22.36 43.56 22.27 43.79 22.28C44.11 22.3 44.43 22.26 44.75 22.32C45.41 22.45 45.74 22.81 45.78 23.49C45.84 24.61 45.8 25.74 45.82 26.86C45.82 27.48 45.82 28.1 45.82 28.72C45.82 29.31 46.03 29.53 46.62 29.56C46.86 29.57 47.1 29.57 47.34 29.54V30.65L47.35 30.66Z" fill="#E32325"/>
<path d="M17.4499 25.9887C17.4499 24.8387 17.4499 23.6987 17.4499 22.5487C17.4499 22.3587 17.4999 22.2887 17.6999 22.2887C18.0699 22.2887 18.4399 22.2687 18.7999 22.3687C19.3699 22.5187 19.6599 22.8587 19.6899 23.4487C19.7099 23.9187 19.7199 24.3887 19.7199 24.8587C19.7199 26.1287 19.7199 27.3887 19.7199 28.6587C19.7199 28.7487 19.7199 28.8287 19.7299 28.9187C19.7899 29.3287 19.9799 29.5187 20.3999 29.5587C20.6099 29.5787 20.8299 29.5787 21.0399 29.5787C21.1599 29.5787 21.2199 29.6087 21.2099 29.7487C21.2099 29.9887 21.2099 30.2287 21.2099 30.4787C21.1899 30.7887 21.0499 31.0387 20.7799 31.1987C19.7499 31.8187 18.1299 31.3287 17.6399 30.2387C17.4699 29.8487 17.4299 29.4387 17.4399 29.0287C17.4399 28.0187 17.4399 27.0087 17.4399 25.9987L17.4499 25.9887Z" fill="#E32325"/>
<path d="M22.8203 12.72C22.8203 11.5 22.8203 10.29 22.8203 9.06997C22.8203 8.31997 23.0903 7.67997 23.6203 7.14997C24.1803 6.58997 24.8203 6.14997 25.6303 6.00997C26.2903 5.89997 26.3303 5.92997 26.3503 6.57997C26.3603 7.09997 26.3503 7.61997 26.3503 8.13997C26.3503 8.50997 26.4403 8.60997 26.8203 8.60997C27.5503 8.60997 28.2703 8.60997 29.0003 8.60997C29.4103 8.60997 29.4903 8.68997 29.4703 9.09997C29.4703 9.26997 29.4503 9.43997 29.4703 9.60997C29.5803 10.85 28.7003 11.32 27.8903 11.42C27.5103 11.47 27.1203 11.45 26.7403 11.44C26.4503 11.44 26.3603 11.51 26.3603 11.8C26.3603 12.97 26.3303 14.15 26.3803 15.32C26.3803 15.43 26.4003 15.55 26.4203 15.66C26.5503 16.24 26.9203 16.53 27.5203 16.51C28.0403 16.49 28.5603 16.46 29.0803 16.42C29.2403 16.41 29.3103 16.43 29.3003 16.62C29.2903 17.02 29.3103 17.43 29.3003 17.84C29.2903 18.33 29.0603 18.68 28.6503 18.92C28.1503 19.22 27.6003 19.35 27.0203 19.39C26.0803 19.46 25.1803 19.33 24.3803 18.81C23.5203 18.25 23.0203 17.46 22.9603 16.41C22.8903 15.19 22.8803 13.96 22.8203 12.74V12.72Z" fill="#FDFCFC"/>
</g>
<rect x="0.5" y="0.5" width="51" height="35" rx="3.5" stroke="#EAEAEA"/>
<defs>
<clipPath id="clip0_2280_4251">
<rect width="52" height="36" rx="4" fill="white"/>
</clipPath>
</defs>
</svg>
