<svg width="52" height="36" viewBox="0 0 52 36" fill="none" xmlns="http://www.w3.org/2000/svg">
<rect x="0.5" y="0.5" width="51" height="35" rx="3.5" fill="white"/>
<rect x="0.5" y="0.5" width="51" height="35" rx="3.5" stroke="#EAEAEA"/>
<path d="M23.3001 21.6705C23.3001 23.0305 23.3401 24.3405 23.2201 25.6405C23.0401 27.4905 21.5601 28.8305 19.7101 28.8505C14.8601 28.8905 9.99006 28.8905 5.14006 28.8505C3.10006 28.8505 1.56006 27.2105 1.56006 25.1505V10.9505C1.56006 8.77052 3.10006 7.15052 5.28006 7.13052C10.0301 7.09052 14.8001 7.11052 19.5501 7.13052C21.7701 7.13052 23.2901 8.77052 23.2901 11.0805V21.6705M10.0501 11.1905C8.12006 11.5205 6.70006 12.5505 5.90006 14.3405C5.02006 16.2705 5.00006 18.2905 5.47006 20.3205C5.98006 22.4805 7.18006 24.1405 9.44006 24.7005C11.7601 25.2605 13.6901 24.5805 15.1801 22.6905C15.2401 22.6305 15.3201 22.5705 15.4701 22.4405V24.8005H19.5801V11.5805H15.3501V13.5105C14.0301 11.5005 12.2901 10.8405 9.99006 11.1905H10.0301H10.0501Z" fill="#DF2128"/>
<path d="M25.66 24.2208C25.56 24.0408 25.52 23.9108 25.52 23.7708V12.4608C25.52 12.3408 25.52 12.2308 25.54 12.0508H28.15V16.3008C28.71 16.0708 29.22 15.7408 29.75 15.6608C31.35 15.4308 32.55 16.2608 33.06 17.9008C33.49 19.2608 33.47 20.6508 33.14 22.0308C32.58 24.3508 29.79 25.3608 27.98 23.4108C27.9 23.7008 27.82 23.9608 27.73 24.2508C27.05 24.2508 26.39 24.2508 25.65 24.2308M30.75 19.9808C30.65 19.4208 30.61 18.8108 30.42 18.2708C30.19 17.6108 29.56 17.6108 29 17.7108C28.47 17.8108 28.14 18.1208 28.16 18.7208C28.18 19.6208 28.14 20.5308 28.18 21.4308C28.18 21.7008 28.37 22.0508 28.59 22.1908C29.45 22.7408 30.38 22.3308 30.62 21.3308C30.72 20.9208 30.7 20.5108 30.74 19.9508L30.76 19.9908L30.75 19.9808Z" fill="#DF2128"/>
<path d="M35.2398 23.4804C33.8198 21.9404 33.4898 19.4104 34.4398 17.6404C35.2598 16.1004 36.8698 15.3804 38.8198 15.6704C40.4898 15.9204 41.7998 17.1504 42.0298 18.8404C42.1498 19.7004 42.1698 20.6104 41.9698 21.4704C41.3298 24.3704 37.7998 25.4404 35.2298 23.5004M38.9498 22.0404C39.7098 20.8304 39.6498 19.5904 39.1598 18.3204C38.9698 17.7904 38.4798 17.5604 37.9698 17.6804C37.5798 17.7804 36.9798 18.0704 36.9198 18.3604C36.7098 19.2804 36.5698 20.2304 36.6898 21.1404C36.8298 22.3304 37.7798 22.6804 38.9698 22.0204L38.9498 22.0404Z" fill="#DF2128"/>
<path d="M48.4199 24.2614C47.9099 24.3214 47.8899 24.0314 47.8899 23.7114C47.8899 22.1314 47.9099 20.5714 47.8899 19.0014C47.8899 17.9314 47.3999 17.5214 46.4299 17.6814C45.8699 17.7814 45.5299 18.0314 45.5299 18.7114C45.5699 20.5214 45.5299 22.3314 45.5299 24.2014H42.9399V15.8114H45.3499C45.3899 16.1414 45.4299 16.4714 45.4899 16.9414C46.2299 15.9314 47.1499 15.5214 48.2699 15.6414C49.3899 15.7614 50.3499 16.6114 50.3899 17.7214C50.4499 19.8614 50.3899 22.0214 50.3899 24.2614H48.3599H48.3999H48.4199Z" fill="#DF2229"/>
<path d="M10.1199 11.1903C12.3399 10.8603 14.0899 11.5203 15.3999 13.5303V11.6003H19.6299V24.8203H15.5199V22.4603C15.3599 22.6003 15.2899 22.6403 15.2299 22.7103C13.7299 24.5803 11.7799 25.2803 9.48989 24.7203C7.22989 24.1603 6.01989 22.5203 5.51989 20.3403C5.04989 18.3103 5.06989 16.2903 5.94989 14.3603C6.74989 12.5903 8.16989 11.5403 10.1599 11.2103M9.99989 16.3503C9.91989 16.6203 9.80989 16.9103 9.76989 17.1903C9.41989 19.0003 10.2599 20.6403 11.7399 21.0703C13.7099 21.6303 15.2499 20.6603 15.6699 18.5603C15.9799 17.0003 15.2599 15.4403 13.9799 14.9403C12.4199 14.3403 10.8599 14.8603 10.0099 16.3803V16.3603L9.99989 16.3503Z" fill="#FFF6F6"/>
<path d="M30.7398 20.0498C30.6998 20.5398 30.6998 20.9498 30.6198 21.3498C30.4098 22.3398 29.4698 22.7498 28.5898 22.2098C28.3798 22.0698 28.1998 21.6998 28.1798 21.4498C28.1198 20.5498 28.1798 19.6398 28.1598 18.7398C28.1598 18.1398 28.4498 17.8198 28.9998 17.7298C29.5598 17.6298 30.1898 17.6298 30.4198 18.2898C30.6098 18.8398 30.6298 19.4398 30.7498 20.0598L30.7298 20.0398L30.7398 20.0498Z" fill="#FFF6F6"/>
<path d="M9.99997 16.2911C10.86 14.8311 12.4 14.3011 13.95 14.9111C15.24 15.4211 15.96 16.9711 15.64 18.5311C15.21 20.6311 13.67 21.6311 11.71 21.0411C10.23 20.6111 9.36997 18.9811 9.73997 17.1611C9.79997 16.8711 9.89997 16.6011 10.01 16.2611L9.98997 16.2811L9.99997 16.2911Z" fill="#DF2128"/>
</svg>
