<svg width="76" height="76" viewBox="0 0 76 76" fill="none" xmlns="http://www.w3.org/2000/svg">
<path fill-rule="evenodd" clip-rule="evenodd" d="M0.0180664 37.6947L4.01898 33.6938L5.81458 35.4894L3.60927 37.6947L5.81458 39.9L4.01898 41.6956L0.0180664 37.6947ZM8.46856 31.9754L9.3667 28.3461L7.10296 30.6098L8.46856 31.9754ZM17.3415 20.3712H20.9327L37.6567 3.64724L54.3806 20.3711L57.9719 20.3711L37.6567 0.0560303L17.3415 20.3712ZM54.3423 55.0566L37.6567 71.7422L21.4079 55.4933H17.8167L37.6567 75.3334L57.9335 55.0566L54.3423 55.0566ZM65.9032 47.087L66.8172 43.3862L68.2105 44.7796L65.9032 47.087ZM71.7042 37.6947L69.5085 35.499L71.3041 33.7034L75.2954 37.6947L71.3041 41.6861L69.5085 39.8904L71.7042 37.6947Z" fill="#FFB600"/>
<path fill-rule="evenodd" clip-rule="evenodd" d="M9.86348 26.3387L3.9266 20.3712H40.2687L41.1459 21.0916L41.3239 20.371L66.9351 20.3712L71.4088 24.8228L68.934 34.8431L67.7088 35.4724L68.61 36.1273L63.9349 55.0565L39.7375 55.0567L34.6856 51.9244L28.3427 55.0567H9.42646L3.82715 50.7312L9.86348 26.3387Z" fill="black"/>
<path fill-rule="evenodd" clip-rule="evenodd" d="M40.461 52.5173L36.5927 50.1188L40.8573 32.8514H58.7291L59.0243 31.4497L63.4539 28.855H16.1373L19.2247 31.4497L15.6084 46.0917L20.445 43.8226H26.0937L27.4524 38.5279H21.8029L22.6875 35.0998L27.2583 32.8514H36.8717L32.607 50.1188L27.75 52.5173H10.2932L6.68945 49.7334L12.6476 25.6091L9.99063 22.9106H39.3599L42.646 25.6091L43.3125 22.9103L65.8872 22.9106L68.5991 25.6091L66.746 33.1123L62.8767 35.0998L65.7352 37.1771L61.9466 52.5172L40.461 52.5173ZM50.4742 43.8226L45.7957 46.0917L47.638 38.5279H57.4817L56.123 43.8226H50.4742Z" fill="#F0F0F0"/>
</svg>
