<svg width="52" height="36" viewBox="0 0 52 36" fill="none" xmlns="http://www.w3.org/2000/svg">
<rect x="0.5" y="0.5" width="51" height="35" rx="3.5" fill="white"/>
<rect x="0.5" y="0.5" width="51" height="35" rx="3.5" stroke="#EAEAEA"/>
<path d="M4.80984 13.6191H9.38984C9.60984 13.6191 9.77984 13.7891 9.77984 14.0091C9.77984 14.0891 9.75984 14.1591 9.71984 14.2191L7.54984 17.9991L9.71984 21.7791C9.75984 21.8391 9.77984 21.9091 9.77984 21.9891C9.77984 22.2091 9.60984 22.3791 9.38984 22.3791H4.80984C4.73984 22.3791 4.67984 22.3591 4.61984 22.3291C4.54984 22.2891 4.49984 22.2391 4.46984 22.1791L2.11984 18.2091C2.11984 18.2091 2.11984 18.1991 2.11984 18.1891C2.09984 18.1391 2.08984 18.0891 2.08984 18.0391V18.0191C2.08984 17.9691 2.09984 17.9191 2.11984 17.8791V17.8691C2.11984 17.8691 2.11984 17.8591 2.11984 17.8491L4.46984 13.8791C4.49984 13.8191 4.54984 13.7591 4.61984 13.7291C4.67984 13.6991 4.74984 13.6791 4.80984 13.6791V13.6191ZM7.09984 18.7791L5.48984 21.5891H8.71984L7.10984 18.7791H7.09984ZM6.64984 17.9991L4.80984 14.7891L2.90984 17.9991L4.80984 21.2091L6.64984 17.9991ZM5.47984 14.3991L7.08984 17.2091L8.69984 14.3991H5.46984H5.47984Z" fill="#00DF98"/>
<path fill-rule="evenodd" clip-rule="evenodd" d="M13.4701 20.29C13.1601 20.15 12.9201 19.98 12.7101 19.77C12.5001 19.56 12.3301 19.28 12.2201 18.97C12.1201 18.69 12.0801 18.35 12.0801 18C12.0801 17.65 12.1501 17.34 12.2501 17.03C12.3501 16.72 12.5301 16.48 12.7401 16.23C12.9501 16.02 13.1901 15.85 13.4701 15.71C13.7501 15.57 14.0901 15.5 14.4401 15.5C14.7501 15.5 15.0301 15.53 15.2701 15.64C15.5101 15.71 15.7201 15.85 15.8901 15.99C16.0601 16.13 16.2001 16.3 16.3401 16.54C16.4401 16.75 16.5101 16.99 16.5801 17.23H15.3701C15.3401 17.02 15.2301 16.85 15.0901 16.71C14.9501 16.57 14.7401 16.5 14.5401 16.5C14.1601 16.5 13.8801 16.64 13.6701 16.88C13.5001 17.16 13.3901 17.5 13.3901 17.95C13.3901 18.4 13.4901 18.75 13.6701 19.02C13.8401 19.3 14.1201 19.44 14.5001 19.44C14.7401 19.44 14.9501 19.37 15.1201 19.23C15.2901 19.09 15.4001 18.88 15.4301 18.64H16.6401C16.6101 18.88 16.5701 19.13 16.4701 19.33C16.3701 19.54 16.2301 19.75 16.0501 19.88C15.8801 20.05 15.6701 20.16 15.3901 20.26C15.1501 20.36 14.8701 20.4 14.5601 20.4C14.0701 20.47 13.7601 20.4 13.4501 20.26L13.4701 20.29Z" fill="#013A51"/>
<path fill-rule="evenodd" clip-rule="evenodd" d="M18.5297 16.2686C18.6997 16.0286 18.8797 15.8186 19.0797 15.7186C19.2897 15.5786 19.5697 15.5486 19.8797 15.5486C20.1197 15.5486 20.3297 15.5786 20.5397 15.6886C20.7497 15.7886 20.9197 15.8986 21.0597 16.0686C21.1997 16.2086 21.2997 16.4186 21.3697 16.6186C21.4397 16.8286 21.4697 17.0686 21.4697 17.3086V20.3586H20.2197V17.4786C20.2197 17.2386 20.1497 17.0286 20.0097 16.8586C19.8697 16.6886 19.6597 16.6186 19.4197 16.6186C19.1397 16.6186 18.9297 16.7186 18.7297 16.9286C18.5597 17.1386 18.4497 17.3786 18.4497 17.7286V20.3986H17.1997V13.8086H18.4497L18.5197 16.2686H18.5297Z" fill="#013A51"/>
<path fill-rule="evenodd" clip-rule="evenodd" d="M23.5599 20.29C23.2499 20.15 23.0099 19.98 22.7999 19.77C22.5899 19.56 22.4199 19.28 22.3099 18.97C22.2099 18.66 22.1699 18.35 22.1699 18C22.1699 17.65 22.2399 17.34 22.3399 17.03C22.4399 16.72 22.6199 16.48 22.8299 16.23C23.0399 16.02 23.2799 15.85 23.5599 15.71C23.8399 15.57 24.1499 15.5 24.4999 15.5C24.8799 15.5 25.1899 15.57 25.5099 15.71C25.7899 15.85 26.0299 16.06 26.2399 16.3C26.4499 16.54 26.5899 16.85 26.6899 17.2C26.7899 17.55 26.8299 17.93 26.8299 18.34H23.4299C23.4599 18.72 23.5999 19 23.8099 19.21C24.0199 19.42 24.2999 19.52 24.6399 19.52C24.8799 19.52 25.0899 19.49 25.2299 19.38C25.3699 19.28 25.4699 19.14 25.5399 18.96H26.7199C26.6899 19.17 26.6199 19.38 26.4799 19.55C26.3799 19.72 26.2399 19.9 26.0299 20.04C25.8599 20.18 25.6499 20.28 25.4099 20.39C25.1699 20.46 24.8899 20.53 24.6099 20.53C24.2299 20.5 23.8799 20.43 23.5699 20.29H23.5599ZM23.7299 16.75C23.5599 16.92 23.4499 17.17 23.3799 17.48H25.4599C25.4299 17.17 25.3599 16.93 25.1499 16.75C24.9799 16.58 24.7299 16.47 24.4599 16.47C24.1899 16.47 23.9099 16.57 23.7299 16.75Z" fill="#013A51"/>
<path fill-rule="evenodd" clip-rule="evenodd" d="M28.6597 20.29C28.3497 20.15 28.1097 19.98 27.8997 19.77C27.6897 19.56 27.5197 19.28 27.4097 18.97C27.3097 18.69 27.2397 18.35 27.2397 18C27.2397 17.65 27.3097 17.34 27.4097 17.03C27.5097 16.72 27.6897 16.48 27.8997 16.23C28.1097 16.02 28.3497 15.85 28.6297 15.71C28.9097 15.57 29.2497 15.5 29.5997 15.5C29.9097 15.5 30.1897 15.53 30.4297 15.64C30.6697 15.71 30.8797 15.85 31.0497 15.99C31.2197 16.13 31.3597 16.3 31.4997 16.54C31.5997 16.75 31.6697 16.99 31.7397 17.23H30.5297C30.4997 17.02 30.3897 16.85 30.2497 16.71C30.1097 16.57 29.8997 16.5 29.6997 16.5C29.3197 16.5 29.0397 16.64 28.8297 16.88C28.6597 17.16 28.5497 17.5 28.5497 17.95C28.5497 18.4 28.6497 18.75 28.8297 19.02C28.9997 19.3 29.2797 19.44 29.6597 19.44C29.8997 19.44 30.1097 19.37 30.2797 19.23C30.4497 19.09 30.5597 18.88 30.5897 18.64H31.7997C31.7697 18.88 31.7297 19.13 31.6297 19.33C31.5297 19.54 31.3897 19.75 31.2097 19.88C31.0397 20.05 30.8297 20.16 30.5497 20.26C30.3097 20.36 30.0297 20.4 29.7197 20.4C29.2697 20.47 28.9197 20.4 28.6497 20.26L28.6597 20.29Z" fill="#013A51"/>
<path fill-rule="evenodd" clip-rule="evenodd" d="M33.6499 18.7586V20.3586H32.3999V13.8086H33.6499V17.4086L35.3099 15.6386H36.7999L35.0699 17.4086L37.0099 20.3186H35.5199L34.1999 18.1686L33.6499 18.7586Z" fill="#013A51"/>
<path fill-rule="evenodd" clip-rule="evenodd" d="M38.3899 20.29C38.0799 20.15 37.8399 19.98 37.6299 19.77C37.4199 19.56 37.2499 19.28 37.1099 18.97C37.0099 18.66 36.9399 18.35 36.9399 18C36.9399 17.65 37.0099 17.34 37.1099 17.03C37.2099 16.72 37.3899 16.48 37.6299 16.23C37.8399 16.02 38.1199 15.85 38.3899 15.71C38.6999 15.57 39.0099 15.5 39.3999 15.5C39.7899 15.5 40.0899 15.57 40.4099 15.71C40.7199 15.85 40.9599 16.02 41.1699 16.23C41.3799 16.44 41.5499 16.72 41.6599 17.03C41.7599 17.34 41.8299 17.65 41.8299 18C41.8299 18.35 41.7599 18.66 41.6599 18.97C41.5599 19.28 41.3799 19.52 41.1699 19.77C40.9599 19.98 40.6799 20.15 40.4099 20.29C40.0999 20.43 39.7899 20.5 39.3999 20.5C39.0099 20.5 38.6699 20.43 38.3899 20.29ZM40.2599 19.11C40.4699 18.83 40.5699 18.45 40.5699 18C40.5699 17.55 40.4699 17.17 40.2599 16.89C40.0499 16.61 39.7699 16.47 39.3899 16.47C39.0099 16.47 38.6999 16.61 38.5199 16.89C38.3099 17.17 38.2099 17.55 38.2099 18C38.2099 18.45 38.3099 18.83 38.5199 19.11C38.7299 19.39 39.0099 19.53 39.3899 19.53C39.7399 19.53 40.0499 19.39 40.2599 19.11Z" fill="#013A51"/>
<path fill-rule="evenodd" clip-rule="evenodd" d="M45.4697 19.7994C45.2997 20.0094 45.0897 20.1794 44.9197 20.2894C44.7097 20.3894 44.4297 20.4594 44.1197 20.4594C43.5997 20.4594 43.1797 20.3194 42.9097 20.0094C42.6297 19.6994 42.4897 19.2794 42.4897 18.7594V15.6394H43.7397V18.5494C43.7397 18.8294 43.8097 19.0394 43.9097 19.1694C44.0497 19.3094 44.2197 19.3794 44.4997 19.3794C44.7797 19.3794 45.0197 19.2794 45.1897 19.0694C45.3597 18.8594 45.4297 18.6194 45.4297 18.3094V15.6094H46.6797V20.2894H45.4697V19.7994Z" fill="#013A51"/>
<path fill-rule="evenodd" clip-rule="evenodd" d="M47.8597 15.6795V14.1895H49.0697V15.6495H49.8697V16.4795H49.0697V18.9795C49.0697 19.1495 49.0997 19.2895 49.2097 19.3595C49.2797 19.4295 49.4197 19.4595 49.5597 19.4595H49.9397V20.3595H49.1797C49.0397 20.3595 48.8697 20.3595 48.7297 20.3295C48.5897 20.2995 48.4497 20.2295 48.3097 20.1595C48.1697 20.0895 48.0997 19.9495 47.9997 19.8095C47.9297 19.6695 47.8997 19.4995 47.8997 19.2595V16.5195H47.2397V15.6895H47.8597V15.6795Z" fill="#013A51"/>
</svg>
