<svg width="52" height="36" viewBox="0 0 52 36" fill="none" xmlns="http://www.w3.org/2000/svg">
<rect x="0.5" y="0.5" width="51" height="35" rx="3.5" fill="white"/>
<rect x="0.5" y="0.5" width="51" height="35" rx="3.5" stroke="#EAEAEA"/>
<path fill-rule="evenodd" clip-rule="evenodd" d="M37.3704 18.5803C37.7304 18.3103 38.1904 18.1303 38.6504 18.1303C39.2904 18.1303 39.5804 18.3603 39.5804 19.0203H38.9804C38.5304 19.0203 38.0004 19.0603 37.5904 19.2603C37.1804 19.4603 36.8804 19.8203 36.8804 20.4403C36.8804 21.2303 37.6004 21.6703 38.3304 21.6703C38.8204 21.6703 39.3604 21.4103 39.6104 20.9503H39.6304C39.6304 21.0803 39.6304 21.3503 39.6804 21.5703H40.6304C40.6104 21.2503 40.5904 20.9603 40.5804 20.6403C40.5804 20.3303 40.5604 20.0203 40.5604 19.6003V19.0703C40.5604 17.8503 40.0404 17.3203 38.7704 17.3203C38.3104 17.3203 37.7504 17.4403 37.3304 17.6303L37.3604 18.5603L37.3704 18.5803ZM37.9204 20.3803C37.9204 19.7403 38.6404 19.6603 39.1204 19.6603H39.5904C39.5904 19.9803 39.5404 20.2803 39.3604 20.5103C39.1904 20.7403 38.9304 20.8803 38.6004 20.8803C38.2104 20.8803 37.9204 20.7303 37.9204 20.3703V20.3803Z" fill="#0A3677"/>
<path fill-rule="evenodd" clip-rule="evenodd" d="M20.9302 19.5408C20.9302 20.7608 21.7302 21.7208 23.0902 21.7208C24.4502 21.7208 25.2602 20.7508 25.2602 19.5408C25.2602 18.1408 24.3202 17.3008 23.0902 17.3008C21.8602 17.3008 20.9302 18.1508 20.9302 19.5408ZM22.0602 19.4108C22.0602 18.7708 22.4002 18.1408 23.1002 18.1408C23.8002 18.1408 24.1502 18.7508 24.1502 19.4108C24.1502 20.1208 23.9302 20.8908 23.1002 20.8908C22.2702 20.8908 22.0602 20.1208 22.0602 19.4108Z" fill="#0A3677"/>
<path d="M29.78 20.33C29.78 21.15 30.25 21.67 31.09 21.67C31.41 21.67 31.66 21.64 31.89 21.57L31.86 20.72C31.75 20.79 31.56 20.83 31.37 20.83C30.96 20.83 30.86 20.5 30.86 20.15V18.22H31.82V17.43H30.86V16.25L29.78 16.6V17.43H28.98V18.22H29.78V20.33Z" fill="#0A3677"/>
<path d="M28.6 17.4898C28.26 17.4198 27.93 17.3398 27.42 17.3398C26.57 17.3398 25.79 17.7298 25.79 18.6298C25.79 20.1298 27.67 19.5698 27.67 20.3798C27.67 20.7798 27.24 20.8898 26.96 20.8898C26.59 20.8898 26.24 20.7898 25.9 20.6198L25.84 21.5098C26.23 21.6098 26.65 21.6898 27.06 21.6898C27.94 21.6898 28.8 21.2998 28.8 20.3398C28.8 18.8398 26.92 19.2598 26.92 18.5998C26.92 18.2498 27.27 18.1398 27.56 18.1398C27.95 18.1398 28.2 18.1998 28.53 18.3198L28.6 17.5098V17.4898Z" fill="#0A3677"/>
<path d="M41.4902 21.5803H42.5702V19.5503C42.5702 19.0203 42.7402 18.1703 43.5202 18.1703C44.2102 18.1703 44.2202 18.8503 44.2202 19.3603V21.5703H45.3002V18.9503C45.3002 18.0203 44.8702 17.3203 43.8902 17.3203C43.3302 17.3203 42.8702 17.5103 42.5302 17.9803H42.5102V17.4203H41.4902V21.5603V21.5803Z" fill="#0A3677"/>
<path d="M46.23 21.5808H47.31V19.5708H47.32L48.71 21.5808H50.07L48.34 19.2908L49.88 17.4408H48.61L47.32 19.1008H47.31V15.5508H46.23V21.5808Z" fill="#0A3677"/>
<path fill-rule="evenodd" clip-rule="evenodd" d="M33.4704 19.501C33.4704 18.921 33.7504 18.181 34.4404 18.181C35.1304 18.181 35.3504 18.941 35.3504 19.501C35.3504 20.061 35.1304 20.841 34.4204 20.841C33.7104 20.841 33.4604 20.081 33.4604 19.501H33.4704ZM32.4204 21.581H33.4304V21.061C33.7304 21.461 34.1904 21.681 34.6704 21.681C35.9104 21.681 36.4304 20.631 36.4304 19.501C36.4304 18.371 35.9604 17.341 34.7204 17.341C34.1704 17.341 33.7504 17.601 33.4604 17.991V15.541H32.4204V21.581Z" fill="#0A3677"/>
<path fill-rule="evenodd" clip-rule="evenodd" d="M18.2301 16.8509H18.6201C19.2001 16.8509 19.6901 17.0809 19.6901 17.7309C19.6901 18.3809 19.1801 18.5709 18.6201 18.5709H18.2301V16.8609V16.8509ZM17.1001 21.5809H18.2301V19.4509H18.7001C19.9101 19.4509 20.8601 18.9809 20.8601 17.6609C20.8601 16.3409 19.7401 15.9609 18.5201 15.9609H17.1001V21.5809Z" fill="#0A3677"/>
<path d="M6.81018 14.0402L11.8902 13.9102C7.95018 16.2602 6.63018 19.8702 6.30018 22.1002H1.93018C2.25018 19.6602 4.22018 15.6302 6.81018 14.0502V14.0402Z" fill="#0A3677"/>
<path d="M14.1902 17.2402C12.1802 18.5002 11.5902 20.4802 11.4702 21.2402H10.1602C10.3902 19.9102 11.2302 18.1802 12.4602 17.2702C12.4702 17.2702 14.1802 17.2402 14.1802 17.2402H14.1902Z" fill="#0A3677"/>
<path d="M10.3002 15.9999L13.2802 15.9199C10.8402 17.2099 9.62016 19.9199 9.42016 21.5899H7.16016C7.35016 20.2199 8.29016 17.5199 10.3102 16.0099L10.3002 15.9999Z" fill="#E30613"/>
</svg>
