<svg width="52" height="36" viewBox="0 0 52 36" fill="none" xmlns="http://www.w3.org/2000/svg">
<rect x="0.5" y="0.5" width="51" height="35" rx="3.5" fill="white"/>
<rect x="0.5" y="0.5" width="51" height="35" rx="3.5" stroke="#EAEAEA"/>
<path fill-rule="evenodd" clip-rule="evenodd" d="M20.0298 7.24023H31.9598V19.1802H20.0298V7.24023ZM21.6998 8.88023V17.5002H30.2998V8.88023H21.6998Z" fill="#000082"/>
<path fill-rule="evenodd" clip-rule="evenodd" d="M22.71 16.2609L27.01 9.92086L29.34 9.88086L24.9 16.2609H22.71Z" fill="#000082"/>
<path fill-rule="evenodd" clip-rule="evenodd" d="M2.41992 28.6898V23.8498H4.48992C5.14992 23.8498 5.63992 24.1098 6.01992 24.6298C6.31992 25.0798 6.48992 25.6198 6.48992 26.2698C6.48992 26.9198 6.31992 27.4698 5.96992 27.9398C5.58992 28.4298 5.09992 28.6898 4.48992 28.6898H2.41992ZM3.42992 24.7198V27.8198H4.36992C4.74992 27.8198 5.00992 27.6598 5.18992 27.3498C5.35992 27.0698 5.41992 26.7198 5.41992 26.2698C5.41992 25.8898 5.34992 25.5398 5.18992 25.2598C4.99992 24.8798 4.71992 24.7198 4.36992 24.7198H3.42992ZM9.39992 27.5598H10.3399C10.2699 27.9598 10.0599 28.2398 9.72992 28.4798C9.44992 28.6698 9.09992 28.7598 8.66992 28.7598C8.17992 28.7598 7.77992 28.5698 7.46992 28.2198C7.13992 27.8698 6.97992 27.4198 6.97992 26.8598C6.97992 26.3698 7.14992 25.9398 7.44992 25.6098C7.77992 25.2798 8.17992 25.0898 8.66992 25.0898C9.37992 25.0898 9.83992 25.3498 10.0999 25.8398C10.1899 25.9998 10.2699 26.2198 10.3099 26.4298C10.3499 26.6598 10.3799 26.8998 10.3799 27.1598H7.93992C7.93992 27.3498 8.00992 27.5098 8.12992 27.6798C8.29992 27.8698 8.45992 27.9598 8.66992 27.9598C8.83992 27.9598 8.99992 27.9098 9.11992 27.8698C9.25992 27.7998 9.34992 27.7098 9.39992 27.5598ZM7.93992 26.5498H9.39992C9.39992 26.3898 9.32992 26.2198 9.18992 26.1098C9.02992 25.9698 8.85992 25.8998 8.66992 25.8998C8.47992 25.8998 8.31992 25.9698 8.17992 26.1098C8.00992 26.2298 7.94992 26.3898 7.94992 26.5498H7.93992ZM10.9699 25.1598H11.9099V27.4898C11.9099 27.6098 11.9799 27.7198 12.0699 27.8198C12.1899 27.9198 12.3299 27.9598 12.4699 27.9598C12.6599 27.9598 12.8199 27.9098 12.9599 27.7998C13.0999 27.6598 13.1699 27.5198 13.1699 27.3498V25.1698H14.0899V28.6998H13.1699V28.2498C12.8899 28.5998 12.5399 28.7698 12.1199 28.7698C11.8099 28.7698 11.5499 28.6798 11.3399 28.5398C11.0999 28.3698 10.9599 28.1398 10.9599 27.8598V25.1798L10.9699 25.1598ZM15.9499 24.1498V25.1598H16.4899V25.8198H15.9499V27.6298C15.9499 27.6998 15.9999 27.7698 16.0399 27.8198C16.0899 27.8698 16.1599 27.8898 16.2499 27.8898H16.3899C16.3899 27.8898 16.4599 27.8698 16.4799 27.8698V28.6898C16.3599 28.7098 16.2499 28.7298 16.1699 28.7298C16.0799 28.7498 15.9599 28.7498 15.7899 28.7498C15.5599 28.7498 15.3899 28.6798 15.2299 28.5198C15.0899 28.3798 15.0199 28.2098 15.0199 27.9998V25.8198H14.5499V25.1598H15.0199V24.6898L15.9399 24.1498H15.9499ZM16.8899 27.4898H17.8299C17.8299 27.6598 17.8799 27.7998 18.0199 27.8898C18.1399 27.9798 18.2999 28.0298 18.4899 28.0298C18.6599 28.0298 18.7999 28.0098 18.8899 27.9598C19.0099 27.9098 19.0799 27.7998 19.0799 27.6598C19.0799 27.4698 18.9099 27.3298 18.5399 27.2398C17.9299 27.0698 17.5799 26.9798 17.5299 26.9298C17.1499 26.7698 16.9599 26.5298 16.9599 26.1998C16.9599 25.8698 17.0999 25.6098 17.3599 25.3998C17.6199 25.1898 17.9699 25.0898 18.3899 25.0898C18.8099 25.0898 19.1399 25.1898 19.4199 25.3698C19.7299 25.5798 19.8899 25.8598 19.8899 26.2598H19.0199C18.9999 26.1198 18.9299 25.9998 18.8099 25.9298C18.6899 25.8598 18.5499 25.8098 18.3899 25.8098C18.2499 25.8098 18.1299 25.8598 18.0399 25.8998C17.9499 25.9698 17.8999 26.0398 17.8999 26.1598C17.8999 26.2998 18.0899 26.4198 18.4399 26.4898C18.9799 26.5798 19.3299 26.6498 19.4499 26.7198C19.8299 26.8798 20.0199 27.1698 20.0199 27.5598C20.0199 27.9498 19.8599 28.2698 19.5199 28.4498C19.2399 28.6398 18.9099 28.7298 18.4899 28.7298C18.0199 28.7298 17.6499 28.6098 17.3399 28.3798C17.0399 28.1698 16.8999 27.8598 16.8999 27.4598L16.8899 27.4898ZM22.1999 28.7598C21.7099 28.7598 21.3099 28.5698 20.9799 28.2198C20.6799 27.8698 20.5099 27.4198 20.5099 26.8598C20.5099 26.3898 20.6799 25.9698 20.9999 25.6098C21.3299 25.2798 21.7299 25.0898 22.1999 25.0898C22.6199 25.0898 22.9999 25.2298 23.2999 25.4898C23.6299 25.7298 23.7899 26.0598 23.7899 26.4298H22.8499C22.8499 26.2598 22.7799 26.1498 22.6599 26.0498C22.5199 25.9298 22.3799 25.8798 22.1899 25.8798C21.9599 25.8798 21.7899 25.9798 21.6499 26.1598C21.5299 26.3198 21.4599 26.5598 21.4599 26.8398C21.4599 27.1698 21.5299 27.4298 21.6499 27.6398C21.7899 27.8298 21.9599 27.9398 22.1899 27.9398C22.3499 27.9398 22.5199 27.8698 22.6299 27.7498C22.7699 27.6298 22.8399 27.5198 22.8399 27.3498H23.7799C23.7799 27.7498 23.6199 28.0998 23.2899 28.3598C22.9599 28.5998 22.6099 28.7398 22.1899 28.7398L22.1999 28.7598ZM24.4099 23.8498H25.3499V25.5398C25.4699 25.3698 25.6299 25.2598 25.8199 25.1898C26.0099 25.1398 26.2199 25.0898 26.4299 25.0898C26.7399 25.0898 27.0199 25.1898 27.2499 25.3698C27.4799 25.5398 27.5999 25.7898 27.5999 26.0798V28.6898H26.6799V26.4798C26.6799 26.2898 26.6099 26.1498 26.5099 26.0598C26.4199 25.9698 26.2799 25.9198 26.1099 25.9198C25.9199 25.9198 25.7299 25.9698 25.5699 26.0898C25.4299 26.2098 25.3299 26.3498 25.3299 26.5298V28.6898H24.3899V23.8498H24.4099ZM30.6399 27.5598H31.5599C31.4899 27.9598 31.2799 28.2398 30.9499 28.4798C30.6699 28.6698 30.3199 28.7598 29.9199 28.7598C29.4299 28.7598 29.0299 28.5698 28.6999 28.2198C28.3699 27.8698 28.2299 27.4198 28.2299 26.8598C28.2299 26.3698 28.3699 25.9398 28.6999 25.6098C28.9999 25.2798 29.4299 25.0898 29.9199 25.0898C30.5999 25.0898 31.0699 25.3498 31.3299 25.8398C31.4499 25.9998 31.5199 26.2198 31.5699 26.4298C31.6099 26.6598 31.6099 26.8998 31.6099 27.1598H29.1699C29.1699 27.3498 29.2399 27.5098 29.3799 27.6798C29.5199 27.8698 29.7099 27.9598 29.9199 27.9598C30.0899 27.9598 30.2299 27.9098 30.3699 27.8698C30.4899 27.7998 30.5799 27.7098 30.6499 27.5598H30.6399ZM29.1599 26.5498H30.6399C30.6399 26.3898 30.5399 26.2198 30.3999 26.1098C30.2599 25.9698 30.0999 25.8998 29.9099 25.8998C29.7199 25.8998 29.5299 25.9698 29.3899 26.1098C29.2499 26.2298 29.1599 26.3898 29.1599 26.5498ZM33.9299 28.6898V23.8498H36.3999C36.7499 23.8498 37.0599 23.9698 37.2899 24.2298C37.5499 24.4898 37.6899 24.7898 37.6899 25.1698C37.6899 25.3798 37.6499 25.5698 37.5499 25.7598C37.4299 25.9498 37.2699 26.0898 37.0799 26.1798C37.3099 26.2698 37.4999 26.4398 37.6699 26.6298C37.8099 26.8398 37.8799 27.0498 37.8799 27.2898C37.8799 27.6898 37.7399 28.0198 37.4799 28.2798C37.2199 28.5598 36.9399 28.6998 36.5599 28.6998H33.9299V28.6898ZM34.9199 24.7198V25.7498H36.1199C36.2899 25.7498 36.4299 25.7098 36.5399 25.6098C36.6599 25.5198 36.7099 25.3998 36.7099 25.2598C36.7099 25.0998 36.6599 24.9798 36.5399 24.8598C36.4199 24.7698 36.3099 24.7198 36.1399 24.7198H34.9199ZM34.9199 26.6298V27.8298H36.1899C36.3799 27.8298 36.5199 27.7798 36.6599 27.6398C36.7799 27.5198 36.8499 27.3798 36.8499 27.2198C36.8499 27.0598 36.7799 26.9098 36.6599 26.7998C36.5199 26.6798 36.3799 26.6398 36.1899 26.6398H34.9199V26.6298ZM39.5199 26.2298H38.5799C38.5799 25.8498 38.7399 25.5698 39.0499 25.3598C39.3299 25.1998 39.6599 25.0998 40.0599 25.0998C40.5999 25.0998 40.9999 25.1998 41.2599 25.3598C41.4699 25.5198 41.5899 25.7098 41.5899 25.9698V28.1298C41.5899 28.3398 41.6599 28.5298 41.7999 28.6998H40.8399C40.7899 28.6298 40.7499 28.5798 40.7199 28.5098C40.6999 28.4598 40.6699 28.3898 40.6499 28.2998C40.5299 28.4598 40.3699 28.5798 40.1799 28.6498C40.0099 28.7198 39.7999 28.7698 39.5499 28.7698C39.2199 28.7698 38.9599 28.6498 38.7799 28.4698C38.5699 28.2598 38.4499 27.9998 38.4499 27.7198C38.4499 27.4398 38.5499 27.1798 38.7099 26.9898C38.8699 26.7998 39.1099 26.6798 39.4199 26.6398C39.9599 26.5398 40.2199 26.4998 40.2399 26.4998C40.5199 26.4298 40.6599 26.3398 40.6599 26.2398C40.6599 26.0998 40.6099 25.9798 40.4999 25.9298C40.3999 25.8598 40.2599 25.8398 40.0799 25.8398C39.9199 25.8398 39.7999 25.8898 39.6799 25.9298C39.5899 25.9998 39.5399 26.0998 39.5399 26.2398L39.5199 26.2298ZM40.6499 27.4998V26.9598C40.3499 27.0098 40.1099 27.0798 39.9199 27.1198C39.5699 27.2098 39.3999 27.3798 39.3999 27.5898C39.3999 27.7598 39.4199 27.8498 39.5199 27.9198C39.6099 27.9898 39.7299 28.0098 39.8999 28.0098C40.0699 28.0098 40.2299 27.9598 40.3699 27.8698C40.5099 27.7998 40.5999 27.6598 40.6499 27.4898V27.4998ZM42.4099 25.1698H43.3499V25.5698C43.4699 25.4298 43.6099 25.3098 43.7999 25.2198C44.0099 25.1498 44.1999 25.0998 44.3599 25.0998C44.6899 25.0998 44.9499 25.1998 45.1799 25.3398C45.4199 25.5298 45.5599 25.7598 45.5599 26.0398V28.6998H44.6199V26.3698C44.6199 26.2298 44.5699 26.1098 44.4799 26.0398C44.3599 25.9498 44.2499 25.9198 44.0999 25.9198C43.9099 25.9198 43.7699 25.9398 43.6499 26.0098C43.5299 26.1098 43.4399 26.1998 43.3499 26.3698V28.6998H42.4099V25.1698ZM46.3099 23.8498H47.2499V26.4298L48.3299 25.1598H49.4599L48.3099 26.4998L49.5799 28.6798H48.4799L47.6799 27.1698L47.2599 27.6198V28.6798H46.3199V23.8398L46.3099 23.8498Z" fill="#000082"/>
</svg>
