<svg width="52" height="36" viewBox="0 0 52 36" fill="none" xmlns="http://www.w3.org/2000/svg">
<rect x="0.5" y="0.5" width="51" height="35" rx="3.5" fill="white"/>
<rect x="0.5" y="0.5" width="51" height="35" rx="3.5" stroke="#EAEAEA"/>
<path d="M8.13982 15.0508H7.47982V15.2308H7.99982L9.28982 20.5508H2.61982L3.90982 15.2308H4.42982V15.0508H3.76982L2.31982 20.7808H9.58982L8.13982 15.0508Z" fill="#1F3A6A"/>
<path d="M7.2299 12.7305H4.6799C4.5199 12.7305 4.3999 12.8605 4.3999 13.0105V15.5105H4.6399V13.0105C4.6399 13.0105 4.6599 12.9705 4.6799 12.9705H5.1899V14.7805H4.7099L5.3899 15.5105H6.4999L7.1799 14.7805H6.6999V12.9705H7.2099C7.2099 12.9705 7.2499 12.9905 7.2499 13.0105V15.5105H7.4899V13.0105C7.4899 12.8505 7.3599 12.7305 7.2099 12.7305H7.2299Z" fill="#5DC0E5"/>
<path d="M5.42004 18.6004H6.49004C6.56004 18.6004 6.61004 18.5504 6.61004 18.4804L6.57004 17.7804C6.57004 17.7104 6.51004 17.6504 6.43004 17.6504H5.47004C5.40004 17.6504 5.34004 17.7104 5.33004 17.7804L5.29004 18.4804C5.29004 18.5504 5.34004 18.6004 5.40004 18.6104L5.42004 18.6004Z" fill="#1F3A6A"/>
<path d="M4.87959 17.6406H3.90959C3.83959 17.6406 3.76959 17.6906 3.75959 17.7706L3.61959 18.4806C3.60959 18.5306 3.63959 18.5906 3.68959 18.6006C3.68959 18.6006 3.70959 18.6006 3.71959 18.6006H4.79959C4.86959 18.6006 4.92959 18.5406 4.93959 18.4706L4.99959 17.7706C4.99959 17.7106 4.95959 17.6506 4.89959 17.6406C4.89959 17.6406 4.89959 17.6406 4.88959 17.6406H4.87959Z" fill="#1F3A6A"/>
<path d="M5.45963 17.3616H6.43963C6.48963 17.3616 6.53963 17.3216 6.53963 17.2616L6.50963 16.7016C6.50963 16.6416 6.45963 16.6016 6.39963 16.6016H5.50963C5.44963 16.6016 5.39963 16.6516 5.39963 16.7016L5.36963 17.2616C5.36963 17.3116 5.40963 17.3616 5.45963 17.3616Z" fill="#1F3A6A"/>
<path d="M4.99963 16.5898H4.09963C4.03963 16.5898 3.98963 16.6298 3.97963 16.6898L3.86963 17.2498C3.86963 17.2498 3.88963 17.3398 3.92963 17.3498H3.94963H4.93963C4.99963 17.3498 5.04963 17.2998 5.04963 17.2498L5.09963 16.6898C5.09963 16.6398 5.06963 16.5898 5.01963 16.5898C5.01963 16.5898 5.01963 16.5898 5.00963 16.5898H4.99963Z" fill="#1F3A6A"/>
<path d="M7.95982 17.3616C7.95982 17.3616 8.03982 17.3316 8.04982 17.2816V17.2616L7.93982 16.7016C7.92982 16.6416 7.87982 16.6016 7.81982 16.6016H6.91982C6.86982 16.6016 6.82982 16.6416 6.81982 16.6916C6.81982 16.6916 6.81982 16.6916 6.81982 16.7016L6.86982 17.2616C6.86982 17.3216 6.91982 17.3616 6.97982 17.3616H7.96982H7.95982Z" fill="#1F3A6A"/>
<path d="M5.50967 16.3402H6.40967C6.40967 16.3402 6.49967 16.3002 6.49967 16.2602L6.46967 15.8302C6.46967 15.7802 6.41967 15.7402 6.36967 15.7402H5.53967C5.48967 15.7402 5.44967 15.7802 5.43967 15.8302L5.40967 16.2602C5.40967 16.2602 5.43967 16.3502 5.48967 16.3502L5.50967 16.3402Z" fill="#1F3A6A"/>
<path d="M7.76998 16.3407C7.76998 16.3407 7.83998 16.3107 7.83998 16.2707C7.83998 16.2707 7.83998 16.2607 7.83998 16.2507L7.74998 15.8107C7.73998 15.7607 7.68998 15.7207 7.63998 15.7207H6.80998C6.80998 15.7207 6.72998 15.7607 6.72998 15.8007L6.76998 16.2307C6.76998 16.2807 6.81998 16.3207 6.86998 16.3207H7.76998V16.3407Z" fill="#1F3A6A"/>
<path d="M5.10006 15.7305H4.26006C4.21006 15.7305 4.16006 15.7705 4.15006 15.8205L4.06006 16.2605C4.06006 16.2605 4.07006 16.3405 4.11006 16.3505C4.11006 16.3505 4.12006 16.3505 4.13006 16.3505H5.04006C5.09006 16.3505 5.13006 16.3105 5.14006 16.2605L5.18006 15.8305C5.18006 15.8305 5.15006 15.7405 5.11006 15.7405L5.10006 15.7305Z" fill="#1F3A6A"/>
<path d="M8.17992 18.6009C8.23992 18.6009 8.27992 18.5609 8.28992 18.5009C8.28992 18.4909 8.28992 18.4809 8.28992 18.4709L8.14992 17.7609C8.12992 17.6909 8.06992 17.6409 7.99992 17.6309H7.03992C6.97992 17.6309 6.91992 17.6809 6.91992 17.7509C6.91992 17.7509 6.91992 17.7509 6.91992 17.7609L6.97992 18.4609C6.97992 18.5309 7.04992 18.5909 7.11992 18.5909H8.19992L8.17992 18.6009Z" fill="#1F3A6A"/>
<path d="M6.47973 18.9102H5.42973C5.33973 18.9102 5.26973 18.9802 5.26973 19.0702L5.21973 19.9602C5.21973 20.0402 5.26973 20.1102 5.34973 20.1102C5.34973 20.1102 5.34973 20.1102 5.35973 20.1102H6.54973C6.62973 20.1102 6.69973 20.0502 6.69973 19.9702C6.69973 19.9702 6.69973 19.9702 6.69973 19.9602L6.64973 19.0702C6.64973 18.9802 6.56973 18.9202 6.48973 18.9102H6.47973Z" fill="#1F3A6A"/>
<path d="M4.73984 18.9102H3.67984C3.58984 18.9102 3.50984 18.9802 3.48984 19.0602L3.30984 19.9602C3.28984 20.0302 3.32984 20.0902 3.39984 20.1102C3.40984 20.1102 3.41984 20.1102 3.43984 20.1102H4.62984C4.71984 20.1102 4.78984 20.0402 4.79984 19.9602L4.87984 19.0702C4.87984 18.9902 4.82984 18.9202 4.74984 18.9202C4.74984 18.9202 4.73984 18.9202 4.72984 18.9202L4.73984 18.9102Z" fill="#1F3A6A"/>
<path d="M8.40002 19.0699C8.38002 18.9799 8.30002 18.9199 8.21002 18.9199H7.16002C7.08002 18.9199 7.02002 18.9799 7.02002 19.0599C7.02002 19.0599 7.02002 19.0699 7.02002 19.0799L7.10002 19.9699C7.10002 20.0599 7.18002 20.1199 7.27002 20.1199H8.46002C8.53002 20.1199 8.58002 20.0699 8.59002 19.9999C8.59002 19.9899 8.59002 19.9799 8.59002 19.9599L8.41002 19.0599L8.40002 19.0699Z" fill="#1F3A6A"/>
<path d="M21.7198 15.0508H20.7098V20.7808H21.7198V15.0508ZM18.4498 17.9508C18.4498 18.3808 18.3398 18.8108 18.1198 19.1808C17.7398 19.9108 16.8398 20.1908 16.1098 19.8108C15.9798 19.7408 15.8698 19.6608 15.7698 19.5608C15.3898 19.1008 15.1998 18.5008 15.2498 17.9108C15.1998 17.2608 15.4398 16.6308 15.9198 16.1808C16.1598 15.9508 16.4798 15.8208 16.8198 15.8108C17.1698 15.8108 17.4998 15.9408 17.7698 16.1608C18.4998 16.7708 18.4698 17.8908 18.4698 17.9508M18.9798 22.3808C19.4098 21.8208 19.4398 21.2308 19.4698 20.0308V15.0508H18.4998V15.9408C18.3698 15.7408 18.2198 15.5608 18.0398 15.4008C17.6498 15.0908 17.1698 14.9208 16.6698 14.9408C15.8998 14.9408 15.1798 15.3208 14.7398 15.9608C14.3498 16.5508 14.1498 17.2408 14.1698 17.9508C14.1698 18.3608 14.2198 18.7708 14.3398 19.1608C14.4798 19.6508 14.7598 20.0908 15.1398 20.4208C15.5698 20.7708 16.1098 20.9408 16.6598 20.9008C17.1598 20.8808 17.6398 20.7108 18.0298 20.4008C18.1798 20.2708 18.3098 20.1308 18.4198 19.9708V20.7608C18.3998 21.0208 18.3598 21.2808 18.2798 21.5208C18.2298 21.6808 18.1398 21.8308 18.0198 21.9508C17.6898 22.3108 17.2098 22.5008 16.7198 22.4608C16.2198 22.4608 15.7298 22.3808 15.2598 22.2208C15.0598 22.1508 14.8698 22.0508 14.6898 21.9408L14.5798 22.9408C14.7398 23.0008 14.8598 23.0508 15.0298 23.1108C15.5498 23.2708 16.0998 23.3508 16.6398 23.3508C17.2098 23.3708 17.7698 23.2408 18.2798 22.9808C18.5498 22.8308 18.7898 22.6308 18.9698 22.3808M20.6598 13.6808H21.7598V12.5508H20.6598V13.6808ZM25.4798 15.8908C25.7198 15.8908 25.9498 15.9408 26.1698 16.0308V15.0208C26.1198 15.0208 25.8098 14.9708 25.5498 14.9708C25.0298 14.9508 24.5398 15.1608 24.1998 15.5608C24.0998 15.7008 23.9998 15.8408 23.9198 15.9908L23.8698 15.0308H22.9098C22.9398 15.7508 22.9698 16.2508 22.9698 16.9608C22.9698 17.7908 22.9498 18.3808 22.9498 19.2008V20.7608H23.9898V17.9608C24.0198 17.4208 24.0498 16.7008 24.6098 16.2108C24.8498 16.0008 25.1598 15.8808 25.4798 15.8908ZM30.7498 17.8508C30.7498 18.4808 30.5598 19.3908 29.7898 19.8308C29.3298 20.0808 28.7798 20.1008 28.2998 19.8808C28.1998 19.8308 28.1098 19.7708 28.0198 19.7008C27.7798 19.5008 27.5898 19.2408 27.4798 18.9508C27.3398 18.6008 27.2698 18.2208 27.2898 17.8408C27.2798 17.2208 27.5298 16.6208 27.9798 16.1908C28.2898 15.9208 28.6898 15.7808 29.1098 15.7808C29.7798 15.7808 30.3798 16.2208 30.5798 16.8708C30.6898 17.1908 30.7498 17.5208 30.7498 17.8608M30.9698 20.1508C31.5498 19.5208 31.8498 18.6908 31.8098 17.8408C31.8398 16.7608 31.2798 15.7608 30.3398 15.2208C28.9898 14.6008 27.3998 15.0608 26.5898 16.3008C26.3198 16.8008 26.1898 17.3608 26.1898 17.9308C26.1298 18.7908 26.4598 19.6308 27.0798 20.2308C27.1898 20.3308 27.3198 20.4208 27.4398 20.5008C27.8998 20.7808 28.4398 20.9208 28.9798 20.8908C29.3998 20.9008 29.8098 20.8308 30.1898 20.6708C30.4798 20.5508 30.7398 20.3708 30.9598 20.1508" fill="#1F3A6A"/>
<path d="M32.6896 16.2714C32.7196 17.3814 32.7197 18.1714 32.7197 19.2814C32.7197 20.6714 32.6996 22.0614 32.6896 23.4414H33.7096V20.0014C33.8096 20.1314 33.9196 20.2514 34.0296 20.3614C34.4196 20.7014 34.9196 20.8914 35.4396 20.8814C36.1296 20.8814 36.7796 20.6014 37.2496 20.0914C37.7996 19.4414 38.0796 18.6014 38.0296 17.7414C38.0296 17.3114 37.9496 16.8914 37.7996 16.4814C37.4696 15.5114 36.5496 14.8714 35.5196 14.9014C34.9496 14.9014 34.4097 15.1014 33.9897 15.4914C33.8497 15.6114 33.7396 15.7514 33.6396 15.9114L33.5996 15.0414H32.6396C32.6696 15.5014 32.6696 15.8114 32.6896 16.2614V16.2714ZM33.6996 17.8714C33.6996 17.6014 33.7396 17.3314 33.8196 17.0714C33.9996 16.3514 34.6296 15.8414 35.3696 15.8214C35.9796 15.8214 36.5296 16.2014 36.7596 16.7614C36.9196 17.1314 36.9997 17.5314 36.9697 17.9314C36.9697 18.2314 36.9196 18.5314 36.8196 18.8114C36.6396 19.4914 36.0196 19.9714 35.3196 19.9814C34.5996 19.9514 33.9897 19.4514 33.8097 18.7514C33.7297 18.4614 33.6896 18.1614 33.6896 17.8614L33.6996 17.8714Z" fill="#1F3A6A"/>
<path d="M48.5996 15.051L47.3196 18.151L46.7397 19.651L46.6996 19.731C46.5496 19.301 46.3496 18.761 46.1696 18.251L44.9897 15.041H43.8896L46.1896 20.771L45.0696 23.431H46.0996L49.6896 15.041H48.5996V15.051Z" fill="#1F3A6A"/>
<path d="M43.1396 15.7909C42.8396 15.2909 42.0696 14.9409 41.1696 14.9409C40.5396 14.9109 39.9096 15.0809 39.3696 15.4209V16.3209C39.8496 16.0009 40.3996 15.8209 40.9696 15.7809C41.5396 15.7509 42.0796 16.0509 42.3496 16.5509C42.4296 16.7909 42.4596 17.0509 42.4496 17.3109C42.1796 17.3009 41.8996 17.2909 41.6296 17.2909C40.9696 17.2509 40.3196 17.3609 39.7096 17.5909C39.0796 17.8309 38.6596 18.4509 38.6696 19.1309C38.6696 19.6409 38.8696 20.1209 39.2496 20.4609C39.5896 20.7209 40.0096 20.8609 40.4396 20.8609C40.9696 20.8909 41.4896 20.7509 41.9396 20.4809C42.1596 20.3009 42.3696 20.1009 42.5496 19.8709V20.7809H43.4296V17.0809C43.4496 16.6309 43.3496 16.1909 43.1396 15.7909ZM42.4896 18.2009C42.4996 18.4609 42.4696 18.7209 42.3996 18.9709C42.3496 19.1509 42.2596 19.3109 42.1396 19.4609C41.8296 19.8509 41.3496 20.0809 40.8396 20.0709C40.3696 20.0709 39.7396 19.8209 39.7396 19.1509C39.7396 18.4809 40.5196 18.1309 40.9496 18.0609C41.1996 18.0209 41.4496 18.0109 41.7096 18.0109C41.9696 18.0109 42.2196 18.0109 42.4796 18.0409V18.2009H42.4896Z" fill="#1F3A6A"/>
</svg>
