<svg width="106" height="51" viewBox="0 0 106 51" fill="none" xmlns="http://www.w3.org/2000/svg">
<path fill-rule="evenodd" clip-rule="evenodd" d="M85.7675 13.4674L88.9239 24.1363H82.7043L85.7675 13.4674ZM81.2575 28.9306H90.2649L91.5501 33.1843H98.3737L90.7605 8.57227H80.5982L73.0773 33.1843H80.0473L81.2575 28.9306ZM61.4277 21.1212H65.6276C66.9592 21.074 67.7691 20.9734 68.0607 20.8157C68.4588 20.6005 68.726 20.1696 68.859 19.5232C68.9441 19.0929 68.9866 18.4533 68.9866 17.6035C68.9866 16.5626 68.9022 15.7911 68.7324 15.2871C68.4901 14.5812 67.9097 14.1512 66.9905 13.9951C66.8089 13.9715 66.3737 13.9589 65.6844 13.9589H61.4277V21.1212ZM54.6925 33.1845V8.57245H67.2438C68.9654 8.57245 70.2791 8.7107 71.1816 8.98689C73.246 9.62288 74.6311 10.925 75.3405 12.893C75.7067 13.9258 75.8898 15.4809 75.8898 17.5573C75.8898 20.0538 75.6867 21.848 75.2849 22.9402C74.4799 25.1002 72.8227 26.3444 70.3204 26.6669C70.0261 26.7153 68.774 26.7586 66.5642 26.7932L65.4457 26.83H61.4293V33.1845H54.6925ZM20.8646 16.4235H27.132C27.1723 15.8797 27.1927 15.4731 27.1927 15.201C27.1927 11.8846 25.8292 9.86645 23.1018 9.14595C21.9843 8.85125 20.1097 8.70255 17.4792 8.70255C15.8084 8.70255 14.2894 8.76257 12.9201 8.87991C11.2745 9.0101 9.9225 9.44574 8.866 10.1877C8.14477 10.6711 7.62214 11.3779 7.29781 12.3089C6.97378 13.2396 6.81162 14.477 6.81162 16.0201C6.81162 18.0463 7.11165 19.561 7.71142 20.5622C8.39378 21.7404 9.76125 22.5165 11.8132 22.8939C12.5924 23.025 13.9839 23.1602 15.987 23.3009C18.4814 23.466 19.8789 23.5962 20.1792 23.6896C20.9825 23.9261 21.3848 24.5854 21.3848 25.669C21.3848 26.1527 21.3372 26.548 21.2412 26.8535C21.0605 27.3497 20.6824 27.7083 20.1064 27.9311C19.7826 28.0499 19.0322 28.109 17.8564 28.109H15.5524C14.939 28.0959 14.4172 27.9851 13.9851 27.774C13.3617 27.468 13.0492 26.7806 13.0492 25.712L13.0489 25.5354C13.0488 25.4414 13.0486 25.3296 13.0486 25.2002H6.78125C6.78125 27.2028 6.93036 28.6334 7.2316 29.4924C7.77246 31.0355 8.88999 32.0603 10.5851 32.5661C11.9663 32.979 14.4124 33.1844 17.9223 33.1844C20.025 33.1844 21.5883 33.0898 22.6102 32.9005C25.0493 32.4529 26.6169 31.3872 27.3148 29.6999C27.6998 28.7803 27.8921 27.3291 27.8921 25.3477C27.8921 24.488 27.8501 23.7144 27.7657 23.0306C27.6215 21.8876 27.1693 20.962 26.411 20.2538C25.4474 19.346 23.8944 18.7859 21.7523 18.5736C21.0775 18.5028 19.3857 18.3783 16.6769 18.2016L15.413 18.1138C14.8582 18.0785 14.4133 17.9606 14.0765 17.7599C13.6064 17.4772 13.372 16.8872 13.372 15.9911C13.372 15.0013 13.6368 14.3584 14.1658 14.0628C14.6951 13.7681 15.7798 13.6209 17.4161 13.6209C19.1009 13.6209 20.1303 13.8768 20.5033 14.388C20.7438 14.7334 20.8646 15.4121 20.8646 16.4235ZM6.7998 38.0638L7.73939 37.9706C7.79587 38.2821 7.91066 38.5105 8.08345 38.6568C8.25655 38.8028 8.48977 38.8757 8.78343 38.8757C9.0944 38.8757 9.32853 38.8109 9.48645 38.6813C9.64406 38.5514 9.72271 38.3997 9.72271 38.2259C9.72271 38.1146 9.68961 38.0199 9.62371 37.9414C9.55751 37.8632 9.44211 37.7954 9.27721 37.7371C9.16424 37.6992 8.90733 37.6311 8.50617 37.5332C7.98962 37.4078 7.62763 37.2531 7.41931 37.0695C7.12656 36.8115 6.98019 36.4968 6.98019 36.1254C6.98019 35.8868 7.04912 35.6631 7.1873 35.4553C7.32517 35.2472 7.52438 35.0887 7.78403 34.98C8.04397 34.8713 8.35767 34.8167 8.72513 34.8167C9.32519 34.8167 9.77676 34.9465 10.0801 35.2057C10.3835 35.4652 10.5426 35.8112 10.5578 36.2442L9.59 36.2815C9.5487 36.0397 9.46003 35.8659 9.32398 35.7596C9.18823 35.6536 8.98447 35.6004 8.71267 35.6004C8.43208 35.6004 8.21282 35.6572 8.054 35.7706C7.95166 35.8432 7.90064 35.9405 7.90064 36.0624C7.90064 36.1737 7.94862 36.2687 8.04428 36.3481C8.16575 36.4484 8.46123 36.5532 8.93072 36.6616C9.3999 36.7703 9.747 36.8829 9.97203 36.9999C10.1968 37.1167 10.3729 37.2764 10.5001 37.4789C10.6271 37.6819 10.6908 37.9321 10.6908 38.2301C10.6908 38.5006 10.6146 38.7535 10.4622 38.9894C10.3097 39.2253 10.0944 39.4006 9.81594 39.5152C9.53746 39.6299 9.19036 39.6875 8.77462 39.6875C8.1697 39.6875 7.70507 39.5493 7.38074 39.2728C7.05672 38.9963 6.86297 38.5935 6.7998 38.0638ZM11.6973 36.2H12.6178V39.6057H11.6973V36.2ZM11.6973 34.9034H12.6177V35.7341H11.6973V34.9034ZM15.9974 39.6023H16.9179V37.4814C16.9179 37.218 16.9009 37.0156 16.8672 36.8744C16.8335 36.7328 16.7736 36.6065 16.6877 36.4952C16.6018 36.3838 16.4751 36.2921 16.3078 36.2205C16.1405 36.1488 15.9555 36.1127 15.7533 36.1127C15.2947 36.1127 14.9139 36.3074 14.6118 36.697V36.1966H13.7578V39.6023H14.6783V38.0565C14.6783 37.6749 14.7013 37.4136 14.7481 37.2724C14.7946 37.1309 14.8805 37.0174 15.0062 36.9317C15.132 36.846 15.2738 36.803 15.432 36.803C15.5553 36.803 15.661 36.8332 15.7487 36.8929C15.8365 36.9529 15.8997 37.0374 15.9388 37.1455C15.9777 37.2536 15.9974 37.4919 15.9974 37.8603V39.6023ZM18.7791 37.8344C18.7791 38.1969 18.8495 38.4624 18.991 38.6305C19.1323 38.7992 19.3066 38.8831 19.514 38.8831C19.736 38.8831 19.9236 38.7968 20.077 38.6242C20.2301 38.4516 20.3069 38.1957 20.3069 37.8568C20.3069 37.5033 20.2334 37.2405 20.0867 37.0688C19.9397 36.8975 19.7545 36.8115 19.5301 36.8115C19.312 36.8115 19.1323 36.896 18.991 37.0641C18.8495 37.2328 18.7791 37.4893 18.7791 37.8344ZM17.9576 39.8311L19.0014 39.9431C19.019 40.07 19.0594 40.1572 19.1226 40.205C19.21 40.273 19.3476 40.3071 19.5353 40.3071C19.7755 40.3071 19.9555 40.2718 20.0758 40.2014C20.1563 40.1542 20.2176 40.0784 20.2592 39.9736C20.2875 39.8983 20.3017 39.7607 20.3017 39.5594L20.3045 39.0623C20.033 39.4256 19.6886 39.6072 19.2708 39.6072C18.8046 39.6072 18.4359 39.4137 18.1638 39.0258C17.9504 38.7195 17.8438 38.3379 17.8438 37.8816C17.8438 37.3095 17.9835 36.8727 18.2631 36.5705C18.5428 36.2687 18.8909 36.1176 19.3066 36.1176C19.7354 36.1176 20.0892 36.303 20.3679 36.6733V36.2015H21.2222V39.2629C21.2222 39.6657 21.1885 39.9667 21.1208 40.1655C21.0533 40.365 20.9586 40.5212 20.8365 40.6346C20.7144 40.7481 20.5517 40.8371 20.3479 40.9013C20.1441 40.9655 19.8866 40.9977 19.5753 40.9977C18.9871 40.9977 18.5699 40.898 18.3236 40.6988C18.0773 40.4997 17.9543 40.2471 17.9543 39.941C17.9543 39.9108 17.9555 39.8744 17.9576 39.8311ZM23.2447 34.9034H22.3242V39.6062H23.2447V34.9034ZM26.4488 37.6233C26.4425 37.3581 26.3735 37.1569 26.242 37.0186C26.1109 36.8807 25.9511 36.8114 25.7628 36.8114C25.5615 36.8114 25.3951 36.8846 25.2639 37.03C25.1324 37.1754 25.068 37.3733 25.0701 37.6233H26.4488ZM26.402 38.5344L27.3131 38.6837C27.1952 39.0119 27.0091 39.2621 26.7549 39.4338C26.5007 39.6058 26.1825 39.6915 25.8007 39.6915C25.1961 39.6915 24.7488 39.4971 24.4588 39.1086C24.2295 38.7975 24.115 38.4049 24.115 37.9301C24.115 37.364 24.2653 36.92 24.5666 36.599C24.8675 36.278 25.248 36.1177 25.7081 36.1177C26.2253 36.1177 26.6331 36.2861 26.9319 36.6226C27.2308 36.9597 27.3735 37.4754 27.3604 38.1705H25.0546C25.061 38.4386 25.1357 38.647 25.2784 38.7963C25.4211 38.945 25.5991 39.0197 25.8123 39.0197C25.9571 39.0197 26.0792 38.9814 26.1779 38.9047C26.2766 38.8283 26.3516 38.7046 26.402 38.5344ZM30.3721 34.9034V39.6062H34.0068V38.8132H31.3402V37.5349H33.7317V36.7419H31.3402V35.6968H33.9121V34.9034H30.3721ZM37.2915 39.6052V39.0952C37.1648 39.277 36.9987 39.4215 36.7925 39.5287C36.5863 39.6356 36.3689 39.6894 36.1399 39.6894C35.9064 39.6894 35.6975 39.6389 35.5119 39.5383C35.3267 39.4377 35.1925 39.2961 35.1096 39.1143C35.0267 38.9321 34.9854 38.6804 34.9854 38.3592V36.1995H35.9058V37.7659C35.9058 38.2454 35.9225 38.5392 35.9565 38.647C35.9902 38.7557 36.0516 38.8411 36.1408 38.9044C36.2301 38.9674 36.3431 38.9987 36.4804 38.9987C36.6371 38.9987 36.7777 38.9569 36.9016 38.8721C37.0258 38.7876 37.1105 38.6828 37.1563 38.5574C37.2019 38.4323 37.225 38.1257 37.225 37.6378V36.1995H38.1454V39.6052H37.2915ZM39.2461 39.6023H40.1665V38.5492C40.1665 37.9693 40.1924 37.588 40.2437 37.4062C40.295 37.2243 40.3655 37.0986 40.455 37.0287C40.5446 36.9595 40.6536 36.9245 40.7827 36.9245C40.9157 36.9245 41.0603 36.9738 41.2151 37.072L41.4951 36.2835C41.3014 36.1697 41.0997 36.1127 40.8908 36.1127C40.7426 36.1127 40.6105 36.1503 40.4939 36.2252C40.3773 36.3005 40.2461 36.4522 40.1 36.6809V36.1966H39.2461V39.6023ZM42.8105 37.9044C42.8105 38.2439 42.8922 38.5034 43.0559 38.6837C43.2196 38.8641 43.4212 38.9542 43.6615 38.9542C43.9014 38.9542 44.1027 38.8641 44.2652 38.6837C44.4276 38.5034 44.509 38.2415 44.509 37.8981C44.509 37.5634 44.4276 37.3054 44.2652 37.1254C44.1027 36.945 43.9014 36.8549 43.6615 36.8549C43.4212 36.8549 43.2196 36.945 43.0559 37.1254C42.8922 37.3054 42.8105 37.5655 42.8105 37.9044ZM41.876 37.8559C41.876 37.5556 41.951 37.2647 42.1013 36.9835C42.2513 36.7025 42.4639 36.4878 42.7393 36.3397C43.0145 36.1916 43.3221 36.1176 43.6616 36.1176C44.1861 36.1176 44.6158 36.2854 44.951 36.6213C45.286 36.9572 45.4536 37.3818 45.4536 37.8948C45.4536 38.4119 45.2842 38.841 44.9459 39.1811C44.6076 39.5212 44.1815 39.6914 43.668 39.6914C43.3503 39.6914 43.0473 39.6203 42.7591 39.4791C42.4706 39.3372 42.2513 39.1297 42.1013 38.8559C41.951 38.5821 41.876 38.2492 41.876 37.8559ZM49.4139 37.042V35.6984H49.8792C50.2266 35.6984 50.4574 35.7091 50.5724 35.7306C50.7285 35.7587 50.8576 35.8286 50.9596 35.9405C51.0617 36.0525 51.1127 36.1946 51.1127 36.3669C51.1127 36.507 51.0763 36.6297 51.0037 36.7351C50.9311 36.8408 50.8306 36.9184 50.7027 36.968C50.5746 37.0175 50.3207 37.042 49.9411 37.042H49.4139ZM48.449 34.9035V39.6062H49.4169V37.8335H50.0461C50.4825 37.8335 50.8159 37.8111 51.0464 37.766C51.2159 37.7296 51.3826 37.6556 51.5466 37.543C51.7105 37.4307 51.846 37.2761 51.9523 37.0796C52.0589 36.8822 52.112 36.6398 52.112 36.351C52.112 35.9766 52.0197 35.6711 51.8348 35.435C51.6498 35.1985 51.4205 35.0447 51.1466 34.9742C50.9684 34.9274 50.5854 34.9035 49.9984 34.9035H48.449ZM55.0011 37.9774C54.8836 38.0162 54.698 38.0622 54.4442 38.116C54.1903 38.1694 54.0242 38.2223 53.9464 38.2736C53.8268 38.3575 53.7676 38.4638 53.7676 38.5925C53.7676 38.7194 53.815 38.8287 53.9103 38.9213C54.006 39.0135 54.1274 39.0598 54.2753 39.0598C54.4402 39.0598 54.5972 39.0061 54.7472 38.8989C54.8578 38.817 54.9307 38.7173 54.9653 38.5991C54.989 38.5217 55.0011 38.3745 55.0011 38.1575V37.9774ZM53.7626 37.2373L52.9368 37.088C53.0304 36.758 53.1913 36.5141 53.4197 36.3555C53.6484 36.197 53.9879 36.1176 54.4382 36.1176C54.8473 36.1176 55.1522 36.1653 55.3523 36.2603C55.5524 36.3561 55.6936 36.4771 55.775 36.6237C55.8567 36.7703 55.8977 37.0399 55.8977 37.4319L55.8883 38.486C55.8883 38.7857 55.9029 39.0073 55.932 39.1494C55.9615 39.2918 56.0164 39.4444 56.0969 39.6072H55.1859C55.1616 39.5483 55.1324 39.4608 55.0975 39.345C55.0823 39.2921 55.0714 39.2575 55.0653 39.2405C54.9086 39.3907 54.7413 39.5035 54.563 39.5788C54.3848 39.6537 54.195 39.6914 53.9927 39.6914C53.6362 39.6914 53.355 39.5958 53.1497 39.4053C52.9444 39.2145 52.8418 38.9733 52.8418 38.6818C52.8418 38.4892 52.8886 38.3173 52.9818 38.1662C53.0756 38.0151 53.2068 37.8992 53.3754 37.8189C53.5442 37.7389 53.7875 37.6681 54.1051 37.6081C54.5336 37.529 54.8306 37.4552 54.9961 37.3866V37.2955C54.9961 37.1199 54.9524 36.9948 54.8649 36.9199C54.7771 36.8452 54.6122 36.8079 54.3693 36.8079C54.2053 36.8079 54.0775 36.8398 53.9855 36.9031C53.8934 36.9667 53.819 37.0781 53.7626 37.2373ZM57.5388 36.1995H56.5615L57.8822 39.6147C57.8276 39.807 57.7489 39.9656 57.646 40.0904C57.543 40.2146 57.3848 40.277 57.1701 40.277C57.0544 40.277 56.9238 40.2633 56.7796 40.2349L56.8652 40.9411C57.035 40.9775 57.2087 40.9957 57.3851 40.9957C57.5594 40.9957 57.7158 40.9775 57.8543 40.9408C57.9928 40.9046 58.1088 40.8533 58.2038 40.7879C58.2986 40.7228 58.3827 40.6374 58.4556 40.5326C58.5284 40.4275 58.6053 40.2755 58.6861 40.076L60.1297 36.1995H59.1807L58.3693 38.6174L57.5388 36.1995ZM60.8495 36.1966H61.6941V36.6618C61.9974 36.2958 62.3585 36.1127 62.7776 36.1127C62.9999 36.1127 63.193 36.1575 63.3567 36.2474C63.5204 36.3376 63.6546 36.4737 63.7591 36.6556C63.9115 36.4737 64.0764 36.3376 64.2526 36.2474C64.4293 36.1575 64.6173 36.1127 64.8177 36.1127C65.0728 36.1127 65.2884 36.1635 65.4648 36.2656C65.6413 36.3668 65.7734 36.5164 65.8605 36.7138C65.9234 36.8592 65.955 37.0948 65.955 37.4205V39.6023H65.0345V37.6517C65.0345 37.3131 65.003 37.0948 64.9401 36.9963C64.8551 36.8673 64.7248 36.8031 64.549 36.8031C64.4205 36.8031 64.2996 36.8416 64.1867 36.9189C64.0737 36.9963 63.9923 37.1091 63.9425 37.2581C63.8924 37.4068 63.8672 37.6421 63.8672 37.9634V39.6023H62.9467V37.7323C62.9467 37.3996 62.9306 37.1859 62.8979 37.0891C62.8654 36.9927 62.8149 36.921 62.7463 36.8738C62.6777 36.827 62.5851 36.8031 62.4675 36.8031C62.3263 36.8031 62.1991 36.8407 62.0861 36.9156C61.9732 36.9906 61.8924 37.099 61.8432 37.2402C61.7943 37.3817 61.77 37.6161 61.77 37.944V39.6023H60.8495V36.1966ZM68.9216 37.0186C69.0534 37.1569 69.1221 37.3581 69.1287 37.6233H67.75C67.7479 37.3733 67.8123 37.1754 67.9438 37.03C68.0747 36.8846 68.2414 36.8114 68.4424 36.8114C68.6307 36.8114 68.7908 36.8807 68.9216 37.0186ZM69.9835 38.6836L69.0725 38.5343C69.0221 38.7045 68.9473 38.8281 68.848 38.9046C68.7493 38.9813 68.6276 39.0195 68.4827 39.0195C68.2692 39.0195 68.0913 38.9449 67.9489 38.7962C67.8061 38.6469 67.7314 38.4385 67.7247 38.1704H70.0309C70.0439 37.4752 69.9009 36.9596 69.6021 36.6225C69.3033 36.286 68.8957 36.1176 68.3786 36.1176C67.9182 36.1176 67.538 36.2779 67.2367 36.5989C66.9361 36.9199 66.7852 37.3639 66.7852 37.93C66.7852 38.4047 66.8996 38.7974 67.1289 39.1085C67.4192 39.497 67.8666 39.6914 68.4709 39.6914C68.8529 39.6914 69.1709 39.6057 69.4253 39.4337C69.6795 39.262 69.8654 39.0118 69.9835 38.6836ZM74.1279 39.6023H73.2075V37.8604C73.2075 37.4919 73.1878 37.2536 73.1492 37.1455C73.11 37.0375 73.0465 36.953 72.9588 36.8929C72.871 36.8332 72.7653 36.8031 72.642 36.8031C72.4841 36.8031 72.342 36.8461 72.2166 36.9318C72.0909 37.0175 72.0049 37.1309 71.9582 37.2724C71.9117 37.4137 71.8883 37.6749 71.8883 38.0565V39.6023H70.9679V36.1966H71.8218V36.6971C72.1243 36.3074 72.5048 36.1127 72.9633 36.1127C73.1656 36.1127 73.3508 36.1489 73.5178 36.2205C73.6852 36.2922 73.8121 36.3838 73.8981 36.4952C73.984 36.6066 74.0435 36.7329 74.0772 36.8744C74.1112 37.0157 74.1279 37.2181 74.1279 37.4815V39.6023ZM76.8434 36.9165V36.1981H76.2169V34.9852L75.2965 35.517V36.1981H74.8789V36.9165H75.2965V38.4053C75.2965 38.7245 75.3059 38.9368 75.3256 39.0419C75.3493 39.1897 75.3918 39.307 75.4535 39.3936C75.5154 39.4805 75.6123 39.5515 75.7441 39.6059C75.8762 39.6605 76.0241 39.688 76.189 39.688C76.4571 39.688 76.6973 39.6429 76.9096 39.553L76.8291 38.8549C76.6706 38.9126 76.5504 38.9415 76.4665 38.9415C76.4067 38.9415 76.3563 38.9263 76.3144 38.8964C76.2728 38.8663 76.2461 38.8284 76.2345 38.7821C76.2227 38.7361 76.2169 38.5734 76.2169 38.2945V36.9165H76.8434ZM77.3662 38.6414L78.2867 38.5014C78.3258 38.6755 78.4051 38.8074 78.5244 38.8979C78.6441 38.9884 78.8111 39.0332 79.0261 39.0332C79.2633 39.0332 79.4416 38.9902 79.5609 38.9042C79.6414 38.8436 79.6818 38.7632 79.6818 38.6617C79.6818 38.593 79.6596 38.5357 79.6159 38.4909C79.5697 38.4476 79.4671 38.4079 79.3073 38.3712C78.5636 38.2097 78.092 38.0625 77.8934 37.9296C77.6177 37.7454 77.4801 37.4889 77.4801 37.1613C77.4801 36.8651 77.5988 36.6164 77.8372 36.4151C78.0759 36.2136 78.4455 36.1127 78.9463 36.1127C79.423 36.1127 79.7771 36.1882 80.0091 36.339C80.2408 36.4901 80.4006 36.7131 80.4883 37.0084L79.6247 37.167C79.5873 37.0347 79.5163 36.9329 79.4118 36.8624C79.307 36.7917 79.1579 36.7564 78.9645 36.7564C78.7203 36.7564 78.5451 36.7896 78.4397 36.8568C78.369 36.9039 78.334 36.9651 78.334 37.0404C78.334 37.1052 78.3644 37.1601 78.4257 37.2055C78.5087 37.2655 78.7956 37.3506 79.2861 37.4605C79.7765 37.5704 80.1191 37.7047 80.3137 37.8639C80.5056 38.0251 80.6022 38.25 80.6022 38.5381C80.6022 38.8519 80.4692 39.1218 80.2041 39.3476C79.9384 39.5736 79.546 39.6865 79.0261 39.6865C78.5545 39.6865 78.181 39.5924 77.9058 39.4052C77.6307 39.2174 77.4509 38.9633 77.3662 38.6414ZM85.5377 36.002L86.2064 37.7469H84.8914L85.5377 36.002ZM86.9364 39.6062H87.9787L86.0473 34.9035H85.0293L83.1766 39.6062H84.2009L84.5951 38.5427H86.5228L86.9364 39.6062ZM89.5602 39.6023H88.6398V36.1966H89.4937V36.6809C89.6398 36.4522 89.7707 36.3005 89.8876 36.2253C90.0039 36.1504 90.136 36.1127 90.2845 36.1127C90.4934 36.1127 90.6948 36.1698 90.8888 36.2835L90.6088 37.0721C90.4536 36.9739 90.3094 36.9246 90.1764 36.9246C90.047 36.9246 89.938 36.9595 89.8484 37.0288C89.7588 37.0987 89.6884 37.2244 89.6374 37.4062C89.5857 37.5881 89.5602 37.9694 89.5602 38.5492V39.6023ZM93.338 37.0187C93.4692 37.1569 93.5381 37.3582 93.5448 37.6233H92.1661C92.1637 37.3734 92.2284 37.1754 92.3599 37.03C92.491 36.8846 92.6572 36.8114 92.8588 36.8114C93.0468 36.8114 93.2065 36.8807 93.338 37.0187ZM94.4014 38.6837L93.4903 38.5344C93.4396 38.7046 93.3649 38.8283 93.2662 38.9047C93.1672 38.9814 93.0454 39.0197 92.9003 39.0197C92.6874 39.0197 92.5095 38.945 92.3664 38.7963C92.224 38.647 92.1493 38.4386 92.1426 38.1705H94.4487C94.4618 37.4754 94.3188 36.9597 94.0202 36.6226C93.7211 36.2861 93.3133 36.1177 92.7964 36.1177C92.3364 36.1177 91.9555 36.278 91.6549 36.599C91.3537 36.92 91.203 37.364 91.203 37.9301C91.203 38.4049 91.3175 38.7975 91.5468 39.1086C91.8368 39.4971 92.2844 39.6915 92.8891 39.6915C93.2708 39.6915 93.589 39.6058 93.8432 39.4338C94.0974 39.2621 94.2835 39.0119 94.4014 38.6837ZM97.3138 37.9774C97.1966 38.0163 97.0108 38.0622 96.7569 38.116C96.503 38.1694 96.3372 38.2223 96.2592 38.2736C96.1395 38.3575 96.0803 38.4638 96.0803 38.5925C96.0803 38.7194 96.1277 38.8287 96.2233 38.9213C96.3187 39.0135 96.4402 39.0598 96.588 39.0598C96.7529 39.0598 96.9099 39.0061 97.06 38.8989C97.1705 38.8171 97.2434 38.7173 97.278 38.5991C97.3017 38.5218 97.3138 38.3746 97.3138 38.1575V37.9774ZM96.0759 37.2373L95.2502 37.088C95.3438 36.7581 95.5047 36.5141 95.7331 36.3556C95.9618 36.197 96.3013 36.1176 96.7516 36.1176C97.1607 36.1176 97.4656 36.1654 97.6657 36.2603C97.8658 36.3562 98.007 36.4771 98.0884 36.6237C98.1701 36.7703 98.2111 37.0399 98.2111 37.432L98.2017 38.486C98.2017 38.7858 98.2163 39.0073 98.2454 39.1494C98.2749 39.2919 98.3298 39.4445 98.41 39.6072H97.4993C97.475 39.5484 97.4461 39.4609 97.4109 39.345C97.396 39.2922 97.3848 39.2575 97.3787 39.2405C97.222 39.3907 97.055 39.5036 96.8767 39.5788C96.6985 39.6538 96.5084 39.6914 96.3061 39.6914C95.9496 39.6914 95.6684 39.5958 95.4631 39.4053C95.2581 39.2145 95.1555 38.9733 95.1555 38.6819C95.1555 38.4893 95.202 38.3173 95.2955 38.1662C95.389 38.0151 95.5202 37.8993 95.6888 37.8189C95.8576 37.7389 96.1008 37.6681 96.4185 37.6081C96.847 37.529 97.144 37.4553 97.3095 37.3866V37.2955C97.3095 37.1199 97.2658 36.9948 97.1783 36.9199C97.0908 36.8452 96.9256 36.8079 96.6827 36.8079C96.5187 36.8079 96.3909 36.8399 96.2988 36.9032C96.2071 36.9668 96.1324 37.0781 96.0759 37.2373Z" fill="white"/>
<path fill-rule="evenodd" clip-rule="evenodd" d="M45.3986 12.028C48.1773 12.028 50.6571 13.2865 52.2873 15.2578L53.7395 12.1964C51.4682 10.0857 48.3771 8.78442 44.9677 8.78442C39.6594 8.78442 35.1185 11.9366 33.2548 16.3987H30.423L28.751 19.9233H32.3939C32.3666 20.2502 32.349 20.5775 32.349 20.9113C32.349 21.3153 32.3702 21.7145 32.4109 22.1089H30.58L28.9083 25.6347H33.3417C35.2585 29.9839 39.7426 33.0373 44.9677 33.0373C47.6009 33.0373 50.0443 32.2616 52.0674 30.9364V26.6155C50.4382 28.4393 48.0552 29.5919 45.3986 29.5919C42.2932 29.5919 39.5616 28.0174 37.971 25.6347H47.2547L48.9265 22.1089H36.605C36.5415 21.6846 36.5075 21.2511 36.5075 20.8095C36.5075 20.5109 36.5233 20.2153 36.5525 19.9233H49.9626L51.6344 16.3987H37.7122C39.2519 13.7861 42.1171 12.028 45.3986 12.028" fill="white"/>
</svg>
