<svg width="130" height="73" viewBox="0 0 130 73" fill="none" xmlns="http://www.w3.org/2000/svg">
<path d="M20.767 29.1296H19.118V29.5793H20.4172L23.6401 42.8706H6.97607L10.1989 29.5793H11.4981V29.1296H9.84917L6.22656 43.4452H24.3896L20.767 29.1296Z" fill="white"/>
<path d="M18.4932 23.3335H12.1224C11.7227 23.3335 11.4229 23.6583 11.4229 24.033V30.2789H12.0225V24.033C12.0225 24.033 12.0724 23.9331 12.1224 23.9331H13.3965V28.4551H12.1973L13.8962 30.2789H16.6694L18.3683 28.4551H17.1691V23.9331H18.4432C18.4432 23.9331 18.5431 23.9831 18.5431 24.033V30.2789H19.1428V24.033C19.1428 23.6333 18.818 23.3335 18.4432 23.3335H18.4932Z" fill="white"/>
<path d="M13.9703 37.9989H16.6435C16.8184 37.9989 16.9433 37.874 16.9433 37.6991L16.8434 35.9503C16.8434 35.7754 16.6935 35.6255 16.4936 35.6255H14.0952C13.9203 35.6255 13.7704 35.7754 13.7454 35.9503L13.6455 37.6991C13.6455 37.874 13.7704 37.9989 13.9203 38.0239L13.9703 37.9989Z" fill="white"/>
<path d="M12.6215 35.6003H10.1981C10.0232 35.6003 9.84829 35.7253 9.82331 35.9251L9.47354 37.699C9.44855 37.8239 9.5235 37.9738 9.64842 37.9988C9.64842 37.9988 9.69839 37.9988 9.72337 37.9988H12.4216C12.5965 37.9988 12.7464 37.8489 12.7714 37.674L12.9213 35.9251C12.9213 35.7752 12.8213 35.6253 12.6714 35.6003C12.6714 35.6003 12.6714 35.6003 12.6464 35.6003H12.6215Z" fill="white"/>
<path d="M14.0706 34.9007H16.5189C16.6439 34.9007 16.7688 34.8008 16.7688 34.6509L16.6938 33.2518C16.6938 33.1019 16.5689 33.002 16.419 33.002H14.1955C14.0456 33.002 13.9207 33.1269 13.9207 33.2518L13.8457 34.6509C13.8457 34.7758 13.9456 34.9007 14.0706 34.9007Z" fill="white"/>
<path d="M12.9218 32.9771H10.6733C10.5234 32.9771 10.3984 33.077 10.3735 33.2269L10.0986 34.626C10.0986 34.626 10.1486 34.8508 10.2485 34.8758H10.2985H12.7719C12.9218 34.8758 13.0467 34.7509 13.0467 34.626L13.1716 33.2269C13.1716 33.102 13.0967 32.9771 12.9717 32.9771C12.9717 32.9771 12.9717 32.9771 12.9468 32.9771H12.9218Z" fill="white"/>
<path d="M20.3169 34.9007C20.3169 34.9007 20.5167 34.8257 20.5417 34.7008V34.6509L20.2669 33.2518C20.2419 33.1019 20.117 33.002 19.9671 33.002H17.7186C17.5937 33.002 17.4937 33.1019 17.4688 33.2268C17.4688 33.2268 17.4688 33.2268 17.4688 33.2518L17.5937 34.6509C17.5937 34.8008 17.7186 34.9007 17.8685 34.9007H20.3419H20.3169Z" fill="white"/>
<path d="M14.1951 32.3525H16.4437C16.4437 32.3525 16.6685 32.2526 16.6685 32.1527L16.5936 31.0784C16.5936 30.9535 16.4686 30.8535 16.3437 30.8535H14.2701C14.1452 30.8535 14.0452 30.9535 14.0203 31.0784L13.9453 32.1527C13.9453 32.1527 14.0203 32.3775 14.1452 32.3775L14.1951 32.3525Z" fill="white"/>
<path d="M19.8434 32.3524C19.8434 32.3524 20.0183 32.2775 20.0183 32.1776C20.0183 32.1776 20.0183 32.1526 20.0183 32.1276L19.7934 31.0283C19.7685 30.9034 19.6435 30.8035 19.5186 30.8035H17.445C17.445 30.8035 17.2451 30.9034 17.2451 31.0033L17.3451 32.0776C17.3451 32.2025 17.47 32.3025 17.5949 32.3025H19.8434V32.3524Z" fill="white"/>
<path d="M13.1725 30.8286H11.0739C10.949 30.8286 10.8241 30.9285 10.7991 31.0535L10.5742 32.1527C10.5742 32.1527 10.5992 32.3526 10.6991 32.3776C10.6991 32.3776 10.7241 32.3776 10.7491 32.3776H13.0226C13.1475 32.3776 13.2475 32.2777 13.2724 32.1527L13.3724 31.0784C13.3724 31.0784 13.2974 30.8536 13.1975 30.8536L13.1725 30.8286Z" fill="white"/>
<path d="M20.8657 37.9988C21.0156 37.9988 21.1155 37.8989 21.1405 37.749C21.1405 37.724 21.1405 37.699 21.1405 37.6741L20.7907 35.9002C20.7408 35.7253 20.5909 35.6004 20.416 35.5754H18.0176C17.8677 35.5754 17.7178 35.7004 17.7178 35.8752C17.7178 35.8752 17.7178 35.8752 17.7178 35.9002L17.8677 37.6491C17.8677 37.824 18.0426 37.9739 18.2174 37.9739H20.9157L20.8657 37.9988Z" fill="white"/>
<path d="M16.6206 38.7732H13.9973C13.7725 38.7732 13.5976 38.9481 13.5976 39.1729L13.4727 41.3965C13.4727 41.5963 13.5976 41.7712 13.7974 41.7712C13.7974 41.7712 13.7974 41.7712 13.8224 41.7712H16.7955C16.9953 41.7712 17.1702 41.6213 17.1702 41.4214C17.1702 41.4214 17.1702 41.4214 17.1702 41.3965L17.0453 39.1729C17.0453 38.9481 16.8454 38.7982 16.6456 38.7732H16.6206Z" fill="white"/>
<path d="M12.271 38.7734H9.6228C9.39795 38.7734 9.19808 38.9483 9.14811 39.1482L8.69841 41.3967C8.64844 41.5716 8.74838 41.7215 8.92326 41.7715C8.94824 41.7715 8.97323 41.7715 9.0232 41.7715H11.9962C12.2211 41.7715 12.396 41.5966 12.421 41.3967L12.6208 39.1732C12.6208 38.9733 12.4959 38.7984 12.296 38.7984C12.296 38.7984 12.271 38.7984 12.2461 38.7984L12.271 38.7734Z" fill="white"/>
<path d="M21.4174 39.1731C21.3675 38.9482 21.1676 38.7983 20.9428 38.7983H18.3195C18.1196 38.7983 17.9697 38.9482 17.9697 39.1481C17.9697 39.1481 17.9697 39.1731 17.9697 39.1981L18.1696 41.4216C18.1696 41.6465 18.3695 41.7964 18.5943 41.7964H21.5674C21.7422 41.7964 21.8672 41.6714 21.8921 41.4966C21.8921 41.4716 21.8921 41.4466 21.8921 41.3966L21.4424 39.1481L21.4174 39.1731Z" fill="white"/>
<path d="M54.6951 29.1297H52.1717V43.4452H54.6951V29.1297ZM46.5255 36.3749C46.5255 37.4492 46.2506 38.5235 45.701 39.4478C44.7516 41.2716 42.5031 41.9712 40.6793 41.0218C40.3545 40.8469 40.0797 40.6471 39.8299 40.3972C38.8805 39.248 38.4058 37.749 38.5307 36.2749C38.4058 34.651 39.0054 33.0771 40.2046 31.9528C40.8042 31.3782 41.6037 31.0534 42.4531 31.0284C43.3276 31.0284 44.152 31.3532 44.8266 31.9028C46.6504 33.4268 46.5754 36.225 46.5754 36.3749M47.8496 47.4426C48.9239 46.0435 48.9988 44.5695 49.0738 41.5714V29.1297H46.6504V31.3532C46.3256 30.8535 45.9508 30.4038 45.5011 30.0041C44.5268 29.2296 43.3276 28.8049 42.0784 28.8548C40.1547 28.8548 38.3558 29.8042 37.2566 31.4032C36.2822 32.8772 35.7825 34.6011 35.8325 36.3749C35.8325 37.3992 35.9574 38.4235 36.2572 39.3979C36.607 40.6221 37.3065 41.7213 38.2559 42.5458C39.3302 43.4202 40.6793 43.8449 42.0534 43.745C43.3026 43.695 44.5018 43.2703 45.4761 42.4958C45.8509 42.171 46.1757 41.8213 46.4505 41.4215V43.3952C46.4005 44.0448 46.3006 44.6944 46.1007 45.294C45.9758 45.6937 45.751 46.0685 45.4512 46.3683C44.6267 47.2677 43.4275 47.7424 42.2033 47.6424C40.9541 47.6424 39.7299 47.4426 38.5557 47.0428C38.056 46.8679 37.5814 46.6181 37.1317 46.3433L36.8568 48.8416C37.2566 48.9915 37.5564 49.1165 37.9811 49.2664C39.2802 49.6661 40.6543 49.866 42.0034 49.866C43.4275 49.9159 44.8266 49.5911 46.1007 48.9416C46.7753 48.5668 47.3749 48.0672 47.8246 47.4426M52.0468 25.7069H54.795V22.8838H52.0468V25.7069ZM64.0888 31.2283C64.6885 31.2283 65.2631 31.3532 65.8127 31.578V29.0547C65.6878 29.0547 64.9133 28.9298 64.2637 28.9298C62.9646 28.8798 61.7404 29.4045 60.891 30.4038C60.6411 30.7536 60.3913 31.1034 60.1914 31.4781L60.0665 29.0797H57.6681C57.743 30.8785 57.818 32.1277 57.818 33.9015C57.818 35.9751 57.768 37.4492 57.768 39.4978V43.3952H60.3663V36.3999C60.4413 35.0508 60.5162 33.2519 61.9153 32.0277C62.5149 31.5031 63.2894 31.2033 64.0888 31.2283ZM77.2552 36.125C77.2552 37.699 76.7805 39.9725 74.8567 41.0718C73.7075 41.6964 72.3334 41.7463 71.1342 41.1967C70.8844 41.0718 70.6595 40.9219 70.4347 40.747C69.8351 40.2473 69.3604 39.5978 69.0855 38.8732C68.7358 37.9988 68.5609 37.0494 68.6109 36.1001C68.5859 34.5511 69.2105 33.0521 70.3347 31.9778C71.1092 31.3032 72.1086 30.9535 73.1579 30.9535C74.8318 30.9535 76.3308 32.0527 76.8304 33.6767C77.1052 34.4761 77.2552 35.3006 77.2552 36.15M77.8048 41.8712C79.2538 40.2973 80.0033 38.2237 79.9034 36.1001C79.9784 33.4018 78.5793 30.9035 76.2308 29.5544C72.8581 28.0054 68.8857 29.1546 66.862 32.2526C66.1875 33.5018 65.8627 34.9009 65.8627 36.3249C65.7128 38.4735 66.5372 40.5721 68.0862 42.0711C68.361 42.3209 68.6858 42.5458 68.9856 42.7457C70.1349 43.4452 71.484 43.795 72.8331 43.72C73.8824 43.745 74.9067 43.5701 75.8561 43.1704C76.5806 42.8706 77.2302 42.4209 77.7798 41.8712" fill="white"/>
<path d="M82.1025 32.1777C82.1774 34.9509 82.1774 36.9246 82.1774 39.6977C82.1774 43.1704 82.1274 46.6432 82.1025 50.0909H84.6508V41.4966C84.9006 41.8213 85.1754 42.1211 85.4502 42.396C86.4246 43.2454 87.6738 43.7201 88.9729 43.6951C90.6968 43.6951 92.3207 42.9956 93.4949 41.7214C94.869 40.0975 95.5686 37.9989 95.4436 35.8503C95.4436 34.776 95.2438 33.7267 94.869 32.7024C94.0446 30.279 91.7461 28.68 89.1728 28.755C87.7487 28.755 86.3996 29.2546 85.3503 30.229C85.0005 30.5288 84.7257 30.8786 84.4759 31.2783L84.376 29.1047H81.9775C82.0525 30.254 82.0525 31.0285 82.1025 32.1527V32.1777ZM84.6258 36.1751C84.6258 35.5005 84.7257 34.826 84.9256 34.1764C85.3753 32.3776 86.9493 31.1034 88.798 31.0535C90.322 31.0535 91.6961 32.0028 92.2707 33.4019C92.6705 34.3263 92.8703 35.3256 92.7954 36.325C92.7954 37.0745 92.6705 37.824 92.4206 38.5235C91.9709 40.2224 90.422 41.4216 88.6731 41.4466C86.8743 41.3716 85.3503 40.1225 84.9006 38.3736C84.7007 37.6491 84.6008 36.8996 84.6008 36.1501L84.6258 36.1751Z" fill="white"/>
<path d="M121.851 29.1297L118.653 36.8746L117.204 40.6221L117.104 40.822C116.73 39.7477 116.23 38.3986 115.78 37.1244L112.832 29.1047H110.084L115.83 43.4203L113.032 50.0659H115.605L124.574 29.1047H121.851V29.1297Z" fill="white"/>
<path d="M108.209 30.9785C107.46 29.7293 105.536 28.8549 103.287 28.8549C101.713 28.7799 100.139 29.2047 98.7903 30.0541V32.3026C99.9895 31.5032 101.364 31.0534 102.788 30.9535C104.212 30.8786 105.561 31.6281 106.235 32.8772C106.435 33.4768 106.51 34.1264 106.485 34.776C105.811 34.751 105.111 34.726 104.437 34.726C102.788 34.6261 101.164 34.9009 99.6397 35.4755C98.0658 36.0751 97.0165 37.6241 97.0415 39.323C97.0415 40.5971 97.5411 41.7964 98.4905 42.6458C99.3399 43.2954 100.389 43.6451 101.464 43.6451C102.788 43.7201 104.087 43.3703 105.211 42.6958C105.761 42.2461 106.285 41.7464 106.735 41.1718V43.4453H108.934V34.2014C108.984 33.0771 108.734 31.9778 108.209 30.9785ZM106.585 36.9995C106.61 37.6491 106.535 38.2987 106.36 38.9232C106.235 39.373 106.011 39.7727 105.711 40.1474C104.936 41.1218 103.737 41.6964 102.463 41.6714C101.289 41.6714 99.7147 41.0468 99.7147 39.373C99.7147 37.6991 101.663 36.8246 102.738 36.6498C103.362 36.5498 103.987 36.5248 104.636 36.5248C105.286 36.5248 105.911 36.5248 106.56 36.5998V36.9995H106.585Z" fill="white"/>
</svg>
