<svg width="106" height="73" viewBox="0 0 106 73" fill="none" xmlns="http://www.w3.org/2000/svg">
<path fill-rule="evenodd" clip-rule="evenodd" d="M11.0192 47.7496H6.24023V26.3442H11.0192V47.7496ZM22.9482 26.3442H18.2728C18.2728 30.2834 16.511 33.8989 13.4392 36.2642L11.5869 37.6902L18.764 47.7505H24.6649L18.0611 38.4935C21.1914 35.2892 22.9482 30.9783 22.9482 26.3442ZM30.5728 47.7437H26.0596V26.3483H30.5728V47.7437ZM44.2079 32.9437V33.8905C42.9902 33.0365 41.5203 32.5347 39.935 32.5347C35.7392 32.5347 32.3379 36.0311 32.3379 40.3441C32.3379 44.6572 35.7392 48.1535 39.935 48.1535C41.5203 48.1535 42.9902 47.6517 44.2079 46.7979V47.7438H48.5187V32.9437H44.2079ZM44.1929 40.3446C44.1929 42.4478 42.444 44.153 40.2868 44.153C38.1297 44.153 36.3809 42.4478 36.3809 40.3446C36.3809 38.2413 38.1297 36.5366 40.2868 36.5366C42.444 36.5366 44.1929 38.2413 44.1929 40.3446ZM89.6886 33.8905V32.9437H93.9992V47.7438H89.6886V46.7979C88.4708 47.6517 87.001 48.1535 85.4154 48.1535C81.2197 48.1535 77.8184 44.6572 77.8184 40.3441C77.8184 36.0311 81.2197 32.5347 85.4154 32.5347C87.001 32.5347 88.4708 33.0365 89.6886 33.8905ZM85.7672 44.153C87.9245 44.153 89.6731 42.4478 89.6731 40.3446C89.6731 38.2413 87.9245 36.5366 85.7672 36.5366C83.6099 36.5366 81.8613 38.2413 81.8613 40.3446C81.8613 42.4478 83.6099 44.153 85.7672 44.153ZM70.1541 32.5457C68.4322 32.5457 66.8025 33.0952 65.713 34.6113V32.9446H61.4209V47.7438H65.7657V39.9663C65.7657 37.7157 67.2339 36.6136 69.0016 36.6136C70.8961 36.6136 71.9852 37.777 71.9852 39.9357V47.7438H76.2907V38.3321C76.2907 34.8879 73.6268 32.5457 70.1541 32.5457ZM55.1878 32.9441V34.8717C56.052 33.7154 57.662 32.945 59.4125 32.945V37.2515C59.4044 37.2514 59.3965 37.251 59.3886 37.2506C59.3796 37.2501 59.3706 37.2496 59.3613 37.2496C57.6557 37.2496 55.1977 38.5027 55.1977 40.834V47.7439H50.7744V32.9441H55.1878ZM95.8652 45.2756C95.8652 43.7395 97.0763 42.4945 98.5702 42.4945C100.064 42.4945 101.275 43.7395 101.275 45.2756C101.275 46.8113 100.064 48.0565 98.5702 48.0565C97.0763 48.0565 95.8652 46.8113 95.8652 45.2756Z" fill="white"/>
</svg>
