<svg width="52" height="36" viewBox="0 0 52 36" fill="none" xmlns="http://www.w3.org/2000/svg">
<g clip-path="url(#clip0_2280_4361)">
<rect width="52" height="36" rx="4" fill="white"/>
<path d="M48 0H4C1.79086 0 0 1.79086 0 4V32C0 34.2091 1.79086 36 4 36H48C50.2091 36 52 34.2091 52 32V4C52 1.79086 50.2091 0 48 0Z" fill="white"/>
<path d="M48 0H4C1.79086 0 0 1.79086 0 4V32C0 34.2091 1.79086 36 4 36H48C50.2091 36 52 34.2091 52 32V4C52 1.79086 50.2091 0 48 0Z" fill="#D3D3D3"/>
<path d="M47.3198 0.550781H4.6798C2.53694 0.550781 0.799805 2.28792 0.799805 4.43078V31.5608C0.799805 33.7036 2.53694 35.4408 4.6798 35.4408H47.3198C49.4627 35.4408 51.1998 33.7036 51.1998 31.5608V4.43078C51.1998 2.28792 49.4627 0.550781 47.3198 0.550781Z" fill="white"/>
<path d="M17.49 22.9995L16.02 18.4995C16.02 18.4995 16.02 18.4395 16.07 18.4395H17.08C17.08 18.4395 17.12 18.4395 17.13 18.4695L18.24 22.0095C18.28 22.1395 18.41 22.1395 18.44 22.0095L19.53 18.4695C19.53 18.4695 19.56 18.4395 19.58 18.4395H20.58C20.58 18.4395 20.63 18.4595 20.62 18.4995L19.17 22.9995C19.17 22.9995 19.15 23.0295 19.13 23.0295H17.54C17.54 23.0295 17.51 23.0295 17.5 22.9995H17.49Z" fill="black"/>
<path d="M20.6001 20.7488C20.6001 19.3988 21.4601 18.2988 22.9001 18.2988C24.5201 18.2988 25.2701 19.5988 25.1701 20.9288C25.1701 20.9888 25.1401 21.0188 25.0901 21.0188H21.6101C21.7001 21.7888 22.2201 22.2488 22.9101 22.2488C23.5001 22.2488 23.8201 21.9888 24.0201 21.6188C24.0401 21.5888 24.0601 21.5788 24.0901 21.5788H25.0301C25.0301 21.5788 25.0701 21.5888 25.0701 21.6188C25.0701 21.7388 24.8401 22.3688 24.3201 22.7288C23.9401 23.0188 23.4701 23.1688 22.9201 23.1688C21.5501 23.1688 20.6001 22.1688 20.6001 20.7588V20.7488ZM24.1601 20.1888C23.9901 19.5388 23.5301 19.2288 22.8801 19.2288C22.2301 19.2288 21.8201 19.5888 21.6501 20.1888H24.1501H24.1601Z" fill="black"/>
<path d="M28.1102 19.3895H27.7202C27.1202 19.3895 26.6702 19.8195 26.6702 20.4395V22.9895C26.6702 22.9895 26.6502 23.0295 26.6302 23.0295H25.7002C25.7002 23.0295 25.6602 23.0095 25.6602 22.9895V18.4795C25.6602 18.4795 25.6802 18.4395 25.7002 18.4395H26.5702C26.5702 18.4395 26.6102 18.4595 26.6102 18.4795V18.9595C26.6102 19.0395 26.7102 19.0795 26.7802 18.9995C27.0602 18.6295 27.4702 18.4495 27.8302 18.4495H28.1202C28.1202 18.4495 28.1602 18.4695 28.1602 18.4895V19.3595C28.1602 19.3595 28.1402 19.3995 28.1202 19.3995L28.1102 19.3895Z" fill="black"/>
<path d="M29.09 16.6992C29.42 16.6992 29.72 16.9792 29.72 17.3092C29.72 17.6392 29.42 17.9192 29.09 17.9192C28.76 17.9192 28.46 17.6392 28.46 17.3092C28.46 16.9792 28.76 16.6992 29.09 16.6992ZM28.58 22.9992V18.4892C28.58 18.4892 28.6 18.4492 28.62 18.4492H29.54C29.54 18.4492 29.58 18.4692 29.58 18.4892V22.9992C29.58 22.9992 29.56 23.0392 29.54 23.0392H28.62C28.62 23.0392 28.58 23.0192 28.58 22.9992Z" fill="black"/>
<path d="M30.69 22.9888V19.3787H30.06C30.06 19.3787 30.02 19.3588 30.02 19.3388V18.4688C30.02 18.4688 30.04 18.4288 30.06 18.4288H30.69V17.7987C30.69 17.0487 31.12 16.7188 31.86 16.7188H32.69C32.69 16.7188 32.73 16.7388 32.73 16.7588V17.6287C32.73 17.6287 32.71 17.6688 32.69 17.6688H32.08C31.79 17.6688 31.68 17.7787 31.68 18.0487V18.4388H32.53C32.53 18.4388 32.57 18.4588 32.57 18.4788V19.3488C32.57 19.3488 32.55 19.3888 32.53 19.3888H31.68V22.9988C31.68 22.9988 31.66 23.0388 31.64 23.0388H30.72C30.72 23.0388 30.68 23.0188 30.68 22.9988L30.69 22.9888Z" fill="black"/>
<path d="M32.6401 20.7486C32.6401 19.2886 33.6301 18.3086 35.0001 18.3086C36.3701 18.3086 37.3801 19.2986 37.3801 20.7486C37.3801 22.1986 36.3901 23.1686 35.0001 23.1686C33.6101 23.1686 32.6401 22.1786 32.6401 20.7486ZM35.0001 22.2186C35.8001 22.2186 36.3801 21.6586 36.3801 20.7486C36.3801 19.8386 35.8201 19.2586 35.0001 19.2586C34.1801 19.2586 33.6501 19.8286 33.6501 20.7486C33.6501 21.6686 34.2101 22.2186 35.0001 22.2186Z" fill="black"/>
<path d="M37.8599 22.9898V18.4798C37.8599 18.4798 37.8799 18.4398 37.8999 18.4398H38.7699C38.7699 18.4398 38.8099 18.4598 38.8099 18.4798V18.8698C38.8099 18.9498 38.9199 18.9898 38.9899 18.9098C39.2399 18.5798 39.6199 18.3398 40.2399 18.3398C41.2899 18.3398 41.9899 19.0298 41.9899 20.0898V22.9998C41.9899 22.9998 41.9699 23.0398 41.9499 23.0398H41.0199C41.0199 23.0398 40.9799 23.0198 40.9799 22.9998V20.3298C40.9799 19.6798 40.5599 19.2898 39.9599 19.2898C39.3599 19.2898 38.8799 19.7198 38.8799 20.3498V22.9998C38.8799 22.9998 38.8599 23.0398 38.8399 23.0398H37.9099C37.9099 23.0398 37.8699 23.0198 37.8699 22.9998L37.8599 22.9898Z" fill="black"/>
<path d="M42.46 20.7488C42.46 19.3988 43.32 18.2988 44.76 18.2988C46.38 18.2988 47.13 19.5988 47.03 20.9288C47.03 20.9888 47 21.0188 46.95 21.0188H43.47C43.56 21.7888 44.08 22.2488 44.77 22.2488C45.36 22.2488 45.68 21.9888 45.88 21.6188C45.9 21.5888 45.92 21.5788 45.95 21.5788H46.89C46.89 21.5788 46.93 21.5888 46.93 21.6188C46.93 21.7388 46.7 22.3688 46.18 22.7288C45.8 23.0188 45.33 23.1688 44.78 23.1688C43.41 23.1688 42.46 22.1688 42.46 20.7588V20.7488ZM46.02 20.1888C45.85 19.5388 45.39 19.2288 44.74 19.2288C44.09 19.2288 43.68 19.5888 43.51 20.1888H46.01H46.02Z" fill="black"/>
<path d="M12.6 19.6998C13.36 19.6998 13.97 19.0798 13.97 18.3298C13.97 17.9198 13.76 17.5598 13.5 17.2898C13.22 17.0198 12.88 16.7398 12.88 16.2698C12.88 15.7998 13.22 15.5298 13.5 15.2498C13.77 14.9798 13.97 14.6198 13.97 14.2098C13.97 13.4498 13.35 12.8398 12.6 12.8398C11.85 12.8398 11.23 13.4598 11.23 14.2098C11.23 14.6198 11.43 14.9798 11.7 15.2498C11.98 15.5198 12.32 15.7998 12.32 16.2698C12.32 16.7398 11.98 17.0098 11.7 17.2898C11.43 17.5598 11.23 17.9198 11.23 18.3298C11.23 19.0898 11.84 19.6998 12.6 19.6998Z" fill="black"/>
<path d="M9.4701 23.031C10.2267 23.031 10.8401 22.4176 10.8401 21.661C10.8401 20.9044 10.2267 20.291 9.4701 20.291C8.71347 20.291 8.1001 20.9044 8.1001 21.661C8.1001 22.4176 8.71347 23.031 9.4701 23.031Z" fill="black"/>
<path d="M6.32996 19.6892C7.08659 19.6892 7.69996 19.0758 7.69996 18.3192C7.69996 17.5626 7.08659 16.9492 6.32996 16.9492C5.57333 16.9492 4.95996 17.5626 4.95996 18.3192C4.95996 19.0758 5.57333 19.6892 6.32996 19.6892Z" fill="black"/>
<path d="M6.32996 15.5701C7.08659 15.5701 7.69996 14.9567 7.69996 14.2001C7.69996 13.4434 7.08659 12.8301 6.32996 12.8301C5.57333 12.8301 4.95996 13.4434 4.95996 14.2001C4.95996 14.9567 5.57333 15.5701 6.32996 15.5701Z" fill="black"/>
</g>
<rect x="0.5" y="0.5" width="51" height="35" rx="3.5" stroke="#EAEAEA"/>
<defs>
<clipPath id="clip0_2280_4361">
<rect width="52" height="36" rx="4" fill="white"/>
</clipPath>
</defs>
</svg>
