<svg width="105" height="73" viewBox="0 0 105 73" fill="none" xmlns="http://www.w3.org/2000/svg">
<path d="M46.1178 49.3774H39.8535L43.7717 25.1533H50.0356L46.1178 49.3774Z" fill="white"/>
<path d="M68.8244 25.7457C67.5888 25.2555 65.629 24.7144 63.2058 24.7144C57.0196 24.7144 52.6633 28.0128 52.6366 32.7285C52.5852 36.2078 55.7556 38.1403 58.1267 39.3004C60.5503 40.4858 61.3742 41.2596 61.3742 42.3162C61.3495 43.9391 59.4158 44.6871 57.6122 44.6871C55.1112 44.6871 53.7712 44.3015 51.7347 43.3986L50.9098 43.0115L50.0332 48.4493C51.5024 49.1186 54.2093 49.7125 57.0196 49.7385C63.5926 49.7385 67.8718 46.4912 67.9225 41.4658C67.9475 38.7082 66.2734 36.5952 62.6642 34.8686C60.4732 33.7602 59.1315 33.0128 59.1315 31.8788C59.1572 30.8478 60.2663 29.7918 62.7396 29.7918C64.7761 29.7401 66.2724 30.2295 67.4059 30.7193L67.9725 30.9766L68.8244 25.7457Z" fill="white"/>
<path d="M77.1538 40.7957C77.6697 39.404 79.6548 34.018 79.6548 34.018C79.6288 34.0697 80.1697 32.6006 80.479 31.6988L80.9168 33.7861C80.9168 33.7861 82.1031 39.5845 82.3607 40.7957C81.3816 40.7957 78.3911 40.7957 77.1538 40.7957ZM84.8863 25.1533H80.0409C78.5467 25.1533 77.4114 25.5911 76.7667 27.1632L67.4619 49.377H74.0349C74.0349 49.377 75.117 46.3872 75.3496 45.7433C76.0707 45.7433 82.4648 45.7433 83.3924 45.7433C83.5723 46.5938 84.1399 49.377 84.1399 49.377H89.94L84.8863 25.1533V25.1533Z" fill="white"/>
<path d="M34.6223 25.1533L28.4875 41.6718L27.8171 38.3217C26.6829 34.456 23.1258 30.2561 19.1562 28.1678L24.7755 49.3517H31.3999L41.2463 25.1533H34.6223V25.1533Z" fill="white"/>
<path d="M22.7892 25.1533H12.7105L12.6074 25.6428C20.4694 27.6533 25.6762 32.4994 27.8155 38.3242L25.6245 27.1898C25.2638 25.6425 24.1553 25.2044 22.7892 25.1533Z" fill="white"/>
</svg>
