<svg width="52" height="36" viewBox="0 0 52 36" fill="none" xmlns="http://www.w3.org/2000/svg">
<rect x="0.5" y="0.5" width="51" height="35" rx="3.5" fill="white"/>
<rect x="0.5" y="0.5" width="51" height="35" rx="3.5" stroke="#EAEAEA"/>
<path d="M50.1101 10.3594H1.89014V25.6394H50.1101V10.3594Z" fill="#DD402B"/>
<path d="M19.3802 15.5192C19.2902 15.4292 19.1802 15.3292 19.0702 15.2492C19.0502 15.2292 19.0402 15.2192 19.0102 15.1992C18.8802 15.3392 18.7402 15.5092 18.6002 15.6992C18.2402 16.1892 17.8502 16.8592 17.4502 17.7992C17.5302 17.7992 17.6102 17.7792 17.6702 17.7692C17.8402 17.7392 18.0002 17.6592 18.1202 17.5492L18.2302 17.4592V18.0892L18.2102 18.1092C18.0702 18.2192 17.9002 18.3092 17.7102 18.3592C17.5502 18.3892 17.3802 18.4092 17.2202 18.3792C17.0602 18.7392 16.9102 19.0692 16.7502 19.3492C16.6702 19.5192 16.5902 19.6792 16.5102 19.8192C16.2402 20.2892 15.5202 21.2792 15.1802 21.6092C15.6702 21.8492 16.2202 21.9692 16.7802 21.9692C17.2002 21.9692 17.6002 21.9092 17.9702 21.7792C18.9902 21.4292 19.8102 20.6792 20.2302 19.6892C20.4202 19.2392 20.5302 18.7292 20.5302 18.2192C20.5302 17.1692 20.0902 16.2092 19.3702 15.5192" fill="white"/>
<path d="M17.07 14.4985C16.98 14.4985 16.88 14.4785 16.79 14.4785C15.5 14.4785 14.36 15.1385 13.68 16.1285C13.27 16.7285 13.04 17.4485 13.04 18.2285C13.04 19.3885 13.56 20.4285 14.39 21.1185C14.66 20.9485 15.03 20.6185 15.44 19.9685C15.71 19.5485 15.97 18.9985 16.22 18.2585C16.14 18.2585 16.05 18.2785 15.98 18.2885C15.81 18.3185 15.65 18.3985 15.53 18.5085L15.42 18.5985V17.9685L15.45 17.9485C15.59 17.8185 15.76 17.7485 15.95 17.6985C16.11 17.6685 16.28 17.6485 16.42 17.6785C16.97 16.2485 17.61 15.3685 18.07 14.8885C18.1 14.8385 18.15 14.7985 18.16 14.7585C17.83 14.5885 17.45 14.5085 17.06 14.4785" fill="white"/>
<path d="M22.5501 17.1791H23.0401V17.4891H22.5501V19.1991H22.1901V17.4891H21.8901V17.1791H22.1901V17.0991C22.1901 16.7991 22.2701 16.5791 22.4401 16.4391C22.6001 16.3091 22.8001 16.2491 23.0501 16.2791V16.5791C22.8901 16.5591 22.7701 16.5991 22.6901 16.6691C22.5801 16.7591 22.5501 16.9491 22.5501 17.0891V17.1691V17.1791Z" fill="white"/>
<path d="M25.1103 19.2097H24.7603V18.9897C24.6203 19.1597 24.4003 19.2597 24.1303 19.2597C23.6003 19.2597 23.3003 18.8997 23.3003 18.3997V17.1797H23.6503V18.4197C23.6503 18.7497 23.8403 18.9497 24.1803 18.9497C24.4903 18.9497 24.7403 18.7297 24.7403 18.4197V17.1797H25.1003V19.2197L25.1103 19.2097Z" fill="white"/>
<path d="M25.9704 16.2695H25.6104V19.1995H25.9704V16.2695Z" fill="white"/>
<path d="M26.86 16.2695H26.5V19.1995H26.86V16.2695Z" fill="white"/>
<path d="M28.29 19.2494C27.69 19.2494 27.21 18.7794 27.21 18.1794C27.21 17.5794 27.7 17.1094 28.29 17.1094C28.78 17.1094 29.15 17.3794 29.29 17.7794H28.91C28.78 17.5594 28.56 17.3994 28.28 17.3994C27.89 17.3994 27.56 17.7494 27.56 18.1694C27.56 18.5894 27.89 18.9194 28.28 18.9194C28.56 18.9194 28.78 18.7594 28.91 18.5394H29.29C29.15 18.9594 28.77 19.2294 28.29 19.2294" fill="white"/>
<path d="M31.6302 19.2091H31.2802V18.8791C31.1202 19.0791 30.8602 19.2591 30.5302 19.2591C29.9002 19.2591 29.4502 18.7891 29.4502 18.1891C29.4502 17.5891 29.9002 17.1191 30.5302 17.1191C30.8402 17.1191 31.1302 17.2891 31.2802 17.4991V17.1691H31.6302V19.2091ZM30.5502 17.4491C30.1402 17.4491 29.8302 17.7991 29.8302 18.1991C29.8302 18.5991 30.1402 18.9391 30.5502 18.9391C30.9602 18.9391 31.2902 18.6091 31.2902 18.1991C31.2902 17.7891 30.9402 17.4491 30.5502 17.4491Z" fill="white"/>
<path d="M33.2902 17.4694C32.9102 17.4494 32.6002 17.6294 32.6002 18.0294V19.2094H32.2402V17.1894H32.5902V17.4294C32.7502 17.2094 33.0402 17.1294 33.3002 17.1494V17.4794L33.2902 17.4694Z" fill="white"/>
<path d="M35.5999 19.1087C35.5999 19.7687 35.1499 20.2087 34.4899 20.2087C33.9699 20.2087 33.5799 19.9587 33.4699 19.5387H33.8499C33.9899 19.8387 34.3399 19.8887 34.4899 19.8887C35.0399 19.8887 35.2399 19.4787 35.2399 19.1187V18.9187C35.0799 19.1187 34.8199 19.2787 34.4999 19.2787C33.8699 19.2787 33.4199 18.8087 33.4199 18.2087C33.4199 17.6087 33.8699 17.1387 34.4999 17.1387C34.8099 17.1387 35.0999 17.3087 35.2499 17.5187V17.1887H35.5999V19.1187V19.1087ZM34.5199 17.4287C34.1099 17.4287 33.7999 17.7787 33.7999 18.1987C33.7999 18.6187 34.1099 18.9487 34.5199 18.9487C34.9299 18.9487 35.2599 18.5987 35.2599 18.1987C35.2599 17.7987 34.9099 17.4287 34.5199 17.4287Z" fill="white"/>
<path d="M38.0902 19.2091H37.7402V18.8791C37.5802 19.0791 37.3202 19.2591 36.9902 19.2591C36.3602 19.2591 35.9102 18.7891 35.9102 18.1891C35.9102 17.5891 36.3602 17.1191 36.9902 17.1191C37.3002 17.1191 37.5902 17.2891 37.7402 17.4991V17.1691H38.0902V19.2091ZM37.0102 17.4491C36.6002 17.4491 36.2902 17.7991 36.2902 18.1991C36.2902 18.5991 36.6002 18.9391 37.0102 18.9391C37.4202 18.9391 37.7502 18.6091 37.7502 18.1991C37.7302 17.7791 37.4002 17.4491 37.0102 17.4491Z" fill="white"/>
</svg>
