<svg width="52" height="36" viewBox="0 0 52 36" fill="none" xmlns="http://www.w3.org/2000/svg">
<rect x="0.5" y="0.5" width="51" height="35" rx="3.5" fill="white"/>
<rect x="0.5" y="0.5" width="51" height="35" rx="3.5" stroke="#EAEAEA"/>
<path d="M28.9602 18.0794V17.9494C28.9602 15.7594 30.0102 14.6094 31.8302 14.6094C32.6102 14.6094 33.0702 14.7594 33.4402 14.9694V15.1994C32.9402 14.9394 32.3902 14.8194 31.8302 14.8394C30.1802 14.8394 29.2202 15.8594 29.2202 17.9094V18.0794C29.2202 20.1194 29.9902 21.1894 31.7202 21.1894C32.3402 21.2094 32.9502 21.0494 33.4802 20.7294V20.9694C32.9402 21.2794 32.3202 21.4394 31.6902 21.4194C29.8402 21.4194 28.9502 20.2294 28.9502 18.0594L28.9602 18.0794Z" fill="#0069B1"/>
<path d="M36.7803 14.6895H37.0403L39.5803 21.3695H39.3103L38.4403 19.0695H35.3903L34.5103 21.3695H34.2603L36.8003 14.6895H36.7803ZM35.4603 18.8195H38.3403L36.9203 15.0595H36.9003L35.4603 18.8195Z" fill="#0069B1"/>
<path d="M40.1602 20.979V20.749C40.7302 21.059 41.3702 21.219 42.0302 21.219C43.3402 21.219 43.9002 20.649 43.9002 19.699C43.9002 18.749 43.3002 18.399 42.3902 18.109L41.9602 17.969C40.7902 17.569 40.3102 17.139 40.3102 16.179C40.3102 15.309 40.9402 14.629 42.2302 14.629C42.7902 14.609 43.3402 14.739 43.8302 14.989V15.229C43.3302 14.969 42.7802 14.839 42.2202 14.849C41.1002 14.849 40.5802 15.399 40.5802 16.149C40.5802 16.989 40.9602 17.329 42.0602 17.719L42.4802 17.839C43.5002 18.189 44.1802 18.569 44.1802 19.669C44.1802 20.769 43.5402 21.439 42.0502 21.439C41.3902 21.439 40.7502 21.289 40.1702 20.969L40.1602 20.979Z" fill="#0069B1"/>
<path d="M45.1001 14.6895H45.3601V17.7795H49.4801V14.6895H49.7401V21.3695H49.4801V18.0095H45.3601V21.3695H45.1001V14.6895Z" fill="#0069B1"/>
<path d="M5.5099 14.5098H5.3999V15.4398H5.4699C6.0699 15.5198 7.0799 15.9498 7.0799 18.0198C7.0799 19.0998 6.7999 20.4298 5.4699 20.5698H5.3999V21.5098H5.5099C7.1399 21.3398 8.1099 20.0398 8.1099 18.0298C8.1099 15.8898 7.1899 14.6398 5.5099 14.5298V14.5098Z" fill="#0069B1"/>
<path d="M4.91 20.55C3.51 20.36 3.3 18.89 3.3 18.02C3.3 17.31 3.46 15.64 4.91 15.44H4.95V14.5H4.86C3.25 14.7 2.25 16.06 2.25 18.07C2.25 20.08 3.2 21.34 4.86 21.48H4.94V20.55H4.9H4.91Z" fill="#0069B1"/>
<path d="M14.47 14.6602H13.15L10.21 17.8202L13.04 21.3702H14.35L11.48 17.8302L14.46 14.6702L14.47 14.6602Z" fill="#0069B1"/>
<path d="M9.89012 14.6602H8.87012V21.3602H9.89012V14.6602Z" fill="#0069B1"/>
<path d="M15.48 14.6602L14.5 15.6802H16.85V21.3602H17.87V15.6802H19.93V14.6602H15.47H15.48Z" fill="#0069B1"/>
<path d="M22.8602 20.55C21.4602 20.36 21.2502 18.89 21.2502 18.02C21.2502 17.31 21.4102 15.64 22.8602 15.44H22.9102V14.5H22.8102C21.2002 14.7 20.2002 16.06 20.2002 18.07C20.2002 20.1 21.1502 21.34 22.8202 21.48H22.9102V20.55H22.8602Z" fill="#0069B1"/>
<path d="M23.4498 14.5098H23.3498V15.4398H23.4098C24.0098 15.5198 25.0198 15.9498 25.0198 18.0098C25.0198 19.0898 24.7398 20.4198 23.4098 20.5598H23.3398V21.4998H23.4498C25.0798 21.3298 26.0498 20.0298 26.0498 18.0198C26.0498 15.8798 25.1198 14.6298 23.4398 14.5198L23.4498 14.5098Z" fill="#0069B1"/>
<path d="M27.5202 20.3398H26.4902V21.3698H27.5202V20.3398Z" fill="#0069B1"/>
</svg>
