<svg width="52" height="36" viewBox="0 0 52 36" fill="none" xmlns="http://www.w3.org/2000/svg">
<rect x="0.5" y="0.5" width="51" height="35" rx="3.5" fill="white"/>
<rect x="0.5" y="0.5" width="51" height="35" rx="3.5" stroke="#EAEAEA"/>
<path d="M39.54 16.9994L46.94 25.8194C48.48 23.6094 49.37 20.9194 49.37 18.0194C49.37 14.9694 48.37 12.1394 46.67 9.85938L39.54 17.0094V16.9994Z" fill="#DD1F28"/>
<path d="M18.5499 9.08977C24.0799 9.08977 28.2499 10.4998 28.6799 15.1598L34.4999 9.08977H46.0999C43.5699 6.12977 39.8399 4.25977 35.6599 4.25977H13.3799C9.19994 4.25977 5.44994 6.13977 2.93994 9.08977H18.5499Z" fill="#DD1F28"/>
<path d="M9.45021 14.9707L7.47021 20.4007H15.4402C17.7902 20.4007 18.5102 19.4207 19.0402 17.5407C19.5702 15.6807 18.2502 14.9707 16.6402 14.9707H9.44021H9.45021Z" fill="#DD1F28"/>
<path d="M34.5601 26.5495L28.4001 18.7695C27.2601 24.0795 23.5301 26.5495 16.5501 26.5495H2.62012C5.14012 29.7195 9.03012 31.7395 13.3801 31.7395H35.6501C40.0001 31.7395 43.8801 29.6995 46.4001 26.5495H34.5601Z" fill="#DD1F28"/>
</svg>
