<svg width="52" height="36" viewBox="0 0 52 36" fill="none" xmlns="http://www.w3.org/2000/svg">
<rect x="0.5" y="0.5" width="51" height="35" rx="3.5" fill="white"/>
<rect x="0.5" y="0.5" width="51" height="35" rx="3.5" stroke="#EAEAEA"/>
<path d="M4.57 14.7695C4.57 14.7695 4.58 14.7895 4.59 14.8095C4.51 14.8095 4.43 14.8195 4.35 14.8395C4.05 14.8995 3.81 15.0595 3.62 15.2995C3.51 15.4395 3.48 15.6195 3.45 15.7895C3.41 15.9795 3.41 16.1795 3.38 16.3795C3.38 16.3995 3.38 16.4195 3.36 16.4595H2C2.05 15.9295 2.13 15.4295 2.58 15.0895C2.75 14.9595 2.96 14.8895 3.17 14.8395C3.3 14.8095 3.42 14.7895 3.55 14.7695C3.89 14.7695 4.22 14.7695 4.56 14.7695H4.57Z" fill="#6396CD"/>
<path d="M3.3501 19.1298C3.9501 19.0398 4.2701 18.4598 4.2701 17.9698C4.2701 17.7598 4.2701 17.5598 4.2701 17.3498C4.2701 17.2998 4.2701 17.2598 4.3001 17.1998H5.0601C5.0601 16.9498 5.0601 16.7198 5.0601 16.4798C4.8001 16.4498 4.5401 16.4798 4.2901 16.4598C4.2201 16.3098 4.3201 16.0598 4.4901 15.9498C4.6601 15.8398 4.8501 15.8398 5.0601 15.8198V14.9098C5.1201 14.8798 5.1601 14.9098 5.2001 14.9098C5.5701 15.0498 5.8301 15.2998 5.9801 15.6698C6.1001 15.9598 6.1501 16.2698 6.1701 16.5798C6.1901 16.9698 6.1901 17.3498 6.1101 17.7298C6.0201 18.1198 5.8601 18.4698 5.5501 18.7298C5.3501 18.8998 5.1201 18.9998 4.8801 19.0598C4.3801 19.1898 3.8701 19.1398 3.3601 19.1098L3.3501 19.1298Z" fill="#6396CD"/>
<path d="M2.02023 17.209H3.36023C3.39023 17.299 3.37023 17.389 3.37023 17.469C3.37023 17.529 3.37023 17.589 3.37023 17.649C3.37023 17.939 3.23023 18.129 2.95023 18.209C2.93023 18.209 2.91023 18.219 2.86023 18.229V19.019C2.64023 18.949 2.47023 18.839 2.34023 18.679C2.20023 18.509 2.13023 18.309 2.08023 18.099C2.02023 17.849 1.99023 17.589 1.99023 17.329C1.99023 17.289 1.99023 17.249 2.01023 17.209H2.02023Z" fill="#6396CD"/>
<path d="M49.7499 18.28C49.5999 18.28 49.4499 18.28 49.2999 18.28C49.2199 18.28 49.1699 18.25 49.1199 18.18C48.8899 17.81 48.6599 17.43 48.4199 17.06C48.3399 16.93 48.2599 16.8 48.1699 16.66C48.1499 16.72 48.1599 16.76 48.1599 16.8C48.1599 17.24 48.1599 17.69 48.1599 18.13C48.1599 18.27 48.1599 18.28 48.0099 18.28C47.9099 18.28 47.7999 18.28 47.6999 18.28C47.6399 18.28 47.6099 18.26 47.6099 18.19C47.6099 18.17 47.6099 18.14 47.6099 18.12C47.6099 17.38 47.6099 16.64 47.6099 15.91C47.6099 15.88 47.6099 15.86 47.6099 15.83C47.6099 15.78 47.6399 15.75 47.6899 15.75C47.8299 15.75 47.9699 15.75 48.1099 15.75C48.1599 15.75 48.1899 15.78 48.2199 15.82C48.4699 16.23 48.7199 16.63 48.9799 17.04C49.0499 17.15 49.1099 17.27 49.1999 17.38C49.2199 17.33 49.2099 17.29 49.2099 17.25C49.2099 16.8 49.2099 16.35 49.2099 15.9C49.2099 15.76 49.2099 15.76 49.3499 15.76C49.4799 15.76 49.6099 15.76 49.7399 15.76V18.28H49.7499Z" fill="#6396CD"/>
<path d="M16.94 16.92C17.15 17 17.29 17.13 17.34 17.33C17.44 17.73 17.29 18.08 16.89 18.22C16.78 18.26 16.66 18.28 16.54 18.28C16.15 18.28 15.77 18.28 15.38 18.28C15.25 18.28 15.25 18.28 15.25 18.15C15.25 17.39 15.25 16.64 15.25 15.88C15.25 15.76 15.25 15.75 15.38 15.75C15.74 15.75 16.11 15.75 16.47 15.75C16.64 15.75 16.81 15.78 16.97 15.86C17.07 15.91 17.14 15.99 17.19 16.09C17.31 16.34 17.27 16.7 16.99 16.87C16.98 16.87 16.97 16.89 16.94 16.91V16.92ZM16.21 17.18C16.11 17.18 16.01 17.18 15.91 17.18C15.85 17.18 15.83 17.21 15.83 17.26C15.83 17.43 15.83 17.6 15.83 17.76C15.83 17.81 15.86 17.84 15.91 17.84C16.1 17.84 16.29 17.84 16.48 17.84C16.58 17.84 16.68 17.81 16.74 17.72C16.82 17.61 16.81 17.48 16.76 17.36C16.71 17.24 16.61 17.2 16.48 17.19C16.39 17.19 16.3 17.19 16.21 17.19V17.18ZM16.18 16.77C16.26 16.77 16.34 16.77 16.42 16.77C16.59 16.77 16.69 16.67 16.7 16.5C16.7 16.35 16.61 16.23 16.44 16.23C16.27 16.23 16.09 16.23 15.91 16.23C15.85 16.23 15.83 16.25 15.83 16.31C15.83 16.44 15.83 16.56 15.83 16.69C15.83 16.76 15.87 16.78 15.93 16.78C16.01 16.78 16.1 16.78 16.18 16.78V16.77Z" fill="#6396CD"/>
<path d="M38.3397 17.3602C38.3397 17.3602 38.3597 17.2702 38.3597 17.2302C38.3597 16.7902 38.3597 16.3502 38.3597 15.9102C38.3597 15.7602 38.3597 15.7502 38.5097 15.7502C38.6097 15.7502 38.6997 15.7502 38.7997 15.7502C38.8997 15.7502 38.9097 15.7602 38.9097 15.8502C38.9097 15.9002 38.9097 15.9602 38.9097 16.0102C38.9097 16.7002 38.9097 17.3902 38.9097 18.0902C38.9097 18.1202 38.9097 18.1502 38.9097 18.1802C38.9097 18.2502 38.8797 18.2802 38.8097 18.2702C38.6797 18.2702 38.5597 18.2702 38.4297 18.2702C38.3597 18.2702 38.3097 18.2502 38.2697 18.1802C38.0297 17.7902 37.7797 17.3902 37.5397 17.0002C37.4697 16.8902 37.3997 16.7702 37.3197 16.6502C37.2797 16.6902 37.2997 16.7302 37.2997 16.7702C37.2997 17.2202 37.2997 17.6602 37.2997 18.1102C37.2997 18.2602 37.2997 18.2602 37.1497 18.2602C37.0497 18.2602 36.9497 18.2602 36.8497 18.2602C36.7597 18.2602 36.7497 18.2502 36.7397 18.1502C36.7397 18.0402 36.7397 17.9202 36.7397 17.8102C36.7397 17.1802 36.7397 16.5602 36.7397 15.9302C36.7397 15.9002 36.7397 15.8602 36.7397 15.8302C36.7397 15.7702 36.7697 15.7402 36.8297 15.7402C36.9697 15.7402 37.1097 15.7402 37.2397 15.7402C37.2997 15.7402 37.3297 15.7702 37.3597 15.8202C37.6597 16.3002 37.9497 16.7702 38.2497 17.2502C38.2697 17.2802 38.2897 17.3202 38.3297 17.3502L38.3397 17.3602Z" fill="#6396CD"/>
<path d="M41.8601 17.3798C41.8601 17.3798 41.8701 17.2898 41.8701 17.2498C41.8701 16.7998 41.8701 16.3498 41.8701 15.8998C41.8701 15.7598 41.8701 15.7598 42.0101 15.7598C42.1001 15.7598 42.1901 15.7598 42.2901 15.7598C42.4001 15.7598 42.4101 15.7598 42.4101 15.8798C42.4101 16.1198 42.4101 16.3498 42.4101 16.5898C42.4101 17.1098 42.4101 17.6198 42.4101 18.1398C42.4101 18.2898 42.4101 18.2898 42.2601 18.2898C42.1501 18.2898 42.0501 18.2898 41.9401 18.2898C41.8701 18.2898 41.8201 18.2598 41.7801 18.1998C41.4901 17.7198 41.1901 17.2498 40.9001 16.7798C40.8801 16.7498 40.8701 16.7098 40.8301 16.6898C40.8101 16.7298 40.8201 16.7798 40.8201 16.8198C40.8201 17.2598 40.8201 17.7098 40.8201 18.1498C40.8201 18.2898 40.8201 18.2898 40.6801 18.2898C40.5801 18.2898 40.4701 18.2898 40.3701 18.2898C40.3001 18.2898 40.2601 18.2598 40.2701 18.1898C40.2701 18.1698 40.2701 18.1498 40.2701 18.1298C40.2701 17.3898 40.2701 16.6498 40.2701 15.9198C40.2701 15.7698 40.2701 15.7698 40.4201 15.7698C40.5301 15.7698 40.6301 15.7698 40.7401 15.7698C40.8101 15.7698 40.8501 15.7998 40.8901 15.8598C41.1801 16.3398 41.4801 16.8098 41.7701 17.2798C41.8001 17.3198 41.8201 17.3698 41.8601 17.3998V17.3798Z" fill="#6396CD"/>
<path d="M33.8298 17.0891C34.0998 17.2191 34.1498 17.4591 34.1598 17.7191C34.1598 17.8791 34.1798 18.0491 34.2298 18.2091C34.2298 18.2291 34.2398 18.2491 34.2298 18.2691C34.1998 18.2991 34.1698 18.2891 34.1298 18.2891C34.0498 18.2891 33.9798 18.2891 33.8998 18.2891C33.6598 18.2891 33.6798 18.3391 33.6298 18.0591C33.6098 17.9591 33.6098 17.8491 33.5998 17.7391C33.5998 17.6791 33.5798 17.6191 33.5698 17.5591C33.5298 17.4091 33.4298 17.3291 33.2698 17.3291C33.1098 17.3291 32.9398 17.3291 32.7798 17.3291C32.6798 17.3291 32.6698 17.3391 32.6698 17.4391C32.6698 17.6791 32.6698 17.9091 32.6698 18.1491C32.6698 18.2891 32.6698 18.2891 32.5298 18.2891C32.4098 18.2891 32.2898 18.2891 32.1698 18.2891C32.0998 18.2891 32.0698 18.2591 32.0698 18.1991C32.0698 18.1791 32.0698 18.1491 32.0698 18.1291C32.0698 17.3991 32.0698 16.6691 32.0698 15.9391C32.0698 15.9191 32.0698 15.8891 32.0698 15.8691C32.0698 15.7991 32.0998 15.7591 32.1698 15.7691C32.1898 15.7691 32.2098 15.7691 32.2298 15.7691C32.6198 15.7691 33.0198 15.7691 33.4098 15.7691C33.5598 15.7691 33.7098 15.7991 33.8398 15.8791C34.0598 16.0091 34.1698 16.1991 34.1798 16.4491C34.1798 16.6191 34.1598 16.7791 34.0498 16.9291C33.9898 17.0091 33.9098 17.0491 33.8198 17.1091L33.8298 17.0891ZM32.9998 16.8991C33.0898 16.8991 33.1798 16.8991 33.2698 16.8991C33.2998 16.8991 33.3398 16.8891 33.3698 16.8791C33.5198 16.8491 33.5998 16.7591 33.5998 16.5991C33.5998 16.5691 33.5998 16.5391 33.5998 16.5091C33.5998 16.3491 33.4998 16.2291 33.3398 16.2191C33.1398 16.2191 32.9398 16.2191 32.7498 16.2191C32.6898 16.2191 32.6698 16.2491 32.6698 16.2991C32.6698 16.4691 32.6698 16.6391 32.6698 16.8091C32.6698 16.8691 32.6998 16.8991 32.7598 16.8991C32.8398 16.8991 32.9198 16.8991 32.9998 16.8991Z" fill="#6396CD"/>
<path d="M24.3 17.3496C24.18 17.3296 24.06 17.3496 23.94 17.3496C23.76 17.3496 23.76 17.3496 23.76 17.1696C23.76 17.1096 23.76 17.0596 23.76 16.9996C23.76 16.9396 23.79 16.9096 23.84 16.9096C24.14 16.9096 24.44 16.9096 24.75 16.9096C24.83 16.9096 24.84 16.9596 24.84 17.0296C24.84 17.2296 24.84 17.4196 24.84 17.6196C24.84 17.8096 24.84 17.9896 24.84 18.1796C24.84 18.2796 24.83 18.2896 24.73 18.2896C24.65 18.2896 24.56 18.3096 24.49 18.2796C24.41 18.2396 24.44 18.1396 24.41 18.0796C24.41 18.0796 24.4 18.0796 24.39 18.0596C24.26 18.1896 24.12 18.2996 23.94 18.3296C23.58 18.4096 23.25 18.3296 22.96 18.1096C22.66 17.8796 22.53 17.5496 22.49 17.1896C22.46 16.8196 22.53 16.4696 22.76 16.1596C22.96 15.8896 23.24 15.7596 23.56 15.7196C23.82 15.6896 24.08 15.7196 24.31 15.8596C24.56 16.0096 24.72 16.2196 24.78 16.5096C24.8 16.5996 24.78 16.6096 24.7 16.6096C24.58 16.6096 24.46 16.6096 24.34 16.6096C24.28 16.6096 24.25 16.5896 24.23 16.5396C24.16 16.3396 24.01 16.2196 23.8 16.1996C23.54 16.1796 23.32 16.2596 23.2 16.4896C23.02 16.8296 23.01 17.1796 23.17 17.5296C23.34 17.8996 23.76 17.9496 24.05 17.7996C24.22 17.7096 24.3 17.5596 24.31 17.3596L24.3 17.3496Z" fill="#6396CD"/>
<path d="M14.53 17.1C14.79 17.21 14.83 17.45 14.85 17.68C14.87 17.87 14.86 18.07 14.94 18.25C14.89 18.29 14.84 18.27 14.8 18.27C14.69 18.27 14.59 18.27 14.48 18.27C14.41 18.27 14.37 18.24 14.35 18.17C14.33 18.05 14.32 17.92 14.31 17.8C14.31 17.71 14.29 17.62 14.26 17.53C14.22 17.4 14.11 17.31 13.97 17.31C13.8 17.31 13.63 17.31 13.45 17.31C13.35 17.31 13.34 17.32 13.34 17.43C13.34 17.67 13.34 17.9 13.34 18.14C13.34 18.28 13.34 18.28 13.2 18.28C13.09 18.28 12.98 18.28 12.87 18.28C12.8 18.28 12.77 18.25 12.77 18.18C12.77 18.16 12.77 18.13 12.77 18.11C12.77 17.38 12.77 16.65 12.77 15.92C12.77 15.9 12.77 15.88 12.77 15.86C12.77 15.76 12.78 15.75 12.88 15.75C12.96 15.75 13.04 15.75 13.12 15.75C13.46 15.75 13.79 15.75 14.13 15.75C14.3 15.75 14.46 15.79 14.6 15.89C14.85 16.07 14.93 16.32 14.88 16.62C14.85 16.8 14.76 16.95 14.6 17.05C14.58 17.06 14.56 17.07 14.54 17.11L14.53 17.1ZM13.72 16.21C13.62 16.21 13.52 16.21 13.42 16.21C13.37 16.21 13.34 16.23 13.34 16.28C13.34 16.46 13.34 16.64 13.34 16.82C13.34 16.87 13.36 16.89 13.41 16.89C13.62 16.89 13.83 16.91 14.04 16.87C14.24 16.83 14.32 16.71 14.3 16.48C14.29 16.31 14.17 16.21 13.99 16.2C13.9 16.2 13.81 16.2 13.72 16.2V16.21Z" fill="#6396CD"/>
<path d="M19.8199 18.2798C19.6399 18.2798 19.4799 18.2798 19.3199 18.2798C19.2699 18.2798 19.2499 18.2398 19.2399 18.1998C19.2199 18.1098 19.1999 18.0098 19.1999 17.9198C19.1999 17.7998 19.1799 17.6798 19.1499 17.5698C19.1099 17.4098 19.0099 17.3298 18.8499 17.3198C18.6799 17.3198 18.5099 17.3198 18.3299 17.3198C18.2499 17.3198 18.2299 17.3598 18.2299 17.4298C18.2299 17.6698 18.2299 17.8998 18.2299 18.1398C18.2299 18.2898 18.2299 18.2898 18.0699 18.2898C17.9699 18.2898 17.8799 18.2898 17.7799 18.2898C17.6499 18.2898 17.6499 18.2898 17.6499 18.1498C17.6499 18.1098 17.6499 18.0698 17.6499 18.0198C17.6499 17.3198 17.6499 16.6098 17.6499 15.9098C17.6499 15.7598 17.6499 15.7598 17.7999 15.7598C18.1899 15.7598 18.5899 15.7598 18.9799 15.7598C19.1999 15.7598 19.3999 15.8198 19.5599 15.9898C19.8099 16.2398 19.7999 16.6598 19.6099 16.9198C19.5499 16.9998 19.4599 17.0398 19.3799 17.0998C19.6299 17.2198 19.6899 17.4398 19.7099 17.6798C19.7299 17.8798 19.7199 18.0798 19.8099 18.2898L19.8199 18.2798ZM18.6099 16.2098C18.5099 16.2098 18.4199 16.2098 18.3199 16.2098C18.2599 16.2098 18.2299 16.2298 18.2299 16.2998C18.2299 16.4698 18.2299 16.6398 18.2299 16.8098C18.2299 16.8698 18.2499 16.8898 18.3099 16.8898C18.4899 16.8898 18.6699 16.8898 18.8499 16.8898C19.0699 16.8798 19.1599 16.7898 19.1799 16.5998C19.1999 16.3598 19.0899 16.2198 18.8599 16.2098C18.7799 16.2098 18.6899 16.2098 18.6099 16.2098Z" fill="#6396CD"/>
<path d="M44.51 17.3503C44.4 17.3303 44.29 17.3503 44.18 17.3503C43.96 17.3503 43.97 17.3703 43.98 17.1503C43.98 16.9003 43.95 16.9203 44.21 16.9203C44.44 16.9203 44.68 16.9203 44.91 16.9203C45.03 16.9203 45.04 16.9203 45.04 17.0403C45.04 17.4203 45.04 17.8003 45.04 18.1803C45.04 18.2903 45.04 18.3003 44.91 18.3003C44.84 18.3003 44.76 18.3203 44.7 18.2903C44.63 18.2503 44.66 18.1603 44.63 18.1003C44.63 18.1003 44.62 18.0803 44.61 18.0703C44.58 18.0703 44.57 18.0903 44.55 18.1103C44.35 18.3203 44.1 18.3903 43.82 18.3703C43.58 18.3503 43.36 18.2803 43.17 18.1303C42.93 17.9403 42.79 17.7003 42.73 17.4003C42.64 16.9703 42.69 16.5503 42.96 16.1903C43.17 15.9003 43.46 15.7603 43.81 15.7303C44.06 15.7103 44.3 15.7403 44.52 15.8703C44.78 16.0203 44.94 16.2303 45 16.5203C45.02 16.6103 45.01 16.6203 44.92 16.6203C44.8 16.6203 44.68 16.6203 44.56 16.6203C44.5 16.6203 44.46 16.6003 44.44 16.5403C44.37 16.3503 44.23 16.2303 44.03 16.2103C43.78 16.1803 43.57 16.2603 43.42 16.4703C43.22 16.7703 43.22 17.3203 43.42 17.6203C43.62 17.9003 44.06 17.9703 44.33 17.7503C44.44 17.6603 44.5 17.5303 44.51 17.3603V17.3503Z" fill="#6396CD"/>
<path d="M30.5597 15.7092C31.1697 15.6892 31.6597 16.0992 31.7697 16.7492C31.8197 17.0492 31.7997 17.3392 31.6797 17.6292C31.5397 17.9392 31.3197 18.1692 30.9997 18.2792C30.7197 18.3792 30.4297 18.3792 30.1397 18.2892C29.7997 18.1792 29.5597 17.9592 29.4197 17.6292C29.2497 17.1992 29.2597 16.7792 29.4497 16.3592C29.6297 15.9692 30.0297 15.6792 30.5597 15.7092ZM31.2197 17.0292C31.2197 16.8692 31.1997 16.7092 31.1297 16.5592C31.0297 16.3392 30.8597 16.2092 30.6097 16.1892C30.3297 16.1792 30.1097 16.2692 29.9897 16.5292C29.8497 16.8392 29.8497 17.1592 29.9697 17.4692C30.0597 17.6992 30.2397 17.8392 30.4897 17.8592C30.7297 17.8792 30.9297 17.7992 31.0697 17.5892C31.1897 17.4192 31.2097 17.2192 31.2197 17.0192V17.0292Z" fill="#6396CD"/>
<path d="M11.3397 15.6995C11.4697 15.6995 11.6897 15.7495 11.8897 15.8595C12.1397 15.9995 12.2997 16.2195 12.3897 16.4795C12.5397 16.8995 12.5297 17.3095 12.3197 17.7095C12.1097 18.1095 11.7697 18.2995 11.3297 18.3395C11.0997 18.3595 10.8797 18.3195 10.6697 18.2195C10.2597 18.0195 10.0597 17.6695 9.9997 17.2295C9.9597 16.9495 9.9997 16.6895 10.0997 16.4295C10.3097 15.9295 10.6997 15.6995 11.3297 15.6895L11.3397 15.6995ZM11.9197 17.0295C11.9097 16.8695 11.8897 16.7095 11.8197 16.5595C11.7197 16.3495 11.5597 16.2195 11.3297 16.1995C11.0697 16.1795 10.8497 16.2495 10.7097 16.4895C10.6297 16.6195 10.5997 16.7695 10.5897 16.9195C10.5697 17.1695 10.5997 17.4095 10.7397 17.6195C10.9597 17.9495 11.5197 17.9595 11.7497 17.6295C11.8797 17.4495 11.9097 17.2495 11.9297 17.0295H11.9197Z" fill="#6396CD"/>
<path d="M34.55 17.0098C34.55 16.6398 34.55 16.2598 34.55 15.8898C34.55 15.7698 34.55 15.7598 34.68 15.7598C35.23 15.7598 35.78 15.7598 36.33 15.7598C36.45 15.7598 36.45 15.7598 36.45 15.8798C36.45 15.9598 36.45 16.0498 36.45 16.1298C36.45 16.2298 36.44 16.2398 36.34 16.2398C36.12 16.2398 35.9 16.2398 35.69 16.2398C35.54 16.2398 35.39 16.2398 35.24 16.2398C35.12 16.2398 35.12 16.2398 35.12 16.3698C35.12 16.4698 35.12 16.5598 35.12 16.6598C35.12 16.7598 35.12 16.7698 35.23 16.7698C35.54 16.7698 35.84 16.7698 36.15 16.7698C36.18 16.7698 36.21 16.7698 36.24 16.7698C36.31 16.7698 36.34 16.7998 36.33 16.8698C36.33 16.9498 36.33 17.0298 36.33 17.1098C36.33 17.1798 36.3 17.2098 36.23 17.2098C36.08 17.2098 35.94 17.2098 35.79 17.2098C35.6 17.2098 35.42 17.2098 35.23 17.2098C35.12 17.2098 35.12 17.2098 35.11 17.3298C35.11 17.4398 35.11 17.5598 35.11 17.6698C35.11 17.7998 35.11 17.7998 35.24 17.7998C35.59 17.7998 35.94 17.7998 36.3 17.7998C36.33 17.7998 36.36 17.7998 36.39 17.7998C36.44 17.7998 36.47 17.8298 36.47 17.8798C36.47 17.9898 36.47 18.0898 36.47 18.1998C36.47 18.2598 36.44 18.2798 36.39 18.2798C36.36 18.2798 36.33 18.2798 36.3 18.2798C35.76 18.2798 35.23 18.2798 34.69 18.2798C34.54 18.2798 34.54 18.2798 34.54 18.1298C34.54 17.7598 34.54 17.3798 34.54 17.0098H34.55Z" fill="#6396CD"/>
<path d="M45.4097 17.0198C45.4097 16.6498 45.4097 16.2698 45.4097 15.8998C45.4097 15.7698 45.4097 15.7598 45.5397 15.7598C46.0797 15.7598 46.6297 15.7598 47.1697 15.7598C47.2997 15.7598 47.3097 15.7698 47.3097 15.8998C47.3097 15.9798 47.3097 16.0498 47.3097 16.1298C47.3097 16.2298 47.2997 16.2398 47.1997 16.2398C46.8597 16.2398 46.5097 16.2398 46.1697 16.2398C46.0497 16.2398 45.9897 16.2998 45.9897 16.4198C45.9897 16.4998 45.9897 16.5698 45.9897 16.6498C45.9897 16.7598 45.9897 16.7698 46.1097 16.7698C46.4097 16.7698 46.7097 16.7698 47.0197 16.7698C47.1463 16.7698 47.2097 16.8331 47.2097 16.9598C47.2097 16.9598 47.2097 17.0598 47.2097 17.1098C47.2097 17.1998 47.1997 17.2098 47.0997 17.2198C46.8097 17.2198 46.5197 17.2198 46.2297 17.2198C45.9597 17.2198 45.9997 17.1898 45.9897 17.4598C45.9897 17.5398 45.9897 17.6198 45.9897 17.6998C45.9897 17.7998 45.9997 17.8098 46.0997 17.8098C46.4497 17.8098 46.7997 17.8098 47.1397 17.8098C47.3497 17.8098 47.3397 17.7998 47.3397 18.0098C47.3397 18.0798 47.3397 18.1498 47.3397 18.2198C47.3397 18.2698 47.3097 18.2998 47.2597 18.2998C47.2397 18.2998 47.2097 18.2998 47.1897 18.2998C46.6397 18.2998 46.0997 18.2998 45.5497 18.2998C45.4097 18.2998 45.4097 18.2998 45.4097 18.1598C45.4097 17.7898 45.4097 17.4098 45.4097 17.0398V17.0198Z" fill="#6396CD"/>
<path d="M25.3098 17.4298C25.3698 17.4298 25.4298 17.4298 25.4898 17.4298C25.5598 17.4298 25.5898 17.4598 25.5998 17.5198C25.6198 17.7298 25.7698 17.8298 25.9498 17.8698C26.0698 17.8998 26.1998 17.8898 26.3298 17.8698C26.4098 17.8498 26.4798 17.8198 26.5398 17.7598C26.6298 17.6598 26.6298 17.5398 26.5398 17.4398C26.4898 17.3798 26.4298 17.3498 26.3598 17.3198C26.1698 17.2498 25.9598 17.2198 25.7598 17.1598C25.6498 17.1298 25.5498 17.0898 25.4498 17.0398C25.1798 16.8998 25.0598 16.6298 25.1198 16.3298C25.1598 16.1098 25.2898 15.9398 25.4898 15.8398C25.9098 15.6298 26.3298 15.6398 26.7398 15.8698C26.9498 15.9898 27.0598 16.1998 27.0698 16.4498C27.0698 16.5098 27.0498 16.5298 26.9998 16.5298C26.8698 16.5298 26.7298 16.5298 26.5998 16.5298C26.5598 16.5298 26.5298 16.5098 26.5198 16.4698C26.4298 16.2298 26.3398 16.1598 26.0898 16.1498C25.9998 16.1498 25.9098 16.1598 25.8198 16.1998C25.7298 16.2398 25.6798 16.3198 25.6798 16.4198C25.6798 16.5198 25.7398 16.5798 25.8198 16.6198C25.9498 16.6798 26.0798 16.6998 26.2098 16.7398C26.3798 16.7798 26.5498 16.8198 26.6998 16.8798C26.8498 16.9398 26.9898 17.0398 27.0698 17.1898C27.2498 17.4998 27.1598 17.9898 26.7798 18.1898C26.3398 18.4198 25.8798 18.4098 25.4398 18.1898C25.1898 18.0598 25.0598 17.8298 25.0298 17.5498C25.0198 17.4598 25.0298 17.4398 25.1398 17.4298C25.1998 17.4298 25.2498 17.4298 25.3098 17.4298Z" fill="#6396CD"/>
<path d="M20.04 16.67C20.04 16.41 20.04 16.14 20.04 15.88C20.04 15.76 20.04 15.76 20.16 15.75C20.27 15.75 20.37 15.75 20.48 15.75C20.6 15.75 20.61 15.75 20.61 15.88C20.61 16.18 20.61 16.48 20.61 16.77C20.61 16.96 20.61 17.15 20.61 17.34C20.6 17.74 20.84 17.87 21.2 17.85H21.22C21.5 17.8 21.61 17.68 21.61 17.39C21.61 17.26 21.61 17.12 21.61 16.99C21.61 16.62 21.61 16.25 21.61 15.88C21.61 15.76 21.61 15.75 21.74 15.75C21.85 15.75 21.96 15.75 22.07 15.75C22.17 15.75 22.18 15.76 22.18 15.86C22.18 16.01 22.18 16.17 22.18 16.32C22.18 16.66 22.18 17.01 22.18 17.35C22.18 17.45 22.17 17.56 22.14 17.66C22.06 18 21.84 18.2 21.51 18.29C21.24 18.37 20.97 18.36 20.69 18.29C20.28 18.18 20.02 17.86 20.02 17.43C20.02 17.17 20.02 16.92 20.02 16.66L20.04 16.67Z" fill="#6396CD"/>
<path d="M8.08984 17.0198C8.08984 16.6498 8.08984 16.2898 8.08984 15.9198C8.08984 15.7598 8.08984 15.7598 8.24984 15.7598C8.74984 15.7598 9.23984 15.7598 9.73984 15.7598C9.87984 15.7598 9.87984 15.7598 9.87984 15.8998C9.87984 15.9798 9.87984 16.0498 9.87984 16.1298C9.87984 16.2298 9.86984 16.2398 9.76984 16.2398C9.45984 16.2398 9.14984 16.2398 8.83984 16.2398C8.72651 16.2398 8.66984 16.2998 8.66984 16.4198C8.66984 16.5198 8.66984 16.6098 8.66984 16.7098C8.66984 16.8098 8.66984 16.8098 8.77984 16.8198C9.03984 16.8198 9.29984 16.8198 9.55984 16.8198C9.58984 16.8198 9.61984 16.8198 9.64984 16.8198C9.69984 16.8198 9.72984 16.8498 9.72984 16.8998C9.72984 16.9798 9.72984 17.0698 9.72984 17.1498C9.72984 17.2498 9.71984 17.2598 9.60984 17.2598C9.35984 17.2598 9.10984 17.2598 8.84984 17.2598C8.65984 17.2598 8.66984 17.2498 8.66984 17.4398C8.66984 17.6798 8.66984 17.9298 8.66984 18.1698C8.66984 18.2798 8.66984 18.2898 8.54984 18.2898C8.43984 18.2898 8.31984 18.2898 8.20984 18.2898C8.10984 18.2898 8.09984 18.2798 8.09984 18.1798C8.09984 17.8498 8.09984 17.5298 8.09984 17.1998C8.09984 17.1398 8.09984 17.0898 8.09984 17.0298L8.08984 17.0198Z" fill="#6396CD"/>
<path d="M27.4097 17.02C27.4097 16.64 27.4097 16.26 27.4097 15.88C27.4097 15.75 27.4097 15.75 27.5397 15.75C28.0397 15.75 28.5497 15.75 29.0497 15.75C29.1697 15.75 29.1797 15.75 29.1797 15.88C29.1797 15.95 29.1797 16.03 29.1797 16.1C29.1797 16.23 29.1797 16.24 29.0497 16.24C28.7797 16.24 28.5097 16.24 28.2397 16.24C28.2097 16.24 28.1697 16.24 28.1397 16.24C28.0463 16.24 27.9963 16.29 27.9897 16.39C27.9897 16.49 27.9897 16.6 27.9897 16.7C27.9897 16.8 27.9897 16.81 28.0997 16.81C28.3597 16.81 28.6197 16.81 28.8797 16.81C29.0197 16.81 29.0197 16.81 29.0197 16.95C29.0197 17.01 29.0197 17.08 29.0197 17.14C29.0197 17.24 29.0097 17.24 28.9097 17.24C28.6497 17.24 28.3797 17.24 28.1197 17.24C27.9897 17.24 27.9797 17.24 27.9797 17.37C27.9797 17.63 27.9797 17.88 27.9797 18.14C27.9797 18.26 27.9797 18.27 27.8497 18.27C27.7397 18.27 27.6297 18.27 27.5197 18.27C27.4197 18.27 27.4097 18.26 27.4097 18.16C27.4097 17.8 27.4097 17.45 27.4097 17.09C27.4097 17.06 27.4097 17.04 27.4097 17.01V17.02Z" fill="#6396CD"/>
<path d="M39.8798 17.0298C39.8798 17.3998 39.8798 17.7798 39.8798 18.1498C39.8798 18.2698 39.8798 18.2798 39.7498 18.2798C39.6298 18.2798 39.5098 18.2798 39.3898 18.2798C39.3298 18.2798 39.2998 18.2498 39.2998 18.1898C39.2998 18.1698 39.2998 18.1398 39.2998 18.1198C39.2998 17.3798 39.2998 16.6498 39.2998 15.9098C39.2998 15.8798 39.2998 15.8498 39.2998 15.8198C39.2998 15.7798 39.3298 15.7598 39.3698 15.7598C39.5198 15.7598 39.6598 15.7598 39.8098 15.7598C39.8798 15.7598 39.8798 15.8098 39.8798 15.8598C39.8798 16.0398 39.8798 16.2298 39.8798 16.4098C39.8798 16.6198 39.8798 16.8198 39.8798 17.0298Z" fill="#6396CD"/>
<path d="M7.2901 14.7109H7.1001V19.0909H7.2901V14.7109Z" fill="#F28F1F"/>
</svg>
