<svg width="52" height="36" viewBox="0 0 52 36" fill="none" xmlns="http://www.w3.org/2000/svg">
<g clip-path="url(#clip0_2280_4039)">
<rect width="52" height="36" rx="4" fill="white"/>
<path d="M47.3198 0.550781H4.6798C2.53694 0.550781 0.799805 2.28792 0.799805 4.43078V31.5608C0.799805 33.7036 2.53694 35.4408 4.6798 35.4408H47.3198C49.4627 35.4408 51.1998 33.7036 51.1998 31.5608V4.43078C51.1998 2.28792 49.4627 0.550781 47.3198 0.550781Z" fill="white"/>
<path d="M8.79025 20.0194C10.1703 19.7594 11.2103 18.5494 11.2103 17.0894C11.2103 15.4494 9.88025 14.1094 8.23025 14.1094C7.63025 14.1094 7.07025 14.2894 6.60025 14.5894C5.86025 15.0694 5.35025 15.8794 5.26025 16.8094H8.49025C8.49025 16.8994 8.50025 16.9894 8.50025 17.0894C8.50025 18.2194 7.97025 19.2194 7.15025 19.8694C7.48025 19.9994 7.84025 20.0694 8.22025 20.0694C8.41025 20.0694 8.60025 20.0494 8.78025 20.0194H8.79025Z" fill="#0043F3"/>
<path d="M6.60023 19.5891C6.13023 19.8991 5.57023 20.0691 4.97023 20.0691C3.33023 20.0691 1.99023 18.7391 1.99023 17.0891C1.99023 15.8391 2.76023 14.7691 3.86023 14.3291C4.20023 14.1891 4.58023 14.1191 4.97023 14.1191C5.36023 14.1191 5.71023 14.1891 6.04023 14.3191C5.22023 14.9691 4.69023 15.9691 4.69023 17.0991C4.69023 17.1891 4.69023 17.2891 4.70023 17.3791H7.93023C7.84023 18.3091 7.33023 19.1091 6.59023 19.5991L6.60023 19.5891Z" fill="#0043F3"/>
<path d="M17.3903 20.07C16.9703 20.07 16.5903 19.99 16.2403 19.83C15.9003 19.66 15.6103 19.44 15.3603 19.17C15.1203 18.89 14.9303 18.58 14.7903 18.24C14.6503 17.89 14.5903 17.53 14.5903 17.16C14.5903 16.79 14.6603 16.41 14.8003 16.07C14.9403 15.72 15.1403 15.41 15.3903 15.14C15.6403 14.86 15.9403 14.65 16.2803 14.49C16.6303 14.33 17.0003 14.25 17.4103 14.25C17.8203 14.25 18.2003 14.33 18.5403 14.5C18.8903 14.67 19.1803 14.89 19.4203 15.17C19.6703 15.45 19.8603 15.77 19.9903 16.12C20.1303 16.47 20.1903 16.82 20.1903 17.18C20.1903 17.54 20.1203 17.9 19.9903 18.25C19.8603 18.59 19.6803 18.89 19.4403 19.16L20.2303 20.04H19.1803L18.8403 19.67C18.6303 19.8 18.4103 19.9 18.1603 19.98C17.9203 20.05 17.6603 20.09 17.3903 20.09V20.07ZM17.3903 19.08C17.5403 19.08 17.6703 19.06 17.8003 19.03C17.9303 18.99 18.0503 18.94 18.1603 18.88L17.2803 17.89H18.3303L18.7303 18.34C18.8403 18.17 18.9203 17.98 18.9803 17.77C19.0403 17.56 19.0703 17.36 19.0703 17.15C19.0703 16.82 19.0003 16.5 18.8703 16.21C18.7303 15.92 18.5403 15.68 18.2903 15.5C18.0403 15.32 17.7403 15.22 17.4003 15.22C17.0603 15.22 16.7303 15.31 16.4803 15.5C16.2303 15.69 16.0403 15.93 15.9103 16.23C15.7803 16.53 15.7203 16.83 15.7203 17.15C15.7203 17.48 15.7803 17.8 15.9103 18.09C16.0503 18.38 16.2403 18.62 16.4903 18.8C16.7403 18.98 17.0503 19.08 17.4003 19.08H17.3903Z" fill="#404040"/>
<path d="M25.4204 15.1894V14.1094H26.5104V15.1894H25.4204ZM25.4204 20.0294V15.7894H26.5104V20.0294H25.4204Z" fill="#404040"/>
<path d="M29.4604 20.109C29.0004 20.109 28.6005 20.009 28.2705 19.799C27.9405 19.589 27.6804 19.319 27.4904 18.989C27.3104 18.659 27.2104 18.289 27.2104 17.899C27.2104 17.509 27.3004 17.139 27.4804 16.809C27.6604 16.479 27.9205 16.209 28.2605 16.009C28.5905 15.809 28.9905 15.709 29.4505 15.709C29.9105 15.709 30.3104 15.809 30.6304 16.009C30.9604 16.209 31.2105 16.469 31.3705 16.799L30.3104 17.119C30.1204 16.799 29.8305 16.629 29.4405 16.629C29.2305 16.629 29.0405 16.679 28.8705 16.789C28.7005 16.889 28.5704 17.039 28.4704 17.239C28.3704 17.429 28.3204 17.649 28.3204 17.899C28.3204 18.149 28.3704 18.369 28.4704 18.559C28.5704 18.749 28.7104 18.899 28.8804 19.009C29.0504 19.119 29.2305 19.169 29.4405 19.169C29.6305 19.169 29.8104 19.119 29.9704 19.029C30.1404 18.929 30.2504 18.809 30.3204 18.669L31.3804 18.989C31.2304 19.309 30.9904 19.569 30.6504 19.779C30.3204 19.989 29.9205 20.089 29.4505 20.089L29.4604 20.109Z" fill="#404040"/>
<path d="M34.6903 20.0291L33.4503 18.1991L32.8703 18.7691V20.0291H31.7803V14.1191H32.8703V17.6991L34.5803 15.7991H35.7303L34.1503 17.5991L35.8403 20.0391H34.6803L34.6903 20.0291Z" fill="#404040"/>
<path d="M38.6604 20.109C38.3304 20.109 38.0303 20.029 37.7803 19.879C37.5303 19.729 37.3404 19.529 37.2004 19.279V21.749H36.1104V15.779H37.0604V16.509C37.2204 16.259 37.4203 16.069 37.6703 15.929C37.9203 15.779 38.2103 15.709 38.5303 15.709C38.9103 15.709 39.2504 15.809 39.5504 16.009C39.8504 16.199 40.0803 16.469 40.2603 16.799C40.4303 17.129 40.5204 17.489 40.5204 17.889C40.5204 18.289 40.4403 18.679 40.2803 19.019C40.1203 19.349 39.9003 19.609 39.6203 19.809C39.3403 19.999 39.0304 20.099 38.6604 20.099V20.109ZM38.3004 19.189C38.5204 19.189 38.7104 19.129 38.8804 19.009C39.0504 18.889 39.1804 18.729 39.2704 18.529C39.3704 18.329 39.4203 18.119 39.4203 17.899C39.4203 17.659 39.3704 17.449 39.2704 17.259C39.1704 17.069 39.0303 16.909 38.8503 16.809C38.6803 16.699 38.4804 16.639 38.2504 16.639C38.0404 16.639 37.8404 16.709 37.6304 16.839C37.4204 16.969 37.2904 17.149 37.2204 17.349V18.349C37.3204 18.589 37.4703 18.789 37.6703 18.949C37.8703 19.109 38.0904 19.189 38.3204 19.189H38.3004Z" fill="#404040"/>
<path d="M46.2204 20.8591C46.4204 20.9091 46.5804 20.9391 46.7104 20.9391C46.8604 20.9391 46.9704 20.8791 47.0604 20.7491C47.1504 20.6291 47.2504 20.3891 47.3704 20.0291L45.6904 15.7891H46.8204L47.9604 18.9191L48.9604 15.7891H50.0004L48.2204 20.8791C48.1204 21.1691 47.9504 21.4091 47.6904 21.5991C47.4404 21.7891 47.1304 21.8891 46.7704 21.8891C46.5904 21.8891 46.4104 21.8591 46.2304 21.7991V20.8591H46.2204Z" fill="#404040"/>
<path d="M42.7101 20.0802C43.0501 20.0802 43.3401 20.0102 43.5901 19.8602C43.8401 19.7102 44.0401 19.5102 44.1801 19.2702V20.0102H45.2701V15.8202H44.3201V16.5402C44.1601 16.2902 43.9601 16.1002 43.7101 15.9602C43.4501 15.8202 43.1701 15.7402 42.8501 15.7402C42.4601 15.7402 42.1201 15.8402 41.8201 16.0402C41.5201 16.2302 41.2901 16.4902 41.1101 16.8202C40.9401 17.1502 40.8501 17.5102 40.8501 17.9002C40.8501 18.2902 40.9301 18.6802 41.0901 19.0102C41.2501 19.3402 41.4701 19.6002 41.7501 19.7902C42.0301 19.9802 42.3501 20.0802 42.7101 20.0802ZM43.0801 19.1702C42.8601 19.1702 42.6601 19.1102 42.5001 18.9902C42.3301 18.8702 42.2001 18.7102 42.1101 18.5202C42.0101 18.3202 41.9601 18.1102 41.9601 17.9002C41.9601 17.6702 42.0101 17.4502 42.1101 17.2702C42.2101 17.0802 42.3501 16.9302 42.5301 16.8202C42.7001 16.7102 42.9001 16.6502 43.1301 16.6502C43.3401 16.6502 43.5401 16.7202 43.7501 16.8502C43.9601 16.9802 44.0901 17.1502 44.1701 17.3502V18.3302C44.0701 18.5602 43.9201 18.7602 43.7201 18.9202C43.5201 19.0802 43.3001 19.1602 43.0701 19.1602L43.0801 19.1702Z" fill="#404040"/>
<path d="M20.7004 15.8086H21.7804V18.1586C21.7804 18.4986 21.8404 18.7386 21.9604 18.8986C22.0804 19.0486 22.2404 19.1286 22.4504 19.1286C22.5904 19.1286 22.7404 19.0886 22.8904 19.0186C23.0304 18.9486 23.1704 18.8386 23.2804 18.7086C23.4004 18.5786 23.4804 18.4286 23.5404 18.2586V15.8086H24.6204V20.0086H23.6504V19.2286C23.4904 19.4886 23.2704 19.6986 22.9704 19.8486C22.6704 19.9986 22.3404 20.0786 21.9704 20.0786C21.7104 20.0786 21.4904 20.0286 21.3304 19.9386C21.1604 19.8486 21.0304 19.7186 20.9404 19.5586C20.8504 19.4086 20.7904 19.2286 20.7504 19.0286C20.7104 18.8286 20.6904 18.6286 20.6904 18.4286V15.8086H20.7004Z" fill="#404040"/>
</g>
<rect x="0.5" y="0.5" width="51" height="35" rx="3.5" stroke="#EAEAEA"/>
<defs>
<clipPath id="clip0_2280_4039">
<rect width="52" height="36" rx="4" fill="white"/>
</clipPath>
</defs>
</svg>
