<svg width="52" height="36" viewBox="0 0 52 36" fill="none" xmlns="http://www.w3.org/2000/svg">
<rect x="0.5" y="0.5" width="51" height="35" rx="3.5" fill="white"/>
<rect x="0.5" y="0.5" width="51" height="35" rx="3.5" stroke="#EAEAEA"/>
<path d="M4.72986 16.2805V16.7505C4.72986 16.7505 4.72986 16.7805 4.71986 16.7805C4.70986 16.7905 4.69986 16.7905 4.68986 16.7905H2.69986V17.7405H4.33986C4.33986 17.7405 4.36986 17.7405 4.36986 17.7505C4.36986 17.7605 4.38986 17.7705 4.37986 17.7805V18.2505C4.37986 18.2505 4.37986 18.2805 4.36986 18.2805C4.35986 18.2805 4.34986 18.3005 4.33986 18.2905H2.69986V19.6905C2.69986 19.6905 2.69986 19.7205 2.68986 19.7205C2.67986 19.7305 2.66986 19.7405 2.65986 19.7305H2.15986C2.15986 19.7305 2.12986 19.7305 2.12986 19.7205C2.11986 19.7105 2.10986 19.7005 2.11986 19.6905V16.2705C2.11986 16.2705 2.11986 16.2405 2.12986 16.2405C2.13986 16.2405 2.14986 16.2305 2.15986 16.2305H4.69986C4.69986 16.2305 4.72986 16.2305 4.73986 16.2405C4.73986 16.2405 4.73986 16.2605 4.73986 16.2705L4.72986 16.2805Z" fill="#647888"/>
<path d="M8.79008 19.7605H8.24008C8.24008 19.7605 8.19008 19.7405 8.18008 19.7105C8.10008 19.4205 8.02008 19.1205 7.92008 18.8105H6.23008C6.13008 19.1205 6.04008 19.4205 5.97008 19.7105C5.97008 19.7405 5.94008 19.7605 5.91008 19.7605H5.38008C5.38008 19.7605 5.33008 19.7405 5.33008 19.7005C5.67008 18.5305 6.10008 17.3905 6.62008 16.2905C6.63008 16.2505 6.67008 16.2205 6.72008 16.2305H7.44008C7.44008 16.2305 7.52008 16.2505 7.54008 16.2905C8.06008 17.3905 8.49008 18.5305 8.83008 19.7005C8.84008 19.7405 8.83008 19.7605 8.78008 19.7605H8.79008ZM7.74008 18.2705C7.55008 17.7605 7.35008 17.2505 7.14008 16.7805H7.02008C6.81008 17.2505 6.61008 17.7505 6.42008 18.2705H7.74008Z" fill="#647888"/>
<path d="M9.69969 18.0299C9.69969 16.9299 10.4197 16.1699 11.4497 16.1699H11.5297C12.1797 16.1699 12.6797 16.4999 12.9397 16.9699C12.9497 16.9799 12.9497 16.9899 12.9497 17.0099C12.9497 17.0199 12.9397 17.0299 12.9197 17.0399L12.4797 17.2599C12.4797 17.2599 12.4497 17.2699 12.4297 17.2699C12.4097 17.2699 12.3997 17.2499 12.3897 17.2399C12.1997 16.9199 11.9197 16.7399 11.5097 16.7399H11.4297C10.7797 16.7399 10.3297 17.2499 10.3297 17.9999C10.3297 18.7499 10.7697 19.2499 11.4297 19.2499H11.5097C11.9397 19.2499 12.1797 19.0999 12.3697 18.8899C12.3897 18.8699 12.4197 18.8599 12.4497 18.8699L12.8997 19.0899C12.8997 19.0899 12.9197 19.1099 12.9197 19.1199C12.9197 19.1299 12.9197 19.1499 12.8997 19.1499C12.6197 19.5599 12.1097 19.8099 11.4997 19.8099H11.4197C10.3797 19.8099 9.67969 19.0899 9.67969 18.0099L9.69969 18.0299Z" fill="#647888"/>
<path d="M16.9497 19.2502V19.7202C16.9497 19.7202 16.9497 19.7502 16.9397 19.7502C16.9297 19.7502 16.9197 19.7702 16.9097 19.7602H14.2597C14.2597 19.7602 14.2297 19.7602 14.2297 19.7502C14.2197 19.7402 14.2197 19.7302 14.2197 19.7202V16.2902C14.2197 16.2902 14.2197 16.2602 14.2297 16.2602C14.2397 16.2502 14.2497 16.2402 14.2597 16.2502H16.8597C16.8597 16.2502 16.8897 16.2502 16.8897 16.2602C16.8897 16.2702 16.9097 16.2802 16.8997 16.2902V16.7602C16.8997 16.7602 16.8997 16.7902 16.8897 16.7902C16.8797 16.8002 16.8697 16.8002 16.8597 16.8002H14.8097V17.7202H16.4797C16.4797 17.7202 16.5097 17.7202 16.5097 17.7302C16.5197 17.7402 16.5297 17.7502 16.5197 17.7602V18.2202C16.5197 18.2202 16.5197 18.2502 16.5097 18.2502C16.4997 18.2602 16.4897 18.2702 16.4797 18.2602H14.8097V19.1802H16.9097C16.9097 19.1802 16.9397 19.1802 16.9397 19.1902C16.9597 19.2102 16.9597 19.2202 16.9597 19.2402L16.9497 19.2502Z" fill="#647888"/>
<path d="M21.5099 18.8006C21.5099 19.4206 21.0399 19.7706 20.1999 19.7706H18.4599C18.4599 19.7706 18.4299 19.7706 18.4299 19.7606C18.4199 19.7506 18.4199 19.7406 18.4199 19.7306V16.3006C18.4199 16.3006 18.4199 16.2706 18.4299 16.2706C18.4399 16.2706 18.4499 16.2506 18.4599 16.2606H20.0399C20.8599 16.2606 21.2999 16.5806 21.2999 17.1706C21.2999 17.5606 21.0999 17.8106 20.7099 17.9306C21.2699 18.0406 21.5099 18.3806 21.5099 18.8106V18.8006ZM20.0299 16.7906H19.0099V17.7406H20.0299C20.4799 17.7406 20.6899 17.5906 20.6899 17.2706C20.6899 16.9406 20.4899 16.7906 20.0299 16.7906ZM20.8899 18.7506C20.8899 18.4206 20.6699 18.2706 20.1999 18.2706H19.0099V19.2206H20.1999C20.6799 19.2206 20.8899 19.0806 20.8899 18.7506Z" fill="#647888"/>
<path d="M22.5698 17.9999C22.5698 16.9299 23.2798 16.1699 24.3898 16.1699H24.4698C25.5798 16.1699 26.2898 16.9399 26.2898 17.9999C26.2898 19.0599 25.5798 19.8299 24.4698 19.8299H24.3898C23.2798 19.8299 22.5698 19.0699 22.5698 17.9999ZM24.4598 19.2599C25.1798 19.2599 25.6398 18.7599 25.6398 17.9999C25.6398 17.2399 25.1898 16.7399 24.4598 16.7399H24.3798C23.6598 16.7399 23.1998 17.2399 23.1998 17.9999C23.1998 18.7599 23.6498 19.2599 24.3798 19.2599H24.4598Z" fill="#647888"/>
<path d="M27.3101 17.9999C27.3101 16.9299 28.0201 16.1699 29.1301 16.1699H29.2101C30.3201 16.1699 31.0301 16.9399 31.0301 17.9999C31.0301 19.0599 30.3201 19.8299 29.2101 19.8299H29.1301C28.0201 19.8299 27.3101 19.0699 27.3101 17.9999ZM29.2001 19.2599C29.9201 19.2599 30.3801 18.7599 30.3801 17.9999C30.3801 17.2399 29.9301 16.7399 29.2001 16.7399H29.1201C28.4001 16.7399 27.9401 17.2399 27.9401 17.9999C27.9401 18.7599 28.3901 19.2599 29.1201 19.2599H29.2001Z" fill="#647888"/>
<path d="M35.36 19.7608H34.71C34.71 19.7608 34.64 19.7508 34.62 19.7208C34.17 19.2008 33.68 18.7108 33.16 18.2608H32.87V19.7208C32.87 19.7208 32.87 19.7508 32.86 19.7508C32.85 19.7608 32.84 19.7708 32.83 19.7608H32.33C32.33 19.7608 32.3 19.7608 32.3 19.7508C32.29 19.7408 32.29 19.7308 32.29 19.7208V16.2908C32.29 16.2908 32.29 16.2608 32.3 16.2608C32.31 16.2608 32.32 16.2408 32.33 16.2508H32.83C32.83 16.2508 32.86 16.2508 32.86 16.2608C32.86 16.2708 32.88 16.2808 32.87 16.2908V17.6808H33.17C33.65 17.2508 34.09 16.7808 34.49 16.2808C34.51 16.2608 34.54 16.2408 34.57 16.2508H35.19C35.19 16.2508 35.24 16.2708 35.24 16.2808C35.24 16.2908 35.24 16.3108 35.22 16.3108C34.74 16.9008 34.22 17.4508 33.65 17.9508C34.29 18.4908 34.87 19.0708 35.41 19.7008C35.44 19.7308 35.43 19.7608 35.38 19.7608H35.36Z" fill="#647888"/>
<path d="M41.3699 16.379C41.5599 16.469 41.7199 16.619 41.8199 16.809C41.9099 16.979 41.9499 17.169 41.9499 17.369C41.9499 17.589 41.8999 17.799 41.7899 17.989C41.6799 18.169 41.5199 18.319 41.3199 18.399C41.0799 18.499 40.8099 18.559 40.5499 18.549H39.5499V19.719C39.5499 19.719 39.5499 19.749 39.5399 19.759C39.5299 19.769 39.5199 19.779 39.4999 19.769H38.9999C38.9999 19.769 38.9699 19.769 38.9599 19.759C38.9499 19.749 38.9399 19.739 38.9499 19.719V16.269C38.9499 16.269 38.9499 16.239 38.9599 16.229C38.9699 16.219 38.9799 16.209 38.9999 16.219H40.5599C40.8999 16.219 41.1699 16.279 41.3799 16.389L41.3699 16.379ZM41.1699 17.819C41.2799 17.699 41.3399 17.529 41.3299 17.369C41.3299 16.969 41.0899 16.759 40.5999 16.759H39.5499V17.989H40.5999C40.8699 17.989 41.0599 17.929 41.1699 17.819Z" fill="#333F48"/>
<path d="M46.0301 19.7292C46.0301 19.7292 46.0101 19.7592 45.9801 19.7592H45.4301C45.4301 19.7592 45.3801 19.7392 45.3701 19.7092C45.2901 19.4092 45.2101 19.1092 45.1101 18.7992H43.4101C43.3101 19.1192 43.2201 19.4192 43.1501 19.7092C43.1501 19.7392 43.1201 19.7592 43.0901 19.7592H42.5601C42.5601 19.7592 42.5301 19.7592 42.5201 19.7392C42.5201 19.7292 42.5101 19.7092 42.5201 19.6992C42.6801 19.1492 42.8701 18.5792 43.1001 17.9792C43.3301 17.3892 43.5701 16.8092 43.8201 16.2692C43.8301 16.2492 43.8401 16.2392 43.8601 16.2192C43.8801 16.2092 43.8901 16.1992 43.9201 16.1992H44.6401C44.6401 16.1992 44.6801 16.1992 44.7001 16.2192C44.7201 16.2292 44.7301 16.2492 44.7401 16.2692C44.9901 16.7992 45.2301 17.3692 45.4601 17.9692C45.6901 18.5692 45.8801 19.1492 46.0401 19.7092C46.0401 19.7192 46.0401 19.7292 46.0401 19.7292H46.0301ZM44.9201 18.2692C44.7301 17.7392 44.5201 17.2392 44.3201 16.7792H44.2001C43.9801 17.2592 43.7801 17.7592 43.5901 18.2692H44.9101H44.9201Z" fill="#333F48"/>
<path d="M49.8998 16.249C49.8998 16.249 49.8998 16.279 49.8898 16.289C49.4898 17.059 49.0498 17.799 48.5498 18.499V19.699C48.5498 19.699 48.5498 19.729 48.5398 19.739C48.5298 19.749 48.5198 19.759 48.4998 19.749H47.9798C47.9798 19.749 47.9498 19.749 47.9398 19.739C47.9298 19.729 47.9198 19.719 47.9298 19.699V18.499C47.4298 17.789 46.9698 17.049 46.5798 16.289C46.5798 16.279 46.5698 16.259 46.5698 16.249C46.5698 16.229 46.5898 16.209 46.6298 16.209H47.1398C47.1398 16.209 47.1798 16.209 47.1998 16.219C47.2198 16.229 47.2298 16.249 47.2298 16.269C47.4998 16.799 47.8298 17.359 48.1998 17.949H48.2898C48.6498 17.409 48.9698 16.849 49.2598 16.269C49.2598 16.249 49.2798 16.239 49.2898 16.219C49.3098 16.209 49.3298 16.209 49.3498 16.209H49.8298C49.8298 16.209 49.8898 16.209 49.8898 16.239L49.8998 16.249Z" fill="#333F48"/>
</svg>
