<svg width="52" height="36" viewBox="0 0 52 36" fill="none" xmlns="http://www.w3.org/2000/svg">
<rect x="0.5" y="0.5" width="51" height="35" rx="3.5" fill="white"/>
<rect x="0.5" y="0.5" width="51" height="35" rx="3.5" stroke="#EAEAEA"/>
<path d="M15.8102 8.16992H11.1302C9.06016 8.26992 7.37016 9.09992 6.88016 10.8199C6.63016 11.7199 6.49016 12.6999 6.29016 13.6299C5.28016 18.3499 4.38016 23.2099 3.41016 27.8399H39.8602C42.6802 27.8399 44.6102 27.2399 45.1402 25.0099C45.3802 23.9699 45.6202 22.7899 45.8502 21.6499C46.7602 17.1999 47.6602 12.7499 48.5902 8.16992H15.8102Z" fill="#B42126"/>
<path d="M34.6203 19.9191C34.1103 20.4091 32.7004 20.5591 32.8404 19.3691C32.9604 18.3891 34.0303 18.1791 35.1903 18.3191C35.1003 18.8591 35.0003 19.5391 34.6203 19.9191ZM33.0204 16.0891C32.9704 16.3591 32.9004 16.6091 32.8404 16.8691C33.4204 16.7191 35.2204 16.2791 35.4004 17.0491C35.4604 17.3091 35.3604 17.5791 35.2904 17.7791C33.6604 17.6291 32.3304 17.8991 31.9804 19.0591C31.7504 19.8391 32.0104 20.5991 32.5004 20.8191C33.4604 21.2291 34.6304 20.7591 35.0303 20.1091C34.9903 20.3291 34.9503 20.5591 34.9604 20.8391H35.8004C35.8004 20.0291 35.9303 19.3791 36.0504 18.6491C36.1604 18.0291 36.3604 17.4191 36.3204 16.8691C36.2504 15.6191 34.1703 16.0591 33.0103 16.0891H33.0204ZM41.4804 20.3091C40.8204 20.3191 40.4903 19.9191 40.4804 19.2391C40.4504 18.0491 40.9703 16.7291 42.0303 16.6191C42.5204 16.5591 42.8804 16.6791 43.2404 16.7991C42.9104 18.1291 43.0303 20.2791 41.4804 20.3091ZM43.6703 14.0391C43.5903 14.7791 43.4704 15.4891 43.3304 16.1591C40.9204 15.3991 39.4504 17.1691 39.4704 19.3491C39.4704 19.7691 39.5504 20.1891 39.8104 20.4891C40.2704 21.0091 41.5704 21.1291 42.2304 20.6991C42.3604 20.6191 42.4903 20.4591 42.5704 20.3591C42.6304 20.2791 42.7304 20.0691 42.7504 20.1291C42.7204 20.3591 42.6604 20.5791 42.6604 20.8391H43.5504C43.7203 18.3791 44.2504 16.2791 44.6504 14.0391H43.6703ZM18.5504 19.9491C18.0303 20.5091 16.7304 20.4991 16.6304 19.5591C16.5904 19.1491 16.7404 18.7291 16.8104 18.3091C16.8904 17.8791 16.9404 17.4691 17.0204 17.0991C17.5404 16.4691 19.0604 16.3891 19.2104 17.4391C19.3404 18.3491 18.9804 19.4891 18.5504 19.9491ZM19.3304 16.0891C18.5004 15.7791 17.4903 16.1491 17.0504 16.4991C17.0504 16.5191 17.0404 16.5191 17.0304 16.5191C17.0304 16.5191 17.0504 16.5091 17.0504 16.4991C17.0504 16.3491 17.1104 16.2391 17.1204 16.0891H16.2804C15.9304 18.4291 15.5104 20.7091 15.0704 22.9591H16.0504C16.1904 22.0791 16.2904 21.1591 16.4804 20.3391C16.7004 21.1991 18.1704 21.0391 18.7804 20.7091C20.0504 20.0191 21.0404 16.7391 19.3304 16.0991V16.0891ZM23.9804 17.7291H21.6804C21.7504 17.1991 22.2304 16.6191 22.9804 16.5891C23.6903 16.5591 24.1903 16.8491 23.9804 17.7291ZM23.0404 15.9991C22.3304 16.0491 21.7304 16.2591 21.3104 16.7091C20.7903 17.2591 20.3604 18.4791 20.4904 19.5791C20.6704 21.1591 22.6304 21.0991 24.2104 20.7191C24.2404 20.4391 24.3004 20.2091 24.3504 19.9391C23.7004 20.1791 22.5804 20.5191 21.9104 20.0991C21.4104 19.7791 21.4004 18.9791 21.5704 18.2691C22.6304 18.2391 23.7304 18.2391 24.7904 18.2691C24.8604 17.7691 25.0504 17.2291 24.8804 16.7391C24.6604 16.0891 23.8603 15.9191 23.0504 15.9891L23.0404 15.9991ZM14.4204 16.0891C14.4204 16.0891 14.4004 16.1291 14.4004 16.1591C14.1804 17.7791 13.8904 19.3191 13.5804 20.8391H14.5604C14.8004 19.2091 15.0704 17.6191 15.4004 16.0891H14.4204ZM40.0204 16.1091C39.1504 15.6791 38.4304 16.3991 38.1504 16.8391C38.2304 16.6191 38.2304 16.3191 38.3104 16.0891H37.4403C37.2104 17.7191 36.9203 19.2991 36.6003 20.8391H37.6003C37.6003 20.2091 37.7304 19.7491 37.8304 19.1291C38.0404 17.8091 38.3504 16.3691 39.8804 16.7991C39.9304 16.5791 39.9504 16.3191 40.0204 16.1191V16.1091ZM29.0004 19.7091C28.9104 19.4791 28.8904 19.0891 28.9104 18.7991C28.9604 18.1391 29.2003 17.3391 29.5704 16.9691C30.0804 16.4691 31.0904 16.5491 31.9004 16.8291C31.9304 16.5591 31.9803 16.3191 32.0103 16.0491C30.6903 15.8291 29.4404 15.9691 28.7704 16.6691C28.1204 17.3491 27.6904 18.9191 27.9904 19.9091C28.3404 21.0691 29.9303 21.1291 31.2104 20.6891C31.2703 20.4591 31.3004 20.1991 31.3504 19.9591C30.6504 20.3191 29.3104 20.5091 29.0004 19.7091ZM28.4504 16.0791C27.5804 15.7291 26.9004 16.3191 26.5804 16.8791C26.6504 16.6291 26.6804 16.3391 26.7404 16.0791H25.8704C25.6604 17.7191 25.3503 19.2691 25.0504 20.8291H26.0304C26.1704 19.8991 26.2304 18.6591 26.5304 17.7691C26.7704 17.0591 27.4104 16.4591 28.3304 16.7891C28.3404 16.5291 28.4204 16.3291 28.4404 16.0791H28.4504ZM12.6404 14.1591C12.5004 15.0691 12.3404 15.9591 12.1804 16.8491C11.1604 16.8591 10.1304 16.8991 9.15035 16.8291C9.34035 15.9591 9.47035 15.0291 9.65035 14.1591H8.55035C8.16035 16.3791 7.80035 18.6391 7.36035 20.8191H8.48035C8.66035 19.6991 8.82035 18.5691 9.05035 17.5091C10.0004 17.4891 11.1504 17.4491 12.0604 17.5291C11.8704 18.6291 11.6404 19.6991 11.4704 20.8191H12.5904C12.9504 18.5591 13.3304 16.3291 13.7804 14.1591H12.6404ZM15.4204 15.1591C15.6204 15.0291 15.8704 14.4091 15.5804 14.1591C15.4904 14.0791 15.3404 14.0591 15.1204 14.0891C14.9204 14.1191 14.8104 14.1891 14.7304 14.2991C14.6104 14.4691 14.4904 14.9791 14.6804 15.1691C14.8704 15.3491 15.2904 15.2591 15.4104 15.1691L15.4204 15.1591Z" fill="white"/>
</svg>
