<svg width="52" height="36" viewBox="0 0 52 36" fill="none" xmlns="http://www.w3.org/2000/svg">
<rect x="0.5" y="0.5" width="51" height="35" rx="3.5" fill="white"/>
<rect x="0.5" y="0.5" width="51" height="35" rx="3.5" stroke="#EAEAEA"/>
<path d="M11.3298 7.75008C12.7798 6.22008 14.7098 5.33008 16.9698 5.33008C21.3798 5.33008 24.2998 8.55008 24.8598 13.3701C25.0398 14.9401 25.0398 17.1401 25.0398 19.7001C25.0398 19.9601 25.0398 20.2301 25.0398 20.5001V30.0801H18.9798V23.0001C18.9798 23.0001 18.9698 16.9401 18.9298 15.8001C18.7698 10.8701 15.8498 7.76008 11.3298 7.76008C9.96983 9.20008 9.23983 10.9601 9.12983 13.6501C9.11983 14.0301 9.11983 15.3501 9.12983 17.1101C9.12983 18.0201 9.12983 19.0401 9.12983 20.1001C9.12983 24.7201 9.12983 30.0901 9.12983 30.0901H3.06983V19.1901C3.06983 18.8201 3.06983 18.4401 3.05983 18.0601C3.04983 17.3001 3.02983 16.5301 3.06983 15.7701C3.13983 14.5001 3.35983 13.2601 3.94983 12.1101C5.29983 9.46008 8.06983 7.76008 11.0198 7.76008C11.1198 7.76008 11.2298 7.76008 11.3298 7.76008V7.75008Z" fill="#800ACF"/>
<path d="M48.93 20.2399C48.97 19.4799 48.96 18.7099 48.94 17.9499C48.94 17.5699 48.93 17.1999 48.93 16.8199V5.91992H42.87C42.87 5.91992 42.87 11.2899 42.87 15.9099C42.87 16.9699 42.87 17.9899 42.87 18.8999C42.87 20.6499 42.87 21.9799 42.87 22.3599C42.76 25.0499 42.03 26.8099 40.67 28.2499C36.16 28.2499 33.24 25.1499 33.07 20.2099C33.03 19.0799 33.02 16.2699 33.02 13.0099V5.92992H26.96V15.5099C26.96 15.7799 26.96 16.0399 26.96 16.3099C26.96 18.8699 26.96 21.0699 27.14 22.6399C27.7 27.4599 30.62 30.6799 35.03 30.6799C37.29 30.6799 39.22 29.7899 40.67 28.2599C40.77 28.2599 40.88 28.2599 40.98 28.2599C43.93 28.2599 46.7 26.5599 48.05 23.9099C48.64 22.7499 48.86 21.5099 48.93 20.2399Z" fill="#800ACF"/>
</svg>
