<svg width="52" height="36" viewBox="0 0 52 36" fill="none" xmlns="http://www.w3.org/2000/svg">
<rect x="0.5" y="0.5" width="51" height="35" rx="3.5" fill="white"/>
<rect x="0.5" y="0.5" width="51" height="35" rx="3.5" stroke="#EAEAEA"/>
<path d="M45.8396 15.8602C46.9296 15.8602 47.3696 16.6202 47.3696 17.1402H44.2996C44.2996 16.6102 44.7496 15.8602 45.8296 15.8602M47.1196 19.4902C46.9196 19.8902 46.4496 20.1502 45.8396 20.1502C44.6996 20.1502 44.2496 19.3402 44.2396 18.6102H49.8996C49.9196 18.5102 49.9596 18.2202 49.9596 17.9902C49.9596 15.4302 48.1996 13.9902 45.8196 13.9902C43.3096 13.9902 41.5596 15.4302 41.5596 17.9902C41.5596 20.5502 43.3096 21.9902 45.8296 21.9902C48.3496 21.9902 49.4696 20.6202 49.7896 19.4802H47.1196V19.4902Z" fill="#221C46"/>
<path d="M6.38978 19.7003C5.36978 19.7003 4.64979 18.9703 4.64979 18.0003C4.64979 17.0303 5.32978 16.3003 6.38978 16.3003C7.44978 16.3003 8.12979 17.0803 8.12979 18.0003C8.12979 18.9203 7.43979 19.7003 6.38978 19.7003ZM7.14979 14.0703C6.02979 14.0703 5.07979 14.5603 4.57979 15.1403V14.2203H2.02979V24.7803H4.65979V21.0003C5.27979 21.6603 6.12979 21.9203 6.99979 21.9203C9.59979 21.9203 10.8098 19.9503 10.8098 18.0003C10.8098 15.5803 9.25978 14.0803 7.14979 14.0803" fill="#221C46"/>
<path d="M14.3099 11.2109H11.6699V21.7709H14.3099V11.2109Z" fill="#221C46"/>
<path d="M20.6699 14.2305V18.1505C20.6699 18.7405 20.5899 19.0305 20.3399 19.3205C20.0999 19.6005 19.7399 19.7305 19.3299 19.7305C18.9199 19.7305 18.5499 19.6005 18.3199 19.3205C18.0799 19.0305 17.9899 18.7405 17.9899 18.1505V14.2305H15.3599V18.3905C15.3599 19.5605 15.5399 20.3205 16.0999 20.9705C16.6899 21.6605 17.5999 21.9305 18.4899 21.9305C19.5299 21.9305 20.2499 21.5405 20.7499 20.9605V21.7805H23.2999V14.2305H20.6699Z" fill="#221C46"/>
<path d="M31.8596 14.2305H30.0696L28.0896 16.2405L26.1096 14.2305H24.3096V16.0205L26.3296 18.0005L24.3096 19.9805V21.7705H26.1096L28.0896 19.7605L30.0696 21.7705H31.8596V19.9805L29.8496 18.0005L31.8596 16.0205V14.2305Z" fill="#221C46"/>
<path d="M36.7097 15.8602C37.7997 15.8602 38.2397 16.6202 38.2397 17.1402H35.1697C35.1697 16.6102 35.6197 15.8602 36.6997 15.8602M37.9897 19.4902C37.7897 19.8902 37.3197 20.1502 36.7097 20.1502C35.5697 20.1502 35.1197 19.3402 35.1097 18.6102H40.7697C40.7897 18.5102 40.8297 18.2202 40.8297 17.9902C40.8297 15.4302 39.0697 13.9902 36.6897 13.9902C34.1797 13.9902 32.4297 15.4302 32.4297 17.9902C32.4297 20.5502 34.1797 21.9902 36.6997 21.9902C39.2197 21.9902 40.3397 20.6202 40.6597 19.4802H37.9797L37.9897 19.4902Z" fill="#221C46"/>
</svg>
