<svg width="103" height="71" viewBox="0 0 103 71" fill="none" xmlns="http://www.w3.org/2000/svg">
<path fill-rule="evenodd" clip-rule="evenodd" d="M23.218 26.5455C24.5899 26.6612 25.9619 25.8511 26.8193 24.824C27.6625 23.7679 28.2199 22.3502 28.077 20.9036C26.8622 20.9614 25.3616 21.7137 24.5042 22.7697C23.7181 23.6811 23.0465 25.1567 23.218 26.5455ZM39.538 45.1755V22.6248H47.8984C52.2143 22.6248 55.2298 25.6335 55.2298 30.0308C55.2298 34.4281 52.1571 37.4657 47.784 37.4657H42.9965V45.1755H39.538ZM28.0627 26.8196C26.854 26.7492 25.7512 27.1875 24.8604 27.5415C24.2871 27.7694 23.8017 27.9623 23.4324 27.9623C23.0179 27.9623 22.5124 27.7591 21.9449 27.5309C21.2012 27.2318 20.351 26.89 19.4594 26.9064C17.4158 26.9353 15.515 28.107 14.4718 29.9729C12.3281 33.7048 13.9144 39.2304 15.9866 42.268C17.0013 43.7723 18.2161 45.4213 19.8167 45.3635C20.5209 45.3366 21.0274 45.119 21.5516 44.8939C22.1551 44.6347 22.7821 44.3654 23.7611 44.3654C24.7061 44.3654 25.3056 44.6276 25.8811 44.8794C26.4284 45.1188 26.9539 45.3486 27.734 45.3345C29.3918 45.3056 30.4351 43.8302 31.4497 42.3259C32.5447 40.7113 33.0259 39.1355 33.099 38.8964L33.1075 38.8688C33.1058 38.867 33.0923 38.8607 33.0684 38.8497L33.0684 38.8497C32.7023 38.6801 29.9045 37.3837 29.8777 33.9073C29.8508 30.9895 32.0968 29.5111 32.4504 29.2784C32.4719 29.2642 32.4864 29.2547 32.493 29.2497C31.0639 27.1089 28.8344 26.8775 28.0627 26.8196ZM61.5466 45.3492C63.7189 45.3492 65.734 44.2354 66.6486 42.4707H66.7201V45.1756H69.9213V33.9509C69.9213 30.6963 67.3489 28.5989 63.3902 28.5989C59.7174 28.5989 57.002 30.7252 56.902 33.6471H60.0175C60.2747 32.2585 61.5466 31.3472 63.2902 31.3472C65.4053 31.3472 66.5914 32.3453 66.5914 34.1823V35.4263L62.2755 35.6867C58.2597 35.9326 56.0874 37.596 56.0874 40.489C56.0874 43.4109 58.3311 45.3492 61.5466 45.3492ZM62.4748 42.6736C60.6313 42.6736 59.4594 41.7767 59.4594 40.4024C59.4594 38.9847 60.5884 38.1601 62.7464 38.0299L66.5907 37.784V39.057C66.5907 41.1691 64.8186 42.6736 62.4748 42.6736ZM80.5407 46.0579C79.1545 50.0068 77.5682 51.3087 74.1954 51.3087C73.9382 51.3087 73.0807 51.2797 72.8806 51.2219V48.517C73.095 48.5459 73.6238 48.5748 73.8953 48.5748C75.4245 48.5748 76.282 47.9239 76.8107 46.2315L77.1251 45.2334L71.2657 28.8159H74.8814L78.9544 42.138H79.0259L83.0989 28.8159H86.6145L80.5407 46.0579ZM42.9955 25.5757H46.9828C49.9839 25.5757 51.6989 27.196 51.6989 30.0459C51.6989 32.8958 49.9839 34.5305 46.9685 34.5305H42.9955V25.5757Z" fill="white"/>
</svg>
