<svg width="52" height="36" viewBox="0 0 52 36" fill="none" xmlns="http://www.w3.org/2000/svg">
<rect x="0.5" y="0.5" width="51" height="35" rx="3.5" fill="white"/>
<rect x="0.5" y="0.5" width="51" height="35" rx="3.5" stroke="#EAEAEA"/>
<path d="M24.7197 17.7806V23.3006H22.9697V9.6706H27.6097C28.7297 9.6506 29.7997 10.0706 30.6197 10.8506C31.4397 11.5806 31.8897 12.6306 31.8697 13.7206C31.8897 14.8206 31.4297 15.8706 30.6197 16.6106C29.7997 17.3806 28.8097 17.7706 27.6197 17.7706H24.7197V17.7806ZM24.7197 11.3406V16.1006H27.6597C28.3097 16.1206 28.9397 15.8606 29.3897 15.3906C30.3097 14.5006 30.3197 13.0306 29.4397 12.1106L29.3897 12.0606C28.9397 11.5806 28.3097 11.3206 27.6597 11.3406H24.7197ZM35.9097 13.6706C37.1997 13.6706 38.2297 14.0206 38.9797 14.7006C39.7297 15.4006 40.0997 16.3406 40.0997 17.5506V23.2906H38.4297V22.0006H38.3597C37.6297 23.0706 36.6797 23.6006 35.4697 23.6006C34.4497 23.6006 33.5797 23.2906 32.8897 22.6906C32.2197 22.1206 31.8397 21.2906 31.8597 20.4106C31.8597 19.4406 32.2297 18.6806 32.9597 18.1006C33.6897 17.5206 34.6697 17.2406 35.8797 17.2406C36.9197 17.2406 37.7697 17.4406 38.4497 17.8106V17.4106C38.4497 16.8206 38.1897 16.2506 37.7297 15.8706C37.2697 15.4606 36.6597 15.2306 36.0497 15.2306C35.0697 15.2306 34.2997 15.6406 33.7297 16.4706L32.1897 15.5006C33.0097 14.2906 34.2597 13.6806 35.9197 13.6806L35.9097 13.6706ZM33.6497 20.4406C33.6497 20.9006 33.8697 21.3206 34.2297 21.5806C34.6197 21.8906 35.0997 22.0406 35.5897 22.0406C36.3297 22.0406 37.0297 21.7506 37.5597 21.2206C38.1397 20.6806 38.4297 20.0406 38.4297 19.3006C37.8897 18.8606 37.1297 18.6506 36.1497 18.6506C35.4397 18.6506 34.8497 18.8306 34.3697 19.1606C33.9097 19.5106 33.6697 19.9206 33.6697 20.4406H33.6497ZM49.6997 13.9706L43.8597 27.4006H42.0597L44.2397 22.7006L40.3897 13.9706H42.2897L45.0597 20.6606H45.1097L47.8197 13.9706H49.7097H49.6997Z" fill="#585F65"/>
<path d="M17.6399 16.59C17.6399 16.06 17.5899 15.52 17.5099 15H10.1299V18.01H14.3599C14.1799 18.98 13.6199 19.85 12.7999 20.39V22.34H15.3199C16.7999 20.98 17.6399 18.97 17.6399 16.58V16.59Z" fill="#4E7DBB"/>
<path d="M10.1399 24.2399C12.2499 24.2399 14.0299 23.5399 15.3199 22.3499L12.7999 20.3999C12.0899 20.8799 11.1899 21.1499 10.1399 21.1499C8.0899 21.1499 6.3699 19.7699 5.7499 17.9199H3.1499V19.9399C4.4799 22.5699 7.1799 24.2499 10.1399 24.2499V24.2399Z" fill="#33AC61"/>
<path d="M5.7398 17.9202C5.4098 16.9502 5.4098 15.9002 5.7398 14.9202V12.9102H3.1398C2.0198 15.1102 2.0198 17.7302 3.1398 19.9302L5.7398 17.9202Z" fill="#F8B62A"/>
<path d="M10.1399 11.6902C11.2599 11.6702 12.3299 12.0902 13.1399 12.8602L15.3699 10.6302C13.9599 9.29018 12.0899 8.57018 10.1399 8.58018C7.1799 8.58018 4.4799 10.2502 3.1499 12.8902L5.7499 14.9102C6.3699 13.0502 8.0999 11.6702 10.1499 11.6702L10.1399 11.6902Z" fill="#EC5141"/>
</svg>
