<svg width="103" height="71" viewBox="0 0 103 71" fill="none" xmlns="http://www.w3.org/2000/svg">
<path d="M48.8213 34.5771V44.2283H45.7676V20.3942H53.8666C54.8333 20.3739 55.7945 20.5458 56.6946 20.9C57.5948 21.2541 58.416 21.7835 59.111 22.4575C59.8131 23.0907 60.3718 23.8671 60.7496 24.7347C61.1275 25.6023 61.3158 26.5409 61.3017 27.4876C61.3219 28.4392 61.1365 29.384 60.7584 30.2571C60.3802 31.1303 59.8183 31.9111 59.111 32.5461C57.6948 33.9001 55.9467 34.5765 53.8666 34.5752H48.8213V34.5771ZM48.8213 23.3285V31.6485H53.9425C54.5039 31.6652 55.0626 31.5642 55.5829 31.352C56.1032 31.1398 56.5735 30.8211 56.9639 30.4162C57.3523 30.0376 57.661 29.5848 57.8718 29.0846C58.0826 28.5843 58.1912 28.0468 58.1912 27.5037C58.1912 26.9607 58.0826 26.4231 57.8718 25.9229C57.661 25.4226 57.3523 24.9698 56.9639 24.5913C56.5784 24.1778 56.1097 23.8513 55.5888 23.6333C55.0679 23.4152 54.5067 23.3107 53.9425 23.3266H48.8213V23.3285Z" fill="white"/>
<path d="M68.3423 27.3887C70.5994 27.3887 72.3811 27.9934 73.6873 29.2029C74.9935 30.4124 75.646 32.0707 75.6447 34.1778V44.2283H72.7238V41.9653H72.591C71.3265 43.8289 69.6448 44.7608 67.5457 44.7608C65.7539 44.7608 64.2549 44.2283 63.0486 43.1633C62.4697 42.6746 62.0068 42.0624 61.6938 41.3715C61.3808 40.6807 61.2254 39.9285 61.2391 39.1698C61.2391 37.4823 61.8751 36.1403 63.1472 35.1438C64.4193 34.1473 66.1175 33.6478 68.2418 33.6453C70.0551 33.6453 71.5484 33.9781 72.7219 34.6437V33.9439C72.7253 33.4266 72.6139 32.9151 72.3958 32.4464C72.1776 31.9777 71.8582 31.5635 71.4606 31.2339C70.653 30.5034 69.6006 30.1049 68.513 30.1176C66.8073 30.1176 65.4574 30.839 64.4635 32.2818L61.774 30.5835C63.2534 28.4536 65.4429 27.3887 68.3423 27.3887ZM64.3915 39.2363C64.3894 39.626 64.4803 40.0105 64.6565 40.3578C64.8326 40.7052 65.089 41.0053 65.4043 41.2331C66.0797 41.7658 66.918 42.048 67.7771 42.0318C69.0657 42.0297 70.301 41.5154 71.2121 40.6017C72.2237 39.6471 72.7295 38.527 72.7295 37.2414C71.7773 36.4807 70.4496 36.1004 68.7463 36.1004C67.5059 36.1004 66.4715 36.4002 65.6433 36.9999C64.8069 37.6085 64.3915 38.3482 64.3915 39.2363V39.2363Z" fill="white"/>
<path d="M92.4176 27.9253L82.2208 51.4209H79.0684L82.8524 43.1998L76.1475 27.9253H79.4667L84.3129 39.6398H84.3792L89.0926 27.9253H92.4176Z" fill="white"/>
<path d="M36.4831 32.495C36.4842 31.562 36.4055 30.6305 36.2479 29.7109H23.3691V34.9844H30.7455C30.5946 35.8266 30.2751 36.6295 29.8063 37.3446C29.3376 38.0597 28.7292 38.6723 28.018 39.1453V42.5684H32.4203C34.9979 40.1856 36.4831 36.6617 36.4831 32.495Z" fill="white"/>
<path d="M23.3745 45.8781C27.0598 45.8781 30.1629 44.6649 32.4256 42.573L28.0233 39.1499C26.7981 39.9828 25.22 40.4583 23.3745 40.4583C19.8124 40.4583 16.7891 38.0507 15.7079 34.8064H11.1729V38.3341C12.3095 40.6018 14.0524 42.5082 16.207 43.8403C18.3616 45.1725 20.8431 45.878 23.3745 45.8781V45.8781Z" fill="white"/>
<path d="M15.708 34.8005C15.1364 33.1005 15.1364 31.2595 15.708 29.5594V26.0317H11.1729C10.2167 27.9394 9.71875 30.0449 9.71875 32.18C9.71875 34.315 10.2167 36.4205 11.1729 38.3282L15.708 34.8005Z" fill="white"/>
<path d="M23.3745 23.9122C25.322 23.8803 27.2038 24.6181 28.6132 25.9661L32.511 22.0581C30.0394 19.7305 26.7651 18.4526 23.3745 18.4924C20.8431 18.4925 18.3616 19.198 16.207 20.5302C14.0524 21.8623 12.3095 23.7687 11.1729 26.0364L15.7079 29.5641C16.7891 26.3198 19.8124 23.9122 23.3745 23.9122Z" fill="white"/>
</svg>
