<svg width="52" height="36" viewBox="0 0 52 36" fill="none" xmlns="http://www.w3.org/2000/svg">
<rect x="0.5" y="0.5" width="51" height="35" rx="3.5" fill="white"/>
<rect x="0.5" y="0.5" width="51" height="35" rx="3.5" stroke="#EAEAEA"/>
<path d="M49.9198 17.9997C49.9198 26.1897 43.2998 32.8197 35.1298 32.8197C26.9598 32.8197 20.3398 26.1897 20.3398 17.9997C20.3398 9.80969 26.9498 3.17969 35.1198 3.17969C43.2898 3.17969 49.9198 9.80969 49.9198 17.9997Z" fill="#F39B1A"/>
<path d="M31.6601 17.9997C31.6601 26.1897 25.0401 32.8197 16.8701 32.8197C8.70008 32.8197 2.08008 26.1897 2.08008 17.9997C2.08008 9.80969 8.70008 3.17969 16.8701 3.17969C25.0401 3.17969 31.6601 9.80969 31.6601 17.9997Z" fill="#E6001B"/>
<path d="M25.9901 6.33008C22.5401 9.04008 20.3301 13.2601 20.3301 18.0001C20.3301 22.7401 22.5401 26.9601 25.9901 29.6701C29.4401 26.9601 31.6501 22.7401 31.6501 18.0001C31.6501 13.2601 29.4401 9.05008 25.9901 6.33008Z" fill="#FF5F01"/>
</svg>
