<svg width="103" height="71" viewBox="0 0 103 71" fill="none" xmlns="http://www.w3.org/2000/svg">
<path fill-rule="evenodd" clip-rule="evenodd" d="M51.2367 47.761C54.738 44.8266 56.9643 40.4211 56.9643 35.4957C56.9643 30.5703 54.738 26.1648 51.2367 23.2304C54.0156 20.9015 57.5976 19.4993 61.5073 19.4993C70.3429 19.4993 77.5055 26.6611 77.5055 35.4957C77.5055 44.3303 70.3429 51.4921 61.5073 51.4921C57.5976 51.4921 54.0156 50.0899 51.2367 47.761ZM51.2367 47.761C48.4577 50.0899 44.8757 51.4921 40.9661 51.4921C32.1305 51.4921 24.9678 44.3303 24.9678 35.4957C24.9678 26.6611 32.1305 19.4993 40.9661 19.4993C44.8757 19.4993 48.4577 20.9015 51.2367 23.2304C47.7353 26.1648 45.509 30.5703 45.509 35.4957C45.509 40.4211 47.7353 44.8266 51.2367 47.761Z" fill="white"/>
</svg>
