<svg width="52" height="36" viewBox="0 0 52 36" fill="none" xmlns="http://www.w3.org/2000/svg">
<g clip-path="url(#clip0_2280_3845)">
<rect width="52" height="36" rx="4" fill="white"/>
<path d="M48 0H4C1.79086 0 0 1.79086 0 4V32C0 34.2091 1.79086 36 4 36H48C50.2091 36 52 34.2091 52 32V4C52 1.79086 50.2091 0 48 0Z" fill="white"/>
<path d="M48 0H4C1.79086 0 0 1.79086 0 4V32C0 34.2091 1.79086 36 4 36H48C50.2091 36 52 34.2091 52 32V4C52 1.79086 50.2091 0 48 0Z" fill="#D3D3D3"/>
<path d="M47.3198 0.550781H4.6798C2.53694 0.550781 0.799805 2.28792 0.799805 4.43078V31.5608C0.799805 33.7036 2.53694 35.4408 4.6798 35.4408H47.3198C49.4627 35.4408 51.1998 33.7036 51.1998 31.5608V4.43078C51.1998 2.28792 49.4627 0.550781 47.3198 0.550781Z" fill="white"/>
<path d="M11.2501 12.9798C10.7101 12.3498 9.71013 12.0898 8.46013 12.0898H4.79013C4.53013 12.0898 4.32013 12.2798 4.27013 12.5298L2.74013 22.2198C2.72013 22.3898 2.83013 22.5498 3.00013 22.5798H5.31013L5.88013 18.9798V19.0998C5.90013 18.8398 6.13013 18.6598 6.39013 18.6598H7.47013C9.58013 18.6598 11.2401 17.8098 11.7201 15.3198C11.7301 15.2498 11.7401 15.1798 11.7601 15.1098C11.9001 14.1698 11.7601 13.5598 11.2601 12.9898" fill="#253B80"/>
<path d="M38.9699 17.589C38.8299 18.499 38.1399 18.499 37.4699 18.499H37.0899L37.3599 16.789C37.3699 16.679 37.4699 16.609 37.5699 16.609H37.7499C38.2099 16.609 38.6399 16.609 38.8599 16.869C38.9799 17.039 39.0099 17.259 38.9699 17.579M38.6899 15.209H36.1599C35.9799 15.209 35.8399 15.339 35.8199 15.509L34.7999 21.999C34.7799 22.119 34.8599 22.229 34.9799 22.239H36.3199C36.4399 22.239 36.5499 22.159 36.5699 22.029L36.8699 20.189C36.8899 20.019 37.0499 19.889 37.2099 19.889H38.0199C39.6899 19.889 40.6499 19.079 40.8999 17.489C41.0199 16.789 40.8999 16.249 40.5799 15.859C40.1899 15.449 39.5499 15.219 38.7099 15.219" fill="#1799D5"/>
<path d="M20.9201 17.5907C20.7801 18.5007 20.0901 18.5007 19.4201 18.5007H19.0401L19.3101 16.8107C19.3201 16.7007 19.4201 16.6307 19.5201 16.6307H19.7001C20.1601 16.6307 20.5901 16.6307 20.8101 16.8907C20.9301 17.0407 20.9601 17.2707 20.9201 17.5907ZM20.6201 15.2207H18.0901C17.9101 15.2207 17.7701 15.3507 17.7501 15.5207L16.7301 22.0107C16.7101 22.1307 16.7901 22.2407 16.9101 22.2507H18.1501C18.3301 22.2507 18.4701 22.1207 18.4901 21.9507L18.7601 20.2007C18.7801 20.0307 18.9401 19.9007 19.1001 19.9007H19.9101C21.5801 19.9007 22.5401 19.0907 22.7901 17.5007C22.9101 16.8007 22.7901 16.2607 22.4701 15.8707C22.1001 15.4607 21.4801 15.2307 20.6201 15.2307M26.4901 19.9307C26.3701 20.6207 25.8301 21.0907 25.1201 21.0907C24.7601 21.0907 24.4901 20.9707 24.3001 20.7607C24.1201 20.5507 24.0501 20.2507 24.1101 19.9107C24.2201 19.2207 24.7701 18.7507 25.4701 18.7507C25.8101 18.7507 26.1001 18.8707 26.2801 19.0807C26.4801 19.2907 26.5501 19.5907 26.4901 19.9307ZM28.1801 17.5607H26.9701C26.8601 17.5607 26.7801 17.6307 26.7601 17.7407L26.7101 18.0807L26.6301 17.9607C26.3701 17.5807 25.7801 17.4507 25.2001 17.4507C23.8601 17.4507 22.7101 18.4707 22.5001 19.8907C22.3801 20.6007 22.5501 21.2807 22.9501 21.7507C23.3201 22.1907 23.8501 22.3707 24.4801 22.3707C25.5601 22.3707 26.1601 21.6707 26.1601 21.6707L26.1001 22.0007C26.0801 22.1207 26.1601 22.2307 26.2801 22.2407H27.4101C27.5901 22.2407 27.7301 22.1107 27.7501 21.9407L28.4001 17.7907C28.4201 17.6707 28.3401 17.5607 28.2201 17.5507C28.2101 17.5607 28.2001 17.5607 28.1801 17.5507" fill="#253B80"/>
<path d="M44.5603 19.9195C44.4403 20.6095 43.9002 21.0795 43.1902 21.0795C42.8302 21.0795 42.5602 20.9595 42.3702 20.7495C42.1902 20.5395 42.1203 20.2395 42.1803 19.8995C42.2903 19.2095 42.8403 18.7395 43.5403 18.7395C43.8803 18.7395 44.1702 18.8595 44.3502 19.0695C44.5402 19.2795 44.6103 19.5795 44.5603 19.9195ZM46.2403 17.5495H45.0302C44.9202 17.5495 44.8403 17.6195 44.8203 17.7295L44.7703 18.0695L44.6902 17.9495C44.4302 17.5695 43.8402 17.4395 43.2602 17.4395C41.9202 17.4395 40.7703 18.4595 40.5603 19.8795C40.4403 20.5895 40.6102 21.2695 41.0102 21.7395C41.3802 22.1795 41.9103 22.3595 42.5403 22.3595C43.6203 22.3595 44.2203 21.6595 44.2203 21.6595L44.1603 21.9895C44.1403 22.1095 44.2203 22.2195 44.3403 22.2295H45.4703C45.6503 22.2295 45.7903 22.0995 45.8103 21.9295L46.4602 17.7795C46.4802 17.6595 46.4002 17.5495 46.2802 17.5395C46.2702 17.5495 46.2603 17.5495 46.2403 17.5395" fill="#1799D5"/>
<path d="M34.6402 17.5703H33.4202C33.3002 17.5703 33.1902 17.6303 33.1202 17.7203L31.4402 20.2003L30.7302 17.8203C30.6802 17.6703 30.5502 17.5703 30.4002 17.5703H29.2002C29.0802 17.5703 28.9902 17.6603 28.9902 17.7803C28.9902 17.8003 28.9902 17.8303 29.0002 17.8503L30.3402 21.7903L29.0702 23.5703C29.0002 23.6603 29.0202 23.8003 29.1202 23.8703C29.1602 23.8903 29.2002 23.9103 29.2402 23.9103H30.4602C30.5802 23.9103 30.6902 23.8503 30.7402 23.7603L34.7902 17.9103C34.8602 17.8203 34.8402 17.6803 34.7402 17.6103C34.7202 17.5903 34.6802 17.5703 34.6302 17.5703" fill="#253B80"/>
<path d="M47.67 15.4007L46.63 22.0107C46.61 22.1307 46.69 22.2407 46.81 22.2507H47.89C48.07 22.2507 48.21 22.1207 48.23 21.9507L49.26 15.4607C49.28 15.3407 49.2 15.2307 49.08 15.2207H47.87C47.78 15.2207 47.68 15.2907 47.67 15.4007Z" fill="#1799D5"/>
<path d="M11.2501 12.9798C10.7101 12.3498 9.71013 12.0898 8.46013 12.0898H4.79013C4.53013 12.0898 4.32013 12.2798 4.27013 12.5298L2.74013 22.2198C2.72013 22.3898 2.83013 22.5498 3.00013 22.5798H5.31013L5.88013 18.9798V19.0998C5.90013 18.8398 6.13013 18.6598 6.39013 18.6598H7.47013C9.58013 18.6598 11.2401 17.8098 11.7201 15.3198C11.7301 15.2498 11.7401 15.1798 11.7601 15.1098C11.9001 14.1698 11.7601 13.5598 11.2601 12.9898" fill="#253B80"/>
<path d="M6.5099 15.0998C6.5499 14.8698 6.7399 14.7098 6.9599 14.7098H9.8399C10.1799 14.7098 10.4999 14.7298 10.7899 14.7798C10.9399 14.7998 11.1099 14.8398 11.2599 14.8898C11.4399 14.9398 11.5999 15.0098 11.7699 15.0898C11.9099 14.1698 11.7699 13.5498 11.2699 12.9798C10.7299 12.3498 9.7299 12.0898 8.4799 12.0898H4.7999C4.5399 12.0898 4.3299 12.2798 4.2799 12.5298L2.7499 22.2198C2.7299 22.3898 2.8399 22.5498 3.0099 22.5798H5.3199L5.8899 18.9698L6.5199 15.1098L6.5099 15.0998Z" fill="#253B80"/>
<path d="M11.75 15.0898C11.74 15.1598 11.73 15.2298 11.71 15.2998C11.22 17.7898 9.57 18.6398 7.46 18.6398H6.38C6.12 18.6398 5.91 18.8298 5.86 19.0798L5.3 22.5698L5.15 23.5598C5.13 23.7098 5.23 23.8598 5.38 23.8798H7.33C7.56 23.8798 7.74 23.7098 7.78 23.4898L7.8 23.3998L8.16 21.1298L8.18 20.9998C8.22 20.7698 8.41 20.6098 8.63 20.6098H8.91C10.76 20.6098 12.2 19.8598 12.63 17.6798C12.81 16.7698 12.71 16.0098 12.25 15.4798C12.12 15.3298 11.94 15.1798 11.74 15.0898" fill="#1799D5"/>
<path d="M11.2401 14.889C11.1701 14.869 11.0901 14.849 11.0101 14.829C10.9301 14.819 10.8601 14.789 10.7701 14.779C10.4701 14.729 10.1701 14.709 9.82012 14.709H6.94012C6.71012 14.709 6.53012 14.879 6.49012 15.099L5.87012 18.969V19.089C5.89012 18.829 6.12012 18.649 6.38012 18.649H7.46012C9.57012 18.649 11.2301 17.799 11.7101 15.309C11.7201 15.239 11.7301 15.169 11.7501 15.099C11.6201 15.029 11.4901 14.979 11.3501 14.929C11.3101 14.909 11.2801 14.889 11.2301 14.879" fill="#222D65"/>
</g>
<rect x="0.5" y="0.5" width="51" height="35" rx="3.5" stroke="#EAEAEA"/>
<defs>
<clipPath id="clip0_2280_3845">
<rect width="52" height="36" rx="4" fill="white"/>
</clipPath>
</defs>
</svg>
