<svg width="52" height="36" viewBox="0 0 52 36" fill="none" xmlns="http://www.w3.org/2000/svg">
<g clip-path="url(#clip0_2280_4120)">
<rect width="52" height="36" rx="4" fill="white"/>
<path d="M48 0H4C1.79086 0 0 1.79086 0 4V32C0 34.2091 1.79086 36 4 36H48C50.2091 36 52 34.2091 52 32V4C52 1.79086 50.2091 0 48 0Z" fill="white"/>
<path d="M48 0H4C1.79086 0 0 1.79086 0 4V32C0 34.2091 1.79086 36 4 36H48C50.2091 36 52 34.2091 52 32V4C52 1.79086 50.2091 0 48 0Z" fill="#D3D3D3"/>
<path d="M47.3198 0.550781H4.6798C2.53694 0.550781 0.799805 2.28792 0.799805 4.43078V31.5608C0.799805 33.7036 2.53694 35.4408 4.6798 35.4408H47.3198C49.4627 35.4408 51.1998 33.7036 51.1998 31.5608V4.43078C51.1998 2.28792 49.4627 0.550781 47.3198 0.550781Z" fill="white"/>
<path d="M12.97 28.8887V17.8287H14.75V18.6387C15 18.2387 15.47 17.9587 15.85 17.8287C16.23 17.7087 16.62 17.6387 17.02 17.6387C18 17.6387 19.06 17.9687 19.91 18.8587C20.7 19.6787 21.12 20.6787 21.12 21.8587C21.12 22.3987 21.02 22.9387 20.81 23.4487C20.61 23.9587 20.32 24.4187 19.95 24.7987C19.56 25.2087 19.12 25.5087 18.63 25.7187C18.14 25.9287 17.69 26.0287 17.09 26.0287C16.66 26.0287 16.24 25.9587 15.84 25.8287C15.45 25.6987 14.91 25.3887 14.71 25.0487V28.8787H12.96M16.95 19.2087C16.3 19.2087 15.73 19.4087 15.27 19.8887C14.79 20.3887 14.61 21.0887 14.61 21.7987C14.61 22.5487 14.79 23.2787 15.25 23.7787C15.72 24.2787 16.29 24.4487 16.96 24.4487C17.63 24.4487 18.19 24.1687 18.61 23.7487C19.09 23.2587 19.32 22.5987 19.32 21.8787C19.32 21.0987 19.09 20.3987 18.62 19.9087C18.22 19.4787 17.64 19.2087 16.94 19.2087" fill="#164192"/>
<path d="M33.3297 28.8901L34.8396 25.4001L31.3896 17.8301H33.2596L35.7197 23.5201L37.9796 17.8301H39.8696L35.1796 28.8901H33.3297Z" fill="#164192"/>
<path d="M28.5599 25.8884V25.0484C28.3599 25.3884 27.8199 25.6984 27.4299 25.8284C27.0299 25.9684 26.6099 26.0284 26.1799 26.0284C25.5799 26.0284 25.1299 25.9284 24.6399 25.7184C24.1499 25.5084 23.7099 25.1984 23.3199 24.7984C22.9499 24.4184 22.6599 23.9684 22.4599 23.4584C22.2499 22.9384 22.1499 22.4084 22.1499 21.8684C22.1499 20.6884 22.5699 19.6884 23.3599 18.8684C24.2199 17.9784 25.2699 17.6484 26.2599 17.6484C26.6599 17.6484 27.0499 17.7084 27.4199 17.8384C27.7999 17.9684 28.2799 18.2484 28.5199 18.6384V17.8284H30.2999V25.8884H28.5499M24.6399 19.9084C24.1699 20.3984 23.9499 21.0984 23.9499 21.8784C23.9499 22.5884 24.1799 23.2584 24.6599 23.7484C25.0799 24.1684 25.6299 24.4484 26.3099 24.4484C26.9899 24.4484 27.5499 24.2784 28.0199 23.7784C28.4899 23.2784 28.6599 22.5484 28.6599 21.7984C28.6599 21.0884 28.4799 20.3884 27.9999 19.8884C27.5299 19.4084 26.9699 19.2084 26.3199 19.2084C25.6199 19.2084 25.0399 19.4784 24.6399 19.9084Z" fill="#164192"/>
<path d="M41.7298 12.7101L41.6398 7.33008H43.3398V14.1201H40.8998L39.1998 8.55008H39.1598L39.2598 14.1201H37.5698V7.33008H40.1198L41.6898 12.7101H41.7298Z" fill="#164192"/>
<path d="M10.8598 7.96008L9.92982 14.1801H8.06982L9.33982 7.33008H12.3998L13.6698 14.1801H11.8198L10.8998 7.96008H10.8598Z" fill="#164192"/>
<path d="M18.8598 12.5701L19.7098 7.33008H22.5098L22.6598 14.1801H20.9398L20.8898 8.02008H20.8598L19.7098 14.1801H17.9798L16.8298 8.02008H16.7898L16.7398 14.1801H15.0298L15.1898 7.33008H17.9798L18.8298 12.5701H18.8598Z" fill="#164192"/>
<path d="M33.2496 13.1598C33.7296 13.1598 33.8796 12.8298 33.9096 12.6698C33.9196 12.5998 33.9196 12.4998 33.9196 12.4098V7.33984H35.6596V12.2598C35.6596 12.3898 35.6496 12.6398 35.6396 12.7098C35.5196 13.9898 34.5096 14.3998 33.2396 14.3998C31.9696 14.3998 30.9696 13.9898 30.8496 12.7098C30.8496 12.6398 30.8296 12.3798 30.8296 12.2598V7.33984H32.5696V12.4098C32.5696 12.4998 32.5696 12.5998 32.5796 12.6698C32.6096 12.8398 32.7596 13.1598 33.2396 13.1598" fill="#164192"/>
<path d="M5.18977 12.2494C5.24977 12.4194 5.23977 12.6294 5.19977 12.7594C5.13977 12.9894 4.98977 13.2194 4.52977 13.2194C4.09977 13.2194 3.84977 12.9694 3.84977 12.5994V11.9294H2.00977V12.4594C2.00977 13.9894 3.20977 14.4494 4.49977 14.4494C5.78977 14.4494 6.76977 14.0294 6.92977 12.8894C7.00977 12.2994 6.94977 11.9094 6.92977 11.7594C6.63977 10.3194 4.03977 9.89937 3.83977 9.08938C3.80977 8.94938 3.80977 8.80937 3.83977 8.72937C3.88977 8.50937 4.03977 8.26938 4.46977 8.26938C4.89977 8.26938 5.10977 8.51938 5.10977 8.88938V9.31937H6.81977V8.83938C6.81977 7.33938 5.47977 7.10938 4.49977 7.10938C3.27977 7.10938 2.27977 7.51938 2.09977 8.63938C2.04977 8.93938 2.04977 9.21938 2.10977 9.55938C2.40977 10.9694 4.84977 11.3694 5.19977 12.2494" fill="#164192"/>
<path d="M27.4898 12.2389C27.5598 12.3989 27.5298 12.6089 27.4998 12.7389C27.4498 12.9589 27.2898 13.1889 26.8398 13.1889C26.4098 13.1889 26.1598 12.9489 26.1598 12.5689V11.9089H24.3398V12.4389C24.3398 13.9589 25.5298 14.4089 26.8098 14.4089C28.0898 14.4089 29.0498 13.9889 29.2098 12.8589C29.2898 12.2689 29.2298 11.8889 29.2098 11.7389C28.9198 10.3189 26.3498 9.89891 26.1598 9.09891C26.1298 8.96891 26.1398 8.81891 26.1598 8.74891C26.2098 8.52891 26.3498 8.28891 26.7798 8.28891C27.1798 8.28891 27.4098 8.52891 27.4098 8.89891V9.31891H29.0998V8.83891C29.0998 7.35891 27.7698 7.12891 26.8098 7.12891C25.5998 7.12891 24.6098 7.51891 24.4398 8.63891C24.3798 8.93891 24.3798 9.20891 24.4498 9.54891C24.7398 10.9389 27.1598 11.3389 27.5098 12.2189" fill="#164192"/>
<path d="M47.5597 13.0887C48.0497 13.0887 48.2296 12.7787 48.2596 12.5887C48.2696 12.5087 48.2796 12.4087 48.2796 12.3287V11.3387H47.5797V10.3287H50.0096V12.1687C50.0096 12.2987 50.0097 12.3887 49.9897 12.6187C49.8797 13.8587 48.7896 14.3087 47.5696 14.3087C46.3496 14.3087 45.2796 13.8587 45.1696 12.6187C45.1396 12.3887 45.1396 12.2987 45.1396 12.1687V9.28867C45.1396 9.16867 45.1496 8.94867 45.1696 8.83867C45.3196 7.54867 46.3596 7.13867 47.5696 7.13867C48.7796 7.13867 49.8596 7.53867 49.9796 8.83867C50.0096 9.04867 49.9897 9.28867 49.9897 9.28867V9.50867H48.2596V9.12867C48.2596 9.12867 48.2597 8.95867 48.2397 8.86867C48.2097 8.71867 48.0796 8.37867 47.5496 8.37867C47.0596 8.37867 46.9096 8.70867 46.8696 8.86867C46.8496 8.95867 46.8396 9.07867 46.8396 9.19867V12.3387C46.8396 12.4287 46.8396 12.5187 46.8496 12.5987C46.8796 12.7887 47.0596 13.0987 47.5496 13.0987" fill="#164192"/>
</g>
<rect x="0.5" y="0.5" width="51" height="35" rx="3.5" stroke="#EAEAEA"/>
<defs>
<clipPath id="clip0_2280_4120">
<rect width="52" height="36" rx="4" fill="white"/>
</clipPath>
</defs>
</svg>
