<svg width="52" height="36" viewBox="0 0 52 36" fill="none" xmlns="http://www.w3.org/2000/svg">
<g clip-path="url(#clip0_2280_4136)">
<rect width="52" height="36" rx="4" fill="white"/>
<path d="M48 0H4C1.79086 0 0 1.79086 0 4V32C0 34.2091 1.79086 36 4 36H48C50.2091 36 52 34.2091 52 32V4C52 1.79086 50.2091 0 48 0Z" fill="white"/>
<path d="M48 0H4C1.79086 0 0 1.79086 0 4V32C0 34.2091 1.79086 36 4 36H48C50.2091 36 52 34.2091 52 32V4C52 1.79086 50.2091 0 48 0Z" fill="#D3D3D3"/>
<path d="M47.3198 0.550781H4.6798C2.53694 0.550781 0.799805 2.28792 0.799805 4.43078V31.5608C0.799805 33.7036 2.53694 35.4408 4.6798 35.4408H47.3198C49.4627 35.4408 51.1998 33.7036 51.1998 31.5608V4.43078C51.1998 2.28792 49.4627 0.550781 47.3198 0.550781Z" fill="white"/>
<path d="M13.4901 15.5202H10.2901C10.2901 14.9902 10.2301 14.6402 10.1101 14.4602C9.9201 14.1902 9.3901 14.0602 8.5301 14.0602C7.6701 14.0602 7.1401 14.1402 6.8701 14.2902C6.6001 14.4402 6.4601 14.7802 6.4601 15.2902C6.4601 15.7602 6.5801 16.0602 6.8201 16.2102C6.9901 16.3102 7.2201 16.3802 7.5001 16.3902L8.1501 16.4402C9.5301 16.5302 10.4001 16.6002 10.7401 16.6302C11.8301 16.7402 12.6301 17.0302 13.1201 17.5002C13.5101 17.8702 13.7401 18.3502 13.8101 18.9402C13.8501 19.3002 13.8701 19.7002 13.8701 20.1402C13.8701 21.1702 13.7701 21.9202 13.5801 22.4002C13.2201 23.2802 12.4201 23.8302 11.1801 24.0602C10.6601 24.1602 9.8601 24.2102 8.7901 24.2102C7.0001 24.2102 5.7501 24.1002 5.0401 23.8902C4.1701 23.6302 3.6001 23.1002 3.3301 22.2902C3.1801 21.8402 3.1001 21.1002 3.1001 20.0602H6.3001C6.3001 20.1802 6.3001 20.2602 6.3001 20.3302C6.3001 20.8802 6.4601 21.2402 6.7801 21.4002C7.0001 21.5102 7.2701 21.5702 7.5801 21.5702H8.7601C9.3601 21.5702 9.7401 21.5402 9.9101 21.4802C10.2001 21.3602 10.4001 21.1802 10.4901 20.9202C10.5401 20.7602 10.5601 20.5602 10.5601 20.3002C10.5601 19.7402 10.3501 19.4002 9.9401 19.2702C9.7901 19.2202 9.0701 19.1502 7.8001 19.0702C6.7801 19.0002 6.0701 18.9302 5.6701 18.8602C4.6201 18.6602 3.9201 18.2602 3.5801 17.6502C3.2701 17.1302 3.1201 16.3402 3.1201 15.2902C3.1201 14.4902 3.2001 13.8502 3.3701 13.3602C3.5401 12.8802 3.8001 12.5102 4.1701 12.2602C4.7101 11.8702 5.4001 11.6502 6.2401 11.5802C6.9401 11.5202 7.7101 11.4902 8.5701 11.4902C9.9101 11.4902 10.8701 11.5702 11.4401 11.7202C12.8301 12.0902 13.5301 13.1402 13.5301 14.8602C13.5301 15.0002 13.5201 15.2102 13.5001 15.4902" fill="#10298D"/>
<path d="M27.5601 24.2195V11.4395H33.9701C34.8501 11.4395 35.5201 11.5095 35.9801 11.6595C37.0301 11.9895 37.7401 12.6695 38.1001 13.6895C38.2901 14.2295 38.3801 15.0295 38.3801 16.1095C38.3801 17.4095 38.2801 18.3395 38.0701 18.8995C37.6601 20.0195 36.8101 20.6695 35.5401 20.8295C35.3901 20.8595 34.7501 20.8795 33.6201 20.8995L33.0501 20.9195H31.0001V24.2195H27.5601ZM31.0001 17.9595H33.1401C33.8201 17.9395 34.2301 17.8795 34.3801 17.7995C34.5801 17.6895 34.7201 17.4595 34.7901 17.1295C34.8301 16.9095 34.8601 16.5695 34.8601 16.1295C34.8601 15.5895 34.8201 15.1895 34.7301 14.9295C34.6101 14.5595 34.3101 14.3395 33.8401 14.2595C33.7501 14.2495 33.5201 14.2395 33.1701 14.2395H31.0001V17.9595Z" fill="#10298D"/>
<path d="M45.7199 22.0095H41.1199L40.4999 24.2195H36.9399L40.7799 11.4395H45.9699L49.8599 24.2195H46.3799L45.7199 22.0095ZM45.0399 19.5195L43.4299 13.9795L41.8699 19.5195H45.0399Z" fill="#10298D"/>
<path d="M27.11 13.29C25.89 12.14 24.29 11.5 22.59 11.5C21.27 11.5 20 11.89 18.91 12.62C17.86 13.33 17.05 14.31 16.57 15.46H15.12V15.49L14.25 17.32L14.21 17.4H16.1C16.09 17.57 16.08 17.72 16.08 17.86C16.08 18.05 16.08 18.24 16.11 18.43H15.2V18.46L14.33 20.29L14.29 20.37H16.6C17.63 22.71 19.97 24.21 22.57 24.21C23.88 24.21 25.14 23.83 26.22 23.11L26.24 23.09V20.67L26.14 20.78C25.29 21.75 24.06 22.31 22.78 22.31C21.3 22.31 19.93 21.58 19.09 20.37H23.76V20.34L24.63 18.51L24.67 18.43H18.34C18.31 18.22 18.3 18.02 18.3 17.81C18.3 17.68 18.3 17.54 18.32 17.41H25.15V17.38L26.02 15.55L26.06 15.47H18.96C19.77 14.14 21.23 13.31 22.79 13.31C24.14 13.31 25.41 13.91 26.26 14.97L26.32 15.04L26.36 14.96L27.1 13.37L27.12 13.33L27.09 13.3L27.11 13.29Z" fill="#FFBD00"/>
</g>
<rect x="0.5" y="0.5" width="51" height="35" rx="3.5" stroke="#EAEAEA"/>
<defs>
<clipPath id="clip0_2280_4136">
<rect width="52" height="36" rx="4" fill="white"/>
</clipPath>
</defs>
</svg>
