<svg width="52" height="36" viewBox="0 0 52 36" fill="none" xmlns="http://www.w3.org/2000/svg">
<g clip-path="url(#clip0_2280_4222)">
<rect width="52" height="36" rx="4" fill="white"/>
<path d="M48 0H4C1.79086 0 0 1.79086 0 4V32C0 34.2091 1.79086 36 4 36H48C50.2091 36 52 34.2091 52 32V4C52 1.79086 50.2091 0 48 0Z" fill="white"/>
<path d="M48 0H4C1.79086 0 0 1.79086 0 4V32C0 34.2091 1.79086 36 4 36H48C50.2091 36 52 34.2091 52 32V4C52 1.79086 50.2091 0 48 0Z" fill="#D3D3D3"/>
<path d="M47.3198 0.550781H4.6798C2.53694 0.550781 0.799805 2.28792 0.799805 4.43078V31.5608C0.799805 33.7036 2.53694 35.4408 4.6798 35.4408H47.3198C49.4627 35.4408 51.1998 33.7036 51.1998 31.5608V4.43078C51.1998 2.28792 49.4627 0.550781 47.3198 0.550781Z" fill="white"/>
<path fill-rule="evenodd" clip-rule="evenodd" d="M47.5702 18.2995C47.5702 15.2295 46.0802 12.8095 43.2402 12.8095C40.4002 12.8095 38.6602 15.2295 38.6602 18.2795C38.6602 21.8895 40.7002 23.7095 43.6202 23.7095C45.0502 23.7095 46.1302 23.3895 46.9402 22.9295V20.5295C46.1302 20.9395 45.1902 21.1895 44.0002 21.1895C42.8102 21.1895 41.8102 20.7795 41.6702 19.3695H47.5302C47.5302 19.2095 47.5502 18.5895 47.5502 18.2995H47.5702ZM41.6502 17.1595C41.6502 15.8095 42.4802 15.2395 43.2302 15.2395C43.9802 15.2395 44.7402 15.7995 44.7402 17.1595H41.6502ZM34.0402 12.8095C32.8702 12.8095 32.1102 13.3595 31.6902 13.7395L31.5302 12.9995H28.8902V26.9695L31.8902 26.3295V22.9395C32.3302 23.2495 32.9702 23.6895 34.0202 23.6895C36.1702 23.6895 38.1202 21.9695 38.1202 18.1595C38.1102 14.6795 36.1302 12.7895 34.0302 12.7895L34.0402 12.8095ZM33.3202 21.0695C32.6102 21.0695 32.1902 20.8195 31.9102 20.5095V16.0595C32.2102 15.7095 32.6402 15.4695 33.3202 15.4695C34.4102 15.4695 35.1702 16.6895 35.1702 18.2595C35.1702 19.8295 34.4302 21.0595 33.3202 21.0595V21.0695ZM24.7702 12.0995L27.7802 11.4495V9.01953L24.7702 9.65953V12.0995ZM24.7702 13.0095H27.7802V23.4995H24.7702V13.0095ZM21.5502 13.8995L21.3602 13.0095H18.7702V23.4995H21.7702V16.3895C22.4802 15.4695 23.6802 15.6395 24.0502 15.7695V13.0095C23.6702 12.8695 22.2602 12.5995 21.5602 13.8995H21.5502ZM15.5602 10.4095L12.6402 11.0295V20.6295C12.6302 22.3995 13.9602 23.7095 15.7302 23.7095C16.7102 23.7095 17.4302 23.5295 17.8302 23.3095V20.8795C17.4502 21.0395 15.5502 21.5895 15.5502 19.8095V15.5595H17.8302V13.0095H15.5502V10.3995L15.5602 10.4095ZM7.46018 16.0595C7.46018 15.5895 7.84018 15.4095 8.48018 15.4095C9.52018 15.4295 10.5302 15.6895 11.4502 16.1795V13.3695C10.4602 12.9695 9.47018 12.8195 8.48018 12.8195C6.05018 12.8195 4.43018 14.0895 4.43018 16.2095C4.43018 19.5195 8.98018 18.9895 8.98018 20.4195C8.98018 20.9695 8.50018 21.1495 7.83018 21.1495C6.84018 21.1495 5.56018 20.7395 4.56018 20.1895V23.0395C5.67018 23.5195 6.80018 23.7195 7.83018 23.7195C10.3202 23.7195 12.0402 22.4895 12.0402 20.3395C12.0302 16.7695 7.46018 17.3995 7.46018 16.0595Z" fill="#6772E4"/>
</g>
<rect x="0.5" y="0.5" width="51" height="35" rx="3.5" stroke="#EAEAEA"/>
<defs>
<clipPath id="clip0_2280_4222">
<rect width="52" height="36" rx="4" fill="white"/>
</clipPath>
</defs>
</svg>
