<svg width="52" height="36" viewBox="0 0 52 36" fill="none" xmlns="http://www.w3.org/2000/svg">
<g clip-path="url(#clip0_2280_4228)">
<rect width="52" height="36" rx="4" fill="white"/>
<path d="M48 0H4C1.79086 0 0 1.79086 0 4V32C0 34.2091 1.79086 36 4 36H48C50.2091 36 52 34.2091 52 32V4C52 1.79086 50.2091 0 48 0Z" fill="white"/>
<path d="M48 0H4C1.79086 0 0 1.79086 0 4V32C0 34.2091 1.79086 36 4 36H48C50.2091 36 52 34.2091 52 32V4C52 1.79086 50.2091 0 48 0Z" fill="#D3D3D3"/>
<path d="M47.3198 0.550781H4.6798C2.53694 0.550781 0.799805 2.28792 0.799805 4.43078V31.5608C0.799805 33.7036 2.53694 35.4408 4.6798 35.4408H47.3198C49.4627 35.4408 51.1998 33.7036 51.1998 31.5608V4.43078C51.1998 2.28792 49.4627 0.550781 47.3198 0.550781Z" fill="white"/>
<path d="M17.2503 14.8809C16.3703 14.9009 15.6003 15.5509 15.6103 16.5909C15.6103 17.1909 16.0803 17.6709 16.5303 18.1709C17.2303 18.9509 17.4403 18.8109 17.4103 19.5909C17.4003 19.8809 16.9203 20.3309 16.4103 20.3309C15.6503 20.3309 15.1203 19.6009 15.3303 18.7209H15.1103L14.5303 20.8209H14.7503C14.8103 20.6009 15.2503 20.6209 15.4203 20.6209C15.7503 20.6109 15.9403 20.8709 16.6303 20.8709C17.5703 20.8709 18.4903 20.2509 18.4803 19.1209C18.4803 18.5309 18.1103 18.1309 17.6303 17.6609C16.8903 16.9509 16.6103 16.6009 16.7403 16.0309C16.8503 15.5609 17.1903 15.4209 17.5203 15.4209C18.1503 15.4209 18.4203 16.0809 18.5103 16.7709H18.7103L19.2303 15.0209H19.0103C18.9603 15.2309 18.7103 15.2409 18.5103 15.2209C18.4203 15.2209 18.3703 15.2309 18.1503 15.1609C17.9203 15.0809 17.5503 14.8909 17.2603 14.8909L17.2503 14.8809ZM19.4603 15.1109L19.4003 15.4509C19.7503 15.4509 19.8703 15.4509 19.8703 16.0909V20.8009C19.8703 20.8009 19.9603 21.0109 20.0903 20.8009C20.2203 20.5909 22.3003 17.1509 22.3003 17.1509V17.2609L22.2803 20.8009C22.2803 20.8009 22.4103 21.0109 22.5503 20.8009C22.6803 20.5909 25.5603 15.8509 25.5603 15.8509C25.6903 15.6109 25.7903 15.4509 26.1203 15.4409L26.2003 15.1009H24.4303L24.3703 15.4409C24.7603 15.4409 25.0203 15.3809 25.0303 15.6109C25.0303 15.7109 25.0203 15.7909 24.9503 15.9109L23.4903 18.2909L23.4603 18.2409V16.0809C23.4603 15.9809 23.4603 15.8909 23.4603 15.8109C23.4603 15.4409 23.5503 15.4309 23.8403 15.4309L23.9003 15.0909H21.9303L21.8703 15.4309C22.1703 15.4309 22.3003 15.5209 22.2903 15.7909V16.2809L21.0203 18.3309L20.9703 18.3609V16.0609C20.9703 15.9809 20.9703 15.8509 20.9703 15.7609C20.9703 15.6309 20.9403 15.4309 21.3003 15.4309L21.3903 15.0909H19.4603V15.1109ZM26.4603 15.1109L26.4003 15.4509C26.5603 15.4509 26.7303 15.5009 26.7403 15.6809C26.7403 15.7609 26.7003 15.8809 26.6603 16.0209L25.5803 20.0409C25.5203 20.3109 25.1903 20.4509 24.7703 20.4509L24.7103 20.7909H27.0103L27.0903 20.4509C26.6803 20.4509 26.7103 20.3309 26.7103 20.1809C26.7103 20.0909 26.7603 20.0109 26.7903 19.9009L27.8903 15.8609C28.0003 15.4809 28.2703 15.4509 28.6903 15.4409L28.7703 15.1009H26.4703L26.4603 15.1109ZM29.0703 15.1109L28.9903 15.4509C29.3303 15.4809 29.8203 15.4709 29.6903 15.8709C29.6603 15.9609 29.6903 15.9209 29.6603 16.0609L28.6103 19.9709C28.5303 20.3309 28.2703 20.4509 27.9703 20.4609L27.8803 20.8009H30.3203L30.4103 20.4609C29.8803 20.4609 29.6603 20.3909 29.7703 19.9709C29.7903 19.8809 29.8403 19.7309 29.8603 19.5909L30.3603 17.8709H30.4703C30.9503 17.8709 31.0803 17.9309 31.1003 18.1809C31.1003 18.3409 31.1003 18.4809 31.1203 18.5709H31.3903L31.8003 16.8909L31.5803 16.8609C31.3503 17.4409 30.8703 17.4509 30.7003 17.4409H30.4803L30.8203 16.0609C30.9703 15.5509 31.0203 15.5809 31.4003 15.5709C32.0603 15.5709 32.4603 15.6709 32.4003 16.6009H32.6203L33.0303 15.0809H29.0703V15.1109ZM33.3403 15.1109L32.9203 16.6309H33.1703C33.2903 16.2109 33.3003 16.1309 33.5503 15.9109C33.8103 15.6909 34.0803 15.6009 34.5203 15.6009L33.3803 19.7809C33.3003 20.4609 32.9103 20.4609 32.4103 20.4709L32.3303 20.8109H34.9103L34.9703 20.5009C34.6403 20.5309 34.4403 20.3109 34.5003 20.0609C34.5203 19.9609 34.5703 19.8209 34.6103 19.6509L35.6703 15.5909C36.4803 15.5909 36.6403 15.9209 36.5903 16.6209H36.8203L37.2303 15.1009H33.3303L33.3403 15.1109ZM23.5503 20.1709C23.4103 20.1709 23.2703 20.3409 23.2403 20.5509C23.2103 20.7609 23.2903 20.9309 23.4303 20.9309C23.5703 20.9309 23.7103 20.7609 23.7403 20.5509C23.7703 20.3409 23.6903 20.1709 23.5503 20.1709ZM27.5603 20.1709C27.4203 20.1709 27.2803 20.3409 27.2503 20.5509C27.2203 20.7609 27.3003 20.9309 27.4403 20.9309C27.5803 20.9309 27.7203 20.7609 27.7503 20.5509C27.7803 20.3409 27.7003 20.1709 27.5603 20.1709ZM31.0003 20.1709C30.8603 20.1709 30.7203 20.3409 30.6903 20.5509C30.6603 20.7609 30.7303 20.9309 30.8603 20.9309C31.0003 20.9309 31.1403 20.7609 31.1703 20.5509C31.2003 20.3409 31.1303 20.1709 31.0003 20.1709ZM18.6603 20.1909C18.5203 20.1909 18.4003 20.3609 18.3603 20.5709C18.3303 20.7809 18.4003 20.9509 18.5303 20.9509C18.6703 20.9509 18.8103 20.7809 18.8403 20.5709C18.8703 20.3609 18.7903 20.1909 18.6503 20.1909H18.6603ZM35.6003 20.1909C35.4603 20.1909 35.3203 20.3609 35.2903 20.5709C35.2603 20.7809 35.3403 20.9509 35.4803 20.9509C35.6203 20.9509 35.7603 20.7809 35.7903 20.5709C35.8203 20.3609 35.7403 20.1909 35.6003 20.1909Z" fill="#3C60A6" stroke="#3C60A6" stroke-width="0.08" stroke-miterlimit="59.31"/>
<path d="M14.0901 13.8706H37.9301M14.0901 22.1506H37.9301M16.6301 26.4506H35.3801M16.6301 9.57062H35.3801M25.9901 13.8706V5.39062M25.9901 22.1406V30.6006M26.3401 5.40063C26.3401 5.40063 31.4801 8.17063 32.4901 13.8406M25.6701 5.41062C25.6701 5.41062 20.4401 8.15062 19.3801 13.8006M25.6501 30.5606C25.6501 30.5606 20.4801 27.8206 19.4601 22.1506M26.3801 30.5606C26.3801 30.5606 31.5401 27.8506 32.6001 22.2006M26.0001 5.39062C19.0301 5.39062 13.3901 11.0406 13.3901 18.0006C13.3901 24.9606 19.0401 30.6106 26.0001 30.6106C32.9601 30.6106 38.6101 24.9606 38.6101 18.0006C38.6101 11.0406 32.9601 5.39062 26.0001 5.39062Z" stroke="#3C60A6" stroke-width="0.7" stroke-miterlimit="18.49"/>
</g>
<rect x="0.5" y="0.5" width="51" height="35" rx="3.5" stroke="#EAEAEA"/>
<defs>
<clipPath id="clip0_2280_4228">
<rect width="52" height="36" rx="4" fill="white"/>
</clipPath>
</defs>
</svg>
