<svg width="52" height="36" viewBox="0 0 52 36" fill="none" xmlns="http://www.w3.org/2000/svg">
<g clip-path="url(#clip0_2280_4468)">
<rect width="52" height="36" rx="4" fill="white"/>
<path d="M48 0H4C1.79086 0 0 1.79086 0 4V32C0 34.2091 1.79086 36 4 36H48C50.2091 36 52 34.2091 52 32V4C52 1.79086 50.2091 0 48 0Z" fill="white"/>
<path d="M48 0H4C1.79086 0 0 1.79086 0 4V32C0 34.2091 1.79086 36 4 36H48C50.2091 36 52 34.2091 52 32V4C52 1.79086 50.2091 0 48 0Z" fill="#D3D3D3"/>
<path d="M47.3198 0.550781H4.6798C2.53694 0.550781 0.799805 2.28792 0.799805 4.43078V31.5608C0.799805 33.7036 2.53694 35.4408 4.6798 35.4408H47.3198C49.4627 35.4408 51.1998 33.7036 51.1998 31.5608V4.43078C51.1998 2.28792 49.4627 0.550781 47.3198 0.550781Z" fill="white"/>
<path d="M23.61 23.6302H20.71L22.53 12.4102H25.43L23.61 23.6302Z" fill="#00579E"/>
<path d="M34.1297 12.6792C33.5597 12.4492 32.6497 12.1992 31.5297 12.1992C28.6697 12.1992 26.6497 13.7292 26.6397 15.9092C26.6197 17.5192 28.0797 18.4192 29.1797 18.9492C30.2997 19.4992 30.6797 19.8592 30.6797 20.3492C30.6697 21.0992 29.7697 21.4492 28.9397 21.4492C27.7797 21.4492 27.1597 21.2692 26.2197 20.8492L25.8397 20.6692L25.4297 23.1892C26.1097 23.4992 27.3597 23.7692 28.6597 23.7892C31.6997 23.7892 33.6797 22.2892 33.7097 19.9592C33.7197 18.6792 32.9497 17.6992 31.2797 16.9092C30.2697 16.3992 29.6397 16.0492 29.6397 15.5292C29.6497 15.0492 30.1697 14.5592 31.3097 14.5592C32.2497 14.5392 32.9497 14.7592 33.4697 14.9892L33.7297 15.1092L34.1197 12.6892L34.1297 12.6792Z" fill="#00579E"/>
<path d="M37.9797 19.6502C38.2197 19.0102 39.1397 16.5102 39.1397 16.5102C39.1297 16.5302 39.3797 15.8502 39.5197 15.4402L39.7197 16.4102C39.7197 16.4102 40.2697 19.0902 40.3897 19.6602H37.9797V19.6502ZM41.5597 12.4102H39.3197C38.6297 12.4102 38.0997 12.6102 37.7997 13.3402L33.4897 23.6302H36.5297C36.5297 23.6302 37.0297 22.2502 37.1397 21.9502H40.8597C40.9397 22.3402 41.2097 23.6302 41.2097 23.6302H43.8997L41.5597 12.4102Z" fill="#00579E"/>
<path d="M18.2899 12.4102L15.4499 20.0602L15.1399 18.5102C14.6099 16.7202 12.9699 14.7802 11.1299 13.8102L13.7299 23.6202H16.7999L21.3599 12.4102H18.2899Z" fill="#00579E"/>
<path d="M12.8098 12.4102H8.13984L8.08984 12.6402C11.7298 13.5702 14.1398 15.8102 15.1298 18.5102L14.1198 13.3502C13.9498 12.6302 13.4398 12.4302 12.8098 12.4102Z" fill="#F9A51A"/>
</g>
<rect x="0.5" y="0.5" width="51" height="35" rx="3.5" stroke="#EAEAEA"/>
<defs>
<clipPath id="clip0_2280_4468">
<rect width="52" height="36" rx="4" fill="white"/>
</clipPath>
</defs>
</svg>
