<svg width="103" height="71" viewBox="0 0 103 71" fill="none" xmlns="http://www.w3.org/2000/svg">
<path d="M44.9005 48.0369H38.8018L42.6164 24.4529H48.7148L44.9005 48.0369Z" fill="white"/>
<path d="M67.0066 25.0297C65.8036 24.5525 63.8957 24.0256 61.5365 24.0256C55.5137 24.0256 51.2726 27.2369 51.2465 31.8281C51.1965 35.2154 54.2831 37.0968 56.5916 38.2263C58.9511 39.3804 59.7532 40.1337 59.7532 41.1624C59.7292 42.7424 57.8466 43.4707 56.0907 43.4707C53.6558 43.4707 52.3511 43.0952 50.3684 42.2162L49.5653 41.8394L48.7119 47.1335C50.1423 47.785 52.7777 48.3633 55.5137 48.3886C61.913 48.3886 66.0791 45.227 66.1285 40.3344C66.1528 37.6497 64.523 35.5926 61.0092 33.9116C58.8761 32.8325 57.5698 32.1048 57.5698 31.0007C57.5948 29.997 58.6747 28.9689 61.0826 28.9689C63.0653 28.9186 64.522 29.3951 65.6256 29.872L66.1772 30.1224L67.0066 25.0297Z" fill="white"/>
<path d="M75.1165 39.6819C75.6187 38.327 77.5514 33.0833 77.5514 33.0833C77.5261 33.1336 78.0527 31.7034 78.3538 30.8254L78.78 32.8575C78.78 32.8575 79.935 38.5028 80.1857 39.6819C79.2326 39.6819 76.3211 39.6819 75.1165 39.6819ZM82.6447 24.4529H77.9273C76.4725 24.4529 75.3673 24.879 74.7396 26.4097L65.6807 48.0365H72.0799C72.0799 48.0365 73.1335 45.1257 73.3599 44.4988C74.062 44.4988 80.2871 44.4988 81.1903 44.4988C81.3653 45.3268 81.918 48.0365 81.918 48.0365H87.5649L82.6447 24.4529V24.4529Z" fill="white"/>
<path d="M33.7087 24.4529L27.736 40.5349L27.0833 37.2733C25.9791 33.5098 22.516 29.4208 18.6514 27.3877L24.1222 48.0119H30.5715L40.1577 24.4529H33.7087V24.4529Z" fill="white"/>
<path d="M22.1891 24.4529H12.3768L12.2764 24.9295C19.9306 26.8868 24.9999 31.6049 27.0826 37.2758L24.9495 26.4356C24.5983 24.9291 23.5191 24.5026 22.1891 24.4529Z" fill="white"/>
</svg>
