<svg width="52" height="36" viewBox="0 0 52 36" fill="none" xmlns="http://www.w3.org/2000/svg">
<g clip-path="url(#clip0_2280_4423)">
<rect width="52" height="36" rx="4" fill="white"/>
<path d="M48 0H4C1.79086 0 0 1.79086 0 4V32C0 34.2091 1.79086 36 4 36H48C50.2091 36 52 34.2091 52 32V4C52 1.79086 50.2091 0 48 0Z" fill="white"/>
<path d="M48 0H4C1.79086 0 0 1.79086 0 4V32C0 34.2091 1.79086 36 4 36H48C50.2091 36 52 34.2091 52 32V4C52 1.79086 50.2091 0 48 0Z" fill="#D3D3D3"/>
<path d="M47.3198 0.550781H4.6798C2.53694 0.550781 0.799805 2.28792 0.799805 4.43078V31.5608C0.799805 33.7036 2.53694 35.4408 4.6798 35.4408H47.3198C49.4627 35.4408 51.1998 33.7036 51.1998 31.5608V4.43078C51.1998 2.28792 49.4627 0.550781 47.3198 0.550781Z" fill="white"/>
<path fill-rule="evenodd" clip-rule="evenodd" d="M8.43996 22.0991C9.41996 23.7991 11.03 23.7991 12.02 22.0991L12.57 21.1491L7.64996 12.6191H2.95996L8.42996 22.0991M18.8 18.4591C18.44 19.0791 17.59 19.0791 17.24 18.4591L13.87 12.6191H9.19996L14.68 22.0991C15.66 23.7991 17.27 23.7991 18.25 22.0991L21.92 15.7491L20.12 12.6191H15.45L18.82 18.4591" fill="#FFDC00"/>
<path fill-rule="evenodd" clip-rule="evenodd" d="M25.08 17.6389H26.04V17.6089C26.64 15.4189 26.88 14.4789 26.98 13.8989C27.08 14.4789 27.31 15.4289 27.87 17.6089V17.6389H28.86L30.22 12.6289H29.33V12.6589C28.73 14.9389 28.5 15.8589 28.4 16.4489C28.28 15.8189 28.02 14.7789 27.47 12.6589V12.6289H26.53V12.6589C25.95 14.9089 25.7 15.8789 25.6 16.5089C25.49 15.8989 25.23 14.8889 24.66 12.6589V12.6289H23.73L25.08 17.6089V17.6389ZM31.69 14.5989C32.22 14.5989 32.62 14.9389 32.66 15.4089H30.7C30.76 14.9389 31.17 14.5989 31.69 14.5989ZM31.74 17.7089C32.46 17.7089 33.15 17.3089 33.42 16.7289L32.76 16.3889H32.75L32.74 16.4089C32.66 16.5789 32.37 16.9589 31.75 16.9589C31.19 16.9589 30.77 16.5989 30.7 16.0889H33.55V16.0489C33.57 15.3489 33.38 14.7689 33 14.3789C32.67 14.0389 32.22 13.8689 31.69 13.8689C31.16 13.8689 30.69 14.0689 30.35 14.4189C30.01 14.7689 29.83 15.2589 29.83 15.7889C29.83 16.9089 30.62 17.6989 31.75 17.6989L31.74 17.7089ZM35.35 17.7089C36.28 17.7089 36.86 17.2789 36.86 16.5789C36.86 15.7489 36.11 15.5589 35.5 15.3989C35.08 15.2889 34.72 15.1989 34.72 14.9289C34.72 14.7189 34.95 14.5689 35.27 14.5689C35.62 14.5689 35.87 14.7589 35.91 15.0589L35.93 15.2089H35.95L36.69 15.0689C36.69 14.3689 36.07 13.8889 35.28 13.8889C34.49 13.8889 33.88 14.3389 33.88 14.9889C33.88 15.7689 34.61 15.9689 35.2 16.1289C35.62 16.2389 35.99 16.3389 35.99 16.6189C35.99 16.8589 35.75 17.0089 35.37 17.0089C34.91 17.0089 34.61 16.7989 34.57 16.4589V16.3989L33.78 16.5489C33.78 17.3089 34.63 17.7189 35.35 17.7189M37.52 16.9689C37.52 17.3889 37.78 17.7189 38.22 17.7189C38.76 17.7189 38.92 17.6489 38.92 17.6489V16.9489C38.92 16.9489 38.76 16.9789 38.56 16.9789C38.43 16.9789 38.34 16.8989 38.34 16.7889V14.6689H38.91V13.9589H38.34V12.9089L37.52 13.1189V13.9589H37.09V14.6689H37.52V16.9689ZM43.95 14.4289V13.9589H43.23V17.6489H44.1V15.3989C44.1 15.1689 44.18 14.9989 44.32 14.8789C44.5 14.7289 44.79 14.6789 45.16 14.7289H45.21V13.9689H45.17C44.65 13.8889 44.18 14.0489 43.94 14.4389" fill="black"/>
<path fill-rule="evenodd" clip-rule="evenodd" d="M47.5599 13.8694C47.0399 13.8694 46.5499 14.0794 46.3099 14.4694V13.9394H45.5599V17.6294H46.4299V15.6494C46.4299 15.0094 46.7599 14.6294 47.3199 14.6294C47.6999 14.6294 48.1599 14.7994 48.1599 15.5894V17.6194H49.0299V15.4694C49.0299 14.2794 48.2699 13.8594 47.5599 13.8594M27.2599 21.2194C27.2599 22.0694 26.8599 22.5394 26.1199 22.5394C25.3799 22.5394 24.9899 22.0694 24.9899 21.2194V18.2794H24.1099V21.1994C24.1099 22.5594 24.8599 23.3694 26.1199 23.3694C27.3799 23.3694 28.1299 22.5594 28.1299 21.1994V18.2794H27.2599V21.2194Z" fill="black"/>
<mask id="mask0_2280_4423" style="mask-type:luminance" maskUnits="userSpaceOnUse" x="24" y="13" width="26" height="11">
<path d="M47.5599 13.8694C47.0399 13.8694 46.5499 14.0794 46.3099 14.4694V13.9394H45.5599V17.6294H46.4299V15.6494C46.4299 15.0094 46.7599 14.6294 47.3199 14.6294C47.6999 14.6294 48.1599 14.7994 48.1599 15.5894V17.6194H49.0299V15.4694C49.0299 14.2794 48.2699 13.8594 47.5599 13.8594M27.2599 21.2194C27.2599 22.0694 26.8599 22.5394 26.1199 22.5394C25.3799 22.5394 24.9899 22.0694 24.9899 21.2194V18.2794H24.1099V21.1994C24.1099 22.5594 24.8599 23.3694 26.1199 23.3694C27.3799 23.3694 28.1299 22.5594 28.1299 21.1994V18.2794H27.2599V21.2194Z" fill="white"/>
</mask>
<g mask="url(#mask0_2280_4423)">
<path d="M28.14 18H23.96V23.38H28.14V18Z" fill="black"/>
<path d="M49.03 13.4297H45.21V17.9997H49.03V13.4297Z" fill="black"/>
</g>
<path fill-rule="evenodd" clip-rule="evenodd" d="M30.6699 19.5491C30.1499 19.5491 29.6599 19.7591 29.4199 20.1491V19.6191H28.6699V23.3091H29.5399V21.3291C29.5399 20.6891 29.8699 20.3091 30.4299 20.3091C30.8099 20.3091 31.2699 20.4791 31.2699 21.2691V23.2991H32.1399V21.1491C32.1399 19.9591 31.3799 19.5391 30.6699 19.5391M32.6799 23.2991H33.5499V19.6091H32.6799V23.2991Z" fill="black"/>
<path fill-rule="evenodd" clip-rule="evenodd" d="M33.1199 18.2598C32.8399 18.2598 32.6099 18.4798 32.6099 18.7598C32.6099 19.0398 32.8399 19.2498 33.1199 19.2498C33.3999 19.2498 33.6199 19.0298 33.6199 18.7598C33.6199 18.4798 33.3999 18.2598 33.1199 18.2598ZM35.8999 22.5798C35.2799 22.5798 34.7999 22.0998 34.7999 21.4598C34.7999 20.8198 35.2699 20.3398 35.8999 20.3398C36.5299 20.3398 37.0099 20.8198 37.0099 21.4598C37.0099 22.0998 36.5299 22.5798 35.8999 22.5798ZM35.8999 19.5398C35.3599 19.5398 34.8699 19.7298 34.5099 20.0898C34.1499 20.4398 33.9599 20.9298 33.9599 21.4598C33.9599 22.5698 34.7799 23.3798 35.8999 23.3798C37.0199 23.3798 37.8499 22.5698 37.8499 21.4598C37.8499 20.9298 37.6499 20.4398 37.2999 20.0898C36.9399 19.7398 36.4499 19.5398 35.8999 19.5398Z" fill="#0A0B09"/>
<mask id="mask1_2280_4423" style="mask-type:luminance" maskUnits="userSpaceOnUse" x="32" y="18" width="6" height="6">
<path d="M33.1199 18.2598C32.8399 18.2598 32.6099 18.4798 32.6099 18.7598C32.6099 19.0398 32.8399 19.2498 33.1199 19.2498C33.3999 19.2498 33.6199 19.0298 33.6199 18.7598C33.6199 18.4798 33.3999 18.2598 33.1199 18.2598ZM35.8999 22.5798C35.2799 22.5798 34.7999 22.0998 34.7999 21.4598C34.7999 20.8198 35.2699 20.3398 35.8999 20.3398C36.5299 20.3398 37.0099 20.8198 37.0099 21.4598C37.0099 22.0998 36.5299 22.5798 35.8999 22.5798ZM35.8999 19.5398C35.3599 19.5398 34.8699 19.7298 34.5099 20.0898C34.1499 20.4398 33.9599 20.9298 33.9599 21.4598C33.9599 22.5698 34.7799 23.3798 35.8999 23.3798C37.0199 23.3798 37.8499 22.5698 37.8499 21.4598C37.8499 20.9298 37.6499 20.4398 37.2999 20.0898C36.9399 19.7398 36.4499 19.5398 35.8999 19.5398Z" fill="white"/>
</mask>
<g mask="url(#mask1_2280_4423)">
<path d="M38.2498 18.2988H32.3398V23.6288H38.2498V18.2988Z" fill="#0A0B09"/>
</g>
<path fill-rule="evenodd" clip-rule="evenodd" d="M40.2598 19.5496C39.7398 19.5496 39.2498 19.7596 39.0098 20.1496V19.6196H38.2598V23.3096H39.1298V21.3296C39.1298 20.6896 39.4598 20.3096 40.0198 20.3096C40.3998 20.3096 40.8598 20.4796 40.8598 21.2696V23.2996H41.7298V21.1496C41.7298 19.9596 40.9698 19.5396 40.2598 19.5396M40.0098 15.3996C40.0698 14.9296 40.4798 14.5896 40.9998 14.5896C41.5198 14.5896 41.9298 14.9296 41.9698 15.3996H40.0098ZM40.9998 13.8596C40.4798 13.8596 39.9998 14.0596 39.6598 14.4096C39.3198 14.7596 39.1398 15.2496 39.1398 15.7796C39.1398 16.8996 39.9298 17.6896 41.0598 17.6896C41.7798 17.6896 42.4698 17.2896 42.7398 16.7096L42.0798 16.3696H42.0698L42.0598 16.3896C41.9798 16.5596 41.6898 16.9396 41.0698 16.9396C40.5098 16.9396 40.0898 16.5796 40.0198 16.0696H42.8698V16.0296C42.8898 15.3296 42.6998 14.7496 42.3198 14.3596C41.9898 14.0196 41.5398 13.8496 41.0098 13.8496L40.9998 13.8596Z" fill="black"/>
</g>
<rect x="0.5" y="0.5" width="51" height="35" rx="3.5" stroke="#EAEAEA"/>
<defs>
<clipPath id="clip0_2280_4423">
<rect width="52" height="36" rx="4" fill="white"/>
</clipPath>
</defs>
</svg>
