<svg width="52" height="36" viewBox="0 0 52 36" fill="none" xmlns="http://www.w3.org/2000/svg">
<g clip-path="url(#clip0_2280_4479)">
<rect width="52" height="36" rx="4" fill="white"/>
<path d="M48 0H4C1.79086 0 0 1.79086 0 4V32C0 34.2091 1.79086 36 4 36H48C50.2091 36 52 34.2091 52 32V4C52 1.79086 50.2091 0 48 0Z" fill="white"/>
<path d="M48 0H4C1.79086 0 0 1.79086 0 4V32C0 34.2091 1.79086 36 4 36H48C50.2091 36 52 34.2091 52 32V4C52 1.79086 50.2091 0 48 0Z" fill="#D3D3D3"/>
<path d="M47.3198 0.550781H4.6798C2.53694 0.550781 0.799805 2.28792 0.799805 4.43078V31.5608C0.799805 33.7036 2.53694 35.4408 4.6798 35.4408H47.3198C49.4627 35.4408 51.1998 33.7036 51.1998 31.5608V4.43078C51.1998 2.28792 49.4627 0.550781 47.3198 0.550781Z" fill="white"/>
<path d="M49.5003 17.3297C49.5003 14.5997 47.6003 12.6797 44.9303 12.6797C41.5403 12.6797 39.2603 15.1497 39.2603 18.6697C39.2603 21.4197 41.1803 23.3197 43.8903 23.3197C46.3603 23.3197 48.1903 22.1297 48.9503 20.2297H46.2103C45.8503 20.8197 45.0703 21.1897 44.1303 21.1897C42.6703 21.1897 41.7603 20.2297 41.6803 18.8597H49.3403C49.4403 18.3397 49.4903 17.8997 49.4903 17.3297H49.5003ZM41.8903 17.0097C42.1403 15.7497 43.3603 14.7497 44.8303 14.7497C46.1003 14.7497 47.0703 15.6797 47.0703 17.0097H41.8903Z" fill="#2E4369"/>
<path d="M31.9004 23.0688L32.3904 20.4488C33.8904 20.7488 34.1204 19.8988 34.5104 17.8688L34.7004 16.8588C35.2504 14.0088 36.3504 12.5888 39.5004 12.9688L39.0104 15.5888C37.5104 15.2888 37.2404 16.4288 36.9104 18.1888L36.7204 19.1988C36.1704 22.0788 35.0404 23.4488 31.9104 23.0688H31.9004Z" fill="#2E4369"/>
<path d="M28.2202 23.0797L30.0802 12.9297H32.5302L30.6802 23.0797H28.2202Z" fill="#2E4369"/>
<path d="M14.2002 12.9297H16.5702L17.3502 20.2697L20.4602 12.9297H22.8102L23.6402 20.3397L26.6502 12.9297H29.0102L24.7102 23.0797H22.0102L21.1402 16.0897L18.1602 23.0797H15.5602L14.2002 12.9297Z" fill="#2E4369"/>
<path d="M5.32 15.6197L2.5 18.3097H7.3L7.8 17.1397H5.37L6.89 15.6197L6.01 14.0997H10.13L6.32 23.0797H7.75L12.06 12.9297H3.74L5.32 15.6197Z" fill="#00B9FF"/>
</g>
<rect x="0.5" y="0.5" width="51" height="35" rx="3.5" stroke="#EAEAEA"/>
<defs>
<clipPath id="clip0_2280_4479">
<rect width="52" height="36" rx="4" fill="white"/>
</clipPath>
</defs>
</svg>
