<svg width="52" height="36" viewBox="0 0 52 36" fill="none" xmlns="http://www.w3.org/2000/svg">
<rect x="0.5" y="0.5" width="51" height="35" rx="3.5" fill="white"/>
<rect x="0.5" y="0.5" width="51" height="35" rx="3.5" stroke="#EAEAEA"/>
<path fill-rule="evenodd" clip-rule="evenodd" d="M42.4498 34.4508V1.55078H9.5498V34.4508H42.4498Z" fill="#004280"/>
<path fill-rule="evenodd" clip-rule="evenodd" d="M30.9199 14.8214L26.4399 19.3114V23.4514L35.0699 14.8214L26.4399 6.19141V10.3414L30.9199 14.8214Z" fill="white"/>
<path fill-rule="evenodd" clip-rule="evenodd" d="M21.0499 14.8216L25.5399 10.3416V6.18164L16.8999 14.8216L25.5399 23.4616V19.3216L21.0499 14.8216Z" fill="white"/>
<path fill-rule="evenodd" clip-rule="evenodd" d="M18.95 24.9902H19.09L18.72 26.6002H18.59C18.59 26.2502 18.48 25.9002 18.26 25.6202C18.06 25.4102 17.78 25.2902 17.49 25.3002C17.11 25.3102 16.74 25.4702 16.47 25.7402C16.08 26.1102 15.78 26.5702 15.6 27.0902C15.42 27.5502 15.32 28.0402 15.31 28.5402C15.29 28.9002 15.4 29.2502 15.63 29.5202C15.85 29.7502 16.17 29.8702 16.49 29.8502C16.77 29.8502 17.05 29.7902 17.3 29.6602C17.58 29.5002 17.83 29.2902 18.04 29.0302H18.22C17.98 29.4202 17.67 29.7502 17.29 30.0002C16.94 30.2002 16.54 30.2902 16.13 30.2802C15.59 30.3002 15.05 30.1002 14.66 29.7202C14.28 29.3402 14.08 28.8202 14.1 28.2802C14.1 27.7202 14.26 27.1702 14.54 26.6902C15.18 25.6702 16.28 25.0402 17.48 25.0002C17.74 25.0002 18 25.0502 18.25 25.1302C18.36 25.1602 18.47 25.1902 18.58 25.1902C18.73 25.1802 18.86 25.1102 18.95 24.9902Z" fill="white"/>
<path fill-rule="evenodd" clip-rule="evenodd" d="M21.8697 26.58L21.7697 28.23H20.4597L21.8697 26.58ZM21.6397 29.76C21.5997 29.85 21.5297 29.92 21.4497 29.97C21.3297 30 21.1997 30.02 21.0697 30.03L21.0197 30.17H23.2097L23.2497 30.03C23.1197 30.03 22.9997 29.98 22.9097 29.9C22.8297 29.79 22.7897 29.66 22.7997 29.53C22.7997 29.49 22.7997 29.36 22.8097 29.14L22.9797 25H22.8097L19.2297 29.28C19.0497 29.51 18.8497 29.71 18.6297 29.89C18.5197 29.96 18.3997 30.01 18.2797 30.03L18.2397 30.17H19.7497V30.03C19.6397 30.03 19.5297 30 19.4297 29.94C19.3797 29.9 19.3497 29.84 19.3397 29.78C19.3397 29.72 19.3497 29.66 19.3797 29.61C19.4197 29.52 19.4697 29.44 19.5297 29.36L19.8797 28.93L20.1997 28.54H21.7697L21.7397 29.18C21.7397 29.38 21.6997 29.58 21.6297 29.76H21.6397Z" fill="white"/>
<path fill-rule="evenodd" clip-rule="evenodd" d="M26.8698 25.3703C27.0498 25.3503 27.2298 25.4203 27.3598 25.5403C27.4798 25.6603 27.5498 25.8303 27.5398 26.0003C27.5398 26.2303 27.4698 26.4503 27.3598 26.6603C27.2598 26.8703 27.0998 27.0503 26.8998 27.1603C26.6498 27.2703 26.3698 27.3303 26.0998 27.3203L26.6698 25.3603H26.8698V25.3703ZM25.3898 25.3403C25.4598 25.3903 25.4998 25.4703 25.4998 25.5503C25.4798 25.7703 25.4298 25.9803 25.3598 26.1803L24.4698 29.2903C24.4298 29.4603 24.3598 29.6303 24.2698 29.7803C24.2198 29.8603 24.1498 29.9203 24.0598 29.9503C23.9198 30.0003 23.7698 30.0203 23.6198 30.0103L23.5698 30.1503H25.6698C26.2198 30.1803 26.7598 30.1203 27.2898 29.9803C27.5698 29.8703 27.8198 29.6803 27.9998 29.4303C28.1698 29.2103 28.2598 28.9503 28.2698 28.6703C28.2698 28.4103 28.1798 28.1503 27.9998 27.9503C27.7298 27.6903 27.3898 27.5203 27.0198 27.4403C27.3698 27.3703 27.6998 27.2603 28.0198 27.1103C28.2198 27.0003 28.3898 26.8403 28.5098 26.6503C28.6198 26.4903 28.6698 26.2903 28.6798 26.1003C28.6798 25.8903 28.6098 25.6803 28.4798 25.5103C28.3298 25.3303 28.1198 25.2103 27.8898 25.1603C27.5798 25.1003 27.2598 25.0803 26.9398 25.0903H24.9398L24.8998 25.2303C25.0698 25.2203 25.2298 25.2503 25.3798 25.3303L26.6598 27.6803C26.7898 27.7303 26.9098 27.8303 26.9798 27.9503C27.0598 28.0903 27.0998 28.2403 27.0998 28.4003C27.0998 28.7603 26.9898 29.1003 26.7798 29.3903C26.5598 29.7003 26.1798 29.8503 25.6198 29.8503C25.5498 29.8503 25.4598 29.8503 25.3398 29.8403L25.9798 27.5903C26.2098 27.5803 26.4298 27.6103 26.6498 27.6703L25.3698 25.3203H25.3798L25.3898 25.3403Z" fill="white"/>
<path fill-rule="evenodd" clip-rule="evenodd" d="M32.0499 26.58L31.9599 28.23H30.6499L32.0399 26.58H32.0499ZM31.8199 29.76C31.7799 29.85 31.7099 29.92 31.6299 29.97C31.5099 30 31.3799 30.02 31.2499 30.03L31.2199 30.17H33.3999L33.4399 30.03C33.3099 30.03 33.1899 29.98 33.0999 29.9C33.0199 29.79 32.9899 29.66 32.9999 29.53V29.14L33.1599 25H32.9999L29.4199 29.28C29.2499 29.51 29.0499 29.71 28.8199 29.89C28.7099 29.96 28.5899 30.01 28.4599 30.03L28.4199 30.17H29.9299V30.03C29.8199 30.03 29.7099 30 29.6099 29.94C29.5499 29.9 29.5199 29.84 29.5099 29.78C29.5099 29.72 29.5199 29.66 29.5499 29.61C29.5899 29.52 29.6399 29.44 29.6999 29.36L30.0599 28.93L30.3799 28.54H31.9399L31.9099 29.18C31.9099 29.38 31.8799 29.58 31.7999 29.76H31.8199Z" fill="white"/>
<path fill-rule="evenodd" clip-rule="evenodd" d="M38.38 28.7413L37.82 30.1613H33.79L33.83 30.0213C34.02 30.0413 34.2 29.9913 34.36 29.8813C34.52 29.7013 34.63 29.4813 34.67 29.2513L35.6 26.0113C35.64 25.8713 35.67 25.7313 35.67 25.5913C35.67 25.5013 35.63 25.4113 35.56 25.3613C35.43 25.2813 35.28 25.2413 35.12 25.2513L35.17 25.1113H37.6L37.56 25.2513C37.37 25.2413 37.19 25.2913 37.04 25.4113C36.88 25.5813 36.78 25.7913 36.73 26.0213L35.87 28.9913C35.8 29.2213 35.74 29.4513 35.71 29.6913C35.71 29.7513 35.74 29.8013 35.79 29.8313C35.87 29.8813 35.97 29.9013 36.06 29.9013C36.47 29.9013 36.88 29.8013 37.25 29.6113C37.64 29.4213 37.98 29.1313 38.22 28.7613H38.39L38.38 28.7413Z" fill="white"/>
</svg>
