<svg width="52" height="36" viewBox="0 0 52 36" fill="none" xmlns="http://www.w3.org/2000/svg">
<rect x="0.5" y="0.5" width="51" height="35" rx="3.5" fill="white"/>
<rect x="0.5" y="0.5" width="51" height="35" rx="3.5" stroke="#EAEAEA"/>
<mask id="mask0_2280_2704" style="mask-type:luminance" maskUnits="userSpaceOnUse" x="2" y="11" width="48" height="14">
<path d="M49.6698 11.8691H2.33984V24.1391H49.6698V11.8691Z" fill="white"/>
</mask>
<g mask="url(#mask0_2280_2704)">
<path d="M11.4001 24.1294C14.7501 24.1494 17.8101 21.3994 17.8101 18.0494C17.8101 14.3894 14.7501 11.8594 11.4001 11.8594H8.51008C5.12008 11.8594 2.33008 14.3894 2.33008 18.0494C2.33008 21.3994 5.12008 24.1494 8.51008 24.1294H11.4001Z" fill="#0475B5"/>
</g>
<path d="M9.79992 21.3089V14.6689C11.1399 15.1789 12.0799 16.4789 12.0899 17.9889C12.0899 19.5089 11.1399 20.7989 9.79992 21.3089ZM4.96992 17.9889C4.96992 16.4689 5.91992 15.1789 7.24992 14.6689V21.3089C5.91992 20.7989 4.96992 19.5089 4.96992 17.9889ZM8.52992 12.3789C5.42992 12.3789 2.91992 14.8889 2.91992 17.9889C2.91992 21.0889 5.42992 23.5989 8.52992 23.5989C11.6299 23.5989 14.1399 21.0889 14.1399 17.9889C14.1399 14.8889 11.6299 12.3789 8.52992 12.3789Z" fill="white"/>
<path d="M20.4099 17.5293C20.4099 18.0293 20.7699 18.0793 21.0799 18.0793C22.4699 18.0793 22.9299 17.0293 22.9299 16.0693C22.9299 14.8593 22.1599 13.9893 20.9099 13.9893C20.6499 13.9893 20.5199 14.0093 20.4099 14.0193V17.5293ZM19.7799 14.4993C19.7799 13.9193 19.4799 13.9593 19.1899 13.9493V13.7793C19.4399 13.7893 19.6999 13.7893 19.9499 13.7893C20.2199 13.7893 20.5899 13.7793 21.0699 13.7793C22.7399 13.7793 23.6499 14.8993 23.6499 16.0393C23.6499 16.6793 23.2799 18.2793 20.9899 18.2793C20.6599 18.2793 20.3599 18.2693 20.0499 18.2693C19.7399 18.2693 19.4799 18.2693 19.1899 18.2793V18.1093C19.5799 18.0693 19.7599 18.0593 19.7799 17.6193V14.4893V14.4993Z" fill="#292422"/>
<path d="M24.5596 14.3488C24.3896 14.3488 24.2396 14.1987 24.2396 14.0287C24.2396 13.8587 24.3896 13.7188 24.5596 13.7188C24.7296 13.7188 24.8796 13.8587 24.8796 14.0287C24.8796 14.1987 24.7396 14.3488 24.5596 14.3488ZM23.8696 18.1188H23.9896C24.1696 18.1188 24.2996 18.1187 24.2996 17.9087V16.1587C24.2996 15.8787 24.1996 15.8387 23.9596 15.7087V15.6087C24.2596 15.5187 24.6196 15.3987 24.6496 15.3787C24.6996 15.3487 24.7296 15.3488 24.7696 15.3488C24.8096 15.3488 24.8196 15.3887 24.8196 15.4387V17.9187C24.8196 18.1287 24.9596 18.1287 25.1396 18.1287H25.2496V18.2987C25.0296 18.2987 24.7996 18.2888 24.5696 18.2888C24.3396 18.2888 24.1096 18.2887 23.8696 18.2987V18.1287V18.1188Z" fill="#292422"/>
<path d="M25.8597 16.1998C25.8597 15.9598 25.7897 15.8998 25.4897 15.7698V15.6498C25.7697 15.5598 26.0297 15.4798 26.3397 15.3398C26.3597 15.3398 26.3797 15.3498 26.3797 15.3998V15.8198C26.7497 15.5598 27.0597 15.3398 27.4997 15.3398C28.0497 15.3398 28.2397 15.7398 28.2397 16.2398V17.8998C28.2397 18.1098 28.3797 18.1098 28.5597 18.1098H28.6797V18.2798C28.4497 18.2798 28.2297 18.2698 27.9997 18.2698C27.7697 18.2698 27.5397 18.2698 27.2997 18.2798V18.1098H27.4197C27.5997 18.1098 27.7297 18.1098 27.7297 17.8998V16.2298C27.7297 15.8598 27.5097 15.6798 27.1397 15.6798C26.9297 15.6798 26.5997 15.8498 26.3897 15.9898V17.8998C26.3897 18.1098 26.5297 18.1098 26.7097 18.1098H26.8297V18.2798C26.5997 18.2798 26.3797 18.2698 26.1497 18.2698C25.9197 18.2698 25.6897 18.2698 25.4497 18.2798V18.1098H25.5697C25.7497 18.1098 25.8797 18.1098 25.8797 17.8998V16.1898L25.8597 16.1998Z" fill="#292422"/>
<path d="M30.2999 16.3096C30.4599 16.3096 30.4799 16.2296 30.4799 16.1496C30.4799 15.8196 30.2799 15.5596 29.9199 15.5596C29.5299 15.5596 29.2599 15.8496 29.1799 16.3096H30.2999ZM29.1599 16.5196C29.1499 16.5796 29.1499 16.6696 29.1599 16.8896C29.1999 17.4996 29.5899 18.0096 30.1099 18.0096C30.4699 18.0096 30.7399 17.8196 30.9799 17.5796L31.0699 17.6696C30.7699 18.0596 30.4099 18.3996 29.8799 18.3996C28.8499 18.3996 28.6499 17.4096 28.6499 16.9896C28.6499 15.7296 29.4999 15.3496 29.9499 15.3496C30.4699 15.3496 31.0299 15.6796 31.0399 16.3596C31.0399 16.3996 31.0399 16.4396 31.0399 16.4796L30.9799 16.5196H29.1699H29.1599Z" fill="#292422"/>
<path d="M31.1899 18.1296H31.3599C31.5399 18.1296 31.6699 18.1296 31.6699 17.9196V16.1096C31.6699 15.9096 31.4299 15.8696 31.3299 15.8196V15.7196C31.7999 15.5196 32.0599 15.3496 32.1199 15.3496C32.1599 15.3496 32.1799 15.3696 32.1799 15.4296V16.0096H32.1899C32.3499 15.7596 32.6199 15.3496 33.0199 15.3496C33.1799 15.3496 33.3899 15.4596 33.3899 15.6896C33.3899 15.8596 33.2699 16.0196 33.0899 16.0196C32.8899 16.0196 32.8899 15.8596 32.6599 15.8596C32.5499 15.8596 32.1899 16.0096 32.1899 16.3996V17.9196C32.1899 18.1296 32.3199 18.1296 32.4999 18.1296H32.8599V18.2996C32.5099 18.2996 32.2399 18.2896 31.9599 18.2896C31.6799 18.2896 31.4199 18.2896 31.1899 18.2996V18.1296Z" fill="#292422"/>
<path d="M33.6698 17.3996C33.7498 17.8296 34.0098 18.1896 34.4798 18.1896C34.8598 18.1896 34.9998 17.9596 34.9998 17.7296C34.9998 16.9696 33.5898 17.2096 33.5898 16.1796C33.5898 15.8196 33.8798 15.3496 34.5898 15.3496C34.7998 15.3496 35.0698 15.4096 35.3198 15.5396L35.3698 16.1996H35.2198C35.1598 15.7896 34.9298 15.5596 34.5198 15.5596C34.2598 15.5596 34.0198 15.7096 34.0198 15.9896C34.0198 16.7496 35.5198 16.5096 35.5198 17.5296C35.5198 17.9596 35.1798 18.4096 34.4098 18.4096C34.1498 18.4096 33.8498 18.3196 33.6198 18.1896L33.5498 17.4496L33.6698 17.4196V17.3996Z" fill="#292422"/>
<path d="M41.3498 14.9597H41.1898C41.0698 14.2097 40.5298 13.8997 39.8098 13.8997C39.0898 13.8997 37.9898 14.3997 37.9898 15.9397C37.9898 17.2397 38.9198 18.1797 39.9098 18.1797C40.5498 18.1797 41.0798 17.7397 41.2098 17.0597L41.3598 17.0997L41.2098 18.0397C40.9398 18.2097 40.2098 18.3797 39.7798 18.3797C38.2698 18.3797 37.3198 17.4097 37.3198 15.9497C37.3198 14.6297 38.4998 13.6797 39.7598 13.6797C40.2798 13.6797 40.7898 13.8497 41.2798 14.0197L41.3398 14.9397L41.3498 14.9597Z" fill="#292422"/>
<path d="M41.5798 18.1289H41.6998C41.8798 18.1289 42.0098 18.1289 42.0098 17.9189V14.3289C42.0098 13.9089 41.9098 13.8989 41.6698 13.8289V13.7289C41.9298 13.6489 42.1998 13.5289 42.3298 13.4489C42.3998 13.4089 42.4498 13.3789 42.4698 13.3789C42.5098 13.3789 42.5198 13.4189 42.5198 13.4689V17.9289C42.5198 18.1389 42.6598 18.1389 42.8398 18.1389H42.9498V18.3089C42.7298 18.3089 42.5098 18.2989 42.2698 18.2989C42.0298 18.2989 41.8098 18.2989 41.5698 18.3089V18.1389L41.5798 18.1289Z" fill="#292422"/>
<path d="M45.72 17.9392C45.72 18.0592 45.79 18.0592 45.9 18.0592C45.98 18.0592 46.07 18.0592 46.16 18.0592V18.1992C45.88 18.2292 45.35 18.3592 45.23 18.3992L45.2 18.3792V17.8592C44.81 18.1792 44.52 18.3992 44.06 18.3992C43.71 18.3992 43.35 18.1692 43.35 17.6292V15.9792C43.35 15.8092 43.32 15.6492 42.96 15.6192V15.4992C43.19 15.4992 43.71 15.4492 43.79 15.4492C43.86 15.4492 43.86 15.4992 43.86 15.6392V17.2992C43.86 17.4892 43.86 18.0492 44.42 18.0492C44.64 18.0492 44.93 17.8792 45.2 17.6592V15.9192C45.2 15.7892 44.89 15.7192 44.66 15.6592V15.5392C45.24 15.4992 45.6 15.4492 45.67 15.4492C45.72 15.4492 45.72 15.4992 45.72 15.5692V17.9492V17.9392Z" fill="#292422"/>
<path d="M46.9999 17.5591C46.9999 17.8091 47.2299 18.2191 47.6599 18.2191C48.3499 18.2191 48.6399 17.5391 48.6399 16.9691C48.6399 16.2691 48.1099 15.6891 47.6099 15.6891C47.3699 15.6891 47.1699 15.8491 46.9999 15.9891V17.5591ZM46.9999 15.8091C47.2599 15.5891 47.6099 15.3491 47.9599 15.3491C48.7099 15.3491 49.1599 15.9991 49.1599 16.6991C49.1599 17.5391 48.5399 18.3891 47.6199 18.3891C47.1399 18.3891 46.8899 18.2291 46.7199 18.1591L46.5299 18.3091L46.3999 18.2391C46.4599 17.8591 46.4899 17.4891 46.4899 17.0891V14.3191C46.4899 13.8991 46.3899 13.8891 46.1499 13.8191V13.7191C46.4099 13.6391 46.6799 13.5191 46.8099 13.4391C46.8799 13.3991 46.9299 13.3691 46.9499 13.3691C46.9899 13.3691 46.9999 13.4091 46.9999 13.4591V15.8091Z" fill="#292422"/>
<path d="M19.1797 22.0395H19.2297C19.3597 22.0395 19.4897 22.0195 19.4897 21.8395V19.9995C19.4897 19.8195 19.3597 19.7995 19.2297 19.7995H19.1797V19.6895C19.3197 19.6895 19.5297 19.6995 19.6997 19.6995C19.8697 19.6995 20.0897 19.6895 20.2497 19.6895V19.7995H20.1997C20.0697 19.7995 19.9397 19.8195 19.9397 19.9995V21.8395C19.9397 22.0195 20.0697 22.0395 20.1997 22.0395H20.2497V22.1495C20.0797 22.1495 19.8697 22.1395 19.6997 22.1395C19.5297 22.1395 19.3197 22.1495 19.1797 22.1495V22.0395Z" fill="#292422"/>
<path d="M20.2297 22.1299V22.0499H20.1997C20.0697 22.0499 19.9297 22.0299 19.9197 21.8299V19.9899C19.9197 19.7999 20.0697 19.7699 20.1997 19.7699H20.2297V19.6999C20.0697 19.6999 19.8597 19.7099 19.6897 19.7099C19.5197 19.7099 19.3197 19.6999 19.1897 19.6999V19.7699H19.2197C19.3397 19.7699 19.4897 19.7899 19.4897 19.9899V21.8299C19.4897 22.0199 19.3397 22.0499 19.2197 22.0499H19.1897V22.1299C19.3297 22.1299 19.5197 22.1199 19.6897 22.1199C19.8597 22.1199 20.0597 22.1299 20.2297 22.1299ZM20.2497 22.1599C20.0797 22.1599 19.8697 22.1499 19.6997 22.1499C19.5297 22.1499 19.3197 22.1599 19.1797 22.1599H19.1597V22.0199H19.2197C19.3497 22.0199 19.4597 22.0099 19.4597 21.8399V19.9999C19.4597 19.8299 19.3397 19.8199 19.2197 19.8099H19.1597V19.6699H19.1797C19.3197 19.6699 19.5297 19.6799 19.6997 19.6799C19.8697 19.6799 20.0797 19.6699 20.2497 19.6699H20.2697V19.8099H20.2097C20.0797 19.8099 19.9697 19.8199 19.9697 19.9999V21.8399C19.9697 22.0099 20.0897 22.0199 20.2097 22.0199H20.2697V22.1599H20.2497Z" fill="#292422"/>
<path d="M22.6596 21.4592V20.1392C22.6596 19.8492 22.4596 19.8092 22.3496 19.8092H22.2696V19.6992C22.4396 19.6992 22.5996 19.7092 22.7596 19.7092C22.8996 19.7092 23.0496 19.6992 23.1896 19.6992V19.8092H23.1396C22.9896 19.8092 22.8296 19.8392 22.8296 20.2592V21.8592C22.8296 21.9792 22.8296 22.1092 22.8496 22.2092H22.7196L20.9096 20.1992V21.6492C20.9096 21.9592 20.9696 22.0592 21.2396 22.0592H21.2996V22.1692C21.1496 22.1692 20.9996 22.1592 20.8496 22.1592C20.6996 22.1592 20.5296 22.1692 20.3696 22.1692V22.0592H20.4196C20.6596 22.0592 20.7396 21.8992 20.7396 21.6192V20.1392C20.7396 19.9392 20.5796 19.8192 20.4196 19.8192H20.3696V19.7092C20.4996 19.7092 20.6396 19.7192 20.7696 19.7192C20.8796 19.7192 20.9796 19.7092 21.0796 19.7092L22.6396 21.4692L22.6596 21.4592Z" fill="#292422"/>
<path d="M22.7196 22.1797H22.8396C22.8196 22.0697 22.8196 21.9597 22.8196 21.8397V20.2397C22.8196 19.8197 22.9996 19.7797 23.1496 19.7797H23.1896V19.7097C23.0496 19.7097 22.9096 19.7197 22.7696 19.7197C22.6096 19.7197 22.4496 19.7097 22.2896 19.7097V19.7797H22.3496C22.4596 19.7797 22.6696 19.8297 22.6696 20.1297V21.4597H22.6596H22.6496L21.0896 19.7097C20.9896 19.7097 20.8796 19.7197 20.7796 19.7197C20.6496 19.7197 20.5196 19.7097 20.3896 19.7097V19.7797H20.4196C20.5796 19.7797 20.7496 19.9097 20.7496 20.1097V21.5897C20.7496 21.8697 20.6696 22.0497 20.4196 22.0497H20.3896V22.1197C20.5396 22.1197 20.6996 22.1097 20.8496 22.1097C20.9996 22.1097 21.1396 22.1197 21.2896 22.1197V22.0497H21.2496C20.9696 22.0497 20.9096 21.9297 20.8996 21.6197V20.1297L22.7196 22.1697V22.1797ZM22.8496 22.2097H22.7096L20.9296 20.2197V21.6297C20.9296 21.9397 20.9796 22.0197 21.2396 22.0297H21.3196V22.1697H21.2996C21.1496 22.1697 20.9996 22.1597 20.8496 22.1597C20.6896 22.1597 20.5296 22.1697 20.3696 22.1697H20.3496V22.0297H20.4096C20.6396 22.0297 20.7096 21.8797 20.7096 21.5997V20.1197C20.7096 19.9297 20.5596 19.8197 20.4096 19.8197H20.3496V19.6797H20.3696C20.4996 19.6797 20.6396 19.6897 20.7696 19.6897C20.8696 19.6897 20.9796 19.6797 21.0896 19.6897L22.6296 21.4297V20.1397C22.6296 19.8597 22.4396 19.8297 22.3396 19.8197H22.2496V19.6797H22.2696C22.4396 19.6797 22.5996 19.6897 22.7596 19.6897C22.8996 19.6897 23.0496 19.6797 23.1896 19.6797H23.2096V19.8197H23.1396C22.9996 19.8197 22.8496 19.8397 22.8396 20.2497V21.8497C22.8396 21.9697 22.8396 22.0997 22.8596 22.1997V22.2197H22.8496V22.2097Z" fill="#292422"/>
<path d="M23.73 19.8701C23.47 19.8701 23.46 19.9301 23.4 20.1901H23.29C23.3 20.0901 23.32 19.9901 23.33 19.8901C23.34 19.7901 23.35 19.6901 23.35 19.5901H23.43C23.46 19.7001 23.55 19.6901 23.64 19.6901H25.45C25.55 19.6901 25.63 19.6901 25.64 19.5801H25.72C25.71 19.6901 25.69 19.7801 25.68 19.8801C25.68 19.9701 25.68 20.0701 25.68 20.1601L25.57 20.2001C25.57 20.0701 25.55 19.8601 25.31 19.8601H24.73V21.7301C24.73 22.0001 24.85 22.0301 25.02 22.0301H25.09V22.1401C24.95 22.1401 24.71 22.1301 24.52 22.1301C24.31 22.1301 24.06 22.1401 23.93 22.1401V22.0301H24C24.19 22.0301 24.29 22.0101 24.29 21.7401V19.8701H23.71H23.73Z" fill="#292422"/>
<path d="M25.1198 22.1591C24.9798 22.1591 24.7398 22.1491 24.5498 22.1491C24.3398 22.1491 24.0898 22.1591 23.9598 22.1591H23.9498V22.0191H24.0298C24.2198 22.0191 24.2998 22.0191 24.3098 21.7391V19.8791H23.7498V19.8491H24.3398V21.7391C24.3398 22.0191 24.2298 22.0491 24.0298 22.0491H23.9798V22.1191C24.1198 22.1191 24.3498 22.1091 24.5598 22.1091C24.7398 22.1091 24.9798 22.1191 25.1198 22.1191V22.0491H25.0698C24.8998 22.0491 24.7598 22.0091 24.7598 21.7291V19.8491H25.3498C25.5898 19.8491 25.6198 20.0491 25.6198 20.1791L25.6998 20.1491C25.6998 20.0591 25.6998 19.9691 25.6998 19.8691C25.7098 19.7791 25.7198 19.6891 25.7398 19.5991H25.6898C25.6698 19.6891 25.5798 19.6991 25.4898 19.6991H23.6598C23.5798 19.6991 23.4898 19.6991 23.4598 19.5991H23.3998C23.3998 19.6991 23.3998 19.7891 23.3798 19.8791C23.3698 19.9791 23.3498 20.0691 23.3398 20.1591H23.4198C23.4698 19.9191 23.4998 19.8391 23.7598 19.8391V19.8691C23.4998 19.8691 23.5098 19.9191 23.4498 20.1791L23.4398 20.1891H23.3198V20.1691C23.3398 20.0691 23.3498 19.9691 23.3598 19.8691C23.3698 19.7691 23.3798 19.6791 23.3798 19.5691V19.5491H23.4898C23.5098 19.6491 23.5798 19.6491 23.6698 19.6491H25.4998C25.5998 19.6491 25.6698 19.6491 25.6798 19.5591V19.5391H25.6998L25.7998 19.5591V19.5791C25.7798 19.6691 25.7698 19.7691 25.7598 19.8591C25.7598 19.9491 25.7598 20.0491 25.7598 20.1391V20.1591L25.6398 20.2091V20.1891C25.6298 20.0591 25.6198 19.8691 25.3898 19.8691H24.8298V21.7191C24.8298 21.9791 24.9398 21.9991 25.1098 22.0091H25.1898V22.1491H25.1798L25.1198 22.1591Z" fill="#292422"/>
<path d="M25.8496 22.0395H25.8996C26.0296 22.0395 26.1596 22.0195 26.1596 21.8395V19.9995C26.1596 19.8195 26.0296 19.7995 25.8996 19.7995H25.8496V19.6895C26.0596 19.6895 26.4296 19.6995 26.7196 19.6995C27.0096 19.6995 27.3796 19.6895 27.6196 19.6895C27.6196 19.8395 27.6196 20.0695 27.6196 20.2295L27.5096 20.2595C27.4896 20.0295 27.4496 19.8495 27.0796 19.8495H26.5896V20.7695H27.0096C27.2196 20.7695 27.2696 20.6495 27.2896 20.4595H27.3996C27.3996 20.5995 27.3896 20.7295 27.3896 20.8695C27.3896 21.0095 27.3896 21.1395 27.3996 21.2695L27.2896 21.2895C27.2696 21.0795 27.2596 20.9395 27.0196 20.9395H26.5996V21.7595C26.5996 21.9895 26.7996 21.9895 27.0296 21.9895C27.4496 21.9895 27.6396 21.9595 27.7396 21.5595L27.8396 21.5795C27.7896 21.7695 27.7496 21.9495 27.7196 22.1395C27.4996 22.1395 27.0896 22.1295 26.7796 22.1295C26.4696 22.1295 26.0496 22.1395 25.8496 22.1395V22.0295V22.0395Z" fill="#292422"/>
<path d="M27.7196 22.1299C27.7496 21.9499 27.7896 21.7799 27.8296 21.5999L27.7596 21.5799C27.6496 21.9699 27.4496 22.0099 27.0396 22.0099C26.8196 22.0099 26.5996 22.0099 26.5996 21.7699V20.9399H27.0396C27.2896 20.9399 27.3096 21.0899 27.3296 21.2899L27.4096 21.2699C27.4096 21.1399 27.4096 21.0099 27.4096 20.8799C27.4096 20.7499 27.4096 20.6199 27.4096 20.4799H27.3296C27.3096 20.6599 27.2496 20.7899 27.0396 20.7899H26.6096V19.8399H27.1096C27.4696 19.8399 27.5396 20.0299 27.5496 20.2499L27.6296 20.2299C27.6296 20.1299 27.6196 19.9999 27.6196 19.8899C27.6196 19.8299 27.6196 19.7699 27.6196 19.7199C27.3796 19.7199 27.0296 19.7299 26.7396 19.7299C26.4496 19.7299 26.0996 19.7199 25.8796 19.7199V19.7899H25.9096C26.0396 19.7899 26.1796 19.8099 26.1796 20.0099V21.8499C26.1796 22.0399 26.0296 22.0599 25.9096 22.0699H25.8796V22.1399C26.0796 22.1399 26.4896 22.1299 26.7996 22.1299C27.1096 22.1299 27.4996 22.1399 27.7296 22.1399L27.7196 22.1299ZM27.7296 22.1599C27.4996 22.1599 27.0996 22.1499 26.7896 22.1499C26.4796 22.1499 26.0596 22.1599 25.8596 22.1599H25.8496V22.0199H25.9096C26.0396 22.0199 26.1496 22.0099 26.1496 21.8399V19.9999C26.1496 19.8299 26.0296 19.8199 25.9096 19.8099H25.8496V19.6699H25.8596C26.0696 19.6699 26.4396 19.6799 26.7296 19.6799C27.0196 19.6799 27.3896 19.6699 27.6296 19.6699H27.6496V19.6899C27.6496 19.7399 27.6496 19.8099 27.6496 19.8699C27.6496 19.9899 27.6496 20.1199 27.6596 20.2199L27.6496 20.2399L27.5296 20.2699V20.2499C27.5096 20.0199 27.4796 19.8599 27.1196 19.8499H26.6496V20.7399H27.0496C27.2496 20.7399 27.2896 20.6299 27.3096 20.4499L27.3196 20.4399H27.4396V20.4599C27.4396 20.5999 27.4296 20.7299 27.4296 20.8699C27.4296 21.0099 27.4296 21.1399 27.4396 21.2699L27.4296 21.2899L27.3096 21.3099V21.2899C27.2796 21.0799 27.2796 20.9599 27.0496 20.9599H26.6396V21.7599C26.6396 21.9699 26.8196 21.9699 27.0496 21.9699C27.4696 21.9699 27.6396 21.9499 27.7496 21.5499L27.7596 21.5399L27.8696 21.5699C27.8196 21.7699 27.7796 21.9599 27.7496 22.1399L27.7396 22.1499L27.7296 22.1599Z" fill="#292422"/>
<path d="M28.7698 20.8892H28.9398C29.2898 20.8892 29.4798 20.7592 29.4798 20.3392C29.4798 20.0292 29.2798 19.8292 28.9698 19.8292C28.8598 19.8292 28.8198 19.8392 28.7698 19.8392V20.8892ZM28.3198 20.0792C28.3198 19.8192 28.1798 19.8092 28.0698 19.8092H28.0098V19.6992C28.1198 19.6992 28.3398 19.7092 28.5498 19.7092C28.7598 19.7092 28.9298 19.6992 29.1098 19.6992C29.5498 19.6992 29.9498 19.8192 29.9498 20.3192C29.9498 20.6392 29.7398 20.8292 29.4598 20.9392L30.0598 21.8392C30.1598 21.9892 30.2298 22.0292 30.3998 22.0492V22.1592C30.2798 22.1592 30.1698 22.1492 30.0598 22.1492C29.9498 22.1492 29.8398 22.1592 29.7298 22.1592C29.4598 21.8092 29.2298 21.4292 28.9998 21.0192H28.7698V21.7692C28.7698 22.0392 28.8998 22.0492 29.0598 22.0492H29.1198V22.1592C28.9198 22.1592 28.7198 22.1492 28.5198 22.1492C28.3498 22.1492 28.1898 22.1592 28.0098 22.1592V22.0492H28.0698C28.1998 22.0492 28.3198 21.9892 28.3198 21.8592V20.0792Z" fill="#292422"/>
<path d="M28.95 20.8692C29.3 20.8692 29.47 20.7492 29.48 20.3392C29.48 20.0292 29.29 19.8392 28.98 19.8392C28.89 19.8392 28.84 19.8392 28.8 19.8492V20.8692H28.96H28.95ZM28.78 20.8992H28.76V19.8292H28.77C28.77 19.8292 28.87 19.8092 28.97 19.8092C29.29 19.8092 29.5 20.0192 29.5 20.3392C29.5 20.7592 29.3 20.8992 28.94 20.8992H28.77H28.78ZM28.78 20.9992H29.02C29.25 21.4092 29.48 21.7892 29.74 22.1392C29.85 22.1392 29.96 22.1292 30.07 22.1292C30.18 22.1292 30.29 22.1392 30.4 22.1392V22.0592C30.24 22.0392 30.16 21.9892 30.06 21.8392L29.45 20.9292H29.47C29.74 20.8092 29.95 20.6292 29.95 20.3192C29.95 19.8292 29.57 19.7192 29.13 19.7192C28.94 19.7192 28.78 19.7292 28.56 19.7292C28.34 19.7292 28.15 19.7192 28.03 19.7192V19.7892H28.08C28.19 19.7892 28.34 19.8092 28.34 20.0692V21.8492C28.34 21.9892 28.21 22.0592 28.08 22.0592H28.03V22.1292C28.2 22.1292 28.36 22.1192 28.52 22.1192C28.72 22.1192 28.91 22.1292 29.11 22.1292V22.0592H29.06C28.9 22.0592 28.76 22.0392 28.76 21.7592V20.9892H28.78V20.9992ZM30.42 22.1692C30.3 22.1692 30.19 22.1592 30.08 22.1592C29.97 22.1592 29.86 22.1692 29.74 22.1592C29.47 21.8092 29.24 21.4292 29.01 21.0292H28.8V21.7692C28.8 22.0292 28.91 22.0292 29.07 22.0392H29.15V22.1792H29.13C28.93 22.1792 28.73 22.1692 28.53 22.1692C28.36 22.1692 28.2 22.1792 28.02 22.1792H28V22.0392H28.08C28.21 22.0392 28.31 21.9792 28.31 21.8692V20.0892C28.31 19.8392 28.19 19.8392 28.08 19.8392H28V19.6992H28.02C28.13 19.6992 28.35 19.7092 28.56 19.7092C28.77 19.7092 28.94 19.6992 29.13 19.6992C29.57 19.6992 29.98 19.8192 29.98 20.3292C29.98 20.6492 29.77 20.8392 29.5 20.9592L30.09 21.8392C30.19 21.9892 30.25 22.0192 30.42 22.0392H30.43V22.1792H30.41L30.42 22.1692Z" fill="#292422"/>
<path d="M32.7898 21.4592V20.1392C32.7898 19.8492 32.5898 19.8092 32.4898 19.8092H32.4098V19.6992C32.5698 19.6992 32.7398 19.7092 32.8998 19.7092C33.0398 19.7092 33.1898 19.6992 33.3298 19.6992V19.8092H33.2798C33.1298 19.8092 32.9698 19.8392 32.9698 20.2592V21.8592C32.9698 21.9792 32.9698 22.1092 32.9898 22.2092H32.8598L31.0498 20.1992V21.6492C31.0498 21.9592 31.1098 22.0592 31.3798 22.0592H31.4398V22.1692C31.2898 22.1692 31.1398 22.1592 30.9898 22.1592C30.8298 22.1592 30.6698 22.1692 30.5098 22.1692V22.0592H30.5598C30.7998 22.0592 30.8798 21.8992 30.8798 21.6192V20.1392C30.8798 19.9392 30.7198 19.8192 30.5598 19.8192H30.5098V19.7092C30.6398 19.7092 30.7798 19.7192 30.9098 19.7192C31.0098 19.7192 31.1198 19.7092 31.2198 19.7092L32.7798 21.4692L32.7898 21.4592Z" fill="#292422"/>
<path d="M32.85 22.1797H32.97C32.95 22.0697 32.95 21.9597 32.95 21.8397V20.2397C32.95 19.8197 33.13 19.7797 33.28 19.7797H33.32V19.7097C33.18 19.7097 33.04 19.7197 32.9 19.7197C32.74 19.7197 32.58 19.7097 32.42 19.7097V19.7797H32.48C32.59 19.7797 32.8 19.8297 32.8 20.1297V21.4597H32.79H32.78L31.22 19.7097C31.12 19.7097 31.01 19.7197 30.91 19.7197C30.78 19.7197 30.65 19.7097 30.52 19.7097V19.7797H30.55C30.71 19.7797 30.88 19.9097 30.88 20.1097V21.5897C30.88 21.8697 30.8 22.0497 30.55 22.0497H30.52V22.1197C30.67 22.1197 30.83 22.1097 30.98 22.1097C31.13 22.1097 31.27 22.1197 31.42 22.1197V22.0497H31.38C31.1 22.0497 31.03 21.9297 31.03 21.6197V20.1297L32.85 22.1697V22.1797ZM32.98 22.2097H32.84L31.06 20.2197V21.6297C31.06 21.9397 31.11 22.0197 31.38 22.0297H31.45V22.1697H31.43C31.28 22.1697 31.13 22.1597 30.98 22.1597C30.83 22.1597 30.66 22.1697 30.5 22.1697H30.48V22.0297H30.54C30.77 22.0297 30.84 21.8797 30.84 21.5997V20.1197C30.84 19.9297 30.69 19.8197 30.54 19.8197H30.48V19.6797H30.5C30.63 19.6797 30.77 19.6897 30.9 19.6897C31 19.6897 31.1 19.6797 31.22 19.6897L32.76 21.4297V20.1397C32.76 19.8597 32.57 19.8297 32.47 19.8197H32.38V19.6797H32.4C32.57 19.6797 32.73 19.6897 32.89 19.6897C33.03 19.6897 33.18 19.6797 33.32 19.6797H33.34V19.8197H33.27C33.13 19.8197 32.98 19.8397 32.97 20.2497V21.8497C32.97 21.9697 32.97 22.0897 32.99 22.1997V22.2197H32.98V22.2097Z" fill="#292422"/>
<path d="M34.4198 20.0896L34.0898 21.0796H34.7498L34.4298 20.0896H34.4198ZM33.9098 21.6396C33.8698 21.7596 33.8298 21.8496 33.8298 21.9096C33.8298 22.0196 33.9798 22.0296 34.0898 22.0296H34.1298V22.1396C33.9898 22.1396 33.8498 22.1296 33.6998 22.1296C33.5698 22.1296 33.4498 22.1296 33.3198 22.1396V22.0296H33.3398C33.4798 22.0296 33.5898 21.9496 33.6398 21.7996L34.1998 20.1896C34.2498 20.0596 34.3098 19.8796 34.3298 19.7496C34.4398 19.7096 34.5798 19.6396 34.6498 19.5996C34.6598 19.5996 34.6698 19.5996 34.6798 19.5996C34.6898 19.5996 34.6998 19.5996 34.7098 19.6096C34.7198 19.6396 34.7298 19.6696 34.7398 19.6996L35.3898 21.5396C35.4298 21.6596 35.4698 21.7896 35.5198 21.8996C35.5598 21.9996 35.6398 22.0396 35.7498 22.0396H35.7698V22.1496C35.6098 22.1496 35.4498 22.1396 35.2898 22.1396C35.1298 22.1396 34.9398 22.1396 34.7598 22.1496V22.0396H34.7998C34.8798 22.0396 35.0198 22.0296 35.0198 21.9396C35.0198 21.8896 34.9898 21.7996 34.9498 21.6896L34.8098 21.2796H34.0098L33.8998 21.6496L33.9098 21.6396Z" fill="#292422"/>
<path d="M34.1 21.0698H34.71L34.4 20.1298L34.09 21.0698H34.1ZM34.06 21.0998L34.4 20.0798H34.42H34.43L34.76 21.0998H34.06ZM34.78 22.1298C34.95 22.1298 35.12 22.1198 35.29 22.1198C35.46 22.1198 35.61 22.1198 35.76 22.1298V22.0598C35.64 22.0598 35.56 22.0098 35.51 21.9098C35.46 21.7998 35.42 21.6698 35.38 21.5498L34.73 19.7098C34.73 19.7098 34.71 19.6498 34.7 19.6298C34.7 19.6298 34.69 19.6298 34.68 19.6298C34.61 19.6698 34.47 19.7398 34.37 19.7698C34.35 19.8998 34.29 20.0798 34.24 20.2098L33.68 21.8198C33.63 21.9698 33.5 22.0598 33.36 22.0598V22.1298C33.48 22.1298 33.6 22.1198 33.72 22.1198C33.86 22.1198 33.99 22.1198 34.13 22.1298V22.0598H34.11C34 22.0598 33.84 22.0498 33.83 21.9198C33.83 21.8498 33.87 21.7598 33.91 21.6398L34.03 21.2598H34.85L34.99 21.6798C35.03 21.7898 35.06 21.8898 35.06 21.9398C35.06 22.0498 34.91 22.0598 34.83 22.0598H34.81V22.1298H34.78ZM35.77 22.1598C35.61 22.1598 35.45 22.1498 35.29 22.1498C35.13 22.1498 34.94 22.1498 34.76 22.1598H34.74V22.1498V22.0298H34.79C34.87 22.0298 34.99 22.0098 34.99 21.9398C34.99 21.8998 34.96 21.7998 34.92 21.6898L34.79 21.2898H34.02L33.91 21.6398C33.87 21.7598 33.83 21.8498 33.83 21.9098C33.83 21.9998 33.96 22.0198 34.08 22.0198H34.13V22.1598H34.11C33.97 22.1598 33.83 22.1398 33.69 22.1398C33.56 22.1398 33.44 22.1398 33.31 22.1498H33.29V22.1398V22.0198H33.33C33.46 22.0198 33.57 21.9498 33.62 21.7998L34.18 20.1898C34.23 20.0598 34.29 19.8798 34.32 19.7398C34.43 19.6998 34.57 19.6298 34.64 19.5898C34.64 19.5898 34.66 19.5898 34.67 19.5898C34.67 19.5898 34.7 19.5898 34.71 19.6098C34.71 19.6398 34.73 19.6698 34.74 19.6998L35.39 21.5398C35.43 21.6598 35.47 21.7898 35.52 21.8998C35.56 21.9898 35.63 22.0298 35.74 22.0298H35.78V22.1698H35.76L35.77 22.1598Z" fill="#292422"/>
<path d="M35.9297 19.8701C35.6697 19.8701 35.6597 19.9301 35.5997 20.1901H35.4897C35.4997 20.0901 35.5197 19.9901 35.5297 19.8901C35.5397 19.7901 35.5497 19.6901 35.5497 19.5901H35.6297C35.6597 19.7001 35.7497 19.6901 35.8397 19.6901H37.6497C37.7397 19.6901 37.8297 19.6901 37.8397 19.5801H37.9197C37.9097 19.6901 37.8897 19.7801 37.8797 19.8801C37.8797 19.9701 37.8797 20.0701 37.8797 20.1601L37.7697 20.2001C37.7697 20.0701 37.7497 19.8601 37.5097 19.8601H36.9297V21.7301C36.9297 22.0001 37.0497 22.0301 37.2197 22.0301H37.2897V22.1401C37.1497 22.1401 36.9097 22.1301 36.7197 22.1301C36.5097 22.1301 36.2597 22.1401 36.1297 22.1401V22.0301H36.1997C36.3897 22.0301 36.4897 22.0101 36.4897 21.7401V19.8701H35.9097H35.9297Z" fill="#292422"/>
<path d="M37.31 22.1588C37.17 22.1588 36.93 22.1488 36.74 22.1488C36.53 22.1488 36.28 22.1588 36.15 22.1588H36.13V22.0188H36.21C36.4 22.0188 36.48 22.0188 36.49 21.7388V19.8788H35.93V19.8488H36.52V21.7388C36.52 22.0188 36.41 22.0488 36.21 22.0488H36.16V22.1288C36.3 22.1288 36.53 22.1188 36.74 22.1188C36.92 22.1188 37.16 22.1288 37.3 22.1288V22.0488H37.25C37.08 22.0488 36.94 22.0088 36.94 21.7288V19.8488H37.53C37.77 19.8488 37.8 20.0488 37.8 20.1788L37.88 20.1488C37.88 20.0588 37.88 19.9688 37.88 19.8688C37.88 19.7788 37.9 19.6888 37.92 19.5988H37.87C37.85 19.6888 37.75 19.6988 37.67 19.6988H35.84C35.76 19.6988 35.67 19.6988 35.64 19.5988H35.58C35.58 19.6988 35.58 19.7888 35.56 19.8888C35.56 19.9888 35.53 20.0788 35.52 20.1688H35.6C35.65 19.9288 35.68 19.8488 35.94 19.8488V19.8788C35.68 19.8788 35.69 19.9288 35.63 20.1888L35.62 20.1988H35.5V20.1788C35.52 20.0788 35.53 19.9788 35.54 19.8788C35.55 19.7788 35.56 19.6788 35.56 19.5788V19.5588H35.67C35.69 19.6588 35.76 19.6588 35.85 19.6588H35.87H37.68C37.78 19.6588 37.85 19.6588 37.85 19.5688V19.5488H37.87L37.97 19.5688V19.5888C37.95 19.6788 37.94 19.7788 37.93 19.8688C37.93 19.9588 37.93 20.0588 37.93 20.1488V20.1588L37.81 20.2088V20.1888C37.81 20.0588 37.79 19.8688 37.56 19.8688H37V21.7188C37 21.9788 37.11 21.9988 37.28 22.0088H37.36V22.1488H37.34L37.31 22.1588Z" fill="#292422"/>
<path d="M38.0698 22.0395H38.1198C38.2498 22.0395 38.3798 22.0195 38.3798 21.8395V19.9995C38.3798 19.8195 38.2498 19.7995 38.1198 19.7995H38.0698V19.6895C38.2098 19.6895 38.4198 19.6995 38.5898 19.6995C38.7598 19.6995 38.9798 19.6895 39.1398 19.6895V19.7995H39.0898C38.9598 19.7995 38.8298 19.8195 38.8298 19.9995V21.8395C38.8298 22.0195 38.9598 22.0395 39.0898 22.0395H39.1398V22.1495C38.9698 22.1495 38.7598 22.1395 38.5898 22.1395C38.4198 22.1395 38.2098 22.1495 38.0698 22.1495V22.0395Z" fill="#292422"/>
<path d="M39.1198 22.1299V22.0599H39.0898C38.9598 22.0599 38.8198 22.0399 38.8198 21.8399V19.9999C38.8198 19.8099 38.9698 19.7799 39.0898 19.7799H39.1198V19.7099C38.9598 19.7099 38.7598 19.7199 38.5798 19.7199C38.3998 19.7199 38.2098 19.7099 38.0798 19.7099V19.7799H38.1098C38.2298 19.7799 38.3798 19.7999 38.3798 19.9999V21.8399C38.3798 22.0299 38.2298 22.0599 38.1098 22.0599H38.0798V22.1299C38.2198 22.1299 38.4098 22.1199 38.5798 22.1199C38.7498 22.1199 38.9498 22.1299 39.1198 22.1299ZM39.1398 22.1599C38.9698 22.1599 38.7598 22.1499 38.5898 22.1499C38.4198 22.1499 38.2098 22.1599 38.0698 22.1599H38.0498V22.0199H38.1098C38.2398 22.0199 38.3498 22.0099 38.3498 21.8399V19.9999C38.3498 19.8299 38.2298 19.8199 38.1098 19.8099H38.0498V19.6699H38.0698C38.2098 19.6699 38.4198 19.6799 38.5898 19.6799C38.7598 19.6799 38.9798 19.6699 39.1398 19.6699H39.1498V19.8099H39.0898C38.9598 19.8099 38.8498 19.8199 38.8398 19.9999V21.8399C38.8398 22.0099 38.9598 22.0199 39.0898 22.0199H39.1498V22.1599H39.1398Z" fill="#292422"/>
<path d="M40.5897 22.0487C41.2697 22.0487 41.3897 21.4487 41.3897 20.9387C41.3897 20.4287 41.1097 19.8087 40.5297 19.8087C39.9197 19.8087 39.7297 20.3587 39.7297 20.8287C39.7297 21.4587 40.0197 22.0587 40.5897 22.0587V22.0487ZM40.5397 19.6487C41.2897 19.6487 41.8797 20.1087 41.8797 20.8587C41.8797 21.6687 41.2997 22.1987 40.5497 22.1987C39.7997 22.1987 39.2397 21.6887 39.2397 20.9387C39.2397 20.1887 39.7997 19.6387 40.5297 19.6387L40.5397 19.6487Z" fill="#292422"/>
<path d="M39.72 20.8191C39.72 20.3491 39.91 19.7891 40.53 19.7891C41.13 19.7891 41.4 20.4191 41.4 20.9391C41.4 21.4491 41.28 22.0691 40.59 22.0691V22.0391C41.26 22.0391 41.37 21.4491 41.37 20.9391C41.37 20.4291 41.1 19.8191 40.53 19.8191C39.93 19.8191 39.75 20.3491 39.75 20.8191C39.75 21.4491 40.04 22.0291 40.59 22.0291V22.0491C40.01 22.0591 39.72 21.4491 39.72 20.8191ZM39.23 20.9391C39.23 20.1991 39.8 19.6291 40.54 19.6291V19.6491C39.82 19.6591 39.26 20.2191 39.26 20.9391C39.26 21.6891 39.82 22.1791 40.56 22.1791C41.3 22.1791 41.87 21.6491 41.87 20.8491C41.87 20.1091 41.28 19.6591 40.54 19.6491V19.6191C41.29 19.6191 41.9 20.0891 41.9 20.8491C41.9 21.6691 41.31 22.2091 40.56 22.2091C39.81 22.2091 39.23 21.6991 39.23 20.9291V20.9391Z" fill="#292422"/>
<path d="M44.25 21.4592V20.1392C44.25 19.8492 44.05 19.8092 43.94 19.8092H43.86V19.6992C44.02 19.6992 44.19 19.7092 44.35 19.7092C44.49 19.7092 44.64 19.6992 44.78 19.6992V19.8092H44.73C44.58 19.8092 44.42 19.8392 44.42 20.2592V21.8592C44.42 21.9792 44.42 22.1092 44.44 22.2092H44.31L42.5 20.1992V21.6492C42.5 21.9592 42.56 22.0592 42.83 22.0592H42.89V22.1692C42.74 22.1692 42.59 22.1592 42.44 22.1592C42.29 22.1592 42.12 22.1692 41.96 22.1692V22.0592H42.01C42.25 22.0592 42.33 21.8992 42.33 21.6192V20.1392C42.33 19.9392 42.17 19.8192 42.01 19.8192H41.96V19.7092C42.09 19.7092 42.23 19.7192 42.36 19.7192C42.47 19.7192 42.57 19.7092 42.67 19.7092L44.23 21.4692L44.25 21.4592Z" fill="#292422"/>
<path d="M44.3099 22.1799H44.4199C44.3999 22.0699 44.3999 21.9599 44.3999 21.8399V20.2399C44.3999 19.8199 44.5799 19.7799 44.7299 19.7799H44.7699V19.7099C44.6299 19.7099 44.4899 19.7199 44.3499 19.7199C44.1899 19.7199 44.0299 19.7099 43.8699 19.7099V19.7799H43.9299C44.0399 19.7799 44.2499 19.8299 44.2499 20.1299V21.4599H44.2399H44.2299L42.6699 19.7099C42.5699 19.7099 42.4599 19.7199 42.3599 19.7199C42.2299 19.7199 42.0999 19.7099 41.9699 19.7099V19.7799H41.9999C42.1599 19.7799 42.3299 19.9099 42.3299 20.1099V21.5899C42.3299 21.8699 42.2499 22.0499 41.9999 22.0499H41.9699V22.1199C42.1199 22.1199 42.2799 22.1099 42.4299 22.1099C42.5799 22.1099 42.7199 22.1199 42.8699 22.1199V22.0499H42.8199C42.5399 22.0499 42.4799 21.9299 42.4799 21.6199V20.1299L44.2999 22.1699L44.3099 22.1799ZM44.4399 22.2099H44.2899L42.5099 20.2199V21.6299C42.5099 21.9399 42.5599 22.0199 42.8199 22.0199H42.8999V22.1599H42.8799C42.7299 22.1599 42.5799 22.1499 42.4299 22.1499C42.2699 22.1499 42.1099 22.1599 41.9499 22.1599H41.9399V22.0199H41.9999C42.2299 22.0199 42.2999 21.8699 42.2999 21.5899V20.1099C42.2999 19.9199 42.1499 19.8099 41.9999 19.8099H41.9399V19.6699H41.9499C42.0799 19.6699 42.2199 19.6799 42.3499 19.6799C42.4499 19.6799 42.5599 19.6699 42.6699 19.6799L44.2099 21.4199V20.1299C44.2099 19.8499 44.0199 19.8199 43.9199 19.8099H43.8299V19.6699H43.8499C44.0199 19.6699 44.1799 19.6799 44.3399 19.6799C44.4799 19.6799 44.6299 19.6699 44.7699 19.6699H44.7799V19.8099H44.7099C44.5699 19.8099 44.4199 19.8299 44.4099 20.2399V21.8399C44.4099 21.9599 44.4099 22.0899 44.4299 22.1899V22.2099H44.4199H44.4399Z" fill="#292422"/>
<path d="M45.8698 20.0896L45.5398 21.0796H46.1998L45.8798 20.0896H45.8698ZM45.3598 21.6396C45.3298 21.7596 45.2798 21.8496 45.2798 21.9096C45.2798 22.0196 45.4298 22.0296 45.5398 22.0296H45.5798V22.1396C45.4398 22.1396 45.2998 22.1296 45.1598 22.1296C45.0298 22.1296 44.9098 22.1296 44.7798 22.1396V22.0296H44.7998C44.9398 22.0296 45.0498 21.9496 45.1098 21.7996L45.6698 20.1896C45.7198 20.0596 45.7798 19.8796 45.7998 19.7496C45.9098 19.7096 46.0498 19.6396 46.1198 19.5996C46.1298 19.5996 46.1398 19.5996 46.1498 19.5996C46.1598 19.5996 46.1698 19.5996 46.1698 19.6096C46.1798 19.6396 46.1898 19.6696 46.1998 19.6996L46.8498 21.5396C46.8898 21.6596 46.9298 21.7896 46.9798 21.8996C47.0198 21.9996 47.0998 22.0396 47.2098 22.0396H47.2298V22.1496C47.0698 22.1496 46.9098 22.1396 46.7498 22.1396C46.5898 22.1396 46.3998 22.1396 46.2198 22.1496V22.0396H46.2598C46.3398 22.0396 46.4798 22.0296 46.4798 21.9396C46.4798 21.8896 46.4498 21.7996 46.4098 21.6896L46.2698 21.2796H45.4698L45.3598 21.6496V21.6396Z" fill="#292422"/>
<path d="M45.56 21.0701H46.17L45.86 20.1301L45.55 21.0701H45.56ZM45.52 21.1001L45.86 20.0801H45.88H45.89L46.22 21.1001H45.52ZM46.24 22.1301C46.41 22.1301 46.58 22.1201 46.75 22.1201C46.92 22.1201 47.07 22.1201 47.22 22.1301V22.0601C47.1 22.0601 47.02 22.0101 46.97 21.9101C46.92 21.8001 46.88 21.6701 46.84 21.5501L46.19 19.7101C46.19 19.7101 46.17 19.6501 46.16 19.6301C46.16 19.6301 46.15 19.6301 46.14 19.6301C46.07 19.6701 45.93 19.7401 45.83 19.7701C45.81 19.9001 45.74 20.0801 45.7 20.2101L45.14 21.8201C45.09 21.9701 44.96 22.0601 44.82 22.0601V22.1301C44.94 22.1301 45.06 22.1201 45.18 22.1201C45.32 22.1201 45.45 22.1201 45.59 22.1301V22.0601H45.57C45.46 22.0601 45.3 22.0501 45.29 21.9201C45.29 21.8501 45.33 21.7601 45.37 21.6401L45.49 21.2601H46.31L46.45 21.6801C46.49 21.7901 46.52 21.8901 46.52 21.9401C46.52 22.0501 46.37 22.0601 46.29 22.0601H46.27V22.1301H46.24ZM47.23 22.1601C47.07 22.1601 46.91 22.1501 46.75 22.1501C46.59 22.1501 46.4 22.1501 46.22 22.1601H46.2V22.1401V22.0201H46.25C46.33 22.0201 46.45 22.0001 46.45 21.9301C46.45 21.8901 46.42 21.7901 46.38 21.6801L46.25 21.2801H45.48L45.37 21.6301C45.33 21.7501 45.29 21.8401 45.29 21.9001C45.29 21.9901 45.42 22.0101 45.54 22.0101H45.59V22.1501H45.57C45.43 22.1501 45.29 22.1301 45.15 22.1301C45.02 22.1301 44.9 22.1301 44.77 22.1401H44.75V22.1201V22.0001H44.79C44.92 22.0001 45.03 21.9201 45.08 21.7801L45.64 20.1701C45.68 20.0401 45.75 19.8601 45.78 19.7301C45.89 19.6901 46.03 19.6201 46.1 19.5801C46.1 19.5801 46.12 19.5801 46.13 19.5801C46.13 19.5801 46.16 19.5801 46.17 19.6001C46.18 19.6301 46.19 19.6601 46.2 19.6901L46.85 21.5301C46.89 21.6501 46.93 21.7801 46.98 21.8901C47.02 21.9801 47.09 22.0201 47.2 22.0201H47.24V22.1601H47.22H47.23Z" fill="#292422"/>
<path d="M48.1196 21.8088C48.1196 21.9488 48.2196 21.9888 48.3296 22.0088C48.4696 22.0188 48.6296 22.0188 48.7896 22.0088C48.9396 21.9888 49.0596 21.9088 49.1296 21.8188C49.1896 21.7388 49.2196 21.6388 49.2396 21.5688H49.3396C49.2996 21.7688 49.2496 21.9688 49.2096 22.1688C48.8996 22.1688 48.5896 22.1588 48.2796 22.1588C47.9696 22.1588 47.6596 22.1688 47.3496 22.1688V22.0588H47.3996C47.5296 22.0588 47.6596 22.0388 47.6596 21.8288V20.0288C47.6596 19.8488 47.5196 19.8288 47.3996 19.8288H47.3496V19.7188C47.5396 19.7188 47.7196 19.7288 47.8996 19.7288C48.0796 19.7288 48.2496 19.7188 48.4296 19.7188V19.8288H48.3396C48.2096 19.8288 48.0996 19.8288 48.0996 20.0188V21.8288L48.1196 21.8088Z" fill="#292422"/>
<path d="M49.1901 22.1297C49.2301 21.9397 49.2801 21.7497 49.3101 21.5597H49.2401C49.2201 21.6397 49.1901 21.7297 49.1301 21.8097C49.0601 21.8997 48.9301 21.9897 48.7801 22.0097C48.6901 22.0097 48.6001 22.0197 48.5101 22.0197C48.4401 22.0197 48.3801 22.0197 48.3101 22.0197C48.2001 22.0097 48.0901 21.9597 48.0901 21.8097V19.9997C48.0901 19.8097 48.2101 19.7997 48.3401 19.7997H48.4101V19.7297C48.2401 19.7297 48.0701 19.7397 47.8901 19.7397C47.7101 19.7397 47.5301 19.7297 47.3501 19.7297V19.7997H47.3801C47.5101 19.7997 47.6601 19.8197 47.6601 20.0197V21.8197C47.6601 22.0497 47.5101 22.0697 47.3801 22.0697H47.3501V22.1397C47.6501 22.1397 47.9601 22.1297 48.2601 22.1297C48.5601 22.1297 48.8701 22.1397 49.1701 22.1397L49.1901 22.1297ZM49.2001 22.1597C48.8901 22.1597 48.5801 22.1497 48.2701 22.1497C47.9601 22.1497 47.6501 22.1597 47.3401 22.1597H47.3301V22.0197H47.3901C47.5201 22.0197 47.6401 22.0097 47.6401 21.7997V19.9997C47.6401 19.8297 47.5201 19.8197 47.3901 19.8197H47.3301V19.6797H47.3401C47.5301 19.6797 47.7101 19.6897 47.8901 19.6897C48.0701 19.6897 48.2401 19.6797 48.4201 19.6797H48.4301V19.8197H48.3301C48.1901 19.8197 48.1101 19.8197 48.1101 19.9897V21.7997C48.1101 21.9297 48.2001 21.9697 48.3101 21.9797C48.3701 21.9797 48.4401 21.9797 48.5001 21.9797C48.5901 21.9797 48.6801 21.9797 48.7701 21.9697C48.9101 21.9497 49.0401 21.8697 49.1001 21.7897C49.1501 21.7097 49.1901 21.6197 49.2101 21.5397L49.2201 21.5297H49.3401V21.5497C49.3001 21.7497 49.2501 21.9497 49.2101 22.1497L49.2001 22.1597Z" fill="#292422"/>
<mask id="mask1_2280_2704" style="mask-type:luminance" maskUnits="userSpaceOnUse" x="2" y="11" width="48" height="14">
<path d="M49.6698 11.8691H2.33984V24.1391H49.6698V11.8691Z" fill="white"/>
</mask>
<g mask="url(#mask1_2280_2704)">
<path d="M49.2299 19.9698H49.2699C49.2699 19.9698 49.3399 19.9298 49.3399 19.8798C49.3399 19.8298 49.3099 19.7998 49.2699 19.7998H49.2299V19.9698ZM49.1099 20.1598V20.1398C49.1099 20.1398 49.1599 20.1398 49.1599 20.1098V19.8398C49.1599 19.8398 49.1599 19.7898 49.1099 19.7898V19.7698H49.2999C49.3699 19.7698 49.4199 19.7998 49.4199 19.8698C49.4199 19.9198 49.3799 19.9698 49.3299 19.9798L49.3899 20.0598C49.3899 20.0598 49.4499 20.1298 49.4699 20.1498L49.3999 20.1598C49.3699 20.1598 49.3399 20.0898 49.2699 19.9898H49.2299V20.1098C49.2299 20.1098 49.2299 20.1298 49.2799 20.1398V20.1598H49.0999H49.1099ZM49.2899 20.2598C49.4599 20.2598 49.5799 20.1198 49.5799 19.9598C49.5799 19.7998 49.4499 19.6598 49.2899 19.6598C49.1299 19.6598 48.9999 19.7998 48.9999 19.9598C48.9999 20.1198 49.1299 20.2598 49.2899 20.2598ZM49.2899 19.5898C49.4999 19.5898 49.6599 19.7498 49.6599 19.9598C49.6599 20.1698 49.4999 20.3298 49.2899 20.3298C49.0799 20.3298 48.9199 20.1698 48.9199 19.9598C48.9199 19.7498 49.0799 19.5898 49.2899 19.5898Z" fill="#292422"/>
<path d="M11.4001 24.1294C14.7501 24.1494 17.8101 21.3994 17.8101 18.0494C17.8101 14.3894 14.7501 11.8594 11.4001 11.8594H8.51008C5.12008 11.8594 2.33008 14.3894 2.33008 18.0494C2.33008 21.3994 5.12008 24.1494 8.51008 24.1294H11.4001Z" fill="#0475B5"/>
</g>
<path d="M9.79992 21.3089V14.6689C11.1399 15.1789 12.0799 16.4789 12.0899 17.9889C12.0899 19.5089 11.1399 20.7989 9.79992 21.3089ZM4.96992 17.9889C4.96992 16.4689 5.91992 15.1789 7.24992 14.6689V21.3089C5.91992 20.7989 4.96992 19.5089 4.96992 17.9889ZM8.52992 12.3789C5.42992 12.3789 2.91992 14.8889 2.91992 17.9889C2.91992 21.0889 5.42992 23.5989 8.52992 23.5989C11.6299 23.5989 14.1399 21.0889 14.1399 17.9889C14.1399 14.8889 11.6299 12.3789 8.52992 12.3789Z" fill="white"/>
<path d="M20.4099 17.5293C20.4099 18.0293 20.7699 18.0793 21.0799 18.0793C22.4699 18.0793 22.9299 17.0293 22.9299 16.0693C22.9299 14.8593 22.1599 13.9893 20.9099 13.9893C20.6499 13.9893 20.5199 14.0093 20.4099 14.0193V17.5293ZM19.7799 14.4993C19.7799 13.9193 19.4799 13.9593 19.1899 13.9493V13.7793C19.4399 13.7893 19.6999 13.7893 19.9499 13.7893C20.2199 13.7893 20.5899 13.7793 21.0699 13.7793C22.7399 13.7793 23.6499 14.8993 23.6499 16.0393C23.6499 16.6793 23.2799 18.2793 20.9899 18.2793C20.6599 18.2793 20.3599 18.2693 20.0499 18.2693C19.7399 18.2693 19.4799 18.2693 19.1899 18.2793V18.1093C19.5799 18.0693 19.7599 18.0593 19.7799 17.6193V14.4893V14.4993Z" fill="#292422"/>
<path d="M24.5596 14.3488C24.3896 14.3488 24.2396 14.1987 24.2396 14.0287C24.2396 13.8587 24.3896 13.7188 24.5596 13.7188C24.7296 13.7188 24.8796 13.8587 24.8796 14.0287C24.8796 14.1987 24.7396 14.3488 24.5596 14.3488ZM23.8696 18.1188H23.9896C24.1696 18.1188 24.2996 18.1187 24.2996 17.9087V16.1587C24.2996 15.8787 24.1996 15.8387 23.9596 15.7087V15.6087C24.2596 15.5187 24.6196 15.3987 24.6496 15.3787C24.6996 15.3487 24.7296 15.3488 24.7696 15.3488C24.8096 15.3488 24.8196 15.3887 24.8196 15.4387V17.9187C24.8196 18.1287 24.9596 18.1287 25.1396 18.1287H25.2496V18.2987C25.0296 18.2987 24.7996 18.2888 24.5696 18.2888C24.3396 18.2888 24.1096 18.2887 23.8696 18.2987V18.1287V18.1188Z" fill="#292422"/>
<path d="M25.8597 16.1998C25.8597 15.9598 25.7897 15.8998 25.4897 15.7698V15.6498C25.7697 15.5598 26.0297 15.4798 26.3397 15.3398C26.3597 15.3398 26.3797 15.3498 26.3797 15.3998V15.8198C26.7497 15.5598 27.0597 15.3398 27.4997 15.3398C28.0497 15.3398 28.2397 15.7398 28.2397 16.2398V17.8998C28.2397 18.1098 28.3797 18.1098 28.5597 18.1098H28.6797V18.2798C28.4497 18.2798 28.2297 18.2698 27.9997 18.2698C27.7697 18.2698 27.5397 18.2698 27.2997 18.2798V18.1098H27.4197C27.5997 18.1098 27.7297 18.1098 27.7297 17.8998V16.2298C27.7297 15.8598 27.5097 15.6798 27.1397 15.6798C26.9297 15.6798 26.5997 15.8498 26.3897 15.9898V17.8998C26.3897 18.1098 26.5297 18.1098 26.7097 18.1098H26.8297V18.2798C26.5997 18.2798 26.3797 18.2698 26.1497 18.2698C25.9197 18.2698 25.6897 18.2698 25.4497 18.2798V18.1098H25.5697C25.7497 18.1098 25.8797 18.1098 25.8797 17.8998V16.1898L25.8597 16.1998Z" fill="#292422"/>
<path d="M30.2999 16.3096C30.4599 16.3096 30.4799 16.2296 30.4799 16.1496C30.4799 15.8196 30.2799 15.5596 29.9199 15.5596C29.5299 15.5596 29.2599 15.8496 29.1799 16.3096H30.2999ZM29.1599 16.5196C29.1499 16.5796 29.1499 16.6696 29.1599 16.8896C29.1999 17.4996 29.5899 18.0096 30.1099 18.0096C30.4699 18.0096 30.7399 17.8196 30.9799 17.5796L31.0699 17.6696C30.7699 18.0596 30.4099 18.3996 29.8799 18.3996C28.8499 18.3996 28.6499 17.4096 28.6499 16.9896C28.6499 15.7296 29.4999 15.3496 29.9499 15.3496C30.4699 15.3496 31.0299 15.6796 31.0399 16.3596C31.0399 16.3996 31.0399 16.4396 31.0399 16.4796L30.9799 16.5196H29.1699H29.1599Z" fill="#292422"/>
<path d="M31.1899 18.1296H31.3599C31.5399 18.1296 31.6699 18.1296 31.6699 17.9196V16.1096C31.6699 15.9096 31.4299 15.8696 31.3299 15.8196V15.7196C31.7999 15.5196 32.0599 15.3496 32.1199 15.3496C32.1599 15.3496 32.1799 15.3696 32.1799 15.4296V16.0096H32.1899C32.3499 15.7596 32.6199 15.3496 33.0199 15.3496C33.1799 15.3496 33.3899 15.4596 33.3899 15.6896C33.3899 15.8596 33.2699 16.0196 33.0899 16.0196C32.8899 16.0196 32.8899 15.8596 32.6599 15.8596C32.5499 15.8596 32.1899 16.0096 32.1899 16.3996V17.9196C32.1899 18.1296 32.3199 18.1296 32.4999 18.1296H32.8599V18.2996C32.5099 18.2996 32.2399 18.2896 31.9599 18.2896C31.6799 18.2896 31.4199 18.2896 31.1899 18.2996V18.1296Z" fill="#292422"/>
<path d="M33.6698 17.3996C33.7498 17.8296 34.0098 18.1896 34.4798 18.1896C34.8598 18.1896 34.9998 17.9596 34.9998 17.7296C34.9998 16.9696 33.5898 17.2096 33.5898 16.1796C33.5898 15.8196 33.8798 15.3496 34.5898 15.3496C34.7998 15.3496 35.0698 15.4096 35.3198 15.5396L35.3698 16.1996H35.2198C35.1598 15.7896 34.9298 15.5596 34.5198 15.5596C34.2598 15.5596 34.0198 15.7096 34.0198 15.9896C34.0198 16.7496 35.5198 16.5096 35.5198 17.5296C35.5198 17.9596 35.1798 18.4096 34.4098 18.4096C34.1498 18.4096 33.8498 18.3196 33.6198 18.1896L33.5498 17.4496L33.6698 17.4196V17.3996Z" fill="#292422"/>
<path d="M41.3498 14.9597H41.1898C41.0698 14.2097 40.5298 13.8997 39.8098 13.8997C39.0898 13.8997 37.9898 14.3997 37.9898 15.9397C37.9898 17.2397 38.9198 18.1797 39.9098 18.1797C40.5498 18.1797 41.0798 17.7397 41.2098 17.0597L41.3598 17.0997L41.2098 18.0397C40.9398 18.2097 40.2098 18.3797 39.7798 18.3797C38.2698 18.3797 37.3198 17.4097 37.3198 15.9497C37.3198 14.6297 38.4998 13.6797 39.7598 13.6797C40.2798 13.6797 40.7898 13.8497 41.2798 14.0197L41.3398 14.9397L41.3498 14.9597Z" fill="#292422"/>
<path d="M41.5798 18.1289H41.6998C41.8798 18.1289 42.0098 18.1289 42.0098 17.9189V14.3289C42.0098 13.9089 41.9098 13.8989 41.6698 13.8289V13.7289C41.9298 13.6489 42.1998 13.5289 42.3298 13.4489C42.3998 13.4089 42.4498 13.3789 42.4698 13.3789C42.5098 13.3789 42.5198 13.4189 42.5198 13.4689V17.9289C42.5198 18.1389 42.6598 18.1389 42.8398 18.1389H42.9498V18.3089C42.7298 18.3089 42.5098 18.2989 42.2698 18.2989C42.0298 18.2989 41.8098 18.2989 41.5698 18.3089V18.1389L41.5798 18.1289Z" fill="#292422"/>
<path d="M45.72 17.9392C45.72 18.0592 45.79 18.0592 45.9 18.0592C45.98 18.0592 46.07 18.0592 46.16 18.0592V18.1992C45.88 18.2292 45.35 18.3592 45.23 18.3992L45.2 18.3792V17.8592C44.81 18.1792 44.52 18.3992 44.06 18.3992C43.71 18.3992 43.35 18.1692 43.35 17.6292V15.9792C43.35 15.8092 43.32 15.6492 42.96 15.6192V15.4992C43.19 15.4992 43.71 15.4492 43.79 15.4492C43.86 15.4492 43.86 15.4992 43.86 15.6392V17.2992C43.86 17.4892 43.86 18.0492 44.42 18.0492C44.64 18.0492 44.93 17.8792 45.2 17.6592V15.9192C45.2 15.7892 44.89 15.7192 44.66 15.6592V15.5392C45.24 15.4992 45.6 15.4492 45.67 15.4492C45.72 15.4492 45.72 15.4992 45.72 15.5692V17.9492V17.9392Z" fill="#292422"/>
<path d="M46.9999 17.5591C46.9999 17.8091 47.2299 18.2191 47.6599 18.2191C48.3499 18.2191 48.6399 17.5391 48.6399 16.9691C48.6399 16.2691 48.1099 15.6891 47.6099 15.6891C47.3699 15.6891 47.1699 15.8491 46.9999 15.9891V17.5591ZM46.9999 15.8091C47.2599 15.5891 47.6099 15.3491 47.9599 15.3491C48.7099 15.3491 49.1599 15.9991 49.1599 16.6991C49.1599 17.5391 48.5399 18.3891 47.6199 18.3891C47.1399 18.3891 46.8899 18.2291 46.7199 18.1591L46.5299 18.3091L46.3999 18.2391C46.4599 17.8591 46.4899 17.4891 46.4899 17.0891V14.3191C46.4899 13.8991 46.3899 13.8891 46.1499 13.8191V13.7191C46.4099 13.6391 46.6799 13.5191 46.8099 13.4391C46.8799 13.3991 46.9299 13.3691 46.9499 13.3691C46.9899 13.3691 46.9999 13.4091 46.9999 13.4591V15.8091Z" fill="#292422"/>
<path d="M19.1797 22.0395H19.2297C19.3597 22.0395 19.4897 22.0195 19.4897 21.8395V19.9995C19.4897 19.8195 19.3597 19.7995 19.2297 19.7995H19.1797V19.6895C19.3197 19.6895 19.5297 19.6995 19.6997 19.6995C19.8697 19.6995 20.0897 19.6895 20.2497 19.6895V19.7995H20.1997C20.0697 19.7995 19.9397 19.8195 19.9397 19.9995V21.8395C19.9397 22.0195 20.0697 22.0395 20.1997 22.0395H20.2497V22.1495C20.0797 22.1495 19.8697 22.1395 19.6997 22.1395C19.5297 22.1395 19.3197 22.1495 19.1797 22.1495V22.0395Z" fill="#292422"/>
<path d="M20.2297 22.1299V22.0499H20.1997C20.0697 22.0499 19.9297 22.0299 19.9197 21.8299V19.9899C19.9197 19.7999 20.0697 19.7699 20.1997 19.7699H20.2297V19.6999C20.0697 19.6999 19.8597 19.7099 19.6897 19.7099C19.5197 19.7099 19.3197 19.6999 19.1897 19.6999V19.7699H19.2197C19.3397 19.7699 19.4897 19.7899 19.4897 19.9899V21.8299C19.4897 22.0199 19.3397 22.0499 19.2197 22.0499H19.1897V22.1299C19.3297 22.1299 19.5197 22.1199 19.6897 22.1199C19.8597 22.1199 20.0597 22.1299 20.2297 22.1299ZM20.2497 22.1599C20.0797 22.1599 19.8697 22.1499 19.6997 22.1499C19.5297 22.1499 19.3197 22.1599 19.1797 22.1599H19.1597V22.0199H19.2197C19.3497 22.0199 19.4597 22.0099 19.4597 21.8399V19.9999C19.4597 19.8299 19.3397 19.8199 19.2197 19.8099H19.1597V19.6699H19.1797C19.3197 19.6699 19.5297 19.6799 19.6997 19.6799C19.8697 19.6799 20.0797 19.6699 20.2497 19.6699H20.2697V19.8099H20.2097C20.0797 19.8099 19.9697 19.8199 19.9697 19.9999V21.8399C19.9697 22.0099 20.0897 22.0199 20.2097 22.0199H20.2697V22.1599H20.2497Z" fill="#292422"/>
<path d="M22.6596 21.4592V20.1392C22.6596 19.8492 22.4596 19.8092 22.3496 19.8092H22.2696V19.6992C22.4396 19.6992 22.5996 19.7092 22.7596 19.7092C22.8996 19.7092 23.0496 19.6992 23.1896 19.6992V19.8092H23.1396C22.9896 19.8092 22.8296 19.8392 22.8296 20.2592V21.8592C22.8296 21.9792 22.8296 22.1092 22.8496 22.2092H22.7196L20.9096 20.1992V21.6492C20.9096 21.9592 20.9696 22.0592 21.2396 22.0592H21.2996V22.1692C21.1496 22.1692 20.9996 22.1592 20.8496 22.1592C20.6996 22.1592 20.5296 22.1692 20.3696 22.1692V22.0592H20.4196C20.6596 22.0592 20.7396 21.8992 20.7396 21.6192V20.1392C20.7396 19.9392 20.5796 19.8192 20.4196 19.8192H20.3696V19.7092C20.4996 19.7092 20.6396 19.7192 20.7696 19.7192C20.8796 19.7192 20.9796 19.7092 21.0796 19.7092L22.6396 21.4692L22.6596 21.4592Z" fill="#292422"/>
<path d="M22.7196 22.1797H22.8396C22.8196 22.0697 22.8196 21.9597 22.8196 21.8397V20.2397C22.8196 19.8197 22.9996 19.7797 23.1496 19.7797H23.1896V19.7097C23.0496 19.7097 22.9096 19.7197 22.7696 19.7197C22.6096 19.7197 22.4496 19.7097 22.2896 19.7097V19.7797H22.3496C22.4596 19.7797 22.6696 19.8297 22.6696 20.1297V21.4597H22.6596H22.6496L21.0896 19.7097C20.9896 19.7097 20.8796 19.7197 20.7796 19.7197C20.6496 19.7197 20.5196 19.7097 20.3896 19.7097V19.7797H20.4196C20.5796 19.7797 20.7496 19.9097 20.7496 20.1097V21.5897C20.7496 21.8697 20.6696 22.0497 20.4196 22.0497H20.3896V22.1197C20.5396 22.1197 20.6996 22.1097 20.8496 22.1097C20.9996 22.1097 21.1396 22.1197 21.2896 22.1197V22.0497H21.2496C20.9696 22.0497 20.9096 21.9297 20.8996 21.6197V20.1297L22.7196 22.1697V22.1797ZM22.8496 22.2097H22.7096L20.9296 20.2197V21.6297C20.9296 21.9397 20.9796 22.0197 21.2396 22.0297H21.3196V22.1697H21.2996C21.1496 22.1697 20.9996 22.1597 20.8496 22.1597C20.6896 22.1597 20.5296 22.1697 20.3696 22.1697H20.3496V22.0297H20.4096C20.6396 22.0297 20.7096 21.8797 20.7096 21.5997V20.1197C20.7096 19.9297 20.5596 19.8197 20.4096 19.8197H20.3496V19.6797H20.3696C20.4996 19.6797 20.6396 19.6897 20.7696 19.6897C20.8696 19.6897 20.9796 19.6797 21.0896 19.6897L22.6296 21.4297V20.1397C22.6296 19.8597 22.4396 19.8297 22.3396 19.8197H22.2496V19.6797H22.2696C22.4396 19.6797 22.5996 19.6897 22.7596 19.6897C22.8996 19.6897 23.0496 19.6797 23.1896 19.6797H23.2096V19.8197H23.1396C22.9996 19.8197 22.8496 19.8397 22.8396 20.2497V21.8497C22.8396 21.9697 22.8396 22.0997 22.8596 22.1997V22.2197H22.8496V22.2097Z" fill="#292422"/>
<path d="M23.73 19.8701C23.47 19.8701 23.46 19.9301 23.4 20.1901H23.29C23.3 20.0901 23.32 19.9901 23.33 19.8901C23.34 19.7901 23.35 19.6901 23.35 19.5901H23.43C23.46 19.7001 23.55 19.6901 23.64 19.6901H25.45C25.55 19.6901 25.63 19.6901 25.64 19.5801H25.72C25.71 19.6901 25.69 19.7801 25.68 19.8801C25.68 19.9701 25.68 20.0701 25.68 20.1601L25.57 20.2001C25.57 20.0701 25.55 19.8601 25.31 19.8601H24.73V21.7301C24.73 22.0001 24.85 22.0301 25.02 22.0301H25.09V22.1401C24.95 22.1401 24.71 22.1301 24.52 22.1301C24.31 22.1301 24.06 22.1401 23.93 22.1401V22.0301H24C24.19 22.0301 24.29 22.0101 24.29 21.7401V19.8701H23.71H23.73Z" fill="#292422"/>
<path d="M25.1198 22.1591C24.9798 22.1591 24.7398 22.1491 24.5498 22.1491C24.3398 22.1491 24.0898 22.1591 23.9598 22.1591H23.9498V22.0191H24.0298C24.2198 22.0191 24.2998 22.0191 24.3098 21.7391V19.8791H23.7498V19.8491H24.3398V21.7391C24.3398 22.0191 24.2298 22.0491 24.0298 22.0491H23.9798V22.1191C24.1198 22.1191 24.3498 22.1091 24.5598 22.1091C24.7398 22.1091 24.9798 22.1191 25.1198 22.1191V22.0491H25.0698C24.8998 22.0491 24.7598 22.0091 24.7598 21.7291V19.8491H25.3498C25.5898 19.8491 25.6198 20.0491 25.6198 20.1791L25.6998 20.1491C25.6998 20.0591 25.6998 19.9691 25.6998 19.8691C25.7098 19.7791 25.7198 19.6891 25.7398 19.5991H25.6898C25.6698 19.6891 25.5798 19.6991 25.4898 19.6991H23.6598C23.5798 19.6991 23.4898 19.6991 23.4598 19.5991H23.3998C23.3998 19.6991 23.3998 19.7891 23.3798 19.8791C23.3698 19.9791 23.3498 20.0691 23.3398 20.1591H23.4198C23.4698 19.9191 23.4998 19.8391 23.7598 19.8391V19.8691C23.4998 19.8691 23.5098 19.9191 23.4498 20.1791L23.4398 20.1891H23.3198V20.1691C23.3398 20.0691 23.3498 19.9691 23.3598 19.8691C23.3698 19.7691 23.3798 19.6791 23.3798 19.5691V19.5491H23.4898C23.5098 19.6491 23.5798 19.6491 23.6698 19.6491H25.4998C25.5998 19.6491 25.6698 19.6491 25.6798 19.5591V19.5391H25.6998L25.7998 19.5591V19.5791C25.7798 19.6691 25.7698 19.7691 25.7598 19.8591C25.7598 19.9491 25.7598 20.0491 25.7598 20.1391V20.1591L25.6398 20.2091V20.1891C25.6298 20.0591 25.6198 19.8691 25.3898 19.8691H24.8298V21.7191C24.8298 21.9791 24.9398 21.9991 25.1098 22.0091H25.1898V22.1491H25.1798L25.1198 22.1591Z" fill="#292422"/>
<path d="M25.8496 22.0395H25.8996C26.0296 22.0395 26.1596 22.0195 26.1596 21.8395V19.9995C26.1596 19.8195 26.0296 19.7995 25.8996 19.7995H25.8496V19.6895C26.0596 19.6895 26.4296 19.6995 26.7196 19.6995C27.0096 19.6995 27.3796 19.6895 27.6196 19.6895C27.6196 19.8395 27.6196 20.0695 27.6196 20.2295L27.5096 20.2595C27.4896 20.0295 27.4496 19.8495 27.0796 19.8495H26.5896V20.7695H27.0096C27.2196 20.7695 27.2696 20.6495 27.2896 20.4595H27.3996C27.3996 20.5995 27.3896 20.7295 27.3896 20.8695C27.3896 21.0095 27.3896 21.1395 27.3996 21.2695L27.2896 21.2895C27.2696 21.0795 27.2596 20.9395 27.0196 20.9395H26.5996V21.7595C26.5996 21.9895 26.7996 21.9895 27.0296 21.9895C27.4496 21.9895 27.6396 21.9595 27.7396 21.5595L27.8396 21.5795C27.7896 21.7695 27.7496 21.9495 27.7196 22.1395C27.4996 22.1395 27.0896 22.1295 26.7796 22.1295C26.4696 22.1295 26.0496 22.1395 25.8496 22.1395V22.0295V22.0395Z" fill="#292422"/>
<path d="M27.7196 22.1299C27.7496 21.9499 27.7896 21.7799 27.8296 21.5999L27.7596 21.5799C27.6496 21.9699 27.4496 22.0099 27.0396 22.0099C26.8196 22.0099 26.5996 22.0099 26.5996 21.7699V20.9399H27.0396C27.2896 20.9399 27.3096 21.0899 27.3296 21.2899L27.4096 21.2699C27.4096 21.1399 27.4096 21.0099 27.4096 20.8799C27.4096 20.7499 27.4096 20.6199 27.4096 20.4799H27.3296C27.3096 20.6599 27.2496 20.7899 27.0396 20.7899H26.6096V19.8399H27.1096C27.4696 19.8399 27.5396 20.0299 27.5496 20.2499L27.6296 20.2299C27.6296 20.1299 27.6196 19.9999 27.6196 19.8899C27.6196 19.8299 27.6196 19.7699 27.6196 19.7199C27.3796 19.7199 27.0296 19.7299 26.7396 19.7299C26.4496 19.7299 26.0996 19.7199 25.8796 19.7199V19.7899H25.9096C26.0396 19.7899 26.1796 19.8099 26.1796 20.0099V21.8499C26.1796 22.0399 26.0296 22.0599 25.9096 22.0699H25.8796V22.1399C26.0796 22.1399 26.4896 22.1299 26.7996 22.1299C27.1096 22.1299 27.4996 22.1399 27.7296 22.1399L27.7196 22.1299ZM27.7296 22.1599C27.4996 22.1599 27.0996 22.1499 26.7896 22.1499C26.4796 22.1499 26.0596 22.1599 25.8596 22.1599H25.8496V22.0199H25.9096C26.0396 22.0199 26.1496 22.0099 26.1496 21.8399V19.9999C26.1496 19.8299 26.0296 19.8199 25.9096 19.8099H25.8496V19.6699H25.8596C26.0696 19.6699 26.4396 19.6799 26.7296 19.6799C27.0196 19.6799 27.3896 19.6699 27.6296 19.6699H27.6496V19.6899C27.6496 19.7399 27.6496 19.8099 27.6496 19.8699C27.6496 19.9899 27.6496 20.1199 27.6596 20.2199L27.6496 20.2399L27.5296 20.2699V20.2499C27.5096 20.0199 27.4796 19.8599 27.1196 19.8499H26.6496V20.7399H27.0496C27.2496 20.7399 27.2896 20.6299 27.3096 20.4499L27.3196 20.4399H27.4396V20.4599C27.4396 20.5999 27.4296 20.7299 27.4296 20.8699C27.4296 21.0099 27.4296 21.1399 27.4396 21.2699L27.4296 21.2899L27.3096 21.3099V21.2899C27.2796 21.0799 27.2796 20.9599 27.0496 20.9599H26.6396V21.7599C26.6396 21.9699 26.8196 21.9699 27.0496 21.9699C27.4696 21.9699 27.6396 21.9499 27.7496 21.5499L27.7596 21.5399L27.8696 21.5699C27.8196 21.7699 27.7796 21.9599 27.7496 22.1399L27.7396 22.1499L27.7296 22.1599Z" fill="#292422"/>
<path d="M28.7698 20.8892H28.9398C29.2898 20.8892 29.4798 20.7592 29.4798 20.3392C29.4798 20.0292 29.2798 19.8292 28.9698 19.8292C28.8598 19.8292 28.8198 19.8392 28.7698 19.8392V20.8892ZM28.3198 20.0792C28.3198 19.8192 28.1798 19.8092 28.0698 19.8092H28.0098V19.6992C28.1198 19.6992 28.3398 19.7092 28.5498 19.7092C28.7598 19.7092 28.9298 19.6992 29.1098 19.6992C29.5498 19.6992 29.9498 19.8192 29.9498 20.3192C29.9498 20.6392 29.7398 20.8292 29.4598 20.9392L30.0598 21.8392C30.1598 21.9892 30.2298 22.0292 30.3998 22.0492V22.1592C30.2798 22.1592 30.1698 22.1492 30.0598 22.1492C29.9498 22.1492 29.8398 22.1592 29.7298 22.1592C29.4598 21.8092 29.2298 21.4292 28.9998 21.0192H28.7698V21.7692C28.7698 22.0392 28.8998 22.0492 29.0598 22.0492H29.1198V22.1592C28.9198 22.1592 28.7198 22.1492 28.5198 22.1492C28.3498 22.1492 28.1898 22.1592 28.0098 22.1592V22.0492H28.0698C28.1998 22.0492 28.3198 21.9892 28.3198 21.8592V20.0792Z" fill="#292422"/>
<path d="M28.95 20.8692C29.3 20.8692 29.47 20.7492 29.48 20.3392C29.48 20.0292 29.29 19.8392 28.98 19.8392C28.89 19.8392 28.84 19.8392 28.8 19.8492V20.8692H28.96H28.95ZM28.78 20.8992H28.76V19.8292H28.77C28.77 19.8292 28.87 19.8092 28.97 19.8092C29.29 19.8092 29.5 20.0192 29.5 20.3392C29.5 20.7592 29.3 20.8992 28.94 20.8992H28.77H28.78ZM28.78 20.9992H29.02C29.25 21.4092 29.48 21.7892 29.74 22.1392C29.85 22.1392 29.96 22.1292 30.07 22.1292C30.18 22.1292 30.29 22.1392 30.4 22.1392V22.0592C30.24 22.0392 30.16 21.9892 30.06 21.8392L29.45 20.9292H29.47C29.74 20.8092 29.95 20.6292 29.95 20.3192C29.95 19.8292 29.57 19.7192 29.13 19.7192C28.94 19.7192 28.78 19.7292 28.56 19.7292C28.34 19.7292 28.15 19.7192 28.03 19.7192V19.7892H28.08C28.19 19.7892 28.34 19.8092 28.34 20.0692V21.8492C28.34 21.9892 28.21 22.0592 28.08 22.0592H28.03V22.1292C28.2 22.1292 28.36 22.1192 28.52 22.1192C28.72 22.1192 28.91 22.1292 29.11 22.1292V22.0592H29.06C28.9 22.0592 28.76 22.0392 28.76 21.7592V20.9892H28.78V20.9992ZM30.42 22.1692C30.3 22.1692 30.19 22.1592 30.08 22.1592C29.97 22.1592 29.86 22.1692 29.74 22.1592C29.47 21.8092 29.24 21.4292 29.01 21.0292H28.8V21.7692C28.8 22.0292 28.91 22.0292 29.07 22.0392H29.15V22.1792H29.13C28.93 22.1792 28.73 22.1692 28.53 22.1692C28.36 22.1692 28.2 22.1792 28.02 22.1792H28V22.0392H28.08C28.21 22.0392 28.31 21.9792 28.31 21.8692V20.0892C28.31 19.8392 28.19 19.8392 28.08 19.8392H28V19.6992H28.02C28.13 19.6992 28.35 19.7092 28.56 19.7092C28.77 19.7092 28.94 19.6992 29.13 19.6992C29.57 19.6992 29.98 19.8192 29.98 20.3292C29.98 20.6492 29.77 20.8392 29.5 20.9592L30.09 21.8392C30.19 21.9892 30.25 22.0192 30.42 22.0392H30.43V22.1792H30.41L30.42 22.1692Z" fill="#292422"/>
<path d="M32.7898 21.4592V20.1392C32.7898 19.8492 32.5898 19.8092 32.4898 19.8092H32.4098V19.6992C32.5698 19.6992 32.7398 19.7092 32.8998 19.7092C33.0398 19.7092 33.1898 19.6992 33.3298 19.6992V19.8092H33.2798C33.1298 19.8092 32.9698 19.8392 32.9698 20.2592V21.8592C32.9698 21.9792 32.9698 22.1092 32.9898 22.2092H32.8598L31.0498 20.1992V21.6492C31.0498 21.9592 31.1098 22.0592 31.3798 22.0592H31.4398V22.1692C31.2898 22.1692 31.1398 22.1592 30.9898 22.1592C30.8298 22.1592 30.6698 22.1692 30.5098 22.1692V22.0592H30.5598C30.7998 22.0592 30.8798 21.8992 30.8798 21.6192V20.1392C30.8798 19.9392 30.7198 19.8192 30.5598 19.8192H30.5098V19.7092C30.6398 19.7092 30.7798 19.7192 30.9098 19.7192C31.0098 19.7192 31.1198 19.7092 31.2198 19.7092L32.7798 21.4692L32.7898 21.4592Z" fill="#292422"/>
<path d="M32.85 22.1797H32.97C32.95 22.0697 32.95 21.9597 32.95 21.8397V20.2397C32.95 19.8197 33.13 19.7797 33.28 19.7797H33.32V19.7097C33.18 19.7097 33.04 19.7197 32.9 19.7197C32.74 19.7197 32.58 19.7097 32.42 19.7097V19.7797H32.48C32.59 19.7797 32.8 19.8297 32.8 20.1297V21.4597H32.79H32.78L31.22 19.7097C31.12 19.7097 31.01 19.7197 30.91 19.7197C30.78 19.7197 30.65 19.7097 30.52 19.7097V19.7797H30.55C30.71 19.7797 30.88 19.9097 30.88 20.1097V21.5897C30.88 21.8697 30.8 22.0497 30.55 22.0497H30.52V22.1197C30.67 22.1197 30.83 22.1097 30.98 22.1097C31.13 22.1097 31.27 22.1197 31.42 22.1197V22.0497H31.38C31.1 22.0497 31.03 21.9297 31.03 21.6197V20.1297L32.85 22.1697V22.1797ZM32.98 22.2097H32.84L31.06 20.2197V21.6297C31.06 21.9397 31.11 22.0197 31.38 22.0297H31.45V22.1697H31.43C31.28 22.1697 31.13 22.1597 30.98 22.1597C30.83 22.1597 30.66 22.1697 30.5 22.1697H30.48V22.0297H30.54C30.77 22.0297 30.84 21.8797 30.84 21.5997V20.1197C30.84 19.9297 30.69 19.8197 30.54 19.8197H30.48V19.6797H30.5C30.63 19.6797 30.77 19.6897 30.9 19.6897C31 19.6897 31.1 19.6797 31.22 19.6897L32.76 21.4297V20.1397C32.76 19.8597 32.57 19.8297 32.47 19.8197H32.38V19.6797H32.4C32.57 19.6797 32.73 19.6897 32.89 19.6897C33.03 19.6897 33.18 19.6797 33.32 19.6797H33.34V19.8197H33.27C33.13 19.8197 32.98 19.8397 32.97 20.2497V21.8497C32.97 21.9697 32.97 22.0897 32.99 22.1997V22.2197H32.98V22.2097Z" fill="#292422"/>
<path d="M34.4198 20.0896L34.0898 21.0796H34.7498L34.4298 20.0896H34.4198ZM33.9098 21.6396C33.8698 21.7596 33.8298 21.8496 33.8298 21.9096C33.8298 22.0196 33.9798 22.0296 34.0898 22.0296H34.1298V22.1396C33.9898 22.1396 33.8498 22.1296 33.6998 22.1296C33.5698 22.1296 33.4498 22.1296 33.3198 22.1396V22.0296H33.3398C33.4798 22.0296 33.5898 21.9496 33.6398 21.7996L34.1998 20.1896C34.2498 20.0596 34.3098 19.8796 34.3298 19.7496C34.4398 19.7096 34.5798 19.6396 34.6498 19.5996C34.6598 19.5996 34.6698 19.5996 34.6798 19.5996C34.6898 19.5996 34.6998 19.5996 34.7098 19.6096C34.7198 19.6396 34.7298 19.6696 34.7398 19.6996L35.3898 21.5396C35.4298 21.6596 35.4698 21.7896 35.5198 21.8996C35.5598 21.9996 35.6398 22.0396 35.7498 22.0396H35.7698V22.1496C35.6098 22.1496 35.4498 22.1396 35.2898 22.1396C35.1298 22.1396 34.9398 22.1396 34.7598 22.1496V22.0396H34.7998C34.8798 22.0396 35.0198 22.0296 35.0198 21.9396C35.0198 21.8896 34.9898 21.7996 34.9498 21.6896L34.8098 21.2796H34.0098L33.8998 21.6496L33.9098 21.6396Z" fill="#292422"/>
<path d="M34.1 21.0698H34.71L34.4 20.1298L34.09 21.0698H34.1ZM34.06 21.0998L34.4 20.0798H34.42H34.43L34.76 21.0998H34.06ZM34.78 22.1298C34.95 22.1298 35.12 22.1198 35.29 22.1198C35.46 22.1198 35.61 22.1198 35.76 22.1298V22.0598C35.64 22.0598 35.56 22.0098 35.51 21.9098C35.46 21.7998 35.42 21.6698 35.38 21.5498L34.73 19.7098C34.73 19.7098 34.71 19.6498 34.7 19.6298C34.7 19.6298 34.69 19.6298 34.68 19.6298C34.61 19.6698 34.47 19.7398 34.37 19.7698C34.35 19.8998 34.29 20.0798 34.24 20.2098L33.68 21.8198C33.63 21.9698 33.5 22.0598 33.36 22.0598V22.1298C33.48 22.1298 33.6 22.1198 33.72 22.1198C33.86 22.1198 33.99 22.1198 34.13 22.1298V22.0598H34.11C34 22.0598 33.84 22.0498 33.83 21.9198C33.83 21.8498 33.87 21.7598 33.91 21.6398L34.03 21.2598H34.85L34.99 21.6798C35.03 21.7898 35.06 21.8898 35.06 21.9398C35.06 22.0498 34.91 22.0598 34.83 22.0598H34.81V22.1298H34.78ZM35.77 22.1598C35.61 22.1598 35.45 22.1498 35.29 22.1498C35.13 22.1498 34.94 22.1498 34.76 22.1598H34.74V22.1498V22.0298H34.79C34.87 22.0298 34.99 22.0098 34.99 21.9398C34.99 21.8998 34.96 21.7998 34.92 21.6898L34.79 21.2898H34.02L33.91 21.6398C33.87 21.7598 33.83 21.8498 33.83 21.9098C33.83 21.9998 33.96 22.0198 34.08 22.0198H34.13V22.1598H34.11C33.97 22.1598 33.83 22.1398 33.69 22.1398C33.56 22.1398 33.44 22.1398 33.31 22.1498H33.29V22.1398V22.0198H33.33C33.46 22.0198 33.57 21.9498 33.62 21.7998L34.18 20.1898C34.23 20.0598 34.29 19.8798 34.32 19.7398C34.43 19.6998 34.57 19.6298 34.64 19.5898C34.64 19.5898 34.66 19.5898 34.67 19.5898C34.67 19.5898 34.7 19.5898 34.71 19.6098C34.71 19.6398 34.73 19.6698 34.74 19.6998L35.39 21.5398C35.43 21.6598 35.47 21.7898 35.52 21.8998C35.56 21.9898 35.63 22.0298 35.74 22.0298H35.78V22.1698H35.76L35.77 22.1598Z" fill="#292422"/>
<path d="M35.9297 19.8701C35.6697 19.8701 35.6597 19.9301 35.5997 20.1901H35.4897C35.4997 20.0901 35.5197 19.9901 35.5297 19.8901C35.5397 19.7901 35.5497 19.6901 35.5497 19.5901H35.6297C35.6597 19.7001 35.7497 19.6901 35.8397 19.6901H37.6497C37.7397 19.6901 37.8297 19.6901 37.8397 19.5801H37.9197C37.9097 19.6901 37.8897 19.7801 37.8797 19.8801C37.8797 19.9701 37.8797 20.0701 37.8797 20.1601L37.7697 20.2001C37.7697 20.0701 37.7497 19.8601 37.5097 19.8601H36.9297V21.7301C36.9297 22.0001 37.0497 22.0301 37.2197 22.0301H37.2897V22.1401C37.1497 22.1401 36.9097 22.1301 36.7197 22.1301C36.5097 22.1301 36.2597 22.1401 36.1297 22.1401V22.0301H36.1997C36.3897 22.0301 36.4897 22.0101 36.4897 21.7401V19.8701H35.9097H35.9297Z" fill="#292422"/>
<path d="M37.31 22.1588C37.17 22.1588 36.93 22.1488 36.74 22.1488C36.53 22.1488 36.28 22.1588 36.15 22.1588H36.13V22.0188H36.21C36.4 22.0188 36.48 22.0188 36.49 21.7388V19.8788H35.93V19.8488H36.52V21.7388C36.52 22.0188 36.41 22.0488 36.21 22.0488H36.16V22.1288C36.3 22.1288 36.53 22.1188 36.74 22.1188C36.92 22.1188 37.16 22.1288 37.3 22.1288V22.0488H37.25C37.08 22.0488 36.94 22.0088 36.94 21.7288V19.8488H37.53C37.77 19.8488 37.8 20.0488 37.8 20.1788L37.88 20.1488C37.88 20.0588 37.88 19.9688 37.88 19.8688C37.88 19.7788 37.9 19.6888 37.92 19.5988H37.87C37.85 19.6888 37.75 19.6988 37.67 19.6988H35.84C35.76 19.6988 35.67 19.6988 35.64 19.5988H35.58C35.58 19.6988 35.58 19.7888 35.56 19.8888C35.56 19.9888 35.53 20.0788 35.52 20.1688H35.6C35.65 19.9288 35.68 19.8488 35.94 19.8488V19.8788C35.68 19.8788 35.69 19.9288 35.63 20.1888L35.62 20.1988H35.5V20.1788C35.52 20.0788 35.53 19.9788 35.54 19.8788C35.55 19.7788 35.56 19.6788 35.56 19.5788V19.5588H35.67C35.69 19.6588 35.76 19.6588 35.85 19.6588H35.87H37.68C37.78 19.6588 37.85 19.6588 37.85 19.5688V19.5488H37.87L37.97 19.5688V19.5888C37.95 19.6788 37.94 19.7788 37.93 19.8688C37.93 19.9588 37.93 20.0588 37.93 20.1488V20.1588L37.81 20.2088V20.1888C37.81 20.0588 37.79 19.8688 37.56 19.8688H37V21.7188C37 21.9788 37.11 21.9988 37.28 22.0088H37.36V22.1488H37.34L37.31 22.1588Z" fill="#292422"/>
<path d="M38.0698 22.0395H38.1198C38.2498 22.0395 38.3798 22.0195 38.3798 21.8395V19.9995C38.3798 19.8195 38.2498 19.7995 38.1198 19.7995H38.0698V19.6895C38.2098 19.6895 38.4198 19.6995 38.5898 19.6995C38.7598 19.6995 38.9798 19.6895 39.1398 19.6895V19.7995H39.0898C38.9598 19.7995 38.8298 19.8195 38.8298 19.9995V21.8395C38.8298 22.0195 38.9598 22.0395 39.0898 22.0395H39.1398V22.1495C38.9698 22.1495 38.7598 22.1395 38.5898 22.1395C38.4198 22.1395 38.2098 22.1495 38.0698 22.1495V22.0395Z" fill="#292422"/>
<path d="M39.1198 22.1299V22.0599H39.0898C38.9598 22.0599 38.8198 22.0399 38.8198 21.8399V19.9999C38.8198 19.8099 38.9698 19.7799 39.0898 19.7799H39.1198V19.7099C38.9598 19.7099 38.7598 19.7199 38.5798 19.7199C38.3998 19.7199 38.2098 19.7099 38.0798 19.7099V19.7799H38.1098C38.2298 19.7799 38.3798 19.7999 38.3798 19.9999V21.8399C38.3798 22.0299 38.2298 22.0599 38.1098 22.0599H38.0798V22.1299C38.2198 22.1299 38.4098 22.1199 38.5798 22.1199C38.7498 22.1199 38.9498 22.1299 39.1198 22.1299ZM39.1398 22.1599C38.9698 22.1599 38.7598 22.1499 38.5898 22.1499C38.4198 22.1499 38.2098 22.1599 38.0698 22.1599H38.0498V22.0199H38.1098C38.2398 22.0199 38.3498 22.0099 38.3498 21.8399V19.9999C38.3498 19.8299 38.2298 19.8199 38.1098 19.8099H38.0498V19.6699H38.0698C38.2098 19.6699 38.4198 19.6799 38.5898 19.6799C38.7598 19.6799 38.9798 19.6699 39.1398 19.6699H39.1498V19.8099H39.0898C38.9598 19.8099 38.8498 19.8199 38.8398 19.9999V21.8399C38.8398 22.0099 38.9598 22.0199 39.0898 22.0199H39.1498V22.1599H39.1398Z" fill="#292422"/>
<path d="M40.5897 22.0487C41.2697 22.0487 41.3897 21.4487 41.3897 20.9387C41.3897 20.4287 41.1097 19.8087 40.5297 19.8087C39.9197 19.8087 39.7297 20.3587 39.7297 20.8287C39.7297 21.4587 40.0197 22.0587 40.5897 22.0587V22.0487ZM40.5397 19.6487C41.2897 19.6487 41.8797 20.1087 41.8797 20.8587C41.8797 21.6687 41.2997 22.1987 40.5497 22.1987C39.7997 22.1987 39.2397 21.6887 39.2397 20.9387C39.2397 20.1887 39.7997 19.6387 40.5297 19.6387L40.5397 19.6487Z" fill="#292422"/>
<path d="M39.72 20.8191C39.72 20.3491 39.91 19.7891 40.53 19.7891C41.13 19.7891 41.4 20.4191 41.4 20.9391C41.4 21.4491 41.28 22.0691 40.59 22.0691V22.0391C41.26 22.0391 41.37 21.4491 41.37 20.9391C41.37 20.4291 41.1 19.8191 40.53 19.8191C39.93 19.8191 39.75 20.3491 39.75 20.8191C39.75 21.4491 40.04 22.0291 40.59 22.0291V22.0491C40.01 22.0591 39.72 21.4491 39.72 20.8191ZM39.23 20.9391C39.23 20.1991 39.8 19.6291 40.54 19.6291V19.6491C39.82 19.6591 39.26 20.2191 39.26 20.9391C39.26 21.6891 39.82 22.1791 40.56 22.1791C41.3 22.1791 41.87 21.6491 41.87 20.8491C41.87 20.1091 41.28 19.6591 40.54 19.6491V19.6191C41.29 19.6191 41.9 20.0891 41.9 20.8491C41.9 21.6691 41.31 22.2091 40.56 22.2091C39.81 22.2091 39.23 21.6991 39.23 20.9291V20.9391Z" fill="#292422"/>
<path d="M44.25 21.4592V20.1392C44.25 19.8492 44.05 19.8092 43.94 19.8092H43.86V19.6992C44.02 19.6992 44.19 19.7092 44.35 19.7092C44.49 19.7092 44.64 19.6992 44.78 19.6992V19.8092H44.73C44.58 19.8092 44.42 19.8392 44.42 20.2592V21.8592C44.42 21.9792 44.42 22.1092 44.44 22.2092H44.31L42.5 20.1992V21.6492C42.5 21.9592 42.56 22.0592 42.83 22.0592H42.89V22.1692C42.74 22.1692 42.59 22.1592 42.44 22.1592C42.29 22.1592 42.12 22.1692 41.96 22.1692V22.0592H42.01C42.25 22.0592 42.33 21.8992 42.33 21.6192V20.1392C42.33 19.9392 42.17 19.8192 42.01 19.8192H41.96V19.7092C42.09 19.7092 42.23 19.7192 42.36 19.7192C42.47 19.7192 42.57 19.7092 42.67 19.7092L44.23 21.4692L44.25 21.4592Z" fill="#292422"/>
<path d="M44.3099 22.1799H44.4199C44.3999 22.0699 44.3999 21.9599 44.3999 21.8399V20.2399C44.3999 19.8199 44.5799 19.7799 44.7299 19.7799H44.7699V19.7099C44.6299 19.7099 44.4899 19.7199 44.3499 19.7199C44.1899 19.7199 44.0299 19.7099 43.8699 19.7099V19.7799H43.9299C44.0399 19.7799 44.2499 19.8299 44.2499 20.1299V21.4599H44.2399H44.2299L42.6699 19.7099C42.5699 19.7099 42.4599 19.7199 42.3599 19.7199C42.2299 19.7199 42.0999 19.7099 41.9699 19.7099V19.7799H41.9999C42.1599 19.7799 42.3299 19.9099 42.3299 20.1099V21.5899C42.3299 21.8699 42.2499 22.0499 41.9999 22.0499H41.9699V22.1199C42.1199 22.1199 42.2799 22.1099 42.4299 22.1099C42.5799 22.1099 42.7199 22.1199 42.8699 22.1199V22.0499H42.8199C42.5399 22.0499 42.4799 21.9299 42.4799 21.6199V20.1299L44.2999 22.1699L44.3099 22.1799ZM44.4399 22.2099H44.2899L42.5099 20.2199V21.6299C42.5099 21.9399 42.5599 22.0199 42.8199 22.0199H42.8999V22.1599H42.8799C42.7299 22.1599 42.5799 22.1499 42.4299 22.1499C42.2699 22.1499 42.1099 22.1599 41.9499 22.1599H41.9399V22.0199H41.9999C42.2299 22.0199 42.2999 21.8699 42.2999 21.5899V20.1099C42.2999 19.9199 42.1499 19.8099 41.9999 19.8099H41.9399V19.6699H41.9499C42.0799 19.6699 42.2199 19.6799 42.3499 19.6799C42.4499 19.6799 42.5599 19.6699 42.6699 19.6799L44.2099 21.4199V20.1299C44.2099 19.8499 44.0199 19.8199 43.9199 19.8099H43.8299V19.6699H43.8499C44.0199 19.6699 44.1799 19.6799 44.3399 19.6799C44.4799 19.6799 44.6299 19.6699 44.7699 19.6699H44.7799V19.8099H44.7099C44.5699 19.8099 44.4199 19.8299 44.4099 20.2399V21.8399C44.4099 21.9599 44.4099 22.0899 44.4299 22.1899V22.2099H44.4199H44.4399Z" fill="#292422"/>
<path d="M45.8698 20.0896L45.5398 21.0796H46.1998L45.8798 20.0896H45.8698ZM45.3598 21.6396C45.3298 21.7596 45.2798 21.8496 45.2798 21.9096C45.2798 22.0196 45.4298 22.0296 45.5398 22.0296H45.5798V22.1396C45.4398 22.1396 45.2998 22.1296 45.1598 22.1296C45.0298 22.1296 44.9098 22.1296 44.7798 22.1396V22.0296H44.7998C44.9398 22.0296 45.0498 21.9496 45.1098 21.7996L45.6698 20.1896C45.7198 20.0596 45.7798 19.8796 45.7998 19.7496C45.9098 19.7096 46.0498 19.6396 46.1198 19.5996C46.1298 19.5996 46.1398 19.5996 46.1498 19.5996C46.1598 19.5996 46.1698 19.5996 46.1698 19.6096C46.1798 19.6396 46.1898 19.6696 46.1998 19.6996L46.8498 21.5396C46.8898 21.6596 46.9298 21.7896 46.9798 21.8996C47.0198 21.9996 47.0998 22.0396 47.2098 22.0396H47.2298V22.1496C47.0698 22.1496 46.9098 22.1396 46.7498 22.1396C46.5898 22.1396 46.3998 22.1396 46.2198 22.1496V22.0396H46.2598C46.3398 22.0396 46.4798 22.0296 46.4798 21.9396C46.4798 21.8896 46.4498 21.7996 46.4098 21.6896L46.2698 21.2796H45.4698L45.3598 21.6496V21.6396Z" fill="#292422"/>
<path d="M45.56 21.0701H46.17L45.86 20.1301L45.55 21.0701H45.56ZM45.52 21.1001L45.86 20.0801H45.88H45.89L46.22 21.1001H45.52ZM46.24 22.1301C46.41 22.1301 46.58 22.1201 46.75 22.1201C46.92 22.1201 47.07 22.1201 47.22 22.1301V22.0601C47.1 22.0601 47.02 22.0101 46.97 21.9101C46.92 21.8001 46.88 21.6701 46.84 21.5501L46.19 19.7101C46.19 19.7101 46.17 19.6501 46.16 19.6301C46.16 19.6301 46.15 19.6301 46.14 19.6301C46.07 19.6701 45.93 19.7401 45.83 19.7701C45.81 19.9001 45.74 20.0801 45.7 20.2101L45.14 21.8201C45.09 21.9701 44.96 22.0601 44.82 22.0601V22.1301C44.94 22.1301 45.06 22.1201 45.18 22.1201C45.32 22.1201 45.45 22.1201 45.59 22.1301V22.0601H45.57C45.46 22.0601 45.3 22.0501 45.29 21.9201C45.29 21.8501 45.33 21.7601 45.37 21.6401L45.49 21.2601H46.31L46.45 21.6801C46.49 21.7901 46.52 21.8901 46.52 21.9401C46.52 22.0501 46.37 22.0601 46.29 22.0601H46.27V22.1301H46.24ZM47.23 22.1601C47.07 22.1601 46.91 22.1501 46.75 22.1501C46.59 22.1501 46.4 22.1501 46.22 22.1601H46.2V22.1401V22.0201H46.25C46.33 22.0201 46.45 22.0001 46.45 21.9301C46.45 21.8901 46.42 21.7901 46.38 21.6801L46.25 21.2801H45.48L45.37 21.6301C45.33 21.7501 45.29 21.8401 45.29 21.9001C45.29 21.9901 45.42 22.0101 45.54 22.0101H45.59V22.1501H45.57C45.43 22.1501 45.29 22.1301 45.15 22.1301C45.02 22.1301 44.9 22.1301 44.77 22.1401H44.75V22.1201V22.0001H44.79C44.92 22.0001 45.03 21.9201 45.08 21.7801L45.64 20.1701C45.68 20.0401 45.75 19.8601 45.78 19.7301C45.89 19.6901 46.03 19.6201 46.1 19.5801C46.1 19.5801 46.12 19.5801 46.13 19.5801C46.13 19.5801 46.16 19.5801 46.17 19.6001C46.18 19.6301 46.19 19.6601 46.2 19.6901L46.85 21.5301C46.89 21.6501 46.93 21.7801 46.98 21.8901C47.02 21.9801 47.09 22.0201 47.2 22.0201H47.24V22.1601H47.22H47.23Z" fill="#292422"/>
<path d="M48.1196 21.8088C48.1196 21.9488 48.2196 21.9888 48.3296 22.0088C48.4696 22.0188 48.6296 22.0188 48.7896 22.0088C48.9396 21.9888 49.0596 21.9088 49.1296 21.8188C49.1896 21.7388 49.2196 21.6388 49.2396 21.5688H49.3396C49.2996 21.7688 49.2496 21.9688 49.2096 22.1688C48.8996 22.1688 48.5896 22.1588 48.2796 22.1588C47.9696 22.1588 47.6596 22.1688 47.3496 22.1688V22.0588H47.3996C47.5296 22.0588 47.6596 22.0388 47.6596 21.8288V20.0288C47.6596 19.8488 47.5196 19.8288 47.3996 19.8288H47.3496V19.7188C47.5396 19.7188 47.7196 19.7288 47.8996 19.7288C48.0796 19.7288 48.2496 19.7188 48.4296 19.7188V19.8288H48.3396C48.2096 19.8288 48.0996 19.8288 48.0996 20.0188V21.8288L48.1196 21.8088Z" fill="#292422"/>
<path d="M49.1901 22.1297C49.2301 21.9397 49.2801 21.7497 49.3101 21.5597H49.2401C49.2201 21.6397 49.1901 21.7297 49.1301 21.8097C49.0601 21.8997 48.9301 21.9897 48.7801 22.0097C48.6901 22.0097 48.6001 22.0197 48.5101 22.0197C48.4401 22.0197 48.3801 22.0197 48.3101 22.0197C48.2001 22.0097 48.0901 21.9597 48.0901 21.8097V19.9997C48.0901 19.8097 48.2101 19.7997 48.3401 19.7997H48.4101V19.7297C48.2401 19.7297 48.0701 19.7397 47.8901 19.7397C47.7101 19.7397 47.5301 19.7297 47.3501 19.7297V19.7997H47.3801C47.5101 19.7997 47.6601 19.8197 47.6601 20.0197V21.8197C47.6601 22.0497 47.5101 22.0697 47.3801 22.0697H47.3501V22.1397C47.6501 22.1397 47.9601 22.1297 48.2601 22.1297C48.5601 22.1297 48.8701 22.1397 49.1701 22.1397L49.1901 22.1297ZM49.2001 22.1597C48.8901 22.1597 48.5801 22.1497 48.2701 22.1497C47.9601 22.1497 47.6501 22.1597 47.3401 22.1597H47.3301V22.0197H47.3901C47.5201 22.0197 47.6401 22.0097 47.6401 21.7997V19.9997C47.6401 19.8297 47.5201 19.8197 47.3901 19.8197H47.3301V19.6797H47.3401C47.5301 19.6797 47.7101 19.6897 47.8901 19.6897C48.0701 19.6897 48.2401 19.6797 48.4201 19.6797H48.4301V19.8197H48.3301C48.1901 19.8197 48.1101 19.8197 48.1101 19.9897V21.7997C48.1101 21.9297 48.2001 21.9697 48.3101 21.9797C48.3701 21.9797 48.4401 21.9797 48.5001 21.9797C48.5901 21.9797 48.6801 21.9797 48.7701 21.9697C48.9101 21.9497 49.0401 21.8697 49.1001 21.7897C49.1501 21.7097 49.1901 21.6197 49.2101 21.5397L49.2201 21.5297H49.3401V21.5497C49.3001 21.7497 49.2501 21.9497 49.2101 22.1497L49.2001 22.1597Z" fill="#292422"/>
<path d="M49.2299 19.9698H49.2699C49.2699 19.9698 49.3399 19.9298 49.3399 19.8798C49.3399 19.8298 49.3099 19.7998 49.2699 19.7998H49.2299V19.9698ZM49.1099 20.1598V20.1398C49.1099 20.1398 49.1599 20.1398 49.1599 20.1098V19.8398C49.1599 19.8398 49.1599 19.7898 49.1099 19.7898V19.7698H49.2999C49.3699 19.7698 49.4199 19.7998 49.4199 19.8698C49.4199 19.9198 49.3799 19.9698 49.3299 19.9798L49.3899 20.0598C49.3899 20.0598 49.4499 20.1298 49.4699 20.1498L49.3999 20.1598C49.3699 20.1598 49.3399 20.0898 49.2699 19.9898H49.2299V20.1098C49.2299 20.1098 49.2299 20.1298 49.2799 20.1398V20.1598H49.0999H49.1099ZM49.2899 20.2598C49.4599 20.2598 49.5799 20.1198 49.5799 19.9598C49.5799 19.7998 49.4499 19.6598 49.2899 19.6598C49.1299 19.6598 48.9999 19.7998 48.9999 19.9598C48.9999 20.1198 49.1299 20.2598 49.2899 20.2598ZM49.2899 19.5898C49.4999 19.5898 49.6599 19.7498 49.6599 19.9598C49.6599 20.1698 49.4999 20.3298 49.2899 20.3298C49.0799 20.3298 48.9199 20.1698 48.9199 19.9598C48.9199 19.7498 49.0799 19.5898 49.2899 19.5898Z" fill="#292422"/>
</svg>
