<svg width="105" height="73" viewBox="0 0 105 73" fill="none" xmlns="http://www.w3.org/2000/svg">
<path d="M11.1574 52.7883L10.9977 53.966C10.9378 54.5049 11.3171 54.984 11.836 55.0439H50.2407C50.7797 55.0439 51.2188 54.6247 51.2388 54.0857C51.2388 54.0857 51.2388 54.0059 51.2388 53.966L51.0791 52.7883C50.9793 51.8701 51.6579 51.0517 52.5761 50.9519C53.4943 50.8521 54.3127 51.5108 54.4125 52.429L54.5722 53.5867C54.8716 56.1417 53.4145 58.3973 50.7996 58.3973H11.4368C8.8419 58.3973 7.40472 56.1417 7.70414 53.5867L7.86382 52.429C7.96363 51.5308 8.76206 50.872 9.6603 50.9519C10.5785 51.0517 11.2572 51.8701 11.1574 52.8083" fill="white"/>
<path d="M46.5271 43.9056C48.2637 44.0054 49.7408 42.668 49.8406 40.9514C49.8406 40.8915 49.8406 40.8516 49.8406 40.7917C49.8007 38.9553 48.1439 37.7776 46.2876 37.7776H42.5349C41.6766 37.7776 40.958 37.079 40.958 36.2007C40.958 35.3224 41.6567 34.6238 42.5349 34.6238H45.05C46.7467 34.5639 48.0441 33.5259 48.124 31.949C48.2038 30.2324 46.7267 28.9549 44.9502 28.9549H38.8621V43.8856H46.5471M51.158 31.949C51.158 33.2664 50.639 34.5439 49.7009 35.4821L49.6011 35.5819L49.7208 35.6617C51.5972 36.6997 52.7749 38.6359 52.8547 40.7717C52.8946 44.2249 50.16 47.0594 46.7068 47.1392H37.2852C36.387 47.1392 35.6484 46.3807 35.6484 45.4825V27.5576C35.6484 26.6394 36.367 25.9009 37.2653 25.8809C37.2653 25.8809 37.2852 25.8809 37.3052 25.8809H44.9302C48.2637 25.7811 51.0383 28.4159 51.1381 31.7494V31.949" fill="white"/>
<path d="M21.3369 40.9916L21.3768 41.1113L21.4167 40.9916C21.8359 39.8139 22.3749 38.4765 22.9138 37.0792C23.4528 35.682 24.0516 34.145 24.6105 32.7677C25.1694 31.3904 25.7083 30.1329 26.2273 29.055C26.5667 28.2565 26.9858 27.498 27.4849 26.7794C27.9839 26.1806 28.7224 25.8213 29.5009 25.8413H29.8802C30.3193 25.8413 30.7385 25.961 31.0778 26.2405C31.3373 26.4601 31.5169 26.7595 31.5569 27.0988L33.9522 45.6424C33.9522 46.0616 33.8324 46.4608 33.553 46.7603C33.2336 47.0397 32.8144 47.1595 32.3952 47.1395C31.9561 47.1595 31.5369 47.0397 31.1976 46.7802C30.8782 46.5606 30.6786 46.2213 30.6387 45.8421C30.5588 45.2233 30.479 44.5446 30.4191 43.7861C30.3592 43.0276 29.94 39.8139 29.8402 38.9955C29.7404 38.1771 29.0817 32.9274 28.8422 31.0311V30.8714L28.0837 32.4882C27.8242 33.0471 27.5447 33.7059 27.2453 34.4644C26.9459 35.2229 26.6265 36.0612 26.3271 36.9196C26.0277 37.7779 24.5107 41.9896 24.5107 41.9896C24.371 42.3689 24.1115 43.1473 23.8919 43.8659C23.6723 44.5845 23.4328 45.2233 23.3729 45.343C22.834 46.401 21.5365 46.8201 20.4786 46.2812C20.0594 46.0816 19.7201 45.7423 19.5205 45.3231C19.4606 45.2033 19.241 44.5646 19.0015 43.846C18.762 43.1274 18.5224 42.3689 18.3827 41.9696C18.3827 41.9696 16.9056 37.7379 16.5663 36.8996C16.2269 36.0612 15.9475 35.2229 15.6481 34.4444C15.3486 33.6659 15.0492 33.0072 14.8097 32.4683L14.0312 30.8714V31.0311C13.7917 32.9074 13.133 38.1771 13.0332 38.9955C12.9334 39.8139 12.5342 43.0276 12.4543 43.7661C12.3745 44.5047 12.2946 45.2033 12.2148 45.8221C12.1749 46.2014 11.9753 46.5407 11.6559 46.7603C11.3166 47.0197 10.8774 47.1395 10.4582 47.1196C10.0391 47.1395 9.61988 47.0197 9.30051 46.7403C9.02106 46.4409 8.88133 46.0217 8.90129 45.6225L11.2567 27.0988C11.3166 26.7794 11.4762 26.48 11.7357 26.2605C12.0751 25.981 12.4942 25.8213 12.9334 25.8413H13.3126C14.0911 25.8413 14.8297 26.1606 15.3087 26.7595C15.8077 27.4781 16.2269 28.2366 16.5663 29.035C17.0852 30.1129 17.6242 31.3505 18.1831 32.7477C18.742 34.145 19.3209 35.5822 19.8798 37.0593C20.4187 38.4765 20.9377 39.7939 21.3768 40.9716" fill="white"/>
<path d="M16.6474 14.663H45.7104C48.445 14.663 49.8223 16.719 50.1018 19.4337L50.2215 20.292C50.3213 21.2302 49.6626 22.0685 48.7245 22.1683C47.8063 22.2482 47.0078 21.5695 46.928 20.6513L46.8082 19.8129C46.6885 18.775 46.2493 17.9765 45.2114 17.9765H17.1663C16.1084 17.9765 15.6892 18.775 15.5495 19.8129L15.4298 20.6313C15.3499 21.5495 14.5315 22.2282 13.6133 22.1484C12.6752 22.0485 11.9965 21.2102 12.1162 20.272L12.236 19.4137C12.5554 16.699 13.9127 14.6431 16.6274 14.6431" fill="white"/>
<path d="M68.9247 34.2048C68.7251 34.9832 68.5255 35.8016 68.3059 36.7198C68.0864 37.638 67.8668 38.4564 67.6872 39.2349C67.5075 40.0134 67.2879 40.732 67.0684 41.3508C66.9486 41.7899 66.7889 42.2091 66.5893 42.6083C66.3298 43.0075 65.8707 43.247 65.4116 43.2071C65.1921 43.2071 64.9924 43.1672 64.7928 43.1073C64.5134 43.0275 64.2938 42.8279 64.174 42.5684C63.9744 42.1492 63.8148 41.7101 63.695 41.2709C63.5153 40.6521 63.2958 39.8737 63.0762 39.0353C62.8566 38.1969 62.657 37.2987 62.4574 36.3406C62.2578 35.3825 62.0582 34.5042 61.8786 33.7058C61.6989 32.9073 61.5592 32.1887 61.4594 31.6298C61.3596 31.0709 61.2797 30.7116 61.2598 30.5919C61.2598 30.5519 61.2598 30.4921 61.2598 30.4521V30.3723C61.2598 30.1527 61.3596 29.9331 61.5392 29.7934C61.7388 29.6337 61.9784 29.5539 62.2179 29.5739C62.4375 29.5739 62.657 29.6138 62.8367 29.7335C63.0163 29.8733 63.1361 30.0729 63.176 30.2924C63.176 30.2924 63.2159 30.532 63.2958 30.9112C63.3756 31.2905 63.4754 31.7695 63.5952 32.3684C63.7149 32.9672 63.8547 33.6259 63.9944 34.3645C64.1341 35.103 64.2938 35.8416 64.4735 36.6001C64.6531 37.3586 64.7928 38.0772 64.9725 38.7958C65.1521 39.5144 65.2719 40.1132 65.4316 40.6122C65.5713 40.1331 65.731 39.5942 65.8907 38.9754C66.0504 38.3566 66.23 37.7179 66.4097 37.0991C66.5893 36.4803 66.729 35.7817 66.8887 35.123C67.0484 34.4643 67.1881 33.8654 67.3279 33.2866C67.4676 32.7077 67.5674 32.2286 67.6672 31.7895C67.767 31.3504 67.8468 31.031 67.9067 30.8114C67.9666 30.5719 68.1063 30.3523 68.3059 30.1926C68.5056 30.013 68.7451 29.9132 69.0046 29.9132C69.284 29.9132 69.5435 29.993 69.7631 30.1527C69.9627 30.3124 70.0825 30.532 70.1424 30.7715C70.302 31.4502 70.4817 32.2286 70.6613 33.087C70.841 33.9453 71.0406 34.8036 71.2402 35.6819C71.4398 36.5602 71.6394 37.4185 71.859 38.2568C72.0785 39.0952 72.2782 39.8337 72.4778 40.4924C72.6175 39.9934 72.7772 39.3746 72.9369 38.676C73.0966 37.9774 73.2562 37.2388 73.4359 36.4803C73.6155 35.7218 73.7752 35.0032 73.9349 34.2647C74.0946 33.5261 74.2343 32.8674 74.3541 32.2885C74.4739 31.7097 74.5936 31.2306 74.6535 30.8713C74.7134 30.512 74.7733 30.3124 74.7733 30.2924C74.8132 30.0729 74.933 29.8733 75.1126 29.7335C75.2922 29.6138 75.5118 29.5539 75.7314 29.5739C75.9709 29.5739 76.2304 29.6337 76.4101 29.7934C76.5897 29.9331 76.6895 30.1527 76.6895 30.3723V30.4521C76.6895 30.4521 76.6895 30.5519 76.6895 30.6118C76.6895 30.7316 76.6097 31.0709 76.4899 31.6498C76.3701 32.2286 76.2304 32.9073 76.0508 33.7257C75.8911 34.5441 75.6915 35.4224 75.4719 36.3605C75.2523 37.2987 75.0527 38.1969 74.8531 39.0353C74.6535 39.8737 74.4539 40.6322 74.2343 41.2709C74.1146 41.7101 73.9549 42.1492 73.7553 42.5684C73.6355 42.8279 73.396 43.0275 73.1365 43.1273C72.9369 43.1872 72.7173 43.2271 72.5177 43.247C72.4378 43.247 72.338 43.247 72.2582 43.247C72.1384 43.247 72.0187 43.2071 71.8989 43.1672C71.7592 43.1273 71.6394 43.0474 71.5196 42.9676C71.3799 42.8678 71.2801 42.748 71.2202 42.5883C71.0406 42.1492 70.8809 41.7101 70.7611 41.251C70.5815 40.6322 70.3819 39.9335 70.1823 39.1551C69.9827 38.3766 69.7831 37.5382 69.5635 36.6999C69.3439 35.8615 69.1842 35.0431 69.0046 34.3046" fill="white"/>
<path d="M80.0224 39.2549C79.8028 39.9335 79.6231 40.5523 79.4635 41.1312C79.3038 41.7101 79.1441 42.1891 79.0044 42.5484C78.9445 43.0674 78.4654 43.4267 77.9265 43.3668C77.4075 43.3069 77.0482 42.8279 77.1081 42.2889C77.1081 42.1891 77.1081 42.1093 77.148 42.0095L77.4075 41.1312C77.5672 40.6322 77.7468 40.0333 77.9864 39.2948C78.2259 38.5562 78.4854 37.7578 78.7848 36.8795C79.0842 36.0012 79.3836 35.1429 79.683 34.2846C79.9824 33.4263 80.3018 32.6279 80.6012 31.8893C80.8408 31.2705 81.1202 30.6717 81.4396 30.0928C81.5394 29.8733 81.6991 29.7136 81.8987 29.6138C82.1382 29.514 82.4177 29.474 82.6772 29.494C82.9566 29.494 83.2161 29.5339 83.4756 29.6337C83.6952 29.7335 83.8549 29.9132 83.9347 30.1328C84.1343 30.5519 84.3738 31.1308 84.6533 31.8294C84.9327 32.5281 85.2321 33.3065 85.5316 34.1449C85.831 34.9832 86.1504 35.8216 86.4298 36.66C86.7093 37.4983 87.0087 38.3167 87.2482 39.0553C87.4877 39.7938 87.7073 40.4326 87.867 40.9316C88.0267 41.4306 88.1464 41.7899 88.1864 41.9496C88.2263 42.0294 88.2263 42.1292 88.2263 42.229C88.2263 42.4686 88.1464 42.6881 87.9668 42.8478C87.7672 43.0275 87.5077 43.1073 87.2282 43.0874C87.0286 43.0874 86.829 43.0474 86.6893 42.9277C86.5496 42.8079 86.4697 42.6482 86.4098 42.4686C86.2701 42.0893 86.1104 41.6302 85.9108 41.0513C85.7112 40.4725 85.5116 39.8537 85.292 39.175H79.9824M84.6932 37.3386C84.3938 36.4204 84.1143 35.5821 83.8548 34.8236C83.5954 34.065 83.3558 33.3464 83.0365 32.6279C82.9766 32.4682 82.8967 32.2885 82.8169 32.0889C82.737 31.8893 82.6971 31.7695 82.6772 31.7296C82.6173 31.8294 82.5774 31.9492 82.5374 32.069C82.4576 32.2885 82.3777 32.4682 82.3179 32.6279C82.0384 33.3265 81.759 34.0451 81.4995 34.8236C81.24 35.602 80.9605 36.4404 80.6611 37.3386H84.6932Z" fill="white"/>
<path d="M91.9392 37.8375C91.9392 37.8375 91.7994 37.6778 91.7396 37.598L91.5399 37.3185C91.3403 37.0391 91.1407 36.6997 90.9212 36.2805C90.7016 35.8614 90.4421 35.4422 90.2225 35.023C90.003 34.6038 89.7634 34.1048 89.5439 33.6457C89.3243 33.1866 89.1247 32.7674 88.945 32.3882C88.7654 32.0089 88.6057 31.6496 88.4859 31.3502C88.3861 31.1506 88.3063 30.931 88.2464 30.7314C88.2265 30.6715 88.2065 30.6316 88.1865 30.5717V30.4121C88.1865 30.1725 88.2863 29.953 88.446 29.7933C88.6456 29.6136 88.9051 29.5138 89.1846 29.5338C89.4241 29.5138 89.6437 29.5937 89.8034 29.7533C89.9231 29.8731 90.003 30.0128 90.0628 30.1725L90.2625 30.6316C90.3623 30.8712 90.502 31.1706 90.6617 31.5099C90.8214 31.8492 91.001 32.2485 91.2006 32.6876C91.4002 33.1267 91.5998 33.5259 91.8194 33.9451L92.4182 35.1228C92.5779 35.4422 92.7576 35.7416 92.9572 36.041C93.2765 35.542 93.576 35.023 93.8355 34.4841C94.1349 33.8653 94.4542 33.2665 94.7137 32.6477C94.9732 32.0289 95.2327 31.5099 95.4523 31.0508L95.8315 30.1725C95.8914 30.0128 95.9912 29.8731 96.091 29.7533C96.2507 29.5937 96.4902 29.5138 96.7098 29.5338C96.9893 29.5338 97.2488 29.6136 97.4484 29.7933C97.628 29.953 97.7278 30.1925 97.7079 30.4121C97.7079 30.4719 97.7079 30.5119 97.7079 30.5717L97.648 30.7314L97.4084 31.3502C97.2887 31.6496 97.129 31.969 96.9493 32.3882C96.7697 32.8074 96.5701 33.2066 96.3705 33.6457C96.1709 34.0849 95.9114 34.5639 95.6918 35.023C95.4722 35.4821 95.2327 35.9013 94.9932 36.2805C94.7536 36.6598 94.5341 37.0391 94.3744 37.3185C94.2546 37.4982 94.1149 37.6578 93.9752 37.8175V42.2089C93.9752 42.4684 93.8953 42.7279 93.7157 42.9076C93.3364 43.2868 92.7376 43.2868 92.3583 42.9076C92.1587 42.7279 92.0589 42.4485 92.0589 42.189V37.7976" fill="white"/>
</svg>
