<svg width="104" height="73" viewBox="0 0 104 73" fill="none" xmlns="http://www.w3.org/2000/svg">
<path fill-rule="evenodd" clip-rule="evenodd" d="M36.9488 6.51874H69.006C71.2615 6.51874 73.0979 8.4749 73.0979 10.8502V12.9262C73.0979 15.8604 69.1257 15.8405 69.1257 12.9262V11.7884C69.1257 11.0698 68.5469 10.471 67.8083 10.471H35.6913C34.9727 10.471 34.3739 11.0499 34.3739 11.7884V12.9062C34.3739 15.8205 30.6013 15.8005 30.6013 12.9661V10.8303C30.6013 8.45494 32.4376 6.49878 34.6932 6.49878H36.9288L36.9488 6.51874ZM51.64 54.844H72.4193C77.1699 54.844 77.2099 49.7939 76.7308 47.2988C76.4713 45.6221 73.6169 45.642 73.3175 47.2988V49.235C73.3175 50.1133 72.5989 50.8518 71.7007 50.8518H31.8388C30.9605 50.8518 30.222 50.1332 30.222 49.235V47.2988C29.9026 45.642 27.0682 45.6221 26.8087 47.2988C26.3296 49.7939 26.3696 54.844 31.1202 54.844H51.64Z" fill="white"/>
<path fill-rule="evenodd" clip-rule="evenodd" d="M64.4942 28.6954H67.8077V28.6554C69.3248 28.4159 70.4825 27.1184 70.4825 25.5415C70.4825 23.8049 69.0653 22.3877 67.3287 22.3877H60.6617V38.8754H69.1252C70.9216 38.8754 72.3788 37.4182 72.3788 35.6218C72.3788 33.8253 70.9216 32.3682 69.1252 32.3682H67.8077H64.4942C63.4962 32.3682 62.6578 31.5498 62.6578 30.5318C62.6578 29.5137 63.4762 28.6954 64.4942 28.6954ZM72.279 30.3122C74.4946 31.3501 76.0316 33.5059 76.0316 35.9811C76.0316 39.4742 72.9776 42.3286 69.2649 42.3286H58.8253C57.8473 42.3286 57.0488 41.5901 57.0488 40.6719V20.8108C57.0488 19.8527 57.8273 19.0742 58.7854 19.0742H67.4884C71.1412 19.0742 74.1353 22.0683 74.1353 25.7212C74.1353 27.4977 73.4167 29.1145 72.279 30.3122Z" fill="white"/>
<path d="M38.2658 60.932C38.2658 60.6325 38.5253 60.373 38.8248 60.373C39.1242 60.373 39.3837 60.6325 39.3837 60.932V63.966C39.3837 64.6646 39.1042 65.2834 38.6451 65.7425C38.186 66.2016 37.5672 66.4811 36.8686 66.4811C36.17 66.4811 35.5512 66.2016 35.0921 65.7425C34.633 65.2834 34.3535 64.6646 34.3535 63.966V60.932C34.3535 60.6325 34.613 60.373 34.9124 60.373C35.2118 60.373 35.4713 60.6325 35.4713 60.932V63.966C35.4713 64.3453 35.631 64.7046 35.8905 64.9441C36.15 65.2036 36.4893 65.3633 36.8686 65.3633C37.2478 65.3633 37.6071 65.2036 37.8467 64.9441C38.1062 64.6846 38.2658 64.3453 38.2658 63.966V60.932Z" fill="white"/>
<path d="M43.5548 65.3633C43.8542 65.3633 44.1137 65.6228 44.1137 65.9222C44.1137 66.2216 43.8542 66.4811 43.5548 66.4811H42.0178C41.4389 66.4811 40.9199 66.2416 40.5407 65.8623C40.1614 65.4831 39.9219 64.9641 39.9219 64.3852V60.952C39.9219 60.6526 40.1814 60.3931 40.4808 60.3931C40.7802 60.3931 41.0397 60.6526 41.0397 60.952V64.3852C41.0397 64.6647 41.1594 64.9042 41.3391 65.0839C41.5187 65.2635 41.7583 65.3833 42.0377 65.3833H43.5747L43.5548 65.3633Z" fill="white"/>
<path d="M55.392 40.3524C55.5117 41.5101 54.6734 42.5281 53.5356 42.6479C52.3779 42.7677 51.3599 41.9293 51.2401 40.7915L49.5235 25.0025L43.4354 40.4522V40.4921V40.532V40.572H43.4154V40.6119H43.3955V40.6518H43.3755C43.2557 40.8714 43.116 41.051 42.9563 41.2107L42.9164 41.2506C42.8166 41.3504 42.6769 41.4303 42.5571 41.5101L42.5172 41.5301H42.4773H42.4573H42.4374L42.4174 41.55H42.3974L42.3775 41.57H42.3575H42.3375C42.1379 41.6498 41.9184 41.6698 41.7188 41.6898H41.6988H41.6788H41.599H41.579C41.3595 41.6898 41.1199 41.6299 40.9004 41.55H40.8804H40.8604L40.8405 41.5301H40.8205L40.8006 41.5101H40.7806H40.7407V41.4902H40.7008V41.4702C40.581 41.4103 40.4812 41.3305 40.3814 41.2506C40.3814 41.2506 40.3415 41.2107 40.3215 41.1907C40.3215 41.1907 40.2816 41.1508 40.2616 41.1309C40.2616 41.1309 40.2217 41.0909 40.2017 41.071C40.2017 41.071 40.1618 41.0311 40.1419 40.9911C40.062 40.8913 39.9822 40.7716 39.9223 40.6718V40.6119V40.572V40.532V40.4921V40.4322V40.3923L33.8342 24.9226L32.1176 40.7117C31.9978 41.8694 30.9599 42.6878 29.8221 42.568C28.6644 42.4483 27.846 41.4103 27.9657 40.2725L29.9818 21.6491C30.0017 21.4295 30.0616 21.2099 30.1215 21.0103C30.1814 20.8107 30.2612 20.6111 30.381 20.4115C30.9 19.4334 31.8581 18.7547 32.9759 18.5951C32.9759 18.5951 33.0557 18.5951 33.0957 18.5951C33.2753 18.5951 33.455 18.5751 33.6147 18.5951C33.8342 18.5951 34.0538 18.635 34.2534 18.6749C35.3313 18.9344 36.2495 19.6729 36.6886 20.7708L41.8784 33.925L47.0683 20.7708C47.5074 19.6729 48.4256 18.9144 49.5035 18.6749C49.7031 18.635 49.9027 18.5951 50.1422 18.5951C50.3219 18.5951 50.5015 18.5951 50.6812 18.5951C50.7211 18.5951 50.761 18.5951 50.801 18.5951C51.9387 18.7547 52.8769 19.4334 53.3959 20.4115C53.4957 20.6111 53.5955 20.8107 53.6554 21.0103C53.7152 21.2299 53.7751 21.4295 53.7951 21.6491L55.8111 40.2725L55.392 40.3524Z" fill="white"/>
<path d="M34.1545 65.8623C34.1944 66.1618 33.9749 66.4412 33.6555 66.4811C33.3561 66.5211 33.0766 66.3015 33.0367 65.9821L32.5576 61.95L30.841 65.9222C30.7212 66.2017 30.3819 66.3414 30.1025 66.2216C29.9627 66.1618 29.8629 66.062 29.803 65.9222L28.0864 61.95L27.6073 65.9821C27.5674 66.2815 27.288 66.5011 26.9886 66.4811C26.6891 66.4412 26.4696 66.1618 26.4895 65.8623L27.0484 61.1915C27.0884 60.8921 27.268 60.6326 27.5475 60.4929C27.5874 60.4929 27.6273 60.453 27.6473 60.453C27.6473 60.453 27.6672 60.453 27.6872 60.453C27.7271 60.453 27.787 60.433 27.8469 60.413C28.1463 60.3731 28.4257 60.4729 28.6254 60.6526C28.6653 60.6925 28.7052 60.7324 28.7451 60.7923C28.7651 60.8322 28.785 60.8522 28.805 60.8921C28.805 60.912 28.825 60.932 28.8449 60.952L30.3021 64.3054L31.7592 60.952C31.879 60.6725 32.1185 60.4929 32.4179 60.413C32.4778 60.413 32.5377 60.3931 32.5776 60.3931C32.6175 60.3931 32.6574 60.3931 32.6974 60.3931C32.6974 60.3931 32.7173 60.3931 32.7373 60.3931C33.0367 60.433 33.2962 60.5927 33.4359 60.8322C33.4359 60.8322 33.4958 60.932 33.5158 60.9919C33.5158 61.0318 33.5357 61.0717 33.5557 61.0917C33.5557 61.1117 33.5557 61.1316 33.5557 61.1715L34.1146 65.8623H34.1545Z" fill="white"/>
<path d="M46.0119 65.9222C46.0119 66.2216 45.7524 66.4811 45.453 66.4811C45.1535 66.4811 44.8941 66.2216 44.8941 65.9222V61.4909H43.2972C42.9978 61.4909 42.7383 61.2314 42.7383 60.932C42.7383 60.6325 42.9978 60.373 43.2972 60.373H47.6087C47.9081 60.373 48.1676 60.6325 48.1676 60.932C48.1676 61.2314 47.9081 61.4909 47.6087 61.4909H46.0119V65.9222Z" fill="white"/>
<path d="M49.5045 65.9222C49.5045 66.2216 49.245 66.4811 48.9456 66.4811C48.6462 66.4811 48.3867 66.2216 48.3867 65.9222V60.932C48.3867 60.6325 48.6462 60.373 48.9456 60.373C49.245 60.373 49.5045 60.6325 49.5045 60.932V65.9222Z" fill="white"/>
<path d="M60.9814 65.8624C61.0213 66.1618 60.8017 66.4413 60.5023 66.4812C60.2029 66.5211 59.9234 66.3015 59.8835 66.0021L59.6839 64.4252H57.7477C57.4483 64.4252 57.1888 64.1657 57.1888 63.8663C57.1888 63.5669 57.4483 63.3074 57.7477 63.3074H59.5442L59.4843 62.8882V62.8483C59.4843 62.7485 59.4444 62.6687 59.4244 62.5689C59.3845 62.4691 59.3446 62.3693 59.3046 62.2694C59.0851 61.8303 58.6859 61.5109 58.1669 61.5109C58.1669 61.5109 57.9673 61.5109 57.8874 61.5509C57.8076 61.5708 57.7277 61.6107 57.6279 61.6507C57.1888 61.8702 56.9093 62.3493 56.8495 62.8882L56.4902 66.0021C56.4502 66.3015 56.1708 66.5211 55.8714 66.5011C55.572 66.4612 55.3524 66.1818 55.3724 65.8824L55.7316 62.7685C55.8315 61.8503 56.3504 61.0319 57.1089 60.6526C57.2686 60.5728 57.4283 60.5129 57.608 60.473C57.7876 60.433 57.9673 60.4131 58.1469 60.4131C59.125 60.4131 59.8635 60.972 60.2827 61.7904C60.3626 61.9501 60.4225 62.1098 60.4624 62.2694C60.5023 62.4092 60.5422 62.5689 60.5622 62.7285C60.5622 62.7285 60.5622 62.7685 60.5622 62.7884L60.9414 65.9023L60.9814 65.8624Z" fill="white"/>
<path d="M62.6989 65.9222C62.6989 66.2216 62.4394 66.4811 62.14 66.4811C61.8405 66.4811 61.5811 66.2216 61.5811 65.9222V61.2913C61.5811 61.2913 61.5811 61.2314 61.5811 61.1915C61.5811 61.1316 61.601 61.0717 61.621 61.0119C61.621 60.9719 61.6409 60.952 61.6609 60.912C61.7607 60.7324 61.9004 60.6126 62.1 60.5528C62.12 60.5528 62.1599 60.5528 62.1799 60.5328C62.1799 60.5328 62.2198 60.5328 62.2398 60.5328C62.2398 60.5328 62.3196 60.5328 62.3795 60.5328C62.619 60.5328 62.8186 60.6526 62.9783 60.8322L65.9525 64.6248V60.952C65.9525 60.6526 66.212 60.3931 66.5114 60.3931C66.8108 60.3931 67.0703 60.6526 67.0703 60.952V65.5629C67.0703 65.8025 66.9705 66.022 66.7709 66.1817C66.731 66.2017 66.691 66.2416 66.6511 66.2616C66.6312 66.2616 66.6112 66.2815 66.5912 66.3015H66.5513C66.3517 66.3813 66.1321 66.3614 65.9525 66.2616C65.9325 66.2616 65.9126 66.2416 65.8726 66.2216C65.8327 66.2017 65.7928 66.1618 65.7529 66.1418C65.7329 66.1418 65.713 66.1019 65.673 66.062V66.042L62.6989 62.2494V65.9422V65.9222Z" fill="white"/>
<path d="M71.4413 65.3633C71.7407 65.3633 72.0002 65.6228 72.0002 65.9222C72.0002 66.2216 71.7407 66.4811 71.4413 66.4811H69.7846C69.1857 66.4811 68.6268 66.2216 68.2276 65.8224C67.8284 65.4232 67.5889 64.8643 67.5889 64.2655V62.5888C67.5889 61.9899 67.8284 61.431 68.2276 61.0318C68.6268 60.6326 69.1857 60.3931 69.7846 60.3931H71.4413C71.7407 60.3931 72.0002 60.6526 72.0002 60.952C72.0002 61.2514 71.7407 61.5109 71.4413 61.5109H69.7846C69.4851 61.5109 69.2057 61.6306 69.0061 61.8303C68.8065 62.0299 68.6867 62.3093 68.6867 62.6087V64.2854C68.6867 64.5848 68.8065 64.8643 69.0061 65.0639C69.2057 65.2635 69.4851 65.3833 69.7646 65.3833H71.4213L71.4413 65.3633Z" fill="white"/>
<path d="M74.6754 60.373C75.394 60.373 76.0328 60.6525 76.5118 61.1116C76.9909 61.5707 77.2903 62.2094 77.2903 62.9081V63.946C77.2903 64.6447 76.9909 65.2834 76.5118 65.7425C76.0328 66.2016 75.394 66.4811 74.6754 66.4811C73.9568 66.4811 73.3181 66.2016 72.839 65.7425C72.36 65.2834 72.0605 64.6447 72.0605 63.946V62.9081C72.0605 62.2094 72.36 61.5707 72.839 61.1116C73.3181 60.6525 73.9568 60.373 74.6754 60.373ZM74.6754 61.4909C74.2562 61.4909 73.897 61.6505 73.6175 61.91C73.358 62.1695 73.1784 62.5089 73.1784 62.9081V63.946C73.1784 64.3253 73.338 64.6846 73.6175 64.9241C73.897 65.1836 74.2562 65.3433 74.6754 65.3433C75.0946 65.3433 75.4539 65.1836 75.7333 64.9241C75.9928 64.6646 76.1725 64.3253 76.1725 63.9261V62.8881C76.1725 62.5089 76.0128 62.1496 75.7333 61.91C75.4539 61.6505 75.0946 61.4909 74.6754 61.4909Z" fill="white"/>
<path d="M49.9629 63.3871V60.9519C49.9629 60.9519 49.9629 60.7922 50.0028 60.7323C50.0427 60.6525 50.0827 60.5926 50.1425 60.5327C50.2423 60.4329 50.3621 60.373 50.5018 60.373C50.5018 60.373 50.5218 60.373 50.5418 60.373H52.6975C53.1965 60.373 53.6357 60.5727 53.9551 60.892C54.2744 61.2114 54.474 61.6505 54.474 62.1496C54.474 62.4889 54.3742 62.8282 54.1946 63.1077C54.3144 63.1875 54.4142 63.2674 54.514 63.3672C54.514 63.3672 54.5339 63.3871 54.5539 63.4071C54.8533 63.7265 55.0529 64.1656 55.0529 64.6646C55.0529 65.1637 54.8533 65.6228 54.514 65.9621C54.1946 66.2815 53.7355 66.501 53.2365 66.501H50.5218C50.2224 66.501 49.9629 66.2415 49.9629 65.9421V63.4071V63.3871ZM51.0807 61.4909V65.3633H53.2365C53.4361 65.3633 53.5958 65.2834 53.7355 65.1637C53.8553 65.0439 53.9351 64.8642 53.9351 64.6646C53.9351 64.485 53.8553 64.3253 53.7555 64.1856H53.7355C53.6157 64.0259 53.4361 63.946 53.2365 63.946H52.4979C52.1985 63.946 51.939 63.6866 51.939 63.3871C51.939 63.0877 52.1985 62.8282 52.4979 62.8282H52.7574C52.9171 62.8282 53.0768 62.7484 53.1766 62.6286C53.2964 62.5089 53.3762 62.3492 53.3762 62.1496C53.3762 61.9699 53.2964 61.7903 53.1766 61.6705C53.0568 61.5507 52.8971 61.4709 52.6975 61.4709H51.0807V61.4909Z" fill="white"/>
</svg>
