<svg width="106" height="73" viewBox="0 0 106 73" fill="none" xmlns="http://www.w3.org/2000/svg">
<path fill-rule="evenodd" clip-rule="evenodd" d="M52.7837 49.0777C56.3754 46.0677 58.6592 41.5485 58.6592 36.4959C58.6592 31.4435 56.3755 26.9244 52.7839 23.9143C55.6345 21.5252 59.309 20.0868 63.3195 20.0868C72.3832 20.0868 79.7307 27.4335 79.7307 36.4961C79.7307 45.5587 72.3832 52.9053 63.3195 52.9053C59.3089 52.9053 55.6344 51.4669 52.7837 49.0777ZM52.7837 49.0777C49.9331 51.4668 46.2586 52.9052 42.2481 52.9052C33.1844 52.9052 25.8369 45.5585 25.8369 36.4959C25.8369 27.4333 33.1844 20.0867 42.2481 20.0867C46.2587 20.0867 49.9332 21.5252 52.7839 23.9143C49.1922 26.9244 46.9084 31.4435 46.9084 36.4961C46.9084 41.5485 49.1921 46.0677 52.7837 49.0777Z" fill="white"/>
</svg>
