<svg width="52" height="36" viewBox="0 0 52 36" fill="none" xmlns="http://www.w3.org/2000/svg">
<rect x="0.5" y="0.5" width="51" height="35" rx="3.5" fill="white"/>
<rect x="0.5" y="0.5" width="51" height="35" rx="3.5" stroke="#EAEAEA"/>
<path d="M5.19002 26.1613L5.11002 26.7513C5.08002 27.0213 5.27002 27.2613 5.53002 27.2913H24.77C25.04 27.2913 25.26 27.0813 25.27 26.8113C25.27 26.8113 25.27 26.7713 25.27 26.7513L25.19 26.1613C25.14 25.7013 25.48 25.2913 25.94 25.2413C26.4 25.1913 26.81 25.5213 26.86 25.9813L26.94 26.5613C27.09 27.8413 26.36 28.9713 25.05 28.9713H5.33002C4.03002 28.9713 3.31002 27.8413 3.46002 26.5613L3.54002 25.9813C3.59002 25.5313 3.99002 25.2013 4.44002 25.2413C4.90002 25.2913 5.24002 25.7013 5.19002 26.1713" fill="#FF0000"/>
<path d="M22.91 21.7111C23.78 21.7611 24.52 21.0911 24.57 20.2311C24.57 20.2011 24.57 20.1811 24.57 20.1511C24.55 19.2311 23.72 18.6411 22.79 18.6411H20.91C20.48 18.6411 20.12 18.2911 20.12 17.8511C20.12 17.4111 20.47 17.0611 20.91 17.0611H22.17C23.02 17.0311 23.67 16.5111 23.71 15.7211C23.75 14.8611 23.01 14.2211 22.12 14.2211H19.07V21.7011H22.92M25.23 15.7211C25.23 16.3811 24.97 17.0211 24.5 17.4911L24.45 17.5411L24.51 17.5811C25.45 18.1011 26.04 19.0711 26.08 20.1411C26.1 21.8711 24.73 23.2911 23 23.3311H18.28C17.83 23.3311 17.46 22.9511 17.46 22.5011V13.5211C17.46 13.0611 17.82 12.6911 18.27 12.6811C18.27 12.6811 18.28 12.6811 18.29 12.6811H22.11C23.78 12.6311 25.17 13.9511 25.22 15.6211V15.7211" fill="#1D1D1B"/>
<path d="M10.29 20.251L10.31 20.311L10.33 20.251C10.54 19.661 10.81 18.991 11.08 18.291C11.35 17.591 11.65 16.821 11.93 16.131C12.21 15.441 12.48 14.811 12.74 14.271C12.91 13.871 13.12 13.491 13.37 13.131C13.62 12.831 13.99 12.651 14.38 12.661H14.57C14.79 12.661 15 12.721 15.17 12.861C15.3 12.971 15.39 13.121 15.41 13.291L16.61 22.581C16.61 22.791 16.55 22.991 16.41 23.141C16.25 23.281 16.04 23.341 15.83 23.331C15.61 23.341 15.4 23.281 15.23 23.151C15.07 23.041 14.97 22.871 14.95 22.681C14.91 22.371 14.87 22.031 14.84 21.651C14.81 21.271 14.6 19.661 14.55 19.251C14.5 18.841 14.17 16.211 14.05 15.261V15.181L13.67 15.991C13.54 16.271 13.4 16.601 13.25 16.981C13.1 17.361 12.94 17.781 12.79 18.211C12.64 18.641 11.88 20.751 11.88 20.751C11.81 20.941 11.68 21.331 11.57 21.691C11.46 22.051 11.34 22.371 11.31 22.431C11.04 22.961 10.39 23.171 9.86002 22.901C9.65002 22.801 9.48002 22.631 9.38002 22.421C9.35002 22.361 9.24002 22.041 9.12002 21.681C9.00002 21.321 8.88002 20.941 8.81002 20.741C8.81002 20.741 8.07002 18.621 7.90002 18.201C7.73002 17.781 7.59002 17.361 7.44002 16.971C7.29002 16.581 7.14002 16.251 7.02002 15.981L6.63002 15.181V15.261C6.51002 16.201 6.18002 18.841 6.13002 19.251C6.08002 19.661 5.88002 21.271 5.84002 21.641C5.80002 22.011 5.76002 22.361 5.72002 22.671C5.70002 22.861 5.60002 23.031 5.44002 23.141C5.27002 23.271 5.05002 23.331 4.84002 23.321C4.63002 23.331 4.42002 23.271 4.26002 23.131C4.12002 22.981 4.05002 22.771 4.06002 22.571L5.24002 13.291C5.27002 13.131 5.35002 12.981 5.48002 12.871C5.65002 12.731 5.86002 12.651 6.08002 12.661H6.27002C6.66002 12.661 7.03002 12.821 7.27002 13.121C7.52002 13.481 7.73002 13.861 7.90002 14.261C8.16002 14.801 8.43002 15.421 8.71002 16.121C8.99002 16.821 9.28002 17.541 9.56002 18.281C9.83002 18.991 10.09 19.651 10.31 20.241" fill="#1D1D1B"/>
<path d="M7.93995 7.06078H22.5C23.87 7.06078 24.56 8.09078 24.7 9.45078L24.76 9.88078C24.81 10.3508 24.48 10.7708 24.01 10.8208C23.55 10.8608 23.15 10.5208 23.11 10.0608L23.05 9.64078C22.99 9.12078 22.77 8.72078 22.25 8.72078H8.19995C7.66995 8.72078 7.45995 9.12078 7.38995 9.64078L7.32995 10.0508C7.28995 10.5108 6.87995 10.8508 6.41995 10.8108C5.94995 10.7608 5.60995 10.3408 5.66995 9.87078L5.72995 9.44078C5.88995 8.08078 6.56995 7.05078 7.92995 7.05078" fill="#FF0000"/>
<path d="M34.13 16.8512C34.03 17.2412 33.93 17.6512 33.82 18.1112C33.71 18.5712 33.6 18.9812 33.51 19.3712C33.42 19.7612 33.31 20.1212 33.2 20.4312C33.14 20.6512 33.06 20.8612 32.96 21.0612C32.83 21.2612 32.6 21.3812 32.37 21.3612C32.26 21.3612 32.16 21.3412 32.06 21.3112C31.92 21.2712 31.81 21.1712 31.75 21.0412C31.65 20.8312 31.57 20.6112 31.51 20.3912C31.42 20.0812 31.31 19.6912 31.2 19.2712C31.09 18.8512 30.99 18.4012 30.89 17.9212C30.79 17.4412 30.69 17.0012 30.6 16.6012C30.51 16.2012 30.44 15.8412 30.39 15.5612C30.34 15.2812 30.3 15.1012 30.29 15.0412C30.29 15.0212 30.29 14.9912 30.29 14.9712V14.9312C30.29 14.8212 30.34 14.7112 30.43 14.6412C30.53 14.5612 30.65 14.5212 30.77 14.5312C30.88 14.5312 30.99 14.5512 31.08 14.6112C31.17 14.6812 31.23 14.7812 31.25 14.8912C31.25 14.8912 31.27 15.0112 31.31 15.2012C31.35 15.3912 31.4 15.6312 31.46 15.9312C31.52 16.2312 31.59 16.5612 31.66 16.9312C31.73 17.3012 31.81 17.6712 31.9 18.0512C31.99 18.4312 32.06 18.7912 32.15 19.1512C32.24 19.5112 32.3 19.8112 32.38 20.0612C32.45 19.8212 32.53 19.5512 32.61 19.2412C32.69 18.9312 32.78 18.6112 32.87 18.3012C32.96 17.9912 33.03 17.6412 33.11 17.3112C33.19 16.9812 33.26 16.6812 33.33 16.3912C33.4 16.1012 33.45 15.8612 33.5 15.6412C33.55 15.4212 33.59 15.2612 33.62 15.1512C33.65 15.0312 33.72 14.9212 33.82 14.8412C33.92 14.7512 34.04 14.7012 34.17 14.7012C34.31 14.7012 34.44 14.7412 34.55 14.8212C34.65 14.9012 34.71 15.0112 34.74 15.1312C34.82 15.4712 34.91 15.8612 35 16.2912C35.09 16.7212 35.19 17.1512 35.29 17.5912C35.39 18.0312 35.49 18.4612 35.6 18.8812C35.71 19.3012 35.81 19.6712 35.91 20.0012C35.98 19.7512 36.06 19.4412 36.14 19.0912C36.22 18.7412 36.3 18.3712 36.39 17.9912C36.48 17.6112 36.56 17.2512 36.64 16.8812C36.72 16.5112 36.79 16.1812 36.85 15.8912C36.91 15.6012 36.97 15.3612 37 15.1812C37.03 15.0012 37.06 14.9012 37.06 14.8912C37.08 14.7812 37.14 14.6812 37.23 14.6112C37.32 14.5512 37.43 14.5212 37.54 14.5312C37.66 14.5312 37.79 14.5612 37.88 14.6412C37.97 14.7112 38.02 14.8212 38.02 14.9312V14.9712C38.02 14.9712 38.02 15.0212 38.02 15.0512C38.02 15.1112 37.98 15.2812 37.92 15.5712C37.86 15.8612 37.79 16.2012 37.7 16.6112C37.62 17.0212 37.52 17.4612 37.41 17.9312C37.3 18.4012 37.2 18.8512 37.1 19.2712C37 19.6912 36.9 20.0712 36.79 20.3912C36.73 20.6112 36.65 20.8312 36.55 21.0412C36.49 21.1712 36.37 21.2712 36.24 21.3212C36.14 21.3512 36.03 21.3712 35.93 21.3812C35.89 21.3812 35.84 21.3812 35.8 21.3812C35.74 21.3812 35.68 21.3612 35.62 21.3412C35.55 21.3212 35.49 21.2812 35.43 21.2412C35.36 21.1912 35.31 21.1312 35.28 21.0512C35.19 20.8312 35.11 20.6112 35.05 20.3812C34.96 20.0712 34.86 19.7212 34.76 19.3312C34.66 18.9412 34.56 18.5212 34.45 18.1012C34.34 17.6812 34.26 17.2712 34.17 16.9012" fill="#1D1D1B"/>
<path d="M39.6898 19.3808C39.5798 19.7208 39.4898 20.0308 39.4098 20.3208C39.3298 20.6108 39.2498 20.8508 39.1798 21.0308C39.1498 21.2908 38.9098 21.4708 38.6398 21.4408C38.3798 21.4108 38.1998 21.1708 38.2298 20.9008C38.2298 20.8508 38.2298 20.8108 38.2498 20.7608L38.3798 20.3208C38.4598 20.0708 38.5498 19.7708 38.6698 19.4008C38.7898 19.0308 38.9198 18.6308 39.0698 18.1908C39.2198 17.7508 39.3698 17.3208 39.5198 16.8908C39.6698 16.4608 39.8298 16.0608 39.9798 15.6908C40.0998 15.3808 40.2398 15.0808 40.3998 14.7908C40.4498 14.6808 40.5298 14.6008 40.6298 14.5508C40.7498 14.5008 40.8898 14.4808 41.0198 14.4908C41.1598 14.4908 41.2898 14.5108 41.4198 14.5608C41.5298 14.6108 41.6098 14.7008 41.6498 14.8108C41.7498 15.0208 41.8698 15.3108 42.0098 15.6608C42.1498 16.0108 42.2998 16.4008 42.4498 16.8208C42.5998 17.2408 42.7598 17.6608 42.8998 18.0808C43.0398 18.5008 43.1898 18.9108 43.3098 19.2808C43.4298 19.6508 43.5398 19.9708 43.6198 20.2208C43.6998 20.4708 43.7598 20.6508 43.7798 20.7308C43.7998 20.7708 43.7998 20.8208 43.7998 20.8708C43.7998 20.9908 43.7598 21.1008 43.6698 21.1808C43.5698 21.2708 43.4398 21.3108 43.2998 21.3008C43.1998 21.3008 43.0998 21.2808 43.0298 21.2208C42.9598 21.1608 42.9198 21.0808 42.8898 20.9908C42.8198 20.8008 42.7398 20.5708 42.6398 20.2808C42.5398 19.9908 42.4398 19.6808 42.3298 19.3408H39.6698M42.0298 18.4208C41.8798 17.9608 41.7398 17.5408 41.6098 17.1608C41.4798 16.7808 41.3598 16.4208 41.1998 16.0608C41.1698 15.9808 41.1298 15.8908 41.0898 15.7908C41.0498 15.6908 41.0298 15.6308 41.0198 15.6108C40.9898 15.6608 40.9698 15.7208 40.9498 15.7808C40.9098 15.8908 40.8698 15.9808 40.8398 16.0608C40.6998 16.4108 40.5598 16.7708 40.4298 17.1608C40.2998 17.5508 40.1598 17.9708 40.0098 18.4208H42.0298Z" fill="#1D1D1B"/>
<path d="M45.6598 18.6713C45.6598 18.6713 45.5898 18.5913 45.5598 18.5513L45.4598 18.4113C45.3598 18.2713 45.2598 18.1013 45.1498 17.8913C45.0398 17.6813 44.9098 17.4713 44.7998 17.2613C44.6898 17.0513 44.5698 16.8013 44.4598 16.5713C44.3498 16.3413 44.2498 16.1313 44.1598 15.9413C44.0698 15.7513 43.9898 15.5713 43.9298 15.4213C43.8798 15.3213 43.8398 15.2113 43.8098 15.1113C43.7998 15.0813 43.7898 15.0613 43.7798 15.0313V14.9513C43.7798 14.8313 43.8298 14.7213 43.9098 14.6413C44.0098 14.5513 44.1398 14.5013 44.2798 14.5113C44.3998 14.5013 44.5098 14.5413 44.5898 14.6213C44.6498 14.6813 44.6898 14.7513 44.7198 14.8313L44.8198 15.0613C44.8698 15.1813 44.9398 15.3313 45.0198 15.5013C45.0998 15.6713 45.1898 15.8713 45.2898 16.0913C45.3898 16.3113 45.4898 16.5113 45.5998 16.7213L45.8998 17.3113C45.9798 17.4713 46.0698 17.6213 46.1698 17.7713C46.3298 17.5213 46.4798 17.2613 46.6098 16.9913C46.7598 16.6813 46.9198 16.3813 47.0498 16.0713C47.1798 15.7613 47.3098 15.5013 47.4198 15.2713L47.6098 14.8313C47.6398 14.7513 47.6898 14.6813 47.7398 14.6213C47.8198 14.5413 47.9398 14.5013 48.0498 14.5113C48.1898 14.5113 48.3198 14.5513 48.4198 14.6413C48.5098 14.7213 48.5598 14.8413 48.5498 14.9513C48.5498 14.9813 48.5498 15.0013 48.5498 15.0313L48.5198 15.1113L48.3998 15.4213C48.3398 15.5713 48.2598 15.7313 48.1698 15.9413C48.0798 16.1513 47.9798 16.3513 47.8798 16.5713C47.7798 16.7913 47.6498 17.0313 47.5398 17.2613C47.4298 17.4913 47.3098 17.7013 47.1898 17.8913C47.0698 18.0813 46.9598 18.2713 46.8798 18.4113C46.8198 18.5013 46.7498 18.5813 46.6798 18.6613V20.8613C46.6798 20.9913 46.6398 21.1213 46.5498 21.2113C46.3598 21.4013 46.0598 21.4013 45.8698 21.2113C45.7698 21.1213 45.7198 20.9813 45.7198 20.8513V18.6513" fill="#1D1D1B"/>
</svg>
