<svg width="52" height="36" viewBox="0 0 52 36" fill="none" xmlns="http://www.w3.org/2000/svg">
<rect x="0.5" y="0.5" width="51" height="35" rx="3.5" fill="white"/>
<rect x="0.5" y="0.5" width="51" height="35" rx="3.5" stroke="#EAEAEA"/>
<path fill-rule="evenodd" clip-rule="evenodd" d="M18.5099 2.9807H34.5699C35.6999 2.9807 36.6199 3.9607 36.6199 5.1507V6.1907C36.6199 7.6607 34.6299 7.6507 34.6299 6.1907V5.6207C34.6299 5.2607 34.3399 4.9607 33.9699 4.9607H17.8799C17.5199 4.9607 17.2199 5.2507 17.2199 5.6207V6.1807C17.2199 7.6407 15.3299 7.6307 15.3299 6.2107V5.1407C15.3299 3.9507 16.2499 2.9707 17.3799 2.9707H18.4999L18.5099 2.9807ZM25.8699 27.1907H36.2799C38.6599 27.1907 38.6799 24.6607 38.4399 23.4107C38.3099 22.5707 36.8799 22.5807 36.7299 23.4107V24.3807C36.7299 24.8207 36.3699 25.1907 35.9199 25.1907H15.9499C15.5099 25.1907 15.1399 24.8307 15.1399 24.3807V23.4107C14.9799 22.5807 13.5599 22.5707 13.4299 23.4107C13.1899 24.6607 13.2099 27.1907 15.5899 27.1907H25.8699Z" fill="#1866AA"/>
<path fill-rule="evenodd" clip-rule="evenodd" d="M32.3101 14.0915H33.9701V14.0715C34.7301 13.9515 35.3101 13.3015 35.3101 12.5115C35.3101 11.6415 34.6001 10.9315 33.7301 10.9315H30.3901V19.1915H34.6301C35.5301 19.1915 36.2601 18.4615 36.2601 17.5615C36.2601 16.6615 35.5301 15.9315 34.6301 15.9315H33.9701H32.3101C31.8101 15.9315 31.3901 15.5215 31.3901 15.0115C31.3901 14.5015 31.8001 14.0915 32.3101 14.0915ZM36.2101 14.9015C37.3201 15.4215 38.0901 16.5015 38.0901 17.7415C38.0901 19.4915 36.5601 20.9215 34.7001 20.9215H29.4701C28.9801 20.9215 28.5801 20.5515 28.5801 20.0915V10.1415C28.5801 9.66148 28.9701 9.27148 29.4501 9.27148H33.8101C35.6401 9.27148 37.1401 10.7715 37.1401 12.6015C37.1401 13.4915 36.7801 14.3015 36.2101 14.9015Z" fill="#373536"/>
<path d="M19.17 30.2409C19.17 30.0909 19.3 29.9609 19.45 29.9609C19.6 29.9609 19.73 30.0909 19.73 30.2409V31.7609C19.73 32.1109 19.59 32.4209 19.36 32.6509C19.13 32.8809 18.82 33.0209 18.47 33.0209C18.12 33.0209 17.81 32.8809 17.58 32.6509C17.35 32.4209 17.21 32.1109 17.21 31.7609V30.2409C17.21 30.0909 17.34 29.9609 17.49 29.9609C17.64 29.9609 17.77 30.0909 17.77 30.2409V31.7609C17.77 31.9509 17.85 32.1309 17.98 32.2509C18.11 32.3809 18.28 32.4609 18.47 32.4609C18.66 32.4609 18.84 32.3809 18.96 32.2509C19.09 32.1209 19.17 31.9509 19.17 31.7609V30.2409Z" fill="#373536"/>
<path d="M21.82 32.4607C21.97 32.4607 22.1 32.5907 22.1 32.7407C22.1 32.8907 21.97 33.0207 21.82 33.0207H21.05C20.76 33.0207 20.5 32.9007 20.31 32.7107C20.12 32.5207 20 32.2607 20 31.9707V30.2507C20 30.1007 20.13 29.9707 20.28 29.9707C20.43 29.9707 20.56 30.1007 20.56 30.2507V31.9707C20.56 32.1107 20.62 32.2307 20.71 32.3207C20.8 32.4107 20.92 32.4707 21.06 32.4707H21.83L21.82 32.4607Z" fill="#373536"/>
<path d="M27.7502 19.9298C27.8102 20.5098 27.3902 21.0198 26.8202 21.0798C26.2402 21.1398 25.7302 20.7198 25.6702 20.1498L24.8102 12.2398L21.7602 19.9798V19.9998V20.0198V20.0398H21.7502V20.0598H21.7402V20.0798H21.7302C21.6702 20.1898 21.6002 20.2798 21.5202 20.3598L21.5002 20.3798C21.4502 20.4298 21.3802 20.4698 21.3202 20.5098L21.3002 20.5198H21.2802H21.2702H21.2602L21.2502 20.5298H21.2402L21.2302 20.5398H21.2202H21.2102C21.1102 20.5798 21.0002 20.5898 20.9002 20.5998H20.8902H20.8802H20.8402H20.8302C20.7202 20.5998 20.6002 20.5698 20.4902 20.5298H20.4802H20.4702L20.4602 20.5198H20.4502L20.4402 20.5098H20.4302H20.4102V20.4998H20.3902V20.4898C20.3302 20.4598 20.2802 20.4198 20.2302 20.3798C20.2302 20.3798 20.2102 20.3598 20.2002 20.3498C20.2002 20.3498 20.1802 20.3298 20.1702 20.3198C20.1702 20.3198 20.1502 20.2998 20.1402 20.2898C20.1402 20.2898 20.1202 20.2698 20.1102 20.2498C20.0702 20.1998 20.0302 20.1398 20.0002 20.0898V20.0598V20.0398V20.0198V19.9998V19.9698V19.9498L16.9502 12.1998L16.0902 20.1098C16.0302 20.6898 15.5102 21.0998 14.9402 21.0398C14.3602 20.9798 13.9502 20.4598 14.0102 19.8898L15.0202 10.5598C15.0302 10.4498 15.0602 10.3398 15.0902 10.2398C15.1202 10.1398 15.1602 10.0398 15.2202 9.93983C15.4802 9.44983 15.9602 9.10984 16.5202 9.02984C16.5202 9.02984 16.5602 9.02984 16.5802 9.02984C16.6702 9.02984 16.7602 9.01984 16.8402 9.02984C16.9502 9.02984 17.0602 9.04984 17.1602 9.06984C17.7002 9.19984 18.1602 9.56984 18.3802 10.1198L20.9802 16.7098L23.5802 10.1198C23.8002 9.56984 24.2602 9.18984 24.8002 9.06984C24.9002 9.04984 25.0002 9.02984 25.1202 9.02984C25.2102 9.02984 25.3002 9.02984 25.3902 9.02984C25.4102 9.02984 25.4302 9.02984 25.4502 9.02984C26.0202 9.10984 26.4902 9.44983 26.7502 9.93983C26.8002 10.0398 26.8502 10.1398 26.8802 10.2398C26.9102 10.3498 26.9402 10.4498 26.9502 10.5598L27.9602 19.8898L27.7502 19.9298Z" fill="#373536"/>
<path d="M17.1102 32.7107C17.1302 32.8607 17.0202 33.0007 16.8602 33.0207C16.7102 33.0407 16.5702 32.9307 16.5502 32.7707L16.3102 30.7507L15.4502 32.7407C15.3902 32.8807 15.2202 32.9507 15.0802 32.8907C15.0102 32.8607 14.9602 32.8107 14.9302 32.7407L14.0702 30.7507L13.8302 32.7707C13.8102 32.9207 13.6702 33.0307 13.5202 33.0207C13.3702 33.0007 13.2602 32.8607 13.2702 32.7107L13.5502 30.3707C13.5702 30.2207 13.6602 30.0907 13.8002 30.0207C13.8202 30.0207 13.8402 30.0007 13.8502 30.0007C13.8502 30.0007 13.8602 30.0007 13.8702 30.0007C13.8902 30.0007 13.9202 29.9907 13.9502 29.9807C14.1002 29.9607 14.2402 30.0107 14.3402 30.1007C14.3602 30.1207 14.3802 30.1407 14.4002 30.1707C14.4102 30.1907 14.4202 30.2007 14.4302 30.2207C14.4302 30.2307 14.4402 30.2407 14.4502 30.2507L15.1802 31.9307L15.9102 30.2507C15.9702 30.1107 16.0902 30.0207 16.2402 29.9807C16.2702 29.9807 16.3002 29.9707 16.3202 29.9707C16.3402 29.9707 16.3602 29.9707 16.3802 29.9707C16.3802 29.9707 16.3902 29.9707 16.4002 29.9707C16.5502 29.9907 16.6802 30.0707 16.7502 30.1907C16.7502 30.1907 16.7802 30.2407 16.7902 30.2707C16.7902 30.2907 16.8002 30.3107 16.8102 30.3207C16.8102 30.3307 16.8102 30.3407 16.8102 30.3607L17.0902 32.7107H17.1102Z" fill="#373536"/>
<path d="M23.0502 32.7409C23.0502 32.8909 22.9202 33.0209 22.7702 33.0209C22.6202 33.0209 22.4902 32.8909 22.4902 32.7409V30.5209H21.6902C21.5402 30.5209 21.4102 30.3909 21.4102 30.2409C21.4102 30.0909 21.5402 29.9609 21.6902 29.9609H23.8502C24.0002 29.9609 24.1302 30.0909 24.1302 30.2409C24.1302 30.3909 24.0002 30.5209 23.8502 30.5209H23.0502V32.7409Z" fill="#373536"/>
<path d="M24.8002 32.7409C24.8002 32.8909 24.6702 33.0209 24.5202 33.0209C24.3702 33.0209 24.2402 32.8909 24.2402 32.7409V30.2409C24.2402 30.0909 24.3702 29.9609 24.5202 29.9609C24.6702 29.9609 24.8002 30.0909 24.8002 30.2409V32.7409Z" fill="#373536"/>
<path d="M30.5504 32.7105C30.5704 32.8605 30.4604 33.0005 30.3104 33.0205C30.1604 33.0405 30.0204 32.9305 30.0004 32.7805L29.9004 31.9905H28.9304C28.7804 31.9905 28.6504 31.8605 28.6504 31.7105C28.6504 31.5605 28.7804 31.4305 28.9304 31.4305H29.8304L29.8004 31.2205V31.2005C29.8004 31.1505 29.7804 31.1105 29.7704 31.0605C29.7504 31.0105 29.7304 30.9605 29.7104 30.9105C29.6004 30.6905 29.4004 30.5305 29.1404 30.5305C29.1404 30.5305 29.0404 30.5305 29.0004 30.5505C28.9604 30.5605 28.9204 30.5805 28.8704 30.6005C28.6504 30.7105 28.5104 30.9505 28.4804 31.2205L28.3004 32.7805C28.2804 32.9305 28.1404 33.0405 27.9904 33.0305C27.8404 33.0105 27.7304 32.8705 27.7404 32.7205L27.9204 31.1605C27.9704 30.7005 28.2304 30.2905 28.6104 30.1005C28.6904 30.0605 28.7704 30.0305 28.8604 30.0105C28.9504 29.9905 29.0404 29.9805 29.1304 29.9805C29.6204 29.9805 29.9904 30.2605 30.2004 30.6705C30.2404 30.7505 30.2704 30.8305 30.2904 30.9105C30.3104 30.9805 30.3304 31.0605 30.3404 31.1405C30.3404 31.1405 30.3404 31.1605 30.3404 31.1705L30.5304 32.7305L30.5504 32.7105Z" fill="#373536"/>
<path d="M31.4101 32.7407C31.4101 32.8907 31.2801 33.0207 31.1301 33.0207C30.9801 33.0207 30.8501 32.8907 30.8501 32.7407V30.4207C30.8501 30.4207 30.8501 30.3907 30.8501 30.3707C30.8501 30.3407 30.8601 30.3107 30.8701 30.2807C30.8701 30.2607 30.8801 30.2507 30.8901 30.2307C30.9401 30.1407 31.0101 30.0807 31.1101 30.0507C31.1201 30.0507 31.1401 30.0507 31.1501 30.0407C31.1501 30.0407 31.1701 30.0407 31.1801 30.0407C31.1801 30.0407 31.2201 30.0407 31.2501 30.0407C31.3701 30.0407 31.4701 30.1007 31.5501 30.1907L33.0401 32.0907V30.2507C33.0401 30.1007 33.1701 29.9707 33.3201 29.9707C33.4701 29.9707 33.6001 30.1007 33.6001 30.2507V32.5607C33.6001 32.6807 33.5501 32.7907 33.4501 32.8707C33.4301 32.8807 33.4101 32.9007 33.3901 32.9107C33.3801 32.9107 33.3701 32.9207 33.3601 32.9307H33.3401C33.2401 32.9707 33.1301 32.9607 33.0401 32.9107C33.0301 32.9107 33.0201 32.9007 33.0001 32.8907C32.9801 32.8807 32.9601 32.8607 32.9401 32.8507C32.9301 32.8507 32.9201 32.8307 32.9001 32.8107V32.8007L31.4101 30.9007V32.7507V32.7407Z" fill="#373536"/>
<path d="M35.7904 32.4607C35.9404 32.4607 36.0704 32.5907 36.0704 32.7407C36.0704 32.8907 35.9404 33.0207 35.7904 33.0207H34.9604C34.6604 33.0207 34.3804 32.8907 34.1804 32.6907C33.9804 32.4907 33.8604 32.2107 33.8604 31.9107V31.0707C33.8604 30.7707 33.9804 30.4907 34.1804 30.2907C34.3804 30.0907 34.6604 29.9707 34.9604 29.9707H35.7904C35.9404 29.9707 36.0704 30.1007 36.0704 30.2507C36.0704 30.4007 35.9404 30.5307 35.7904 30.5307H34.9604C34.8104 30.5307 34.6704 30.5907 34.5704 30.6907C34.4704 30.7907 34.4104 30.9307 34.4104 31.0807V31.9207C34.4104 32.0707 34.4704 32.2107 34.5704 32.3107C34.6704 32.4107 34.8104 32.4707 34.9504 32.4707H35.7803L35.7904 32.4607Z" fill="#373536"/>
<path d="M37.4101 29.9609C37.7701 29.9609 38.0901 30.1009 38.3301 30.3309C38.5701 30.5609 38.7201 30.8809 38.7201 31.2309V31.7509C38.7201 32.1009 38.5701 32.4209 38.3301 32.6509C38.0901 32.8809 37.7701 33.0209 37.4101 33.0209C37.0501 33.0209 36.7301 32.8809 36.4901 32.6509C36.2501 32.4209 36.1001 32.1009 36.1001 31.7509V31.2309C36.1001 30.8809 36.2501 30.5609 36.4901 30.3309C36.7301 30.1009 37.0501 29.9609 37.4101 29.9609ZM37.4101 30.5209C37.2001 30.5209 37.0201 30.6009 36.8801 30.7309C36.7501 30.8609 36.6601 31.0309 36.6601 31.2309V31.7509C36.6601 31.9409 36.7401 32.1209 36.8801 32.2409C37.0201 32.3709 37.2001 32.4509 37.4101 32.4509C37.6201 32.4509 37.8001 32.3709 37.9401 32.2409C38.0701 32.1109 38.1601 31.9409 38.1601 31.7409V31.2209C38.1601 31.0309 38.0801 30.8509 37.9401 30.7309C37.8001 30.6009 37.6201 30.5209 37.4101 30.5209Z" fill="#373536"/>
<path d="M25.0303 31.4709V30.2509C25.0303 30.2509 25.0303 30.1709 25.0503 30.1409C25.0703 30.1009 25.0903 30.0709 25.1203 30.0409C25.1703 29.9909 25.2303 29.9609 25.3003 29.9609C25.3003 29.9609 25.3103 29.9609 25.3203 29.9609H26.4003C26.6503 29.9609 26.8703 30.0609 27.0303 30.2209C27.1903 30.3809 27.2903 30.6009 27.2903 30.8509C27.2903 31.0209 27.2403 31.1909 27.1503 31.3309C27.2103 31.3709 27.2603 31.4109 27.3103 31.4609C27.3103 31.4609 27.3203 31.4709 27.3303 31.4809C27.4803 31.6409 27.5803 31.8609 27.5803 32.1109C27.5803 32.3609 27.4803 32.5909 27.3103 32.7609C27.1503 32.9209 26.9203 33.0309 26.6703 33.0309H25.3103C25.1603 33.0309 25.0303 32.9009 25.0303 32.7509V31.4809V31.4709ZM25.5903 30.5209V32.4609H26.6703C26.7703 32.4609 26.8503 32.4209 26.9203 32.3609C26.9803 32.3009 27.0203 32.2109 27.0203 32.1109C27.0203 32.0209 26.9803 31.9409 26.9303 31.8709H26.9203C26.8603 31.7909 26.7703 31.7509 26.6703 31.7509H26.3003C26.1503 31.7509 26.0203 31.6209 26.0203 31.4709C26.0203 31.3209 26.1503 31.1909 26.3003 31.1909H26.4303C26.5103 31.1909 26.5903 31.1509 26.6403 31.0909C26.7003 31.0309 26.7403 30.9509 26.7403 30.8509C26.7403 30.7609 26.7003 30.6709 26.6403 30.6109C26.5803 30.5509 26.5003 30.5109 26.4003 30.5109H25.5903V30.5209Z" fill="#373536"/>
</svg>
