<svg width="106" height="73" viewBox="0 0 106 73" fill="none" xmlns="http://www.w3.org/2000/svg">
<path d="M46.6517 49.3608H40.3955L44.3086 25.1682H50.5644L46.6517 49.3608Z" fill="white"/>
<path d="M69.3283 25.7597C68.0943 25.2702 66.1371 24.7297 63.717 24.7297C57.5389 24.7297 53.1882 28.0239 53.1616 32.7335C53.1102 36.2083 56.2765 38.1382 58.6446 39.2968C61.065 40.4807 61.8878 41.2535 61.8878 42.3088C61.8631 43.9295 59.9319 44.6766 58.1307 44.6766C55.633 44.6766 54.2946 44.2914 52.2608 43.3897L51.437 43.0032L50.5615 48.4339C52.0288 49.1023 54.7322 49.6955 57.5389 49.7215C64.1033 49.7215 68.3769 46.4783 68.4276 41.4594C68.4525 38.7054 66.7806 36.5952 63.1762 34.8708C60.988 33.7638 59.648 33.0174 59.648 31.8848C59.6736 30.8552 60.7814 29.8006 63.2514 29.8006C65.2853 29.7489 66.7796 30.2378 67.9117 30.7269L68.4775 30.9838L69.3283 25.7597Z" fill="white"/>
<path d="M77.6481 40.7902C78.1633 39.4004 80.1458 34.0213 80.1458 34.0213C80.1198 34.073 80.66 32.6059 80.9689 31.7052L81.4062 33.7898C81.4062 33.7898 82.5909 39.5807 82.8482 40.7902C81.8704 40.7902 78.8838 40.7902 77.6481 40.7902ZM85.3705 25.1682H80.5314C79.0391 25.1682 77.9053 25.6054 77.2615 27.1755L67.9688 49.3605H74.5332C74.5332 49.3605 75.6139 46.3746 75.8462 45.7315C76.5663 45.7315 82.9522 45.7315 83.8786 45.7315C84.0582 46.5808 84.6251 49.3605 84.6251 49.3605H90.4177L85.3705 25.1682V25.1682Z" fill="white"/>
<path d="M35.1706 25.1682L29.0437 41.6653L28.3742 38.3195C27.2415 34.4589 23.689 30.2644 19.7246 28.1788L25.3366 49.3352H31.9523L41.7859 25.1682H35.1706V25.1682Z" fill="white"/>
<path d="M23.3541 25.1682H13.2885L13.1855 25.6571C21.0373 27.6649 26.2374 32.5048 28.3739 38.322L26.1857 27.2021C25.8255 25.6567 24.7184 25.2192 23.3541 25.1682Z" fill="white"/>
</svg>
