<svg width="114" height="73" viewBox="0 0 114 73" fill="none" xmlns="http://www.w3.org/2000/svg">
<path fill-rule="evenodd" clip-rule="evenodd" d="M11.1709 43.1498C14.908 43.1498 16.7128 41.0476 16.7128 37.9688V30.537H14.0374V37.8838C14.0374 39.6038 13.0606 40.7928 11.1709 40.7928C9.28108 40.7928 8.2831 39.6038 8.2831 37.8838V30.537H5.62891V37.9688C5.62891 41.0052 7.43376 43.1285 11.1709 43.1285V43.1498ZM108.378 29.4541C108.378 30.7494 107.359 31.7898 106.085 31.7898C104.811 31.7898 103.813 30.7494 103.813 29.4753C103.813 28.2013 104.832 27.1609 106.085 27.1609H108.357V29.4329L108.378 29.4541ZM32.8079 42.9162V40.6017H26.8837L32.6805 32.6604V30.537H23.4651V32.8515H29.2619L23.4651 40.7716V42.9162H32.8079ZM45.6117 43.1285C48.3083 43.1285 49.8584 41.6209 50.7502 40.0921L48.4995 38.988C47.9898 40.0072 46.8857 40.7928 45.6117 40.7928C43.3822 40.7928 41.7684 39.0729 41.7684 36.7372C41.7684 34.4015 43.3822 32.6816 45.6117 32.6816C46.8857 32.6816 47.9898 33.4885 48.4995 34.4865L50.7502 33.3823C49.8796 31.8323 48.3296 30.3672 45.6117 30.3672C41.9383 30.3672 39.093 32.9576 39.093 36.7585C39.093 40.5593 41.9383 43.171 45.6117 43.171V43.1285ZM68.7563 42.9162L64.0212 30.537H60.7512L56.0161 42.9162H58.9888L59.7532 40.8141H65.0192L65.7836 42.9162H68.7563ZM64.2972 38.4996H60.4752L62.3862 33.17L64.2972 38.4996ZM85.7006 46.0163L81.1991 38.2023C82.5156 37.8838 83.8746 36.716 83.8746 34.5289C83.8746 32.2357 82.3033 30.537 79.7552 30.537H74.0222V42.9162H76.6339V38.5208H78.5449L82.6855 46.0163H85.6794H85.7006ZM79.373 36.2064H76.6339V32.8727H79.373C80.4135 32.8727 81.2204 33.5097 81.2204 34.5502C81.2204 35.5906 80.4347 36.2276 79.373 36.2276V36.2064ZM95.4893 42.9162C99.3326 42.9162 101.987 40.4743 101.987 36.7372C101.987 33.0001 99.3113 30.537 95.4893 30.537H90.6481V42.9162H95.4893ZM95.4893 40.6017H93.2598V32.8727H95.4893C98.0161 32.8727 99.3326 34.5714 99.3326 36.7585C99.3326 38.9455 97.9099 40.623 95.4893 40.623V40.6017Z" fill="white"/>
</svg>
