<svg width="52" height="36" viewBox="0 0 52 36" fill="none" xmlns="http://www.w3.org/2000/svg">
<rect x="0.5" y="0.5" width="51" height="35" rx="3.5" fill="white"/>
<rect x="0.5" y="0.5" width="51" height="35" rx="3.5" stroke="#EAEAEA"/>
<path d="M10.4399 33.5595H41.5599V2.43945H10.4399V33.5595Z" fill="#DA4A09"/>
<path d="M17.2201 24.9895C17.0601 25.0295 16.2101 25.2595 15.4701 25.2595C14.5401 25.2595 13.5601 24.9895 13.5601 22.7295C13.5601 20.4695 14.8501 20.1195 15.8201 20.1195C16.5201 20.1195 17.0701 20.3895 17.0701 20.3895V21.0495C17.0701 21.0495 16.4501 20.8195 15.8201 20.8195C15.1901 20.8195 14.4601 21.0895 14.4601 22.6895C14.4601 24.2895 15.0401 24.5595 15.5501 24.5595C15.9001 24.5595 16.3701 24.4395 16.3701 24.4395V22.7695H15.5901L15.5101 22.1495H17.2201V24.9895ZM17.7701 20.1195H21.4301L21.3101 20.8995H20.1001V25.2195H19.1301V20.9395H17.7301V20.1195H17.7701ZM22.2101 20.1595L23.9201 20.1195C26.0601 20.1195 26.0201 22.4195 24.7801 22.5295C26.1401 22.7195 26.0701 24.7495 24.7801 25.2195H22.2501V20.1595H22.2101ZM23.1401 20.9395V22.2595H24.0401C24.5501 22.2195 24.8201 21.0895 24.0801 20.9395H23.1501H23.1401ZM23.1401 22.9695V24.4495H24.0401C25.0501 24.4495 24.8201 23.0095 24.0801 22.9695H23.1501H23.1401ZM26.6801 21.5695C27.9701 20.9895 29.4501 21.0995 29.6801 22.0795V25.2295H28.7801V24.7195C28.0001 25.5795 26.1301 25.4195 26.3701 23.6695C26.5301 22.8495 27.3801 22.6195 28.7101 22.7395C28.8301 21.6095 27.3901 22.1595 26.6801 22.3495V21.5695ZM27.4201 23.5595C26.8401 24.5295 28.0001 24.8495 28.7101 24.1095V23.4495C28.2801 23.2895 27.6201 23.2895 27.4201 23.5695V23.5595ZM31.5501 22.5095V25.2795H30.5401V21.2695H31.4701V21.7395C32.8701 20.9195 34.0001 21.1595 34.2001 22.3195V25.2395H33.1901V22.4695C33.0001 21.7695 31.7901 22.2395 31.5501 22.5095ZM34.9401 25.2795V20.1395H35.9101V25.2395H34.9401V25.2795ZM37.2801 21.2695H38.4501L37.0901 23.0595L38.5701 25.2795H37.4801L36.0401 23.0195L37.2901 21.2695H37.2801ZM28.2001 14.6895H35.9901V6.93945H28.2001V14.6895Z" fill="#FAFAFA"/>
</svg>
