<svg width="52" height="36" viewBox="0 0 52 36" fill="none" xmlns="http://www.w3.org/2000/svg">
<g clip-path="url(#clip0_2280_3908)">
<rect width="52" height="36" rx="4" fill="white"/>
<path d="M48 0H4C1.79086 0 0 1.79086 0 4V32C0 34.2091 1.79086 36 4 36H48C50.2091 36 52 34.2091 52 32V4C52 1.79086 50.2091 0 48 0Z" fill="white"/>
<path d="M48 0H4C1.79086 0 0 1.79086 0 4V32C0 34.2091 1.79086 36 4 36H48C50.2091 36 52 34.2091 52 32V4C52 1.79086 50.2091 0 48 0Z" fill="#D3D3D3"/>
<path d="M47.3198 0.550781H4.6798C2.53694 0.550781 0.799805 2.28792 0.799805 4.43078V31.5608C0.799805 33.7036 2.53694 35.4408 4.6798 35.4408H47.3198C49.4627 35.4408 51.1998 33.7036 51.1998 31.5608V4.43078C51.1998 2.28792 49.4627 0.550781 47.3198 0.550781Z" fill="white"/>
<path d="M9.01023 14.5801H2.64023C2.43023 14.5801 2.24023 14.7601 2.24023 14.9801V15.7001C2.24023 15.9201 2.42023 16.1001 2.64023 16.1001H9.01023C9.23023 16.1001 9.41023 15.9201 9.41023 15.7001V14.9901C9.41023 14.7601 9.23023 14.5801 9.01023 14.5801Z" fill="#00C1F5"/>
<path d="M9.01023 18.5703H2.64023C2.54023 18.5703 2.43023 18.6103 2.36023 18.6903C2.28023 18.7703 2.24023 18.8603 2.24023 18.9803V19.7003C2.24023 19.9203 2.42023 20.1003 2.64023 20.1003H9.01023C9.23023 20.1003 9.41023 19.9303 9.41023 19.7003V18.9803C9.41023 18.7503 9.23023 18.5803 9.01023 18.5803V18.5703Z" fill="#00C1F5"/>
<path d="M6.23023 20.5688H2.64023C2.54023 20.5688 2.43023 20.6088 2.36023 20.6888C2.29023 20.7688 2.24023 20.8588 2.24023 20.9788V21.6988C2.24023 21.9188 2.42023 22.0988 2.64023 22.0988H6.22023C6.44023 22.0988 6.62023 21.9188 6.62023 21.6988V20.9788C6.62023 20.7388 6.45023 20.5588 6.23023 20.5688Z" fill="#00C1F5"/>
<path d="M9.41023 16.5703H2.64023C2.54023 16.5703 2.43023 16.6103 2.36023 16.6903C2.29023 16.7703 2.24023 16.8603 2.24023 16.9803V17.7003C2.24023 17.9203 2.42023 18.1003 2.64023 18.1003H9.40023C9.62023 18.1003 9.80023 17.9203 9.80023 17.7003V16.9803C9.80023 16.7603 9.63023 16.5803 9.41023 16.5803V16.5703Z" fill="#00C1F5"/>
<path d="M17.3 16.9191C17.18 16.6591 17.02 16.4091 16.82 16.1891C16.62 15.9791 16.39 15.8291 16.13 15.7091C15.87 15.5891 15.59 15.5391 15.31 15.5391C15.03 15.5391 14.76 15.5991 14.51 15.7091C14.34 15.7891 14.19 15.8991 14.07 16.0291V15.8991C14.07 15.8391 14.05 15.7691 14.01 15.7291C13.97 15.6791 13.91 15.6491 13.84 15.6491H12.96C12.9 15.6491 12.83 15.6691 12.79 15.7291C12.74 15.7791 12.72 15.8391 12.73 15.8991V21.8191C12.73 21.8791 12.75 21.9491 12.79 21.9891C12.84 22.0391 12.89 22.0591 12.96 22.0591H13.86C13.92 22.0591 13.98 22.0391 14.03 21.9891C14.08 21.9491 14.11 21.8891 14.1 21.8191V19.7891C14.23 19.9291 14.39 20.0391 14.58 20.0991C14.82 20.1891 15.06 20.2291 15.32 20.2291C15.61 20.2291 15.89 20.1691 16.15 20.0591C16.41 19.9491 16.65 19.7891 16.85 19.5791C17.06 19.3691 17.21 19.1091 17.33 18.8391C17.46 18.5291 17.51 18.1991 17.5 17.8691C17.5 17.5391 17.44 17.1991 17.33 16.8891L17.3 16.9191ZM16.01 18.3391C15.96 18.4691 15.89 18.5791 15.8 18.6791C15.62 18.8791 15.36 18.9891 15.09 18.9891C14.96 18.9891 14.82 18.9691 14.69 18.8991C14.57 18.8391 14.46 18.7691 14.37 18.6791C14.28 18.5891 14.2 18.4691 14.16 18.3391C14.06 18.0691 14.06 17.7791 14.16 17.5091C14.21 17.3791 14.29 17.2691 14.37 17.1791C14.47 17.0891 14.58 17.0091 14.69 16.9491C14.82 16.8891 14.95 16.8591 15.09 16.8591C15.23 16.8591 15.36 16.8791 15.49 16.9491C15.61 17.0091 15.72 17.0791 15.81 17.1691C15.91 17.2591 15.97 17.3791 16.02 17.4991C16.11 17.7791 16.11 18.0691 16.02 18.3391H16.01Z" fill="#011B33"/>
<path d="M22.4801 15.7588C22.4301 15.6988 22.3701 15.6688 22.3101 15.6688H21.4201C21.3601 15.6688 21.2901 15.6888 21.2501 15.7388C21.2001 15.7888 21.1801 15.8488 21.1801 15.9188V16.0288C21.0701 15.8988 20.9301 15.7888 20.7801 15.7188C20.5301 15.5988 20.2701 15.5488 20.0001 15.5488C19.4201 15.5488 18.8801 15.7788 18.4601 16.1788C18.2501 16.3888 18.0801 16.6488 17.9701 16.9188C17.8401 17.2288 17.7801 17.5588 17.7901 17.8988C17.7901 18.2288 17.8501 18.5688 17.9701 18.8788C18.0901 19.1588 18.2501 19.4088 18.4601 19.6188C18.8601 20.0288 19.4201 20.2588 19.9901 20.2588C20.2601 20.2588 20.5301 20.1988 20.7701 20.0888C20.9201 20.0088 21.0701 19.9088 21.1801 19.7788V19.8988C21.1801 19.9588 21.2001 20.0288 21.2501 20.0688C21.3001 20.1088 21.3501 20.1388 21.4201 20.1388H22.3101C22.3701 20.1388 22.4401 20.1188 22.4801 20.0688C22.5301 20.0188 22.5501 19.9588 22.5501 19.8988V15.9188C22.5501 15.8588 22.5301 15.7888 22.4901 15.7488L22.4801 15.7588ZM21.0901 18.3288C21.0401 18.4588 20.9701 18.5688 20.8801 18.6688C20.7901 18.7688 20.6801 18.8388 20.5601 18.8988C20.3101 19.0188 20.0101 19.0188 19.7601 18.8988C19.6401 18.8388 19.5301 18.7688 19.4401 18.6688C19.3501 18.5688 19.2701 18.4588 19.2301 18.3288C19.1301 18.0588 19.1301 17.7688 19.2301 17.4988C19.2801 17.3688 19.3501 17.2688 19.4401 17.1688C19.5401 17.0788 19.6401 16.9988 19.7601 16.9388C20.0101 16.8188 20.3101 16.8188 20.5501 16.9388C20.6701 16.9988 20.7801 17.0688 20.8701 17.1588C20.9601 17.2488 21.0301 17.3688 21.0801 17.4888C21.1901 17.7688 21.1901 18.0588 21.0801 18.3288H21.0901Z" fill="#011B33"/>
<path d="M31.2304 17.7986C31.1004 17.6886 30.9504 17.5886 30.7904 17.5286C30.6204 17.4586 30.4404 17.4086 30.2704 17.3686L29.5904 17.2386C29.4204 17.2086 29.2904 17.1586 29.2304 17.1086C29.1704 17.0686 29.1304 17.0086 29.1304 16.9386C29.1304 16.8686 29.1704 16.8086 29.2604 16.7486C29.3804 16.6886 29.5104 16.6486 29.6404 16.6586C29.8104 16.6586 29.9904 16.6986 30.1504 16.7586C30.3104 16.8286 30.4604 16.8986 30.6004 16.9986C30.8004 17.1286 30.9704 17.0986 31.0904 16.9586L31.4104 16.5886C31.4704 16.5286 31.5104 16.4486 31.5104 16.3586C31.5104 16.2586 31.4504 16.1886 31.3804 16.1186C31.2504 15.9986 31.0204 15.8686 30.7304 15.7486C30.4404 15.6286 30.0604 15.5586 29.6304 15.5586C29.3604 15.5586 29.1004 15.5886 28.8504 15.6686C28.6404 15.7386 28.4304 15.8386 28.2504 15.9786C28.0804 16.1086 27.9604 16.2686 27.8604 16.4586C27.7704 16.6386 27.7304 16.8386 27.7304 17.0386C27.7304 17.4086 27.8404 17.7086 28.0604 17.9286C28.2804 18.1486 28.5704 18.2986 28.9404 18.3686L29.6504 18.5286C29.8004 18.5486 29.9604 18.5986 30.1004 18.6686C30.1804 18.6986 30.2304 18.7786 30.2304 18.8686C30.2304 18.9486 30.1904 19.0186 30.1004 19.0786C30.0104 19.1386 29.8704 19.1786 29.6804 19.1786C29.4904 19.1786 29.2904 19.1386 29.1204 19.0486C28.9504 18.9686 28.8004 18.8686 28.6604 18.7486C28.6004 18.6986 28.5304 18.6586 28.4504 18.6286C28.3704 18.6086 28.2704 18.6286 28.1604 18.7186L27.7704 19.0086C27.6604 19.0886 27.6004 19.2186 27.6404 19.3486C27.6604 19.4786 27.7704 19.6086 27.9604 19.7586C28.4504 20.0886 29.0404 20.2686 29.6304 20.2486C29.9104 20.2486 30.1804 20.2186 30.4504 20.1386C30.6804 20.0686 30.8904 19.9686 31.0804 19.8186C31.2504 19.6886 31.4004 19.5286 31.4904 19.3286C31.5904 19.1386 31.6304 18.9286 31.6304 18.7186C31.6304 18.5286 31.6004 18.3386 31.5204 18.1686C31.4404 18.0386 31.3404 17.9086 31.2104 17.7986H31.2304Z" fill="#011B33"/>
<path d="M35.1403 18.8798C35.1003 18.8098 35.0303 18.7598 34.9403 18.7498C34.8603 18.7498 34.7703 18.7698 34.7103 18.8198C34.6003 18.8898 34.4703 18.9298 34.3503 18.9398C34.3103 18.9398 34.2603 18.9398 34.2203 18.9198C34.1703 18.9198 34.1303 18.8898 34.1003 18.8598C34.0603 18.8198 34.0303 18.7698 34.0003 18.7298C33.9703 18.6498 33.9503 18.5698 33.9603 18.4898V16.8698H35.1203C35.1903 16.8698 35.2503 16.8398 35.3003 16.7898C35.3503 16.7398 35.3803 16.6898 35.3803 16.6198V15.9298C35.3803 15.8598 35.3603 15.7998 35.3003 15.7598C35.2503 15.7098 35.1903 15.6898 35.1303 15.6898H33.9703V14.5798C33.9703 14.5198 33.9503 14.4498 33.9003 14.4098C33.8503 14.3698 33.8003 14.3498 33.7303 14.3398H32.8303C32.7703 14.3398 32.7003 14.3598 32.6603 14.4098C32.6203 14.4598 32.5803 14.5198 32.5803 14.5798V15.6898H32.0703C32.0103 15.6898 31.9403 15.7098 31.9003 15.7698C31.8603 15.8198 31.8403 15.8798 31.8403 15.9398V16.6298C31.8403 16.6898 31.8603 16.7598 31.9003 16.7998C31.9403 16.8598 32.0003 16.8798 32.0703 16.8798H32.5803V18.8098C32.5803 19.0398 32.6203 19.2698 32.7103 19.4798C32.8003 19.6498 32.9103 19.7998 33.0603 19.9298C33.2003 20.0498 33.3703 20.1398 33.5503 20.1798C33.7303 20.2398 33.9203 20.2698 34.1103 20.2698C34.3603 20.2698 34.6103 20.2298 34.8503 20.1498C35.0703 20.0798 35.2703 19.9498 35.4303 19.7898C35.5303 19.6898 35.5403 19.5198 35.4603 19.3998L35.1403 18.8898V18.8798Z" fill="#011B33"/>
<path d="M40.2004 15.7588C40.1604 15.6988 40.1003 15.6688 40.0303 15.6688H39.1403C39.0803 15.6688 39.0204 15.6888 38.9704 15.7388C38.9204 15.7888 38.9004 15.8488 38.9004 15.9188V16.0288C38.7904 15.8988 38.6504 15.7888 38.5004 15.7188C38.2504 15.5988 37.9904 15.5488 37.7204 15.5488C37.1404 15.5488 36.6004 15.7788 36.1804 16.1788C35.9704 16.3888 35.8003 16.6488 35.6903 16.9188C35.5603 17.2288 35.5003 17.5588 35.5103 17.8888C35.5103 18.2188 35.5703 18.5588 35.6903 18.8688C35.8003 19.1488 35.9804 19.3988 36.1804 19.6088C36.5804 20.0188 37.1303 20.2488 37.7103 20.2488C37.9803 20.2488 38.2504 20.1888 38.4904 20.0788C38.6504 19.9988 38.7904 19.8988 38.9004 19.7688V19.8888C38.9004 19.9488 38.9204 20.0188 38.9704 20.0588C39.0204 20.1088 39.0703 20.1288 39.1403 20.1288H40.0303C40.1603 20.1288 40.2704 20.0288 40.2704 19.8888V15.9088C40.2704 15.8488 40.2503 15.7788 40.2103 15.7388L40.2004 15.7588ZM38.8204 18.3288C38.7704 18.4588 38.7004 18.5688 38.6104 18.6688C38.5204 18.7688 38.4104 18.8388 38.2904 18.8988C38.1604 18.9588 38.0303 18.9888 37.8903 18.9888C37.7503 18.9888 37.6204 18.9588 37.4904 18.8988C37.3704 18.8388 37.2603 18.7688 37.1703 18.6688C37.0703 18.5688 37.0003 18.4588 36.9603 18.3288C36.8603 18.0588 36.8603 17.7688 36.9603 17.4988C37.0103 17.3688 37.0803 17.2588 37.1703 17.1688C37.2603 17.0788 37.3804 16.9988 37.4904 16.9388C37.6204 16.8788 37.7503 16.8488 37.8903 16.8488C38.0303 16.8488 38.1604 16.8688 38.2904 16.9388C38.4104 16.9988 38.5104 17.0688 38.6104 17.1588C38.7104 17.2488 38.7804 17.3688 38.8204 17.4888C38.9204 17.7588 38.9204 18.0588 38.8204 18.3288Z" fill="#011B33"/>
<path d="M44.9401 18.8203L44.4301 18.4203C44.3301 18.3403 44.2401 18.3203 44.1601 18.3503C44.0901 18.3803 44.0301 18.4303 43.9701 18.4803C43.8601 18.6103 43.7201 18.7303 43.5801 18.8403C43.4201 18.9303 43.2601 18.9703 43.0801 18.9603C42.8701 18.9603 42.6801 18.9003 42.5201 18.7903C42.3601 18.6803 42.2301 18.5103 42.1601 18.3103C42.1101 18.1803 42.0901 18.0403 42.0901 17.9103C42.0901 17.7703 42.1101 17.6303 42.1601 17.4903C42.2101 17.3603 42.2701 17.2503 42.3701 17.1603C42.4701 17.0703 42.5701 16.9903 42.6901 16.9403C42.8201 16.8803 42.9501 16.8503 43.0901 16.8503C43.2601 16.8503 43.4401 16.8903 43.5901 16.9803C43.7401 17.0803 43.8701 17.1903 43.9801 17.3403C44.0301 17.4003 44.0901 17.4403 44.1601 17.4703C44.2401 17.5003 44.3301 17.4703 44.4301 17.4003L44.9401 17.0103C45.0001 16.9703 45.0501 16.9103 45.0701 16.8403C45.1001 16.7603 45.0901 16.6703 45.0501 16.6003C44.8501 16.2903 44.5801 16.0403 44.2601 15.8603C43.9201 15.6703 43.5201 15.5703 43.0601 15.5703C42.7401 15.5703 42.4301 15.6303 42.1301 15.7503C41.8401 15.8703 41.5901 16.0403 41.3801 16.2503C41.1701 16.4603 40.9901 16.7203 40.8701 17.0003C40.6201 17.5903 40.6201 18.2603 40.8701 18.8503C40.9901 19.1303 41.1601 19.3903 41.3801 19.5903C41.8301 20.0303 42.4301 20.2703 43.0701 20.2703C43.5201 20.2703 43.9301 20.1703 44.2701 19.9803C44.5901 19.8003 44.8701 19.5403 45.0701 19.2303C45.1101 19.1603 45.1201 19.0703 45.0901 19.0003C45.0601 18.9403 45.0101 18.8703 44.9501 18.8303L44.9401 18.8203Z" fill="#011B33"/>
<path d="M49.7102 19.7495L48.2902 17.6795L49.5002 16.0795C49.5602 16.0095 49.5802 15.9095 49.5502 15.8195C49.5302 15.7595 49.4702 15.6895 49.3202 15.6895H48.3602C48.3002 15.6895 48.2502 15.7095 48.2002 15.7295C48.1402 15.7595 48.0902 15.8095 48.0602 15.8595L47.0902 17.2095H46.8602V14.0095C46.8602 13.9495 46.8402 13.8795 46.7902 13.8395C46.7402 13.7995 46.6902 13.7695 46.6202 13.7695H45.7302C45.6702 13.7695 45.6002 13.7895 45.5602 13.8395C45.5202 13.8895 45.4902 13.9395 45.4902 14.0095V19.9095C45.4902 19.9795 45.5102 20.0395 45.5602 20.0795C45.6102 20.1195 45.6702 20.1495 45.7302 20.1495H46.6202C46.6802 20.1495 46.7502 20.1295 46.7902 20.0795C46.8402 20.0295 46.8602 19.9695 46.8602 19.9095V18.3495H47.1102L48.1602 19.9695C48.2202 20.0895 48.3402 20.1595 48.4702 20.1595H49.4802C49.6302 20.1595 49.6902 20.0895 49.7302 20.0295C49.7702 19.9295 49.7602 19.8295 49.7102 19.7495Z" fill="#011B33"/>
<path d="M27.3904 15.6799H26.3804C26.3004 15.6799 26.2304 15.6999 26.1704 15.7599C26.1204 15.8099 26.0904 15.8599 26.0704 15.9299L25.3304 18.6899H25.1504L24.3604 15.9299C24.3404 15.8699 24.3204 15.8199 24.2804 15.7599C24.2304 15.6999 24.1704 15.6699 24.1004 15.6699H23.0804C22.9504 15.6699 22.8704 15.7099 22.8304 15.7999C22.8104 15.8799 22.8104 15.9699 22.8304 16.0499L24.1004 19.9299C24.1204 19.9899 24.1504 20.0499 24.2004 20.0899C24.2504 20.1399 24.3204 20.1599 24.3904 20.1599H24.9304L24.8804 20.2899L24.7604 20.6499C24.7204 20.7599 24.6604 20.8599 24.5604 20.9299C24.4704 20.9899 24.3704 21.0299 24.2604 21.0299C24.1604 21.0299 24.0804 21.0099 23.9904 20.9699C23.9004 20.9299 23.8204 20.8799 23.7504 20.8299C23.6904 20.7799 23.6104 20.7599 23.5204 20.7599C23.4204 20.7599 23.3404 20.8199 23.2904 20.8999L22.9704 21.3699C22.8404 21.5799 22.9104 21.6999 22.9904 21.7699C23.1604 21.9299 23.3604 22.0499 23.5804 22.1199C23.8304 22.2099 24.0804 22.2499 24.3304 22.2499C24.7904 22.2499 25.1704 22.1199 25.4604 21.8799C25.7604 21.6099 25.9904 21.2599 26.1004 20.8699L27.5704 16.0699C27.6004 15.9799 27.6104 15.8999 27.5704 15.8199C27.5704 15.7599 27.5104 15.6999 27.3704 15.6999L27.3904 15.6799Z" fill="#011B33"/>
</g>
<rect x="0.5" y="0.5" width="51" height="35" rx="3.5" stroke="#EAEAEA"/>
<defs>
<clipPath id="clip0_2280_3908">
<rect width="52" height="36" rx="4" fill="white"/>
</clipPath>
</defs>
</svg>
