<svg width="52" height="36" viewBox="0 0 52 36" fill="none" xmlns="http://www.w3.org/2000/svg">
<rect x="0.5" y="0.5" width="51" height="35" rx="3.5" fill="white"/>
<rect x="0.5" y="0.5" width="51" height="35" rx="3.5" stroke="#EAEAEA"/>
<path fill-rule="evenodd" clip-rule="evenodd" d="M35.29 25.2798C36.17 21.1898 37.04 17.1098 37.92 13.0098C37.94 13.0498 37.95 13.0698 37.96 13.0898C39.29 15.7198 40.63 18.3498 41.95 20.9898C42.28 21.6398 42.47 22.3398 42.44 23.0798C42.41 23.7598 42.11 24.2898 41.53 24.6598C41.12 24.9198 40.67 25.0598 40.2 25.1498C39.7 25.2498 39.19 25.2898 38.68 25.2798C37.58 25.2798 36.49 25.2798 35.39 25.2798H35.27H35.29Z" fill="#D11006"/>
<path fill-rule="evenodd" clip-rule="evenodd" d="M48.15 10.5098C47.27 14.5998 46.4 18.6798 45.52 22.7798C45.5 22.7398 45.49 22.7198 45.47 22.6998C44.14 20.0698 42.8 17.4398 41.48 14.7998C41.17 14.1898 40.98 13.5298 40.98 12.8298C40.98 12.0198 41.34 11.4298 42.04 11.0498C42.44 10.8298 42.86 10.7098 43.3 10.6298C43.79 10.5398 44.29 10.5098 44.79 10.5098C45.86 10.5098 46.94 10.5098 48.01 10.5098H48.13H48.15Z" fill="#D11006"/>
<path fill-rule="evenodd" clip-rule="evenodd" d="M27.79 18.54C27.1 19.59 26.41 20.63 25.73 21.67H28.56C28.31 20.63 28.05 19.6 27.8 18.54M31.34 24.87H29.29C29.26 24.72 29.23 24.57 29.2 24.42C29.11 23.98 29.02 23.54 28.93 23.1C28.93 23.05 28.9 23.04 28.85 23.04C27.55 23.04 26.25 23.04 24.96 23.04C24.93 23.04 24.89 23.07 24.87 23.1C24.49 23.67 24.11 24.23 23.73 24.8C23.7 24.85 23.67 24.86 23.61 24.86C23.09 24.86 22.58 24.86 22.06 24.86H21.98C21.98 24.86 22.02 24.79 22.04 24.77C23.97 21.94 25.91 19.11 27.84 16.29C28.01 16.05 28.17 15.8 28.34 15.56C28.37 15.52 28.4 15.5 28.45 15.5C28.65 15.5 28.85 15.5 29.06 15.5C29.82 18.62 30.58 21.74 31.35 24.86" fill="#D11006"/>
<path fill-rule="evenodd" clip-rule="evenodd" d="M16.8898 19.6403C16.8898 19.6403 16.9298 19.6403 16.9398 19.6403C17.3698 19.6403 17.7998 19.6403 18.2298 19.6403C18.2498 19.6403 18.2698 19.6403 18.2898 19.6303C18.6598 19.4703 19.0198 19.3103 19.3398 19.0603C19.6098 18.8503 19.8198 18.5903 19.9098 18.2503C19.9398 18.1303 19.9498 18.0103 19.9798 17.8903C20.0598 17.4903 19.9398 17.1603 19.6198 16.9503C19.3598 16.7703 19.0598 16.6903 18.7398 16.6903C18.3498 16.6903 17.9598 16.7103 17.5698 16.7203C17.4798 16.7203 17.4598 16.7503 17.4398 16.8303C17.3598 17.2603 17.2698 17.6903 17.1898 18.1203C17.0898 18.6203 16.9898 19.1303 16.8898 19.6403ZM15.9798 23.7403H16.0598C16.4898 23.7403 16.9198 23.7403 17.3598 23.7403C17.5998 23.7403 17.8298 23.7103 18.0598 23.6503C18.7198 23.4703 19.1898 23.0603 19.5398 22.5003C19.6298 22.3503 19.7098 22.2003 19.7198 22.0203C19.7198 21.9703 19.7298 21.9103 19.7298 21.8603C19.7498 21.4203 19.6398 21.0303 19.2798 20.7403C18.8898 20.4303 18.4298 20.3103 17.9498 20.2903C17.5498 20.2703 17.1598 20.3103 16.7598 20.3203C16.6998 20.3203 16.6798 20.3403 16.6698 20.3903C16.4398 21.4803 16.2098 22.5703 15.9698 23.6703C15.9698 23.6903 15.9698 23.7103 15.9698 23.7503M19.7298 19.8003C19.8698 19.8303 19.9898 19.8503 20.1098 19.8803C20.4298 19.9603 20.7398 20.0703 20.9998 20.2803C21.3798 20.5803 21.5798 20.9703 21.5698 21.4503C21.5598 22.9003 20.8298 23.8803 19.5098 24.4703C19.0098 24.7003 18.4698 24.8103 17.9198 24.8503C17.7198 24.8703 17.5098 24.8703 17.3098 24.8703C16.1898 24.8703 15.0598 24.8703 13.9398 24.8703H13.8198C13.8498 24.7403 13.8698 24.6203 13.8998 24.5003C14.1798 23.1803 14.4598 21.8603 14.7398 20.5403C15.0098 19.2503 15.2898 17.9603 15.5598 16.6703C15.6398 16.3003 15.7198 15.9403 15.7898 15.5703C15.7998 15.5203 15.8198 15.5103 15.8698 15.5103C17.2198 15.5103 18.5798 15.5003 19.9298 15.5103C20.4098 15.5103 20.8698 15.6603 21.2798 15.9403C21.6598 16.2103 21.8598 16.5803 21.9198 17.0303C21.9598 17.3203 21.9498 17.6103 21.8798 17.9003C21.8198 18.1603 21.6898 18.3903 21.5398 18.6103C21.2198 19.0603 20.7798 19.3503 20.2798 19.5703C20.0998 19.6503 19.9098 19.7103 19.7198 19.7903" fill="#D11006"/>
<path fill-rule="evenodd" clip-rule="evenodd" d="M5.22984 15.5H7.13984C7.12984 15.58 7.11984 15.65 7.09984 15.72C6.74984 17.52 6.38984 19.32 6.03984 21.13C5.94984 21.59 5.87984 22.06 5.89984 22.53C5.89984 22.79 5.93984 23.05 6.02984 23.3C6.21984 23.83 6.58984 24.13 7.11984 24.19C8.14984 24.32 9.21984 23.88 9.78984 22.74C10.0198 22.28 10.1598 21.8 10.2598 21.29C10.5398 19.9 10.8298 18.52 11.1098 17.14C11.2198 16.6 11.3298 16.07 11.4398 15.53C11.4398 15.53 11.4398 15.51 11.4398 15.5H13.1998C13.1798 15.62 13.1498 15.74 13.1298 15.86C12.6698 18.03 12.2098 20.2 11.7598 22.37C11.7598 22.42 11.7298 22.46 11.7098 22.5C11.4398 23.13 11.0998 23.7 10.6198 24.18C9.96984 24.83 9.17984 25.21 8.29984 25.38C7.65984 25.5 7.01984 25.52 6.37984 25.46C5.99984 25.42 5.61984 25.34 5.25984 25.19C4.50984 24.87 4.06984 24.29 3.91984 23.48C3.83984 23.04 3.80984 22.6 3.88984 22.17C4.09984 21.05 4.32984 19.94 4.55984 18.82C4.76984 17.75 4.98984 16.68 5.19984 15.61C5.19984 15.58 5.20984 15.54 5.21984 15.5" fill="#D11006"/>
</svg>
