<svg width="52" height="36" viewBox="0 0 52 36" fill="none" xmlns="http://www.w3.org/2000/svg">
<rect x="0.5" y="0.5" width="51" height="35" rx="3.5" fill="white"/>
<rect x="0.5" y="0.5" width="51" height="35" rx="3.5" stroke="#EAEAEA"/>
<path d="M1.97998 20.9609V20.1609H2.64998V16.2609H1.97998V15.4609H4.61998C5.81998 15.4609 6.56998 15.9909 6.56998 16.9509C6.56998 17.5609 6.19998 17.9409 5.71998 18.1209C6.40998 18.3109 6.88998 18.7609 6.88998 19.4009C6.88998 20.4109 6.08998 20.9709 4.74998 20.9709H1.97998V20.9409V20.9609ZM3.54998 16.2609V17.7509H4.53998C5.28998 17.7509 5.65998 17.4809 5.65998 17.0009C5.65998 16.4909 5.25998 16.2509 4.50998 16.2509H3.54998V16.2609ZM3.54998 20.1609H4.66998C5.54998 20.1609 5.97998 19.8909 5.97998 19.3609C5.97998 18.8309 5.52998 18.5609 4.61998 18.5609H3.54998V20.1609Z" fill="#3E3C42"/>
<path d="M11.6897 18.111C11.5797 17.791 11.3397 17.601 11.0197 17.601C10.2697 17.601 9.54975 18.131 9.54975 19.121V20.161H11.0197V20.961H7.73975V20.161H8.66975V17.731H7.94975V16.931H9.54975V17.621C9.81975 17.141 10.3497 16.791 11.0697 16.791C11.8697 16.791 12.3797 17.241 12.5397 17.881L11.6897 18.091" fill="#3E3C42"/>
<path d="M16.1298 18.611V18.371C16.1298 17.811 15.6498 17.571 15.1398 17.571C14.6598 17.571 14.2298 17.761 13.9098 18.051L13.3498 17.461C13.7498 17.111 14.3098 16.791 15.1598 16.791C16.2298 16.791 17.0298 17.321 17.0298 18.361V20.151H17.6398V20.951H16.1198V20.521C15.8798 20.871 15.2898 21.081 14.6798 21.081C13.7998 21.081 13.0498 20.651 13.0498 19.801C13.0498 18.811 14.0598 18.411 14.9998 18.411C15.4498 18.441 15.8298 18.521 16.1198 18.601M16.1198 19.321C15.8498 19.211 15.4298 19.161 15.0498 19.161C14.4898 19.161 13.9598 19.321 13.9598 19.831C13.9598 20.201 14.3098 20.361 14.7598 20.361C15.3998 20.361 16.1198 20.041 16.1198 19.451V19.321Z" fill="#3E3C42"/>
<path d="M22.9002 20.1609V20.9609H18.6602V20.1609H20.4202V17.7309H19.0902V16.9309H21.3102V20.1609H22.9102H22.9002ZM20.3102 14.8809H21.3002V16.1109H20.3102V14.8809Z" fill="#3E3C42"/>
<path d="M23.9399 20.161H24.5799V17.731H23.9699V16.931H25.4399V17.461C25.7099 17.061 26.2399 16.791 26.8799 16.791C27.8099 16.791 28.4799 17.351 28.4799 18.281V20.151H29.1199V20.951H26.9299V20.151H27.5999V18.501C27.5999 17.811 27.1499 17.591 26.7499 17.591C26.0799 17.591 25.4199 18.071 25.4199 18.791V20.151H26.0899V20.951H23.8999V20.151" fill="#3E3C42"/>
<path d="M30.32 17.7309H29.23V16.9309H30.32V15.4609H31.2V16.9309H33.26V17.7309H31.2V19.4409C31.2 20.0809 31.65 20.3209 32.19 20.3209C32.67 20.3209 33.1 20.0509 33.39 19.7609L33.98 20.3509C33.61 20.7509 32.99 21.1209 32.19 21.1209C31.12 21.1209 30.35 20.5609 30.35 19.4709V17.7409" fill="#3E3C42"/>
<path d="M38.7 18.111C38.59 17.791 38.35 17.601 38.03 17.601C37.28 17.601 36.56 18.131 36.56 19.121V20.161H38.03V20.961H34.77V20.161H35.7V17.731H34.98V16.931H36.58V17.621C36.85 17.141 37.38 16.791 38.1 16.791C38.9 16.791 39.41 17.241 39.57 17.881L38.69 18.091" fill="#3E3C42"/>
<path d="M44.5498 20.3512C44.1198 20.7812 43.3498 21.1012 42.4898 21.1012C41.0798 21.1012 40.0898 20.1912 40.0898 18.9412C40.0898 17.6912 41.0498 16.7812 42.3898 16.7812C43.7298 16.7812 44.6298 17.7712 44.6298 19.1012V19.2312H40.9998C41.1598 19.9012 41.7198 20.3212 42.4898 20.3212C43.1298 20.3212 43.6598 20.0812 43.9598 19.7612L44.5498 20.3512ZM41.0498 18.5413H43.6398C43.5098 17.9513 42.9698 17.5812 42.3898 17.5812C41.6998 17.5512 41.1898 17.9513 41.0598 18.5413H41.0498Z" fill="#3E3C42"/>
<path d="M49.94 20.3512C49.51 20.7812 48.74 21.1012 47.88 21.1012C46.47 21.1012 45.48 20.1912 45.48 18.9412C45.48 17.6912 46.44 16.7812 47.78 16.7812C49.12 16.7812 50.02 17.7712 50.02 19.1012V19.2312H46.39C46.55 19.9012 47.11 20.3212 47.88 20.3212C48.52 20.3212 49.05 20.0812 49.35 19.7612L49.94 20.3512ZM46.44 18.5413H49.03C48.9 17.9513 48.36 17.5812 47.78 17.5812C47.11 17.5512 46.58 17.9513 46.45 18.5413H46.44Z" fill="#3E3C42"/>
</svg>
