<svg width="52" height="36" viewBox="0 0 52 36" fill="none" xmlns="http://www.w3.org/2000/svg">
<rect x="0.5" y="0.5" width="51" height="35" rx="3.5" fill="white"/>
<rect x="0.5" y="0.5" width="51" height="35" rx="3.5" stroke="#EAEAEA"/>
<mask id="mask0_2280_2647" style="mask-type:luminance" maskUnits="userSpaceOnUse" x="6" y="2" width="40" height="32">
<path d="M45.4298 2.88086H6.56982V33.1209H45.4298V2.88086Z" fill="white"/>
</mask>
<g mask="url(#mask0_2280_2647)">
<path fill-rule="evenodd" clip-rule="evenodd" d="M45.0598 22.3313V21.8613H44.9398L44.7998 22.1813L44.6598 21.8613H44.5398V22.3313H44.6198V21.9813L44.7498 22.2813H44.8398L44.9698 21.9813V22.3313H45.0598ZM44.2898 22.3313V21.9413H44.4498V21.8613H44.0498V21.9413H44.2098V22.3313H44.2898Z" fill="#2592CF"/>
<path fill-rule="evenodd" clip-rule="evenodd" d="M20.7495 5.45117H31.2595V24.3312H20.7495V5.45117Z" fill="#3970B1"/>
<path fill-rule="evenodd" clip-rule="evenodd" d="M21.4196 14.8909C21.4196 11.0609 23.2096 7.64086 26.0096 5.45086C23.8996 3.78086 21.2796 2.88086 18.5896 2.88086C11.9596 2.88086 6.57959 8.26086 6.57959 14.8909C6.57959 21.5209 11.9596 26.9009 18.5896 26.9009C21.2796 26.9009 23.8996 26.0009 26.0096 24.3309C23.2196 22.1309 21.4196 18.7209 21.4196 14.8909Z" fill="#1F60A7"/>
<path fill-rule="evenodd" clip-rule="evenodd" d="M45.4398 14.8909C45.4398 21.5209 40.0598 26.9009 33.4298 26.9009C30.7398 26.9009 28.1198 26.0009 26.0098 24.3309C28.7998 22.1309 30.5998 18.7209 30.5998 14.8909C30.5998 11.0609 28.8098 7.65086 26.0098 5.45086C28.1198 3.78086 30.7398 2.88086 33.4298 2.88086C40.0598 2.88086 45.4398 8.26086 45.4398 14.9009" fill="#2592CF"/>
<path fill-rule="evenodd" clip-rule="evenodd" d="M35.0196 32.7005V32.7805H35.0896C35.0896 32.7805 35.1196 32.7805 35.1296 32.7705C35.1396 32.7705 35.1496 32.7505 35.1496 32.7405C35.1496 32.7305 35.1496 32.7205 35.1296 32.7105C35.1196 32.7105 35.0996 32.7005 35.0896 32.7005H35.0196ZM35.0896 32.6405C35.0896 32.6405 35.1496 32.6405 35.1796 32.6705C35.1996 32.6905 35.2096 32.7105 35.2096 32.7405C35.2096 32.7605 35.1996 32.7905 35.1796 32.8005C35.1596 32.8205 35.1396 32.8305 35.1096 32.8305L35.2096 32.9405H35.1296L35.0396 32.8305H35.0096V32.9405H34.9496V32.6505H35.0896V32.6405ZM35.0696 33.0405C35.0696 33.0405 35.1296 33.0405 35.1596 33.0205C35.2196 32.9905 35.2596 32.9505 35.2896 32.8905C35.3296 32.8005 35.3096 32.6905 35.2396 32.6205C35.2196 32.6005 35.1896 32.5805 35.1596 32.5705C35.1296 32.5605 35.0996 32.5505 35.0696 32.5505C35.0396 32.5505 34.9996 32.5505 34.9696 32.5705C34.8396 32.6205 34.7896 32.7705 34.8396 32.9005C34.8496 32.9305 34.8696 32.9605 34.8896 32.9805C34.9096 33.0005 34.9396 33.0205 34.9696 33.0305C34.9996 33.0405 35.0396 33.0505 35.0696 33.0505M35.0696 32.4805C35.1496 32.4805 35.2396 32.5105 35.2996 32.5705C35.3296 32.6005 35.3496 32.6305 35.3696 32.6705C35.3996 32.7505 35.3996 32.8405 35.3696 32.9205C35.3496 32.9605 35.3296 32.9905 35.2996 33.0205C35.2696 33.0505 35.2396 33.0705 35.1996 33.0905C35.1596 33.1105 35.1196 33.1205 35.0696 33.1205C34.9896 33.1205 34.8996 33.0905 34.8396 33.0305C34.8096 33.0005 34.7896 32.9705 34.7696 32.9305C34.7396 32.8505 34.7396 32.7605 34.7696 32.6805C34.7896 32.6405 34.8096 32.6105 34.8396 32.5805C34.8696 32.5505 34.8996 32.5305 34.9396 32.5105C34.9796 32.4905 35.0196 32.4805 35.0696 32.4805Z" fill="#242021"/>
<path fill-rule="evenodd" clip-rule="evenodd" d="M34.1595 29.9999C33.8195 29.7799 33.3695 29.6599 32.8595 29.6599C32.0495 29.6599 31.5295 30.0499 31.5295 30.6799C31.5295 31.1999 31.9195 31.5199 32.6295 31.6199L32.9595 31.6699C33.3395 31.7199 33.5195 31.8199 33.5195 31.9999C33.5195 32.2499 33.2695 32.3899 32.7895 32.3899C32.3095 32.3899 31.9595 32.2399 31.7295 32.0499L31.3995 32.5899C31.7795 32.8699 32.2595 32.9999 32.7795 32.9999C33.6995 32.9999 34.2295 32.5599 34.2295 31.9599C34.2295 31.3999 33.8095 31.0999 33.1195 31.0099L32.7895 30.9599C32.4895 30.9199 32.2495 30.8599 32.2495 30.6499C32.2495 30.4199 32.4795 30.2799 32.8595 30.2799C33.2695 30.2799 33.6595 30.4299 33.8595 30.5499L34.1495 29.9899L34.1595 29.9999ZM17.7695 31.3399C17.7695 32.3099 18.4395 33.0099 19.4695 33.0099C19.9495 33.0099 20.2695 32.9099 20.6195 32.6299L20.2795 32.0699C20.0195 32.2599 19.7395 32.3599 19.4495 32.3599C18.8895 32.3599 18.4895 31.9499 18.4895 31.3399C18.4895 30.7299 18.8895 30.3299 19.4495 30.3199C19.7495 30.3199 20.0195 30.4199 20.2795 30.6099L20.6195 30.0499C20.2695 29.7799 19.9495 29.6699 19.4695 29.6699C18.4395 29.6699 17.7695 30.3799 17.7695 31.3399ZM24.4595 29.6699C24.0595 29.6699 23.7995 29.8599 23.6195 30.1399V29.7499H22.9295V32.9399H23.6195V31.1499C23.6195 30.6299 23.8495 30.3299 24.2995 30.3299C24.4495 30.3299 24.5895 30.3599 24.7395 30.4099L24.9595 29.7499C24.7995 29.6899 24.5995 29.6699 24.4595 29.6699ZM27.0395 29.6699C26.6395 29.6699 26.3795 29.8599 26.1995 30.1399V29.7499H25.5095V32.9399H26.1995V31.1499C26.1995 30.6299 26.4295 30.3299 26.8795 30.3299C27.0295 30.3299 27.1695 30.3599 27.3195 30.4099L27.5395 29.7499C27.3795 29.6899 27.1795 29.6699 27.0395 29.6699ZM22.1795 32.9399H21.4795V29.7599H22.1795V32.9399ZM21.8295 28.1699C21.9595 28.1699 22.0895 28.2199 22.1795 28.3099C22.2195 28.3599 22.2595 28.4099 22.2795 28.4699C22.3295 28.5999 22.3295 28.7299 22.2795 28.8599C22.2495 28.9199 22.2195 28.9699 22.1795 29.0199C22.1295 29.0599 22.0795 29.0999 22.0195 29.1199C21.9595 29.1499 21.8895 29.1599 21.8295 29.1599C21.7695 29.1599 21.6995 29.1499 21.6395 29.1199C21.5795 29.0999 21.5295 29.0599 21.4795 29.0199C21.4395 28.9699 21.3995 28.9199 21.3795 28.8599C21.3495 28.7999 21.3395 28.7299 21.3395 28.6699C21.3395 28.6099 21.3495 28.5399 21.3795 28.4799C21.3995 28.4199 21.4395 28.3699 21.4795 28.3199C21.5195 28.2699 21.5795 28.2399 21.6395 28.2199C21.6995 28.1899 21.7695 28.1799 21.8295 28.1799M30.9795 31.6099C30.9795 31.8599 30.9395 32.0799 30.8495 32.2599C30.7795 32.4299 30.6595 32.5899 30.5195 32.7099C30.3795 32.8299 30.2295 32.9099 30.0495 32.9599C29.6995 33.0699 29.3295 33.0699 28.9695 32.9599C28.7995 32.9099 28.6395 32.8199 28.4995 32.7099C28.3595 32.5899 28.2495 32.4399 28.1695 32.2599C28.0895 32.0799 28.0495 31.8599 28.0495 31.6099V29.7699H28.7395V31.5399C28.7395 31.6899 28.7595 31.8199 28.7995 31.9299C28.8295 32.0299 28.8895 32.1199 28.9595 32.1899C29.0295 32.2599 29.1095 32.3099 29.2095 32.3399C29.4095 32.3999 29.6195 32.3999 29.8095 32.3399C29.8995 32.3099 29.9795 32.2599 30.0595 32.1899C30.1295 32.1199 30.1895 32.0299 30.2195 31.9299C30.2595 31.8199 30.2795 31.6899 30.2795 31.5399V29.7699H30.9695V31.6099H30.9795Z" fill="#242021"/>
</g>
</svg>
