<svg width="52" height="36" viewBox="0 0 52 36" fill="none" xmlns="http://www.w3.org/2000/svg">
<rect x="0.5" y="0.5" width="51" height="35" rx="3.5" fill="white"/>
<rect x="0.5" y="0.5" width="51" height="35" rx="3.5" stroke="#EAEAEA"/>
<path fill-rule="evenodd" clip-rule="evenodd" d="M1.66014 14.3895C2.07014 14.3195 2.47014 14.1195 2.88014 13.9795C3.01014 13.9095 3.01014 13.7695 3.01014 13.7095C3.01014 13.2995 3.01014 12.8995 3.08014 12.4895C3.29014 11.3995 4.03014 10.7995 5.39014 10.6495C6.01014 10.5795 6.68014 10.7195 7.29014 10.8595C7.42014 10.9295 7.56014 10.9295 7.42014 11.1295C7.29014 11.3995 7.21014 11.6695 7.08014 12.0095C7.01014 12.2195 6.95014 12.2195 6.74014 12.1395C6.53014 12.0595 6.27014 12.0095 5.99014 12.0095C5.24014 12.0095 4.97014 12.2195 4.77014 12.9595C4.56014 13.8395 4.64014 13.9095 5.52014 13.9095H5.65014C6.42347 13.9095 6.76347 14.2961 6.67014 15.0695C6.67014 15.2795 6.60014 15.2795 6.46014 15.2795H5.12014C4.85014 15.2795 4.71014 15.3495 4.71014 15.6895V21.5995C4.71014 21.8695 4.64014 22.0095 4.37014 21.9395H3.28014C3.07014 21.8695 3.01014 21.7295 3.01014 21.5295V15.5595C3.01014 15.2895 2.94014 15.1495 2.67014 15.2195H1.64014V14.3895H1.66014ZM50.2401 21.7995H48.8101C48.6001 21.7995 48.5401 21.7295 48.5401 21.5295V17.0295C48.5401 16.8195 48.5401 16.6195 48.4701 16.4095C48.3401 15.5995 47.9301 15.1895 47.1201 15.1195C46.0301 15.0495 45.2201 15.5895 45.0201 16.6795C44.9501 17.0895 44.9501 17.4895 44.9501 17.9695V21.4395C44.9501 21.7095 44.8801 21.7795 44.6101 21.7795H43.5201C43.3101 21.7795 43.2501 21.7095 43.2501 21.5095V14.1095C43.2501 13.8995 43.3201 13.8395 43.5201 13.8395C43.8601 13.8395 44.3301 13.7095 44.5401 13.9095C44.7501 14.1095 44.7501 14.5295 44.8801 14.9295C45.3501 14.3095 45.9701 13.9795 46.6501 13.7695C47.3301 13.6395 48.0801 13.6395 48.7501 13.8995C49.6301 14.1695 50.1001 14.8495 50.2501 15.7395C50.2501 15.8095 50.1801 15.9495 50.3201 15.9495V16.1595C50.1901 16.2895 50.2501 16.4295 50.2501 16.5695V21.7895L50.2401 21.7995Z" fill="#444444"/>
<path fill-rule="evenodd" clip-rule="evenodd" d="M50.2699 21.8004V16.5604C50.2699 16.4304 50.1999 16.2904 50.3399 16.1504L50.2699 21.8004Z" fill="#646262"/>
<path fill-rule="evenodd" clip-rule="evenodd" d="M34.48 25.2988V25.3688H32.79V25.2988H34.48Z" fill="#888484"/>
<path fill-rule="evenodd" clip-rule="evenodd" d="M34.55 17.8788C34.55 18.1488 34.62 18.5588 34.62 18.8988C34.62 19.1088 34.69 19.2388 34.75 19.4388C34.96 20.1188 35.43 20.5288 36.25 20.5288C37.13 20.5988 37.6 20.3188 38.02 19.5788C38.29 19.0388 38.36 18.4188 38.36 17.8888C38.36 17.2688 38.29 16.5988 38.02 16.0488C37.68 15.4288 37.07 15.0988 36.33 15.1688C35.58 15.2388 35.04 15.5088 34.77 16.3288C34.55 16.7988 34.55 17.2688 34.55 17.8888M34.48 25.2888H32.79V14.2088C32.79 13.9388 32.86 13.8688 33.13 13.8688C33.47 13.9388 33.94 13.7388 34.15 13.9388C34.36 14.1388 34.36 14.5588 34.42 14.8888C34.55 14.8188 34.63 14.6788 34.69 14.6188C35.78 13.3288 38.7 13.2688 39.65 15.5688C40.19 17.0688 40.19 18.6288 39.65 20.1188C38.7 22.4988 35.71 22.3588 34.62 20.9988L34.41 20.7888C34.56 22.3488 34.49 23.8388 34.49 25.2688" fill="#444444"/>
<path fill-rule="evenodd" clip-rule="evenodd" d="M27.5403 17.6703C27.6103 17.8803 27.4703 18.1403 27.8103 18.0103C28.6903 17.8003 29.3703 17.2603 29.7103 16.4503C29.8403 16.1103 29.7803 15.7703 29.5003 15.5703C29.2903 15.3603 29.0303 15.5003 28.7503 15.5703C28.5403 15.6403 28.3403 15.7803 28.2103 15.9803C27.8103 16.5203 27.6103 17.1303 27.5403 17.6703ZM32.7803 18.0803V20.1803C31.9703 20.7203 31.2203 21.3403 30.2703 21.6803C29.5903 21.8903 28.9803 22.0903 28.2303 21.9503C26.7303 21.7403 25.7203 20.7303 25.5803 19.2303C25.4503 17.6003 25.8503 16.1103 26.9303 14.8203C27.6103 14.0103 28.4903 13.6603 29.5803 13.8703C30.8703 14.0803 31.6203 15.3703 31.1403 16.5903C30.6003 17.9403 29.5103 18.7703 28.1503 19.2403C27.7403 19.3703 27.6803 19.4503 28.0203 19.7803C28.2303 20.1203 28.5603 20.1903 28.9003 20.1203C30.0603 19.9903 31.0003 19.4403 31.9603 18.7703C32.2403 18.5603 32.5003 18.3603 32.7803 18.0903" fill="#BA2731"/>
<path fill-rule="evenodd" clip-rule="evenodd" d="M25.5703 21.8202H23.8003C23.5903 21.8202 23.5302 21.6902 23.4602 21.6102C22.8403 20.7302 22.3003 19.8402 21.6903 18.8902C21.1503 19.7702 20.5303 20.5802 20.0003 21.4002C19.7903 21.6702 19.5903 21.8102 19.2503 21.8102C18.7803 21.7402 18.3003 21.8102 17.7503 21.8102C18.0903 21.2702 18.4303 20.8602 18.7703 20.3802C19.3103 19.5702 19.7903 18.8202 20.3303 18.0702C20.5403 17.8002 20.4603 17.6602 20.3303 17.4502C19.5203 16.2902 18.7003 15.1402 17.8203 13.9202H19.7203C19.8503 13.9202 19.8503 14.0502 19.9303 14.1302C20.4003 14.8802 20.9503 15.6302 21.4303 16.4402C21.5003 16.5102 21.5603 16.5702 21.6403 16.7102C22.1803 15.9002 22.8003 15.0202 23.2703 14.2002C23.4003 13.9902 23.5403 13.9302 23.7403 13.9302H25.3003C25.3702 14.0602 25.2303 14.2002 25.1703 14.2702C24.4203 15.3602 23.6103 16.5102 22.8603 17.6002C22.7303 17.8102 22.7303 17.8702 22.8603 18.0702L25.3003 21.5402C25.3702 21.5402 25.4403 21.6802 25.5803 21.8202M14.1703 17.0002H15.7303C15.8003 17.0002 15.9403 17.0702 15.9403 16.8702C16.0103 16.1202 15.4703 15.3102 14.7203 15.1802C13.5603 14.8402 12.4803 15.5902 12.3403 16.8102C12.3403 17.0202 12.3403 17.0802 12.5503 17.0802C13.0903 17.0102 13.6403 17.0102 14.1803 17.0102M17.3103 20.0702V21.2902C17.3103 21.4202 17.2403 21.5002 17.1003 21.5002C15.6703 22.0402 14.1703 22.1802 12.6903 21.6302C11.5303 21.1602 10.8503 20.2002 10.6503 18.9802C10.4403 17.6902 10.5203 16.4702 11.2703 15.3202C11.9503 14.1602 13.1103 13.7602 14.3903 13.8202C15.6103 13.8202 16.5703 14.2902 17.2403 15.3202C17.6503 16.0002 17.7102 16.6702 17.7102 17.4202C17.7102 18.0069 17.4169 18.3002 16.8303 18.3002H12.6803C12.4103 18.3002 12.3403 18.3702 12.4103 18.6402C12.6803 20.2002 13.6303 20.8802 15.2603 20.6802C15.8803 20.6102 16.4803 20.4702 17.0303 20.2102C17.1003 20.1302 17.1603 20.0702 17.3103 20.0702Z" fill="#454545"/>
<path fill-rule="evenodd" clip-rule="evenodd" d="M42.5602 17.7999V21.4599C42.5602 21.6699 42.4902 21.7299 42.2902 21.7299H41.1302C41.0002 21.7299 40.8602 21.7299 40.8602 21.5199V14.0499C40.8602 13.8399 40.9302 13.8399 41.1302 13.8399H42.2902C42.5602 13.8399 42.5602 13.9099 42.5602 14.1099V17.7999ZM9.95018 16.2399V21.4799C9.95018 21.7499 9.88018 21.8199 9.61018 21.8199H8.59018C8.25018 21.8199 8.18018 21.7499 8.18018 21.4799V11.0099C8.18018 10.7399 8.25018 10.6699 8.52018 10.6699H9.61018C9.88018 10.6699 9.95018 10.7399 9.95018 11.0099C9.88018 12.7899 9.95018 14.4799 9.95018 16.2499" fill="#444444"/>
<path fill-rule="evenodd" clip-rule="evenodd" d="M41.7402 12.7089C41.1202 12.7089 40.7902 12.3689 40.7202 11.8289C40.7202 11.2089 41.0602 10.8789 41.6702 10.8789C42.2802 10.8789 42.6202 11.2189 42.6202 11.8289C42.6802 12.3689 42.3402 12.7089 41.7302 12.7089H41.7402Z" fill="#454545"/>
</svg>
