<svg width="52" height="36" viewBox="0 0 52 36" fill="none" xmlns="http://www.w3.org/2000/svg">
<rect x="0.5" y="0.5" width="51" height="35" rx="3.5" fill="white"/>
<rect x="0.5" y="0.5" width="51" height="35" rx="3.5" stroke="#EAEAEA"/>
<path fill-rule="evenodd" clip-rule="evenodd" d="M41.8499 31.2104C41.8499 32.6704 40.6699 33.8504 39.2099 33.8504H12.7899C11.3299 33.8504 10.1499 32.6704 10.1499 31.2104V4.79039C10.1499 3.33039 11.3299 2.15039 12.7899 2.15039H39.2099C40.6699 2.15039 41.8499 3.33039 41.8499 4.79039V31.2104Z" fill="#EDAA00"/>
<path d="M27.8498 18.3402V12.6602L29.3298 12.3102V13.0502C29.3298 13.0502 29.7098 12.0702 30.5998 11.8402C30.8698 11.7702 31.0098 11.8102 31.0098 11.8102V13.2602C31.0098 13.2602 30.6698 13.2502 30.2298 13.4202C29.6798 13.6402 29.4098 14.1102 29.4098 14.8302V17.9602L27.8398 18.3302L27.8498 18.3402Z" fill="#1D1D1B"/>
<path d="M20.04 20.1899C20.04 20.1899 19.8 19.8299 19.8 18.5499V15.7199L19.04 15.8999V14.7399L19.8 14.5599V13.2899L21.38 12.9199V14.1899L22.49 13.9299V15.0899L21.38 15.3499C21.38 15.3499 21.38 17.6699 21.38 18.2299C21.38 19.5399 21.73 19.7899 21.73 19.7899L20.05 20.1899H20.04Z" fill="#1D1D1B"/>
<path d="M22.6499 16.8094C22.6499 15.7994 22.7899 15.0594 23.0999 14.4994C23.4699 13.8294 24.0699 13.3894 24.9499 13.1894C26.6799 12.7994 27.2999 13.8194 27.2799 15.1894C27.2799 15.6794 27.2799 15.9194 27.2799 15.9194L24.2299 16.6394V16.6894C24.2299 17.6494 24.4299 18.0994 25.0399 17.9694C25.5599 17.8594 25.7099 17.5294 25.7499 17.1194C25.7499 17.0494 25.7499 16.8894 25.7499 16.8894L27.1799 16.5494C27.1799 16.5494 27.1799 16.6694 27.1799 16.7994C27.1699 17.3494 27.0099 18.6994 25.0299 19.1694C23.1499 19.6194 22.6499 18.4694 22.6499 16.8094ZM25.0099 14.2494C24.5099 14.3594 24.2399 14.8594 24.2299 15.6794L25.7599 15.3194C25.7599 15.3194 25.7599 15.1994 25.7599 15.0694C25.7599 14.4494 25.5699 14.1294 25.0099 14.2494Z" fill="#1D1D1B"/>
<path d="M36.3498 13.4913C36.2898 11.7613 36.7398 10.3913 38.6698 9.95134C39.8998 9.67134 40.3698 9.99134 40.5998 10.3013C40.8298 10.6013 40.9198 10.9913 40.9198 11.5513V11.6513L39.4098 12.0113C39.4098 12.0113 39.4098 11.8113 39.4098 11.8013C39.4098 11.1413 39.2298 10.8913 38.7498 11.0113C38.1798 11.1513 37.9498 11.6913 37.9498 12.7713C37.9498 13.1513 37.9498 13.2213 37.9498 13.2713C37.9498 14.3613 38.0998 14.8713 38.7598 14.7313C39.3298 14.6113 39.4098 14.1113 39.4198 13.6713C39.4198 13.6013 39.4198 13.3813 39.4198 13.3813L40.9298 13.0213C40.9298 13.0213 40.9298 13.1313 40.9298 13.2513C40.9298 14.6813 40.1698 15.5913 38.7498 15.9213C36.7998 16.3813 36.4198 15.2513 36.3598 13.4813" fill="#1D1D1B"/>
<path d="M31.1299 15.9096C31.1299 14.5996 31.8999 14.1796 33.0599 13.6996C34.0999 13.2696 34.1199 13.0496 34.1299 12.6796C34.1299 12.3696 33.9899 12.0896 33.4699 12.2296C32.9899 12.3496 32.8699 12.6996 32.8399 12.9696C32.8299 13.1196 32.8399 13.2596 32.8399 13.2596L31.3799 13.6096C31.3799 13.6096 31.3599 13.1596 31.4799 12.7496C31.7099 11.9596 32.4099 11.4296 33.5999 11.1596C35.1499 10.7996 35.6699 11.4796 35.6799 12.5496V15.0596C35.6799 16.2796 35.9099 16.4496 35.9099 16.4496L34.4699 16.7896C34.4699 16.7896 34.3399 16.5096 34.2799 16.2696C34.2799 16.2696 33.9699 17.0596 32.8799 17.3196C31.7399 17.5896 31.1399 16.8796 31.1399 15.9196M34.1299 14.1196C34.1299 14.1196 33.8299 14.3396 33.3699 14.5696C32.8899 14.7996 32.6699 15.0896 32.6699 15.5396C32.6699 15.9196 32.9099 16.1796 33.3399 16.0696C33.7999 15.9496 34.1299 15.5196 34.1299 14.9196V14.1296V14.1196Z" fill="#1D1D1B"/>
<path d="M11.8001 24.1705C11.3001 24.1705 10.8901 23.7605 10.8901 23.2605C10.8901 23.0805 10.9401 22.9105 11.0401 22.7605L11.0601 22.7405L13.2001 22.2305V23.8605H13.1701C12.6801 23.9805 12.1001 24.1205 11.9801 24.1405C11.9201 24.1505 11.8601 24.1605 11.7901 24.1605" fill="#1D1D1B"/>
<path d="M11.8001 26.2503C11.3001 26.2503 10.8901 25.8403 10.8901 25.3403C10.8901 25.1603 10.9401 24.9903 11.0401 24.8503V24.8303H11.0701L13.2101 24.3203V25.9503H13.1801C12.6901 26.0803 12.1101 26.2103 11.9901 26.2303C11.9301 26.2403 11.8701 26.2503 11.8001 26.2503Z" fill="#1D1D1B"/>
<path d="M11.8001 28.3402C11.3001 28.3402 10.8901 27.9302 10.8901 27.4302C10.8901 27.2502 10.9401 27.0802 11.0401 26.9402V26.9202L13.2101 26.4102V28.0402H13.1801C12.6701 28.1702 12.1001 28.3002 11.9901 28.3202C11.9301 28.3302 11.8701 28.3402 11.8001 28.3402Z" fill="#1D1D1B"/>
<path d="M11.5498 22.1699V13.0699L13.2098 12.6699V21.7799L11.5498 22.1699Z" fill="#1D1D1B"/>
<path d="M15.6799 21.4009C15.6799 20.8409 15.2199 20.3809 14.6599 20.3809C14.0999 20.3809 13.6299 20.8409 13.6299 21.4009V29.9109C13.6299 31.4409 14.8799 32.6809 16.3999 32.6809C17.1799 32.6809 19.2999 32.6809 19.2999 32.6809V29.1309C19.2999 27.1909 19.2999 25.2209 19.2999 25.1709C19.2999 24.7209 19.0799 24.3009 18.6999 24.0509L16.1199 22.2909C16.1199 22.2909 16.1199 26.1009 16.1199 26.2809C16.1199 26.4009 16.0199 26.5009 15.8999 26.5009C15.7799 26.5009 15.6799 26.4009 15.6799 26.2809C15.6799 26.2409 15.6799 21.9209 15.6799 21.3909" fill="#1D1D1B"/>
<path d="M17.0701 15.0513C16.0001 15.3013 15.5901 16.1913 15.5901 16.1913V15.5513L14.1001 15.9013V19.9913C14.2801 19.9213 14.4701 19.8813 14.6701 19.8813C15.0601 19.8813 15.4101 20.0213 15.6801 20.2613V17.6213C15.6801 16.9913 16.0001 16.4813 16.4401 16.3813C16.7801 16.3113 17.0601 16.4313 17.0601 17.0313V20.8813L18.6301 20.5113V16.4413C18.6301 15.4513 18.2501 14.7613 17.0701 15.0413" fill="#1D1D1B"/>
</svg>
