<svg width="52" height="36" viewBox="0 0 52 36" fill="none" xmlns="http://www.w3.org/2000/svg">
<g clip-path="url(#clip0_2280_3882)">
<rect width="52" height="36" rx="4" fill="white"/>
<path d="M48 0H4C1.79086 0 0 1.79086 0 4V32C0 34.2091 1.79086 36 4 36H48C50.2091 36 52 34.2091 52 32V4C52 1.79086 50.2091 0 48 0Z" fill="white"/>
<path d="M48 0H4C1.79086 0 0 1.79086 0 4V32C0 34.2091 1.79086 36 4 36H48C50.2091 36 52 34.2091 52 32V4C52 1.79086 50.2091 0 48 0Z" fill="#D3D3D3"/>
<path d="M47.3198 0.550781H4.6798C2.53694 0.550781 0.799805 2.28792 0.799805 4.43078V31.5608C0.799805 33.7036 2.53694 35.4408 4.6798 35.4408H47.3198C49.4627 35.4408 51.1998 33.7036 51.1998 31.5608V4.43078C51.1998 2.28792 49.4627 0.550781 47.3198 0.550781Z" fill="white"/>
<path d="M6.34986 13.5109C5.99986 13.3109 5.58986 13.2209 5.12986 13.2209H2.10986V20.6909H3.41986V17.8209H5.12986C5.59986 17.8209 6.00986 17.7209 6.34986 17.5309C6.69986 17.3309 6.95986 17.0609 7.14986 16.7209C7.32986 16.3709 7.42986 15.9809 7.42986 15.5309C7.42986 15.0809 7.33986 14.6809 7.14986 14.3309C6.96986 13.9809 6.69986 13.7109 6.34986 13.5109ZM5.97986 16.1009C5.89986 16.2709 5.77986 16.4109 5.60986 16.5109C5.44986 16.6109 5.23986 16.6609 4.98986 16.6609H3.41986V14.3709H4.98986C5.35986 14.3709 5.62986 14.4809 5.81986 14.6909C6.00986 14.9109 6.09986 15.1809 6.09986 15.5109C6.09986 15.7209 6.05986 15.9209 5.97986 16.0909V16.1009ZM17.0099 15.3109L14.8099 21.5409C14.6499 22.0009 14.4399 22.3309 14.1799 22.5409C13.9199 22.7509 13.5999 22.8609 13.2099 22.8609H12.5399V21.8209H13.1099C13.2899 21.8209 13.4399 21.7609 13.5599 21.6309C13.6799 21.5009 13.8899 20.9509 13.9399 20.7709L11.9899 15.3009H13.2599L14.5199 19.1609C14.5999 18.8409 15.7599 15.3009 15.7599 15.3009H17.0099V15.3109ZM20.8499 18.0309C21.0699 18.2609 21.1799 18.6109 21.1799 19.0809C21.1799 19.4109 21.0999 19.7009 20.9299 19.9609C20.7599 20.2209 20.5399 20.4209 20.2499 20.5609C19.9699 20.7009 19.6599 20.7809 19.3199 20.7809H18.8899C18.5499 20.7809 18.2299 20.7109 17.9299 20.5809C17.6299 20.4409 17.3899 20.2609 17.2199 19.9909C17.0499 19.7209 16.9699 19.3509 16.9599 19.0209H18.1699C18.1899 19.2409 18.2299 19.5109 18.3799 19.6309C18.5499 19.7709 18.7099 19.8109 18.8999 19.8109H19.2499C19.4399 19.8109 19.6099 19.7609 19.7399 19.6609C19.8699 19.5609 19.9399 19.4109 19.9399 19.2009C19.9399 19.0209 19.8899 18.8809 19.7899 18.7909C19.6899 18.6909 19.5299 18.6209 19.3299 18.5809L18.3199 18.3809C17.8999 18.2909 17.5799 18.1209 17.3599 17.8609C17.1399 17.6009 17.0299 17.2709 17.0299 16.8609C17.0299 16.5509 17.1099 16.2709 17.2699 16.0209C17.4299 15.7709 17.6499 15.5809 17.9299 15.4409C18.1999 15.3009 18.4999 15.2409 18.8199 15.2409H19.2199C19.5399 15.2409 19.8399 15.3109 20.1099 15.4409C20.3799 15.5709 20.6099 15.7609 20.7799 16.0009C20.9499 16.2409 21.0399 16.6809 21.0499 16.9909H19.8699C19.8599 16.8109 19.8299 16.5409 19.6699 16.4009C19.5299 16.2609 19.3699 16.2109 19.1999 16.2109H18.8599C18.6799 16.2109 18.5399 16.2609 18.4199 16.3609C18.3099 16.4609 18.2499 16.5909 18.2499 16.7609C18.2499 16.9009 18.2999 17.0209 18.3899 17.1209C18.4899 17.2209 18.6299 17.2909 18.8099 17.3309L19.8399 17.5509C20.2899 17.6509 20.6199 17.8109 20.8499 18.0409V18.0309ZM26.0099 19.5009C25.9699 19.4409 25.9499 19.3509 25.9499 19.2309V17.2309C25.9499 16.8609 25.8699 16.5209 25.7199 16.2109C25.5599 15.9009 25.3399 15.6609 25.0399 15.4909C24.7399 15.3209 24.3999 15.2309 23.9999 15.2309H23.6199C23.2699 15.2309 22.9399 15.3109 22.6299 15.4609C22.3199 15.6109 22.0699 15.8309 21.8799 16.1009C21.6899 16.3809 21.6099 16.6309 21.5799 16.9909H22.7999C22.8199 16.7409 22.8699 16.6009 23.0299 16.4609C23.1899 16.3209 23.3899 16.2609 23.6199 16.2609H23.9999C24.1299 16.2609 24.2599 16.3009 24.3699 16.3809C24.4799 16.4609 24.5699 16.5709 24.6399 16.7209C24.7099 16.8609 24.7399 17.0309 24.7399 17.2009V17.3109L23.3499 17.5209C22.7899 17.6109 22.3399 17.8009 22.0099 18.0809C21.6699 18.3609 21.5099 18.7509 21.5099 19.2309C21.5099 19.5409 21.5799 19.8209 21.7299 20.0509C21.8699 20.2809 22.0799 20.4709 22.3399 20.5909C22.5999 20.7209 22.9099 20.7809 23.2599 20.7809C23.6299 20.7809 23.9599 20.7109 24.2399 20.5609C24.5199 20.4109 24.7299 20.2109 24.8699 19.9509C24.8799 20.2109 24.9699 20.4009 25.1199 20.5209C25.2699 20.6409 25.4799 20.7009 25.7399 20.7009H26.5599V19.6509C26.3999 19.6509 26.2899 19.6509 26.2099 19.6309C26.1299 19.6109 26.0699 19.5809 26.0299 19.5209L26.0099 19.5009ZM24.7299 18.4609C24.7299 18.7209 24.6799 18.9609 24.5699 19.1609C24.4599 19.3609 24.3099 19.5209 24.1199 19.6309C23.9299 19.7409 23.7099 19.8009 23.4599 19.8009C23.2499 19.8009 23.0699 19.7409 22.9399 19.6209C22.7999 19.5009 22.7399 19.3509 22.7399 19.1609C22.7399 18.9309 22.8199 18.7509 22.9699 18.6409C23.1199 18.5309 23.3499 18.4509 23.6699 18.3909L24.7399 18.1909V18.4509L24.7299 18.4609ZM12.5799 19.6409C12.4199 19.6409 12.3099 19.6409 12.2299 19.6209C12.1499 19.6009 12.0899 19.5709 12.0499 19.5109C12.0099 19.4509 11.9899 19.3609 11.9899 19.2409V17.2409C11.9899 16.8709 11.9099 16.5309 11.7599 16.2209C11.5999 15.9109 11.3799 15.6709 11.0799 15.5009C10.7799 15.3309 10.4399 15.2409 10.0399 15.2409H9.65986C9.30986 15.2409 8.97986 15.3209 8.66986 15.4709C8.35986 15.6209 8.10986 15.8409 7.91986 16.1109C7.72986 16.3909 7.64986 16.6409 7.61986 17.0009H8.83986C8.85986 16.7509 8.90986 16.6109 9.06986 16.4709C9.22986 16.3309 9.42986 16.2709 9.65986 16.2709H10.0399C10.1699 16.2709 10.2999 16.3109 10.4099 16.3909C10.5199 16.4709 10.6099 16.5809 10.6799 16.7309C10.7499 16.8709 10.7799 17.0409 10.7799 17.2109V17.3209L9.38986 17.5309C8.82986 17.6209 8.37986 17.8109 8.04986 18.0909C7.70986 18.3709 7.54986 18.7609 7.54986 19.2409C7.54986 19.5509 7.61986 19.8309 7.76986 20.0609C7.90986 20.2909 8.11986 20.4809 8.37986 20.6009C8.63986 20.7309 8.94986 20.7909 9.29986 20.7909C9.66986 20.7909 9.99986 20.7209 10.2799 20.5709C10.5599 20.4209 10.7699 20.2209 10.9099 19.9609C10.9199 20.2209 11.0099 20.4109 11.1599 20.5309C11.3099 20.6509 11.5199 20.7109 11.7799 20.7109H12.5999V19.6609L12.5799 19.6409ZM10.7699 18.4609C10.7699 18.7209 10.7199 18.9609 10.6099 19.1609C10.4999 19.3609 10.3499 19.5209 10.1599 19.6309C9.96986 19.7409 9.74986 19.8009 9.49986 19.8009C9.28986 19.8009 9.10986 19.7409 8.97986 19.6209C8.83986 19.5009 8.77986 19.3509 8.77986 19.1609C8.77986 18.9309 8.85986 18.7509 9.00986 18.6409C9.15986 18.5309 9.38986 18.4509 9.70986 18.3909L10.7799 18.1909V18.4509L10.7699 18.4609ZM29.8699 16.3509H28.4399V20.6909H27.2199V16.3509H26.1999V15.3109H27.2199V14.8009C27.2199 14.2809 27.3499 13.8909 27.5999 13.6209C27.8499 13.3509 28.2099 13.2109 28.6699 13.2109H29.8699V14.2509H29.0399C28.8399 14.2509 28.6899 14.3009 28.5899 14.4109C28.4899 14.5209 28.4399 14.6809 28.4399 14.9109V15.3009H29.8699V16.3409V16.3509ZM33.6199 15.5709C33.2899 15.3409 32.9299 15.2209 32.5199 15.2209H32.1199C31.7299 15.2209 31.3599 15.3309 31.0099 15.5609C30.6599 15.7909 30.3799 16.1109 30.1599 16.5309C29.9399 16.9509 29.8399 17.4409 29.8399 17.9809C29.8399 18.5209 29.9399 19.0009 30.1399 19.4209C30.3399 19.8509 30.6199 20.1809 30.9699 20.4109C31.3199 20.6509 31.7099 20.7609 32.1399 20.7609H32.5299C32.8899 20.7609 33.2299 20.6809 33.5399 20.5109C33.8499 20.3509 34.0999 20.1209 34.2999 19.8309C34.4999 19.5409 34.6099 19.2209 34.6499 18.8709H33.4799C33.4299 19.1009 33.3299 19.3009 33.1499 19.4609C32.9799 19.6209 32.7699 19.7009 32.5399 19.7009H32.1499C31.9499 19.7009 31.7699 19.6309 31.5999 19.4809C31.4399 19.3409 31.2999 19.1309 31.2099 18.8609C31.1399 18.6709 31.0999 18.4709 31.0799 18.2409H34.6699C34.6699 18.2409 34.6899 17.9009 34.6899 17.7809C34.6899 17.3109 34.5899 16.8809 34.3999 16.4809C34.2099 16.0909 33.9499 15.7709 33.6199 15.5409V15.5709ZM31.1199 17.3509C31.1399 17.2409 31.1799 17.1309 31.2199 17.0309C31.3199 16.7609 31.4599 16.5609 31.6299 16.4209C31.7999 16.2809 31.9699 16.2109 32.1599 16.2109H32.5199C32.6799 16.2109 32.8399 16.2609 32.9799 16.3609C33.1199 16.4609 33.2399 16.6009 33.3199 16.7709C33.3999 16.9509 33.4499 17.1409 33.4599 17.3409H31.1299L31.1199 17.3509ZM49.8999 17.0009C49.8999 17.0009 49.8799 17.0909 49.8599 17.1209L46.2199 20.8509C46.2199 20.8509 46.1899 20.8709 46.1699 20.8709H46.1499C46.1499 20.8709 46.0699 20.8309 46.0699 20.7909V17.0109C46.0699 17.0109 46.0499 17.0909 46.0299 17.1209L42.4199 20.8309C42.4199 20.8309 42.3499 20.8809 42.3099 20.8809C42.3099 20.8809 42.2299 20.8609 42.1999 20.8309L38.5899 17.1209C38.5899 17.1209 38.5499 17.0509 38.5499 17.0109C38.5499 17.0109 38.5699 16.9209 38.5899 16.8909L42.1999 13.1809C42.1999 13.1809 42.2699 13.1309 42.3099 13.1309C42.3099 13.1309 42.3899 13.1509 42.4199 13.1809L46.0299 16.8909C46.0299 16.8909 46.0799 16.9609 46.0799 17.0009V13.2209C46.0799 13.2209 46.1099 13.1409 46.1599 13.1409H46.1799C46.1799 13.1409 46.2199 13.1409 46.2299 13.1609L49.8699 16.8909C49.8699 16.8909 49.9099 16.9609 49.9099 17.0009H49.8999Z" fill="black"/>
</g>
<rect x="0.5" y="0.5" width="51" height="35" rx="3.5" stroke="#EAEAEA"/>
<defs>
<clipPath id="clip0_2280_3882">
<rect width="52" height="36" rx="4" fill="white"/>
</clipPath>
</defs>
</svg>
