<svg width="52" height="36" viewBox="0 0 52 36" fill="none" xmlns="http://www.w3.org/2000/svg">
<rect x="0.5" y="0.5" width="51" height="35" rx="3.5" fill="white"/>
<rect x="0.5" y="0.5" width="51" height="35" rx="3.5" stroke="#EAEAEA"/>
<path d="M34.9299 13.8398H34.4599C34.2599 13.8398 34.1099 13.9998 34.1099 14.1898V15.1298V19.1098C34.1099 20.4798 34.9699 21.4898 36.3399 21.4898H37.1999C37.3999 21.4898 37.5499 21.3298 37.5499 21.1398V20.8298C37.5499 20.6298 37.3899 20.4798 37.1999 20.4798H36.4999C35.5999 20.4798 35.2899 19.8898 35.2499 18.6798V16.2198H37.1599C37.3599 16.2198 37.5099 16.0598 37.5099 15.8698V15.5198C37.5099 15.3198 37.3499 15.1698 37.1599 15.1698H35.2499V14.2298C35.2499 14.0298 35.1299 13.8798 34.9399 13.8798C34.9399 13.8798 34.9399 13.8665 34.9399 13.8398" fill="#1780F4"/>
<path d="M45.2398 15.1289H44.6498C43.9898 15.0889 43.3598 15.3589 42.9298 15.8689C42.4998 15.3589 41.8798 15.0889 41.2098 15.1289H40.6198C39.1698 15.1289 38.3198 16.2189 38.3198 17.5889V21.1089C38.3198 21.3089 38.4798 21.4589 38.6698 21.4589H39.1398C39.3398 21.4589 39.4898 21.2989 39.4898 21.1089V17.7889C39.4898 16.9289 39.8798 16.1889 40.8998 16.1889C41.9198 16.1889 42.2698 16.9289 42.2698 17.7889V21.1089C42.2698 21.3089 42.4298 21.4589 42.6198 21.4589H43.0898C43.2898 21.4589 43.4398 21.2989 43.4398 21.1089V17.7889C43.4398 16.9289 43.8298 16.1889 44.8498 16.1889C45.8698 16.1889 46.2198 16.9289 46.2198 17.7889V21.1089C46.2198 21.3089 46.3798 21.4589 46.5698 21.4589H46.9998C47.1998 21.4589 47.3498 21.2989 47.3498 21.1089V17.5889C47.5098 16.2189 46.6498 15.1289 45.2398 15.1289Z" fill="#1780F4"/>
<path d="M32.2697 15.1289C30.8197 15.1289 29.9697 16.2189 29.9697 17.5889V21.1089C29.9697 21.3089 30.1297 21.4589 30.3197 21.4589H30.7897C30.9897 21.4589 31.1397 21.2989 31.1397 21.1089V17.7889C31.1397 16.9289 31.5297 16.1889 32.5497 16.1889H33.0197C33.2197 16.1889 33.3697 16.0289 33.3697 15.8389V15.5289C33.3697 15.3289 33.2097 15.1789 33.0197 15.1789L32.2797 15.1389L32.2697 15.1289Z" fill="#1780F4"/>
<path d="M28.5596 14.4589H28.0096C27.8096 14.4589 27.6196 14.2589 27.6196 14.0689V13.5189C27.6196 13.3189 27.8196 13.1289 28.0096 13.1289H28.5596C28.7596 13.1289 28.9496 13.3289 28.9496 13.5189V14.0689C28.9496 14.2689 28.7496 14.4589 28.5596 14.4589Z" fill="#1780F4"/>
<path d="M26.37 17.0006C25.67 15.3606 23.75 14.5806 22.11 15.2806C20.47 15.9806 19.69 17.9006 20.39 19.5406C20.9 20.7506 22.07 21.5306 23.4 21.5306H24.38C24.58 21.5306 24.73 21.4506 24.73 21.2206V20.7906C24.73 20.5906 24.53 20.4806 24.38 20.4806H23.44C22.31 20.4006 21.37 19.5006 21.33 18.3306C21.29 17.2006 22.19 16.2206 23.36 16.1806H23.44C24.14 16.1806 24.81 16.5306 25.2 17.1206C25.4 17.4706 25.51 17.8206 25.51 18.2506V21.1406C25.51 21.3406 25.67 21.4906 25.86 21.4906H26.29C26.49 21.4906 26.64 21.3306 26.64 21.1406V18.2506C26.64 17.8206 26.52 17.3906 26.37 17.0006Z" fill="#1780F4"/>
<path d="M28.0497 21.4997H28.4797C28.6797 21.4997 28.8297 21.3397 28.8297 21.1497V15.5297C28.8297 15.3297 28.6697 15.1797 28.4797 15.1797H28.0097C27.8097 15.1797 27.6597 15.3397 27.6597 15.5297V21.1497C27.6597 21.3497 27.8597 21.4997 28.0497 21.4997Z" fill="#1780F4"/>
<path d="M14.5398 15.7898C14.6198 14.0298 13.5198 12.4298 11.8398 11.9198C11.4898 11.8398 11.0998 11.7598 10.7498 11.7598H10.5198C9.34984 11.8398 8.32984 12.4598 7.66984 13.3998C6.76984 13.1298 5.82984 13.1998 5.08984 13.7098C4.26984 14.2198 3.71984 15.0398 3.56984 16.0098C2.54984 16.6298 1.92984 17.7698 2.00984 18.9398C2.08984 20.6198 3.45984 21.9098 5.12984 21.9498H6.72984C6.72984 21.9498 6.76984 21.9098 6.80984 21.8698L6.88984 21.0498C6.88984 21.0498 6.88984 21.0098 6.84984 20.9698C6.84984 20.9298 6.80984 20.9298 6.76984 20.9298H5.00984C4.41984 20.9298 3.87984 20.6998 3.48984 20.2698C3.09984 19.8398 2.89984 19.2498 2.89984 18.6698C2.97984 17.8498 3.48984 17.1098 4.22984 16.7598L4.38984 16.6798C4.38984 16.6798 4.42984 16.6398 4.42984 16.5998L4.46984 16.2498C4.50984 15.5898 4.93984 14.9598 5.51984 14.6098C5.86984 14.3798 6.25984 14.2598 6.64984 14.2598C6.91984 14.2598 7.23984 14.3398 7.50984 14.4598L7.89984 14.6598H7.97984V14.6198L8.24984 14.1498C8.71984 13.3298 9.57984 12.8198 10.5198 12.7398C10.8698 12.7398 11.2198 12.7798 11.5398 12.8598C12.8298 13.2898 13.6498 14.5398 13.5298 15.9098L13.4498 16.4198C13.4498 16.4198 13.4898 16.4998 13.5298 16.4998L13.9998 16.6198C14.9398 16.8898 15.5598 17.7498 15.5198 18.7298C15.5598 19.8998 14.6198 20.9198 13.4498 20.9198H12.0398C12.0398 20.9198 11.9998 20.9198 11.9598 20.9598C11.9598 20.9998 11.9198 20.9998 11.9198 21.0398L11.9998 21.8598C11.9998 21.8598 12.0398 21.9398 12.0798 21.9398H13.4898C15.2098 21.8998 16.5798 20.4598 16.5398 18.7398C16.4998 17.4498 15.7598 16.3198 14.5498 15.8098L14.5398 15.7898Z" fill="#1780F4"/>
<path d="M8.7998 19.3906C8.3298 19.5906 7.8198 19.6606 7.2798 19.6206L7.0498 23.8806C7.0498 24.0806 7.1698 24.2306 7.3598 24.2306H11.4598C11.6198 24.2306 11.7698 24.1106 11.8098 23.9606V23.8806L11.5398 19.7006C10.6398 19.9306 9.66981 19.8206 8.8098 19.3906H8.7998ZM9.4998 22.7906V23.1006C9.4998 23.1806 9.4598 23.2206 9.3798 23.2206C9.2998 23.2206 9.2598 23.1806 9.2598 23.1006V22.7906C9.0598 22.7906 8.8698 22.7106 8.7098 22.5906C8.6698 22.5506 8.6298 22.5106 8.6298 22.4306C8.6298 22.3106 8.7098 22.2306 8.8298 22.2306C8.88314 22.2306 8.92314 22.244 8.9498 22.2706C9.0698 22.3506 9.2198 22.3906 9.3798 22.3906C9.5798 22.3906 9.6898 22.3106 9.6898 22.1606C9.6898 22.0406 9.6098 21.9606 9.3798 21.9606H9.2598C8.8298 21.8806 8.6398 21.7306 8.6398 21.3706C8.6398 21.0106 8.9098 20.7806 9.2298 20.7806V20.5106C9.2298 20.4306 9.3098 20.3906 9.3498 20.3906C9.4298 20.3906 9.4698 20.4306 9.4698 20.5106V20.7406C9.6298 20.7406 9.7798 20.8206 9.9398 20.8606C10.0198 20.9006 10.0598 20.9806 10.0198 21.0606C10.0198 21.1406 9.9398 21.2606 9.8598 21.2606C9.8598 21.2606 9.7798 21.2606 9.7398 21.2206C9.6598 21.1806 9.5398 21.1406 9.4298 21.1406H9.3498C9.2298 21.1406 9.1198 21.2206 9.1198 21.3406V21.3806C9.1198 21.5006 9.1998 21.5806 9.4298 21.5806H9.5498C9.9798 21.6606 10.1698 21.8106 10.1698 22.1706C10.1698 22.5306 9.8998 22.7906 9.5498 22.7906C9.5498 22.7906 9.53647 22.7906 9.5098 22.7906H9.4998Z" fill="#1780F4"/>
<path d="M48.5198 14.3104V15.0904H48.3198V14.3104H48.0098V14.1504H48.7898V14.3504L48.5198 14.3104ZM49.8498 15.0904V14.4704L49.5798 15.0604H49.4198L49.1498 14.4704V15.0604H48.9498V14.1604H49.2198L49.4898 14.8204L49.7598 14.1604H49.9898V15.1404L49.8298 15.1004L49.8498 15.0904Z" fill="#1780F4"/>
</svg>
