<svg width="52" height="36" viewBox="0 0 52 36" fill="none" xmlns="http://www.w3.org/2000/svg">
<rect x="0.5" y="0.5" width="51" height="35" rx="3.5" fill="white"/>
<rect x="0.5" y="0.5" width="51" height="35" rx="3.5" stroke="#EAEAEA"/>
<path d="M2.3999 11.5101H6.8599C7.2699 11.5101 8.4799 11.3701 9.0199 13.2701C9.4299 14.4901 9.9699 16.3801 10.7799 19.2201H11.0499C11.8599 16.2401 12.5399 14.2201 12.8099 13.2701C13.3499 11.3801 14.6999 11.5101 15.2399 11.5101H19.4299V24.5001H15.0999V16.7901H14.8299L12.5299 24.5001H9.2799L6.9799 16.7901H6.5699V24.5001H2.3999M21.1999 11.5101H25.5299V19.2201H25.9399L28.7799 12.8601C29.3199 11.6401 30.5399 11.5101 30.5399 11.5101H34.5999V24.5001H30.2699V16.7901H29.9999L27.1599 23.1501C26.6199 24.3701 25.2699 24.5001 25.2699 24.5001H21.2099M40.4199 20.5801V24.5001H36.3599V17.7401H49.6199C49.0799 19.3601 47.1899 20.5801 45.0199 20.5801" fill="#0F754E"/>
<path d="M49.6901 18.0799C50.2301 15.6499 48.6101 12.6699 45.0901 12.6699H35.8901C36.1601 15.5099 38.6001 18.0799 41.1701 18.0799" fill="url(#paint0_linear_2280_3683)"/>
<defs>
<linearGradient id="paint0_linear_2280_3683" x1="48.0601" y1="15.3799" x2="37.2401" y2="15.3799" gradientUnits="userSpaceOnUse">
<stop stop-color="#1F5CD3"/>
<stop offset="1" stop-color="#02AAFF"/>
</linearGradient>
</defs>
</svg>
