<svg width="52" height="36" viewBox="0 0 52 36" fill="none" xmlns="http://www.w3.org/2000/svg">
<rect x="0.5" y="0.5" width="51" height="35" rx="3.5" fill="white"/>
<rect x="0.5" y="0.5" width="51" height="35" rx="3.5" stroke="#EAEAEA"/>
<path d="M23.4702 16.6602H24.2602C24.3202 16.7402 24.3002 16.8102 24.3002 16.8902C24.3002 17.8702 24.3002 18.8602 24.3002 19.8402C24.3002 20.0802 24.2702 20.3102 24.2002 20.5402C23.9702 21.2502 23.4702 21.6402 22.7302 21.7402C22.1102 21.8302 21.2102 21.5702 20.8202 21.1302C20.9702 20.9702 21.1202 20.8102 21.2602 20.6502C21.3702 20.6502 21.4502 20.7302 21.5302 20.7702C21.8202 20.9102 22.1302 20.9802 22.4602 20.9802C23.1302 20.9802 23.4502 20.6502 23.4402 19.9602C23.3802 19.9302 23.3502 19.9902 23.3102 20.0202C22.8102 20.4202 22.2502 20.4402 21.6702 20.2302C21.1602 20.0502 20.9002 19.6402 20.7802 19.1402C20.7502 19.0202 20.7202 18.8902 20.7202 18.7602C20.7202 18.0802 20.7202 17.3902 20.7202 16.6902H21.5202C21.5802 16.7602 21.5602 16.8402 21.5602 16.9302C21.5602 17.4202 21.5602 17.9102 21.5602 18.4102C21.5602 18.5702 21.5602 18.7302 21.6002 18.8902C21.6602 19.2402 21.8702 19.4602 22.2302 19.5302C22.8202 19.6502 23.2802 19.3702 23.4202 18.7902C23.4602 18.6302 23.4702 18.4702 23.4702 18.3102C23.4702 17.7802 23.4702 17.2402 23.4702 16.6802V16.6602Z" fill="#FBF6F7"/>
<path d="M7.96029 17.9098C7.18029 18.7998 6.42029 19.6798 5.65029 20.5598H3.80029C4.58029 19.6698 5.33029 18.7998 6.11029 17.9098C5.35029 17.0298 4.59029 16.1598 3.80029 15.2598H5.64029C6.40029 16.1298 7.17029 17.0098 7.95029 17.9098H7.96029Z" fill="#FBF6F7"/>
<path d="M8.55996 20.57C7.97996 20.57 7.41996 20.57 6.86996 20.57C6.83996 20.57 6.80996 20.56 6.73996 20.54C7.50996 19.65 8.26996 18.79 9.02996 17.91C8.26996 17.04 7.51996 16.17 6.70996 15.25C7.36996 15.25 7.95996 15.25 8.54996 15.25C9.31996 16.13 10.08 17.01 10.87 17.91C10.11 18.81 9.32996 19.68 8.54996 20.58L8.55996 20.57Z" fill="#FBF6F7"/>
<path d="M13.13 19.0198V20.3398C12.82 20.3598 12.54 20.3598 12.25 20.3398V15.4897C12.33 15.4197 12.42 15.4497 12.5 15.4497C13.02 15.4497 13.55 15.4497 14.07 15.4497C15.1 15.4697 15.88 16.2998 15.83 17.3298C15.79 18.1997 15.04 18.9497 14.17 18.9797C13.91 18.9797 13.66 18.9797 13.4 18.9797C13.32 18.9797 13.23 18.9598 13.13 19.0198ZM13.13 16.3298C13.13 16.6598 13.13 16.9397 13.13 17.2297C13.13 17.5097 13.11 17.7998 13.15 18.0998C13.52 18.0998 13.88 18.1398 14.23 18.0798C14.69 17.9998 14.98 17.6097 14.95 17.1297C14.92 16.7097 14.57 16.3598 14.13 16.3398C13.81 16.3298 13.49 16.3398 13.13 16.3398V16.3298Z" fill="#FBF6F7"/>
<path d="M38.3501 20.0697V21.6797C38.0601 21.7497 37.8001 21.7197 37.5601 21.7097C37.4701 21.6397 37.4801 21.5597 37.4801 21.4897C37.4801 20.5097 37.4501 19.5197 37.4801 18.5397C37.5201 17.5397 38.0301 16.8397 39.0701 16.6197C39.5501 16.5197 40.0201 16.6197 40.4401 16.9097C41.5401 17.6597 41.5901 19.4797 40.2601 20.2197C39.7201 20.5197 39.1401 20.5297 38.6001 20.1797C38.5401 20.1397 38.5001 20.0697 38.3501 20.0697ZM40.4201 18.5197C40.4301 18.3197 40.3701 18.1397 40.2801 17.9697C40.0601 17.5697 39.7101 17.4097 39.2701 17.4297C38.8601 17.4497 38.5801 17.6597 38.4101 18.0397C38.3501 18.1697 38.3301 18.3197 38.3301 18.4397C38.3301 18.7997 38.3901 19.1497 38.7101 19.3797C39.0501 19.6297 39.4301 19.6797 39.8201 19.4897C40.2301 19.2897 40.4001 18.9497 40.4301 18.5197H40.4201Z" fill="#FA9A00"/>
<path d="M19.0899 17.0692V16.6792C19.3699 16.6292 19.6299 16.6492 19.9099 16.6692V20.3692H19.1199C19.0699 20.2492 19.1199 20.1292 19.0699 19.9892C18.5299 20.4092 17.9399 20.5692 17.2899 20.3392C16.8899 20.1992 16.5799 19.9492 16.3499 19.5992C15.8499 18.8192 15.9699 17.7592 16.6299 17.1292C17.2899 16.4792 18.1599 16.4592 19.0899 17.0892V17.0692ZM17.9699 17.4192C17.3699 17.4192 16.9099 17.8692 16.8899 18.4892C16.8699 19.1192 17.3299 19.6092 17.9399 19.6092C18.5399 19.6092 19.0099 19.1492 19.0299 18.5392C19.0499 17.9192 18.5699 17.4192 17.9699 17.4092V17.4192Z" fill="#FBF6F7"/>
<path d="M32.7203 19.7888C32.2603 20.1988 31.7303 20.4088 31.1603 20.4188C30.3203 20.4288 29.5203 20.0688 29.2303 19.0988C28.9803 18.2688 29.2303 17.4188 29.9303 16.9088C30.4803 16.5088 31.4103 16.4288 32.1003 16.9088C32.4803 17.1688 32.6903 17.5388 32.7803 17.9788C32.8403 18.2388 32.8303 18.4788 32.7203 18.7488C31.8303 18.7788 30.9403 18.7488 30.0303 18.7688C30.0103 19.0888 30.1903 19.2788 30.4003 19.4388C30.5403 19.5488 30.7103 19.6088 30.9103 19.6088C31.3203 19.6188 31.7203 19.5888 32.0903 19.3788C32.1303 19.3488 32.1903 19.3488 32.2503 19.3288C32.4303 19.4488 32.5603 19.6188 32.7203 19.7888ZM31.9403 18.0588C31.8703 17.6188 31.4003 17.3188 30.9403 17.3688C30.5303 17.4088 30.1803 17.6888 30.1103 18.0588H31.9403Z" fill="#FA9A00"/>
<path d="M36.3499 19.349C36.5199 19.519 36.6699 19.649 36.8299 19.809C36.4599 20.119 36.0499 20.299 35.5799 20.389C35.1599 20.469 34.7799 20.389 34.3999 20.259C33.7699 20.039 33.3099 19.309 33.2999 18.749C33.2999 18.339 33.2899 17.939 33.4899 17.569C33.8099 16.989 34.2999 16.669 34.9399 16.609C35.3799 16.569 35.8099 16.629 36.1899 16.889C36.7999 17.309 37.0699 18.039 36.8399 18.779H34.1599C34.1999 19.279 34.5299 19.599 34.9999 19.619C35.3899 19.639 35.7699 19.619 36.1199 19.429C36.1899 19.389 36.2799 19.369 36.3499 19.349ZM36.0499 18.059C35.9599 17.629 35.6299 17.389 35.1999 17.359C34.8099 17.339 34.2699 17.629 34.2099 18.059H36.0499Z" fill="#FA9A00"/>
<path d="M45.3202 18.7699H42.6302C42.6902 19.2899 43.0202 19.5899 43.5102 19.6099C43.8902 19.6299 44.2502 19.5899 44.6002 19.4199C44.6702 19.3799 44.7502 19.3299 44.8602 19.3399C45.0102 19.4599 45.1502 19.6199 45.3002 19.7899C44.9002 20.1099 44.4702 20.3099 43.9702 20.3899C43.4302 20.4699 42.9602 20.3499 42.5202 20.0699C42.1202 19.8199 41.8702 19.4399 41.7902 18.9899C41.6902 18.4299 41.7102 17.8699 42.0702 17.3699C42.5402 16.7099 43.2602 16.4999 43.9802 16.6199C44.7602 16.7499 45.2002 17.2499 45.3802 18.0099C45.4402 18.2599 45.4202 18.4999 45.3102 18.7699H45.3202ZM44.5202 18.0599C44.4302 17.6299 44.1002 17.3899 43.6702 17.3599C43.2802 17.3399 42.7402 17.6299 42.6902 18.0599H44.5302H44.5202Z" fill="#FA9A00"/>
<path d="M26.1299 17.8992C26.7899 17.0692 27.4399 16.2592 28.0899 15.4492H29.2599C28.5899 16.2692 27.9299 17.0592 27.2499 17.8792C27.5299 18.3192 27.9099 18.6892 28.2299 19.0992C28.5499 19.4992 28.8999 19.8792 29.2099 20.2892C29.1599 20.3292 29.1499 20.3492 29.1299 20.3492C28.7999 20.3492 28.4699 20.3492 28.1099 20.3492C27.4699 19.5492 26.8099 18.7292 26.1299 17.8892V17.8992Z" fill="#FA9A00"/>
<path d="M46.8402 20.3596H46.0402C45.9902 20.1196 45.9702 17.1396 46.0202 16.6696H46.8002C46.8702 16.7996 46.8002 16.9396 46.8602 17.0896C47.2702 16.7096 47.7502 16.5696 48.2902 16.5996C48.3802 16.8196 48.3902 16.9696 48.3402 17.4096C48.2302 17.4496 48.1202 17.4296 48.0002 17.4296C47.3502 17.4496 46.9702 17.8096 46.8802 18.3896C46.8302 18.7096 46.8402 19.0296 46.8402 19.3396C46.8402 19.6696 46.8402 19.9996 46.8402 20.3596Z" fill="#FA9A00"/>
<path d="M26.0099 20.319C25.7999 20.319 25.6099 20.319 25.4199 20.319C25.3399 20.319 25.2499 20.339 25.1499 20.289V15.459H25.9799C26.0399 15.689 26.0599 19.669 25.9999 20.329L26.0099 20.319Z" fill="#FA9A00"/>
<path d="M13.13 16.3401C13.49 16.3401 13.81 16.3301 14.13 16.3401C14.57 16.3601 14.93 16.7101 14.95 17.1301C14.98 17.6101 14.69 18.0001 14.23 18.0801C13.88 18.1401 13.53 18.1001 13.15 18.1001C13.1 17.8001 13.13 17.5201 13.13 17.2301C13.13 16.9401 13.13 16.6501 13.13 16.3301V16.3401Z" fill="#C9010F"/>
<path d="M40.4201 18.5191C40.3901 18.9491 40.2201 19.2891 39.8101 19.4891C39.4201 19.6791 39.0401 19.6291 38.7001 19.3791C38.3901 19.1491 38.3101 18.7991 38.3201 18.4391C38.3201 18.3091 38.3501 18.1691 38.4001 18.0391C38.5601 17.6591 38.8501 17.4491 39.2601 17.4291C39.7001 17.3991 40.0501 17.5691 40.2701 17.9691C40.3601 18.1391 40.4301 18.3191 40.4101 18.5191H40.4201Z" fill="#C9010F"/>
<path d="M17.98 17.4199C18.58 17.4199 19.06 17.9299 19.04 18.5499C19.02 19.1599 18.55 19.6199 17.95 19.6199C17.34 19.6199 16.88 19.1299 16.9 18.4999C16.92 17.8799 17.38 17.4199 17.98 17.4299V17.4199Z" fill="#C9010F"/>
<path d="M31.9399 18.0588H30.1099C30.1799 17.6888 30.5299 17.3988 30.9399 17.3688C31.3999 17.3288 31.8699 17.6288 31.9399 18.0588Z" fill="#C9010F"/>
<path d="M36.05 18.0584H34.21C34.26 17.6384 34.81 17.3384 35.2 17.3584C35.64 17.3884 35.96 17.6284 36.05 18.0584Z" fill="#C9010F"/>
<path d="M44.5202 18.0584H42.6802C42.7302 17.6384 43.2802 17.3384 43.6602 17.3584C44.1002 17.3884 44.4202 17.6284 44.5102 18.0584H44.5202Z" fill="#C9010F"/>
<path d="M2.58008 12.4492V23.5592H49.4201V12.4492H2.58008ZM3.80008 20.5592C4.58008 19.6692 5.33008 18.7992 6.11008 17.9092C5.35008 17.0292 4.59008 16.1592 3.80008 15.2592H5.64008C6.40008 16.1292 7.17008 17.0092 7.95008 17.9092C7.17008 18.7992 6.41008 19.6792 5.64008 20.5592H3.79008H3.80008ZM8.56008 20.5692C7.98008 20.5692 7.42008 20.5692 6.87008 20.5692C6.84008 20.5692 6.81008 20.5592 6.74008 20.5392C7.51008 19.6492 8.27008 18.7892 9.03008 17.9092C8.27008 17.0392 7.52008 16.1692 6.71008 15.2492C7.37008 15.2492 7.96008 15.2492 8.55008 15.2492C9.32008 16.1292 10.0801 17.0092 10.8701 17.9092C10.1101 18.8092 9.33008 19.6792 8.55008 20.5792L8.56008 20.5692ZM46.0201 16.6692H46.8001C46.8701 16.7992 46.8001 16.9392 46.8601 17.0892C47.2701 16.7092 47.7501 16.5692 48.2901 16.5992C48.3801 16.8192 48.3901 16.9692 48.3401 17.4092C48.2301 17.4492 48.1201 17.4292 48.0001 17.4292C47.3501 17.4492 46.9701 17.8092 46.8801 18.3892C46.8301 18.7092 46.8401 19.0292 46.8401 19.3492C46.8401 19.6792 46.8401 20.0092 46.8401 20.3692H46.0401C45.9901 20.1292 45.9701 17.1492 46.0201 16.6792V16.6692ZM42.0701 17.3692C42.5401 16.7092 43.2601 16.4992 43.9801 16.6192C44.7601 16.7492 45.2001 17.2492 45.3801 18.0092C45.4401 18.2592 45.4201 18.4992 45.3101 18.7692H42.6201C42.6801 19.2892 43.0101 19.5892 43.5001 19.6092C43.8801 19.6292 44.2401 19.5892 44.5901 19.4192C44.6601 19.3792 44.7401 19.3292 44.8501 19.3392C45.0001 19.4592 45.1401 19.6192 45.2901 19.7892C44.8901 20.1092 44.4601 20.3092 43.9601 20.3892C43.4201 20.4692 42.9501 20.3492 42.5101 20.0692C42.1101 19.8192 41.8601 19.4392 41.7801 18.9892C41.6801 18.4292 41.7001 17.8692 42.0601 17.3692H42.0701ZM37.4701 18.5392C37.5101 17.5392 38.0201 16.8392 39.0601 16.6192C39.5401 16.5192 40.0101 16.6192 40.4301 16.9092C41.5301 17.6592 41.5801 19.4792 40.2501 20.2192C39.7101 20.5192 39.1301 20.5292 38.5901 20.1792C38.5301 20.1392 38.4901 20.0692 38.3401 20.0692V21.6792C38.0501 21.7492 37.7901 21.7192 37.5501 21.7092C37.4601 21.6392 37.4701 21.5592 37.4701 21.4892C37.4701 20.5092 37.4401 19.5192 37.4701 18.5392ZM33.4701 17.5692C33.7901 16.9892 34.2801 16.6692 34.9201 16.6092C35.3601 16.5692 35.7901 16.6292 36.1701 16.8892C36.7801 17.3092 37.0501 18.0392 36.8201 18.7792H34.1401C34.1801 19.2792 34.5101 19.5992 34.9801 19.6192C35.3701 19.6392 35.7501 19.6192 36.1001 19.4292C36.1701 19.3892 36.2601 19.3692 36.3301 19.3492C36.5001 19.5192 36.6501 19.6492 36.8101 19.8092C36.4401 20.1192 36.0301 20.2992 35.5601 20.3892C35.1401 20.4692 34.7601 20.3892 34.3801 20.2592C33.7501 20.0392 33.2901 19.3092 33.2801 18.7492C33.2801 18.3392 33.2701 17.9392 33.4701 17.5692ZM29.9201 16.9192C30.4701 16.5192 31.4001 16.4392 32.0901 16.9192C32.4701 17.1792 32.6801 17.5492 32.7701 17.9892C32.8301 18.2492 32.8201 18.4892 32.7101 18.7592C31.8201 18.7892 30.9301 18.7592 30.0201 18.7792C30.0001 19.0992 30.1801 19.2892 30.3901 19.4492C30.5301 19.5592 30.7001 19.6192 30.9001 19.6192C31.3101 19.6292 31.7101 19.5992 32.0801 19.3892C32.1201 19.3592 32.1801 19.3592 32.2401 19.3392C32.4201 19.4592 32.5501 19.6292 32.7101 19.7992C32.2501 20.2092 31.7201 20.4192 31.1501 20.4292C30.3101 20.4392 29.5101 20.0792 29.2201 19.1092C28.9701 18.2792 29.2201 17.4292 29.9201 16.9192ZM28.0701 15.4492H29.2401C28.5701 16.2692 27.9101 17.0592 27.2301 17.8792C27.5101 18.3192 27.8901 18.6892 28.2101 19.0992C28.5301 19.4992 28.8801 19.8792 29.1901 20.2892C29.1401 20.3292 29.1301 20.3492 29.1101 20.3492C28.7801 20.3492 28.4501 20.3492 28.0901 20.3492C27.4501 19.5492 26.7901 18.7292 26.1101 17.8892C26.7701 17.0592 27.4201 16.2492 28.0701 15.4392V15.4492ZM25.1401 15.4492H25.9701C26.0301 15.6792 26.0501 19.6592 25.9901 20.3192C25.7801 20.3192 25.5901 20.3192 25.4001 20.3192C25.3201 20.3192 25.2301 20.3392 25.1301 20.2892V15.4592L25.1401 15.4492ZM20.7201 16.6692H21.5201C21.5801 16.7392 21.5601 16.8192 21.5601 16.9092C21.5601 17.3992 21.5601 17.8892 21.5601 18.3892C21.5601 18.5492 21.5601 18.7092 21.6001 18.8692C21.6601 19.2192 21.8701 19.4392 22.2301 19.5092C22.8201 19.6292 23.2801 19.3492 23.4201 18.7692C23.4601 18.6092 23.4701 18.4492 23.4701 18.2892C23.4701 17.7592 23.4701 17.2192 23.4701 16.6592H24.2601C24.3201 16.7392 24.3001 16.8092 24.3001 16.8892C24.3001 17.8692 24.3001 18.8592 24.3001 19.8392C24.3001 20.0792 24.2701 20.3092 24.2001 20.5392C23.9701 21.2492 23.4701 21.6392 22.7301 21.7392C22.1101 21.8292 21.2101 21.5692 20.8201 21.1292C20.9701 20.9692 21.1201 20.8092 21.2601 20.6492C21.3701 20.6492 21.4501 20.7292 21.5301 20.7692C21.8201 20.9092 22.1301 20.9792 22.4601 20.9792C23.1301 20.9792 23.4501 20.6492 23.4401 19.9592C23.3801 19.9292 23.3501 19.9892 23.3101 20.0192C22.8101 20.4192 22.2501 20.4392 21.6701 20.2292C21.1601 20.0492 20.9001 19.6392 20.7801 19.1392C20.7501 19.0192 20.7201 18.8892 20.7201 18.7592C20.7201 18.0792 20.7201 17.3892 20.7201 16.6892V16.6692ZM16.6201 17.1092C17.2801 16.4592 18.1501 16.4392 19.0801 17.0692V16.6792C19.3601 16.6292 19.6201 16.6492 19.9001 16.6692V20.3692H19.1101C19.0601 20.2492 19.1101 20.1292 19.0601 19.9892C18.5201 20.4092 17.9301 20.5692 17.2801 20.3392C16.8801 20.1992 16.5701 19.9492 16.3401 19.5992C15.8401 18.8192 15.9601 17.7592 16.6201 17.1292V17.1092ZM12.2301 15.4792C12.3101 15.4092 12.4001 15.4392 12.4801 15.4392C13.0001 15.4392 13.5301 15.4392 14.0501 15.4392C15.0801 15.4592 15.8601 16.2892 15.8101 17.3192C15.7701 18.1892 15.0201 18.9392 14.1501 18.9692C13.8901 18.9692 13.6401 18.9692 13.3801 18.9692C13.3001 18.9692 13.2101 18.9492 13.1101 19.0092V20.3292C12.8001 20.3492 12.5201 20.3492 12.2301 20.3292V15.4792Z" fill="#C9010F"/>
</svg>
