<svg width="52" height="36" viewBox="0 0 52 36" fill="none" xmlns="http://www.w3.org/2000/svg">
<g clip-path="url(#clip0_2280_4085)">
<rect width="52" height="36" rx="4" fill="white"/>
<path d="M48 0H4C1.79086 0 0 1.79086 0 4V32C0 34.2091 1.79086 36 4 36H48C50.2091 36 52 34.2091 52 32V4C52 1.79086 50.2091 0 48 0Z" fill="white"/>
<path d="M48 0H4C1.79086 0 0 1.79086 0 4V32C0 34.2091 1.79086 36 4 36H48C50.2091 36 52 34.2091 52 32V4C52 1.79086 50.2091 0 48 0Z" fill="#D3D3D3"/>
<path d="M47.3198 0.550781H4.6798C2.53694 0.550781 0.799805 2.28792 0.799805 4.43078V31.5608C0.799805 33.7036 2.53694 35.4408 4.6798 35.4408H47.3198C49.4627 35.4408 51.1998 33.7036 51.1998 31.5608V4.43078C51.1998 2.28792 49.4627 0.550781 47.3198 0.550781Z" fill="white"/>
<path d="M2.83984 14.4805V21.5205H9.87984L2.83984 14.4805Z" fill="#56788C"/>
<path d="M9.87984 14.4805H2.83984V21.5205L9.87984 14.4805Z" fill="#043D5E"/>
<path d="M36.6298 18.4206H34.3798V17.7906C34.3798 17.2106 34.9198 16.7306 35.5098 16.7306C36.0998 16.7306 36.6398 17.2006 36.6398 17.7906V18.4206H36.6298ZM35.4998 15.8906C34.4498 15.8906 33.5298 16.7406 33.5298 17.7906V20.1106H34.3798V19.2606H36.6298V20.1106H37.4798V17.7906C37.4798 16.7406 36.5598 15.8906 35.5098 15.8906H35.4998Z" fill="#E8592D"/>
<path d="M48.31 18.4206H46.06V17.7906C46.06 17.2106 46.6 16.7306 47.19 16.7306C47.78 16.7306 48.32 17.2006 48.32 17.7906V18.4206H48.31ZM47.18 15.8906C46.13 15.8906 45.21 16.7406 45.21 17.7906V20.1106H46.06V19.2606H48.31V20.1106H49.16V17.7906C49.16 16.7406 48.24 15.8906 47.19 15.8906H47.18Z" fill="#E8592D"/>
<path d="M26.9201 19.2706C26.2201 19.2706 25.6501 18.7006 25.6501 18.0006C25.6501 17.3006 26.2201 16.7306 26.9201 16.7306C27.6201 16.7306 28.1901 17.3006 28.1901 18.0006C28.1901 18.7006 27.6201 19.2706 26.9201 19.2706ZM26.9201 15.8906C25.7501 15.8906 24.8101 16.8406 24.8101 18.0006C24.8101 19.1606 25.7601 20.1106 26.9201 20.1106C28.0801 20.1106 29.0301 19.1706 29.0301 18.0006C29.0301 16.8306 28.0801 15.8906 26.9201 15.8906Z" fill="#043D5E"/>
<path d="M23.2296 19.2706H21.9896V18.4206H23.2296C23.4596 18.4206 23.6496 18.6106 23.6496 18.8406C23.6496 19.0706 23.4596 19.2606 23.2296 19.2606V19.2706ZM21.9896 16.7406H22.8096C23.0396 16.7406 23.2296 16.9306 23.2296 17.1606C23.2296 17.3906 23.0396 17.5806 22.8096 17.5806H21.9896V16.7406ZM23.9096 17.7806C24.0096 17.6006 24.0696 17.3806 24.0696 17.1606C24.0696 16.4606 23.4996 15.8906 22.7996 15.8906H21.1396V20.1106H23.2196C23.9196 20.1106 24.4896 19.5406 24.4896 18.8406C24.4896 18.3906 24.2496 18.0006 23.8996 17.7706L23.9096 17.7806Z" fill="#043D5E"/>
<path d="M18.5397 19.2706C17.8397 19.2706 17.2697 18.7006 17.2697 18.0006C17.2697 17.3006 17.8397 16.7306 18.5397 16.7306C19.2397 16.7306 19.8097 17.3006 19.8097 18.0006C19.8097 18.7006 19.2397 19.2706 18.5397 19.2706ZM18.5397 15.8906C17.3697 15.8906 16.4297 16.8406 16.4297 18.0006C16.4297 19.1606 17.3697 20.1106 18.5397 20.1106C19.7097 20.1106 20.6497 19.1706 20.6497 18.0006C20.6497 16.8306 19.6997 15.8906 18.5397 15.8906Z" fill="#043D5E"/>
<path d="M40.1399 17.5904H39.1499C38.9199 17.5904 38.7299 17.4004 38.7299 17.1704C38.7299 16.9404 38.9199 16.7504 39.1499 16.7504H40.6999L41.2599 15.9004H39.1499C38.4499 15.9004 37.8799 16.4704 37.8799 17.1704C37.8799 17.8204 38.3799 18.3604 39.0099 18.4304H39.9999C40.2299 18.4304 40.4199 18.6204 40.4199 18.8504C40.4199 19.0804 40.2299 19.2704 39.9999 19.2704H38.4499L37.8899 20.1204H39.9999C40.6999 20.1204 41.2699 19.5504 41.2699 18.8504C41.2699 18.2004 40.7699 17.6604 40.1399 17.5904Z" fill="#E8592D"/>
<path d="M42.6797 15.8906C41.9797 15.8906 41.4097 16.4606 41.4097 17.1606C41.4097 17.8106 41.9097 18.3506 42.5397 18.4206H43.5297C43.7597 18.4206 43.9497 18.6106 43.9497 18.8406C43.9497 19.0706 43.7597 19.2606 43.5297 19.2606H41.9797L41.4197 20.1106H43.5297C44.2297 20.1106 44.7997 19.5406 44.7997 18.8406C44.7997 18.1906 44.2997 17.6506 43.6697 17.5806H42.6797C42.4497 17.5806 42.2597 17.3906 42.2597 17.1606C42.2597 16.9306 42.4497 16.7406 42.6797 16.7406H44.2297L44.7897 15.8906H42.6797Z" fill="#E8592D"/>
<path d="M33.0698 15.8906L31.3398 17.7306L33.1098 20.1106H32.1198L30.7798 18.3206L30.4398 18.7306V20.1106H29.5898V15.8906H30.4398V17.5506L31.9598 15.8906H33.0698Z" fill="#E8592D"/>
<path d="M13.5399 17.7906H14.6699C14.9799 17.7906 15.2299 17.5406 15.2299 17.2306C15.2299 16.9206 14.9799 16.6706 14.6699 16.6706H13.5399V17.8006V17.7906ZM13.5399 20.1106H12.6899V15.8906H14.6799C15.0399 15.8906 15.3399 16.0106 15.5999 16.2606C15.8599 16.5106 16.0699 16.8706 16.0699 17.2306C16.0699 17.5606 15.9999 17.8206 15.7899 18.0806C15.5899 18.3206 15.3899 18.5106 15.0899 18.5706L16.1499 20.1206H15.1599L14.1699 18.6606C14.1299 18.6106 14.0699 18.5706 13.9999 18.5706H13.5399V20.1206V20.1106Z" fill="#043D5E"/>
</g>
<rect x="0.5" y="0.5" width="51" height="35" rx="3.5" stroke="#EAEAEA"/>
<defs>
<clipPath id="clip0_2280_4085">
<rect width="52" height="36" rx="4" fill="white"/>
</clipPath>
</defs>
</svg>
