<svg width="52" height="36" viewBox="0 0 52 36" fill="none" xmlns="http://www.w3.org/2000/svg">
<rect x="0.5" y="0.5" width="51" height="35" rx="3.5" fill="white"/>
<rect x="0.5" y="0.5" width="51" height="35" rx="3.5" stroke="#EAEAEA"/>
<path d="M36.6297 18.5292C36.8997 18.4192 37.0797 18.1492 37.0797 17.8592V11.1492C37.0797 10.6292 36.6597 10.2092 36.1397 10.1992H36.0597C34.5797 10.1992 33.1597 10.7892 32.0997 11.8192C31.3397 12.5692 31.3297 13.7992 32.0797 14.5692L35.8297 18.3692C36.0397 18.5792 36.3497 18.6392 36.6197 18.5292H36.6297Z" fill="#3576E5"/>
<path d="M14.3099 8.14837C14.0399 8.25837 13.8599 8.52837 13.8599 8.81837V15.5284C13.8599 16.0484 14.2799 16.4684 14.7999 16.4784H14.8799C16.3599 16.4784 17.7799 15.8884 18.8399 14.8584C19.5999 14.1084 19.6099 12.8784 18.8599 12.1084L15.1099 8.30837C14.9099 8.09837 14.5899 8.02837 14.3199 8.14837H14.3099Z" fill="#3576E5"/>
<path d="M20.2797 24.5087C20.3897 24.7787 20.6597 24.9586 20.9497 24.9586H27.6597C28.1797 24.9586 28.5997 24.5387 28.6097 24.0187V23.9387C28.6097 22.4587 28.0197 21.0386 26.9897 19.9786C26.2397 19.2186 25.0097 19.2086 24.2397 19.9586L20.4397 23.7186C20.2297 23.9186 20.1697 24.2387 20.2797 24.5087Z" fill="#3576E5"/>
<path d="M30.6698 2.17852C30.5598 1.90852 30.2898 1.72852 29.9998 1.72852H23.2898C22.7698 1.72852 22.3498 2.14852 22.3398 2.66852V2.74852C22.3398 4.22852 22.9198 5.64852 23.9598 6.69852C24.7098 7.45852 25.9398 7.46852 26.7098 6.71852L30.5098 2.96852C30.7198 2.76852 30.7898 2.44852 30.6698 2.17852Z" fill="#3576E5"/>
<path d="M29.6897 24.8992C29.9597 25.0192 30.2797 24.9492 30.4797 24.7392L35.2297 19.9892C35.5997 19.6192 35.5997 19.0292 35.2397 18.6592C35.2197 18.6392 35.1997 18.6192 35.1797 18.5992C34.1297 17.5592 32.7197 16.9592 31.2397 16.9492C30.1697 16.9492 29.2897 17.8092 29.2797 18.8792L29.2397 24.2192C29.2397 24.5092 29.4097 24.7792 29.6797 24.8892L29.6897 24.8992Z" fill="#3576E5"/>
<path d="M21.2594 1.77923C20.9894 1.65923 20.6694 1.72923 20.4694 1.93923L15.7294 6.68923C15.3594 7.05923 15.3594 7.64923 15.7194 8.01923L15.7794 8.07923C16.8294 9.11923 18.2394 9.71923 19.7194 9.72923C20.7894 9.72923 21.6694 8.86923 21.6794 7.79923L21.7194 2.45923C21.7194 2.16923 21.5494 1.89923 21.2794 1.78923L21.2594 1.77923Z" fill="#3576E5"/>
<path d="M13.9196 17.5591C13.7996 17.8291 13.8596 18.1491 14.0796 18.3591L18.8296 23.1091C19.1996 23.4791 19.7896 23.4791 20.1596 23.1191L20.2196 23.0591C21.2596 22.0091 21.8596 20.5991 21.8696 19.1191C21.8696 18.0491 21.0096 17.1691 19.9396 17.1591L14.5996 17.1191C14.3096 17.1191 14.0396 17.2891 13.9296 17.5591H13.9196Z" fill="#3576E5"/>
<path d="M37.0296 9.12908C37.1496 8.85908 37.0796 8.53908 36.8696 8.33908L32.1196 3.59908C31.7496 3.22908 31.1596 3.22908 30.7896 3.58908C30.7696 3.60908 30.7496 3.62908 30.7296 3.64908C29.6896 4.69908 29.0896 6.10908 29.0796 7.58908C29.0796 8.65908 29.9396 9.53908 31.0096 9.54908L36.3496 9.58908C36.6396 9.58908 36.9096 9.41908 37.0196 9.14908L37.0296 9.12908Z" fill="#3576E5"/>
<path d="M39.3498 28.049C39.4498 27.929 39.5198 27.819 39.6098 27.739C39.9698 27.409 40.3998 27.309 40.8598 27.339C41.2198 27.359 41.5598 27.479 41.8298 27.719C41.9098 27.789 41.9798 27.879 42.0398 27.969C42.0798 28.039 42.1098 28.059 42.1698 27.979C42.6998 27.249 43.9198 27.169 44.5898 27.589C45.0798 27.899 45.3098 28.359 45.3498 28.909C45.3998 29.669 45.3598 30.439 45.3698 31.199C45.3698 31.419 45.3698 31.649 45.3698 31.869C45.3698 31.969 45.3398 32.019 45.2298 32.009C44.9798 32.009 44.7298 32.009 44.4798 32.009C44.3698 32.009 44.3398 31.969 44.3398 31.869C44.3398 31.099 44.3398 30.329 44.3398 29.559C44.3398 29.379 44.3298 29.199 44.2898 29.019C44.1898 28.529 43.8598 28.249 43.3798 28.239C42.8698 28.239 42.5098 28.509 42.3998 28.999C42.3698 29.149 42.3498 29.309 42.3498 29.469C42.3498 30.259 42.3498 31.049 42.3498 31.839C42.3498 31.9524 42.2898 32.009 42.1698 32.009C41.9298 32.009 41.6998 32.009 41.4598 32.009C41.3498 32.009 41.3098 31.969 41.3098 31.859C41.3098 31.029 41.3098 30.209 41.3098 29.379C41.3098 29.099 41.2598 28.839 41.1098 28.609C40.7798 28.069 39.7898 28.099 39.4898 28.719C39.3898 28.919 39.3498 29.129 39.3498 29.359C39.3498 30.189 39.3498 31.009 39.3498 31.839C39.3498 32.009 39.3498 32.009 39.1698 32.019C38.9298 32.019 38.6998 32.019 38.4598 32.019C38.2998 32.019 38.2998 32.019 38.2998 31.859C38.2998 30.759 38.2998 29.649 38.2998 28.549C38.2998 28.229 38.2998 27.919 38.2998 27.599C38.2998 27.449 38.2998 27.439 38.4598 27.439C38.6598 27.439 38.8698 27.439 39.0698 27.439C39.1698 27.439 39.2198 27.469 39.2398 27.579C39.2598 27.729 39.2898 27.879 39.3198 28.059L39.3498 28.049Z" fill="#002E87"/>
<path d="M8.70978 28.2888C9.16978 27.6188 9.81978 27.4888 10.5398 27.5588C10.9398 27.5988 11.2998 27.7288 11.6198 27.9688C12.0198 28.2588 12.2698 28.6488 12.3998 29.1288C12.5198 29.5888 12.5198 30.0488 12.3798 30.5088C12.1598 31.2288 11.6698 31.7088 10.9598 31.9488C10.3598 32.1488 9.75978 32.1488 9.16978 31.9188C8.36978 31.6188 7.89978 31.0188 7.76978 30.1888C7.63978 29.3388 7.61978 28.4688 7.84978 27.6288C8.12978 26.5888 8.78978 25.9188 9.85978 25.6888C10.2398 25.6088 10.6198 25.5788 11.0098 25.5388C11.3098 25.4988 11.6098 25.4688 11.9098 25.4288C12.0998 25.3988 12.1098 25.4088 12.1098 25.5988C12.1098 25.7888 12.1098 25.9788 12.1098 26.1688C12.1098 26.2688 12.0798 26.3088 11.9798 26.3188C11.3798 26.3888 10.7798 26.4388 10.1898 26.5288C9.45978 26.6388 8.94978 27.0788 8.77978 27.8788C8.74978 28.0088 8.71978 28.1388 8.72978 28.3088L8.70978 28.2888ZM8.72978 29.7788C8.72978 30.5788 9.29978 31.1488 10.0998 31.1488C10.9098 31.1488 11.4798 30.5788 11.4798 29.7688C11.4798 28.9688 10.8998 28.3988 10.0998 28.3988C9.29978 28.3988 8.72978 28.9688 8.72978 29.7688V29.7788Z" fill="#002E87"/>
<path d="M30.9797 31.3694C30.9397 31.4194 30.9097 31.4794 30.8597 31.5194C30.0097 32.2994 28.5597 32.2794 27.7397 31.4694C27.3497 31.0794 27.1497 30.6094 27.0897 30.0694C27.0297 29.5894 27.0797 29.1094 27.2797 28.6694C27.6297 27.8794 28.2497 27.4394 29.1097 27.3594C29.7397 27.2994 30.2897 27.4694 30.7897 27.8594C30.8497 27.9094 30.9097 27.9694 30.9697 28.0294C31.0197 28.0794 31.0397 28.0594 31.0497 27.9994C31.0697 27.8594 31.1097 27.7294 31.1197 27.5894C31.1297 27.4794 31.1697 27.4294 31.2997 27.4294C31.4997 27.4294 31.7097 27.4294 31.9097 27.4294C32.0297 27.4294 32.0597 27.4594 32.0597 27.5794C32.0597 28.3394 32.0597 29.1094 32.0597 29.8694C32.0597 30.5294 32.0597 31.1994 32.0597 31.8594C32.0597 32.0094 32.0597 32.0094 31.8997 32.0094C31.6497 32.0094 31.3997 32.0094 31.1497 32.0094C31.0597 32.0094 31.0197 31.9794 31.0297 31.8894C31.0297 31.7294 31.0297 31.5594 31.0297 31.3994C31.0097 31.3894 30.9997 31.3794 30.9797 31.3694ZM31.0097 29.7294C31.0097 28.8894 30.4197 28.2994 29.5897 28.2894C28.7297 28.2894 28.1197 28.8694 28.1197 29.6994C28.1197 30.5494 28.7097 31.1494 29.5697 31.1494C30.4097 31.1494 31.0097 30.5494 31.0197 29.7194L31.0097 29.7294Z" fill="#002E87"/>
<path d="M15.8695 30.0684C15.3095 30.0684 14.7595 30.0684 14.1995 30.0684C14.0595 30.0684 14.0595 30.0684 14.0795 30.2184C14.1895 30.7684 14.6895 31.1884 15.2695 31.2284C15.6295 31.2484 15.9695 31.2084 16.2795 30.9884C16.3695 30.9284 16.4495 30.8484 16.5195 30.7684C16.5595 30.7184 16.6195 30.6984 16.6795 30.6984C16.9295 30.6984 17.1795 30.6984 17.4295 30.6984C17.5495 30.6984 17.5695 30.7184 17.5095 30.8384C17.2395 31.4184 16.7795 31.7984 16.1795 31.9784C15.3795 32.2184 14.6195 32.1184 13.9395 31.6384C13.3695 31.2384 13.0895 30.6484 13.0395 29.9584C12.9895 29.2684 13.1495 28.6384 13.6095 28.1084C13.9795 27.6884 14.4495 27.4484 14.9995 27.3684C15.5895 27.2884 16.1595 27.3684 16.6695 27.7084C17.2195 28.0584 17.4995 28.5984 17.6295 29.2184C17.6795 29.4484 17.6995 29.6884 17.6995 29.9284C17.6995 30.0384 17.6595 30.0784 17.5495 30.0784C16.9895 30.0784 16.4295 30.0784 15.8695 30.0784V30.0684ZM15.3495 29.2784C15.7395 29.2784 16.1195 29.2784 16.5095 29.2784C16.6195 29.2784 16.6495 29.2384 16.6295 29.1384C16.5895 28.9284 16.5095 28.7384 16.3595 28.5884C16.0095 28.2284 15.5795 28.1284 15.0995 28.2084C14.5795 28.2884 14.1795 28.6784 14.0895 29.1584C14.0695 29.2584 14.0995 29.2784 14.1895 29.2784C14.5795 29.2784 14.9695 29.2784 15.3595 29.2784H15.3495Z" fill="#002E87"/>
<path d="M22.3197 29.7197C22.3197 30.4297 22.3197 31.1397 22.3197 31.8497C22.3197 31.9597 22.2897 32.0097 22.1697 31.9997C21.9397 31.9997 21.7097 31.9997 21.4697 31.9997C21.2997 31.9997 21.2997 31.9997 21.2997 31.8397C21.2997 30.7397 21.2997 29.6397 21.2997 28.5397C21.2997 28.4197 21.2397 28.3597 21.1197 28.3597C20.7097 28.3597 20.3097 28.3597 19.8997 28.3597C19.7731 28.3597 19.7097 28.423 19.7097 28.5497C19.7097 29.1597 19.7097 29.7797 19.7097 30.3897C19.7097 30.7397 19.6097 31.0797 19.4097 31.3697C19.1297 31.7797 18.7197 31.9797 18.2397 32.0197C17.9897 32.0397 17.9897 32.0297 17.9897 31.7797C17.9897 31.5897 17.9897 31.4097 17.9897 31.2197C17.9897 31.1597 18.0097 31.1197 18.0797 31.0997C18.4697 31.0297 18.6697 30.7897 18.6997 30.3897C18.6997 30.3097 18.6997 30.2397 18.6997 30.1597C18.6997 29.2997 18.6997 28.4497 18.6997 27.5897C18.6997 27.4397 18.6997 27.4297 18.8597 27.4297C19.9597 27.4297 21.0497 27.4297 22.1497 27.4297C22.2997 27.4297 22.2997 27.4297 22.2997 27.5897C22.2997 28.2997 22.2997 29.0097 22.2997 29.7197H22.3197Z" fill="#002E87"/>
<path d="M24.1697 29.2282C24.3597 29.0482 24.5197 28.8982 24.6797 28.7482C25.0997 28.3382 25.5197 27.9382 25.9297 27.5282C25.9997 27.4582 26.0697 27.4282 26.1697 27.4282C26.4797 27.4282 26.7897 27.4282 27.0997 27.4282C27.1297 27.4282 27.1697 27.4182 27.1797 27.4482C27.1997 27.4882 27.1597 27.4982 27.1397 27.5182C26.6097 28.0382 26.0797 28.5482 25.5497 29.0682C25.3997 29.2082 25.2597 29.3582 25.1097 29.4882C25.0497 29.5382 25.0597 29.5682 25.1097 29.6282C25.7797 30.3682 26.4497 31.1082 27.1197 31.8482C27.1297 31.8582 27.1397 31.8682 27.1497 31.8782C27.1697 31.8982 27.1997 31.9282 27.1897 31.9582C27.1797 31.9982 27.1397 31.9782 27.1097 31.9782C26.7897 31.9782 26.4597 31.9782 26.1397 31.9782C26.0697 31.9782 26.0297 31.9482 25.9797 31.8982C25.4197 31.2582 24.8497 30.6182 24.2797 29.9882C24.2597 29.9582 24.2397 29.9282 24.2197 29.8982C24.1697 29.9582 24.1797 29.9982 24.1797 30.0382C24.1797 30.6282 24.1797 31.2282 24.1797 31.8182C24.1797 31.9782 24.1797 31.9782 24.0297 31.9782C23.7897 31.9782 23.5497 31.9782 23.3097 31.9782C23.1597 31.9782 23.1597 31.9782 23.1597 31.8182C23.1597 30.7982 23.1597 29.7782 23.1597 28.7482C23.1597 28.3482 23.1597 27.9582 23.1597 27.5582C23.1597 27.4182 23.1697 27.4082 23.3097 27.4082C23.5497 27.4082 23.7997 27.4082 24.0397 27.4082C24.1497 27.4082 24.1897 27.4482 24.1797 27.5582C24.1797 28.0582 24.1797 28.5482 24.1797 29.0482V29.2082L24.1697 29.2282Z" fill="#002E87"/>
</svg>
