<svg width="52" height="36" viewBox="0 0 52 36" fill="none" xmlns="http://www.w3.org/2000/svg">
<rect x="0.5" y="0.5" width="51" height="35" rx="3.5" fill="white"/>
<rect x="0.5" y="0.5" width="51" height="35" rx="3.5" stroke="#EAEAEA"/>
<path d="M7.55 20.7202H5.7C4.19 20.7202 3.46 19.8502 3.46 18.0402C3.46 16.3302 4.26 15.4802 5.84 15.4802H7.55V20.7302V20.7202ZM7.55 13.9602H5.55C4.41 13.9602 3.55 14.2002 2.94 14.6702C2.02 15.3802 1.5 16.6602 1.5 18.1502C1.5 19.4902 1.91 20.6102 2.64 21.3102C3.35 21.9902 4.13 22.2302 5.71 22.2302H9.48V10.9102H7.56V13.9702L7.55 13.9602Z" fill="#9B1813"/>
<path d="M19.4499 13.9704H17.9399V15.4804H19.4499V19.4704C19.4499 20.6604 19.6199 21.2404 20.0799 21.6904C20.5199 22.1004 20.9999 22.2304 22.0299 22.2304H23.6599V20.7204H22.7299C21.5799 20.7204 21.3699 20.5004 21.3699 19.2104V15.4704H23.6599V13.9604H21.3699V10.9004H19.4499V13.9604V13.9704Z" fill="#9B1813"/>
<path d="M26.0699 15.4809H27.6499C29.2599 15.4809 30.0299 16.2909 30.0299 18.0109C30.0299 18.9809 29.8099 19.7409 29.3999 20.1709C29.0599 20.5409 28.4299 20.7309 27.5699 20.7309H26.0799V15.4809H26.0699ZM24.1499 13.9709V25.0909H26.0699V22.2309H27.8399C29.4199 22.2309 30.1499 22.0109 30.8499 21.3509C31.5799 20.6409 32.0199 19.4509 32.0199 18.1409C32.0199 16.7009 31.6099 15.5609 30.8099 14.8309C30.0799 14.1709 29.3999 13.9609 27.7999 13.9609H24.1499V13.9709Z" fill="#1D1D1B"/>
<path d="M38.3698 18.7007V20.7207H35.6698C34.6298 20.7207 34.2298 20.4507 34.2298 19.7407C34.2298 19.2807 34.4298 18.9407 34.7698 18.8107C34.9698 18.7307 35.1598 18.7107 35.6698 18.7107H38.3698V18.7007ZM35.4998 17.1907C34.5498 17.1907 33.9398 17.2707 33.5498 17.4607C32.7498 17.8207 32.2598 18.7007 32.2598 19.7507C32.2598 20.5807 32.5798 21.2907 33.1598 21.7407C33.6998 22.1507 34.1598 22.2307 35.8398 22.2307H40.2898V17.2607C40.2898 15.9507 40.1398 15.3607 39.6598 14.8007C39.1198 14.1507 38.4898 13.9707 36.7598 13.9707H32.6998V15.4807H36.5698C37.5198 15.4807 37.8798 15.6007 38.1298 15.9607C38.3298 16.2507 38.3698 16.4907 38.3698 17.2007H35.4998V17.1907Z" fill="#1D1D1B"/>
<path d="M46.22 20.7209H44.23C43.04 20.7209 42.7 20.2809 42.7 18.6809V13.9609H40.78V18.5409C40.78 20.1709 40.88 20.6609 41.36 21.2609C41.94 21.9609 42.68 22.2309 44.04 22.2309H46.21C46.18 22.9109 46.13 23.1009 45.87 23.2709C45.65 23.4609 45.39 23.4909 44.56 23.4909H40.77V25.0009H44.61C46.12 25.0009 46.78 24.8109 47.33 24.2709C47.87 23.7109 48.13 22.7809 48.13 21.4109V13.9609H46.21V20.7209H46.22Z" fill="#1D1D1B"/>
<path d="M14.7899 16.3105H13.3399C13.3399 16.3105 13.2599 16.3305 13.2299 16.3605C13.1999 16.3905 13.1699 16.4405 13.1699 16.5005V17.7305H14.9599V16.5005C14.9599 16.4405 14.9399 16.3905 14.8999 16.3605C14.8699 16.3305 14.8299 16.3105 14.7899 16.3105Z" fill="#9B1813"/>
<path d="M15.9102 20.0195C15.9102 20.3295 15.6502 20.5895 15.3402 20.5895H12.7202C12.4102 20.5895 12.1502 20.3295 12.1502 20.0195V18.3195C12.1502 18.0895 12.2902 17.8795 12.5002 17.7995V16.5195C12.5002 16.0795 12.8502 15.6895 13.3002 15.6895H14.7502C15.2102 15.6895 15.5502 16.0695 15.5502 16.5195V17.7895C15.7602 17.8695 15.9002 18.0795 15.9002 18.3195V20.0195H15.9102ZM14.0702 14.0195C11.8102 14.0195 9.97021 15.8495 9.97021 18.1195C9.97021 20.3895 11.8002 22.2195 14.0702 22.2195C16.3402 22.2195 18.1702 20.3895 18.1702 18.1195C18.1702 15.8495 16.3402 14.0195 14.0702 14.0195Z" fill="#9B1813"/>
<path d="M49.1501 12.0397H49.2801C49.4301 12.0397 49.5501 11.9897 49.5501 11.8697C49.5501 11.7597 49.4701 11.6897 49.3001 11.6897C49.2301 11.6897 49.1801 11.6897 49.1501 11.6997V12.0297V12.0397ZM49.1501 12.6897H48.8801V11.5397C48.9901 11.5197 49.1301 11.4997 49.3301 11.4997C49.5501 11.4997 49.6501 11.5397 49.7301 11.5897C49.7901 11.6397 49.8401 11.7297 49.8401 11.8397C49.8401 11.9697 49.7401 12.0697 49.6001 12.1197C49.7101 12.1697 49.7801 12.2597 49.8101 12.4197C49.8501 12.5997 49.8701 12.6697 49.8901 12.6997H49.6001C49.6001 12.6997 49.5401 12.5597 49.5101 12.4197C49.4901 12.2897 49.4201 12.2397 49.2701 12.2397H49.1401V12.6997L49.1501 12.6897ZM49.3301 11.1597C48.8201 11.1597 48.4401 11.5797 48.4401 12.0897C48.4401 12.5997 48.8201 13.0197 49.3401 13.0197C49.8501 13.0197 50.2201 12.6097 50.2201 12.0897C50.2201 11.5697 49.8501 11.1597 49.3301 11.1597ZM49.3401 10.9297C50.0001 10.9297 50.5201 11.4497 50.5201 12.0897C50.5201 12.7297 50.0001 13.2597 49.3301 13.2597C48.6601 13.2597 48.1401 12.7497 48.1401 12.0897C48.1401 11.4297 48.6701 10.9297 49.3301 10.9297H49.3401Z" fill="#1D1D1B"/>
</svg>
