<svg width="52" height="36" viewBox="0 0 52 36" fill="none" xmlns="http://www.w3.org/2000/svg">
<rect x="0.5" y="0.5" width="51" height="35" rx="3.5" fill="white"/>
<rect x="0.5" y="0.5" width="51" height="35" rx="3.5" stroke="#EAEAEA"/>
<path fill-rule="evenodd" clip-rule="evenodd" d="M9.52016 17.9194C9.48016 17.8494 9.43016 17.7794 9.37016 17.7194C9.29016 17.6394 9.18016 17.5694 9.05016 17.5194C8.92016 17.4694 8.77016 17.4294 8.63016 17.4094C8.45016 17.3794 8.28016 17.3594 8.15016 17.3594C8.03016 17.3594 7.96016 17.3594 7.96016 17.3594H5.21016L4.16016 23.6994H5.14016L5.53016 21.3494H7.43016C7.43016 21.3494 8.17016 21.3894 8.70016 21.1094C9.23016 20.8294 9.37016 20.1994 9.37016 20.1994C9.37016 20.1994 9.43016 19.9694 9.48016 19.6794C9.53016 19.3594 9.59016 18.9894 9.61016 18.7894C9.62016 18.6994 9.63016 18.6494 9.63016 18.6494C9.63016 18.6494 9.64016 18.5894 9.64016 18.4794C9.64016 18.3394 9.62016 18.1294 9.51016 17.9194H9.52016ZM8.62016 18.8294C8.62016 18.8394 8.53016 19.3494 8.42016 19.9494C8.38016 20.1794 8.20016 20.2994 8.00016 20.3494C7.66016 20.4194 7.30016 20.4094 7.30016 20.4094H5.71016L6.06016 18.2994H7.50016C7.50016 18.2994 7.60016 18.2994 7.73016 18.2994C7.88016 18.2994 8.09016 18.2994 8.26016 18.3294C8.41016 18.3494 8.52016 18.3794 8.56016 18.4194C8.61016 18.4794 8.63016 18.5594 8.63016 18.6294C8.63016 18.7094 8.63016 18.7894 8.63016 18.8094L8.62016 18.8294Z" fill="#CF3239"/>
<path fill-rule="evenodd" clip-rule="evenodd" d="M16.9199 19.1191H13.3199L13.1699 20.0191H15.4799L12.5899 22.7791L12.4399 23.6991H16.1599L16.3099 22.8091L13.7799 22.8191L16.7899 19.9391L16.9199 19.1191Z" fill="#CF3239"/>
<path fill-rule="evenodd" clip-rule="evenodd" d="M21.81 17.3496H22.75L21.7 23.6996H20.75L21.81 17.3496Z" fill="#CF3239"/>
<path fill-rule="evenodd" clip-rule="evenodd" d="M27.7501 19.1191H26.8501L27.3101 23.6991L28.4101 23.6891L29.8101 20.4891L30.1401 23.6891H31.2501L33.2501 19.1191H32.3101L30.9101 22.3491L30.5901 19.1191H29.4701L28.0701 22.3391L27.7501 19.1191Z" fill="#CF3239"/>
<path fill-rule="evenodd" clip-rule="evenodd" d="M20.0601 19.1586C19.8001 19.0686 19.3401 19.0586 18.9501 19.0586C18.5701 19.0586 18.4001 19.0786 18.2601 19.1086C18.2601 19.1086 17.5901 19.2086 17.2101 19.6786C16.8301 20.1486 16.7201 21.1786 16.7201 21.1786C16.7201 21.1786 16.4901 22.3186 16.5601 22.6986C16.6301 23.0786 16.7401 23.4286 17.1701 23.5886C17.6001 23.7586 17.9601 23.7486 17.9601 23.7486C17.9601 23.7486 18.7201 23.8086 19.3001 23.6686C19.8801 23.5286 20.1801 23.1286 20.1801 23.1286C20.1801 23.1286 20.3201 22.9486 20.4101 22.7486C20.5001 22.5586 20.5301 22.4186 20.5401 22.3886L20.6001 22.1386H19.6201C19.6201 22.1386 19.5701 22.7886 19.0401 22.8486C18.5601 22.8986 18.2801 22.8886 18.1601 22.8786H18.1301C18.1301 22.8786 18.1101 22.8786 18.1001 22.8786C17.9501 22.8786 17.4601 22.8686 17.5101 22.4286C17.5101 22.4286 17.5101 22.4086 17.5101 22.3986C17.5401 21.8586 17.6001 21.7186 17.6001 21.7186H20.6801L20.8101 20.9486C20.9601 20.0886 20.8501 19.4286 20.0701 19.1686L20.0601 19.1586ZM19.8501 20.8286H17.7401L17.8201 20.4886C17.8201 20.4886 17.8901 20.2286 18.0401 20.1186C18.1901 20.0086 18.3701 19.9886 18.5501 19.9686C18.7301 19.9486 19.1901 19.9186 19.5701 19.9986C19.7001 20.0286 19.8201 20.0986 19.8501 20.1986C19.9201 20.4486 19.8501 20.8286 19.8501 20.8286Z" fill="#CF3239"/>
<path fill-rule="evenodd" clip-rule="evenodd" d="M25.8702 19.1586C25.6102 19.0686 25.1502 19.0586 24.7602 19.0586C24.3802 19.0586 24.2102 19.0786 24.0702 19.1086C24.0702 19.1086 23.4002 19.2086 23.0202 19.6786C22.6402 20.1486 22.5302 21.1786 22.5302 21.1786C22.5302 21.1786 22.3002 22.3186 22.3702 22.6986C22.4402 23.0786 22.5502 23.4286 22.9802 23.5886C23.4102 23.7586 23.7702 23.7486 23.7702 23.7486C23.7702 23.7486 24.5302 23.8086 25.1102 23.6686C25.6902 23.5286 25.9902 23.1286 25.9902 23.1286C25.9902 23.1286 26.1302 22.9486 26.2202 22.7486C26.3102 22.5586 26.3402 22.4186 26.3502 22.3886L26.4102 22.1386H25.4302C25.4302 22.1386 25.3802 22.7886 24.8502 22.8486C24.3902 22.8986 24.1202 22.8886 23.9802 22.8886C23.9602 22.8886 23.9402 22.8886 23.9302 22.8886C23.9302 22.8886 23.9102 22.8886 23.9002 22.8886C23.7502 22.8886 23.2602 22.8786 23.3002 22.4386C23.3002 22.4386 23.3002 22.4186 23.3002 22.4086C23.3302 21.8686 23.3902 21.7286 23.3902 21.7286H26.4702L26.6002 20.9586C26.7502 20.0986 26.6402 19.4386 25.8602 19.1786L25.8702 19.1586ZM25.6602 20.8286H23.5502L23.6302 20.4886C23.6302 20.4886 23.7002 20.2286 23.8502 20.1186C24.0002 20.0086 24.1802 19.9886 24.3602 19.9686C24.5402 19.9486 25.0002 19.9186 25.3802 19.9986C25.5102 20.0286 25.6302 20.0986 25.6602 20.1986C25.7302 20.4486 25.6602 20.8286 25.6602 20.8286Z" fill="#CF3239"/>
<path fill-rule="evenodd" clip-rule="evenodd" d="M34.3302 19.1194L34.9402 22.4594L36.6502 19.1094H37.6102L35.1402 23.8994C35.1402 23.8994 34.6902 24.7694 34.4202 24.9794C34.1502 25.1894 33.9702 25.2994 33.7502 25.3194H33.6902C33.5102 25.3494 33.4102 25.3594 33.2202 25.3194L32.9902 25.2794L33.1302 24.4294C33.1302 24.4294 33.5102 24.4994 33.7402 24.4094C33.9702 24.3194 34.1502 23.9294 34.1502 23.9294L34.2702 23.7394L33.3802 19.1094H34.3402L34.3302 19.1194Z" fill="#CF3239"/>
<path fill-rule="evenodd" clip-rule="evenodd" d="M11.0701 19.4391C11.3801 19.2691 11.7401 19.1191 12.1201 19.1191H12.6701L12.5101 19.9991H11.9901C11.2401 19.9991 10.8601 20.6391 10.7701 21.1491L10.3201 23.6691H9.31006L10.1201 19.1191H11.1301L11.0801 19.4391H11.0701Z" fill="#CF3239"/>
<path fill-rule="evenodd" clip-rule="evenodd" d="M30.5903 12.9893L31.7603 10.6393C31.7603 10.6393 34.3203 10.5893 36.5403 10.9293C38.7503 11.2693 40.7703 11.7993 40.7303 11.8193L35.1203 14.7493C35.1203 14.7493 33.8103 13.9193 32.1803 13.4093C31.2603 13.1393 30.5903 12.9893 30.5903 12.9893Z" fill="#B1B0AF"/>
<path fill-rule="evenodd" clip-rule="evenodd" d="M23.1802 11.8892L23.4202 13.2592C23.4202 13.2592 24.5502 12.9592 25.9002 12.7992C27.6402 12.5592 29.4902 12.8192 29.4902 12.8192L30.1902 10.6992C30.1902 10.6992 28.0902 10.8392 26.5002 11.1392C24.9202 11.4292 23.1802 11.8992 23.1802 11.8992V11.8892Z" fill="#B1B0AF"/>
<path fill-rule="evenodd" clip-rule="evenodd" d="M17.9601 15.5085L16.5601 14.5685C16.5601 14.5685 17.8301 13.8485 19.5201 13.1785C21.2101 12.5085 22.1101 12.2285 22.1101 12.2285L22.4001 13.5685C22.4001 13.5685 20.7801 14.1085 19.8501 14.5485C18.8901 14.9585 17.9801 15.5185 17.9801 15.5185L17.9601 15.5085Z" fill="#B1B0AF"/>
<path fill-rule="evenodd" clip-rule="evenodd" d="M14.4902 17.8795H11.4702C11.4702 17.8795 12.6502 16.9795 13.2402 16.5895C13.8502 16.1695 15.3002 15.2695 15.3002 15.2695L17.0102 16.0695C17.0102 16.0695 16.1302 16.6295 15.6502 16.9795C15.1702 17.3295 14.4902 17.8795 14.4902 17.8795Z" fill="#B1B0AF"/>
<path fill-rule="evenodd" clip-rule="evenodd" d="M37.96 19.5785H38.95L39.01 19.1985C39.01 19.1985 39.12 18.4985 39.35 18.3685C39.43 18.3285 39.55 18.2885 39.69 18.2585C39.95 18.2085 40.28 18.2085 40.55 18.2185H40.57C40.97 18.2285 41.12 18.2385 41.54 18.2885C41.96 18.3385 41.85 18.7385 41.85 18.7385L41.77 19.3485C41.77 19.3485 41.73 19.6185 41.64 19.7885C41.55 19.9385 41.32 20.0385 41.18 20.0785C40.85 20.1885 39.73 20.4685 39.73 20.4685L38.85 20.7185C38.85 20.7185 38.31 20.8785 38.01 21.2085C37.71 21.5485 37.59 21.9285 37.54 22.1185C37.49 22.3085 37.27 23.6885 37.27 23.6885H42.02L42.18 22.7385H38.42L38.49 22.3585C38.49 22.3585 38.53 21.9585 38.7 21.8285C38.7 21.8285 38.72 21.8185 38.72 21.8085C38.76 21.7685 38.82 21.7185 39.07 21.6285C39.25 21.5685 39.86 21.3985 39.86 21.3985L41.28 21.0085C41.28 21.0085 42.05 20.8085 42.36 20.3885C42.66 19.9685 42.78 19.1585 42.78 19.1585C42.78 19.1585 42.86 18.3685 42.8 18.1285C42.74 17.8785 42.51 17.5885 42.22 17.4585C41.94 17.3285 41.64 17.2585 40.79 17.2685C39.94 17.2785 39.51 17.3185 39.08 17.4785C38.65 17.6385 38.4 17.9285 38.24 18.3385C38.07 18.7285 37.97 19.5685 37.97 19.5685L37.96 19.5785Z" fill="#B1B0AF"/>
<path fill-rule="evenodd" clip-rule="evenodd" d="M46.9101 21.3396L47.5801 17.3496H46.4001L42.7301 21.2896L42.5601 22.2896H45.7701L45.5401 23.6896H46.5301L46.7601 22.2896H47.6701L47.8301 21.3396H46.9101ZM45.9301 21.3396H43.8501L46.3801 18.6396L45.9301 21.3396Z" fill="#B1B0AF"/>
<path fill-rule="evenodd" clip-rule="evenodd" d="M37.3604 16.3297L36.1304 15.3897L43.1504 12.6797L43.2004 12.6997C44.0904 13.1097 44.5904 13.3297 45.4704 13.8997C45.8204 14.1297 46.2904 14.4897 46.4004 14.6097C46.7204 14.9297 47.0304 15.2397 47.1904 15.5297C47.4604 15.9997 47.4804 16.3197 47.4804 16.3197H37.3504L37.3604 16.3297Z" fill="#B1B0AF"/>
</svg>
