<svg width="52" height="36" viewBox="0 0 52 36" fill="none" xmlns="http://www.w3.org/2000/svg">
<rect x="0.5" y="0.5" width="51" height="35" rx="3.5" fill="white"/>
<rect x="0.5" y="0.5" width="51" height="35" rx="3.5" stroke="#EAEAEA"/>
<path d="M4.61025 17.2191L6.51025 15.3191L8.41025 17.2191L9.51025 16.1191L6.51025 13.1191L3.51025 16.1191L4.61025 17.2191Z" fill="#EDB42F"/>
<path d="M1.62012 17.9984L2.72012 16.8984L3.82012 17.9984L2.72012 19.0984L1.62012 17.9984Z" fill="#EDB42F"/>
<path d="M4.61025 18.7793L6.51025 20.6793L8.41025 18.7793L9.51025 19.8793L6.51025 22.8793L3.51025 19.8793L4.61025 18.7793Z" fill="#EDB42F"/>
<path d="M9.18018 17.9984L10.2802 16.8984L11.3802 17.9984L10.2802 19.0984L9.18018 17.9984Z" fill="#EDB42F"/>
<path d="M7.62012 17.9989L6.50012 16.8789L5.67012 17.7089L5.57012 17.7989L5.37012 17.9989L6.49012 19.1189L7.61012 17.9989H7.62012Z" fill="#EDB42F"/>
<path d="M13.1001 15.4785H15.5001C16.1001 15.4785 16.5501 15.6285 16.8501 15.9385C17.0801 16.1685 17.2101 16.4885 17.2001 16.8085C17.2001 16.9585 17.1801 17.0885 17.1501 17.2185C17.1201 17.3285 17.0701 17.4285 17.0001 17.5285C16.9401 17.6185 16.8701 17.6985 16.7901 17.7685C16.7101 17.8385 16.6201 17.8985 16.5301 17.9485C16.8001 18.0385 17.0401 18.1985 17.2401 18.4085C17.4101 18.6085 17.5001 18.8785 17.5001 19.2185C17.5001 19.4485 17.4601 19.6585 17.3601 19.8585C17.2701 20.0385 17.1301 20.1885 16.9701 20.2985C16.7801 20.4285 16.5801 20.5185 16.3601 20.5685C16.1001 20.6285 15.8301 20.6585 15.5701 20.6585H13.1101V15.4785H13.1001ZM15.2601 17.5685C15.4701 17.5785 15.6701 17.5385 15.8601 17.4385C16.0101 17.3485 16.0901 17.1885 16.0801 17.0185C16.0801 16.8485 16.0201 16.6985 15.8901 16.6085C15.7601 16.5185 15.5801 16.4685 15.3401 16.4685H14.2201V17.5585H15.2701L15.2601 17.5685ZM15.5601 19.6585C15.7701 19.6685 15.9701 19.6185 16.1501 19.5185C16.2901 19.4285 16.3801 19.2585 16.3601 19.0885C16.3601 18.9085 16.2901 18.7585 16.1601 18.6685C16.0301 18.5685 15.8101 18.5185 15.5201 18.5185H14.2001V19.6585H15.5501H15.5601Z" fill="#EDB42F"/>
<path d="M18.9302 15.4785H20.0702V20.6585H18.9302V15.4785Z" fill="#EDB42F"/>
<path d="M21.7903 15.4785H22.8403L25.2703 18.6685V15.4785H26.3903V20.6585H25.4203L22.9103 17.3685V20.6585H21.7803V15.4785H21.7903Z" fill="#EDB42F"/>
<path d="M29.8399 15.4492H30.8899L33.1099 20.6592H31.9199L31.4499 19.4992H29.2599L28.7899 20.6592H27.6299L29.8499 15.4492H29.8399ZM31.0399 18.4992L30.3499 16.8192L29.6599 18.4992H31.0399Z" fill="#EDB42F"/>
<path d="M34.3403 15.4785H35.3903L37.8203 18.6685V15.4785H38.9403V20.6585H37.9703L35.4603 17.3685V20.6585H34.3403V15.4785Z" fill="#EDB42F"/>
<path d="M43.0399 20.7493C42.6799 20.7493 42.3199 20.6793 41.9799 20.5393C41.3399 20.2793 40.8399 19.7693 40.5799 19.1293C40.4499 18.7993 40.3799 18.4393 40.3799 18.0893C40.3799 17.3693 40.6499 16.6893 41.1299 16.1893C41.3699 15.9393 41.6599 15.7493 41.9799 15.6093C42.3299 15.4693 42.6999 15.3893 43.0699 15.3993C43.2899 15.3993 43.5099 15.4193 43.7299 15.4593C43.9199 15.4993 44.0999 15.5493 44.2699 15.6193C44.4299 15.6893 44.5799 15.7693 44.7199 15.8693C44.8599 15.9693 44.9899 16.0793 45.1099 16.1993L44.3899 17.0393C44.1999 16.8693 43.9999 16.7193 43.7699 16.6093C43.5499 16.4993 43.3099 16.4493 43.0599 16.4593C42.6499 16.4593 42.2599 16.6293 41.9799 16.9293C41.8499 17.0793 41.7399 17.2593 41.6699 17.4393C41.5999 17.6393 41.5599 17.8493 41.5599 18.0693C41.5599 18.2993 41.5999 18.5093 41.6699 18.7093C41.7399 18.8993 41.8399 19.0793 41.9799 19.2293C42.2499 19.5393 42.6499 19.7093 43.0599 19.7093C43.3199 19.7093 43.5799 19.6593 43.8099 19.5493C44.0299 19.4293 44.2399 19.2793 44.4199 19.1093L45.1399 19.8393C45.0099 19.9793 44.8699 20.1093 44.7299 20.2293C44.5799 20.3393 44.4299 20.4393 44.2599 20.5193C44.0799 20.5993 43.8899 20.6693 43.6999 20.6993C43.4799 20.7393 43.2499 20.7693 43.0199 20.7593L43.0399 20.7493Z" fill="#EDB42F"/>
<path d="M46.5 15.4787H50.4V16.4887H47.62V17.5388H50.06V18.5487H47.62V19.6387H50.43V20.6487H46.5V15.4688V15.4787Z" fill="#EDB42F"/>
</svg>
