<svg width="52" height="36" viewBox="0 0 52 36" fill="none" xmlns="http://www.w3.org/2000/svg">
<rect x="0.5" y="0.5" width="51" height="35" rx="3.5" fill="white"/>
<rect x="0.5" y="0.5" width="51" height="35" rx="3.5" stroke="#EAEAEA"/>
<path d="M41.7499 21.9303C39.5799 30.6303 30.7699 35.9203 22.0699 33.7503C13.3699 31.5803 8.07986 22.7703 10.2499 14.0703C12.4199 5.37035 21.2299 0.0803491 29.9299 2.25035C38.6299 4.42035 43.9199 13.2303 41.7499 21.9303Z" fill="url(#paint0_linear_2280_2528)"/>
<path d="M33.1597 15.6899C33.4797 13.5299 31.8397 12.3699 29.5897 11.5899L30.3197 8.65992L28.5397 8.21992L27.8297 11.0699C27.3597 10.9499 26.8797 10.8399 26.3997 10.7299L27.1197 7.85992L25.3397 7.41992L24.6097 10.3499C24.2197 10.2599 23.8397 10.1699 23.4697 10.0799L21.0097 9.45992L20.5397 11.3599C20.5397 11.3599 21.8597 11.6599 21.8297 11.6799C22.5497 11.8599 22.6797 12.3399 22.6597 12.7199L21.8297 16.0499C21.8297 16.0499 21.9397 16.0799 22.0197 16.1099C21.9597 16.0999 21.8997 16.0799 21.8297 16.0599L20.6697 20.7299C20.5797 20.9499 20.3597 21.2799 19.8497 21.1499C19.8697 21.1799 18.5597 20.8299 18.5597 20.8299L17.6797 22.8699L19.9997 23.4499C20.4297 23.5599 20.8497 23.6699 21.2697 23.7799L20.5297 26.7399L22.3097 27.1799L23.0397 24.2499C23.5297 24.3799 23.9997 24.4999 24.4597 24.6199L23.7297 27.5399L25.5097 27.9799L26.2497 25.0299C29.2897 25.5999 31.5697 25.3699 32.5297 22.6299C33.2997 20.4199 32.4897 19.1399 30.8897 18.3099C32.0497 18.0399 32.9297 17.2799 33.1597 15.6899ZM29.0897 21.3999C28.5397 23.6099 24.8097 22.4199 23.6097 22.1199L24.5897 18.1999C25.7997 18.4999 29.6697 19.0999 29.0897 21.4099V21.3999ZM29.6397 15.6599C29.1397 17.6699 26.0397 16.6499 25.0297 16.3999L25.9197 12.8399C26.9297 13.0899 30.1597 13.5599 29.6397 15.6599Z" fill="white"/>
<defs>
<linearGradient id="paint0_linear_2280_2528" x1="27.8664" y1="1.69545" x2="27.8664" y2="32.416" gradientUnits="userSpaceOnUse">
<stop stop-color="#F3A44B"/>
<stop offset="1" stop-color="#F18D1A"/>
</linearGradient>
</defs>
</svg>
