<svg width="52" height="36" viewBox="0 0 52 36" fill="none" xmlns="http://www.w3.org/2000/svg">
<rect x="0.5" y="0.5" width="51" height="35" rx="3.5" fill="white"/>
<rect x="0.5" y="0.5" width="51" height="35" rx="3.5" stroke="#EAEAEA"/>
<path d="M11.7801 24.3195C10.0501 24.3195 8.69014 25.6295 8.69014 27.3895C8.69014 29.1495 10.0101 30.4495 11.7801 30.4495C13.5501 30.4495 14.8901 29.1195 14.8901 27.3695C14.8901 25.6295 13.5701 24.3095 11.7801 24.3095V24.3195ZM11.7901 29.1895C10.8001 29.1895 10.0801 28.4195 10.0801 27.3995C10.0801 26.3795 10.7901 25.5895 11.7801 25.5895C12.7701 25.5895 13.5001 26.3695 13.5001 27.3995C13.5001 28.4295 12.7801 29.1895 11.7901 29.1895ZM15.2601 25.6595H16.1201V30.3495H17.5001V24.4395H15.2601V25.6695V25.6595ZM5.22014 25.5895C5.94014 25.5895 6.52014 26.0395 6.73014 26.6995H8.19014C7.93014 25.2795 6.76014 24.3195 5.23014 24.3195C3.50014 24.3195 2.14014 25.6295 2.14014 27.3995C2.14014 29.1695 3.46014 30.4595 5.23014 30.4595C6.72014 30.4595 7.91014 29.4995 8.18014 28.0695H6.73014C6.52014 28.7295 5.95014 29.1895 5.23014 29.1895C4.23014 29.1895 3.53014 28.4195 3.53014 27.3995C3.53014 26.3795 4.22014 25.5895 5.22014 25.5895ZM41.4101 26.8195L40.4001 26.6695C39.9201 26.5995 39.5701 26.4395 39.5701 26.0595C39.5701 25.6495 40.0201 25.4395 40.6201 25.4395C41.2901 25.4395 41.7101 25.7295 41.8001 26.1895H43.1301C42.9801 24.9995 42.0701 24.2995 40.6501 24.2995C39.2301 24.2995 38.2301 25.0395 38.2301 26.0895C38.2301 27.1395 38.8601 27.6795 40.1401 27.8595L41.1501 28.0095C41.6401 28.0795 41.9201 28.2695 41.9201 28.6395C41.9201 29.1095 41.4401 29.2995 40.7701 29.2995C39.9601 29.2995 39.5001 28.9695 39.4301 28.4695H38.0801C38.2101 29.6195 39.1101 30.4395 40.7601 30.4395C42.2601 30.4395 43.2601 29.7495 43.2601 28.5795C43.2601 27.5295 42.5401 26.9795 41.4001 26.8095L41.4101 26.8195ZM16.8101 21.9895C16.3101 21.9895 15.9301 22.3595 15.9301 22.8595C15.9301 23.3595 16.3101 23.7295 16.8101 23.7295C17.3101 23.7295 17.6901 23.3595 17.6901 22.8595C17.6901 22.3595 17.3101 21.9895 16.8101 21.9895ZM37.0101 26.4495C37.0101 25.1695 36.2301 24.3095 34.5801 24.3095C33.0201 24.3095 32.1501 25.0995 31.9801 26.3095H33.3501C33.4201 25.8395 33.7901 25.4495 34.5701 25.4495C35.2701 25.4495 35.6101 25.7595 35.6101 26.1395C35.6101 26.6295 34.9801 26.7595 34.2001 26.8395C33.1401 26.9495 31.8401 27.3195 31.8401 28.6895C31.8401 29.7495 32.6301 30.4395 33.8901 30.4395C34.8801 30.4395 35.5001 30.0295 35.8101 29.3795C35.8601 29.9595 36.2901 30.3395 36.9001 30.3395H37.7001V29.1195H37.0201V26.4595L37.0101 26.4495ZM35.6601 27.9395C35.6601 28.7295 34.9701 29.3095 34.1301 29.3095C33.6101 29.3095 33.1801 29.0895 33.1801 28.6395C33.1801 28.0595 33.8801 27.8995 34.5201 27.8295C35.1401 27.7695 35.4801 27.6395 35.6601 27.3695V27.9395ZM28.3501 24.3195C27.6301 24.3195 26.9401 24.6295 26.4801 25.1795V21.9395H25.1001V30.3495H26.4501V29.5695C26.9101 30.1395 27.6101 30.4695 28.3401 30.4595C29.9901 30.4595 31.2401 29.1595 31.2401 27.3995C31.2401 25.6395 29.9701 24.3195 28.3401 24.3195H28.3501ZM28.1401 29.1895C27.1501 29.1895 26.4301 28.4195 26.4301 27.3995C26.4301 26.3795 27.1601 25.5895 28.1501 25.5895C29.1401 25.5895 29.8501 26.3595 29.8501 27.3995C29.8501 28.4395 29.1301 29.1895 28.1401 29.1895ZM21.8101 24.3195C20.9101 24.3195 20.3301 24.6895 19.9901 25.1995V24.4295H18.6301V30.3395H20.0101V27.1195C20.0101 26.2195 20.5801 25.5795 21.4301 25.5795C22.2201 25.5795 22.7101 26.1395 22.7101 26.9495V30.3395H24.0901V26.8495C24.0901 25.3595 23.3201 24.3095 21.8201 24.3095L21.8101 24.3195ZM49.8301 27.1995C49.8301 25.5095 48.5901 24.3195 46.9301 24.3195C45.1601 24.3195 43.8701 25.6495 43.8701 27.3895C43.8701 29.2295 45.2601 30.4495 46.9601 30.4495C48.3901 30.4495 49.5201 29.5995 49.8001 28.3995H48.3701C48.1601 28.9295 47.6601 29.2195 46.9801 29.2195C46.1001 29.2195 45.4301 28.6695 45.2801 27.7095H49.8301V27.1795V27.1995ZM45.3601 26.7395C45.5801 25.9195 46.2001 25.5195 46.9101 25.5195C47.6901 25.5195 48.2901 25.9695 48.4201 26.7395H45.3601Z" fill="#0052FF"/>
<path d="M26.44 5.53906C30.39 5.53906 33.59 8.73906 33.59 12.6891C33.59 16.6391 30.39 19.8391 26.44 19.8391C22.49 19.8391 19.29 16.6391 19.29 12.6891C19.29 8.73906 22.49 5.53906 26.44 5.53906Z" fill="#0052FF"/>
<path d="M26.4502 15.1982C25.0602 15.1982 23.9402 14.0682 23.9402 12.6882C23.9402 11.3082 25.0702 10.1782 26.4502 10.1782C27.6902 10.1782 28.7302 11.0882 28.9202 12.2682H31.4502C31.2402 9.6882 29.0802 7.6582 26.4402 7.6582C23.6602 7.6582 21.4102 9.9082 21.4102 12.6882C21.4102 15.4682 23.6602 17.7182 26.4402 17.7182C29.2202 17.7182 31.2302 15.6882 31.4502 13.1082H28.9202C28.7202 14.2982 27.6902 15.1982 26.4502 15.1982Z" fill="white"/>
</svg>
