<svg width="52" height="36" viewBox="0 0 52 36" fill="none" xmlns="http://www.w3.org/2000/svg">
<rect x="0.5" y="0.5" width="51" height="35" rx="3.5" fill="white"/>
<rect x="0.5" y="0.5" width="51" height="35" rx="3.5" stroke="#EAEAEA"/>
<path d="M5.71 13.1895L1.75 15.4495V19.9695L5.71 22.2295L9.67 19.9695V15.4495L5.71 13.1895ZM4.15 15.1495H7.27L7.64 16.7195H3.78L4.14 15.1495H4.15ZM5.4 19.8595L4.73 20.4795H4.16L2.74 18.0295L3.79 17.2595L4.71 17.8395V18.8795L5.41 19.5395V19.8495L5.4 19.8595ZM5.7 18.8195H4.94L5.04 17.8395L4.7 16.9595H6.72L6.39 17.8395L6.49 18.8195H5.71H5.7ZM7.27 20.4695H6.71L6.04 19.8595V19.5495L6.74 18.8895V17.8495L7.65 17.2595L8.69 18.0395L7.28 20.4795L7.27 20.4695Z" fill="#03316C"/>
<path d="M14.11 19.8099C13.06 19.8099 12.29 18.9999 12.29 17.9999C12.29 16.9999 13.07 16.1699 14.12 16.1699C14.79 16.1699 15.2 16.4099 15.52 16.7699L15.02 17.2999C14.77 17.0399 14.51 16.8699 14.11 16.8699C13.52 16.8699 13.09 17.3699 13.09 17.9899C13.09 18.6099 13.53 19.1199 14.15 19.1199C14.53 19.1199 14.81 18.9399 15.06 18.6899L15.54 19.1699C15.19 19.5399 14.79 19.8099 14.1 19.8099" fill="#002E73"/>
<path d="M17.08 19.8095H16.27V16.1795H17.08V17.0295C17.3 16.5095 17.71 16.1495 18.33 16.1795V17.0295H18.28C17.57 17.0295 17.08 17.4895 17.08 18.4095V19.8095Z" fill="#002E73"/>
<path d="M22.5601 16.1699L20.7701 20.7899H19.9501L20.3401 19.8099L18.8101 16.1699H19.6801L20.7101 18.8599L21.7101 16.1699H22.5601Z" fill="#002E73"/>
<path d="M25.1201 16.1699C24.5601 16.1699 24.1901 16.4599 23.9301 16.8199V16.1699H23.1201V20.7899H23.9301V19.1999C24.1801 19.5199 24.5401 19.8099 25.1201 19.8099C25.9601 19.8099 26.7601 19.1499 26.7601 17.9899C26.7601 16.8299 25.9501 16.1799 25.1201 16.1799V16.1699ZM24.9401 19.1199C24.4001 19.1199 23.9201 18.6799 23.9201 17.9999C23.9201 17.3199 24.4001 16.8799 24.9401 16.8799C25.4901 16.8799 25.9501 17.3099 25.9501 17.9999C25.9501 18.6899 25.5001 19.1199 24.9401 19.1199Z" fill="#002E73"/>
<path d="M28.5298 16.9293V18.6393C28.5298 18.9493 28.6898 19.0693 28.9698 19.0693H29.2898V19.7793H28.7298C28.1398 19.7793 27.7198 19.5193 27.7198 18.7593V16.9193H27.2798V16.2393H27.7198V15.2793H28.5298V16.2393H29.2798V16.9193H28.5298V16.9293Z" fill="#002E73"/>
<path d="M31.8502 16.1797C30.7702 16.1797 29.9702 16.9997 29.9702 18.0097C29.9702 19.0197 30.7602 19.8197 31.8302 19.8197C32.9302 19.8197 33.7202 18.9897 33.7202 17.9997C33.7202 17.0097 32.9302 16.1897 31.8502 16.1897V16.1797ZM31.8502 19.1197C31.2202 19.1197 30.7802 18.6097 30.7802 17.9897C30.7802 17.3697 31.1902 16.8697 31.8402 16.8697C32.4902 16.8697 32.9302 17.3797 32.9102 17.9997C32.9102 18.6097 32.5002 19.1197 31.8502 19.1197Z" fill="#002E73"/>
<path d="M41.4601 16.1797C40.3801 16.1797 39.5801 16.9997 39.5801 18.0097C39.5801 19.0197 40.3701 19.8197 41.4501 19.8197C42.5401 19.8197 43.3401 18.9897 43.3401 17.9997C43.3401 17.0097 42.5501 16.1897 41.4701 16.1897L41.4601 16.1797ZM41.4601 19.1197C40.8301 19.1197 40.3901 18.6097 40.3901 17.9897C40.3901 17.3697 40.8001 16.8697 41.4501 16.8697C42.1001 16.8697 42.5301 17.3797 42.5201 17.9997C42.5201 18.6097 42.1101 19.1197 41.4601 19.1197Z" fill="#002E73"/>
<path d="M48.13 16.1704C48.9 16.1704 49.37 16.6504 49.37 17.5104V19.8104H48.56V17.7504C48.56 17.1904 48.3 16.9004 47.85 16.9004C47.4 16.9004 47.1 17.2104 47.1 17.7604V19.8104H46.29V17.7404C46.29 17.2004 46.02 16.8904 45.58 16.8904C45.14 16.8904 44.83 17.2204 44.83 17.7604V19.8004H44.02V16.1604H44.83V16.7604C45.06 16.4504 45.36 16.1604 45.9 16.1604C46.41 16.1604 46.76 16.4004 46.95 16.7704C47.24 16.3904 47.62 16.1504 48.15 16.1504" fill="#002E73"/>
<path d="M34.4299 19.0398L34.7799 18.8398H34.8199L35.1799 19.0398L35.2099 19.0698V19.4798L35.1799 19.5198L34.8299 19.7198H34.7799L34.4299 19.5198L34.3999 19.4798V19.0698L34.4299 19.0398Z" fill="#002E73"/>
<path d="M37.6602 19.8103C36.6102 19.7903 35.8602 18.9603 35.8702 17.9603C35.8802 16.9603 36.6802 16.1503 37.7302 16.1703C38.4002 16.1903 38.8102 16.4403 39.1302 16.8003L38.6202 17.3303C38.3802 17.0703 38.1202 16.8803 37.7202 16.8703C37.1302 16.8703 36.7002 17.3503 36.6902 17.9703C36.6702 18.6003 37.1002 19.1103 37.7202 19.1203C38.1002 19.1203 38.3902 18.9603 38.6402 18.7003L39.1202 19.1903C38.7602 19.5603 38.3502 19.8303 37.6602 19.8103Z" fill="#002E73"/>
</svg>
