<svg width="52" height="36" viewBox="0 0 52 36" fill="none" xmlns="http://www.w3.org/2000/svg">
<g clip-path="url(#clip0_2280_4190)">
<rect width="52" height="36" rx="4" fill="white"/>
<path d="M47.3198 0.550781H4.6798C2.53694 0.550781 0.799805 2.28792 0.799805 4.43078V31.5608C0.799805 33.7036 2.53694 35.4408 4.6798 35.4408H47.3198C49.4627 35.4408 51.1998 33.7036 51.1998 31.5608V4.43078C51.1998 2.28792 49.4627 0.550781 47.3198 0.550781Z" fill="white"/>
<path d="M36.6998 11.5994C36.5198 11.7794 36.2798 11.8794 36.0198 11.8894H11.9398C11.0898 11.8894 10.6598 10.8494 11.2498 10.2394L15.1998 6.14937C15.3798 5.95937 15.6298 5.85938 15.8898 5.85938H40.0498C40.9098 5.85938 41.3298 6.90937 40.7298 7.51937L36.6898 11.6094L36.6998 11.5994ZM36.6998 29.8694C36.5198 30.0494 36.2698 30.1494 36.0198 30.1494H11.9398C11.0898 30.1494 10.6598 29.1394 11.2498 28.5394L15.1998 24.5494C15.3798 24.3694 15.6298 24.2594 15.8898 24.2594H40.0498C40.9098 24.2594 41.3298 25.2794 40.7298 25.8794L36.6898 29.8694H36.6998ZM36.6998 15.3294C36.5198 15.1494 36.2698 15.0494 36.0198 15.0494H11.9398C11.0898 15.0494 10.6598 16.0594 11.2498 16.6594L15.1998 20.6494C15.3798 20.8294 15.6298 20.9394 15.8898 20.9394H40.0498C40.9098 20.9394 41.3298 19.9194 40.7298 19.3194L36.6898 15.3294H36.6998Z" fill="url(#paint0_linear_2280_4190)"/>
</g>
<rect x="0.5" y="0.5" width="51" height="35" rx="3.5" stroke="#EAEAEA"/>
<defs>
<linearGradient id="paint0_linear_2280_4190" x1="13.1798" y1="30.8094" x2="38.7798" y2="5.19938" gradientUnits="userSpaceOnUse">
<stop stop-color="#CE41E7"/>
<stop offset="1" stop-color="#10F1AF"/>
</linearGradient>
<clipPath id="clip0_2280_4190">
<rect width="52" height="36" rx="4" fill="white"/>
</clipPath>
</defs>
</svg>
