<svg width="52" height="36" viewBox="0 0 52 36" fill="none" xmlns="http://www.w3.org/2000/svg">
<g clip-path="url(#clip0_2280_4346)">
<rect width="52" height="36" rx="4" fill="white"/>
<path d="M47.3198 0.550781H4.6798C2.53694 0.550781 0.799805 2.28792 0.799805 4.43078V31.5608C0.799805 33.7036 2.53694 35.4408 4.6798 35.4408H47.3198C49.4627 35.4408 51.1998 33.7036 51.1998 31.5608V4.43078C51.1998 2.28792 49.4627 0.550781 47.3198 0.550781Z" fill="white"/>
<path d="M26 30.2909C32.81 30.2909 38.29 24.8109 38.29 18.0009C38.29 11.1909 32.81 5.71094 26 5.71094C19.19 5.71094 13.71 11.1909 13.71 18.0009C13.71 24.8109 19.19 30.2909 26 30.2909Z" fill="#2775C9"/>
<path d="M29.3798 19.9507C29.3798 18.1607 28.2998 17.5407 26.1498 17.2907C24.6098 17.0907 24.3098 16.6807 24.3098 15.9607C24.3098 15.2407 24.8198 14.7807 25.8498 14.7807C26.7698 14.7807 27.2798 15.0907 27.5398 15.8607C27.5898 16.0107 27.7398 16.1207 27.8998 16.1207H28.7198C28.9198 16.1207 29.0798 15.9707 29.0798 15.7607V15.7107C28.8798 14.5807 27.9498 13.7107 26.7798 13.6107V12.3807C26.7798 12.1807 26.6298 12.0207 26.3698 11.9707H25.5998C25.3998 11.9707 25.2398 12.1207 25.1898 12.3807V13.5607C23.6498 13.7607 22.6798 14.7907 22.6798 16.0707C22.6798 17.7607 23.6998 18.4307 25.8498 18.6807C27.2798 18.9407 27.7398 19.2407 27.7398 20.0607C27.7398 20.8807 27.0198 21.4407 26.0498 21.4407C24.7198 21.4407 24.2598 20.8807 24.0998 20.1107C24.0498 19.9107 23.8998 19.8007 23.7398 19.8007H22.8698C22.6698 19.8007 22.5098 19.9507 22.5098 20.1607V20.2107C22.7098 21.4907 23.5298 22.4107 25.2198 22.6707V23.9007C25.2198 24.1007 25.3698 24.2607 25.6298 24.3107H26.3998C26.5998 24.3107 26.7598 24.1607 26.8098 23.9007V22.6707C28.3498 22.4107 29.3698 21.3407 29.3698 19.9607L29.3798 19.9507Z" fill="white"/>
<path d="M23.3899 25.321C19.3999 23.891 17.3499 19.431 18.8299 15.491C19.5999 13.341 21.2899 11.701 23.3899 10.931C23.5899 10.831 23.6999 10.671 23.6999 10.421V9.70102C23.6999 9.50102 23.5999 9.34102 23.3899 9.29102C23.3399 9.29102 23.2399 9.29102 23.1899 9.34102C18.3299 10.881 15.6599 16.051 17.1999 20.911C18.1199 23.781 20.3199 25.981 23.1899 26.901C23.3899 27.001 23.5999 26.901 23.6499 26.701C23.6999 26.651 23.6999 26.601 23.6999 26.501V25.781C23.6999 25.631 23.5499 25.421 23.3899 25.321ZM28.8199 9.35102C28.6199 9.25102 28.4099 9.35102 28.3599 9.55102C28.3099 9.60102 28.3099 9.65102 28.3099 9.75102V10.471C28.3099 10.671 28.4599 10.881 28.6199 10.981C32.6099 12.411 34.6599 16.871 33.1799 20.811C32.4099 22.961 30.7199 24.601 28.6199 25.371C28.4199 25.471 28.3099 25.631 28.3099 25.881V26.601C28.3099 26.801 28.4099 26.961 28.6199 27.011C28.6699 27.011 28.7699 27.011 28.8199 26.961C33.6799 25.421 36.3499 20.251 34.8099 15.391C33.8899 12.471 31.6399 10.271 28.8199 9.35102Z" fill="white"/>
</g>
<rect x="0.5" y="0.5" width="51" height="35" rx="3.5" stroke="#EAEAEA"/>
<defs>
<clipPath id="clip0_2280_4346">
<rect width="52" height="36" rx="4" fill="white"/>
</clipPath>
</defs>
</svg>
