<svg width="52" height="36" viewBox="0 0 52 36" fill="none" xmlns="http://www.w3.org/2000/svg">
<g clip-path="url(#clip0_2280_4353)">
<rect width="52" height="36" rx="4" fill="white"/>
<path d="M48 0H4C1.79086 0 0 1.79086 0 4V32C0 34.2091 1.79086 36 4 36H48C50.2091 36 52 34.2091 52 32V4C52 1.79086 50.2091 0 48 0Z" fill="white"/>
<path d="M48 0H4C1.79086 0 0 1.79086 0 4V32C0 34.2091 1.79086 36 4 36H48C50.2091 36 52 34.2091 52 32V4C52 1.79086 50.2091 0 48 0Z" fill="#D3D3D3"/>
<path d="M47.3198 0.550781H4.6798C2.53694 0.550781 0.799805 2.28792 0.799805 4.43078V31.5608C0.799805 33.7036 2.53694 35.4408 4.6798 35.4408H47.3198C49.4627 35.4408 51.1998 33.7036 51.1998 31.5608V4.43078C51.1998 2.28792 49.4627 0.550781 47.3198 0.550781Z" fill="white"/>
<path fill-rule="evenodd" clip-rule="evenodd" d="M17.0502 5.83094L11.9002 16.6509C11.8602 16.7309 11.8802 16.8309 11.9402 16.8909L25.8502 30.2209C25.9302 30.3009 26.0602 30.3009 26.1402 30.2209L40.0502 16.8909C40.1202 16.8309 40.1402 16.7309 40.0902 16.6509L34.9402 5.83094C34.9102 5.76094 34.8302 5.71094 34.7502 5.71094H17.2302C17.1502 5.71094 17.0702 5.76094 17.0402 5.83094H17.0502Z" fill="#50AE94"/>
<path fill-rule="evenodd" clip-rule="evenodd" d="M27.79 17.7605C27.69 17.7605 27.17 17.8005 26.02 17.8005C25.1 17.8005 24.45 17.7705 24.23 17.7605C20.69 17.6005 18.05 16.9905 18.05 16.2505C18.05 15.5105 20.69 14.9005 24.23 14.7405V17.1505C24.46 17.1705 25.12 17.2105 26.04 17.2105C27.14 17.2105 27.69 17.1605 27.79 17.1605V14.7505C31.32 14.9105 33.96 15.5205 33.96 16.2605C33.96 17.0005 31.33 17.6105 27.79 17.7705V17.7605ZM27.79 14.4905V12.3405H32.72V9.06055H19.3V12.3405H24.23V14.4905C20.23 14.6705 17.21 15.4705 17.21 16.4205C17.21 17.3705 20.22 18.1605 24.23 18.3505V25.2505H27.79V18.3505C31.79 18.1705 34.79 17.3705 34.79 16.4205C34.79 15.4705 31.79 14.6805 27.79 14.4905Z" fill="white"/>
</g>
<rect x="0.5" y="0.5" width="51" height="35" rx="3.5" stroke="#EAEAEA"/>
<defs>
<clipPath id="clip0_2280_4353">
<rect width="52" height="36" rx="4" fill="white"/>
</clipPath>
</defs>
</svg>
