<svg width="52" height="36" viewBox="0 0 52 36" fill="none" xmlns="http://www.w3.org/2000/svg">
<rect x="0.5" y="0.5" width="51" height="35" rx="3.5" fill="white"/>
<rect x="0.5" y="0.5" width="51" height="35" rx="3.5" stroke="#EAEAEA"/>
<path d="M14.6101 13.7407L12.9701 14.5807L5.03012 18.6207C5.00012 18.4107 4.99012 18.2107 4.99012 18.0007C4.99012 15.4107 7.13012 13.2707 9.73012 13.2707C10.5401 13.2707 11.3301 13.4807 12.0401 13.8707L12.9901 13.3907L13.1301 13.3207C12.1401 12.6007 10.9501 12.2207 9.74012 12.2207C6.56012 12.2207 3.95012 14.8307 3.95012 18.0107C3.95012 18.1507 3.96012 18.3107 3.97012 18.4507C4.00012 18.8707 3.77012 19.2707 3.39012 19.4707L2.90012 19.7307V20.9107L4.36012 20.1607L4.83012 19.9207L5.29012 19.6807L13.6601 15.4207L14.6101 14.9407L16.5501 13.9507V12.7707L14.6101 13.7507V13.7407ZM16.5401 15.1207L5.75012 20.6107L4.80012 21.0907L2.87012 22.0807V23.2607L4.79012 22.2807L6.43012 21.4407L14.3801 17.3907C14.4101 17.6007 14.4201 17.8007 14.4201 18.0207C14.4201 20.6207 12.2801 22.7507 9.68012 22.7507C8.87012 22.7507 8.08012 22.5407 7.37012 22.1407L7.31012 22.1707L6.29012 22.6907C7.28012 23.4107 8.47012 23.7907 9.69012 23.7907C12.8701 23.7907 15.4601 21.1807 15.4801 18.0207C15.4801 17.8807 15.4701 17.7207 15.4601 17.5807C15.4301 17.1607 15.6601 16.7607 16.0301 16.5607L16.5201 16.3007V15.1207H16.5401ZM32.7901 15.9407C31.1401 15.9407 29.8601 17.1507 29.8601 19.0707C29.8601 20.8607 30.9201 22.2207 32.8201 22.2207C34.2901 22.2207 35.2601 21.3607 35.5201 20.3207H34.4601C34.2001 20.9207 33.7101 21.3207 32.8101 21.3207C31.9101 21.3207 30.9801 20.6907 30.9501 19.3907H35.5901C35.7201 17.4707 34.6301 15.9407 32.7801 15.9407H32.7901ZM30.9701 18.5207C31.0601 17.3107 31.8901 16.8107 32.7901 16.8107C33.8801 16.8107 34.5001 17.6607 34.5301 18.5207H30.9701ZM23.6401 17.4107L22.7001 17.1907C21.9301 17.0307 21.3701 16.6707 21.3701 15.9507C21.3701 15.0407 22.4701 14.7607 23.1001 14.7607C23.9101 14.7607 24.8501 15.0907 25.1201 16.0107H26.2301C25.9001 14.4507 24.6101 13.7907 23.1501 13.7907C21.8301 13.7907 20.2101 14.4507 20.2101 16.0107C20.2101 17.3607 21.3201 17.9807 22.4401 18.2307L23.4601 18.4507C24.4801 18.6907 25.2101 19.0307 25.2101 19.8907C25.2101 20.7007 24.5201 21.2607 23.3101 21.2607C22.1001 21.2607 21.2801 20.6707 21.0701 19.5507H19.9501C20.1701 21.1707 21.3801 22.2207 23.2901 22.2207C24.9101 22.2207 26.3801 21.3707 26.3801 19.7807C26.3801 18.1507 24.8801 17.6707 23.6401 17.4107ZM28.5701 14.5207H27.5501V16.0307H26.5901V16.8507H27.5501V20.5507C27.5501 21.8007 27.8201 22.0607 28.9801 22.0607H29.7201V21.2107H29.2101C28.6201 21.2107 28.5801 21.0607 28.5801 20.4307V16.8507H29.7201V16.0307H28.5801V14.5207H28.5701ZM48.8101 16.0007C48.0101 16.0307 47.4001 16.4007 47.1001 17.0907V16.0307H46.1001V22.0707H47.1201V18.9107C47.1201 17.5607 47.5901 17.0607 48.5401 17.0607C48.7401 17.0607 48.9201 17.0707 49.1201 17.1007V16.0107C49.0101 16.0007 48.9001 16.0007 48.8101 16.0007ZM45.1201 19.7907V18.4007C45.1401 16.6807 44.4201 15.9107 42.7301 15.9107C41.5601 15.9107 40.4001 16.6407 40.3001 17.9407H41.3601C41.4001 17.1907 41.8801 16.7407 42.7401 16.7407C43.5001 16.7407 44.1101 17.1007 44.1101 18.2107V18.3507C41.6401 18.6207 40.0201 19.0507 40.0201 20.4707C40.0201 21.5807 40.9701 22.2107 42.1001 22.2107C43.2301 22.2107 43.8001 21.8607 44.1701 21.2307C44.1801 21.5107 44.2001 21.7807 44.2501 22.0607H45.2801C45.1701 21.4807 45.1201 20.8107 45.1401 19.7807L45.1201 19.7907ZM44.1801 19.5507C44.1801 20.9807 43.2801 21.4107 42.3201 21.4107C41.5901 21.4107 41.1501 21.0307 41.1501 20.4507C41.1501 19.6207 42.3301 19.3407 44.1801 19.1607V19.5507ZM36.2801 13.9307H37.3001V22.0707H36.2801V13.9307ZM38.3101 13.9307H39.3301V22.0707H38.3101V13.9307Z" fill="black"/>
</svg>
