<svg width="52" height="36" viewBox="0 0 52 36" fill="none" xmlns="http://www.w3.org/2000/svg">
<rect x="0.5" y="0.5" width="51" height="35" rx="3.5" fill="white"/>
<rect x="0.5" y="0.5" width="51" height="35" rx="3.5" stroke="#EAEAEA"/>
<path d="M35.3596 7.03906H39.1896L31.2296 14.9191C28.3496 17.7691 23.6696 17.7691 20.7896 14.9191L12.8296 7.03906H16.6596L22.7096 13.0291C24.5396 14.8391 27.4896 14.8391 29.3196 13.0291L35.3696 7.03906H35.3596Z" fill="#23292F"/>
<path d="M16.5898 28.9581H12.7598L20.7698 21.0281C23.6498 18.1781 28.3298 18.1781 31.2098 21.0281L39.2198 28.9581H35.3898L29.2898 22.9181C27.4598 21.1081 24.5098 21.1081 22.6798 22.9181L16.5798 28.9581H16.5898Z" fill="#23292F"/>
</svg>
