<svg width="52" height="36" viewBox="0 0 52 36" fill="none" xmlns="http://www.w3.org/2000/svg">
<rect x="0.5" y="0.5" width="51" height="35" rx="3.5" fill="white"/>
<rect x="0.5" y="0.5" width="51" height="35" rx="3.5" stroke="#EAEAEA"/>
<path d="M47.19 13.6693C46.84 13.2393 46.4 12.9393 45.87 12.7893C45.64 12.7293 45.41 12.6993 45.17 12.7193C45.11 12.7193 45.08 12.7093 45.03 12.6593C44.74 12.3293 44.45 11.9893 44.11 11.6893C43.89 11.4993 43.68 11.2993 43.45 11.1093C43.15 10.8593 42.83 10.6293 42.51 10.3993C41.66 9.80932 40.76 9.31932 39.83 8.87932C39.13 8.54932 38.41 8.25932 37.68 7.99932C36.74 7.66932 35.78 7.38932 34.8 7.15932C34.2 7.01932 33.59 6.88932 32.98 6.78932C32.52 6.70932 32.06 6.63932 31.6 6.56932C31.29 6.51932 30.97 6.49932 30.65 6.45932C30.24 6.41932 29.82 6.36932 29.41 6.32932C29.28 6.31932 29.16 6.30932 29.03 6.30932C28.77 6.30932 28.51 6.28932 28.25 6.26932C27.78 6.23932 27.32 6.25932 26.86 6.24932C26.37 6.24932 25.88 6.23932 25.4 6.24932C25.07 6.25932 24.73 6.27932 24.4 6.29932C23.98 6.31932 23.57 6.35932 23.15 6.39932C22.71 6.43932 22.26 6.48932 21.82 6.55932C21.19 6.64932 20.56 6.74932 19.94 6.86932C19.12 7.02932 18.31 7.21932 17.5 7.44932C16.96 7.60932 16.42 7.75932 15.88 7.94932C15.3 8.14932 14.72 8.37932 14.15 8.61932C13.59 8.85932 13.04 9.12932 12.5 9.41932C11.84 9.76932 11.21 10.1593 10.6 10.5993C10.25 10.8593 9.90997 11.1193 9.58997 11.4093C9.32997 11.6393 9.05997 11.8693 8.82997 12.1293C8.50997 12.4793 8.18997 12.8293 7.91997 13.2293C7.86997 13.3093 7.79997 13.3593 7.68997 13.3893C7.08997 13.5293 6.63997 13.9093 6.27997 14.3993C6.08997 14.6493 5.93997 14.9193 5.80997 15.2093C5.78997 15.2493 5.78997 15.2893 5.73997 15.3193C5.70997 15.2893 5.72997 15.2593 5.73997 15.2293C5.99997 14.3893 6.41997 13.6193 6.92997 12.9093C7.14997 12.6093 7.38997 12.3193 7.63997 12.0393C7.82997 11.8293 8.02997 11.6193 8.23997 11.4193C8.73997 10.9293 9.28997 10.4893 9.85997 10.0893C10.59 9.56932 11.36 9.10932 12.17 8.69932C13.06 8.23932 13.98 7.84932 14.92 7.49932C16.06 7.07932 17.22 6.73932 18.4 6.45932C19.15 6.27932 19.92 6.12932 20.68 6.00932C21.26 5.91932 21.85 5.82932 22.44 5.75932C22.84 5.70932 23.23 5.67932 23.63 5.64932C24.22 5.60932 24.82 5.56932 25.41 5.54932C26.32 5.50932 27.23 5.52932 28.14 5.53932C28.48 5.53932 28.81 5.55932 29.15 5.58932C29.72 5.62932 30.29 5.66932 30.86 5.72932C31.31 5.77932 31.75 5.82932 32.2 5.88932C32.7 5.95932 33.2 6.03932 33.7 6.13932C34.53 6.28932 35.34 6.46932 36.15 6.68932C36.63 6.80932 37.1 6.94932 37.57 7.09932C38.51 7.38932 39.43 7.73932 40.32 8.13932C41.5 8.65932 42.64 9.27932 43.7 10.0093C44.14 10.3093 44.56 10.6393 44.96 10.9893C45.28 11.2693 45.59 11.5593 45.88 11.8693C46.36 12.3793 46.78 12.9193 47.14 13.5193C47.17 13.5593 47.17 13.6193 47.19 13.6693ZM46.57 12.9093C46.57 12.9093 46.54 12.8793 46.52 12.8693C46.29 12.5393 46.02 12.2393 45.74 11.9393C45.47 11.6493 45.17 11.3693 44.87 11.1093C44.46 10.7493 44.03 10.4193 43.58 10.1093C42.53 9.37932 41.42 8.77932 40.25 8.25932C39.56 7.95932 38.86 7.67932 38.15 7.43932C37.15 7.09932 36.14 6.81932 35.12 6.57932C34.47 6.42932 33.83 6.29932 33.17 6.18932C32.47 6.06932 31.76 5.97932 31.05 5.89932C30.54 5.83932 30.03 5.79932 29.51 5.75932C29.03 5.71932 28.54 5.68932 28.06 5.67932C27.02 5.66932 25.99 5.65932 24.95 5.70932C24.79 5.70932 24.63 5.71932 24.48 5.72932C24 5.76932 23.52 5.80932 23.04 5.85932C22.7 5.88932 22.36 5.91932 22.03 5.96932C21.53 6.03932 21.03 6.11932 20.53 6.19932C19.81 6.30932 19.09 6.45932 18.38 6.62932C17.21 6.90932 16.05 7.24932 14.92 7.65932C14.07 7.96932 13.23 8.32932 12.42 8.72932C11.94 8.96932 11.48 9.22932 11.02 9.49932C10.09 10.0593 9.21997 10.6893 8.42997 11.4293C7.96997 11.8493 7.55997 12.3093 7.17997 12.7993C6.89997 13.1593 6.64997 13.5393 6.42997 13.9493C6.48997 13.9493 6.50997 13.8993 6.53997 13.8793C6.84997 13.5793 7.20997 13.3693 7.62997 13.2693C7.70997 13.2493 7.74997 13.2093 7.78997 13.1493C8.05997 12.7493 8.38997 12.3893 8.71997 12.0293C8.95997 11.7693 9.21997 11.5393 9.47997 11.3093C9.93997 10.8893 10.45 10.5193 10.96 10.1793C11.89 9.55932 12.87 9.04932 13.88 8.59932C14.55 8.29932 15.22 8.03932 15.91 7.80932C16.37 7.64932 16.83 7.50932 17.3 7.37932C18.06 7.15932 18.84 6.97932 19.61 6.81932C20.23 6.69932 20.85 6.58932 21.48 6.49932C21.92 6.43932 22.37 6.37932 22.82 6.32932C23.19 6.28932 23.55 6.24932 23.92 6.22932C24.4 6.19932 24.89 6.16932 25.37 6.14932C25.89 6.13932 26.4 6.14932 26.92 6.14932C27.34 6.14932 27.76 6.14932 28.19 6.16932C28.64 6.19932 29.08 6.21932 29.53 6.24932C30.06 6.28932 30.59 6.33932 31.11 6.40932C31.59 6.46932 32.08 6.53932 32.56 6.60932C33.32 6.72932 34.08 6.87932 34.83 7.05932C35.98 7.33932 37.12 7.66932 38.23 8.09932C39.2 8.46932 40.14 8.88932 41.04 9.37932C41.87 9.82932 42.66 10.3393 43.4 10.9293C43.98 11.3893 44.53 11.8793 45 12.4593C45.08 12.5593 45.16 12.6193 45.3 12.5993C45.39 12.5893 45.48 12.5993 45.57 12.6093C45.89 12.6493 46.19 12.7693 46.47 12.9093C46.48 12.9393 46.5 12.9393 46.53 12.9293L46.57 12.9093Z" fill="#969696"/>
<path d="M6.93994 21.4793C7.00994 21.4793 7.04994 21.5193 7.07994 21.5393C7.49994 21.7893 7.94994 21.8993 8.42994 21.8093C8.48994 21.7993 8.52994 21.8093 8.57994 21.8593C8.69994 21.9893 8.81994 22.1293 8.94994 22.2493C9.47994 22.7693 10.0499 23.2493 10.6499 23.6793C11.2099 24.0793 11.7899 24.4393 12.3999 24.7693C13.2999 25.2593 14.2299 25.6793 15.1899 26.0393C15.7099 26.2393 16.2399 26.4193 16.7799 26.5793C17.5199 26.7993 18.2599 26.9993 19.0199 27.1693C19.5499 27.2893 20.0899 27.3893 20.6199 27.4893C21.0399 27.5693 21.4699 27.6093 21.8999 27.6793C22.2699 27.7393 22.6499 27.7793 23.0299 27.8093C23.3199 27.8393 23.5999 27.8693 23.8899 27.8893C24.3399 27.9193 24.7899 27.9393 25.2499 27.9693C25.6399 27.9893 26.0299 27.9693 26.4099 27.9893C26.7999 28.0093 27.1899 27.9693 27.5799 27.9893C27.9199 27.9993 28.2499 27.9593 28.5899 27.9593C28.9699 27.9593 29.3399 27.9193 29.7199 27.8893C30.1499 27.8493 30.5799 27.8193 31.0099 27.7593C31.4699 27.6993 31.9199 27.6293 32.3799 27.5593C32.9199 27.4793 33.4699 27.3793 33.9999 27.2693C34.5799 27.1493 35.1499 27.0093 35.7199 26.8593C36.3299 26.6893 36.9299 26.5093 37.5299 26.3093C38.1099 26.1093 38.6899 25.8793 39.2599 25.6393C39.7999 25.4093 40.3199 25.1593 40.8399 24.8793C41.5299 24.5193 42.1899 24.1193 42.8099 23.6593C43.1599 23.3993 43.4999 23.1393 43.8199 22.8493C44.0599 22.6293 44.3099 22.4193 44.5399 22.1793C44.6699 22.0493 44.7899 21.8993 44.9099 21.7593C44.9399 21.7293 44.9699 21.7193 45.0099 21.7193C45.7799 21.8293 46.4099 21.5593 46.9699 21.0493C46.9699 21.0493 46.9899 21.0393 46.9999 21.0293C46.9899 21.0993 46.9799 21.1193 46.9299 21.1893C46.6499 21.5893 46.3499 21.9793 46.0199 22.3393C45.7199 22.6693 45.3999 22.9893 45.0699 23.2793C44.3699 23.8893 43.6299 24.4293 42.8399 24.9193C42.3199 25.2293 41.7999 25.5293 41.2599 25.7893C40.4499 26.1893 39.6299 26.5393 38.7799 26.8493C37.6399 27.2693 36.4799 27.6093 35.2899 27.8893C34.5399 28.0693 33.7699 28.2193 33.0099 28.3393C32.4299 28.4293 31.8399 28.5193 31.2499 28.5893C30.8499 28.6393 30.4599 28.6693 30.0599 28.6993C29.4699 28.7393 28.8699 28.7793 28.2799 28.7993C27.3699 28.8393 26.4599 28.8193 25.5499 28.8093C25.2099 28.8093 24.8799 28.7893 24.5399 28.7593C23.9699 28.7193 23.3999 28.6793 22.8299 28.6193C22.3799 28.5693 21.9399 28.5193 21.4899 28.4593C20.9899 28.3893 20.4999 28.3093 19.9999 28.2193C19.1699 28.0693 18.3399 27.8793 17.5199 27.6693C17.0499 27.5493 16.5799 27.4093 16.1099 27.2593C15.1699 26.9593 14.2599 26.6193 13.3599 26.2193C12.1799 25.6993 11.0499 25.0793 9.97994 24.3493C9.54994 24.0493 9.12994 23.7193 8.72994 23.3793C8.39994 23.0993 8.08994 22.7993 7.79994 22.4893C7.50994 22.1793 7.22994 21.8593 6.96994 21.4893L6.93994 21.4793ZM7.43994 21.8693C7.58994 22.0793 7.74994 22.2393 7.90994 22.4093C8.18994 22.6993 8.47994 22.9793 8.77994 23.2393C9.18994 23.5993 9.61994 23.9293 10.0699 24.2393C11.0299 24.9093 12.0599 25.4693 13.1199 25.9593C13.8999 26.3193 14.6899 26.6293 15.4999 26.9093C16.5099 27.2593 17.5399 27.5493 18.5799 27.7793C19.0199 27.8793 19.4699 27.9793 19.9099 28.0593C20.4599 28.1593 21.0199 28.2493 21.5799 28.3293C22.0299 28.3893 22.4899 28.4493 22.9399 28.4993C23.3199 28.5393 23.7099 28.5793 24.0999 28.5993C24.6099 28.6293 25.1099 28.6693 25.6199 28.6693C26.6999 28.6693 27.7699 28.6993 28.8499 28.6293C29.2199 28.5993 29.5999 28.5793 29.9699 28.5493C30.4799 28.5093 30.9799 28.4493 31.4899 28.3993C31.9499 28.3493 32.4099 28.2793 32.8599 28.2093C33.6499 28.0793 34.4299 27.9293 35.2099 27.7493C36.2699 27.4993 37.3099 27.1993 38.3399 26.8393C39.4399 26.4493 40.5099 25.9993 41.5499 25.4593C42.0599 25.1993 42.5499 24.9093 43.0299 24.5993C43.7599 24.1293 44.4499 23.6093 45.0899 23.0293C45.4699 22.6893 45.8199 22.3193 46.1499 21.9293C46.2299 21.8293 46.3199 21.7393 46.3899 21.6193C45.7299 21.8693 45.6899 21.8793 45.0399 21.8593C44.9999 21.8593 44.9799 21.8793 44.9599 21.8993C44.8599 21.9993 44.7699 22.1093 44.6699 22.2093C44.2699 22.6193 43.8499 22.9993 43.4099 23.3493C42.6199 23.9793 41.7799 24.5093 40.8899 24.9793C40.4199 25.2293 39.9499 25.4593 39.4599 25.6693C38.8199 25.9493 38.1599 26.2093 37.4999 26.4393C36.5899 26.7493 35.6699 27.0093 34.7299 27.2293C33.9599 27.4093 33.1899 27.5593 32.4099 27.6793C31.7099 27.7893 31.0099 27.8793 30.3099 27.9593C29.8999 28.0093 29.4799 28.0393 29.0699 28.0593C28.6299 28.0893 28.1899 28.1093 27.7499 28.1093C27.2399 28.1093 26.7299 28.1293 26.2199 28.1093C25.6899 28.0993 25.1599 28.0893 24.6299 28.0593C24.1599 28.0293 23.6899 27.9993 23.2199 27.9493C22.8599 27.9093 22.4999 27.8893 22.1399 27.8393C21.6399 27.7693 21.1399 27.6893 20.6399 27.6093C19.9299 27.4993 19.2199 27.3493 18.5199 27.1793C17.5499 26.9493 16.5999 26.6693 15.6599 26.3393C14.9299 26.0793 14.2099 25.7993 13.5099 25.4693C12.5699 25.0293 11.6599 24.5293 10.7999 23.9393C10.0399 23.4093 9.31994 22.8393 8.68994 22.1593C8.52994 21.9893 8.39994 21.9193 8.16994 21.9493C7.92994 21.9793 7.68994 21.9193 7.42994 21.8393L7.43994 21.8693Z" fill="#969696"/>
<path d="M28.5398 9.65039C29.0898 9.65039 29.6398 9.65039 30.1798 9.65039C30.3298 9.65039 30.4098 9.70039 30.4898 9.83039C31.9698 12.3704 33.4498 14.9004 34.9298 17.4404C34.9998 17.5604 34.9998 17.6504 34.9498 17.7804C34.3698 19.0204 33.7998 20.2704 33.2198 21.5104C33.1898 21.5704 33.1898 21.6604 33.0998 21.6604C33.0198 21.6604 32.9998 21.5804 32.9598 21.5204C31.9898 19.7104 31.0198 17.9104 30.0498 16.1004C28.9398 14.0404 27.8398 11.9804 26.7298 9.92039C26.6098 9.69039 26.6298 9.66039 26.8898 9.66039C27.4398 9.66039 27.9898 9.66039 28.5298 9.66039L28.5398 9.65039ZM34.9098 17.6404C34.8498 17.6604 34.8398 17.7204 34.8198 17.7704C34.4598 18.5504 34.0998 19.3304 33.7398 20.1104C33.5398 20.5504 33.3398 20.9804 33.1398 21.4204C33.1098 21.4804 33.0598 21.5304 33.0998 21.6104C33.1498 21.6004 33.1498 21.5604 33.1598 21.5304C33.5598 20.6504 33.9698 19.7804 34.3698 18.9004C34.5598 18.4904 34.7398 18.0804 34.9298 17.6704C34.9398 17.6604 34.9498 17.6404 34.9298 17.6304C34.9298 17.6304 34.9099 17.6304 34.8998 17.6404H34.9098ZM33.0798 20.9704C33.0798 20.9704 33.1198 20.9004 33.1298 20.8804C33.6198 19.8204 34.0998 18.7704 34.5998 17.7104C34.6398 17.6204 34.6098 17.5704 34.5698 17.5004C33.1298 15.0304 31.6898 12.5604 30.2498 10.1004C30.2098 10.0304 30.1598 10.0004 30.0798 10.0004C29.1698 10.0004 28.2598 10.0004 27.3398 10.0004C27.1998 10.0004 27.1998 10.0004 27.2698 10.1304C27.7098 10.9604 28.1498 11.7804 28.5998 12.6104C29.9098 15.0504 31.2198 17.4904 32.5298 19.9304C32.7098 20.2704 32.8998 20.6104 33.0898 20.9804L33.0798 20.9704Z" fill="#969696"/>
<path d="M22.7698 19.6997C23.3198 19.6997 23.8698 19.6997 24.4098 19.6997C24.6398 19.6997 24.6698 19.7297 24.6598 19.9597C24.6498 20.4897 24.6698 21.0197 24.5998 21.5497C24.5198 22.1697 24.3298 22.7497 23.9398 23.2497C23.4598 23.8597 22.8098 24.1697 22.0598 24.3197C21.6898 24.3897 21.3198 24.4197 20.9498 24.4197C20.2398 24.4197 19.5198 24.4197 18.8098 24.4197C18.5998 24.4197 18.5698 24.3897 18.5698 24.1797C18.5698 23.0797 18.5698 21.9897 18.5698 20.8897C18.5698 20.6797 18.5898 20.6497 18.7998 20.6497C19.4298 20.6497 20.0598 20.6497 20.6898 20.6497C20.8698 20.6497 20.8898 20.6397 20.8898 20.4497C20.8898 20.2797 20.8898 20.1097 20.8898 19.9397C20.8898 19.6897 20.8998 19.6797 21.1498 19.6797C21.6898 19.6797 22.2298 19.6797 22.7698 19.6797V19.6997ZM18.9298 22.5397C18.9298 23.0097 18.9298 23.4697 18.9298 23.9397C18.9298 24.0397 18.9598 24.0697 19.0598 24.0697C19.4898 24.0697 19.9198 24.0697 20.3598 24.0697C20.8598 24.0697 21.3498 24.0797 21.8498 24.0097C23.1498 23.8097 23.9198 23.1097 24.1998 21.8697C24.3298 21.2997 24.2998 20.7097 24.3198 20.1297C24.3198 20.0497 24.2798 20.0497 24.2198 20.0497C23.2698 20.0497 22.3098 20.0497 21.3598 20.0497C21.2898 20.0497 21.2598 20.0697 21.2598 20.1397C21.2598 20.2897 21.2598 20.4297 21.2598 20.5797C21.2598 20.9097 21.1398 21.0297 20.8098 21.0297C20.2298 21.0297 19.6498 21.0297 19.0798 21.0297C18.9798 21.0297 18.9398 21.0497 18.9398 21.1597C18.9398 21.6197 18.9398 22.0797 18.9398 22.5497L18.9298 22.5397ZM24.5998 19.8397C24.5398 19.9197 24.5498 19.9897 24.5498 20.0497C24.5498 20.6297 24.5498 21.2097 24.4398 21.7797C24.1698 23.1497 23.3598 23.9497 21.9898 24.2097C21.6298 24.2797 21.2598 24.2997 20.8898 24.2997C20.2098 24.2997 19.5398 24.2997 18.8598 24.2997C18.7998 24.2997 18.7298 24.2797 18.6798 24.3597C18.7098 24.3597 18.7398 24.3697 18.7598 24.3697C19.6198 24.3697 20.4798 24.3697 21.3398 24.3697C21.5498 24.3697 21.7598 24.3197 21.9698 24.3097C22.1198 24.3097 22.2698 24.2297 22.4098 24.1797C23.3998 23.8797 24.0598 23.2497 24.3698 22.2597C24.5598 21.6497 24.5598 21.0197 24.5798 20.3997C24.5798 20.2197 24.5798 20.0397 24.5798 19.8397H24.5998Z" fill="#969696"/>
<path d="M11.6401 17.0296C11.6401 15.7496 11.6401 14.4696 11.6401 13.1896C11.6401 12.6296 11.7301 12.0796 11.9301 11.5596C12.3001 10.6196 12.9901 10.0496 13.9501 9.77961C14.4101 9.64961 14.8701 9.59961 15.3501 9.59961C16.0501 9.59961 16.7501 9.59961 17.4601 9.59961C17.7301 9.59961 17.7601 9.62961 17.7601 9.89961C17.7601 10.9796 17.7601 12.0596 17.7601 13.1396C17.7601 13.4196 17.7301 13.4496 17.4401 13.4496C16.9001 13.4596 16.3601 13.4196 15.8201 13.4296C15.7801 13.4296 15.7301 13.4296 15.6901 13.4296C15.5701 13.4296 15.5201 13.4796 15.5201 13.6096C15.4701 15.8896 15.5201 18.1596 15.5001 20.4396C15.5001 20.5596 15.5401 20.5996 15.6601 20.5996C16.2201 20.5996 16.7801 20.5996 17.3401 20.5996C17.7501 20.5996 17.7601 20.6196 17.7601 21.0196C17.7601 22.0796 17.7601 23.1296 17.7601 24.1896C17.7601 24.4296 17.7201 24.4696 17.4901 24.4696C16.7601 24.4696 16.0301 24.4796 15.2901 24.4696C14.6101 24.4496 13.9401 24.3496 13.3201 24.0396C12.5701 23.6596 12.1001 23.0496 11.8501 22.2596C11.6901 21.7596 11.6401 21.2496 11.6401 20.7296C11.6401 19.4996 11.6401 18.2596 11.6401 17.0296ZM13.0801 23.7996C13.0801 23.7996 13.0601 23.7696 13.0501 23.7496C13.0901 23.7496 13.1201 23.7596 13.1601 23.7796C13.6901 24.0796 14.2701 24.2296 14.8801 24.2596C15.7201 24.3096 16.5701 24.2696 17.4101 24.2796C17.6001 24.2796 17.6101 24.2796 17.6101 24.0796C17.6101 23.0496 17.6101 22.0196 17.6101 20.9796C17.6101 20.9296 17.6001 20.8696 17.6601 20.8296V24.3196C17.7101 24.2696 17.7001 24.2296 17.7001 24.1896C17.7001 23.0796 17.7001 21.9696 17.7001 20.8596C17.7001 20.6796 17.6701 20.6496 17.4901 20.6496C16.8801 20.6496 16.2701 20.6496 15.6501 20.6496C15.4401 20.6496 15.4401 20.6496 15.4401 20.4296C15.4401 18.1296 15.4401 15.8396 15.4501 13.5396C15.4501 13.3596 15.4501 13.3596 15.6401 13.3596C16.2401 13.3596 16.8501 13.3596 17.4501 13.3596C17.5001 13.3596 17.5501 13.3696 17.6001 13.3396C17.5801 13.3396 17.5701 13.3296 17.5501 13.3296C16.8601 13.3296 16.1701 13.3296 15.4801 13.3296C15.4001 13.3296 15.4001 13.3696 15.4001 13.4296C15.4001 13.7396 15.3801 14.0496 15.3801 14.3696C15.3801 16.3996 15.3801 18.4296 15.3801 20.4596C15.3801 20.5096 15.3901 20.5696 15.3601 20.6296C15.3201 20.5596 15.3301 20.4896 15.3301 20.4296C15.3301 18.1096 15.3301 15.7996 15.3301 13.4796C15.3301 13.2896 15.3601 13.2596 15.5501 13.2596C16.1401 13.2596 16.7201 13.2596 17.3101 13.2596C17.4968 13.2596 17.5901 13.1696 17.5901 12.9896C17.5901 11.9796 17.5901 10.9696 17.5901 9.95961C17.5901 9.90961 17.5701 9.84961 17.6501 9.80961V13.3096C17.7001 13.2396 17.6901 13.1896 17.6901 13.1496C17.6901 12.0596 17.6901 10.9696 17.6901 9.86961C17.6901 9.66961 17.6601 9.63961 17.4601 9.63961C16.7501 9.63961 16.0401 9.63961 15.3301 9.63961C14.6701 9.63961 14.0301 9.72961 13.4301 10.0096C12.8001 10.2996 12.3301 10.7696 12.0501 11.4096C11.8001 11.9896 11.7001 12.5896 11.7001 13.2196C11.7001 15.6796 11.7001 18.1396 11.7001 20.5896C11.7001 20.9696 11.7101 21.3496 11.7801 21.7296C11.8501 22.1196 11.9501 22.5096 12.1601 22.8396C12.2801 23.0196 12.4001 23.1996 12.5401 23.3596C12.6701 23.5096 12.8001 23.6496 12.9801 23.7396C13.0001 23.7696 13.0201 23.7896 13.0601 23.7896C13.1101 23.8596 13.1901 23.8796 13.2601 23.9196C13.8401 24.2296 14.4701 24.3596 15.1201 24.3696C15.9101 24.3896 16.7001 24.3696 17.4801 24.3696C17.5101 24.3696 17.5401 24.3896 17.5701 24.3296C17.5201 24.3296 17.4701 24.3296 17.4301 24.3296C16.7301 24.3296 16.0301 24.3296 15.3201 24.3296C14.7501 24.3296 14.2001 24.2496 13.6601 24.0496C13.4601 23.9696 13.2701 23.8496 13.0801 23.7596V23.7996Z" fill="#131313"/>
<path d="M39.5301 9.69945C39.5901 9.69945 39.5901 9.74945 39.6001 9.78945C39.6001 9.84945 39.6001 9.89945 39.6001 9.95945C39.6001 14.6995 39.6001 19.4295 39.6001 24.1695C39.6001 24.2095 39.6001 24.2495 39.6001 24.2895C39.6001 24.4495 39.5701 24.4795 39.4001 24.4795C38.2801 24.4795 37.1601 24.4795 36.0501 24.4795C35.8301 24.4795 35.7701 24.4195 35.7701 24.1995C35.7701 21.8895 35.7701 19.5795 35.7701 17.2595C35.7701 16.9295 35.6801 16.6495 35.5201 16.3695C35.1401 15.6995 34.7701 15.0095 34.4001 14.3295C34.2101 13.9895 34.0401 13.6495 33.8401 13.3195C33.7401 13.1395 33.7401 12.9995 33.8401 12.8195C34.4501 11.8295 35.0501 10.8295 35.6501 9.82945C35.7301 9.68945 35.8301 9.61945 36.0101 9.61945C37.1201 9.61945 38.2301 9.61945 39.3401 9.61945C39.4001 9.61945 39.4801 9.58945 39.5101 9.68945C39.4601 9.68945 39.4201 9.66945 39.3701 9.66945C38.2301 9.66945 37.0801 9.66945 35.9401 9.66945C35.8501 9.66945 35.7801 9.70945 35.7301 9.78945C35.1001 10.8395 34.4701 11.8895 33.8301 12.9295C33.7801 13.0095 33.7701 13.0795 33.8201 13.1695C34.4501 14.3195 35.0701 15.4695 35.7001 16.6095C35.7701 16.7395 35.8101 16.8795 35.8101 17.0395C35.8101 19.4095 35.8101 21.7795 35.8101 24.1395C35.8101 24.3895 35.8301 24.4095 36.0801 24.4095C37.1501 24.4095 38.2301 24.4195 39.3001 24.4295C39.3401 24.4295 39.3901 24.4395 39.4301 24.3795H35.8801C35.9601 24.2795 36.0301 24.2995 36.0901 24.2995C37.1201 24.2995 38.1501 24.3095 39.1901 24.3195C39.4601 24.3195 39.4601 24.3195 39.4601 24.0595C39.4601 20.8695 39.4601 17.6695 39.4601 14.4795C39.4601 12.9795 39.4601 11.4795 39.4601 9.97945C39.4601 9.90945 39.4501 9.83945 39.5101 9.78945C39.5101 9.85945 39.5101 9.93945 39.5101 10.0095C39.5101 14.7195 39.5101 19.4295 39.5101 24.1395C39.5101 24.1995 39.5101 24.2595 39.5201 24.3395C39.5601 24.2595 39.5501 24.2195 39.5501 24.1695C39.5501 19.4195 39.5501 14.6795 39.5501 9.92945C39.5501 9.87945 39.5601 9.82945 39.5301 9.77945C39.5301 9.75945 39.5301 9.72945 39.5301 9.70945V9.69945Z" fill="#131313"/>
<path d="M26.59 18.0407C26.59 16.0007 26.59 13.9607 26.59 11.9107C26.59 11.8707 26.59 11.8307 26.59 11.7907C26.59 11.7207 26.57 11.6407 26.67 11.6207C26.76 11.6007 26.8 11.6707 26.84 11.7407C26.97 11.9807 27.09 12.2307 27.22 12.4707C27.69 13.3907 28.16 14.3207 28.63 15.2407C29.14 16.2407 29.65 17.2407 30.17 18.2307C30.2 18.2907 30.23 18.3407 30.26 18.4007C30.43 18.6707 30.49 18.9607 30.48 19.2807C30.47 20.9107 30.48 22.5407 30.48 24.1707C30.48 24.4307 30.45 24.4607 30.19 24.4907C30.14 24.4907 30.1 24.4907 30.05 24.4907C29.03 24.4907 28 24.4907 26.98 24.4907C26.61 24.4907 26.6 24.4807 26.6 24.1107C26.6 22.0807 26.6 20.0607 26.6 18.0307L26.59 18.0407ZM26.72 24.3907C26.76 24.4507 26.83 24.4307 26.89 24.4307C27.98 24.4307 29.07 24.4307 30.17 24.4307C30.22 24.4307 30.26 24.4407 30.31 24.4007C30.28 24.4007 30.26 24.3907 30.24 24.3907C29.07 24.3907 27.89 24.3907 26.72 24.3907C26.76 24.2907 26.85 24.3107 26.93 24.3107C27.99 24.3107 29.04 24.3107 30.1 24.3107C30.33 24.3107 30.33 24.3107 30.33 24.0807C30.33 22.4107 30.33 20.7507 30.33 19.0807C30.33 19.0207 30.32 18.9507 30.35 18.8907C30.36 18.8907 30.37 18.8907 30.38 18.8907V24.3207C30.38 24.3207 30.42 24.2207 30.42 24.1707C30.42 22.4607 30.42 20.7507 30.42 19.0507C30.42 18.9107 30.39 18.7807 30.32 18.6607C29.17 16.4107 28.01 14.1707 26.86 11.9207C26.82 11.8507 26.78 11.7907 26.73 11.7307C26.69 11.6907 26.67 11.6907 26.65 11.7507C26.63 11.8207 26.63 11.8907 26.63 11.9707C26.63 16.0407 26.63 20.1007 26.63 24.1707C26.63 24.2107 26.63 24.2607 26.63 24.3007C26.63 24.3507 26.65 24.3907 26.71 24.4007L26.72 24.3907Z" fill="#131313"/>
<path d="M18.5298 11.5092C18.5298 10.9492 18.5298 10.3992 18.5298 9.83922C18.5298 9.61922 18.5698 9.57922 18.7898 9.57922C19.1598 9.57922 19.5298 9.57922 19.8898 9.57922C20.4198 9.57922 20.9498 9.55922 21.4798 9.59922C22.2298 9.65922 22.9298 9.84922 23.5298 10.3292C24.0298 10.7192 24.3298 11.2492 24.4998 11.8492C24.6298 12.2892 24.6798 12.7492 24.6898 13.2092C24.6898 13.5092 24.6698 13.8092 24.7098 14.1092C24.7298 14.2592 24.6498 14.3392 24.4998 14.3592C24.4598 14.3592 24.4198 14.3592 24.3798 14.3592C23.2798 14.3592 22.1798 14.3592 21.0798 14.3592C20.8698 14.3592 20.8298 14.3192 20.8298 14.1092C20.8298 13.9492 20.8298 13.7892 20.8298 13.6292C20.8298 13.4592 20.8298 13.4492 20.6598 13.4492C20.0598 13.4492 19.4698 13.4492 18.8698 13.4492C18.5298 13.4492 18.5098 13.4292 18.5098 13.0992C18.5098 12.5692 18.5098 12.0392 18.5098 11.5092H18.5298ZM18.6598 13.3492C18.6998 13.4092 18.7698 13.3792 18.8298 13.3792C19.4598 13.3792 20.0998 13.3792 20.7298 13.3792C20.8898 13.3792 20.9098 13.3992 20.9098 13.5592C20.9098 13.7392 20.9098 13.9192 20.9098 14.0992C20.9098 14.2492 20.9498 14.2892 21.0998 14.2892C22.2198 14.2892 23.3398 14.2892 24.4498 14.2792C24.4898 14.2792 24.5398 14.2992 24.5998 14.2392H21.0098C21.0698 14.1592 21.1498 14.1792 21.2098 14.1792C22.2498 14.1792 23.2898 14.1792 24.3298 14.1692C24.3698 14.1692 24.4098 14.1692 24.4498 14.1692C24.5298 14.1692 24.5698 14.1292 24.5698 14.0492C24.5498 13.3892 24.5998 12.7192 24.4598 12.0892C24.6598 12.7592 24.5698 13.4792 24.6398 14.1892C24.6498 14.1692 24.6598 14.1492 24.6598 14.1292C24.6598 13.6792 24.6598 13.2192 24.6298 12.7692C24.5798 12.2192 24.4598 11.6892 24.1898 11.1992C23.8798 10.6292 23.4098 10.2292 22.8198 9.97922C22.2798 9.74922 21.7098 9.63922 21.1198 9.63922C20.3498 9.63922 19.5898 9.63922 18.8198 9.63922C18.5998 9.63922 18.5898 9.65922 18.5798 9.86922C18.5798 10.6392 18.5798 11.4092 18.5798 12.1792C18.5798 12.5092 18.5798 12.8492 18.5798 13.1792C18.5798 13.2392 18.5598 13.3192 18.6598 13.3492Z" fill="#131313"/>
<path d="M47.1899 13.6702C47.1899 13.6702 47.1999 13.6702 47.2099 13.6602C47.2099 13.6902 47.1899 13.6602 47.1899 13.6702Z" fill="#969696"/>
<path d="M46.5102 12.8807C46.2202 12.7407 45.9302 12.6207 45.6102 12.5807C45.5202 12.5707 45.4302 12.5507 45.3402 12.5707C45.2002 12.5907 45.1202 12.5207 45.0402 12.4307C44.5702 11.8607 44.0202 11.3707 43.4402 10.9007C42.7002 10.3107 41.9102 9.80074 41.0802 9.35074C40.1702 8.86074 39.2302 8.43074 38.2702 8.07074C37.1602 7.65074 36.0202 7.31074 34.8702 7.03074C34.1202 6.85074 33.3602 6.70074 32.6002 6.58074C32.1202 6.51074 31.6402 6.43074 31.1502 6.38074C30.6202 6.32074 30.1002 6.26074 29.5702 6.22074C29.1202 6.19074 28.6802 6.17074 28.2302 6.14074C27.8102 6.11074 27.3802 6.13074 26.9602 6.12074C26.4402 6.12074 25.9302 6.11074 25.4102 6.12074C24.9302 6.13074 24.4402 6.16074 23.9602 6.20074C23.5902 6.23074 23.2202 6.26074 22.8602 6.30074C22.4102 6.35074 21.9702 6.41074 21.5202 6.47074C20.8902 6.56074 20.2702 6.66074 19.6502 6.79074C18.8702 6.95074 18.1002 7.13074 17.3402 7.35074C16.8702 7.48074 16.4102 7.62074 15.9502 7.78074C15.2602 8.02074 14.5802 8.28074 13.9202 8.57074C12.9002 9.02074 11.9202 9.54074 11.0002 10.1507C10.4802 10.5007 9.98022 10.8707 9.52022 11.2807C9.26022 11.5107 8.99022 11.7407 8.76022 12.0007C8.43022 12.3607 8.10021 12.7207 7.83021 13.1207C7.79022 13.1807 7.75022 13.2207 7.67022 13.2407C7.25022 13.3407 6.89021 13.5607 6.58021 13.8507C6.55021 13.8807 6.53021 13.9207 6.47021 13.9207C6.69021 13.5107 6.94021 13.1307 7.22021 12.7707C7.60021 12.2807 8.01022 11.8207 8.47022 11.4007C9.27022 10.6707 10.1302 10.0307 11.0602 9.47074C11.5202 9.20074 11.9802 8.93074 12.4602 8.70074C13.2702 8.30074 14.1102 7.94074 14.9602 7.63074C16.0902 7.22074 17.2502 6.88074 18.4202 6.60074C19.1302 6.43074 19.8402 6.28074 20.5702 6.17074C21.0702 6.09074 21.5702 6.01074 22.0702 5.94074C22.4102 5.89074 22.7502 5.87074 23.0802 5.83074C23.5602 5.79074 24.0402 5.74074 24.5202 5.70074C24.6802 5.69074 24.8402 5.68074 24.9902 5.68074C26.0202 5.63074 27.0602 5.64074 28.1002 5.65074C28.5902 5.65074 29.0702 5.69074 29.5502 5.73074C30.0602 5.77074 30.5702 5.82074 31.0902 5.87074C31.8002 5.95074 32.5102 6.05074 33.2102 6.16074C33.8602 6.27074 34.5102 6.40074 35.1602 6.55074C36.1902 6.79074 37.2002 7.07074 38.1902 7.41074C38.9002 7.65074 39.6002 7.93074 40.2902 8.23074C41.4602 8.75074 42.5702 9.35074 43.6202 10.0807C44.0702 10.3907 44.5002 10.7307 44.9102 11.0807C45.2102 11.3407 45.5102 11.6207 45.7802 11.9107C46.0602 12.2107 46.3302 12.5107 46.5602 12.8407C46.5602 12.8407 46.5602 12.8507 46.5502 12.8607L46.5102 12.8807Z" fill="#131313"/>
<path d="M46.5198 12.8694L46.5698 12.9094C46.5698 12.9094 46.5198 12.9094 46.5098 12.8794C46.5098 12.8794 46.5098 12.8694 46.5198 12.8594V12.8694Z" fill="#131313"/>
<path d="M7.43994 21.8704C7.68994 21.9404 7.92994 22.0104 8.17994 21.9804C8.39994 21.9504 8.53994 22.0204 8.69994 22.1904C9.32994 22.8704 10.0499 23.4404 10.8099 23.9704C11.6699 24.5604 12.5799 25.0604 13.5199 25.5004C14.2199 25.8304 14.9399 26.1204 15.6699 26.3704C16.6099 26.7004 17.5599 26.9804 18.5299 27.2104C19.2299 27.3804 19.9399 27.5304 20.6499 27.6404C21.1499 27.7204 21.6499 27.8004 22.1499 27.8704C22.5099 27.9204 22.8699 27.9404 23.2299 27.9804C23.6999 28.0304 24.1699 28.0604 24.6399 28.0904C25.1699 28.1204 25.6999 28.1304 26.2299 28.1404C26.7399 28.1404 27.2499 28.1404 27.7599 28.1404C28.1999 28.1404 28.6399 28.1204 29.0799 28.0904C29.4999 28.0704 29.9099 28.0304 30.3199 27.9904C31.0199 27.9104 31.7299 27.8304 32.4199 27.7104C33.1999 27.5904 33.9699 27.4304 34.7399 27.2604C35.6799 27.0404 36.5999 26.7804 37.5099 26.4704C38.1799 26.2404 38.8299 25.9804 39.4699 25.7004C39.9599 25.4904 40.4299 25.2504 40.8999 25.0104C41.7899 24.5404 42.6299 24.0004 43.4199 23.3804C43.8599 23.0304 44.2899 22.6504 44.6799 22.2404C44.7799 22.1404 44.8699 22.0304 44.9699 21.9304C44.9899 21.9104 45.0099 21.8904 45.0499 21.8904C45.6999 21.9104 45.7399 21.9004 46.3999 21.6504C46.3399 21.7804 46.2399 21.8704 46.1599 21.9604C45.8299 22.3504 45.4799 22.7104 45.0999 23.0604C44.4599 23.6404 43.7699 24.1604 43.0399 24.6304C42.5599 24.9404 42.0599 25.2204 41.5599 25.4904C40.5299 26.0304 39.4499 26.4804 38.3499 26.8704C37.3199 27.2304 36.2799 27.5304 35.2199 27.7804C34.4399 27.9704 33.6599 28.1204 32.8699 28.2404C32.4099 28.3104 31.9599 28.3804 31.4999 28.4304C30.9899 28.4904 30.4899 28.5504 29.9799 28.5804C29.6099 28.6104 29.2299 28.6304 28.8599 28.6604C27.7799 28.7404 26.7099 28.7104 25.6299 28.7004C25.1199 28.7004 24.6199 28.6604 24.1099 28.6304C23.7199 28.6004 23.3399 28.5704 22.9499 28.5304C22.4899 28.4804 22.0399 28.4204 21.5899 28.3604C21.0299 28.2804 20.4699 28.1904 19.9199 28.0904C19.4699 28.0104 19.0299 27.9104 18.5899 27.8104C17.5499 27.5804 16.5199 27.2904 15.5099 26.9404C14.6999 26.6604 13.9099 26.3504 13.1299 25.9904C12.0599 25.5004 11.0399 24.9404 10.0799 24.2704C9.62994 23.9604 9.19994 23.6204 8.78994 23.2704C8.48994 23.0104 8.18994 22.7304 7.91994 22.4404C7.75994 22.2704 7.59994 22.1104 7.44994 21.9004L7.43994 21.8704Z" fill="#131313"/>
<path d="M33.0701 20.9702C32.8701 20.6102 32.6901 20.2602 32.5101 19.9202C31.2001 17.4802 29.8901 15.0402 28.5801 12.6002C28.1401 11.7702 27.6901 10.9502 27.2501 10.1202C27.1801 9.99023 27.1801 9.99023 27.3201 9.99023C28.2301 9.99023 29.1401 9.99023 30.0601 9.99023C30.1401 9.99023 30.1901 10.0102 30.2301 10.0902C31.6701 12.5602 33.1101 15.0302 34.5501 17.4902C34.5901 17.5602 34.6201 17.6102 34.5801 17.7002C34.0901 18.7502 33.6001 19.8102 33.1101 20.8702C33.1001 20.8902 33.0901 20.9202 33.0601 20.9602L33.0701 20.9702Z" fill="#131313"/>
<path d="M34.9298 17.6706C34.7398 18.0806 34.5598 18.4906 34.3698 18.9006C33.9698 19.7806 33.5598 20.6506 33.1598 21.5306C33.1498 21.5606 33.1498 21.6006 33.0998 21.6106C33.0598 21.5406 33.1098 21.4806 33.1398 21.4206C33.3398 20.9806 33.5399 20.5506 33.7399 20.1106C34.0999 19.3306 34.4598 18.5506 34.8198 17.7706C34.8398 17.7206 34.8498 17.6606 34.9098 17.6406C34.9098 17.6406 34.9298 17.6606 34.9298 17.6706Z" fill="#131313"/>
<path d="M34.8999 17.6495C34.8999 17.6495 34.9199 17.6295 34.9299 17.6395C34.9499 17.6495 34.9299 17.6695 34.9299 17.6795C34.9299 17.6795 34.9099 17.6595 34.9099 17.6495H34.8999Z" fill="#131313"/>
<path d="M18.9299 22.5391C18.9299 22.0791 18.9299 21.6191 18.9299 21.1491C18.9299 21.0391 18.9599 21.0191 19.0699 21.0191C19.6499 21.0191 20.2299 21.0191 20.7999 21.0191C21.1299 21.0191 21.2499 20.8991 21.2499 20.5691C21.2499 20.4191 21.2499 20.2791 21.2499 20.1291C21.2499 20.0591 21.2699 20.0391 21.3499 20.0391C22.2999 20.0391 23.2599 20.0391 24.2099 20.0391C24.2699 20.0391 24.3099 20.0391 24.3099 20.1191C24.2999 20.6991 24.3199 21.2891 24.1899 21.8591C23.9099 23.0991 23.1299 23.7991 21.8399 23.9991C21.3499 24.0791 20.8499 24.0591 20.3499 24.0591C19.9199 24.0591 19.4899 24.0591 19.0499 24.0591C18.9499 24.0591 18.9199 24.0291 18.9199 23.9291C18.9199 23.4591 18.9199 22.9991 18.9199 22.5291L18.9299 22.5391Z" fill="#131313"/>
<path d="M24.6002 19.8398C24.6002 20.0398 24.6002 20.2198 24.6002 20.3998C24.5802 21.0298 24.5902 21.6498 24.3902 22.2598C24.0702 23.2498 23.4202 23.8898 22.4302 24.1798C22.2802 24.2198 22.1402 24.2998 21.9902 24.3098C21.7802 24.3098 21.5702 24.3598 21.3602 24.3698C20.5002 24.3698 19.6402 24.3698 18.7802 24.3698C18.7602 24.3698 18.7302 24.3698 18.7002 24.3598C18.7502 24.2798 18.8202 24.2998 18.8802 24.2998C19.5602 24.2998 20.2302 24.2998 20.9102 24.2998C21.2802 24.2998 21.6502 24.2698 22.0102 24.2098C23.3802 23.9498 24.1902 23.1498 24.4602 21.7798C24.5702 21.2098 24.5602 20.6298 24.5702 20.0498C24.5702 19.9798 24.5502 19.9098 24.6202 19.8398H24.6002Z" fill="#131313"/>
<path d="M12.99 23.7602C12.81 23.6702 12.67 23.5302 12.55 23.3802C12.41 23.2202 12.29 23.0402 12.17 22.8602C11.95 22.5202 11.86 22.1402 11.79 21.7502C11.72 21.3702 11.71 20.9902 11.71 20.6102C11.71 18.1502 11.71 15.6902 11.71 13.2402C11.71 12.6202 11.81 12.0102 12.06 11.4302C12.34 10.7902 12.8 10.3202 13.44 10.0302C14.04 9.75016 14.69 9.66016 15.34 9.66016C16.05 9.66016 16.76 9.66016 17.47 9.66016C17.67 9.66016 17.7 9.69016 17.7 9.89016C17.7 10.9802 17.7 12.0702 17.7 13.1702C17.7 13.2102 17.7 13.2602 17.66 13.3302V9.83016C17.58 9.87016 17.6 9.93016 17.6 9.98016C17.6 10.9902 17.6 12.0002 17.6 13.0102C17.6 13.1902 17.5066 13.2802 17.32 13.2802C16.73 13.2802 16.15 13.2802 15.56 13.2802C15.38 13.2802 15.35 13.3102 15.34 13.5002C15.34 15.8202 15.34 18.1302 15.34 20.4502C15.34 20.5102 15.32 20.5802 15.37 20.6502C15.4 20.5902 15.39 20.5302 15.39 20.4802C15.39 18.4502 15.39 16.4202 15.39 14.3902C15.39 14.0802 15.4 13.7702 15.41 13.4502C15.41 13.3902 15.41 13.3502 15.49 13.3502C16.18 13.3502 16.87 13.3502 17.56 13.3502C17.57 13.3502 17.58 13.3502 17.61 13.3602C17.56 13.4002 17.51 13.3802 17.46 13.3802C16.86 13.3802 16.25 13.3802 15.65 13.3802C15.46 13.3802 15.46 13.3802 15.46 13.5602C15.46 15.8602 15.46 18.1502 15.45 20.4502C15.45 20.6702 15.45 20.6702 15.66 20.6702C16.27 20.6702 16.88 20.6702 17.5 20.6702C17.68 20.6702 17.71 20.7002 17.71 20.8802C17.71 21.9902 17.71 23.1002 17.71 24.2102C17.71 24.2502 17.72 24.2902 17.67 24.3402V20.8502C17.61 20.9002 17.62 20.9502 17.62 21.0002C17.62 22.0302 17.62 23.0602 17.62 24.1002C17.62 24.3002 17.62 24.3102 17.42 24.3002C16.58 24.3002 15.73 24.3302 14.89 24.2802C14.28 24.2402 13.71 24.1002 13.17 23.8002C13.14 23.7802 13.1 23.7602 13.06 23.7702C13.05 23.7202 13.01 23.7202 12.97 23.7302C12.97 23.7302 13.01 23.7502 13.01 23.7702C13.01 23.7702 13 23.7802 12.99 23.7902V23.7602ZM12.05 17.0202C12.05 18.3102 12.05 19.6002 12.05 20.8902C12.05 21.2502 12.09 21.6102 12.18 21.9602C12.42 22.8902 12.97 23.5402 13.89 23.8502C14.3 23.9902 14.71 24.0502 15.14 24.0502C15.83 24.0602 16.53 24.0502 17.22 24.0502C17.32 24.0502 17.35 24.0202 17.35 23.9202C17.35 22.9902 17.35 22.0502 17.35 21.1202C17.35 21.0202 17.32 20.9902 17.22 20.9902C16.65 20.9902 16.09 20.9902 15.52 20.9902C15.19 20.9902 15.08 20.8802 15.08 20.5502C15.08 19.6302 15.08 18.7102 15.08 17.7902C15.08 16.3402 15.08 14.9002 15.08 13.4502C15.08 13.1202 15.18 13.0202 15.52 13.0202C16.08 13.0202 16.64 13.0202 17.2 13.0202C17.29 13.0202 17.33 13.0002 17.33 12.9002C17.33 11.9702 17.33 11.0302 17.33 10.1002C17.33 10.0002 17.3 9.98016 17.21 9.98016C16.6 9.98016 15.99 9.98016 15.39 9.98016C15.05 9.98016 14.7 10.0002 14.37 10.0602C13.52 10.2202 12.82 10.6202 12.41 11.4202C12.14 11.9602 12.04 12.5402 12.04 13.1402C12.04 14.4302 12.04 15.7202 12.04 17.0102L12.05 17.0202Z" fill="#969696"/>
<path d="M13.0801 23.8008C13.2801 23.8908 13.4601 24.0108 13.6601 24.0908C14.2001 24.2908 14.7501 24.3608 15.3201 24.3708C16.0201 24.3708 16.7201 24.3708 17.4301 24.3708C17.4801 24.3708 17.5201 24.3708 17.5701 24.3708C17.5501 24.4208 17.5101 24.4108 17.4801 24.4108C16.6901 24.4108 15.9001 24.4108 15.1201 24.4108C14.4701 24.4008 13.8401 24.2708 13.2601 23.9608C13.1901 23.9208 13.1101 23.8908 13.0601 23.8308C13.0601 23.8308 13.0601 23.8208 13.0701 23.8108L13.0801 23.8008Z" fill="#969696"/>
<path d="M13.0702 23.82C13.0702 23.82 13.0102 23.8 12.9902 23.77C12.9902 23.77 13.0002 23.76 13.0102 23.75C13.0302 23.75 13.0402 23.75 13.0602 23.75C13.0702 23.77 13.0802 23.78 13.0902 23.8C13.0902 23.8 13.0902 23.81 13.0802 23.82H13.0702Z" fill="#969696"/>
<path d="M39.5202 9.78016C39.4602 9.83016 39.4702 9.91016 39.4702 9.97016C39.4702 11.4702 39.4702 12.9702 39.4702 14.4702C39.4702 17.6602 39.4702 20.8602 39.4702 24.0502C39.4702 24.3202 39.4702 24.3202 39.2002 24.3102C38.1702 24.3102 37.1402 24.3002 36.1002 24.2902C36.0402 24.2902 35.9602 24.2802 35.8902 24.3702H39.4402C39.4002 24.4302 39.3602 24.4202 39.3102 24.4202C38.2402 24.4202 37.1602 24.4102 36.0902 24.4002C35.8402 24.4002 35.8202 24.3802 35.8202 24.1302C35.8202 21.7602 35.8202 19.3902 35.8202 17.0302C35.8202 16.8702 35.7802 16.7402 35.7102 16.6002C35.0802 15.4502 34.4602 14.3002 33.8302 13.1602C33.7802 13.0702 33.7902 13.0002 33.8402 12.9202C34.4702 11.8702 35.1102 10.8202 35.7402 9.78016C35.7902 9.70016 35.8602 9.66016 35.9502 9.66016C37.0902 9.66016 38.2402 9.66016 39.3802 9.66016C39.4302 9.66016 39.4702 9.67016 39.5202 9.68016C39.5202 9.68016 39.5202 9.68016 39.5302 9.69016C39.5302 9.71016 39.5302 9.73016 39.5302 9.76016C39.5302 9.76016 39.5202 9.76016 39.5102 9.77016L39.5202 9.78016ZM39.2102 17.0602C39.2102 14.7602 39.2102 12.4502 39.2102 10.1502C39.2102 10.0302 39.1802 10.0002 39.0602 10.0002C38.0802 10.0002 37.1102 10.0002 36.1302 10.0002C36.0302 10.0002 35.9802 10.0302 35.9302 10.1202C35.3602 11.0702 34.7902 12.0102 34.2202 12.9602C34.1702 13.0402 34.1802 13.0902 34.2202 13.1702C34.8302 14.2902 35.4402 15.4102 36.0602 16.5202C36.1302 16.6602 36.1702 16.7902 36.1702 16.9502C36.1702 19.2702 36.1702 21.5802 36.1702 23.9002C36.1702 24.0702 36.1702 24.0702 36.3402 24.0702C37.2502 24.0702 38.1502 24.0802 39.0602 24.0902C39.1702 24.0902 39.2102 24.0702 39.2102 23.9502C39.2102 21.6602 39.2102 19.3602 39.2102 17.0702V17.0602Z" fill="#969696"/>
<path d="M39.54 9.76953C39.54 9.76953 39.56 9.86953 39.56 9.91953C39.56 14.6695 39.56 19.4095 39.56 24.1595C39.56 24.2095 39.57 24.2495 39.53 24.3295C39.53 24.2395 39.52 24.1795 39.52 24.1295C39.52 19.4195 39.52 14.7095 39.52 9.99953C39.52 9.92953 39.52 9.84953 39.52 9.77953C39.52 9.77953 39.53 9.77953 39.54 9.76953Z" fill="#969696"/>
<path d="M26.7201 24.3893C26.6601 24.3893 26.6401 24.3393 26.6401 24.2893C26.6401 24.2493 26.6401 24.1993 26.6401 24.1593C26.6401 20.0893 26.6401 16.0293 26.6401 11.9593C26.6401 11.8893 26.6401 11.8093 26.6601 11.7393C26.6801 11.6793 26.7001 11.6793 26.7401 11.7193C26.7901 11.7793 26.8401 11.8393 26.8701 11.9093C28.0201 14.1593 29.1701 16.4093 30.3301 18.6493C30.3901 18.7793 30.4301 18.8993 30.4301 19.0393C30.4301 20.7493 30.4301 22.4593 30.4301 24.1593C30.4301 24.2093 30.4401 24.2593 30.3901 24.3093V18.8793C30.3901 18.8793 30.3701 18.8793 30.3601 18.8793C30.3301 18.9393 30.3401 19.0093 30.3401 19.0693C30.3401 20.7393 30.3401 22.3993 30.3401 24.0693C30.3401 24.2993 30.3401 24.2993 30.1101 24.2993C29.0501 24.2993 28.0001 24.2993 26.9401 24.2993C26.8601 24.2993 26.7701 24.2793 26.7301 24.3793L26.7201 24.3893ZM27.0101 12.9593H26.9901C26.9901 12.9693 26.9901 12.9893 26.9901 12.9993C26.9901 16.6493 26.9901 20.2993 26.9901 23.9493C26.9901 24.0493 27.0201 24.0693 27.1101 24.0693C28.0501 24.0693 28.9901 24.0693 29.9201 24.0693C30.0501 24.0693 30.0701 24.0293 30.0701 23.9093C30.0701 22.2893 30.0701 20.6693 30.0701 19.0393C30.0701 18.9393 30.0401 18.8493 30.0001 18.7593C29.1501 17.1093 28.3001 15.4493 27.4501 13.7993C27.3001 13.5193 27.1601 13.2293 27.0101 12.9493V12.9593Z" fill="#969696"/>
<path d="M26.7202 24.4004C27.8902 24.4004 29.0702 24.4004 30.2402 24.4004C30.2602 24.4004 30.2802 24.4004 30.3102 24.4104C30.2602 24.4504 30.2102 24.4404 30.1702 24.4404C29.0802 24.4404 27.9902 24.4404 26.8902 24.4404C26.8302 24.4404 26.7702 24.4704 26.7202 24.4004Z" fill="#969696"/>
<path d="M18.6598 13.3506C18.5598 13.3306 18.5798 13.2506 18.5798 13.1806C18.5798 12.8506 18.5798 12.5106 18.5798 12.1806C18.5798 11.4106 18.5798 10.6406 18.5798 9.87062C18.5798 9.65062 18.5998 9.64062 18.8198 9.64062C19.5898 9.64062 20.3498 9.64062 21.1198 9.64062C21.7098 9.64062 22.2798 9.75062 22.8198 9.98062C23.4098 10.2306 23.8798 10.6206 24.1898 11.2006C24.4598 11.6906 24.5798 12.2206 24.6298 12.7706C24.6698 13.2206 24.6498 13.6806 24.6598 14.1306C24.6598 14.1506 24.6598 14.1706 24.6398 14.1906C24.5698 13.4806 24.6598 12.7706 24.4598 12.0906C24.5998 12.7206 24.5498 13.3906 24.5698 14.0506C24.5698 14.1306 24.5298 14.1706 24.4498 14.1706C24.4098 14.1706 24.3698 14.1706 24.3298 14.1706C23.2898 14.1706 22.2498 14.1706 21.2098 14.1806C21.1498 14.1806 21.0698 14.1606 21.0098 14.2406H24.5998C24.5398 14.3006 24.4998 14.2806 24.4498 14.2806C23.3298 14.2806 22.2098 14.2806 21.0998 14.2906C20.9498 14.2906 20.9098 14.2506 20.9098 14.1006C20.9098 13.9206 20.9098 13.7406 20.9098 13.5606C20.9098 13.4006 20.8998 13.3806 20.7298 13.3806C20.0998 13.3806 19.4598 13.3806 18.8298 13.3806C18.7698 13.3806 18.7098 13.4006 18.6598 13.3406C19.4098 13.3406 20.1598 13.3406 20.9098 13.3406C20.8998 13.2606 20.8398 13.2606 20.7798 13.2606C20.1298 13.2606 19.4698 13.2606 18.8198 13.2606C18.7598 13.2606 18.6898 13.2606 18.6598 13.3406V13.3506ZM22.7698 13.9406C23.2498 13.9406 23.7198 13.9406 24.1998 13.9406C24.2898 13.9406 24.3198 13.9206 24.3198 13.8306C24.3198 13.6306 24.3198 13.4406 24.3098 13.2406C24.3098 12.8806 24.2798 12.5106 24.1998 12.1606C24.0098 11.3506 23.5998 10.7206 22.8298 10.3406C22.3098 10.0906 21.7598 10.0006 21.1898 9.99062C20.4898 9.98062 19.7898 9.99062 19.0798 9.99062C18.9698 9.99062 18.9398 10.0206 18.9398 10.1306C18.9398 11.0606 18.9398 11.9906 18.9398 12.9206C18.9398 13.0306 18.9698 13.0606 19.0798 13.0606C19.6698 13.0606 20.2598 13.0606 20.8498 13.0606C21.1298 13.0606 21.2598 13.1906 21.2598 13.4706C21.2598 13.5906 21.2598 13.7106 21.2598 13.8306C21.2598 13.9306 21.2798 13.9706 21.3898 13.9706C21.8498 13.9706 22.3098 13.9706 22.7798 13.9706L22.7698 13.9406Z" fill="#969696"/>
<path d="M12.0498 17.03C12.0498 15.74 12.0498 14.45 12.0498 13.16C12.0498 12.56 12.1498 11.98 12.4198 11.44C12.8298 10.64 13.5198 10.24 14.3798 10.08C14.7198 10.02 15.0598 10 15.3998 10C16.0098 10 16.6198 10 17.2198 10C17.3198 10 17.3398 10.03 17.3398 10.12C17.3398 11.05 17.3398 11.99 17.3398 12.92C17.3398 13.02 17.3098 13.04 17.2098 13.04C16.6498 13.04 16.0898 13.04 15.5298 13.04C15.1898 13.04 15.0898 13.14 15.0898 13.47C15.0898 14.92 15.0898 16.36 15.0898 17.81C15.0898 18.73 15.0898 19.65 15.0898 20.57C15.0898 20.9 15.1998 21.01 15.5298 21.01C16.0998 21.01 16.6598 21.01 17.2298 21.01C17.3298 21.01 17.3598 21.04 17.3598 21.14C17.3598 22.07 17.3598 23.01 17.3598 23.94C17.3598 24.04 17.3398 24.07 17.2298 24.07C16.5398 24.07 15.8398 24.07 15.1498 24.07C14.7298 24.07 14.3098 24 13.8998 23.87C12.9798 23.56 12.4298 22.91 12.1898 21.98C12.0998 21.63 12.0598 21.27 12.0598 20.91C12.0598 19.62 12.0598 18.33 12.0598 17.04L12.0498 17.03Z" fill="#131313"/>
<path d="M13.0602 23.7509C13.0602 23.7509 13.0302 23.7509 13.0102 23.7509C13.0102 23.7309 12.9902 23.7209 12.9702 23.7109C12.9702 23.7109 13.0402 23.7109 13.0602 23.7509Z" fill="#131313"/>
<path d="M39.2099 17.0602C39.2099 19.3502 39.2099 21.6502 39.2099 23.9402C39.2099 24.0602 39.1699 24.0902 39.0599 24.0802C38.1499 24.0702 37.2499 24.0602 36.3399 24.0602C36.1699 24.0602 36.1699 24.0602 36.1699 23.8902C36.1699 21.5702 36.1699 19.2602 36.1699 16.9402C36.1699 16.7902 36.1399 16.6502 36.0599 16.5102C35.4499 15.3902 34.8399 14.2702 34.2199 13.1602C34.1799 13.0802 34.1799 13.0302 34.2199 12.9502C34.7899 12.0102 35.3599 11.0602 35.9299 10.1102C35.9799 10.0302 36.0299 9.99023 36.1299 9.99023C37.1099 9.99023 38.0799 9.99023 39.0599 9.99023C39.1699 9.99023 39.2099 10.0202 39.2099 10.1402C39.2099 12.4402 39.2099 14.7502 39.2099 17.0502V17.0602Z" fill="#131313"/>
<path d="M27.0102 12.9707C27.1602 13.2507 27.3002 13.5407 27.4502 13.8207C28.3002 15.4807 29.1502 17.1307 30.0002 18.7807C30.0502 18.8707 30.0702 18.9607 30.0702 19.0607C30.0702 20.6807 30.0702 22.3007 30.0702 23.9307C30.0702 24.0507 30.0502 24.0907 29.9202 24.0907C28.9802 24.0907 28.0402 24.0907 27.1102 24.0907C27.0202 24.0907 26.9902 24.0707 26.9902 23.9707C26.9902 20.3207 26.9902 16.6707 26.9902 13.0207C26.9902 13.0107 26.9902 12.9907 26.9902 12.9807H27.0102V12.9707Z" fill="#131313"/>
<path d="M22.7599 13.9409C22.2999 13.9409 21.8399 13.9409 21.3699 13.9409C21.2599 13.9409 21.2299 13.9109 21.2399 13.8009C21.2399 13.6809 21.2399 13.5609 21.2399 13.4409C21.2399 13.1609 21.1199 13.0309 20.8299 13.0309C20.2399 13.0309 19.6499 13.0309 19.0599 13.0309C18.9499 13.0309 18.9199 13.0009 18.9199 12.8909C18.9199 11.9609 18.9199 11.0309 18.9199 10.1009C18.9199 9.99094 18.9499 9.96094 19.0599 9.96094C19.7599 9.96094 20.4599 9.96094 21.1699 9.96094C21.7399 9.96094 22.2899 10.0609 22.8099 10.3109C23.5799 10.6809 23.9899 11.3209 24.1799 12.1309C24.2599 12.4909 24.2899 12.8509 24.2899 13.2109C24.2899 13.4109 24.2899 13.6009 24.2999 13.8009C24.2999 13.8909 24.2699 13.9209 24.1799 13.9109C23.6999 13.9109 23.2299 13.9109 22.7499 13.9109L22.7599 13.9409Z" fill="#131313"/>
<path d="M18.6602 13.3495C18.6902 13.2695 18.7502 13.2695 18.8202 13.2695C19.4702 13.2695 20.1302 13.2695 20.7802 13.2695C20.8402 13.2695 20.9002 13.2695 20.9102 13.3495C20.1502 13.3495 19.4102 13.3495 18.6602 13.3495Z" fill="#131313"/>
</svg>
