<svg width="52" height="36" viewBox="0 0 52 36" fill="none" xmlns="http://www.w3.org/2000/svg">
<rect x="0.5" y="0.5" width="51" height="35" rx="3.5" fill="white"/>
<rect x="0.5" y="0.5" width="51" height="35" rx="3.5" stroke="#EAEAEA"/>
<path d="M5.87012 15.0499C5.87012 14.9199 5.89012 14.7799 5.90012 14.6499C5.90012 14.4599 5.94012 14.4299 6.13012 14.4299C6.99012 14.4299 7.85012 14.4299 8.71012 14.4299C8.88012 14.4299 8.93012 14.4699 8.92012 14.6499C8.92012 15.1299 8.90012 15.6099 8.88012 16.0899C8.88012 16.2099 8.88012 16.3199 8.88012 16.4399C8.86012 17.2099 8.85012 17.9899 8.83012 18.7599C8.83012 19.2299 8.80012 19.6999 8.80012 20.1699C8.80012 20.4299 8.84012 20.6899 8.89012 20.9499C9.01012 21.5899 9.40012 21.9899 10.0401 22.1599C10.5901 22.2999 11.1301 22.2999 11.6201 21.9799C12.0501 21.7099 12.3301 21.3299 12.4501 20.8399C12.5201 20.5599 12.5601 20.2699 12.5601 19.9899C12.5601 18.8199 12.5401 17.6499 12.5201 16.4799C12.5201 15.9099 12.4801 15.3299 12.4701 14.7599C12.4701 14.7099 12.4701 14.6599 12.4701 14.6099C12.4801 14.4699 12.5301 14.4299 12.6601 14.4199C12.7301 14.4199 12.7901 14.4199 12.8601 14.4199C13.6601 14.4199 14.4701 14.4199 15.2701 14.4199C15.3101 14.4199 15.3401 14.4199 15.3801 14.4199C15.5201 14.4199 15.5601 14.4699 15.5701 14.6099C15.5701 14.7399 15.5701 14.8799 15.5701 15.0099C15.5401 15.5099 15.5101 16.0199 15.4801 16.5199C15.4801 16.6399 15.4801 16.7599 15.4801 16.8899C15.4801 17.9999 15.4701 19.1099 15.4801 20.2199C15.4901 21.1799 15.5301 22.1499 15.5601 23.1099C15.5601 23.2399 15.5801 23.3799 15.5801 23.5099C15.5801 23.6799 15.5201 23.7399 15.3501 23.7399C14.8001 23.7399 14.2501 23.7399 13.7001 23.7399C13.4301 23.7399 13.1501 23.7299 12.8801 23.7299C12.6101 23.7299 12.5901 23.6999 12.5901 23.4299C12.5901 23.2999 12.6101 23.1599 12.6101 23.0299C12.6101 22.9299 12.6301 22.8299 12.6101 22.7399C12.6101 22.6799 12.5601 22.5999 12.5101 22.5699C12.4701 22.5499 12.3801 22.5699 12.3301 22.6099C12.1801 22.7299 12.0301 22.8599 11.8801 22.9899C11.4901 23.2999 11.0901 23.6099 10.6001 23.7499C10.4001 23.8099 10.1801 23.8399 9.97012 23.8799C9.92012 23.8799 9.88012 23.8999 9.83012 23.9099H8.95012C8.95012 23.9099 8.88012 23.8799 8.85012 23.8799C8.47012 23.8499 8.10012 23.7699 7.75012 23.6399C7.36012 23.4999 7.00012 23.3099 6.71012 23.0199C6.27012 22.5799 6.03012 22.0299 5.96012 21.4099C5.94012 21.2499 5.91012 21.0999 5.89012 20.9399V15.0499" fill="#F48020"/>
<path d="M46.1299 21.3507C46.0599 21.3807 45.9899 21.4207 45.9199 21.4207C45.4499 21.4207 44.9799 21.4207 44.5099 21.4207C44.3899 21.4207 44.3099 21.3707 44.2799 21.2607C44.2499 21.1507 44.2199 21.0407 44.1799 20.9307C44.1599 20.8707 44.1299 20.8007 44.0899 20.7707C44.0099 20.7207 43.9599 20.8007 43.9099 20.8507C43.6099 21.1707 43.2499 21.3807 42.8299 21.5007C42.3399 21.6407 41.8399 21.6607 41.3499 21.5507C40.6799 21.4007 40.2399 20.9907 40.0299 20.3407C39.8799 19.8607 39.8699 19.3707 39.9699 18.8807C40.0899 18.2907 40.4399 17.8907 40.9799 17.6407C41.4199 17.4407 41.8799 17.3507 42.3499 17.2807C42.7199 17.2207 43.0899 17.1707 43.4599 17.1007C43.5799 17.0807 43.6899 17.0207 43.7999 16.9707C44.1899 16.7507 44.1899 16.1707 43.7999 15.9507C43.6599 15.8707 43.4899 15.8207 43.3299 15.8107C43.0599 15.8007 42.7899 15.8007 42.5299 15.8407C42.0999 15.9207 41.8999 16.1807 41.8699 16.6307C41.8699 16.6507 41.8699 16.6807 41.8599 16.7207C41.7999 16.7207 41.7399 16.7307 41.6799 16.7307C41.2599 16.7307 40.8399 16.7307 40.4199 16.7307C40.1899 16.7307 40.1499 16.6807 40.1699 16.4407C40.1899 16.0407 40.2999 15.6607 40.5399 15.3307C40.8899 14.8507 41.3699 14.5907 41.9299 14.4607C42.4399 14.3407 42.9499 14.3307 43.4699 14.3707C43.9299 14.4107 44.3899 14.4907 44.8099 14.6807C45.2899 14.9007 45.6599 15.2307 45.7899 15.7607C45.8299 15.9207 45.8499 16.0807 45.8499 16.2507C45.8499 17.5207 45.8499 18.8007 45.8499 20.0707C45.8499 20.4807 45.9399 20.8707 46.1399 21.2307V21.3407L46.1299 21.3507ZM44.0899 18.5807C44.0899 18.5307 44.0899 18.4307 44.0899 18.3307C44.0899 18.1207 44.0499 18.1007 43.8499 18.1607C43.5699 18.2407 43.2899 18.3207 43.0099 18.4007C42.7099 18.4807 42.4099 18.5507 42.1199 18.6607C41.7899 18.7907 41.6399 19.0607 41.6399 19.4107C41.6399 19.8007 41.8499 20.1007 42.2299 20.1807C42.4099 20.2207 42.6099 20.2207 42.7899 20.2107C43.1899 20.1707 43.5399 20.0107 43.7899 19.6807C44.0299 19.3707 44.0899 19.0107 44.0899 18.5807Z" fill="#231F20"/>
<path d="M31.7803 12.0901C31.7803 12.0901 31.8503 12.1301 31.8903 12.1501C32.5603 12.4401 32.6803 13.2801 32.1003 13.7201C31.8203 13.9301 31.5003 13.9501 31.1803 13.8101C30.8603 13.6701 30.6803 13.4101 30.6703 13.0501C30.6603 12.6001 30.8503 12.3001 31.2703 12.1301C31.3003 12.1201 31.3403 12.1001 31.3703 12.0801H31.7703L31.7803 12.0901Z" fill="#F48020"/>
<path d="M16.4902 19.09C16.4902 17.64 16.4902 16.19 16.4902 14.74C16.4902 14.42 16.4902 14.42 16.8002 14.42C17.2002 14.42 17.6002 14.42 18.0102 14.42C18.2002 14.42 18.2302 14.45 18.2402 14.64C18.2402 14.79 18.2402 14.93 18.2402 15.08C18.2402 15.15 18.2402 15.22 18.3202 15.25C18.4002 15.28 18.4402 15.22 18.4802 15.17C18.7902 14.8 19.1702 14.53 19.6502 14.44C20.7702 14.21 21.7802 14.59 22.4302 15.59C22.7602 16.1 22.9402 16.66 23.0102 17.27C23.0802 17.95 23.0702 18.63 22.9002 19.3C22.7102 20.02 22.3702 20.64 21.7802 21.12C20.8902 21.84 19.3602 21.81 18.5502 20.92C18.5302 20.89 18.5002 20.86 18.4702 20.84C18.3802 20.78 18.3002 20.82 18.2902 20.92C18.2902 20.97 18.2902 21.02 18.2902 21.07C18.2902 21.88 18.2902 22.69 18.2902 23.5C18.2902 23.74 18.2602 23.77 18.0202 23.77C17.6102 23.77 17.2002 23.77 16.7902 23.77C16.5302 23.77 16.5102 23.75 16.5102 23.49C16.5102 22.03 16.5102 20.56 16.5102 19.1M18.3002 18.05C18.2902 18.41 18.3402 18.79 18.4902 19.16C18.9102 20.2 20.0902 20.2 20.6202 19.77C20.8902 19.55 21.0502 19.26 21.1502 18.94C21.3002 18.42 21.3002 17.88 21.2102 17.35C21.1702 17.1 21.1002 16.86 20.9802 16.64C20.7002 16.13 20.2502 15.92 19.6902 15.95C19.1402 15.97 18.7502 16.25 18.5302 16.75C18.3502 17.15 18.3102 17.58 18.3102 18.05" fill="#231F20"/>
<path d="M25.57 16.7205C25.51 16.7205 25.46 16.7305 25.41 16.7305C24.98 16.7305 24.54 16.7305 24.11 16.7305C23.9 16.7305 23.86 16.6905 23.87 16.4805C23.91 15.5605 24.41 14.9005 25.29 14.5705C25.88 14.3505 26.49 14.3205 27.11 14.3705C27.53 14.4005 27.94 14.4605 28.34 14.6105C28.62 14.7205 28.88 14.8605 29.1 15.0705C29.44 15.4005 29.58 15.8105 29.58 16.2705C29.58 17.5105 29.58 18.7605 29.58 20.0005C29.58 20.4105 29.65 20.8005 29.82 21.1705C29.9 21.3405 29.85 21.4205 29.67 21.4205C29.18 21.4205 28.69 21.4205 28.21 21.4205C28.11 21.4205 28.05 21.3805 28.02 21.2905C27.97 21.1605 27.93 21.0205 27.9 20.8905C27.86 20.7405 27.77 20.7105 27.67 20.8205C27.27 21.2605 26.77 21.5105 26.19 21.5905C25.76 21.6505 25.34 21.6505 24.92 21.5205C24.37 21.3505 23.99 21.0005 23.79 20.4605C23.59 19.9305 23.58 19.3705 23.7 18.8205C23.81 18.3205 24.11 17.9405 24.57 17.7005C24.97 17.4905 25.4 17.3805 25.84 17.3105C26.24 17.2505 26.65 17.2005 27.05 17.1205C27.21 17.0905 27.38 17.0305 27.53 16.9505C27.91 16.7405 27.9 16.1505 27.53 15.9405C27.4 15.8705 27.25 15.8305 27.1 15.8105C26.82 15.7605 26.53 15.7605 26.25 15.8405C25.84 15.9405 25.6 16.2205 25.6 16.5905C25.6 16.6305 25.6 16.6605 25.58 16.7205M27.86 18.6105C27.86 18.6105 27.84 18.6105 27.83 18.6105C27.83 18.5105 27.83 18.4105 27.83 18.3205C27.83 18.1405 27.78 18.1205 27.6 18.1705C27.27 18.2705 26.93 18.3605 26.6 18.4405C26.32 18.5105 26.03 18.5605 25.77 18.7105C25.43 18.9005 25.36 19.2005 25.39 19.5505C25.42 19.8505 25.63 20.1105 25.94 20.1805C26.13 20.2205 26.33 20.2305 26.52 20.2205C27.09 20.1905 27.57 19.8305 27.74 19.3005C27.81 19.0805 27.82 18.8505 27.86 18.6205" fill="#231F20"/>
<path d="M33.1699 19.1702C33.2299 19.1702 33.2799 19.1602 33.3399 19.1602C33.7999 19.1602 34.2499 19.1602 34.7099 19.1602C34.9299 19.1602 34.9399 19.1602 34.9899 19.3902C35.0599 19.7302 35.2599 19.9602 35.5899 20.0702C36.0499 20.2302 36.5199 20.2402 36.9899 20.1002C37.1199 20.0602 37.2399 19.9802 37.3399 19.8802C37.5099 19.7002 37.5599 19.3702 37.2699 19.1802C37.0899 19.0602 36.8799 18.9702 36.6799 18.9102C36.1899 18.7702 35.6999 18.6702 35.2099 18.5402C34.8399 18.4402 34.4799 18.2902 34.1499 18.1002C33.6399 17.7902 33.3699 17.3502 33.3399 16.7502C33.2799 15.4502 34.1099 14.7302 35.0899 14.4902C35.9099 14.2902 36.7399 14.3102 37.5399 14.5902C38.3599 14.8802 38.8899 15.4402 39.0499 16.3102C39.1199 16.6502 39.0899 16.6902 38.7399 16.6902C38.3299 16.6902 37.9099 16.6902 37.4999 16.6902C37.3999 16.6902 37.3199 16.6702 37.2999 16.5502C37.2199 16.1002 36.9099 15.8902 36.4899 15.8202C36.1999 15.7702 35.8899 15.7702 35.5999 15.8502C35.3799 15.9102 35.1999 16.0202 35.1399 16.2702C35.0999 16.4302 35.1399 16.5702 35.2799 16.6602C35.4199 16.7502 35.5699 16.8502 35.7299 16.9002C36.1799 17.0402 36.6499 17.1402 37.0999 17.2702C37.4799 17.3802 37.8699 17.5002 38.2399 17.6502C38.8999 17.9202 39.2699 18.4002 39.2999 19.1302C39.3299 19.7802 39.1899 20.3802 38.6999 20.8502C38.4199 21.1202 38.0899 21.3002 37.7299 21.4202C37.0199 21.6502 36.2799 21.6802 35.5399 21.6102C35.0699 21.5702 34.6199 21.4502 34.2099 21.2102C33.4999 20.8002 33.1599 20.1702 33.1299 19.3602C33.1299 19.3302 33.1299 19.3002 33.1299 19.2702C33.1299 19.2502 33.1399 19.2402 33.1499 19.2102" fill="#231F20"/>
<path d="M32.3802 17.67C32.4002 18.68 32.4302 19.69 32.4502 20.7C32.4502 20.88 32.4702 21.05 32.4802 21.23C32.4802 21.37 32.4402 21.42 32.3002 21.42C31.8102 21.42 31.3202 21.42 30.8402 21.42C30.7002 21.42 30.6602 21.36 30.6602 21.21C30.7302 19.77 30.7702 18.32 30.7502 16.88C30.7502 16.16 30.7102 15.44 30.6902 14.72C30.6902 14.68 30.6902 14.63 30.6902 14.59C30.6902 14.36 30.7202 14.33 30.9402 14.38C31.3702 14.48 31.8002 14.47 32.2302 14.38C32.4302 14.34 32.4602 14.36 32.4502 14.56C32.4302 15.44 32.4102 16.31 32.4002 17.19C32.4002 17.35 32.4002 17.51 32.4002 17.67C32.4002 17.67 32.4002 17.67 32.3902 17.67" fill="#231F20"/>
</svg>
