<svg width="52" height="36" viewBox="0 0 52 36" fill="none" xmlns="http://www.w3.org/2000/svg">
<rect x="0.5" y="0.5" width="51" height="35" rx="3.5" fill="white"/>
<rect x="0.5" y="0.5" width="51" height="35" rx="3.5" stroke="#EAEAEA"/>
<path fill-rule="evenodd" clip-rule="evenodd" d="M9.94971 23.5801H19.9597L19.8097 24.4601H17.3997L17.7497 23.9601H12.7697L12.4197 24.4601H10.8197L9.94971 23.5801Z" fill="#1D1D1B"/>
<path fill-rule="evenodd" clip-rule="evenodd" d="M19.0399 26.7494H9.91992L10.7899 25.8594H14.0899L13.7899 26.2894H17.7299C18.2599 26.2894 18.7499 26.4694 19.0399 26.7394V26.7494Z" fill="#1D1D1B"/>
<path fill-rule="evenodd" clip-rule="evenodd" d="M9.90967 24.7207H19.7697L19.6097 25.6107H10.7797L9.90967 24.7207Z" fill="#1D1D1B"/>
<path fill-rule="evenodd" clip-rule="evenodd" d="M20.1596 22.4395L20.0096 23.3195H17.5896L17.9296 22.8195H12.9496L12.5996 23.3195H11.0096L10.1396 22.4395H20.1596Z" fill="#1D1D1B"/>
<path fill-rule="evenodd" clip-rule="evenodd" d="M13.33 21.5297C13.42 21.4097 13.56 21.3197 13.72 21.2897H18.63C19.39 21.2997 20.07 21.6897 20.16 22.1797H11.21L9.97998 20.9297H12.74L13.33 21.5297Z" fill="#1D1D1B"/>
<path fill-rule="evenodd" clip-rule="evenodd" d="M32.78 23.5801H42.62C42.84 23.7601 42.99 23.9801 43.03 24.2201C43.05 24.3001 43.05 24.3901 43.03 24.4701H40.57L40.64 24.0701H39.24L39.17 24.4701H36.5L36.57 24.0701H35.17L35.1 24.4801H33.64L32.77 23.5901L32.78 23.5801Z" fill="#1D1D1B"/>
<path fill-rule="evenodd" clip-rule="evenodd" d="M44.0499 22.4395L43.9399 23.0495H41.0999C41.5099 23.0695 41.8999 23.1695 42.2199 23.3195H33.5699L33.1699 22.9095H34.2999L34.3799 22.4395H44.0499Z" fill="#1D1D1B"/>
<path fill-rule="evenodd" clip-rule="evenodd" d="M32.4897 24.7207H35.0597L34.9797 25.2007H36.3797L36.4597 24.7207H39.1297L39.0497 25.2007H40.4497L40.5297 24.7207H42.9897L42.8297 25.6107H33.3597L32.4897 24.7207Z" fill="#1D1D1B"/>
<path fill-rule="evenodd" clip-rule="evenodd" d="M39.6598 21.6294H44.1898L44.0998 22.1794H33.3198L32.7798 21.6294H36.9898L37.0798 21.1094H39.7498L39.6598 21.6294Z" fill="#1D1D1B"/>
<path fill-rule="evenodd" clip-rule="evenodd" d="M42.7897 25.8594L42.6397 26.7494H32.1697L31.6997 26.2694H33.9897L33.5897 25.8594H42.7897Z" fill="#1D1D1B"/>
<path fill-rule="evenodd" clip-rule="evenodd" d="M26.91 22.4395H28.19L28.04 23.3195H26.75L26.91 22.4395Z" fill="#1D1D1B"/>
<path fill-rule="evenodd" clip-rule="evenodd" d="M25.0996 23.3195L25.2496 22.4395H26.5296L26.3796 23.3195H25.0996Z" fill="#1D1D1B"/>
<path fill-rule="evenodd" clip-rule="evenodd" d="M24.8999 24.4601L25.0499 23.5801H26.3399L26.1799 24.4601H24.8999Z" fill="#1D1D1B"/>
<path fill-rule="evenodd" clip-rule="evenodd" d="M24.6997 25.6107L24.8597 24.7207H26.1397L25.9897 25.6107H24.6997Z" fill="#1D1D1B"/>
<path fill-rule="evenodd" clip-rule="evenodd" d="M24.5 26.7494L24.66 25.8594H25.94L25.79 26.7494H24.5Z" fill="#1D1D1B"/>
<path fill-rule="evenodd" clip-rule="evenodd" d="M24.2897 25.8594L24.1297 26.7494H20.8597L19.9897 25.8594H24.2897Z" fill="#1D1D1B"/>
<path fill-rule="evenodd" clip-rule="evenodd" d="M31.4398 25.8594L31.2898 26.7494H27.8198L27.9798 25.8594H31.4398Z" fill="#1D1D1B"/>
<path fill-rule="evenodd" clip-rule="evenodd" d="M27.5997 25.8594L27.4397 26.7494H26.1597L26.3097 25.8594H27.5997Z" fill="#1D1D1B"/>
<path fill-rule="evenodd" clip-rule="evenodd" d="M27.7999 24.7207L27.6399 25.6107H26.3599L26.5099 24.7207H27.7999Z" fill="#1D1D1B"/>
<path fill-rule="evenodd" clip-rule="evenodd" d="M27.9901 23.5801L27.8401 24.4601H26.5601L26.7101 23.5801H27.9901Z" fill="#1D1D1B"/>
<path fill-rule="evenodd" clip-rule="evenodd" d="M31.6397 24.7207L31.1397 25.6107H28.3297L28.1797 24.7207H29.5497L29.6097 25.1007H30.0497L30.2697 24.7207H31.6397Z" fill="#1D1D1B"/>
<path fill-rule="evenodd" clip-rule="evenodd" d="M30.6598 22.4395H32.0398L31.8798 23.3195H30.5098L30.6598 22.4395Z" fill="#1D1D1B"/>
<path fill-rule="evenodd" clip-rule="evenodd" d="M28.5699 22.4395H29.9399L29.7899 23.3195H28.4199L28.5699 22.4395Z" fill="#1D1D1B"/>
<path fill-rule="evenodd" clip-rule="evenodd" d="M29.5897 24.4601H28.2197L28.3697 23.5801H29.7497L29.5897 24.4601Z" fill="#1D1D1B"/>
<path fill-rule="evenodd" clip-rule="evenodd" d="M31.8401 23.5801L31.6901 24.4601H30.3101L30.4701 23.5801H31.8401Z" fill="#1D1D1B"/>
<path fill-rule="evenodd" clip-rule="evenodd" d="M24.4797 24.7207L23.9797 25.6107H21.5697L20.6997 24.7207H22.3897L22.4597 25.1007H22.8997L23.1097 24.7207H24.4797Z" fill="#1D1D1B"/>
<path fill-rule="evenodd" clip-rule="evenodd" d="M22.63 23.3195H21.64L20.77 22.4395H22.79L22.63 23.3195Z" fill="#1D1D1B"/>
<path fill-rule="evenodd" clip-rule="evenodd" d="M24.8796 22.4395L24.7296 23.3195H23.3496L23.5096 22.4395H24.8796Z" fill="#1D1D1B"/>
<path fill-rule="evenodd" clip-rule="evenodd" d="M22.4398 24.4601H21.6298L20.7598 23.5801H22.5898L22.4398 24.4601Z" fill="#1D1D1B"/>
<path fill-rule="evenodd" clip-rule="evenodd" d="M24.6797 23.5801L24.5297 24.4601H23.1597L23.3097 23.5801H24.6797Z" fill="#1D1D1B"/>
<path fill-rule="evenodd" clip-rule="evenodd" d="M21.4499 27H23.4199L22.9799 28.19H23.6099L23.2699 29.14H22.6299L21.6499 31.79C21.6099 31.9 21.4899 31.99 21.3799 31.99H19.3999C19.3999 31.99 19.7899 31.63 20.0799 30.86C20.2799 30.33 20.4799 29.77 20.6999 29.14H19.7999L19.9599 28.19H21.0399L21.4699 27H21.4499Z" fill="#1D1D1B"/>
<path fill-rule="evenodd" clip-rule="evenodd" d="M28.7099 21.6294H29.5699L29.6599 21.1094H31.3199L31.2299 21.6294H32.5899L32.3899 22.1794H28.6099L28.7099 21.6294Z" fill="#1D1D1B"/>
<path fill-rule="evenodd" clip-rule="evenodd" d="M21.27 22.1794L20.73 21.6294H22.41L22.5 21.1094H24.16L24.07 21.6294H25.39L25.48 21.1094H26.76L26.67 21.6294H27.4C27.81 21.6294 28.18 21.8494 28.23 22.1194C28.23 22.1394 28.23 22.1594 28.23 22.1794H21.27Z" fill="#1D1D1B"/>
<path fill-rule="evenodd" clip-rule="evenodd" d="M25.7397 27L24.3797 31.03H25.2697L26.1097 27H27.3897L27.1397 28.19H28.2297L28.4297 27H30.5397L30.3397 28.19H31.0297L30.8697 29.14H30.1797L29.7297 31.74C29.7097 31.87 29.5797 31.98 29.4497 31.99H27.5797L28.0697 29.14H26.9497L26.3597 31.99H24.4497C24.2897 31.99 24.1597 31.86 24.1497 31.7L24.1197 31.8C24.0797 31.91 23.9597 32 23.8497 32H22.4497C22.4497 32 22.8997 31.58 23.1297 30.88L24.4697 27.02H25.7497L25.7397 27Z" fill="#1D1D1B"/>
<path fill-rule="evenodd" clip-rule="evenodd" d="M38.08 30.7995L37.92 31.7395C37.89 31.8695 37.77 31.9795 37.64 31.9895H33.86L34.2 31.0395H35.37L35.41 30.8095H31.29L31.63 29.8595H35.57L35.69 29.1495H31.57L31.91 28.1995H35.85L35.97 27.4895H32.66L32.2 27.0195H41.98C42.28 27.0195 42.51 27.1995 42.51 27.4295C42.51 27.4395 42.51 27.4595 42.51 27.4695L42.38 28.2095H43.07L42.91 29.1595H42.22L41.93 30.8195H38.07L38.08 30.7995ZM38.66 27.4795H40.06L39.94 28.1895H38.54L38.66 27.4795ZM38.37 29.1395H39.77L39.65 29.8495H38.25L38.37 29.1395Z" fill="#1D1D1B"/>
<path fill-rule="evenodd" clip-rule="evenodd" d="M18.5498 31.7393C18.5198 31.8693 18.3998 31.9793 18.2698 31.9893H14.6398V31.2893C14.3398 31.7093 14.1098 31.9893 14.1098 31.9893H11.0798C11.0798 31.9893 11.7798 31.2193 12.4598 30.2293C13.2798 29.0393 13.8698 27.9593 13.8698 27.9593H16.2498C16.3698 27.9593 16.4698 27.8493 16.4698 27.7193C16.4698 27.5893 16.3598 27.4793 16.2398 27.4793H13.0998C12.9698 27.4793 12.8698 27.5893 12.8698 27.7193C12.8698 27.8493 12.9698 27.9593 13.0998 27.9593C13.1698 27.9593 13.2298 28.0193 13.2298 28.0893C13.2298 28.1093 13.2298 28.1293 13.2198 28.1493C12.9698 28.5593 12.3598 29.5493 11.8898 30.2193C11.2798 31.0793 10.4698 31.9993 10.4698 31.9993H7.81982C7.81982 31.9993 8.51982 31.2693 9.24982 30.3293C9.73982 29.6993 10.1498 29.0793 10.4398 28.6393C10.4398 28.6193 10.4498 28.6093 10.4498 28.5893C10.4498 28.5193 10.3898 28.4593 10.3198 28.4593H8.59982L10.0098 27.0293H19.2498C19.2798 27.0893 19.3098 27.1593 19.3198 27.2293C19.3298 27.2993 19.3298 27.3593 19.3198 27.4193L18.5698 31.7693L18.5498 31.7393ZM14.8998 30.9193H15.9198L16.3498 28.4593C16.0998 28.9493 15.7098 29.6893 15.3598 30.2393C15.2098 30.4793 15.0498 30.7093 14.8998 30.9293V30.9193Z" fill="#1D1D1B"/>
<path fill-rule="evenodd" clip-rule="evenodd" d="M10.6599 4.00977H41.4599C42.9599 4.00977 44.1799 5.22977 44.1799 6.72977V16.5098C44.1799 18.0098 42.9599 19.2298 41.4599 19.2298H10.6599C9.15994 19.2298 7.93994 18.0098 7.93994 16.5098V6.72977C7.93994 5.22977 9.15994 4.00977 10.6599 4.00977Z" fill="#DF051C"/>
<path fill-rule="evenodd" clip-rule="evenodd" d="M35.1199 12.7099C33.6199 12.7099 32.3999 11.4899 32.3999 9.98992C32.3999 9.60992 32.4799 9.24992 32.6199 8.91992C32.7999 9.83992 33.6099 10.5299 34.5799 10.5299H39.6599C40.7599 10.5299 41.6499 11.4199 41.6499 12.5199C41.6499 13.0099 41.4699 13.4499 41.1799 13.7999C41.0999 13.1799 40.5699 12.6999 39.9199 12.6999H35.1199V12.7099Z" fill="white"/>
<path fill-rule="evenodd" clip-rule="evenodd" d="M41.4599 8.35945H34.8499C34.2099 8.35945 33.6799 8.83945 33.5899 9.45945C33.2999 9.10945 33.1299 8.66945 33.1299 8.17945C33.1299 7.07945 34.0199 6.18945 35.1199 6.18945H41.4599V8.35945Z" fill="white"/>
<path fill-rule="evenodd" clip-rule="evenodd" d="M42.3699 14.3395C42.3699 13.9595 42.2899 13.5995 42.1499 13.2695C41.9699 14.1895 41.1599 14.8795 40.1899 14.8795H32.3999V17.0495H39.6499C41.1499 17.0495 42.3699 15.8295 42.3699 14.3295V14.3395Z" fill="white"/>
<path fill-rule="evenodd" clip-rule="evenodd" d="M22.7999 17.0497H20.6299V8.89969C20.6299 7.39969 21.8499 6.17969 23.3499 6.17969H23.6799C23.1499 6.67969 22.8099 7.38969 22.8099 8.16969V17.0497H22.7999Z" fill="white"/>
<path fill-rule="evenodd" clip-rule="evenodd" d="M23.52 8.90945V8.17945C23.52 7.07945 24.41 6.18945 25.51 6.18945H28.95C30.05 6.18945 30.94 7.07945 30.94 8.17945C30.94 8.66945 30.77 9.10945 30.48 9.45945C30.4 8.83945 29.87 8.35945 29.22 8.35945H24.56C24.13 8.35945 23.74 8.57945 23.52 8.90945Z" fill="white"/>
<path fill-rule="evenodd" clip-rule="evenodd" d="M31.68 9.98992C31.68 9.60992 31.6 9.24992 31.46 8.91992C31.28 9.83992 30.47 10.5299 29.5 10.5299H23.52V12.6999H28.96C30.46 12.6999 31.68 11.4799 31.68 9.97992V9.98992Z" fill="white"/>
<path fill-rule="evenodd" clip-rule="evenodd" d="M9.75977 9.98992C9.75977 9.60992 9.83976 9.24992 9.97976 8.91992C10.0898 9.49992 10.4598 9.98992 10.9598 10.2699C10.5898 10.5199 10.2898 10.8599 10.0798 11.2499C9.87977 10.8699 9.76977 10.4399 9.76977 9.97992L9.75977 9.98992Z" fill="white"/>
<path fill-rule="evenodd" clip-rule="evenodd" d="M16.2798 9.99016V8.91016C16.3598 9.48016 16.8098 9.93016 17.3898 9.99016H16.2798Z" fill="white"/>
<path fill-rule="evenodd" clip-rule="evenodd" d="M16.2798 12.5291C16.2798 11.4291 17.1698 10.5391 18.2698 10.5391H19.7298V12.7091H17.5398C16.8998 12.7091 16.3698 13.1891 16.2798 13.7991V12.5291Z" fill="white"/>
<path fill-rule="evenodd" clip-rule="evenodd" d="M19.72 8.35945H12.2C11.56 8.35945 11.03 8.83945 10.94 9.45945C10.65 9.10945 10.48 8.66945 10.48 8.17945C10.48 7.07945 11.37 6.18945 12.47 6.18945H19.72V8.35945Z" fill="white"/>
<path fill-rule="evenodd" clip-rule="evenodd" d="M15.55 12.7091H12.2C11.56 12.7091 11.03 13.1891 10.94 13.8091C10.65 13.4591 10.48 13.0191 10.48 12.5291C10.48 11.4291 11.37 10.5391 12.47 10.5391H16.42C15.88 11.0391 15.55 11.7491 15.55 12.5291V12.7091Z" fill="white"/>
<path fill-rule="evenodd" clip-rule="evenodd" d="M9.75977 14.3395C9.75977 13.9595 9.83976 13.5995 9.97976 13.2695C10.1598 14.1895 10.9698 14.8795 11.9398 14.8795H19.3398V17.0495H12.4798C10.9798 17.0495 9.75977 15.8295 9.75977 14.3295V14.3395Z" fill="white"/>
</svg>
