<svg width="52" height="36" viewBox="0 0 52 36" fill="none" xmlns="http://www.w3.org/2000/svg">
<rect x="0.5" y="0.5" width="51" height="35" rx="3.5" fill="white"/>
<rect x="0.5" y="0.5" width="51" height="35" rx="3.5" stroke="#EAEAEA"/>
<path d="M45.59 4.5293H6.41C3.83635 4.5293 1.75 6.61565 1.75 9.1893V26.8093C1.75 29.3829 3.83635 31.4693 6.41 31.4693H45.59C48.1636 31.4693 50.25 29.3829 50.25 26.8093V9.1893C50.25 6.61565 48.1636 4.5293 45.59 4.5293Z" fill="#FFAFC3"/>
<path d="M45.72 20.3086C45.08 20.3086 44.57 20.8286 44.57 21.4686C44.57 22.1086 45.08 22.6286 45.72 22.6286C46.35 22.6286 46.87 22.1086 46.87 21.4686C46.87 20.8286 46.36 20.3086 45.72 20.3086ZM41.94 19.4086C41.94 18.5286 41.2 17.8186 40.28 17.8186C39.36 17.8186 38.62 18.5286 38.62 19.4086C38.62 20.2886 39.36 20.9986 40.28 20.9986C41.2 20.9986 41.94 20.2886 41.94 19.4086ZM41.94 16.3186H43.77V22.4886H41.94V22.0986C41.41 22.4686 40.77 22.6686 40.13 22.6586C38.35 22.6586 36.9 21.1986 36.9 19.4086C36.9 17.6186 38.34 16.1586 40.13 16.1586C40.8 16.1586 41.43 16.3686 41.94 16.7186V16.3186ZM27.29 17.1186V16.3186H25.42V22.4886H27.3V19.6086C27.3 18.6386 28.34 18.1186 29.07 18.1186H29.09V16.3286C28.35 16.3286 27.66 16.6486 27.3 17.1286L27.29 17.1186ZM22.62 19.3986C22.62 18.5186 21.88 17.8086 20.96 17.8086C20.04 17.8086 19.3 18.5186 19.3 19.3986C19.3 20.2786 20.04 20.9886 20.96 20.9886C21.88 20.9886 22.62 20.2786 22.62 19.3986ZM22.62 16.3086H24.45V22.4786H22.62V22.0886C22.1 22.4486 21.48 22.6486 20.81 22.6486C19.03 22.6486 17.58 21.1886 17.58 19.3986C17.58 17.6086 19.02 16.1486 20.81 16.1486C21.48 16.1486 22.11 16.3586 22.62 16.7086V16.3086ZM33.64 16.1486C32.91 16.1486 32.22 16.3786 31.75 17.0086V16.3186H29.93V22.4886H31.78V19.2486C31.78 18.3086 32.4 17.8486 33.15 17.8486C33.95 17.8486 34.42 18.3286 34.42 19.2286V22.4786H36.25V18.5586C36.25 17.1186 35.12 16.1486 33.64 16.1486ZM14.92 22.4786H16.84V13.5586H14.92V22.4786ZM6.5 22.4786H8.53V13.5586H6.5V22.4786ZM13.6 13.5586C13.6 15.4886 12.85 17.2886 11.52 18.6186L14.32 22.4786H11.81L8.76 18.2886L9.55 17.6986C10.85 16.7186 11.61 15.1886 11.6 13.5586H13.59H13.6Z" fill="#0A0B09"/>
</svg>
