<svg width="52" height="36" viewBox="0 0 52 36" fill="none" xmlns="http://www.w3.org/2000/svg">
<rect x="0.5" y="0.5" width="51" height="35" rx="3.5" fill="white"/>
<rect x="0.5" y="0.5" width="51" height="35" rx="3.5" stroke="#EAEAEA"/>
<path d="M38.54 16.5595C38.31 17.1895 37.89 17.5795 37.09 17.5795H36.68L37.38 15.6595H37.78C38.51 15.6595 38.78 15.8795 38.54 16.5495M40.65 14.7995C40.29 14.2795 39.57 14.0195 38.43 14.0195H35.79L32.94 21.9395H35.36L36.4 19.1495C36.45 19.2595 37.06 21.9395 37.06 21.9395H39.61C39.61 21.9395 39.15 19.9795 38.81 19.1795C38.72 18.9795 38.63 18.7495 38.51 18.5595C39.23 18.2895 40.27 17.7095 40.7 16.5295C40.97 15.8095 40.95 15.2195 40.66 14.7995M16.3 14.0195H11.81C11.1 14.0195 10.41 14.0195 9.8 14.3395C9.18 14.6595 8.64 15.2895 8.22 16.5495C8.13 16.8195 8.08 17.0595 8.07 17.2595C8.07 17.4595 8.1 17.6395 8.18 17.7895C8.27 17.9695 8.43 18.1495 8.62 18.2895C8.81 18.4395 9.04 18.5495 9.29 18.6295C9.29 18.6295 9.43 18.6695 9.59 18.7195C9.74 18.7595 9.89 18.8095 10.05 18.8595C10.12 18.8795 10.19 18.9095 10.26 18.9495C10.33 18.9895 10.39 19.0395 10.43 19.1195C10.46 19.1695 10.47 19.2295 10.47 19.2795C10.47 19.3395 10.47 19.3995 10.44 19.4695C10.38 19.6395 10.3 19.7495 10.13 19.8195C9.96 19.8895 9.72 19.9095 9.35 19.9095H4.73L4 21.9395H8.95C9.42 21.9395 10.27 21.9395 11.09 21.5895C11.91 21.2395 12.69 20.5395 13.03 19.1295C13.16 18.5995 13.12 18.1695 12.91 17.8295C12.7 17.4895 12.33 17.2495 11.79 17.0895C11.79 17.0895 11.67 17.0495 11.53 17.0095C11.39 16.9695 11.22 16.9195 11.14 16.8995C11 16.8595 10.9 16.7795 10.83 16.6795C10.77 16.5795 10.75 16.4495 10.78 16.3195C10.82 16.1895 10.91 16.0795 11.04 16.0095C11.17 15.9395 11.34 15.8995 11.54 15.8995H14.42C14.42 15.8995 14.46 15.8395 14.48 15.8095C15.01 15.0595 15.64 14.4495 16.34 14.0195" fill="#ED7F00"/>
<path d="M18.3998 17.9502C17.7298 19.8102 17.2398 20.2702 16.5098 20.2702C15.7998 20.2702 15.5398 19.8102 16.2098 17.9602C16.7098 16.5802 17.3598 15.7002 18.1398 15.7002C18.8798 15.7002 19.0598 16.1402 18.3998 17.9402M20.6998 14.7602C20.3098 14.1902 19.6398 13.9102 18.7098 13.9102C18.0998 13.9102 17.5098 14.0502 16.9498 14.3202C16.1598 14.7002 15.4398 15.3302 14.8498 16.1702C14.4698 16.7202 14.1398 17.3502 13.8898 18.0502C13.4098 19.3802 13.4098 20.4702 13.9098 21.1802C14.1898 21.5802 14.7698 22.0702 15.9498 22.0702C18.0998 22.0702 19.7098 20.6402 20.7298 17.8302C20.9998 17.0902 21.3498 15.7002 20.7098 14.7602M29.3098 14.0202H24.7298C23.4498 14.0202 22.4998 14.6702 22.0498 15.9002L19.8698 21.9402H22.2498L23.3698 18.8402H25.4798L26.0798 17.1802H23.9798L24.3198 16.2202C24.3898 16.0502 24.5598 15.9102 24.8098 15.9102C24.9498 15.9102 26.4898 15.9102 27.2898 15.9102C27.3098 15.8802 27.3298 15.8502 27.3498 15.8202C27.8798 15.0702 28.6198 14.4602 29.3198 14.0302M31.3998 17.9502C30.7298 19.8102 30.2398 20.2702 29.5098 20.2702C28.7898 20.2702 28.5498 19.8102 29.2098 17.9602C29.7098 16.5802 30.3598 15.7002 31.1398 15.7002C31.8798 15.7002 32.0498 16.1402 31.3998 17.9402M33.7098 14.7602C33.3198 14.1902 32.6498 13.9102 31.7098 13.9102C31.0998 13.9102 30.5098 14.0502 29.9498 14.3202C29.1598 14.7002 28.4398 15.3302 27.8498 16.1702C27.4698 16.7202 27.1398 17.3502 26.8898 18.0502C26.4098 19.3802 26.4098 20.4702 26.9098 21.1802C27.1898 21.5802 27.7698 22.0702 28.9498 22.0702C31.0998 22.0702 32.7098 20.6402 33.7298 17.8302C33.9998 17.0902 34.3498 15.7002 33.7098 14.7602Z" fill="#ED7F00"/>
<path d="M40.7502 14.041C40.9002 14.161 41.0402 14.301 41.1502 14.461C41.4302 14.871 41.5402 15.361 41.4802 15.921H42.9202L40.7402 21.961H42.9102L45.0902 15.921H47.8802L48.5602 14.041H40.7502Z" fill="#ED7F00"/>
</svg>
