<svg width="52" height="36" viewBox="0 0 52 36" fill="none" xmlns="http://www.w3.org/2000/svg">
<g clip-path="url(#clip0_2280_4526)">
<rect width="52" height="36" rx="4" fill="white"/>
<path d="M48 0H4C1.79086 0 0 1.79086 0 4V32C0 34.2091 1.79086 36 4 36H48C50.2091 36 52 34.2091 52 32V4C52 1.79086 50.2091 0 48 0Z" fill="white"/>
<path d="M48 0H4C1.79086 0 0 1.79086 0 4V32C0 34.2091 1.79086 36 4 36H48C50.2091 36 52 34.2091 52 32V4C52 1.79086 50.2091 0 48 0Z" fill="#D3D3D3"/>
<path d="M47.3198 0.550781H4.6798C2.53694 0.550781 0.799805 2.28792 0.799805 4.43078V31.5608C0.799805 33.7036 2.53694 35.4408 4.6798 35.4408H47.3198C49.4627 35.4408 51.1998 33.7036 51.1998 31.5608V4.43078C51.1998 2.28792 49.4627 0.550781 47.3198 0.550781Z" fill="white"/>
<path d="M13.92 14.289C14.44 14.279 14.88 13.899 14.98 13.389C15.02 13.159 14.96 12.929 14.81 12.749C14.66 12.569 14.44 12.479 14.2 12.489C13.68 12.489 13.23 12.869 13.14 13.389C13.1 13.619 13.16 13.849 13.31 14.029C13.46 14.209 13.69 14.289 13.92 14.289ZM46.72 14.789C45.87 14.749 44.77 15.779 44.77 15.779L44.42 14.899H43.45L42.99 17.529C42.96 17.709 42.87 17.879 42.72 17.989L41.45 18.999C41.45 18.999 40.93 19.399 40.21 19.859C39.94 20.009 39.64 20.089 39.34 20.089C38.75 20.089 38.39 19.859 38.21 19.479C38.18 19.409 38.16 19.329 38.14 19.259L41.41 17.059C41.76 16.849 41.91 16.429 41.81 16.039C41.6 15.339 40.96 14.799 39.91 14.799C37.95 14.799 36.6 16.469 36.6 18.849C36.6 19.009 36.61 19.159 36.63 19.319L35.7 19.969C35.51 20.089 35.31 20.159 35.09 20.179C34.81 20.179 34.69 19.969 34.78 19.489L36 12.699H34.48L33.87 16.079C33.84 16.229 33.78 16.359 33.68 16.459L32.01 18.219C32.05 17.919 32.07 17.609 32.07 17.299C32.07 15.869 31.41 14.809 30.29 14.809C29.17 14.809 28.41 15.709 28.41 15.709L27.99 14.889H27.04L26.52 17.869C26.49 17.999 26.44 18.119 26.35 18.219L25.38 19.369C25.11 19.649 24.83 20.019 24.69 20.029C24.43 20.069 24.32 19.979 24.41 19.509L24.8 17.349C25.1 15.639 24.59 14.779 23.12 14.779C22.25 14.779 21.22 15.759 21.22 15.759C21 15.119 20.47 14.779 19.66 14.779C18.78 14.779 17.81 15.819 17.81 15.819L17.41 14.919H16.46L15.95 17.739C15.93 17.869 15.87 17.999 15.78 18.089L14.67 19.399C14.4 19.679 14.12 20.049 13.98 20.059C13.72 20.099 13.61 20.009 13.7 19.539L14.54 14.929H13.01L12.76 16.279C12.73 16.459 12.65 16.629 12.53 16.759L10.31 19.339C9.93004 19.749 9.41004 19.999 8.86004 20.059H7.29004L10.87 16.009L11.06 14.909H6.46004L6.24004 16.149H8.92004L5.46004 20.209L5.29004 21.359C5.29004 21.359 8.53004 21.369 8.58004 21.359C9.53004 21.359 10.38 20.509 10.72 20.169L12.45 18.139L12.14 19.849C11.95 20.959 12.37 21.489 13.29 21.469C13.86 21.459 14.24 21.079 14.63 20.699L15.67 19.479L15.32 21.449H16.85L17.52 17.599C17.61 17.119 18.22 16.319 18.86 16.319C19.54 16.319 19.86 16.659 19.71 17.559L19.03 21.459H20.54L21.27 17.319C21.31 17.039 21.81 16.269 22.49 16.269C23.17 16.269 23.44 16.659 23.28 17.569L22.86 19.869C22.67 20.979 23.09 21.509 24.01 21.489C24.58 21.479 24.96 21.099 25.35 20.719L26.24 19.659L25.92 21.469L25.55 23.559H27.08L27.58 20.709C27.81 20.989 28.11 21.199 28.46 21.309C28.54 21.339 28.63 21.359 28.72 21.369C29.71 21.419 30.59 20.939 31.37 20.129L33.6 17.829L33.24 19.839C33.05 20.949 33.47 21.459 34.39 21.459C34.98 21.459 35.54 21.159 36.13 20.779L36.91 20.219C36.91 20.219 36.94 20.279 36.95 20.309C37.3 20.989 37.94 21.439 38.9 21.449C39.91 21.449 40.89 20.499 41.46 20.099C41.61 19.999 42.16 19.549 42.75 19.069L42.33 21.459H43.86L44.53 17.609C44.62 17.129 45.23 16.329 45.87 16.329C46.08 16.319 46.28 16.369 46.46 16.479L46.72 14.859V14.789ZM27.77 19.459L28.12 17.439C28.28 16.959 28.84 16.319 29.43 16.279C29.69 16.249 29.96 16.309 30.18 16.479C30.41 16.779 30.53 17.159 30.51 17.549C30.51 18.989 29.81 19.999 28.82 19.999C28.4 20.019 28 19.819 27.78 19.469L27.77 19.459ZM38.19 17.579C38.36 16.779 39.01 16.099 39.73 16.099C40.14 16.099 40.43 16.399 40.33 16.739L38.09 18.279C38.1 18.049 38.14 17.809 38.19 17.579Z" fill="#393939"/>
</g>
<rect x="0.5" y="0.5" width="51" height="35" rx="3.5" stroke="#EAEAEA"/>
<defs>
<clipPath id="clip0_2280_4526">
<rect width="52" height="36" rx="4" fill="white"/>
</clipPath>
</defs>
</svg>
