<svg width="104" height="73" viewBox="0 0 104 73" fill="none" xmlns="http://www.w3.org/2000/svg">
<path d="M21.4917 25.993C21.4917 25.993 21.2388 26.2459 21.3111 26.3904C21.3472 26.5349 21.6362 26.4987 21.7807 26.571C21.9974 26.6794 22.0697 26.8961 22.0697 27.1129C22.0697 27.3657 22.0697 29.8945 22.0697 33.3625C18.9991 33.3625 15.9645 33.3625 12.8939 33.3264C12.8217 32.5677 12.8217 31.7007 12.8939 30.7976C12.93 29.9306 13.0384 29.0997 13.219 28.2689C13.2913 27.9076 13.3635 27.5464 13.4719 27.1851C13.5803 26.7877 13.8693 26.282 13.8332 25.8846C13.8332 25.8124 13.8332 25.7762 13.797 25.7401C13.7248 25.6317 13.5442 25.6679 13.4358 25.704C12.641 25.9207 11.9185 26.3181 11.3044 26.86C11.1238 27.0406 10.618 27.4741 10.1845 28.305C8.99241 30.4002 8.92016 33.3986 8.92016 33.3986C8.84791 35.3133 8.77566 39.2509 10.8348 43.2969C10.8348 43.2969 12.2798 46.1508 14.3389 46.8371C14.7363 46.9816 14.8447 46.8733 14.8808 46.8371C15.0253 46.6204 14.7002 46.2953 14.5918 46.1147C14.4112 45.8257 14.2305 45.5005 14.1222 45.2115C13.8332 44.5613 13.6525 43.8749 13.508 43.1524C13.0745 41.021 12.7855 38.8535 12.8578 36.686H22.1058V44.8503C22.1058 45.3921 22.3226 45.8979 22.8283 46.1508C23.1173 46.2953 23.4786 46.3675 23.8037 46.4037C24.3817 46.4759 24.9958 46.512 25.5738 46.4037C25.8989 46.3314 26.2602 46.223 26.5131 45.9701C26.9104 45.6089 26.9104 45.067 26.9104 44.5613C26.9104 40.443 26.9466 36.3609 26.9104 32.2426C26.9104 31.2311 26.9104 30.2196 26.9104 29.2081C26.9104 27.8354 26.4769 26.4265 25.2487 25.6679C24.7068 25.3427 24.1288 25.1621 23.5147 25.1621C22.7922 25.1621 22.0697 25.4511 21.5278 26.1014" fill="white"/>
<path d="M7.04138 30.9782C5.81312 32.4232 5.74088 34.1211 5.66863 35.8189C5.52413 39.7927 6.96913 42.6105 7.29425 43.1885C8.01676 44.5612 8.81151 45.4282 9.02826 45.7172C9.85913 46.6203 10.69 47.2706 11.3403 47.7041C10.8345 47.5957 10.112 47.3428 9.35338 46.8732C8.63088 46.4397 8.12513 45.934 7.8 45.5727C7.33038 44.9586 6.96913 44.4167 6.75238 44.0193C6.17437 43.0078 5.41575 41.7073 5.0545 39.9733C4.94612 39.5037 4.87387 38.9979 4.69325 38.9979C4.40425 38.9979 4.11525 39.9372 4.043 40.154C3.82624 40.8403 3.754 41.4545 3.79012 41.8157C3.79012 43.1162 4.7655 45.645 7.11363 47.3428C7.11363 47.3428 9.13663 48.824 12.6408 48.9685C12.7853 48.9685 13.6161 48.9685 14.2664 48.4988C14.5915 48.2821 14.7721 47.957 14.2664 47.7763C10.5455 46.6926 9.06438 42.7188 8.26963 39.2869C8.089 38.5283 7.9445 37.8058 7.83613 37.0472C7.54713 34.7352 7.54713 32.2064 8.30576 29.9667C7.72775 30.1112 7.47488 30.5808 7.14975 30.9782" fill="white"/>
<path d="M8.19727 29.9662H8.23322L8.19727 29.9303V29.9662Z" fill="white"/>
<path d="M8.19727 29.9297L8.23265 29.965L8.26802 29.8943L8.19727 29.9297Z" fill="white"/>
<path d="M73.0436 25.1259C73.0436 25.1259 72.7185 25.1259 72.5379 25.1259C72.3211 25.1259 72.0682 25.1259 71.8515 25.1259C71.707 25.1259 71.5264 25.1259 71.3819 25.1259C71.0929 25.1259 70.8039 25.1259 70.5149 25.1259C70.1175 25.1259 69.7201 25.2704 69.4311 25.5955C69.0699 25.9568 68.817 26.4625 68.3474 27.5824C68.2751 27.763 68.2029 27.9075 68.1667 28.0159C67.9861 28.3772 65.5657 33.6876 64.6265 35.2048C64.5542 35.3132 64.4097 35.5661 64.2291 35.5661C64.0485 35.5661 63.904 35.3132 63.8317 35.2048C62.8925 33.6876 60.4721 28.3772 60.2915 28.0159C60.2553 27.9075 60.1831 27.763 60.1108 27.5824C59.6412 26.4625 59.3883 25.9568 59.0271 25.5955C58.7381 25.3065 58.3407 25.162 57.9433 25.1259C57.6543 25.1259 57.3653 25.1259 57.0763 25.1259C56.9318 25.1259 56.7512 25.1259 56.6067 25.1259C56.39 25.1259 56.1371 25.1259 55.9203 25.1259C55.7397 25.1259 55.5952 25.1259 55.4146 25.1259C55.1617 25.1259 54.9449 25.1982 54.7282 25.3427C54.3308 25.5955 54.1863 25.9568 54.1141 26.1013C54.0057 26.3542 53.9696 26.5709 53.9696 26.6432C53.7889 27.5102 53.7889 28.1965 53.7889 28.6662C53.6083 34.1211 53.4277 39.5398 53.2471 44.9947C53.2471 45.067 53.2471 45.2115 53.3193 45.356C53.6083 46.1507 54.6198 46.5481 55.3785 46.5481C56.1732 46.5481 57.1125 46.1868 57.4376 45.4643C57.4376 45.4643 57.5098 45.3198 57.546 45.1753C57.7627 44.0555 57.9072 35.1326 57.9433 31.2311C60.0747 35.6022 61.7365 38.8534 62.5312 40.2984C62.6757 40.5874 63.037 41.2016 63.6511 41.3822C63.8317 41.4545 64.0123 41.4906 64.2291 41.4906C64.4458 41.4906 64.6265 41.4906 64.8071 41.3822C65.4212 41.1655 65.7463 40.5874 65.927 40.2984C66.6856 38.8534 68.3835 35.6022 70.5149 31.2311C70.551 35.1326 70.6955 44.0555 70.9122 45.1753C70.9122 45.3198 71.0206 45.4643 71.0206 45.4643C71.3457 46.1868 72.285 46.5481 73.0797 46.5481C73.8745 46.5481 74.886 46.1507 75.1389 45.356C75.175 45.2115 75.2111 45.1031 75.2111 44.9947C75.0305 39.5398 74.8499 34.1211 74.6692 28.6662C74.6692 28.1965 74.6692 27.474 74.4886 26.6432C74.4886 26.5709 74.4525 26.3542 74.3441 26.1013C74.2719 25.9568 74.1274 25.5955 73.73 25.3427C73.5132 25.1982 73.2965 25.1259 73.0797 25.1259" fill="white"/>
<path d="M36.6621 41.5631C36.6621 41.5631 36.7711 41.5631 36.8075 41.5631C36.8075 41.6358 36.6621 41.5631 36.6621 41.5268" fill="white"/>
<mask id="mask0_18567_85338" style="mask-type:luminance" maskUnits="userSpaceOnUse" x="31" y="25" width="19" height="23">
<path d="M44.9417 25.7401C44.6527 26.0652 44.5443 26.4626 44.5443 26.7155C44.5443 30.7253 44.5443 34.7713 44.5082 38.7812C44.5082 39.1786 44.5082 39.9011 44.0747 40.732C43.6412 41.599 43.0632 42.0686 42.9187 42.2131C42.9187 42.2131 41.9072 43.0079 40.5705 43.1162C40.426 43.1162 40.2815 43.1162 40.2815 43.1162C40.2815 43.1162 40.2093 43.1162 40.1732 43.1162C40.1732 43.1162 40.1009 43.1162 40.0648 43.1162C40.0648 43.1162 39.9203 43.1162 39.7758 43.1162C38.4392 43.0079 37.4276 42.2131 37.4276 42.2131C37.2831 42.1047 36.669 41.599 36.2716 40.732C35.8743 39.9011 35.8381 39.1786 35.8381 38.7812C35.8381 34.7713 35.8381 30.7615 35.802 26.7155C35.802 26.4626 35.6936 26.0652 35.4046 25.7401C34.8628 25.126 33.9596 25.1621 33.2733 25.1621C32.5508 25.1621 31.7921 25.1982 31.3586 25.7762C30.9974 26.2097 31.0335 26.7516 31.0696 27.0045V39.6121C31.0696 40.8042 31.3948 42.3576 32.5508 43.8026C33.8151 45.4644 35.6214 46.1869 36.1633 46.4036C37.2831 46.8371 38.403 46.9455 38.7281 46.9816C39.3061 47.0539 39.8119 47.0539 40.1732 47.0178C40.5344 47.0178 41.0402 47.0177 41.6182 46.9816C41.9433 46.9816 43.0632 46.8371 44.183 46.4036C44.7249 46.1869 46.5312 45.4644 47.7955 43.8026C48.9154 42.3215 49.2767 40.7681 49.2767 39.6121V27.0045C49.2767 26.7516 49.3489 26.2097 48.9877 25.7762C48.5542 25.1982 47.7955 25.1982 47.073 25.1621C46.9647 25.1621 46.8202 25.1621 46.6757 25.1621C46.0615 25.1621 45.4113 25.2343 44.9417 25.7401Z" fill="white"/>
</mask>
<g mask="url(#mask0_18567_85338)">
<path d="M36.1928 16.8973L21.1826 40.872L44.2082 55.2879L59.2184 31.3132L36.1928 16.8973Z" fill="white"/>
</g>
<path d="M37.7129 46.7651C37.7129 46.7651 37.7856 46.7651 37.8219 46.7651L37.7492 46.8014V46.7288L37.7129 46.7651Z" fill="white"/>
<mask id="mask1_18567_85338" style="mask-type:luminance" maskUnits="userSpaceOnUse" x="78" y="24" width="22" height="24">
<path d="M83.2667 38.3475C82.6526 35.7104 82.761 32.5675 84.2421 30.1832C85.2897 28.5576 87.0237 27.5822 88.8661 27.5461C90.7085 27.5461 92.4425 28.5215 93.4901 30.1832C94.9712 32.5675 95.0796 35.6743 94.4655 38.3475C93.8152 41.093 91.9729 44.0553 88.9022 44.0914C85.7955 44.0914 83.9892 41.093 83.339 38.3475M82.2191 26.7875C80.5212 28.0519 79.293 29.8581 78.6788 31.8811C76.9448 37.6973 79.5458 45.1029 85.8316 46.7647C86.8431 47.0175 87.8907 47.1259 88.9022 47.1259C89.9499 47.1259 90.9614 47.0537 91.9729 46.7647C98.2225 45.139 100.86 37.6973 99.1256 31.8811C98.5115 29.8581 97.2833 28.0519 95.5854 26.7875C93.6708 25.3425 91.2865 24.5839 88.9022 24.5477C86.518 24.62 84.1337 25.3425 82.2191 26.7875Z" fill="white"/>
</mask>
<g mask="url(#mask1_18567_85338)">
<path d="M82.875 14.1155L67.0264 41.4229L94.7399 57.5073L110.589 30.1999L82.875 14.1155Z" fill="white"/>
</g>
</svg>
