<svg width="52" height="36" viewBox="0 0 52 36" fill="none" xmlns="http://www.w3.org/2000/svg">
<rect x="0.5" y="0.5" width="51" height="35" rx="3.5" fill="white"/>
<rect x="0.5" y="0.5" width="51" height="35" rx="3.5" stroke="#EAEAEA"/>
<path d="M29.5702 14.759C29.5702 15.029 29.3502 15.239 29.0902 15.239C28.8302 15.239 28.6102 15.019 28.6102 14.759C28.6102 14.299 28.2402 13.929 27.7802 13.929C27.3202 13.929 26.9502 14.299 26.9502 14.759V21.539C26.9502 21.809 26.7302 22.019 26.4702 22.019C26.2102 22.019 25.9902 21.799 25.9902 21.539V14.759C25.9902 13.769 26.8002 12.959 27.7902 12.959C28.7802 12.959 29.5902 13.769 29.5902 14.759H29.5702Z" fill="#FF5733"/>
<path d="M15.6201 17.4887C15.6201 19.9887 17.6501 22.0188 20.1501 22.0188C20.6801 22.0188 21.2001 21.9288 21.6801 21.7587C21.7201 21.2388 22.1501 20.8287 22.6801 20.8287C22.8301 20.8287 22.9801 20.8587 23.1101 20.9288C24.0701 20.0988 24.6901 18.8687 24.6901 17.4987C24.6901 14.9987 22.6601 12.9688 20.1601 12.9688C17.6601 12.9688 15.6301 14.9987 15.6301 17.4987L15.6201 17.4887ZM16.5901 17.4887C16.5901 15.5287 18.1901 13.9288 20.1501 13.9288C22.1101 13.9288 23.7101 15.5287 23.7101 17.4887C23.7101 19.4487 22.1101 21.0487 20.1501 21.0487C18.1901 21.0487 16.5901 19.4487 16.5901 17.4887Z" fill="#FF5733"/>
<path d="M23.8203 22.0293C23.8203 22.5793 23.3703 23.0293 22.8203 23.0293C22.2703 23.0293 21.8203 22.5793 21.8203 22.0293C21.8203 21.4793 22.2703 21.0293 22.8203 21.0293C23.3703 21.0293 23.8203 21.4793 23.8203 22.0293ZM22.8503 22.0293C22.8503 22.0293 22.8303 21.9893 22.8103 21.9893C22.7903 21.9893 22.7703 22.0093 22.7703 22.0293C22.7703 22.0493 22.7903 22.0693 22.8103 22.0693C22.8303 22.0693 22.8503 22.0493 22.8503 22.0293Z" fill="#203253"/>
<path d="M39.7098 15.9609C40.3098 15.9609 40.8198 16.1709 41.2598 16.6009C41.6798 17.0309 41.8998 17.5409 41.8998 18.1509C41.8998 18.2709 41.8898 18.3809 41.8698 18.5109H38.3098C38.3898 18.8309 38.5598 19.0909 38.8198 19.2909C39.0798 19.5009 39.3798 19.6009 39.7198 19.6009C40.1098 19.6009 40.4398 19.4609 40.7198 19.2009L41.3398 19.6209C40.8998 20.1009 40.3598 20.3409 39.7298 20.3409C39.1298 20.3409 38.6198 20.1309 38.1898 19.7009C37.7598 19.2809 37.5498 18.7609 37.5498 18.1609C37.5498 17.5609 37.7598 17.0509 38.1898 16.6109C38.6098 16.1909 39.1298 15.9709 39.7298 15.9709L39.7098 15.9609ZM41.1198 17.7809C41.0398 17.4609 40.8698 17.2009 40.6098 16.9909C40.3398 16.7809 40.0498 16.6809 39.7098 16.6809C39.3698 16.6809 39.0698 16.7809 38.8098 16.9909C38.5398 17.2009 38.3698 17.4609 38.2998 17.7809H41.1198Z" fill="#203253"/>
<path d="M45.4396 16.4909C45.7996 16.8509 45.9696 17.2709 45.9696 17.7709V19.9609C45.9696 20.1609 45.8096 20.3209 45.6096 20.3209C45.4096 20.3209 45.2496 20.1609 45.2496 19.9609V17.7709C45.2496 17.4809 45.1396 17.2209 44.9296 17.0009C44.7196 16.7909 44.4596 16.6809 44.1596 16.6809C43.8596 16.6809 43.6096 16.7909 43.3896 17.0009C43.1796 17.2109 43.0696 17.4709 43.0696 17.7709V19.9609C43.0696 20.1609 42.9096 20.3209 42.7096 20.3209C42.5096 20.3209 42.3496 20.1609 42.3496 19.9609V17.7709C42.3496 17.2709 42.5296 16.8509 42.8796 16.4909C43.2296 16.1309 43.6696 15.9609 44.1696 15.9609C44.6696 15.9609 45.0896 16.1409 45.4496 16.4909H45.4396Z" fill="#203253"/>
<path d="M33.6598 16.4909C34.0198 16.8509 34.1898 17.2709 34.1898 17.7709V19.9609C34.1898 20.1609 34.0298 20.3209 33.8298 20.3209C33.6298 20.3209 33.4698 20.1609 33.4698 19.9609V17.7709C33.4698 17.4809 33.3598 17.2209 33.1498 17.0009C32.9398 16.7909 32.6798 16.6809 32.3798 16.6809C32.0798 16.6809 31.8298 16.7909 31.6098 17.0009C31.3998 17.2109 31.2898 17.4709 31.2898 17.7709V19.9609C31.2898 20.1609 31.1298 20.3209 30.9298 20.3209C30.7298 20.3209 30.5698 20.1609 30.5698 19.9609V17.7709C30.5698 17.2709 30.7498 16.8509 31.0998 16.4909C31.4498 16.1309 31.8898 15.9609 32.3898 15.9609C32.8898 15.9609 33.3098 16.1409 33.6698 16.4909H33.6598Z" fill="#203253"/>
<path d="M36.5397 16.4909C36.8997 16.8509 37.0697 17.2709 37.0697 17.7709V19.9609C37.0697 20.1609 36.9097 20.3209 36.7097 20.3209C36.5097 20.3209 36.3497 20.1609 36.3497 19.9609V17.7709C36.3497 17.4809 36.2397 17.2209 36.0297 17.0009C35.8197 16.7909 35.5597 16.6809 35.2597 16.6809C34.9597 16.6809 34.7097 16.7909 34.4897 17.0009C34.2797 17.2109 34.1697 17.4709 34.1697 17.7709V19.9609C34.1697 20.1609 34.0097 20.3209 33.8097 20.3209C33.6097 20.3209 33.4497 20.1609 33.4497 19.9609V17.7709C33.4497 17.2709 33.6297 16.8509 33.9797 16.4909C34.3297 16.1309 34.7697 15.9609 35.2697 15.9609C35.7697 15.9609 36.1897 16.1409 36.5497 16.4909H36.5397Z" fill="#203253"/>
<path d="M49.85 15.9603V18.6303C49.85 19.1003 49.69 19.4903 49.36 19.8303C49.03 20.1603 48.63 20.3303 48.16 20.3303C47.69 20.3303 47.31 20.1603 46.97 19.8203C46.64 19.4903 46.46 19.0903 46.46 18.6303V15.9603H47.19V18.6303C47.19 18.9003 47.29 19.1203 47.48 19.3103C47.66 19.5003 47.89 19.6003 48.16 19.6003C48.43 19.6003 48.65 19.5003 48.84 19.3103C49.03 19.1303 49.13 18.9003 49.13 18.6303V15.9603H49.85ZM47.87 14.6503C48.06 14.8403 48.06 15.1403 47.87 15.3303C47.68 15.5203 47.38 15.5203 47.19 15.3303C47 15.1403 47 14.8403 47.19 14.6503C47.38 14.4603 47.68 14.4603 47.87 14.6503ZM49.09 14.6503C49.28 14.8403 49.28 15.1403 49.09 15.3303C48.9 15.5203 48.6 15.5203 48.41 15.3303C48.22 15.1403 48.22 14.8403 48.41 14.6503C48.6 14.4603 48.9 14.4603 49.09 14.6503Z" fill="#203253"/>
<path d="M2.1499 20.32V14.5H2.8699V16.26C3.1599 16.05 3.4899 15.95 3.8399 15.95C4.2999 15.95 4.6999 16.11 5.0399 16.45C5.3799 16.79 5.5399 17.18 5.5399 17.65V20.32H4.8099V17.65C4.8099 17.38 4.7099 17.16 4.5299 16.97C4.3399 16.78 4.1099 16.68 3.8499 16.68C3.5899 16.68 3.3499 16.78 3.1699 16.97C2.9799 17.16 2.8799 17.39 2.8799 17.65V20.32H2.1599H2.1499Z" fill="#203253"/>
<path d="M6.50014 15.9609C6.70014 15.9609 6.86014 16.1209 6.86014 16.3209V19.9609C6.86014 20.1609 6.70014 20.3209 6.50014 20.3209C6.30014 20.3209 6.14014 20.1609 6.14014 19.9609V16.3209C6.14014 16.1209 6.30014 15.9609 6.50014 15.9609Z" fill="#203253"/>
<path d="M10.4497 15.9609L8.59967 19.5909H10.3697V20.3209H7.40967L9.26967 16.6809H7.63967V15.9609H10.4497Z" fill="#203253"/>
<path d="M10.9197 14.5002H11.6397V18.8602C11.6397 19.2602 11.9597 19.5902 12.3597 19.5902H12.5997V20.3102H12.3597C11.9597 20.3102 11.6097 20.1702 11.3297 19.8802C11.0497 19.6002 10.9097 19.2602 10.9097 18.8502V14.4902L10.9197 14.5002Z" fill="#203253"/>
<path d="M13.5001 15.9609C13.7001 15.9609 13.8601 16.1209 13.8601 16.3209V19.9609C13.8601 20.1609 13.7001 20.3209 13.5001 20.3209C13.3001 20.3209 13.1401 20.1609 13.1401 19.9609V16.3209C13.1401 16.1209 13.3001 15.9609 13.5001 15.9609Z" fill="#203253"/>
<path d="M13.4795 21.9297V23.6997C13.4795 24.5397 14.1595 25.2297 15.0095 25.2297H16.6295" stroke="#FF5733" stroke-width="0.7" stroke-miterlimit="10" stroke-linecap="round"/>
<path d="M27.5996 25.2203H29.3696C30.2096 25.2203 30.8996 24.5403 30.8996 23.6903V22.0703" stroke="#FF5733" stroke-width="0.7" stroke-miterlimit="10" stroke-linecap="round"/>
<path d="M16.7097 10.7793H14.9397C14.0997 10.7793 13.4097 11.4593 13.4097 12.3093V13.9293" stroke="#FF5733" stroke-width="0.7" stroke-miterlimit="10" stroke-linecap="round"/>
<path d="M30.8297 14.0695V12.2995C30.8297 11.4595 30.1497 10.7695 29.2997 10.7695H27.6797" stroke="#FF5733" stroke-width="0.7" stroke-miterlimit="10" stroke-linecap="round"/>
</svg>
