<svg width="84" height="57" viewBox="0 0 84 57" fill="none" xmlns="http://www.w3.org/2000/svg">
<path fill-rule="evenodd" clip-rule="evenodd" d="M72.4058 19.6203C71.4416 19.6203 70.3778 20.1632 69.9534 21.1388L65.4453 31.5721L63.8215 21.1388C63.6308 20.1632 62.9739 19.6203 61.9351 19.6203L56.2242 19.6203L61.1087 36.9475C61.1986 37.2802 61.2155 37.6481 61.1501 38.0358C60.8941 39.4817 59.5263 40.6548 58.0931 40.6548L54.8951 40.6548C54.0829 40.6548 53.548 41.1629 53.2865 42.3123L52.5762 46.6064L58.2086 46.6064C61.1469 46.6064 64.5977 45.116 66.8997 40.9946L78.1777 19.6203L72.4058 19.6203Z" fill="white"/>
<path fill-rule="evenodd" clip-rule="evenodd" d="M16.9604 14.4515C18.6468 14.4515 19.4617 15.1307 19.1654 16.8378L18.679 19.6189L22.5541 19.6189L21.7006 24.5043L17.8237 24.5043L16.7675 30.5533C16.4026 32.6607 18.4687 32.9412 19.654 32.9412C19.8904 32.9412 20.0865 32.9363 20.2271 32.928L19.2793 38.376C18.9867 38.4073 18.685 38.448 18.0471 38.448C15.105 38.448 9.53958 37.6528 10.6339 31.3843L11.8323 24.5043L9.00684 24.5043L9.85715 19.6189L12.6549 19.6189L13.5553 14.4515L16.9604 14.4515Z" fill="white"/>
<path fill-rule="evenodd" clip-rule="evenodd" d="M49.5274 19.8428L48.5322 25.5387C49.7594 26.1717 50.6005 27.4576 50.6005 28.9424C50.6005 30.9003 49.1466 32.5051 47.2749 32.7355L46.2803 38.4304C46.4557 38.4419 46.6343 38.448 46.8125 38.448C52.0151 38.448 56.2291 34.1907 56.2291 28.9424C56.2291 24.6516 53.4069 21.0208 49.5274 19.8428Z" fill="white"/>
<path fill-rule="evenodd" clip-rule="evenodd" d="M45.0972 32.3466C43.8711 31.7169 43.0278 30.4251 43.0278 28.9418C43.0278 26.9961 44.485 25.3797 46.3561 25.1526L47.3497 19.4572C47.1732 19.4462 46.9934 19.4379 46.8164 19.4379C41.6175 19.4379 37.4014 23.6979 37.4014 28.9418C37.4014 33.2348 40.2247 36.8679 44.1042 38.0459L45.0972 32.3466Z" fill="white"/>
<path fill-rule="evenodd" clip-rule="evenodd" d="M24.7997 19.6221L28.1296 19.6221C29.8166 19.6221 30.6282 20.303 30.3308 22.0106L29.9664 24.0763C31.2072 21.5338 33.8982 19.4363 36.6583 19.4363C37.0205 19.4363 37.3692 19.5088 37.3692 19.5088L36.2928 25.669C36.2928 25.669 35.8096 25.5557 35.0557 25.5557C33.585 25.5557 31.0972 26.0265 29.7125 28.817C29.3824 29.505 29.1286 30.3415 28.9526 31.3495L27.7477 38.2703L21.5449 38.2703L24.7997 19.6221Z" fill="white"/>
</svg>
