<svg width="52" height="36" viewBox="0 0 52 36" fill="none" xmlns="http://www.w3.org/2000/svg">
<rect x="0.5" y="0.5" width="51" height="35" rx="3.5" fill="white"/>
<rect x="0.5" y="0.5" width="51" height="35" rx="3.5" stroke="#EAEAEA"/>
<path d="M3 20.9742V15.0629L5.83376 20.3454L8.66751 15.0629V20.9742M19.5713 20.9742V17.9871M24.5612 15H19.5713V17.9871M19.5713 17.9871H24.5612M27.1485 15H32.8161M35.465 15H38.2988M41.1325 15H38.2988M38.2988 15V21.0371M32.8161 21.0371H27.1485M27.1485 17.9871H32.8161M43.5967 17.9871H49.449M43.5967 15H49.449M43.5967 21.0371H49.449" stroke="black" stroke-width="0.862448" stroke-linecap="round" stroke-linejoin="round"/>
<path d="M11.1934 15.123H17.0457" stroke="#F8C88A" stroke-width="0.862448" stroke-linecap="round" stroke-linejoin="round"/>
<path d="M11.1934 18.0801H17.0457" stroke="#EBB3D0" stroke-width="0.862448" stroke-linecap="round" stroke-linejoin="round"/>
<path d="M11.1934 20.791H17.0457" stroke="#B5BEDD" stroke-width="0.862448" stroke-linecap="round" stroke-linejoin="round"/>
</svg>
