<svg width="52" height="36" viewBox="0 0 52 36" fill="none" xmlns="http://www.w3.org/2000/svg">
<rect x="0.5" y="0.5" width="51" height="35" rx="3.5" fill="url(#paint0_linear_2280_3672)"/>
<rect x="0.5" y="0.5" width="51" height="35" rx="3.5" stroke="#EAEAEA"/>
<path d="M39.4555 12.5454C39.6539 12.5149 39.8675 12.4793 39.9387 12.4691C40.0099 12.4589 40.2082 12.4488 40.3811 12.4538C40.5541 12.4589 40.7117 12.4844 40.7372 12.5047C40.7575 12.5301 40.7778 13.0489 40.7778 13.6592C40.7778 14.2695 40.7575 14.7883 40.7372 14.8137C40.7117 14.834 40.3811 14.8646 39.9997 14.8798C39.4199 14.9002 39.2622 14.9256 39.0741 15.0171C38.9469 15.0782 38.7791 15.1901 38.6977 15.2714C38.6214 15.3477 38.5095 15.5003 38.4587 15.602C38.4078 15.7088 38.3264 15.9377 38.2858 16.1106C38.2247 16.37 38.2095 16.8887 38.2095 18.8316C38.2095 20.7032 38.1942 21.2423 38.1433 21.2677C38.1128 21.288 37.6297 21.3033 37.0753 21.3084C36.1192 21.3135 36.0632 21.3084 35.992 21.2118C35.931 21.1253 35.9208 20.7337 35.9208 18.8366C35.9208 17.4431 35.9411 16.4056 35.9767 16.1665C36.0073 15.9479 36.0937 15.5613 36.1598 15.3121C36.231 15.0629 36.3582 14.7171 36.4447 14.5492C36.526 14.3814 36.6735 14.1424 36.7701 14.0152C36.8668 13.8881 37.0753 13.6745 37.2381 13.5371C37.3957 13.3998 37.6602 13.1964 37.828 13.0896C38.006 12.9726 38.3315 12.8302 38.6163 12.7488C38.8808 12.6674 39.2572 12.5759 39.4555 12.5454Z" fill="#FCF6F6"/>
<path fill-rule="evenodd" clip-rule="evenodd" d="M7.77035 12.3165C7.54657 12.3521 7.15496 12.4538 6.90575 12.5403C6.65654 12.6318 6.25475 12.8048 6.01572 12.937C5.73599 13.0845 5.47661 13.2778 5.28335 13.4761C5.06974 13.6948 4.92225 13.9084 4.79002 14.1932C4.68321 14.417 4.56115 14.7374 4.51029 14.9052C4.42892 15.185 4.41875 15.6122 4.40349 19.8131C4.38314 24.2023 4.38823 24.421 4.47469 24.482C4.53572 24.5227 4.73916 24.543 5.0494 24.543C5.36472 24.543 5.62919 24.5125 5.8072 24.4515C5.99537 24.3904 6.13778 24.2989 6.2751 24.1514C6.39716 24.0141 6.50396 23.831 6.54974 23.6683C6.61077 23.4546 6.62603 23.0783 6.62603 21.8373V20.2709C7.21599 20.8913 7.40417 21.0338 7.64321 21.1456C7.8263 21.2321 8.09585 21.3338 8.24334 21.3694C8.38575 21.4101 8.7265 21.4406 8.99097 21.4406C9.25544 21.4406 9.59619 21.4101 9.74368 21.3694C9.88609 21.3338 10.1658 21.227 10.3642 21.1355C10.6337 21.0083 10.827 20.8608 11.1576 20.5303C11.4322 20.2505 11.6662 19.9606 11.7933 19.7369C11.9001 19.5385 12.0527 19.1977 12.129 18.974C12.2053 18.7502 12.307 18.3942 12.3527 18.1857C12.4138 17.9059 12.4392 17.5397 12.4443 16.8379C12.4494 16.1869 12.429 15.7698 12.3782 15.5664C12.3426 15.3986 12.251 15.0782 12.1849 14.8544C12.1137 14.6306 11.9611 14.2644 11.8442 14.0406C11.7068 13.766 11.5288 13.527 11.3051 13.3032C11.122 13.1201 10.8473 12.9014 10.6947 12.8099C10.5422 12.7234 10.2319 12.5912 10.0081 12.5149C9.78437 12.4437 9.41818 12.3521 9.1944 12.3114C8.97062 12.2707 8.65021 12.2402 8.48238 12.2402C8.31454 12.2453 7.99413 12.2758 7.77035 12.3165ZM7.59743 14.4526C7.75001 14.3712 7.98396 14.2848 8.12637 14.2644C8.26368 14.2441 8.47221 14.239 8.5841 14.2543C8.69599 14.2695 8.90451 14.3255 9.04183 14.3763C9.17915 14.4272 9.38767 14.5594 9.49956 14.6662C9.61145 14.773 9.7742 14.9968 9.86574 15.1595C9.9522 15.3274 10.0641 15.6376 10.1048 15.8461C10.1556 16.0801 10.1862 16.487 10.1862 16.904C10.1862 17.4228 10.1607 17.6669 10.0794 17.972C10.0234 18.1857 9.9166 18.4654 9.8454 18.5925C9.7742 18.7197 9.64196 18.8977 9.5555 18.9892C9.46904 19.0859 9.28086 19.2232 9.14355 19.2944C8.92485 19.4114 8.82822 19.4317 8.43152 19.4317C8.04499 19.4317 7.9331 19.4114 7.71949 19.3045C7.58217 19.2384 7.36348 19.0757 7.24142 18.9485C7.11936 18.8214 6.96678 18.618 6.90575 18.4908C6.84472 18.3637 6.76334 18.1501 6.72266 18.0076C6.6718 17.8296 6.65145 17.4736 6.65145 16.8379C6.65145 16.0953 6.6718 15.8665 6.74809 15.6173C6.79895 15.4494 6.88541 15.2257 6.93626 15.1239C6.98712 15.0171 7.09901 14.8544 7.18039 14.7679C7.25668 14.6764 7.44994 14.534 7.59743 14.4526Z" fill="#FCF6F6"/>
<path fill-rule="evenodd" clip-rule="evenodd" d="M15.4755 12.3114C15.267 12.342 14.9669 12.4132 14.8143 12.464C14.6617 12.5149 14.4024 12.6217 14.2396 12.698C14.082 12.7793 13.8175 12.9777 13.6547 13.1404C13.492 13.2981 13.2886 13.5473 13.2072 13.6846C13.1309 13.827 13.0139 14.0762 12.9529 14.2441C12.8969 14.4119 12.8563 14.5848 12.8664 14.6255C12.8715 14.6662 12.9325 14.7171 12.9936 14.7374C13.0597 14.7578 13.5225 14.7781 14.026 14.7781L14.9415 14.773C15.2161 14.4679 15.4145 14.3305 15.5518 14.2644C15.6942 14.2034 15.9332 14.1424 16.0858 14.1271C16.2384 14.1118 16.5486 14.1322 16.7724 14.1678C16.9962 14.2034 17.2657 14.2746 17.3725 14.3255C17.4742 14.3763 17.5963 14.4933 17.637 14.5747C17.6777 14.656 17.7133 14.7832 17.7133 14.8544C17.7133 14.9256 17.6726 15.0629 17.6217 15.1646C17.5607 15.2918 17.4641 15.3782 17.281 15.4647C17.1386 15.5308 16.8538 15.6173 16.6452 15.658C16.4367 15.6986 16.0146 15.7749 15.7044 15.8207C15.3941 15.8665 15.0076 15.9377 14.8398 15.9784C14.6719 16.0241 14.3261 16.1564 14.0769 16.2784C13.8277 16.4056 13.4971 16.6141 13.3445 16.7463C13.1919 16.8837 13.0139 17.0922 12.9376 17.2193C12.8664 17.3465 12.7698 17.5957 12.7189 17.7788C12.6579 18.0026 12.6274 18.3026 12.6274 18.7095C12.6274 19.2232 12.6477 19.3605 12.7698 19.7267C12.8613 20.0064 12.9783 20.2353 13.1105 20.398C13.2224 20.5353 13.436 20.7337 13.5835 20.8405C13.7259 20.9473 13.9802 21.0897 14.1379 21.1609C14.3006 21.2321 14.5753 21.3237 14.7482 21.3643C14.9415 21.4101 15.328 21.4406 15.7196 21.4406C16.0756 21.4406 16.5842 21.4101 16.8487 21.3694C17.1131 21.3287 17.5048 21.2321 17.7133 21.1558C17.9218 21.0846 18.2219 20.9473 18.3745 20.8608C18.527 20.7744 18.7915 20.5659 18.9593 20.398C19.1475 20.2149 19.3408 19.9505 19.4527 19.7369C19.5544 19.5385 19.6714 19.2537 19.7171 19.1011C19.7578 18.9485 19.8188 18.5925 19.8494 18.3128C19.8748 18.0331 19.9002 17.1074 19.9002 16.253C19.9002 15.3986 19.8748 14.5543 19.8443 14.3712C19.8188 14.1881 19.7273 13.9033 19.6459 13.7355C19.5544 13.5473 19.3865 13.3184 19.2035 13.1455C19.0407 12.9879 18.7864 12.7997 18.6389 12.7285C18.4965 12.6522 18.1761 12.5352 17.9269 12.4691C17.6828 12.403 17.2912 12.3216 17.0521 12.2911C16.8131 12.2606 16.4469 12.2402 16.2384 12.2402C16.0299 12.2453 15.684 12.2758 15.4755 12.3114ZM16.3248 17.3261C16.7673 17.2193 17.2301 17.082 17.3573 17.0261C17.4844 16.9701 17.6217 16.9193 17.6675 16.9193C17.7336 16.9142 17.7438 17.0006 17.7285 17.5753C17.7133 18.1348 17.6929 18.2874 17.5861 18.5569C17.5149 18.7349 17.3725 18.9587 17.2606 19.0757C17.1538 19.1876 16.9301 19.3452 16.7673 19.4317C16.4927 19.569 16.4215 19.5792 15.9332 19.5843C15.4551 19.5843 15.3789 19.569 15.1805 19.4571C15.0534 19.3808 14.9313 19.2588 14.8804 19.152C14.8347 19.0553 14.7838 18.8366 14.7736 18.6688C14.7584 18.4501 14.7787 18.2975 14.8448 18.1348C14.8957 18.0076 14.9872 17.8652 15.0432 17.8144C15.0991 17.7635 15.2314 17.6771 15.3382 17.6211C15.4399 17.5703 15.8874 17.438 16.3248 17.3261Z" fill="#FCF6F6"/>
<path fill-rule="evenodd" clip-rule="evenodd" d="M23.4095 12.3572C23.2264 12.3928 22.9518 12.4589 22.7992 12.5047C22.6466 12.5505 22.372 12.6522 22.1889 12.7336C22.0058 12.8149 21.7311 12.9573 21.5786 13.0591C21.426 13.1557 21.1768 13.3591 21.0344 13.5117C20.8869 13.6643 20.6987 13.9135 20.6173 14.0661C20.5309 14.2186 20.4037 14.5747 20.3224 14.8544L20.1799 15.363V24.4667C21.3904 24.4871 21.5633 24.4769 21.6955 24.4108C21.782 24.365 21.9346 24.2582 22.0261 24.1667C22.1228 24.0802 22.2296 23.948 22.2703 23.8666C22.3262 23.7598 22.3415 23.4089 22.3465 22.1628C22.3465 21.3033 22.3669 20.5099 22.3872 20.398C22.4177 20.2251 22.4279 20.2098 22.4584 20.3065C22.4788 20.3726 22.6517 20.5659 22.845 20.7388C23.0789 20.9524 23.3129 21.105 23.5316 21.1965C23.735 21.283 24.0554 21.3643 24.3351 21.3949C24.6759 21.4355 24.9251 21.4406 25.215 21.3999C25.4591 21.3694 25.7795 21.283 26.0236 21.1762C26.3593 21.0388 26.4966 20.9371 26.8425 20.6015C27.0663 20.3777 27.3053 20.1336 27.3663 20.0522C27.4274 19.9759 27.5342 19.8081 27.6003 19.6707C27.6664 19.5385 27.7579 19.3503 27.7986 19.2537C27.8444 19.1571 27.9105 18.974 27.9512 18.8468C27.9919 18.7197 28.0682 18.4094 28.119 18.1602C28.1852 17.8195 28.2055 17.4685 28.2004 16.7616C28.2004 15.9326 28.1852 15.7546 28.0631 15.2613C27.9868 14.9256 27.8393 14.5085 27.702 14.2186C27.5545 13.9135 27.3612 13.6134 27.1832 13.41C27.0256 13.232 26.756 12.998 26.5882 12.8912C26.4203 12.7793 26.0287 12.6115 25.7236 12.5047C25.1997 12.3318 25.1184 12.3165 24.4521 12.3064C24.03 12.2962 23.6078 12.3165 23.4095 12.3572ZM23.4095 14.4068C23.5061 14.3611 23.6689 14.3 23.7655 14.2746C23.8621 14.2441 24.091 14.2339 24.2741 14.2441C24.4775 14.2593 24.7064 14.3204 24.8742 14.3967C25.0166 14.4679 25.2201 14.6103 25.3218 14.712C25.4184 14.8188 25.5557 14.9968 25.6219 15.1087C25.688 15.2206 25.7897 15.485 25.8456 15.6936C25.9321 16.0089 25.9524 16.2225 25.9524 16.9142C25.9524 17.3872 25.927 17.8296 25.8965 17.9314C25.866 18.028 25.8202 18.15 25.7948 18.1958C25.7694 18.2467 25.749 18.3179 25.749 18.3484C25.749 18.384 25.6625 18.5518 25.5507 18.7197C25.4388 18.8875 25.2608 19.0859 25.154 19.1621C25.0472 19.2384 24.859 19.3351 24.7318 19.3808C24.6047 19.4215 24.3656 19.4571 24.1978 19.4571C24.03 19.4571 23.7909 19.4215 23.6638 19.3808C23.5366 19.3351 23.3434 19.2384 23.2315 19.1621C23.1196 19.0808 22.9416 18.8926 22.8348 18.7451C22.728 18.5925 22.5957 18.3179 22.5398 18.1348C22.4839 17.9517 22.4127 17.5957 22.3821 17.3465C22.3415 16.9803 22.3465 16.7667 22.4076 16.2784C22.4584 15.8868 22.5347 15.541 22.6263 15.3121C22.7229 15.0731 22.845 14.8798 23.0026 14.7222C23.1298 14.595 23.3129 14.4526 23.4095 14.4068Z" fill="#FCF6F6"/>
<path fill-rule="evenodd" clip-rule="evenodd" d="M31.1437 12.3456L31.1435 12.3456C31.034 12.37 30.9133 12.3969 30.8095 12.4182C30.6111 12.464 30.306 12.5708 30.1229 12.6522C29.8737 12.7641 29.6957 12.9014 29.3956 13.2066C29.182 13.4252 28.9582 13.6948 28.9073 13.8016C28.8565 13.9033 28.77 14.1373 28.7243 14.3204C28.6429 14.6357 28.6429 14.656 28.7344 14.7171C28.8005 14.7628 29.0854 14.7781 29.7669 14.7781L30.7078 14.773C31.0129 14.4424 31.1604 14.3153 31.2367 14.2797C31.3079 14.2441 31.4249 14.2034 31.4961 14.1881C31.5673 14.1678 31.7707 14.1474 31.9538 14.1322C32.1369 14.1169 32.442 14.1322 32.6404 14.1678C32.8387 14.2034 33.0574 14.2644 33.1388 14.3C33.2151 14.3407 33.3168 14.4323 33.3677 14.5035C33.4135 14.5797 33.4592 14.7272 33.4694 14.834C33.4745 14.9459 33.444 15.1036 33.4033 15.185C33.3524 15.2867 33.2371 15.3782 33.0574 15.4596C32.915 15.5257 32.6658 15.6071 32.5133 15.6427C32.4335 15.6587 32.3329 15.6802 32.2368 15.7007C32.1492 15.7194 32.0653 15.7374 32.0047 15.7495C31.8775 15.7749 31.6741 15.8055 31.5469 15.8156C31.4198 15.8309 31.0994 15.8868 30.8349 15.9428C30.5704 16.0038 30.25 16.0953 30.1229 16.1564C30.0313 16.1967 29.8897 16.2659 29.7625 16.3282L29.7624 16.3282L29.7622 16.3283C29.7128 16.3525 29.6657 16.3755 29.6245 16.3954C29.477 16.4717 29.2379 16.6395 29.0904 16.7667C28.943 16.8938 28.7751 17.1024 28.709 17.2346C28.648 17.3668 28.5615 17.6059 28.5157 17.7686C28.47 17.9263 28.4293 18.2772 28.4191 18.5417C28.414 18.8061 28.4394 19.1927 28.475 19.3961C28.5157 19.5944 28.6073 19.8945 28.6836 20.0573C28.7599 20.2149 28.9379 20.4641 29.0803 20.6015C29.2278 20.754 29.5075 20.9473 29.7414 21.0694C29.9652 21.1812 30.2602 21.2982 30.4026 21.3287C30.5399 21.3593 30.8044 21.3999 30.9875 21.4152C31.1706 21.4355 31.6588 21.4203 32.0809 21.3898C32.3694 21.3687 32.6505 21.3451 32.82 21.3309L32.8203 21.3309L32.8208 21.3309C32.896 21.3246 32.9491 21.3201 32.971 21.3186C33.0422 21.3084 33.271 21.2372 33.4796 21.1609C33.6881 21.0846 33.9882 20.9524 34.1407 20.8608C34.2933 20.7744 34.5578 20.5659 34.7256 20.398C34.8935 20.2302 35.0969 19.981 35.1783 19.8386C35.2596 19.7012 35.3563 19.4927 35.397 19.3808C35.4376 19.2689 35.5139 18.9689 35.5648 18.7197C35.6563 18.3128 35.6665 18.0585 35.6665 16.37C35.6665 14.9307 35.6513 14.4068 35.5953 14.2085C35.5597 14.061 35.4682 13.827 35.397 13.6846C35.3258 13.5473 35.1376 13.3032 34.9748 13.1455C34.807 12.9879 34.5578 12.8048 34.4205 12.7336C34.2781 12.6624 34.0085 12.5556 33.8102 12.4996C33.6118 12.4437 33.2812 12.3725 33.0727 12.342C32.8642 12.3165 32.4522 12.2809 32.1572 12.2707C31.8623 12.2555 31.5215 12.2657 31.3944 12.2911C31.3338 12.3032 31.2433 12.3234 31.1437 12.3456ZM32.5387 17.2346C32.6201 17.2142 32.8489 17.138 33.0473 17.0617C33.2456 16.9854 33.4338 16.9193 33.4694 16.9193C33.5253 16.9142 33.5355 17.0515 33.5101 17.616C33.4796 18.267 33.4694 18.3382 33.3168 18.6637C33.2253 18.857 33.0676 19.0808 32.971 19.1672C32.8744 19.2537 32.6658 19.3808 32.5133 19.447C32.3149 19.5385 32.1115 19.5792 31.8267 19.5944C31.6029 19.6097 31.3232 19.5944 31.2011 19.5639C31.0841 19.5334 30.9163 19.447 30.8298 19.3707C30.7434 19.2893 30.6416 19.1571 30.601 19.0757C30.5603 18.9943 30.5298 18.8214 30.5298 18.6942C30.5298 18.5671 30.5603 18.3535 30.601 18.2111C30.6416 18.0738 30.7434 17.8958 30.8196 17.8195C30.8959 17.7432 31.0638 17.6364 31.1909 17.5804C31.3181 17.5245 31.6385 17.4329 31.9029 17.3719L31.9657 17.3586C32.2118 17.3066 32.4637 17.2533 32.5387 17.2346Z" fill="#FCF6F6"/>
<path fill-rule="evenodd" clip-rule="evenodd" d="M43.7785 12.2911C43.5802 12.3165 43.2292 12.3979 42.9902 12.4691C42.7512 12.5403 42.4308 12.6776 42.2782 12.7692C42.1256 12.8607 41.8662 13.0794 41.7035 13.2574C41.5356 13.4354 41.3525 13.6846 41.2864 13.8118C41.2203 13.9389 41.144 14.1424 41.1084 14.2695C41.0728 14.3967 41.0372 14.5187 41.022 14.5492C41.0118 14.5797 41.0372 14.6408 41.0779 14.6916C41.1491 14.7679 41.2661 14.7781 42.1002 14.7781H43.0411C43.3767 14.4526 43.5751 14.3102 43.7022 14.2492C43.8904 14.1627 44.0277 14.1424 44.4651 14.1424C44.8262 14.1424 45.0958 14.1729 45.2941 14.2339C45.4518 14.2797 45.64 14.3763 45.7112 14.4475C45.7824 14.5187 45.8536 14.6611 45.8688 14.7679C45.8943 14.9052 45.879 15.0019 45.8078 15.129C45.7519 15.2307 45.6044 15.363 45.4569 15.4444C45.289 15.541 45.0195 15.6224 44.6686 15.6885C44.3736 15.7444 43.9413 15.8156 43.7022 15.8461C43.4632 15.8817 43.1224 15.9529 42.9393 16.0038C42.7563 16.0547 42.4155 16.192 42.1765 16.309C41.8967 16.4463 41.6424 16.6192 41.4441 16.8074C41.2813 16.965 41.1084 17.1736 41.0576 17.2702C41.0067 17.3668 40.9202 17.6262 40.8592 17.8449C40.7931 18.089 40.7524 18.3891 40.7524 18.6434C40.7524 18.8926 40.7931 19.2028 40.8541 19.447C40.9152 19.6606 41.0118 19.9555 41.083 20.0929C41.1542 20.2454 41.3322 20.4692 41.5255 20.6472C41.7238 20.8354 41.9832 21.0134 42.2019 21.1151C42.4002 21.2067 42.7105 21.3135 42.8987 21.3593C43.1174 21.4101 43.4785 21.4406 43.8701 21.4406C44.2108 21.4406 44.7092 21.4101 44.9737 21.3694C45.2382 21.3287 45.6044 21.2474 45.7875 21.1863C45.9705 21.1253 46.2554 21.0032 46.4232 20.9168C46.5961 20.8252 46.8962 20.5862 47.1149 20.3726C47.3997 20.0878 47.5472 19.8996 47.6692 19.6351C47.7608 19.4368 47.8727 19.152 47.9134 18.9994C47.9795 18.7654 47.9947 18.3382 47.9947 16.431L47.9998 14.1424C47.7608 13.6287 47.598 13.3795 47.4861 13.2574C47.3793 13.1354 47.1962 12.9726 47.0844 12.9014C46.9725 12.8302 46.7894 12.7285 46.6775 12.6776C46.5656 12.6268 46.3113 12.5403 46.118 12.4793C45.9248 12.4233 45.5332 12.342 45.2534 12.3064C44.9737 12.2707 44.6075 12.2402 44.4397 12.2453C44.2719 12.2453 43.9769 12.2657 43.7785 12.2911ZM45.0754 17.1736C45.2585 17.1227 45.4874 17.0413 45.584 16.9956C45.6806 16.9549 45.7925 16.9193 45.8281 16.9142C45.879 16.9142 45.8943 17.0617 45.879 17.6109C45.8637 18.2365 45.8485 18.3433 45.7315 18.5925C45.6603 18.7451 45.523 18.9638 45.4213 19.0757C45.3246 19.1876 45.1161 19.3401 44.9686 19.4164C44.755 19.5232 44.5872 19.5639 44.2363 19.5894C43.9311 19.6097 43.7022 19.5995 43.5497 19.5588C43.4174 19.5232 43.2547 19.4266 43.1682 19.3351C43.0818 19.2486 42.9851 19.0706 42.9495 18.9333C42.9037 18.7502 42.9037 18.623 42.9495 18.3738C42.98 18.2009 43.0411 17.9975 43.0868 17.9263C43.1326 17.8551 43.3055 17.7228 43.4734 17.6415C43.6412 17.555 43.9972 17.438 44.2617 17.377C44.5261 17.321 44.8923 17.2295 45.0754 17.1736Z" fill="#FCF6F6"/>
<defs>
<linearGradient id="paint0_linear_2280_3672" x1="52" y1="18" x2="0" y2="18" gradientUnits="userSpaceOnUse">
<stop stop-color="#970996"/>
<stop offset="1" stop-color="#DD4755"/>
</linearGradient>
</defs>
</svg>
