<svg width="52" height="36" viewBox="0 0 52 36" fill="none" xmlns="http://www.w3.org/2000/svg">
<rect x="0.5" y="0.5" width="51" height="35" rx="3.5" fill="white"/>
<rect x="0.5" y="0.5" width="51" height="35" rx="3.5" stroke="#EAEAEA"/>
<path d="M22.1901 24.5298C22.1901 23.9898 22.1901 23.4498 22.1901 22.9098C22.1901 22.8798 22.2101 22.8598 22.2401 22.7998C22.5701 22.7798 22.9101 22.7498 23.2301 22.5698C23.6401 22.3298 23.8401 21.9498 24.0201 21.5498C24.0701 21.4298 24.0201 21.3198 23.9701 21.2098C23.7601 20.7098 23.5501 20.2098 23.3401 19.7198C22.6601 18.1198 21.9801 16.5198 21.3001 14.9198C21.2801 14.8698 21.2501 14.8098 21.2301 14.7598C21.1801 14.5798 21.2301 14.5098 21.4201 14.5098C21.9001 14.5098 22.3901 14.5098 22.8701 14.5098C23.1001 14.5098 23.2101 14.6098 23.2901 14.8098C23.4401 15.2198 23.6001 15.6298 23.7601 16.0398C24.1601 17.0798 24.5501 18.1098 24.9501 19.1498C24.9501 19.1698 24.9901 19.1898 25.0201 19.2198C25.1401 19.1998 25.1001 19.0798 25.1201 19.0198C25.5801 17.6398 26.0301 16.2498 26.4901 14.8598C26.6001 14.5298 26.6001 14.5298 26.9501 14.5298C27.4601 14.5298 27.9701 14.5298 28.4401 14.5298C28.5501 14.6798 28.4801 14.7598 28.4401 14.8598C27.9801 16.1198 27.5301 17.3798 27.0701 18.6498C26.7801 19.4498 26.5001 20.2398 26.2101 21.0398C25.9701 21.6998 25.7501 22.3598 25.3601 22.9598C24.9401 23.6098 24.4001 24.0898 23.6801 24.3698C23.2001 24.5398 22.6201 24.5598 22.1801 24.5598L22.1901 24.5298Z" fill="#454749"/>
<path d="M5.08008 21.6402V11.6802C5.21008 11.5902 5.33008 11.6202 5.44008 11.6202C6.60008 11.6202 7.75008 11.6002 8.91008 11.6202C10.4801 11.6502 11.7201 12.6002 12.1301 14.1002C12.6001 15.8102 11.7201 17.5102 10.0701 18.1402C9.69008 18.2802 9.29008 18.3602 8.87008 18.3702C8.42008 18.3702 7.96008 18.3702 7.51008 18.3702C7.05008 18.3702 7.07008 18.3502 7.07008 18.7902C7.07008 19.5702 7.07008 20.3402 7.07008 21.1202C7.07008 21.2202 7.07008 21.3202 7.07008 21.4302C7.07008 21.5802 7.00008 21.6402 6.86008 21.6402C6.28008 21.6402 5.70008 21.6402 5.08008 21.6402ZM7.07008 15.0002C7.07008 15.4102 7.07008 15.8202 7.07008 16.2302C7.07008 16.5202 7.07008 16.5302 7.36008 16.5302C7.83008 16.5302 8.29008 16.5302 8.76008 16.5302C8.98008 16.5302 9.19008 16.4602 9.39008 16.3902C9.85008 16.2302 10.2801 15.6802 10.2501 14.9102C10.2201 14.0202 9.59008 13.5402 8.88008 13.4802C8.36008 13.4402 7.83008 13.4702 7.31008 13.4802C7.08008 13.4802 7.07008 13.5002 7.07008 13.7402C7.07008 14.1602 7.07008 14.5902 7.07008 15.0102V15.0002Z" fill="#454749"/>
<path d="M18.4099 15.2903C18.4099 15.0603 18.4099 14.8703 18.4099 14.6903C18.4099 14.5603 18.4699 14.5103 18.5999 14.5103C19.0999 14.5103 19.5999 14.5103 20.0899 14.5103C20.1999 14.5103 20.2499 14.5703 20.2499 14.6703C20.2499 14.7703 20.2499 14.8703 20.2499 14.9803C20.2499 17.0403 20.2499 19.1103 20.2499 21.1703C20.2499 21.6503 20.2899 21.6303 19.8099 21.6303C19.4699 21.6303 19.1399 21.6303 18.7999 21.6303C18.4099 21.6303 18.4099 21.6303 18.3999 21.2603C18.3999 21.1403 18.3999 21.0303 18.3999 20.8403C18.0799 21.1803 17.7799 21.4403 17.4099 21.6003C16.2499 22.1003 14.8099 21.8903 13.8899 21.0403C13.2599 20.4603 12.7999 19.7703 12.6599 18.9203C12.3699 17.2203 12.8299 15.7303 14.3899 14.7403C15.4299 14.0903 16.5499 14.1103 17.6499 14.6603C17.9299 14.8003 18.0999 15.0703 18.3999 15.2903H18.4099ZM16.3899 20.0603C17.6399 20.1403 18.4099 19.1303 18.3999 18.0703C18.3999 16.9703 17.5999 16.0903 16.4199 16.0703C15.2999 16.0503 14.4299 17.0603 14.4199 18.0603C14.4199 19.1403 15.3399 20.1803 16.3799 20.0603H16.3899Z" fill="#454749"/>
<path d="M35.3703 15.8803V17.6503C35.2503 17.7503 35.1103 17.7103 34.9903 17.7103C33.9903 17.7103 33.0003 17.7103 32.0003 17.7103C31.9003 17.7103 31.8003 17.7103 31.6903 17.7103C31.5503 17.7103 31.4703 17.7703 31.4703 17.9203C31.4703 18.0203 31.4703 18.1203 31.4703 18.2303C31.4703 19.1803 31.4703 20.1303 31.4703 21.0803C31.4703 21.2203 31.4703 21.3703 31.4703 21.5103C31.1403 21.6003 30.0203 21.6203 29.5303 21.5303V11.5703H35.4203C35.5103 11.8503 35.5203 12.9403 35.4403 13.4503H31.5203C31.4503 13.6703 31.4803 13.8603 31.4803 14.0503C31.4803 14.5303 31.4803 15.0203 31.4803 15.5003C31.4803 15.8103 31.4803 15.8203 31.8003 15.8203C32.8403 15.8203 33.8803 15.8203 34.9203 15.8203C35.0603 15.8203 35.2103 15.7903 35.3803 15.8703L35.3703 15.8803Z" fill="#E6302E"/>
<path d="M46.9202 21.5305C46.8302 21.6105 46.7202 21.5805 46.6202 21.5805C46.1402 21.5805 45.6502 21.5705 45.1702 21.5805C44.9402 21.5805 44.7902 21.5205 44.6602 21.3205C44.3102 20.8105 43.9502 20.3205 43.5902 19.8205C43.5102 19.7005 43.4402 19.5705 43.3202 19.5005C43.1702 19.5605 43.1202 19.6905 43.0502 19.7905C42.6802 20.3005 42.3102 20.8105 41.9502 21.3305C41.8302 21.5005 41.7102 21.5905 41.4902 21.5805C40.9102 21.5705 40.3202 21.5805 39.7202 21.5805C39.7202 21.3805 39.8402 21.2805 39.9202 21.1705C40.6202 20.1905 41.3202 19.2205 42.0202 18.2505C42.2802 17.8905 42.2602 17.9405 42.0202 17.6105C41.3802 16.7205 40.7402 15.8305 40.1002 14.9305C40.0002 14.7905 39.9002 14.6405 39.8102 14.5005C39.9002 14.3805 40.0102 14.4205 40.1002 14.4205C40.6002 14.4205 41.1002 14.4205 41.5902 14.4205C41.8102 14.4205 41.9402 14.4905 42.0602 14.6605C42.4302 15.1905 42.8102 15.7105 43.1802 16.2305C43.2102 16.2805 43.2502 16.3205 43.3202 16.4005C43.4602 16.2105 43.5902 16.0405 43.7102 15.8705C44.0102 15.4505 44.3102 15.0405 44.6102 14.6205C44.6802 14.5305 44.7402 14.4205 44.8802 14.4205C45.5202 14.4205 46.1602 14.4205 46.8302 14.4205C46.7502 14.6505 46.6202 14.7905 46.5102 14.9405C45.8802 15.8205 45.2502 16.7005 44.6202 17.5805C44.5702 17.6505 44.5202 17.7305 44.4702 17.8005C44.4102 17.8805 44.4202 17.9605 44.4702 18.0405C44.5302 18.1205 44.5902 18.2105 44.6502 18.2905C45.3202 19.2305 46.0002 20.1705 46.6702 21.1105C46.7602 21.2405 46.8802 21.3505 46.9202 21.5205V21.5305Z" fill="#E5302E"/>
<path d="M38.6903 21.5598H36.8604V14.4998C37.1604 14.4098 38.1803 14.3998 38.6903 14.4698V21.5598Z" fill="#E4302E"/>
<path d="M37.7801 13.7507C38.4097 13.7507 38.9201 13.2403 38.9201 12.6107C38.9201 11.9811 38.4097 11.4707 37.7801 11.4707C37.1505 11.4707 36.6401 11.9811 36.6401 12.6107C36.6401 13.2403 37.1505 13.7507 37.7801 13.7507Z" fill="#E6302E"/>
</svg>
