<svg width="36" height="36" viewBox="0 0 36 36" fill="none" xmlns="http://www.w3.org/2000/svg">
<path d="M28.5649 12.785C28.4419 12.862 25.5139 14.487 25.5139 18.09C25.6519 22.199 29.2089 23.64 29.2699 23.64C29.2089 23.717 28.7329 25.603 27.3229 27.58C26.2039 29.283 24.9619 31 23.0759 31C21.2819 31 20.6379 29.865 18.5679 29.865C16.3449 29.865 15.7159 31 14.0139 31C12.1279 31 10.7939 29.191 9.61392 27.504C8.08092 25.296 6.77792 21.831 6.73192 18.504C6.70092 16.741 7.03892 15.008 7.89692 13.536C9.10792 11.481 11.2699 10.086 13.6309 10.04C15.4399 9.979 17.0499 11.282 18.1539 11.282C19.2119 11.282 21.1899 10.04 23.4279 10.04C24.3939 10.041 26.9699 10.332 28.5649 12.785ZM18.0009 9.688C17.6789 8.078 18.5679 6.468 19.3959 5.441C20.4539 4.199 22.1249 3.356 23.5659 3.356C23.6579 4.966 23.0749 6.545 22.0329 7.695C21.0979 8.937 19.4879 9.872 18.0009 9.688Z" fill="black"/>
</svg>
