<svg width="36" height="36" viewBox="0 0 36 36" fill="none" xmlns="http://www.w3.org/2000/svg">
<path d="M29.107 8.01004C27.0084 7.0587 24.7883 6.38272 22.5052 6C22.2209 6.49812 21.8886 7.16809 21.6595 7.70109C19.198 7.34245 16.7591 7.34245 14.3429 7.70109C14.1139 7.16821 13.7741 6.49812 13.4871 6C11.2019 6.38289 8.97981 7.06058 6.88024 8.01501C2.70224 14.1321 1.56962 20.0971 2.13587 25.9776C4.90699 27.9826 7.59249 29.2006 10.2327 29.9976C10.889 29.1233 11.469 28.1977 11.9669 27.2304C11.0189 26.8807 10.105 26.4498 9.23611 25.9427C9.46476 25.7785 9.68803 25.6074 9.90561 25.4296C15.1709 27.8157 20.8919 27.8157 26.0944 25.4296C26.3129 25.6062 26.5361 25.7773 26.7637 25.9427C25.8935 26.4512 24.9779 26.8829 24.028 27.2329C24.5287 28.2042 25.1077 29.1307 25.7621 30C28.4049 29.2031 31.0929 27.9851 33.864 25.9776C34.5285 19.1606 32.729 13.2504 29.107 8.01004ZM12.6842 22.3612C11.1036 22.3612 9.80736 20.9315 9.80736 19.1906C9.80736 17.4496 11.076 16.0175 12.6842 16.0175C14.2925 16.0175 15.5887 17.4471 15.5611 19.1906C15.5636 20.9315 14.2926 22.3612 12.6842 22.3612ZM23.3156 22.3612C21.735 22.3612 20.4389 20.9315 20.4389 19.1906C20.4389 17.4496 21.7074 16.0175 23.3156 16.0175C24.924 16.0175 26.2201 17.4471 26.1925 19.1906C26.1925 20.9315 24.924 22.3612 23.3156 22.3612Z" fill="#5865F2"/>
</svg>
