<svg width="36" height="36" viewBox="0 0 36 36" fill="none" xmlns="http://www.w3.org/2000/svg">
<path fill-rule="evenodd" clip-rule="evenodd" d="M30.42 18.2952C30.42 17.3778 30.3377 16.4957 30.1848 15.6489H18V20.6534H24.9627C24.6628 22.2706 23.7513 23.6408 22.3811 24.5582V27.8043H26.5623C29.0086 25.552 30.42 22.2353 30.42 18.2952Z" fill="#4285F4"/>
<path fill-rule="evenodd" clip-rule="evenodd" d="M17.9994 30.9381C21.4925 30.9381 24.4211 29.7796 26.5617 27.8037L22.3805 24.5576C21.222 25.3338 19.7401 25.7925 17.9994 25.7925C14.6298 25.7925 11.7776 23.5167 10.7603 20.4587H6.43799V23.8107C8.5668 28.0389 12.942 30.9381 17.9994 30.9381Z" fill="#34A853"/>
<path fill-rule="evenodd" clip-rule="evenodd" d="M10.7609 20.4587C10.5021 19.6824 10.3551 18.8532 10.3551 18.0005C10.3551 17.1478 10.5021 16.3187 10.7609 15.5424V12.1904H6.43858C5.56236 13.937 5.0625 15.9129 5.0625 18.0005C5.0625 20.0882 5.56236 22.0641 6.43858 23.8107L10.7609 20.4587Z" fill="#FBBC05"/>
<path fill-rule="evenodd" clip-rule="evenodd" d="M17.9994 10.2081C19.8989 10.2081 21.6043 10.8609 22.9451 12.1428L26.6558 8.43213C24.4152 6.34449 21.4867 5.0625 17.9994 5.0625C12.942 5.0625 8.56679 7.96168 6.43799 12.1899L10.7603 15.5419C11.7776 12.4839 14.6298 10.2081 17.9994 10.2081Z" fill="#EA4335"/>
</svg>
