<svg width="36" height="36" viewBox="0 0 36 36" fill="none" xmlns="http://www.w3.org/2000/svg">
<path d="M13.3189 18C13.3189 15.4113 15.4181 13.3121 18.0084 13.3121C20.5987 13.3121 22.6991 15.4113 22.6991 18C22.6991 20.5887 20.5987 22.6879 18.0084 22.6879C15.4181 22.6879 13.3189 20.5887 13.3189 18ZM10.7832 18C10.7832 21.9881 14.0179 25.2209 18.0084 25.2209C21.999 25.2209 25.2337 21.9881 25.2337 18C25.2337 14.0119 21.999 10.7791 18.0084 10.7791C14.0179 10.7791 10.7832 14.0119 10.7832 18ZM23.8312 10.4928C23.8311 10.8265 23.93 11.1528 24.1154 11.4304C24.3008 11.708 24.5645 11.9244 24.8729 12.0522C25.1814 12.1801 25.5209 12.2136 25.8485 12.1486C26.176 12.0837 26.477 11.9231 26.7132 11.6872C26.9494 11.4513 27.1104 11.1506 27.1757 10.8233C27.2409 10.496 27.2076 10.1567 27.08 9.84828C26.9523 9.53988 26.736 9.27624 26.4584 9.09071C26.1808 8.90517 25.8544 8.80607 25.5204 8.80594H25.5197C25.0721 8.80615 24.6428 8.98391 24.3262 9.30019C24.0096 9.61646 23.8316 10.0454 23.8312 10.4928ZM12.3238 29.4465C10.9519 29.3841 10.2063 29.1557 9.71075 28.9628C9.05381 28.7072 8.58507 28.4028 8.09225 27.9109C7.59943 27.4191 7.29438 26.9511 7.03975 26.2945C6.84658 25.7995 6.61807 25.0541 6.55571 23.6831C6.48749 22.2008 6.47387 21.7555 6.47387 18.0001C6.47387 14.2448 6.48862 13.8007 6.55571 12.3172C6.61818 10.9461 6.84838 10.2022 7.03975 9.70571C7.2955 9.04916 7.60011 8.58071 8.09225 8.08819C8.5844 7.59566 9.05268 7.29079 9.71075 7.03631C10.206 6.84326 10.9519 6.61489 12.3238 6.55256C13.807 6.48439 14.2525 6.47078 18.0084 6.47078C21.7644 6.47078 22.2104 6.48551 23.6948 6.55256C25.0666 6.615 25.8111 6.84506 26.3078 7.03631C26.9648 7.29079 27.4335 7.59634 27.9263 8.08819C28.4191 8.58004 28.7231 9.04916 28.9788 9.70571C29.172 10.2007 29.4005 10.9461 29.4629 12.3172C29.5311 13.8007 29.5447 14.2448 29.5447 18.0001C29.5447 21.7555 29.5311 22.1995 29.4629 23.6831C29.4004 25.0541 29.1707 25.7993 28.9788 26.2945C28.7231 26.9511 28.4185 27.4195 27.9263 27.9109C27.4342 28.4023 26.9648 28.7072 26.3078 28.9628C25.8125 29.1558 25.0666 29.3842 23.6948 29.4465C22.2116 29.5147 21.7661 29.5283 18.0084 29.5283C14.2508 29.5283 13.8065 29.5147 12.3238 29.4465ZM12.2073 4.02266C10.7093 4.09084 9.68576 4.32821 8.79186 4.67584C7.86611 5.03482 7.08241 5.51644 6.29928 6.29786C5.51615 7.07929 5.03548 7.86375 4.67628 8.78895C4.32845 9.68288 4.09093 10.7053 4.02271 12.2023C3.95337 13.7017 3.9375 14.1811 3.9375 18C3.9375 21.8189 3.95337 22.2983 4.02271 23.7977C4.09093 25.2948 4.32845 26.3171 4.67628 27.2111C5.03548 28.1357 5.51626 28.9211 6.29928 29.7021C7.0823 30.4832 7.86611 30.9642 8.79186 31.3242C9.68745 31.6718 10.7093 31.9092 12.2073 31.9773C13.7084 32.0455 14.1872 32.0625 18.0084 32.0625C21.8297 32.0625 22.3093 32.0466 23.8096 31.9773C25.3077 31.9092 26.3306 31.6718 27.225 31.3242C28.1502 30.9642 28.9345 30.4836 29.7176 29.7021C30.5007 28.9207 30.9804 28.1357 31.3406 27.2111C31.6884 26.3171 31.9271 25.2947 31.9942 23.7977C32.0624 22.2972 32.0782 21.8189 32.0782 18C32.0782 14.1811 32.0624 13.7017 31.9942 12.2023C31.9259 10.7052 31.6884 9.68231 31.3406 8.78895C30.9804 7.86431 30.4995 7.08053 29.7176 6.29786C28.9357 5.5152 28.1502 5.03482 27.2261 4.67584C26.3306 4.32821 25.3075 4.08971 23.8107 4.02266C22.3104 3.95449 21.8308 3.9375 18.0096 3.9375C14.1883 3.9375 13.7084 3.95336 12.2073 4.02266Z" fill="url(#paint0_radial_132_8577)"/>
<path d="M13.3189 18C13.3189 15.4113 15.4181 13.3121 18.0084 13.3121C20.5987 13.3121 22.6991 15.4113 22.6991 18C22.6991 20.5887 20.5987 22.6879 18.0084 22.6879C15.4181 22.6879 13.3189 20.5887 13.3189 18ZM10.7832 18C10.7832 21.9881 14.0179 25.2209 18.0084 25.2209C21.999 25.2209 25.2337 21.9881 25.2337 18C25.2337 14.0119 21.999 10.7791 18.0084 10.7791C14.0179 10.7791 10.7832 14.0119 10.7832 18ZM23.8312 10.4928C23.8311 10.8265 23.93 11.1528 24.1154 11.4304C24.3008 11.708 24.5645 11.9244 24.8729 12.0522C25.1814 12.1801 25.5209 12.2136 25.8485 12.1486C26.176 12.0837 26.477 11.9231 26.7132 11.6872C26.9494 11.4513 27.1104 11.1506 27.1757 10.8233C27.2409 10.496 27.2076 10.1567 27.08 9.84828C26.9523 9.53988 26.736 9.27624 26.4584 9.09071C26.1808 8.90517 25.8544 8.80607 25.5204 8.80594H25.5197C25.0721 8.80615 24.6428 8.98391 24.3262 9.30019C24.0096 9.61646 23.8316 10.0454 23.8312 10.4928ZM12.3238 29.4465C10.9519 29.3841 10.2063 29.1557 9.71075 28.9628C9.05381 28.7072 8.58507 28.4028 8.09225 27.9109C7.59943 27.4191 7.29438 26.9511 7.03975 26.2945C6.84658 25.7995 6.61807 25.0541 6.55571 23.6831C6.48749 22.2008 6.47387 21.7555 6.47387 18.0001C6.47387 14.2448 6.48862 13.8007 6.55571 12.3172C6.61818 10.9461 6.84838 10.2022 7.03975 9.70571C7.2955 9.04916 7.60011 8.58071 8.09225 8.08819C8.5844 7.59566 9.05268 7.29079 9.71075 7.03631C10.206 6.84326 10.9519 6.61489 12.3238 6.55256C13.807 6.48439 14.2525 6.47078 18.0084 6.47078C21.7644 6.47078 22.2104 6.48551 23.6948 6.55256C25.0666 6.615 25.8111 6.84506 26.3078 7.03631C26.9648 7.29079 27.4335 7.59634 27.9263 8.08819C28.4191 8.58004 28.7231 9.04916 28.9788 9.70571C29.172 10.2007 29.4005 10.9461 29.4629 12.3172C29.5311 13.8007 29.5447 14.2448 29.5447 18.0001C29.5447 21.7555 29.5311 22.1995 29.4629 23.6831C29.4004 25.0541 29.1707 25.7993 28.9788 26.2945C28.7231 26.9511 28.4185 27.4195 27.9263 27.9109C27.4342 28.4023 26.9648 28.7072 26.3078 28.9628C25.8125 29.1558 25.0666 29.3842 23.6948 29.4465C22.2116 29.5147 21.7661 29.5283 18.0084 29.5283C14.2508 29.5283 13.8065 29.5147 12.3238 29.4465ZM12.2073 4.02266C10.7093 4.09084 9.68576 4.32821 8.79186 4.67584C7.86611 5.03482 7.08241 5.51644 6.29928 6.29786C5.51615 7.07929 5.03548 7.86375 4.67628 8.78895C4.32845 9.68288 4.09093 10.7053 4.02271 12.2023C3.95337 13.7017 3.9375 14.1811 3.9375 18C3.9375 21.8189 3.95337 22.2983 4.02271 23.7977C4.09093 25.2948 4.32845 26.3171 4.67628 27.2111C5.03548 28.1357 5.51626 28.9211 6.29928 29.7021C7.0823 30.4832 7.86611 30.9642 8.79186 31.3242C9.68745 31.6718 10.7093 31.9092 12.2073 31.9773C13.7084 32.0455 14.1872 32.0625 18.0084 32.0625C21.8297 32.0625 22.3093 32.0466 23.8096 31.9773C25.3077 31.9092 26.3306 31.6718 27.225 31.3242C28.1502 30.9642 28.9345 30.4836 29.7176 29.7021C30.5007 28.9207 30.9804 28.1357 31.3406 27.2111C31.6884 26.3171 31.9271 25.2947 31.9942 23.7977C32.0624 22.2972 32.0782 21.8189 32.0782 18C32.0782 14.1811 32.0624 13.7017 31.9942 12.2023C31.9259 10.7052 31.6884 9.68231 31.3406 8.78895C30.9804 7.86431 30.4995 7.08053 29.7176 6.29786C28.9357 5.5152 28.1502 5.03482 27.2261 4.67584C26.3306 4.32821 25.3075 4.08971 23.8107 4.02266C22.3104 3.95449 21.8308 3.9375 18.0096 3.9375C14.1883 3.9375 13.7084 3.95336 12.2073 4.02266Z" fill="url(#paint1_radial_132_8577)"/>
<defs>
<radialGradient id="paint0_radial_132_8577" cx="0" cy="0" r="1" gradientUnits="userSpaceOnUse" gradientTransform="translate(7.67632 32.1954) scale(36.7369 36.7148)">
<stop offset="0.09" stop-color="#FA8F21"/>
<stop offset="0.78" stop-color="#D82D7E"/>
</radialGradient>
<radialGradient id="paint1_radial_132_8577" cx="0" cy="0" r="1" gradientUnits="userSpaceOnUse" gradientTransform="translate(21.0043 33.4554) scale(28.9537 28.9363)">
<stop offset="0.64" stop-color="#8C3AAA" stop-opacity="0"/>
<stop offset="1" stop-color="#8C3AAA"/>
</radialGradient>
</defs>
</svg>
