<svg width="36" height="36" viewBox="0 0 36 36" fill="none" xmlns="http://www.w3.org/2000/svg">
<path d="M5.60419 22.0755C6.43037 24.7764 8.10186 27.1408 10.3726 28.8205C12.6433 30.5002 15.3933 31.4065 18.2178 31.4061C25.5018 31.4061 31.4061 25.5084 31.4061 18.2343C31.4061 10.9602 25.5018 5.0625 18.2195 5.0625C14.8759 5.06121 11.6568 6.33055 9.21401 8.61349C6.77118 10.8964 5.28718 14.0224 5.0625 17.3584L5.06744 17.3682L12.1539 20.2809C12.793 19.8577 13.55 19.6484 14.3157 19.6832L17.5428 15.0006L17.5411 14.9348C17.5424 13.6066 18.0705 12.3333 19.0094 11.394C19.9484 10.4548 21.2216 9.92628 22.5497 9.92454C23.8778 9.92628 25.151 10.4548 26.0899 11.394C27.0289 12.3333 27.557 13.6066 27.5583 14.9348C27.5578 15.6021 27.4241 16.2627 27.1651 16.8777C26.9061 17.4928 26.5271 18.05 26.0501 18.5167C25.573 18.9835 25.0077 19.3503 24.3872 19.5959C23.7666 19.8414 23.1033 19.9606 22.4361 19.9466L17.8194 23.2396C17.835 23.8495 17.698 24.4537 17.4206 24.9972C17.1433 25.5407 16.7344 26.0062 16.2313 26.3514C15.7282 26.6967 15.1468 26.9106 14.5399 26.9739C13.933 27.0371 13.32 26.9477 12.7565 26.7136C12.2156 26.4883 11.737 26.136 11.361 25.6867C10.985 25.2373 10.7227 24.7041 10.5963 24.132L5.60584 22.0755H5.60419Z" fill="#F0F0F0"/>
<path d="M13.0782 25.9445C13.7641 26.2064 14.5251 26.1907 15.1998 25.9009C15.8744 25.611 16.4096 25.0698 16.6918 24.392C16.9741 23.7142 16.9812 22.953 16.7117 22.27C16.4422 21.587 15.9173 21.0359 15.2482 20.7334C14.5848 20.4566 13.8405 20.4449 13.1687 20.7005L14.8531 21.3986C15.105 21.5035 15.3337 21.6569 15.5263 21.8502C15.7189 22.0435 15.8715 22.2728 15.9755 22.5251C16.0795 22.7774 16.1327 23.0476 16.1322 23.3205C16.1318 23.5933 16.0775 23.8634 15.9727 24.1153C15.8678 24.3672 15.7143 24.596 15.5211 24.7886C15.3278 24.9811 15.0985 25.1338 14.8462 25.2377C14.5939 25.3417 14.3237 25.395 14.0508 25.3945C13.778 25.394 13.5079 25.3398 13.256 25.2349L11.626 24.5598C11.9226 25.1844 12.4399 25.6787 13.0782 25.9445ZM19.2129 14.9346C19.2134 15.8199 19.565 16.6688 20.1907 17.2952C20.8164 17.9215 21.665 18.274 22.5503 18.2753C23.4356 18.274 24.2842 17.9215 24.9099 17.2952C25.5356 16.6688 25.8873 15.8199 25.8877 14.9346C25.8864 14.0498 25.5344 13.2017 24.9088 12.5761C24.2832 11.9505 23.4351 11.5985 22.5503 11.5972C21.6656 11.5985 20.8175 11.9505 20.1919 12.5761C19.5663 13.2017 19.2142 14.0498 19.2129 14.9346ZM22.5553 12.4204C22.8848 12.4206 23.211 12.4857 23.5154 12.612C23.8197 12.7383 24.0962 12.9233 24.3291 13.1565C24.5619 13.3897 24.7466 13.6664 24.8725 13.9709C24.9984 14.2754 25.0631 14.6018 25.0628 14.9313C25.0626 15.2608 24.9975 15.587 24.8712 15.8914C24.7449 16.1957 24.5599 16.4722 24.3267 16.7051C24.0936 16.9379 23.8168 17.1226 23.5123 17.2485C23.2078 17.3744 22.8815 17.4391 22.552 17.4389C21.8865 17.4384 21.2484 17.1736 20.7782 16.7028C20.3079 16.2319 20.044 15.5935 20.0444 14.928C20.0448 14.2625 20.3096 13.6244 20.7805 13.1542C21.2514 12.6839 21.8898 12.42 22.5553 12.4204Z" fill="#F0F0F0"/>
</svg>
