<svg width="36" height="36" viewBox="0 0 36 36" fill="none" xmlns="http://www.w3.org/2000/svg">
<path d="M18.0084 32.0794C25.7796 32.0794 32.0794 25.7796 32.0794 18.0084C32.0794 10.2373 25.7796 3.9375 18.0084 3.9375C10.2373 3.9375 3.9375 10.2373 3.9375 18.0084C3.9375 25.7796 10.2373 32.0794 18.0084 32.0794Z" fill="#34AADF"/>
<path d="M9.97058 17.6997C9.97058 17.6997 16.9406 14.7344 19.3579 13.6903C20.2846 13.2727 23.4271 11.9361 23.4271 11.9361C23.4271 11.9361 24.8776 11.3515 24.7567 12.7714C24.7164 13.3562 24.3941 15.4026 24.0718 17.6162C23.5883 20.7486 23.0645 24.1733 23.0645 24.1733C23.0645 24.1733 22.984 25.1339 22.2991 25.3009C21.6142 25.468 20.486 24.7163 20.2846 24.5492C20.1234 24.4239 17.2629 22.5444 16.2154 21.6256C15.9334 21.375 15.6111 20.8739 16.2556 20.2892C17.7061 18.9109 19.4385 17.1986 20.486 16.1127C20.9695 15.6115 21.4529 14.4421 19.4385 15.862C16.578 17.9085 13.7578 19.8297 13.7578 19.8297C13.7578 19.8297 13.1131 20.2474 11.9045 19.8715C10.6957 19.4956 9.28562 18.9944 9.28562 18.9944C9.28562 18.9944 8.31874 18.368 9.97058 17.6997Z" fill="#F0F0F0"/>
</svg>
