<svg width="65" height="65" viewBox="0 0 65 65" fill="none" xmlns="http://www.w3.org/2000/svg">
<path d="M32.0801 2.35107C18.9801 2.35107 7.88006 10.7511 3.78006 22.3511H60.3801C56.2801 10.7511 45.1801 2.35107 32.0801 2.35107Z" fill="#428BC1"/>
<path d="M32.0801 62.3511C45.1801 62.3511 56.2801 54.0511 60.3801 42.3511H3.78006C7.88006 54.0511 18.9801 62.3511 32.0801 62.3511Z" fill="#83BF4F"/>
<path d="M3.78005 22.3511C2.68005 25.4511 2.08005 28.8511 2.08005 32.3511C2.08005 35.8511 2.68005 39.2511 3.78005 42.3511H60.38C61.48 39.2511 62.08 35.8511 62.08 32.3511C62.08 28.8511 61.48 25.4511 60.38 22.3511H3.78005Z" fill="#ED4C5C"/>
<path d="M31.68 40.551C27.18 40.551 23.48 36.851 23.48 32.351C23.48 27.851 27.18 24.151 31.68 24.151C32.78 24.151 33.78 24.351 34.68 24.751C33.08 23.551 31.08 22.751 28.88 22.751C23.58 22.751 19.38 27.051 19.38 32.351C19.38 37.651 23.68 41.951 28.88 41.951C31.08 41.951 33.08 41.251 34.68 39.951C33.78 40.351 32.78 40.551 31.68 40.551ZM40.48 33.751L38.28 35.251L39.68 32.951L37.08 32.351L39.68 31.751L38.18 29.551L40.48 30.951L41.08 28.351L41.68 30.951L43.88 29.451L42.48 31.751L45.08 32.351L42.48 32.951L43.98 35.151L41.68 33.751L41.08 36.351L40.48 33.751Z" fill="white"/>
</svg>
