<svg width="24" height="24" viewBox="0 0 24 24" fill="none" xmlns="http://www.w3.org/2000/svg">
<path d="M20.985 12.5281C21.0921 10.7059 20.6426 8.89425 19.6962 7.33345C18.7497 5.77266 17.3511 4.53654 15.6858 3.78911C14.0205 3.04169 12.1673 2.81828 10.3721 3.14855C8.57687 3.47882 6.92452 4.34714 5.63427 5.6383C4.34403 6.92947 3.47688 8.58243 3.14789 10.3779C2.81889 12.1733 3.04361 14.0263 3.79222 15.6911C4.54083 17.3559 5.77794 18.7536 7.33941 19.699C8.90087 20.6443 10.7129 21.0925 12.535 20.9841M16 19H22M19 16V22M9 10H9.01M15 10H15.01M9.5 15C10.158 15.64 11.06 16 12 16C12.94 16 13.842 15.64 14.5 15" stroke="#F4FD2B" stroke-width="2" stroke-linecap="round" stroke-linejoin="round"/>
</svg>
