<svg width="22" height="22" viewBox="0 0 22 22" fill="none" xmlns="http://www.w3.org/2000/svg">
<style>.spinner_GuJz{transform-origin:center;animation:spinner_STY6 1.5s linear infinite}@keyframes spinner_STY6{100%{transform:rotate(360deg)}}</style>
<g class="spinner_GuJz">
<path d="M2 13C3.10457 13 4 12.1046 4 11C4 9.89543 3.10457 9 2 9C0.89543 9 0 9.89543 0 11C0 12.1046 0.89543 13 2 13Z" fill="white"/>
<path d="M20 13C21.1046 13 22 12.1046 22 11C22 9.89543 21.1046 9 20 9C18.8954 9 18 9.89543 18 11C18 12.1046 18.8954 13 20 13Z" fill="white"/>
<path d="M11 22C12.1046 22 13 21.1046 13 20C13 18.8954 12.1046 18 11 18C9.89543 18 9 18.8954 9 20C9 21.1046 9.89543 22 11 22Z" fill="white"/>
<path d="M11 4C12.1046 4 13 3.10457 13 2C13 0.89543 12.1046 0 11 0C9.89543 0 9 0.89543 9 2C9 3.10457 9.89543 4 11 4Z" fill="white"/>
<path d="M4.64014 6.64014C5.74471 6.64014 6.64014 5.74471 6.64014 4.64014C6.64014 3.53557 5.74471 2.64014 4.64014 2.64014C3.53557 2.64014 2.64014 3.53557 2.64014 4.64014C2.64014 5.74471 3.53557 6.64014 4.64014 6.64014Z" fill="white"/>
<path d="M17.3599 19.3599C18.4644 19.3599 19.3599 18.4644 19.3599 17.3599C19.3599 16.2553 18.4644 15.3599 17.3599 15.3599C16.2553 15.3599 15.3599 16.2553 15.3599 17.3599C15.3599 18.4644 16.2553 19.3599 17.3599 19.3599Z" fill="white"/>
<path d="M4.64014 19.3599C5.74471 19.3599 6.64014 18.4644 6.64014 17.3599C6.64014 16.2553 5.74471 15.3599 4.64014 15.3599C3.53557 15.3599 2.64014 16.2553 2.64014 17.3599C2.64014 18.4644 3.53557 19.3599 4.64014 19.3599Z" fill="white"/>
<path d="M17.3599 6.64014C18.4644 6.64014 19.3599 5.74471 19.3599 4.64014C19.3599 3.53557 18.4644 2.64014 17.3599 2.64014C16.2553 2.64014 15.3599 3.53557 15.3599 4.64014C15.3599 5.74471 16.2553 6.64014 17.3599 6.64014Z" fill="white"/>
</g>
</svg>
