<svg width="60" height="60" viewBox="0 0 60 60" fill="none" xmlns="http://www.w3.org/2000/svg">
<path fill-rule="evenodd" clip-rule="evenodd" d="M0.0143433 29.9216L3.19023 26.7457L4.61556 28.1711L2.86501 29.9216L4.61556 31.6722L3.19023 33.0975L0.0143433 29.9216ZM6.72225 25.3817L7.43519 22.5008L5.63825 24.2977L6.72225 25.3817ZM13.7655 16.1704H16.6162L29.8915 2.8951L43.1668 16.1703L46.0175 16.1704L29.8915 0.0444336L13.7655 16.1704ZM43.1364 43.7033L29.8915 56.9481L16.9934 44.05H14.1427L29.8915 59.7988L45.987 43.7033L43.1364 43.7033ZM52.3132 37.3771L53.0388 34.4395L54.1448 35.5455L52.3132 37.3771ZM56.918 29.9216L55.1751 28.1787L56.6004 26.7533L59.7687 29.9216L56.6004 33.0899L55.1751 31.6646L56.918 29.9216Z" fill="#FFB600"/>
<path fill-rule="evenodd" clip-rule="evenodd" d="M32.1174 41.6877L29.0467 39.7839L32.432 26.0772H46.6184L46.8527 24.9645L50.3689 22.9048H12.8095L15.2602 24.9645L12.3897 36.5872L16.2288 34.7859H20.7128L21.7913 30.5831H17.3068L18.0089 27.8619L21.6372 26.0772H29.2682L25.883 39.7839L22.0276 41.6877H8.17053L5.30988 39.4779L10.0394 20.3283L7.93032 18.1862H31.2433L33.8518 20.3283L34.3809 18.186L52.3004 18.1862L54.4531 20.3283L52.9821 26.2842L49.9107 27.8619L52.1798 29.5108L49.1724 41.6876L32.1174 41.6877ZM40.0658 34.7859L36.352 36.5872L37.8144 30.5831H45.6282L44.5497 34.7859H40.0658Z" fill="#F0F0F0"/>
</svg>
