<svg width="33" height="32" viewBox="0 0 33 32" fill="none" xmlns="http://www.w3.org/2000/svg">
<path d="M29.5738 13.3885H28.4998V13.3332H16.4998V18.6665H24.0352C22.9358 21.7712 19.9818 23.9998 16.4998 23.9998C12.0818 23.9998 8.49984 20.4178 8.49984 15.9998C8.49984 11.5818 12.0818 7.99984 16.4998 7.99984C18.5392 7.99984 20.3945 8.76917 21.8072 10.0258L25.5785 6.2545C23.1972 4.03517 20.0118 2.6665 16.4998 2.6665C9.1365 2.6665 3.1665 8.6365 3.1665 15.9998C3.1665 23.3632 9.1365 29.3332 16.4998 29.3332C23.8632 29.3332 29.8332 23.3632 29.8332 15.9998C29.8332 15.1058 29.7412 14.2332 29.5738 13.3885Z" fill="#FFC107"/>
<path d="M4.7041 9.79384L9.08477 13.0065C10.2701 10.0718 13.1408 7.99984 16.5001 7.99984C18.5394 7.99984 20.3948 8.76917 21.8074 10.0258L25.5788 6.2545C23.1974 4.03517 20.0121 2.6665 16.5001 2.6665C11.3788 2.6665 6.93743 5.55784 4.7041 9.79384Z" fill="#FF3D00"/>
<path d="M16.4999 29.3333C19.9439 29.3333 23.0732 28.0153 25.4392 25.872L21.3125 22.38C19.9291 23.4327 18.2383 24.0018 16.4999 24C13.0319 24 10.0872 21.7886 8.97788 18.7026L4.62988 22.0526C6.83655 26.3706 11.3179 29.3333 16.4999 29.3333Z" fill="#4CAF50"/>
<path d="M29.574 13.3888H28.5V13.3335H16.5V18.6668H24.0353C23.5095 20.1444 22.5622 21.4356 21.3107 22.3808L21.3127 22.3795L25.4393 25.8715C25.1473 26.1368 29.8333 22.6668 29.8333 16.0002C29.8333 15.1062 29.7413 14.2335 29.574 13.3888Z" fill="#1976D2"/>
</svg>
