<svg width="215" height="73" viewBox="0 0 215 73" fill="none" xmlns="http://www.w3.org/2000/svg">
<path d="M130.454 43.5326H136.835L136.048 47.8738H123.928L127.57 27.3332H133.28L130.454 43.5326Z" fill="#F0F0F0"/>
<path d="M81.4524 37.5598C81.8021 35.5397 82.5499 33.743 83.6959 32.1697C84.8419 30.577 86.2792 29.3435 88.0079 28.4695C89.7367 27.576 91.6305 27.1292 93.6894 27.1292C96.2728 27.1292 98.2928 27.7508 99.7496 28.9939C101.226 30.237 101.983 31.9366 102.022 34.0927H95.8746C95.6609 33.5488 95.2919 33.1312 94.7674 32.8398C94.243 32.5485 93.5826 32.4028 92.7862 32.4028C91.3683 32.4028 90.1543 32.869 89.1442 33.8013C88.1536 34.7336 87.5224 35.9865 87.2504 37.5598C87.1533 38.1425 87.1047 38.6281 87.1047 39.0166C87.1047 40.318 87.4738 41.3086 88.2119 41.9884C88.95 42.6488 90.0377 42.979 91.4751 42.979C93.4757 42.979 95.0685 42.0758 96.2533 40.2694H90.5136L91.242 36.1613H101.906L100.915 41.6971C99.905 43.4258 98.4579 44.9117 96.5738 46.1548C94.6897 47.3979 92.5143 48.0195 90.0474 48.0195C88.2216 48.0195 86.6483 47.6796 85.3275 46.9998C84.0066 46.3005 82.9966 45.3293 82.2974 44.0862C81.5981 42.8431 81.2485 41.4057 81.2485 39.7741C81.2485 38.9972 81.3165 38.2591 81.4524 37.5598Z" fill="#F0F0F0"/>
<path fill-rule="evenodd" clip-rule="evenodd" d="M111.865 48.0778C110.137 48.0778 108.612 47.7184 107.291 46.9998C105.97 46.2811 104.95 45.271 104.232 43.9696C103.513 42.6683 103.154 41.1726 103.154 39.4828C103.154 37.0548 103.659 34.8987 104.669 33.0146C105.698 31.1111 107.126 29.6349 108.952 28.586C110.797 27.5371 112.904 27.0127 115.274 27.0127C117.042 27.0127 118.586 27.372 119.907 28.0907C121.247 28.79 122.276 29.7903 122.995 31.0917C123.714 32.3737 124.073 33.8596 124.073 35.5494C124.073 37.958 123.558 40.114 122.529 42.0176C121.499 43.9211 120.062 45.407 118.217 46.4753C116.372 47.5436 114.254 48.0778 111.865 48.0778ZM115.74 41.8719C114.886 42.474 113.885 42.7751 112.739 42.7751C111.477 42.7751 110.506 42.4255 109.826 41.7262C109.146 41.0075 108.806 40.0363 108.806 38.8126C108.806 37.6278 109.039 36.5401 109.505 35.5494C109.971 34.5588 110.642 33.7722 111.516 33.1895C112.39 32.5873 113.4 32.2862 114.546 32.2862C115.789 32.2862 116.741 32.6359 117.401 33.3351C118.081 34.015 118.421 34.9764 118.421 36.2196C118.421 37.385 118.188 38.4727 117.722 39.4828C117.275 40.4734 116.614 41.2697 115.74 41.8719Z" fill="#F0F0F0"/>
<path fill-rule="evenodd" clip-rule="evenodd" d="M150.071 27.3332C151.956 27.3332 153.587 27.6731 154.966 28.3529C156.345 29.0133 157.394 29.9554 158.113 31.1791C158.832 32.4028 159.191 33.8304 159.191 35.462C159.191 36.2001 159.123 36.9091 158.987 37.5889C158.637 39.5702 157.88 41.3377 156.714 42.8916C155.568 44.4455 154.102 45.6692 152.315 46.5627C150.547 47.4368 148.586 47.8738 146.429 47.8738H138.301L141.943 27.3332H150.071ZM151.062 41.4931C149.955 42.406 148.566 42.8625 146.896 42.8625H144.914L146.808 32.2862H148.76C150.198 32.2862 151.315 32.6359 152.111 33.3351C152.907 34.0344 153.305 35.0347 153.305 36.3361C153.305 36.7828 153.267 37.2005 153.189 37.5889C152.878 39.2594 152.169 40.5608 151.062 41.4931Z" fill="#F0F0F0"/>
<path fill-rule="evenodd" clip-rule="evenodd" d="M177.848 32.665C177.634 33.8693 177.129 34.8793 176.333 35.6951C175.556 36.4915 174.624 37.0354 173.536 37.3267C174.526 37.5598 175.294 38.0357 175.838 38.7544C176.401 39.473 176.683 40.3277 176.683 41.3183C176.683 41.6291 176.653 41.9496 176.595 42.2798C176.304 44.0279 175.469 45.3973 174.089 46.3879C172.71 47.3785 170.923 47.8738 168.728 47.8738H158.56L162.202 27.3332H172.05C173.915 27.3332 175.362 27.712 176.391 28.4695C177.421 29.2076 177.935 30.2662 177.935 31.6453C177.935 31.9755 177.906 32.3154 177.848 32.665ZM171.846 33.2769C171.846 33.4711 171.836 33.6168 171.817 33.7139C171.603 34.9182 170.787 35.5203 169.369 35.5203H166.485L167.126 31.8783H170.01C171.234 31.8783 171.846 32.3445 171.846 33.2769ZM170.943 41.0561C170.943 41.2309 170.933 41.3669 170.914 41.464C170.681 42.6877 169.855 43.2995 168.437 43.2995H165.116L165.757 39.541H169.049C169.671 39.541 170.137 39.677 170.447 39.9489C170.778 40.2014 170.943 40.5705 170.943 41.0561Z" fill="#F0F0F0"/>
<path d="M185.653 31.8492L185.071 35.2581H191.626L190.839 39.5993H184.284L183.614 43.3287H191.043L190.257 47.8738H177.087L180.729 27.3332H193.87L193.083 31.8492H185.653Z" fill="#F0F0F0"/>
<path d="M212.308 27.3332L211.492 31.8783H206.044L203.218 47.8738H197.478L200.304 31.8783H194.885L195.701 27.3332H212.308Z" fill="#F0F0F0"/>
<path fill-rule="evenodd" clip-rule="evenodd" d="M4.53461 36.5968L8.28951 32.8419L9.97471 34.5271L7.905 36.5968L9.97471 38.6665L8.28951 40.3517L4.53461 36.5968ZM12.4655 31.2292L13.3084 27.823L11.1839 29.9475L12.4655 31.2292ZM20.7929 20.3385H24.1633L39.8589 4.64285L55.5545 20.3384L58.9249 20.3384L39.8589 1.27246L20.7929 20.3385ZM55.5186 52.8911L39.8589 68.5508L24.6092 53.301H21.2388L39.8589 71.9211L58.889 52.8911L55.5186 52.8911ZM66.3686 45.4115L67.2263 41.9384L68.534 43.2461L66.3686 45.4115ZM71.8129 36.5968L69.7522 34.5361L71.4374 32.8509L75.1833 36.5968L71.4374 40.3427L69.7522 38.6575L71.8129 36.5968Z" fill="#FFB600"/>
<path fill-rule="evenodd" clip-rule="evenodd" d="M13.7746 25.9392L8.20277 20.3386H42.3103L43.1335 21.0147L43.3005 20.3384L67.337 20.3386L71.5356 24.5165L69.213 33.9206L68.0631 34.5113L68.9089 35.1259L64.5213 52.8912L41.8117 52.8913L37.0705 49.9517L31.1175 52.8913H13.3645L8.10944 48.8318L13.7746 25.9392Z" fill="black"/>
<path fill-rule="evenodd" clip-rule="evenodd" d="M42.4906 50.5081L38.8601 48.2572L42.8625 32.0515H59.6354L59.9125 30.7359L64.0697 28.3008H19.6625L22.5601 30.7359L19.1662 44.4777L23.7053 42.348H29.0067L30.2819 37.379H24.9798L25.8099 34.1616L30.0997 32.0515H39.122L35.1196 48.2572L30.5612 50.5081H14.1778L10.7956 47.8954L16.3874 25.2545L13.8938 22.7219H41.4572L44.5412 25.2545L45.1668 22.7217L66.3533 22.7219L68.8985 25.2545L67.1594 32.2963L63.528 34.1616L66.2107 36.1112L62.6551 50.508L42.4906 50.5081ZM51.8881 42.348L47.4973 44.4777L49.2263 37.379H58.4647L57.1896 42.348H51.8881Z" fill="#F0F0F0"/>
</svg>
