<svg width="179" height="61" viewBox="0 0 179 61" fill="none" xmlns="http://www.w3.org/2000/svg">
<path d="M108.59 36.2023H113.896L113.242 39.8125H103.162L106.191 22.7307H110.94L108.59 36.2023Z" fill="white"/>
<path d="M67.8393 31.2353C68.13 29.5554 68.7519 28.0612 69.705 26.7528C70.658 25.4283 71.8533 24.4025 73.2909 23.6756C74.7285 22.9326 76.3035 22.5611 78.0157 22.5611C80.164 22.5611 81.844 23.078 83.0554 24.1118C84.2831 25.1456 84.913 26.559 84.9453 28.3519H79.8329C79.6552 27.8997 79.3483 27.5524 78.9122 27.3101C78.4761 27.0678 77.9268 26.9466 77.2646 26.9466C76.0854 26.9466 75.0758 27.3343 74.2359 28.1097C73.4121 28.885 72.8871 29.9269 72.661 31.2353C72.5802 31.7199 72.5398 32.1237 72.5398 32.4467C72.5398 33.529 72.8467 34.3528 73.4605 34.9182C74.0744 35.4674 74.9789 35.742 76.1742 35.742C77.838 35.742 79.1626 34.9908 80.1479 33.4886H75.3747L75.9804 30.0722H84.8484L84.0246 34.6759C83.1847 36.1135 81.9813 37.3492 80.4144 38.383C78.8476 39.4168 77.0384 39.9337 74.987 39.9337C73.4686 39.9337 72.1602 39.651 71.0618 39.0856C69.9634 38.5041 69.1234 37.6965 68.5419 36.6627C67.9604 35.6289 67.6697 34.4336 67.6697 33.0767C67.6697 32.4306 67.7262 31.8168 67.8393 31.2353Z" fill="white"/>
<path fill-rule="evenodd" clip-rule="evenodd" d="M93.1309 39.9821C91.6933 39.9821 90.4253 39.6833 89.3269 39.0856C88.2285 38.488 87.3805 37.648 86.7828 36.5658C86.1851 35.4835 85.8863 34.2397 85.8863 32.8344C85.8863 30.8153 86.3063 29.0223 87.1462 27.4555C88.0024 25.8725 89.1896 24.6448 90.708 23.7726C92.2425 22.9003 93.9951 22.4642 95.9658 22.4642C97.4357 22.4642 98.7199 22.763 99.8183 23.3607C100.933 23.9422 101.789 24.7741 102.387 25.8563C102.984 26.9224 103.283 28.1581 103.283 29.5634C103.283 31.5664 102.855 33.3594 101.999 34.9424C101.143 36.5254 99.9475 37.7611 98.413 38.6495C96.8784 39.5379 95.1178 39.9821 93.1309 39.9821ZM96.3535 34.8212C95.6427 35.322 94.8109 35.5724 93.8578 35.5724C92.8079 35.5724 92.0002 35.2816 91.4349 34.7001C90.8695 34.1024 90.5868 33.2948 90.5868 32.2771C90.5868 31.2918 90.7807 30.3872 91.1684 29.5634C91.556 28.7396 92.1133 28.0854 92.8402 27.6008C93.5671 27.1001 94.407 26.8497 95.3601 26.8497C96.3939 26.8497 97.1854 27.1405 97.7346 27.722C98.2999 28.2873 98.5826 29.0869 98.5826 30.1207C98.5826 31.0899 98.3888 31.9945 98.0011 32.8344C97.6296 33.6582 97.0804 34.3205 96.3535 34.8212Z" fill="white"/>
<path fill-rule="evenodd" clip-rule="evenodd" d="M124.904 22.7307C126.47 22.7307 127.827 23.0134 128.974 23.5787C130.121 24.1279 130.993 24.9114 131.591 25.929C132.189 26.9466 132.487 28.1339 132.487 29.4907C132.487 30.1046 132.431 30.6941 132.318 31.2595C132.027 32.9071 131.397 34.377 130.428 35.6693C129.475 36.9615 128.255 37.9792 126.769 38.7222C125.299 39.4491 123.668 39.8125 121.875 39.8125H115.115L118.144 22.7307H124.904ZM125.727 34.5063C124.807 35.2654 123.652 35.645 122.263 35.645H120.615L122.19 26.8497H123.813C125.009 26.8497 125.937 27.1405 126.6 27.722C127.262 28.3035 127.593 29.1354 127.593 30.2176C127.593 30.5891 127.561 30.9364 127.496 31.2595C127.238 32.6487 126.648 33.7309 125.727 34.5063Z" fill="white"/>
<path fill-rule="evenodd" clip-rule="evenodd" d="M148.003 27.1647C147.825 28.1662 147.405 29.0061 146.743 29.6846C146.097 30.3468 145.321 30.7991 144.417 31.0414C145.241 31.2353 145.879 31.631 146.331 32.2287C146.799 32.8263 147.034 33.5371 147.034 34.3609C147.034 34.6193 147.009 34.8858 146.961 35.1605C146.719 36.6142 146.024 37.753 144.877 38.5768C143.73 39.4006 142.244 39.8125 140.419 39.8125H131.963L134.992 22.7307H143.181C144.732 22.7307 145.935 23.0457 146.791 23.6756C147.648 24.2895 148.076 25.1698 148.076 26.3167C148.076 26.5913 148.051 26.8739 148.003 27.1647ZM143.012 27.6735C143.012 27.8351 143.004 27.9562 142.987 28.037C142.81 29.0385 142.131 29.5392 140.952 29.5392H138.553L139.086 26.5105H141.485C142.503 26.5105 143.012 26.8982 143.012 27.6735ZM142.261 34.1428C142.261 34.2882 142.252 34.4013 142.236 34.482C142.042 35.4997 141.356 36.0085 140.177 36.0085H137.415L137.948 32.8829H140.686C141.202 32.8829 141.59 32.9959 141.849 33.2221C142.123 33.4321 142.261 33.739 142.261 34.1428Z" fill="white"/>
<path d="M154.494 26.4863L154.009 29.3211H159.461L158.807 32.9313H153.355L152.798 36.0327H158.976L158.322 39.8125H147.37L150.399 22.7307H161.327L160.672 26.4863H154.494Z" fill="white"/>
<path d="M176.66 22.7307L175.982 26.5105H171.451L169.101 39.8125H164.328L166.678 26.5105H162.171L162.85 22.7307H176.66Z" fill="white"/>
<path fill-rule="evenodd" clip-rule="evenodd" d="M3.87354 30.434L6.99615 27.3114L8.39758 28.7128L6.67639 30.434L8.39758 32.1552L6.99615 33.5567L3.87354 30.434ZM10.4689 25.9703L11.1699 23.1376L9.40313 24.9044L10.4689 25.9703ZM17.3941 16.9135H20.197L33.2497 3.86078L46.3023 16.9134L49.1051 16.9134L33.2497 1.05792L17.3941 16.9135ZM46.2724 43.9846L33.2497 57.0073L20.5678 44.3255H17.765L33.2497 59.8102L49.0752 43.9846L46.2724 43.9846ZM55.2953 37.7645L56.0087 34.8761L57.0962 35.9636L55.2953 37.7645ZM59.8229 30.434L58.1092 28.7203L59.5106 27.3189L62.6258 30.434L59.5106 33.5492L58.1092 32.1478L59.8229 30.434Z" fill="#FFB600"/>
<path fill-rule="evenodd" clip-rule="evenodd" d="M11.5577 21.5709L6.92405 16.9134H35.2882L35.9729 17.4756L36.1118 16.9132L56.1008 16.9134L59.5924 20.3878L57.6608 28.2084L56.7046 28.6995L57.4079 29.2107L53.7591 43.9845L34.8736 43.9846L30.9308 41.54L25.9802 43.9846H11.2166L6.84644 40.6087L11.5577 21.5709Z" fill="black"/>
<path fill-rule="evenodd" clip-rule="evenodd" d="M35.4382 42.0027L32.4191 40.1307L35.7476 26.6539H49.696L49.9265 25.5599L53.3837 23.5348H16.4541L18.8638 25.5599L16.0414 36.9877L19.8162 35.2167H24.2249L25.2853 31.0843H20.876L21.5664 28.4087L25.1338 26.6539H32.6369L29.3084 40.1307L25.5176 42.0027H11.893L9.08032 39.8299L13.7305 21.0015L11.6568 18.8953H34.5788L37.1436 21.0015L37.6638 18.8951L55.2828 18.8953L57.3994 21.0015L55.9531 26.8575L52.9332 28.4087L55.1642 30.03L52.2072 42.0026L35.4382 42.0027ZM43.2533 35.2167L39.6019 36.9877L41.0397 31.0843H48.7225L47.6621 35.2167H43.2533Z" fill="white"/>
</svg>
