<svg width="214" height="73" viewBox="0 0 214 73" fill="none" xmlns="http://www.w3.org/2000/svg">
<path d="M129.62 43.5326H136.001L135.214 47.8738H123.093L126.735 27.3332H132.446L129.62 43.5326Z" fill="#F0F0F0"/>
<path d="M80.6183 37.5598C80.9679 35.5397 81.7157 33.743 82.8617 32.1697C84.0077 30.577 85.4451 29.3435 87.1738 28.4695C88.9025 27.576 90.7963 27.1292 92.8552 27.1292C95.4386 27.1292 97.4587 27.7508 98.9154 28.9939C100.392 30.237 101.149 31.9366 101.188 34.0927H95.0404C94.8267 33.5488 94.4577 33.1312 93.9332 32.8398C93.4088 32.5485 92.7484 32.4028 91.952 32.4028C90.5341 32.4028 89.3201 32.869 88.3101 33.8013C87.3195 34.7336 86.6882 35.9865 86.4163 37.5598C86.3191 38.1425 86.2706 38.6281 86.2706 39.0166C86.2706 40.318 86.6396 41.3086 87.3777 41.9884C88.1158 42.6488 89.2036 42.979 90.6409 42.979C92.6416 42.979 94.2343 42.0758 95.4192 40.2694H89.6794L90.4078 36.1613H101.071L100.081 41.6971C99.0708 43.4258 97.6238 44.9117 95.7397 46.1548C93.8556 47.3979 91.6801 48.0195 89.2133 48.0195C87.3874 48.0195 85.8141 47.6796 84.4933 46.9998C83.1725 46.3005 82.1624 45.3293 81.4632 44.0862C80.7639 42.8431 80.4143 41.4057 80.4143 39.7741C80.4143 38.9972 80.4823 38.2591 80.6183 37.5598Z" fill="#F0F0F0"/>
<path fill-rule="evenodd" clip-rule="evenodd" d="M111.031 48.0778C109.302 48.0778 107.778 47.7184 106.457 46.9998C105.136 46.2811 104.116 45.271 103.398 43.9696C102.679 42.6683 102.32 41.1726 102.32 39.4828C102.32 37.0548 102.825 34.8987 103.835 33.0146C104.864 31.1111 106.292 29.6349 108.118 28.586C109.963 27.5371 112.07 27.0127 114.44 27.0127C116.208 27.0127 117.752 27.372 119.073 28.0907C120.413 28.79 121.442 29.7903 122.161 31.0917C122.88 32.3737 123.239 33.8596 123.239 35.5494C123.239 37.958 122.724 40.114 121.695 42.0176C120.665 43.9211 119.228 45.407 117.383 46.4753C115.537 47.5436 113.42 48.0778 111.031 48.0778ZM114.906 41.8719C114.051 42.474 113.051 42.7751 111.905 42.7751C110.643 42.7751 109.671 42.4255 108.992 41.7262C108.312 41.0075 107.972 40.0363 107.972 38.8126C107.972 37.6278 108.205 36.5401 108.671 35.5494C109.137 34.5588 109.807 33.7722 110.681 33.1895C111.556 32.5873 112.566 32.2862 113.712 32.2862C114.955 32.2862 115.906 32.6359 116.567 33.3351C117.247 34.015 117.587 34.9764 117.587 36.2196C117.587 37.385 117.354 38.4727 116.887 39.4828C116.441 40.4734 115.78 41.2697 114.906 41.8719Z" fill="#F0F0F0"/>
<path fill-rule="evenodd" clip-rule="evenodd" d="M149.237 27.3332C151.121 27.3332 152.753 27.6731 154.132 28.3529C155.511 29.0133 156.56 29.9554 157.279 31.1791C157.997 32.4028 158.357 33.8304 158.357 35.462C158.357 36.2001 158.289 36.9091 158.153 37.5889C157.803 39.5702 157.046 41.3377 155.88 42.8916C154.734 44.4455 153.268 45.6692 151.481 46.5627C149.713 47.4368 147.751 47.8738 145.595 47.8738H137.466L141.108 27.3332H149.237ZM150.228 41.4931C149.121 42.406 147.732 42.8625 146.061 42.8625H144.08L145.974 32.2862H147.926C149.364 32.2862 150.48 32.6359 151.277 33.3351C152.073 34.0344 152.471 35.0347 152.471 36.3361C152.471 36.7828 152.432 37.2005 152.355 37.5889C152.044 39.2594 151.335 40.5608 150.228 41.4931Z" fill="#F0F0F0"/>
<path fill-rule="evenodd" clip-rule="evenodd" d="M177.014 32.665C176.8 33.8693 176.295 34.8793 175.499 35.6951C174.722 36.4915 173.789 37.0354 172.702 37.3267C173.692 37.5598 174.46 38.0357 175.003 38.7544C175.567 39.473 175.848 40.3277 175.848 41.3183C175.848 41.6291 175.819 41.9496 175.761 42.2798C175.47 44.0279 174.634 45.3973 173.255 46.3879C171.876 47.3785 170.089 47.8738 167.894 47.8738H157.726L161.368 27.3332H171.216C173.08 27.3332 174.528 27.712 175.557 28.4695C176.586 29.2076 177.101 30.2662 177.101 31.6453C177.101 31.9755 177.072 32.3154 177.014 32.665ZM171.012 33.2769C171.012 33.4711 171.002 33.6168 170.983 33.7139C170.769 34.9182 169.953 35.5203 168.535 35.5203H165.651L166.292 31.8783H169.176C170.4 31.8783 171.012 32.3445 171.012 33.2769ZM170.109 41.0561C170.109 41.2309 170.099 41.3669 170.079 41.464C169.846 42.6877 169.021 43.2995 167.603 43.2995H164.281L164.922 39.541H168.215C168.836 39.541 169.303 39.677 169.613 39.9489C169.944 40.2014 170.109 40.5705 170.109 41.0561Z" fill="#F0F0F0"/>
<path d="M184.819 31.8492L184.236 35.2581H190.792L190.005 39.5993H183.45L182.78 43.3287H190.209L189.423 47.8738H176.253L179.895 27.3332H193.035L192.249 31.8492H184.819Z" fill="#F0F0F0"/>
<path d="M211.474 27.3332L210.658 31.8783H205.21L202.384 47.8738H196.644L199.47 31.8783H194.051L194.867 27.3332H211.474Z" fill="#F0F0F0"/>
<path fill-rule="evenodd" clip-rule="evenodd" d="M3.70068 36.5968L7.45559 32.8419L9.14078 34.5271L7.07107 36.5968L9.14078 38.6665L7.45559 40.3517L3.70068 36.5968ZM11.6316 31.2292L12.4745 27.823L10.3499 29.9475L11.6316 31.2292ZM19.959 20.3385H23.3294L39.025 4.64285L54.7206 20.3384L58.091 20.3384L39.025 1.27246L19.959 20.3385ZM54.6846 52.8911L39.025 68.5508L23.7753 53.301H20.4049L39.025 71.9211L58.055 52.8911L54.6846 52.8911ZM65.5346 45.4115L66.3924 41.9384L67.7001 43.2461L65.5346 45.4115ZM70.979 36.5968L68.9182 34.5361L70.6034 32.8509L74.3494 36.5968L70.6034 40.3427L68.9182 38.6575L70.979 36.5968Z" fill="#FFB600"/>
<path fill-rule="evenodd" clip-rule="evenodd" d="M12.9406 25.9392L7.36872 20.3386H41.4762L42.2995 21.0147L42.4665 20.3384L66.503 20.3386L70.7016 24.5165L68.3789 33.9206L67.2291 34.5113L68.0748 35.1259L63.6872 52.8912L40.9776 52.8913L36.2365 49.9517L30.2835 52.8913H12.5304L7.27539 48.8318L12.9406 25.9392Z" fill="black"/>
<path fill-rule="evenodd" clip-rule="evenodd" d="M41.6564 50.5081L38.026 48.2572L42.0284 32.0515H58.8012L59.0783 30.7359L63.2355 28.3008H18.8283L21.7259 30.7359L18.332 44.4777L22.8711 42.348H28.1725L29.4477 37.379H24.1456L24.9757 34.1616L29.2655 32.0515H38.2878L34.2854 48.2572L29.727 50.5081H13.3436L9.96143 47.8954L15.5532 25.2545L13.0596 22.7219H40.623L43.7071 25.2545L44.3326 22.7217L65.5192 22.7219L68.0644 25.2545L66.3252 32.2963L62.6938 34.1616L65.3766 36.1112L61.8209 50.508L41.6564 50.5081ZM51.054 42.348L46.6631 44.4777L48.3921 37.379H57.6306L56.3554 42.348H51.054Z" fill="#F0F0F0"/>
</svg>
