<svg width="181" height="62" viewBox="0 0 181 62" fill="none" xmlns="http://www.w3.org/2000/svg">
<path d="M68.1867 31.7684C68.4824 30.0598 69.1149 28.5401 70.0842 27.2094C71.0534 25.8623 72.2692 24.8191 73.7313 24.0798C75.1934 23.3241 76.7952 22.9462 78.5366 22.9462C80.7216 22.9462 82.4302 23.4719 83.6623 24.5234C84.9109 25.5748 85.5516 27.0123 85.5845 28.8359H80.3849C80.2041 28.3759 79.892 28.0226 79.4484 27.7762C79.0049 27.5298 78.4463 27.4066 77.7727 27.4066C76.5734 27.4066 75.5466 27.8009 74.6924 28.5894C73.8545 29.378 73.3206 30.4376 73.0906 31.7684C73.0084 32.2612 72.9674 32.6719 72.9674 33.0005C72.9674 34.1012 73.2795 34.9391 73.9038 35.5141C74.5281 36.0726 75.4481 36.3519 76.6638 36.3519C78.3559 36.3519 79.7031 35.588 80.7052 34.0601H75.8506L76.4666 30.5855H85.4859L84.6481 35.2676C83.7938 36.7298 82.5698 37.9866 80.9763 39.038C79.3827 40.0894 77.5427 40.6151 75.4563 40.6151C73.912 40.6151 72.5813 40.3276 71.4642 39.7526C70.347 39.1612 69.4927 38.3398 68.9013 37.2883C68.3099 36.2369 68.0142 35.0212 68.0142 33.6412C68.0142 32.9841 68.0717 32.3598 68.1867 31.7684Z" fill="#F0F0F0"/>
<path d="M93.9097 40.6644C92.4476 40.6644 91.1579 40.3605 90.0408 39.7526C88.9237 39.1448 88.0612 38.2905 87.4533 37.1898C86.8454 36.0891 86.5415 34.8241 86.5415 33.3948C86.5415 31.3412 86.9687 29.5176 87.8229 27.9241C88.6937 26.3141 89.9012 25.0655 91.4454 24.1784C93.0061 23.2912 94.7886 22.8477 96.7929 22.8477C98.2879 22.8477 99.594 23.1516 100.711 23.7594C101.845 24.3509 102.715 25.1969 103.323 26.2977C103.931 27.3819 104.235 28.6387 104.235 30.068C104.235 32.1051 103.8 33.9287 102.929 35.5387C102.058 37.1487 100.843 38.4055 99.2819 39.3091C97.7211 40.2126 95.9304 40.6644 93.9097 40.6644ZM94.649 36.1794C95.6183 36.1794 96.4644 35.9248 97.1872 35.4155C97.9265 34.9062 98.4851 34.2326 98.8629 33.3948C99.2572 32.5405 99.4543 31.6205 99.4543 30.6348C99.4543 29.5834 99.1669 28.7701 98.5919 28.1951C98.0333 27.6037 97.2283 27.308 96.1769 27.308C95.2076 27.308 94.3533 27.5626 93.614 28.0719C92.8747 28.5648 92.3079 29.2301 91.9136 30.068C91.5194 30.9059 91.3222 31.8259 91.3222 32.828C91.3222 33.863 91.6097 34.6844 92.1847 35.2923C92.7597 35.8837 93.5811 36.1794 94.649 36.1794Z" fill="#F0F0F0"/>
<path d="M109.632 36.8201H115.029L114.363 40.4919H104.112L107.192 23.1187H112.022L109.632 36.8201Z" fill="#F0F0F0"/>
<path d="M126.224 23.1187C127.818 23.1187 129.198 23.4062 130.364 23.9812C131.531 24.5398 132.418 25.3366 133.026 26.3716C133.634 27.4066 133.938 28.6141 133.938 29.9941C133.938 30.6184 133.88 31.218 133.765 31.793C133.469 33.4687 132.829 34.9637 131.843 36.278C130.874 37.5923 129.633 38.6273 128.122 39.383C126.627 40.1223 124.968 40.4919 123.144 40.4919H116.269L119.349 23.1187H126.224ZM123.538 36.2533C124.951 36.2533 126.126 35.8673 127.062 35.0951C127.999 34.3066 128.598 33.2059 128.861 31.793C128.927 31.4644 128.96 31.1112 128.96 30.7334C128.96 29.6326 128.623 28.7866 127.949 28.1951C127.276 27.6037 126.331 27.308 125.115 27.308H123.464L121.863 36.2533H123.538Z" fill="#F0F0F0"/>
<path d="M149.718 27.6284C149.537 28.6469 149.11 29.5012 148.436 30.1912C147.779 30.8648 146.99 31.3248 146.07 31.5712C146.908 31.7684 147.557 32.1709 148.017 32.7787C148.494 33.3866 148.732 34.1094 148.732 34.9473C148.732 35.2101 148.707 35.4812 148.658 35.7605C148.412 37.2391 147.705 38.3973 146.539 39.2351C145.372 40.073 143.861 40.4919 142.004 40.4919H133.404L136.484 23.1187H144.814C146.391 23.1187 147.615 23.4391 148.485 24.0798C149.356 24.7041 149.792 25.5994 149.792 26.7659C149.792 27.0451 149.767 27.3326 149.718 27.6284ZM144.617 28.5155C144.633 28.4334 144.641 28.3101 144.641 28.1459C144.641 27.3573 144.124 26.963 143.089 26.963H140.649L140.107 30.0434H142.547C143.746 30.0434 144.436 29.5341 144.617 28.5155ZM143.853 35.0705C143.869 34.9884 143.877 34.8734 143.877 34.7255C143.877 34.3148 143.738 34.0026 143.458 33.7891C143.195 33.5591 142.801 33.4441 142.275 33.4441H139.491L138.949 36.623H141.758C142.957 36.623 143.655 36.1055 143.853 35.0705Z" fill="#F0F0F0"/>
<path d="M156.319 26.9384L155.827 29.8216H161.371L160.706 33.4934H155.161L154.594 36.6476H160.878L160.213 40.4919H149.074L152.155 23.1187H163.269L162.603 26.9384H156.319Z" fill="#F0F0F0"/>
<path d="M178.864 23.1187L178.174 26.963H173.566L171.175 40.4919H166.321L168.711 26.963H164.127L164.817 23.1187H178.864Z" fill="#F0F0F0"/>
<path fill-rule="evenodd" clip-rule="evenodd" d="M3.13013 30.9524L6.30601 27.7765L7.73134 29.2018L5.98079 30.9524L7.73134 32.7029L6.30601 34.1283L3.13013 30.9524ZM9.83804 26.4125L10.551 23.5315L8.75404 25.3285L9.83804 26.4125ZM16.8813 17.2012H19.732L33.0073 3.92586L46.2825 17.2011L49.1332 17.2011L33.0073 1.0752L16.8813 17.2012ZM46.2521 44.7341L33.0073 57.9789L20.1092 45.0808H17.2585L33.0073 60.8296L49.1028 44.7341L46.2521 44.7341ZM55.429 38.4078L56.1545 35.4703L57.2606 36.5763L55.429 38.4078ZM60.0338 30.9524L58.2909 29.2094L59.7162 27.7841L62.8845 30.9524L59.7162 34.1207L58.2909 32.6953L60.0338 30.9524Z" fill="#FFB600"/>
<path fill-rule="evenodd" clip-rule="evenodd" d="M35.233 42.7194L32.1624 40.8156L35.5476 27.1089H49.734L49.9684 25.9962L53.4845 23.9366H15.9251L18.3759 25.9962L15.5053 37.6189L19.3445 35.8177H23.8284L24.907 31.6148H20.4224L21.1246 28.8936L24.7529 27.1089H32.3839L28.9987 40.8156L25.1432 42.7194H11.2862L8.42554 40.5096L13.155 21.36L11.046 19.218H34.359L36.9675 21.36L37.4966 19.2178L55.4161 19.218L57.5688 21.36L56.0978 27.316L53.0264 28.8936L55.2954 30.5426L52.2881 42.7194L35.233 42.7194ZM43.1814 35.8177L39.4677 37.6189L40.9301 31.6148H48.7439L47.6654 35.8177H43.1814Z" fill="#F0F0F0"/>
</svg>
