<svg width="214" height="74" viewBox="0 0 214 74" fill="none" xmlns="http://www.w3.org/2000/svg">
<path d="M129.62 44.0158H136.001L135.214 48.357H123.094L126.735 27.8163H132.446L129.62 44.0158Z" fill="#0F0F0F"/>
<path d="M80.6183 38.043C80.9679 36.0229 81.7158 34.2262 82.8618 32.6529C84.0078 31.0601 85.4451 29.8267 87.1738 28.9526C88.9026 28.0591 90.7964 27.6124 92.8553 27.6124C95.4387 27.6124 97.4587 28.234 98.9155 29.4771C100.392 30.7202 101.149 32.4198 101.188 34.5758H95.0405C94.8268 34.0319 94.4578 33.6143 93.9333 33.323C93.4089 33.0316 92.7485 32.8859 91.9521 32.8859C90.5342 32.8859 89.3202 33.3521 88.3101 34.2845C87.3195 35.2168 86.6882 36.4696 86.4163 38.043C86.3192 38.6257 86.2706 39.1113 86.2706 39.4997C86.2706 40.8011 86.6397 41.7917 87.3778 42.4716C88.1159 43.132 89.2036 43.4622 90.641 43.4622C92.6416 43.4622 94.2344 42.559 95.4192 40.7526H89.6795L90.4079 36.6444H101.072L100.081 42.1802C99.0709 43.9089 97.6238 45.3949 95.7397 46.638C93.8556 47.8811 91.6802 48.5027 89.2133 48.5027C87.3875 48.5027 85.8142 48.1627 84.4934 47.4829C83.1725 46.7836 82.1625 45.8125 81.4633 44.5693C80.764 43.3262 80.4144 41.8889 80.4144 40.2573C80.4144 39.4803 80.4824 38.7422 80.6183 38.043Z" fill="#0F0F0F"/>
<path fill-rule="evenodd" clip-rule="evenodd" d="M111.031 48.5609C109.302 48.5609 107.778 48.2016 106.457 47.4829C105.136 46.7642 104.116 45.7542 103.398 44.4528C102.679 43.1514 102.32 41.6558 102.32 39.9659C102.32 37.5379 102.825 35.3819 103.835 33.4978C104.864 31.5943 106.292 30.1181 108.118 29.0692C109.963 28.0203 112.07 27.4958 114.44 27.4958C116.208 27.4958 117.752 27.8552 119.073 28.5739C120.413 29.2731 121.442 30.2734 122.161 31.5748C122.88 32.8568 123.239 34.3427 123.239 36.0326C123.239 38.4411 122.724 40.5972 121.695 42.5007C120.665 44.4042 119.228 45.8902 117.383 46.9585C115.537 48.0268 113.42 48.5609 111.031 48.5609ZM114.906 42.355C114.052 42.9572 113.051 43.2582 111.905 43.2582C110.643 43.2582 109.671 42.9086 108.992 42.2094C108.312 41.4907 107.972 40.5195 107.972 39.2958C107.972 38.1109 108.205 37.0232 108.671 36.0326C109.137 35.042 109.807 34.2553 110.682 33.6726C111.556 33.0705 112.566 32.7694 113.712 32.7694C114.955 32.7694 115.907 33.119 116.567 33.8183C117.247 34.4981 117.587 35.4596 117.587 36.7027C117.587 37.8681 117.354 38.9559 116.887 39.9659C116.441 40.9565 115.78 41.7529 114.906 42.355Z" fill="#0F0F0F"/>
<path fill-rule="evenodd" clip-rule="evenodd" d="M149.237 27.8163C151.121 27.8163 152.753 28.1563 154.132 28.8361C155.511 29.4965 156.56 30.4385 157.279 31.6622C157.997 32.8859 158.357 34.3136 158.357 35.9452C158.357 36.6833 158.289 37.3923 158.153 38.0721C157.803 40.0533 157.046 41.8209 155.88 43.3748C154.734 44.9287 153.268 46.1524 151.481 47.0459C149.713 47.9199 147.751 48.357 145.595 48.357H137.467L141.108 27.8163H149.237ZM150.228 41.9763C149.121 42.8892 147.732 43.3456 146.062 43.3456H144.08L145.974 32.7694H147.926C149.364 32.7694 150.48 33.119 151.277 33.8183C152.073 34.5175 152.471 35.5179 152.471 36.8193C152.471 37.266 152.433 37.6836 152.355 38.0721C152.044 39.7425 151.335 41.0439 150.228 41.9763Z" fill="#0F0F0F"/>
<path fill-rule="evenodd" clip-rule="evenodd" d="M177.014 33.1482C176.8 34.3524 176.295 35.3625 175.499 36.1783C174.722 36.9746 173.789 37.5185 172.702 37.8099C173.692 38.043 174.46 38.5188 175.003 39.2375C175.567 39.9562 175.848 40.8108 175.848 41.8015C175.848 42.1122 175.819 42.4327 175.761 42.7629C175.47 44.5111 174.634 45.8804 173.255 46.8711C171.876 47.8617 170.089 48.357 167.894 48.357H157.726L161.368 27.8163H171.216C173.081 27.8163 174.528 28.1951 175.557 28.9526C176.587 29.6907 177.101 30.7493 177.101 32.1284C177.101 32.4586 177.072 32.7985 177.014 33.1482ZM171.012 33.76C171.012 33.9543 171.002 34.0999 170.983 34.197C170.769 35.4013 169.953 36.0035 168.535 36.0035H165.651L166.292 32.3615H169.176C170.4 32.3615 171.012 32.8277 171.012 33.76ZM170.109 41.5392C170.109 41.714 170.099 41.85 170.08 41.9471C169.846 43.1708 169.021 43.7827 167.603 43.7827H164.282L164.923 40.0242H168.215C168.836 40.0242 169.303 40.1601 169.613 40.4321C169.944 40.6846 170.109 41.0536 170.109 41.5392Z" fill="#0F0F0F"/>
<path d="M184.819 32.3324L184.237 35.7412H190.792L190.005 40.0825H183.45L182.78 43.8118H190.209L189.423 48.357H176.253L179.895 27.8163H193.035L192.249 32.3324H184.819Z" fill="#0F0F0F"/>
<path d="M211.474 27.8163L210.658 32.3615H205.21L202.384 48.357H196.644L199.47 32.3615H194.051L194.867 27.8163H211.474Z" fill="#0F0F0F"/>
<path fill-rule="evenodd" clip-rule="evenodd" d="M3.7005 37.0792L7.4554 33.3243L9.1406 35.0095L7.07089 37.0792L9.1406 39.1489L7.4554 40.8341L3.7005 37.0792ZM11.6314 31.7116L12.4743 28.3054L10.3498 30.43L11.6314 31.7116ZM19.9588 20.8209H23.3292L39.0248 5.12527L54.7204 20.8208L58.0908 20.8209L39.0248 1.75488L19.9588 20.8209ZM54.6845 53.3736L39.0248 69.0332L23.7751 53.7835H20.4047L39.0248 72.4036L58.0549 53.3735L54.6845 53.3736ZM65.5344 45.894L66.3922 42.4208L67.6999 43.7285L65.5344 45.894ZM70.9788 37.0792L68.9181 35.0185L70.6033 33.3333L74.3492 37.0792L70.6033 40.8251L68.9181 39.14L70.9788 37.0792Z" fill="#FFB600"/>
<path fill-rule="evenodd" clip-rule="evenodd" d="M12.9406 26.4216L7.36872 20.821H41.4762L42.2995 21.4971L42.4665 20.8208L66.503 20.8211L70.7016 24.9989L68.3789 34.4031L67.2291 34.9937L68.0748 35.6083L63.6872 53.3736L40.9776 53.3737L36.2365 50.4341L30.2835 53.3737H12.5304L7.27539 49.3143L12.9406 26.4216Z" fill="black"/>
<path fill-rule="evenodd" clip-rule="evenodd" d="M41.6565 50.9906L38.0261 48.7396L42.0285 32.5339H58.8013L59.0784 31.2184L63.2356 28.7832H18.8284L21.726 31.2184L18.3321 44.9601L22.8712 42.8305H28.1727L29.4478 37.8614H24.1457L24.9759 34.644L29.2657 32.5339H38.2879L34.2855 48.7396L29.7272 50.9906H13.3437L9.96155 48.3778L15.5533 25.737L13.0597 23.2043H40.6231L43.7072 25.737L44.3327 23.2041L65.5193 23.2043L68.0645 25.737L66.3253 32.7787L62.694 34.644L65.3767 36.5936L61.821 50.9905L41.6565 50.9906ZM51.0541 42.8305L46.6632 44.9601L48.3922 37.8614H57.6307L56.3555 42.8305H51.0541Z" fill="#F0F0F0"/>
</svg>
