<svg width="65" height="65" viewBox="0 0 65 65" fill="none" xmlns="http://www.w3.org/2000/svg">
<path d="M32.0802 62.3516C48.6487 62.3516 62.0802 48.9201 62.0802 32.3516C62.0802 15.783 48.6487 2.35156 32.0802 2.35156C15.5116 2.35156 2.08017 15.783 2.08017 32.3516C2.08017 48.9201 15.5116 62.3516 32.0802 62.3516Z" fill="#ED4C5C"/>
<path d="M41.3802 39.3516L41.4802 33.9516L36.0802 32.3516L41.4802 30.7516L41.3802 25.3516L44.6802 29.6516L50.0802 28.0516L46.7802 32.3516L50.0802 36.6516L44.6802 35.0516L41.3802 39.3516Z" fill="white"/>
<path d="M33.2802 44.3516C26.6802 44.3516 21.3802 38.9516 21.3802 32.3516C21.3802 25.7516 26.6802 20.3516 33.2802 20.3516C35.7802 20.3516 38.0802 21.1516 40.0802 22.4516C37.3802 19.3516 33.3802 17.3516 28.8802 17.3516C20.6802 17.3516 14.0802 24.0516 14.0802 32.3516C14.0802 40.6516 20.6802 47.3516 28.8802 47.3516C33.3802 47.3516 37.3802 45.3516 40.0802 42.2516C38.1802 43.5516 35.8802 44.3516 33.2802 44.3516Z" fill="white"/>
</svg>
