<svg width="39" height="39" viewBox="0 0 39 39" fill="none" xmlns="http://www.w3.org/2000/svg">
<rect width="38.4383" height="38.4383" rx="19.2191" fill="#4CAF50"/>
<path fill-rule="evenodd" clip-rule="evenodd" d="M17.1623 6.50732C18.6219 6.50732 20.0762 6.50732 21.5359 6.50732C21.4501 7.49475 21.3588 8.48754 21.2783 9.47496C22.9795 9.59839 24.6377 10.1458 26.1296 10.9561C25.4856 12.5768 24.8363 14.1974 24.1869 15.8181C22.9312 14.7502 21.2783 14.1599 19.6308 14.1813C19.2176 14.1921 18.7883 14.2725 18.4449 14.5087C18.2195 14.6643 18.0531 14.9058 18.0048 15.1741C17.9672 15.3888 17.978 15.6303 18.096 15.8234C18.2302 16.0381 18.4663 16.1669 18.7024 16.2474C19.1854 16.4191 19.706 16.4299 20.2104 16.4835C21.3964 16.6284 22.5877 16.8323 23.7093 17.2563C24.5787 17.589 25.4105 18.0881 26.0061 18.8179C26.5696 19.4887 26.897 20.3366 27.0204 21.206C27.1653 22.2095 27.1224 23.2506 26.8111 24.2273C26.5696 25.0108 26.1564 25.7406 25.6198 26.3577C24.5089 27.6457 22.8775 28.4185 21.2032 28.617C21.2569 29.6742 21.3213 30.726 21.3803 31.7832C19.9957 31.7832 18.6166 31.7832 17.2374 31.7832C17.2911 30.7368 17.3608 29.6903 17.4091 28.6438C16.2983 28.6063 15.1982 28.3594 14.1624 27.9677C13.1589 27.5867 12.2037 27.0822 11.3129 26.4919C11.9676 24.8068 12.6223 23.1218 13.2823 21.4314C14.0283 22.0592 14.8225 22.6442 15.6919 23.0896C16.6256 23.5672 17.6614 23.8731 18.7132 23.8838C19.2123 23.8892 19.7274 23.8624 20.1997 23.6906C20.4895 23.5833 20.7739 23.3955 20.9027 23.1003C21.0368 22.7891 21.0261 22.3973 20.8222 22.1183C20.6773 21.9304 20.4734 21.8016 20.2587 21.7104C19.9689 21.5924 19.6684 21.528 19.3625 21.4797C18.2356 21.2972 17.1032 21.1469 16.0139 20.7928C15.1391 20.5083 14.2859 20.1112 13.5882 19.4994C13.1482 19.1184 12.7833 18.6516 12.5257 18.1256C12.1393 17.3421 11.9944 16.4567 12.0051 15.5873C12.0051 14.616 12.2037 13.6286 12.6867 12.7753C13.1053 12.0133 13.7439 11.3908 14.463 10.9132C15.3323 10.339 16.3036 9.94721 17.2911 9.63059C17.2481 8.5895 17.2052 7.54841 17.1623 6.50732Z" fill="#F0F0F0"/>
</svg>
