<svg width="76" height="76" viewBox="0 0 76 76" fill="none" xmlns="http://www.w3.org/2000/svg">
<path d="M38.0802 2.36475C23.0647 2.36475 10.2957 11.7051 5.09348 24.8288H71.0668C65.8646 11.7051 53.0956 2.36475 38.0802 2.36475Z" fill="#42ADE2"/>
<path d="M38.0802 73.3039C53.0956 73.3039 65.8646 63.9636 71.0668 50.8398H5.09348C10.2957 63.9636 23.0647 73.3039 38.0802 73.3039Z" fill="#83BF4F"/>
<path d="M73.5497 37.8342C73.5497 34.169 72.9585 30.5039 71.8944 27.1934H4.26584C3.20175 30.5039 2.6106 34.169 2.6106 37.8342C2.6106 41.4994 3.20175 45.1646 4.26584 48.4751H71.8944C72.9585 45.1646 73.5497 41.4994 73.5497 37.8342Z" fill="white"/>
<path d="M71.0668 24.8286C71.185 25.1833 71.4215 25.6562 71.5397 26.0109C71.658 26.3656 71.7762 26.8386 71.8944 27.1932" fill="#C94747"/>
<path d="M71.5397 26.0109C71.4215 25.6562 71.1851 25.1833 71.0668 24.8286H5.09346C4.97523 25.1833 4.73877 25.6562 4.62053 26.0109C4.5023 26.3656 4.38407 26.8386 4.26584 27.1932H71.8944C71.7762 26.8386 71.658 26.3656 71.5397 26.0109ZM4.62053 49.6573C4.73877 50.012 4.97523 50.4849 5.09346 50.8396H71.0668C71.1851 50.4849 71.4215 50.012 71.5397 49.6573C71.658 49.3026 71.7762 48.8297 71.8944 48.475H4.26584C4.38407 48.8297 4.5023 49.3026 4.62053 49.6573Z" fill="#C94747"/>
<path d="M24.3652 20.4541C21.5277 20.4541 19.2813 18.2077 19.2813 15.3701C19.2813 12.5325 21.5277 10.2861 24.3652 10.2861C25.0746 10.2861 25.6658 10.4044 26.2569 10.6408C25.3111 9.93142 24.0105 9.4585 22.71 9.4585C19.3995 9.4585 16.7984 12.0596 16.7984 15.3701C16.7984 18.6806 19.3995 21.2817 22.71 21.2817C24.0105 21.2817 25.3111 20.8088 26.2569 20.0994C25.6658 20.3358 25.0746 20.4541 24.3652 20.4541ZM29.4492 17.9712L29.9221 19.2717H31.2227L30.1586 19.9811L30.5133 21.2817L29.4492 20.4541L28.3851 21.2817L28.858 19.9811L27.794 19.2717H29.0945L29.4492 17.9712ZM34.5332 17.9712L34.8879 19.2717H36.3067L35.2426 19.9811L35.5973 21.2817L34.5332 20.4541L33.4691 21.2817L33.8238 19.9811L32.7597 19.2717H34.0602L34.5332 17.9712ZM39.6171 17.9712L39.9718 19.2717H41.2724L40.2083 19.9811L40.6812 21.2817L39.6171 20.4541L38.4348 21.2817L38.9078 19.9811L37.8437 19.2717H39.1442L39.6171 17.9712ZM44.5829 17.9712L45.0558 19.2717H46.3564L45.2923 19.9811L45.647 21.2817L44.5829 20.4541L43.5188 21.2817L43.8735 19.9811L42.8094 19.2717H44.2282L44.5829 17.9712ZM49.6668 17.9712L50.0215 19.2717H51.4403L50.258 19.9811L50.7309 21.2817L49.6668 20.4541L48.6028 21.2817L48.9575 19.9811L47.8934 19.2717H49.1939L49.6668 17.9712ZM34.5332 13.7148L34.8879 15.0154H36.3067L35.2426 15.7248L35.5973 17.0253L34.5332 16.1977L33.4691 17.0253L33.8238 15.7248L32.7597 15.0154H34.0602L34.5332 13.7148ZM39.6171 13.7148L39.9718 15.0154H41.2724L40.2083 15.7248L40.6812 17.0253L39.6171 16.1977L38.4348 17.0253L38.9078 15.7248L37.8437 15.0154H39.1442L39.6171 13.7148ZM44.5829 13.7148L45.0558 15.0154H46.3564L45.2923 15.7248L45.647 17.0253L44.5829 16.1977L43.5188 17.0253L43.8735 15.7248L42.8094 15.0154H44.2282L44.5829 13.7148ZM49.6668 13.7148L50.0215 15.0154H51.4403L50.258 15.7248L50.7309 17.0253L49.6668 16.1977L48.6028 17.0253L48.9575 15.7248L47.8934 15.0154H49.1939L49.6668 13.7148ZM39.6171 9.4585L39.9718 10.759H41.2724L40.2083 11.4684L40.6812 12.769L39.6171 11.9414L38.4348 12.769L38.9078 11.4684L37.8437 10.759H39.1442L39.6171 9.4585ZM44.5829 9.4585L45.0558 10.759H46.3564L45.2923 11.4684L45.647 12.769L44.5829 11.9414L43.5188 12.769L43.8735 11.4684L42.8094 10.759H44.2282L44.5829 9.4585ZM49.6668 9.4585L50.0215 10.759H51.4403L50.258 11.4684L50.7309 12.769L49.6668 11.9414L48.6028 12.769L48.9575 11.4684L47.8934 10.759H49.1939L49.6668 9.4585Z" fill="white"/>
</svg>
