<svg width="52" height="36" viewBox="0 0 52 36" fill="none" xmlns="http://www.w3.org/2000/svg">
<rect x="0.5" y="0.5" width="51" height="35" rx="3.5" fill="white"/>
<rect x="0.5" y="0.5" width="51" height="35" rx="3.5" stroke="#EAEAEA"/>
<path d="M6.84977 20.5595V22.5595H1.50977V13.4395H3.58977V20.5595H6.84977Z" fill="black"/>
<path d="M10.5197 13.4395H8.42969V22.5695H10.5197V13.4395Z" fill="black"/>
<path d="M16.8696 17.8297C17.3696 17.3997 17.6696 16.7997 17.6696 16.0397C17.6696 14.4597 16.3796 13.4297 14.7896 13.4297H12.0996V15.3897H14.7896C15.2696 15.3897 15.5896 15.7297 15.5896 16.1997C15.5896 16.6697 15.2596 17.0097 14.7896 17.0097H13.6296V18.8597H15.0496C15.5696 18.8597 15.9096 19.2297 15.9096 19.7297C15.9096 20.2297 15.5696 20.5997 15.0496 20.5997H13.6296V22.5597H15.0496C16.6796 22.5597 17.9996 21.4997 17.9996 19.8897C17.9996 18.9697 17.5596 18.2597 16.8796 17.8297" fill="#D6291C"/>
<path d="M25.3298 20.5595V22.5595H19.5898V13.4395H25.2598V15.4395H21.6798V16.9595H24.9398V18.9395H21.6798V20.5595H25.3298Z" fill="black"/>
<path d="M40.9499 15.4395H38.6099V22.5595H36.5199V15.4395H34.1699V13.4395H40.9499V15.4395Z" fill="black"/>
<path d="M47.4298 19.0595V22.5595H45.3398V19.0595L42.2798 13.4395H44.6498L46.3898 16.9595L48.1198 13.4395H50.4898L47.4298 19.0595Z" fill="black"/>
<path d="M30.9198 19.2097C31.9198 18.6997 32.5998 17.6797 32.5998 16.5597C32.5998 14.8297 31.2098 13.4297 29.4698 13.4297H26.7798V15.3897H29.4698C30.0398 15.3897 30.5098 15.8997 30.5098 16.5597C30.5098 17.2197 30.0398 17.7297 29.4698 17.7297H28.1298V19.5597H28.8898L30.6098 22.5597H32.8498L30.9098 19.2097H30.9198Z" fill="black"/>
</svg>
