<svg width="94" height="65" viewBox="0 0 94 65" fill="none" xmlns="http://www.w3.org/2000/svg">
<g clip-path="url(#clip0_18567_85382)">
<path d="M34.38 34.9327C38.6207 34.9327 41.473 37.6742 41.473 42.7484V54.1721H36.4826V43.7615C36.4826 41.0556 35.3204 39.7048 33.1069 39.7048C30.2945 39.7048 28.9815 41.6954 28.9815 45.1923V54.1721H24.0266V43.7615C24.0266 41.0556 22.8244 39.7048 20.6109 39.7048C17.834 39.7048 16.5609 41.6954 16.5609 45.1923V54.1721H11.6104V35.3815H16.4145V38.274C17.5412 36.2835 19.3777 34.9283 22.2654 34.9283C24.927 34.9283 26.9942 36.0569 28.081 38.4251C29.2787 36.2879 31.4523 34.9327 34.38 34.9327ZM59.5805 41.02C59.5805 33.1643 65.0943 27.8679 72.112 27.8679C79.1296 27.8679 84.6435 33.1688 84.6435 41.02C84.6435 48.8713 79.1296 54.1721 72.112 54.1721C65.0943 54.1721 59.5805 48.8757 59.5805 41.02ZM79.3913 41.02C79.3913 36.1724 76.3128 33.1288 72.112 33.1288C67.8713 33.1288 64.8327 36.1724 64.8327 41.02C64.8327 45.8676 67.8713 48.9112 72.112 48.9112C76.3173 48.9112 79.3913 45.8676 79.3913 41.02ZM36.0435 26.9127C35.9103 28.3611 36.975 29.6407 38.4211 29.7696L42.6974 30.1606C44.1434 30.2939 45.421 29.2275 45.5496 27.7791C45.6828 26.3305 44.6181 25.0509 43.172 24.922L38.8957 24.531C37.4541 24.4022 36.1765 25.4685 36.0435 26.9127ZM42.2981 13.4761C41.1049 14.3026 40.812 15.9422 41.6372 17.1374L44.9464 21.914C45.7714 23.1091 47.4083 23.4024 48.6016 22.576C49.7949 21.7495 50.0876 20.1099 49.2625 18.9147L45.9533 14.1382C45.1283 12.9429 43.4914 12.6497 42.2981 13.4761ZM57.5444 10.9168C56.1427 10.5347 54.701 11.3611 54.3195 12.7652L52.798 18.3637C52.4165 19.7634 53.2415 21.2119 54.6433 21.594C56.045 21.9761 57.4868 21.1497 57.8682 19.7456L59.3898 14.1471C59.7668 12.743 58.9417 11.2989 57.5444 10.9168ZM67.9023 21.6696C67.2946 20.3499 65.7332 19.7767 64.4157 20.3854L60.521 22.1849C59.2035 22.7937 58.6312 24.3577 59.239 25.6774C59.8466 26.997 61.4082 27.5702 62.7255 26.9615L66.6203 25.1619C67.9377 24.5487 68.51 22.9848 67.9023 21.6696ZM53.1351 27.8679C52.3988 27.8679 51.6889 28.1256 51.1256 28.6011L43.2562 35.2171C42.1473 36.1502 42.0009 37.812 42.9325 38.9228C43.864 40.0336 45.5231 40.1802 46.632 39.2471L51.0059 35.5725V54.1766H56.258V31.0004C56.258 29.2675 54.8607 27.8679 53.1351 27.8679Z" fill="white"/>
</g>
<defs>
<clipPath id="clip0_18567_85382">
<rect width="73.1582" height="43.353" fill="white" transform="translate(11.6104 10.8235)"/>
</clipPath>
</defs>
</svg>
