<svg width="111" height="43" viewBox="0 0 111 43" fill="none" xmlns="http://www.w3.org/2000/svg">
<g clip-path="url(#clip0_18567_85370)">
<g clip-path="url(#clip1_18567_85370)">
<mask id="mask0_18567_85370" style="mask-type:luminance" maskUnits="userSpaceOnUse" x="4" y="1" width="110" height="41">
<path d="M113.599 1.17775H4.6709V41.8226H113.599V1.17775Z" fill="white"/>
</mask>
<g mask="url(#mask0_18567_85370)">
<path opacity="0.01" d="M113.599 1.17775H4.6709V41.8226H113.599V1.17775Z" fill="white"/>
<path d="M28.9571 37.6963C26.9334 39.3826 24.6609 40.7462 22.2465 41.715C21.8559 41.8586 21.4298 41.8586 21.0748 41.715C18.6604 40.7103 16.388 39.3467 14.3641 37.6963L21.0392 34.8975C21.4298 34.754 21.8559 34.754 22.2465 34.8975L28.9571 37.6963ZM22.2465 23.7024C21.8559 23.5588 21.4298 23.5588 21.0392 23.7024L7.6179 29.3359C8.64759 31.3453 9.92581 33.2111 11.4526 34.8975L20.8618 30.9505C21.3588 30.7352 21.9624 30.7352 22.4595 30.9505L31.8687 34.8975C33.3599 33.2111 34.6735 31.3453 35.7032 29.3359L22.2465 23.7024ZM37.6561 18.9661L22.2465 12.5073C21.8559 12.3638 21.4298 12.3638 21.0392 12.5073L5.62957 18.9661C4.6709 19.3832 4.81292 19.3832 4.81292 19.7913C5.02596 21.8725 5.48754 23.9536 6.16216 25.927L20.8618 19.7554C21.3588 19.5402 21.9624 19.5402 22.4595 19.7554L37.1591 25.927C37.8337 23.9536 38.2952 21.8725 38.5083 19.7913C38.3307 19.3967 38.0467 19.1096 37.6561 18.9661ZM38.3662 8.3451C38.3307 8.27334 38.2952 8.23744 38.2242 8.16568L38.1532 8.09392C38.0112 7.95039 37.8337 7.84276 37.6561 7.77099L22.2465 1.31231C21.8559 1.1329 21.4298 1.1329 21.0392 1.31231L5.62957 7.77099C5.55855 7.80686 5.48754 7.84276 5.41653 7.87864C5.31001 7.95039 5.239 8.02215 5.13248 8.09392C5.09697 8.12981 5.02596 8.20157 4.99045 8.27334C4.95495 8.3451 4.95495 8.30921 4.95495 8.3451C4.77742 8.59626 4.6709 8.9192 4.6709 9.24213V15.3779L20.8618 8.59626C21.3588 8.38097 21.9624 8.38097 22.4595 8.59626L38.6503 15.3779V9.24213C38.6503 8.9192 38.5438 8.59626 38.3662 8.3451Z" fill="white"/>
<path d="M69.3984 20.0058L68.5106 27.2896C68.5106 27.505 68.3332 27.6485 68.1202 27.6126H65.8122C65.5636 27.6126 65.4572 27.505 65.4926 27.2896L66.3803 20.0058C66.4513 19.6468 66.4868 19.2522 66.4868 18.8575C66.4868 18.5345 66.4158 18.2475 66.2383 17.9604C65.9898 17.6734 65.5636 17.4939 64.9245 17.4939C63.9659 17.5299 63.0072 17.6374 62.0841 17.8887L60.9479 27.2538C60.9479 27.4691 60.7703 27.6126 60.5572 27.5766H58.2849C58.0363 27.5766 57.9653 27.4691 57.9653 27.2538L58.853 20.0416C58.924 19.6468 58.9595 19.2522 58.9595 18.8575C58.995 18.5345 58.8885 18.2115 58.7465 17.9604C58.5335 17.6734 58.1073 17.5299 57.4682 17.5299C56.4741 17.5658 55.5153 17.6734 54.5568 17.9245L53.4205 27.2896C53.4205 27.505 53.243 27.6485 53.03 27.6126H50.7576C50.5446 27.6126 50.4026 27.5408 50.438 27.2896L51.6098 17.5299C51.7162 16.7046 52.1423 16.3816 53.456 16.0228C54.9473 15.664 56.4742 15.4487 58.0363 15.4487C59.4566 15.4487 60.3798 15.7716 60.9479 16.2381C62.4391 15.7358 64.0369 15.4845 65.5992 15.4487C66.9484 15.4487 67.9426 15.5922 68.6528 16.0946C69.3628 16.5969 69.5758 17.2428 69.5758 18.391C69.5404 18.8934 69.4694 19.4317 69.3984 20.0058Z" fill="white"/>
<path d="M81.7891 23.8809C81.1499 26.3208 79.7296 27.8996 76.4986 27.8996C75.469 27.8996 74.4038 27.7921 73.4096 27.505L73.4806 28.9043L73.161 31.5236C73.161 31.7749 72.9835 31.9542 72.735 31.9902L70.5336 32.3848C70.2496 32.4207 70.1076 32.313 70.143 32.026L71.8473 17.9964C71.9539 16.8122 72.4153 16.4892 73.4451 16.1664C74.9719 15.7 76.5342 15.4487 78.0965 15.4487C79.7652 15.4487 80.7949 15.8075 81.4695 16.5252C82.1441 17.2428 82.3926 18.2475 82.3926 19.5033C82.3926 20.9745 82.1796 22.4456 81.7891 23.8809ZM78.9486 18.1757C78.6291 17.6374 78.0609 17.5299 77.1732 17.5299C76.3566 17.5658 75.5755 17.6734 74.7943 17.8887L73.9068 25.5314C74.5813 25.7108 75.2915 25.7827 76.0016 25.8185C77.6703 25.8185 78.4515 25.2802 78.9486 23.1274C79.1971 22.0868 79.3392 20.9745 79.3392 19.8981C79.3036 19.0369 79.2326 18.5345 78.9486 18.1757Z" fill="white"/>
<path d="M94.6778 19.8981L94.0032 25.2444C93.8256 26.9309 93.1862 27.2538 91.6596 27.6126C90.6298 27.8279 89.5648 27.9356 88.4999 27.9356C87.257 27.9356 85.8723 27.8637 84.8782 27.2896C84.097 26.859 83.5645 26.1055 83.5645 24.8138C83.5645 23.7373 83.813 22.5891 84.4876 21.7997C85.2687 20.9027 86.4405 20.7233 87.6122 20.5439L91.6956 19.8981L91.766 19.1804C91.802 19.1087 91.802 19.0011 91.802 18.8934V18.6063C91.8372 18.2475 91.6243 17.9245 91.3051 17.8169C90.7722 17.6374 90.2042 17.5658 89.636 17.6016C88.0737 17.6016 86.5115 18.068 85.6948 18.2475C85.6593 18.2834 85.6238 18.2834 85.5883 18.2834H85.5173C85.4107 18.2834 85.3397 18.2116 85.3042 18.068L85.1622 16.6687C85.1266 16.3816 85.3397 16.3099 85.4462 16.2381C87.0796 15.7358 88.7487 15.4845 90.453 15.4487C92.086 15.4487 93.0798 15.664 93.7544 16.0946C94.5713 16.5611 94.8202 17.2788 94.8202 18.1757C94.8202 18.714 94.7489 19.2881 94.6778 19.8981ZM88.6062 22.2663C87.8962 22.3738 87.2926 22.4456 86.9376 23.0557C86.7245 23.4503 86.5825 23.9168 86.618 24.3832C86.5825 24.8496 86.7955 25.3161 87.186 25.5673C87.6477 25.9262 88.2868 25.9262 88.8903 25.9262C89.6009 25.9262 90.3106 25.8185 90.9851 25.6032L91.4468 21.8357L88.6062 22.2663Z" fill="white"/>
<path d="M102.669 29.0127C101.781 31.1298 100.893 32.3497 98.0887 32.3497C97.4142 32.3856 96.7037 32.3139 96.0291 32.2062C95.8164 32.1344 95.6738 32.0986 95.7451 31.8475L95.9227 30.5557C95.9579 30.3403 95.9939 30.161 96.3484 30.161C96.4196 30.161 97.1654 30.2327 97.6623 30.2327C98.8345 30.2327 99.4377 29.9097 99.8642 28.8692L100.325 27.6492H98.8697C98.6568 27.6492 98.5504 27.5417 98.4792 27.2904L96.526 16.2748C96.4908 16.0595 96.6324 15.8442 96.8461 15.7724C96.8813 15.7724 96.9164 15.7724 96.9525 15.7724H99.1889C99.4025 15.7366 99.5802 15.916 99.6154 16.1313L100.858 25.7116H101.426L104.763 16.1672C104.835 15.9518 105.048 15.7724 105.296 15.7724H107.604C107.747 15.7366 107.924 15.8442 107.924 16.0237C107.924 16.0595 107.924 16.0595 107.924 16.0953C107.924 16.1672 107.924 16.203 107.888 16.2748L102.669 29.0127Z" fill="white"/>
</g>
</g>
</g>
<defs>
<clipPath id="clip0_18567_85370">
<rect width="110.12" height="41.9504" fill="white" transform="translate(0.786133 0.524826)"/>
</clipPath>
<clipPath id="clip1_18567_85370">
<rect width="109.233" height="40.6449" fill="white" transform="translate(4.66797 1.17763)"/>
</clipPath>
</defs>
</svg>
