<svg width="70" height="48" viewBox="0 0 70 48" fill="none" xmlns="http://www.w3.org/2000/svg">
<path d="M30.7649 32.5906H26.5859L29.1998 16.4305H33.3785L30.7649 32.5906Z" fill="white"/>
<path d="M45.9146 16.8257C45.0904 16.4987 43.783 16.1377 42.1664 16.1377C38.0396 16.1377 35.1335 18.3381 35.1157 21.484C35.0814 23.8051 37.1963 25.0942 38.7782 25.8681C40.395 26.659 40.9445 27.1751 40.9445 27.88C40.9281 28.9626 39.6381 29.4617 38.4349 29.4617C36.7665 29.4617 35.8725 29.2044 34.514 28.6021L33.9637 28.3439L33.3789 31.9715C34.359 32.4179 36.1648 32.8141 38.0396 32.8315C42.4244 32.8315 45.2791 30.6651 45.313 27.3127C45.3296 25.4731 44.2128 24.0635 41.8052 22.9116C40.3435 22.1722 39.4484 21.6737 39.4484 20.9171C39.4656 20.2293 40.2055 19.5249 41.8554 19.5249C43.214 19.4904 44.2122 19.8169 44.9683 20.1437L45.3463 20.3153L45.9146 16.8257Z" fill="white"/>
<path d="M51.4694 26.8656C51.8136 25.9373 53.1379 22.3442 53.1379 22.3442C53.1205 22.3787 53.4813 21.3987 53.6877 20.797L53.9797 22.1895C53.9797 22.1895 54.7711 26.0577 54.943 26.8656C54.2899 26.8656 52.2949 26.8656 51.4694 26.8656ZM56.6278 16.4305H53.3954C52.3986 16.4305 51.6413 16.7225 51.2112 17.7713L45.0039 32.5903H49.3888C49.3888 32.5903 50.1107 30.5958 50.2658 30.1662C50.7469 30.1662 55.0124 30.1662 55.6313 30.1662C55.7512 30.7336 56.1299 32.5903 56.1299 32.5903H59.9992L56.6278 16.4305Z" fill="white"/>
<path d="M23.0968 16.4305L19.0042 27.4501L18.557 25.2152C17.8004 22.6364 15.4274 19.8346 12.7793 18.4415L16.528 32.5734H20.9471L27.5157 16.4305H23.0968Z" fill="white"/>
<path d="M15.2044 16.4305H8.48089L8.41211 16.7571C13.6569 18.0983 17.1304 21.3311 18.5575 25.2169L17.0959 17.7891C16.8553 16.7568 16.1158 16.4646 15.2044 16.4305Z" fill="white"/>
</svg>
