<svg width="52" height="36" viewBox="0 0 52 36" fill="none" xmlns="http://www.w3.org/2000/svg">
<rect x="0.5" y="0.5" width="51" height="35" rx="3.5" fill="white"/>
<rect x="0.5" y="0.5" width="51" height="35" rx="3.5" stroke="#EAEAEA"/>
<path fill-rule="evenodd" clip-rule="evenodd" d="M10.09 32.7205H9.99004C9.99004 32.7205 9.97004 32.6005 9.97004 32.5705C9.97004 32.5405 9.97004 32.5005 9.90004 32.5005H9.75004V32.7205H9.68004V32.2005H9.90004C10 32.2005 10.07 32.2305 10.07 32.3205C10.07 32.3905 10.05 32.4205 10.02 32.4405C10.04 32.4705 10.07 32.4905 10.07 32.5405V32.6405C10.07 32.6405 10.07 32.6705 10.09 32.6705V32.7205ZM9.99004 32.3505C9.99004 32.2805 9.94004 32.2805 9.92004 32.2805H9.75004V32.4305H9.90004C9.90004 32.4305 10 32.4005 10 32.3605L9.99004 32.3505ZM10.41 32.4505C10.41 32.1505 10.16 31.9005 9.84004 31.9005C9.54004 31.9005 9.29004 32.1505 9.29004 32.4505C9.29004 32.7705 9.54004 33.0205 9.84004 33.0205C10.16 33.0205 10.41 32.7705 10.41 32.4505ZM10.34 32.4505C10.34 32.7205 10.12 32.9205 9.84004 32.9205C9.56004 32.9205 9.37004 32.7205 9.37004 32.4505C9.37004 32.2005 9.57004 31.9805 9.84004 31.9805C10.11 31.9805 10.34 32.2005 10.34 32.4505ZM41.1 22.3605C41.1 23.1105 40.63 23.4605 39.78 23.4605H38.16V22.7105H39.78C39.93 22.7105 40.05 22.6905 40.1 22.6405C40.15 22.5905 40.2 22.5105 40.2 22.4205C40.2 22.3305 40.15 22.2205 40.1 22.1705C40.05 22.1205 39.95 22.1005 39.8 22.1005C39.03 22.0705 38.05 22.1205 38.05 21.0305C38.05 20.5305 38.37 19.9805 39.25 19.9805H40.92V20.7305H39.37C39.22 20.7305 39.12 20.7305 39.05 20.7805C38.98 20.8505 38.93 20.9305 38.93 21.0505C38.93 21.1705 39 21.2505 39.1 21.3005C39.2 21.3205 39.3 21.3505 39.42 21.3505H39.87C40.34 21.3505 40.64 21.4505 40.84 21.6205C40.99 21.7905 41.09 22.0205 41.09 22.3705L41.1 22.3605ZM37.58 21.6105C37.38 21.4305 37.08 21.3405 36.61 21.3405H36.16C36.04 21.3405 35.94 21.3105 35.84 21.2905C35.74 21.2405 35.67 21.1605 35.67 21.0405C35.67 20.9205 35.69 20.8405 35.79 20.7705C35.86 20.7205 35.96 20.7205 36.11 20.7205H37.66V19.9705H35.99C35.09 19.9705 34.79 20.5205 34.79 21.0205C34.79 22.1205 35.76 22.0705 36.54 22.0905C36.69 22.0905 36.79 22.1105 36.84 22.1605C36.89 22.2105 36.94 22.3105 36.94 22.4105C36.94 22.5105 36.89 22.5805 36.84 22.6305C36.77 22.6805 36.67 22.7005 36.52 22.7005H34.9V23.4505H36.52C37.37 23.4505 37.84 23.1005 37.84 22.3505C37.84 22.0005 37.74 21.7805 37.59 21.6005L37.58 21.6105ZM34.38 22.7305H32.41V22.0305H34.33V21.3305H32.41V20.6805H34.38V19.9605H31.58V23.4605H34.38V22.7405V22.7305ZM30.68 20.1305C30.41 19.9805 30.08 19.9505 29.66 19.9505H27.74V23.4505H28.59V22.1805H29.49C29.79 22.1805 29.96 22.2105 30.09 22.3305C30.24 22.5005 30.24 22.8005 30.24 23.0305V23.4505H31.06V22.7805C31.06 22.4605 31.04 22.3105 30.94 22.1305C30.87 22.0305 30.72 21.9105 30.52 21.8305C30.74 21.7605 31.12 21.4605 31.12 20.9105C31.12 20.5105 30.97 20.2905 30.7 20.1405L30.68 20.1305ZM25.94 19.9505H23.27L22.2 21.1005L21.18 19.9505H17.81V23.4505H21.13L22.2 22.3005L23.22 23.4505H24.84V22.2805H25.89C26.61 22.2805 27.34 22.0805 27.34 21.1105C27.34 20.1605 26.59 19.9605 25.94 19.9605V19.9505ZM30.01 21.4005C29.89 21.4505 29.76 21.4505 29.61 21.4505L28.59 21.4805V20.6805H29.61C29.76 20.6805 29.91 20.6805 30.01 20.7505C30.11 20.8005 30.18 20.9005 30.18 21.0505C30.18 21.2005 30.11 21.3205 30.01 21.4005ZM25.94 21.5705H24.84V20.6705H25.94C26.24 20.6705 26.44 20.8005 26.44 21.0905C26.44 21.3805 26.24 21.5605 25.94 21.5605V21.5705ZM22.72 21.6905L24.02 20.3205V23.1405L22.72 21.6905ZM20.7 22.7105H18.63V22.0105H20.48V21.3105H18.63V20.6605H20.73L21.65 21.6805L20.7 22.7005V22.7105ZM38.78 17.4205H37.58L36.01 14.8005V17.4205H34.31L33.99 16.6505H32.24L31.92 17.4205H30.95C30.55 17.4205 30.03 17.3205 29.73 17.0205C29.46 16.7205 29.31 16.3205 29.31 15.7005C29.31 15.1805 29.38 14.7005 29.76 14.3305C30.01 14.0605 30.46 13.9305 31.03 13.9305H31.83V14.6805H31.03C30.73 14.6805 30.56 14.7305 30.38 14.8805C30.23 15.0305 30.16 15.3005 30.16 15.6805C30.16 16.0605 30.23 16.3305 30.38 16.5005C30.5 16.6205 30.73 16.6705 30.95 16.6705H31.32L32.52 13.9205H33.77L35.17 17.2205V13.9205H36.47L37.94 16.3405V13.9205H38.79V17.4205H38.78ZM28.87 13.9205H28.02V17.4205H28.87V13.9205ZM27.1 14.0705C26.83 13.9205 26.53 13.9205 26.1 13.9205H24.18V17.4205H25V16.1505H25.9C26.2 16.1505 26.4 16.1705 26.52 16.3005C26.67 16.4705 26.64 16.7705 26.64 16.9705V17.4205H27.49V16.7205C27.49 16.4205 27.47 16.2705 27.34 16.1005C27.27 16.0005 27.12 15.8805 26.94 15.8005C27.16 15.7005 27.54 15.4305 27.54 14.8805C27.54 14.4805 27.37 14.2605 27.09 14.0805L27.1 14.0705ZM23.58 16.6905H21.63V15.9905H23.55V15.2705H21.63V14.6505H23.58V13.9305H20.78V17.4305H23.58V16.7105V16.6905ZM20.16 13.9205H18.79L17.77 16.2905L16.67 13.9205H15.32V17.2205L13.9 13.9205H12.65L11.15 17.4205H12.05L12.37 16.6505H14.12L14.44 17.4205H16.14V14.6705L17.36 17.4205H18.08L19.3 14.6705V17.4205H20.15V13.9205H20.16ZM33.69 15.8905L33.12 14.5205L32.55 15.8905H33.7H33.69ZM26.45 15.3405C26.33 15.4105 26.2 15.4105 26.03 15.4105H25.01V14.6405H26.03C26.18 14.6405 26.35 14.6405 26.45 14.6905C26.55 14.7605 26.6 14.8605 26.6 15.0105C26.6 15.1605 26.55 15.2805 26.45 15.3305V15.3405ZM12.67 15.8905L13.24 14.5205L13.81 15.8905H12.66H12.67ZM40.9 2.98047H11.11V15.5705L12.13 13.2505H14.3L14.6 13.8205V13.2505H17.15L17.72 14.5005L18.27 13.2505H26.39C26.76 13.2505 27.09 13.3205 27.34 13.5205V13.2505H29.56V13.5205C29.93 13.3205 30.41 13.2505 30.96 13.2505H34.18L34.48 13.8205V13.2505H36.85L37.2 13.8205V13.2505H39.52V18.1405H37.17L36.72 17.3905V18.1405H33.8L33.48 17.3405H32.76L32.44 18.1405H30.92C30.32 18.1405 29.87 17.9905 29.57 17.8405V18.1405H25.95V17.0205C25.95 16.8705 25.93 16.8505 25.83 16.8505H25.71V18.1505H18.72V17.5305L18.47 18.1505H17L16.75 17.5505V18.1505H13.93L13.63 17.3505H12.91L12.59 18.1505H11.14V32.9105H40.93V23.9505C40.61 24.1005 40.16 24.1705 39.71 24.1705H37.54V23.8705C37.29 24.0705 36.84 24.1705 36.42 24.1705H29.58V23.0505C29.58 22.9005 29.56 22.9005 29.43 22.9005H29.31V24.1705H27.06V22.8505C26.69 23.0205 26.26 23.0205 25.89 23.0205H25.64V24.1705H22.89L22.24 23.4205L21.52 24.1705H17.1V19.2805H21.59L22.24 20.0305L22.94 19.2805H25.96C26.31 19.2805 26.88 19.3305 27.13 19.5805V19.2805H29.83C30.1 19.2805 30.63 19.3305 30.98 19.5805V19.2805H35.05V19.5805C35.27 19.3805 35.7 19.2805 36.07 19.2805H38.34V19.5805C38.59 19.4105 38.94 19.2805 39.39 19.2805H40.94V2.98047H40.9Z" fill="#0077A0"/>
</svg>
