<svg width="52" height="36" viewBox="0 0 52 36" fill="none" xmlns="http://www.w3.org/2000/svg">
<rect x="0.5" y="0.5" width="51" height="35" rx="3.5" fill="white"/>
<rect x="0.5" y="0.5" width="51" height="35" rx="3.5" stroke="#EAEAEA"/>
<path fill-rule="evenodd" clip-rule="evenodd" d="M2.3501 14.1391V23.0491H4.8701V17.1391C4.9601 17.1991 6.2401 19.7291 6.4001 20.0491C6.4801 20.2091 6.5601 20.3291 6.6301 20.4791C6.8701 20.9691 7.6301 22.5291 8.0601 22.8591C8.1801 22.9491 8.3001 23.0591 8.4301 23.1191C9.4501 23.5591 10.3601 22.7591 10.3601 21.7991V12.9491H7.8401V18.2791C7.7601 18.2191 6.9301 16.5391 6.7801 16.2391C6.4301 15.5391 6.1001 14.8691 5.7501 14.1691C5.3001 13.2591 5.0301 12.8891 4.0401 12.7791C3.1601 12.6791 2.3501 13.2391 2.3501 14.1491V14.1391ZM21.8501 19.5791C21.8501 18.3291 22.9801 17.7791 23.8001 18.1791C25.1801 18.8491 24.7401 21.0291 23.2401 21.0291C22.4601 21.0291 21.8501 20.3591 21.8501 19.5791ZM19.6201 19.3391C19.6201 20.0391 19.6601 20.4991 19.9701 21.1191C20.2501 21.6791 20.6601 22.1891 21.1701 22.5491C23.8001 24.3991 26.8701 22.1891 26.8701 19.6591C26.8701 18.9091 26.8001 18.5991 26.5201 17.9891C26.4201 17.7591 26.1701 17.3591 26.0001 17.1691C25.9201 17.0791 25.8801 17.0191 25.7901 16.9291C25.2101 16.3491 24.3501 15.8491 23.2201 15.8491C22.6301 15.8491 22.2101 15.9991 21.7901 16.1791C21.2401 16.4091 20.6901 16.9091 20.3301 17.3791L20.0801 17.7791C19.8401 18.1991 19.6301 18.7591 19.6301 19.3491L19.6201 19.3391ZM11.5301 19.5191C11.5301 20.0791 11.6701 20.6191 11.8501 21.0191C12.0401 21.4491 12.1901 21.6391 12.4701 21.9691C13.7701 23.5091 16.0701 23.6291 17.6601 22.3391C17.8201 22.2091 17.9501 22.0991 18.0901 21.9591C18.1701 21.8791 18.1901 21.8291 18.2701 21.7491C18.3301 21.6891 18.4101 21.5891 18.4601 21.5191C18.6101 21.3091 19.0301 20.6891 19.0401 20.4391C18.8501 20.3891 17.5501 19.6591 17.3801 19.6291C17.2401 19.8991 17.1201 20.1591 16.8901 20.3991C16.1401 21.1791 15.2301 21.5391 14.3301 20.7891C14.1501 20.6391 13.9301 20.2291 13.8601 19.9991C13.7501 19.6591 13.7501 19.2791 13.8301 18.9091C13.9101 18.5691 14.0501 18.2891 14.2501 18.0691C14.6501 17.6191 15.2501 17.5291 15.7801 17.6991C15.9301 17.7491 16.0601 17.7791 16.0901 17.8891C16.0001 17.9091 15.7201 18.1191 15.6201 18.1791C15.4701 18.2691 15.3201 18.3791 15.1601 18.4791C14.8401 18.6891 14.5401 18.8891 14.2201 19.0891C14.3701 19.3191 14.5001 19.5491 14.6601 19.7791C14.7401 19.8991 14.8001 19.9991 14.8801 20.1191C14.9301 20.1891 15.0801 20.4091 15.1001 20.4791C15.2101 20.4491 16.7001 19.3991 16.8401 19.2991C16.9801 19.1991 18.4801 18.1391 18.6001 18.1091C18.6001 17.9791 18.4401 17.7691 18.3701 17.6591C17.6101 16.5191 16.6501 15.8291 15.1101 15.8291C13.2301 15.8291 11.5401 17.5591 11.5401 19.5091L11.5301 19.5191ZM33.4701 19.9091C33.4701 20.8791 33.7401 21.7691 34.2101 22.2691C34.2801 22.3391 34.3101 22.4091 34.3801 22.4591C34.4601 22.5291 34.5201 22.5691 34.6001 22.6391C34.7601 22.7591 34.9001 22.8491 35.0901 22.9391C35.9101 23.3391 37.0801 23.2991 37.9201 22.9391C38.2601 22.7891 38.5501 22.5291 38.8001 22.2691C38.8901 22.1691 39.0501 21.9491 39.1101 21.8191C39.4201 21.2391 39.5401 20.6391 39.5401 19.9091V16.0191H37.3101V19.9091C37.3101 21.2891 36.1701 21.1691 35.8701 20.6591C35.7301 20.4291 35.7101 20.1991 35.7101 19.8491V16.0091H33.4801V19.8991L33.4701 19.9091ZM45.5301 15.4391V23.0291H47.8701V18.0591H49.6601V16.0091C49.6601 15.9491 49.6401 15.9291 49.5801 15.9291H47.8701C47.8701 14.9091 48.3101 15.0391 49.0801 15.0391C49.3301 15.0391 49.6601 15.0891 49.6601 14.9591V12.9091C48.8201 12.9091 47.8501 12.8291 47.1301 13.1191C46.9401 13.1991 46.8501 13.2391 46.6901 13.3391L46.3101 13.6191C45.8701 14.0391 45.5301 14.5991 45.5301 15.4391ZM27.6401 17.9591C27.6401 18.8691 27.9401 19.3491 28.5301 19.7691C28.6401 19.8491 28.8001 19.9391 28.9401 19.9991L29.8301 20.3891C30.1401 20.5191 30.1901 20.5991 30.1901 20.7991C30.1901 21.1591 29.4601 21.0591 28.9801 21.0591H27.8801C27.7501 21.0591 27.5601 21.0191 27.5601 21.1391V23.0291H30.4001C31.0101 23.0291 31.6401 22.7591 31.9601 22.4591C32.6901 21.7491 32.7901 20.3991 32.2501 19.7891L32.1101 19.6191C31.2901 18.8791 29.8801 18.5491 29.8801 18.2491C29.8801 18.0591 30.0801 17.9091 30.2701 17.9091H32.1601V16.0191H29.7401C29.0001 16.0191 28.1601 16.4691 27.8301 17.1291C27.7201 17.3491 27.6401 17.6391 27.6401 17.9591ZM40.6501 23.0291H42.9601V20.2391C42.9601 19.9091 42.9901 19.6491 42.9901 19.3491C42.9901 19.0491 43.0401 18.7891 43.1601 18.5991C43.4601 18.1591 44.2001 18.1391 44.7201 18.1391V16.0091C42.7401 16.0091 42.9001 16.9991 42.6701 17.1691V16.0091H40.6501V23.0291Z" fill="#FA0082"/>
</svg>
