<svg width="52" height="36" viewBox="0 0 52 36" fill="none" xmlns="http://www.w3.org/2000/svg">
<g clip-path="url(#clip0_2280_3861)">
<rect width="52" height="36" rx="4" fill="white"/>
<path d="M48 0H4C1.79086 0 0 1.79086 0 4V32C0 34.2091 1.79086 36 4 36H48C50.2091 36 52 34.2091 52 32V4C52 1.79086 50.2091 0 48 0Z" fill="white"/>
<path d="M48 0H4C1.79086 0 0 1.79086 0 4V32C0 34.2091 1.79086 36 4 36H48C50.2091 36 52 34.2091 52 32V4C52 1.79086 50.2091 0 48 0Z" fill="#D3D3D3"/>
<path d="M47.3198 0.550781H4.6798C2.53694 0.550781 0.799805 2.28792 0.799805 4.43078V31.5608C0.799805 33.7036 2.53694 35.4408 4.6798 35.4408H47.3198C49.4627 35.4408 51.1998 33.7036 51.1998 31.5608V4.43078C51.1998 2.28792 49.4627 0.550781 47.3198 0.550781Z" fill="white"/>
<mask id="mask0_2280_3861" style="mask-type:luminance" maskUnits="userSpaceOnUse" x="3" y="10" width="46" height="16">
<path d="M48.3901 10.9609H3.6001V25.0509H48.3901V10.9609Z" fill="white"/>
</mask>
<g mask="url(#mask0_2280_3861)">
<path d="M48.3901 10.9609H3.6001V25.0509H48.3901V10.9609Z" fill="#101820"/>
<path d="M17.2202 13.502H12.2402V22.462H17.2202V13.502Z" fill="#EA5B0C"/>
<path d="M12.5703 17.9812C12.5703 16.1612 13.4203 14.5413 14.7503 13.5013C13.7803 12.7413 12.5603 12.2812 11.2303 12.2812C8.08027 12.2812 5.53027 14.8312 5.53027 17.9812C5.53027 21.1313 8.08027 23.6813 11.2303 23.6813C12.5603 23.6813 13.7803 23.2212 14.7503 22.4612C13.4203 21.4212 12.5703 19.8012 12.5703 17.9812Z" fill="#DF1612"/>
<path d="M23.4203 21.511V21.331H23.4903V21.291H23.3003V21.331H23.3703V21.511H23.4103H23.4203ZM23.7903 21.511V21.291H23.7303L23.6603 21.441L23.5903 21.291H23.5303V21.511H23.5703V21.341L23.6303 21.481H23.6703L23.7303 21.341V21.511H23.7703H23.7903Z" fill="#F59E00"/>
<path d="M18.2705 12.2812C16.9405 12.2812 15.7205 12.7413 14.7505 13.5013C16.0805 14.5413 16.9305 16.1612 16.9305 17.9812C16.9305 19.8012 16.0805 21.4212 14.7505 22.4612C15.7205 23.2212 16.9405 23.6813 18.2705 23.6813C21.4205 23.6813 23.9705 21.1313 23.9705 17.9812C23.9705 14.8312 21.4205 12.2812 18.2705 12.2812Z" fill="#F59E00"/>
<path d="M35.4903 15.0904C35.5503 15.1704 35.6003 15.2604 35.6303 15.3504C35.6603 15.4504 35.6803 15.5504 35.6803 15.6504C35.6803 15.7504 35.6603 15.8604 35.6303 15.9504C35.6003 16.0404 35.5503 16.1304 35.4903 16.2104C35.4103 16.3204 35.4303 16.4704 35.5403 16.5504C35.6503 16.6304 35.8003 16.6104 35.8803 16.5004C35.9703 16.3804 36.0403 16.2504 36.0903 16.1004C36.1403 15.9604 36.1703 15.8004 36.1703 15.6404C36.1703 15.4804 36.1403 15.3304 36.1003 15.1804C36.0503 15.0404 35.9803 14.9004 35.8903 14.7804C35.8103 14.6704 35.6603 14.6504 35.5503 14.7304C35.4403 14.8104 35.4203 14.9604 35.5003 15.0704M36.3303 14.6204C36.5103 14.9204 36.6203 15.2604 36.6203 15.6404C36.6203 16.0204 36.5203 16.3604 36.3303 16.6604C36.2603 16.7704 36.2903 16.9204 36.4103 16.9904C36.5203 17.0604 36.6703 17.0204 36.7403 16.9104C36.9703 16.5404 37.1003 16.1004 37.1003 15.6404C37.1003 15.1804 36.9703 14.7404 36.7403 14.3704C36.6703 14.2604 36.5203 14.2204 36.4103 14.2904C36.3003 14.3604 36.2603 14.5104 36.3303 14.6204ZM37.2103 14.1604C37.4603 14.5904 37.6103 15.1004 37.6103 15.6404C37.6103 16.1804 37.4703 16.6804 37.2103 17.1204C37.1403 17.2404 37.1803 17.3804 37.3003 17.4504C37.4203 17.5204 37.5603 17.4804 37.6303 17.3604C37.9203 16.8504 38.0903 16.2604 38.0903 15.6404C38.0903 15.0204 37.9203 14.4204 37.6303 13.9204C37.5603 13.8004 37.4103 13.7704 37.3003 13.8304C37.1803 13.9004 37.1503 14.0504 37.2103 14.1604ZM38.0903 13.7004C38.4203 14.2704 38.6003 14.9304 38.6003 15.6404C38.6003 16.3504 38.4103 17.0104 38.0903 17.5804C38.0203 17.7004 38.0603 17.8404 38.1803 17.9104C38.3003 17.9804 38.4403 17.9404 38.5103 17.8204C38.8803 17.1804 39.0903 16.4304 39.0903 15.6404C39.0903 14.8504 38.8803 14.1004 38.5103 13.4604C38.4403 13.3404 38.3003 13.3004 38.1803 13.3704C38.0603 13.4404 38.0203 13.5804 38.0903 13.7004ZM32.2803 19.1104C32.3403 19.1104 32.4003 19.1104 32.4603 19.1304C32.5203 19.1404 32.5703 19.1604 32.6203 19.1904C32.6703 19.2204 32.7103 19.2504 32.7503 19.2804C32.7903 19.3204 32.8203 19.3604 32.8503 19.4004L32.6603 19.5204C32.6203 19.4604 32.5603 19.4104 32.5003 19.3704C32.4303 19.3304 32.3603 19.3204 32.2803 19.3204C32.2103 19.3204 32.1403 19.3304 32.0803 19.3604C32.0203 19.3804 31.9703 19.4204 31.9203 19.4604C31.8803 19.5004 31.8403 19.5604 31.8203 19.6204C31.8003 19.6804 31.7803 19.7504 31.7803 19.8304C31.7803 19.9104 31.7903 19.9704 31.8203 20.0404C31.8503 20.1104 31.8803 20.1604 31.9203 20.2004C31.9603 20.2404 32.0203 20.2804 32.0803 20.3004C32.1403 20.3204 32.2103 20.3404 32.2803 20.3404C32.3603 20.3404 32.4403 20.3204 32.5003 20.2904C32.5703 20.2504 32.6203 20.2104 32.6603 20.1404L32.8403 20.2704C32.8403 20.2704 32.7803 20.3504 32.7403 20.3904C32.7003 20.4204 32.6603 20.4504 32.6103 20.4804C32.5603 20.5004 32.5103 20.5204 32.4503 20.5404C32.3903 20.5504 32.3403 20.5604 32.2703 20.5604C32.1603 20.5604 32.0703 20.5404 31.9803 20.5104C31.8903 20.4704 31.8103 20.4204 31.7503 20.3604C31.6903 20.3004 31.6403 20.2204 31.6003 20.1304C31.5603 20.0404 31.5503 19.9504 31.5503 19.8404C31.5503 19.7304 31.5703 19.6404 31.6003 19.5504C31.6403 19.4604 31.6903 19.3904 31.7503 19.3204C31.8103 19.2604 31.8903 19.2104 31.9803 19.1704C32.0703 19.1304 32.1703 19.1204 32.2703 19.1204L32.2803 19.1104ZM33.5503 19.5504C33.6203 19.5504 33.6903 19.5604 33.7503 19.5904C33.8103 19.6204 33.8703 19.6504 33.9103 19.7004C33.9603 19.7404 33.9903 19.8004 34.0203 19.8604C34.0503 19.9204 34.0603 19.9904 34.0603 20.0604C34.0603 20.1304 34.0503 20.2004 34.0203 20.2604C33.9903 20.3204 33.9603 20.3704 33.9103 20.4204C33.8603 20.4604 33.8103 20.5004 33.7503 20.5304C33.6903 20.5604 33.6203 20.5704 33.5503 20.5704C33.4803 20.5704 33.4103 20.5604 33.3503 20.5304C33.2903 20.5004 33.2303 20.4704 33.1903 20.4204C33.1403 20.3804 33.1103 20.3204 33.0803 20.2604C33.0503 20.2004 33.0403 20.1304 33.0403 20.0604C33.0403 19.9904 33.0503 19.9204 33.0803 19.8604C33.1103 19.8004 33.1403 19.7504 33.1903 19.7004C33.2403 19.6604 33.2903 19.6204 33.3503 19.5904C33.4103 19.5604 33.4803 19.5504 33.5503 19.5504ZM33.5503 19.7504C33.5503 19.7504 33.4703 19.7504 33.4303 19.7704C33.3903 19.7804 33.3603 19.8104 33.3403 19.8304C33.3103 19.8604 33.2903 19.8904 33.2803 19.9304C33.2603 19.9704 33.2603 20.0104 33.2603 20.0504C33.2603 20.0904 33.2603 20.1404 33.2803 20.1704C33.3003 20.2104 33.3203 20.2404 33.3403 20.2704C33.3703 20.3004 33.4003 20.3204 33.4303 20.3304C33.4703 20.3404 33.5103 20.3504 33.5503 20.3504C33.5903 20.3504 33.6303 20.3504 33.6703 20.3304C33.7103 20.3204 33.7403 20.2904 33.7603 20.2704C33.7903 20.2404 33.8103 20.2104 33.8203 20.1704C33.8403 20.1304 33.8403 20.0904 33.8403 20.0504C33.8403 20.0104 33.8403 19.9604 33.8203 19.9304C33.8003 19.9004 33.7803 19.8604 33.7603 19.8304C33.7303 19.8004 33.7003 19.7804 33.6703 19.7704C33.6303 19.7604 33.5903 19.7504 33.5503 19.7504ZM34.8203 19.5504C34.8803 19.5504 34.9303 19.5504 34.9803 19.5804C35.0303 19.6004 35.0703 19.6204 35.1003 19.6604C35.1303 19.6904 35.1603 19.7304 35.1803 19.7804C35.2003 19.8304 35.2103 19.8804 35.2103 19.9304V20.5304H35.0003V20.0004C35.0003 19.9204 34.9803 19.8604 34.9403 19.8204C34.9003 19.7804 34.8503 19.7604 34.7803 19.7604C34.7503 19.7604 34.7103 19.7604 34.6803 19.7804C34.6503 19.7904 34.6203 19.8104 34.6003 19.8304C34.5803 19.8504 34.5603 19.8804 34.5503 19.9104C34.5403 19.9404 34.5303 19.9804 34.5303 20.0204V20.5504H34.3203V19.6004H34.5303V19.7204C34.5303 19.7204 34.5703 19.6704 34.5903 19.6504C34.6103 19.6304 34.6403 19.6204 34.6603 19.6104C34.6903 19.6004 34.7103 19.5904 34.7403 19.5904C34.7703 19.5904 34.7903 19.5904 34.8203 19.5904V19.5504ZM36.1603 19.7604H35.8003V20.1704C35.8003 20.1704 35.8003 20.2304 35.8103 20.2504C35.8103 20.2704 35.8303 20.2904 35.8403 20.3104C35.8503 20.3204 35.8703 20.3304 35.8903 20.3404C35.9103 20.3404 35.9303 20.3404 35.9503 20.3404C35.9803 20.3404 36.0203 20.3404 36.0503 20.3204C36.0803 20.3104 36.1103 20.2904 36.1403 20.2704L36.2203 20.4404C36.2203 20.4404 36.1403 20.4904 36.0903 20.5104C36.0403 20.5304 35.9903 20.5404 35.9303 20.5404C35.8203 20.5404 35.7403 20.5104 35.6803 20.4504C35.6203 20.3904 35.5903 20.3004 35.5903 20.1704V19.7504H35.4003V19.5604H35.5903V19.2704H35.8003V19.5604H36.1603V19.7504V19.7604ZM37.3303 20.5204H37.1203V20.4104C37.1203 20.4104 37.0503 20.4904 37.0003 20.5104C36.9503 20.5404 36.8903 20.5504 36.8203 20.5504C36.7503 20.5504 36.6903 20.5404 36.6303 20.5104C36.5703 20.4904 36.5203 20.4504 36.4803 20.4104C36.4403 20.3704 36.4003 20.3104 36.3803 20.2504C36.3603 20.1904 36.3403 20.1204 36.3403 20.0504C36.3403 19.9804 36.3503 19.9104 36.3803 19.8504C36.4003 19.7904 36.4403 19.7404 36.4803 19.6904C36.5203 19.6504 36.5703 19.6104 36.6303 19.5904C36.6903 19.5704 36.7503 19.5504 36.8203 19.5504C36.8903 19.5504 36.9503 19.5604 37.0003 19.5904C37.0503 19.6204 37.0903 19.6504 37.1203 19.6904V19.5704H37.3303V20.5204ZM36.8503 19.7404C36.8503 19.7404 36.7603 19.7404 36.7303 19.7604C36.6903 19.7804 36.6603 19.8004 36.6403 19.8304C36.6203 19.8604 36.6003 19.8904 36.5803 19.9304C36.5703 19.9704 36.5603 20.0104 36.5603 20.0504C36.5603 20.0904 36.5603 20.1304 36.5803 20.1704C36.5903 20.2104 36.6103 20.2404 36.6403 20.2704C36.6603 20.3004 36.6903 20.3204 36.7303 20.3404C36.7703 20.3604 36.8103 20.3604 36.8503 20.3604C36.8903 20.3604 36.9303 20.3604 36.9703 20.3404C37.0103 20.3204 37.0403 20.3004 37.0603 20.2804C37.0903 20.2504 37.1003 20.2204 37.1203 20.1804C37.1303 20.1404 37.1403 20.1004 37.1403 20.0604C37.1403 20.0204 37.1403 19.9804 37.1203 19.9404C37.1103 19.9004 37.0903 19.8704 37.0603 19.8404C37.0303 19.8104 37.0003 19.7904 36.9703 19.7804C36.9303 19.7604 36.9003 19.7604 36.8503 19.7604V19.7404ZM38.0903 19.5404C38.1603 19.5404 38.2303 19.5504 38.2903 19.5804C38.3503 19.6104 38.4003 19.6404 38.4503 19.6904L38.3203 19.8304C38.3203 19.8304 38.2503 19.7704 38.2103 19.7604C38.1703 19.7404 38.1303 19.7304 38.0903 19.7304C38.0503 19.7304 38.0103 19.7304 37.9803 19.7504C37.9503 19.7604 37.9203 19.7904 37.8903 19.8104C37.8603 19.8404 37.8503 19.8704 37.8303 19.9104C37.8203 19.9504 37.8103 19.9904 37.8103 20.0304C37.8103 20.0704 37.8103 20.1204 37.8303 20.1504C37.8403 20.1904 37.8603 20.2204 37.8903 20.2504C37.9203 20.2804 37.9403 20.3004 37.9803 20.3104C38.0103 20.3204 38.0503 20.3304 38.0903 20.3304C38.1403 20.3304 38.1803 20.3304 38.2203 20.3004C38.2603 20.2804 38.2903 20.2604 38.3303 20.2304L38.4603 20.3704C38.4203 20.4204 38.3603 20.4604 38.3003 20.4804C38.2403 20.5104 38.1703 20.5204 38.1003 20.5204C38.0203 20.5204 37.9603 20.5104 37.8903 20.4804C37.8303 20.4504 37.7803 20.4204 37.7303 20.3704C37.6903 20.3304 37.6503 20.2704 37.6303 20.2104C37.6103 20.1504 37.5903 20.0804 37.5903 20.0104C37.5903 19.9404 37.6003 19.8704 37.6303 19.8104C37.6603 19.7504 37.6903 19.7004 37.7303 19.6504C37.7703 19.6104 37.8303 19.5704 37.8903 19.5404C37.9503 19.5104 38.0203 19.5004 38.1003 19.5004L38.0903 19.5404ZM39.3403 19.7504H38.9803V20.1604C38.9803 20.1604 38.9803 20.2204 38.9903 20.2404C38.9903 20.2604 39.0103 20.2804 39.0203 20.3004C39.0303 20.3104 39.0503 20.3204 39.0703 20.3304C39.0903 20.3304 39.1103 20.3304 39.1303 20.3304C39.1603 20.3304 39.2003 20.3304 39.2303 20.3104C39.2603 20.3004 39.2903 20.2804 39.3203 20.2604L39.4003 20.4304C39.4003 20.4304 39.3203 20.4804 39.2703 20.5004C39.2203 20.5204 39.1703 20.5304 39.1103 20.5304C39.0003 20.5304 38.9203 20.5004 38.8603 20.4404C38.8003 20.3804 38.7703 20.2904 38.7703 20.1604V19.7404H38.5803V19.5504H38.7703V19.2604H38.9803V19.5504H39.3403V19.7404V19.7504ZM39.8003 20.5104H39.5903V19.0804H39.8003V20.5104ZM40.5303 19.5304C40.6003 19.5304 40.6603 19.5404 40.7103 19.5704C40.7703 19.5904 40.8103 19.6304 40.8503 19.6704C40.8903 19.7104 40.9203 19.7704 40.9403 19.8304C40.9603 19.8904 40.9703 19.9604 40.9703 20.0304C40.9703 20.0404 40.9703 20.0604 40.9703 20.0704C40.9703 20.0804 40.9703 20.1004 40.9703 20.1104H40.2703C40.2703 20.1104 40.2903 20.1904 40.3103 20.2204C40.3303 20.2504 40.3503 20.2804 40.3703 20.2904C40.4003 20.3104 40.4203 20.3204 40.4503 20.3304C40.4803 20.3304 40.5103 20.3404 40.5503 20.3404C40.6003 20.3404 40.6503 20.3404 40.6903 20.3104C40.7403 20.2904 40.7803 20.2704 40.8203 20.2404L40.9203 20.3904C40.8603 20.4404 40.8003 20.4704 40.7303 20.4904C40.6603 20.5104 40.6003 20.5204 40.5203 20.5204C40.4403 20.5204 40.3803 20.5104 40.3203 20.4804C40.2603 20.4604 40.2103 20.4204 40.1703 20.3804C40.1303 20.3404 40.0903 20.2804 40.0703 20.2204C40.0503 20.1604 40.0303 20.0904 40.0303 20.0104C40.0303 19.9304 40.0403 19.8704 40.0603 19.8104C40.0803 19.7504 40.1203 19.7004 40.1603 19.6504C40.2003 19.6104 40.2503 19.5704 40.3103 19.5504C40.3703 19.5304 40.4303 19.5104 40.5003 19.5104L40.5303 19.5304ZM40.5303 19.7104C40.5303 19.7104 40.4603 19.7104 40.4303 19.7304C40.4003 19.7404 40.3803 19.7604 40.3603 19.7804C40.3403 19.8004 40.3203 19.8304 40.3103 19.8504C40.3003 19.8804 40.2903 19.9104 40.2803 19.9404H40.7703C40.7603 19.8704 40.7303 19.8104 40.6903 19.7704C40.6503 19.7304 40.5903 19.7104 40.5303 19.7104ZM41.8903 19.7904C41.8903 19.7904 41.8603 19.7704 41.8403 19.7604C41.8203 19.7604 41.8003 19.7404 41.7703 19.7304C41.7403 19.7304 41.7203 19.7204 41.6903 19.7104C41.6603 19.7104 41.6303 19.7104 41.6003 19.7104C41.5403 19.7104 41.5003 19.7204 41.4703 19.7404C41.4403 19.7604 41.4203 19.7904 41.4203 19.8204C41.4203 19.8404 41.4203 19.8504 41.4303 19.8604C41.4303 19.8704 41.4503 19.8804 41.4603 19.8904C41.4703 19.8904 41.4903 19.9004 41.5103 19.9104C41.5303 19.9104 41.5503 19.9104 41.5703 19.9204H41.6703C41.7703 19.9504 41.8503 19.9804 41.9103 20.0304C41.9703 20.0804 42.0003 20.1404 42.0003 20.2204C42.0003 20.2704 42.0003 20.3104 41.9703 20.3504C41.9503 20.3904 41.9203 20.4204 41.8903 20.4504C41.8503 20.4804 41.8103 20.5004 41.7503 20.5104C41.7003 20.5304 41.6403 20.5304 41.5703 20.5304C41.5503 20.5304 41.5203 20.5304 41.4803 20.5304C41.4503 20.5304 41.4103 20.5304 41.3803 20.5104C41.3403 20.5104 41.3103 20.4904 41.2703 20.4704C41.2303 20.4504 41.2003 20.4304 41.1603 20.4104L41.2603 20.2504C41.2603 20.2504 41.3003 20.2804 41.3203 20.2904C41.3403 20.3004 41.3603 20.3104 41.3903 20.3204C41.4203 20.3204 41.4403 20.3404 41.4703 20.3404C41.5003 20.3404 41.5403 20.3404 41.5703 20.3404C41.6403 20.3404 41.7003 20.3304 41.7303 20.3104C41.7703 20.2904 41.7803 20.2604 41.7803 20.2304C41.7803 20.2004 41.7703 20.1804 41.7403 20.1604C41.7103 20.1404 41.6703 20.1304 41.6103 20.1204H41.5103C41.4003 20.0904 41.3203 20.0604 41.2703 20.0104C41.2203 19.9604 41.1903 19.9004 41.1903 19.8204C41.1903 19.7704 41.1903 19.7304 41.2203 19.6904C41.2403 19.6504 41.2603 19.6204 41.3003 19.5904C41.3303 19.5604 41.3803 19.5404 41.4203 19.5304C41.4703 19.5204 41.5203 19.5104 41.5803 19.5104C41.6503 19.5104 41.7303 19.5104 41.7903 19.5404C41.8603 19.5604 41.9103 19.5804 41.9603 19.6104L41.8703 19.7704L41.8903 19.7904ZM42.8903 19.7904C42.8903 19.7904 42.8603 19.7704 42.8403 19.7604C42.8203 19.7604 42.8003 19.7404 42.7703 19.7304C42.7403 19.7304 42.7203 19.7204 42.6903 19.7104C42.6603 19.7104 42.6303 19.7104 42.6003 19.7104C42.5403 19.7104 42.5003 19.7204 42.4703 19.7404C42.4403 19.7604 42.4203 19.7904 42.4203 19.8204C42.4203 19.8404 42.4203 19.8504 42.4303 19.8604C42.4303 19.8704 42.4503 19.8804 42.4603 19.8904C42.4703 19.8904 42.4903 19.9004 42.5103 19.9104C42.5303 19.9104 42.5503 19.9104 42.5703 19.9204H42.6703C42.7703 19.9504 42.8503 19.9804 42.9103 20.0304C42.9703 20.0804 43.0003 20.1404 43.0003 20.2204C43.0003 20.2704 43.0003 20.3104 42.9703 20.3504C42.9503 20.3904 42.9203 20.4204 42.8903 20.4504C42.8503 20.4804 42.8103 20.5004 42.7503 20.5104C42.7003 20.5304 42.6403 20.5304 42.5703 20.5304C42.5503 20.5304 42.5203 20.5304 42.4803 20.5304C42.4503 20.5304 42.4103 20.5304 42.3803 20.5104C42.3403 20.5104 42.3103 20.4904 42.2703 20.4704C42.2303 20.4504 42.2003 20.4304 42.1603 20.4104L42.2603 20.2504C42.2603 20.2504 42.3003 20.2804 42.3203 20.2904C42.3403 20.3004 42.3603 20.3104 42.3903 20.3204C42.4203 20.3204 42.4403 20.3404 42.4703 20.3404C42.5003 20.3404 42.5403 20.3404 42.5703 20.3404C42.6403 20.3404 42.7003 20.3304 42.7303 20.3104C42.7703 20.2904 42.7803 20.2604 42.7803 20.2304C42.7803 20.2004 42.7703 20.1804 42.7403 20.1604C42.7103 20.1404 42.6703 20.1304 42.6103 20.1204H42.5103C42.4003 20.0904 42.3203 20.0604 42.2703 20.0104C42.2203 19.9604 42.1903 19.9004 42.1903 19.8204C42.1903 19.7704 42.1903 19.7304 42.2203 19.6904C42.2403 19.6504 42.2603 19.6204 42.3003 19.5904C42.3303 19.5604 42.3803 19.5404 42.4203 19.5304C42.4703 19.5204 42.5203 19.5104 42.5803 19.5104C42.6503 19.5104 42.7303 19.5104 42.7903 19.5404C42.8603 19.5604 42.9103 19.5804 42.9603 19.6104L42.8703 19.7704L42.8903 19.7904ZM34.1703 22.6204H33.9303L33.7903 22.2704H33.1603L33.0203 22.6204H32.7903L33.3403 21.2304H33.6203L34.1703 22.6204ZM33.2403 22.0504H33.7003L33.4703 21.4504L33.2403 22.0504ZM34.7803 21.6404C34.8503 21.6404 34.9203 21.6504 34.9803 21.6804C35.0403 21.7104 35.0903 21.7404 35.1403 21.7904L35.0103 21.9304C35.0103 21.9304 34.9403 21.8704 34.9003 21.8604C34.8603 21.8404 34.8203 21.8304 34.7803 21.8304C34.7403 21.8304 34.7003 21.8304 34.6703 21.8504C34.6403 21.8604 34.6103 21.8904 34.5803 21.9104C34.5503 21.9404 34.5403 21.9704 34.5203 22.0104C34.5103 22.0504 34.5003 22.0904 34.5003 22.1304C34.5003 22.1704 34.5003 22.2204 34.5203 22.2504C34.5303 22.2904 34.5503 22.3204 34.5803 22.3504C34.6103 22.3804 34.6303 22.4004 34.6703 22.4104C34.7003 22.4204 34.7403 22.4304 34.7803 22.4304C34.8303 22.4304 34.8703 22.4304 34.9103 22.4004C34.9503 22.3804 34.9803 22.3604 35.0203 22.3304L35.1503 22.4704C35.1103 22.5204 35.0503 22.5604 34.9903 22.5804C34.9303 22.6104 34.8603 22.6204 34.7903 22.6204C34.7103 22.6204 34.6503 22.6104 34.5803 22.5804C34.5203 22.5504 34.4703 22.5204 34.4203 22.4704C34.3803 22.4304 34.3403 22.3704 34.3203 22.3104C34.3003 22.2504 34.2803 22.1804 34.2803 22.1104C34.2803 22.0404 34.2903 21.9704 34.3203 21.9104C34.3403 21.8504 34.3803 21.8004 34.4203 21.7504C34.4603 21.7104 34.5203 21.6704 34.5803 21.6404C34.6403 21.6104 34.7103 21.6004 34.7903 21.6004L34.7803 21.6404ZM35.7803 21.6404C35.8503 21.6404 35.9203 21.6504 35.9803 21.6804C36.0403 21.7104 36.0903 21.7404 36.1403 21.7904L36.0103 21.9304C36.0103 21.9304 35.9403 21.8704 35.9003 21.8604C35.8603 21.8404 35.8203 21.8304 35.7803 21.8304C35.7403 21.8304 35.7003 21.8304 35.6703 21.8504C35.6403 21.8604 35.6103 21.8904 35.5803 21.9104C35.5503 21.9404 35.5403 21.9704 35.5203 22.0104C35.5003 22.0504 35.5003 22.0904 35.5003 22.1304C35.5003 22.1704 35.5003 22.2204 35.5203 22.2504C35.5303 22.2904 35.5503 22.3204 35.5803 22.3504C35.6103 22.3804 35.6303 22.4004 35.6703 22.4104C35.7103 22.4204 35.7403 22.4304 35.7803 22.4304C35.8303 22.4304 35.8703 22.4304 35.9103 22.4004C35.9503 22.3804 35.9803 22.3604 36.0203 22.3304L36.1503 22.4704C36.1103 22.5204 36.0503 22.5604 35.9903 22.5804C35.9303 22.6104 35.8603 22.6204 35.7903 22.6204C35.7103 22.6204 35.6503 22.6104 35.5803 22.5804C35.5203 22.5504 35.4703 22.5204 35.4203 22.4704C35.3803 22.4304 35.3403 22.3704 35.3203 22.3104C35.3003 22.2504 35.2803 22.1804 35.2803 22.1104C35.2803 22.0404 35.2903 21.9704 35.3203 21.9104C35.3403 21.8504 35.3803 21.8004 35.4203 21.7504C35.4603 21.7104 35.5203 21.6704 35.5803 21.6404C35.6403 21.6104 35.7103 21.6004 35.7903 21.6004L35.7803 21.6404ZM36.7503 21.6404C36.8203 21.6404 36.8803 21.6504 36.9303 21.6804C36.9903 21.7004 37.0303 21.7404 37.0703 21.7804C37.1103 21.8204 37.1403 21.8804 37.1603 21.9404C37.1803 22.0004 37.1903 22.0704 37.1903 22.1404C37.1903 22.1504 37.1903 22.1704 37.1903 22.1804C37.1903 22.1904 37.1903 22.2104 37.1903 22.2204H36.4903C36.4903 22.2204 36.5103 22.3004 36.5303 22.3304C36.5503 22.3604 36.5703 22.3904 36.5903 22.4004C36.6203 22.4204 36.6403 22.4304 36.6703 22.4404C36.7003 22.4404 36.7303 22.4504 36.7703 22.4504C36.8203 22.4504 36.8703 22.4504 36.9103 22.4204C36.9603 22.4004 37.0003 22.3804 37.0403 22.3504L37.1403 22.5004C37.0803 22.5504 37.0203 22.5804 36.9503 22.6004C36.8803 22.6204 36.8203 22.6304 36.7403 22.6304C36.6603 22.6304 36.6003 22.6204 36.5403 22.5904C36.4803 22.5704 36.4303 22.5304 36.3903 22.4904C36.3503 22.4504 36.3103 22.3904 36.2903 22.3304C36.2703 22.2704 36.2503 22.2004 36.2503 22.1204C36.2503 22.0404 36.2603 21.9804 36.2803 21.9204C36.3003 21.8604 36.3403 21.8104 36.3803 21.7604C36.4203 21.7204 36.4703 21.6804 36.5303 21.6604C36.5903 21.6404 36.6503 21.6204 36.7203 21.6204L36.7503 21.6404ZM36.7503 21.8204C36.7503 21.8204 36.6803 21.8204 36.6503 21.8404C36.6203 21.8504 36.6003 21.8704 36.5803 21.8904C36.5603 21.9104 36.5403 21.9404 36.5303 21.9604C36.5203 21.9904 36.5103 22.0204 36.5003 22.0504H36.9903C36.9803 21.9804 36.9503 21.9204 36.9103 21.8804C36.8703 21.8404 36.8103 21.8204 36.7503 21.8204ZM37.9703 21.6404C38.0403 21.6404 38.1003 21.6504 38.1603 21.6804C38.2203 21.7104 38.2703 21.7404 38.3103 21.7804C38.3503 21.8204 38.3903 21.8804 38.4103 21.9404C38.4303 22.0004 38.4503 22.0704 38.4503 22.1404C38.4503 22.2104 38.4403 22.2804 38.4103 22.3404C38.3903 22.4004 38.3503 22.4504 38.3103 22.5004C38.2703 22.5404 38.2203 22.5804 38.1603 22.6004C38.1003 22.6204 38.0403 22.6404 37.9703 22.6404C37.9003 22.6404 37.8403 22.6304 37.7903 22.6004C37.7403 22.5704 37.7003 22.5404 37.6703 22.5004V23.0104H37.4603V21.6604H37.6703V21.7704C37.6703 21.7704 37.7403 21.6904 37.7903 21.6704C37.8403 21.6404 37.9003 21.6304 37.9703 21.6304V21.6404ZM37.9503 21.8404C37.9503 21.8404 37.8703 21.8404 37.8303 21.8604C37.7903 21.8804 37.7603 21.9004 37.7403 21.9204C37.7103 21.9504 37.7003 21.9804 37.6803 22.0204C37.6703 22.0604 37.6603 22.1004 37.6603 22.1404C37.6603 22.1804 37.6603 22.2204 37.6803 22.2604C37.6903 22.3004 37.7103 22.3304 37.7403 22.3604C37.7703 22.3904 37.8003 22.4104 37.8303 22.4204C37.8703 22.4404 37.9003 22.4404 37.9503 22.4404C38.0003 22.4404 38.0303 22.4404 38.0703 22.4204C38.1103 22.4004 38.1403 22.3804 38.1603 22.3504C38.1803 22.3204 38.2003 22.2904 38.2203 22.2504C38.2303 22.2104 38.2403 22.1704 38.2403 22.1304C38.2403 22.0904 38.2403 22.0504 38.2203 22.0104C38.2103 21.9704 38.1903 21.9404 38.1603 21.9104C38.1403 21.8804 38.1103 21.8604 38.0703 21.8404C38.0303 21.8204 37.9903 21.8204 37.9503 21.8204V21.8404ZM39.3503 21.8604H38.9903V22.2704C38.9903 22.2704 38.9903 22.3304 39.0003 22.3504C39.0003 22.3704 39.0203 22.3904 39.0303 22.4104C39.0403 22.4204 39.0603 22.4304 39.0803 22.4404C39.1003 22.4404 39.1203 22.4404 39.1403 22.4404C39.1703 22.4404 39.2103 22.4404 39.2403 22.4204C39.2703 22.4104 39.3003 22.3904 39.3303 22.3704L39.4103 22.5404C39.4103 22.5404 39.3303 22.5904 39.2803 22.6104C39.2303 22.6304 39.1803 22.6404 39.1203 22.6404C39.0103 22.6404 38.9303 22.6104 38.8703 22.5504C38.8103 22.4904 38.7803 22.4004 38.7803 22.2704V21.8504H38.5903V21.6604H38.7803V21.3704H38.9903V21.6604H39.3503V21.8504V21.8604ZM40.0103 21.6504C40.0803 21.6504 40.1403 21.6604 40.1903 21.6904C40.2503 21.7104 40.2903 21.7504 40.3303 21.7904C40.3703 21.8304 40.4003 21.8904 40.4203 21.9504C40.4403 22.0104 40.4503 22.0804 40.4503 22.1504C40.4503 22.1604 40.4503 22.1804 40.4503 22.1904C40.4503 22.2004 40.4503 22.2204 40.4503 22.2304H39.7503C39.7503 22.2304 39.7703 22.3104 39.7903 22.3404C39.8103 22.3704 39.8303 22.4004 39.8503 22.4104C39.8803 22.4304 39.9003 22.4404 39.9303 22.4504C39.9603 22.4504 39.9903 22.4604 40.0303 22.4604C40.0803 22.4604 40.1303 22.4604 40.1703 22.4304C40.2203 22.4104 40.2603 22.3904 40.3003 22.3604L40.4003 22.5104C40.3403 22.5604 40.2803 22.5904 40.2103 22.6104C40.1403 22.6304 40.0803 22.6404 40.0003 22.6404C39.9203 22.6404 39.8603 22.6304 39.8003 22.6004C39.7403 22.5804 39.6903 22.5404 39.6503 22.5004C39.6103 22.4604 39.5703 22.4004 39.5503 22.3404C39.5303 22.2804 39.5103 22.2104 39.5103 22.1304C39.5103 22.0504 39.5203 21.9904 39.5403 21.9304C39.5603 21.8704 39.6003 21.8204 39.6403 21.7704C39.6803 21.7304 39.7303 21.6904 39.7903 21.6704C39.8503 21.6504 39.9103 21.6304 39.9803 21.6304L40.0103 21.6504ZM40.0103 21.8304C40.0103 21.8304 39.9403 21.8304 39.9103 21.8504C39.8803 21.8604 39.8603 21.8804 39.8403 21.9004C39.8203 21.9204 39.8003 21.9504 39.7903 21.9704C39.7803 22.0004 39.7703 22.0304 39.7603 22.0604H40.2503C40.2403 21.9904 40.2103 21.9304 40.1703 21.8904C40.1303 21.8504 40.0703 21.8304 40.0103 21.8304ZM41.1303 21.6504C41.2003 21.6504 41.2603 21.6604 41.3103 21.6904C41.3603 21.7204 41.4003 21.7504 41.4303 21.7904V21.2004H41.6403V22.6304H41.4303V22.5204C41.4303 22.5204 41.3603 22.6004 41.3103 22.6204C41.2603 22.6504 41.2003 22.6604 41.1303 22.6604C41.0603 22.6604 41.0003 22.6504 40.9403 22.6204C40.8803 22.6004 40.8303 22.5604 40.7903 22.5204C40.7503 22.4804 40.7103 22.4204 40.6903 22.3604C40.6703 22.3004 40.6503 22.2304 40.6503 22.1604C40.6503 22.0904 40.6603 22.0204 40.6903 21.9604C40.7103 21.9004 40.7503 21.8504 40.7903 21.8004C40.8303 21.7604 40.8803 21.7204 40.9403 21.7004C41.0003 21.6804 41.0603 21.6604 41.1303 21.6604V21.6504ZM41.1503 21.8504C41.1503 21.8504 41.0603 21.8504 41.0303 21.8704C40.9903 21.8904 40.9603 21.9104 40.9403 21.9404C40.9203 21.9704 40.9003 22.0004 40.8803 22.0404C40.8703 22.0804 40.8603 22.1204 40.8603 22.1604C40.8603 22.2004 40.8603 22.2404 40.8803 22.2804C40.8903 22.3204 40.9103 22.3504 40.9403 22.3804C40.9603 22.4104 40.9903 22.4304 41.0303 22.4504C41.0703 22.4704 41.1103 22.4704 41.1503 22.4704C41.1903 22.4704 41.2303 22.4704 41.2703 22.4504C41.3103 22.4304 41.3403 22.4104 41.3603 22.3904C41.3903 22.3604 41.4003 22.3304 41.4203 22.2904C41.4303 22.2504 41.4403 22.2104 41.4403 22.1704C41.4403 22.1304 41.4403 22.0904 41.4203 22.0504C41.4103 22.0104 41.3903 21.9804 41.3603 21.9504C41.3303 21.9204 41.3003 21.9004 41.2703 21.8904C41.2303 21.8704 41.2003 21.8704 41.1503 21.8704V21.8504Z" fill="white"/>
<path d="M26.1199 25.0409H25.8799V20.3709V10.9609H26.1199V14.9009V25.0409Z" fill="white"/>
</g>
</g>
<rect x="0.5" y="0.5" width="51" height="35" rx="3.5" stroke="#EAEAEA"/>
<defs>
<clipPath id="clip0_2280_3861">
<rect width="52" height="36" rx="4" fill="white"/>
</clipPath>
</defs>
</svg>
