<svg width="52" height="36" viewBox="0 0 52 36" fill="none" xmlns="http://www.w3.org/2000/svg">
<g clip-path="url(#clip0_2280_3943)">
<rect width="52" height="36" rx="4" fill="white"/>
<path d="M48 0H4C1.79086 0 0 1.79086 0 4V32C0 34.2091 1.79086 36 4 36H48C50.2091 36 52 34.2091 52 32V4C52 1.79086 50.2091 0 48 0Z" fill="white"/>
<path d="M48 0H4C1.79086 0 0 1.79086 0 4V32C0 34.2091 1.79086 36 4 36H48C50.2091 36 52 34.2091 52 32V4C52 1.79086 50.2091 0 48 0Z" fill="#D3D3D3"/>
<path d="M47.3198 0.550781H4.6798C2.53694 0.550781 0.799805 2.28792 0.799805 4.43078V31.5608C0.799805 33.7036 2.53694 35.4408 4.6798 35.4408H47.3198C49.4627 35.4408 51.1998 33.7036 51.1998 31.5608V4.43078C51.1998 2.28792 49.4627 0.550781 47.3198 0.550781Z" fill="white"/>
<path d="M3.5 25.3415V11.6615H7.03C8.34 11.6615 9.55 11.6315 10.18 11.7515C10.83 11.8815 11.46 12.1115 12.04 12.4315C12.62 12.8015 13.08 13.3415 13.34 13.9715C13.65 14.7515 13.81 15.5815 13.79 16.4215C13.79 17.9815 13.45 19.2015 12.63 20.0115C11.81 20.8215 9.99 21.1715 8.39 21.1715H7.49V25.3515H3.5V25.3415ZM7.47 18.6515C7.53 18.6615 7.59 18.6715 7.65 18.6715C8.89 18.7215 9.21 18.4215 9.4 18.1615C9.69 17.8015 9.7 16.9915 9.7 16.2415C9.7 15.6215 9.72 15.1115 9.27 14.6215C8.97 14.3015 8.26 14.1915 7.46 14.1915V18.6415L7.47 18.6515Z" fill="black"/>
<path d="M40 25.2803H31.02V11.5703H35.45V21.1603H40V25.2803Z" fill="black"/>
<path d="M45.01 16.3008H40.77V25.3008H45.01V16.3008Z" fill="black"/>
<path d="M45.04 11.6309H40.71V15.3509H45.04V11.6309Z" fill="black"/>
<path d="M46.9199 23.9707H45.6699V24.2307H46.1399V25.2307H46.4599V24.2307H46.9199V23.9707Z" fill="black"/>
<path fill-rule="evenodd" clip-rule="evenodd" d="M25.0699 24.3408C25.6699 24.0808 26.2199 23.7208 26.6899 23.2608C28.0599 22.0108 29.4999 19.8908 29.3899 17.3108C29.2699 14.6008 27.8199 12.8608 25.8799 11.7708C26.4399 11.9008 26.8899 12.2808 27.3299 12.6108C28.5699 13.6208 29.5199 15.1808 29.5599 17.3708C29.6099 20.2908 28.0599 22.2808 26.5299 23.6508C27.0099 23.3608 27.4199 22.9908 27.7399 22.5408C28.9699 21.1108 29.6599 19.3008 29.6899 17.4108C29.6899 14.3508 27.9599 12.5808 25.9399 11.4408C26.5899 11.6508 27.1999 11.9908 27.7099 12.4508C29.2199 13.7708 30.0199 15.7208 29.8599 17.7208C29.7399 19.8708 28.7899 21.8908 27.2299 23.3608C25.6799 24.8308 23.6799 25.7408 21.5499 25.9308C21.2699 25.9508 20.9899 25.9508 20.7099 25.9308C17.1799 25.6408 14.6299 23.3908 14.3599 19.9208C14.3299 19.5608 14.3299 19.2008 14.3599 18.8408C14.5199 16.8508 15.3799 14.9808 16.7899 13.5708C18.1999 12.1008 19.9799 11.0108 22.4699 10.8308C22.5299 10.5608 22.5999 10.2508 22.6399 10.0508C23.4599 10.9208 24.4499 11.8608 25.4799 12.8808C24.2399 13.5208 23.0399 14.1808 21.8299 14.8408C21.8499 14.5908 21.9099 14.3108 21.9299 14.1308C19.8499 14.5008 18.1099 16.0008 17.7499 18.1108C17.2899 20.6908 19.0099 22.6608 21.4899 22.6708C23.9699 22.6808 26.1099 20.7508 26.4899 18.5508C26.7999 16.7708 26.0099 15.5208 24.9999 14.7008C25.9399 15.3208 26.9599 16.4408 26.8199 18.1108C26.6099 20.7208 24.1599 22.8908 21.5899 22.9108C20.2299 22.9108 18.9299 22.3108 18.0599 21.2608C18.8999 22.4908 20.3699 23.1308 22.0399 23.0308C23.2699 22.9208 24.4099 22.3908 25.2799 21.5208C26.1499 20.6908 26.7199 19.6108 26.9199 18.4308C26.9899 17.9708 26.9899 17.5008 26.9199 17.0408C26.7199 15.6908 25.8999 15.0608 25.1499 14.2008C26.2199 15.0508 27.3399 16.1908 27.2599 18.0308C27.1499 20.7108 24.5799 23.0808 21.8899 23.2608C20.4899 23.4108 19.0999 22.9108 18.0999 21.9008C18.9799 23.0208 20.6399 23.5908 22.3899 23.3208C24.8699 22.9308 27.0899 20.8608 27.3499 18.2908C27.5999 15.9708 26.4199 14.8908 25.2999 13.7508C26.4899 14.6508 27.5099 15.6608 27.5899 17.5108C27.6499 19.1308 26.8699 20.7008 25.8599 21.7008C24.2599 23.3108 21.1299 24.3708 18.6999 22.8808C20.7699 24.4608 23.9799 23.5608 25.6899 22.0008C26.9299 20.8808 27.8299 19.3908 27.6899 17.1408C27.5599 15.3408 26.5499 14.4208 25.3899 13.4508C26.7799 14.1408 27.7199 15.4908 27.8899 17.0308C28.1099 19.3308 27.0499 21.0308 25.7599 22.1608C24.0899 23.7008 21.7499 24.2808 19.5499 23.7108C23.6299 24.9708 27.4499 21.9408 27.9899 18.4408C28.3799 15.9208 27.0999 14.4408 25.8599 13.3808C25.7299 13.2708 25.6599 13.1908 25.4899 13.0408C27.2599 13.9508 28.6999 15.9608 28.1199 18.8208C27.4499 22.1308 24.1299 24.8208 19.8399 24.1208C20.4599 24.3708 21.1899 24.3208 21.8199 24.2808C23.5899 24.1808 25.2499 23.4208 26.4799 22.1508C27.6199 20.8808 28.5299 19.2708 28.3599 16.9608C28.1999 14.8708 27.0299 13.8608 25.5999 12.7508C26.1999 13.0008 26.7299 13.3808 27.1499 13.8708C27.9699 14.7408 28.4599 15.8508 28.5599 17.0408C28.7299 19.4208 27.6399 21.1908 26.4299 22.4308C25.0599 23.8508 23.1699 24.6508 21.1999 24.6208C24.6699 24.7308 26.9699 22.6008 28.0899 20.2308C28.7699 18.7308 28.8799 17.0408 28.3899 15.4708C27.9099 14.0908 26.8099 13.1508 25.7199 12.3908C27.6199 13.4008 29.2099 15.3008 28.8599 18.2508C28.7399 19.2608 28.4099 20.2408 27.8799 21.1108C26.8499 22.8408 25.1599 24.0608 23.2599 24.7208C24.6999 24.3708 25.9899 23.6008 26.9799 22.4908C28.1799 21.1708 29.0999 19.4908 29.0399 17.1508C28.9699 14.6308 27.4199 13.1908 25.8299 12.0508C25.8499 12.0508 25.8699 12.0508 25.8899 12.0608C27.6199 12.9108 28.9299 14.3808 29.2099 16.6708C29.6399 20.3008 27.2599 22.9408 25.0499 24.3108L25.0699 24.3408Z" fill="#2F459A"/>
<path d="M48.1801 25.2405V24.6405L48.0001 24.9405H47.8001L47.6201 24.6505V25.2405H47.3101V23.9805H47.6101L47.9001 24.5405L48.1901 23.9805H48.5001V25.2405H48.1801Z" fill="black"/>
</g>
<rect x="0.5" y="0.5" width="51" height="35" rx="3.5" stroke="#EAEAEA"/>
<defs>
<clipPath id="clip0_2280_3943">
<rect width="52" height="36" rx="4" fill="white"/>
</clipPath>
</defs>
</svg>
