<svg width="52" height="36" viewBox="0 0 52 36" fill="none" xmlns="http://www.w3.org/2000/svg">
<g clip-path="url(#clip0_2280_4194)">
<rect width="52" height="36" rx="4" fill="white"/>
<path d="M48 0H4C1.79086 0 0 1.79086 0 4V32C0 34.2091 1.79086 36 4 36H48C50.2091 36 52 34.2091 52 32V4C52 1.79086 50.2091 0 48 0Z" fill="white"/>
<path d="M48 0H4C1.79086 0 0 1.79086 0 4V32C0 34.2091 1.79086 36 4 36H48C50.2091 36 52 34.2091 52 32V4C52 1.79086 50.2091 0 48 0Z" fill="#D3D3D3"/>
<path d="M47.3198 0.550781H4.6798C2.53694 0.550781 0.799805 2.28792 0.799805 4.43078V31.5608C0.799805 33.7036 2.53694 35.4408 4.6798 35.4408H47.3198C49.4627 35.4408 51.1998 33.7036 51.1998 31.5608V4.43078C51.1998 2.28792 49.4627 0.550781 47.3198 0.550781Z" fill="white"/>
<path fill-rule="evenodd" clip-rule="evenodd" d="M4.09984 11.9902H12.1098C12.6398 11.9902 13.1498 12.2002 13.5298 12.5802C13.9098 12.9602 14.1198 13.4702 14.1198 14.0002V22.0102C14.1198 23.1202 13.2198 24.0202 12.1098 24.0202H4.09984C2.98984 24.0202 2.08984 23.1202 2.08984 22.0102V14.0002C2.08984 12.8902 2.98984 11.9902 4.09984 11.9902ZM11.2998 21.8302C11.6498 21.8302 11.9298 21.5502 11.9298 21.2002V14.8202C11.9298 14.4702 11.6398 14.1902 11.2898 14.1902H4.90984C4.73984 14.1902 4.57984 14.2602 4.45984 14.3802C4.33984 14.5002 4.26984 14.6602 4.26984 14.8302V21.2102C4.26984 21.5602 4.54984 21.8402 4.89984 21.8402H11.2898L11.2998 21.8302Z" fill="#3E4348"/>
<path d="M6.82973 19.6296C6.62973 19.6296 6.46973 19.4696 6.46973 19.2696V16.7196C6.46973 16.6196 6.50973 16.5296 6.57973 16.4596C6.64973 16.3896 6.73973 16.3496 6.83973 16.3496H9.38973C9.48973 16.3496 9.57973 16.3896 9.64973 16.4596C9.71973 16.5296 9.75973 16.6196 9.75973 16.7196V19.2696C9.75973 19.3696 9.71973 19.4596 9.64973 19.5296C9.57973 19.5996 9.48973 19.6396 9.38973 19.6396H6.82973V19.6296Z" fill="#3E4348"/>
<path d="M20.2399 17.4611C19.8699 17.3611 19.5199 17.2611 19.2399 17.1411C18.7299 16.9111 18.4999 16.6011 18.4999 16.1511C18.4999 15.3111 19.3199 14.9211 20.1299 14.9211C20.9399 14.9211 21.5799 15.2411 22.0299 15.8211L22.0599 15.8611L22.7099 15.3511L22.6799 15.3111C22.0799 14.5411 21.1799 14.1211 20.1699 14.1211C19.4899 14.1211 18.8699 14.3011 18.4199 14.6411C17.9099 15.0111 17.6499 15.5511 17.6499 16.1911C17.6499 17.6811 19.0499 18.0411 20.1799 18.3411C21.3199 18.6411 22.0199 18.8711 22.0199 19.7411C22.0199 20.6111 21.3299 21.1511 20.2499 21.1511C19.7199 21.1511 18.7399 21.0111 18.1199 20.0711L18.0899 20.0311L17.3999 20.5311L17.4299 20.5711C18.0099 21.4511 19.0199 21.9611 20.1999 21.9611C21.7999 21.9611 22.8699 21.0611 22.8699 19.7211C22.8699 18.1911 21.4099 17.7911 20.2399 17.4711V17.4611Z" fill="#3E4348"/>
<path fill-rule="evenodd" clip-rule="evenodd" d="M28.08 17.1509V16.3409H28.85V24.0009H28.08V21.0109C27.64 21.6109 26.98 21.9409 26.21 21.9409C24.75 21.9409 23.73 20.7709 23.73 19.0809C23.73 17.3909 24.75 16.2109 26.21 16.2109C26.98 16.2109 27.64 16.5409 28.08 17.1409V17.1509ZM24.54 19.0809C24.54 20.6409 25.44 21.2009 26.27 21.2009C27.37 21.2009 28.08 20.3609 28.08 19.0809C28.08 17.8009 27.37 16.9709 26.27 16.9709C24.99 16.9709 24.54 18.0609 24.54 19.0809Z" fill="#3E4348"/>
<path d="M33.93 16.3496V19.3796C33.93 20.4396 33.2 21.2096 32.21 21.2096C31.38 21.2096 30.98 20.7196 30.98 19.7096V16.3596H30.21V19.8696C30.21 21.1796 30.92 21.9696 32.12 21.9696C32.86 21.9696 33.5 21.6496 33.94 21.0796V21.8496H34.71V16.3696H33.94L33.93 16.3496Z" fill="#3E4348"/>
<path fill-rule="evenodd" clip-rule="evenodd" d="M36.1396 16.9207C36.7096 16.4707 37.4796 16.2207 38.2496 16.2207C39.4696 16.2207 40.1996 16.8307 40.1996 17.8507V21.8307H39.4296V21.2207C39.0396 21.7107 38.4796 21.9507 37.7596 21.9507C36.5796 21.9507 35.8496 21.3107 35.8496 20.2707C35.8496 18.9207 37.1196 18.7107 37.6596 18.6207C37.7496 18.6107 37.8396 18.5907 37.9296 18.5807C38.6696 18.4707 39.4296 18.3507 39.4296 17.7207C39.4296 17.0107 38.5096 16.9607 38.2296 16.9607C37.7296 16.9607 37.0296 17.1107 36.5496 17.5207L36.5096 17.5607L36.1096 16.9507L36.1496 16.9207H36.1396ZM36.6496 20.2307C36.6496 21.1107 37.4796 21.2007 37.8296 21.2007C38.5996 21.2007 39.4296 20.7907 39.4296 19.6307V18.8407C39.0596 19.0807 38.5196 19.1707 38.0496 19.2507L37.8096 19.2907C37.0496 19.4307 36.6596 19.6107 36.6596 20.2207L36.6496 20.2307Z" fill="#3E4348"/>
<path d="M44.6498 16.4502C44.4698 16.3202 44.1798 16.2402 43.8798 16.2402C43.2598 16.2402 42.6898 16.5502 42.3198 17.0402V16.3402H41.5498V21.8202H42.3198V18.8902C42.3198 17.5902 43.0498 17.0102 43.7698 17.0102C43.9798 17.0102 44.1898 17.0502 44.3798 17.1402L44.4298 17.1702L44.6698 16.4702L44.6398 16.4502H44.6498Z" fill="#3E4348"/>
<path fill-rule="evenodd" clip-rule="evenodd" d="M44.8799 19.1007C44.8799 17.4107 45.9399 16.2207 47.4499 16.2207C48.9599 16.2207 49.9199 17.2707 49.9199 18.7807C49.9199 18.9107 49.9199 19.0407 49.8999 19.1707V19.2107H45.6899C45.7099 20.4207 46.4399 21.1907 47.5499 21.1907C48.1899 21.1907 48.7399 20.9307 49.1099 20.4607L49.1399 20.4207L49.6999 20.9207L49.6699 20.9607C49.2999 21.4107 48.6299 21.9507 47.5099 21.9507C45.9399 21.9507 44.8799 20.8107 44.8799 19.1007ZM47.4299 16.9607C46.4899 16.9607 45.8299 17.5807 45.7199 18.5407H49.1099C49.0399 17.7707 48.5699 16.9607 47.4299 16.9607Z" fill="#3E4348"/>
</g>
<rect x="0.5" y="0.5" width="51" height="35" rx="3.5" stroke="#EAEAEA"/>
<defs>
<clipPath id="clip0_2280_4194">
<rect width="52" height="36" rx="4" fill="white"/>
</clipPath>
</defs>
</svg>
