<svg width="52" height="36" viewBox="0 0 52 36" fill="none" xmlns="http://www.w3.org/2000/svg">
<rect x="0.5" y="0.5" width="51" height="35" rx="3.5" fill="white"/>
<rect x="0.5" y="0.5" width="51" height="35" rx="3.5" stroke="#EAEAEA"/>
<path d="M8.55023 18.1002V17.9702C8.55023 16.4502 7.89023 15.7202 6.84023 15.7202C5.79023 15.7202 5.12023 16.5002 5.12023 17.9602V18.0902C5.12023 19.5602 5.77023 20.3102 6.84023 20.3102C7.91023 20.3102 8.55023 19.5302 8.55023 18.1102M7.90023 13.4902C9.92023 13.4902 11.5602 15.0102 11.5602 17.9802V18.1102C11.5602 21.0902 9.92023 22.5802 7.88023 22.5802C6.57023 22.5802 5.63023 21.9702 5.20023 21.1102V25.2802H2.24023V13.7202H5.20023V15.0102C5.70023 14.1802 6.59023 13.4902 7.90023 13.4902Z" fill="black"/>
<path d="M18.6401 18.0397V17.9097C18.6401 16.3997 18.0101 15.6697 17.0201 15.6697C15.9801 15.6697 15.3601 16.4097 15.3601 17.9197V18.0497C15.3601 19.5097 15.9901 20.2497 16.9701 20.2497C17.9501 20.2497 18.6401 19.5097 18.6401 18.0297M12.3501 18.0797V17.9497C12.3501 14.9997 14.0401 13.4297 15.9801 13.4297C17.2901 13.4297 18.0701 13.9897 18.5601 14.8697V13.6597H21.5201V22.3197H18.5601V20.9297C18.1101 21.8097 17.2001 22.5197 15.9601 22.5197C14.0401 22.5197 12.3501 21.0797 12.3501 18.0797Z" fill="black"/>
<path d="M27.4502 18.339L29.1102 13.709H31.9402L27.3002 25.279H24.4702L25.9102 21.499L22.4502 13.709H25.6702L27.4502 18.339Z" fill="black"/>
<path d="M32.1001 22.379V20.319L36.0401 15.949H32.5801L32.5601 13.709H39.5001V15.899L35.7201 20.119H39.7801V22.379H32.1001Z" fill="black"/>
<path d="M41.1802 21.2091C41.2102 18.8191 43.0202 16.8691 45.4802 16.8691C47.9402 16.8691 49.8502 18.8191 49.8502 21.2091C49.8502 23.5991 47.9902 25.5291 45.4802 25.5291C42.9702 25.5291 41.1802 23.6091 41.1802 21.2091Z" fill="#D8F614"/>
</svg>
