<svg width="131" height="65" viewBox="0 0 131 65" fill="none" xmlns="http://www.w3.org/2000/svg">
<path fill-rule="evenodd" clip-rule="evenodd" d="M10.6829 40.2656C15.1203 40.2656 17.2634 37.7696 17.2634 34.1138V25.2895H14.0866V34.013C14.0866 36.0552 12.9268 37.4671 10.6829 37.4671C8.43905 37.4671 7.25408 36.0552 7.25408 34.013V25.2895H4.10254V34.1138C4.10254 37.7192 6.24558 40.2404 10.6829 40.2404V40.2656ZM126.105 24.0037C126.105 25.5416 124.895 26.777 123.382 26.777C121.869 26.777 120.684 25.5416 120.684 24.0289C120.684 22.5162 121.894 21.2808 123.382 21.2808H126.08V23.9785L126.105 24.0037ZM36.3743 39.9883V37.2401H29.34L36.223 27.8107V25.2895H25.2809V28.0377H32.1638L25.2809 37.4418V39.9883H36.3743ZM51.5773 40.2404C54.7793 40.2404 56.6198 38.4503 57.6787 36.635L55.0062 35.324C54.4011 36.5342 53.09 37.4671 51.5773 37.4671C48.93 37.4671 47.0139 35.4249 47.0139 32.6515C47.0139 29.8782 48.93 27.836 51.5773 27.836C53.09 27.836 54.4011 28.794 55.0062 29.979L57.6787 28.668C56.645 26.8275 54.8045 25.0878 51.5773 25.0878C47.2156 25.0878 43.8371 28.1637 43.8371 32.6767C43.8371 37.1897 47.2156 40.2908 51.5773 40.2908V40.2404ZM79.0587 39.9883L73.4364 25.2895H69.5537L63.9313 39.9883H67.461L68.3687 37.4923H74.6213L75.529 39.9883H79.0587ZM73.7641 34.7441H69.2259L71.495 28.4158L73.7641 34.7441ZM99.1781 43.6693L93.8331 34.3912C95.3963 34.013 97.0099 32.6263 97.0099 30.0294C97.0099 27.3065 95.1441 25.2895 92.1187 25.2895H85.3113V39.9883H88.4125V34.7693H90.6816L95.598 43.6693H99.1529H99.1781ZM91.6648 32.0212H88.4125V28.0629H91.6648C92.9002 28.0629 93.8583 28.8192 93.8583 30.0546C93.8583 31.29 92.9255 32.0464 91.6648 32.0464V32.0212ZM110.801 39.9883C115.364 39.9883 118.516 37.0889 118.516 32.6515C118.516 28.2141 115.339 25.2895 110.801 25.2895H105.053V39.9883H110.801ZM110.801 37.2401H108.154V28.0629H110.801C113.801 28.0629 115.364 30.0799 115.364 32.6767C115.364 35.2736 113.675 37.2654 110.801 37.2654V37.2401Z" fill="white"/>
</svg>
