<svg width="88" height="61" viewBox="0 0 88 61" fill="none" xmlns="http://www.w3.org/2000/svg">
<path d="M18.7687 21.6506C18.7687 21.6506 18.5557 21.8636 18.6166 21.9853C18.647 22.107 18.8904 22.0766 19.0121 22.1374C19.1947 22.2287 19.2555 22.4113 19.2555 22.5938C19.2555 22.8068 19.2555 24.9366 19.2555 27.8575C16.6694 27.8575 14.1136 27.8575 11.5274 27.827C11.4666 27.1881 11.4666 26.4579 11.5274 25.6972C11.5579 24.967 11.6491 24.2672 11.8013 23.5674C11.8621 23.2632 11.923 22.9589 12.0142 22.6547C12.1055 22.32 12.3489 21.894 12.3185 21.5593C12.3185 21.4985 12.3185 21.4681 12.2881 21.4376C12.2272 21.3464 12.0751 21.3768 11.9838 21.4072C11.3144 21.5898 10.7059 21.9245 10.1887 22.3808C10.0366 22.533 9.61062 22.8981 9.24551 23.5979C8.24146 25.3626 8.18061 27.8879 8.18061 27.8879C8.11976 29.5004 8.05891 32.8168 9.79317 36.2245C9.79317 36.2245 11.0102 38.6281 12.7445 39.2062C13.0791 39.3279 13.1704 39.2366 13.2008 39.2062C13.3225 39.0237 13.0487 38.7498 12.9574 38.5977C12.8053 38.3543 12.6532 38.0805 12.5619 37.8371C12.3185 37.2894 12.1664 36.7113 12.0447 36.1028C11.6796 34.3077 11.4362 32.4821 11.497 30.6566H19.286V37.5328C19.286 37.9892 19.4685 38.4151 19.8945 38.6281C20.1379 38.7498 20.4421 38.8107 20.716 38.8411C21.2028 38.902 21.72 38.9324 22.2068 38.8411C22.4807 38.7803 22.7849 38.689 22.9979 38.476C23.3326 38.1717 23.3326 37.7154 23.3326 37.2894C23.3326 33.8209 23.363 30.3828 23.3326 26.9143C23.3326 26.0623 23.3326 25.2104 23.3326 24.3585C23.3326 23.2023 22.9675 22.0157 21.933 21.3768C21.4766 21.103 20.9898 20.9508 20.4726 20.9508C19.8641 20.9508 19.2555 21.1942 18.7992 21.7419" fill="white"/>
<path d="M6.59734 25.8494C5.56287 27.0664 5.50202 28.4964 5.44117 29.9264C5.31947 33.2732 6.53649 35.6464 6.81032 36.1333C7.41883 37.2894 8.0882 38.0196 8.27075 38.263C8.97054 39.0237 9.67033 39.5713 10.218 39.9365C9.79203 39.8452 9.18352 39.6322 8.54458 39.2367C7.93607 38.8716 7.51011 38.4456 7.23628 38.1413C6.84074 37.6241 6.53649 37.1677 6.35393 36.833C5.86712 35.9811 5.22819 34.8858 4.92393 33.4254C4.83266 33.0298 4.7718 32.6039 4.61967 32.6039C4.37627 32.6039 4.13286 33.3949 4.07201 33.5775C3.88946 34.1556 3.82861 34.6728 3.85903 34.9771C3.85903 36.0724 4.68053 38.2022 6.65819 39.6322C6.65819 39.6322 8.36203 40.8796 11.3133 41.0013C11.435 41.0013 12.1348 41.0014 12.6825 40.6058C12.9563 40.4233 13.1084 40.1494 12.6825 39.9973C9.54863 39.0845 8.30118 35.7377 7.63181 32.8473C7.47968 32.2083 7.35798 31.5998 7.2667 30.9609C7.0233 29.0137 7.0233 26.8839 7.66224 24.9975C7.17543 25.1192 6.96245 25.5147 6.68862 25.8494" fill="white"/>
<path d="M7.57129 24.9973H7.60172L7.57129 24.9669V24.9973Z" fill="white"/>
<path d="M7.57129 24.9663L7.60109 24.9961L7.63088 24.9365L7.57129 24.9663Z" fill="white"/>
<path d="M62.1869 20.9204C62.1869 20.9204 61.9131 20.9204 61.761 20.9204C61.5784 20.9204 61.3654 20.9204 61.1829 20.9204C61.0612 20.9204 60.909 20.9204 60.7873 20.9204C60.5439 20.9204 60.3005 20.9204 60.0571 20.9204C59.7224 20.9204 59.3878 21.0421 59.1444 21.316C58.8401 21.6202 58.6271 22.0462 58.2316 22.9894C58.1707 23.1415 58.1099 23.2632 58.0795 23.3545C57.9273 23.6587 55.8888 28.1313 55.0977 29.4092C55.0369 29.5005 54.9152 29.7134 54.7631 29.7134C54.6109 29.7134 54.4892 29.5005 54.4284 29.4092C53.6373 28.1313 51.5988 23.6587 51.4467 23.3545C51.4162 23.2632 51.3554 23.1415 51.2945 22.9894C50.899 22.0462 50.686 21.6202 50.3818 21.316C50.1384 21.0726 49.8037 20.9509 49.469 20.9204C49.2256 20.9204 48.9822 20.9204 48.7388 20.9204C48.6171 20.9204 48.465 20.9204 48.3433 20.9204C48.1607 20.9204 47.9477 20.9204 47.7652 20.9204C47.613 20.9204 47.4913 20.9204 47.3392 20.9204C47.1262 20.9204 46.9437 20.9813 46.7611 21.103C46.4264 21.316 46.3047 21.6202 46.2439 21.7419C46.1526 21.9549 46.1222 22.1375 46.1222 22.1983C45.9701 22.9285 45.9701 23.5066 45.9701 23.9022C45.8179 28.4964 45.6658 33.0603 45.5137 37.6545C45.5137 37.7154 45.5137 37.8371 45.5745 37.9588C45.8179 38.6282 46.6698 38.9628 47.3088 38.9628C47.9781 38.9628 48.7692 38.6586 49.043 38.0501C49.043 38.0501 49.1039 37.9284 49.1343 37.8067C49.3169 36.8635 49.4386 29.3483 49.469 26.0624C51.2641 29.7439 52.6637 32.4822 53.3331 33.6992C53.4548 33.9426 53.759 34.4598 54.2763 34.612C54.4284 34.6728 54.5805 34.7033 54.7631 34.7033C54.9456 34.7033 55.0977 34.7033 55.2499 34.612C55.7671 34.4294 56.0409 33.9426 56.1931 33.6992C56.832 32.4822 58.262 29.7439 60.0571 26.0624C60.0875 29.3483 60.2093 36.8635 60.3918 37.8067C60.3918 37.9284 60.4831 38.0501 60.4831 38.0501C60.7569 38.6586 61.548 38.9628 62.2173 38.9628C62.8867 38.9628 63.7386 38.6282 63.9516 37.9588C63.982 37.8371 64.0125 37.7458 64.0125 37.6545C63.8603 33.0603 63.7082 28.4964 63.5561 23.9022C63.5561 23.5066 63.5561 22.8981 63.4039 22.1983C63.4039 22.1375 63.3735 21.9549 63.2822 21.7419C63.2214 21.6202 63.0997 21.316 62.765 21.103C62.5824 20.9813 62.3999 20.9204 62.2173 20.9204" fill="white"/>
<path d="M31.5449 34.7642C31.5449 34.7642 31.6362 34.7642 31.6666 34.7642C31.6666 34.825 31.5449 34.7642 31.5449 34.7337" fill="white"/>
<mask id="mask0_18567_85385" style="mask-type:luminance" maskUnits="userSpaceOnUse" x="26" y="20" width="17" height="20">
<path d="M38.5172 21.4377C38.2738 21.7115 38.1825 22.0462 38.1825 22.2592C38.1825 25.6364 38.1825 29.0441 38.1521 32.4213C38.1521 32.756 38.1521 33.3645 37.787 34.0643C37.4219 34.7945 36.9351 35.1901 36.8134 35.3118C36.8134 35.3118 35.9615 35.9811 34.8357 36.0724C34.714 36.0724 34.5923 36.0724 34.5923 36.0724C34.5923 36.0724 34.5315 36.0724 34.501 36.0724C34.501 36.0724 34.4402 36.0724 34.4098 36.0724C34.4098 36.0724 34.2881 36.0724 34.1664 36.0724C33.0406 35.9811 32.1887 35.3118 32.1887 35.3118C32.067 35.2205 31.5498 34.7945 31.2151 34.0643C30.8804 33.3645 30.85 32.756 30.85 32.4213C30.85 29.0441 30.85 25.6668 30.8195 22.2592C30.8195 22.0462 30.7283 21.7115 30.4849 21.4377C30.0285 20.9204 29.2678 20.9509 28.6897 20.9509C28.0812 20.9509 27.4423 20.9813 27.0772 21.4681C26.7729 21.8332 26.8034 22.2896 26.8338 22.5026V33.1211C26.8338 34.1252 27.1076 35.4335 28.0812 36.6505C29.1461 38.0501 30.6674 38.6586 31.1238 38.8411C32.067 39.2062 33.0102 39.2975 33.284 39.3279C33.7708 39.3888 34.1968 39.3888 34.501 39.3584C34.8053 39.3584 35.2313 39.3584 35.7181 39.3279C35.9919 39.3279 36.9351 39.2062 37.8783 38.8411C38.3347 38.6586 39.8559 38.0501 40.9208 36.6505C41.864 35.403 42.1683 34.0947 42.1683 33.1211V22.5026C42.1683 22.2896 42.2291 21.8332 41.9249 21.4681C41.5598 20.9813 40.9208 20.9813 40.3123 20.9509C40.2211 20.9509 40.0993 20.9509 39.9776 20.9509C39.4604 20.9509 38.9128 21.0117 38.5172 21.4377Z" fill="white"/>
</mask>
<g mask="url(#mask0_18567_85385)">
<path d="M31.1489 13.9901L18.5068 34.1824L37.8997 46.3239L50.5417 26.1316L31.1489 13.9901Z" fill="white"/>
</g>
<path d="M32.4297 39.1454C32.4297 39.1454 32.4905 39.1454 32.521 39.1454L32.4601 39.1758V39.115L32.4297 39.1454Z" fill="white"/>
<mask id="mask1_18567_85385" style="mask-type:luminance" maskUnits="userSpaceOnUse" x="66" y="20" width="19" height="20">
<path d="M70.7969 32.0561C70.2797 29.835 70.3709 27.188 71.6184 25.1799C72.5007 23.8107 73.9612 22.9892 75.5129 22.9588C77.0646 22.9588 78.525 23.7803 79.4073 25.1799C80.6548 27.188 80.7461 29.8046 80.2288 32.0561C79.6812 34.3684 78.1295 36.8633 75.5433 36.8937C72.9267 36.8937 71.4054 34.3684 70.8577 32.0561M69.9146 22.3199C68.4846 23.3848 67.4501 24.906 66.9328 26.6099C65.4724 31.5084 67.6631 37.7457 72.9571 39.1452C73.809 39.3582 74.6914 39.4495 75.5433 39.4495C76.4256 39.4495 77.2776 39.3886 78.1295 39.1452C83.3931 37.7761 85.6142 31.5084 84.1537 26.6099C83.6365 24.906 82.602 23.3848 81.172 22.3199C79.5595 21.1028 77.5514 20.4639 75.5433 20.4335C73.5352 20.4943 71.5271 21.1028 69.9146 22.3199Z" fill="white"/>
</mask>
<g mask="url(#mask1_18567_85385)">
<path d="M70.4674 11.6471L57.1191 34.6462L80.4604 48.1929L93.8086 25.1938L70.4674 11.6471Z" fill="white"/>
</g>
</svg>
