<svg width="70" height="48" viewBox="0 0 70 48" fill="none" xmlns="http://www.w3.org/2000/svg">
<path fill-rule="evenodd" clip-rule="evenodd" d="M34.9993 32.402C37.3987 30.3913 38.9244 27.3724 38.9244 23.9972C38.9244 20.6221 37.3988 17.6032 34.9994 15.5926C36.9035 13.997 39.3578 13.0364 42.0364 13.0364C48.0907 13.0364 52.9987 17.9438 52.9987 23.9973C52.9987 30.0509 48.0907 34.9583 42.0364 34.9583C39.3577 34.9583 36.9034 33.9976 34.9993 32.402ZM34.9993 32.402C33.0952 33.9975 30.6409 34.9582 27.9622 34.9582C21.908 34.9582 17 30.0508 17 23.9972C17 17.9436 21.908 13.0363 27.9622 13.0363C30.641 13.0363 33.0953 13.997 34.9994 15.5926C32.5999 17.6032 31.0742 20.6221 31.0742 23.9973C31.0742 27.3725 32.5999 30.3913 34.9993 32.402Z" fill="white"/>
</svg>
