<svg width="146" height="35" viewBox="0 0 146 35" fill="none" xmlns="http://www.w3.org/2000/svg">
<g clip-path="url(#clip0_1227_3127)">
<path fill-rule="evenodd" clip-rule="evenodd" d="M106.4 26.1H112V10.5C112 7.8 114.2 5.6 116.9 5.6H117.9C118.6 5.6 119.3 5.8 120 6.1L122.4 1C121 0.3 119.5 0 117.9 0H116.9C111.1 0 106.4 4.7 106.4 10.5V26.1Z" fill="white"/>
<path d="M13.5 0H10.5C4.7 0 0 4.7 0 10.5V35H5.6V26C6.9 26.6 8.4 27 9.9 27H13C19 27 23.9 22.1 23.9 16.1V10.5C24 4.7 19.3 0 13.5 0ZM18.3 16.1C18.3 19 15.9 21.4 13 21.4H10C7.6 21.4 5.7 19.5 5.7 17.1V10.6C5.7 7.9 7.9 5.7 10.6 5.7H13.6C16.3 5.7 18.5 7.9 18.5 10.6V16.1H18.3Z" fill="white"/>
<path fill-rule="evenodd" clip-rule="evenodd" d="M40.9001 0H36.2001C31.8001 0 28.1001 2.9 27.3001 6.7L32.8001 8C32.9001 6.7 34.4001 5.6 36.1001 5.6H40.8001C42.6001 5.6 44.2001 6.8 44.2001 8.1C44.2001 8.9 44.0001 9.4 43.8001 9.7C42.8001 10.7 39.7001 10.6 37.4001 10.6C37.3001 10.6 37.2001 10.6 37.1001 10.6C36.7001 10.6 36.4001 10.6 36.0001 10.6C32.5001 10.6 30.3001 11.9 29.1001 13.1C27.5001 14.6 26.6001 16.7 26.6001 18.9C26.6001 21.1 27.4001 23 28.9001 24.5C30.0001 25.7 32.0001 27 35.2001 27H40.8001C45.8001 27 49.8001 23.3 49.8001 18.8V8.2C49.9001 3.7 45.8001 0 40.9001 0ZM44.2001 18.8C44.2001 20.2 42.7001 21.3 40.8001 21.3H35.2001C32.9001 21.3 32.1001 20 32.1001 18.9C32.1001 18.3 32.4001 17.7 32.8001 17.2C33.5001 16.6 34.5001 16.2 35.9001 16.2C36.3001 16.2 36.8001 16.2 37.2001 16.2C39.5001 16.2 42.0001 16.3 44.1001 15.6V18.8H44.2001Z" fill="white"/>
<path d="M66.6999 0H63.7C57.9 0 53.2 4.7 53.2 10.5V35H58.7999V26C60.0999 26.6 61.5999 27 63.0999 27H66.1999C72.1999 27 77.0999 22.1 77.0999 16.1V10.5C77.1999 4.7 72.4999 0 66.6999 0ZM71.5999 16.1C71.5999 19 69.2 21.4 66.3 21.4H63.2C60.8 21.4 58.9 19.5 58.9 17.1V10.6C58.9 7.9 61.0999 5.7 63.7999 5.7H66.8C69.5 5.7 71.6999 7.9 71.6999 10.6V16.1H71.5999Z" fill="white"/>
<path fill-rule="evenodd" clip-rule="evenodd" d="M94.0999 0H89.3999C84.9999 0 81.2999 2.9 80.4999 6.7L86.0999 8C86.1999 6.7 87.6999 5.6 89.3999 5.6H94.0999C95.8999 5.6 97.4999 6.8 97.4999 8.1C97.4999 8.9 97.2999 9.4 97.0999 9.7C96.0999 10.7 92.9999 10.6 90.6999 10.6C90.5999 10.6 90.4999 10.6 90.3999 10.6C89.9999 10.6 89.6999 10.6 89.2999 10.6C85.7999 10.6 83.5999 11.9 82.3999 13.1C80.7999 14.6 79.8999 16.7 79.8999 18.9C79.8999 21.1 80.6999 23 82.1999 24.5C83.2999 25.6 85.3999 26.9 88.5999 26.9H94.1999C99.1999 26.9 103.2 23.2 103.2 18.7V8.2C103.1 3.7 98.9999 0 94.0999 0ZM97.3999 18.8C97.3999 20.2 95.8999 21.3 93.9999 21.3H88.3999C86.0999 21.3 85.2999 20 85.2999 18.9C85.2999 18.3 85.5999 17.7 85.9999 17.2C86.6999 16.6 87.6999 16.2 89.0999 16.2C89.4999 16.2 89.9999 16.2 90.3999 16.2C92.6999 16.2 95.1999 16.3 97.2999 15.6V18.8H97.3999Z" fill="white"/>
<path fill-rule="evenodd" clip-rule="evenodd" d="M137 0H132.3C127.9 0 124.2 2.9 123.4 6.7L129 8C129.1 6.7 130.6 5.6 132.3 5.6H137C138.8 5.6 140.4 6.8 140.4 8.1C140.4 8.9 140.2 9.4 140 9.7C139 10.7 135.9 10.6 133.6 10.6C133.5 10.6 133.4 10.6 133.3 10.6C132.9 10.6 132.6 10.6 132.2 10.6C128.7 10.6 126.5 11.9 125.3 13.1C123.7 14.6 122.8 16.7 122.8 18.9C122.8 21.1 123.6 23 125.1 24.5C126.2 25.6 128.3 26.9 131.5 26.9H137.1C142.1 26.9 146.1 23.2 146.1 18.7V8.2C146 3.7 142 0 137 0ZM140.4 18.8C140.4 20.2 138.9 21.3 137 21.3H131.4C129.1 21.3 128.3 20 128.3 18.9C128.3 18.3 128.6 17.7 129 17.2C129.7 16.6 130.7 16.2 132.1 16.2C132.5 16.2 133 16.2 133.4 16.2C135.7 16.2 138.2 16.3 140.3 15.6V18.8H140.4Z" fill="white"/>
</g>
<defs>
<clipPath id="clip0_1227_3127">
<rect width="146" height="35" fill="white"/>
</clipPath>
</defs>
</svg>
