<svg width="52" height="36" viewBox="0 0 52 36" fill="none" xmlns="http://www.w3.org/2000/svg">
<g clip-path="url(#clip0_2280_4053)">
<rect width="52" height="36" rx="4" fill="white"/>
<path d="M48 0H4C1.79086 0 0 1.79086 0 4V32C0 34.2091 1.79086 36 4 36H48C50.2091 36 52 34.2091 52 32V4C52 1.79086 50.2091 0 48 0Z" fill="white"/>
<path d="M48 0H4C1.79086 0 0 1.79086 0 4V32C0 34.2091 1.79086 36 4 36H48C50.2091 36 52 34.2091 52 32V4C52 1.79086 50.2091 0 48 0Z" fill="#D3D3D3"/>
<path d="M47.3198 0.550781H4.6798C2.53694 0.550781 0.799805 2.28792 0.799805 4.43078V31.5608C0.799805 33.7036 2.53694 35.4408 4.6798 35.4408H47.3198C49.4627 35.4408 51.1998 33.7036 51.1998 31.5608V4.43078C51.1998 2.28792 49.4627 0.550781 47.3198 0.550781Z" fill="white"/>
<path d="M14.73 12.8008C13.52 11.5608 11.83 10.8008 9.95996 10.8008C7.16996 10.8008 4.76996 12.5208 3.77996 14.9508L2.70996 14.8208L3.45996 15.9808L5.00996 18.3808L6.55996 16.9808L8.19996 15.5008L7.22996 15.3808C7.85996 14.5608 8.84996 14.0208 9.96996 14.0208C10.85 14.0208 11.66 14.3508 12.27 14.9008L11.92 12.8008H14.73Z" fill="#4178BB"/>
<path d="M15.4398 13.651L16.1498 12.791H11.9098L12.2598 14.891L12.6098 17.021L13.2098 16.301C13.3398 16.661 13.4098 17.051 13.4098 17.451C13.4098 19.241 12.0398 20.721 10.2998 20.881L11.3098 23.991C14.3498 23.371 16.6398 20.681 16.6398 17.451C16.6398 16.031 16.1998 14.711 15.4398 13.631" fill="#E42330"/>
<path d="M11.0598 20.7407L9.28979 20.0507L9.58979 20.8907C7.85979 20.7007 6.50979 19.2407 6.50979 17.4607C6.50979 17.2907 6.51979 17.1307 6.54979 16.9707L4.99979 18.3707L3.44979 15.9707C3.33979 16.4507 3.27979 16.9507 3.27979 17.4707C3.27979 21.1607 6.26979 24.1507 9.95979 24.1507C10.2198 24.1507 10.4698 24.1307 10.7198 24.1107L11.1298 25.2707L11.9698 23.8507L13.2898 21.6307L11.0498 20.7607L11.0598 20.7407Z" fill="#FCD006"/>
<path d="M22.2299 21.32C22.0899 21.52 21.8499 21.69 21.4999 21.81C21.1499 21.94 20.7899 22 20.4099 22C19.6999 22 19.1399 21.84 18.7399 21.53C18.3299 21.22 18.1299 20.78 18.1299 20.21C18.1299 19.54 18.4199 19.02 18.9899 18.64C19.5599 18.26 20.3799 18.07 21.4299 18.07C21.6099 18.07 21.8199 18.1 22.0699 18.15C22.0699 17.47 21.5799 17.13 20.5999 17.13C20.0199 17.13 19.5399 17.21 19.1499 17.38L18.8199 16.33C19.3499 16.11 19.9799 16 20.7099 16C21.7199 16 22.4499 16.2 22.9199 16.6C23.3899 17 23.6199 17.76 23.6199 18.88V20.11C23.6199 20.88 23.7999 21.36 24.1499 21.56C24.0199 21.75 23.8799 21.87 23.7299 21.92C23.5699 21.96 23.3999 21.99 23.1899 21.99C22.9699 21.99 22.7699 21.92 22.5899 21.77C22.4099 21.63 22.2899 21.47 22.2299 21.3M22.0799 19.16C21.8199 19.11 21.6199 19.09 21.4899 19.09C20.2799 19.09 19.6699 19.44 19.6699 20.14C19.6699 20.66 20.0099 20.92 20.6999 20.92C21.6199 20.92 22.0799 20.52 22.0799 19.71V19.17V19.16Z" fill="#1D1D1B"/>
<path d="M29.4897 16.5893L28.8697 17.5993C28.5297 17.2993 28.0697 17.1493 27.4997 17.1493C26.9297 17.1493 26.5197 17.3193 26.1997 17.6593C25.8797 17.9993 25.7197 18.4693 25.7197 19.0693C25.7197 20.2793 26.3397 20.8893 27.5797 20.8893C28.1197 20.8893 28.5897 20.7193 28.9997 20.3893L29.5297 21.4493C29.1097 21.6893 28.7397 21.8493 28.4297 21.9093C28.1197 21.9693 27.7397 22.0093 27.3197 22.0093C26.3597 22.0093 25.6097 21.7493 25.0497 21.2293C24.4997 20.7093 24.2197 19.9893 24.2197 19.0693C24.2197 18.1493 24.5197 17.4293 25.1297 16.8693C25.7397 16.3093 26.5597 16.0293 27.6097 16.0293C28.3297 16.0293 28.9597 16.2193 29.4897 16.5993" fill="#1D1D1B"/>
<path d="M30.7701 17.2109H30.0601V16.1309H30.7701V14.9609L32.2001 14.4609V16.1309H33.8801V17.2109H32.2001V19.7409C32.2001 20.1509 32.2701 20.4509 32.4101 20.6209C32.5501 20.7909 32.7901 20.8809 33.1301 20.8809C33.4701 20.8809 33.7901 20.7909 34.0901 20.6209V21.8609C33.7601 21.9709 33.2901 22.0209 32.6701 22.0209C32.0501 22.0209 31.5901 21.8609 31.2601 21.5309C30.9301 21.2009 30.7701 20.7409 30.7701 20.1409V17.2209V17.2109Z" fill="#1D1D1B"/>
<path d="M35.59 21.9006V17.2306H34.79V16.1306H37.08V21.9006H35.59ZM36.35 13.8906C36.58 13.8906 36.79 13.9706 36.95 14.1206C37.12 14.2706 37.2 14.4606 37.2 14.6706C37.2 14.8806 37.12 15.0706 36.95 15.2206C36.78 15.3706 36.58 15.4506 36.35 15.4506C36.12 15.4506 35.91 15.3706 35.75 15.2206C35.58 15.0706 35.5 14.8806 35.5 14.6706C35.5 14.4606 35.58 14.2706 35.75 14.1206C35.92 13.9706 36.12 13.8906 36.35 13.8906Z" fill="#1D1D1B"/>
<path d="M41.0299 22.0109H40.4999L37.6699 16.1309H39.2699L40.7699 19.6509L42.3799 16.1309H43.9299L41.0299 22.0109Z" fill="#1D1D1B"/>
<path d="M47.5099 21.32C47.3799 21.52 47.1499 21.69 46.8299 21.81C46.5099 21.94 46.1699 22 45.8199 22C45.1599 22 44.6399 21.84 44.2599 21.53C43.8799 21.22 43.6899 20.78 43.6899 20.21C43.6899 19.54 43.9599 19.02 44.4899 18.64C45.0199 18.26 45.7799 18.07 46.7599 18.07C46.9299 18.07 47.1299 18.1 47.3599 18.15C47.3599 17.47 46.8999 17.13 45.9899 17.13C45.4499 17.13 44.9999 17.21 44.6399 17.38L44.3299 16.33C44.8199 16.11 45.4099 16 46.0899 16C47.0299 16 47.7099 16.2 48.1499 16.6C48.5899 17 48.7999 17.76 48.7999 18.88V20.11C48.7999 20.88 48.9599 21.36 49.2899 21.56C49.1699 21.75 49.0399 21.87 48.8899 21.92C48.7399 21.96 48.5799 21.99 48.3899 21.99C48.1799 21.99 47.9999 21.92 47.8299 21.77C47.6699 21.63 47.5499 21.47 47.4999 21.3M47.3599 19.16C47.1199 19.11 46.9299 19.09 46.8099 19.09C45.6799 19.09 45.1099 19.44 45.1099 20.14C45.1099 20.66 45.4299 20.92 46.0699 20.92C46.9299 20.92 47.3599 20.52 47.3599 19.71V19.17V19.16Z" fill="#1D1D1B"/>
<path d="M23.7598 13.8498L22.9598 12.6198C22.8798 12.6198 22.7698 12.6198 22.6198 12.6098V13.8598H22.0698V10.8798C22.0698 10.8798 22.2098 10.8798 22.4098 10.8598C22.6098 10.8498 22.7698 10.8398 22.8898 10.8398C23.6498 10.8398 24.0298 11.1298 24.0298 11.7198C24.0298 11.8998 23.9798 12.0598 23.8698 12.1998C23.7698 12.3498 23.6298 12.4498 23.4698 12.5098L24.3498 13.8498H23.7398H23.7598ZM22.6298 11.3298V12.1598C22.7298 12.1598 22.7998 12.1698 22.8498 12.1698C23.0698 12.1698 23.2298 12.1398 23.3398 12.0798C23.4398 12.0198 23.4898 11.8998 23.4898 11.7198C23.4898 11.5698 23.4298 11.4698 23.3198 11.4098C23.2098 11.3498 23.0398 11.3198 22.7998 11.3198C22.7398 11.3198 22.6798 11.3198 22.6198 11.3298" fill="#1D1D1B"/>
<path d="M26.55 12.9206H24.99C24.99 13.0906 25.06 13.2306 25.17 13.3306C25.28 13.4306 25.43 13.4706 25.61 13.4706C25.84 13.4706 26.02 13.4106 26.14 13.2906L26.34 13.6806C26.16 13.8306 25.89 13.9006 25.54 13.9006C25.21 13.9006 24.94 13.8006 24.75 13.6106C24.56 13.4206 24.46 13.1406 24.46 12.7906C24.46 12.4406 24.57 12.1706 24.78 11.9606C24.99 11.7506 25.25 11.6406 25.55 11.6406C25.87 11.6406 26.12 11.7306 26.31 11.9206C26.5 12.1106 26.6 12.3506 26.6 12.6406C26.6 12.7006 26.59 12.8006 26.56 12.9206M25.02 12.5406H26.09C26.05 12.2206 25.88 12.0606 25.56 12.0606C25.27 12.0606 25.09 12.2206 25.02 12.5406Z" fill="#1D1D1B"/>
<path d="M28.3999 13.8502V13.7202C28.3999 13.7202 28.2899 13.8102 28.1899 13.8402C28.0899 13.8702 27.9899 13.8902 27.8799 13.8902C27.5799 13.8902 27.3399 13.7902 27.1599 13.6002C26.9899 13.4102 26.8999 13.1402 26.8999 12.7902C26.8999 12.4402 26.9999 12.1602 27.1999 11.9502C27.3999 11.7302 27.6499 11.6302 27.9499 11.6302C28.1199 11.6302 28.2699 11.6602 28.3999 11.7302V10.8602L28.9099 10.7402V13.8502H28.3999ZM28.3999 12.1902C28.2899 12.1002 28.1799 12.0602 28.0599 12.0602C27.8599 12.0602 27.6999 12.1202 27.5899 12.2502C27.4799 12.3702 27.4199 12.5502 27.4199 12.7802C27.4199 13.2302 27.6399 13.4602 28.0799 13.4602C28.1299 13.4602 28.1899 13.4502 28.2599 13.4202C28.3299 13.3902 28.3799 13.3602 28.3999 13.3302V12.1902Z" fill="#1D1D1B"/>
</g>
<rect x="0.5" y="0.5" width="51" height="35" rx="3.5" stroke="#EAEAEA"/>
<defs>
<clipPath id="clip0_2280_4053">
<rect width="52" height="36" rx="4" fill="white"/>
</clipPath>
</defs>
</svg>
