<svg width="52" height="36" viewBox="0 0 52 36" fill="none" xmlns="http://www.w3.org/2000/svg">
<g clip-path="url(#clip0_2280_3889)">
<rect width="52" height="36" rx="4" fill="white"/>
<path d="M48 0H4C1.79086 0 0 1.79086 0 4V32C0 34.2091 1.79086 36 4 36H48C50.2091 36 52 34.2091 52 32V4C52 1.79086 50.2091 0 48 0Z" fill="white"/>
<path d="M48 0H4C1.79086 0 0 1.79086 0 4V32C0 34.2091 1.79086 36 4 36H48C50.2091 36 52 34.2091 52 32V4C52 1.79086 50.2091 0 48 0Z" fill="#D3D3D3"/>
<path d="M47.3198 0.550781H4.6798C2.53694 0.550781 0.799805 2.28792 0.799805 4.43078V31.5608C0.799805 33.7036 2.53694 35.4408 4.6798 35.4408H47.3198C49.4627 35.4408 51.1998 33.7036 51.1998 31.5608V4.43078C51.1998 2.28792 49.4627 0.550781 47.3198 0.550781Z" fill="white"/>
<path d="M10.6202 17.5705C10.6202 17.4005 10.5402 17.3205 10.3802 17.3105H9.56021C9.37021 17.3205 9.27021 17.4305 9.26021 17.6305V19.1005C9.26021 19.3105 9.37021 19.4105 9.59021 19.4205H10.3402C10.4202 19.4205 10.4802 19.3905 10.5302 19.3305C10.5802 19.2905 10.6102 19.2305 10.6102 19.1605V17.5805L10.6202 17.5705ZM8.22021 17.3605C8.22021 16.9905 8.31021 16.7105 8.47021 16.5205C8.55021 16.4405 8.66021 16.3705 8.78021 16.3205C8.91021 16.2605 9.04021 16.2305 9.16021 16.2305H10.6602C11.3202 16.2305 11.6602 16.6005 11.6702 17.3105V19.5205C11.6702 19.7705 11.5702 20.0005 11.3702 20.1805C11.1802 20.3705 10.9502 20.4705 10.6902 20.4805H9.27022V22.0705H8.22021V17.3505" fill="#3200FF"/>
<path d="M13.55 19.1905C13.55 19.2505 13.58 19.3005 13.63 19.3405C13.68 19.3805 13.74 19.4105 13.82 19.4105H14.62C14.8 19.4105 14.9 19.3405 14.9 19.2005V18.9005C14.9 18.7405 14.8 18.6505 14.61 18.6505H13.81C13.71 18.6505 13.63 18.6705 13.59 18.7005C13.55 18.7405 13.53 18.8205 13.53 18.9305V19.2005L13.55 19.1905ZM14.91 17.5405C14.91 17.3805 14.82 17.3005 14.63 17.3105H12.52V16.2305H14.89C15.58 16.2405 15.93 16.5805 15.94 17.2405V19.4905C15.94 19.7705 15.85 20.0105 15.68 20.2005C15.5 20.3905 15.28 20.4905 15 20.4905H13.56C12.86 20.4905 12.51 20.1705 12.5 19.5305V18.6605C12.5 18.0005 12.84 17.6605 13.51 17.6505H14.9V17.5405" fill="#3200FF"/>
<path d="M18.89 21.0007C18.97 21.0007 19.04 20.9707 19.1 20.9107C19.16 20.8607 19.18 20.8007 19.18 20.7407V20.4807H17.84C17.67 20.4807 17.53 20.4607 17.42 20.4107C17.31 20.3707 17.2 20.2907 17.09 20.1907C16.99 20.0807 16.91 19.9607 16.86 19.8307C16.81 19.7207 16.79 19.5707 16.79 19.4007V16.2207H17.84V19.0607C17.84 19.2907 17.93 19.4007 18.12 19.4007H18.86C18.95 19.4007 19.02 19.3707 19.09 19.3107C19.15 19.2607 19.18 19.2007 19.18 19.1307V16.2207H20.22V20.9107C20.22 21.2607 20.13 21.5307 19.95 21.7407C19.78 21.9507 19.54 22.0607 19.23 22.0607H16.79V20.9807H18.88" fill="#3200FF"/>
<path d="M21.0503 19.4105H22.9203C23.0903 19.4105 23.1803 19.3405 23.1803 19.2005V19.1005C23.1803 19.1005 23.1803 19.0405 23.1603 19.0105C23.1203 18.9305 23.0703 18.8905 23.0103 18.8905H22.0803C21.8103 18.8905 21.5703 18.7905 21.3703 18.6105C21.1703 18.4405 21.0703 18.2305 21.0603 17.9905V17.1905C21.0703 16.5605 21.4103 16.2505 22.0803 16.2305H24.2403V17.3105H22.4103C22.1903 17.3105 22.0903 17.3805 22.0903 17.5105V17.6105C22.0903 17.7505 22.2003 17.8105 22.4203 17.8105H23.3403C23.5903 17.8105 23.8003 17.9105 23.9703 18.0905C24.1503 18.2705 24.2403 18.4905 24.2403 18.7505V19.5305C24.2403 19.7505 24.1303 19.9705 23.9403 20.1905C23.8403 20.3005 23.7503 20.3705 23.6503 20.4105C23.5503 20.4505 23.4103 20.4705 23.2403 20.4705H21.0503V19.3905" fill="#3200FF"/>
<path d="M26.04 19.1905C26.04 19.2505 26.07 19.3005 26.12 19.3405C26.17 19.3805 26.23 19.4105 26.31 19.4105H27.12C27.3 19.4105 27.4 19.3405 27.4 19.2005V18.9005C27.4 18.7405 27.3 18.6505 27.11 18.6505H26.31C26.21 18.6505 26.13 18.6705 26.09 18.7005C26.05 18.7405 26.03 18.8205 26.03 18.9305V19.2005L26.04 19.1905ZM27.4 17.5405C27.4 17.3805 27.31 17.3005 27.12 17.3105H25.01V16.2305H27.39C28.08 16.2405 28.43 16.5805 28.44 17.2405V19.4905C28.44 19.7705 28.35 20.0105 28.18 20.2005C28 20.3905 27.78 20.4905 27.5 20.4905H26.06C25.36 20.4905 25.01 20.1705 25 19.5305V18.6605C25 18.0005 25.34 17.6605 26.01 17.6505H27.4V17.5405Z" fill="#3200FF"/>
<path d="M29.2903 15.6204C29.2903 15.3304 29.4003 15.1004 29.6103 14.9204C29.8103 14.7404 30.0803 14.6504 30.4103 14.6504H31.0703V15.6904H30.6703C30.4503 15.6904 30.3403 15.8004 30.3303 16.0104V16.2404H31.0703V17.3204H30.3303V20.5004H29.2803V15.6404" fill="#3200FF"/>
<path d="M34.06 17.5202V17.5002C34.06 17.4402 34.04 17.4002 33.99 17.3602C33.94 17.3302 33.88 17.3102 33.81 17.3102H33.08C32.99 17.3102 32.91 17.3402 32.85 17.3902C32.78 17.4402 32.74 17.5002 32.74 17.5902V18.0202L34.05 17.5302L34.06 17.5202ZM32.76 19.0402V19.1102C32.76 19.2002 32.78 19.2602 32.83 19.3102C32.86 19.3702 32.91 19.4102 32.97 19.4102H35.12V20.4902H32.83C32.62 20.4902 32.46 20.4702 32.34 20.4302C32.21 20.3902 32.1 20.3202 32 20.2302C31.88 20.1202 31.81 20.0002 31.77 19.8802C31.73 19.7602 31.71 19.5902 31.71 19.3802V17.2302C31.71 16.5802 32.05 16.2502 32.72 16.2402H34.13C34.78 16.2502 35.11 16.5902 35.12 17.2702V18.1202L32.76 19.0502" fill="#3200FF"/>
<path d="M37.3404 20.4792C37.1804 20.4792 37.0404 20.4692 36.9104 20.4392C36.7704 20.4192 36.6404 20.3492 36.5004 20.2492C36.3604 20.1192 36.2604 19.9792 36.2004 19.8292C36.1404 19.6792 36.1104 19.4992 36.1104 19.3092V17.2992C36.1104 17.1392 36.1204 16.9892 36.1604 16.8692C36.2004 16.7492 36.2704 16.6192 36.3804 16.4992C36.5104 16.3692 36.6404 16.2892 36.7704 16.2492C36.9004 16.2192 37.0504 16.1992 37.2204 16.1992H38.8204V16.4492H37.2504C36.9704 16.4492 36.7603 16.5092 36.6003 16.6192C36.4403 16.7392 36.3503 16.9592 36.3503 17.2592V19.2692C36.3503 19.4092 36.3704 19.5492 36.4104 19.6792C36.4504 19.8092 36.5304 19.9192 36.6304 20.0192C36.7404 20.1092 36.8604 20.1592 36.9704 20.1792C37.0904 20.2092 37.2104 20.2192 37.3404 20.2192H38.8404V20.4692H37.3304" fill="#3200FF"/>
<path d="M42.9603 17.879H40.8603C40.6103 17.879 40.4103 17.959 40.2703 18.109C40.1203 18.259 40.0503 18.469 40.0503 18.739V19.379C40.0503 19.499 40.0603 19.619 40.0903 19.719C40.1203 19.829 40.1803 19.919 40.2903 20.009C40.4703 20.159 40.6703 20.239 40.8903 20.239H42.1603C42.6903 20.239 42.9603 19.949 42.9603 19.399V17.889V17.879ZM43.2103 19.329C43.2103 19.489 43.2003 19.629 43.1803 19.759C43.1503 19.899 43.0803 20.029 42.9703 20.149C42.7503 20.379 42.4803 20.489 42.1503 20.489H40.9003C40.5703 20.489 40.3103 20.389 40.1103 20.199C39.9003 20.009 39.8003 19.739 39.8003 19.399V18.749C39.8103 18.019 40.1703 17.649 40.8903 17.629H42.9703V17.349C42.9703 17.119 42.9003 16.909 42.7703 16.739C42.6803 16.629 42.5803 16.549 42.4703 16.509C42.3503 16.479 42.2203 16.459 42.0803 16.459H39.8103V16.209H41.9703C42.1703 16.209 42.3503 16.219 42.5103 16.249C42.5903 16.269 42.6703 16.299 42.7403 16.349C42.8103 16.389 42.8803 16.459 42.9503 16.539C43.1403 16.789 43.2403 17.079 43.2303 17.399V19.329" fill="#3200FF"/>
<path d="M45.5604 16.4492C44.9804 16.4592 44.6904 16.7792 44.7004 17.4092V20.4792H44.4504V17.4092C44.4404 16.5992 44.8204 16.1992 45.6004 16.1992H45.8804V16.4492H45.5604Z" fill="#3200FF"/>
<path d="M49.8002 16.4605H47.8202C47.6802 16.4605 47.5502 16.4805 47.4302 16.5105C47.3102 16.5405 47.1902 16.6105 47.0802 16.7305C46.9802 16.8405 46.9102 16.9505 46.8802 17.0505C46.8402 17.1605 46.8302 17.2905 46.8302 17.4405V19.4005C46.8302 19.7305 46.9202 19.9505 47.1202 20.0705C47.2102 20.1305 47.3202 20.1705 47.4302 20.1905C47.5502 20.2205 47.6702 20.2405 47.8202 20.2405H48.6902C49.0102 20.2405 49.2802 20.1705 49.4802 20.0205C49.6802 19.8805 49.7902 19.6405 49.8002 19.2905V16.4705V16.4605ZM50.0502 19.3005C50.0302 20.1105 49.6002 20.5105 48.7602 20.4905H47.8302C47.6302 20.4905 47.4602 20.4705 47.3002 20.4405C47.1402 20.4005 46.9902 20.3005 46.8402 20.1505C46.7302 20.0105 46.6602 19.8805 46.6302 19.7305C46.5902 19.5905 46.5702 19.4305 46.5802 19.2605V17.4305C46.5902 16.6105 47.0102 16.2005 47.8202 16.2005H49.7902V14.8105H50.0402V19.2905" fill="#3200FF"/>
<path d="M2.40031 16.0699C2.48031 16.0299 2.56031 16.0099 2.65031 15.9899C2.80031 15.2699 3.44031 14.7299 4.21031 14.7299C4.98031 14.7299 5.62031 15.2699 5.77031 15.9899C6.01031 16.0299 6.20031 16.1299 6.35031 16.2699C6.35031 16.1299 6.35031 15.9999 6.33031 15.8699C6.23031 14.7799 5.32031 13.9199 4.20031 13.9199C3.08031 13.9199 2.12031 14.8299 2.07031 15.9699C2.07031 16.0699 2.07031 16.1699 2.07031 16.2799C2.17031 16.1999 2.28031 16.1299 2.41031 16.0699" fill="#3200FF"/>
<path d="M5.4502 16.2305H2.8902C2.7702 16.2305 2.6402 16.2605 2.5102 16.3205C2.3802 16.3805 2.2802 16.4405 2.2002 16.5205C2.0402 16.7105 1.9602 16.9905 1.9502 17.3605V19.3605C1.9502 19.7305 2.0402 20.0105 2.2002 20.2005C2.2802 20.2805 2.3902 20.3505 2.5102 20.4005C2.6402 20.4605 2.7702 20.4905 2.8902 20.4905H5.4502C6.1102 20.4905 6.4502 20.1205 6.4602 19.4105V17.3305C6.4502 16.6105 6.1102 16.2505 5.4502 16.2505" fill="#3200FF"/>
</g>
<rect x="0.5" y="0.5" width="51" height="35" rx="3.5" stroke="#EAEAEA"/>
<defs>
<clipPath id="clip0_2280_3889">
<rect width="52" height="36" rx="4" fill="white"/>
</clipPath>
</defs>
</svg>
