<svg width="52" height="36" viewBox="0 0 52 36" fill="none" xmlns="http://www.w3.org/2000/svg">
<g clip-path="url(#clip0_2280_4156)">
<rect width="52" height="36" rx="4" fill="white"/>
<path d="M48 0H4C1.79086 0 0 1.79086 0 4V32C0 34.2091 1.79086 36 4 36H48C50.2091 36 52 34.2091 52 32V4C52 1.79086 50.2091 0 48 0Z" fill="white"/>
<path d="M48 0H4C1.79086 0 0 1.79086 0 4V32C0 34.2091 1.79086 36 4 36H48C50.2091 36 52 34.2091 52 32V4C52 1.79086 50.2091 0 48 0Z" fill="#D3D3D3"/>
<path d="M47.3198 0.550781H4.6798C2.53694 0.550781 0.799805 2.28792 0.799805 4.43078V31.5608C0.799805 33.7036 2.53694 35.4408 4.6798 35.4408H47.3198C49.4627 35.4408 51.1998 33.7036 51.1998 31.5608V4.43078C51.1998 2.28792 49.4627 0.550781 47.3198 0.550781Z" fill="white"/>
<path d="M39.1502 11.8806L42.8602 11.2206V25.4506H39.1502V11.8806ZM44.5602 11.8806V25.4406H48.2702V11.2206L44.5602 11.8806ZM33.8802 25.4406H37.5902V15.0406H33.8802V25.4406ZM9.38023 16.5106C8.91023 16.4806 7.82023 16.4106 7.82023 15.4306C7.82023 14.2506 9.38023 14.2506 9.96023 14.2506C10.9902 14.2506 12.3202 14.5606 13.2802 14.8406C13.2802 14.8406 13.8102 15.0306 14.2602 15.2206H14.3002V12.0106L14.2502 11.9906C13.1302 11.6006 11.8202 11.2206 9.40023 11.2206C5.22023 11.2206 3.74023 13.6606 3.74023 15.7406C3.74023 16.9406 4.26023 19.7706 9.04023 20.1006C9.45023 20.1206 10.5202 20.1906 10.5202 21.2006C10.5202 22.0306 9.64023 22.5306 8.16023 22.5306C6.53023 22.5306 4.96023 22.1106 4.00023 21.7206V25.0406C5.43023 25.4206 7.05023 25.6106 8.94023 25.6106C13.0202 25.6106 14.8602 23.3106 14.8602 21.0206C14.8602 18.4306 12.8202 16.7506 9.38023 16.5106ZM31.7902 14.8906C28.3602 15.0006 26.6302 16.5406 26.6302 19.6006V25.4506H30.3702V20.6706C30.3702 18.8406 30.6102 18.0506 32.7802 17.9806V14.9306C32.4002 14.8606 31.7902 14.8806 31.7902 14.8806V14.8906ZM21.7302 15.0306C21.6502 15.2306 21.0502 16.9206 19.6202 18.6506V11.2206L15.7902 11.9706V25.4306H19.6202V21.2706C20.7302 22.9406 21.2802 25.4306 21.2802 25.4306H25.8602C25.4002 23.5406 23.4202 20.0706 23.4202 20.0706C25.2002 17.8206 25.9802 15.4106 26.1102 15.0106H21.7302V15.0306ZM35.7202 14.0406C36.7302 14.0406 37.5502 13.2206 37.5502 12.2206C37.5502 11.2206 36.7302 10.3906 35.7202 10.3906C34.7102 10.3906 33.9002 11.2106 33.9002 12.2206C33.9002 13.2306 34.7202 14.0406 35.7202 14.0406Z" fill="url(#paint0_linear_2280_4156)"/>
</g>
<rect x="0.5" y="0.5" width="51" height="35" rx="3.5" stroke="#EAEAEA"/>
<defs>
<linearGradient id="paint0_linear_2280_4156" x1="3.80203" y1="14.5028" x2="48.3133" y2="14.5028" gradientUnits="userSpaceOnUse">
<stop stop-color="#862166"/>
<stop offset="1" stop-color="#4F2455"/>
</linearGradient>
<clipPath id="clip0_2280_4156">
<rect width="52" height="36" rx="4" fill="white"/>
</clipPath>
</defs>
</svg>
