<svg width="52" height="36" viewBox="0 0 52 36" fill="none" xmlns="http://www.w3.org/2000/svg">
<rect x="0.5" y="0.5" width="51" height="35" rx="3.5" fill="white"/>
<rect x="0.5" y="0.5" width="51" height="35" rx="3.5" stroke="#EAEAEA"/>
<path d="M13.9499 22.8601C13.4099 22.3401 12.7099 22.0801 11.8499 22.0801C10.9899 22.0801 10.2799 22.3501 9.72992 22.9001C9.18992 23.4401 8.91992 24.1101 8.91992 24.9301C8.91992 25.7901 9.18992 26.4801 9.73992 27.0001C10.2899 27.5201 10.9899 27.7801 11.8499 27.7801C12.7099 27.7801 13.3899 27.5101 13.9399 26.9801C14.2199 26.7101 14.4299 26.4101 14.5599 26.0701C14.6999 25.7301 14.7699 25.3501 14.7699 24.9401C14.7699 24.0801 14.4899 23.3901 13.9399 22.8701L13.9499 22.8601ZM13.0699 26.1701C12.7799 26.5001 12.3699 26.6601 11.8499 26.6601C11.3899 26.6601 10.9699 26.5001 10.6499 26.1701C10.3299 25.8301 10.1999 25.4101 10.1999 24.9301C10.1999 24.4201 10.3499 24.0001 10.6699 23.6801C10.9799 23.3601 11.3799 23.2001 11.8499 23.2001C12.3199 23.2001 12.7099 23.3601 13.0299 23.6801C13.3499 24.0001 13.4999 24.4101 13.4999 24.9301C13.4999 25.4501 13.3599 25.8401 13.0699 26.1801V26.1701Z" fill="#1D1D1B"/>
<path d="M18.4397 24.5616H16.8797V23.3016H18.6797C18.7697 23.3016 18.8397 23.2316 18.8397 23.1416V22.3416C18.8397 22.2516 18.7697 22.1816 18.6797 22.1816H15.8397C15.7497 22.1816 15.6797 22.2516 15.6797 22.3416V27.5316C15.6797 27.6216 15.7497 27.6916 15.8397 27.6916H16.7197C16.8097 27.6916 16.8797 27.6216 16.8797 27.5316V25.6816H18.4397C18.5297 25.6816 18.5997 25.6116 18.5997 25.5216V24.7216C18.5997 24.6316 18.5297 24.5616 18.4397 24.5616Z" fill="#1D1D1B"/>
<path d="M21.0596 23.3016V27.5316C21.0596 27.6216 21.1296 27.6916 21.2196 27.6916H22.0996C22.1896 27.6916 22.2596 27.6216 22.2596 27.5316V23.3016H23.7796C23.8696 23.3016 23.9396 23.2316 23.9396 23.1416V22.3416C23.9396 22.2516 23.8696 22.1816 23.7796 22.1816H19.5496C19.4596 22.1816 19.3896 22.2516 19.3896 22.3416V23.1416C19.3896 23.2316 19.4596 23.3016 19.5496 23.3016H21.0696H21.0596Z" fill="#1D1D1B"/>
<path d="M26.0498 25.4108C26.3298 25.5408 26.5298 25.6708 26.6798 25.8008C26.8198 25.9308 26.8998 26.0608 26.8998 26.1908C26.8998 26.3308 26.8498 26.4508 26.7398 26.5408C26.6398 26.6208 26.4998 26.6608 26.3298 26.6608C26.1098 26.6608 25.8798 26.6108 25.6598 26.5008C25.4998 26.4208 25.3698 26.3308 25.2498 26.2108C25.1798 26.1508 25.0798 26.1508 25.0198 26.2208L24.5198 26.8108C24.4798 26.8608 24.4698 26.9408 24.5098 26.9908C24.6398 27.2008 24.8598 27.3808 25.1598 27.5108C25.5198 27.6708 25.8898 27.7508 26.2898 27.7508C26.8298 27.7508 27.2798 27.6008 27.6298 27.3008C27.9298 27.0708 28.1198 26.7408 28.1598 26.3708C28.1998 26.0008 28.1398 25.6808 27.9998 25.4208C27.8898 25.2108 27.7498 25.0408 27.5798 24.9308C27.4098 24.8108 27.2298 24.6908 27.0298 24.5908C26.8298 24.4808 26.6398 24.4008 26.4698 24.3308C26.2998 24.2508 26.1498 24.1608 26.0298 24.0408C25.9098 23.9208 25.8498 23.7808 25.8498 23.6308C25.8498 23.4908 25.8998 23.3808 26.0098 23.3008C26.1198 23.2208 26.2698 23.1808 26.4498 23.1808C26.6298 23.1808 26.7898 23.2108 26.9098 23.2608C26.9898 23.3008 27.0698 23.3508 27.1698 23.4208C27.2398 23.4808 27.3398 23.4608 27.3998 23.3908L27.8598 22.7408C27.9098 22.6708 27.8998 22.5808 27.8298 22.5308C27.4698 22.2108 26.9698 22.0508 26.3398 22.0508C25.8098 22.0508 25.3798 22.2008 25.0598 22.5108C24.7398 22.8208 24.5798 23.1908 24.5798 23.6208C24.5798 23.8208 24.5998 24.0008 24.6698 24.1708C24.7398 24.3408 24.8198 24.4808 24.8998 24.6008C24.9898 24.7108 25.1098 24.8308 25.2498 24.9408C25.3998 25.0508 25.5298 25.1308 25.6398 25.1908C25.7598 25.2508 25.8998 25.3108 26.0598 25.3808L26.0498 25.4108Z" fill="#1D1D1B"/>
<path d="M31.4297 27.5702L32.5697 24.0002L33.7297 27.5702C33.7497 27.6302 33.8097 27.6802 33.8797 27.6802H34.8097C34.8797 27.6802 34.9397 27.6302 34.9597 27.5702L36.4197 22.3802C36.4497 22.2802 36.3697 22.1802 36.2697 22.1802H35.4497C35.3797 22.1802 35.3197 22.2302 35.2997 22.2902L34.3497 25.8002L33.2797 22.2802C33.2597 22.2102 33.1997 22.1702 33.1297 22.1702H32.1397C32.0697 22.1702 32.0097 22.2202 31.9897 22.2802L30.9497 25.8002L30.0097 22.2802C29.9897 22.2102 29.9297 22.1602 29.8597 22.1602H28.8297C28.7297 22.1602 28.6497 22.2602 28.6797 22.3602L30.2097 27.5502C30.2297 27.6202 30.2897 27.6602 30.3597 27.6602H31.2897C31.3597 27.6602 31.4197 27.6202 31.4397 27.5502L31.4297 27.5702Z" fill="#1D1D1B"/>
<path d="M38.3598 22.1816H37.4798C37.3915 22.1816 37.3198 22.2533 37.3198 22.3416V27.5216C37.3198 27.61 37.3915 27.6816 37.4798 27.6816H38.3598C38.4482 27.6816 38.5198 27.61 38.5198 27.5216V22.3416C38.5198 22.2533 38.4482 22.1816 38.3598 22.1816Z" fill="#1D1D1B"/>
<path d="M41.1299 25.4108C41.4099 25.5408 41.6099 25.6708 41.7599 25.8008C41.8999 25.9308 41.9799 26.0608 41.9799 26.1908C41.9799 26.3308 41.9299 26.4508 41.8199 26.5408C41.7199 26.6208 41.5799 26.6608 41.4099 26.6608C41.1899 26.6608 40.9599 26.6108 40.7399 26.5008C40.5799 26.4208 40.4499 26.3308 40.3299 26.2108C40.2599 26.1508 40.1599 26.1508 40.0999 26.2208L39.5999 26.8108C39.5599 26.8608 39.5499 26.9408 39.5899 26.9908C39.7199 27.2008 39.9399 27.3808 40.2399 27.5108C40.5999 27.6708 40.9699 27.7508 41.3699 27.7508C41.9099 27.7508 42.3599 27.6008 42.7099 27.3008L42.7599 27.2508C43.0599 26.9708 43.2399 26.5808 43.2399 26.1708C43.2399 25.8808 43.1899 25.6308 43.0699 25.4208C42.9599 25.2108 42.8199 25.0408 42.6499 24.9308C42.4799 24.8108 42.2999 24.6908 42.0999 24.5908C41.8999 24.4808 41.7099 24.4008 41.5399 24.3308C41.3699 24.2508 41.2199 24.1608 41.0999 24.0408C40.9799 23.9208 40.9199 23.7808 40.9199 23.6308C40.9199 23.4908 40.9699 23.3808 41.0799 23.3008C41.1899 23.2208 41.3399 23.1808 41.5199 23.1808C41.6999 23.1808 41.8599 23.2108 41.9799 23.2608C42.0599 23.3008 42.1399 23.3508 42.2399 23.4208C42.3099 23.4808 42.4099 23.4608 42.4699 23.3908L42.9299 22.7408C42.9799 22.6708 42.9699 22.5808 42.8999 22.5308C42.5399 22.2108 42.0399 22.0508 41.4099 22.0508C40.8799 22.0508 40.4499 22.2008 40.1299 22.5108C39.8099 22.8208 39.6499 23.1908 39.6499 23.6208C39.6499 23.8208 39.6699 24.0008 39.7399 24.1708C39.8099 24.3408 39.8899 24.4808 39.9699 24.6008C40.0599 24.7108 40.1799 24.8308 40.3199 24.9408C40.4699 25.0508 40.5999 25.1308 40.7099 25.1908C40.8299 25.2508 40.9699 25.3108 41.1299 25.3808V25.4108Z" fill="#1D1D1B"/>
<path d="M45.3599 25.4108C45.6399 25.5408 45.8399 25.6708 45.9899 25.8008C46.1299 25.9308 46.2099 26.0608 46.2099 26.1908C46.2099 26.3308 46.1599 26.4508 46.0499 26.5408C45.9499 26.6208 45.8099 26.6608 45.6399 26.6608C45.4199 26.6608 45.1899 26.6108 44.9699 26.5008C44.8099 26.4208 44.6799 26.3308 44.5599 26.2108C44.4899 26.1508 44.3899 26.1508 44.3299 26.2208L43.8299 26.8108C43.7899 26.8608 43.7799 26.9408 43.8199 26.9908C43.9499 27.2008 44.1699 27.3808 44.4699 27.5108C44.8299 27.6708 45.1999 27.7508 45.5999 27.7508C46.1399 27.7508 46.5899 27.6008 46.9399 27.3008L46.9899 27.2508C47.2899 26.9708 47.4699 26.5808 47.4699 26.1708C47.4699 25.8808 47.4199 25.6308 47.2999 25.4208C47.1899 25.2108 47.0499 25.0408 46.8799 24.9308C46.7099 24.8108 46.5299 24.6908 46.3299 24.5908C46.1299 24.4808 45.9399 24.4008 45.7699 24.3308C45.5999 24.2508 45.4499 24.1608 45.3299 24.0408C45.2099 23.9208 45.1499 23.7808 45.1499 23.6308C45.1499 23.4908 45.1999 23.3808 45.3099 23.3008C45.4199 23.2208 45.5699 23.1808 45.7499 23.1808C45.9299 23.1808 46.0899 23.2108 46.2099 23.2608C46.2899 23.3008 46.3699 23.3508 46.4699 23.4208C46.5399 23.4808 46.6399 23.4608 46.6999 23.3908L47.1599 22.7408C47.2099 22.6708 47.1999 22.5808 47.1299 22.5308C46.7699 22.2108 46.2699 22.0508 45.6399 22.0508C45.1099 22.0508 44.6799 22.2008 44.3599 22.5108C44.0399 22.8208 43.8799 23.1908 43.8799 23.6208C43.8799 23.8208 43.8999 24.0008 43.9699 24.1708C44.0399 24.3408 44.1199 24.4808 44.1999 24.6008C44.2899 24.7108 44.4099 24.8308 44.5499 24.9408C44.6999 25.0508 44.8299 25.1308 44.9399 25.1908C45.0599 25.2508 45.1999 25.3108 45.3599 25.3808V25.4108Z" fill="#1D1D1B"/>
<path d="M6.08988 25.4108C6.36988 25.5408 6.56988 25.6708 6.71988 25.8008C6.85988 25.9308 6.93988 26.0608 6.93988 26.1908C6.93988 26.3308 6.88988 26.4508 6.77988 26.5408C6.67988 26.6208 6.53988 26.6608 6.36988 26.6608C6.14988 26.6608 5.91988 26.6108 5.69988 26.5008C5.53988 26.4208 5.40988 26.3308 5.28988 26.2108C5.21988 26.1508 5.11988 26.1508 5.05988 26.2208L4.55988 26.8108C4.51988 26.8608 4.50988 26.9408 4.54988 26.9908C4.67988 27.2008 4.89988 27.3808 5.19988 27.5108C5.55988 27.6708 5.92988 27.7508 6.32988 27.7508C6.86988 27.7508 7.31988 27.6008 7.66988 27.3008L7.71988 27.2508C8.01988 26.9708 8.19988 26.5808 8.20988 26.1708C8.20988 25.8808 8.15988 25.6308 8.03988 25.4208C7.92988 25.2108 7.78988 25.0408 7.61988 24.9308C7.44988 24.8108 7.26988 24.6908 7.06988 24.5908C6.86988 24.4808 6.67988 24.4008 6.50988 24.3308C6.33988 24.2508 6.18988 24.1608 6.06988 24.0408C5.94988 23.9208 5.88988 23.7808 5.88988 23.6308C5.88988 23.4908 5.93988 23.3808 6.04988 23.3008C6.15988 23.2208 6.30988 23.1808 6.48988 23.1808C6.66988 23.1808 6.82988 23.2108 6.94988 23.2608C7.02988 23.3008 7.10988 23.3508 7.20988 23.4208C7.27988 23.4808 7.37988 23.4608 7.43988 23.3908L7.89988 22.7408C7.94988 22.6708 7.93988 22.5808 7.86988 22.5308C7.50988 22.2108 7.00988 22.0508 6.37988 22.0508C5.84988 22.0508 5.41988 22.2008 5.09988 22.5108C4.77988 22.8208 4.61988 23.1908 4.61988 23.6208C4.61988 23.8208 4.63988 24.0008 4.70988 24.1708C4.77988 24.3408 4.85988 24.4808 4.93988 24.6008C5.02988 24.7108 5.14988 24.8308 5.28988 24.9408C5.43988 25.0508 5.56988 25.1308 5.67988 25.1908C5.79988 25.2508 5.93988 25.3108 6.09988 25.3808L6.08988 25.4108Z" fill="#1D1D1B"/>
<path d="M25.3799 12.2105L22.3299 15.2605L20.4699 13.4005L22.3299 11.5405L22.8799 12.0905C23.0199 12.2305 23.1999 12.3005 23.3899 12.3005C23.5799 12.3005 23.7699 12.2205 23.8999 12.0905L24.6799 11.3105C24.9599 11.0305 24.9599 10.5705 24.6799 10.2905L22.8299 8.44047C22.6899 8.30047 22.5099 8.23047 22.3199 8.23047C22.1299 8.23047 21.9399 8.31047 21.8099 8.44047L17.3599 12.8905C17.0799 13.1705 17.0799 13.6305 17.3599 13.9105L21.8099 18.3605C21.9499 18.5005 22.1299 18.5705 22.3199 18.5705C22.5099 18.5705 22.6999 18.5005 22.8299 18.3605L26.6499 14.5405L27.1799 14.0105L25.3699 12.2005L25.3799 12.2105Z" fill="#FAB900"/>
<path d="M34.6297 13.9109L30.1797 18.3609C30.0397 18.5009 29.8597 18.5709 29.6697 18.5709C29.4797 18.5709 29.2897 18.4909 29.1597 18.3609L27.3097 16.5109C27.0297 16.2309 27.0297 15.7709 27.3097 15.4909L28.0897 14.7009C28.2297 14.5709 28.4097 14.4909 28.5997 14.4909C28.7897 14.4909 28.9797 14.5709 29.1097 14.7009L29.6297 15.2209L29.6597 15.2509L31.5197 13.3909L29.6597 11.5309L26.8997 14.2909C26.8997 14.2909 26.8797 14.3109 26.8697 14.3209C26.6297 14.5509 26.3297 14.6609 25.9997 14.6609C25.6597 14.6609 25.3397 14.5309 25.0997 14.2809C24.8597 14.0409 24.7197 13.7209 24.7197 13.3809C24.7197 13.0409 24.8397 12.7509 25.0597 12.5109C25.0597 12.5009 25.0797 12.4909 25.0897 12.4809L25.1097 12.4609L29.1497 8.42094C29.2897 8.28094 29.4697 8.21094 29.6597 8.21094C29.8497 8.21094 30.0397 8.29094 30.1697 8.42094L34.6197 12.8709C34.8997 13.1509 34.8997 13.6109 34.6197 13.8909L34.6297 13.9109Z" fill="#E20613"/>
</svg>
