<svg width="20" height="20" viewBox="0 0 20 20" fill="none" xmlns="http://www.w3.org/2000/svg">
<rect width="20" height="20" rx="10" fill="#74ACDF"/>
<path d="M5 11.0833V12.3333H6.01562L5 15.0417H6.45833L7.47396 12.3333H10V11.0833H7.94271L8.48958 9.625H10V8.375H8.95833L10 5.45833V4H9.16667L7.5 8.375H5V9.625H7.03125L6.48437 11.0833H5Z" fill="white"/>
<path d="M15 11.0833V12.3333H13.9844L15 15.0417H13.5417L12.526 12.3333H10V11.0833H12.0573L11.5104 9.625H10V8.375H11.0417L10 5.45833V4H10.8333L12.5 8.375H15V9.625H12.9687L13.5156 11.0833H15Z" fill="white"/>
</svg>
