<svg width="20" height="20" viewBox="0 0 20 20" fill="none" xmlns="http://www.w3.org/2000/svg">
<rect width="20" height="20" rx="10" fill="#012169"/>
<path fill-rule="evenodd" clip-rule="evenodd" d="M9.04353 3.5C9.80302 3.5 10.5597 3.5 11.3192 3.5C11.2745 4.01377 11.2271 4.53033 11.1852 5.0441C12.0703 5.10833 12.9331 5.39313 13.7094 5.81476C13.3743 6.65801 13.0364 7.50127 12.6986 8.34452C12.0452 7.78887 11.1852 7.48172 10.328 7.49289C10.113 7.49848 9.88958 7.54036 9.71088 7.66322C9.5936 7.74419 9.50704 7.86984 9.48191 8.00945C9.46237 8.12114 9.46795 8.24679 9.52938 8.34731C9.59919 8.459 9.72204 8.52602 9.8449 8.5679C10.0962 8.65725 10.367 8.66284 10.6295 8.69076C11.2466 8.76615 11.8665 8.87225 12.4501 9.09284C12.9024 9.26596 13.3352 9.52564 13.6451 9.90538C13.9383 10.2544 14.1086 10.6956 14.1729 11.1479C14.2483 11.6701 14.2259 12.2118 14.064 12.7199C13.9383 13.1276 13.7233 13.5074 13.4441 13.8285C12.8661 14.4986 12.0173 14.9007 11.1461 15.004C11.174 15.5541 11.2075 16.1013 11.2382 16.6514C10.5178 16.6514 9.80023 16.6514 9.08262 16.6514C9.11055 16.1069 9.14684 15.5624 9.17197 15.018C8.59398 14.9984 8.02158 14.87 7.48267 14.6661C6.96053 14.4679 6.46351 14.2054 6 13.8983C6.34065 13.0215 6.6813 12.1447 7.02475 11.2652C7.41287 11.5919 7.82612 11.8962 8.27846 12.128C8.76431 12.3765 9.30321 12.5357 9.85049 12.5412C10.1102 12.544 10.3782 12.5301 10.6239 12.4407C10.7747 12.3849 10.9227 12.2872 10.9897 12.1336C11.0595 11.9716 11.0539 11.7678 10.9478 11.6226C10.8724 11.5249 10.7663 11.4579 10.6546 11.4104C10.5039 11.349 10.3475 11.3155 10.1883 11.2903C9.60198 11.1954 9.01282 11.1172 8.44599 10.9329C7.99086 10.7849 7.5469 10.5783 7.18391 10.26C6.95494 10.0617 6.76507 9.81882 6.63104 9.54518C6.43 9.13752 6.35461 8.6768 6.3602 8.22446C6.3602 7.71906 6.46351 7.20529 6.71481 6.76133C6.93261 6.36483 7.26488 6.04093 7.63904 5.79242C8.09138 5.49365 8.59678 5.28982 9.11055 5.12508C9.08821 4.58339 9.06587 4.04169 9.04353 3.5Z" fill="white"/>
</svg>
