<svg width="20" height="20" viewBox="0 0 20 20" fill="none" xmlns="http://www.w3.org/2000/svg">
<rect width="20" height="20" rx="10" fill="#17AF81"/>
<path d="M4 13.1914V6.51042H7.44076C8.07878 6.51042 8.56641 6.5651 8.90365 6.67448C9.24089 6.78385 9.5128 6.98741 9.7194 7.28516C9.926 7.57986 10.0293 7.93989 10.0293 8.36523C10.0293 8.73589 9.9503 9.05642 9.79232 9.32682C9.63433 9.59418 9.4171 9.81142 9.14063 9.97852C8.96441 10.0849 8.72287 10.173 8.41602 10.2428C8.66211 10.3249 8.84136 10.4069 8.95378 10.4889C9.02973 10.5436 9.13911 10.6606 9.2819 10.8398C9.42773 11.0191 9.52496 11.1573 9.57357 11.2546L10.5716 13.1914H8.23828L7.13542 11.1497C6.99566 10.8854 6.87109 10.7138 6.76172 10.6348C6.61285 10.5315 6.44423 10.4798 6.25586 10.4798H6.07357V13.1914H4ZM6.07357 9.21745H6.94401C7.03819 9.21745 7.22049 9.18707 7.49089 9.1263C7.6276 9.09896 7.7385 9.02908 7.82357 8.91667C7.91168 8.80425 7.95573 8.67513 7.95573 8.5293C7.95573 8.31359 7.88737 8.148 7.75065 8.03255C7.61393 7.9171 7.35721 7.85938 6.98047 7.85938H6.07357V9.21745Z" fill="#FEDF00"/>
<path d="M16.25 8.08268L14.5547 8.35156C14.4696 8.13585 14.3921 7.98698 14.3223 7.90495C14.2554 7.81988 14.143 7.73481 13.985 7.64974V8.9668C14.9086 9.21289 15.5254 9.47266 15.8353 9.74609C16.2454 10.1137 16.4505 10.5801 16.4505 11.1452C16.4505 11.4763 16.3761 11.7802 16.2272 12.0566C16.0814 12.3331 15.893 12.564 15.6621 12.7493C15.4342 12.9347 15.1912 13.0699 14.9329 13.1549C14.6747 13.237 14.3587 13.2856 13.985 13.3008V14.1621H13.3197V13.3008C12.873 13.2613 12.51 13.1899 12.2305 13.0866C11.954 12.9803 11.714 12.8344 11.5104 12.6491C11.3099 12.4638 11.1549 12.2648 11.0456 12.0521C10.9362 11.8364 10.8542 11.5766 10.7995 11.2728L12.6406 11.0586C12.6953 11.3594 12.7682 11.5766 12.8594 11.7103C12.9536 11.844 13.107 11.9625 13.3197 12.0658V10.457C12.7059 10.2869 12.27 10.1395 12.0117 10.015C11.7565 9.89041 11.5347 9.69141 11.3464 9.41797C11.158 9.14149 11.0638 8.80577 11.0638 8.41081C11.0638 7.87001 11.2522 7.41884 11.6289 7.05729C12.0087 6.69271 12.5723 6.49067 13.3197 6.45117V6H13.985V6.45117C14.6656 6.49371 15.1851 6.65473 15.5436 6.93424C15.9052 7.21376 16.1406 7.59657 16.25 8.08268ZM13.3197 7.62695C13.1252 7.69076 12.99 7.76975 12.9141 7.86393C12.8381 7.95812 12.8001 8.06901 12.8001 8.19661C12.8001 8.3303 12.8381 8.44727 12.9141 8.54753C12.9931 8.64475 13.1283 8.72678 13.3197 8.79362V7.62695ZM13.985 12.1113C14.2433 12.0536 14.4316 11.9594 14.5501 11.8288C14.6717 11.6951 14.7324 11.5462 14.7324 11.3822C14.7324 11.2394 14.6808 11.1087 14.5775 10.9902C14.4772 10.8687 14.2797 10.7563 13.985 10.653V12.1113Z" fill="#FEDF00"/>
</svg>
