<svg width="20" height="20" viewBox="0 0 20 20" fill="none" xmlns="http://www.w3.org/2000/svg">
<rect width="20" height="20" rx="10" fill="#F7931A"/>
<path fill-rule="evenodd" clip-rule="evenodd" d="M9.66037 3.93131C9.6508 3.9447 9.54132 4.32537 9.41705 4.77722L9.19106 5.59876L8.1511 5.32614C7.35222 5.11673 7.10552 5.05869 7.08689 5.07581C7.07356 5.08808 6.99932 5.33375 6.92197 5.62175L6.78133 6.14536L7.26136 6.28141C7.81179 6.43737 7.88401 6.47953 7.97345 6.69692C8.05024 6.88358 8.06602 6.81318 7.37003 9.38597L6.72106 11.7848L6.64593 11.8499C6.50494 11.9722 6.47088 11.9722 5.98409 11.8503C5.50154 11.7294 5.50225 11.7294 5.44498 11.8684C5.41821 11.9324 5.38989 11.9958 5.36005 12.0585C5.3355 12.1093 5.2862 12.2162 5.25059 12.2961C5.21498 12.3759 5.14019 12.5413 5.08442 12.6637C5.02871 12.7861 4.9866 12.8923 4.99092 12.8998C4.99524 12.9073 5.46485 13.0383 6.03451 13.1909L7.07026 13.4684L6.84231 14.3417L6.61441 15.2149L7.63234 15.4877L7.8695 14.6459L8.10665 13.8042L8.52488 13.9099L8.94315 14.0157L8.72088 14.8677L8.49866 15.7198L9.51659 15.9926L9.75639 15.141L9.99618 14.2893L10.0544 14.2888C10.0864 14.2885 10.1664 14.3015 10.2323 14.3178C10.6403 14.4187 11.4744 14.4755 11.8622 14.429C12.8266 14.3133 13.396 13.8358 13.7658 12.8327C14.1328 11.8373 13.8774 11.0417 13.0121 10.4843C12.823 10.3624 12.822 10.3672 13.0508 10.2914C13.4719 10.1517 13.7544 9.90842 13.9834 9.48819C14.045 9.37527 14.2092 8.7801 14.2061 8.6812C14.2049 8.64385 14.2063 8.55649 14.2093 8.48706C14.2365 7.83846 13.7503 7.16692 12.9554 6.75505C12.7678 6.65783 12.4725 6.52328 12.2518 6.43438L12.1366 6.38801L12.3521 5.54044L12.5676 4.69288L12.055 4.54933L11.5424 4.40578L11.3147 5.23306L11.0869 6.06033L10.2639 5.83981L10.4802 5.00986L10.6965 4.17992L10.1871 4.04344C9.79947 3.93956 9.67358 3.91274 9.66037 3.93131ZM10.9442 7.35771C11.6293 7.6053 11.9736 7.87234 12.1084 8.26073C12.1787 8.46316 12.1091 8.9418 11.9887 9.08404C11.9653 9.11162 11.927 9.15775 11.9035 9.18656C11.7778 9.34045 11.3623 9.4966 11.0836 9.49463L10.9446 9.4937C10.6455 9.49191 9.66209 9.29845 9.46062 9.20181L9.38406 9.16505L9.66652 8.13341L9.94898 7.10178L10.0715 7.12097C10.2825 7.15407 10.6762 7.26082 10.9442 7.35771ZM10.3528 10.5762C11.5683 11.0288 11.9618 11.5424 11.6753 12.302C11.421 12.9762 10.4277 13.0967 8.85865 12.6437L8.49236 12.538L9.10751 10.2422L9.24083 10.2644C9.50143 10.3078 10.0303 10.4562 10.3528 10.5762Z" fill="white"/>
</svg>
