<svg width="20" height="20" viewBox="0 0 20 20" fill="none" xmlns="http://www.w3.org/2000/svg">
<rect width="20" height="20" rx="10" fill="white"/>
<path d="M12.513 15.1781C12.3453 15.2984 12.1375 15.406 11.8896 15.5008C11.6416 15.5919 11.3518 15.6685 11.02 15.7305V16.8406H9.30283V15.7578C8.68669 15.7031 8.16898 15.601 7.74971 15.4516C7.33408 15.3021 7.02054 15.107 6.80908 14.8664C6.56117 14.5747 6.37158 14.2813 6.24033 13.9859C6.10908 13.687 6.04346 13.3862 6.04346 13.0836V12.9633H8.07783V13.0836C8.07783 13.306 8.09971 13.4992 8.14346 13.6633C8.18721 13.8273 8.25465 13.9586 8.3458 14.057C8.44424 14.1701 8.57002 14.2648 8.72314 14.3414C8.87992 14.4143 9.07314 14.4745 9.30283 14.5219V10.918L9.08955 10.8359C7.98122 10.3875 7.27575 9.96823 6.97314 9.57813C6.59762 9.08229 6.40986 8.54635 6.40986 7.97031C6.40986 7.50365 6.52471 7.06797 6.75439 6.66328C6.98408 6.25859 7.32679 5.91042 7.78252 5.61875C8.12887 5.39635 8.63564 5.23411 9.30283 5.13203V4H11.02V5.11563C11.5013 5.17031 11.906 5.25964 12.2341 5.38359C12.5622 5.50391 12.8101 5.65521 12.9778 5.8375C13.1747 6.06719 13.326 6.29505 13.4317 6.52109C13.5375 6.74714 13.5903 6.96406 13.5903 7.17188V7.29766H11.5614V7.17188C11.5614 6.78177 11.381 6.51563 11.02 6.37344V9.98281L11.381 10.1086C11.9497 10.331 12.3927 10.5516 12.7099 10.7703C13.1911 11.0948 13.4919 11.3956 13.6122 11.6727C13.7763 12.0518 13.8583 12.4036 13.8583 12.7281C13.8583 12.9177 13.8255 13.1346 13.7599 13.3789C13.6942 13.6195 13.6104 13.851 13.5083 14.0734C13.4135 14.2594 13.2804 14.4471 13.1091 14.6367C12.9414 14.8263 12.7427 15.0068 12.513 15.1781ZM8.59736 8.75234C8.60466 8.76693 8.61012 8.77787 8.61377 8.78516C8.62106 8.7888 8.61559 8.77786 8.59736 8.75234ZM8.39502 7.9375C8.39502 8.28385 8.47341 8.56641 8.63018 8.78516C8.78695 9.00026 9.01117 9.18073 9.30283 9.32656V6.37344C9.06585 6.47917 8.86351 6.64505 8.6958 6.87109C8.49528 7.13724 8.39502 7.49271 8.39502 7.9375ZM11.8731 12.9141C11.8731 12.5932 11.8057 12.3271 11.6708 12.1156C11.5396 11.9005 11.3226 11.7182 11.02 11.5688V14.4453C11.0856 14.4161 11.1494 14.3852 11.2114 14.3523C11.2771 14.3159 11.3354 14.2794 11.3864 14.243C11.4375 14.1956 11.494 14.1227 11.556 14.0242C11.6216 13.9221 11.6836 13.8018 11.7419 13.6633C11.782 13.5648 11.813 13.4518 11.8349 13.3242C11.8604 13.193 11.8731 13.0563 11.8731 12.9141Z" fill="#D9304E"/>
</svg>
