<svg width="20" height="20" viewBox="0 0 20 20" fill="none" xmlns="http://www.w3.org/2000/svg">
<rect width="20" height="20" rx="10" fill="#0F218B"/>
<path d="M13.8563 15.8827L13.5323 14.4114C13.5139 14.3248 13.4676 14.2601 13.3934 14.217C13.3132 14.1738 13.233 14.1678 13.1529 14.1986L13.1065 14.217L12.9953 14.2448C12.9459 14.2569 12.8889 14.2709 12.8241 14.2863C12.7593 14.3018 12.6839 14.3171 12.5974 14.3326C12.5113 14.348 12.4199 14.362 12.3245 14.3743C12.2289 14.3864 12.1257 14.3974 12.0146 14.4067C11.9034 14.4158 11.7925 14.4205 11.6813 14.4205C10.8977 14.4205 10.1928 14.2092 9.56665 13.7866C8.94041 13.3639 8.47922 12.7916 8.18312 12.0699H11.7644C11.8324 12.0699 11.8941 12.0469 11.9494 12.0005C12.0052 11.9543 12.0391 11.8973 12.0512 11.8292L12.2733 10.7927C12.2919 10.7004 12.2733 10.617 12.2179 10.5429C12.1562 10.4688 12.0789 10.4317 11.9865 10.4317H7.73898C7.72047 10.0122 7.72047 9.68834 7.73898 9.46001H12.2551C12.4218 9.46001 12.5204 9.37988 12.5512 9.21947L12.7733 8.16445C12.7917 8.0781 12.7705 7.99797 12.7085 7.92388C12.6532 7.84984 12.5761 7.81266 12.4774 7.81266H8.1462C8.45468 7.12169 8.91736 6.57879 9.5344 6.18392C10.1514 5.78895 10.8485 5.59158 11.6259 5.59158C11.6506 5.57927 11.7416 5.58238 11.8988 5.60085C12.0561 5.61927 12.1457 5.62705 12.1672 5.62393C12.1885 5.62089 12.269 5.63019 12.4077 5.65165C12.5466 5.67324 12.616 5.68406 12.616 5.68406L12.778 5.71641C12.8244 5.72575 12.8598 5.73333 12.8845 5.73959L12.9215 5.74879C13.0016 5.77359 13.0755 5.76581 13.1436 5.72575C13.2115 5.68552 13.2548 5.62546 13.2733 5.54526L13.6713 4.07383C13.6897 3.9936 13.6804 3.91957 13.6436 3.85173C13.588 3.77756 13.5262 3.73131 13.4583 3.71286C12.8908 3.57099 12.2921 3.5 11.6629 3.5C10.2808 3.5 9.04546 3.89497 7.95648 4.68457C6.86753 5.47425 6.11633 6.51701 5.70295 7.81257H4.7961C4.70969 7.81257 4.6388 7.84028 4.58324 7.89581C4.52784 7.95127 4.5 8.02225 4.5 8.10867V9.16368C4.5 9.25003 4.52775 9.32102 4.58324 9.37642C4.63883 9.43201 4.70982 9.45966 4.7961 9.45966H5.41618C5.39755 9.75589 5.3946 10.0796 5.40685 10.4315H4.7961C4.71591 10.4315 4.64651 10.4607 4.58791 10.5193C4.52933 10.5779 4.5 10.6473 4.5 10.7274V11.7732C4.5 11.8536 4.52933 11.9228 4.58791 11.9816C4.64654 12.0402 4.71591 12.0692 4.7961 12.0692H5.6753C6.06398 13.4327 6.79822 14.5171 7.87791 15.3222C8.95765 16.1276 10.2193 16.53 11.6629 16.53C11.7803 16.53 11.899 16.5271 12.0193 16.5207C12.1399 16.5145 12.2523 16.5052 12.3572 16.493C12.462 16.4807 12.5654 16.467 12.6672 16.4515C12.769 16.4359 12.8616 16.4208 12.9448 16.4051C13.0281 16.3898 13.1068 16.3744 13.1807 16.3591C13.2548 16.3434 13.3211 16.3267 13.3798 16.308C13.4384 16.2898 13.4876 16.2758 13.5278 16.2667C13.568 16.2574 13.6004 16.2464 13.6249 16.2343L13.6712 16.225C13.7392 16.2003 13.7916 16.1555 13.8285 16.0906C13.8656 16.0262 13.8747 15.9567 13.8563 15.8827Z" fill="#FFFF00"/>
</svg>
