<svg width="24" height="24" viewBox="0 0 24 24" fill="none" xmlns="http://www.w3.org/2000/svg">
<rect width="24" height="24" rx="12" fill="#94881F"/>
<path d="M16.3563 17.8826L16.0323 16.4112C16.0139 16.3247 15.9676 16.2599 15.8934 16.2169C15.8132 16.1736 15.733 16.1676 15.6529 16.1985L15.6065 16.2169L15.4953 16.2446C15.4459 16.2568 15.3889 16.2708 15.3241 16.2862C15.2593 16.3016 15.1839 16.3169 15.0974 16.3325C15.0113 16.3479 14.9199 16.3619 14.8245 16.3742C14.7289 16.3863 14.6257 16.3973 14.5146 16.4066C14.4034 16.4157 14.2925 16.4203 14.1813 16.4203C13.3977 16.4203 12.6928 16.2091 12.0666 15.7865C11.4404 15.3637 10.9792 14.7915 10.6831 14.0698H14.2644C14.3324 14.0698 14.3941 14.0467 14.4494 14.0003C14.5052 13.9542 14.5391 13.8972 14.5512 13.8291L14.7733 12.7926C14.7919 12.7003 14.7733 12.6169 14.7179 12.5428C14.6562 12.4687 14.5789 12.4316 14.4865 12.4316H10.239C10.2205 12.0121 10.2205 11.6882 10.239 11.4599H14.7551C14.9218 11.4599 15.0204 11.3798 15.0512 11.2193L15.2733 10.1643C15.2917 10.078 15.2705 9.99785 15.2085 9.92375C15.1532 9.84972 15.0761 9.81254 14.9774 9.81254H10.6462C10.9547 9.12157 11.4174 8.57867 12.0344 8.1838C12.6514 7.78883 13.3485 7.59146 14.1259 7.59146C14.1506 7.57914 14.2416 7.58226 14.3988 7.60073C14.5561 7.61914 14.6457 7.62692 14.6672 7.62381C14.6885 7.62076 14.769 7.63007 14.9077 7.65153C15.0466 7.67311 15.116 7.68394 15.116 7.68394L15.278 7.71629C15.3244 7.72562 15.3598 7.73321 15.3845 7.73946L15.4215 7.74867C15.5016 7.77347 15.5755 7.76569 15.6436 7.72562C15.7115 7.6854 15.7548 7.62533 15.7733 7.54514L16.1713 6.0737C16.1897 5.99348 16.1804 5.91945 16.1436 5.8516C16.088 5.77744 16.0262 5.73118 15.9583 5.71274C15.3908 5.57086 14.7921 5.49988 14.1629 5.49988C12.7808 5.49988 11.5455 5.89484 10.4565 6.68445C9.36753 7.47412 8.61633 8.51688 8.20295 9.81244H7.2961C7.20969 9.81244 7.1388 9.84016 7.08324 9.89568C7.02784 9.95114 7 10.0221 7 10.1085V11.1636C7 11.2499 7.02775 11.3209 7.08324 11.3763C7.13883 11.4319 7.20982 11.4595 7.2961 11.4595H7.91618C7.89755 11.7558 7.8946 12.0795 7.90685 12.4313H7.2961C7.21591 12.4313 7.14651 12.4606 7.08791 12.5192C7.02933 12.5778 7 12.6472 7 12.7273V13.7731C7 13.8534 7.02933 13.9226 7.08791 13.9814C7.14654 14.0401 7.21591 14.0691 7.2961 14.0691H8.1753C8.56398 15.4326 9.29822 16.517 10.3779 17.3221C11.4577 18.1274 12.7193 18.5299 14.1629 18.5299C14.2803 18.5299 14.399 18.527 14.5193 18.5206C14.6399 18.5144 14.7523 18.505 14.8572 18.4928C14.962 18.4806 15.0654 18.4669 15.1672 18.4514C15.269 18.4358 15.3616 18.4207 15.4448 18.405C15.5281 18.3897 15.6068 18.3743 15.6807 18.3589C15.7548 18.3433 15.8211 18.3266 15.8798 18.3079C15.9384 18.2896 15.9876 18.2756 16.0278 18.2666C16.068 18.2573 16.1004 18.2463 16.1249 18.2342L16.1712 18.2248C16.2392 18.2002 16.2916 18.1554 16.3285 18.0905C16.3656 18.0261 16.3747 17.9566 16.3563 17.8826Z" fill="#FBE41A"/>
</svg>
