<svg width="20" height="20" viewBox="0 0 20 20" fill="none" xmlns="http://www.w3.org/2000/svg">
<rect width="20" height="20" rx="10" fill="#FFAB02"/>
<path d="M13.2259 8.822H11.8259C11.8259 9.494 11.6532 10.096 11.3079 10.628C10.9626 11.1507 10.4959 11.5287 9.90791 11.762L12.3719 15.5H10.2019L7.06591 10.6H8.61991C8.98391 10.6 9.28257 10.432 9.51591 10.096C9.75857 9.76 9.87991 9.33533 9.87991 8.822H6.82791V7.674H9.50191C9.37124 7.506 9.22191 7.37533 9.05391 7.282C8.89524 7.17933 8.72724 7.128 8.54991 7.128H6.82791V5.56H13.2259V6.722H11.0279C11.2706 7.02067 11.4619 7.338 11.6019 7.674H13.2259V8.822Z" fill="white"/>
</svg>
