<svg width="20" height="20" viewBox="0 0 20 20" fill="none" xmlns="http://www.w3.org/2000/svg">
<rect width="20" height="20" rx="10" fill="#FFE000"/>
<path d="M9.73683 6.29987V13.7239C9.73683 13.7793 9.69194 13.8241 9.6364 13.8241H8.32623C8.27085 13.8241 8.22581 13.7793 8.22581 13.7239V7.43943H5.92695V9.23631C5.92695 11.3019 5.72563 12.713 4.72368 13.3661C4.32044 13.687 3.87446 13.8248 3.23611 13.8248C3.18582 13.8248 3.14293 13.7871 3.13645 13.7374L3.00085 12.6983C2.99391 12.6446 3.03001 12.5956 3.08308 12.5862C3.34996 12.539 3.60588 12.4347 3.75074 12.3131C4.3678 11.8599 4.47593 10.9601 4.47593 9.23646V6.29987C4.47593 6.24449 4.52113 6.19929 4.57636 6.19929H9.6364C9.69194 6.19899 9.73683 6.24419 9.73683 6.29987ZM16.9822 11.5293C16.9874 12.0975 16.81 12.5672 16.4549 12.9257C15.8864 13.4994 14.9203 13.7902 13.5825 13.7902C13.4867 13.7902 13.3918 13.7887 13.2936 13.786L11.3905 13.7805C11.3639 13.7805 11.3389 13.7702 11.3201 13.7515C11.3009 13.7325 11.2907 13.7072 11.2907 13.6804V6.27566C11.2907 6.22074 11.3356 6.17585 11.3905 6.17585L13.6894 6.17554C15.2996 6.17554 16.9523 6.40154 16.9992 8.07901C17.0221 8.90957 16.4898 9.35663 16.039 9.58572L15.8022 9.7062L16.0449 9.81434C16.6675 10.0912 16.974 10.6523 16.9822 11.5293ZM12.7052 12.6059L14.2724 12.6062C14.298 12.6075 14.322 12.6088 14.3575 12.6088C14.5255 12.6088 14.9451 12.5794 15.2135 12.306C15.3835 12.1329 15.4668 11.8873 15.461 11.5764C15.461 10.8649 14.8683 10.6113 14.3137 10.6113L14.2903 10.6116L12.7052 10.6037V12.6059ZM15.2134 8.87903C15.3834 8.70594 15.4667 8.46035 15.4608 8.14936C15.4608 7.43773 14.8735 7.18428 14.3244 7.18428L14.3128 7.18458L12.705 7.18104V9.17907L14.2674 9.17923C14.2934 9.18062 14.3191 9.18108 14.3574 9.17784C14.6224 9.15532 14.945 9.15254 15.2134 8.87903Z" fill="#ED1F34"/>
</svg>
