<svg width="20" height="20" viewBox="0 0 20 20" fill="none" xmlns="http://www.w3.org/2000/svg">
<rect width="20" height="20" rx="10" fill="white"/>
<g clip-path="url(#clip0_1007_5887)">
<path d="M15.0433 13.467H14.9567C14.768 13.4549 14.5819 13.4369 14.3984 13.4127C14.2162 13.3895 14.0392 13.361 13.8712 13.3313C13.7032 13.3016 13.5403 13.2654 13.3852 13.2241V11.8309C13.5894 11.849 13.8104 11.8632 14.0469 11.8762C14.2834 11.8891 14.5251 11.8968 14.768 11.9033C15.011 11.9098 15.2384 11.9124 15.4491 11.9124C15.6165 11.9155 15.7838 11.9003 15.9479 11.8671C16.0584 11.8472 16.1613 11.7971 16.2451 11.7224C16.2791 11.6864 16.3055 11.644 16.3226 11.5975C16.3397 11.5511 16.3472 11.5017 16.3447 11.4523V11.3437C16.3483 11.2864 16.3374 11.2292 16.313 11.1772C16.2886 11.1253 16.2515 11.0803 16.2051 11.0465C16.1085 10.9793 15.9932 10.9444 15.8755 10.947H15.3987C14.7026 10.947 14.1736 10.7941 13.8117 10.4882C13.4499 10.1824 13.2689 9.66846 13.2689 8.94648V8.64925C13.2689 7.98931 13.4671 7.49521 13.8634 7.16696C14.2049 6.90437 14.6142 6.74476 15.0433 6.7069V6H16.0164V6.68751C16.1379 6.68751 16.2581 6.70431 16.3718 6.71594C16.6212 6.74308 16.8564 6.77668 17.0748 6.81545C17.2932 6.85422 17.4909 6.89558 17.6654 6.93693V8.32617C17.3888 8.30291 17.0774 8.28223 16.7324 8.26802C16.3873 8.2538 16.0733 8.24476 15.7915 8.24476C15.6404 8.2437 15.4895 8.25581 15.3405 8.28094C15.2261 8.29687 15.1192 8.34737 15.0342 8.42568C14.9959 8.46825 14.9665 8.51811 14.9479 8.57229C14.9292 8.62647 14.9217 8.68385 14.9257 8.74101V8.83147C14.9216 8.89586 14.9326 8.96033 14.9577 9.01976C14.9828 9.0792 15.0214 9.13198 15.0704 9.17393C15.2 9.26121 15.3553 9.30219 15.5111 9.29024H16.1069C16.4715 9.27731 16.8332 9.35971 17.1562 9.52932C17.4255 9.67795 17.6448 9.90272 17.7869 10.1755C17.9315 10.4649 18.0042 10.785 17.9988 11.1085V11.4058C17.9988 11.9757 17.8993 12.4125 17.7016 12.7123C17.5036 13.0135 17.2012 13.2308 16.8525 13.3223C16.5788 13.3972 16.2983 13.4444 16.0151 13.4631V14.2385H15.0433V13.4631V13.467ZM2.12012 13.4257V6.73016H3.50807L5.86008 10.4611V6.73016H7.60859V13.4257H6.22064L3.86862 9.69474V13.4257H2.12012ZM8.2121 13.4257V12.0377L10.7089 8.29774H8.2121V6.73016H12.836V8.11811L10.3393 11.8581H12.836V13.4257H8.2121Z" fill="#138442"/>
</g>
<defs>
<clipPath id="clip0_1007_5887">
<rect width="15.88" height="8.23723" fill="white" transform="translate(2.12012 6)"/>
</clipPath>
</defs>
</svg>
