<svg width="24" height="24" viewBox="0 0 24 24" fill="none" xmlns="http://www.w3.org/2000/svg">
<circle cx="12" cy="12" r="12" fill="white"/>
<path d="M9.44 18V6.576H13.088C14.56 6.576 15.632 6.87467 16.304 7.472C16.9867 8.06933 17.328 8.89067 17.328 9.936C17.328 10.5547 17.1893 11.136 16.912 11.68C16.6347 12.224 16.1707 12.6613 15.52 12.992C14.88 13.3227 14.0053 13.488 12.896 13.488H11.856V18H9.44ZM8.16 16.288V14.736H14.32V16.288H8.16ZM8.16 13.488V11.504H12.848V13.488H8.16ZM12.656 11.504C13.1147 11.504 13.5093 11.456 13.84 11.36C14.1707 11.2533 14.4267 11.088 14.608 10.864C14.7893 10.64 14.88 10.3573 14.88 10.016C14.88 9.52533 14.7253 9.16267 14.416 8.928C14.1067 8.68267 13.6213 8.56 12.96 8.56H11.856V11.504H12.656Z" fill="#0033EA"/>
</svg>
