<svg width="20" height="20" viewBox="0 0 20 20" fill="none" xmlns="http://www.w3.org/2000/svg">
<rect width="20" height="20" rx="10" fill="#164C9B"/>
<path d="M10.7224 16.6551H9.4644V15.0591H7V4.88233H9.4644V3H10.7224V4.9105C11.4046 4.92301 11.9773 5.02941 12.4405 5.22969H12.4358C12.7956 5.37991 13.0851 5.65373 13.3042 6.05116C13.4012 6.2358 13.4747 6.422 13.5248 6.60976C13.5749 6.79439 13.5999 6.98529 13.5999 7.18244C13.5999 8.04302 13.2651 8.74557 12.5954 9.29009C12.514 9.35893 12.4311 9.42309 12.3466 9.48255C12.2652 9.53888 12.1713 9.5999 12.0649 9.66562C12.3685 9.77514 12.6454 9.92066 12.8958 10.1022C13.1493 10.2805 13.3699 10.4918 13.5577 10.7359C13.8424 11.1114 13.9848 11.5965 13.9848 12.191C13.9848 12.7074 13.8534 13.1862 13.5905 13.6274C13.3339 14.0624 12.9771 14.4035 12.5203 14.6507C12.0602 14.9042 11.461 15.0404 10.7224 15.0591V16.6551ZM10.7224 9.03661C10.7944 9.01783 10.8695 8.99123 10.9477 8.95681C11.0291 8.92238 11.1136 8.8817 11.2012 8.83476C11.3014 8.78156 11.3984 8.70333 11.4922 8.60006C11.5861 8.49679 11.6706 8.37005 11.7457 8.21983C11.8208 8.06649 11.8772 7.92098 11.9147 7.78328C11.9554 7.64559 11.9757 7.51259 11.9757 7.38429C11.9757 7.06822 11.8459 6.80065 11.5861 6.58159C11.4359 6.43451 11.148 6.32968 10.7224 6.26709V9.03661ZM9.4644 6.23893H8.63824V9.14457H9.4644V6.23893ZM10.7224 13.7119C10.8319 13.7057 10.9368 13.6947 11.0369 13.6791C11.1402 13.6603 11.2419 13.6353 11.342 13.604C11.4516 13.5695 11.5517 13.5273 11.6425 13.4772C11.7332 13.424 11.8161 13.363 11.8912 13.2942H11.8866C12.1682 13.0219 12.309 12.687 12.309 12.2896C12.309 11.9861 12.2214 11.6966 12.0462 11.4212H12.0508C11.8912 11.1771 11.6346 10.9706 11.281 10.8016C11.0901 10.7077 10.9039 10.6342 10.7224 10.581V13.7119ZM8.63824 10.4824V13.7166H9.4644V10.4824H8.63824Z" fill="white"/>
</svg>
