<svg width="20" height="20" viewBox="0 0 20 20" fill="none" xmlns="http://www.w3.org/2000/svg">
<rect width="20" height="20" rx="10" fill="#FF060A"/>
<path d="M15.7802 7.7341C15.21 7.20661 14.4211 6.40111 13.7786 5.82983L13.7406 5.80317C13.6773 5.75228 13.606 5.71237 13.5296 5.6851V5.6851C11.9804 5.39565 4.77038 4.04552 4.62972 4.06266C4.5903 4.06819 4.55263 4.08251 4.51947 4.10456L4.48335 4.13312C4.43888 4.17837 4.4051 4.23303 4.3845 4.29308L4.375 4.31783V4.45304V4.47398C5.18667 6.73816 8.39154 14.1553 9.02263 15.8958C9.06065 16.0139 9.13288 16.2386 9.26785 16.25H9.29826C9.37049 16.25 9.67843 15.8425 9.67843 15.8425C9.67843 15.8425 15.1834 9.15468 15.7403 8.44249C15.8124 8.35476 15.8761 8.26039 15.9304 8.16065C15.9443 8.08262 15.9377 8.00231 15.9114 7.92756C15.8851 7.8528 15.8399 7.78615 15.7802 7.7341V7.7341ZM11.0908 8.51294L13.4403 6.56107L14.8184 7.83312L11.0908 8.51294ZM10.1784 8.38536L6.13331 5.06431L12.678 6.27352L10.1784 8.38536ZM10.5433 9.25561L14.6834 8.58721L9.95026 14.3L10.5433 9.25561ZM5.58395 5.39565L9.84001 9.01377L9.22413 14.3038L5.58395 5.39565Z" fill="white"/>
</svg>
