<svg width="24" height="25" viewBox="0 0 24 25" fill="none" xmlns="http://www.w3.org/2000/svg">
<rect y="0.5" width="24" height="24" rx="12" fill="#4CAF50"/>
<path fill-rule="evenodd" clip-rule="evenodd" d="M11.0435 5.99988C11.803 5.99988 12.5597 5.99988 13.3192 5.99988C13.2745 6.51365 13.2271 7.03021 13.1852 7.54398C14.0703 7.6082 14.9331 7.89301 15.7094 8.31464C15.3743 9.15789 15.0364 10.0011 14.6986 10.8444C14.0452 10.2887 13.1852 9.9816 12.328 9.99277C12.113 9.99835 11.8896 10.0402 11.7109 10.1631C11.5936 10.2441 11.507 10.3697 11.4819 10.5093C11.4624 10.621 11.468 10.7467 11.5294 10.8472C11.5992 10.9589 11.722 11.0259 11.8449 11.0678C12.0962 11.1571 12.367 11.1627 12.6295 11.1906C13.2466 11.266 13.8665 11.3721 14.4501 11.5927C14.9024 11.7658 15.3352 12.0255 15.6451 12.4053C15.9383 12.7543 16.1086 13.1955 16.1729 13.6478C16.2483 14.1699 16.2259 14.7116 16.064 15.2198C15.9383 15.6275 15.7233 16.0072 15.4441 16.3283C14.8661 16.9985 14.0173 17.4006 13.1461 17.5039C13.174 18.0539 13.2075 18.6012 13.2382 19.1513C12.5178 19.1513 11.8002 19.1513 11.0826 19.1513C11.1105 18.6068 11.1468 18.0623 11.172 17.5178C10.594 17.4983 10.0216 17.3698 9.48267 17.166C8.96053 16.9678 8.46351 16.7053 8 16.3981C8.34065 15.5214 8.6813 14.6446 9.02475 13.7651C9.41287 14.0918 9.82612 14.3961 10.2785 14.6279C10.7643 14.8764 11.3032 15.0355 11.8505 15.0411C12.1102 15.0439 12.3782 15.03 12.6239 14.9406C12.7747 14.8848 12.9227 14.787 12.9897 14.6335C13.0595 14.4715 13.0539 14.2677 12.9478 14.1225C12.8724 14.0248 12.7663 13.9577 12.6546 13.9103C12.5039 13.8488 12.3475 13.8153 12.1883 13.7902C11.602 13.6953 11.0128 13.6171 10.446 13.4328C9.99086 13.2848 9.5469 13.0782 9.18391 12.7599C8.95494 12.5616 8.76507 12.3187 8.63104 12.0451C8.43 11.6374 8.35461 11.1767 8.3602 10.7243C8.3602 10.2189 8.46351 9.70517 8.71481 9.2612C8.93261 8.86471 9.26488 8.54081 9.63904 8.2923C10.0914 7.99353 10.5968 7.7897 11.1105 7.62496C11.0882 7.08326 11.0659 6.54157 11.0435 5.99988Z" fill="white"/>
</svg>
