<svg width="20" height="20" viewBox="0 0 20 20" fill="none" xmlns="http://www.w3.org/2000/svg">
<rect width="20" height="20" rx="10" fill="#2775C9"/>
<path d="M9.84375 17.5C8.3913 17.5 6.97146 17.0693 5.76378 16.2624C4.55611 15.4554 3.61484 14.3085 3.05901 12.9666C2.50318 11.6247 2.35775 10.1481 2.64111 8.72356C2.92447 7.29901 3.6239 5.99048 4.65094 4.96344C5.67798 3.9364 6.98651 3.23697 8.41106 2.95361C9.83561 2.67025 11.3122 2.81568 12.6541 3.37151C13.996 3.92734 15.1429 4.86861 15.9499 6.07628C16.7568 7.28396 17.1875 8.7038 17.1875 10.1563C17.1875 12.1039 16.4138 13.9718 15.0366 15.3491C13.6593 16.7263 11.7914 17.5 9.84375 17.5ZM9.40625 7.43125C9.00445 7.45118 8.6246 7.62058 8.34129 7.90621C8.05797 8.19183 7.89166 8.57305 7.875 8.975C7.875 9.73125 8.3375 10.225 9.31875 10.4313L10.0063 10.5938C10.675 10.75 10.95 10.975 10.95 11.3563C10.95 11.7375 10.4688 12.1125 9.84375 12.1125C9.62175 12.1329 9.39851 12.0903 9.19955 11.9897C9.0006 11.8891 8.83398 11.7346 8.71875 11.5438C8.68461 11.4713 8.63072 11.41 8.56327 11.3669C8.49582 11.3238 8.41756 11.3006 8.3375 11.3H7.96875C7.9404 11.3053 7.91336 11.3161 7.88919 11.3318C7.86503 11.3475 7.84422 11.3679 7.82795 11.3917C7.81169 11.4155 7.80029 11.4423 7.79442 11.4706C7.78856 11.4988 7.78833 11.5279 7.79375 11.5563C7.88358 11.9229 8.09242 12.2493 8.38759 12.4846C8.68277 12.7198 9.04761 12.8505 9.425 12.8563V13.3813C9.425 13.4981 9.47143 13.6102 9.55406 13.6928C9.63669 13.7755 9.74877 13.8219 9.86563 13.8219C9.98249 13.8219 10.0946 13.7755 10.1772 13.6928C10.2598 13.6102 10.3063 13.4981 10.3063 13.3813V12.85C10.733 12.8452 11.141 12.6739 11.4433 12.3727C11.7457 12.0715 11.9185 11.6642 11.925 11.2375C11.925 10.4438 11.4688 9.9875 10.3875 9.75625L9.7625 9.61875C9.1375 9.4625 8.84375 9.25625 8.84375 8.90625C8.84375 8.55625 9.21875 8.16875 9.84375 8.16875C10.0406 8.14819 10.2392 8.18506 10.4155 8.27489C10.5919 8.36473 10.7384 8.50369 10.8375 8.675C10.8777 8.76056 10.9413 8.83297 11.0209 8.88386C11.1006 8.93474 11.193 8.96201 11.2875 8.9625H11.5813C11.648 8.94617 11.7058 8.90428 11.742 8.84584C11.7782 8.78741 11.7901 8.71709 11.775 8.65C11.6903 8.31153 11.5009 8.00843 11.2338 7.78397C10.9667 7.5595 10.6355 7.42512 10.2875 7.4V6.96875C10.2875 6.85189 10.2411 6.73982 10.1584 6.65718C10.0758 6.57455 9.96374 6.52813 9.84688 6.52813C9.73002 6.52813 9.61794 6.57455 9.53531 6.65718C9.45268 6.73982 9.40625 6.85189 9.40625 6.96875V7.43125ZM4.3375 10.1563C4.33822 11.3075 4.70061 12.4295 5.37349 13.3637C6.04638 14.2979 6.99574 14.9971 8.0875 15.3625H8.175C8.2496 15.3625 8.32113 15.3329 8.37388 15.2801C8.42662 15.2274 8.45625 15.1558 8.45625 15.0813V14.95C8.45646 14.8337 8.42212 14.7199 8.35758 14.6231C8.29305 14.5263 8.20123 14.4508 8.09375 14.4063C7.24351 14.0631 6.51522 13.4736 6.00237 12.7136C5.48952 11.9535 5.21551 11.0575 5.21551 10.1406C5.21551 9.22373 5.48952 8.32776 6.00237 7.5677C6.51522 6.80764 7.24351 6.21819 8.09375 5.875C8.20073 5.83155 8.29234 5.75722 8.3569 5.66149C8.42146 5.56576 8.45605 5.45297 8.45625 5.3375V5.19375C8.45666 5.15155 8.44688 5.10986 8.42775 5.07224C8.40861 5.03462 8.38069 5.00216 8.34634 4.97763C8.31199 4.9531 8.27224 4.93721 8.23044 4.93131C8.18865 4.92541 8.14605 4.92968 8.10625 4.94375C7.00998 5.30631 6.05581 6.00507 5.37927 6.94078C4.70273 7.87649 4.33822 9.00158 4.3375 10.1563ZM15.35 10.1563C15.348 9.00603 14.985 7.88545 14.3122 6.95251C13.6394 6.01958 12.6908 5.32134 11.6 4.95625H11.5063C11.4283 4.95625 11.3536 4.9872 11.2985 5.04229C11.2435 5.09738 11.2125 5.1721 11.2125 5.25V5.34375C11.215 5.4643 11.2524 5.58154 11.32 5.68134C11.3877 5.78115 11.4827 5.85926 11.5938 5.90625C12.4421 6.25045 13.1684 6.83994 13.6797 7.59928C14.1911 8.35862 14.4643 9.25328 14.4643 10.1688C14.4643 11.0842 14.1911 11.9789 13.6797 12.7382C13.1684 13.4976 12.4421 14.0871 11.5938 14.4313C11.4848 14.4787 11.3917 14.5563 11.3253 14.6548C11.2589 14.7533 11.2219 14.8687 11.2188 14.9875V15.0938C11.2193 15.1401 11.2308 15.1856 11.2523 15.2267C11.2738 15.2677 11.3047 15.3031 11.3425 15.3299C11.3803 15.3567 11.4239 15.3742 11.4697 15.381C11.5156 15.3877 11.5623 15.3835 11.6063 15.3688C12.6979 15.0019 13.6466 14.3013 14.3184 13.366C14.9902 12.4306 15.351 11.3078 15.35 10.1563Z" fill="white"/>
</svg>
