<svg width="20" height="20" viewBox="0 0 20 20" fill="none" xmlns="http://www.w3.org/2000/svg">
<rect width="20" height="20" rx="10" fill="#26A17B"/>
<path fill-rule="evenodd" clip-rule="evenodd" d="M11.3263 10.3525V10.3513C11.2575 10.3563 10.9031 10.3775 10.1125 10.3775C9.48125 10.3775 9.03687 10.3588 8.88062 10.3513V10.3531C6.45062 10.2463 4.63687 9.82313 4.63687 9.31688C4.63687 8.81125 6.45062 8.38813 8.88062 8.27938V9.93187C9.03937 9.94312 9.49437 9.97 10.1231 9.97C10.8775 9.97 11.2556 9.93875 11.3263 9.9325V8.28063C13.7513 8.38875 15.5606 8.81188 15.5606 9.31688C15.5606 9.82313 13.7513 10.245 11.3263 10.3525ZM11.3263 8.10875V6.63H14.71V4.375H5.49688V6.63H8.88062V8.10813C6.13062 8.23438 4.0625 8.77937 4.0625 9.43187C4.0625 10.0844 6.13062 10.6287 8.88062 10.7556V15.4944H11.3263V10.7544C14.0719 10.6281 16.135 10.0837 16.135 9.43187C16.135 8.78 14.0719 8.23563 11.3263 8.10875Z" fill="white"/>
</svg>
