<svg width="52" height="36" viewBox="0 0 52 36" fill="none" xmlns="http://www.w3.org/2000/svg">
<rect x="0.5" y="0.5" width="51" height="35" rx="3.5" fill="white"/>
<rect x="0.5" y="0.5" width="51" height="35" rx="3.5" stroke="#EAEAEA"/>
<path d="M40.5502 3.44922H11.4502V32.5492H40.5502V3.44922Z" fill="#F7E624"/>
<path fill-rule="evenodd" clip-rule="evenodd" d="M29.6603 24.9894V27.3694C29.6903 27.5994 29.7203 27.7294 29.7603 27.8194C30.0803 28.5194 31.2003 28.4594 31.8503 28.0394L31.5603 27.4394C31.3503 27.5194 31.0903 27.6994 30.7903 27.5994C30.5203 27.5194 30.5403 27.1994 30.5403 26.8894V24.9594H32.3403L33.7903 28.2694C33.8203 28.4094 33.5003 28.9794 33.4303 29.0794C32.9303 29.7794 32.4603 29.4894 32.0603 29.3994L31.8603 30.1094C32.6203 30.3994 33.4203 30.2894 33.8703 29.8094C34.2703 29.3794 34.4903 28.7694 34.7403 28.0994L36.1303 24.2594H35.2103L34.2303 27.2094C34.1303 27.0994 33.3803 25.2094 33.2403 24.8894C33.0503 24.4494 32.7803 24.2694 32.2003 24.2594C31.6503 24.2594 31.1003 24.2594 30.5403 24.2594V23.0794C30.3503 23.1194 29.8003 23.2894 29.6503 23.3594V24.2494H28.9403V24.9694L29.6503 24.9894H29.6603ZM27.8503 5.60938C32.4003 5.60938 35.4003 9.26938 34.5303 13.7994C33.6703 18.3194 29.2703 21.9894 24.7203 21.9894C20.1703 21.9894 17.1703 18.3294 18.0303 13.7994C18.9003 9.27938 23.2903 5.60938 27.8503 5.60938ZM30.0303 6.66937C32.8503 7.65937 34.4903 10.4794 33.8503 13.7994C33.1103 17.6694 29.5503 20.8594 25.6903 21.2594C25.3803 21.2594 25.3803 21.0794 25.3703 20.8194C25.3803 20.2794 25.4003 19.7394 25.4203 19.2094C25.4203 19.1294 25.4003 19.1094 25.3603 19.0994C24.9603 19.0594 24.5703 18.9694 24.1903 18.8494C23.7703 18.6894 23.3503 18.4494 22.9303 18.1794C22.7403 18.0894 22.7603 17.6394 22.7703 17.4694C22.8003 17.1494 23.0403 16.4094 23.4103 16.3794C23.8603 16.3594 24.0703 16.5894 24.5203 16.8094C25.3003 17.1794 26.4003 17.3994 27.2103 17.0194C27.6003 16.7794 27.7003 16.4594 27.5103 16.0494C27.1903 15.3894 25.6703 14.8394 24.9803 14.5094C23.3303 13.8094 22.4103 12.3794 22.7003 10.6794C22.9203 9.42938 24.0903 8.46938 25.3203 8.29938V7.69937C23.8003 8.13937 22.6503 9.00937 21.6103 10.0294C20.1103 11.4994 19.2303 13.3494 19.1503 15.7194C19.2703 18.6194 20.7803 19.8994 22.3503 20.8594C19.6403 19.8094 18.1003 17.0494 18.7203 13.7994C19.4803 9.82938 23.2003 6.56937 27.1903 6.30937C27.3503 6.39937 27.3603 6.41938 27.4403 6.62937C27.4103 7.12937 27.3803 7.62937 27.3403 8.12937C28.1303 8.28938 28.8703 8.50938 29.4703 9.01938C29.4903 10.1694 28.6303 10.6494 28.3003 10.4794C28.3103 10.4294 27.0003 10.0594 26.7303 9.99937C26.4003 9.94937 26.0703 9.96937 25.7403 10.1094C25.3503 10.2894 25.1703 10.5694 25.3503 10.9894C25.5103 11.3094 25.7703 11.5194 26.0603 11.6894C26.8903 12.1394 27.7203 12.5894 28.5403 13.0294C29.2503 13.4294 29.7603 13.9494 30.0903 14.5794C30.3303 15.1994 30.3803 15.8394 30.2403 16.4794C30.0803 17.0094 29.8803 17.4594 29.5803 17.7494C29.3303 18.0394 29.0503 18.2594 28.7503 18.4194C28.3303 18.6394 27.9103 18.8394 27.4703 18.9094C27.4603 19.1794 27.4503 19.4394 27.4303 19.7094C27.4603 19.7294 27.5003 19.7094 27.5403 19.7094C28.4803 19.4094 29.3003 18.8794 30.1003 18.2994C31.1403 17.3794 32.1103 16.4194 32.6203 15.1794C32.9703 14.4894 33.2303 13.7194 33.3603 12.8194C33.6403 10.2894 32.7203 7.90937 30.0003 6.66937M19.5203 24.2594V23.3794C19.5203 23.0694 19.8003 22.5794 20.1903 22.3994C20.5503 22.2394 21.2303 22.2294 21.5603 22.4394L21.4003 23.1394C20.3903 22.9194 20.4003 23.1094 20.4003 24.2494H21.5003L21.2203 24.9494H20.4103V28.2494C20.2503 28.2694 19.6803 28.2794 19.5303 28.2494V24.9694H19.0903L18.8203 24.2694H19.5303L19.5203 24.2594ZM25.4403 26.3694C25.4903 28.7194 28.0503 28.5994 28.7403 27.9694C28.7203 27.8694 28.5403 27.4294 28.4803 27.3694C28.0103 27.5594 27.5503 27.7794 26.9803 27.4994C26.0903 27.0594 26.1603 25.4094 27.0503 24.9994C27.4003 24.8394 27.8803 24.8594 28.2403 24.9994C28.3703 25.0594 28.4603 25.1194 28.5703 25.1694V24.4094C28.0403 24.1994 27.6603 24.0594 27.0003 24.2094C26.0003 24.4394 25.4203 25.3594 25.4403 26.3594M16.1103 25.8294C16.1703 25.2894 16.3803 24.8494 16.9503 24.8394C17.5003 24.8394 17.7603 25.2894 17.7903 25.8394H16.1203L16.1103 25.8294ZM18.5703 27.9594L18.3203 27.3794C18.0903 27.4394 17.9403 27.5594 17.6403 27.6094C16.8503 27.7394 16.1403 27.3794 16.1203 26.4794H18.6803C18.6803 25.5794 18.5203 24.5494 17.5203 24.2394C17.0603 24.0894 16.4903 24.1494 16.1103 24.3694C14.7203 25.1994 14.7903 28.3694 17.2203 28.3394C17.6903 28.3394 18.2803 28.2094 18.5503 27.9594M22.3903 25.8394C22.4303 25.2994 22.6803 24.8494 23.2403 24.8394C23.7803 24.8394 24.0503 25.3094 24.0503 25.8394H22.3903ZM21.5003 26.4094C21.5903 27.8894 22.7403 28.5894 24.1603 28.2594C24.4703 28.1894 24.6203 28.0694 24.8503 27.9894L24.6003 27.3694C24.2403 27.4794 23.7803 27.7894 23.1403 27.5594C22.7103 27.4094 22.4203 27.0294 22.4003 26.4794H24.9703C24.9703 25.3094 24.6203 24.1594 23.2703 24.1494C21.9503 24.1394 21.4303 25.2494 21.5003 26.4094Z" fill="black"/>
</svg>
