<svg width="52" height="36" viewBox="0 0 52 36" fill="none" xmlns="http://www.w3.org/2000/svg">
<rect x="0.5" y="0.5" width="51" height="35" rx="3.5" fill="white"/>
<rect x="0.5" y="0.5" width="51" height="35" rx="3.5" stroke="#EAEAEA"/>
<path d="M37.7398 22.2902H32.7898C32.6298 22.2902 32.5098 22.1602 32.5098 22.0102C32.5098 21.8602 32.6398 21.7302 32.7898 21.7302H37.7098C37.8998 21.6902 39.1998 21.3602 39.2598 19.8402C39.3198 18.3302 38.4498 18.1702 38.3098 18.1602C38.3098 18.1602 35.1398 18.1602 35.1298 18.1602C33.8598 17.9502 33.5898 16.8002 33.6298 16.1902C33.6298 14.6102 34.9598 13.9002 35.6698 13.7402C35.6898 13.7402 35.7098 13.7402 35.7298 13.7402H40.1898C40.3498 13.7402 40.4698 13.8702 40.4698 14.0202C40.4698 14.1702 40.3398 14.3002 40.1898 14.3002H35.7598C35.5398 14.3502 34.1798 14.7602 34.1898 16.2002C34.1898 16.2002 34.1898 16.2102 34.1898 16.2202C34.1898 16.2702 34.1298 17.4002 35.1998 17.6002H38.3398C38.3598 17.6002 39.9098 17.7202 39.8298 19.8602C39.7698 21.5202 38.4698 22.1802 37.7998 22.2902C37.7798 22.2902 37.7698 22.2902 37.7498 22.2902H37.7398Z" fill="#0160A7"/>
<path d="M47.0696 22.3196H42.4996C42.4996 22.3196 42.4796 22.3196 42.4696 22.3196C41.8696 22.2596 40.7196 21.8396 40.6996 20.7096C40.6696 19.5096 41.4696 15.8796 41.5096 15.7296C41.5096 15.7196 41.5096 15.7096 41.5196 15.6896C41.5496 15.6096 42.2196 13.8496 43.7096 13.8496H46.9996C46.9996 13.8496 47.0496 13.8496 47.0796 13.8596C47.1396 13.8796 48.4896 14.2796 48.4896 15.4396C48.4896 16.4196 48.1996 18.0596 48.1896 18.1296C48.1696 18.2596 48.0496 18.3596 47.9196 18.3596L41.5596 18.4096C41.3996 19.3096 41.2696 20.2196 41.2796 20.6896C41.2996 21.5596 42.3996 21.7296 42.5396 21.7496H47.0896C47.2496 21.7496 47.3696 21.8796 47.3696 22.0296C47.3696 22.1796 47.2396 22.3096 47.0896 22.3096L47.0696 22.3196ZM42.0496 15.8696C42.0196 16.0096 41.8296 16.8796 41.6496 17.8596L47.6696 17.8096C47.7496 17.3196 47.9196 16.1596 47.9196 15.4396C47.9196 14.7796 47.1296 14.4696 46.9496 14.4096H43.7096C42.6696 14.4096 42.1196 15.7096 42.0596 15.8696H42.0496Z" fill="#0160A7"/>
<path d="M24.2098 26.0105C24.2098 26.0105 24.1798 26.0105 24.1598 26.0105C24.0098 25.9805 23.9098 25.8405 23.9298 25.6805C23.9298 25.6805 24.3798 23.2005 24.8298 20.7305C25.0598 19.4905 25.2798 18.2505 25.4498 17.3205C25.5398 16.8605 25.6098 16.4705 25.6598 16.2005C25.6998 15.9805 25.7298 15.8305 25.7598 15.7305C26.0798 14.8605 27.0698 13.9305 27.7998 13.8105C27.8298 13.8105 27.8498 13.8105 27.8798 13.8105C28.0698 13.8105 29.8498 13.8105 31.0298 13.8105C31.2998 13.8105 32.7598 14.3605 32.5898 15.5105C32.5898 15.5205 32.5898 15.5305 32.5898 15.5405L31.8098 20.3305C31.8098 20.3305 31.8098 20.3505 31.8098 20.3605C31.7898 20.4205 31.3798 21.8305 30.0098 22.2505C29.9898 22.2505 29.9598 22.2605 29.9398 22.2605L27.0498 22.3405C27.0498 22.3405 27.0298 22.3405 27.0198 22.3405C26.9698 22.3405 26.0598 22.2405 25.3298 21.3105C25.0198 23.0205 24.7098 24.7305 24.5198 25.7805C24.4998 25.9205 24.3798 26.0105 24.2398 26.0105H24.2098ZM25.4398 20.5005C26.0098 21.5905 26.8998 21.7505 27.0298 21.7705L29.8598 21.6905C30.8398 21.3705 31.1998 20.3405 31.2398 20.2105L32.0198 15.4605C32.0998 14.9305 31.2898 14.3605 30.9598 14.3705C30.7498 14.3705 30.0998 14.3705 29.4398 14.3705C29.0398 14.3705 28.6398 14.3705 28.3498 14.3705C28.1498 14.3705 27.9998 14.3705 27.8898 14.3705C27.4098 14.4505 26.5698 15.2105 26.2998 15.9105C26.2498 16.1305 25.8698 18.2205 25.4498 20.5005H25.4398Z" fill="#0160A7"/>
<path d="M20.4096 12.6198C20.4096 13.0498 20.0596 13.3998 19.6296 13.3998C19.1996 13.3998 18.8496 13.0498 18.8496 12.6198C18.8496 12.1898 19.1996 11.8398 19.6296 11.8398C20.0596 11.8398 20.4096 12.1898 20.4096 12.6198Z" fill="#FAB418"/>
<path d="M17.8498 10.7299C18.2806 10.7299 18.6298 10.3807 18.6298 9.94992C18.6298 9.51914 18.2806 9.16992 17.8498 9.16992C17.419 9.16992 17.0698 9.51914 17.0698 9.94992C17.0698 10.3807 17.419 10.7299 17.8498 10.7299Z" fill="#FAB418"/>
<path d="M16.8496 12.6198C16.8496 13.0498 16.4996 13.3998 16.0696 13.3998C15.6396 13.3998 15.2896 13.0498 15.2896 12.6198C15.2896 12.1898 15.6396 11.8398 16.0696 11.8398C16.4996 11.8398 16.8496 12.1898 16.8496 12.6198Z" fill="#FAB418"/>
<path d="M19.5398 24.0795C19.9705 24.0795 20.3198 23.7303 20.3198 23.2995C20.3198 22.8687 19.9705 22.5195 19.5398 22.5195C19.109 22.5195 18.7598 22.8687 18.7598 23.2995C18.7598 23.7303 19.109 24.0795 19.5398 24.0795Z" fill="#FAB418"/>
<path d="M17.8498 21.5795C18.2806 21.5795 18.6298 21.2303 18.6298 20.7995C18.6298 20.3687 18.2806 20.0195 17.8498 20.0195C17.419 20.0195 17.0698 20.3687 17.0698 20.7995C17.0698 21.2303 17.419 21.5795 17.8498 21.5795Z" fill="#FAB418"/>
<path d="M14.38 21.4504C14.739 21.4504 15.03 21.1594 15.03 20.8004C15.03 20.4414 14.739 20.1504 14.38 20.1504C14.021 20.1504 13.73 20.4414 13.73 20.8004C13.73 21.1594 14.021 21.4504 14.38 21.4504Z" fill="#FAB418"/>
<path d="M16.76 23.3004C16.76 23.6604 16.47 23.9504 16.11 23.9504C15.75 23.9504 15.46 23.6604 15.46 23.3004C15.46 22.9404 15.75 22.6504 16.11 22.6504C16.47 22.6504 16.76 22.9404 16.76 23.3004Z" fill="#FAB418"/>
<path d="M14.3399 26.7004C14.6989 26.7004 14.9899 26.4094 14.9899 26.0504C14.9899 25.6914 14.6989 25.4004 14.3399 25.4004C13.981 25.4004 13.6899 25.6914 13.6899 26.0504C13.6899 26.4094 13.981 26.7004 14.3399 26.7004Z" fill="#FAB418"/>
<path d="M12.6597 23.8008C12.9358 23.8008 13.1597 23.5769 13.1597 23.3008C13.1597 23.0246 12.9358 22.8008 12.6597 22.8008C12.3835 22.8008 12.1597 23.0246 12.1597 23.3008C12.1597 23.5769 12.3835 23.8008 12.6597 23.8008Z" fill="#FAB418"/>
<path d="M6.47998 18.5391C6.75612 18.5391 6.97998 18.3152 6.97998 18.0391C6.97998 17.7629 6.75612 17.5391 6.47998 17.5391C6.20384 17.5391 5.97998 17.7629 5.97998 18.0391C5.97998 18.3152 6.20384 18.5391 6.47998 18.5391Z" fill="#FAB418"/>
<path d="M7.37988 15.8594C7.65603 15.8594 7.87988 15.6355 7.87988 15.3594C7.87988 15.0832 7.65603 14.8594 7.37988 14.8594C7.10374 14.8594 6.87988 15.0832 6.87988 15.3594C6.87988 15.6355 7.10374 15.8594 7.37988 15.8594Z" fill="#FAB418"/>
<path d="M9.57959 12.6191C9.57959 12.8991 9.34959 13.1191 9.07959 13.1191C8.80959 13.1191 8.57959 12.8891 8.57959 12.6191C8.57959 12.3491 8.80959 12.1191 9.07959 12.1191C9.34959 12.1191 9.57959 12.3491 9.57959 12.6191Z" fill="#FAB418"/>
<path d="M11.3096 10.0098C11.3096 10.2898 11.0796 10.5098 10.8096 10.5098C10.5396 10.5098 10.3096 10.2798 10.3096 10.0098C10.3096 9.73977 10.5396 9.50977 10.8096 9.50977C11.0796 9.50977 11.3096 9.73977 11.3096 10.0098Z" fill="#FAB418"/>
<path d="M10.8599 26.5508C11.136 26.5508 11.3599 26.3269 11.3599 26.0508C11.3599 25.7746 11.136 25.5508 10.8599 25.5508C10.5837 25.5508 10.3599 25.7746 10.3599 26.0508C10.3599 26.3269 10.5837 26.5508 10.8599 26.5508Z" fill="#FAB418"/>
<path d="M9.12988 23.8008C9.40603 23.8008 9.62988 23.5769 9.62988 23.3008C9.62988 23.0246 9.40603 22.8008 9.12988 22.8008C8.85374 22.8008 8.62988 23.0246 8.62988 23.3008C8.62988 23.5769 8.85374 23.8008 9.12988 23.8008Z" fill="#FAB418"/>
<path d="M7.34961 21.3008C7.62575 21.3008 7.84961 21.0769 7.84961 20.8008C7.84961 20.5246 7.62575 20.3008 7.34961 20.3008C7.07347 20.3008 6.84961 20.5246 6.84961 20.8008C6.84961 21.0769 7.07347 21.3008 7.34961 21.3008Z" fill="#FAB418"/>
<path d="M6.39965 23.5591C6.54324 23.5591 6.65965 23.4427 6.65965 23.2991C6.65965 23.1555 6.54324 23.0391 6.39965 23.0391C6.25605 23.0391 6.13965 23.1555 6.13965 23.2991C6.13965 23.4427 6.25605 23.5591 6.39965 23.5591Z" fill="#FAB418"/>
<path d="M4.78002 21.0591C4.92361 21.0591 5.04002 20.9427 5.04002 20.7991C5.04002 20.6555 4.92361 20.5391 4.78002 20.5391C4.63643 20.5391 4.52002 20.6555 4.52002 20.7991C4.52002 20.9427 4.63643 21.0591 4.78002 21.0591Z" fill="#FAB418"/>
<path d="M4.04979 18.0002C4.04979 18.1402 3.92979 18.2602 3.78979 18.2602C3.64979 18.2602 3.52979 18.1402 3.52979 18.0002C3.52979 17.8602 3.64979 17.7402 3.78979 17.7402C3.92979 17.7402 4.04979 17.8602 4.04979 18.0002Z" fill="#FAB418"/>
<path d="M4.70971 15.6294C4.8533 15.6294 4.96971 15.513 4.96971 15.3694C4.96971 15.2258 4.8533 15.1094 4.70971 15.1094C4.56611 15.1094 4.44971 15.2258 4.44971 15.3694C4.44971 15.513 4.56611 15.6294 4.70971 15.6294Z" fill="#FAB418"/>
<path d="M6.45971 12.9009C6.6033 12.9009 6.71971 12.7845 6.71971 12.6409C6.71971 12.4973 6.6033 12.3809 6.45971 12.3809C6.31611 12.3809 6.19971 12.4973 6.19971 12.6409C6.19971 12.7845 6.31611 12.9009 6.45971 12.9009Z" fill="#FAB418"/>
<path d="M10.8297 21.4504C11.1887 21.4504 11.4797 21.1594 11.4797 20.8004C11.4797 20.4414 11.1887 20.1504 10.8297 20.1504C10.4707 20.1504 10.1797 20.4414 10.1797 20.8004C10.1797 21.1594 10.4707 21.4504 10.8297 21.4504Z" fill="#FAB418"/>
<path d="M9.00986 18.7004C9.36885 18.7004 9.65986 18.4094 9.65986 18.0504C9.65986 17.6914 9.36885 17.4004 9.00986 17.4004C8.65088 17.4004 8.35986 17.6914 8.35986 18.0504C8.35986 18.4094 8.65088 18.7004 9.00986 18.7004Z" fill="#FAB418"/>
<path d="M11.4597 15.359C11.4597 15.719 11.1697 16.009 10.8097 16.009C10.4497 16.009 10.1597 15.719 10.1597 15.359C10.1597 14.999 10.4497 14.709 10.8097 14.709C11.1697 14.709 11.4597 14.999 11.4597 15.359Z" fill="#FAB418"/>
<path d="M12.61 13.2707C12.9689 13.2707 13.26 12.9797 13.26 12.6207C13.26 12.2617 12.9689 11.9707 12.61 11.9707C12.251 11.9707 11.96 12.2617 11.96 12.6207C11.96 12.9797 12.251 13.2707 12.61 13.2707Z" fill="#FAB418"/>
<path d="M14.3097 10.6105C14.6687 10.6105 14.9597 10.3195 14.9597 9.96055C14.9597 9.60156 14.6687 9.31055 14.3097 9.31055C13.9507 9.31055 13.6597 9.60156 13.6597 9.96055C13.6597 10.3195 13.9507 10.6105 14.3097 10.6105Z" fill="#FAB418"/>
<path d="M12.5598 18.8295C12.9906 18.8295 13.3398 18.4803 13.3398 18.0495C13.3398 17.6187 12.9906 17.2695 12.5598 17.2695C12.129 17.2695 11.7798 17.6187 11.7798 18.0495C11.7798 18.4803 12.129 18.8295 12.5598 18.8295Z" fill="#FAB418"/>
<path d="M14.3098 16.1401C14.7406 16.1401 15.0898 15.7909 15.0898 15.3601C15.0898 14.9293 14.7406 14.5801 14.3098 14.5801C13.879 14.5801 13.5298 14.9293 13.5298 15.3601C13.5298 15.7909 13.879 16.1401 14.3098 16.1401Z" fill="#FAB418"/>
<path d="M17.8498 26.8295C18.2806 26.8295 18.6298 26.4803 18.6298 26.0495C18.6298 25.6187 18.2806 25.2695 17.8498 25.2695C17.419 25.2695 17.0698 25.6187 17.0698 26.0495C17.0698 26.4803 17.419 26.8295 17.8498 26.8295Z" fill="#FAB418"/>
<path d="M24.57 17.7695H12.96V18.2495H24.57V17.7695Z" fill="#FAB418"/>
<path d="M18.5396 15.1191H14.8896V15.5991H18.5396V15.1191Z" fill="#FAB418"/>
<path d="M20.1096 18.2291L18.0996 15.1191H18.6696L20.6796 18.2291H20.1096Z" fill="#FAB418"/>
<path d="M20.32 20.5605H18.46V21.0405H20.32V20.5605Z" fill="#FAB418"/>
<path d="M19.8799 21.0405L21.5399 18.2305H22.0199L20.3599 21.0405H19.8799Z" fill="#FAB418"/>
</svg>
