<svg width="52" height="36" viewBox="0 0 52 36" fill="none" xmlns="http://www.w3.org/2000/svg">
<g clip-path="url(#clip0_2280_4266)">
<rect width="52" height="36" rx="4" fill="white"/>
<path d="M48 0H4C1.79086 0 0 1.79086 0 4V32C0 34.2091 1.79086 36 4 36H48C50.2091 36 52 34.2091 52 32V4C52 1.79086 50.2091 0 48 0Z" fill="white"/>
<path d="M48 0H4C1.79086 0 0 1.79086 0 4V32C0 34.2091 1.79086 36 4 36H48C50.2091 36 52 34.2091 52 32V4C52 1.79086 50.2091 0 48 0Z" fill="#D3D3D3"/>
<path d="M47.3198 0.550781H4.6798C2.53694 0.550781 0.799805 2.28792 0.799805 4.43078V31.5608C0.799805 33.7036 2.53694 35.4408 4.6798 35.4408H47.3198C49.4627 35.4408 51.1998 33.7036 51.1998 31.5608V4.43078C51.1998 2.28792 49.4627 0.550781 47.3198 0.550781Z" fill="white"/>
<mask id="mask0_2280_4266" style="mask-type:luminance" maskUnits="userSpaceOnUse" x="4" y="12" width="44" height="12">
<path d="M47.2198 12.1699H4.77979V23.8399H47.2198V12.1699Z" fill="white"/>
</mask>
<g mask="url(#mask0_2280_4266)">
<mask id="mask1_2280_4266" style="mask-type:luminance" maskUnits="userSpaceOnUse" x="4" y="12" width="44" height="12">
<path d="M47.2198 12.1699H4.77979V23.8399H47.2198V12.1699Z" fill="white"/>
</mask>
<g mask="url(#mask1_2280_4266)">
<path d="M5.33979 17.1292L11.7898 19.2292C11.7898 19.2292 13.5998 18.7392 13.5998 18.4492V15.4292C13.5998 14.9592 13.2198 14.5292 12.6198 14.3392L6.12979 12.2292C5.49979 12.0192 4.77979 12.3592 4.77979 12.8592V16.5092C4.77979 16.7792 4.99979 17.0192 5.33979 17.1392" fill="#0FA0D6"/>
<g opacity="0.12">
<mask id="mask2_2280_4266" style="mask-type:luminance" maskUnits="userSpaceOnUse" x="5" y="14" width="9" height="5">
<path d="M13.6099 14.75H5.91992V18.04H13.6099V14.75Z" fill="white"/>
</mask>
<g mask="url(#mask2_2280_4266)">
<mask id="mask3_2280_4266" style="mask-type:luminance" maskUnits="userSpaceOnUse" x="5" y="14" width="9" height="5">
<path d="M13.6099 14.75H5.91992V18.04H13.6099V14.75Z" fill="white"/>
</mask>
<g mask="url(#mask3_2280_4266)">
<path d="M13.2999 14.75H13.2799C13.2799 15.49 6.31992 17.23 5.91992 17.32L8.10992 18.03L13.6099 17.72V15.44C13.6099 15.18 13.4899 14.93 13.3099 14.75" fill="#1A223A"/>
</g>
</g>
</g>
<path d="M12.1499 16.6497C12.1499 16.6497 13.5999 16.2097 13.5999 15.4297V17.4397L12.1499 16.6497Z" fill="#16233D"/>
<path d="M13.6096 18.6801V17.2401C13.6096 16.7401 12.8896 16.4101 12.2596 16.6101L5.34955 18.8601C5.00955 18.9701 4.78955 19.2201 4.78955 19.4901V21.5501L13.6096 18.6801Z" fill="#1A223A"/>
<path d="M4.77979 22.1688V23.1388C4.77979 23.6388 5.49979 23.9688 6.12979 23.7688L13.0398 21.5188C13.3798 21.4088 13.5998 21.1588 13.5998 20.8888V19.2988L4.77979 22.1688Z" fill="#1A223A"/>
<path d="M20.3797 21.2897C19.9697 21.5497 19.4997 21.6697 19.0197 21.6497C17.6597 21.6497 16.8597 20.9497 16.8597 19.5797V17.0797H15.9697V15.7897H16.8597V14.1797H18.5297V15.7897H19.9697V17.0797H18.5297V19.5597C18.5297 20.0497 18.7997 20.3197 19.2497 20.3197C19.4897 20.3197 19.7297 20.2497 19.9297 20.1097L20.3797 21.2897Z" fill="#1A223A"/>
<path d="M27.6196 18.679C27.6196 20.489 26.3596 21.649 24.7396 21.649C24.0896 21.679 23.4496 21.429 22.9996 20.949V23.639H21.3296V15.789H22.9296V16.459C23.3496 15.959 23.9696 15.709 24.7396 15.709C26.3596 15.709 27.6196 16.869 27.6196 18.679ZM25.9196 18.679C25.9196 17.679 25.2896 17.079 24.4496 17.079C23.6096 17.079 22.9796 17.679 22.9796 18.679C22.9796 19.679 23.6096 20.279 24.4496 20.279C25.2896 20.279 25.9196 19.679 25.9196 18.679Z" fill="#1A223A"/>
<path d="M33.7498 18.2695V21.5595H32.1798V20.8395C31.8698 21.3695 31.2698 21.6395 30.4198 21.6395C29.0698 21.6395 28.2598 20.8895 28.2598 19.8895C28.2598 18.8895 28.9798 18.1595 30.7398 18.1595H32.0698C32.0698 17.4395 31.6398 17.0195 30.7398 17.0195C30.1398 17.0195 29.5598 17.1995 29.0798 17.5595L28.4798 16.3895C29.1098 15.9395 30.0498 15.6895 30.9698 15.6895C32.7298 15.6895 33.7498 16.5095 33.7498 18.2495M32.0798 19.7195V19.1295H30.9298C30.1498 19.1295 29.8998 19.4195 29.8998 19.8095C29.8998 20.2295 30.2498 20.5095 30.8398 20.5095C31.3998 20.5095 31.8798 20.2495 32.0698 19.7295" fill="#1A223A"/>
<path d="M40.9496 15.799V20.609C40.9496 22.759 39.7896 23.739 37.7096 23.739C36.6196 23.739 35.5496 23.469 34.8796 22.949L35.5496 21.749C36.1396 22.179 36.8596 22.409 37.5896 22.399C38.7696 22.399 39.2896 21.859 39.2896 20.819V20.569C38.8496 21.049 38.2196 21.289 37.4696 21.289C35.8696 21.289 34.5796 20.179 34.5796 18.499C34.5796 16.819 35.8696 15.709 37.4696 15.709C38.2696 15.709 38.9396 15.979 39.3796 16.539V15.799H40.9696H40.9496ZM39.2996 18.499C39.2996 17.649 38.6696 17.079 37.7896 17.079C36.9096 17.079 36.2696 17.649 36.2696 18.499C36.2696 19.349 36.9096 19.919 37.7896 19.919C38.6696 19.919 39.2996 19.349 39.2996 18.499Z" fill="#1A223A"/>
<path d="M47.22 18.2695V21.5595H45.65V20.8395C45.34 21.3695 44.74 21.6395 43.89 21.6395C42.54 21.6395 41.73 20.8895 41.73 19.8895C41.73 18.8895 42.45 18.1595 44.21 18.1595H45.54C45.54 17.4395 45.11 17.0195 44.21 17.0195C43.61 17.0195 43.03 17.1995 42.55 17.5595L41.95 16.3895C42.58 15.9395 43.52 15.6895 44.44 15.6895C46.2 15.6895 47.22 16.5095 47.22 18.2495M45.55 19.7195V19.1295H44.4C43.62 19.1295 43.37 19.4195 43.37 19.8095C43.37 20.2295 43.72 20.5095 44.31 20.5095C44.87 20.5095 45.35 20.2495 45.54 19.7295" fill="#1A223A"/>
</g>
</g>
</g>
<rect x="0.5" y="0.5" width="51" height="35" rx="3.5" stroke="#EAEAEA"/>
<defs>
<clipPath id="clip0_2280_4266">
<rect width="52" height="36" rx="4" fill="white"/>
</clipPath>
</defs>
</svg>
