<svg width="52" height="36" viewBox="0 0 52 36" fill="none" xmlns="http://www.w3.org/2000/svg">
<rect x="0.5" y="0.5" width="51" height="35" rx="3.5" fill="white"/>
<rect x="0.5" y="0.5" width="51" height="35" rx="3.5" stroke="#EAEAEA"/>
<path d="M7.3999 3.89938L7.4399 31.5094C7.4399 32.8594 8.3799 33.9894 9.7199 33.9894H26.5099C39.1999 33.9894 44.4599 26.6994 44.4599 17.2694C44.4599 7.83938 37.9299 2.10938 25.2299 2.10938L11.8699 2.28938C10.5199 2.28938 7.6699 2.15938 7.6699 3.49938L7.3999 3.89938Z" fill="white"/>
<path d="M26.58 34.2193H9.96004C8.48004 34.2193 7.29004 33.0193 7.29004 31.5493V4.4493C7.29004 2.9693 8.49004 1.7793 9.96004 1.7793H26.58C42.35 1.7793 44.7 11.9293 44.7 17.9693C44.7 28.4493 38.26 34.2293 26.58 34.2293V34.2193ZM8.18004 4.4493V31.5493C8.18004 32.5393 8.97004 33.3293 9.96004 33.3293H26.58C37.69 33.3293 43.81 27.8693 43.81 17.9593C43.81 4.64929 33.01 2.6593 26.58 2.6593H9.96004C8.97004 2.6593 8.18004 3.4493 8.18004 4.4393V4.4493Z" fill="black"/>
<path d="M17.48 7.0693V30.6993H27.77C37.11 30.6993 41.16 25.4193 41.16 17.9593C41.16 10.4993 37.11 5.2793 27.77 5.2793H19.27C18.28 5.2793 17.49 6.0893 17.49 7.0593L17.48 7.0693Z" fill="#C80066"/>
<path d="M21.0999 14.7798C21.4599 14.7798 21.7999 14.8398 22.1199 14.9498C22.4399 15.0598 22.6999 15.2398 22.9399 15.4698C23.1599 15.7098 23.3399 15.9998 23.4799 16.3298C23.6099 16.6798 23.6699 17.0798 23.6699 17.5498C23.6699 17.9698 23.6099 18.3398 23.5199 18.6898C23.4099 19.0398 23.2599 19.3398 23.0499 19.5898C22.8399 19.8398 22.5799 20.0398 22.2599 20.1898C21.9399 20.3298 21.5599 20.4098 21.1299 20.4098H18.6899V14.7598H21.0999V14.7798ZM21.0199 19.3898C21.1999 19.3898 21.3699 19.3598 21.5499 19.3098C21.7199 19.2498 21.8699 19.1598 21.9999 19.0198C22.1299 18.8798 22.2399 18.7098 22.3199 18.4898C22.3999 18.2698 22.4499 18.0198 22.4499 17.6998C22.4499 17.4198 22.4199 17.1598 22.3699 16.9298C22.3199 16.6998 22.2199 16.4998 22.0899 16.3498C21.9599 16.1998 21.7999 16.0598 21.5899 15.9698C21.3799 15.8798 21.1299 15.8398 20.8199 15.8398H19.9299V19.3998H21.0299L21.0199 19.3898ZM28.6999 14.7798V15.8198H25.7199V17.0298H28.4599V17.9898H25.7199V19.3698H28.7699V20.4098H24.4799V14.7598H28.6999V14.7798ZM35.0799 20.4298H33.7899L33.3599 19.1798H31.2399L30.7899 20.4298H29.5399L31.6699 14.7798H32.9599L35.0799 20.4298ZM33.0299 18.2398L32.3199 16.1698H32.3099L31.5699 18.2398H33.0299ZM37.0899 14.7698V19.3798H39.8499V20.4198H35.8599V14.7698H37.0999H37.0899Z" fill="white"/>
<path d="M14.79 30.7C12.6 30.7 10.85 28.93 10.85 26.76V23.68C10.85 22.59 11.73 21.7 12.83 21.7C13.93 21.7 14.81 22.58 14.81 23.68V30.7H14.8H14.79ZM12.83 20.2C11.39 20.2 10.23 19.04 10.23 17.6C10.23 16.16 11.39 15 12.83 15C14.27 15 15.43 16.16 15.43 17.6C15.43 19.04 14.27 20.2 12.83 20.2Z" fill="black"/>
</svg>
