<svg width="52" height="36" viewBox="0 0 52 36" fill="none" xmlns="http://www.w3.org/2000/svg">
<rect x="0.5" y="0.5" width="51" height="35" rx="3.5" fill="white"/>
<rect x="0.5" y="0.5" width="51" height="35" rx="3.5" stroke="#EAEAEA"/>
<path d="M29.7197 24.8697C29.7197 25.2597 30.0197 25.5597 30.4097 25.5597C30.7997 25.5597 31.0897 25.2597 31.0897 24.8697C31.0897 24.4797 30.7897 24.1797 30.4097 24.1797C30.0297 24.1797 29.7197 24.4797 29.7197 24.8697Z" fill="#1D1D1B"/>
<path d="M33.3101 27.1202L33.2701 27.1502L33.1801 26.9102C33.1501 26.8202 33.0701 26.7702 32.9801 26.7702H32.5401C32.4301 26.7702 32.3301 26.8602 32.3301 26.9802V32.6602C32.3301 32.7702 32.4201 32.8602 32.5401 32.8602H33.3301C33.4501 32.8602 33.5401 32.7702 33.5401 32.6602V28.0702H33.5701C33.9001 27.8902 34.2301 27.7802 34.8701 27.7802C35.6401 27.7802 35.7901 28.0702 35.7901 28.5402V32.6602C35.7901 32.7702 35.8801 32.8602 36.0001 32.8602H36.7901C36.9001 32.8602 37.0001 32.7702 37.0001 32.6602V28.5702C37.0001 27.3202 36.2601 26.6602 34.8701 26.6602C34.3501 26.6602 33.8301 26.8202 33.3101 27.1302" fill="#1D1D1B"/>
<path d="M30.9898 26.9698C30.9898 26.8598 30.8998 26.7598 30.7798 26.7598H30.0098C29.8998 26.7598 29.7998 26.8498 29.7998 26.9698V32.6498C29.7998 32.7698 29.8998 32.8598 30.0098 32.8598H30.7798C30.8998 32.8598 30.9898 32.7698 30.9898 32.6498V26.9698Z" fill="#1D1D1B"/>
<path d="M28.3599 24.1299C28.3599 24.0199 28.2699 23.9199 28.1499 23.9199H27.3799C27.2699 23.9199 27.1699 24.0199 27.1699 24.1299V32.6399C27.1699 32.7499 27.2699 32.8499 27.3799 32.8499H28.1499C28.2699 32.8499 28.3599 32.7599 28.3599 32.6399V24.1299Z" fill="#1D1D1B"/>
<path d="M16.49 29.2799C16.55 28.4999 16.76 27.7699 17.85 27.7699C18.79 27.7699 18.98 28.2799 18.99 29.2799V29.3199H16.48V29.2799H16.49ZM15.26 29.8199C15.26 30.5999 15.26 32.9799 17.85 32.9799C18.63 32.9799 19.13 32.9299 19.8 32.7199C19.88 32.6899 19.92 32.6099 19.92 32.5299V31.8899C19.92 31.8199 19.89 31.7499 19.83 31.7199C19.77 31.6799 19.7 31.6899 19.63 31.6999C19.05 31.8199 18.59 31.8599 17.85 31.8599C16.77 31.8599 16.56 31.1799 16.49 30.4399V30.3999H20C20.11 30.3999 20.2 30.3099 20.2 30.1899V29.8299C20.2 28.2999 20.02 26.6699 17.84 26.6699C15.25 26.6699 15.25 29.0499 15.25 29.8299" fill="#1D1D1B"/>
<path d="M22.3701 29.2799C22.4301 28.4999 22.6301 27.7699 23.7301 27.7699C24.6701 27.7699 24.8501 28.2799 24.8801 29.2799V29.3199H22.3701V29.2799ZM21.1401 29.8199C21.1401 30.5999 21.1401 32.9799 23.7301 32.9799C24.5101 32.9799 25.0201 32.9299 25.6901 32.7199C25.7701 32.6899 25.8101 32.6099 25.8101 32.5299V31.8899C25.8101 31.8199 25.7801 31.7499 25.7201 31.7199C25.6601 31.6799 25.5901 31.6899 25.5301 31.6999C24.9501 31.8199 24.4901 31.8599 23.7401 31.8599C22.6601 31.8599 22.4501 31.1799 22.3801 30.4399V30.3999H25.8901C26.0001 30.3999 26.1001 30.3099 26.1001 30.1899V29.8299C26.1001 28.2999 25.9201 26.6699 23.7401 26.6699C21.1501 26.6699 21.1501 29.0499 21.1501 29.8299" fill="#1D1D1B"/>
<path d="M39.2698 29.2799C39.3298 28.4999 39.5398 27.7699 40.6298 27.7699C41.5698 27.7699 41.7498 28.2799 41.7798 29.2799V29.3199H39.2698V29.2799ZM38.0398 29.8199C38.0398 30.5999 38.0398 32.9799 40.6298 32.9799C41.3998 32.9799 41.9098 32.9299 42.5798 32.7199C42.6598 32.6899 42.6998 32.6099 42.6998 32.5299V31.8899C42.6998 31.8199 42.6698 31.7499 42.5998 31.7199C42.5498 31.6799 42.4798 31.6899 42.4098 31.6999C41.8298 31.8199 41.3698 31.8599 40.6198 31.8599C39.5398 31.8599 39.3298 31.1799 39.2598 30.4399V30.3999H42.7698C42.8798 30.3999 42.9798 30.3099 42.9798 30.1899V29.8299C42.9798 28.2999 42.7998 26.6699 40.6198 26.6699C38.0298 26.6699 38.0298 29.0499 38.0298 29.8299" fill="#1D1D1B"/>
<path d="M13.3799 28.1387C13.3799 28.1387 13.3599 28.1287 13.3399 28.1187C13.3499 28.1187 13.3699 28.0987 13.3699 28.0987C13.9499 27.6787 14.2799 27.0487 14.2799 26.3587C14.2799 25.4387 13.8999 23.8887 11.3799 23.8887H8.65994C8.53994 23.8887 8.43994 23.9887 8.43994 24.1087V32.6287C8.43994 32.7487 8.53994 32.8487 8.65994 32.8487H11.4599C13.4599 32.8487 14.5699 31.9187 14.5699 30.2287C14.5699 29.3087 14.1199 28.5287 13.3699 28.1287L13.3799 28.1387ZM9.70994 25.0887H11.4499C12.7599 25.0887 12.9299 25.6987 12.9299 26.3587C12.9299 27.1987 12.4799 27.6087 11.5399 27.6087H9.70994V25.0787V25.0887ZM11.5199 31.6587H9.70994V28.8087H11.5399C12.7799 28.8087 13.2199 29.1787 13.2199 30.2287C13.2199 30.9287 13.0199 31.6487 11.5199 31.6487V31.6587Z" fill="#1D1D1B"/>
<path d="M18.81 18.2894C21.3 18.3594 24.12 18.4194 25.69 18.4194C27.26 18.4194 30.04 18.3594 32.5 18.2894C33.49 17.1894 34.22 15.8494 34.6 14.3594H16.71C17.08 15.8394 17.81 17.1894 18.81 18.2894Z" fill="#F4B121"/>
<path d="M18.8101 18.2891C20.5001 20.1591 22.9401 21.3391 25.6601 21.3391C28.3801 21.3391 30.8201 20.1591 32.5101 18.2891C30.0501 18.3591 27.2601 18.4191 25.7001 18.4191C24.1401 18.4191 21.3001 18.3491 18.8201 18.2891H18.8101Z" fill="#1D1D1B"/>
<path d="M16.4302 12.1001C16.4302 12.8801 16.5302 13.6401 16.7102 14.3701H34.6002C34.7802 13.6401 34.8802 12.8901 34.8802 12.1001C34.8802 11.3101 34.7802 10.5601 34.6002 9.83008H16.7102C16.5302 10.5501 16.4302 11.3101 16.4302 12.1001Z" fill="#1D1D1B"/>
<path d="M32.5101 5.89961C30.8201 4.02961 28.3801 2.84961 25.6601 2.84961C22.9401 2.84961 20.5001 4.02961 18.8101 5.89961C21.3001 5.82961 24.1201 5.76961 25.6901 5.76961C27.2601 5.76961 30.0401 5.83961 32.5001 5.89961H32.5101Z" fill="#1D1D1B"/>
<path d="M25.69 5.76953C24.11 5.76953 21.29 5.83953 18.81 5.89953C17.82 6.99953 17.09 8.33953 16.71 9.82953H34.6C34.23 8.34953 33.49 6.99953 32.5 5.89953C30.04 5.82953 27.25 5.76953 25.69 5.76953Z" fill="#F4B121"/>
</svg>
