<svg width="70" height="48" viewBox="0 0 70 48" fill="none" xmlns="http://www.w3.org/2000/svg">
<path d="M7.366 20.7328L8.82146 22.1883L11.7324 19.2774L14.6433 22.1883L16.0988 20.7328L11.7324 16.3665L7.366 20.7328Z" fill="white"/>
<path d="M7.366 26.5547L8.82146 25.0992L11.7324 28.0101L14.2794 25.4631L15.7349 26.9185L11.7324 30.9211L7.366 26.5547Z" fill="white"/>
<path d="M17.5542 22.1883L19.0097 23.6438L17.5542 25.0992L16.0988 23.6438L17.5542 22.1883Z" fill="white"/>
<path d="M5.91054 22.1883L7.366 23.6438L5.91054 25.0992L4.45508 23.6438L5.91054 22.1883Z" fill="white"/>
<path d="M11.7324 22.1883L13.1878 23.6438L11.7324 25.0992L10.2769 23.6438L11.7324 22.1883Z" fill="white"/>
<path d="M34.9999 26.5546V19.7624M31.1187 19.7624H38.8811M37.0185 31.5885C35.9027 32.6394 34.0882 32.6394 32.9724 31.5885L26.2481 25.235C25.3166 24.3559 25.0158 22.6889 25.5786 21.5177L27.9074 16.6487C28.3634 15.6871 29.5763 14.9109 30.6048 14.9109H39.3958C40.4243 14.9109 41.6372 15.6891 42.0932 16.6477L44.422 21.5177C44.9848 22.6889 44.6743 24.3559 43.7525 25.234C40.402 28.4292 40.3894 28.4156 37.0185 31.5885Z" stroke="white" stroke-width="2.18319" stroke-linecap="round" stroke-linejoin="round"/>
<path d="M53.9023 19.2774H59.7242C60.3032 19.2774 60.8585 19.5074 61.2679 19.9169C61.6774 20.3263 61.9074 20.8816 61.9074 21.4606C61.9074 22.0396 61.6774 22.5949 61.2679 23.0044C60.8585 23.4138 60.3032 23.6438 59.7242 23.6438M59.7242 23.6438C60.3032 23.6438 60.8585 23.8738 61.2679 24.2833C61.6774 24.6927 61.9074 25.248 61.9074 25.827C61.9074 26.406 61.6774 26.9613 61.2679 27.3707C60.8585 27.7802 60.3032 28.0102 59.7242 28.0102H53.9023M59.7242 23.6438H55.3578M55.3578 19.2774V28.0102M56.0855 17.0942V19.2774M58.9965 17.0942V19.2774M56.0855 28.0102V30.1934M58.9965 28.0102V30.1934" stroke="white" stroke-width="1.63739" stroke-linecap="round" stroke-linejoin="round"/>
</svg>
