<svg width="52" height="36" viewBox="0 0 52 36" fill="none" xmlns="http://www.w3.org/2000/svg">
<rect x="0.5" y="0.5" width="51" height="35" rx="3.5" fill="white"/>
<rect x="0.5" y="0.5" width="51" height="35" rx="3.5" stroke="#EAEAEA"/>
<path fill-rule="evenodd" clip-rule="evenodd" d="M20.9901 16.0501C19.1301 16.0501 17.9801 17.4601 17.9801 19.1601C17.9801 20.6201 18.8201 22.2401 20.9901 22.2401C22.9601 22.2401 23.5201 20.9801 23.7501 20.2701H22.7201C22.4801 20.2701 22.3101 20.3601 22.1501 20.5601C22.0801 20.6401 21.7401 21.0301 21.0501 21.0301C19.6501 21.0301 19.6301 19.9201 19.6001 19.5401H23.8501C23.9701 17.8301 23.0701 16.0401 20.9901 16.0401M19.6001 18.5101C19.6001 18.3901 19.6901 17.2601 20.9501 17.2601C21.7801 17.2601 22.0801 17.7301 22.2301 18.5101H19.6001ZM24.8501 13.9801C26.2301 13.9801 26.4401 14.1901 26.4501 15.2901V22.1101C25.0601 22.1101 24.8501 21.7201 24.8501 20.6101V13.9901V13.9801ZM27.9701 13.9801C29.3501 13.9801 29.5701 14.1901 29.5701 15.2901V22.1101C28.1801 22.1101 27.9801 21.7201 27.9701 20.6101V13.9901V13.9801ZM17.3601 19.8301C17.1301 21.5101 15.9601 22.2301 14.5201 22.2301C12.8801 22.2301 11.5501 21.1301 11.5501 19.2101C11.5501 17.5001 12.5301 16.0301 14.5501 16.0301C15.9201 16.0301 17.2301 16.7401 17.3201 18.2601H16.1801C15.8201 18.2601 15.7101 18.0801 15.6301 17.8901C15.4901 17.5301 15.1601 17.2501 14.5401 17.2501C13.5401 17.2501 13.1601 18.2401 13.1601 19.1401C13.1601 20.0901 13.5301 21.0201 14.5001 21.0201C15.1301 21.0201 15.4901 20.7501 15.7001 20.2001C15.8401 19.8101 16.2101 19.8301 16.2101 19.8301H17.3501H17.3601ZM4.37012 13.9801C5.95012 13.9801 6.15012 14.3801 6.15012 15.5601V17.3501C6.15012 17.3501 7.96012 15.4301 8.63012 14.7201C9.30012 14.0101 9.84012 13.9801 10.6901 13.9801H11.5601L8.39012 17.1901L11.8701 22.1101H11.0101C9.82012 22.1101 9.50012 21.9201 8.83012 20.9201C8.28012 20.1001 7.73012 19.2701 7.18012 18.4501L6.16012 19.4901V22.1101H4.38012V13.9801H4.37012ZM47.6301 22.2801H46.4101L46.2301 21.2801C45.5501 22.1101 44.7301 22.4901 43.5901 22.4901C41.1501 22.4901 39.4601 20.6301 39.4601 17.9301C39.4601 15.2301 41.2301 13.3301 43.7701 13.3301C45.7701 13.3301 47.2801 14.5501 47.5101 16.4001H46.2901C45.9601 16.4001 45.6401 16.2201 45.4901 15.9201C45.1901 15.2901 44.5701 14.9401 43.7401 14.9401C42.2701 14.9401 41.3901 16.0601 41.3901 17.9301C41.3901 19.8001 42.2801 20.9501 43.8001 20.9501C45.0101 20.9501 45.8401 20.1501 45.8901 18.9701H43.9301V18.4701C43.9301 17.9601 44.3401 17.5401 44.8501 17.5401H47.6101V22.2801H47.6301ZM38.8501 19.3701C38.8501 21.2801 37.4201 22.6501 35.4201 22.6501C33.5701 22.6501 32.2101 21.6801 32.1101 19.8201H33.4901C33.7301 19.8201 33.9301 19.9801 34.0101 20.2001C34.2101 20.7801 34.7401 21.1601 35.4201 21.1601C36.3401 21.1601 36.9901 20.4401 36.9901 19.4201C36.9901 18.4001 36.3701 17.7401 35.4001 17.7401C34.7901 17.7401 34.3901 17.9601 34.0401 18.4901H32.3901L33.4501 13.4901H38.3301C38.3301 14.8701 38.1201 15.0901 37.0201 15.0901H34.7101L34.2701 17.0301C34.7101 16.5901 35.2201 16.3901 35.9501 16.3901C37.6901 16.3901 38.8501 17.5701 38.8501 19.3701Z" fill="#652D82"/>
</svg>
