<svg width="116" height="57" viewBox="0 0 116 57" fill="none" xmlns="http://www.w3.org/2000/svg">
<path fill-rule="evenodd" clip-rule="evenodd" d="M10.3702 35.3387C14.2779 35.3387 16.1651 33.1406 16.1651 29.9211V22.1501H13.3675V29.8323C13.3675 31.6308 12.3462 32.8741 10.3702 32.8741C8.39409 32.8741 7.35056 31.6308 7.35056 29.8323V22.1501H4.5752V29.9211C4.5752 33.0962 6.46244 35.3165 10.3702 35.3165V35.3387ZM112.015 21.0178C112.015 22.3722 110.949 23.4601 109.617 23.4601C108.285 23.4601 107.241 22.3722 107.241 21.04C107.241 19.7078 108.307 18.6199 109.617 18.6199H111.993V20.9956L112.015 21.0178ZM32.9949 35.0944V32.6743H26.8003L32.8617 24.3704V22.1501H23.2256V24.5702H29.287L23.2256 32.8519V35.0944H32.9949ZM46.3833 35.3165C49.203 35.3165 50.8238 33.74 51.7564 32.1414L49.4029 30.9869C48.87 32.0526 47.7154 32.8741 46.3833 32.8741C44.052 32.8741 42.3645 31.0757 42.3645 28.6334C42.3645 26.1911 44.052 24.3926 46.3833 24.3926C47.7154 24.3926 48.87 25.2363 49.4029 26.2799L51.7564 25.1253C50.846 23.5045 49.2252 21.9725 46.3833 21.9725C42.5422 21.9725 39.567 24.6813 39.567 28.6556C39.567 32.6299 42.5422 35.3609 46.3833 35.3609V35.3165ZM70.5844 35.0944L65.6332 22.1501H62.2139L57.2627 35.0944H60.3711L61.1704 32.8963H66.6767L67.476 35.0944H70.5844ZM65.9218 30.4762H61.9253L63.9236 24.9033L65.9218 30.4762ZM88.3023 38.3361L83.5953 30.1654C84.9719 29.8323 86.3929 28.6112 86.3929 26.3243C86.3929 23.9264 84.7499 22.1501 82.0855 22.1501H76.0907V35.0944H78.8217V30.4984H80.82L85.1495 38.3361H88.2801H88.3023ZM81.6859 28.0783H78.8217V24.5925H81.6859C82.7738 24.5925 83.6175 25.2585 83.6175 26.3465C83.6175 27.4344 82.796 28.1005 81.6859 28.1005V28.0783ZM98.5379 35.0944C102.557 35.0944 105.332 32.5411 105.332 28.6334C105.332 24.7257 102.534 22.1501 98.5379 22.1501H93.4756V35.0944H98.5379ZM98.5379 32.6743H96.2066V24.5925H98.5379C101.18 24.5925 102.557 26.3687 102.557 28.6556C102.557 30.9425 101.069 32.6965 98.5379 32.6965V32.6743Z" fill="white"/>
</svg>
