<svg width="99" height="69" viewBox="0 0 99 69" fill="none" xmlns="http://www.w3.org/2000/svg">
<path d="M20.5372 24.446C20.5372 24.446 20.2952 24.688 20.3644 24.8263C20.3989 24.9645 20.6755 24.93 20.8137 24.9991C21.0211 25.1028 21.0903 25.3102 21.0903 25.5176C21.0903 25.7596 21.0903 28.1793 21.0903 31.4977C18.1521 31.4977 15.2484 31.4977 12.3102 31.4631C12.2411 30.7372 12.2411 29.9076 12.3102 29.0435C12.3448 28.2138 12.4485 27.4188 12.6213 26.6238C12.6905 26.2781 12.7596 25.9324 12.8633 25.5868C12.967 25.2065 13.2436 24.7226 13.209 24.3423C13.209 24.2732 13.209 24.2386 13.1744 24.2041C13.1053 24.1004 12.9325 24.1349 12.8288 24.1695C12.0683 24.3769 11.3769 24.7571 10.7893 25.2757C10.6165 25.4485 10.1325 25.8633 9.71772 26.6583C8.57701 28.6632 8.50788 31.5323 8.50788 31.5323C8.43875 33.3643 8.36961 37.1321 10.3399 41.0036C10.3399 41.0036 11.7226 43.7344 13.6929 44.3912C14.0732 44.5295 14.1769 44.4258 14.2114 44.3912C14.3497 44.1838 14.0386 43.8727 13.9349 43.6999C13.7621 43.4233 13.5892 43.1122 13.4855 42.8357C13.209 42.2135 13.0362 41.5567 12.8979 40.8654C12.4831 38.8259 12.2065 36.7519 12.2757 34.6779H21.1248V42.49C21.1248 43.0085 21.3322 43.4924 21.8162 43.7344C22.0927 43.8727 22.4384 43.9418 22.7495 43.9764C23.3025 44.0455 23.8902 44.0801 24.4433 43.9764C24.7544 43.9073 25.1 43.8035 25.342 43.5616C25.7222 43.2159 25.7222 42.6974 25.7222 42.2135C25.7222 38.2728 25.7568 34.3668 25.7222 30.4261C25.7222 29.4583 25.7222 28.4904 25.7222 27.5225C25.7222 26.209 25.3074 24.8608 24.1322 24.1349C23.6136 23.8238 23.0606 23.651 22.4729 23.651C21.7816 23.651 21.0903 23.9275 20.5718 24.5497" fill="white"/>
<path d="M6.70936 29.2165C5.53408 30.5992 5.46495 32.2239 5.39582 33.8485C5.25755 37.6509 6.64023 40.3471 6.95133 40.9002C7.64267 42.2137 8.40314 43.0433 8.61054 43.3199C9.40558 44.184 10.2006 44.8062 10.8228 45.2211C10.3389 45.1174 9.64755 44.8754 8.92165 44.426C8.23031 44.0112 7.74637 43.5273 7.43527 43.1816C6.9859 42.594 6.64023 42.0755 6.43282 41.6952C5.87975 40.7273 5.15385 39.4829 4.80818 37.8237C4.70448 37.3743 4.63534 36.8904 4.46251 36.8904C4.18597 36.8904 3.90943 37.7892 3.8403 37.9966C3.6329 38.6533 3.56376 39.241 3.59833 39.5866C3.59833 40.831 4.53164 43.2507 6.77849 44.8754C6.77849 44.8754 8.71424 46.2926 12.0672 46.4309C12.2055 46.4309 13.0005 46.4309 13.6228 45.9815C13.9339 45.7741 14.1067 45.463 13.6228 45.2902C10.0624 44.2532 8.64511 40.4508 7.88464 37.1669C7.7118 36.441 7.57353 35.7497 7.46983 35.0238C7.1933 32.8115 7.1933 30.3918 7.91921 28.2487C7.36613 28.3869 7.12417 28.8363 6.81306 29.2165" fill="white"/>
<path d="M7.81641 28.2477H7.85034L7.81641 28.2137V28.2477Z" fill="white"/>
<path d="M7.81641 28.2129L7.85015 28.2467L7.88388 28.1792L7.81641 28.2129Z" fill="white"/>
<path d="M69.8656 23.6165C69.8656 23.6165 69.5545 23.6165 69.3816 23.6165C69.1742 23.6165 68.9322 23.6165 68.7248 23.6165C68.5866 23.6165 68.4137 23.6165 68.2755 23.6165C67.9989 23.6165 67.7224 23.6165 67.4459 23.6165C67.0656 23.6165 66.6854 23.7547 66.4089 24.0658C66.0632 24.4115 65.8212 24.8954 65.3719 25.967C65.3027 26.1398 65.2336 26.2781 65.199 26.3818C65.0262 26.7275 62.7102 31.8088 61.8115 33.2606C61.7423 33.3643 61.6041 33.6063 61.4312 33.6063C61.2584 33.6063 61.1201 33.3643 61.051 33.2606C60.1522 31.8088 57.8363 26.7275 57.6634 26.3818C57.6288 26.2781 57.5597 26.1398 57.4906 25.967C57.0412 24.8954 56.7992 24.4115 56.4536 24.0658C56.177 23.7893 55.7968 23.651 55.4166 23.6165C55.14 23.6165 54.8635 23.6165 54.587 23.6165C54.4487 23.6165 54.2759 23.6165 54.1376 23.6165C53.9302 23.6165 53.6882 23.6165 53.4808 23.6165C53.308 23.6165 53.1697 23.6165 52.9969 23.6165C52.7549 23.6165 52.5475 23.6856 52.3401 23.8239C51.9599 24.0658 51.8216 24.4115 51.7525 24.5498C51.6488 24.7917 51.6142 24.9991 51.6142 25.0683C51.4414 25.8979 51.4414 26.5547 51.4414 27.004C51.2685 32.2236 51.0957 37.4087 50.9229 42.6283C50.9229 42.6974 50.9229 42.8357 50.992 42.974C51.2685 43.7344 52.2364 44.1147 52.9623 44.1147C53.7228 44.1147 54.6215 43.769 54.9326 43.0777C54.9326 43.0777 55.0018 42.9394 55.0363 42.8011C55.2437 41.7296 55.382 33.1915 55.4166 29.4583C57.456 33.6409 59.0461 36.7519 59.8066 38.1346C59.9448 38.4111 60.2905 38.9988 60.8781 39.1716C61.051 39.2407 61.2238 39.2753 61.4312 39.2753C61.6386 39.2753 61.8115 39.2753 61.9843 39.1716C62.5719 38.9642 62.883 38.4111 63.0559 38.1346C63.7818 36.7519 65.4064 33.6409 67.4459 29.4583C67.4804 33.1915 67.6187 41.7296 67.8261 42.8011C67.8261 42.9394 67.9298 43.0777 67.9298 43.0777C68.2409 43.769 69.1397 44.1147 69.9001 44.1147C70.6606 44.1147 71.6285 43.7344 71.8704 42.974C71.905 42.8357 71.9396 42.732 71.9396 42.6283C71.7667 37.4087 71.5939 32.2236 71.4211 27.004C71.4211 26.5547 71.4211 25.8633 71.2482 25.0683C71.2482 24.9991 71.2137 24.7917 71.11 24.5498C71.0408 24.4115 70.9026 24.0658 70.5223 23.8239C70.3149 23.6856 70.1075 23.6165 69.9001 23.6165" fill="white"/>
<path d="M35.0527 39.3446C35.0527 39.3446 35.1564 39.3446 35.191 39.3446C35.191 39.4138 35.0527 39.3446 35.0527 39.3101" fill="white"/>
<mask id="mask0_18567_85284" style="mask-type:luminance" maskUnits="userSpaceOnUse" x="29" y="23" width="19" height="22">
<path d="M42.9752 24.2041C42.6987 24.5152 42.595 24.8954 42.595 25.1374C42.595 28.9743 42.595 32.8458 42.5604 36.6828C42.5604 37.063 42.5604 37.7543 42.1456 38.5494C41.7308 39.379 41.1778 39.8284 41.0395 39.9666C41.0395 39.9666 40.0716 40.7271 38.7926 40.8308C38.6544 40.8308 38.5161 40.8308 38.5161 40.8308C38.5161 40.8308 38.447 40.8308 38.4124 40.8308C38.4124 40.8308 38.3433 40.8308 38.3087 40.8308C38.3087 40.8308 38.1704 40.8308 38.0322 40.8308C36.7532 40.7271 35.7853 39.9666 35.7853 39.9666C35.647 39.8629 35.0594 39.379 34.6792 38.5494C34.2989 37.7543 34.2643 37.063 34.2643 36.6828C34.2643 32.8458 34.2643 29.0089 34.2298 25.1374C34.2298 24.8954 34.1261 24.5152 33.8495 24.2041C33.331 23.6165 32.4669 23.651 31.8101 23.651C31.1188 23.651 30.3928 23.6856 29.978 24.2387C29.6324 24.6535 29.6669 25.172 29.7015 25.4139V37.4778C29.7015 38.6185 30.0126 40.1049 31.1188 41.4876C32.3286 43.0777 34.0569 43.769 34.5755 43.9764C35.647 44.3912 36.7186 44.4949 37.0297 44.5295C37.5828 44.5986 38.0667 44.5986 38.4124 44.564C38.7581 44.564 39.242 44.564 39.7951 44.5295C40.1062 44.5295 41.1777 44.3912 42.2493 43.9764C42.7678 43.769 44.4962 43.0777 45.706 41.4876C46.7776 40.0703 47.1233 38.5839 47.1233 37.4778V25.4139C47.1233 25.172 47.1924 24.6535 46.8467 24.2387C46.4319 23.6856 45.706 23.6856 45.0147 23.651C44.911 23.651 44.7727 23.651 44.6344 23.651C44.0468 23.651 43.4246 23.7202 42.9752 24.2041Z" fill="white"/>
</mask>
<g mask="url(#mask0_18567_85284)">
<path d="M34.604 15.7426L20.2412 38.6833L42.2737 52.4775L56.6365 29.5368L34.604 15.7426Z" fill="white"/>
</g>
<path d="M36.0576 44.3219C36.0576 44.3219 36.1261 44.3219 36.1604 44.3219L36.0919 44.3561V44.2876L36.0576 44.3219Z" fill="white"/>
<mask id="mask1_18567_85284" style="mask-type:luminance" maskUnits="userSpaceOnUse" x="74" y="23" width="22" height="22">
<path d="M79.6468 36.2678C79.0591 33.7444 79.1628 30.7371 80.5801 28.4557C81.5825 26.9002 83.2417 25.9669 85.0047 25.9323C86.7676 25.9323 88.4268 26.8656 89.4292 28.4557C90.8465 30.7371 90.9502 33.7099 90.3625 36.2678C89.7403 38.8949 87.9774 41.7294 85.0392 41.764C82.0665 41.764 80.3381 38.8949 79.7159 36.2678M78.6443 25.2064C77.0197 26.4162 75.8444 28.1446 75.2568 30.0803C73.5975 35.6456 76.0864 42.7318 82.101 44.3219C83.0689 44.5639 84.0713 44.6676 85.0392 44.6676C86.0417 44.6676 87.0095 44.5985 87.9774 44.3219C93.9575 42.7664 96.4809 35.6456 94.8217 30.0803C94.234 28.1446 93.0588 26.4162 91.4341 25.2064C89.6021 23.8237 87.3206 23.0978 85.0392 23.0632C82.7578 23.1324 80.4764 23.8237 78.6443 25.2064Z" fill="white"/>
</mask>
<g mask="url(#mask1_18567_85284)">
<path d="M79.2725 13.0808L64.1074 39.2104L90.6257 54.6011L105.791 28.4715L79.2725 13.0808Z" fill="white"/>
</g>
</svg>
