<svg width="113" height="79" viewBox="0 0 113 79" fill="none" xmlns="http://www.w3.org/2000/svg">
<path d="M23.5471 28.0835C23.5471 28.0835 23.2723 28.3582 23.3508 28.5152C23.3901 28.6722 23.7041 28.633 23.8611 28.7115C24.0966 28.8293 24.1751 29.0648 24.1751 29.3003C24.1751 29.575 24.1751 32.3227 24.1751 36.0909C20.8387 36.0909 17.5415 36.0909 14.2051 36.0517C14.1265 35.2274 14.1265 34.2853 14.2051 33.304C14.2443 32.362 14.3621 31.4592 14.5583 30.5564C14.6368 30.1638 14.7153 29.7713 14.8331 29.3788C14.9508 28.947 15.2649 28.3975 15.2256 27.9657C15.2256 27.8872 15.2256 27.848 15.1864 27.8087C15.1079 27.6909 14.9116 27.7302 14.7938 27.7694C13.9303 28.005 13.1452 28.4367 12.478 29.0255C12.2817 29.2218 11.7322 29.6928 11.2611 30.5956C9.96581 32.8722 9.88731 36.1302 9.88731 36.1302C9.8088 38.2105 9.7303 42.489 11.9677 46.8853C11.9677 46.8853 13.5378 49.9862 15.7751 50.732C16.2069 50.889 16.3247 50.7712 16.3639 50.732C16.5209 50.4965 16.1677 50.1432 16.0499 49.9469C15.8536 49.6329 15.6574 49.2797 15.5396 48.9656C15.2256 48.2591 15.0293 47.5133 14.8723 46.7283C14.4013 44.4124 14.0873 42.0573 14.1658 39.7021H24.2144V48.5731C24.2144 49.1619 24.4499 49.7114 24.9994 49.9862C25.3134 50.1432 25.7059 50.2217 26.0592 50.261C26.6873 50.3395 27.3545 50.3787 27.9826 50.261C28.3358 50.1825 28.7284 50.0647 29.0031 49.7899C29.4349 49.3974 29.4349 48.8086 29.4349 48.2591C29.4349 43.7843 29.4742 39.3488 29.4349 34.8741C29.4349 33.775 29.4349 32.676 29.4349 31.5769C29.4349 30.0853 28.9639 28.5545 27.6293 27.7302C27.0405 27.3769 26.4125 27.1807 25.7452 27.1807C24.9602 27.1807 24.1751 27.4947 23.5863 28.2012" fill="white"/>
<path d="M7.84409 33.5004C6.50952 35.0705 6.43102 36.9154 6.35251 38.7602C6.1955 43.078 7.76559 46.1396 8.11886 46.7677C8.90391 48.2593 9.76745 49.2013 10.003 49.5153C10.9058 50.4966 11.8086 51.2032 12.5151 51.6742C11.9656 51.5565 11.1805 51.2817 10.3562 50.7714C9.57119 50.3004 9.02166 49.7509 8.66839 49.3583C8.15811 48.691 7.76559 48.1023 7.53008 47.6705C6.90204 46.5714 6.07775 45.1583 5.68523 43.2742C5.56747 42.764 5.48896 42.2144 5.2927 42.2144C4.97868 42.2144 4.66467 43.235 4.58616 43.4705C4.35065 44.2163 4.27214 44.8836 4.3114 45.2761C4.3114 46.6892 5.37121 49.4368 7.9226 51.2817C7.9226 51.2817 10.1207 52.891 13.9282 53.048C14.0852 53.048 14.988 53.048 15.6945 52.5378C16.0478 52.3022 16.2441 51.949 15.6945 51.7527C11.6516 50.5751 10.0422 46.2574 9.17867 42.5284C8.98241 41.7041 8.8254 40.9191 8.70764 40.0948C8.39363 37.5827 8.39363 34.835 9.21792 32.4014C8.58989 32.5584 8.31512 33.0687 7.96185 33.5004" fill="white"/>
<path d="M9.10254 32.4011H9.14179L9.10254 32.3618V32.4011Z" fill="white"/>
<path d="M9.10254 32.3609L9.14114 32.3995L9.17974 32.3223L9.10254 32.3609Z" fill="white"/>
<path d="M79.562 27.1411C79.562 27.1411 79.2087 27.1411 79.0124 27.1411C78.7769 27.1411 78.5022 27.1411 78.2666 27.1411C78.1096 27.1411 77.9134 27.1411 77.7564 27.1411C77.4424 27.1411 77.1283 27.1411 76.8143 27.1411C76.3825 27.1411 75.9508 27.2981 75.6367 27.6514C75.2442 28.0439 74.9695 28.5934 74.4592 29.8103C74.3807 30.0065 74.3022 30.1635 74.2629 30.2813C74.0667 30.6738 71.4368 36.4439 70.4162 38.0925C70.3377 38.2102 70.1807 38.485 69.9844 38.485C69.7882 38.485 69.6312 38.2102 69.5527 38.0925C68.5321 36.4439 65.9022 30.6738 65.7059 30.2813C65.6667 30.1635 65.5882 30.0065 65.5097 29.8103C64.9994 28.5934 64.7246 28.0439 64.3321 27.6514C64.0181 27.3374 63.5863 27.1804 63.1546 27.1411C62.8405 27.1411 62.5265 27.1411 62.2125 27.1411C62.0555 27.1411 61.8592 27.1411 61.7022 27.1411C61.4667 27.1411 61.1919 27.1411 60.9564 27.1411C60.7602 27.1411 60.6032 27.1411 60.4069 27.1411C60.1321 27.1411 59.8966 27.2196 59.6611 27.3766C59.2293 27.6514 59.0723 28.0439 58.9938 28.2009C58.8761 28.4757 58.8368 28.7112 58.8368 28.7897C58.6405 29.7318 58.6405 30.4776 58.6405 30.9878C58.4443 36.9149 58.248 42.8028 58.0518 48.7298C58.0518 48.8083 58.0518 48.9653 58.1303 49.1224C58.4443 49.9859 59.5433 50.4177 60.3676 50.4177C61.2312 50.4177 62.2517 50.0252 62.605 49.2401C62.605 49.2401 62.6835 49.0831 62.7228 48.9261C62.9583 47.7093 63.1153 38.014 63.1546 33.7747C65.4704 38.5243 67.276 42.057 68.1396 43.627C68.2966 43.9411 68.6891 44.6084 69.3564 44.8046C69.5527 44.8831 69.7489 44.9224 69.9844 44.9224C70.2199 44.9224 70.4162 44.9224 70.6125 44.8046C71.2798 44.5691 71.633 43.9411 71.8293 43.627C72.6536 42.057 74.4984 38.5243 76.8143 33.7747C76.8536 38.014 77.0106 47.7093 77.2461 48.9261C77.2461 49.0831 77.3638 49.2401 77.3638 49.2401C77.7171 50.0252 78.7377 50.4177 79.6012 50.4177C80.4648 50.4177 81.5638 49.9859 81.8386 49.1224C81.8779 48.9653 81.9171 48.8476 81.9171 48.7298C81.7208 42.8028 81.5246 36.9149 81.3283 30.9878C81.3283 30.4776 81.3283 29.6925 81.1321 28.7897C81.1321 28.7112 81.0928 28.4757 80.9751 28.2009C80.8965 28.0439 80.7395 27.6514 80.3078 27.3766C80.0723 27.2196 79.8367 27.1411 79.6012 27.1411" fill="white"/>
<path d="M40.0303 45.0013C40.0303 45.0013 40.1485 45.0013 40.1879 45.0013C40.1879 45.0802 40.0303 45.0013 40.0303 44.9619" fill="white"/>
<mask id="mask0_18567_85561" style="mask-type:luminance" maskUnits="userSpaceOnUse" x="33" y="27" width="21" height="24">
<path d="M49.0262 27.8086C48.7122 28.1619 48.5944 28.5937 48.5944 28.8685C48.5944 33.2254 48.5944 37.6217 48.5552 41.9787C48.5552 42.4105 48.5552 43.1955 48.0842 44.0983C47.6131 45.0404 46.9851 45.5506 46.8281 45.7077C46.8281 45.7077 45.729 46.5712 44.2767 46.689C44.1197 46.689 43.9627 46.689 43.9627 46.689C43.9627 46.689 43.8842 46.689 43.8449 46.689C43.8449 46.689 43.7664 46.689 43.7272 46.689C43.7272 46.689 43.5701 46.689 43.4131 46.689C41.9608 46.5712 40.8617 45.7077 40.8617 45.7077C40.7047 45.5899 40.0375 45.0404 39.6057 44.0983C39.1739 43.1955 39.1346 42.4105 39.1346 41.9787C39.1346 37.6217 39.1346 33.2647 39.0954 28.8685C39.0954 28.5937 38.9776 28.1619 38.6636 27.8086C38.0748 27.1414 37.0935 27.1806 36.3477 27.1806C35.5627 27.1806 34.7384 27.2199 34.2674 27.8479C33.8749 28.3189 33.9141 28.9077 33.9534 29.1825V42.8815C33.9534 44.1768 34.3066 45.8647 35.5627 47.4347C36.9365 49.2404 38.8991 50.0254 39.4879 50.2609C40.7047 50.7319 41.9216 50.8497 42.2748 50.8889C42.9029 50.9675 43.4524 50.9675 43.8449 50.9282C44.2374 50.9282 44.787 50.9282 45.415 50.8889C45.7683 50.8889 46.9851 50.7319 48.2019 50.2609C48.7907 50.0254 50.7533 49.2404 52.1271 47.4347C53.3439 45.8254 53.7365 44.1376 53.7365 42.8815V29.1825C53.7365 28.9077 53.815 28.3189 53.4225 27.8479C52.9514 27.2199 52.1271 27.2199 51.3421 27.1806C51.2243 27.1806 51.0673 27.1806 50.9103 27.1806C50.243 27.1806 49.5365 27.2591 49.0262 27.8086Z" fill="white"/>
</mask>
<g mask="url(#mask0_18567_85561)">
<path d="M39.5195 18.2004L23.21 44.2505L48.2287 59.9143L64.5382 33.8642L39.5195 18.2004Z" fill="white"/>
</g>
<path d="M41.1719 50.6537C41.1719 50.6537 41.2507 50.6537 41.2901 50.6537L41.2113 50.6931V50.6143L41.1719 50.6537Z" fill="white"/>
<mask id="mask1_18567_85561" style="mask-type:luminance" maskUnits="userSpaceOnUse" x="85" y="26" width="24" height="26">
<path d="M90.6684 41.5075C90.0011 38.6421 90.1188 35.2272 91.7282 32.6365C92.8665 30.8702 94.7506 29.8104 96.7524 29.7711C98.7543 29.7711 100.638 30.8309 101.777 32.6365C103.386 35.2272 103.504 38.6029 102.837 41.5075C102.13 44.4907 100.128 47.7094 96.7917 47.7486C93.416 47.7486 91.4534 44.4907 90.7469 41.5075M89.53 28.9468C87.6852 30.3206 86.3506 32.2833 85.6833 34.4814C83.7992 40.801 86.6254 48.8477 93.4553 50.6533C94.5543 50.9281 95.6926 51.0458 96.7917 51.0458C97.93 51.0458 99.0291 50.9673 100.128 50.6533C106.919 48.8869 109.784 40.801 107.9 34.4814C107.233 32.2833 105.898 30.3206 104.053 28.9468C101.973 27.3767 99.3823 26.5524 96.7917 26.5132C94.201 26.5917 91.6104 27.3767 89.53 28.9468Z" fill="white"/>
</mask>
<g mask="url(#mask1_18567_85561)">
<path d="M90.243 15.1779L73.0225 44.8491L103.135 62.3258L120.356 32.6546L90.243 15.1779Z" fill="white"/>
</g>
</svg>
