<svg width="89" height="61" viewBox="0 0 89 61" fill="none" xmlns="http://www.w3.org/2000/svg">
<path fill-rule="evenodd" clip-rule="evenodd" d="M25.5837 40.7199C27.8987 40.7199 30.4116 41.5119 33.1986 43.9791C33.4728 44.2228 33.8535 43.9182 33.6098 43.6136C30.8685 40.1717 28.3403 39.5168 25.8274 38.9533C22.7358 38.2679 21.1519 36.547 20.0553 34.6433C19.8421 34.2625 19.7355 34.3387 19.7203 34.826C19.6898 35.42 19.7355 36.2119 19.8726 36.9886C19.7507 36.9886 19.6289 36.9886 19.4918 36.9886C15.0752 36.9886 11.4962 33.4097 11.4962 29.0083C11.4962 24.6069 15.0752 21.0279 19.4918 21.0279C23.9085 21.0279 27.4875 24.6069 27.4875 29.0083C27.4875 29.3281 27.4722 29.6327 27.4418 29.9373C26.863 29.8307 25.7056 29.8154 24.8984 29.8916C24.5938 29.922 24.6395 30.0591 24.8679 30.1048C27.5179 30.5769 29.3303 32.2217 29.7415 35.1763C29.7415 35.2372 29.8481 35.2677 29.8785 35.2068C31.0055 33.3335 31.5995 31.2013 31.5843 29.0083C31.5843 22.3376 26.1777 16.9463 19.4918 16.9463C12.806 16.9463 7.39941 22.3529 7.39941 29.0083C7.39941 35.6637 12.806 41.0702 19.4918 41.0702C21.2585 41.0702 23.0251 40.7199 25.599 40.7199H25.5837ZM26.4823 36.3338C27.0153 36.7907 27.1829 37.3237 26.8935 37.7044C26.7412 37.9177 26.4823 38.0243 26.1777 38.0243C25.8731 38.0243 25.5837 37.9177 25.3553 37.7197C24.8679 37.2932 24.7156 36.6079 25.0355 36.2119C25.1573 36.0596 25.3705 35.9683 25.599 35.9683C25.8883 35.9683 26.2082 36.0901 26.4671 36.3185L26.4823 36.3338ZM28.9647 35.1763C29.0409 35.7093 28.8734 35.9226 28.7058 35.9226C28.5231 35.9226 28.2946 35.7093 28.0205 35.2829C27.7464 34.8717 27.655 34.3844 27.7921 34.1407C27.8834 33.9732 28.0662 33.9122 28.2946 34.0036C28.7363 34.1711 28.9191 34.8565 28.9647 35.1763ZM45.7327 32.4197L44.3316 30.7444C44.2402 30.6226 44.2554 30.4551 44.362 30.3637C44.4077 30.318 44.4686 30.3028 44.5296 30.3028H47.4384C47.5755 29.8916 47.6517 29.4499 47.6517 28.993C47.6517 26.8913 46.083 25.0942 43.9356 25.0942C41.7882 25.0942 40.2195 26.9065 40.2195 28.993C40.2195 31.0795 41.7882 32.8766 43.9356 32.8766C44.5905 32.8766 45.1844 32.7091 45.7023 32.4197H45.7327ZM52.0378 35.2525C52.1901 35.42 52.0683 35.6941 51.8398 35.6941H48.6568C48.5198 35.6941 48.3979 35.6332 48.3218 35.5418L47.7887 34.8869C46.6465 35.618 45.3367 36.0139 43.9813 36.0139C40.1129 36.0139 36.9604 32.8614 36.9604 29.0083C36.9604 25.1551 40.1129 22.0026 43.9813 22.0026C47.8496 22.0026 51.0022 25.1551 51.0022 29.0083C51.0022 30.4094 50.591 31.7039 49.8904 32.8005L52.0531 35.2677L52.0378 35.2525ZM81.4313 22.3072H78.827C78.6442 22.3072 78.4767 22.4595 78.4767 22.6574V35.3438C78.4767 35.5418 78.629 35.6941 78.827 35.6941H81.4313C81.6292 35.6941 81.7815 35.5418 81.7815 35.3438V22.6574C81.7815 22.4595 81.6292 22.3072 81.4313 22.3072ZM77.0603 22.3072H74.1514C73.9991 22.3072 73.8621 22.3985 73.8164 22.5508L71.5167 30.0439L68.9885 22.5356C68.9429 22.3985 68.8058 22.3072 68.6535 22.3072H66.6279C66.4756 22.3072 66.3538 22.3985 66.2929 22.5356L63.7647 30.0439L61.4651 22.5508C61.4194 22.3985 61.2823 22.3072 61.13 22.3072H58.2211C58.1145 22.3072 58.0079 22.3529 57.947 22.4442C57.8861 22.5356 57.8708 22.6422 57.9013 22.7488L62.1656 35.4504C62.2113 35.5875 62.3484 35.6789 62.5007 35.6789H64.8004C64.9527 35.6789 65.0745 35.5875 65.1354 35.4504L67.6331 28.0336L70.1308 35.4504C70.1765 35.5875 70.3135 35.6789 70.4658 35.6789H72.7655C72.9178 35.6789 73.0397 35.5875 73.1006 35.4504L77.3649 22.7488C77.3954 22.6422 77.3801 22.5356 77.3192 22.4442C77.2583 22.3529 77.1517 22.3072 77.0451 22.3072H77.0603ZM56.82 22.6574V35.3438C56.82 35.5418 56.6677 35.6941 56.4697 35.6941H53.8654C53.6674 35.6941 53.5151 35.5418 53.5151 35.3438V22.6574C53.5151 22.4595 53.6674 22.3072 53.8654 22.3072H56.4697C56.6677 22.3072 56.82 22.4595 56.82 22.6574Z" fill="white"/>
</svg>
