<svg width="70" height="48" viewBox="0 0 70 48" fill="none" xmlns="http://www.w3.org/2000/svg">
<path fill-rule="evenodd" clip-rule="evenodd" d="M34.9993 32.4018C37.3987 30.3911 38.9244 27.3722 38.9244 23.9971C38.9244 20.6219 37.3987 17.6031 34.9993 15.5924C36.9034 13.9968 39.3577 13.0361 42.0364 13.0361C48.0907 13.0361 52.9987 17.9435 52.9987 23.9971C52.9987 30.0507 48.0907 34.958 42.0364 34.958C39.3577 34.958 36.9034 33.9974 34.9993 32.4018ZM34.9993 32.4018C33.0952 33.9974 30.6409 34.958 27.9622 34.958C21.908 34.958 17 30.0507 17 23.9971C17 17.9435 21.908 13.0361 27.9622 13.0361C30.6409 13.0361 33.0952 13.9968 34.9993 15.5924C32.5999 17.6031 31.0742 20.6219 31.0742 23.9971C31.0742 27.3722 32.5999 30.3911 34.9993 32.4018Z" fill="white"/>
</svg>
