<svg width="52" height="36" viewBox="0 0 52 36" fill="none" xmlns="http://www.w3.org/2000/svg">
<g clip-path="url(#clip0_2280_3926)">
<rect width="52" height="36" rx="4" fill="white"/>
<path d="M48 0H4C1.79086 0 0 1.79086 0 4V32C0 34.2091 1.79086 36 4 36H48C50.2091 36 52 34.2091 52 32V4C52 1.79086 50.2091 0 48 0Z" fill="white"/>
<path d="M48 0H4C1.79086 0 0 1.79086 0 4V32C0 34.2091 1.79086 36 4 36H48C50.2091 36 52 34.2091 52 32V4C52 1.79086 50.2091 0 48 0Z" fill="#D3D3D3"/>
<path d="M47.3198 0.550781H4.6798C2.53694 0.550781 0.799805 2.28792 0.799805 4.43078V31.5608C0.799805 33.7036 2.53694 35.4408 4.6798 35.4408H47.3198C49.4627 35.4408 51.1998 33.7036 51.1998 31.5608V4.43078C51.1998 2.28792 49.4627 0.550781 47.3198 0.550781Z" fill="white"/>
<path d="M18.2098 21.0307C18.2098 21.1307 18.1798 21.2107 18.1198 21.2707C18.0598 21.3307 17.9798 21.3607 17.8798 21.3607C17.7798 21.3607 17.6998 21.3307 17.6398 21.2707C17.5798 21.2107 17.5498 21.1307 17.5498 21.0307V15.0507C17.5498 14.9507 17.5798 14.8707 17.6398 14.8107C17.6998 14.7507 17.7798 14.7207 17.8798 14.7207H19.5798C19.9898 14.7207 20.3598 14.8107 20.6798 15.0007C21.0098 15.1807 21.2598 15.4407 21.4398 15.7707C21.6198 16.0907 21.7098 16.4607 21.7098 16.8807C21.7098 17.3007 21.6198 17.6607 21.4398 17.9907C21.2598 18.3107 20.9998 18.5707 20.6798 18.7507C20.3598 18.9307 19.9898 19.0207 19.5798 19.0207H18.2098V21.0407V21.0307ZM19.5798 18.3807C19.8698 18.3807 20.1298 18.3207 20.3498 18.1907C20.5798 18.0607 20.7498 17.8807 20.8798 17.6507C21.0098 17.4207 21.0798 17.1707 21.0798 16.8807C21.0798 16.5907 21.0098 16.3207 20.8798 16.1007C20.7598 15.8707 20.5798 15.6907 20.3498 15.5607C20.1198 15.4307 19.8698 15.3607 19.5798 15.3607H18.2098V18.3807H19.5798Z" fill="#2194F1"/>
<path d="M22.8002 17.0502C22.8002 16.9502 22.8302 16.8702 22.8902 16.8102C22.9502 16.7502 23.0302 16.7202 23.1302 16.7202C23.2302 16.7202 23.3002 16.7502 23.3602 16.8102C23.4202 16.8702 23.4502 16.9502 23.4502 17.0502V21.0402C23.4502 21.1402 23.4202 21.2202 23.3602 21.2802C23.3002 21.3402 23.2302 21.3702 23.1302 21.3702C23.0302 21.3702 22.9502 21.3402 22.8902 21.2802C22.8302 21.2202 22.8002 21.1402 22.8002 21.0402V17.0502ZM23.1302 14.9102C23.2502 14.9102 23.3602 14.9502 23.4502 15.0402C23.5402 15.1302 23.5902 15.2402 23.5902 15.3702C23.5902 15.5002 23.5402 15.6102 23.4502 15.7002C23.3602 15.7902 23.2502 15.8402 23.1202 15.8402C22.9902 15.8402 22.8802 15.7902 22.7902 15.7002C22.7102 15.6102 22.6602 15.5002 22.6602 15.3702C22.6602 15.2402 22.7102 15.1202 22.8002 15.0402C22.8902 14.9502 23.0002 14.9102 23.1302 14.9102Z" fill="#2194F1"/>
<path d="M27.2399 16.6702C27.6799 16.6702 28.0799 16.7702 28.4399 16.9802C28.7999 17.1802 29.0899 17.4702 29.2899 17.8302C29.4999 18.1902 29.5999 18.6002 29.5999 19.0402V21.0402C29.5999 21.1302 29.5699 21.2102 29.5099 21.2702C29.4499 21.3302 29.3699 21.3602 29.2699 21.3602C29.1699 21.3602 29.0899 21.3302 29.0299 21.2702C28.9699 21.2102 28.9399 21.1302 28.9399 21.0302V20.5202C28.7399 20.7902 28.4899 21.0102 28.1799 21.1702C27.8699 21.3202 27.5399 21.4002 27.1699 21.4002C26.7399 21.4002 26.3499 21.3002 25.9999 21.0902C25.6499 20.8802 25.3799 20.6002 25.1799 20.2402C24.9799 19.8802 24.8799 19.4702 24.8799 19.0302C24.8799 18.5902 24.9799 18.1902 25.1899 17.8202C25.3999 17.4602 25.6799 17.1702 26.0399 16.9702C26.3999 16.7602 26.7999 16.6602 27.2499 16.6602L27.2399 16.6702ZM27.2399 20.8102C27.5599 20.8102 27.8499 20.7302 28.1099 20.5802C28.3699 20.4302 28.5699 20.2202 28.7199 19.9502C28.8699 19.6802 28.9499 19.3702 28.9499 19.0402C28.9499 18.7102 28.8699 18.4102 28.7199 18.1402C28.5699 17.8702 28.3699 17.6602 28.1099 17.5002C27.8499 17.3402 27.5599 17.2602 27.2399 17.2602C26.9199 17.2602 26.6199 17.3402 26.3599 17.5002C26.0999 17.6502 25.8899 17.8702 25.7399 18.1402C25.5899 18.4102 25.5199 18.7102 25.5199 19.0402C25.5199 19.3702 25.5899 19.6802 25.7399 19.9502C25.8899 20.2202 26.0999 20.4302 26.3599 20.5802C26.6299 20.7302 26.9199 20.8102 27.2399 20.8102Z" fill="#2194F1"/>
<path d="M32.4799 16.6699C32.8499 16.6699 33.1799 16.7399 33.4599 16.8699C33.7399 16.9899 33.9599 17.1699 34.1299 17.3999C34.1799 17.4699 34.1999 17.5399 34.1999 17.5999C34.1999 17.6999 34.1499 17.7699 34.0599 17.8299C34.0199 17.8599 33.9699 17.8699 33.8999 17.8699C33.7799 17.8699 33.6799 17.8299 33.5999 17.7399C33.3199 17.4199 32.9399 17.2599 32.4599 17.2599C32.1499 17.2599 31.8999 17.3299 31.7099 17.4599C31.5199 17.5799 31.4299 17.7399 31.4299 17.9399C31.4299 18.1399 31.5199 18.3099 31.6899 18.4299C31.8699 18.5499 32.1799 18.6499 32.6199 18.7199C33.2299 18.8199 33.6599 18.9899 33.9199 19.2199C34.1799 19.4499 34.3099 19.7299 34.3099 20.0699C34.3099 20.3299 34.2299 20.5599 34.0699 20.7699C33.9199 20.9699 33.6999 21.1299 33.4199 21.2499C33.1399 21.3599 32.8299 21.4199 32.4799 21.4199C32.1299 21.4199 31.7899 21.3599 31.4699 21.2399C31.1499 21.1199 30.8899 20.9499 30.6899 20.7399C30.6299 20.6699 30.6099 20.6099 30.6099 20.5399C30.6099 20.4399 30.6599 20.3599 30.7499 20.2799C30.8199 20.2299 30.8899 20.1999 30.9599 20.1999C31.0599 20.1999 31.1399 20.2399 31.2099 20.3199C31.3499 20.4799 31.5199 20.5999 31.7499 20.6899C31.9799 20.7799 32.2299 20.8199 32.4999 20.8199C32.8999 20.8199 33.1899 20.7499 33.3899 20.6199C33.5899 20.4799 33.6899 20.3099 33.6999 20.0799C33.6999 19.8799 33.5999 19.7099 33.3999 19.5699C33.1999 19.4299 32.8899 19.3299 32.4599 19.2599C31.9099 19.1699 31.4899 19.0099 31.2099 18.7899C30.9399 18.5599 30.7999 18.2899 30.7999 17.9699C30.7999 17.5599 30.9599 17.2399 31.2799 17.0099C31.5999 16.7799 31.9999 16.6699 32.4899 16.6699H32.4799Z" fill="#2194F1"/>
<path d="M37.5001 20.7105C37.5901 20.7105 37.6601 20.7405 37.7201 20.8005C37.7801 20.8605 37.8001 20.9405 37.8001 21.0405C37.8001 21.1305 37.7701 21.2105 37.7001 21.2705C37.6301 21.3305 37.5501 21.3605 37.4501 21.3605H37.2701C36.9701 21.3605 36.7001 21.2905 36.4601 21.1505C36.2201 21.0005 36.0401 20.8105 35.9001 20.5605C35.7701 20.3105 35.7001 20.0305 35.7001 19.7205V17.4505H35.1501C35.0601 17.4505 34.9901 17.4205 34.9301 17.3705C34.8801 17.3105 34.8501 17.2505 34.8501 17.1705C34.8501 17.0805 34.8801 17.0205 34.9301 16.9705C34.9901 16.9105 35.0601 16.8805 35.1501 16.8805H35.7001V15.5605C35.7001 15.4605 35.7301 15.3805 35.7801 15.3205C35.8401 15.2605 35.9201 15.2305 36.0201 15.2305C36.1201 15.2305 36.2001 15.2605 36.2601 15.3205C36.3201 15.3805 36.3501 15.4605 36.3501 15.5605V16.8805H37.3101C37.4001 16.8805 37.4701 16.9105 37.5201 16.9705C37.5801 17.0205 37.6101 17.0905 37.6101 17.1705C37.6101 17.2505 37.5801 17.3205 37.5201 17.3705C37.4701 17.4205 37.4001 17.4505 37.3101 17.4505H36.3501V19.7205C36.3501 20.0105 36.4301 20.2505 36.6001 20.4305C36.7701 20.6105 36.9901 20.7005 37.2501 20.7005H37.4801L37.5001 20.7105Z" fill="#2194F1"/>
<path d="M40.9699 16.6606C41.2099 16.6606 41.3899 16.6906 41.5299 16.7506C41.6699 16.8106 41.7399 16.9006 41.7399 17.0106C41.7399 17.0406 41.7399 17.0706 41.7399 17.0906C41.7199 17.1706 41.6799 17.2206 41.6299 17.2506C41.5799 17.2806 41.5199 17.2906 41.4299 17.2906C41.3799 17.2906 41.2899 17.2906 41.1699 17.2706C41.1199 17.2706 41.0599 17.2706 40.9699 17.2706C40.5499 17.2706 40.1999 17.3806 39.9299 17.6106C39.6599 17.8406 39.5299 18.1306 39.5299 18.4906V21.0306C39.5299 21.1306 39.4999 21.2106 39.4499 21.2706C39.3899 21.3306 39.3099 21.3606 39.2099 21.3606C39.1099 21.3606 39.0299 21.3306 38.9699 21.2706C38.9099 21.2106 38.8799 21.1306 38.8799 21.0306V17.0206C38.8799 16.9206 38.9099 16.8406 38.9699 16.7806C39.0299 16.7206 39.1099 16.6906 39.2099 16.6906C39.3099 16.6906 39.3899 16.7206 39.4499 16.7806C39.5099 16.8406 39.5299 16.9206 39.5299 17.0206V17.3906C39.6899 17.1506 39.8999 16.9706 40.1599 16.8406C40.4099 16.7106 40.6899 16.6406 40.9799 16.6406L40.9699 16.6606Z" fill="#2194F1"/>
<path d="M42.89 17.0502C42.89 16.9502 42.92 16.8702 42.98 16.8102C43.04 16.7502 43.12 16.7202 43.22 16.7202C43.32 16.7202 43.39 16.7502 43.45 16.8102C43.51 16.8702 43.54 16.9502 43.54 17.0502V21.0402C43.54 21.1402 43.51 21.2202 43.45 21.2802C43.39 21.3402 43.32 21.3702 43.22 21.3702C43.12 21.3702 43.04 21.3402 42.98 21.2802C42.92 21.2202 42.89 21.1402 42.89 21.0402V17.0502ZM43.22 14.9102C43.34 14.9102 43.45 14.9502 43.54 15.0402C43.63 15.1302 43.68 15.2402 43.68 15.3702C43.68 15.5002 43.63 15.6102 43.54 15.7002C43.45 15.7902 43.34 15.8402 43.21 15.8402C43.08 15.8402 42.97 15.7902 42.88 15.7002C42.8 15.6102 42.75 15.5002 42.75 15.3702C42.75 15.2402 42.8 15.1202 42.89 15.0402C42.98 14.9502 43.09 14.9102 43.22 14.9102Z" fill="#2194F1"/>
<path d="M48.65 20.8609C48.71 20.9409 48.74 21.0209 48.74 21.0909C48.74 21.1709 48.71 21.2409 48.65 21.2909C48.59 21.3409 48.53 21.3709 48.45 21.3709C48.38 21.3709 48.33 21.3609 48.28 21.3409C48.23 21.3209 48.19 21.2809 48.15 21.2209L46.76 19.4409L45.32 21.2709C45.27 21.3409 45.19 21.3709 45.09 21.3709C45 21.3709 44.93 21.3409 44.87 21.2809C44.82 21.2209 44.79 21.1609 44.79 21.0809C44.79 20.9909 44.82 20.9109 44.87 20.8509L46.34 19.0109L44.95 17.2409C44.89 17.1809 44.87 17.1009 44.87 17.0109C44.87 16.9209 44.9 16.8509 44.95 16.8009C45 16.7409 45.07 16.7109 45.17 16.7109C45.27 16.7109 45.35 16.7409 45.42 16.8109L46.79 18.5709L48.14 16.8609C48.22 16.7609 48.31 16.7109 48.42 16.7109C48.51 16.7109 48.58 16.7409 48.63 16.8009C48.69 16.8609 48.71 16.9209 48.71 17.0009C48.71 17.0909 48.68 17.1709 48.62 17.2509L47.21 19.0009L48.65 20.8509V20.8609Z" fill="#2194F1"/>
<path d="M11.2899 16.4398C11.2899 16.4398 11.2299 16.4598 11.2099 16.4698C10.8699 16.6098 10.5799 16.8698 10.4099 17.1998C10.2299 17.5298 10.1699 17.9098 10.2399 18.2798C10.2399 18.3298 10.2599 18.3798 10.2699 18.4198C10.2799 18.4698 10.2999 18.5198 10.3099 18.5598C10.4299 18.8798 10.6399 19.1698 10.9099 19.3698C10.9299 19.3898 10.9599 19.3998 10.9799 19.4198C11.0299 19.4498 11.0899 19.4798 11.1399 19.5098C11.1799 19.5298 11.2199 19.5498 11.2599 19.5698C11.4499 19.6498 11.6499 19.6898 11.8599 19.6898C11.8799 19.6898 11.8999 19.6898 11.9199 19.6898C12.1399 19.6698 12.3499 19.6298 12.5499 19.5398C12.9199 19.3798 13.2199 19.0798 13.3899 18.6998C13.5599 18.3298 13.5799 17.8998 13.4599 17.5098C13.3399 17.1198 13.0799 16.7898 12.7299 16.5798C12.3799 16.3698 11.9699 16.2998 11.5699 16.3798C11.5499 16.3798 11.5199 16.3798 11.4999 16.3898C11.4299 16.4098 11.3599 16.4298 11.2999 16.4498L11.2899 16.4398Z" fill="#FFD633"/>
<path d="M14.23 9.32031H3.25V26.6803H14.22V9.32031H14.23Z" fill="url(#paint0_radial_2280_3926)"/>
</g>
<rect x="0.5" y="0.5" width="51" height="35" rx="3.5" stroke="#EAEAEA"/>
<defs>
<radialGradient id="paint0_radial_2280_3926" cx="0" cy="0" r="1" gradientUnits="userSpaceOnUse" gradientTransform="translate(12.8976 17.9791) rotate(-180) scale(12.0088 7.6058)">
<stop stop-color="#FFA53F"/>
<stop offset="0.76" stop-color="#FF4080"/>
</radialGradient>
<clipPath id="clip0_2280_3926">
<rect width="52" height="36" rx="4" fill="white"/>
</clipPath>
</defs>
</svg>
