<svg width="52" height="36" viewBox="0 0 52 36" fill="none" xmlns="http://www.w3.org/2000/svg">
<g clip-path="url(#clip0_2280_4381)">
<rect width="52" height="36" rx="4" fill="white"/>
<path d="M48 0H4C1.79086 0 0 1.79086 0 4V32C0 34.2091 1.79086 36 4 36H48C50.2091 36 52 34.2091 52 32V4C52 1.79086 50.2091 0 48 0Z" fill="white"/>
<path d="M48 0H4C1.79086 0 0 1.79086 0 4V32C0 34.2091 1.79086 36 4 36H48C50.2091 36 52 34.2091 52 32V4C52 1.79086 50.2091 0 48 0Z" fill="#D3D3D3"/>
<path d="M47.3198 0.550781H4.6798C2.53694 0.550781 0.799805 2.28792 0.799805 4.43078V31.5608C0.799805 33.7036 2.53694 35.4408 4.6798 35.4408H47.3198C49.4627 35.4408 51.1998 33.7036 51.1998 31.5608V4.43078C51.1998 2.28792 49.4627 0.550781 47.3198 0.550781Z" fill="white"/>
<path d="M8.91014 11.5102C9.91014 11.5102 10.8901 11.7302 11.7901 12.1702L12.2001 12.3802L11.6001 12.9102L10.7001 11.9802L9.15014 13.3402L8.24014 12.3602L5.38014 14.9002L7.21014 16.8902L6.50014 17.5102L8.30014 19.5002L7.59014 20.1202L10.1701 22.9602L11.7001 21.5702L13.0301 23.0602C12.7701 23.2602 12.4801 23.4602 12.1701 23.6302C11.1801 24.1802 10.0701 24.4702 8.94014 24.4702C5.31014 24.4702 2.37014 21.5502 2.37014 17.9702C2.36014 14.4202 5.30014 11.4902 8.92014 11.4902L8.91014 11.5102Z" fill="#106DB2"/>
<path d="M7.70996 17.5909L9.26996 16.2109L10.68 17.7609L9.10996 19.1409L7.70996 17.5909Z" fill="#106DB2"/>
<path d="M8.81982 20.2691L10.3798 18.8691L11.7898 20.4191L10.2298 21.7991L8.81982 20.2691Z" fill="#106DB2"/>
<path d="M6.58984 14.9603L8.15984 13.5703L9.55984 15.1203L7.99984 16.5103L6.58984 14.9603Z" fill="#106DB2"/>
<path d="M9.45996 14.2099L10.62 13.1699L11.68 14.3299L10.51 15.3799L9.45996 14.2099Z" fill="#106DB2"/>
<path d="M11.54 18.9795L12.7 17.9395L13.76 19.1095L12.59 20.1495L11.54 18.9795Z" fill="#106DB2"/>
<path d="M12.5698 21.3193L13.7298 20.2793L14.7898 21.4293L13.6298 22.4893L12.5698 21.3193Z" fill="#106DB2"/>
<path d="M13.0498 15.9793L13.8298 15.2793L14.5298 16.0493L13.7498 16.7393L13.0498 15.9793Z" fill="#106DB2"/>
<path d="M12.0498 13.6805L12.8198 12.9805L13.5298 13.7605L12.7498 14.4505L12.0498 13.6805Z" fill="#106DB2"/>
<path d="M14.04 18.2703L14.82 17.5703L15.53 18.3403L14.74 19.0403L14.04 18.2703Z" fill="#106DB2"/>
<path d="M10.54 16.5498L11.7 15.5098L12.76 16.6598L11.6 17.6998L10.54 16.5498Z" fill="#106DB2"/>
<path d="M18.6398 14.8105H19.2698L20.2598 18.5705H20.3098L21.0298 14.8105H21.8498L20.7098 19.8405H19.9498L18.9898 16.3005H18.9398L18.0098 19.8405H17.2398L16.0898 14.8105H16.8798L17.6798 18.5705H17.7298L18.6398 14.8105Z" fill="#106DB2"/>
<path d="M25.1599 17.9195C25.1599 16.7595 24.6199 16.1895 23.7299 16.1895C22.6699 16.1895 22.1299 16.9695 22.1299 18.0495C22.1299 19.1295 22.6199 19.9095 23.8099 19.9095C24.3099 19.9095 24.7399 19.7695 25.0599 19.5795V19.0395C24.6699 19.2695 24.3199 19.4095 23.9399 19.4095C23.2099 19.4095 22.8699 19.0295 22.8699 18.1795H25.1699V17.9195H25.1599ZM22.8699 17.7095C22.9499 16.9995 23.2799 16.6695 23.7099 16.6695C24.0899 16.6695 24.4499 16.9695 24.4799 17.7095H22.8699Z" fill="#106DB2"/>
<path d="M27.7601 16.2309C27.3801 16.2309 27.0201 16.3809 26.8101 16.4909V14.4609L26.0801 14.6409V19.6109C26.5101 19.8309 26.9801 19.9409 27.4601 19.9609C28.4801 19.9609 29.1201 19.3209 29.1201 17.9809C29.1201 16.8409 28.6501 16.2309 27.7701 16.2309H27.7601ZM27.4501 19.4609C27.2701 19.4609 27.0301 19.4409 26.8001 19.3509V17.0309C27.0801 16.8709 27.2901 16.8009 27.5701 16.8009C28.0401 16.8009 28.3701 17.0909 28.3701 17.9909C28.3701 19.1409 27.9701 19.4709 27.4501 19.4709V19.4609Z" fill="#106DB2"/>
<path d="M32.4499 19.8505H31.9999L30.5599 16.2805H30.4899V19.8505H29.8599V14.8105H30.7199L32.2999 18.7805H32.3299L33.8499 14.8105H34.7199V19.8505H33.9499V16.1905H33.8899L32.4499 19.8505Z" fill="#106DB2"/>
<path d="M36.9699 16.1895C36.0399 16.1895 35.3599 16.8095 35.3599 18.0495C35.3599 19.2895 35.9999 19.9095 36.9699 19.9095C37.9399 19.9095 38.5799 19.2595 38.5799 18.0495C38.5799 16.8395 37.8999 16.1895 36.9699 16.1895ZM36.9699 19.4095C36.4699 19.4095 36.0999 19.0195 36.0999 18.0495C36.0999 17.0795 36.4999 16.6895 36.9699 16.6895C37.4399 16.6895 37.8399 17.0995 37.8399 18.0495C37.8399 18.9995 37.4699 19.4095 36.9699 19.4095Z" fill="#106DB2"/>
<path d="M39.1299 16.7097C39.4499 16.5197 40.1199 16.1797 40.9299 16.1797C41.7399 16.1797 42.0999 16.5097 42.0999 17.2497V19.8197H41.3699V17.4097C41.3699 16.8497 41.0899 16.7497 40.7299 16.7497C40.4499 16.7497 40.0899 16.8797 39.8699 17.0097V19.8197H39.1399V16.7097H39.1299Z" fill="#106DB2"/>
<path d="M45.9499 17.9097C45.9499 16.7497 45.4099 16.1797 44.5199 16.1797C43.4599 16.1797 42.9199 16.9597 42.9199 18.0397C42.9199 19.1197 43.4099 19.8997 44.5999 19.8997C45.0999 19.8997 45.5299 19.7597 45.8499 19.5697V19.0297C45.4599 19.2597 45.1099 19.3997 44.7299 19.3997C43.9999 19.3997 43.6599 19.0197 43.6599 18.1697H45.9599V17.9097H45.9499ZM43.6599 17.6997C43.7399 16.9897 44.0699 16.6597 44.4999 16.6597C44.8799 16.6597 45.2399 16.9597 45.2699 17.6997H43.6599Z" fill="#106DB2"/>
<path d="M48.8901 16.1797H49.6401L48.3601 19.7297C48.0101 20.7097 47.5801 21.2197 46.7601 21.2197V20.6397C47.2401 20.6397 47.5301 20.2597 47.7101 19.7297L46.3501 16.1797H47.1201L48.0201 18.7897H48.0601L48.8801 16.1797H48.8901Z" fill="#106DB2"/>
</g>
<rect x="0.5" y="0.5" width="51" height="35" rx="3.5" stroke="#EAEAEA"/>
<defs>
<clipPath id="clip0_2280_4381">
<rect width="52" height="36" rx="4" fill="white"/>
</clipPath>
</defs>
</svg>
