<svg width="52" height="36" viewBox="0 0 52 36" fill="none" xmlns="http://www.w3.org/2000/svg">
<rect x="0.5" y="0.5" width="51" height="35" rx="3.5" fill="white"/>
<rect x="0.5" y="0.5" width="51" height="35" rx="3.5" stroke="#EAEAEA"/>
<path fill-rule="evenodd" clip-rule="evenodd" d="M3.41006 16.5307C3.41006 16.5307 3.41006 16.5307 3.59006 16.8307H4.92006C4.74006 16.5407 4.73006 16.5307 4.73006 16.5307C4.73006 16.5307 4.73006 16.5307 4.53006 16.2207C4.39006 16.2207 4.28006 16.2207 4.17006 16.2207C3.95006 16.2207 3.72006 16.2207 3.21006 16.2207C3.40006 16.5307 3.40006 16.5307 3.40006 16.5307H3.41006ZM42.4801 17.4207C42.4801 17.4207 42.4601 17.3907 42.4601 17.3807C42.4501 17.3607 42.4201 17.3107 42.2701 17.0707C43.3101 17.0707 44.3401 17.0707 45.3901 17.0707C45.5701 17.3607 45.5701 17.3707 45.5701 17.3707C45.5701 17.3707 45.5701 17.3807 45.7501 17.6707H43.7601V18.1107H44.5901V18.7007C44.5001 18.7007 44.4001 18.7007 44.3101 18.7007C44.1201 18.7007 43.9401 18.7007 43.7601 18.7007V19.2007H45.7601C45.6201 19.4807 45.6101 19.4907 45.6101 19.5007C45.6101 19.5007 45.6101 19.5207 45.4601 19.7907H42.6201V17.6607C42.5401 17.5307 42.5001 17.4607 42.4801 17.4307V17.4207ZM7.03006 19.7707C7.03006 18.9707 7.03006 18.6207 7.03006 18.2607C7.03006 18.0807 7.03006 17.9007 7.03006 17.6607C6.86006 17.3607 6.86006 17.3607 6.85006 17.3507C6.85006 17.3507 6.84006 17.3307 6.67006 17.0507H8.15006V19.0707C8.39006 19.0707 8.63006 19.0707 8.87006 19.0707C9.11006 19.0707 9.35006 19.0707 9.59006 19.0707C9.42006 19.3907 9.41006 19.4107 9.41006 19.4107C9.41006 19.4107 9.41006 19.4107 9.41006 19.4307C9.41006 19.4307 9.35006 19.5307 9.23006 19.7607C8.74006 19.7607 7.82006 19.7607 7.04006 19.7607L7.03006 19.7707ZM14.3501 19.7707V17.6807C14.1701 17.3807 14.1701 17.3707 14.1701 17.3707C14.1701 17.3707 14.1701 17.3707 13.9901 17.0607H16.0901C16.4801 17.6907 16.4801 17.6907 16.4901 17.7007C16.4901 17.7007 16.4901 17.7107 16.8801 18.3207V17.0607H17.8001V19.7707H16.3401C15.8201 18.9607 15.8201 18.9507 15.8101 18.9407C15.8101 18.9407 15.8101 18.9407 15.2901 18.1207C15.2901 18.4607 15.2901 18.6907 15.2901 19.0007C15.2901 19.2007 15.2901 19.4407 15.2901 19.7707C14.8901 19.7707 14.7101 19.7707 14.3601 19.7707H14.3501ZM40.2701 19.2107C40.2701 19.2107 40.2901 19.2407 40.6101 19.7707H41.9301C41.5001 19.0507 41.4701 19.0107 41.4601 19.0007C41.4601 19.0007 41.4601 18.9907 41.4001 18.9007C41.3401 18.8007 41.2301 18.6107 41.0001 18.2307C41.3334 17.8574 41.5067 17.664 41.5201 17.6507C41.5201 17.6507 41.5601 17.6107 42.0501 17.0607H41.2701L40.8001 17.5807C40.5101 17.9007 40.2201 18.2207 39.9301 18.5407V17.0707H38.4701C38.6401 17.3507 38.6501 17.3707 38.6501 17.3707C38.6501 17.3707 38.6501 17.3707 38.8301 17.6707C38.8301 18.4007 38.8301 19.2407 38.8301 19.7807C38.9201 19.7807 39.0201 19.7807 39.1101 19.7807C39.3801 19.7807 39.6501 19.7807 39.9401 19.7807C39.9401 19.5707 39.9401 19.3907 39.9401 19.2207C39.9401 19.0407 39.9401 18.8607 39.9401 18.6707C40.1801 19.0507 40.2501 19.1707 40.2701 19.2007C40.2801 19.2207 40.2801 19.2207 40.2801 19.2207L40.2701 19.2107ZM24.5401 19.0807C23.6201 19.0807 23.5401 19.0807 22.3601 19.0807C22.5601 19.4007 22.5701 19.4207 22.5801 19.4307C22.5801 19.4307 22.5901 19.4507 22.7301 19.6707L22.7901 19.7607H25.2201C26.1001 19.6507 26.1001 18.0707 25.2501 17.9307C25.1001 17.9307 24.9701 17.9307 24.8401 17.9307C24.5601 17.9307 24.2701 17.9307 23.7701 17.9307C23.6201 17.8807 23.6601 17.6907 23.7701 17.6407H25.5501C25.5501 17.6407 25.4701 17.5207 25.4001 17.4007C25.3201 17.2607 25.2201 17.1107 25.1801 17.0407C24.7101 17.0407 24.2401 17.0407 23.7701 17.0407C23.5401 17.0407 23.3001 17.0407 23.0701 17.0407C22.7601 17.0707 22.3501 17.4207 22.3601 17.9307C22.3801 18.7607 22.8001 18.7707 24.5401 18.7607C24.6901 18.7907 24.6901 19.0307 24.5401 19.0707V19.0807ZM20.7601 17.0707C20.4501 17.0507 20.2201 17.0507 19.3201 17.0507C19.0401 17.0507 18.7001 17.0507 18.2701 17.0507L18.3001 17.1007C18.4501 17.3407 18.4501 17.3507 18.4601 17.3507C18.4601 17.3507 18.4601 17.3707 18.6401 17.6507C18.6401 18.3707 18.6401 19.0407 18.6401 19.7607C18.8901 19.7607 19.1101 19.7607 19.3001 19.7607C20.0901 19.7607 20.4401 19.7607 20.7601 19.7307C21.4801 19.6807 21.9801 19.0707 21.9801 18.5107C21.9801 17.8007 21.6301 17.2007 20.7601 17.0607V17.0707ZM19.7701 19.1807C19.7701 18.9707 19.7701 18.7707 19.7701 18.5907C19.7701 18.2507 19.7701 17.9607 19.7701 17.6607C20.4401 17.6207 20.7701 17.7907 20.7601 18.5107C20.7301 19.0707 20.4801 19.2407 19.7701 19.1907V19.1807ZM33.4601 18.4407C33.4601 18.4407 33.5301 18.5707 34.2801 19.7707H32.3501L32.4301 19.6307C32.5001 19.5007 32.5101 19.4907 32.5101 19.4707C32.5101 19.4707 32.5401 19.4207 32.6701 19.1807H31.0501C30.9401 19.3907 30.9201 19.4307 30.9101 19.4507C30.9001 19.4807 30.8901 19.4907 30.7501 19.7607H29.8801C30.1701 19.2007 30.4701 18.6407 30.7701 18.0807L31.0001 17.6507C30.8401 17.4007 30.8201 17.3707 30.8201 17.3607C30.8201 17.3607 30.8201 17.3607 30.8201 17.3507C30.8201 17.3507 30.7701 17.2807 30.6201 17.0507H32.6001C33.1201 17.8907 33.3201 18.2107 33.4001 18.3407C33.4501 18.4107 33.4501 18.4207 33.4601 18.4307V18.4407ZM31.6001 18.1907C31.6001 18.1907 31.6001 18.2007 31.4301 18.5307H32.2101L32.0801 18.3307C31.9901 18.2007 31.9901 18.1907 31.9801 18.1807C31.9801 18.1807 31.9501 18.1307 31.7801 17.8807C31.6201 18.1807 31.6201 18.1907 31.6101 18.2007L31.6001 18.1907ZM6.74006 19.7707C6.18006 18.8607 5.62006 17.9607 5.06006 17.0607C4.84006 17.0607 4.62006 17.0607 4.40006 17.0607C3.96006 17.0607 3.52006 17.0607 3.08006 17.0607C3.20673 17.2607 3.27006 17.3607 3.27006 17.3607C3.27006 17.3607 3.27006 17.3607 3.45006 17.6607C2.88006 18.7107 2.88006 18.7207 2.88006 18.7207C2.88006 18.7207 2.88006 18.7207 2.84006 18.7907C2.79006 18.8907 2.65006 19.1407 2.31006 19.7807C2.74006 19.7807 2.74006 19.7807 2.74006 19.7807C2.74006 19.7807 2.74006 19.7807 3.18006 19.7807C3.32006 19.5207 3.33006 19.5007 3.34006 19.4807C3.34006 19.4607 3.35006 19.4607 3.49006 19.1907H5.10006C4.96006 19.4607 4.95006 19.4707 4.95006 19.4807C4.95006 19.4807 4.94006 19.5007 4.79006 19.7807H6.74006V19.7707ZM4.26006 18.5307H4.25006H4.24006C4.22006 18.5307 4.15006 18.5307 3.87006 18.5307C4.01006 18.2707 4.04006 18.2207 4.05006 18.2007C4.05006 18.2007 4.05006 18.1907 4.05006 18.1807C4.06006 18.1607 4.10006 18.1007 4.23006 17.8507C4.32006 18.0007 4.40006 18.1207 4.45006 18.2107C4.63006 18.5007 4.64006 18.5207 4.64006 18.5307C4.35006 18.5307 4.28006 18.5307 4.26006 18.5307ZM13.1801 18.4307L13.2001 18.4707C13.2501 18.5507 13.4101 18.8107 14.0101 19.7807H12.0701C12.1401 19.6407 12.1801 19.5707 12.2001 19.5307C12.2201 19.5007 12.2201 19.4907 12.2201 19.4907C12.2201 19.4907 12.2601 19.4107 12.3701 19.1907C11.8301 19.1907 11.3001 19.1907 10.7501 19.1907C10.6201 19.4507 10.6101 19.4707 10.6001 19.4807C10.6001 19.4807 10.6001 19.4807 10.5801 19.5207C10.5801 19.5207 10.5301 19.6307 10.4501 19.7807H9.57006C9.57006 19.7807 9.58006 19.7507 9.71006 19.5207C9.85006 19.2607 10.1301 18.7207 10.7001 17.6607C10.5301 17.3907 10.5201 17.3707 10.5101 17.3507C10.5101 17.3507 10.5101 17.3307 10.4301 17.2207L10.3301 17.0607C11.3501 17.0607 11.5501 17.0607 12.3101 17.0607C13.0901 18.3307 13.1401 18.4107 13.1601 18.4307H13.1801ZM11.3101 18.1907C11.3101 18.1907 11.3101 18.2007 11.1301 18.5307C11.4101 18.5307 11.5501 18.5307 11.9201 18.5307C11.7201 18.2207 11.7201 18.2107 11.7101 18.2007C11.7101 18.2007 11.7101 18.1907 11.5001 17.8607L11.3801 18.0807C11.3201 18.1907 11.3201 18.1907 11.3201 18.2007L11.3101 18.1907ZM29.2101 18.3607V18.3407C29.5001 18.2007 29.6201 17.9207 29.6101 17.6607C29.5901 17.2707 29.3401 17.1007 28.9801 17.0607C28.5001 17.0607 28.1801 17.0607 27.7901 17.0607C27.3901 17.0607 26.9001 17.0607 26.0801 17.0607C26.2501 17.3307 26.2601 17.3507 26.2601 17.3607C26.2601 17.3607 26.2601 17.3707 26.3501 17.5007L26.4501 17.6607C26.4501 18.3807 26.4501 18.9707 26.4501 19.7807C26.7901 19.7807 27.0801 19.7807 27.3601 19.7807C27.8901 19.7807 28.4001 19.7807 29.1401 19.7807C29.9901 19.6807 29.8901 18.4707 29.2201 18.3707L29.2101 18.3607ZM27.5701 17.6507C27.7001 17.6507 27.8101 17.6507 27.9101 17.6507C28.2701 17.6507 28.4301 17.6507 28.4401 17.8407C28.4401 18.0707 28.2201 18.0707 27.8701 18.0707C27.7801 18.0707 27.6801 18.0707 27.5701 18.0707C27.5701 18.0307 27.5701 17.9807 27.5701 17.9307C27.5701 17.8307 27.5701 17.7407 27.5701 17.6507ZM27.5701 19.1807V18.6607C27.6501 18.6607 27.7301 18.6607 27.8001 18.6607C28.3401 18.6607 28.5401 18.6607 28.5701 18.9307C28.5501 19.1807 28.3701 19.1807 27.9301 19.1807C27.8301 19.1807 27.7101 19.1807 27.5701 19.1807ZM34.6801 19.7607V17.6707C34.5101 17.3707 34.5001 17.3607 34.5001 17.3607C34.5001 17.3607 34.5001 17.3607 34.3201 17.0507H36.4201C36.8101 17.6707 36.8101 17.6807 36.8201 17.6907C36.8201 17.6907 36.8201 17.7007 36.9801 17.9507C37.0301 18.0407 37.1101 18.1507 37.2001 18.3107V17.0507H38.1201V19.7607H36.6601C36.1401 18.9507 36.1301 18.9407 36.1301 18.9307C36.1301 18.9307 36.1301 18.9207 35.6101 18.1107C35.6101 18.3807 35.6101 18.5707 35.6101 18.7907C35.6101 19.0307 35.6101 19.3107 35.6101 19.7607C35.2101 19.7607 35.0301 19.7607 34.6801 19.7607ZM46.2601 17.6707V19.7607C46.6101 19.7607 46.7901 19.7607 47.1901 19.7607C47.1901 19.1907 47.1901 18.9007 47.1901 18.6007C47.1901 18.4507 47.1901 18.3007 47.1901 18.1107C47.7101 18.9207 47.7101 18.9207 47.7201 18.9307C47.7201 18.9307 47.7201 18.9507 48.2501 19.7607H49.7101V17.0507H48.7901V18.3107C48.4101 17.7007 48.4001 17.7007 48.4001 17.6907C48.4001 17.6907 48.4001 17.6807 48.0001 17.0507H45.9001C46.0801 17.3607 46.0801 17.3607 46.0801 17.3607C46.0801 17.3607 46.0801 17.3607 46.2601 17.6707Z" fill="#046A40"/>
</svg>
