<svg width="52" height="36" viewBox="0 0 52 36" fill="none" xmlns="http://www.w3.org/2000/svg">
<rect x="0.5" y="0.5" width="51" height="35" rx="3.5" fill="white"/>
<rect x="0.5" y="0.5" width="51" height="35" rx="3.5" stroke="#EAEAEA"/>
<path d="M2.12012 15.5703H3.17012V17.4003H5.10012V15.5703H6.14012V20.3303H5.10012V18.2803H3.17012V20.3303H2.12012V15.5703Z" fill="#145FA6"/>
<path d="M9.04023 18.6508C8.88023 18.7908 8.55023 18.8008 8.25023 18.8508C7.96023 18.9108 7.69023 19.0108 7.69023 19.3608C7.69023 19.7108 7.96024 19.8008 8.27024 19.8008C9.01024 19.8008 9.04023 19.2108 9.04023 19.0108V18.6608V18.6508ZM6.85023 17.9508C6.90023 17.0608 7.70023 16.8008 8.47023 16.8008C9.16023 16.8008 9.98023 16.9508 9.98023 17.7808V19.5708C9.98023 19.8808 10.0102 20.2008 10.1002 20.3408H9.14023C9.11023 20.2308 9.08023 20.1208 9.07023 20.0108C8.77023 20.3208 8.33023 20.4408 7.91023 20.4408C7.26023 20.4408 6.74023 20.1108 6.74023 19.4108C6.74023 18.6308 7.33023 18.4408 7.91023 18.3608C8.49023 18.2708 9.03023 18.2908 9.03023 17.9108C9.03023 17.5008 8.75023 17.4408 8.42023 17.4408C8.06023 17.4408 7.83023 17.5908 7.79023 17.9608H6.84023L6.85023 17.9508Z" fill="#145FA6"/>
<path d="M10.6599 16.8908H11.5599V17.3708H11.5799C11.8199 16.9808 12.2299 16.8008 12.6299 16.8008C13.6399 16.8008 13.8899 17.3708 13.8899 18.2208V20.3408H12.9399V18.3908C12.9399 17.8208 12.7699 17.5408 12.3299 17.5408C11.8199 17.5408 11.5999 17.8308 11.5999 18.5308V20.3408H10.6499V16.8908H10.6599Z" fill="#145FA6"/>
<path d="M16.1701 17.5103C15.5501 17.5103 15.3401 18.0403 15.3401 18.6103C15.3401 19.1803 15.5901 19.7203 16.1701 19.7203C16.8001 19.7203 16.9801 19.1703 16.9801 18.6103C16.9801 18.0503 16.7801 17.5203 16.1701 17.5203V17.5103ZM17.0001 19.9003H16.9901C16.7701 20.2703 16.3801 20.4303 15.9401 20.4303C14.9001 20.4303 14.3901 19.5403 14.3901 18.5803C14.3901 17.6203 14.9001 16.7903 15.9201 16.7903C16.3301 16.7903 16.7301 16.9603 16.9401 17.3003H16.9501V15.5703H17.9001V20.3303H17.0001V19.8903V19.9003Z" fill="#145FA6"/>
<path d="M20.8701 18.241C20.7801 17.761 20.5801 17.511 20.1201 17.511C19.5201 17.511 19.3501 17.981 19.3301 18.241H20.8701ZM19.3301 18.841C19.3601 19.441 19.6501 19.711 20.1801 19.711C20.5601 19.711 20.8701 19.481 20.9301 19.261H21.7601C21.4901 20.071 20.9301 20.421 20.1501 20.421C19.0601 20.421 18.3901 19.671 18.3901 18.611C18.3901 17.551 19.1001 16.791 20.1501 16.791C21.3201 16.791 21.8901 17.781 21.8201 18.841H19.3301Z" fill="#145FA6"/>
<path d="M22.3301 15.5703H23.2801V20.3303H22.3301V15.5703Z" fill="#145FA6"/>
<path d="M24.69 19.211C24.69 19.621 25.04 19.791 25.42 19.791C25.69 19.791 26.04 19.681 26.04 19.351C26.04 19.061 25.65 18.961 24.97 18.821C24.42 18.701 23.88 18.511 23.88 17.901C23.88 17.021 24.64 16.791 25.38 16.791C26.12 16.791 26.83 17.041 26.9 17.891H26C25.97 17.521 25.69 17.421 25.35 17.421C25.14 17.421 24.82 17.461 24.82 17.741C24.82 18.081 25.35 18.131 25.89 18.251C26.44 18.381 26.98 18.581 26.98 19.221C26.98 20.131 26.19 20.421 25.41 20.421C24.63 20.421 23.83 20.121 23.79 19.211H24.69Z" fill="#145FA6"/>
<path d="M29.1902 17.5101C28.6302 17.5101 28.3802 18.0401 28.3802 18.6201C28.3802 19.2001 28.6302 19.7201 29.1902 19.7201C29.7502 19.7201 30.0002 19.1901 30.0002 18.6201C30.0002 18.0501 29.7502 17.5101 29.1902 17.5101ZM27.4702 15.5801H28.4202V17.3101H28.4302C28.6602 16.9601 29.0902 16.8001 29.5202 16.8001C30.2102 16.8001 30.9502 17.3501 30.9502 18.6101C30.9502 19.8701 30.2102 20.4301 29.5202 20.4301C29.0102 20.4301 28.5902 20.2801 28.3902 19.9001H28.3802V20.3401H27.4802V15.5801H27.4702Z" fill="#145FA6"/>
<path d="M33.6301 18.6508C33.4701 18.7908 33.1401 18.8008 32.8401 18.8508C32.5501 18.9108 32.2801 19.0108 32.2801 19.3608C32.2801 19.7108 32.5501 19.8008 32.8601 19.8008C33.6001 19.8008 33.6301 19.2108 33.6301 19.0108V18.6608V18.6508ZM31.4401 17.9508C31.4901 17.0608 32.2901 16.8008 33.0601 16.8008C33.7501 16.8008 34.5701 16.9508 34.5701 17.7808V19.5708C34.5701 19.8808 34.6001 20.2008 34.6901 20.3408H33.7301C33.7001 20.2308 33.6701 20.1208 33.6601 20.0108C33.3601 20.3208 32.9201 20.4408 32.5001 20.4408C31.8501 20.4408 31.3301 20.1108 31.3301 19.4108C31.3301 18.6308 31.9201 18.4408 32.5001 18.3608C33.0801 18.2708 33.6201 18.2908 33.6201 17.9108C33.6201 17.5008 33.3401 17.4408 33.0101 17.4408C32.6501 17.4408 32.4201 17.5908 32.3801 17.9608H31.4301L31.4401 17.9508Z" fill="#145FA6"/>
<path d="M35.24 16.8908H36.14V17.3708H36.16C36.4 16.9808 36.81 16.8008 37.21 16.8008C38.22 16.8008 38.47 17.3708 38.47 18.2208V20.3408H37.52V18.3908C37.52 17.8208 37.35 17.5408 36.91 17.5408C36.4 17.5408 36.18 17.8308 36.18 18.5308V20.3408H35.23V16.8908H35.24Z" fill="#145FA6"/>
<path d="M39.21 15.5703H40.16V18.1303L41.35 16.8903H42.47L41.17 18.1503L42.62 20.3303H41.47L40.52 18.7903L40.16 19.1503V20.3303H39.21V15.5703Z" fill="#145FA6"/>
<path d="M45.2002 18.241C45.1102 17.761 44.9102 17.511 44.4502 17.511C43.8502 17.511 43.6802 17.981 43.6602 18.241H45.2002ZM43.6602 18.841C43.6902 19.441 43.9802 19.711 44.5102 19.711C44.8902 19.711 45.2002 19.481 45.2602 19.261H46.0902C45.8202 20.071 45.2602 20.421 44.4802 20.421C43.3902 20.421 42.7202 19.671 42.7202 18.611C42.7202 17.551 43.4302 16.791 44.4802 16.791C45.6502 16.791 46.2202 17.781 46.1502 18.841H43.6602Z" fill="#145FA6"/>
<path d="M46.6399 16.8908H47.5399V17.3708H47.5599C47.7999 16.9808 48.2099 16.8008 48.6099 16.8008C49.6199 16.8008 49.8699 17.3708 49.8699 18.2208V20.3408H48.9199V18.3908C48.9199 17.8208 48.7499 17.5408 48.3099 17.5408C47.7999 17.5408 47.5799 17.8308 47.5799 18.5308V20.3408H46.6299V16.8908H46.6399Z" fill="#145FA6"/>
</svg>
