<svg width="52" height="36" viewBox="0 0 52 36" fill="none" xmlns="http://www.w3.org/2000/svg">
<rect x="0.5" y="0.5" width="51" height="35" rx="3.5" fill="white"/>
<rect x="0.5" y="0.5" width="51" height="35" rx="3.5" stroke="#EAEAEA"/>
<path d="M45.6897 15.1405C43.7597 15.2805 42.2097 16.8605 42.0697 18.7905C41.9297 21.0705 43.7197 22.9705 45.9697 22.9705C46.7797 22.9705 47.8697 22.5505 48.3597 21.7105V22.8705H49.8697V19.1505C49.9397 16.6905 47.9697 14.9705 45.6897 15.1405ZM48.2497 19.1505C48.1797 20.4505 47.0597 21.4305 45.7197 21.2605C44.6997 21.1205 43.8897 20.3105 43.7497 19.2905C43.6097 17.9205 44.6597 16.7605 45.9997 16.7605C47.1897 16.7605 48.1797 17.7105 48.2497 18.9005V19.1505Z" fill="#00009E"/>
<path d="M37.3998 15.1404C35.3298 15.2104 33.5698 16.7904 33.5698 19.1104C33.5698 21.2204 35.2898 23.0104 37.4998 23.0104C39.0498 23.0104 40.5598 22.1004 41.1498 20.5904L39.6398 20.1304C39.3598 20.7604 38.6898 21.2904 37.9498 21.4304C36.8998 21.6404 35.9098 20.9704 35.5298 20.2704L41.3998 18.6504C41.2198 17.1004 39.8898 15.0704 37.3898 15.1404H37.3998ZM35.2198 18.8604C35.2198 18.0504 35.7098 17.1004 36.7698 16.7204C37.9598 16.2604 39.0198 16.8604 39.4798 17.7004L35.2298 18.8604H35.2198Z" fill="#00009E"/>
<path d="M24.5099 16.7196V15.0996C23.0299 15.0996 22.5399 15.8396 22.2999 16.2196V15.3396H20.6099V22.8196H22.3299V19.1296C22.3299 17.4396 23.3099 16.7796 24.5099 16.7096V16.7196Z" fill="#00009E"/>
<path d="M9.00988 19.8408L3.87988 13.8008H2.12988V22.8308H3.94988V16.7908L9.14988 22.8708H10.7299V13.8008H9.00988V19.8408Z" fill="#00009E"/>
<path d="M32.5498 12.9902H30.9298V15.9402C30.5398 15.4502 29.3498 15.0302 28.3298 15.1302C26.3998 15.2702 24.8498 16.8502 24.7098 18.7802C24.5698 21.0602 26.3598 22.9602 28.6098 22.9602C29.4498 22.9602 30.6098 22.5702 30.9998 21.8402V22.8202H32.5098V18.9602L32.5498 12.9902ZM30.8598 19.1402C30.7898 20.4402 29.6698 21.4202 28.3298 21.2502C27.3098 21.1102 26.4998 20.3002 26.3598 19.2802C26.2198 17.9102 27.2698 16.7502 28.6098 16.7502C29.7998 16.7502 30.7898 17.7002 30.8598 18.8902V19.1402Z" fill="#00009E"/>
<path d="M15.6898 15.0996C13.5098 15.0996 11.7598 16.8596 11.7598 19.0296C11.7598 21.1996 13.5198 22.9596 15.6898 22.9596C17.8598 22.9596 19.6198 21.1996 19.6198 19.0296C19.5798 16.8496 17.8298 15.0996 15.6898 15.0996ZM15.6898 21.2796C14.4598 21.2796 13.4398 20.2596 13.4398 19.0296C13.4398 17.7996 14.4598 16.7796 15.6898 16.7796C16.9198 16.7796 17.9398 17.7996 17.9398 19.0296C17.9398 20.2896 16.9198 21.2796 15.6898 21.2796Z" fill="#00009E"/>
</svg>
