<svg width="52" height="36" viewBox="0 0 52 36" fill="none" xmlns="http://www.w3.org/2000/svg">
<g clip-path="url(#clip0_2280_4236)">
<rect width="52" height="36" rx="4" fill="white"/>
<path d="M48 0H4C1.79086 0 0 1.79086 0 4V32C0 34.2091 1.79086 36 4 36H48C50.2091 36 52 34.2091 52 32V4C52 1.79086 50.2091 0 48 0Z" fill="white"/>
<path d="M48 0H4C1.79086 0 0 1.79086 0 4V32C0 34.2091 1.79086 36 4 36H48C50.2091 36 52 34.2091 52 32V4C52 1.79086 50.2091 0 48 0Z" fill="#D3D3D3"/>
<path d="M47.3198 0.550781H4.6798C2.53694 0.550781 0.799805 2.28792 0.799805 4.43078V31.5608C0.799805 33.7036 2.53694 35.4408 4.6798 35.4408H47.3198C49.4627 35.4408 51.1998 33.7036 51.1998 31.5608V4.43078C51.1998 2.28792 49.4627 0.550781 47.3198 0.550781Z" fill="white"/>
<path d="M34.4498 27.989C34.4498 27.889 34.4698 27.799 34.5098 27.709C34.5498 27.619 34.5998 27.549 34.6598 27.479C34.7198 27.419 34.7998 27.359 34.8798 27.329C34.9598 27.289 35.0598 27.269 35.1498 27.269C35.2398 27.269 35.3398 27.289 35.4298 27.329C35.5198 27.369 35.5898 27.419 35.6498 27.479C35.7098 27.539 35.7598 27.619 35.7998 27.709C35.8398 27.799 35.8598 27.889 35.8598 27.989C35.8598 28.089 35.8398 28.179 35.7998 28.269C35.7598 28.359 35.7098 28.429 35.6498 28.499C35.5898 28.559 35.5098 28.619 35.4298 28.649C35.3398 28.689 35.2498 28.709 35.1498 28.709C35.0498 28.709 34.9598 28.689 34.8798 28.649C34.7998 28.609 34.7198 28.559 34.6598 28.499C34.5998 28.439 34.5498 28.359 34.5098 28.269C34.4698 28.179 34.4498 28.089 34.4498 27.989ZM34.5898 27.989C34.5898 28.069 34.5998 28.149 34.6298 28.219C34.6598 28.289 34.6998 28.349 34.7498 28.409C34.7998 28.459 34.8598 28.499 34.9298 28.529C34.9998 28.559 35.0698 28.579 35.1498 28.579C35.2298 28.579 35.2998 28.559 35.3698 28.529C35.4398 28.499 35.4998 28.459 35.5498 28.409C35.5998 28.359 35.6398 28.299 35.6698 28.219C35.6998 28.149 35.7098 28.069 35.7098 27.989C35.7098 27.909 35.6998 27.829 35.6698 27.759C35.6398 27.689 35.5998 27.629 35.5498 27.569C35.4998 27.519 35.4398 27.479 35.3698 27.449C35.2998 27.419 35.2298 27.399 35.1498 27.399C35.0698 27.399 34.9998 27.419 34.9298 27.449C34.8598 27.479 34.7998 27.519 34.7498 27.569C34.6998 27.619 34.6598 27.679 34.6298 27.759C34.5998 27.829 34.5898 27.909 34.5898 27.989ZM34.9098 27.679C34.9098 27.679 34.9298 27.619 34.9798 27.619H35.1998C35.2698 27.619 35.3298 27.639 35.3698 27.679C35.4098 27.719 35.4298 27.779 35.4298 27.849C35.4298 27.879 35.4298 27.899 35.4198 27.929C35.4198 27.949 35.3998 27.969 35.3898 27.989C35.3798 28.009 35.3598 28.019 35.3498 28.029C35.3398 28.039 35.3198 28.049 35.2998 28.049C35.2998 28.049 35.2998 28.049 35.2998 28.059C35.2998 28.059 35.2998 28.059 35.2998 28.069C35.2998 28.069 35.2998 28.079 35.3098 28.089L35.4098 28.289C35.4098 28.289 35.4198 28.329 35.4098 28.339C35.4098 28.349 35.3898 28.359 35.3698 28.359H35.3498C35.3498 28.359 35.2898 28.339 35.2698 28.309L35.1598 28.069H35.0398V28.289C35.0398 28.289 35.0198 28.349 34.9798 28.349H34.9598C34.9598 28.349 34.8998 28.329 34.8998 28.289V27.679H34.9098ZM35.1698 27.969C35.1698 27.969 35.2398 27.959 35.2598 27.939C35.2798 27.919 35.2898 27.889 35.2898 27.849C35.2898 27.809 35.2798 27.779 35.2598 27.759C35.2398 27.739 35.2098 27.729 35.1698 27.729H35.0498V27.979H35.1698V27.969ZM29.4198 28.439C29.6398 28.439 29.8298 28.469 29.9898 28.529C30.1498 28.589 30.2698 28.639 30.3498 28.689C30.4198 28.729 30.4698 28.779 30.4798 28.849C30.4898 28.919 30.4798 28.989 30.4498 29.059L30.3798 29.179C30.3398 29.259 30.2898 29.299 30.2298 29.319C30.1698 29.339 30.0998 29.319 30.0098 29.289C29.9398 29.259 29.8498 29.219 29.7398 29.179C29.6298 29.139 29.5098 29.119 29.3698 29.119C29.2298 29.119 29.1098 29.149 29.0398 29.209C28.9598 29.269 28.9198 29.349 28.9198 29.449C28.9198 29.539 28.9598 29.619 29.0398 29.669C29.1198 29.729 29.2198 29.779 29.3498 29.819C29.4698 29.859 29.6098 29.909 29.7498 29.959C29.8898 30.009 30.0298 30.069 30.1498 30.149C30.2698 30.229 30.3798 30.329 30.4598 30.449C30.5398 30.569 30.5798 30.729 30.5798 30.909C30.5798 31.059 30.5498 31.189 30.4898 31.319C30.4298 31.449 30.3498 31.549 30.2298 31.639C30.1198 31.729 29.9798 31.799 29.8298 31.859C29.6698 31.909 29.4998 31.939 29.3098 31.939C29.0398 31.939 28.8098 31.899 28.6298 31.819C28.4398 31.739 28.2998 31.669 28.1998 31.599C28.1298 31.559 28.0798 31.499 28.0798 31.439C28.0798 31.369 28.0898 31.299 28.1398 31.229L28.2198 31.109C28.2698 31.039 28.3198 30.999 28.3798 30.989C28.4398 30.979 28.5098 30.989 28.5898 31.039C28.6698 31.079 28.7698 31.129 28.8898 31.189C29.0098 31.239 29.1598 31.269 29.3298 31.269C29.4698 31.269 29.5898 31.239 29.6698 31.179C29.7498 31.119 29.7898 31.039 29.7898 30.929C29.7898 30.839 29.7498 30.769 29.6698 30.709C29.5898 30.659 29.4898 30.609 29.3598 30.559C29.2398 30.509 29.0998 30.469 28.9598 30.409C28.8198 30.359 28.6798 30.289 28.5598 30.209C28.4398 30.129 28.3298 30.029 28.2498 29.909C28.1698 29.789 28.1298 29.629 28.1298 29.439C28.1298 29.279 28.1598 29.129 28.2298 29.009C28.2998 28.879 28.3898 28.779 28.5098 28.699C28.6298 28.619 28.7598 28.549 28.9198 28.509C29.0798 28.469 29.2398 28.439 29.4098 28.439H29.4198ZM19.6798 28.439C19.8998 28.439 20.0898 28.469 20.2498 28.529C20.4098 28.589 20.5298 28.639 20.6098 28.689C20.6798 28.729 20.7298 28.779 20.7398 28.849C20.7498 28.919 20.7398 28.989 20.7098 29.059L20.6398 29.179C20.5998 29.259 20.5498 29.299 20.4898 29.319C20.4298 29.339 20.3598 29.319 20.2698 29.289C20.1998 29.259 20.1098 29.219 19.9998 29.179C19.8998 29.139 19.7698 29.119 19.6298 29.119C19.4898 29.119 19.3698 29.149 19.2998 29.209C19.2198 29.269 19.1798 29.349 19.1798 29.449C19.1798 29.539 19.2198 29.619 19.2998 29.669C19.3798 29.729 19.4798 29.779 19.6098 29.819C19.7298 29.859 19.8698 29.909 20.0098 29.959C20.1498 30.009 20.2898 30.069 20.4098 30.149C20.5298 30.229 20.6398 30.329 20.7198 30.449C20.7998 30.569 20.8398 30.729 20.8398 30.909C20.8398 31.059 20.8098 31.189 20.7498 31.319C20.6898 31.449 20.6098 31.549 20.4898 31.639C20.3798 31.729 20.2398 31.799 20.0898 31.859C19.9298 31.909 19.7598 31.939 19.5698 31.939C19.2998 31.939 19.0698 31.899 18.8898 31.819C18.6998 31.739 18.5598 31.669 18.4598 31.599C18.3898 31.559 18.3398 31.499 18.3398 31.439C18.3398 31.369 18.3498 31.299 18.3998 31.229L18.4798 31.109C18.5298 31.039 18.5798 30.999 18.6398 30.989C18.6998 30.989 18.7698 30.989 18.8498 31.039C18.9298 31.079 19.0298 31.129 19.1498 31.189C19.2698 31.239 19.4198 31.269 19.5898 31.269C19.7298 31.269 19.8498 31.239 19.9298 31.179C20.0098 31.119 20.0498 31.039 20.0498 30.929C20.0498 30.839 20.0098 30.769 19.9298 30.709C19.8498 30.659 19.7498 30.609 19.6198 30.559C19.4998 30.509 19.3598 30.469 19.2198 30.409C19.0798 30.359 18.9398 30.289 18.8198 30.209C18.6998 30.129 18.5898 30.029 18.5098 29.909C18.4298 29.789 18.3898 29.629 18.3898 29.439C18.3898 29.279 18.4198 29.129 18.4898 29.009C18.5598 28.879 18.6498 28.779 18.7698 28.699C18.8898 28.619 19.0198 28.549 19.1798 28.509C19.3398 28.469 19.4998 28.439 19.6698 28.439H19.6798ZM31.6298 27.209C31.8098 27.209 31.9098 27.299 31.9098 27.479V28.829C31.9098 28.829 31.9098 28.909 31.9098 28.939C31.9098 28.969 31.9098 28.999 31.9098 29.029C31.9098 29.059 31.9098 29.089 31.9098 29.109H31.9198C31.9598 29.029 32.0198 28.949 32.0898 28.869C32.1598 28.789 32.2498 28.719 32.3498 28.649C32.4498 28.579 32.5598 28.529 32.6798 28.489C32.7998 28.449 32.9398 28.429 33.0798 28.429C33.4498 28.429 33.7398 28.529 33.9398 28.729C34.1398 28.929 34.2398 29.249 34.2398 29.699V31.569C34.2398 31.749 34.1498 31.839 33.9598 31.839H33.6798C33.4998 31.839 33.3998 31.749 33.3998 31.569V29.869C33.3998 29.659 33.3698 29.499 33.2998 29.379C33.2298 29.259 33.0898 29.189 32.8798 29.189C32.7398 29.189 32.5998 29.219 32.4798 29.279C32.3598 29.339 32.2598 29.409 32.1798 29.509C32.0998 29.609 32.0298 29.719 31.9898 29.859C31.9398 29.999 31.9198 30.139 31.9198 30.299V31.579C31.9198 31.759 31.8298 31.849 31.6398 31.849H31.3598C31.1798 31.849 31.0798 31.759 31.0798 31.579V27.479C31.0798 27.299 31.1698 27.209 31.3598 27.209H31.6398H31.6298ZM27.2798 28.519C27.4598 28.519 27.5498 28.609 27.5498 28.789V31.579C27.5498 31.759 27.4598 31.849 27.2798 31.849H26.9898C26.8098 31.849 26.7198 31.759 26.7198 31.579V28.789C26.7198 28.609 26.8098 28.519 26.9898 28.519H27.2798ZM21.7198 28.519C21.8898 28.519 21.9798 28.599 22.0098 28.759L22.5498 30.709C22.5498 30.709 22.5698 30.799 22.5698 30.839C22.5698 30.879 22.5798 30.919 22.5898 30.949C22.5898 30.989 22.6098 31.029 22.6098 31.059H22.6198C22.6198 31.059 22.6298 30.989 22.6398 30.949C22.6398 30.919 22.6598 30.879 22.6598 30.839C22.6598 30.799 22.6798 30.759 22.6898 30.709L23.2498 28.759C23.2798 28.599 23.3798 28.519 23.5498 28.519H23.7998C23.9598 28.519 24.0598 28.599 24.0998 28.759L24.6598 30.709C24.6598 30.709 24.6798 30.799 24.6898 30.839C24.6898 30.879 24.6998 30.919 24.7098 30.949C24.7098 30.989 24.7298 31.029 24.7298 31.059H24.7398C24.7398 31.059 24.7498 30.989 24.7598 30.949C24.7598 30.919 24.7798 30.879 24.7798 30.839C24.7798 30.799 24.7998 30.759 24.8098 30.709L25.3398 28.759C25.3798 28.599 25.4798 28.519 25.6398 28.519H25.9398C26.0398 28.519 26.1098 28.549 26.1498 28.609C26.1898 28.669 26.1998 28.739 26.1698 28.829L25.3098 31.629C25.2698 31.779 25.1598 31.859 24.9998 31.859H24.5598C24.3898 31.859 24.2898 31.779 24.2498 31.619L23.7498 29.949C23.7498 29.949 23.7298 29.859 23.7198 29.819C23.7098 29.779 23.6998 29.739 23.6898 29.699C23.6898 29.659 23.6698 29.619 23.6698 29.589H23.6598C23.6598 29.589 23.6398 29.659 23.6298 29.699C23.6298 29.729 23.6098 29.769 23.5998 29.819C23.5998 29.859 23.5798 29.909 23.5698 29.949L23.0698 31.619C23.0298 31.779 22.9298 31.859 22.7698 31.859H22.3198C22.1598 31.859 22.0598 31.779 22.0198 31.629L21.1498 28.829C21.1198 28.739 21.1298 28.659 21.1698 28.609C21.2098 28.549 21.2798 28.519 21.3798 28.519H21.6898H21.7198Z" fill="#4A4A49"/>
<path fill-rule="evenodd" clip-rule="evenodd" d="M21.5498 23.7202C25.6998 25.7002 30.8198 24.7202 33.9098 21.0402C37.5798 16.6702 37.0098 10.1602 32.6398 6.49023L29.7398 9.95023C33.1498 12.8102 33.5998 17.9002 30.7298 21.3102C28.4498 24.0302 24.6898 24.9402 21.5498 23.7102" fill="url(#paint0_linear_2280_4236)"/>
<path fill-rule="evenodd" clip-rule="evenodd" d="M21.5498 23.7209C25.6998 25.7009 30.8198 24.7209 33.9098 21.0409C34.2898 20.5909 34.6198 20.1109 34.9098 19.6209C35.3998 16.5809 34.3198 13.3809 31.7998 11.2609C31.1598 10.7209 30.4598 10.2909 29.7398 9.96094C33.1498 12.8209 33.5998 17.9109 30.7298 21.3209C28.4498 24.0409 24.6898 24.9509 21.5498 23.7209Z" fill="url(#paint1_linear_2280_4236)"/>
<path fill-rule="evenodd" clip-rule="evenodd" d="M30.4498 5.07946C26.2998 3.09946 21.1798 4.07947 18.0898 7.75947C14.4198 12.1295 14.9898 18.6395 19.3598 22.3095L22.2598 18.8495C18.8498 15.9895 18.3998 10.8995 21.2698 7.48946C23.5498 4.76946 27.3098 3.85947 30.4498 5.08947" fill="url(#paint2_linear_2280_4236)"/>
<path fill-rule="evenodd" clip-rule="evenodd" d="M30.4498 5.07946C26.2998 3.09946 21.1798 4.07947 18.0898 7.75947C17.7098 8.20947 17.3798 8.68947 17.0898 9.17947C16.5998 12.2195 17.6798 15.4195 20.1998 17.5395C20.8398 18.0795 21.5398 18.5095 22.2598 18.8395C18.8498 15.9795 18.3998 10.8895 21.2698 7.47947C23.5498 4.75946 27.3098 3.84946 30.4498 5.07946Z" fill="url(#paint3_linear_2280_4236)"/>
</g>
<rect x="0.5" y="0.5" width="51" height="35" rx="3.5" stroke="#EAEAEA"/>
<defs>
<linearGradient id="paint0_linear_2280_4236" x1="24.3818" y1="19.5257" x2="20.2432" y2="12.8172" gradientUnits="userSpaceOnUse">
<stop stop-color="#EE2131"/>
<stop offset="1" stop-color="#FDCE2C"/>
</linearGradient>
<linearGradient id="paint1_linear_2280_4236" x1="34.1267" y1="11.2257" x2="27.7243" y2="25.8278" gradientUnits="userSpaceOnUse">
<stop stop-color="#FAC42C"/>
<stop offset="0.26" stop-color="#F77130"/>
<stop offset="0.56" stop-color="#EE52E1"/>
<stop offset="1" stop-color="#661EEB"/>
</linearGradient>
<linearGradient id="paint2_linear_2280_4236" x1="26.3648" y1="11.2067" x2="30.5035" y2="17.9151" gradientUnits="userSpaceOnUse">
<stop stop-color="#78F5D7"/>
<stop offset="0.27" stop-color="#77D0F5"/>
<stop offset="0.55" stop-color="#70A3F2"/>
<stop offset="1" stop-color="#661EEB"/>
</linearGradient>
<linearGradient id="paint3_linear_2280_4236" x1="20.4274" y1="14.7499" x2="26.7529" y2="3.2087" gradientUnits="userSpaceOnUse">
<stop stop-color="#536EEC"/>
<stop offset="0.25" stop-color="#54C2EB"/>
<stop offset="0.56" stop-color="#64D669"/>
<stop offset="1" stop-color="#FDCE2C"/>
</linearGradient>
<clipPath id="clip0_2280_4236">
<rect width="52" height="36" rx="4" fill="white"/>
</clipPath>
</defs>
</svg>
