<svg width="52" height="36" viewBox="0 0 52 36" fill="none" xmlns="http://www.w3.org/2000/svg">
<g clip-path="url(#clip0_2280_4306)">
<rect width="52" height="36" rx="4" fill="white"/>
<path d="M48 0H4C1.79086 0 0 1.79086 0 4V32C0 34.2091 1.79086 36 4 36H48C50.2091 36 52 34.2091 52 32V4C52 1.79086 50.2091 0 48 0Z" fill="white"/>
<path d="M48 0H4C1.79086 0 0 1.79086 0 4V32C0 34.2091 1.79086 36 4 36H48C50.2091 36 52 34.2091 52 32V4C52 1.79086 50.2091 0 48 0Z" fill="#D3D3D3"/>
<path d="M47.3198 0.550781H4.6798C2.53694 0.550781 0.799805 2.28792 0.799805 4.43078V31.5608C0.799805 33.7036 2.53694 35.4408 4.6798 35.4408H47.3198C49.4627 35.4408 51.1998 33.7036 51.1998 31.5608V4.43078C51.1998 2.28792 49.4627 0.550781 47.3198 0.550781Z" fill="white"/>
<path d="M17.8502 21.0296V14.4196H15.4702V12.8496H21.9302V14.4196H19.5502V21.0296H17.8502Z" fill="black"/>
<path d="M21.6602 21.0298V15.0898H23.2302V16.0298C23.6002 15.2298 24.0802 15.0898 24.6002 15.0898H25.2102V16.6798H24.6902C23.9502 16.6798 23.2902 17.1098 23.2902 18.4098V21.0298H21.6602Z" fill="black"/>
<path d="M25.9399 18.8501V15.0801H27.5699V18.4801C27.5699 19.1701 27.9099 19.6901 28.5999 19.6901C29.2899 19.6901 29.6999 19.1701 29.6999 18.4901V15.0801H31.3299V21.0201H29.7799V20.2701C29.3899 20.8601 28.7999 21.1601 28.0599 21.1601C26.7599 21.1601 25.9399 20.2601 25.9399 18.8501Z" fill="black"/>
<path d="M32.0103 19.3605L33.4203 19.0305C33.4903 19.4905 33.8603 19.8405 34.5603 19.8405C35.1103 19.8405 35.4103 19.6205 35.4103 19.3405C35.4103 19.1205 35.2903 18.9505 34.7303 18.8205L33.8003 18.6205C32.6103 18.3605 32.1103 17.8105 32.1103 16.8205C32.1103 15.8305 32.9503 14.9805 34.5303 14.9805C36.2103 14.9805 36.8803 15.9905 36.9503 16.6505L35.5303 16.9605C35.4603 16.6105 35.2003 16.2305 34.5003 16.2305C34.0503 16.2305 33.7203 16.4305 33.7203 16.7205C33.7203 16.9705 33.8903 17.1005 34.1803 17.1705L35.5403 17.4805C36.5703 17.7205 37.0503 18.3305 37.0503 19.2105C37.0503 20.1505 36.3003 21.1405 34.5803 21.1405C32.7003 21.1405 32.0803 20.0105 32.0103 19.3605Z" fill="black"/>
<path d="M40.1799 21.0288C39.1299 21.0288 38.4199 20.4488 38.4199 19.2888V16.5088H37.4199V15.0888H38.4199V13.7688L40.0499 13.2988V15.0888H41.2499V16.5088H40.0499V18.9988C40.0499 19.4388 40.2699 19.6088 40.7099 19.6088H41.3399V21.0288H40.1899" fill="black"/>
<path d="M42.2202 21.0296V12.8496H43.8502V21.0296H42.2202Z" fill="black"/>
<path d="M48.7399 15.0898H50.4799L47.9999 23.1598H46.2599L46.9399 21.0298H46.0399L44.3999 15.0898H46.1399L47.3599 19.6898L48.7299 15.0898" fill="black"/>
<path d="M1.52002 16.4296H5.34002V13.3896L8.38002 16.4296L5.34002 19.4696V21.0296H9.03002V16.4296H12.42V12.8496H1.52002V16.4296Z" fill="black"/>
</g>
<rect x="0.5" y="0.5" width="51" height="35" rx="3.5" stroke="#EAEAEA"/>
<defs>
<clipPath id="clip0_2280_4306">
<rect width="52" height="36" rx="4" fill="white"/>
</clipPath>
</defs>
</svg>
