<svg width="52" height="36" viewBox="0 0 52 36" fill="none" xmlns="http://www.w3.org/2000/svg">
<rect x="0.5" y="0.5" width="51" height="35" rx="3.5" fill="white"/>
<rect x="0.5" y="0.5" width="51" height="35" rx="3.5" stroke="#EAEAEA"/>
<path d="M37.74 18.0098C37.74 24.4998 32.48 29.7498 25.99 29.7398C19.5 29.7398 14.26 24.4798 14.27 17.9898C14.27 11.4998 19.53 6.24978 26.02 6.25978C32.51 6.25978 37.75 11.5198 37.74 18.0098ZM29.64 16.6698C29.64 16.8298 29.62 17.0698 29.61 17.3098C29.57 18.1498 29.38 18.9398 28.97 19.6798C28.59 20.3698 27.78 20.4298 27.3 19.7998C27.11 19.5498 26.99 19.2598 26.94 18.9598C26.73 17.7198 26.76 16.4898 27.05 15.2698C27.24 14.4598 27.52 13.6898 27.89 12.9498C27.92 12.8898 27.97 12.8398 27.88 12.7698C27.45 12.4798 27.03 12.1598 26.58 11.8998C26.36 11.7698 26.13 11.6498 25.88 11.5898C25.37 11.4698 24.98 11.6698 24.78 12.1498C24.73 12.2698 24.69 12.3998 24.67 12.5298C24.57 13.1298 24.5 13.7398 24.44 14.3498C24.34 15.4698 24.31 16.5998 24.51 17.7098C24.64 18.4298 24.57 19.0898 24.17 19.6998C23.97 20.0098 23.74 20.2998 23.49 20.5798C23.13 20.9798 22.75 20.9098 22.54 20.4098C22.54 20.3898 22.52 20.3698 22.52 20.3498C22.38 19.9198 22.27 19.4698 22.23 19.0198C22.16 18.2398 22.19 17.4498 22.25 16.6698C22.39 15.0398 22.81 13.4798 23.55 12.0198C23.65 11.8131 23.6 11.6598 23.4 11.5598C22.96 11.3398 22.53 11.0998 22.05 10.9798C21.17 10.7598 20.43 11.0198 19.91 11.7598C19.77 11.9498 19.66 12.1598 19.56 12.3798C19.21 13.1698 19.06 14.0098 19.02 14.8698C18.98 15.6298 19.03 16.3798 19.14 17.1298C19.27 18.0798 19.47 19.0198 19.85 19.8998C20.14 20.5898 20.5 21.2398 21.04 21.7698C21.38 22.1098 21.77 22.3398 22.26 22.3898C22.83 22.4398 23.31 22.2298 23.76 21.9098C24.22 21.5898 24.58 21.1698 24.95 20.7598C25.11 20.5798 25.2634 20.5864 25.41 20.7798C25.74 21.1998 26.06 21.6198 26.5 21.9398C27.81 22.9198 29.44 22.7398 30.49 21.4798C30.89 20.9998 31.18 20.4498 31.42 19.8798C32.27 17.8698 32.62 15.7698 32.5 13.5898C32.43 12.4198 32.1 11.3198 31.63 10.2598C31.38 9.69978 30.79 9.38978 30.18 9.43978C29.42 9.50978 28.79 9.84978 28.23 10.3398C28.14 10.4198 28.12 10.4698 28.18 10.5898C28.43 11.0298 28.7 11.4598 28.88 11.9398C29.44 13.4398 29.68 14.9898 29.66 16.6598L29.64 16.6698ZM30.13 25.6798C30.47 25.8998 30.79 26.0998 31.11 26.3098C31.19 26.3598 31.24 26.3498 31.31 26.3098C31.98 25.8598 32.51 25.2798 32.95 24.6098C33 24.5298 33 24.4998 32.91 24.4498C32.58 24.2898 32.25 24.1198 31.92 23.9498C31.84 23.9098 31.8 23.9198 31.76 23.9998C31.6 24.3198 31.38 24.5998 31.13 24.8498C30.82 25.1598 30.49 25.4398 30.12 25.6898L30.13 25.6798ZM19.74 24.5498C19.8 24.5698 19.8 24.6198 19.82 24.6498C19.94 24.8698 20.05 25.0998 20.17 25.3198C20.22 25.4198 20.26 25.5198 20.41 25.5098C20.55 25.5098 20.59 25.4198 20.64 25.3198C20.75 25.1098 20.86 24.8998 20.97 24.6898C20.99 24.6498 21 24.5798 21.08 24.5598C21.08 24.8598 21.08 25.1498 21.08 25.4398C21.08 25.7198 21.11 25.7398 21.39 25.6998C21.45 25.6998 21.46 25.6698 21.46 25.6098C21.46 25.0398 21.46 24.4798 21.46 23.9098C21.46 23.8698 21.46 23.8398 21.4 23.8298C21.14 23.7798 21.02 23.8298 20.9 24.0798C20.82 24.2398 20.73 24.3998 20.65 24.5698C20.57 24.7198 20.5 24.8698 20.41 25.0398C20.22 24.6698 20.05 24.3198 19.87 23.9698C19.82 23.8698 19.48 23.7898 19.39 23.8498C19.36 23.8698 19.37 23.8998 19.37 23.9298C19.37 24.4898 19.37 25.0498 19.37 25.6198C19.37 25.6998 19.4 25.7198 19.47 25.7098C19.51 25.7098 19.55 25.7098 19.59 25.7098C19.72 25.7298 19.76 25.6798 19.76 25.5498C19.75 25.2198 19.76 24.8898 19.76 24.5498H19.74ZM22.98 25.7298C23.54 25.7298 23.94 25.3398 23.94 24.7798C23.94 24.2198 23.53 23.8198 22.97 23.8198C22.41 23.8198 22 24.2198 22 24.7698C22 25.3298 22.4 25.7298 22.98 25.7298ZM24.89 24.5398C25.18 24.8998 25.43 25.2298 25.69 25.5498C25.72 25.5898 25.75 25.6298 25.79 25.6598C25.88 25.7398 25.99 25.7098 26.1 25.6998C26.15 25.6998 26.14 25.6398 26.14 25.5998C26.14 25.0498 26.14 24.4998 26.14 23.9398C26.14 23.8498 26.11 23.8198 26.02 23.8298C25.98 23.8298 25.94 23.8298 25.9 23.8298C25.79 23.8098 25.75 23.8498 25.75 23.9698C25.75 24.2998 25.75 24.6298 25.75 24.9698C25.68 24.9498 25.67 24.8998 25.64 24.8598C25.4 24.5598 25.17 24.2598 24.93 23.9698C24.9 23.9298 24.88 23.8898 24.84 23.8698C24.75 23.7998 24.64 23.8398 24.55 23.8398C24.49 23.8398 24.51 23.8998 24.51 23.9398C24.51 24.4998 24.51 25.0498 24.51 25.6098C24.51 25.6898 24.55 25.7198 24.62 25.7098C24.66 25.7098 24.7 25.7098 24.74 25.7098C24.86 25.7298 24.9 25.6898 24.89 25.5598C24.89 25.2298 24.89 24.9098 24.89 24.5298V24.5398ZM26.8 24.7698C26.8 25.0498 26.8 25.3298 26.8 25.5998C26.8 25.6798 26.82 25.7198 26.91 25.7098C27.24 25.7098 27.57 25.7098 27.9 25.7098C28.05 25.7098 28.01 25.6098 28.01 25.5398C28.01 25.4598 28.05 25.3598 27.9 25.3698C27.72 25.3798 27.54 25.3698 27.35 25.3698C27.31 25.3698 27.25 25.3798 27.25 25.3198C27.25 25.2098 27.25 25.0998 27.25 24.9898C27.25 24.9298 27.3 24.9398 27.34 24.9398C27.47 24.9398 27.6 24.9398 27.73 24.9398C27.8 24.9398 27.83 24.9198 27.83 24.8498C27.84 24.6198 27.85 24.6198 27.61 24.6198C27.59 24.6198 27.57 24.6198 27.55 24.6198C27.23 24.6198 27.23 24.6198 27.24 24.2998C27.24 24.1998 27.28 24.1798 27.37 24.1898C27.54 24.1898 27.71 24.1898 27.89 24.1898C28.03 24.1998 28.02 24.1198 28.01 24.0298C28.01 23.9498 28.06 23.8398 27.89 23.8498C27.57 23.8498 27.24 23.8498 26.92 23.8498C26.83 23.8498 26.8 23.8798 26.8 23.9698C26.8 24.2398 26.8 24.5098 26.8 24.7698ZM28.34 23.8498C28.34 23.9298 28.39 23.9598 28.42 23.9998C28.64 24.2898 28.86 24.5798 29.09 24.8598C29.19 24.9798 29.18 25.0498 29.08 25.1598C28.9 25.3498 28.71 25.5198 28.48 25.7198C28.66 25.7198 28.81 25.7198 28.95 25.7198C29 25.7198 29.03 25.6898 29.07 25.6598C29.5 25.2798 29.88 24.8598 30.15 24.3598C30.34 24.0198 30.34 24.0198 29.97 23.9098C29.88 23.8798 29.85 23.9098 29.82 23.9898C29.74 24.1998 29.63 24.3898 29.52 24.5798C29.47 24.6598 29.43 24.6898 29.36 24.5898C29.19 24.3698 29.02 24.1698 28.85 23.9498C28.79 23.8798 28.74 23.8398 28.65 23.8498C28.55 23.8498 28.46 23.8498 28.35 23.8498H28.34ZM29.37 25.7198C29.61 25.8498 29.83 25.9598 30.06 26.0798C30.12 26.1098 30.19 26.1398 30.25 26.1798C30.3 26.2098 30.36 26.1898 30.39 26.1498C30.43 26.0898 30.35 26.0798 30.32 26.0598C30.17 25.9598 30.02 25.8698 29.87 25.7798C29.77 25.7198 29.75 25.6898 29.86 25.6098C30.34 25.2598 30.75 24.8398 31.06 24.3398C31.28 23.9998 31.28 23.9998 30.89 23.8598C30.83 23.8398 30.8 23.8498 30.78 23.9098C30.47 24.6298 29.99 25.2098 29.38 25.7198H29.37Z" fill="#EFBE2F"/>
<path d="M37.3799 18.0089C37.3799 24.2989 32.2799 29.3889 25.9899 29.3789C19.6999 29.3789 14.6199 24.2789 14.6299 17.9989C14.6299 11.7089 19.7299 6.61892 26.0199 6.62892C32.2999 6.62892 37.3899 11.7289 37.3799 18.0089ZM29.5299 16.7089C29.5299 16.8689 29.5099 17.0989 29.4999 17.3289C29.4599 18.1389 29.2799 18.9089 28.8799 19.6289C28.5099 20.2989 27.7299 20.3589 27.2599 19.7489C27.0799 19.5089 26.9599 19.2289 26.9099 18.9289C26.7099 17.7289 26.7399 16.5389 27.0099 15.3489C27.1899 14.5689 27.4699 13.8189 27.8199 13.0989C27.8499 13.0389 27.8999 12.9889 27.8099 12.9289C27.3899 12.6489 26.9899 12.3389 26.5499 12.0789C26.3299 11.9489 26.1099 11.8289 25.8699 11.7789C25.3799 11.6589 24.9999 11.8589 24.7999 12.3189C24.7499 12.4389 24.7099 12.5589 24.6899 12.6889C24.5999 13.2789 24.5199 13.8689 24.4699 14.4589C24.3699 15.5489 24.3499 16.6389 24.5399 17.7189C24.6599 18.4089 24.5999 19.0589 24.2099 19.6489C24.0099 19.9489 23.7899 20.2289 23.5599 20.4989C23.2099 20.8889 22.8399 20.8189 22.6399 20.3389C22.6399 20.3189 22.6299 20.2989 22.6199 20.2789C22.4799 19.8589 22.3799 19.4289 22.3399 18.9889C22.2799 18.2289 22.2999 17.4689 22.3599 16.7089C22.4999 15.1289 22.9099 13.6189 23.6199 12.1989C23.7199 11.9989 23.6699 11.8489 23.4699 11.7489C23.0499 11.5289 22.6299 11.2989 22.1599 11.1789C21.3099 10.9589 20.5899 11.2189 20.0799 11.9389C19.9499 12.1289 19.8299 12.3289 19.7399 12.5389C19.3999 13.3089 19.2599 14.1189 19.2199 14.9589C19.1799 15.6889 19.2299 16.4189 19.3299 17.1489C19.4599 18.0689 19.6499 18.9789 20.0099 19.8389C20.2899 20.5089 20.6399 21.1389 21.1599 21.6589C21.4899 21.9889 21.8699 22.2189 22.3399 22.2589C22.8899 22.3089 23.3599 22.1089 23.7899 21.7989C24.2299 21.4889 24.5799 21.0789 24.9399 20.6889C25.0932 20.5156 25.2432 20.5223 25.3899 20.7089C25.7099 21.1089 26.0199 21.5189 26.4399 21.8289C27.7099 22.7789 29.2899 22.5989 30.3099 21.3889C30.6999 20.9289 30.9799 20.3989 31.2099 19.8389C32.0299 17.8889 32.3699 15.8589 32.2499 13.7489C32.1899 12.6089 31.8599 11.5489 31.4099 10.5189C31.1699 9.97892 30.5899 9.67892 29.9999 9.72892C29.2599 9.79892 28.6599 10.1289 28.1099 10.6089C28.0199 10.6889 27.9999 10.7389 28.0599 10.8489C28.2999 11.2789 28.5599 11.6889 28.7399 12.1589C29.2799 13.6089 29.5199 15.1089 29.4999 16.7289L29.5299 16.7089ZM29.9999 25.4389C30.3299 25.6489 30.6399 25.8489 30.9499 26.0489C31.0199 26.0989 31.0699 26.0889 31.1399 26.0489C31.7899 25.6189 32.3099 25.0489 32.7299 24.3989C32.7799 24.3289 32.7799 24.2889 32.6899 24.2489C32.3699 24.0889 32.0499 23.9289 31.7299 23.7589C31.6499 23.7189 31.6199 23.7289 31.5799 23.8089C31.4299 24.1189 31.2099 24.3889 30.9699 24.6289C30.6699 24.9289 30.3499 25.1989 29.9899 25.4389H29.9999ZM19.9299 24.3489C19.9899 24.3689 19.9899 24.4189 20.0099 24.4489C20.1199 24.6689 20.2399 24.8789 20.3499 25.0989C20.3999 25.1989 20.4399 25.2889 20.5799 25.2889C20.7099 25.2889 20.7499 25.1989 20.7999 25.1089C20.8999 24.8989 21.0099 24.6989 21.1199 24.4989C21.1399 24.4589 21.1499 24.3989 21.2199 24.3689C21.2199 24.6589 21.2199 24.9389 21.2199 25.2289C21.2199 25.4989 21.2499 25.5189 21.5199 25.4889C21.5799 25.4889 21.5899 25.4589 21.5899 25.4089C21.5899 24.8589 21.5899 24.3089 21.5899 23.7589C21.5899 23.7189 21.5899 23.6889 21.5299 23.6789C21.2699 23.6289 21.1599 23.6789 21.0399 23.9189C20.9599 24.0789 20.8799 24.2289 20.7999 24.3889C20.7299 24.5389 20.6499 24.6789 20.5699 24.8389C20.3899 24.4789 20.2199 24.1389 20.0399 23.7989C19.9899 23.6989 19.6599 23.6189 19.5699 23.6889C19.5399 23.7089 19.5499 23.7389 19.5499 23.7689C19.5499 24.3089 19.5499 24.8589 19.5499 25.3989C19.5499 25.4789 19.5799 25.4889 19.6499 25.4889C19.6899 25.4889 19.7299 25.4889 19.7699 25.4889C19.8999 25.5089 19.9399 25.4689 19.9299 25.3289C19.9199 25.0089 19.9299 24.6889 19.9299 24.3589V24.3489ZM23.0699 25.4889C23.6199 25.4889 23.9999 25.1089 23.9999 24.5689C23.9999 24.0289 23.6099 23.6389 23.0599 23.6389C22.5199 23.6389 22.1199 24.0289 22.1199 24.5589C22.1199 25.0989 22.5099 25.4889 23.0699 25.4889ZM24.9199 24.3389C25.1999 24.6889 25.4499 25.0089 25.6999 25.3189C25.7299 25.3589 25.7599 25.3989 25.7999 25.4289C25.8899 25.4989 25.9999 25.4789 26.0999 25.4689C26.1499 25.4689 26.1399 25.4089 26.1399 25.3689C26.1399 24.8289 26.1399 24.2989 26.1399 23.7689C26.1399 23.6789 26.1099 23.6589 26.0299 23.6689C25.9899 23.6689 25.9499 23.6689 25.9099 23.6689C25.7999 23.6489 25.7699 23.6889 25.7699 23.8089C25.7699 24.1289 25.7699 24.4489 25.7699 24.7789C25.7099 24.7589 25.6899 24.7089 25.6599 24.6789C25.4299 24.3889 25.1999 24.0989 24.9699 23.8089C24.9399 23.7789 24.9199 23.7389 24.8799 23.7089C24.7899 23.6389 24.6899 23.6789 24.5999 23.6789C24.5399 23.6789 24.5599 23.7389 24.5599 23.7689C24.5599 24.3089 24.5599 24.8489 24.5599 25.3889C24.5599 25.4689 24.5899 25.4889 24.6699 25.4889C24.7099 25.4889 24.7499 25.4889 24.7899 25.4889C24.8999 25.5089 24.9399 25.4689 24.9399 25.3489C24.9399 25.0289 24.9399 24.7189 24.9399 24.3489L24.9199 24.3389ZM26.7699 24.5589C26.7699 24.8289 26.7699 25.0989 26.7699 25.3689C26.7699 25.4489 26.7899 25.4789 26.8799 25.4789C27.1999 25.4789 27.5199 25.4789 27.8399 25.4789C27.9899 25.4789 27.9499 25.3889 27.9499 25.3089C27.9499 25.2389 27.9899 25.1389 27.8399 25.1489C27.6599 25.1589 27.4899 25.1489 27.3099 25.1489C27.2699 25.1489 27.2099 25.1589 27.2099 25.0989C27.2099 24.9889 27.2099 24.8789 27.2099 24.7789C27.2099 24.7189 27.2599 24.7289 27.2999 24.7289C27.4299 24.7289 27.5499 24.7289 27.6799 24.7289C27.7499 24.7289 27.7699 24.7089 27.7799 24.6389C27.7899 24.4089 27.7999 24.4089 27.5699 24.4089C27.5499 24.4089 27.5299 24.4089 27.5099 24.4089C27.1999 24.4089 27.1999 24.4089 27.2099 24.0989C27.2099 23.9989 27.2499 23.9889 27.3299 23.9889C27.4999 23.9889 27.6599 23.9889 27.8299 23.9889C27.9599 23.9889 27.9599 23.9189 27.9499 23.8389C27.9499 23.7589 27.9899 23.6589 27.8399 23.6589C27.5299 23.6589 27.2099 23.6589 26.8999 23.6589C26.8099 23.6589 26.7799 23.6889 26.7799 23.7789C26.7799 24.0389 26.7799 24.2989 26.7799 24.5589H26.7699ZM28.2599 23.6689C28.2599 23.7389 28.3099 23.7689 28.3399 23.8089C28.5499 24.0889 28.7599 24.3789 28.9899 24.6489C29.0899 24.7689 29.0799 24.8389 28.9799 24.9389C28.8099 25.1189 28.6199 25.2889 28.3999 25.4789C28.5799 25.4789 28.7199 25.4789 28.8599 25.4789C28.9099 25.4789 28.9399 25.4489 28.9699 25.4189C29.3799 25.0489 29.7499 24.6489 30.0199 24.1589C30.1999 23.8289 30.1999 23.8289 29.8399 23.7189C29.7499 23.6889 29.7199 23.7189 29.6899 23.7989C29.6099 23.9989 29.5099 24.1889 29.3999 24.3789C29.3499 24.4589 29.3199 24.4789 29.2499 24.3889C29.0899 24.1789 28.9199 23.9789 28.7499 23.7689C28.6999 23.6989 28.6399 23.6689 28.5499 23.6689C28.4599 23.6689 28.3699 23.6689 28.2599 23.6689ZM29.2599 25.4789C29.4899 25.5989 29.7099 25.7089 29.9299 25.8289C29.9899 25.8589 30.0499 25.8889 30.1099 25.9289C30.1599 25.9589 30.2199 25.9389 30.2399 25.8989C30.2799 25.8389 30.1999 25.8389 30.1699 25.8189C30.0299 25.7289 29.8799 25.6289 29.7299 25.5489C29.6299 25.4989 29.6099 25.4689 29.7199 25.3889C30.1799 25.0489 30.5799 24.6489 30.8799 24.1589C31.0899 23.8289 31.0899 23.8289 30.7199 23.6889C30.6599 23.6689 30.6299 23.6789 30.6099 23.7289C30.3099 24.4189 29.8399 24.9889 29.2499 25.4889L29.2599 25.4789Z" fill="#19B6CC"/>
<path d="M37.3799 18.0089C37.3799 24.2989 32.2799 29.3889 25.9899 29.3789C19.6999 29.3789 14.6199 24.2789 14.6299 17.9989C14.6299 11.7089 19.7299 6.61892 26.0199 6.62892C32.2999 6.62892 37.3899 11.7289 37.3799 18.0089ZM29.5299 16.7089C29.5299 16.8689 29.5099 17.0989 29.4999 17.3289C29.4599 18.1389 29.2799 18.9089 28.8799 19.6289C28.5099 20.2989 27.7299 20.3589 27.2599 19.7489C27.0799 19.5089 26.9599 19.2289 26.9099 18.9289C26.7099 17.7289 26.7399 16.5389 27.0099 15.3489C27.1899 14.5689 27.4699 13.8189 27.8199 13.0989C27.8499 13.0389 27.8999 12.9889 27.8099 12.9289C27.3899 12.6489 26.9899 12.3389 26.5499 12.0789C26.3299 11.9489 26.1099 11.8289 25.8699 11.7789C25.3799 11.6589 24.9999 11.8589 24.7999 12.3189C24.7499 12.4389 24.7099 12.5589 24.6899 12.6889C24.5999 13.2789 24.5199 13.8689 24.4699 14.4589C24.3699 15.5489 24.3499 16.6389 24.5399 17.7189C24.6599 18.4089 24.5999 19.0589 24.2099 19.6489C24.0099 19.9489 23.7899 20.2289 23.5599 20.4989C23.2099 20.8889 22.8399 20.8189 22.6399 20.3389C22.6399 20.3189 22.6299 20.2989 22.6199 20.2789C22.4799 19.8589 22.3799 19.4289 22.3399 18.9889C22.2799 18.2289 22.2999 17.4689 22.3599 16.7089C22.4999 15.1289 22.9099 13.6189 23.6199 12.1989C23.7199 11.9989 23.6699 11.8489 23.4699 11.7489C23.0499 11.5289 22.6299 11.2989 22.1599 11.1789C21.3099 10.9589 20.5899 11.2189 20.0799 11.9389C19.9499 12.1289 19.8299 12.3289 19.7399 12.5389C19.3999 13.3089 19.2599 14.1189 19.2199 14.9589C19.1799 15.6889 19.2299 16.4189 19.3299 17.1489C19.4599 18.0689 19.6499 18.9789 20.0099 19.8389C20.2899 20.5089 20.6399 21.1389 21.1599 21.6589C21.4899 21.9889 21.8699 22.2189 22.3399 22.2589C22.8899 22.3089 23.3599 22.1089 23.7899 21.7989C24.2299 21.4889 24.5799 21.0789 24.9399 20.6889C25.0932 20.5156 25.2432 20.5223 25.3899 20.7089C25.7099 21.1089 26.0199 21.5189 26.4399 21.8289C27.7099 22.7789 29.2899 22.5989 30.3099 21.3889C30.6999 20.9289 30.9799 20.3989 31.2099 19.8389C32.0299 17.8889 32.3699 15.8589 32.2499 13.7489C32.1899 12.6089 31.8599 11.5489 31.4099 10.5189C31.1699 9.97892 30.5899 9.67892 29.9999 9.72892C29.2599 9.79892 28.6599 10.1289 28.1099 10.6089C28.0199 10.6889 27.9999 10.7389 28.0599 10.8489C28.2999 11.2789 28.5599 11.6889 28.7399 12.1589C29.2799 13.6089 29.5199 15.1089 29.4999 16.7289L29.5299 16.7089ZM29.9999 25.4389C30.3299 25.6489 30.6399 25.8489 30.9499 26.0489C31.0199 26.0989 31.0699 26.0889 31.1399 26.0489C31.7899 25.6189 32.3099 25.0489 32.7299 24.3989C32.7799 24.3289 32.7799 24.2889 32.6899 24.2489C32.3699 24.0889 32.0499 23.9289 31.7299 23.7589C31.6499 23.7189 31.6199 23.7289 31.5799 23.8089C31.4299 24.1189 31.2099 24.3889 30.9699 24.6289C30.6699 24.9289 30.3499 25.1989 29.9899 25.4389H29.9999ZM19.9299 24.3489C19.9899 24.3689 19.9899 24.4189 20.0099 24.4489C20.1199 24.6689 20.2399 24.8789 20.3499 25.0989C20.3999 25.1989 20.4399 25.2889 20.5799 25.2889C20.7099 25.2889 20.7499 25.1989 20.7999 25.1089C20.8999 24.8989 21.0099 24.6989 21.1199 24.4989C21.1399 24.4589 21.1499 24.3989 21.2199 24.3689C21.2199 24.6589 21.2199 24.9389 21.2199 25.2289C21.2199 25.4989 21.2499 25.5189 21.5199 25.4889C21.5799 25.4889 21.5899 25.4589 21.5899 25.4089C21.5899 24.8589 21.5899 24.3089 21.5899 23.7589C21.5899 23.7189 21.5899 23.6889 21.5299 23.6789C21.2699 23.6289 21.1599 23.6789 21.0399 23.9189C20.9599 24.0789 20.8799 24.2289 20.7999 24.3889C20.7299 24.5389 20.6499 24.6789 20.5699 24.8389C20.3899 24.4789 20.2199 24.1389 20.0399 23.7989C19.9899 23.6989 19.6599 23.6189 19.5699 23.6889C19.5399 23.7089 19.5499 23.7389 19.5499 23.7689C19.5499 24.3089 19.5499 24.8589 19.5499 25.3989C19.5499 25.4789 19.5799 25.4889 19.6499 25.4889C19.6899 25.4889 19.7299 25.4889 19.7699 25.4889C19.8999 25.5089 19.9399 25.4689 19.9299 25.3289C19.9199 25.0089 19.9299 24.6889 19.9299 24.3589V24.3489ZM23.0699 25.4889C23.6199 25.4889 23.9999 25.1089 23.9999 24.5689C23.9999 24.0289 23.6099 23.6389 23.0599 23.6389C22.5199 23.6389 22.1199 24.0289 22.1199 24.5589C22.1199 25.0989 22.5099 25.4889 23.0699 25.4889ZM24.9199 24.3389C25.1999 24.6889 25.4499 25.0089 25.6999 25.3189C25.7299 25.3589 25.7599 25.3989 25.7999 25.4289C25.8899 25.4989 25.9999 25.4789 26.0999 25.4689C26.1499 25.4689 26.1399 25.4089 26.1399 25.3689C26.1399 24.8289 26.1399 24.2989 26.1399 23.7689C26.1399 23.6789 26.1099 23.6589 26.0299 23.6689C25.9899 23.6689 25.9499 23.6689 25.9099 23.6689C25.7999 23.6489 25.7699 23.6889 25.7699 23.8089C25.7699 24.1289 25.7699 24.4489 25.7699 24.7789C25.7099 24.7589 25.6899 24.7089 25.6599 24.6789C25.4299 24.3889 25.1999 24.0989 24.9699 23.8089C24.9399 23.7789 24.9199 23.7389 24.8799 23.7089C24.7899 23.6389 24.6899 23.6789 24.5999 23.6789C24.5399 23.6789 24.5599 23.7389 24.5599 23.7689C24.5599 24.3089 24.5599 24.8489 24.5599 25.3889C24.5599 25.4689 24.5899 25.4889 24.6699 25.4889C24.7099 25.4889 24.7499 25.4889 24.7899 25.4889C24.8999 25.5089 24.9399 25.4689 24.9399 25.3489C24.9399 25.0289 24.9399 24.7189 24.9399 24.3489L24.9199 24.3389ZM26.7699 24.5589C26.7699 24.8289 26.7699 25.0989 26.7699 25.3689C26.7699 25.4489 26.7899 25.4789 26.8799 25.4789C27.1999 25.4789 27.5199 25.4789 27.8399 25.4789C27.9899 25.4789 27.9499 25.3889 27.9499 25.3089C27.9499 25.2389 27.9899 25.1389 27.8399 25.1489C27.6599 25.1589 27.4899 25.1489 27.3099 25.1489C27.2699 25.1489 27.2099 25.1589 27.2099 25.0989C27.2099 24.9889 27.2099 24.8789 27.2099 24.7789C27.2099 24.7189 27.2599 24.7289 27.2999 24.7289C27.4299 24.7289 27.5499 24.7289 27.6799 24.7289C27.7499 24.7289 27.7699 24.7089 27.7799 24.6389C27.7899 24.4089 27.7999 24.4089 27.5699 24.4089C27.5499 24.4089 27.5299 24.4089 27.5099 24.4089C27.1999 24.4089 27.1999 24.4089 27.2099 24.0989C27.2099 23.9989 27.2499 23.9889 27.3299 23.9889C27.4999 23.9889 27.6599 23.9889 27.8299 23.9889C27.9599 23.9889 27.9599 23.9189 27.9499 23.8389C27.9499 23.7589 27.9899 23.6589 27.8399 23.6589C27.5299 23.6589 27.2099 23.6589 26.8999 23.6589C26.8099 23.6589 26.7799 23.6889 26.7799 23.7789C26.7799 24.0389 26.7799 24.2989 26.7799 24.5589H26.7699ZM28.2599 23.6689C28.2599 23.7389 28.3099 23.7689 28.3399 23.8089C28.5499 24.0889 28.7599 24.3789 28.9899 24.6489C29.0899 24.7689 29.0799 24.8389 28.9799 24.9389C28.8099 25.1189 28.6199 25.2889 28.3999 25.4789C28.5799 25.4789 28.7199 25.4789 28.8599 25.4789C28.9099 25.4789 28.9399 25.4489 28.9699 25.4189C29.3799 25.0489 29.7499 24.6489 30.0199 24.1589C30.1999 23.8289 30.1999 23.8289 29.8399 23.7189C29.7499 23.6889 29.7199 23.7189 29.6899 23.7989C29.6099 23.9989 29.5099 24.1889 29.3999 24.3789C29.3499 24.4589 29.3199 24.4789 29.2499 24.3889C29.0899 24.1789 28.9199 23.9789 28.7499 23.7689C28.6999 23.6989 28.6399 23.6689 28.5499 23.6689C28.4599 23.6689 28.3699 23.6689 28.2599 23.6689ZM29.2599 25.4789C29.4899 25.5989 29.7099 25.7089 29.9299 25.8289C29.9899 25.8589 30.0499 25.8889 30.1099 25.9289C30.1599 25.9589 30.2199 25.9389 30.2399 25.8989C30.2799 25.8389 30.1999 25.8389 30.1699 25.8189C30.0299 25.7289 29.8799 25.6289 29.7299 25.5489C29.6299 25.4989 29.6099 25.4689 29.7199 25.3889C30.1799 25.0489 30.5799 24.6489 30.8799 24.1589C31.0899 23.8289 31.0899 23.8289 30.7199 23.6889C30.6599 23.6689 30.6299 23.6789 30.6099 23.7289C30.3099 24.4189 29.8399 24.9889 29.2499 25.4889L29.2599 25.4789Z" fill="#19B6CC"/>
<path d="M29.5301 16.7105C29.5501 15.0905 29.3101 13.5905 28.7701 12.1405C28.6001 11.6805 28.3301 11.2605 28.0901 10.8305C28.0301 10.7205 28.0501 10.6705 28.1401 10.5905C28.6801 10.1105 29.2901 9.78048 30.0301 9.71048C30.6201 9.66048 31.2001 9.96048 31.4401 10.5005C31.9001 11.5305 32.2201 12.5905 32.2801 13.7305C32.4001 15.8405 32.0601 17.8805 31.2401 19.8205C31.0101 20.3705 30.7301 20.9005 30.3401 21.3705C29.3201 22.5905 27.7401 22.7605 26.4701 21.8105C26.0501 21.5005 25.7401 21.0905 25.4201 20.6905C25.2735 20.5105 25.1235 20.5038 24.9701 20.6705C24.6101 21.0705 24.2601 21.4705 23.8201 21.7805C23.3801 22.0905 22.9201 22.2905 22.3701 22.2405C21.9001 22.1905 21.5101 21.9605 21.1901 21.6405C20.6701 21.1205 20.3201 20.4905 20.0401 19.8205C19.6701 18.9605 19.4801 18.0505 19.3601 17.1305C19.2601 16.4005 19.2101 15.6805 19.2501 14.9405C19.2901 14.1105 19.4401 13.2905 19.7701 12.5205C19.8601 12.3105 19.9701 12.1105 20.1101 11.9205C20.6201 11.2105 21.3401 10.9505 22.1901 11.1605C22.6601 11.2805 23.0701 11.5105 23.5001 11.7305C23.7001 11.8305 23.7501 11.9805 23.6501 12.1805C22.9401 13.6005 22.5301 15.1105 22.3901 16.6905C22.3201 17.4505 22.3001 18.2105 22.3701 18.9705C22.4101 19.4105 22.5101 19.8405 22.6501 20.2605C22.6501 20.2805 22.6601 20.3005 22.6701 20.3205C22.8701 20.8005 23.2401 20.8705 23.5901 20.4805C23.8301 20.2105 24.0501 19.9305 24.2401 19.6305C24.6301 19.0305 24.7001 18.3905 24.5701 17.7005C24.3801 16.6205 24.4001 15.5305 24.5001 14.4405C24.5501 13.8505 24.6201 13.2605 24.7201 12.6705C24.7401 12.5405 24.7801 12.4205 24.8301 12.3005C25.0301 11.8305 25.4101 11.6405 25.9001 11.7605C26.1501 11.8205 26.3701 11.9405 26.5801 12.0605C27.0201 12.3105 27.4201 12.6305 27.8401 12.9105C27.9301 12.9705 27.8801 13.0205 27.8501 13.0805C27.5001 13.8005 27.2201 14.5505 27.0401 15.3305C26.7701 16.5205 26.7401 17.7105 26.9401 18.9105C26.9901 19.2105 27.1101 19.4905 27.2901 19.7305C27.7501 20.3405 28.5401 20.2805 28.9101 19.6105C29.3001 18.8905 29.4901 18.1205 29.5301 17.3105C29.5401 17.0805 29.5501 16.8505 29.5601 16.6905L29.5301 16.7105Z" fill="#FDFEFE"/>
<path d="M30 25.4294C30.36 25.1894 30.68 24.9194 30.98 24.6194C31.22 24.3794 31.44 24.1094 31.59 23.7994C31.63 23.7194 31.66 23.7094 31.74 23.7494C32.06 23.9194 32.37 24.0794 32.7 24.2394C32.79 24.2794 32.79 24.3194 32.74 24.3894C32.31 25.0394 31.8 25.5994 31.15 26.0394C31.08 26.0894 31.03 26.0894 30.96 26.0394C30.65 25.8294 30.33 25.6394 30.01 25.4294H30Z" fill="#EFBE2F"/>
<path d="M19.9298 24.3401C19.9298 24.6701 19.9298 24.9901 19.9298 25.3101C19.9298 25.4401 19.8898 25.4901 19.7698 25.4701C19.7298 25.4701 19.6898 25.4701 19.6498 25.4701C19.5798 25.4701 19.5498 25.4601 19.5498 25.3801C19.5498 24.8401 19.5498 24.2901 19.5498 23.7501C19.5498 23.7201 19.5498 23.6901 19.5698 23.6701C19.6598 23.6001 19.9898 23.6801 20.0398 23.7801C20.2098 24.1201 20.3898 24.4601 20.5698 24.8201C20.6498 24.6601 20.7198 24.5101 20.7998 24.3701C20.8798 24.2101 20.9598 24.0601 21.0398 23.9001C21.1598 23.6601 21.2698 23.6101 21.5298 23.6601C21.5798 23.6701 21.5898 23.7001 21.5898 23.7401C21.5898 24.2901 21.5898 24.8401 21.5898 25.3901C21.5898 25.4401 21.5798 25.4701 21.5198 25.4701C21.2498 25.5101 21.2198 25.4901 21.2198 25.2101C21.2198 24.9301 21.2198 24.6401 21.2198 24.3501C21.1398 24.3701 21.1398 24.4301 21.1198 24.4801C21.0098 24.6801 20.9098 24.8901 20.7998 25.0901C20.7498 25.1801 20.7098 25.2701 20.5798 25.2701C20.4398 25.2701 20.3998 25.1801 20.3498 25.0801C20.2398 24.8601 20.1298 24.6401 20.0098 24.4301C19.9898 24.4001 19.9898 24.3501 19.9298 24.3301V24.3401Z" fill="#EFBE2F"/>
<path d="M23.0701 25.4906C22.5201 25.4906 22.1201 25.1006 22.1201 24.5606C22.1201 24.0306 22.5201 23.6406 23.0601 23.6406C23.6101 23.6406 24.0001 24.0306 24.0001 24.5706C24.0001 25.1106 23.6101 25.4906 23.0701 25.4906ZM22.5601 24.5706C22.5601 24.5706 22.5601 24.6506 22.5601 24.6806C22.6001 24.9806 22.7801 25.1406 23.0701 25.1406C23.3601 25.1406 23.5301 24.9706 23.5701 24.6706C23.5701 24.5906 23.5701 24.5006 23.5701 24.4206C23.5201 24.0606 23.1601 23.8806 22.8401 24.0406C22.6201 24.1506 22.5701 24.3506 22.5701 24.5606L22.5601 24.5706Z" fill="#EFBE2F"/>
<path d="M24.9199 24.3299C24.9199 24.6899 24.9199 25.0099 24.9199 25.3299C24.9199 25.4499 24.8799 25.4899 24.7699 25.4699C24.7299 25.4699 24.6899 25.4699 24.6499 25.4699C24.5799 25.4699 24.5399 25.4599 24.5399 25.3699C24.5399 24.8299 24.5399 24.2899 24.5399 23.7499C24.5399 23.7099 24.5299 23.6599 24.5799 23.6599C24.6799 23.6599 24.7799 23.6299 24.8599 23.6899C24.8899 23.7199 24.9199 23.7499 24.9499 23.7899C25.1799 24.0799 25.4099 24.3699 25.6399 24.6599C25.6699 24.6999 25.6799 24.7499 25.7499 24.7599C25.7499 24.4299 25.7499 24.1099 25.7499 23.7899C25.7499 23.6799 25.7799 23.6399 25.8899 23.6499C25.9299 23.6499 25.9699 23.6499 26.0099 23.6499C26.0899 23.6499 26.1199 23.6699 26.1199 23.7499C26.1199 24.2799 26.1199 24.8199 26.1199 25.3499C26.1199 25.3899 26.1399 25.4399 26.0799 25.4499C25.9799 25.4499 25.8699 25.4799 25.7799 25.4099C25.7399 25.3799 25.7099 25.3399 25.6799 25.2999C25.4299 24.9899 25.1799 24.6699 24.8999 24.3199L24.9199 24.3299Z" fill="#EFBE2F"/>
<path d="M26.7703 24.5504C26.7703 24.2904 26.7703 24.0304 26.7703 23.7704C26.7703 23.6804 26.7903 23.6504 26.8903 23.6504C27.2003 23.6504 27.5203 23.6504 27.8303 23.6504C27.9903 23.6504 27.9403 23.7504 27.9403 23.8304C27.9403 23.9204 27.9503 23.9904 27.8203 23.9804C27.6503 23.9704 27.4903 23.9804 27.3203 23.9804C27.2403 23.9804 27.2003 23.9904 27.2003 24.0904C27.2003 24.4004 27.2003 24.4004 27.5003 24.4004C27.5203 24.4004 27.5403 24.4004 27.5603 24.4004C27.7903 24.4004 27.7803 24.4004 27.7703 24.6304C27.7703 24.7004 27.7403 24.7204 27.6703 24.7204C27.5403 24.7204 27.4203 24.7204 27.2903 24.7204C27.2503 24.7204 27.2003 24.7204 27.2003 24.7704C27.2003 24.8804 27.2003 24.9904 27.2003 25.0904C27.2003 25.1604 27.2603 25.1404 27.3003 25.1404C27.4803 25.1404 27.6503 25.1404 27.8303 25.1404C27.9803 25.1404 27.9403 25.2304 27.9403 25.3004C27.9403 25.3704 27.9803 25.4704 27.8303 25.4704C27.5103 25.4704 27.1903 25.4704 26.8703 25.4704C26.7803 25.4704 26.7603 25.4404 26.7603 25.3604C26.7603 25.0904 26.7603 24.8204 26.7603 24.5504H26.7703Z" fill="#EFBE2F"/>
<path d="M28.2603 23.6602C28.3603 23.6602 28.4603 23.6602 28.5503 23.6602C28.6403 23.6602 28.7003 23.6902 28.7503 23.7602C28.9103 23.9702 29.0903 24.1702 29.2503 24.3802C29.3203 24.4702 29.3503 24.4502 29.4003 24.3702C29.5103 24.1902 29.6203 24.0002 29.6903 23.7902C29.7203 23.7102 29.7503 23.6902 29.8403 23.7102C30.2003 23.8202 30.2003 23.8202 30.0203 24.1502C29.7503 24.6402 29.3803 25.0402 28.9703 25.4102C28.9403 25.4402 28.9003 25.4702 28.8603 25.4702C28.7203 25.4702 28.5803 25.4702 28.4003 25.4702C28.6203 25.2802 28.8103 25.1102 28.9803 24.9302C29.0803 24.8302 29.0903 24.7602 28.9903 24.6402C28.7603 24.3702 28.5503 24.0802 28.3403 23.8002C28.3103 23.7602 28.2703 23.7302 28.2603 23.6602Z" fill="#EFBE2F"/>
<path d="M29.2603 25.4707C29.8503 24.9707 30.3203 24.4107 30.6203 23.7107C30.6503 23.6507 30.6703 23.6407 30.7303 23.6707C31.1003 23.8107 31.1003 23.8007 30.8903 24.1407C30.5803 24.6307 30.1903 25.0307 29.7303 25.3707C29.6203 25.4507 29.6403 25.4807 29.7403 25.5307C29.8903 25.6107 30.0303 25.7107 30.1803 25.8007C30.2103 25.8207 30.2803 25.8207 30.2503 25.8807C30.2303 25.9207 30.1703 25.9407 30.1203 25.9107C30.0603 25.8807 30.0003 25.8507 29.9403 25.8107C29.7203 25.7007 29.5103 25.5807 29.2703 25.4607L29.2603 25.4707Z" fill="#EFBE2F"/>
<path d="M22.55 24.5592C22.55 24.3492 22.61 24.1492 22.82 24.0392C23.14 23.8792 23.5 24.0592 23.55 24.4192C23.56 24.4992 23.57 24.5892 23.55 24.6692C23.51 24.9692 23.34 25.1392 23.05 25.1392C22.76 25.1392 22.58 24.9792 22.54 24.6792C22.54 24.6492 22.54 24.6092 22.54 24.5692L22.55 24.5592Z" fill="#19B6CC"/>
</svg>
