<svg width="52" height="36" viewBox="0 0 52 36" fill="none" xmlns="http://www.w3.org/2000/svg">
<g clip-path="url(#clip0_2280_3839)">
<rect width="52" height="36" rx="4" fill="white"/>
<path d="M47.3198 0.550781H4.6798C2.53694 0.550781 0.799805 2.28792 0.799805 4.43078V31.5608C0.799805 33.7036 2.53694 35.4408 4.6798 35.4408H47.3198C49.4627 35.4408 51.1998 33.7036 51.1998 31.5608V4.43078C51.1998 2.28792 49.4627 0.550781 47.3198 0.550781Z" fill="white"/>
<path d="M14.31 21.0799V19.0999H15.16C16.74 19.0999 17.7 18.2199 17.7 16.8899C17.7 15.6399 16.74 14.9199 15.35 14.9199H13.29V21.0699H14.32L14.31 21.0799ZM15.3 15.8399C16.11 15.8399 16.67 16.2199 16.67 17.0099C16.67 17.7399 16.06 18.1799 15.25 18.1799H14.31V15.8399H15.3ZM31.93 18.9299C31.93 17.6599 30.97 16.6999 29.7 16.6999C28.47 16.6999 27.48 17.6899 27.48 18.9199V18.9499C27.48 20.2299 28.4 21.1699 29.7 21.1699C30.92 21.1899 31.92 20.2199 31.93 18.9999V18.9299ZM28.44 18.9299C28.44 18.1999 28.98 17.6099 29.69 17.6299C30.48 17.6499 30.97 18.1999 30.95 18.9299C30.93 19.6599 30.4 20.2299 29.69 20.2299C28.98 20.2299 28.43 19.6599 28.43 18.9299H28.44ZM41.58 19.1899C41.6 19.0399 41.61 18.8899 41.61 18.7399C41.61 17.5399 40.7 16.6999 39.53 16.6999C38.32 16.6899 37.33 17.6499 37.31 18.8599V18.9099C37.31 20.2199 38.18 21.1599 39.5 21.1599C40.39 21.1599 41.13 20.7399 41.44 20.1499L40.68 19.7299C40.48 20.0599 40.05 20.2899 39.56 20.2899C38.88 20.2899 38.41 19.8799 38.31 19.1799H41.58V19.1899ZM38.36 18.4499C38.49 17.8799 38.91 17.5399 39.5 17.5399C40.09 17.5399 40.55 17.9199 40.6 18.4499H38.37H38.36ZM26.4 16.7799L25.21 19.8499L24.15 16.7799H23.04L24.63 21.0799L23.97 22.5899H25.02L27.45 16.7799H26.4ZM49.68 16.7999C49.54 16.7599 49.4 16.7399 49.26 16.7399C48.84 16.7399 48.36 16.9799 48.16 17.3899V16.7799H47.19V21.0799H48.16V18.7899C48.16 17.9899 48.69 17.6599 49.24 17.6599C49.38 17.6599 49.53 17.6699 49.67 17.7099V16.7999H49.68ZM46.48 19.1899C46.5 19.0399 46.51 18.8899 46.51 18.7399C46.51 17.5399 45.6 16.6999 44.43 16.6999C43.22 16.6899 42.23 17.6499 42.21 18.8599V18.9099C42.21 20.2199 43.08 21.1599 44.4 21.1599C45.28 21.1599 46.03 20.7399 46.34 20.1499L45.58 19.7299C45.38 20.0599 44.95 20.2899 44.46 20.2899C43.78 20.2899 43.31 19.8799 43.21 19.1799H46.48V19.1899ZM43.26 18.4499C43.39 17.8799 43.81 17.5399 44.4 17.5399C44.99 17.5399 45.45 17.9199 45.5 18.4499H43.27H43.26ZM21.5 18.9199C21.52 19.6599 20.94 20.2699 20.2 20.2899H20.14C19.39 20.2899 18.89 19.6999 18.89 18.9199C18.89 18.1799 19.49 17.5799 20.24 17.5699C21 17.5699 21.51 18.1599 21.51 18.9199H21.5ZM36.65 18.6299C36.65 17.4299 36.06 16.6999 34.97 16.6999C34.39 16.6999 33.86 16.9499 33.57 17.3399V16.7799H32.59V21.0799H33.57V18.7499C33.57 18.0299 34.09 17.5699 34.71 17.5699C35.33 17.5699 35.66 17.9899 35.66 18.7099V21.0899H36.65V18.6299ZM21.5 16.7799V17.3399C21.22 16.9599 20.76 16.6999 20.07 16.6999C18.88 16.6999 17.89 17.7499 17.89 18.9899C17.89 20.2299 18.74 21.1699 19.89 21.1699C20.63 21.1699 21.19 20.8999 21.5 20.4699V21.0899H22.46V16.7799H21.5Z" fill="#252526"/>
</g>
<rect x="0.5" y="0.5" width="51" height="35" rx="3.5" stroke="#EAEAEA"/>
<defs>
<clipPath id="clip0_2280_3839">
<rect width="52" height="36" rx="4" fill="white"/>
</clipPath>
</defs>
</svg>
