<svg width="52" height="36" viewBox="0 0 52 36" fill="none" xmlns="http://www.w3.org/2000/svg">
<rect x="0.5" y="0.5" width="51" height="35" rx="3.5" fill="white"/>
<rect x="0.5" y="0.5" width="51" height="35" rx="3.5" stroke="#EAEAEA"/>
<mask id="mask0_2280_3970" style="mask-type:luminance" maskUnits="userSpaceOnUse" x="1" y="11" width="50" height="14">
<path d="M50.1101 11.1895H1.89014V24.8095H50.1101V11.1895Z" fill="white"/>
</mask>
<g mask="url(#mask0_2280_3970)">
<path d="M1.89014 24.8097H50.1101V11.1797H1.89014V24.8097Z" fill="#FAD005"/>
<path d="M41.94 21.6988L42.41 19.4688H3.94998L3.47998 21.6988H41.94Z" fill="white"/>
<path d="M46.57 16.4193C46.57 16.4193 47.09 14.0593 47.09 14.0293H43.81C43.81 14.0293 43.13 17.1693 43.13 17.1793H43.97L44.49 14.8193H46.08C46.08 14.8193 45.58 17.1793 45.56 17.1993H47.98L47.66 18.6593H45.25L44.76 20.8793H42.94C42.94 20.8793 42.78 21.6793 42.77 21.6793H45.45L45.93 19.4493H48.34C48.34 19.4493 48.97 16.4193 48.97 16.4093H46.55" fill="#EB1C24"/>
<path d="M40.6402 17.1196C40.9902 17.1196 41.2202 17.3596 41.2202 17.7496C41.2202 17.8196 41.2202 17.8796 41.2102 17.9396H39.7102C39.8602 17.4496 40.2002 17.1196 40.6402 17.1196ZM41.3802 20.0496L41.5702 19.1696C41.2502 19.2796 40.9302 19.3696 40.5202 19.3696C40.0502 19.3696 39.6402 19.2096 39.6102 18.6396H42.0402C42.1302 18.3496 42.1802 18.0696 42.1802 17.7996C42.1802 16.9896 41.7102 16.3296 40.7002 16.3296C39.3902 16.3296 38.5902 17.4096 38.5902 18.5896C38.5902 19.6096 39.2702 20.1996 40.3202 20.1996C40.7502 20.1996 41.0902 20.1296 41.3702 20.0496H41.3802ZM37.3802 19.3096C36.9002 19.3096 36.5802 19.0996 36.5802 18.5096C36.5802 17.8096 37.0202 17.2296 37.7202 17.2296C37.9402 17.2296 38.1902 17.2996 38.4402 17.3896L38.6202 16.5496C38.3302 16.4496 37.9902 16.3696 37.6602 16.3696C36.5002 16.3696 35.5202 17.2296 35.5202 18.5596C35.5202 19.6496 36.1902 20.1696 37.1602 20.1696C37.4802 20.1696 37.7602 20.1096 37.9602 20.0296L38.1502 19.1696C37.9302 19.2496 37.6902 19.3196 37.4002 19.3196L37.3802 19.3096ZM32.2902 20.0996L32.7002 18.2396C32.8602 17.4896 33.2302 17.2296 33.6102 17.2296C34.1002 17.2296 34.1602 17.5996 34.0702 18.0196L33.6302 20.0996H34.6802L35.1402 17.9596C35.3702 16.8896 34.8802 16.3296 34.1002 16.3296C33.6702 16.3296 33.2602 16.4996 32.9102 16.8796L33.0102 16.4496H32.0302L31.2402 20.0996H32.2902ZM28.5002 19.0496C28.5002 18.6796 28.8202 18.4796 29.3602 18.4796C29.4602 18.4796 29.6902 18.4796 29.9002 18.5196L29.8602 18.7296C29.7302 19.1596 29.3802 19.4596 28.9602 19.4596C28.6602 19.4596 28.5002 19.3096 28.5002 19.0596V19.0496ZM29.5202 16.3596C29.0302 16.3596 28.5402 16.4696 28.3802 16.5196L28.2002 17.3696C28.4402 17.2996 28.9002 17.1796 29.3102 17.1796C29.8602 17.1796 30.0602 17.3496 30.0602 17.6396C30.0602 17.6896 30.0602 17.7496 30.0502 17.8096V17.8796C29.7702 17.8496 29.5202 17.8296 29.4002 17.8296C28.3502 17.8296 27.5202 18.2296 27.5202 19.1896C27.5202 19.8196 28.0102 20.1896 28.6402 20.1896C29.0902 20.1896 29.4702 20.0096 29.7202 19.7196L29.6402 20.0996H30.5802L31.0402 18.0096C31.0802 17.8596 31.0902 17.6896 31.0902 17.5396C31.0902 16.9096 30.7402 16.3596 29.5302 16.3596H29.5202ZM24.4202 20.0996L24.8202 18.2396C24.9802 17.4896 25.3502 17.2296 25.7302 17.2296C26.2202 17.2296 26.2802 17.5996 26.1902 18.0196L25.7502 20.0996H26.8002L27.2602 17.9596C27.4902 16.8896 27.0002 16.3296 26.2202 16.3296C25.7902 16.3296 25.3802 16.4996 25.0302 16.8796L25.1302 16.4496H24.1502L23.3602 20.0996H24.4102H24.4202ZM22.5302 15.4396C22.5102 15.7696 22.7502 16.0296 23.0702 16.0296C23.4302 16.0296 23.6902 15.7696 23.7102 15.4396C23.7302 15.1096 23.4902 14.8496 23.1702 14.8496C22.8102 14.8496 22.5502 15.1096 22.5302 15.4396ZM22.3802 16.4496L21.5902 20.0996H22.6402L23.4302 16.4496H22.3802ZM19.4002 20.0996L19.8102 18.1896H21.4002L21.5902 17.2496H20.0102L20.2502 16.0796H21.9202L22.1302 15.1396H19.3702L18.3202 20.0896H19.3902L19.4002 20.0996ZM18.3602 17.2496L18.5302 16.4496H17.4002L17.6202 15.4296L16.5202 15.6696L15.8402 18.7896C15.6502 19.6696 16.1302 20.1596 17.0202 20.1596C17.2002 20.1596 17.5102 20.1196 17.7302 20.0496L17.9102 19.2496C17.7302 19.2896 17.5102 19.3396 17.3202 19.3396C17.0202 19.3396 16.8002 19.2396 16.8802 18.8696L17.2302 17.2496H18.3602ZM14.3702 19.0196C14.3702 19.3096 14.0102 19.3696 13.7102 19.3696C13.3302 19.3696 12.9002 19.2696 12.6702 19.1896L12.4902 20.0096C12.8202 20.0896 13.2402 20.1596 13.6402 20.1596C14.5802 20.1596 15.3502 19.8096 15.3502 18.9196C15.3502 17.7796 13.9802 17.9796 13.9802 17.4696C13.9802 17.2396 14.2002 17.1596 14.5502 17.1596C14.9002 17.1596 15.3502 17.2896 15.5002 17.3396L15.6802 16.5096C15.3602 16.4196 14.9902 16.3696 14.6502 16.3696C13.6302 16.3696 13.0102 16.8296 13.0102 17.5896C13.0102 18.6996 14.3802 18.5196 14.3802 19.0296L14.3702 19.0196ZM10.4102 20.2096C11.5702 20.2096 12.3502 19.3696 12.5202 18.2696C12.7002 17.1696 12.0902 16.3296 10.9402 16.3296C9.79018 16.3296 9.00018 17.1696 8.83018 18.2696C8.65018 19.3696 9.26018 20.2096 10.4102 20.2096ZM10.5102 19.3596C10.0902 19.3596 9.76018 19.0296 9.91018 18.2696C10.0602 17.5096 10.4302 17.1796 10.8502 17.1796C11.2702 17.1796 11.6002 17.5196 11.4402 18.2696C11.2902 19.0196 10.9202 19.3596 10.5002 19.3596H10.5102ZM6.07018 18.5896H6.53018C8.01018 18.5896 8.84018 17.8596 8.84018 16.6496C8.84018 15.7396 8.20018 15.1496 7.10018 15.1496H5.73018L4.68018 20.0996H5.74018L6.06018 18.5896H6.07018ZM6.25018 17.6796L6.60018 16.0496H7.04018C7.53018 16.0496 7.76018 16.2496 7.76018 16.7096C7.76018 17.3096 7.38018 17.6696 6.69018 17.6696H6.25018" fill="#231F20"/>
</g>
</svg>
