<svg width="52" height="36" viewBox="0 0 52 36" fill="none" xmlns="http://www.w3.org/2000/svg">
<rect x="0.5" y="0.5" width="51" height="35" rx="3.5" fill="white"/>
<rect x="0.5" y="0.5" width="51" height="35" rx="3.5" stroke="#EAEAEA"/>
<path d="M14.0698 6.45898H37.9498V29.599H14.0698V6.45898Z" fill="white"/>
<path d="M13.9399 6.28906H38.0599V29.7091H13.9399V6.28906Z" fill="#008061"/>
<path d="M28.81 28.1684V29.1084H23.03V28.1684H18.65C18.22 28.1684 17.87 27.7184 17.87 27.1684L16.04 8.64844C16.04 8.09844 16.47 7.64844 17 7.64844H34.68C35.2 7.64844 35.63 8.09844 35.63 8.64844L33.82 27.1684C33.82 27.7184 33.47 28.1684 33.04 28.1684H28.8H28.81Z" fill="white"/>
<path d="M19.27 10.3691H31.11C29.94 10.8091 26.4 13.2091 25.51 14.8191H19.28V10.3691H19.27Z" fill="#F5821F"/>
<path d="M28.7001 23.1289C28.5301 24.7389 28.5201 26.7089 28.5201 28.7689H23.3901C23.3901 26.7089 23.4801 24.7389 23.6501 23.1289H28.7001Z" fill="#ED1B2D"/>
<path d="M20.7601 20.7997V21.4297H19.9401V22.0497H20.7601V22.7697H18.8901V19.4297H20.7601V20.1697H19.9401V20.7997H20.7601Z" fill="#008061"/>
<path d="M25.12 20.7997V21.4297H24.31V22.0497H25.12V22.7697H23.25V19.4297H25.12V20.1697H24.31V20.7997H25.12Z" fill="#008061"/>
<path d="M29.9301 20.7997V21.4297H29.1101V22.0497H29.9301V22.7697H28.0601V19.4297H29.9301V20.1697H29.1101V20.7997H29.9301Z" fill="#008061"/>
<path d="M22.1699 19.4297V22.0497H22.9899V22.7697H21.1099V19.4297H22.1699Z" fill="#008061"/>
<path d="M26.6398 21.6897L26.2398 19.4297H25.3198L25.8398 22.7697H27.1998L27.8298 19.4297H27.0498L26.6398 21.6897Z" fill="#008061"/>
<path d="M30.3799 19.4297H31.3899V22.7697H30.3799V19.4297Z" fill="#008061"/>
<path d="M31.3901 20.4193C31.4501 20.0493 31.9601 20.1493 31.9601 20.3593V22.7593H32.9801V19.9293C32.9801 19.3293 32.1401 19.0893 31.4001 19.6193V20.4093L31.3901 20.4193Z" fill="#008061"/>
<path d="M29.1801 18.9589C29.2801 17.6789 31.0301 15.5989 32.7301 15.0489V10.1289C28.0701 12.2089 25.0401 15.3689 24.3901 18.9489H29.1901V18.9589H29.1801Z" fill="#ED1B2D"/>
</svg>
