<svg width="52" height="36" viewBox="0 0 52 36" fill="none" xmlns="http://www.w3.org/2000/svg">
<rect x="0.5" y="0.5" width="51" height="35" rx="3.5" fill="white"/>
<rect x="0.5" y="0.5" width="51" height="35" rx="3.5" stroke="#EAEAEA"/>
<path d="M3.87012 9.51984C3.87012 8.03984 5.06012 6.83984 6.53012 6.83984H45.4701C46.9301 6.83984 48.1301 8.03984 48.1301 9.51984V26.4598C48.1301 27.9398 46.9401 29.1398 45.4701 29.1398H6.53012C5.06012 29.1398 3.87012 27.9398 3.87012 26.4598V9.51984Z" fill="white"/>
<path d="M3.8999 9.24906C3.8999 7.88906 4.9999 6.78906 6.3399 6.78906H45.6799C47.0299 6.78906 48.1199 7.88906 48.1199 9.24906V9.32906H3.8999V9.24906Z" fill="#F7AF18"/>
<path d="M48.1299 26.6895V26.7495C48.1299 28.1095 47.0399 29.2095 45.6899 29.2095H6.3399C4.9899 29.2095 3.8999 28.1095 3.8999 26.7495V26.6895H48.1299Z" fill="#F7AF18"/>
<path d="M34.5102 17.9685C34.5102 21.4085 37.2702 24.1985 40.6902 24.1985C44.1102 24.1985 46.8702 21.4085 46.8702 17.9685C46.8702 14.5285 44.1002 11.7385 40.6902 11.7385C37.2802 11.7385 34.5102 14.5285 34.5102 17.9685ZM5.06016 17.9685C5.06016 21.4085 7.83016 24.1985 11.2402 24.1985C14.6502 24.1985 17.4202 21.4085 17.4202 17.9685C17.4202 14.5285 14.6502 11.7385 11.2402 11.7385C7.83016 11.7385 5.06016 14.5285 5.06016 17.9685ZM48.1302 25.4985H17.6602C18.2102 25.1085 18.7202 24.5785 19.2802 23.8585L22.3802 19.8585L23.7402 21.5885L25.2502 19.5685L23.9302 17.8685L27.0902 13.7985C28.0902 12.5085 26.1702 10.9885 25.1702 12.2885L22.3802 15.8785L19.5402 12.2285C18.5302 10.9385 16.6202 12.4585 17.6202 13.7485L20.8302 17.8585L17.3602 22.3285C16.1302 23.9185 14.9002 25.3785 12.4502 25.4785H3.91016V10.4785H34.2102C33.6902 10.8585 33.2002 11.3785 32.6602 12.0685L29.5602 16.0685L28.2002 14.3385L26.6902 16.3585L28.0102 18.0585L24.8502 22.1285C23.8502 23.4185 25.7702 24.9385 26.7702 23.6385L29.5602 20.0485L32.4002 23.6985C33.4102 24.9885 35.3202 23.4685 34.3202 22.1785L31.1102 18.0685L34.5802 13.6085C35.7102 12.1485 36.8502 10.7985 38.9102 10.5085H48.1202V25.4985H48.1302ZM36.9902 17.9685C36.9902 15.9085 38.6502 14.2285 40.6902 14.2285C42.7302 14.2285 44.3902 15.8985 44.3902 17.9685C44.3902 20.0385 42.7302 21.6985 40.6902 21.6985C38.6402 21.6985 36.9902 20.0285 36.9902 17.9685ZM7.54016 17.9685C7.54016 15.9085 9.20016 14.2285 11.2402 14.2285C13.2802 14.2285 14.9402 15.8985 14.9402 17.9685C14.9402 20.0385 13.2802 21.6985 11.2402 21.6985C9.19016 21.6985 7.54016 20.0285 7.54016 17.9685Z" fill="#E51E26"/>
</svg>
