<svg width="52" height="36" viewBox="0 0 52 36" fill="none" xmlns="http://www.w3.org/2000/svg">
<rect x="0.5" y="0.5" width="51" height="35" rx="3.5" fill="white"/>
<rect x="0.5" y="0.5" width="51" height="35" rx="3.5" stroke="#EAEAEA"/>
<path d="M7.38992 22.2292C9.57992 22.2292 11.1099 20.5392 11.1099 18.3392C11.1099 16.1392 9.57992 14.4492 7.38992 14.4492C5.19992 14.4492 3.66992 16.1392 3.66992 18.3392C3.66992 20.5392 5.19992 22.2292 7.38992 22.2292Z" fill="#20CA6D"/>
<path d="M18.5601 17.5292C18.5601 15.7892 17.4401 14.4492 15.8201 14.4492C15.0401 14.4492 14.4001 14.7292 13.9401 15.2192V14.9792C13.9401 14.7192 13.7901 14.5792 13.5301 14.5792H12.5501C12.2901 14.5792 12.1401 14.7192 12.1401 14.9792V22.8292C12.1401 23.0892 12.2901 23.2392 12.5501 23.2392H13.5301C13.7901 23.2392 13.9401 23.0892 13.9401 22.8292V19.8392C14.4001 20.3292 15.0401 20.6692 15.8201 20.6692C17.4401 20.6692 18.5601 19.2692 18.5601 17.5292ZM16.7801 17.5292C16.7801 18.3792 16.1601 19.0192 15.3601 19.0192C14.5601 19.0192 13.9401 18.3792 13.9401 17.5292C13.9401 16.6792 14.5701 16.0392 15.3601 16.0392C16.1501 16.0392 16.7801 16.6892 16.7801 17.5292Z" fill="black"/>
<path d="M18.8901 17.5292C18.8901 19.2692 20.0301 20.6692 21.6601 20.6692C22.4401 20.6692 23.0801 20.3292 23.5401 19.8392V20.0792C23.5401 20.3392 23.6901 20.5392 23.9501 20.5392H24.9001C25.1601 20.5392 25.3101 20.3492 25.3101 20.0792V14.9792C25.3101 14.7192 25.1601 14.5792 24.9001 14.5792H23.9501C23.6901 14.5792 23.5401 14.7192 23.5401 14.9792V15.2192C23.0801 14.7292 22.4401 14.4492 21.6601 14.4492C20.0301 14.4492 18.8901 15.7992 18.8901 17.5292ZM20.7001 17.5292C20.7001 16.6892 21.3201 16.0392 22.1101 16.0392C22.9001 16.0392 23.5401 16.6892 23.5401 17.5292C23.5401 18.3692 22.9101 19.0192 22.1101 19.0192C21.3101 19.0192 20.7001 18.3792 20.7001 17.5292Z" fill="black"/>
<path d="M27.0899 23.2401H28.1499C28.3799 23.2401 28.5399 23.2401 28.6199 22.9101L31.3799 15.0401C31.3999 14.9701 31.4099 14.9201 31.4099 14.8601C31.4099 14.6801 31.2899 14.5801 31.0599 14.5801H30.0099C29.7699 14.5801 29.6199 14.6801 29.5499 14.9101L28.5399 18.1601L27.5499 14.9101C27.4799 14.6801 27.3299 14.5801 27.0899 14.5801H26.0399C25.7999 14.5801 25.6699 14.6801 25.6699 14.8701C25.6699 14.9301 25.6799 14.9801 25.7099 15.0501L27.6599 20.5401L26.7799 22.7701C26.6699 23.0601 26.7899 23.2501 27.0999 23.2501L27.0899 23.2401Z" fill="black"/>
<path d="M35.26 14.4495C34.59 14.4495 33.99 14.7095 33.58 15.1995V14.9895C33.58 14.7295 33.43 14.5895 33.17 14.5895H32.16C31.9 14.5895 31.75 14.7295 31.75 14.9895V20.0895C31.75 20.3495 31.9 20.5495 32.16 20.5495H33.17C33.43 20.5495 33.58 20.3595 33.58 20.0895V17.2995C33.58 16.4895 34.11 16.0495 34.71 16.0495C35.24 16.0495 35.67 16.5395 35.67 17.0695V20.0795C35.67 20.3395 35.82 20.5395 36.08 20.5395H37.09C37.35 20.5395 37.5 20.3495 37.5 20.0795V16.7695C37.5 15.3695 36.56 14.4395 35.26 14.4395V14.4495Z" fill="black"/>
<path d="M47.0298 18.35V16.16H47.8998C48.1598 16.16 48.3198 16.01 48.3198 15.75V14.98C48.3198 14.72 48.1598 14.58 47.8998 14.58H47.0298V13.13C47.0298 12.9 46.8898 12.75 46.6698 12.75C46.6398 12.75 46.6098 12.75 46.5798 12.75L45.5598 12.9C45.3098 12.94 45.1798 13.09 45.1798 13.34V14.57H44.6998C44.4398 14.57 44.2598 14.71 44.2598 14.97V15.74C44.2598 16 44.4398 16.15 44.6998 16.15H45.1798V18.53C45.1798 19.86 45.9598 20.66 47.2198 20.66C47.5298 20.66 47.8298 20.61 48.0798 20.52C48.2998 20.45 48.3298 20.24 48.3298 20.01V19.42C48.3298 19.15 48.2398 19.01 47.9598 19.03H47.7798C47.2398 19.03 47.0298 18.81 47.0298 18.34V18.35Z" fill="black"/>
<path d="M39.7198 18.0395H43.8098C44.0598 18.0395 44.2298 17.9195 44.2498 17.6695C44.2598 17.5895 44.2698 17.4995 44.2698 17.4295C44.2698 15.7695 42.9398 14.4395 41.1198 14.4395C39.2998 14.4395 37.8398 15.7895 37.8398 17.5195C37.8398 19.2495 39.2398 20.6595 41.2898 20.6595C42.3398 20.6595 43.1498 20.2395 43.7598 19.6695C43.9498 19.4895 43.9398 19.2795 43.7698 19.0895L43.5198 18.8195C43.3498 18.6295 43.1598 18.6195 42.9398 18.7695C42.4798 19.0895 41.9398 19.2395 41.2998 19.2395C40.4198 19.2395 39.8398 18.7795 39.6998 18.0295L39.7198 18.0395ZM41.0998 15.8195C41.7798 15.8195 42.2798 16.2295 42.4198 16.8795H39.7398C39.9198 16.2195 40.4298 15.8195 41.0998 15.8195Z" fill="black"/>
</svg>
